mtllib f_face013.mtl
o editpl_f-0000-1859
v 4.169166 46.556618 0.512330
v 6.026244 47.220749 0.314509
v 0.000000 43.765339 3.210695
v 1.380904 47.426086 9.037517
v 0.000000 48.128719 9.049740
v 0.000000 47.374752 9.374255
v -1.973476 46.710621 8.146212
v 0.000000 44.596306 8.251789
v 0.000000 46.165195 8.581861
v 2.756517 45.879650 7.430501
v 1.378259 44.689346 7.179335
v 3.208882 45.314980 6.146888
v 7.542063 53.236439 -2.550558
v 4.806710 47.329834 6.622547
v 6.806640 49.405647 4.957740
v 5.915136 49.768192 7.125989
v 7.097635 52.180885 5.416729
v 6.129415 51.965923 7.167109
v 0.970865 51.337086 11.257998
v 0.000000 50.862247 11.430258
v 0.000000 50.156406 9.879921
v 1.206307 48.985352 9.495393
v 1.208952 48.051716 8.880816
v 3.854362 47.721256 7.800580
v 1.973476 46.710621 8.146212
v 2.769744 47.984341 8.437386
v 0.000000 43.887257 6.188008
v -1.544919 44.198467 6.185786
v -7.542063 53.236439 -2.550558
v -4.169166 46.556618 0.512330
v -6.026244 47.220749 0.314509
v -3.478714 44.949226 3.961969
v -2.769744 47.984341 8.437386
v -3.854362 47.721256 7.800580
v -6.129415 51.965923 7.167109
v -7.097635 52.180885 5.416729
v -5.915136 49.768192 7.125989
v -6.806640 49.405647 4.957740
v -4.806710 47.329834 6.622547
v -1.206307 48.985352 9.495393
v 0.000000 49.020645 9.956604
v -2.756517 45.879650 7.430501
v 7.743115 55.148624 0.346738
v 7.264295 49.758568 0.271166
v 5.825192 47.073166 4.227582
v 3.478714 44.949226 3.961969
v 1.544919 44.198467 6.185786
v 0.000000 44.060509 7.370488
v 0.000000 46.765160 9.282013
v -1.380904 47.426086 9.037517
v -1.208952 48.051716 8.880816
v 0.000000 51.564880 11.720322
v -0.970865 51.337086 11.257998
v -2.055483 51.125332 9.480946
v -1.378259 44.689346 7.179335
v -3.208882 45.314980 6.146888
v -5.825192 47.073166 4.227582
v -7.264295 49.758568 0.271166
v 2.055483 51.125332 9.480946
v -7.743115 55.148624 0.346738
vn 0.1645 -0.6736 -0.7205
vn 0.5804 -0.7137 -0.3922
vn -0.0000 -0.9791 -0.2036
vn 0.3231 -0.0394 0.9455
vn -0.0000 -0.1644 0.9864
vn -0.0000 0.1260 0.9920
vn -0.3854 -0.4561 0.8022
vn -0.0000 -0.5745 0.8185
vn -0.0000 -0.5029 0.8644
vn 0.5110 -0.5503 0.6604
vn 0.4702 -0.7367 0.4859
vn 0.5959 -0.7135 0.3685
vn 0.4887 -0.4730 -0.7331
vn 0.7011 -0.5120 0.4963
vn 0.9055 -0.3228 0.2756
vn 0.7550 -0.2517 0.6055
vn 0.9504 -0.0550 0.3063
vn 0.6989 -0.0314 0.7145
vn 0.6896 -0.1645 0.7053
vn -0.0000 -0.6831 0.7303
vn -0.0000 -0.5271 0.8498
vn 0.2900 -0.3214 0.9014
vn 0.1959 -0.1332 0.9715
vn 0.4969 -0.3786 0.7808
vn 0.3854 -0.4561 0.8022
vn 0.3920 -0.2744 0.8781
vn -0.0000 -0.9963 0.0863
vn -0.3765 -0.9019 0.2118
vn -0.4887 -0.4730 -0.7331
vn -0.1645 -0.6736 -0.7205
vn -0.5804 -0.7137 -0.3922
vn -0.5271 -0.8497 0.0157
vn -0.3920 -0.2744 0.8781
vn -0.4969 -0.3786 0.7808
vn -0.6989 -0.0314 0.7145
vn -0.9504 -0.0550 0.3063
vn -0.7550 -0.2517 0.6055
vn -0.9055 -0.3228 0.2756
vn -0.7011 -0.5120 0.4963
vn -0.2900 -0.3214 0.9014
vn -0.0000 -0.3605 0.9327
vn -0.5110 -0.5503 0.6604
vn 0.9864 -0.0000 0.1644
vn 0.9369 -0.3228 0.1338
vn 0.7945 -0.5821 0.1731
vn 0.5271 -0.8497 0.0157
vn 0.3765 -0.9019 0.2118
vn -0.0000 -0.9195 0.3930
vn -0.0000 -0.5272 0.8498
vn -0.3231 -0.0394 0.9456
vn -0.1959 -0.1332 0.9715
vn -0.0000 0.2352 0.9719
vn -0.6896 -0.1645 0.7053
vn -0.5029 -0.0078 0.8643
vn -0.4702 -0.7367 0.4859
vn -0.5959 -0.7135 0.3685
vn -0.7945 -0.5821 0.1731
vn -0.9370 -0.3228 0.1338
vn 0.5028 -0.0078 0.8643
vn -0.9864 -0.0000 0.1644
vt 0.012604 0.987976
vt 0.072449 0.943817
vt 0.496094 0.987976
vt 0.432800 0.835144
vt 0.496094 0.804688
vt 0.496094 0.835938
vt 0.374573 0.871429
vt 0.496094 0.927643
vt 0.496094 0.890625
vt 0.339813 0.883301
vt 0.407349 0.934479
vt 0.298492 0.904541
vt 0.012604 0.523438
vt 0.257507 0.818665
vt 0.160706 0.732117
vt 0.204041 0.710052
vt 0.122314 0.577026
vt 0.180969 0.573853
vt 0.452026 0.647308
vt 0.496094 0.679688
vt 0.496094 0.703125
vt 0.445312 0.754456
vt 0.437500 0.796875
vt 0.310791 0.801300
vt 0.359375 0.794250
vt 0.496094 0.984375
vt 0.403992 0.956818
vt 0.265961 0.939789
vt 0.496094 0.755554
vt 0.054688 0.445312
vt 0.083313 0.629913
vt 0.159821 0.862762
vt 0.496094 0.976562
vt 0.496094 0.875000
vt 0.496094 0.632812
vt 0.401825 0.673035
s 1
usemtl f_face084
f 1/1/1 2/2/2 3/3/3
f 4/4/4 5/5/5 6/6/6
f 7/7/7 8/8/8 9/9/9
f 10/10/10 11/11/11 12/12/12
f 2/2/2 1/1/1 13/13/13
f 14/14/14 15/15/15 16/16/16
f 16/16/16 15/15/15 17/17/17
f 16/16/16 17/17/17 18/18/18
f 19/19/19 20/20/20 21/21/21
f 22/22/22 5/5/5 23/23/23
f 14/14/14 24/24/24 10/10/10
f 10/10/10 24/24/24 25/7/25
f 5/5/5 4/4/4 23/23/23
f 23/23/23 4/4/4 26/25/26
f 23/23/23 26/25/26 22/22/22
f 3/3/3 27/26/27 28/27/28
f 29/13/29 30/1/30 31/2/31
f 31/2/31 30/1/30 3/3/3
f 31/2/31 3/3/3 32/28/32
f 32/28/32 3/3/3 28/27/28
f 33/25/33 34/24/34 7/7/7
f 35/18/35 36/17/36 37/16/37
f 37/16/37 36/17/36 38/15/38
f 37/16/37 38/15/38 39/14/39
f 21/21/21 40/22/40 41/29/41
f 8/8/8 7/7/7 42/10/42
f 42/10/42 7/7/7 34/24/34
f 42/10/42 34/24/34 39/14/39
f 43/30/43 17/17/17 44/31/44
f 44/31/44 17/17/17 15/15/15
f 44/31/44 15/15/15 45/32/45
f 45/32/45 15/15/15 14/14/14
f 45/32/45 14/14/14 12/12/12
f 12/12/12 14/14/14 10/10/10
f 2/2/2 46/28/46 3/3/3
f 3/3/3 46/28/46 47/27/47
f 3/3/3 47/27/47 27/26/27
f 27/26/27 47/27/47 48/33/48
f 27/26/27 48/33/48 28/27/28
f 24/24/24 26/25/26 25/7/25
f 25/7/25 26/25/26 4/4/4
f 25/7/25 4/4/4 49/34/49
f 49/34/49 4/4/4 6/6/6
f 49/34/49 6/6/6 50/4/50
f 50/4/50 6/6/6 5/5/5
f 50/4/50 5/5/5 51/23/51
f 19/19/19 52/35/52 20/20/20
f 20/20/20 52/35/52 53/19/53
f 20/20/20 53/19/53 21/21/21
f 21/21/21 53/19/53 54/36/54
f 21/21/21 54/36/54 40/22/40
f 48/33/48 55/11/55 28/27/28
f 28/27/28 55/11/55 56/12/56
f 28/27/28 56/12/56 32/28/32
f 32/28/32 56/12/56 57/32/57
f 32/28/32 57/32/57 31/2/31
f 31/2/31 57/32/57 58/31/58
f 31/2/31 58/31/58 29/13/29
f 11/11/11 10/10/10 8/8/8
f 8/8/8 10/10/10 25/7/25
f 8/8/8 25/7/25 9/9/9
f 9/9/9 25/7/25 49/34/49
f 9/9/9 49/34/49 7/7/7
f 7/7/7 49/34/49 50/4/50
f 7/7/7 50/4/50 33/25/33
f 33/25/33 50/4/50 51/23/51
f 33/25/33 51/23/51 40/22/40
f 40/22/40 51/23/51 5/5/5
f 40/22/40 5/5/5 41/29/41
f 41/29/41 5/5/5 22/22/22
f 41/29/41 22/22/22 21/21/21
f 21/21/21 22/22/22 59/36/59
f 21/21/21 59/36/59 19/19/19
f 13/13/13 44/31/44 2/2/2
f 2/2/2 44/31/44 45/32/45
f 2/2/2 45/32/45 46/28/46
f 46/28/46 45/32/45 12/12/12
f 46/28/46 12/12/12 47/27/47
f 47/27/47 12/12/12 11/11/11
f 47/27/47 11/11/11 48/33/48
f 48/33/48 11/11/11 8/8/8
f 48/33/48 8/8/8 55/11/55
f 55/11/55 8/8/8 42/10/42
f 55/11/55 42/10/42 56/12/56
f 56/12/56 42/10/42 39/14/39
f 56/12/56 39/14/39 57/32/57
f 57/32/57 39/14/39 38/15/38
f 57/32/57 38/15/38 58/31/58
f 58/31/58 38/15/38 36/17/36
f 58/31/58 36/17/36 60/30/60
o editpl_f-0000-1860
v 3.439033 50.608784 8.791907
v 5.121513 52.132759 7.882820
v 3.830553 52.443974 8.444054
v -5.121513 52.132759 7.882820
v -3.830553 52.443974 8.444054
v -5.301401 53.191521 7.777242
v 0.976156 55.139000 9.839912
v 0.751296 52.886726 10.363359
v 1.719516 52.649307 9.188659
v 2.796198 55.328293 8.620758
v 1.775070 54.308033 8.628538
v 3.952242 54.298409 8.506289
v 2.775035 53.323063 8.392931
v 7.743115 55.148624 0.346738
v 8.986457 56.101509 -1.190263
v 7.542063 53.236439 -2.550558
v 8.986457 56.101509 -1.190263
v 7.743115 55.148624 0.346738
v 7.264295 49.758568 0.271166
v 7.801314 49.745735 -1.209156
v 7.264295 49.758568 0.271166
v 6.129415 51.965923 7.167109
v 6.153223 53.249271 7.119321
v 5.301401 53.191521 7.777242
v 6.132060 54.253490 7.073755
v 5.216748 55.373211 7.753903
v 2.055483 51.125332 9.480946
v 1.206307 48.985352 9.495393
v 2.769744 47.984341 8.437386
v 9.700718 54.972164 -2.869516
v 9.491730 52.739140 -2.903968
v 4.761738 50.137154 8.040632
v 3.854362 47.721256 7.800580
v 9.700718 54.972164 -2.869516
v 9.491730 52.739140 -2.903968
v 7.801314 49.745735 -1.209156
v -3.116293 56.505764 9.710995
v -6.071216 57.801945 7.427166
v -6.243167 56.464054 7.681665
v -9.491730 52.739140 -2.903968
v -7.801314 49.745735 -1.209156
v -7.264295 49.758568 0.271166
v 1.558146 56.383846 10.159982
v 0.000000 57.936695 10.243332
v 0.000000 56.303638 10.401145
v -1.666608 57.920654 9.989944
v -2.775035 53.323063 8.392931
v -2.055483 51.125332 9.480946
v -1.719516 52.649307 9.188659
v -0.970865 51.337086 11.257998
v -0.751296 52.886726 10.363359
v 0.000000 51.564880 11.720322
v 3.309408 60.140846 8.958609
v 3.333216 57.904613 9.529844
v 5.851647 59.617882 6.857042
v 6.071216 57.801945 7.427166
v 7.113507 57.580566 4.580992
v -3.439033 50.608784 8.791907
v -5.915136 49.768192 7.125989
v -4.761738 50.137154 8.040632
v -6.129415 51.965923 7.167109
v -7.542063 53.236439 -2.550558
v -8.986457 56.101509 -1.190263
v -7.743115 55.148624 0.346738
v -7.264295 49.758568 0.271166
v -7.801314 49.745735 -1.209156
v -7.113507 57.580566 4.580992
v -7.743115 55.148624 0.346738
v -6.973300 54.587162 5.527864
v -7.097635 52.180885 5.416729
v -6.153223 53.249271 7.119321
v -9.491730 52.739140 -2.903968
v -9.700718 54.972164 -2.869516
v -2.769744 47.984341 8.437386
v -3.854362 47.721256 7.800580
v -4.806710 47.329834 6.622547
v -9.700718 54.972164 -2.869516
v -8.986457 56.101509 -1.190263
v -7.743115 55.148624 0.346738
v 3.116293 56.505764 9.710995
v 6.243167 56.464054 7.681665
v 6.973300 54.587162 5.527864
v 7.097635 52.180885 5.416729
v 0.000000 63.775925 8.289575
v 3.851717 63.461506 7.007073
v 6.388665 61.982449 4.205353
v 7.534127 59.544086 0.082236
v 7.743115 55.148624 0.346738
v 7.542063 53.236439 -2.550558
v 0.000000 53.027893 10.836795
v 0.000000 55.116543 10.004393
v -0.976156 55.139000 9.839912
v -1.558146 56.383846 10.159982
v -3.333216 57.904613 9.529844
v -1.775070 54.308033 8.628538
v -2.796198 55.328293 8.620758
v -5.216748 55.373211 7.753903
v -6.132060 54.253490 7.073755
v -3.952242 54.298409 8.506289
v -1.206307 48.985352 9.495393
v 0.970865 51.337086 11.257998
v 5.915136 49.768192 7.125989
v 4.806710 47.329834 6.622547
v -7.542063 53.236439 -2.550558
v -7.534127 59.544086 0.082236
v -6.388665 61.982449 4.205353
v -5.851647 59.617882 6.857042
v -3.851717 63.461506 7.007073
v -3.309408 60.140846 8.958609
v 0.000000 60.256348 9.759894
v 1.666608 57.920654 9.989944
v -1.666608 57.920654 9.989944
vn 0.4395 -0.0785 0.8948
vn 0.4936 -0.0000 0.8697
vn 0.3604 0.1724 0.9167
vn -0.4936 -0.0000 0.8697
vn -0.3604 0.1724 0.9167
vn -0.4783 0.0078 0.8782
vn 0.5276 -0.1575 0.8348
vn 0.6305 0.3152 0.7093
vn 0.7165 0.2441 0.6535
vn 0.3070 -0.3385 0.8895
vn 0.5502 -0.0550 0.8332
vn 0.2589 -0.0393 0.9651
vn 0.2599 0.0945 0.9610
vn -0.7856 0.5420 -0.2985
vn -0.6828 0.5651 -0.4630
vn -0.6437 0.1334 -0.7536
vn 0.8551 -0.0941 0.5099
vn 0.9864 -0.0000 0.1644
vn 0.9369 -0.3228 0.1339
vn -0.2206 -0.6778 -0.7014
vn 0.9370 -0.3228 0.1339
vn 0.6989 -0.0314 0.7146
vn 0.7845 0.0235 0.6197
vn 0.4783 0.0078 0.8782
vn 0.6978 -0.0627 0.7135
vn 0.4492 -0.1813 0.8748
vn 0.5029 -0.0078 0.8643
vn 0.2901 -0.3213 0.9014
vn 0.3920 -0.2744 0.8781
vn -0.3852 0.3223 -0.8647
vn -0.2115 -0.1645 -0.9634
vn 0.5191 -0.1495 0.8416
vn 0.4969 -0.3786 0.7809
vn 0.8942 -0.0863 0.4393
vn 0.8887 -0.1730 0.4247
vn -0.4487 -0.2755 0.8502
vn -0.7545 0.1886 0.6287
vn -0.7618 -0.0707 0.6440
vn -0.8887 -0.1730 0.4247
vn 0.2206 -0.6778 -0.7014
vn -0.9370 -0.3228 0.1339
vn 0.2204 -0.1181 0.9682
vn -0.0000 0.1491 0.9888
vn -0.0000 -0.1096 0.9940
vn -0.2128 0.1734 0.9616
vn -0.2599 0.0945 0.9610
vn -0.5029 -0.0078 0.8643
vn -0.7165 0.2441 0.6535
vn -0.6896 -0.1646 0.7053
vn -0.6305 0.3152 0.7093
vn -0.0000 0.2352 0.9720
vn 0.4004 0.3062 0.8637
vn 0.4479 0.1572 0.8801
vn 0.7726 0.2681 0.5755
vn 0.7544 0.1886 0.6287
vn 0.9630 0.1174 0.2427
vn -0.4396 -0.0785 0.8948
vn -0.7549 -0.2517 0.6056
vn -0.5191 -0.1495 0.8416
vn -0.6989 -0.0314 0.7146
vn 0.6436 0.1334 -0.7536
vn 0.6828 0.5651 -0.4630
vn 0.7856 0.5420 -0.2985
vn 0.2206 -0.6777 -0.7014
vn -0.9630 0.1174 0.2427
vn -0.9864 -0.0000 0.1643
vn -0.9439 -0.0000 0.3304
vn -0.9503 -0.0550 0.3063
vn -0.7845 0.0235 0.6197
vn 0.2115 -0.1645 -0.9634
vn 0.3852 0.3223 -0.8647
vn -0.3920 -0.2744 0.8781
vn -0.4969 -0.3786 0.7809
vn -0.7011 -0.5120 0.4963
vn -0.8942 -0.0863 0.4393
vn -0.8551 -0.0941 0.5099
vn -0.9864 -0.0000 0.1644
vn 0.4487 -0.2755 0.8502
vn 0.7618 -0.0707 0.6440
vn 0.9439 -0.0000 0.3304
vn 0.9503 -0.0550 0.3063
vn -0.0000 0.4250 0.9052
vn 0.5990 0.3862 0.7015
vn 0.9039 0.2515 0.3459
vn 0.9943 0.0861 0.0626
vn 0.9948 0.0392 -0.0940
vn -0.0000 0.3537 0.9354
vn -0.0000 -0.0940 0.9956
vn -0.5276 -0.1575 0.8348
vn -0.2204 -0.1181 0.9682
vn -0.4479 0.1572 0.8801
vn -0.5502 -0.0550 0.8332
vn -0.3070 -0.3385 0.8895
vn -0.4492 -0.1813 0.8748
vn -0.6978 -0.0627 0.7135
vn -0.2589 -0.0393 0.9651
vn -0.2900 -0.3214 0.9014
vn 0.6896 -0.1646 0.7052
vn 0.7549 -0.2516 0.6056
vn 0.7011 -0.5120 0.4963
vn -0.9948 0.0392 -0.0940
vn -0.9943 0.0861 0.0626
vn -0.9039 0.2515 0.3459
vn -0.7726 0.2681 0.5755
vn -0.5990 0.3862 0.7015
vn -0.4004 0.3062 0.8637
vn -0.0000 0.2830 0.9591
vn 0.2128 0.1734 0.9616
vt 0.352112 0.671295
vt 0.250916 0.559052
vt 0.313599 0.524292
vt 0.226288 0.477722
vt 0.464081 0.398621
vt 0.451904 0.532349
vt 0.389893 0.542389
vt 0.338165 0.381653
vt 0.405212 0.436859
vt 0.304688 0.427063
vt 0.345978 0.478851
vt 0.908875 0.737335
vt 0.949402 0.703033
vt 0.933777 0.760345
vt 0.976562 0.367188
vt 0.882812 0.453125
vt 0.851562 0.656250
vt 0.933807 0.815216
vt 0.916107 0.811768
vt 0.180969 0.573853
vt 0.159088 0.501251
vt 0.168518 0.443054
vt 0.224060 0.387360
vt 0.401825 0.673035
vt 0.445312 0.754456
vt 0.359375 0.794250
vt 0.968445 0.713623
vt 0.964691 0.763733
vt 0.283295 0.686432
vt 0.310791 0.801300
vt 0.984375 0.398438
vt 0.984375 0.578125
vt 0.945312 0.648438
vt 0.307617 0.315430
vt 0.163513 0.247040
vt 0.158844 0.331573
vt 0.403809 0.326050
vt 0.494781 0.246094
vt 0.494781 0.336700
vt 0.404633 0.238617
vt 0.452026 0.647308
vt 0.494781 0.632812
vt 0.310913 0.146851
vt 0.309265 0.231140
vt 0.181244 0.162476
vt 0.070526 0.244263
vt 0.204041 0.710052
vt 0.054688 0.445312
vt 0.104828 0.441772
vt 0.122314 0.577026
vt 0.257507 0.818665
vt 0.494781 0.012634
vt 0.242188 0.012634
vt 0.011993 0.012634
vt 0.011993 0.210938
vt 0.011993 0.523438
vt 0.494781 0.531250
vt 0.494781 0.399750
vt 0.494781 0.140625
s 1
usemtl f_face084
f 61/37/61 62/38/62 63/39/63
f 64/38/64 65/39/65 66/40/66
f 67/41/67 68/42/68 69/43/69
f 70/44/70 67/41/67 71/45/71
f 72/46/72 70/44/70 73/47/73
f 73/47/73 70/44/70 71/45/71
f 73/47/73 71/45/71 69/43/69
f 69/43/69 71/45/71 67/41/67
f 74/48/74 75/49/75 76/50/76
f 77/51/77 78/52/78 79/53/79
f 76/50/76 80/54/80 81/55/81
f 82/56/82 83/57/83 84/40/84
f 84/40/84 83/57/83 85/58/85
f 84/40/84 85/58/85 86/59/86
f 63/39/63 87/60/87 61/37/61
f 61/37/61 87/60/87 88/61/88
f 61/37/61 88/61/88 89/62/89
f 75/49/75 90/63/90 76/50/76
f 76/50/76 90/63/90 91/64/91
f 76/50/76 91/64/91 80/54/80
f 62/38/62 61/37/61 92/65/92
f 92/65/92 61/37/61 89/62/89
f 92/65/92 89/62/89 93/66/93
f 94/67/94 77/51/77 95/68/95
f 95/68/95 77/51/77 79/53/79
f 95/68/95 79/53/79 96/69/80
f 97/70/96 98/71/97 99/72/98
f 100/68/99 101/69/100 102/53/101
f 103/73/102 104/74/103 105/75/104
f 105/75/104 104/74/103 106/76/105
f 107/47/106 108/60/107 109/43/108
f 109/43/108 108/60/107 110/77/109
f 109/43/108 110/77/109 111/42/110
f 111/42/110 110/77/109 112/78/111
f 113/79/112 114/80/113 115/81/114
f 115/81/114 114/80/113 116/71/115
f 115/81/114 116/71/115 117/82/116
f 65/39/65 64/38/64 118/37/117
f 119/83/118 120/65/119 121/56/120
f 122/50/121 123/49/122 124/48/123
f 125/55/101 126/54/124 122/50/121
f 127/82/125 128/84/126 129/85/127
f 129/85/127 128/84/126 130/86/128
f 129/85/127 130/86/128 131/57/129
f 131/57/129 130/86/128 121/56/120
f 126/54/124 132/64/130 122/50/121
f 122/50/121 132/64/130 133/63/131
f 122/50/121 133/63/131 123/49/122
f 134/62/132 120/65/119 135/66/133
f 135/66/133 120/65/119 119/83/118
f 135/66/133 119/83/118 136/87/134
f 137/67/135 100/68/99 138/51/136
f 138/51/136 100/68/99 102/53/101
f 138/51/136 102/53/101 139/52/137
f 140/70/138 86/59/86 141/72/139
f 141/72/139 86/59/86 85/58/85
f 141/72/139 85/58/85 142/85/140
f 142/85/140 85/58/85 83/57/83
f 142/85/140 83/57/83 143/86/141
f 143/86/141 83/57/83 82/56/82
f 144/88/142 113/79/112 145/89/143
f 145/89/143 113/79/112 115/81/114
f 145/89/143 115/81/114 146/90/144
f 146/90/144 115/81/114 117/82/116
f 146/90/144 117/82/116 147/91/145
f 147/91/145 117/82/116 148/84/78
f 147/91/145 148/84/78 149/92/146
f 68/42/68 67/41/67 150/93/147
f 150/93/147 67/41/67 151/94/148
f 150/93/147 151/94/148 152/41/149
f 152/41/149 151/94/148 153/73/150
f 152/41/149 153/73/150 97/70/96
f 97/70/96 153/73/150 154/80/151
f 97/70/96 154/80/151 98/71/97
f 155/45/152 152/41/149 156/44/153
f 156/44/153 152/41/149 97/70/96
f 156/44/153 97/70/96 157/59/154
f 157/59/154 97/70/96 99/72/98
f 157/59/154 99/72/98 158/58/155
f 159/46/156 66/40/66 107/47/106
f 107/47/106 66/40/66 65/39/65
f 107/47/106 65/39/65 108/60/107
f 108/60/107 65/39/65 118/37/117
f 108/60/107 118/37/117 160/61/157
f 73/47/73 84/40/84 72/46/72
f 72/46/72 84/40/84 86/59/86
f 72/46/72 86/59/86 70/44/70
f 70/44/70 86/59/86 140/70/138
f 70/44/70 140/70/138 67/41/67
f 67/41/67 140/70/138 103/73/102
f 67/41/67 103/73/102 151/94/148
f 151/94/148 103/73/102 105/75/104
f 151/94/148 105/75/104 153/73/150
f 153/73/150 105/75/104 106/76/105
f 153/73/150 106/76/105 154/80/151
f 158/58/155 66/40/66 157/59/154
f 157/59/154 66/40/66 159/46/156
f 157/59/154 159/46/156 156/44/153
f 156/44/153 159/46/156 107/47/106
f 156/44/153 107/47/106 155/45/152
f 155/45/152 107/47/106 109/43/108
f 155/45/152 109/43/108 152/41/149
f 152/41/149 109/43/108 111/42/110
f 152/41/149 111/42/110 150/93/147
f 150/93/147 111/42/110 112/78/111
f 150/93/147 112/78/111 68/42/68
f 68/42/68 112/78/111 161/77/158
f 68/42/68 161/77/158 69/43/69
f 69/43/69 161/77/158 87/60/87
f 69/43/69 87/60/87 73/47/73
f 73/47/73 87/60/87 63/39/63
f 73/47/73 63/39/63 84/40/84
f 84/40/84 63/39/63 62/38/62
f 84/40/84 62/38/62 82/56/82
f 82/56/82 62/38/62 92/65/92
f 82/56/82 92/65/92 162/83/159
f 162/83/159 92/65/92 93/66/93
f 162/83/159 93/66/93 163/87/160
f 164/92/161 128/84/126 165/91/162
f 165/91/162 128/84/126 127/82/125
f 165/91/162 127/82/125 166/90/163
f 166/90/163 127/82/125 167/81/164
f 166/90/163 167/81/164 168/89/165
f 168/89/165 167/81/164 169/79/166
f 168/89/165 169/79/166 144/88/142
f 144/88/142 169/79/166 170/95/167
f 144/88/142 170/95/167 113/79/112
f 113/79/112 170/95/167 171/76/168
f 113/79/112 171/76/168 114/80/113
f 143/86/141 148/84/78 142/85/140
f 142/85/140 148/84/78 117/82/116
f 142/85/140 117/82/116 141/72/139
f 141/72/139 117/82/116 116/71/115
f 141/72/139 116/71/115 140/70/138
f 140/70/138 116/71/115 114/80/113
f 140/70/138 114/80/113 103/73/102
f 103/73/102 114/80/113 171/76/168
f 103/73/102 171/76/168 104/74/103
f 104/74/103 171/76/168 170/95/167
f 104/74/103 170/95/167 172/76/105
f 172/76/105 170/95/167 169/79/166
f 172/76/105 169/79/166 154/80/151
f 154/80/151 169/79/166 167/81/164
f 154/80/151 167/81/164 98/71/97
f 98/71/97 167/81/164 127/82/125
f 98/71/97 127/82/125 99/72/98
f 99/72/98 127/82/125 129/85/127
f 99/72/98 129/85/127 158/58/155
f 158/58/155 129/85/127 131/57/129
f 158/58/155 131/57/129 66/40/66
f 66/40/66 131/57/129 121/56/120
f 66/40/66 121/56/120 64/38/64
f 64/38/64 121/56/120 120/65/119
f 64/38/64 120/65/119 118/37/117
f 118/37/117 120/65/119 134/62/132
f 118/37/117 134/62/132 160/61/157
