mtllib f_face028.mtl
o editpl_f-0000-1829
v -5.708794 46.771580 3.710802
v -3.724737 45.016602 3.738587
v -3.711510 45.648651 6.953730
v -4.920462 47.474213 7.270465
v -2.349124 46.194073 8.224005
v -4.216783 49.970322 8.541852
v -5.965399 49.636650 7.234902
v 2.769744 47.926590 8.282907
v 1.841205 49.777817 9.523177
v 1.285669 48.985352 9.769897
v 0.000000 49.854820 9.998837
v -7.385984 49.758568 0.271166
v -7.801314 49.745735 -1.209156
v -7.542063 53.236439 -2.550558
v -6.899229 49.485855 3.988641
v -6.393956 51.978760 7.130434
v -7.264295 52.190510 4.468745
v 0.000000 50.711452 11.430258
v -1.074036 51.170250 11.137972
v -1.978767 50.589535 9.455384
v -1.841205 49.777817 9.523177
v -5.904555 46.540577 0.995768
v -7.385984 49.758568 0.271166
v -7.542063 53.236439 -2.550558
v -2.769744 47.926590 8.282907
v -3.081902 50.464409 9.068633
v -1.208952 48.067760 8.883039
v 0.000000 48.035675 9.227557
v -1.206307 48.869850 9.806572
v 7.542063 53.236439 -2.550558
v 7.801314 49.745735 -1.209156
v 7.385984 49.758568 0.271166
v 1.534338 43.932175 7.252684
v 0.000000 43.800629 7.872818
v 0.000000 43.742878 6.740351
v 4.920462 47.474213 7.270465
v 2.349124 46.194073 8.224005
v 0.000000 44.638016 8.646319
v 1.632218 44.840141 8.117316
v 3.711510 45.648651 6.953730
v 0.000000 43.765339 3.210695
v 4.169166 46.556618 0.512330
v 5.904555 46.540577 0.995768
v 7.542063 53.236439 -2.550558
v 7.385984 49.758568 0.271166
v 5.708794 46.771580 3.710802
v 3.724737 45.016602 3.738587
v -1.285669 48.985352 9.769897
v 0.000000 48.840977 10.166650
v 1.206307 48.869850 9.806572
v -7.645234 55.148624 0.346738
v -1.333287 47.531960 9.209775
v 0.000000 47.483837 9.660984
v 1.208952 48.067760 8.883039
v 0.000000 46.806870 9.560964
v 1.333287 47.531960 9.209775
v 7.264295 52.190510 4.468745
v 6.393956 51.978760 7.130434
v 6.899229 49.485855 3.988641
v 5.965399 49.636650 7.234902
v 4.216783 49.970322 8.541852
v 3.081902 50.464409 9.068633
v 1.978767 50.589535 9.455384
v 1.074036 51.170250 11.137972
v 0.000000 51.375584 11.664753
v -4.169166 46.556618 0.512330
v -1.534338 43.932175 7.252684
v -1.632218 44.840141 8.117316
v 0.000000 45.959862 8.894151
v 1.208952 48.067760 8.883039
v 7.645234 55.148624 0.346738
vn -0.8147 -0.5561 0.1645
vn -0.5327 -0.8461 0.0156
vn -0.6425 -0.6112 0.4623
vn -0.6617 -0.3938 0.6380
vn -0.4316 -0.3296 0.8397
vn -0.4416 -0.1971 0.8753
vn -0.7522 -0.2037 0.6267
vn 0.4550 -0.2197 0.8630
vn 0.3922 -0.0628 0.9177
vn 0.4251 -0.0000 0.9052
vn -0.0000 -0.2996 0.9540
vn -0.9359 -0.3225 0.1416
vn 0.2356 -0.6833 -0.6911
vn 0.6513 0.1413 -0.7455
vn -0.9317 -0.2897 0.2192
vn -0.8519 -0.0078 0.5236
vn -0.9753 -0.0157 0.2202
vn -0.0000 -0.6285 0.7778
vn -0.6381 -0.0945 0.7642
vn -0.5087 -0.0079 0.8609
vn -0.3922 -0.0628 0.9177
vn -0.5771 -0.7273 -0.3716
vn -0.5034 -0.4955 -0.7079
vn -0.4550 -0.2197 0.8630
vn -0.3781 -0.0867 0.9217
vn -0.3140 -0.1178 0.9421
vn -0.0000 -0.3996 0.9167
vn -0.3231 -0.5121 0.7958
vn -0.6513 0.1412 -0.7456
vn -0.2356 -0.6833 -0.6911
vn 0.9359 -0.3225 0.1415
vn 0.3697 -0.8966 0.2438
vn -0.0000 -0.8554 0.5180
vn -0.0000 -0.9999 0.0157
vn 0.6617 -0.3938 0.6380
vn 0.4316 -0.3296 0.8397
vn -0.0000 -0.4472 0.8944
vn 0.4087 -0.4638 0.7860
vn 0.6425 -0.6112 0.4623
vn -0.0000 -0.9701 -0.2425
vn 0.1968 -0.6611 -0.7240
vn 0.5773 -0.7273 -0.3712
vn 0.5034 -0.4955 -0.7079
vn 0.9359 -0.3225 0.1416
vn 0.8147 -0.5561 0.1645
vn 0.5327 -0.8461 0.0156
vn -0.4251 -0.0000 0.9052
vn -0.0000 -0.1886 0.9821
vn 0.3231 -0.5121 0.7958
vn -0.9851 -0.0000 0.1720
vn -0.4069 0.1018 0.9078
vn -0.0000 0.2425 0.9702
vn 0.3140 -0.1178 0.9421
vn -0.0000 -0.3833 0.9236
vn 0.4069 0.1017 0.9078
vn 0.9753 -0.0157 0.2202
vn 0.8519 -0.0078 0.5236
vn 0.9317 -0.2897 0.2192
vn 0.7521 -0.2037 0.6267
vn 0.4416 -0.1971 0.8753
vn 0.3781 -0.0867 0.9217
vn 0.5087 -0.0079 0.8609
vn 0.6381 -0.0945 0.7642
vn -0.0000 0.1173 0.9931
vn -0.1967 -0.6611 -0.7240
vn -0.3697 -0.8966 0.2438
vn -0.4088 -0.4638 0.7860
vn -0.0000 -0.3537 0.9354
vn 0.9851 -0.0000 0.1720
vt 0.176819 0.876404
vt 0.278381 0.943176
vt 0.301331 0.907349
vt 0.259796 0.832581
vt 0.404663 0.906250
vt 0.286987 0.688690
vt 0.215546 0.709625
vt 0.367188 0.795563
vt 0.408325 0.712738
vt 0.440643 0.749420
vt 0.500000 0.703125
vt 0.916840 0.784912
vt 0.952667 0.797119
vt 0.947266 0.745911
vt 0.138916 0.731628
vt 0.172028 0.580536
vt 0.107635 0.589874
vt 0.500000 0.679688
vt 0.448639 0.647308
vt 0.390625 0.664062
vt 0.090881 0.929688
vt 0.070923 0.753632
vt 0.012817 0.571594
vt 0.343231 0.673828
vt 0.444275 0.789062
vt 0.500000 0.789673
vt 0.445312 0.754730
vt 0.384369 0.952332
vt 0.500000 0.976562
vt 0.500000 0.984375
vt 0.500000 0.953125
vt 0.426544 0.939056
vt 0.500000 0.988800
vt 0.012817 0.988800
vt 0.500000 0.754333
vt 0.041992 0.452057
vt 0.443359 0.822357
vt 0.500000 0.825287
vt 0.500000 0.859375
vt 0.500000 0.632812
vt 0.500000 0.906250
s 1
usemtl f_face069
f 1/1/1 2/2/2 3/3/3
f 4/4/4 3/3/3 5/5/5
f 4/4/4 6/6/6 7/7/7
f 8/8/8 9/9/9 10/10/10
f 10/10/10 9/9/9 11/11/11
f 12/12/12 13/13/13 14/14/14
f 4/4/4 7/7/7 15/15/15
f 15/15/15 7/7/7 16/16/16
f 15/15/15 16/16/16 17/17/17
f 18/18/18 19/19/19 11/11/11
f 11/11/11 19/19/19 20/20/20
f 11/11/11 20/20/20 21/9/21
f 2/2/2 1/1/1 22/21/22
f 22/21/22 1/1/1 23/22/12
f 22/21/22 23/22/12 24/23/23
f 6/6/6 25/8/24 26/24/25
f 27/25/26 28/26/27 29/27/28
f 30/14/29 31/13/30 32/12/31
f 33/28/32 34/29/33 35/30/34
f 36/4/35 8/8/8 37/5/36
f 38/31/37 34/29/33 39/32/38
f 39/32/38 34/29/33 33/28/32
f 39/32/38 33/28/32 40/3/39
f 41/33/40 42/34/41 43/21/42
f 43/21/42 42/34/41 44/23/43
f 43/21/42 44/23/43 45/22/44
f 45/22/44 46/1/45 43/21/42
f 43/21/42 46/1/45 47/2/46
f 43/21/42 47/2/46 41/33/40
f 21/9/21 48/10/47 11/11/11
f 11/11/11 48/10/47 49/35/48
f 11/11/11 49/35/48 10/10/10
f 10/10/10 49/35/48 50/27/49
f 10/10/10 50/27/49 8/8/8
f 3/3/3 4/4/4 1/1/1
f 1/1/1 4/4/4 15/15/15
f 1/1/1 15/15/15 23/22/12
f 23/22/12 15/15/15 17/17/17
f 23/22/12 17/17/17 51/36/50
f 29/27/28 25/8/24 27/25/26
f 27/25/26 25/8/24 52/37/51
f 27/25/26 52/37/51 28/26/27
f 28/26/27 52/37/51 53/38/52
f 28/26/27 53/38/52 54/25/53
f 6/6/6 4/4/4 25/8/24
f 25/8/24 4/4/4 5/5/5
f 25/8/24 5/5/5 52/37/51
f 52/37/51 5/5/5 55/39/54
f 52/37/51 55/39/54 53/38/52
f 53/38/52 55/39/54 56/37/55
f 53/38/52 56/37/55 54/25/53
f 57/17/56 58/16/57 59/15/58
f 59/15/58 58/16/57 60/7/59
f 59/15/58 60/7/59 36/4/35
f 36/4/35 60/7/59 61/6/60
f 36/4/35 61/6/60 8/8/8
f 8/8/8 61/6/60 62/24/61
f 8/8/8 62/24/61 9/9/9
f 9/9/9 62/24/61 63/20/62
f 9/9/9 63/20/62 11/11/11
f 11/11/11 63/20/62 64/19/63
f 11/11/11 64/19/63 18/18/18
f 18/18/18 64/19/63 65/40/64
f 18/18/18 65/40/64 19/19/19
f 24/23/23 66/34/65 22/21/22
f 22/21/22 66/34/65 41/33/40
f 22/21/22 41/33/40 2/2/2
f 2/2/2 41/33/40 67/28/66
f 2/2/2 67/28/66 3/3/3
f 3/3/3 67/28/66 68/32/67
f 3/3/3 68/32/67 5/5/5
f 5/5/5 68/32/67 69/41/68
f 5/5/5 69/41/68 55/39/54
f 55/39/54 69/41/68 37/5/36
f 55/39/54 37/5/36 56/37/55
f 56/37/55 37/5/36 8/8/8
f 56/37/55 8/8/8 70/25/53
f 70/25/53 8/8/8 50/27/49
f 70/25/53 50/27/49 28/26/27
f 28/26/27 50/27/49 49/35/48
f 28/26/27 49/35/48 29/27/28
f 29/27/28 49/35/48 48/10/47
f 29/27/28 48/10/47 25/8/24
f 25/8/24 48/10/47 21/9/21
f 25/8/24 21/9/21 26/24/25
f 26/24/25 21/9/21 20/20/20
f 71/36/69 57/17/56 45/22/44
f 45/22/44 57/17/56 59/15/58
f 45/22/44 59/15/58 46/1/45
f 46/1/45 59/15/58 36/4/35
f 46/1/45 36/4/35 40/3/39
f 40/3/39 36/4/35 37/5/36
f 40/3/39 37/5/36 39/32/38
f 39/32/38 37/5/36 69/41/68
f 39/32/38 69/41/68 38/31/37
f 38/31/37 69/41/68 68/32/67
f 38/31/37 68/32/67 34/29/33
f 34/29/33 68/32/67 67/28/66
f 34/29/33 67/28/66 35/30/34
f 35/30/34 67/28/66 41/33/40
f 35/30/34 41/33/40 33/28/32
f 33/28/32 41/33/40 47/2/46
f 33/28/32 47/2/46 40/3/39
f 40/3/39 47/2/46 46/1/45
o editpl_f-0000-1830
v -7.645234 55.148624 0.346738
v -7.179642 58.392284 4.621000
v -7.534127 59.544086 0.082236
v -6.973300 54.571117 5.186679
v -6.243167 56.387054 7.681665
v 4.883427 52.225803 8.254012
v 4.216783 49.970322 8.541852
v 5.965399 49.636650 7.234902
v 0.822722 52.373386 10.447823
v 1.074036 51.170250 11.137972
v 1.978767 50.589535 9.455384
v -6.036825 58.004070 7.384933
v -6.388665 61.982449 4.224246
v 0.000000 52.581932 10.836795
v 0.000000 51.375584 11.664753
v -4.216783 49.970322 8.541852
v -3.081902 50.464409 9.068633
v -4.883427 52.225803 8.254012
v -7.542063 53.236439 -2.550558
v -7.801314 49.745735 -1.209156
v -9.491730 52.739140 -2.903968
v -7.542063 53.236439 -2.550558
v -7.385984 49.758568 0.271166
v -7.645234 55.148624 0.346738
v -8.986457 56.101509 -1.190263
v -9.700718 54.972164 -2.869516
v -8.986457 56.101509 -1.190263
v -7.645234 55.148624 0.346738
v -2.928469 56.589184 9.888812
v -5.095059 55.700462 8.048412
v -6.007726 54.192532 7.098205
v -5.174422 53.586151 7.807248
v -2.864979 55.751797 8.801909
v -1.902050 53.650318 8.704110
v -1.529047 55.395668 9.462052
v -0.954993 54.154030 9.759895
v 0.000000 55.183918 10.079965
v -7.801314 49.745735 -1.209156
v -9.491730 52.739140 -2.903968
v -9.700718 54.972164 -2.869516
v 9.491730 52.739140 -2.903968
v 9.700718 54.972164 -2.869516
v 8.986457 56.101509 -1.190263
v 6.393956 51.978760 7.130434
v 7.542063 53.236439 -2.550558
v 9.491730 52.739140 -2.903968
v 7.801314 49.745735 -1.209156
v 3.341153 60.140846 8.998617
v 6.036825 58.004070 7.384933
v 5.830483 59.617882 7.213786
v 7.179642 58.392284 4.621000
v 6.243167 56.387054 7.681665
v 6.007726 54.192532 7.098205
v 6.973300 54.571117 5.186679
v 6.253749 53.104897 6.942616
v 7.264295 52.190510 4.468745
v 7.645234 55.148624 0.346738
v 8.986457 56.101509 -1.190263
v 9.700718 54.972164 -2.869516
v 2.843816 53.464233 8.351811
v 3.952242 54.526203 8.677437
v 2.864979 55.751797 8.801909
v 2.928469 56.589184 9.888812
v 5.095059 55.700462 8.048412
v 5.174422 53.586151 7.807248
v 7.801314 49.745735 -1.209156
v 7.385984 49.758568 0.271166
v 7.645234 55.148624 0.346738
v -7.264295 52.190510 4.468745
v -6.253749 53.104897 6.942616
v -6.393956 51.978760 7.130434
v -5.965399 49.636650 7.234902
v -3.510459 52.472847 8.813023
v -1.978767 50.589535 9.455384
v 0.000000 63.775925 8.289575
v 3.851717 63.461506 7.007073
v 6.388665 61.982449 4.224246
v 7.534127 59.544086 0.082236
v 7.645234 55.148624 0.346738
v 7.542063 53.236439 -2.550558
v 3.081902 50.464409 9.068633
v 3.510459 52.472847 8.813023
v 2.023739 52.723099 9.139760
v 0.954993 54.154030 9.759895
v -0.822722 52.373386 10.447823
v -2.023739 52.723099 9.139760
v -2.843816 53.464233 8.351811
v -3.952242 54.526203 8.677437
v -5.830483 59.617882 7.213786
v -3.851717 63.461506 7.007073
v -3.341153 60.140846 8.998617
v 0.000000 60.256348 9.799902
v 3.134811 58.366615 9.342025
v -3.134811 58.366615 9.342025
v 0.000000 58.225449 10.095522
v 0.000000 56.197762 10.593410
v 1.529047 55.395668 9.462052
v 1.902050 53.650318 8.704110
v -1.074036 51.170250 11.137972
vn -0.9851 -0.0000 0.1720
vn -0.9594 0.1101 0.2595
vn -0.9941 0.0939 0.0548
vn -0.9518 -0.0000 0.3068
vn -0.7412 -0.0394 0.6702
vn 0.5264 0.0550 0.8485
vn 0.4416 -0.1971 0.8753
vn 0.7521 -0.2037 0.6268
vn 0.6525 0.2909 0.6997
vn 0.6381 -0.0945 0.7641
vn 0.5087 -0.0078 0.8609
vn -0.7319 0.1653 0.6611
vn -0.8956 0.2985 0.3299
vn -0.0000 0.4783 0.8782
vn -0.0000 0.1173 0.9931
vn -0.4416 -0.1971 0.8753
vn -0.3781 -0.0866 0.9217
vn -0.5264 0.0550 0.8485
vn -0.9988 0.0158 -0.0472
vn 0.2356 -0.6832 -0.6911
vn 0.2115 -0.1645 -0.9634
vn 0.6513 0.1412 -0.7455
vn -0.9359 -0.3225 0.1416
vn -0.8506 -0.0788 0.5199
vn 0.3852 0.3223 -0.8647
vn 0.6693 0.5669 -0.4803
vn 0.7716 0.5433 -0.3307
vn -0.3836 -0.2897 0.8769
vn -0.4701 -0.2507 0.8462
vn -0.7319 -0.0787 0.6768
vn -0.5026 0.0314 0.8639
vn -0.2995 -0.3625 0.8826
vn -0.5741 0.0393 0.8179
vn -0.4634 -0.3614 0.8091
vn -0.6376 0.1496 0.7557
vn -0.0000 0.0393 0.9992
vn 0.2355 -0.6833 -0.6911
vn -0.9007 -0.1880 0.3916
vn -0.8942 -0.0863 0.4393
vn 0.9007 -0.1880 0.3916
vn 0.8942 -0.0863 0.4393
vn 0.8506 -0.0788 0.5199
vn 0.8519 -0.0078 0.5237
vn -0.6513 0.1412 -0.7455
vn -0.2115 -0.1645 -0.9634
vn -0.2356 -0.6832 -0.6911
vn 0.4340 0.2683 0.8601
vn 0.7319 0.1653 0.6611
vn 0.7792 0.2676 0.5667
vn 0.9594 0.1101 0.2595
vn 0.7412 -0.0394 0.6702
vn 0.7319 -0.0787 0.6768
vn 0.9518 -0.0000 0.3068
vn 0.7942 0.1101 0.5976
vn 0.9753 -0.0157 0.2202
vn -0.7716 0.5433 -0.3307
vn -0.6693 0.5669 -0.4803
vn -0.3852 0.3223 -0.8647
vn 0.2281 0.1101 0.9674
vn 0.2582 -0.1487 0.9546
vn 0.2995 -0.3625 0.8826
vn 0.3836 -0.2897 0.8769
vn 0.4701 -0.2507 0.8462
vn 0.5026 0.0314 0.8639
vn -0.2355 -0.6833 -0.6911
vn 0.9359 -0.3224 0.1416
vn 0.9851 -0.0000 0.1720
vn -0.9753 -0.0157 0.2202
vn -0.7942 0.1101 0.5976
vn -0.8519 -0.0078 0.5237
vn -0.7521 -0.2036 0.6268
vn -0.3061 0.2512 0.9183
vn -0.5087 -0.0078 0.8609
vn -0.0000 0.4314 0.9021
vn 0.5760 0.4182 0.7023
vn 0.8956 0.2985 0.3299
vn 0.9941 0.0939 0.0548
vn 0.9988 0.0158 -0.0472
vn 0.3781 -0.0866 0.9217
vn 0.3061 0.2512 0.9183
vn 0.5352 0.3069 0.7870
vn 0.6376 0.1496 0.7557
vn -0.6525 0.2909 0.6997
vn -0.5352 0.3069 0.7870
vn -0.2281 0.1101 0.9674
vn -0.2582 -0.1487 0.9546
vn -0.7792 0.2676 0.5667
vn -0.5760 0.4182 0.7023
vn -0.4340 0.2683 0.8601
vn -0.0000 0.2351 0.9720
vn 0.3988 0.1798 0.8992
vn -0.3988 0.1798 0.8992
vn -0.0000 0.2127 0.9771
vn -0.0000 -0.2830 0.9591
vn 0.4634 -0.3614 0.8091
vn 0.5741 0.0393 0.8179
vn -0.6381 -0.0945 0.7642
vt 0.041992 0.452057
vt 0.100372 0.264709
vt 0.012543 0.210938
vt 0.101318 0.446960
vt 0.176331 0.334808
vt 0.252167 0.568726
vt 0.286987 0.688690
vt 0.215546 0.709625
vt 0.464264 0.532349
vt 0.448639 0.647308
vt 0.390625 0.664062
vt 0.189728 0.261139
vt 0.012543 0.011444
vt 0.495392 0.531250
vt 0.495392 0.632812
vt 0.343231 0.673828
vt 0.012543 0.571594
vt 0.952667 0.797119
vt 0.974884 0.763824
vt 0.947266 0.745911
vt 0.851562 0.656250
vt 0.876709 0.473083
vt 0.975159 0.365448
vt 0.979156 0.690338
vt 0.948517 0.669189
vt 0.920197 0.714050
vt 0.310547 0.313843
vt 0.226562 0.367188
vt 0.187500 0.437500
vt 0.228027 0.475800
vt 0.342773 0.371094
vt 0.398438 0.462921
vt 0.421875 0.406250
vt 0.437500 0.465393
vt 0.495392 0.406036
vt 0.945312 0.648438
vt 0.987518 0.578125
vt 0.987518 0.398438
vt 0.172028 0.580536
vt 0.320312 0.127350
vt 0.197479 0.147980
vt 0.163483 0.514313
vt 0.107635 0.589874
vt 0.350098 0.477661
vt 0.290924 0.420990
vt 0.323425 0.553040
vt 0.495392 0.011444
vt 0.242188 0.011444
vt 0.383240 0.544922
vt 0.495392 0.121307
vt 0.315430 0.223328
vt 0.495392 0.222137
vt 0.495392 0.351562
s 1
usemtl f_face069
f 72/42/70 73/43/71 74/44/72
f 75/45/73 76/46/74 73/43/71
f 77/47/75 78/48/76 79/49/77
f 80/50/78 81/51/79 82/52/80
f 76/46/74 83/53/81 73/43/71
f 73/43/71 84/54/82 74/44/72
f 85/55/83 86/56/84 81/51/79
f 87/48/85 88/57/86 89/47/87
f 72/42/70 74/44/72 90/58/88
f 91/59/89 92/60/90 93/61/91
f 94/62/92 95/63/70 96/64/93
f 92/60/90 97/65/94 93/61/91
f 93/61/91 97/65/94 98/66/95
f 93/61/91 98/66/95 99/67/96
f 100/68/97 76/46/74 101/69/98
f 101/69/98 76/46/74 102/70/99
f 101/69/98 102/70/99 103/71/100
f 104/72/101 105/73/102 106/74/103
f 106/74/103 105/73/102 107/75/104
f 106/74/103 107/75/104 108/76/105
f 109/77/106 94/62/92 110/78/107
f 110/78/107 94/62/92 96/64/93
f 110/78/107 96/64/93 111/79/108
f 112/78/109 113/79/110 114/64/111
f 79/49/77 115/80/112 77/47/75
f 116/61/113 117/60/114 118/59/115
f 119/81/116 120/53/117 121/82/118
f 121/82/118 120/53/117 122/43/119
f 123/46/120 124/70/121 125/45/122
f 125/45/122 124/70/121 126/83/123
f 125/45/122 126/83/123 127/84/124
f 128/67/125 129/66/126 116/61/113
f 116/61/113 129/66/126 130/65/127
f 116/61/113 130/65/127 117/60/114
f 131/85/128 132/86/129 133/72/130
f 134/68/131 133/72/130 135/69/132
f 135/69/132 133/72/130 132/86/129
f 135/69/132 132/86/129 136/71/133
f 136/71/133 132/86/129 131/85/128
f 137/77/134 112/78/109 138/62/135
f 138/62/135 112/78/109 114/64/111
f 138/62/135 114/64/111 139/63/136
f 73/43/71 72/42/70 75/45/73
f 75/45/73 72/42/70 140/84/137
f 75/45/73 140/84/137 141/83/138
f 141/83/138 140/84/137 142/80/139
f 141/83/138 142/80/139 89/47/87
f 89/47/87 142/80/139 143/49/140
f 89/47/87 143/49/140 87/48/85
f 76/46/74 75/45/73 102/70/99
f 102/70/99 75/45/73 141/83/138
f 102/70/99 141/83/138 103/71/100
f 103/71/100 141/83/138 89/47/87
f 103/71/100 89/47/87 144/87/141
f 144/87/141 89/47/87 88/57/86
f 144/87/141 88/57/86 145/52/142
f 146/88/143 119/81/116 147/89/144
f 147/89/144 119/81/116 121/82/118
f 147/89/144 121/82/118 148/54/145
f 148/54/145 121/82/118 122/43/119
f 148/54/145 122/43/119 149/44/146
f 149/44/146 122/43/119 150/42/136
f 149/44/146 150/42/136 151/58/147
f 78/48/76 77/47/75 152/57/148
f 152/57/148 77/47/75 153/87/149
f 152/57/148 153/87/149 82/52/80
f 82/52/80 153/87/149 154/90/150
f 82/52/80 154/90/150 80/50/78
f 80/50/78 154/90/150 155/75/151
f 80/50/78 155/75/151 108/76/105
f 81/51/79 80/50/78 85/55/83
f 85/55/83 80/50/78 108/76/105
f 85/55/83 108/76/105 156/50/152
f 156/50/152 108/76/105 107/75/104
f 156/50/152 107/75/104 157/90/153
f 157/90/153 107/75/104 105/73/102
f 157/90/153 105/73/102 158/85/154
f 158/85/154 105/73/102 104/72/101
f 158/85/154 104/72/101 159/86/155
f 84/54/82 160/82/156 161/89/157
f 161/89/157 160/82/156 162/81/158
f 161/89/157 162/81/158 146/88/143
f 146/88/143 162/81/158 163/91/159
f 146/88/143 163/91/159 119/81/116
f 119/81/116 163/91/159 164/92/160
f 119/81/116 164/92/160 120/53/117
f 120/53/117 164/92/160 123/46/120
f 120/53/117 123/46/120 122/43/119
f 122/43/119 123/46/120 125/45/122
f 122/43/119 125/45/122 150/42/136
f 150/42/136 125/45/122 127/84/124
f 83/53/81 76/46/74 165/92/161
f 165/92/161 76/46/74 100/68/97
f 165/92/161 100/68/97 166/93/162
f 166/93/162 100/68/97 167/94/163
f 166/93/162 167/94/163 134/68/131
f 134/68/131 167/94/163 168/74/164
f 134/68/131 168/74/164 133/72/130
f 133/72/130 168/74/164 169/73/165
f 133/72/130 169/73/165 131/85/128
f 84/54/82 73/43/71 160/82/156
f 160/82/156 73/43/71 83/53/81
f 160/82/156 83/53/81 162/81/158
f 162/81/158 83/53/81 165/92/161
f 162/81/158 165/92/161 163/91/159
f 163/91/159 165/92/161 166/93/162
f 163/91/159 166/93/162 164/92/160
f 164/92/160 166/93/162 134/68/131
f 164/92/160 134/68/131 123/46/120
f 123/46/120 134/68/131 135/69/132
f 123/46/120 135/69/132 124/70/121
f 124/70/121 135/69/132 136/71/133
f 124/70/121 136/71/133 126/83/123
f 86/56/84 85/55/83 170/51/166
f 170/51/166 85/55/83 156/50/152
f 170/51/166 156/50/152 145/52/142
f 145/52/142 156/50/152 157/90/153
f 145/52/142 157/90/153 144/87/141
f 144/87/141 157/90/153 158/85/154
f 144/87/141 158/85/154 103/71/100
f 103/71/100 158/85/154 159/86/155
f 103/71/100 159/86/155 101/69/98
f 101/69/98 159/86/155 104/72/101
f 101/69/98 104/72/101 100/68/97
f 100/68/97 104/72/101 106/74/103
f 100/68/97 106/74/103 167/94/163
f 167/94/163 106/74/103 108/76/105
f 167/94/163 108/76/105 168/74/164
f 168/74/164 108/76/105 155/75/151
f 168/74/164 155/75/151 169/73/165
f 169/73/165 155/75/151 154/90/150
f 169/73/165 154/90/150 131/85/128
f 131/85/128 154/90/150 153/87/149
f 131/85/128 153/87/149 136/71/133
f 136/71/133 153/87/149 77/47/75
f 136/71/133 77/47/75 126/83/123
f 126/83/123 77/47/75 115/80/112
f 126/83/123 115/80/112 127/84/124
