mtllib f_face011.mtl
o editpl_f-0000-1821
v 0.000000 50.586327 11.380247
v 0.859758 50.955288 11.251330
v 0.000000 51.192707 11.569178
v -1.219534 48.946850 9.879921
v -3.362316 50.072987 8.813023
v -2.796198 48.305180 8.662991
v -7.743115 55.148624 0.346738
v -7.385984 49.758568 0.271166
v -7.121443 51.860050 4.543206
v -7.385984 49.758568 0.271166
v -7.801314 49.745735 -1.209156
v -7.542063 53.236439 -2.550558
v -0.859758 50.955288 11.251330
v -2.118973 46.700993 8.482951
v -3.870235 47.782215 7.861704
v -7.542063 53.236439 -2.550558
v -6.065925 46.967289 0.655694
v -4.169166 46.556618 0.512330
v 0.000000 43.765339 3.210695
v -1.058164 44.801640 8.316248
v -2.870270 46.068947 7.742791
v -3.203591 45.475399 6.392497
v -4.912526 47.294540 6.592541
v 7.542063 53.236439 -2.550558
v 7.801314 49.745735 -1.209156
v 7.385984 49.758568 0.271166
v 1.367677 48.103050 8.954165
v 0.000000 48.051716 9.263121
v 0.000000 47.445335 9.655428
v 0.000000 49.947861 10.118862
v -1.862369 50.441952 9.416487
v 2.796198 48.305180 8.662991
v 1.613700 47.297749 9.215332
v 0.000000 46.736286 9.437602
v 7.542063 53.236439 -2.550558
v 7.385984 49.758568 0.271166
v 6.065925 46.967289 0.655694
v 5.513034 46.822910 3.696355
v 3.211528 44.769558 3.388511
v 3.203591 45.475399 6.392497
v -6.200841 51.536003 6.852596
v -6.682305 49.258064 4.315378
v -5.513034 46.822910 3.696355
v -3.211528 44.769558 3.388511
v 1.058164 44.801640 8.316248
v 0.000000 46.315990 8.801909
v -5.809320 49.450565 6.747018
v 1.621636 44.419846 6.156891
v 0.000000 44.195259 7.749459
v -1.621636 44.419846 6.156891
v 0.000000 49.238811 10.095523
v 1.862369 50.441952 9.416487
v 4.169166 46.556618 0.512330
v 7.121443 51.860050 4.543206
v 6.200841 51.536003 6.852596
v 6.682305 49.258064 4.315378
v 5.809320 49.450565 6.747018
v 4.912526 47.294540 6.592541
v 3.870235 47.782215 7.861704
v 2.870270 46.068947 7.742791
v 2.118973 46.700993 8.482951
v -1.621636 44.419846 6.156891
v 1.621636 44.419846 6.156891
v 0.000000 46.412243 8.869701
v -1.613700 47.297749 9.215332
v -1.367677 48.103050 8.954165
v 0.000000 48.953266 10.091078
v 1.219534 48.946850 9.879921
v 3.362316 50.072987 8.813023
v 7.743115 55.148624 0.346738
vn -0.0000 -0.6371 0.7708
vn 0.6036 -0.0940 0.7917
vn -0.0000 0.1644 0.9864
vn -0.3067 -0.2438 0.9201
vn -0.4640 -0.0944 0.8808
vn -0.4538 -0.2582 0.8529
vn -0.9849 -0.0000 0.1733
vn -0.9279 -0.3381 0.1573
vn -0.9639 -0.0627 0.2586
vn 0.2356 -0.6833 -0.6911
vn 0.6552 0.1421 -0.7420
vn -0.6036 -0.0940 0.7917
vn -0.3938 -0.4016 0.8268
vn -0.5731 -0.3219 0.7536
vn -0.4966 -0.4887 -0.7173
vn -0.5737 -0.7229 -0.3851
vn -0.1969 -0.6773 -0.7088
vn -0.0000 -0.9791 -0.2036
vn -0.3449 -0.6192 0.7054
vn -0.5820 -0.4955 0.6449
vn -0.6048 -0.7383 0.2985
vn -0.7419 -0.4972 0.4499
vn -0.6551 0.1421 -0.7420
vn -0.2356 -0.6833 -0.6911
vn 0.9279 -0.3381 0.1573
vn 0.2281 -0.1652 0.9595
vn -0.0000 -0.0785 0.9969
vn -0.0000 0.2277 0.9737
vn -0.0000 -0.6831 0.7303
vn -0.4552 -0.0785 0.8869
vn 0.4538 -0.2582 0.8529
vn 0.3538 -0.2673 0.8963
vn -0.0000 -0.6199 0.7847
vn 0.4966 -0.4887 -0.7173
vn 0.5737 -0.7229 -0.3851
vn 0.7853 -0.5968 0.1649
vn 0.5028 -0.8642 0.0157
vn 0.6048 -0.7383 0.2985
vn -0.8350 -0.0867 0.5434
vn -0.9148 -0.3154 0.2523
vn -0.7853 -0.5968 0.1649
vn -0.5028 -0.8642 0.0157
vn 0.3449 -0.6192 0.7054
vn -0.0000 -0.3700 0.9290
vn -0.7776 -0.2749 0.5655
vn 0.3860 -0.9061 0.1733
vn -0.0000 -0.9518 0.3067
vn -0.3860 -0.9061 0.1733
vn -0.0000 0.0550 0.9985
vn 0.4552 -0.0785 0.8869
vn 0.1969 -0.6773 -0.7088
vn 0.9639 -0.0627 0.2586
vn 0.8350 -0.0867 0.5434
vn 0.9148 -0.3154 0.2523
vn 0.7776 -0.2749 0.5655
vn 0.7419 -0.4972 0.4499
vn 0.5731 -0.3219 0.7536
vn 0.5820 -0.4955 0.6449
vn 0.3938 -0.4016 0.8268
vn -0.3861 -0.9060 0.1733
vn -0.0000 -0.9518 0.3068
vn 0.3861 -0.9060 0.1733
vn -0.0000 -0.7226 0.6912
vn -0.3538 -0.2673 0.8963
vn -0.2281 -0.1652 0.9595
vn -0.0000 -0.5029 0.8644
vn 0.3067 -0.2438 0.9201
vn 0.4640 -0.0944 0.8808
vn 0.9849 -0.0000 0.1733
vt 0.497284 0.664062
vt 0.451813 0.633759
vt 0.497284 0.617188
vt 0.433136 0.760406
vt 0.359863 0.667969
vt 0.370514 0.795746
vt 0.032227 0.331055
vt 0.050781 0.644531
vt 0.108246 0.569183
vt 0.908936 0.845642
vt 0.944183 0.837769
vt 0.928986 0.776550
vt 0.397644 0.898438
vt 0.292175 0.774200
vt 0.012054 0.585938
vt 0.052734 0.945312
vt 0.012054 0.987244
vt 0.500000 0.987244
vt 0.486542 0.944855
vt 0.354675 0.907013
vt 0.311707 0.915619
vt 0.216492 0.815826
vt 0.428894 0.798431
vt 0.497284 0.804688
vt 0.497284 0.843750
vt 0.497284 0.703125
vt 0.399414 0.656250
vt 0.430450 0.851562
vt 0.497284 0.872406
vt 0.140625 0.875000
vt 0.260132 0.935913
vt 0.204224 0.599304
vt 0.141724 0.724304
vt 0.497284 0.896851
vt 0.238831 0.680786
vt 0.450897 0.966522
vt 0.500000 0.977570
vt 0.497284 0.741425
vt 0.497284 0.891632
vt 0.497284 0.757812
s 1
usemtl f_face065
f 1/1/1 2/2/2 3/3/3
f 4/4/4 5/5/5 6/6/6
f 7/7/7 8/8/8 9/9/9
f 10/10/8 11/11/10 12/12/11
f 1/1/1 3/3/3 13/2/12
f 14/13/13 6/6/6 15/14/14
f 8/8/8 16/15/15 17/16/16
f 17/16/16 16/15/15 18/17/17
f 17/16/16 18/17/17 19/18/18
f 20/19/19 21/20/20 22/21/21
f 22/21/21 21/20/20 23/22/22
f 24/12/23 25/11/24 26/10/25
f 27/23/26 28/24/27 29/25/28
f 2/2/2 1/1/1 30/26/29
f 30/26/29 1/1/1 13/2/12
f 30/26/29 13/2/12 31/27/30
f 32/6/31 27/23/26 33/28/32
f 33/28/32 27/23/26 29/25/28
f 33/28/32 29/25/28 34/29/33
f 35/15/34 36/8/25 37/16/35
f 37/16/35 36/8/25 38/30/36
f 37/16/35 38/30/36 39/31/37
f 39/31/37 38/30/36 40/21/38
f 41/32/39 9/9/9 42/33/40
f 42/33/40 9/9/9 8/8/8
f 42/33/40 8/8/8 43/30/41
f 43/30/41 8/8/8 17/16/16
f 43/30/41 17/16/16 44/31/42
f 44/31/42 17/16/16 19/18/18
f 45/19/43 46/34/44 20/19/19
f 20/19/19 46/34/44 14/13/13
f 20/19/19 14/13/13 21/20/20
f 21/20/20 14/13/13 15/14/14
f 21/20/20 15/14/14 23/22/22
f 23/22/22 15/14/14 47/35/45
f 48/36/46 49/37/47 19/18/18
f 19/18/18 49/37/47 50/36/48
f 19/18/18 50/36/48 44/31/42
f 44/31/42 50/36/48 22/21/21
f 44/31/42 22/21/21 43/30/41
f 43/30/41 22/21/21 23/22/22
f 43/30/41 23/22/22 42/33/40
f 42/33/40 23/22/22 47/35/45
f 42/33/40 47/35/45 41/32/39
f 5/5/5 4/4/4 31/27/30
f 31/27/30 4/4/4 51/38/49
f 31/27/30 51/38/49 30/26/29
f 30/26/29 51/38/49 52/27/50
f 30/26/29 52/27/50 2/2/2
f 40/21/38 48/36/46 39/31/37
f 39/31/37 48/36/46 19/18/18
f 39/31/37 19/18/18 37/16/35
f 37/16/35 19/18/18 53/17/51
f 37/16/35 53/17/51 35/15/34
f 54/9/52 55/32/53 56/33/54
f 56/33/54 55/32/53 57/35/55
f 56/33/54 57/35/55 58/22/56
f 58/22/56 57/35/55 59/14/57
f 58/22/56 59/14/57 60/20/58
f 60/20/58 59/14/57 61/13/59
f 22/21/21 62/36/60 20/19/19
f 20/19/19 62/36/60 49/37/61
f 20/19/19 49/37/61 45/19/43
f 45/19/43 49/37/61 63/36/62
f 45/19/43 63/36/62 40/21/38
f 59/14/57 32/6/31 61/13/59
f 61/13/59 32/6/31 33/28/32
f 61/13/59 33/28/32 64/39/63
f 64/39/63 33/28/32 34/29/33
f 64/39/63 34/29/33 65/28/64
f 65/28/64 34/29/33 29/25/28
f 65/28/64 29/25/28 66/23/65
f 66/23/65 29/25/28 28/24/27
f 66/23/65 28/24/27 67/40/66
f 67/40/66 28/24/27 27/23/26
f 67/40/66 27/23/26 68/4/67
f 68/4/67 27/23/26 32/6/31
f 68/4/67 32/6/31 69/5/68
f 70/7/69 54/9/52 36/8/25
f 36/8/25 54/9/52 56/33/54
f 36/8/25 56/33/54 38/30/36
f 38/30/36 56/33/54 58/22/56
f 38/30/36 58/22/56 40/21/38
f 40/21/38 58/22/56 60/20/58
f 40/21/38 60/20/58 45/19/43
f 45/19/43 60/20/58 61/13/59
f 45/19/43 61/13/59 46/34/44
f 46/34/44 61/13/59 64/39/63
f 46/34/44 64/39/63 14/13/13
f 14/13/13 64/39/63 65/28/64
f 14/13/13 65/28/64 6/6/6
f 6/6/6 65/28/64 66/23/65
f 6/6/6 66/23/65 4/4/4
f 4/4/4 66/23/65 67/40/66
f 4/4/4 67/40/66 51/38/49
f 51/38/49 67/40/66 68/4/67
f 51/38/49 68/4/67 52/27/50
f 52/27/50 68/4/67 69/5/68
o editpl_f-0000-1822
v 6.192904 52.986187 6.633660
v 6.192904 54.279160 6.510300
v 5.227330 53.525192 7.634989
v -2.648055 53.393646 8.487396
v -2.693027 55.386044 8.729671
v -3.878171 54.333698 8.472948
v -7.801314 49.745735 -1.209156
v -9.491730 52.739140 -2.903968
v -7.542063 53.236439 -2.550558
v -9.700718 54.972164 -2.869516
v -8.986457 56.101509 -1.190263
v -7.743115 55.148624 0.346738
v -3.333216 60.760059 8.797462
v 0.000000 58.235073 10.325572
v 0.000000 60.965397 9.623198
v -9.491730 52.739140 -2.903968
v -7.801314 49.745735 -1.209156
v -7.385984 49.758568 0.271166
v -9.700718 54.972164 -2.869516
v -8.986457 56.101509 -1.190263
v -7.743115 55.148624 0.346738
v -6.200841 51.536003 6.852596
v -5.809320 49.450565 6.747018
v -4.616240 49.713650 7.988399
v -3.870235 47.782215 7.861704
v -2.796198 48.305180 8.662991
v -1.661317 53.955112 8.731894
v -1.108427 54.731537 9.786567
v -0.846531 52.870686 10.142200
v 0.000000 56.011677 10.508946
v -3.058094 58.222240 9.472054
v -6.036825 58.106739 7.479399
v -2.677155 56.040550 9.979943
v -6.243167 56.181721 7.651659
v -5.319919 55.337917 7.666106
v -6.192904 54.279160 6.510300
v -5.227330 53.525192 7.634989
v 7.542063 53.236439 -2.550558
v 9.491730 52.739140 -2.903968
v 7.801314 49.745735 -1.209156
v 3.333216 60.760059 8.797462
v 3.851717 63.461506 7.007073
v 0.000000 63.775925 8.289575
v 7.179642 58.081074 4.465411
v 6.036825 58.106739 7.479399
v 6.243167 56.181721 7.651659
v 6.920392 54.635284 5.267807
v 7.121443 51.860050 4.543206
v 7.743115 55.148624 0.346738
v 7.743115 55.148624 0.346738
v 8.986457 56.101509 -1.190263
v 9.700718 54.972164 -2.869516
v 7.385984 49.758568 0.271166
v 7.801314 49.745735 -1.209156
v 9.491730 52.739140 -2.903968
v 7.743115 55.148624 0.346738
v 8.986457 56.101509 -1.190263
v 9.700718 54.972164 -2.869516
v 3.362316 50.072987 8.813023
v 2.796198 48.305180 8.662991
v 4.616240 49.713650 7.988399
v 3.870235 47.782215 7.861704
v 5.809320 49.450565 6.747018
v 2.677155 56.040550 9.979943
v 1.108427 54.731537 9.786567
v 2.693027 55.386044 8.729671
v 1.661317 53.955112 8.731894
v 2.648055 53.393646 8.487396
v 7.534127 59.544086 0.082236
v 6.388665 61.982449 4.224246
v 5.830483 60.060635 7.125988
v -3.362316 50.072987 8.813023
v -5.002470 51.625839 8.037298
v -6.192904 52.986187 6.633660
v -7.121443 51.860050 4.543206
v -6.920392 54.635284 5.267807
v -7.743115 55.148624 0.346738
v -7.179642 58.081074 4.465411
v -2.044902 52.180885 9.200884
v -0.859758 50.955288 11.251330
v 0.000000 51.783047 11.091295
v 0.000000 51.192707 11.569178
v 0.859758 50.955288 11.251330
v -0.507919 54.802120 10.144423
v 0.507919 54.802120 10.144423
v 0.000000 53.069603 10.496722
v 0.846531 52.870686 10.142200
v 3.878171 54.333698 8.472948
v 5.319919 55.337917 7.666106
v 7.542063 53.236439 -2.550558
v -5.830483 60.060635 7.125988
v -3.655956 51.850426 8.765234
v -1.862369 50.441952 9.416487
v 3.058094 58.222240 9.472054
v 6.200841 51.536003 6.852596
v 5.002470 51.625839 8.037298
v 3.655956 51.850426 8.765234
v 1.862369 50.441952 9.416487
v 2.044902 52.180885 9.200884
v -7.542063 53.236439 -2.550558
v -7.534127 59.544086 0.082236
v -6.388665 61.982449 4.224246
v -3.851717 63.461506 7.007073
vn 0.8238 0.0471 0.5649
vn 0.7637 -0.1417 0.6298
vn 0.5745 0.0157 0.8184
vn -0.2752 0.0629 0.9593
vn -0.3778 -0.4014 0.8343
vn -0.3291 -0.0862 0.9403
vn 0.2356 -0.6832 -0.6911
vn 0.2115 -0.1645 -0.9634
vn 0.6551 0.1421 -0.7420
vn 0.3852 0.3223 -0.8647
vn 0.6828 0.5651 -0.4630
vn 0.7856 0.5420 -0.2985
vn -0.4070 0.3052 0.8609
vn -0.0000 0.1885 0.9821
vn -0.0000 0.3373 0.9414
vn -0.9007 -0.1880 0.3916
vn 0.2355 -0.6833 -0.6911
vn -0.9279 -0.3381 0.1573
vn -0.8942 -0.0863 0.4393
vn -0.8557 -0.0864 0.5103
vn -0.9849 -0.0000 0.1733
vn -0.8349 -0.0866 0.5435
vn -0.7776 -0.2749 0.5655
vn -0.5961 -0.2040 0.7765
vn -0.5731 -0.3219 0.7537
vn -0.4538 -0.2582 0.8529
vn -0.6063 -0.0000 0.7953
vn -0.6389 -0.3628 0.6784
vn -0.5843 0.2448 0.7738
vn -0.0000 -0.0236 0.9997
vn -0.4009 0.1494 0.9039
vn -0.7403 0.1575 0.6536
vn -0.4004 -0.4160 0.8165
vn -0.7455 -0.1413 0.6514
vn -0.5031 -0.3223 0.8019
vn -0.7637 -0.1417 0.6298
vn -0.5745 0.0157 0.8184
vn -0.6551 0.1421 -0.7420
vn -0.2115 -0.1645 -0.9634
vn -0.2356 -0.6832 -0.6911
vn 0.4070 0.3052 0.8609
vn 0.5745 0.4486 0.6847
vn -0.0000 0.4628 0.8864
vn 0.9646 0.1019 0.2431
vn 0.7403 0.1575 0.6536
vn 0.7455 -0.1413 0.6514
vn 0.9428 -0.0471 0.3300
vn 0.9639 -0.0627 0.2586
vn 0.9849 -0.0000 0.1733
vn -0.7856 0.5420 -0.2985
vn -0.6828 0.5651 -0.4630
vn -0.3852 0.3223 -0.8647
vn 0.9279 -0.3381 0.1573
vn -0.2355 -0.6833 -0.6911
vn 0.9007 -0.1880 0.3916
vn 0.8557 -0.0864 0.5103
vn 0.8942 -0.0863 0.4393
vn 0.4640 -0.0944 0.8808
vn 0.4538 -0.2582 0.8529
vn 0.5961 -0.2040 0.7765
vn 0.5731 -0.3219 0.7537
vn 0.7776 -0.2749 0.5656
vn 0.4004 -0.4160 0.8165
vn 0.6389 -0.3628 0.6784
vn 0.3778 -0.4015 0.8343
vn 0.6063 -0.0000 0.7953
vn 0.2752 0.0629 0.9593
vn 0.9945 0.0940 0.0470
vn 0.9059 0.2915 0.3072
vn 0.7874 0.2913 0.5433
vn -0.4640 -0.0944 0.8808
vn -0.6112 -0.0000 0.7915
vn -0.8238 0.0471 0.5649
vn -0.9639 -0.0627 0.2586
vn -0.9428 -0.0471 0.3300
vn -0.9646 0.1020 0.2431
vn -0.5666 0.2440 0.7870
vn -0.6036 -0.0941 0.7917
vn -0.0000 0.5180 0.8554
vn -0.0000 0.1644 0.9864
vn 0.6036 -0.0941 0.7917
vn -0.2593 -0.1179 0.9586
vn 0.2593 -0.1179 0.9586
vn -0.0000 0.2352 0.9720
vn 0.5843 0.2448 0.7738
vn 0.3291 -0.0862 0.9403
vn 0.5031 -0.3223 0.8019
vn 0.9948 0.0392 -0.0940
vn -0.7874 0.2913 0.5433
vn -0.3690 0.1413 0.9186
vn -0.4553 -0.0785 0.8869
vn 0.4009 0.1494 0.9039
vn 0.8349 -0.0866 0.5435
vn 0.6112 -0.0000 0.7915
vn 0.3690 0.1413 0.9186
vn 0.4553 -0.0785 0.8869
vn 0.5666 0.2440 0.7870
vn -0.9948 0.0392 -0.0940
vn -0.9945 0.0940 0.0470
vn -0.9059 0.2915 0.3072
vn -0.5745 0.4482 0.6849
vt 0.153992 0.516724
vt 0.159576 0.418518
vt 0.222076 0.469269
vt 0.349213 0.469635
vt 0.338531 0.368103
vt 0.296875 0.413086
vt 0.944183 0.837769
vt 0.973053 0.745422
vt 0.928986 0.776550
vt 0.963867 0.689941
vt 0.942688 0.675781
vt 0.896484 0.723602
vt 0.345306 0.115692
vt 0.500000 0.206573
vt 0.500000 0.101624
vt 0.987640 0.578125
vt 0.945312 0.648438
vt 0.851562 0.656250
vt 0.987640 0.398438
vt 0.981354 0.367188
vt 0.882812 0.453125
vt 0.204224 0.599304
vt 0.238831 0.680786
vt 0.320312 0.679688
vt 0.292175 0.774200
vt 0.370514 0.795746
vt 0.401672 0.439514
vt 0.448853 0.398132
vt 0.446869 0.497833
vt 0.500000 0.306183
vt 0.344910 0.189209
vt 0.163513 0.207245
vt 0.351776 0.306396
vt 0.153625 0.315094
vt 0.217163 0.365540
vt 0.242188 0.011993
vt 0.500000 0.011993
vt 0.083679 0.206451
vt 0.080078 0.395508
vt 0.108246 0.569183
vt 0.032227 0.331055
vt 0.359863 0.667969
vt 0.011353 0.187500
vt 0.011353 0.011993
vt 0.157959 0.137238
vt 0.296875 0.589264
vt 0.379242 0.546143
vt 0.451813 0.633759
vt 0.495300 0.558594
vt 0.495300 0.617188
vt 0.482239 0.399628
vt 0.495300 0.495239
vt 0.011353 0.585938
vt 0.315674 0.583923
vt 0.399414 0.656250
s 1
usemtl f_face065
f 71/41/70 72/42/71 73/43/72
f 74/44/73 75/45/74 76/46/75
f 77/47/76 78/48/77 79/49/78
f 78/48/77 80/50/79 79/49/78
f 79/49/78 80/50/79 81/51/80
f 79/49/78 81/51/80 82/52/81
f 83/53/82 84/54/83 85/55/84
f 86/56/85 87/57/86 88/58/87
f 89/59/88 86/56/85 90/60/89
f 90/60/89 86/56/85 88/58/87
f 90/60/89 88/58/87 91/61/90
f 92/62/91 93/63/92 94/64/93
f 94/64/93 93/63/92 95/65/94
f 94/64/93 95/65/94 96/66/95
f 75/45/74 97/67/96 98/68/97
f 98/68/97 97/67/96 99/69/98
f 100/70/99 84/54/83 101/71/100
f 101/71/100 84/54/83 83/53/82
f 101/71/100 83/53/82 102/72/101
f 103/73/102 104/74/103 105/75/104
f 105/75/104 104/74/103 106/42/105
f 105/75/104 106/42/105 107/43/106
f 108/49/107 109/48/108 110/47/109
f 111/53/110 112/76/111 113/77/112
f 114/78/113 115/72/114 116/74/115
f 72/42/71 71/41/70 117/79/116
f 117/79/116 71/41/70 118/80/117
f 117/79/116 118/80/117 119/81/118
f 120/52/119 121/51/120 108/49/107
f 108/49/107 121/51/120 122/50/121
f 108/49/107 122/50/121 109/48/108
f 123/58/122 124/57/123 125/56/124
f 126/61/118 123/58/122 127/60/125
f 127/60/125 123/58/122 125/56/124
f 127/60/125 125/56/124 128/59/126
f 129/82/127 130/66/128 131/64/129
f 131/64/129 130/66/128 132/65/130
f 131/64/129 132/65/130 133/63/131
f 134/73/132 135/68/133 136/45/134
f 136/45/134 135/68/133 137/67/135
f 136/45/134 137/67/135 138/44/136
f 139/83/137 140/84/138 114/78/113
f 114/78/113 140/84/138 141/85/139
f 114/78/113 141/85/139 115/72/114
f 96/66/95 142/82/140 94/64/93
f 94/64/93 142/82/140 143/86/141
f 94/64/93 143/86/141 92/62/91
f 92/62/91 143/86/141 144/41/142
f 92/62/91 144/41/142 145/80/143
f 145/80/143 144/41/142 146/79/144
f 145/80/143 146/79/144 147/81/90
f 147/81/90 146/79/144 148/78/145
f 75/45/74 74/44/73 97/67/96
f 97/67/96 74/44/73 149/87/146
f 97/67/96 149/87/146 99/69/98
f 99/69/98 149/87/146 150/88/147
f 99/69/98 150/88/147 151/89/148
f 151/89/148 150/88/147 152/90/149
f 151/89/148 152/90/149 153/88/150
f 102/72/101 104/74/103 101/71/100
f 101/71/100 104/74/103 103/73/102
f 101/71/100 103/73/102 100/70/99
f 100/70/99 103/73/102 154/91/151
f 100/70/99 154/91/151 155/91/152
f 155/91/152 154/91/151 156/92/153
f 155/91/152 156/92/153 157/69/154
f 158/46/155 73/43/72 159/75/156
f 159/75/156 73/43/72 72/42/71
f 159/75/156 72/42/71 116/74/115
f 116/74/115 72/42/71 117/79/116
f 116/74/115 117/79/116 114/78/113
f 114/78/113 117/79/116 119/81/118
f 114/78/113 119/81/118 139/83/137
f 139/83/137 119/81/118 160/93/157
f 83/53/82 161/85/158 102/72/101
f 102/72/101 161/85/158 148/78/145
f 102/72/101 148/78/145 104/74/103
f 104/74/103 148/78/145 146/79/144
f 104/74/103 146/79/144 106/42/105
f 106/42/105 146/79/144 144/41/142
f 106/42/105 144/41/142 107/43/106
f 107/43/106 144/41/142 143/86/141
f 107/43/106 143/86/141 162/94/159
f 162/94/159 143/86/141 142/82/140
f 162/94/159 142/82/140 163/95/160
f 140/84/138 112/76/111 141/85/139
f 141/85/139 112/76/111 111/53/110
f 141/85/139 111/53/110 115/72/114
f 115/72/114 111/53/110 164/71/161
f 115/72/114 164/71/161 116/74/115
f 116/74/115 164/71/161 134/73/132
f 116/74/115 134/73/132 159/75/156
f 159/75/156 134/73/132 136/45/134
f 159/75/156 136/45/134 158/46/155
f 158/46/155 136/45/134 138/44/136
f 158/46/155 138/44/136 73/43/72
f 133/63/131 165/62/162 131/64/129
f 131/64/129 165/62/162 166/86/163
f 131/64/129 166/86/163 129/82/127
f 129/82/127 166/86/163 167/94/164
f 129/82/127 167/94/164 168/95/165
f 168/95/165 167/94/164 169/87/166
f 168/95/165 169/87/166 153/88/150
f 153/88/150 169/87/166 157/69/154
f 153/88/150 157/69/154 151/89/148
f 151/89/148 157/69/154 156/92/153
f 151/89/148 156/92/153 99/69/98
f 99/69/98 156/92/153 154/91/151
f 99/69/98 154/91/151 98/68/97
f 98/68/97 154/91/151 103/73/102
f 98/68/97 103/73/102 75/45/74
f 75/45/74 103/73/102 105/75/104
f 75/45/74 105/75/104 76/46/75
f 76/46/75 105/75/104 107/43/106
f 76/46/75 107/43/106 74/44/73
f 74/44/73 107/43/106 162/94/159
f 74/44/73 162/94/159 149/87/146
f 149/87/146 162/94/159 163/95/160
f 149/87/146 163/95/160 150/88/147
f 170/93/167 147/81/90 171/83/168
f 171/83/168 147/81/90 148/78/145
f 171/83/168 148/78/145 172/84/169
f 172/84/169 148/78/145 161/85/158
f 172/84/169 161/85/158 173/76/170
f 173/76/170 161/85/158 83/53/82
f 173/76/170 83/53/82 113/77/112
f 113/77/112 83/53/82 85/55/84
f 113/77/112 85/55/84 111/53/110
f 111/53/110 85/55/84 84/54/83
f 111/53/110 84/54/83 164/71/161
f 164/71/161 84/54/83 100/70/99
f 164/71/161 100/70/99 134/73/132
f 134/73/132 100/70/99 155/91/152
f 134/73/132 155/91/152 135/68/133
f 135/68/133 155/91/152 157/69/154
f 135/68/133 157/69/154 137/67/135
f 137/67/135 157/69/154 169/87/166
f 137/67/135 169/87/166 138/44/136
f 138/44/136 169/87/166 167/94/164
f 138/44/136 167/94/164 73/43/72
f 73/43/72 167/94/164 166/86/163
f 73/43/72 166/86/163 71/41/70
f 71/41/70 166/86/163 165/62/162
f 71/41/70 165/62/162 118/80/117
