mtllib f_face004.mtl
o editpl_f-0000-1843
v 2.108392 46.450741 8.019517
v 0.000000 46.354488 8.558523
v 0.000000 46.174824 8.405156
v 5.298756 46.171612 2.420522
v 1.973476 43.993134 4.695462
v 5.095059 46.142738 0.782389
v -1.973476 43.993134 4.695462
v -5.298756 46.171612 2.420522
v -5.095059 46.142738 0.782389
v -7.264295 49.758568 0.271166
v -7.542063 53.236439 -2.550558
v -5.915136 49.781029 6.834815
v -4.909881 47.021832 6.012414
v -3.944306 47.573669 7.449393
v -7.264295 49.758568 0.271166
v -7.682270 49.623817 -0.750167
v -7.542063 53.236439 -2.550558
v -9.491730 52.739140 -2.903968
v -9.700718 54.972164 -2.869516
v -2.076647 50.894329 9.513174
v 0.000000 50.117905 9.949936
v -0.970865 51.102875 11.105743
v 0.000000 50.644077 11.328013
v -7.743115 55.148624 0.346738
v -7.065890 52.482471 5.324486
v 0.000000 48.911560 10.183320
v -1.206307 48.956474 9.824353
v 0.000000 48.119091 9.227557
v -1.208952 48.212135 8.883039
v 0.000000 47.596130 9.547626
v 1.206307 48.956474 9.824353
v 1.208952 48.212135 8.883039
v 2.872915 48.228176 8.557411
v 1.685126 47.240002 8.977502
v 1.685126 47.240002 8.977502
v 0.000000 46.755535 9.328691
v -2.148073 44.763142 7.361597
v -3.944306 47.573669 7.449393
v 3.944306 47.573669 7.449393
v 5.015697 47.021832 6.012414
v 5.915136 49.781029 6.834815
v 6.872775 49.530773 4.816598
v 6.134705 51.760590 6.981513
v 7.065890 52.482471 5.324486
v 9.700718 54.972164 -2.869516
v 9.491730 52.739140 -2.903968
v 7.542063 53.236439 -2.550558
v 7.682270 49.623817 -0.750167
v 7.264295 49.758568 0.271166
v 3.944306 47.573669 7.449393
v 2.872915 48.228176 8.557411
v 2.055483 44.269051 6.389163
v 4.169166 46.556618 0.512330
v 0.000000 43.765339 3.210695
v 0.000000 43.816673 7.330479
v 0.000000 46.755535 9.328691
v -1.685126 47.240002 8.977502
v -2.872915 48.228176 8.557411
v -3.327926 50.486866 8.880816
v 3.327926 50.486866 8.880816
v 2.076647 50.894329 9.513174
v 0.970865 51.102875 11.105743
v 0.000000 51.346710 11.684757
v 7.743115 55.148624 0.346738
v 7.264295 49.758568 0.271166
v 5.378118 46.502075 4.348720
v 2.148073 44.763142 7.361597
v 5.015697 47.021832 6.012414
v 2.148073 44.763142 7.361597
v 0.000000 44.394176 7.926164
v -2.108392 46.450741 8.019517
v -1.685126 47.240002 8.977502
v -2.055483 44.269051 6.389163
v -5.354310 46.502075 4.348720
v -6.872775 49.530773 4.816598
v -6.134705 51.760590 6.981513
v 7.542063 53.236439 -2.550558
v -4.169166 46.556618 0.512330
vn 0.3232 -0.4729 0.8197
vn -0.0000 -0.7598 0.6502
vn -0.0000 -0.4628 0.8864
vn 0.7070 -0.7070 0.0157
vn 0.3700 -0.9290 -0.0079
vn 0.4499 -0.7419 -0.4972
vn -0.3700 -0.9290 -0.0079
vn -0.7147 -0.6990 0.0236
vn -0.4499 -0.7419 -0.4972
vn -0.9268 -0.3613 0.1021
vn -0.4011 -0.4954 -0.7706
vn -0.7454 -0.2981 0.5963
vn -0.7332 -0.4809 0.4809
vn -0.5837 -0.3944 0.7098
vn -0.9268 -0.3614 0.1021
vn 0.2366 -0.7178 -0.6548
vn 0.6495 0.1174 -0.7512
vn 0.2207 -0.2049 -0.9536
vn 0.3852 0.3223 -0.8647
vn -0.5353 -0.0630 0.8423
vn -0.0000 -0.4722 0.8815
vn -0.6271 -0.2744 0.7290
vn -0.0000 -0.7378 0.6750
vn -0.9835 -0.0000 0.1809
vn -0.9570 -0.0000 0.2902
vn -0.0000 -0.3373 0.9414
vn -0.3149 -0.3701 0.8740
vn -0.0000 -0.4314 0.9021
vn -0.2678 -0.1418 0.9530
vn -0.0000 0.1885 0.9821
vn 0.3149 -0.3701 0.8740
vn 0.2678 -0.1418 0.9530
vn 0.4320 -0.3063 0.8483
vn 0.3863 -0.3548 0.8514
vn -0.0000 -0.6199 0.7847
vn -0.5125 -0.5992 0.6150
vn -0.5836 -0.3944 0.7098
vn 0.5752 -0.3939 0.7169
vn 0.7331 -0.4730 0.4887
vn 0.7488 -0.2837 0.5990
vn 0.9115 -0.2829 0.2986
vn 0.7865 -0.0708 0.6135
vn 0.9570 -0.0000 0.2902
vn -0.3852 0.3223 -0.8647
vn -0.2207 -0.2049 -0.9536
vn -0.6495 0.1174 -0.7512
vn -0.2366 -0.7179 -0.6547
vn 0.9268 -0.3614 0.1021
vn 0.5751 -0.3939 0.7170
vn 0.4320 -0.3063 0.8482
vn 0.5108 -0.8331 0.2122
vn -0.0000 -0.5475 -0.8368
vn -0.0000 -0.9290 -0.3700
vn -0.0000 -0.9439 0.3304
vn -0.3863 -0.3548 0.8514
vn -0.4320 -0.3063 0.8483
vn -0.4791 -0.1021 0.8718
vn 0.4791 -0.1021 0.8718
vn 0.5353 -0.0630 0.8423
vn 0.6271 -0.2744 0.7290
vn -0.0000 0.0236 0.9997
vn 0.9835 -0.0000 0.1809
vn 0.9268 -0.3613 0.1021
vn 0.7778 -0.5971 0.1964
vn 0.5125 -0.5993 0.6150
vn 0.7331 -0.4730 0.4888
vn 0.5125 -0.5992 0.6151
vn -0.0000 -0.4567 0.8896
vn -0.3232 -0.4729 0.8197
vn -0.5108 -0.8331 0.2122
vn -0.7753 -0.5952 0.2114
vn -0.9080 -0.2842 0.3079
vn -0.7865 -0.0708 0.6135
vn 0.4011 -0.4954 -0.7706
vn -0.4320 -0.3063 0.8482
vt 0.588654 0.910065
vt 0.499969 0.902893
vt 0.499939 0.932159
vt 0.107452 0.930420
vt 0.392242 0.976593
vt 0.041382 0.966248
vt 0.060364 0.739532
vt 0.012024 0.523438
vt 0.214966 0.701385
vt 0.250763 0.861115
vt 0.305237 0.831665
vt 0.924500 0.829590
vt 0.946136 0.831268
vt 0.930847 0.781677
vt 0.964417 0.775299
vt 0.965759 0.741089
vt 0.390625 0.658264
vt 0.500000 0.703125
vt 0.448639 0.647308
vt 0.500000 0.679688
vt 0.054688 0.445312
vt 0.126404 0.551819
vt 0.500000 0.755554
vt 0.445312 0.754456
vt 0.500000 0.804688
vt 0.440826 0.787933
vt 0.500000 0.827515
vt 0.366058 0.795746
vt 0.442322 0.850189
vt 0.557678 0.850189
vt 0.499969 0.867188
vt 0.450348 0.951691
vt 0.158356 0.723907
vt 0.194580 0.599426
vt 0.694763 0.831665
vt 0.633911 0.795746
vt 0.396698 0.960754
vt 0.012024 0.987183
vt 0.500000 0.987183
vt 0.500000 0.976562
vt 0.500000 0.867188
vt 0.331818 0.666962
vt 0.500000 0.632812
vt 0.178009 0.893646
vt 0.749237 0.861115
vt 0.549530 0.951691
vt 0.499878 0.959076
vt 0.411285 0.910065
vt 0.442291 0.850189
s 1
usemtl f_face076
f 1/1/1 2/2/2 3/3/3
f 4/4/4 5/5/5 6/6/6
f 7/5/7 8/4/8 9/6/9
f 9/6/9 8/4/8 10/7/10
f 9/6/9 10/7/10 11/8/11
f 12/9/12 13/10/13 14/11/14
f 15/12/15 16/13/16 17/14/17
f 17/14/17 16/13/16 18/15/18
f 17/14/17 18/15/18 19/16/19
f 20/17/20 21/18/21 22/19/22
f 22/19/22 21/18/21 23/20/23
f 24/21/24 10/7/10 25/22/25
f 26/23/26 27/24/27 28/25/28
f 28/25/28 27/24/27 29/26/29
f 28/25/28 29/26/29 30/27/30
f 31/24/31 32/26/32 33/28/33
f 33/28/33 32/26/32 34/29/34
f 2/2/2 35/30/34 36/31/35
f 37/32/36 38/11/37 13/10/13
f 39/11/38 40/10/39 41/9/40
f 41/9/40 40/10/39 42/33/41
f 41/9/40 42/33/41 43/34/42
f 43/34/42 42/33/41 44/22/43
f 45/16/44 46/15/45 47/14/46
f 47/14/46 46/15/45 48/13/47
f 47/14/46 48/13/47 49/12/48
f 2/2/2 1/1/1 35/30/34
f 35/30/34 1/1/1 50/35/49
f 35/30/34 50/35/49 51/36/50
f 5/5/5 4/4/4 52/37/51
f 53/38/52 6/6/6 54/39/53
f 54/39/53 6/6/6 5/5/5
f 54/39/53 5/5/5 55/40/54
f 55/40/54 5/5/5 52/37/51
f 56/41/35 30/27/30 57/29/55
f 57/29/55 30/27/30 29/26/29
f 57/29/55 29/26/29 58/28/56
f 58/28/56 29/26/29 27/24/27
f 58/28/56 27/24/27 59/42/57
f 33/28/33 60/42/58 31/24/31
f 31/24/31 60/42/58 61/17/59
f 31/24/31 61/17/59 21/18/21
f 21/18/21 61/17/59 62/19/60
f 21/18/21 62/19/60 23/20/23
f 23/20/23 62/19/60 63/43/61
f 23/20/23 63/43/61 22/19/22
f 64/21/62 44/22/43 65/7/63
f 65/7/63 44/22/43 42/33/41
f 65/7/63 42/33/41 66/44/64
f 66/44/64 42/33/41 40/10/39
f 66/44/64 40/10/39 67/32/65
f 56/41/35 34/29/34 30/27/30
f 30/27/30 34/29/34 32/26/32
f 30/27/30 32/26/32 28/25/28
f 28/25/28 32/26/32 31/24/31
f 28/25/28 31/24/31 26/23/26
f 26/23/26 31/24/31 21/18/21
f 26/23/26 21/18/21 27/24/27
f 27/24/27 21/18/21 20/17/20
f 27/24/27 20/17/20 59/42/57
f 68/45/66 50/35/49 69/46/67
f 69/46/67 50/35/49 1/1/1
f 69/46/67 1/1/1 70/47/68
f 70/47/68 1/1/1 3/3/3
f 70/47/68 3/3/3 71/48/69
f 71/48/69 3/3/3 2/2/2
f 71/48/69 2/2/2 72/49/55
f 72/49/55 2/2/2 36/31/35
f 7/5/7 73/37/70 8/4/8
f 8/4/8 73/37/70 74/44/71
f 8/4/8 74/44/71 10/7/10
f 10/7/10 74/44/71 75/33/72
f 10/7/10 75/33/72 25/22/25
f 25/22/25 75/33/72 76/34/73
f 53/38/52 77/8/74 6/6/6
f 6/6/6 77/8/74 65/7/63
f 6/6/6 65/7/63 4/4/4
f 4/4/4 65/7/63 66/44/64
f 4/4/4 66/44/64 52/37/51
f 52/37/51 66/44/64 67/32/65
f 52/37/51 67/32/65 55/40/54
f 55/40/54 67/32/65 70/47/68
f 55/40/54 70/47/68 37/32/36
f 37/32/36 70/47/68 71/48/69
f 37/32/36 71/48/69 38/11/37
f 38/11/37 71/48/69 72/49/55
f 38/11/37 72/49/55 58/28/75
f 11/8/11 78/38/52 9/6/9
f 9/6/9 78/38/52 54/39/53
f 9/6/9 54/39/53 7/5/7
f 7/5/7 54/39/53 55/40/54
f 7/5/7 55/40/54 73/37/70
f 73/37/70 55/40/54 37/32/36
f 73/37/70 37/32/36 74/44/71
f 74/44/71 37/32/36 13/10/13
f 74/44/71 13/10/13 75/33/72
f 75/33/72 13/10/13 12/9/12
f 75/33/72 12/9/12 76/34/73
o editpl_f-0000-1844
v -8.986457 56.101509 -1.190263
v -7.542063 53.236439 -2.550558
v -9.700718 54.972164 -2.869516
v 7.534127 59.544086 0.082236
v 7.743115 55.148624 0.346738
v 7.542063 53.236439 -2.550558
v 4.698248 50.089031 8.047300
v 3.327926 50.486866 8.880816
v 2.872915 48.228176 8.557411
v 0.476174 55.071625 10.099969
v 0.375648 52.925228 10.919036
v 0.954993 52.803310 10.553401
v -2.965504 56.816975 9.943268
v -1.481430 56.602016 10.301124
v -3.222109 58.478909 9.623198
v -8.986457 56.101509 -1.190263
v -9.700718 54.972164 -2.869516
v -9.491730 52.739140 -2.903968
v -7.743115 55.148624 0.346738
v -7.060599 58.392284 4.580992
v -7.743115 55.148624 0.346738
v -6.848966 54.689831 5.094436
v -7.065890 52.482471 5.324486
v -6.161160 53.284565 6.909275
v -6.134705 51.760590 6.981513
v -2.796198 55.379627 9.105309
v -1.917922 53.948696 8.959722
v -1.529047 55.520798 9.803237
v -0.954993 54.622452 9.883255
v -0.476174 55.071625 10.099969
v -2.076647 50.894329 9.513174
v -3.621566 52.241844 8.808578
v -3.327926 50.486866 8.880816
v -7.743115 55.148624 0.346738
v -7.264295 49.758568 0.271166
v -7.682270 49.623817 -0.750167
v 0.000000 58.507786 10.343354
v 0.000000 60.256348 9.813239
v -3.454905 60.140846 8.934159
v 9.491730 52.739140 -2.903968
v 9.700718 54.972164 -2.869516
v 8.986457 56.101509 -1.190263
v 7.743115 55.148624 0.346738
v 8.986457 56.101509 -1.190263
v 7.542063 53.236439 -2.550558
v 9.700718 54.972164 -2.869516
v 0.000000 63.775925 8.289575
v 3.454905 60.140846 8.934159
v 3.851717 63.461506 7.007073
v 5.849001 59.617882 7.173777
v 6.388665 61.982449 4.224246
v 7.060599 58.392284 4.580992
v 5.248493 53.708069 7.850591
v 6.079152 54.535828 7.023745
v 5.161195 55.453419 8.103979
v 6.150578 56.691849 7.840589
v 2.965504 56.816975 9.943268
v 0.954993 54.622452 9.883255
v 1.529047 55.520798 9.803237
v 1.917922 53.948696 8.959722
v 2.796198 55.379627 9.105309
v 3.944306 47.573669 7.449393
v 5.915136 49.781029 6.834815
v 6.134705 51.760590 6.981513
v 7.682270 49.623817 -0.750167
v 7.264295 49.758568 0.271166
v 7.743115 55.148624 0.346738
v -6.079152 54.535828 7.023745
v -6.150578 56.691849 7.840589
v -5.920427 58.154865 7.691667
v -5.849001 59.617882 7.173777
v -3.944306 47.573669 7.449393
v -2.872915 48.228176 8.557411
v -4.698248 50.089031 8.047300
v -4.901944 51.956299 8.042855
v -5.248493 53.708069 7.850591
v 2.060774 52.591557 9.283124
v 2.775035 53.531609 8.661879
v 3.946951 54.526203 8.907487
v 5.920427 58.154865 7.691667
v 3.222109 58.478909 9.623198
v 4.901944 51.956299 8.042855
v 6.161160 53.284565 6.909275
v 7.065890 52.482471 5.324486
v 6.848966 54.689831 5.094436
v 2.076647 50.894329 9.513174
v 3.621566 52.241844 8.808578
v -5.161195 55.453419 8.103979
v -5.915136 49.781029 6.834815
v -0.375648 52.925228 10.919036
v -0.954993 52.803310 10.553401
v -2.060774 52.591557 9.283124
v -2.775035 53.531609 8.661879
v -3.946951 54.526203 8.907487
v -7.542063 53.236439 -2.550558
v -7.534127 59.544086 0.082236
v -6.388665 61.982449 4.224246
v -3.851717 63.461506 7.007073
v 1.481430 56.602016 10.301124
v 0.000000 56.387054 10.556735
v 0.970865 51.102875 11.105743
v 0.000000 51.346710 11.684757
v -0.970865 51.102875 11.105743
vn 0.6828 0.5651 -0.4630
vn 0.6495 0.1174 -0.7512
vn 0.3852 0.3223 -0.8647
vn 0.9941 0.0939 0.0548
vn 0.9835 -0.0000 0.1809
vn 0.9948 0.0392 -0.0940
vn 0.5883 -0.1961 0.7845
vn 0.4791 -0.1021 0.8718
vn 0.4320 -0.3063 0.8482
vn 0.3138 -0.0235 0.9492
vn 0.3452 0.3295 0.8788
vn 0.6820 0.2195 0.6977
vn -0.4328 -0.1889 0.8815
vn -0.2431 -0.1020 0.9646
vn -0.3783 0.1891 0.9062
vn -0.8551 -0.0941 0.5099
vn -0.8942 -0.0863 0.4393
vn -0.8860 -0.1490 0.4391
vn 0.7856 0.5420 -0.2985
vn -0.9628 0.1018 0.2505
vn -0.9835 -0.0000 0.1809
vn -0.9540 0.0079 0.2996
vn -0.9570 -0.0000 0.2902
vn -0.8083 0.0157 0.5886
vn -0.7865 -0.0708 0.6135
vn -0.2977 -0.2664 0.9167
vn -0.5014 -0.0783 0.8617
vn -0.3925 -0.3375 0.8556
vn -0.6225 0.0630 0.7801
vn -0.3138 -0.0235 0.9492
vn -0.5353 -0.0630 0.8423
vn -0.4001 0.1098 0.9099
vn -0.4791 -0.1021 0.8718
vn -0.9835 -0.0000 0.1810
vn -0.9268 -0.3613 0.1021
vn 0.2367 -0.7178 -0.6547
vn -0.0000 0.1886 0.9821
vn -0.0000 0.3606 0.9327
vn -0.4022 0.3549 0.8439
vn 0.8860 -0.1490 0.4391
vn 0.8942 -0.0863 0.4393
vn 0.8551 -0.0941 0.5099
vn -0.7856 0.5420 -0.2985
vn -0.6828 0.5651 -0.4630
vn -0.6495 0.1174 -0.7513
vn -0.3852 0.3223 -0.8647
vn -0.0000 0.4315 0.9021
vn 0.4022 0.3549 0.8439
vn 0.5813 0.4163 0.6991
vn 0.7874 0.2913 0.5433
vn 0.9055 0.2756 0.3228
vn 0.9628 0.1018 0.2505
vn 0.5731 -0.0707 0.8164
vn 0.8014 -0.1021 0.5893
vn 0.5479 -0.1565 0.8218
vn 0.8003 -0.0628 0.5963
vn 0.4328 -0.1889 0.8815
vn 0.6225 0.0630 0.7801
vn 0.3925 -0.3375 0.8556
vn 0.5014 -0.0783 0.8617
vn 0.2977 -0.2664 0.9167
vn 0.5751 -0.3939 0.7170
vn 0.7487 -0.2837 0.5991
vn 0.7865 -0.0708 0.6135
vn -0.2367 -0.7178 -0.6547
vn 0.9268 -0.3613 0.1021
vn 0.9835 -0.0000 0.1810
vn -0.8014 -0.1021 0.5893
vn -0.8003 -0.0628 0.5963
vn -0.7456 0.1727 0.6436
vn -0.7874 0.2913 0.5433
vn -0.5836 -0.3944 0.7098
vn -0.4320 -0.3063 0.8482
vn -0.5883 -0.1961 0.7845
vn -0.5883 -0.0314 0.8080
vn -0.5731 -0.0707 0.8164
vn 0.5761 0.2131 0.7891
vn 0.2757 -0.0236 0.9610
vn 0.3385 -0.1496 0.9290
vn 0.7456 0.1727 0.6436
vn 0.3783 0.1891 0.9062
vn 0.5884 -0.0314 0.8080
vn 0.8083 0.0157 0.5886
vn 0.9570 -0.0000 0.2902
vn 0.9540 0.0079 0.2996
vn 0.5353 -0.0630 0.8423
vn 0.4001 0.1098 0.9099
vn -0.5479 -0.1565 0.8218
vn -0.7453 -0.2981 0.5963
vn -0.3452 0.3295 0.8788
vn -0.6820 0.2195 0.6977
vn -0.5761 0.2131 0.7891
vn -0.2757 -0.0236 0.9610
vn -0.3385 -0.1496 0.9290
vn -0.9948 0.0392 -0.0940
vn -0.9941 0.0939 0.0548
vn -0.9055 0.2756 0.3228
vn -0.5813 0.4163 0.6991
vn 0.2431 -0.1020 0.9646
vn -0.0000 -0.1260 0.9920
vn 0.6271 -0.2744 0.7290
vn -0.0000 0.0237 0.9997
vn -0.6271 -0.2744 0.7290
vt 0.943176 0.721802
vt 0.930847 0.781677
vt 0.965759 0.741089
vt 0.011475 0.210938
vt 0.054688 0.445312
vt 0.011475 0.523438
vt 0.274475 0.682892
vt 0.331818 0.666962
vt 0.366058 0.795746
vt 0.468719 0.454376
vt 0.482117 0.531799
vt 0.464264 0.532349
vt 0.343750 0.320312
vt 0.421875 0.343750
vt 0.331055 0.237305
vt 0.976257 0.376617
vt 0.992188 0.398438
vt 0.992188 0.578125
vt 0.922363 0.738342
vt 0.062500 0.296875
vt 0.099304 0.425201
vt 0.126404 0.551819
vt 0.187500 0.523438
vt 0.194580 0.599426
vt 0.350037 0.379150
vt 0.400757 0.452332
vt 0.423828 0.405273
vt 0.437500 0.465393
vt 0.390625 0.658264
vt 0.314545 0.527893
vt 0.882812 0.453125
vt 0.851562 0.656250
vt 0.935364 0.671173
vt 0.500000 0.259888
vt 0.500000 0.152588
vt 0.318359 0.154297
vt 0.500000 0.013702
vt 0.242188 0.013702
vt 0.201996 0.190826
vt 0.011475 0.013702
vt 0.228790 0.469574
vt 0.182800 0.432068
vt 0.227905 0.390259
vt 0.178711 0.324219
vt 0.305237 0.831665
vt 0.214966 0.701385
vt 0.190338 0.257507
vt 0.234985 0.533478
vt 0.398438 0.522308
vt 0.353302 0.468292
vt 0.299927 0.426819
vt 0.500000 0.367188
vt 0.448639 0.647308
vt 0.496490 0.632812
s 1
usemtl f_face076
f 79/50/76 80/51/77 81/52/78
f 82/53/79 83/54/80 84/55/81
f 85/56/82 86/57/83 87/58/84
f 88/59/85 89/60/86 90/61/87
f 91/62/88 92/63/89 93/64/90
f 94/65/91 95/66/92 96/67/93
f 80/51/77 79/50/76 97/68/94
f 98/69/95 99/54/96 100/70/97
f 100/70/97 99/54/96 101/71/98
f 100/70/97 101/71/98 102/72/99
f 102/72/99 101/71/98 103/73/100
f 104/74/101 105/75/102 106/76/103
f 106/76/103 105/75/102 107/77/104
f 106/76/103 107/77/104 108/59/105
f 109/78/106 110/79/107 111/57/108
f 112/80/109 94/65/91 113/81/110
f 113/81/110 94/65/91 96/67/93
f 113/81/110 96/67/93 114/82/111
f 92/63/89 115/83/112 93/64/90
f 93/64/90 115/83/112 116/84/113
f 93/64/90 116/84/113 117/85/114
f 118/67/115 119/66/116 120/65/117
f 121/68/118 122/50/119 123/51/120
f 123/51/120 122/50/119 124/52/121
f 125/86/122 126/85/123 127/87/124
f 127/87/124 126/85/123 128/88/125
f 127/87/124 128/88/125 129/89/126
f 83/54/80 82/53/79 130/69/127
f 131/90/128 132/91/129 133/92/130
f 133/92/130 132/91/129 134/93/131
f 133/92/130 134/93/131 135/62/132
f 88/59/85 136/77/133 137/76/134
f 137/76/134 136/77/133 138/75/135
f 137/76/134 138/75/135 139/74/136
f 87/58/84 140/94/137 85/56/82
f 85/56/82 140/94/137 141/95/138
f 85/56/82 141/95/138 142/73/139
f 143/82/140 118/67/115 144/81/141
f 144/81/141 118/67/115 120/65/117
f 144/81/141 120/65/117 145/80/142
f 102/72/99 146/91/143 100/70/97
f 100/70/97 146/91/143 147/93/144
f 100/70/97 147/93/144 98/69/95
f 98/69/95 147/93/144 148/96/145
f 98/69/95 148/96/145 149/88/146
f 150/94/147 151/58/148 152/56/149
f 152/56/149 151/58/148 111/57/108
f 152/56/149 111/57/108 153/97/150
f 153/97/150 111/57/108 110/79/107
f 153/97/150 110/79/107 154/90/151
f 88/59/85 90/61/87 136/77/133
f 136/77/133 90/61/87 155/98/152
f 136/77/133 155/98/152 138/75/135
f 138/75/135 155/98/152 156/99/153
f 138/75/135 156/99/153 139/74/136
f 139/74/136 156/99/153 157/100/154
f 82/53/79 129/89/126 130/69/127
f 130/69/127 129/89/126 128/88/125
f 130/69/127 128/88/125 158/96/155
f 158/96/155 128/88/125 126/85/123
f 158/96/155 126/85/123 159/64/156
f 86/57/83 85/56/82 160/97/157
f 160/97/157 85/56/82 142/73/139
f 160/97/157 142/73/139 161/72/158
f 161/72/158 142/73/139 162/71/159
f 161/72/158 162/71/159 163/70/160
f 164/78/161 86/57/83 165/79/162
f 165/79/162 86/57/83 160/97/157
f 165/79/162 160/97/157 131/90/128
f 131/90/128 160/97/157 161/72/158
f 131/90/128 161/72/158 132/91/129
f 132/91/129 161/72/158 163/70/160
f 132/91/129 163/70/160 134/93/131
f 117/85/114 149/88/146 93/64/90
f 93/64/90 149/88/146 148/96/145
f 93/64/90 148/96/145 91/62/88
f 91/62/88 148/96/145 147/93/144
f 91/62/88 147/93/144 166/92/163
f 166/92/163 147/93/144 146/91/143
f 166/92/163 146/91/143 154/90/151
f 154/90/151 146/91/143 102/72/99
f 154/90/151 102/72/99 153/97/150
f 153/97/150 102/72/99 103/73/100
f 153/97/150 103/73/100 152/56/149
f 152/56/149 103/73/100 167/95/164
f 152/56/149 167/95/164 150/94/147
f 89/60/86 88/59/85 168/60/165
f 168/60/165 88/59/85 108/59/105
f 168/60/165 108/59/105 169/61/166
f 169/61/166 108/59/105 107/77/104
f 169/61/166 107/77/104 170/98/167
f 170/98/167 107/77/104 105/75/102
f 170/98/167 105/75/102 171/99/168
f 171/99/168 105/75/102 104/74/101
f 171/99/168 104/74/101 172/100/169
f 173/55/170 99/54/96 174/53/171
f 174/53/171 99/54/96 98/69/95
f 174/53/171 98/69/95 175/89/172
f 175/89/172 98/69/95 149/88/146
f 175/89/172 149/88/146 176/87/173
f 176/87/173 149/88/146 117/85/114
f 176/87/173 117/85/114 125/86/122
f 125/86/122 117/85/114 116/84/113
f 125/86/122 116/84/113 126/85/123
f 126/85/123 116/84/113 115/83/112
f 126/85/123 115/83/112 159/64/156
f 162/71/159 83/54/80 163/70/160
f 163/70/160 83/54/80 130/69/127
f 163/70/160 130/69/127 134/93/131
f 134/93/131 130/69/127 158/96/155
f 134/93/131 158/96/155 135/62/132
f 135/62/132 158/96/155 159/64/156
f 135/62/132 159/64/156 177/63/174
f 177/63/174 159/64/156 115/83/112
f 177/63/174 115/83/112 178/101/175
f 178/101/175 115/83/112 92/63/89
f 177/63/174 137/76/134 135/62/132
f 135/62/132 137/76/134 139/74/136
f 135/62/132 139/74/136 133/92/130
f 133/92/130 139/74/136 157/100/154
f 133/92/130 157/100/154 131/90/128
f 131/90/128 157/100/154 156/99/153
f 131/90/128 156/99/153 165/79/162
f 165/79/162 156/99/153 155/98/152
f 165/79/162 155/98/152 164/78/161
f 164/78/161 155/98/152 90/61/87
f 164/78/161 90/61/87 179/102/176
f 179/102/176 90/61/87 89/60/86
f 179/102/176 89/60/86 180/103/177
f 180/103/177 89/60/86 168/60/165
f 180/103/177 168/60/165 181/102/178
f 181/102/178 168/60/165 169/61/166
f 181/102/178 169/61/166 109/78/106
f 109/78/106 169/61/166 170/98/167
f 109/78/106 170/98/167 110/79/107
f 110/79/107 170/98/167 171/99/168
f 110/79/107 171/99/168 154/90/151
f 154/90/151 171/99/168 172/100/169
f 154/90/151 172/100/169 166/92/163
f 166/92/163 172/100/169 104/74/101
f 166/92/163 104/74/101 91/62/88
f 91/62/88 104/74/101 106/76/103
f 91/62/88 106/76/103 92/63/89
f 92/63/89 106/76/103 108/59/105
f 92/63/89 108/59/105 178/101/175
f 178/101/175 108/59/105 88/59/85
f 178/101/175 88/59/85 177/63/174
f 177/63/174 88/59/85 137/76/134
