mtllib f_face009.mtl
o editpl_f-0000-1853
v 1.277733 48.988560 10.111082
v 2.859688 50.130737 9.149762
v 1.785652 50.903954 9.647648
v 0.954993 51.237625 11.313566
v 0.000000 50.778828 11.519166
v 0.000000 50.095448 10.288899
v 1.269797 48.356510 9.345360
v 0.000000 48.215343 9.654316
v 0.000000 47.679546 9.826576
v 7.542063 53.236439 -2.550558
v 7.801314 49.745735 -1.209156
v 7.306622 49.758568 0.271166
v 7.293395 52.742352 4.166457
v 6.155869 51.837589 6.884825
v 6.854257 49.283730 3.647455
v 4.960143 47.515919 6.604765
v 3.452260 48.093426 8.357368
v 1.454975 47.435711 9.544292
v 0.000000 47.262459 9.745447
v 4.169166 46.556618 0.512330
v 7.542063 53.236439 -2.550558
v 5.674404 46.364117 0.602349
v 7.306622 49.758568 0.271166
v 6.073861 46.649658 3.457414
v -7.306622 49.758568 0.271166
v -7.542063 53.236439 -2.550558
v -5.674404 46.364117 0.602349
v -4.005150 46.556618 0.512330
v 0.000000 43.765339 3.210695
v -1.796233 46.563034 8.499621
v -3.452260 48.093426 8.357368
v -2.698318 45.632607 7.758350
v -6.089733 46.649658 3.457414
v -4.960143 47.515919 6.604765
v -6.854257 49.283730 3.647455
v -6.155869 51.837589 6.884825
v -1.277733 48.988560 10.111082
v 0.000000 49.023853 10.470049
v 1.862369 44.365303 8.132874
v 0.000000 44.506470 8.797463
v 0.000000 43.704380 8.003959
v -1.862369 44.365303 8.132874
v -1.862369 43.893673 7.430501
v -7.306622 49.758568 0.271166
v -7.801314 49.745735 -1.209156
v -7.542063 53.236439 -2.550558
v -7.743115 55.148624 0.346738
v -7.293395 52.742352 4.166457
v 2.698318 45.632607 7.758350
v 3.222109 44.836933 5.713460
v 3.378188 44.650848 3.290712
v 0.000000 51.529587 11.723655
v -0.954993 51.237625 11.313566
v -1.785652 50.903954 9.647648
v -2.859688 50.130737 9.149762
v 0.000000 46.348076 8.825247
v -3.222109 44.836933 5.713460
v -3.378188 44.650848 3.290712
v 0.000000 43.781380 5.760138
v 1.862369 43.893673 7.430501
v 7.743115 55.148624 0.346738
v 1.796233 46.563034 8.499621
v 0.000000 46.665703 8.927492
v -1.454975 47.435711 9.544292
v -1.269797 48.356510 9.345360
v 0.000000 48.436722 10.061071
vn 0.3616 -0.2830 0.8883
vn 0.4715 -0.0550 0.8801
vn 0.5797 -0.0157 0.8147
vn 0.6522 -0.2515 0.7151
vn -0.0000 -0.6063 0.7952
vn -0.0000 -0.4090 0.9125
vn 0.3080 -0.3080 0.9002
vn -0.0000 -0.3700 0.9290
vn -0.0000 0.1260 0.9920
vn -0.6467 0.1419 -0.7494
vn -0.2269 -0.6808 -0.6964
vn 0.9421 -0.3140 0.1178
vn 0.9656 -0.0236 0.2590
vn 0.8673 -0.0946 0.4888
vn 0.9362 -0.2281 0.2675
vn 0.7696 -0.3377 0.5419
vn 0.5275 -0.2992 0.7951
vn 0.3149 -0.3307 0.8896
vn -0.0000 -0.5328 0.8462
vn -0.0157 -0.5419 -0.8403
vn 0.4408 -0.4722 -0.7634
vn 0.4868 -0.7145 -0.5025
vn 0.9421 -0.3140 0.1177
vn 0.7975 -0.5708 0.1955
vn -0.9421 -0.3140 0.1177
vn -0.4407 -0.4722 -0.7634
vn -0.4868 -0.7145 -0.5025
vn 0.0156 -0.5474 -0.8367
vn -0.0000 -0.9167 -0.3995
vn -0.3233 -0.3785 0.8673
vn -0.5275 -0.2992 0.7951
vn -0.6141 -0.3779 0.6929
vn -0.7975 -0.5708 0.1955
vn -0.7696 -0.3377 0.5419
vn -0.9362 -0.2281 0.2675
vn -0.8673 -0.0946 0.4888
vn -0.3616 -0.2830 0.8883
vn -0.0000 -0.2202 0.9754
vn 0.5353 -0.5353 0.6534
vn -0.0000 -0.2518 0.9678
vn -0.0000 -0.9021 0.4315
vn -0.5353 -0.5353 0.6534
vn -0.4241 -0.8874 0.1806
vn -0.9421 -0.3140 0.1178
vn 0.2269 -0.6808 -0.6964
vn 0.6468 0.1420 -0.7493
vn -0.9849 -0.0000 0.1733
vn -0.9656 -0.0236 0.2590
vn 0.6141 -0.3779 0.6928
vn 0.7269 -0.6321 0.2686
vn 0.4310 -0.9011 -0.0470
vn -0.0000 0.2830 0.9591
vn -0.6522 -0.2515 0.7151
vn -0.5797 -0.0157 0.8147
vn -0.4715 -0.0550 0.8801
vn -0.0000 -0.1568 0.9876
vn -0.7232 -0.6368 0.2673
vn -0.4310 -0.9011 -0.0470
vn -0.0000 -0.9989 -0.0472
vn 0.4241 -0.8874 0.1806
vn 0.9849 -0.0000 0.1733
vn 0.3233 -0.3785 0.8673
vn -0.0000 -0.6456 0.7637
vn -0.3149 -0.3307 0.8897
vn -0.3080 -0.3080 0.9002
vn -0.0000 -0.7526 0.6585
vt 0.420135 0.714966
vt 0.339813 0.642426
vt 0.397552 0.610107
vt 0.448639 0.600433
vt 0.500153 0.632812
vt 0.500153 0.656250
vt 0.423584 0.750000
vt 0.500153 0.755768
vt 0.500153 0.796509
vt 0.943207 0.779846
vt 0.947693 0.824890
vt 0.923004 0.827515
vt 0.114868 0.486176
vt 0.172272 0.550262
vt 0.149902 0.717590
vt 0.232391 0.783203
vt 0.325806 0.740601
vt 0.421967 0.795227
vt 0.500153 0.809753
vt 0.011475 0.987640
vt 0.011475 0.476562
vt 0.060242 0.917694
vt 0.070312 0.622559
vt 0.146240 0.822540
vt 0.500153 0.987640
vt 0.407959 0.857208
vt 0.384430 0.886078
vt 0.500153 0.714844
vt 0.460907 0.938477
vt 0.500153 0.931641
vt 0.500153 0.960938
vt 0.451935 0.955719
vt 0.051208 0.382812
vt 0.357208 0.907501
vt 0.342010 0.936707
vt 0.500153 0.585938
vt 0.500153 0.872192
vt 0.500153 0.976562
vt 0.500153 0.843018
vt 0.500153 0.742188
s 1
usemtl f_face081
f 1/1/1 2/2/2 3/3/3
f 4/4/4 5/5/5 6/6/6
f 7/7/7 8/8/8 9/9/9
f 10/10/10 11/11/11 12/12/12
f 13/13/13 14/14/14 15/15/15
f 15/15/15 14/14/14 16/16/16
f 17/17/17 7/7/7 18/18/18
f 18/18/18 7/7/7 9/9/9
f 18/18/18 9/9/9 19/19/19
f 20/20/20 21/21/21 22/22/22
f 22/22/22 21/21/21 23/23/23
f 22/22/22 23/23/23 24/24/24
f 25/23/25 26/21/26 27/22/27
f 27/22/27 26/21/26 28/20/28
f 27/22/27 28/20/28 29/25/29
f 30/26/30 31/17/31 32/27/32
f 33/24/33 34/16/34 35/15/35
f 35/15/35 34/16/34 36/14/36
f 6/6/6 37/1/37 38/28/38
f 39/29/39 40/30/40 41/31/41
f 41/31/41 40/30/40 42/29/42
f 41/31/41 42/29/42 43/32/43
f 44/12/44 45/11/45 46/10/46
f 47/33/47 25/23/25 48/13/48
f 49/27/49 50/34/50 24/24/24
f 24/24/24 50/34/50 51/35/51
f 24/24/24 51/35/51 22/22/22
f 22/22/22 51/35/51 29/25/29
f 22/22/22 29/25/29 20/20/20
f 4/4/4 52/36/52 5/5/5
f 5/5/5 52/36/52 53/4/53
f 5/5/5 53/4/53 6/6/6
f 6/6/6 53/4/53 54/3/54
f 6/6/6 54/3/54 37/1/37
f 37/1/37 54/3/54 55/2/55
f 37/1/37 55/2/55 31/17/31
f 56/37/56 30/26/30 40/30/40
f 40/30/40 30/26/30 32/27/32
f 40/30/40 32/27/32 42/29/42
f 42/29/42 32/27/32 57/34/57
f 42/29/42 57/34/57 43/32/43
f 31/17/31 34/16/34 32/27/32
f 32/27/32 34/16/34 33/24/33
f 32/27/32 33/24/33 57/34/57
f 57/34/57 33/24/33 58/35/58
f 57/34/57 58/35/58 43/32/43
f 43/32/43 58/35/58 59/38/59
f 43/32/43 59/38/59 41/31/41
f 41/31/41 59/38/59 60/32/60
f 41/31/41 60/32/60 39/29/39
f 61/33/61 13/13/13 23/23/23
f 23/23/23 13/13/13 15/15/15
f 23/23/23 15/15/15 24/24/24
f 24/24/24 15/15/15 16/16/16
f 24/24/24 16/16/16 49/27/49
f 49/27/49 16/16/16 17/17/17
f 49/27/49 17/17/17 62/26/62
f 62/26/62 17/17/17 18/18/18
f 62/26/62 18/18/18 63/39/63
f 63/39/63 18/18/18 19/19/19
f 63/39/63 19/19/19 64/18/64
f 64/18/64 19/19/19 9/9/9
f 64/18/64 9/9/9 65/7/65
f 65/7/65 9/9/9 8/8/8
f 65/7/65 8/8/8 66/40/66
f 66/40/66 8/8/8 7/7/7
f 66/40/66 7/7/7 1/1/1
f 1/1/1 7/7/7 17/17/17
f 1/1/1 17/17/17 2/2/2
f 36/14/36 48/13/48 35/15/35
f 35/15/35 48/13/48 25/23/25
f 35/15/35 25/23/25 33/24/33
f 33/24/33 25/23/25 27/22/27
f 33/24/33 27/22/27 58/35/58
f 58/35/58 27/22/27 29/25/29
f 58/35/58 29/25/29 59/38/59
f 59/38/59 29/25/29 51/35/51
f 59/38/59 51/35/51 60/32/60
f 60/32/60 51/35/51 50/34/50
f 60/32/60 50/34/50 39/29/39
f 39/29/39 50/34/50 49/27/49
f 39/29/39 49/27/49 40/30/40
f 40/30/40 49/27/49 62/26/62
f 40/30/40 62/26/62 56/37/56
f 56/37/56 62/26/62 63/39/63
f 56/37/56 63/39/63 30/26/30
f 30/26/30 63/39/63 64/18/64
f 30/26/30 64/18/64 31/17/31
f 31/17/31 64/18/64 65/7/65
f 31/17/31 65/7/65 37/1/37
f 37/1/37 65/7/65 66/40/66
f 37/1/37 66/40/66 38/28/38
f 38/28/38 66/40/66 1/1/1
f 38/28/38 1/1/1 6/6/6
f 6/6/6 1/1/1 3/3/3
f 6/6/6 3/3/3 4/4/4
o editpl_f-0000-1854
v 6.388665 61.982449 4.224246
v 5.830483 59.974010 7.163774
v 7.179642 58.392284 4.621000
v -0.828013 52.081425 10.895698
v -0.920603 53.557274 10.476717
v -1.986703 53.072811 9.325356
v 0.000000 58.199783 10.115527
v -0.568763 56.492931 10.395588
v 0.568763 56.492931 10.395588
v -3.288244 56.553890 9.857695
v -3.158619 58.347366 9.302016
v -3.452260 48.093426 8.357368
v -5.023633 52.180885 8.302911
v -4.960143 47.515919 6.604765
v 2.745935 53.775444 8.437386
v 1.915277 54.060989 8.710778
v 1.986703 53.072811 9.325356
v 0.878276 54.551868 9.755449
v 7.743115 55.148624 0.346738
v 8.986457 56.101509 -1.190263
v 7.542063 53.236439 -2.550558
v 5.023633 52.180885 8.302911
v 2.859688 50.130737 9.149762
v 3.452260 48.093426 8.357368
v 3.851717 63.461506 7.007073
v 9.700718 54.972164 -2.869516
v 9.491730 52.739140 -2.903968
v 7.801314 49.745735 -1.209156
v 7.542063 53.236439 -2.550558
v 7.534127 59.544086 0.082236
v 7.743115 55.148624 0.346738
v 9.491730 52.739140 -2.903968
v 9.700718 54.972164 -2.869516
v 8.986457 56.101509 -1.190263
v -9.491730 52.739140 -2.903968
v -7.801314 49.745735 -1.209156
v -7.306622 49.758568 0.271166
v -1.785652 50.903954 9.647648
v -3.547495 52.662140 8.911933
v -2.859688 50.130737 9.149762
v 7.801314 49.745735 -1.209156
v 7.306622 49.758568 0.271166
v 7.743115 55.148624 0.346738
v 0.000000 52.187302 11.274668
v 0.000000 51.529587 11.723655
v 0.828013 52.081425 10.895698
v 0.000000 60.612476 9.749892
v -3.341153 60.496971 8.935270
v -7.542063 53.236439 -2.550558
v -8.986457 56.101509 -1.190263
v -7.743115 55.148624 0.346738
v -5.140031 53.836403 7.899490
v -7.179642 58.392284 4.621000
v -7.743115 55.148624 0.346738
v -6.817221 54.737953 5.142225
v -7.293395 52.742352 4.166457
v -6.013017 53.258896 6.818144
v -6.155869 51.837589 6.884825
v -7.801314 49.745735 -1.209156
v -9.491730 52.739140 -2.903968
v -9.700718 54.972164 -2.869516
v -9.700718 54.972164 -2.869516
v -8.986457 56.101509 -1.190263
v -7.743115 55.148624 0.346738
v 0.000000 55.145416 10.098857
v 1.576664 55.421337 9.556518
v 2.769744 55.411713 8.707444
v 3.724737 54.574326 8.549632
v 5.140031 53.836403 7.899490
v 5.933654 54.519787 6.952618
v 5.058024 55.424545 7.970617
v 6.044761 56.268345 7.867261
v 3.288244 56.553890 9.857695
v 5.936300 57.943111 7.291581
v 3.158619 58.347366 9.302016
v 3.341153 60.496971 8.935270
v 4.960143 47.515919 6.604765
v 6.155869 51.837589 6.884825
v 6.013017 53.258896 6.818144
v 7.293395 52.742352 4.166457
v 6.817221 54.737953 5.142225
v 0.920603 53.557274 10.476717
v 0.000000 53.663151 10.825683
v -0.878276 54.551868 9.755449
v -1.915277 54.060989 8.710778
v -2.745935 53.775444 8.437386
v -5.933654 54.519787 6.952618
v -6.044761 56.268345 7.867261
v -5.936300 57.943111 7.291581
v -5.830483 59.974010 7.163774
v 1.785652 50.903954 9.647648
v 3.547495 52.662140 8.911933
v 0.000000 63.775925 8.289575
v -1.576664 55.421337 9.556518
v -2.769744 55.411713 8.707444
v -3.724737 54.574326 8.549632
v -5.058024 55.424545 7.970617
v -7.542063 53.236439 -2.550558
v -7.534127 59.544086 0.082236
v -6.388665 61.982449 4.224246
v -3.851717 63.461506 7.007073
v 0.954993 51.237625 11.313566
v -0.954993 51.237625 11.313566
vn 0.8980 0.3072 0.3151
vn 0.7789 0.2518 0.5744
vn 0.9570 0.0941 0.2745
vn -0.6540 0.2836 0.7013
vn -0.5521 0.3313 0.7651
vn -0.6157 0.3237 0.7184
vn -0.0000 0.1886 0.9821
vn -0.1653 -0.0630 0.9842
vn 0.1653 -0.0630 0.9842
vn -0.4319 -0.2591 0.8639
vn -0.3765 0.2118 0.9019
vn -0.5275 -0.2992 0.7951
vn -0.6366 -0.0393 0.7702
vn -0.7696 -0.3377 0.5419
vn 0.2598 0.1575 0.9527
vn 0.5601 0.0158 0.8283
vn 0.6157 0.3237 0.7184
vn 0.5981 0.2439 0.7634
vn -0.7856 0.5420 -0.2985
vn -0.6828 0.5651 -0.4630
vn -0.6468 0.1420 -0.7493
vn 0.6366 -0.0393 0.7702
vn 0.4715 -0.0550 0.8801
vn 0.5275 -0.2992 0.7951
vn 0.5745 0.4486 0.6847
vn -0.3852 0.3223 -0.8647
vn -0.2115 -0.1645 -0.9634
vn -0.2270 -0.6808 -0.6965
vn 0.9948 0.0392 -0.0940
vn 0.9940 0.1017 0.0391
vn 0.9849 -0.0000 0.1733
vn 0.8949 -0.1805 0.4082
vn 0.8942 -0.0863 0.4393
vn 0.8557 -0.0863 0.5103
vn -0.8949 -0.1805 0.4082
vn 0.2269 -0.6808 -0.6964
vn -0.9421 -0.3140 0.1178
vn -0.5797 -0.0157 0.8147
vn -0.3453 0.2276 0.9105
vn -0.4715 -0.0550 0.8801
vn -0.2269 -0.6808 -0.6964
vn 0.9421 -0.3140 0.1178
vn -0.0000 0.3700 0.9290
vn -0.0000 0.2830 0.9591
vn 0.6540 0.2836 0.7013
vn -0.4004 0.3062 0.8637
vn 0.6468 0.1420 -0.7493
vn 0.6828 0.5651 -0.4630
vn 0.7856 0.5420 -0.2985
vn -0.5504 0.0472 0.8335
vn -0.9570 0.0941 0.2745
vn -0.9849 -0.0000 0.1733
vn -0.9431 -0.0393 0.3301
vn -0.9656 -0.0235 0.2591
vn -0.8488 0.0472 0.5266
vn -0.8672 -0.0946 0.4888
vn 0.2270 -0.6808 -0.6965
vn 0.2115 -0.1645 -0.9634
vn 0.3852 0.3223 -0.8647
vn -0.8942 -0.0863 0.4393
vn -0.8557 -0.0863 0.5103
vn -0.9849 -0.0000 0.1734
vn -0.0000 -0.0393 0.9992
vn 0.4174 -0.3938 0.8190
vn 0.3146 -0.3539 0.8808
vn 0.2431 -0.1020 0.9646
vn 0.5504 0.0472 0.8335
vn 0.7844 -0.1412 0.6040
vn 0.4713 -0.2671 0.8405
vn 0.7723 -0.1261 0.6226
vn 0.4319 -0.2591 0.8639
vn 0.7289 0.1881 0.6583
vn 0.3764 0.2118 0.9019
vn 0.4004 0.3062 0.8637
vn 0.7696 -0.3377 0.5419
vn 0.8672 -0.0946 0.4888
vn 0.8488 0.0472 0.5266
vn 0.9656 -0.0235 0.2591
vn 0.9431 -0.0393 0.3301
vn 0.5521 0.3313 0.7651
vn -0.0000 0.4472 0.8944
vn -0.5981 0.2439 0.7634
vn -0.5601 0.0158 0.8283
vn -0.2598 0.1575 0.9527
vn -0.7844 -0.1412 0.6040
vn -0.7723 -0.1261 0.6226
vn -0.7289 0.1881 0.6583
vn -0.7789 0.2518 0.5744
vn 0.5797 -0.0157 0.8147
vn 0.3453 0.2276 0.9105
vn -0.0000 0.4627 0.8865
vn -0.4174 -0.3938 0.8190
vn -0.3146 -0.3539 0.8808
vn -0.2431 -0.1019 0.9646
vn -0.4713 -0.2671 0.8405
vn -0.9948 0.0392 -0.0940
vn -0.9940 0.1018 0.0391
vn -0.8980 0.3072 0.3151
vn -0.5745 0.4486 0.6847
vn 0.6522 -0.2515 0.7151
vn -0.6522 -0.2515 0.7151
vt 0.012421 0.013123
vt 0.168854 0.098389
vt 0.049469 0.199646
vt 0.454346 0.543121
vt 0.460052 0.485809
vt 0.389832 0.495300
vt 0.500153 0.180725
vt 0.500153 0.302399
vt 0.318909 0.244476
vt 0.325928 0.152252
vt 0.325806 0.740601
vt 0.224091 0.507050
vt 0.232391 0.783203
vt 0.342010 0.438843
vt 0.388885 0.403442
vt 0.433594 0.455719
vt 0.923340 0.737000
vt 0.949371 0.716614
vt 0.943207 0.779846
vt 0.339813 0.642426
vt 0.243042 0.012970
vt 0.967621 0.726105
vt 0.974518 0.765015
vt 0.947693 0.824890
vt 0.011566 0.476715
vt 0.011566 0.164215
vt 0.051208 0.382812
vt 0.985504 0.578125
vt 0.985504 0.398438
vt 0.974091 0.374420
vt 0.945312 0.648438
vt 0.851562 0.656250
vt 0.397552 0.610107
vt 0.318451 0.501404
vt 0.883698 0.425964
vt 0.500153 0.535156
vt 0.500153 0.585938
vt 0.500153 0.062500
vt 0.326813 0.052063
vt 0.225037 0.431641
vt 0.108490 0.377594
vt 0.114868 0.486176
vt 0.162201 0.465881
vt 0.172272 0.550262
vt 0.500153 0.396515
vt 0.420563 0.352844
vt 0.345825 0.325134
vt 0.295990 0.376526
vt 0.166656 0.375671
vt 0.221344 0.318878
vt 0.150665 0.263672
vt 0.147369 0.181244
vt 0.500153 0.484375
vt 0.501007 0.012970
vt 0.448639 0.600433
s 1
usemtl f_face081
f 67/41/67 68/42/68 69/43/69
f 70/44/70 71/45/71 72/46/72
f 73/47/73 74/48/74 75/48/75
f 76/49/76 74/48/74 77/50/77
f 78/51/78 79/52/79 80/53/80
f 81/54/81 82/55/82 83/46/83
f 83/46/83 82/55/82 84/56/84
f 85/57/85 86/58/86 87/59/87
f 88/52/88 89/60/89 90/51/90
f 68/42/68 67/41/67 91/61/91
f 86/58/86 92/62/92 87/59/87
f 87/59/87 92/62/92 93/63/93
f 87/59/87 93/63/93 94/64/94
f 95/65/95 96/66/96 97/67/97
f 98/68/98 99/69/99 100/70/100
f 101/68/101 102/71/102 103/72/103
f 104/73/104 105/74/105 106/60/106
f 107/71/107 98/68/98 108/72/108
f 108/72/108 98/68/98 100/70/100
f 108/72/108 100/70/100 109/75/97
f 71/45/71 70/44/70 110/76/109
f 110/76/109 70/44/70 111/77/110
f 110/76/109 111/77/110 112/44/111
f 74/48/74 73/47/73 77/50/77
f 77/50/77 73/47/73 113/78/110
f 77/50/77 113/78/110 114/79/112
f 115/59/113 116/58/114 117/57/115
f 78/51/78 106/60/106 79/52/79
f 79/52/79 106/60/106 105/74/105
f 79/52/79 105/74/105 118/80/116
f 119/43/117 120/67/118 121/81/119
f 121/81/119 120/67/118 122/82/120
f 121/81/119 122/82/120 123/83/121
f 123/83/121 122/82/120 124/84/122
f 125/64/123 126/63/124 115/59/113
f 115/59/113 126/63/124 127/62/125
f 115/59/113 127/62/125 116/58/114
f 128/69/126 101/68/101 129/70/127
f 129/70/127 101/68/101 103/72/103
f 129/70/127 103/72/103 130/75/128
f 131/85/129 84/56/84 132/86/130
f 132/86/130 84/56/84 82/55/82
f 132/86/130 82/55/82 133/87/131
f 133/87/131 82/55/82 81/54/81
f 133/87/131 81/54/81 134/88/132
f 135/80/133 136/89/134 137/90/135
f 137/90/135 136/89/134 138/91/136
f 137/90/135 138/91/136 139/49/137
f 139/49/137 138/91/136 140/92/138
f 139/49/137 140/92/138 141/50/139
f 141/50/139 140/92/138 142/79/140
f 90/51/90 143/53/141 88/52/88
f 88/52/88 143/53/141 144/84/142
f 88/52/88 144/84/142 145/83/143
f 145/83/143 144/84/142 146/82/144
f 145/83/143 146/82/144 147/81/145
f 147/81/145 146/82/144 97/67/97
f 147/81/145 97/67/97 69/43/69
f 69/43/69 97/67/97 96/66/96
f 69/43/69 96/66/96 67/41/67
f 112/44/111 148/45/146 110/76/109
f 110/76/109 148/45/146 149/93/147
f 110/76/109 149/93/147 71/45/71
f 71/45/71 149/93/147 150/56/148
f 71/45/71 150/56/148 72/46/72
f 72/46/72 150/56/148 151/55/149
f 72/46/72 151/55/149 152/54/150
f 123/83/121 153/89/151 121/81/119
f 121/81/119 153/89/151 154/91/152
f 121/81/119 154/91/152 119/43/117
f 119/43/117 154/91/152 155/92/153
f 119/43/117 155/92/153 156/42/154
f 157/73/155 89/60/89 158/74/156
f 158/74/156 89/60/89 88/52/88
f 158/74/156 88/52/88 135/80/133
f 135/80/133 88/52/88 145/83/143
f 135/80/133 145/83/143 136/89/134
f 136/89/134 145/83/143 147/81/145
f 136/89/134 147/81/145 138/91/136
f 138/91/136 147/81/145 69/43/69
f 138/91/136 69/43/69 140/92/138
f 140/92/138 69/43/69 68/42/68
f 140/92/138 68/42/68 142/79/140
f 142/79/140 68/42/68 91/61/91
f 142/79/140 91/61/91 159/94/157
f 112/44/111 83/46/83 148/45/146
f 148/45/146 83/46/83 84/56/84
f 148/45/146 84/56/84 149/93/147
f 149/93/147 84/56/84 131/85/129
f 149/93/147 131/85/129 150/56/148
f 150/56/148 131/85/129 160/86/158
f 150/56/148 160/86/158 151/55/149
f 151/55/149 160/86/158 161/87/159
f 151/55/149 161/87/159 152/54/150
f 152/54/150 161/87/159 162/88/160
f 114/79/112 156/42/154 77/50/77
f 77/50/77 156/42/154 155/92/153
f 77/50/77 155/92/153 76/49/76
f 76/49/76 155/92/153 154/91/152
f 76/49/76 154/91/152 163/90/161
f 163/90/161 154/91/152 153/89/151
f 163/90/161 153/89/151 118/80/116
f 118/80/116 153/89/151 123/83/121
f 118/80/116 123/83/121 79/52/79
f 79/52/79 123/83/121 124/84/122
f 79/52/79 124/84/122 80/53/80
f 164/65/162 120/67/118 165/66/163
f 165/66/163 120/67/118 119/43/117
f 165/66/163 119/43/117 166/41/164
f 166/41/164 119/43/117 156/42/154
f 166/41/164 156/42/154 167/61/165
f 167/61/165 156/42/154 114/79/112
f 167/61/165 114/79/112 159/94/157
f 159/94/157 114/79/112 113/78/110
f 159/94/157 113/78/110 142/79/140
f 142/79/140 113/78/110 73/47/73
f 142/79/140 73/47/73 141/50/139
f 141/50/139 73/47/73 75/48/75
f 141/50/139 75/48/75 139/49/137
f 111/77/110 168/95/166 112/44/111
f 112/44/111 168/95/166 157/73/155
f 112/44/111 157/73/155 83/46/83
f 83/46/83 157/73/155 158/74/156
f 83/46/83 158/74/156 81/54/81
f 81/54/81 158/74/156 135/80/133
f 81/54/81 135/80/133 134/88/132
f 134/88/132 135/80/133 137/90/135
f 134/88/132 137/90/135 133/87/131
f 133/87/131 137/90/135 139/49/137
f 133/87/131 139/49/137 132/86/130
f 132/86/130 139/49/137 75/48/75
f 132/86/130 75/48/75 131/85/129
f 131/85/129 75/48/75 74/48/74
f 131/85/129 74/48/74 160/86/158
f 160/86/158 74/48/74 76/49/76
f 160/86/158 76/49/76 161/87/159
f 161/87/159 76/49/76 163/90/161
f 161/87/159 163/90/161 162/88/160
f 162/88/160 163/90/161 118/80/116
f 162/88/160 118/80/116 152/54/150
f 152/54/150 118/80/116 105/74/105
f 152/54/150 105/74/105 72/46/72
f 72/46/72 105/74/105 104/73/104
f 72/46/72 104/73/104 70/44/70
f 70/44/70 104/73/104 169/95/167
f 70/44/70 169/95/167 111/77/110
