mtllib f_face015.mtl
o editpl_f-0000-1863
v 5.782866 47.021832 4.755475
v 4.110967 44.743889 3.969749
v 6.129415 46.421867 0.306729
v 1.171917 48.603558 10.672316
v 3.100420 48.241009 8.713001
v 1.907340 50.490074 9.847692
v -6.632042 49.431316 4.882168
v -5.637368 49.809902 7.526076
v -6.346338 51.741341 7.163775
v 3.822617 46.380157 0.512330
v 7.542063 53.236439 -2.550558
v 0.000000 47.268875 10.472272
v 0.000000 46.469994 10.347800
v 1.481430 47.236790 10.147758
v 2.510494 45.776985 8.306245
v 7.412438 52.055759 4.975522
v 6.346338 51.741341 7.163775
v 6.632042 49.431316 4.882168
v 5.637368 49.809902 7.526076
v 7.436247 49.758568 0.271166
v 3.589821 45.241188 6.749241
v 4.928399 47.775799 7.443836
v 2.510494 45.776985 8.306245
v -3.100420 48.241009 8.713001
v -1.171917 48.603558 10.672316
v -1.899404 50.490074 9.847692
v -2.510494 45.776985 8.306245
v -4.928399 47.775799 7.443836
v -3.822617 46.380157 0.512330
v 0.000000 43.765339 3.210695
v -6.129415 46.421867 0.306729
v -4.110967 44.743889 3.969749
v -5.782866 47.021832 4.755475
v 0.000000 43.040249 6.752576
v 0.000000 43.444500 8.428495
v -1.671899 43.483002 7.300472
v -3.589821 45.241188 6.749241
v -1.783006 44.281883 8.606311
v 0.000000 44.192051 8.880816
v -7.796023 55.148624 0.346738
v -7.436247 49.758568 0.271166
v -7.412438 52.055759 4.975522
v 0.000000 47.862423 10.107748
v 1.177207 47.942631 9.836578
v 4.928399 47.775799 7.443836
v 7.796023 55.148624 0.346738
v 0.000000 48.125507 10.708990
v -1.177207 47.942631 9.836578
v -1.481430 47.236790 10.147758
v 0.002645 51.577713 11.977043
v -0.581990 51.468628 11.698094
v 0.002645 50.839787 11.691426
v -1.084618 51.247250 11.270224
v 0.002645 50.191696 10.839018
v 0.000000 49.543606 10.942374
v 0.000000 48.943642 11.401363
v -7.542063 53.239647 -2.529443
v 0.000000 45.635815 9.387592
v 1.783006 44.281883 8.606311
v 1.671899 43.483002 7.300472
v 1.092554 51.247250 11.270224
v 0.587281 51.468628 11.698094
vn 0.8559 -0.4476 0.2591
vn 0.5830 -0.8115 0.0394
vn 0.5722 -0.6976 -0.4311
vn 0.5277 -0.2520 0.8112
vn 0.5566 -0.1960 0.8074
vn 0.5653 -0.0314 0.8243
vn -0.9115 -0.2986 0.2829
vn -0.7798 -0.2284 0.5828
vn -0.8275 -0.0473 0.5595
vn -0.0630 -0.5353 -0.8423
vn 0.4636 -0.4243 -0.7779
vn -0.0000 0.2974 0.9548
vn -0.0000 -0.5419 0.8404
vn 0.4315 -0.0079 0.9021
vn 0.5597 -0.3863 0.7331
vn 0.9580 -0.0471 0.2827
vn 0.8275 -0.0473 0.5595
vn 0.9115 -0.2986 0.2829
vn 0.7798 -0.2284 0.5828
vn 0.9361 -0.3146 0.1573
vn 0.7302 -0.5418 0.4162
vn 0.6687 -0.3698 0.6450
vn -0.5566 -0.1960 0.8074
vn -0.5277 -0.2520 0.8112
vn -0.5654 -0.0236 0.8245
vn -0.5597 -0.3863 0.7331
vn -0.6687 -0.3698 0.6450
vn 0.0630 -0.5353 -0.8423
vn -0.0000 -0.9327 -0.3605
vn -0.5722 -0.6976 -0.4311
vn -0.5830 -0.8115 0.0394
vn -0.8559 -0.4476 0.2591
vn -0.0000 -0.9999 0.0157
vn -0.0000 -0.8308 0.5565
vn -0.4317 -0.8869 0.1648
vn -0.7302 -0.5418 0.4162
vn -0.4560 -0.4717 0.7547
vn -0.0000 -0.4251 0.9051
vn -0.9887 0.0157 0.1491
vn -0.9384 -0.3075 0.1577
vn -0.9581 -0.0471 0.2827
vn -0.0000 -0.2974 0.9548
vn 0.3688 -0.1883 0.9102
vn 0.6687 -0.3697 0.6451
vn 0.9887 0.0157 0.1491
vn -0.0000 -0.7953 0.6063
vn -0.3688 -0.1883 0.9102
vn -0.4315 -0.0079 0.9021
vn -0.0000 0.2903 0.9570
vn -0.5647 0.1255 0.8157
vn -0.0004 -0.5602 0.8284
vn -0.7244 -0.1654 0.6693
vn -0.0000 -0.5179 0.8554
vn -0.0000 0.3373 0.9414
vn -0.0000 -0.0785 0.9969
vn -0.4651 -0.4178 -0.7804
vn -0.0000 -0.3930 0.9195
vn 0.4560 -0.4717 0.7547
vn 0.4317 -0.8869 0.1648
vn 0.7244 -0.1654 0.6693
vn 0.5647 0.1255 0.8157
vt 0.162750 0.818420
vt 0.279114 0.943451
vt 0.052063 0.937500
vt 0.446411 0.743286
vt 0.353516 0.791016
vt 0.401550 0.657806
vt 0.132996 0.694641
vt 0.228058 0.694122
vt 0.191071 0.586304
vt 0.012878 0.987579
vt 0.012878 0.523438
vt 0.499939 0.843750
vt 0.499939 0.885223
vt 0.425781 0.846680
vt 0.384766 0.894989
vt 0.114349 0.564667
vt 0.057709 0.651733
vt 0.284180 0.897369
vt 0.263519 0.805084
vt 0.384766 0.906006
vt 0.499939 0.989471
vt 0.499939 0.987427
vt 0.499939 0.982727
vt 0.361603 0.951996
vt 0.411133 0.942566
vt 0.499939 0.975403
vt 0.044891 0.424072
vt 0.499939 0.796875
vt 0.437500 0.789062
vt 0.499939 0.789062
vt 0.499939 0.603882
vt 0.474976 0.618744
vt 0.499939 0.651733
vt 0.449982 0.633575
vt 0.499939 0.683380
vt 0.499939 0.714844
vt 0.499939 0.742188
vt 0.499939 0.933746
s 1
usemtl f_face086
f 1/1/1 2/2/2 3/3/3
f 4/4/4 5/5/5 6/6/6
f 7/7/7 8/8/8 9/9/9
f 3/3/3 10/10/10 11/11/11
f 12/12/12 13/13/13 14/14/14
f 14/14/14 13/13/13 15/15/15
f 16/16/16 17/9/17 18/7/18
f 18/7/18 17/9/17 19/8/19
f 1/1/1 3/3/3 20/17/20
f 20/17/20 3/3/3 11/11/11
f 2/2/2 1/1/1 21/18/21
f 21/18/21 1/1/1 22/19/22
f 21/18/21 22/19/22 23/20/15
f 24/5/23 25/4/24 26/6/25
f 27/20/26 24/5/23 28/19/27
f 29/10/28 30/21/29 31/3/30
f 31/3/30 30/21/29 32/2/31
f 31/3/30 32/2/31 33/1/32
f 34/22/33 35/23/34 36/24/35
f 37/18/36 36/24/35 38/25/37
f 38/25/37 36/24/35 35/23/34
f 38/25/37 35/23/34 39/26/38
f 40/27/39 41/17/40 42/16/41
f 42/16/41 41/17/40 7/7/7
f 42/16/41 7/7/7 9/9/9
f 43/28/42 12/12/12 44/29/43
f 44/29/43 12/12/12 14/14/14
f 44/29/43 14/14/14 5/5/5
f 5/5/5 14/14/14 15/15/15
f 5/5/5 15/15/15 45/19/44
f 46/27/45 16/16/16 20/17/20
f 20/17/20 16/16/16 18/7/18
f 20/17/20 18/7/18 1/1/1
f 1/1/1 18/7/18 19/8/19
f 1/1/1 19/8/19 22/19/22
f 5/5/5 4/4/4 44/29/43
f 44/29/43 4/4/4 47/30/46
f 44/29/43 47/30/46 43/28/42
f 43/28/42 47/30/46 48/29/47
f 43/28/42 48/29/47 12/12/12
f 12/12/12 48/29/47 49/14/48
f 12/12/12 49/14/48 13/13/13
f 50/31/49 51/32/50 52/33/51
f 52/33/51 51/32/50 53/34/52
f 52/33/51 53/34/52 54/35/53
f 54/35/53 53/34/52 26/6/25
f 54/35/53 26/6/25 55/36/54
f 55/36/54 26/6/25 25/4/24
f 55/36/54 25/4/24 56/37/55
f 8/8/8 7/7/7 33/1/32
f 33/1/32 7/7/7 41/17/40
f 33/1/32 41/17/40 31/3/30
f 31/3/30 41/17/40 57/11/56
f 31/3/30 57/11/56 29/10/28
f 28/19/27 37/18/36 27/20/26
f 27/20/26 37/18/36 38/25/37
f 27/20/26 38/25/37 58/38/57
f 58/38/57 38/25/37 39/26/38
f 58/38/57 39/26/38 59/25/58
f 59/25/58 39/26/38 35/23/34
f 59/25/58 35/23/34 60/24/59
f 60/24/59 35/23/34 34/22/33
f 60/24/59 34/22/33 30/21/29
f 30/21/29 34/22/33 36/24/35
f 30/21/29 36/24/35 32/2/31
f 32/2/31 36/24/35 37/18/36
f 32/2/31 37/18/36 33/1/32
f 33/1/32 37/18/36 28/19/27
f 33/1/32 28/19/27 8/8/8
f 10/10/10 3/3/3 30/21/29
f 30/21/29 3/3/3 2/2/2
f 30/21/29 2/2/2 60/24/59
f 60/24/59 2/2/2 21/18/21
f 60/24/59 21/18/21 59/25/58
f 59/25/58 21/18/21 23/20/15
f 59/25/58 23/20/15 58/38/57
f 58/38/57 23/20/15 13/13/13
f 58/38/57 13/13/13 27/20/26
f 27/20/26 13/13/13 49/14/48
f 27/20/26 49/14/48 24/5/23
f 24/5/23 49/14/48 48/29/47
f 24/5/23 48/29/47 25/4/24
f 25/4/24 48/29/47 47/30/46
f 25/4/24 47/30/46 56/37/55
f 56/37/55 47/30/46 4/4/4
f 56/37/55 4/4/4 55/36/54
f 55/36/54 4/4/4 6/6/6
f 55/36/54 6/6/6 54/35/53
f 54/35/53 6/6/6 61/34/60
f 54/35/53 61/34/60 52/33/51
f 52/33/51 61/34/60 62/32/61
f 52/33/51 62/32/61 50/31/49
o editpl_f-0000-1864
v 0.000000 57.246899 10.105524
v 0.000000 60.182552 9.864361
v -3.200946 57.680027 9.369809
v 7.412438 52.055759 4.975522
v 6.338402 52.922016 6.803697
v 6.346338 51.741341 7.163775
v 2.010511 55.443794 9.228668
v 0.425911 54.635284 10.068851
v 0.851822 54.494118 9.777677
v 0.420620 52.495304 11.117969
v -0.833304 52.421513 10.786785
v -0.412684 52.495304 11.117969
v -0.425911 54.635284 10.068851
v -5.240557 55.556087 7.806137
v -5.076541 54.641705 8.072861
v -3.759127 55.690838 8.950830
v 6.015662 54.314449 6.779247
v 5.240557 55.556087 7.806137
v 5.076541 54.641705 8.072861
v -7.436247 49.758568 0.271166
v -7.801314 49.745735 -1.209156
v -7.542063 53.239647 -2.529443
v 1.941731 54.269531 8.881927
v 2.010511 55.443794 9.228668
v 2.645410 54.734745 8.848586
v 3.759127 55.690838 8.950830
v 3.759127 55.690838 8.950830
v 3.137456 56.387054 9.554295
v 5.240557 55.556087 7.806137
v 6.179677 56.348553 7.484956
v -7.801314 49.745735 -1.209156
v -7.436247 49.758568 0.271166
v -9.491730 52.739140 -2.903968
v 5.788157 57.949532 7.319364
v 3.200946 57.680027 9.369809
v 6.179677 56.348553 7.484956
v 6.015662 54.314449 6.779247
v 8.986457 56.101509 -1.190263
v 7.796023 55.148624 0.346738
v 7.436247 49.758568 0.271166
v 9.700718 54.972164 -2.869516
v 7.542063 53.236439 -2.550558
v 8.986457 56.101509 -1.190263
v 7.796023 55.148624 0.346738
v 3.137456 56.387054 9.554295
v 5.155904 53.974361 7.851702
v 6.015662 54.314449 6.779247
v 5.076541 54.641705 8.072861
v 4.928399 47.775799 7.443836
v 5.637368 49.809902 7.526076
v 4.121549 50.092239 8.843029
v 4.756447 52.071800 8.537407
v 7.065890 54.436367 5.302258
v 7.796023 55.148624 0.346738
v 7.182288 58.321701 4.575435
v 6.346338 51.741341 7.163775
v 6.338402 52.922016 6.803697
v 9.700718 54.972164 -2.869516
v 9.491730 52.739140 -2.903968
v 7.801314 49.745735 -1.209156
v -4.756447 52.071800 8.537407
v -4.121549 50.092239 8.843029
v -1.695708 52.206551 9.610973
v -0.851822 54.494118 9.777677
v -2.010511 55.443794 9.228668
v 9.491730 52.739140 -2.903968
v 7.801314 49.745735 -1.209156
v 7.436247 49.758568 0.271166
v -8.986457 56.101509 -1.190263
v -7.796023 55.148624 0.346738
v -9.491730 52.739140 -2.903968
v -9.700718 54.972164 -2.869516
v -3.854362 54.847038 8.609645
v -2.645410 54.734745 8.848586
v -2.010511 55.443794 9.228668
v -9.700718 54.972164 -2.869516
v -8.986457 56.101509 -1.190263
v -7.796023 55.148624 0.346738
v 3.854362 54.847038 8.609645
v 2.589856 53.971153 8.496287
v 1.700999 52.206551 9.610973
v 0.000000 63.775925 8.289575
v 3.343798 60.067051 8.920822
v 3.851717 63.461506 7.007073
v 5.833129 59.547298 7.154884
v 6.388665 61.982449 4.224246
v 7.534127 59.544086 0.082236
v 7.542063 53.236439 -2.550558
v -5.788157 57.949532 7.319364
v -6.179677 56.348553 7.484956
v -3.137456 56.387054 9.554295
v 0.000000 55.755009 10.616748
v 0.000000 52.530598 11.255775
v 0.420620 52.495304 11.117969
v 0.000000 54.680202 10.164427
v 0.838595 52.421513 10.786785
v 5.076541 54.641705 8.072861
v 0.002645 51.577713 11.977043
v -0.581990 51.468628 11.698094
v -1.084618 51.247250 11.270224
v -1.899404 50.490074 9.847692
v -3.100420 48.241009 8.713001
v -7.182288 58.321701 4.575435
v -7.796023 55.148624 0.346738
v -7.065890 54.436367 5.302258
v -7.412438 52.055759 4.975522
v -6.338402 52.922016 6.803697
v -6.346338 51.741341 7.163775
v -5.637368 49.809902 7.526076
v -4.928399 47.775799 7.443836
v -1.941731 54.269531 8.881927
v -2.589856 53.971153 8.496287
v -5.155904 53.974361 7.851702
v -6.015662 54.314449 6.779247
v -5.833129 59.547298 7.154884
v -3.343798 60.067051 8.920822
v -7.542063 53.239647 -2.529443
v -7.534127 59.544086 0.082236
v -6.388665 61.982449 4.224246
v -3.851717 63.461506 7.007073
v -5.155904 53.974361 7.851702
v 0.587281 51.468628 11.698094
v 1.092554 51.247250 11.270224
v 1.907340 50.490074 9.847692
v 3.100420 48.241009 8.713001
vn -0.0000 0.1810 0.9835
vn -0.0000 0.2203 0.9754
vn -0.4405 0.1259 0.8889
vn 0.9580 -0.0471 0.2827
vn 0.7872 0.1496 0.5983
vn 0.8275 -0.0472 0.5595
vn 0.3863 -0.3548 0.8514
vn 0.4534 0.0078 0.8913
vn 0.6603 0.0786 0.7469
vn 0.4533 0.4689 0.7581
vn -0.7023 0.3709 0.6076
vn -0.4577 0.4655 0.7575
vn -0.4534 0.0078 0.8913
vn -0.6455 -0.1102 0.7557
vn -0.6064 -0.1103 0.7875
vn -0.3616 -0.2830 0.8883
vn 0.7631 -0.0393 0.6451
vn 0.6455 -0.1102 0.7557
vn 0.6064 -0.1102 0.7875
vn -0.9384 -0.3075 0.1577
vn 0.2430 -0.6820 -0.6899
vn 0.6671 0.1491 -0.7299
vn 0.4935 -0.1175 0.8617
vn 0.2354 -0.3610 0.9024
vn 0.3616 -0.2830 0.8883
vn 0.3617 -0.2830 0.8883
vn 0.3838 -0.1646 0.9086
vn 0.7299 -0.0314 0.6828
vn 0.2430 -0.6820 -0.6898
vn -0.9035 -0.1885 0.3850
vn 0.7566 0.1419 0.6384
vn 0.4405 0.1259 0.8889
vn 0.8645 -0.0865 0.4951
vn 0.9887 0.0157 0.1491
vn 0.9361 -0.3146 0.1574
vn -0.3852 0.3223 -0.8647
vn -0.6635 0.1422 -0.7346
vn -0.6853 0.5671 -0.4569
vn -0.7954 0.5356 -0.2836
vn 0.3838 -0.1644 0.9086
vn 0.5470 -0.0391 0.8362
vn 0.7631 -0.0394 0.6451
vn 0.6064 -0.1103 0.7875
vn 0.6687 -0.3697 0.6451
vn 0.7798 -0.2284 0.5829
vn 0.4876 -0.1180 0.8651
vn 0.5265 0.1257 0.8408
vn 0.9221 0.0236 0.3862
vn 0.9496 0.1177 0.2904
vn 0.8274 -0.0473 0.5596
vn 0.8942 -0.0863 0.4393
vn 0.9035 -0.1885 0.3850
vn -0.2369 -0.6870 -0.6869
vn -0.5265 0.1257 0.8408
vn -0.4876 -0.1180 0.8651
vn -0.6225 0.2285 0.7485
vn -0.6607 0.0708 0.7473
vn -0.3863 -0.3548 0.8514
vn -0.2115 -0.1645 -0.9634
vn -0.2368 -0.6870 -0.6870
vn 0.9361 -0.3146 0.1573
vn 0.6925 0.5587 -0.4564
vn 0.7955 0.5355 -0.2836
vn 0.2281 -0.1651 -0.9595
vn 0.3919 0.3213 -0.8621
vn -0.2673 -0.3538 0.8963
vn -0.2354 -0.3610 0.9024
vn -0.3863 -0.3547 0.8514
vn -0.8942 -0.0863 0.4393
vn -0.8645 -0.0865 0.4951
vn -0.9887 0.0157 0.1491
vn 0.2673 -0.3538 0.8963
vn 0.3367 -0.0626 0.9395
vn 0.6213 0.2360 0.7472
vn -0.0000 0.4250 0.9052
vn 0.4154 0.2900 0.8622
vn 0.5733 0.4006 0.7147
vn 0.7533 0.1962 0.6277
vn 0.8976 0.2913 0.3307
vn 0.9935 0.1095 0.0313
vn 0.9919 0.0472 -0.1181
vn -0.7566 0.1419 0.6384
vn -0.7299 -0.0314 0.6828
vn -0.3838 -0.1645 0.9086
vn -0.0000 -0.2664 0.9639
vn -0.0000 0.5272 0.8498
vn -0.0000 0.0236 0.9997
vn 0.7023 0.3709 0.6076
vn 0.6455 -0.1102 0.7558
vn -0.0000 0.2903 0.9569
vn -0.5647 0.1255 0.8157
vn -0.7244 -0.1653 0.6693
vn -0.5654 -0.0235 0.8245
vn -0.5565 -0.1960 0.8074
vn -0.9496 0.1177 0.2904
vn -0.9221 0.0236 0.3862
vn -0.9580 -0.0471 0.2827
vn -0.7872 0.1496 0.5983
vn -0.8274 -0.0473 0.5596
vn -0.7798 -0.2284 0.5829
vn -0.6687 -0.3697 0.6451
vn -0.4936 -0.1175 0.8617
vn -0.3367 -0.0626 0.9395
vn -0.5470 -0.0390 0.8362
vn -0.7631 -0.0393 0.6451
vn -0.7533 0.1962 0.6277
vn -0.4154 0.2900 0.8622
vn -0.9919 0.0472 -0.1181
vn -0.9935 0.1095 0.0313
vn -0.8976 0.2913 0.3307
vn -0.5733 0.4006 0.7147
vn -0.5471 -0.0391 0.8362
vn 0.5647 0.1255 0.8157
vn 0.7244 -0.1654 0.6693
vn 0.5653 -0.0314 0.8243
vn 0.5565 -0.1960 0.8074
vt 0.504211 0.251648
vt 0.504211 0.095367
vt 0.339966 0.242889
vt 0.114349 0.564667
vt 0.181854 0.518158
vt 0.191071 0.586304
vt 0.406006 0.364258
vt 0.478668 0.409546
vt 0.457336 0.419830
vt 0.476074 0.570129
vt 0.452148 0.570618
vt 0.229034 0.365570
vt 0.247223 0.411072
vt 0.313416 0.355408
vt 0.195923 0.450470
vt 0.897064 0.814331
vt 0.936401 0.816406
vt 0.954803 0.724884
vt 0.401611 0.447662
vt 0.358826 0.400970
vt 0.342560 0.300201
vt 0.181183 0.308716
vt 0.925201 0.658783
vt 0.856018 0.655121
vt 0.986450 0.525665
vt 0.179901 0.241302
vt 0.960938 0.376099
vt 0.873871 0.466492
vt 0.975739 0.661438
vt 0.956726 0.655701
vt 0.907227 0.707092
vt 0.246033 0.467682
vt 0.263519 0.805084
vt 0.228058 0.694122
vt 0.310760 0.682281
vt 0.274780 0.569214
vt 0.124084 0.450958
vt 0.044891 0.424072
vt 0.092377 0.255249
vt 0.986450 0.386139
vt 0.394501 0.560150
vt 0.975739 0.740723
vt 0.312408 0.398956
vt 0.367889 0.464905
vt 0.504211 0.010925
vt 0.330688 0.094238
vt 0.242188 0.010925
vt 0.173279 0.114258
vt 0.012665 0.010925
vt 0.012665 0.213165
vt 0.012665 0.523438
vt 0.504211 0.335938
vt 0.504211 0.569672
vt 0.504211 0.406799
vt 0.504211 0.603882
vt 0.474976 0.618744
vt 0.449982 0.633575
vt 0.401550 0.657806
vt 0.353516 0.791016
s 1
usemtl f_face086
f 63/39/62 64/40/63 65/41/64
f 66/42/65 67/43/66 68/44/67
f 69/45/68 70/46/69 71/47/70
f 71/47/70 70/46/69 72/48/71
f 73/49/72 74/48/73 75/46/74
f 76/50/75 77/51/76 78/52/77
f 79/53/78 80/50/79 81/51/80
f 82/54/81 83/55/82 84/56/83
f 71/47/70 85/57/84 86/45/68
f 86/45/68 85/57/84 87/58/85
f 86/45/68 87/58/85 88/52/86
f 86/45/68 89/52/87 90/59/88
f 90/59/88 89/52/87 91/50/79
f 90/59/88 91/50/79 92/60/89
f 93/61/90 94/62/81 95/63/91
f 96/64/92 97/41/93 98/60/89
f 80/50/79 99/53/78 98/60/89
f 100/65/94 101/66/95 102/62/96
f 103/67/97 104/56/98 105/68/99
f 105/68/99 104/56/98 106/69/100
f 64/40/63 63/39/62 97/41/93
f 97/41/93 63/39/62 107/59/101
f 97/41/93 107/59/101 98/60/89
f 108/70/102 109/53/103 110/51/104
f 111/71/105 112/72/106 113/73/107
f 113/73/107 112/72/106 114/74/108
f 67/43/66 66/42/65 115/75/109
f 115/75/109 66/42/65 116/76/95
f 115/75/109 116/76/95 117/77/110
f 112/72/106 118/44/111 114/74/108
f 114/74/108 118/44/111 119/43/66
f 114/74/108 119/43/66 108/70/102
f 108/70/102 119/43/66 79/53/78
f 120/78/112 100/65/94 121/63/113
f 121/63/113 100/65/94 102/62/96
f 121/63/113 102/62/96 122/61/114
f 123/74/115 124/73/116 125/79/117
f 125/79/117 73/49/72 126/47/118
f 126/47/118 73/49/72 75/46/74
f 126/47/118 75/46/74 127/45/119
f 103/67/97 128/80/120 104/56/98
f 104/56/98 128/80/120 129/55/121
f 104/56/98 129/55/121 130/54/122
f 84/56/83 131/68/123 132/69/124
f 83/55/82 133/80/125 84/56/83
f 84/56/83 133/80/125 134/67/126
f 84/56/83 134/67/126 131/68/123
f 77/51/76 135/81/127 78/52/77
f 78/52/77 135/81/127 136/58/128
f 78/52/77 136/58/128 137/45/129
f 138/78/130 95/63/91 139/65/131
f 139/65/131 95/63/91 94/62/81
f 139/65/131 94/62/81 140/66/132
f 110/51/104 141/81/133 108/70/102
f 108/70/102 141/81/133 142/82/134
f 108/70/102 142/82/134 114/74/108
f 114/74/108 142/82/134 143/79/135
f 114/74/108 143/79/135 113/73/107
f 144/83/136 145/84/137 146/85/138
f 146/85/138 145/84/137 147/86/139
f 146/85/138 147/86/139 148/87/140
f 148/87/140 147/86/139 117/77/110
f 148/87/140 117/77/110 149/88/141
f 149/88/141 117/77/110 116/76/95
f 149/88/141 116/76/95 150/89/142
f 151/64/143 152/60/144 65/41/64
f 65/41/64 152/60/144 153/59/145
f 65/41/64 153/59/145 63/39/62
f 63/39/62 153/59/145 154/90/146
f 63/39/62 154/90/146 107/59/101
f 155/91/147 156/48/71 157/92/148
f 157/92/148 156/48/71 70/46/69
f 157/92/148 70/46/69 154/90/146
f 154/90/146 70/46/69 69/45/68
f 154/90/146 69/45/68 107/59/101
f 72/48/71 158/49/149 71/47/70
f 71/47/70 158/49/149 143/79/135
f 71/47/70 143/79/135 85/57/84
f 85/57/84 143/79/135 142/82/134
f 85/57/84 142/82/134 87/58/85
f 87/58/85 142/82/134 141/81/133
f 87/58/85 141/81/133 88/52/86
f 88/52/86 141/81/133 159/51/80
f 88/52/86 159/51/80 91/50/150
f 160/93/151 74/48/73 161/94/152
f 161/94/152 74/48/73 73/49/72
f 161/94/152 73/49/72 162/95/153
f 162/95/153 73/49/72 125/79/117
f 162/95/153 125/79/117 163/96/154
f 163/96/154 125/79/117 124/73/116
f 163/96/154 124/73/116 164/97/155
f 165/77/156 166/76/132 167/75/157
f 167/75/157 166/76/132 168/42/158
f 167/75/157 168/42/158 169/43/159
f 169/43/159 168/42/158 170/44/160
f 169/43/159 170/44/160 123/74/115
f 123/74/115 170/44/160 171/72/161
f 123/74/115 171/72/161 124/73/116
f 124/73/116 171/72/161 172/71/162
f 124/73/116 172/71/162 164/97/155
f 126/47/118 173/57/163 125/79/117
f 125/79/117 173/57/163 174/82/164
f 125/79/117 174/82/164 123/74/115
f 123/74/115 174/82/164 175/70/165
f 123/74/115 175/70/165 169/43/159
f 169/43/159 175/70/165 176/53/166
f 169/43/159 176/53/166 167/75/157
f 167/75/157 176/53/166 152/60/144
f 167/75/157 152/60/144 165/77/156
f 165/77/156 152/60/144 151/64/143
f 165/77/156 151/64/143 177/86/167
f 177/86/167 151/64/143 65/41/64
f 177/86/167 65/41/64 178/84/168
f 178/84/168 65/41/64 64/40/63
f 179/89/169 166/76/132 180/88/170
f 180/88/170 166/76/132 165/77/156
f 180/88/170 165/77/156 181/87/171
f 181/87/171 165/77/156 177/86/167
f 181/87/171 177/86/167 182/85/172
f 182/85/172 177/86/167 178/84/168
f 182/85/172 178/84/168 144/83/136
f 144/83/136 178/84/168 64/40/63
f 144/83/136 64/40/63 145/84/137
f 145/84/137 64/40/63 97/41/93
f 145/84/137 97/41/93 147/86/139
f 147/86/139 97/41/93 96/64/92
f 147/86/139 96/64/92 117/77/110
f 117/77/110 96/64/92 98/60/89
f 117/77/110 98/60/89 115/75/109
f 115/75/109 98/60/89 99/53/78
f 115/75/109 99/53/78 67/43/66
f 126/47/118 137/45/129 173/57/163
f 173/57/163 137/45/129 136/58/128
f 173/57/163 136/58/128 174/82/164
f 174/82/164 136/58/128 135/81/127
f 174/82/164 135/81/127 183/70/173
f 183/70/173 135/81/127 77/51/76
f 183/70/173 77/51/76 176/53/166
f 176/53/166 77/51/76 76/50/75
f 176/53/166 76/50/75 152/60/144
f 152/60/144 76/50/75 78/52/77
f 152/60/144 78/52/77 153/59/145
f 153/59/145 78/52/77 127/45/119
f 153/59/145 127/45/119 154/90/146
f 154/90/146 127/45/119 75/46/74
f 154/90/146 75/46/74 157/92/148
f 157/92/148 75/46/74 74/48/73
f 157/92/148 74/48/73 155/91/147
f 155/91/147 74/48/73 160/93/151
f 155/91/147 160/93/151 156/48/71
f 156/48/71 160/93/151 184/94/174
f 156/48/71 184/94/174 158/49/149
f 158/49/149 184/94/174 185/95/175
f 158/49/149 185/95/175 143/79/135
f 143/79/135 185/95/175 186/96/176
f 143/79/135 186/96/176 113/73/107
f 113/73/107 186/96/176 187/97/177
f 113/73/107 187/97/177 111/71/105
