mtllib f_face020.mtl
o editpl_f-0000-1873
v -6.989173 49.485855 4.923288
v -5.875455 47.089207 4.523201
v -4.991888 47.345875 6.823702
v 1.632218 44.840141 7.722785
v 0.000000 45.959862 8.581861
v 0.000000 44.638016 8.251789
v 6.989173 49.485855 4.923288
v 5.878101 49.636650 7.234902
v 4.991888 47.345875 6.823702
v 2.769744 48.026051 8.282907
v 3.817326 50.021652 8.707444
v 2.055483 50.910374 9.308686
v 0.000000 46.806870 9.499838
v 2.349124 46.194073 7.829476
v -7.542063 53.236439 -2.550558
v -4.169166 46.556618 0.512330
v -6.126769 47.220749 0.314509
v -3.526331 45.465775 6.773691
v -3.560722 44.830517 4.307600
v -1.534338 44.050884 6.858154
v 0.000000 43.765339 3.210695
v 0.000000 43.627377 6.345819
v 4.087158 46.556618 0.512330
v 6.126769 47.220749 0.314509
v 7.542063 53.236439 -2.550558
v 7.385984 49.758568 0.271166
v 0.000000 50.711452 11.430258
v -0.981447 51.170250 11.207987
v 0.000000 49.938236 9.761006
v -2.055483 50.910374 9.308686
v -7.385984 49.758568 0.271166
v -2.769744 48.026051 8.282907
v -1.208952 48.391804 8.883039
v -1.206307 49.065559 9.885478
v 0.000000 48.436722 9.707662
v 0.000000 49.139355 10.244444
v 0.000000 47.483837 9.600971
v 1.333287 47.531960 9.148651
v 1.208952 48.391804 8.883039
v 1.206307 49.065559 9.885478
v 0.981447 51.170250 11.207987
v 3.526331 45.465775 6.773691
v 5.875455 47.089207 4.523201
v 3.560722 44.830517 4.307600
v 1.534338 44.050884 6.858154
v 0.000000 43.957840 7.478289
v -1.632218 44.840141 7.722785
v -2.349124 46.194073 7.829476
v -1.333287 47.531960 9.148651
v 0.000000 48.237801 9.227557
v -3.891398 50.021652 8.707444
v -5.878101 49.636650 7.234902
vn -0.9106 -0.3219 0.2591
vn -0.7845 -0.5884 0.1961
vn -0.6285 -0.4242 0.6520
vn 0.3862 -0.5044 0.7723
vn -0.0000 -0.4250 0.9052
vn -0.0000 -0.5179 0.8554
vn 0.9083 -0.3289 0.2584
vn 0.6887 -0.2270 0.6887
vn 0.6285 -0.4242 0.6520
vn 0.4237 -0.2982 0.8553
vn 0.3836 -0.1175 0.9160
vn 0.5745 -0.0000 0.8185
vn -0.0000 -0.4722 0.8815
vn 0.4422 -0.3948 0.8054
vn -0.4728 -0.4649 -0.7486
vn -0.1491 -0.6671 -0.7299
vn -0.6516 -0.6831 -0.3298
vn -0.6043 -0.6121 0.5101
vn -0.5419 -0.8404 0.0078
vn -0.3692 -0.8877 0.2750
vn -0.0000 -0.9702 -0.2425
vn -0.0000 -0.9931 0.1173
vn 0.1414 -0.6597 -0.7382
vn 0.6454 -0.6848 -0.3385
vn 0.4728 -0.4649 -0.7485
vn 0.9565 -0.2509 0.1489
vn -0.0000 -0.7071 0.7071
vn -0.6692 -0.1653 0.7244
vn -0.0001 -0.3138 0.9495
vn -0.5745 -0.0000 0.8185
vn -0.9565 -0.2509 0.1489
vn -0.4237 -0.2982 0.8553
vn -0.3152 -0.4649 0.8274
vn -0.3214 -0.3135 0.8935
vn -0.0000 -0.8019 0.5975
vn -0.0000 -0.0551 0.9985
vn -0.0000 0.1260 0.9920
vn 0.4247 -0.0393 0.9045
vn 0.3152 -0.4649 0.8274
vn 0.3214 -0.3135 0.8935
vn 0.6692 -0.1653 0.7244
vn 0.6043 -0.6121 0.5101
vn 0.7845 -0.5884 0.1961
vn 0.5419 -0.8404 0.0078
vn 0.3692 -0.8877 0.2750
vn -0.0000 -0.8404 0.5420
vn -0.3862 -0.5044 0.7723
vn -0.4422 -0.3948 0.8054
vn -0.4247 -0.0393 0.9045
vn -0.0000 -0.3835 0.9235
vn -0.3864 -0.1183 0.9147
vn -0.6988 -0.2121 0.6831
vt 0.171875 0.726562
vt 0.176819 0.876404
vt 0.285156 0.824982
vt 0.426544 0.939056
vt 0.494202 0.905518
vt 0.494202 0.952393
vt 0.232025 0.700775
vt 0.367188 0.795563
vt 0.313599 0.678558
vt 0.390625 0.664062
vt 0.494202 0.858643
vt 0.404663 0.906250
vt 0.007812 0.523438
vt 0.007812 0.992188
vt 0.090881 0.929688
vt 0.301331 0.907349
vt 0.278381 0.943176
vt 0.384369 0.952332
vt 0.494202 0.991455
vt 0.494202 0.983643
vt 0.093750 0.648438
vt 0.494202 0.678955
vt 0.448639 0.647308
vt 0.494202 0.702393
vt 0.437500 0.789062
vt 0.445312 0.757812
vt 0.494202 0.788330
vt 0.494202 0.757080
vt 0.494202 0.827393
vt 0.443359 0.825195
vt 0.494202 0.975830
vt 0.494202 0.796143
s 1
usemtl f_face091
f 1/1/1 2/2/2 3/3/3
f 4/4/4 5/5/5 6/6/6
f 7/1/7 8/7/8 9/3/9
f 10/8/10 11/9/11 12/10/12
f 13/11/13 5/5/5 14/12/14
f 15/13/15 16/14/16 17/15/17
f 18/16/18 19/17/19 20/18/20
f 20/18/20 19/17/19 21/19/21
f 20/18/20 21/19/21 22/20/22
f 21/19/21 23/14/23 24/15/24
f 24/15/24 23/14/23 25/13/25
f 24/15/24 25/13/25 26/21/26
f 27/22/27 28/23/28 29/24/29
f 29/24/29 28/23/28 30/10/30
f 2/2/2 1/1/1 17/15/17
f 17/15/17 1/1/1 31/21/31
f 17/15/17 31/21/31 15/13/15
f 32/8/32 33/25/33 34/26/34
f 34/26/34 33/25/33 35/27/35
f 34/26/34 35/27/35 36/28/36
f 37/29/37 38/30/38 39/25/39
f 39/25/39 38/30/38 10/8/10
f 39/25/39 10/8/10 40/26/40
f 40/26/40 10/8/10 12/10/12
f 40/26/40 12/10/12 29/24/29
f 29/24/29 12/10/12 41/23/41
f 29/24/29 41/23/41 27/22/27
f 5/5/5 4/4/4 14/12/14
f 14/12/14 4/4/4 42/16/42
f 14/12/14 42/16/42 9/3/9
f 9/3/9 42/16/42 43/2/43
f 9/3/9 43/2/43 7/1/7
f 37/29/37 13/11/13 38/30/38
f 38/30/38 13/11/13 14/12/14
f 38/30/38 14/12/14 10/8/10
f 10/8/10 14/12/14 9/3/9
f 10/8/10 9/3/9 11/9/11
f 11/9/11 9/3/9 8/7/8
f 24/15/24 44/17/44 21/19/21
f 21/19/21 44/17/44 45/18/45
f 21/19/21 45/18/45 22/20/22
f 22/20/22 45/18/45 46/31/46
f 22/20/22 46/31/46 20/18/20
f 20/18/20 46/31/46 47/4/47
f 20/18/20 47/4/47 18/16/18
f 18/16/18 47/4/47 48/12/48
f 16/14/16 21/19/21 17/15/17
f 17/15/17 21/19/21 19/17/19
f 17/15/17 19/17/19 2/2/2
f 2/2/2 19/17/19 18/16/18
f 2/2/2 18/16/18 3/3/3
f 3/3/3 18/16/18 48/12/48
f 3/3/3 48/12/48 32/8/32
f 32/8/32 48/12/48 49/30/49
f 32/8/32 49/30/49 33/25/33
f 33/25/33 49/30/49 50/32/50
f 33/25/33 50/32/50 35/27/35
f 26/21/26 7/1/7 24/15/24
f 24/15/24 7/1/7 43/2/43
f 24/15/24 43/2/43 44/17/44
f 44/17/44 43/2/43 42/16/42
f 44/17/44 42/16/42 45/18/45
f 45/18/45 42/16/42 4/4/4
f 45/18/45 4/4/4 46/31/46
f 46/31/46 4/4/4 6/6/6
f 46/31/46 6/6/6 47/4/47
f 47/4/47 6/6/6 5/5/5
f 47/4/47 5/5/5 48/12/48
f 48/12/48 5/5/5 13/11/13
f 48/12/48 13/11/13 49/30/49
f 49/30/49 13/11/13 37/29/37
f 49/30/49 37/29/37 50/32/50
f 50/32/50 37/29/37 39/25/39
f 50/32/50 39/25/39 35/27/35
f 35/27/35 39/25/39 40/26/40
f 35/27/35 40/26/40 36/28/36
f 36/28/36 40/26/40 29/24/29
f 36/28/36 29/24/29 34/26/34
f 34/26/34 29/24/29 30/10/30
f 34/26/34 30/10/30 32/8/32
f 32/8/32 30/10/30 51/9/51
f 32/8/32 51/9/51 3/3/3
f 3/3/3 51/9/51 52/7/52
f 3/3/3 52/7/52 1/1/1
o editpl_f-0000-1874
v -1.775070 53.756195 8.727448
v -1.719516 52.723099 9.139760
v -0.954993 54.154030 9.759895
v -5.248493 53.185104 7.777242
v -4.753801 52.225803 8.254012
v -2.775035 53.076019 8.355145
v -7.536773 52.190510 4.661009
v -6.973300 54.571117 5.186679
v -7.743115 55.148624 0.346738
v -2.928469 56.768852 9.811017
v -3.341153 60.140846 8.998617
v -5.830483 59.617882 7.213786
v -7.534127 59.544086 0.082236
v -7.542063 53.236439 -2.550558
v -2.055483 50.910374 9.308686
v -0.981447 51.170250 11.207987
v -0.751296 52.764809 10.447823
v 9.491730 52.739140 -2.903968
v 9.700718 54.972164 -2.869516
v 8.986457 56.120762 -1.190263
v 7.743115 55.148624 0.346738
v 8.986457 56.120762 -1.190263
v 7.542063 53.236439 -2.550558
v 9.700718 54.972164 -2.869516
v 6.973300 54.571117 5.186679
v 6.243167 56.387054 7.681665
v 6.132060 54.285576 6.822590
v 5.163840 55.684422 7.986176
v 1.719516 52.723099 9.139760
v 0.954993 54.154030 9.759895
v 0.751296 52.764809 10.447823
v 0.000000 54.320866 10.104414
v 0.000000 52.989395 10.836795
v -9.491730 52.739140 -2.903968
v -9.700718 54.972164 -2.869516
v -7.542063 53.236439 -2.550558
v -8.986457 56.101509 -1.190263
v -7.743115 55.148624 0.346738
v -6.335757 53.104897 6.942616
v -6.132060 54.285576 6.822590
v -6.354274 51.978760 7.130434
v -8.986457 56.101509 -1.190263
v -9.700718 54.972164 -2.869516
v 1.775070 53.762611 8.727448
v 1.529047 55.283379 9.462052
v 0.000000 56.043758 10.420038
v -1.529047 55.283379 9.462052
v -2.796198 55.700462 8.831915
v 7.536773 52.190510 4.661009
v 6.335757 53.101688 6.942616
v 5.248493 53.191521 7.777242
v 3.952242 54.609619 8.785238
v 7.385984 49.758568 0.271166
v 7.801314 49.745735 -1.209156
v 7.385984 49.758568 0.271166
v 7.743115 55.148624 0.346738
v 6.989173 49.485855 4.923288
v 6.465382 51.978760 7.130434
v 5.878101 49.636650 7.234902
v 4.753801 52.225803 8.254012
v 3.817326 50.021652 8.707444
v 2.775035 53.076019 8.355145
v 2.055483 50.910374 9.308686
v 0.000000 63.775925 8.289575
v 3.333216 60.140846 8.974167
v 3.851717 63.461506 7.007073
v 5.830483 59.617882 7.213786
v 6.388665 61.982449 4.224246
v 7.179642 58.392284 4.621000
v 7.534127 59.544086 0.082236
v 7.743115 55.148624 0.346738
v 7.542063 53.236439 -2.550558
v -3.952242 54.609619 8.785238
v -5.163840 55.684422 7.986176
v -6.243167 56.387054 7.681665
v -7.179642 58.392284 4.621000
v -7.743115 55.148624 0.346738
v -7.385984 49.758568 0.271166
v -7.801314 49.745735 -1.209156
v -7.385984 49.758568 0.271166
v 2.931114 56.768852 9.811017
v 2.796198 55.700462 8.831915
v 0.000000 60.256348 9.799902
v 0.981447 51.170250 11.207987
v 0.000000 51.462212 11.787003
v -6.388665 61.982449 4.224246
v -3.851717 63.461506 7.007073
v 7.385984 49.758568 0.271166
v -7.385984 49.758568 0.271166
v -6.989173 49.485855 4.923288
v -5.878101 49.636650 7.234902
v -3.891398 50.021652 8.707444
v 0.000000 50.711452 11.430258
vn -0.5882 -0.0392 0.8078
vn -0.7000 0.2045 0.6843
vn -0.6443 0.1257 0.7544
vn -0.5236 0.0156 0.8518
vn -0.4578 0.0947 0.8840
vn -0.2754 0.0551 0.9598
vn -0.9658 -0.0000 0.2591
vn -0.9431 0.0393 0.3301
vn -0.9875 0.0157 0.1567
vn -0.4163 -0.1964 0.8877
vn -0.4004 0.3062 0.8637
vn -0.7479 0.2519 0.6141
vn -0.9940 0.1018 0.0391
vn -0.9948 0.0392 -0.0940
vn -0.5745 -0.0000 0.8185
vn -0.6693 -0.1653 0.7244
vn -0.6596 0.3298 0.6753
vn 0.8924 -0.3523 -0.2819
vn 0.8942 -0.0863 0.4393
vn 0.8557 -0.0864 0.5103
vn -0.7919 0.5331 -0.2979
vn -0.6859 0.5597 -0.4651
vn -0.6551 0.1421 -0.7420
vn -0.3852 0.3223 -0.8647
vn 0.9431 0.0393 0.3301
vn 0.7635 -0.1023 0.6376
vn 0.7483 -0.0472 0.6616
vn 0.5025 -0.2042 0.8401
vn 0.7000 0.2045 0.6843
vn 0.6443 0.1257 0.7544
vn 0.6596 0.3298 0.6753
vn -0.0000 0.1961 0.9806
vn -0.0000 0.5029 0.8643
vn -0.8908 -0.3548 -0.2838
vn 0.3852 0.3223 -0.8647
vn 0.6551 0.1421 -0.7420
vn 0.6828 0.5651 -0.4630
vn 0.7856 0.5420 -0.2985
vn -0.7607 0.1333 0.6352
vn -0.7483 -0.0473 0.6616
vn -0.7950 -0.0236 0.6061
vn -0.8557 -0.0864 0.5103
vn -0.8942 -0.0863 0.4393
vn 0.5882 -0.0392 0.8078
vn 0.4957 -0.2911 0.8183
vn -0.0001 -0.1733 0.9849
vn -0.4957 -0.2911 0.8183
vn -0.3065 -0.2987 0.9038
vn 0.9678 0.0079 0.2518
vn 0.7619 0.1571 0.6284
vn 0.5271 0.0157 0.8497
vn 0.2674 -0.0865 0.9597
vn -0.9503 -0.1728 -0.2592
vn -0.2356 -0.6833 -0.6911
vn 0.9565 -0.2509 0.1490
vn 0.9875 0.0157 0.1568
vn 0.9083 -0.3288 0.2584
vn 0.7952 -0.0079 0.6063
vn 0.6887 -0.2269 0.6886
vn 0.4480 0.1022 0.8882
vn 0.3837 -0.1174 0.9160
vn 0.2826 0.0549 0.9577
vn 0.5745 -0.0000 0.8185
vn -0.0000 0.4315 0.9021
vn 0.4004 0.3062 0.8637
vn 0.5729 0.4159 0.7063
vn 0.7443 0.2507 0.6189
vn 0.8956 0.2985 0.3299
vn 0.9656 0.1099 0.2355
vn 0.9940 0.1017 0.0391
vn 0.9875 0.0157 0.1567
vn 0.9948 0.0392 -0.0940
vn -0.2674 -0.0865 0.9597
vn -0.5025 -0.2042 0.8401
vn -0.7635 -0.1023 0.6376
vn -0.9656 0.1099 0.2355
vn -0.9565 -0.2509 0.1490
vn 0.2356 -0.6833 -0.6911
vn 0.9503 -0.1728 -0.2592
vn 0.4164 -0.1964 0.8877
vn 0.3065 -0.2987 0.9038
vn -0.0000 0.2518 0.9678
vn 0.6693 -0.1653 0.7244
vn -0.0000 0.0236 0.9997
vn -0.8956 0.2985 0.3299
vn -0.5760 0.4182 0.7023
vn 0.9565 -0.2509 0.1489
vn -0.9565 -0.2509 0.1489
vn -0.9107 -0.3218 0.2591
vn -0.6989 -0.2120 0.6831
vn -0.3864 -0.1182 0.9147
vn -0.0000 -0.7071 0.7071
vt 0.398438 0.462036
vt 0.379456 0.542389
vt 0.437500 0.465393
vt 0.228027 0.497559
vt 0.274994 0.568726
vt 0.350098 0.490723
vt 0.130463 0.553101
vt 0.132812 0.421875
vt 0.054688 0.445312
vt 0.310547 0.299805
vt 0.320312 0.132812
vt 0.203125 0.187500
vt 0.007812 0.210938
vt 0.007812 0.523438
vt 0.390625 0.664062
vt 0.448639 0.647308
vt 0.464264 0.532349
vt 0.992188 0.578125
vt 0.992188 0.398438
vt 0.979156 0.365448
vt 0.876709 0.473083
vt 0.968750 0.539062
vt 0.176331 0.334808
vt 0.187500 0.437500
vt 0.226562 0.367188
vt 0.494202 0.442657
vt 0.494202 0.530518
vt 0.181244 0.521088
vt 0.196869 0.603119
vt 0.421875 0.406250
vt 0.494202 0.350830
vt 0.342773 0.371094
vt 0.295990 0.420990
vt 0.851562 0.656250
vt 0.945312 0.648438
vt 0.171875 0.726562
vt 0.232025 0.700775
vt 0.313599 0.678558
vt 0.494202 0.007080
vt 0.242188 0.007812
vt 0.007812 0.007812
vt 0.078125 0.296875
vt 0.494202 0.151886
vt 0.494202 0.632080
vt 0.093750 0.648438
vt 0.494202 0.678955
s 1
usemtl f_face091
f 53/33/53 54/34/54 55/35/55
f 56/36/56 57/37/57 58/38/58
f 59/39/59 60/40/60 61/41/61
f 62/42/62 63/43/63 64/44/64
f 61/41/61 65/45/65 66/46/66
f 67/47/67 68/48/68 69/49/69
f 70/50/70 71/51/71 72/52/72
f 73/53/73 74/52/74 75/54/75
f 75/54/75 74/52/74 76/51/76
f 75/54/75 76/51/76 70/50/70
f 77/40/77 78/55/78 79/56/79
f 79/56/79 78/55/78 80/57/80
f 81/34/81 82/35/82 83/49/83
f 83/49/83 82/35/82 84/58/84
f 83/49/83 84/58/84 85/59/85
f 54/34/54 53/33/53 58/38/58
f 86/50/86 87/51/87 88/54/88
f 88/54/88 87/51/87 89/52/89
f 88/54/88 89/52/89 90/53/90
f 57/37/57 56/36/56 91/60/91
f 91/60/91 56/36/56 92/56/92
f 91/60/91 92/56/92 60/40/60
f 60/40/60 59/39/59 91/60/91
f 91/60/91 59/39/59 93/61/93
f 91/60/91 93/61/93 57/37/57
f 94/52/94 95/51/95 86/50/86
f 81/34/81 96/33/96 82/35/82
f 82/35/82 96/33/96 97/62/97
f 82/35/82 97/62/97 84/58/84
f 84/58/84 97/62/97 98/63/98
f 84/58/84 98/63/98 99/62/99
f 99/62/99 98/63/98 62/42/62
f 99/62/99 62/42/62 100/64/100
f 101/39/101 77/40/77 102/60/102
f 102/60/102 77/40/77 79/56/79
f 102/60/102 79/56/79 103/36/103
f 103/36/103 79/56/79 80/57/80
f 103/36/103 80/57/80 104/65/104
f 105/66/105 75/54/75 106/67/106
f 106/67/106 75/54/75 70/50/70
f 106/67/106 70/50/70 107/66/107
f 107/66/107 70/50/70 72/52/72
f 107/66/107 72/52/72 108/53/108
f 109/68/109 110/61/110 111/69/111
f 111/69/111 110/61/110 112/37/112
f 111/69/111 112/37/112 113/70/113
f 113/70/113 112/37/112 114/38/114
f 113/70/113 114/38/114 115/47/115
f 116/71/116 117/43/117 118/72/118
f 118/72/118 117/43/117 119/44/119
f 118/72/118 119/44/119 120/73/120
f 120/73/120 119/44/119 121/74/121
f 120/73/120 121/74/121 122/45/122
f 122/45/122 121/74/121 123/41/123
f 122/45/122 123/41/123 124/46/124
f 125/65/125 100/64/100 126/57/126
f 126/57/126 100/64/100 62/42/62
f 126/57/126 62/42/62 127/55/127
f 127/55/127 62/42/62 64/44/64
f 127/55/127 64/44/64 128/74/128
f 129/53/61 94/52/94 130/66/129
f 130/66/129 94/52/94 86/50/86
f 130/66/129 86/50/86 131/67/130
f 131/67/130 86/50/86 88/54/88
f 131/67/130 88/54/88 132/66/131
f 78/55/78 133/42/132 80/57/80
f 80/57/80 133/42/132 134/64/133
f 80/57/80 134/64/133 104/65/104
f 104/65/104 134/64/133 114/38/114
f 104/65/104 114/38/114 103/36/103
f 103/36/103 114/38/114 112/37/112
f 103/36/103 112/37/112 102/60/102
f 102/60/102 112/37/112 110/61/110
f 102/60/102 110/61/110 101/39/101
f 101/39/101 110/61/110 109/68/109
f 63/43/63 62/42/62 135/75/134
f 135/75/134 62/42/62 98/63/98
f 135/75/134 98/63/98 133/42/132
f 133/42/132 98/63/98 97/62/97
f 133/42/132 97/62/97 134/64/133
f 134/64/133 97/62/97 96/33/96
f 134/64/133 96/33/96 114/38/114
f 114/38/114 96/33/96 81/34/81
f 114/38/114 81/34/81 115/47/115
f 115/47/115 81/34/81 83/49/83
f 115/47/115 83/49/83 136/48/135
f 136/48/135 83/49/83 85/59/85
f 136/48/135 85/59/85 137/76/136
f 65/45/65 128/74/128 138/73/137
f 138/73/137 128/74/128 64/44/64
f 138/73/137 64/44/64 139/72/138
f 139/72/138 64/44/64 63/43/63
f 139/72/138 63/43/63 116/71/116
f 116/71/116 63/43/63 135/75/134
f 116/71/116 135/75/134 117/43/117
f 117/43/117 135/75/134 133/42/132
f 117/43/117 133/42/132 119/44/119
f 119/44/119 133/42/132 78/55/78
f 119/44/119 78/55/78 121/74/121
f 121/74/121 78/55/78 77/40/77
f 121/74/121 77/40/77 123/41/123
f 123/41/123 77/40/77 101/39/101
f 123/41/123 101/39/101 140/77/139
f 140/77/139 101/39/101 109/68/109
f 61/41/61 141/77/140 59/39/59
f 59/39/59 141/77/140 142/68/141
f 59/39/59 142/68/141 93/61/93
f 93/61/93 142/68/141 143/69/142
f 93/61/93 143/69/142 57/37/57
f 57/37/57 143/69/142 144/70/143
f 57/37/57 144/70/143 58/38/58
f 58/38/58 144/70/143 67/47/67
f 58/38/58 67/47/67 54/34/54
f 54/34/54 67/47/67 69/49/69
f 54/34/54 69/49/69 55/35/55
f 65/45/65 61/41/61 128/74/128
f 128/74/128 61/41/61 60/40/60
f 128/74/128 60/40/60 127/55/127
f 127/55/127 60/40/60 92/56/92
f 127/55/127 92/56/92 126/57/126
f 126/57/126 92/56/92 56/36/56
f 126/57/126 56/36/56 125/65/125
f 125/65/125 56/36/56 58/38/58
f 125/65/125 58/38/58 100/64/100
f 100/64/100 58/38/58 53/33/53
f 100/64/100 53/33/53 99/62/99
f 99/62/99 53/33/53 55/35/55
f 99/62/99 55/35/55 84/58/84
f 84/58/84 55/35/55 69/49/69
f 84/58/84 69/49/69 85/59/85
f 85/59/85 69/49/69 68/48/68
f 85/59/85 68/48/68 137/76/136
f 137/76/136 68/48/68 145/78/144
f 137/76/136 145/78/144 136/48/135
