mtllib f_face024.mtl
o editpl_f-0000-1879
v 6.126769 47.220749 0.314509
v 4.087158 46.556618 0.512330
v 7.542063 53.236439 -2.550558
v 0.000000 46.765160 9.639869
v -1.454975 47.394001 9.438714
v 0.000000 45.860401 8.621870
v -2.515785 46.373741 7.829476
v 7.306622 49.758568 0.271166
v -1.269797 48.362926 8.923046
v 0.000000 48.189674 9.267566
v 0.000000 48.208927 9.687657
v -6.126769 47.220749 0.314509
v -4.169166 46.556618 0.512330
v 0.000000 43.765339 3.210695
v 3.552785 45.424065 6.553643
v 3.552785 44.910725 4.307600
v 5.970690 47.028248 4.263145
v 6.978591 49.646275 4.723245
v 5.290820 47.384377 6.583649
v 6.039471 49.671944 6.994849
v 4.023668 47.814297 8.027296
v 4.163875 49.963905 8.647431
v 3.084548 48.199303 8.182885
v 2.055483 50.855831 9.348694
v 0.000000 50.656910 11.430258
v -1.002610 51.115707 11.207987
v 0.000000 49.963905 9.761006
v -2.055483 50.855831 9.348694
v 0.000000 43.508671 6.405834
v 0.000000 43.717213 7.618319
v -1.531692 43.970673 6.798141
v -6.978591 49.646275 4.723245
v -7.306622 49.758568 0.271166
v -7.542063 53.236439 -2.550558
v -3.552785 45.424065 6.553643
v -1.714226 44.721432 7.882821
v 0.000000 44.516094 8.411824
v -6.039471 49.671944 6.994849
v -5.970690 47.028248 4.263145
v -3.552785 44.910725 4.307600
v -3.084548 48.199303 8.182885
v -1.277733 49.036686 10.005505
v 0.000000 49.071976 10.364471
v 1.269797 48.362926 8.923046
v 1.277733 49.036686 10.005505
v 1.002610 51.115707 11.207987
v 2.515785 46.373741 7.829476
v 1.454975 47.394001 9.438714
v 0.000000 47.458168 9.720997
v 1.531692 43.970673 6.798141
v 1.714226 44.721432 7.882821
v -5.290820 47.384377 6.583649
v -4.023668 47.814297 8.027296
v -4.163875 49.963905 8.647431
vn 0.6579 -0.6736 -0.3368
vn 0.1414 -0.6597 -0.7382
vn 0.4966 -0.4650 -0.7329
vn -0.0000 -0.4472 0.8944
vn -0.4158 -0.1648 0.8944
vn -0.0000 -0.4628 0.8864
vn -0.4329 -0.3778 0.8185
vn 0.9565 -0.2352 0.1725
vn -0.3454 -0.2826 0.8949
vn -0.0000 -0.4629 0.8864
vn -0.0000 -0.8782 0.4783
vn -0.6596 -0.6753 -0.3299
vn -0.1491 -0.6671 -0.7299
vn -0.0000 -0.9678 -0.2517
vn 0.6150 -0.6308 0.4731
vn 0.5328 -0.8462 -0.0000
vn 0.8074 -0.5565 0.1959
vn 0.9419 -0.2669 0.2041
vn 0.7237 -0.4720 0.5034
vn 0.7634 -0.2440 0.5981
vn 0.4157 -0.3687 0.8314
vn 0.3761 -0.1802 0.9089
vn 0.3458 -0.2515 0.9040
vn 0.5270 -0.0236 0.8495
vn -0.0000 -0.7227 0.6912
vn -0.6435 -0.2040 0.7377
vn -0.0000 -0.3067 0.9518
vn -0.5270 -0.0236 0.8495
vn -0.0000 -0.9992 0.0393
vn -0.4176 -0.8904 0.1812
vn -0.9419 -0.2669 0.2041
vn -0.9565 -0.2352 0.1725
vn -0.4965 -0.4650 -0.7330
vn -0.6150 -0.6308 0.4731
vn -0.4490 -0.4884 0.7483
vn -0.7634 -0.2440 0.5981
vn -0.8074 -0.5565 0.1959
vn -0.5328 -0.8462 -0.0000
vn -0.3458 -0.2515 0.9040
vn -0.3540 -0.2910 0.8888
vn -0.0000 -0.0315 0.9995
vn 0.3454 -0.2826 0.8949
vn 0.3540 -0.2910 0.8888
vn 0.6435 -0.2040 0.7377
vn 0.4329 -0.3778 0.8185
vn 0.4158 -0.1648 0.8944
vn -0.0000 0.3138 0.9495
vn 0.4176 -0.8904 0.1812
vn 0.4490 -0.4884 0.7483
vn -0.7237 -0.4720 0.5034
vn -0.4157 -0.3687 0.8314
vn -0.3761 -0.1802 0.9089
vt 0.060242 0.888367
vt 0.007812 0.992188
vt 0.007812 0.476562
vt 0.491180 0.828125
vt 0.426758 0.780273
vt 0.491180 0.863708
vt 0.389191 0.844452
vt 0.079224 0.565826
vt 0.421875 0.742188
vt 0.491180 0.750000
vt 0.491180 0.742188
vt 0.491180 0.992188
vt 0.314606 0.857941
vt 0.289062 0.906250
vt 0.133911 0.834808
vt 0.123871 0.724304
vt 0.285492 0.779114
vt 0.214264 0.649536
vt 0.333740 0.758820
vt 0.313599 0.631683
vt 0.362701 0.746643
vt 0.397552 0.618042
vt 0.491180 0.632812
vt 0.448639 0.600433
vt 0.491180 0.656250
vt 0.491180 0.976562
vt 0.491180 0.960938
vt 0.429688 0.937500
vt 0.429688 0.898438
vt 0.491180 0.914062
vt 0.428375 0.717438
vt 0.491180 0.714844
vt 0.491180 0.781250
s 1
usemtl f_face094
f 1/1/1 2/2/2 3/3/3
f 4/4/4 5/5/5 6/6/6
f 6/6/6 5/5/5 7/7/7
f 8/8/8 1/1/1 3/3/3
f 9/9/9 10/10/10 11/11/11
f 12/1/12 13/2/13 14/12/14
f 15/13/15 16/14/16 17/15/17
f 17/15/17 16/14/16 1/1/1
f 17/15/17 1/1/1 18/16/18
f 18/16/18 1/1/1 8/8/8
f 19/17/19 20/18/20 21/19/21
f 21/19/21 20/18/20 22/20/22
f 21/19/21 22/20/22 23/21/23
f 23/21/23 22/20/22 24/22/24
f 25/23/25 26/24/26 27/25/27
f 27/25/27 26/24/26 28/22/28
f 29/26/29 30/27/11 31/28/30
f 32/16/31 33/8/32 12/1/12
f 12/1/12 33/8/32 34/3/33
f 12/1/12 34/3/33 13/2/13
f 35/13/34 31/28/30 36/29/35
f 36/29/35 31/28/30 30/27/11
f 36/29/35 30/27/11 37/30/4
f 38/18/36 32/16/31 39/15/37
f 39/15/37 32/16/31 12/1/12
f 39/15/37 12/1/12 40/14/38
f 40/14/38 12/1/12 14/12/14
f 41/21/39 9/9/9 42/31/40
f 42/31/40 9/9/9 11/11/11
f 42/31/40 11/11/11 43/32/41
f 44/9/42 23/21/23 45/31/43
f 45/31/43 23/21/23 24/22/24
f 45/31/43 24/22/24 27/25/27
f 27/25/27 24/22/24 46/24/44
f 27/25/27 46/24/44 25/23/25
f 18/16/18 20/18/20 17/15/17
f 17/15/17 20/18/20 19/17/19
f 17/15/17 19/17/19 15/13/15
f 15/13/15 19/17/19 21/19/21
f 15/13/15 21/19/21 47/7/45
f 47/7/45 21/19/21 23/21/23
f 47/7/45 23/21/23 48/5/46
f 48/5/46 23/21/23 44/9/42
f 48/5/46 44/9/42 49/33/47
f 2/2/2 1/1/1 14/12/14
f 14/12/14 1/1/1 16/14/16
f 14/12/14 16/14/16 50/28/48
f 50/28/48 16/14/16 15/13/15
f 50/28/48 15/13/15 51/29/49
f 51/29/49 15/13/15 47/7/45
f 51/29/49 47/7/45 6/6/6
f 6/6/6 47/7/45 48/5/46
f 6/6/6 48/5/46 4/4/4
f 4/4/4 48/5/46 49/33/47
f 4/4/4 49/33/47 5/5/5
f 52/17/50 35/13/34 53/19/51
f 53/19/51 35/13/34 7/7/7
f 53/19/51 7/7/7 41/21/39
f 41/21/39 7/7/7 5/5/5
f 41/21/39 5/5/5 9/9/9
f 9/9/9 5/5/5 49/33/47
f 9/9/9 49/33/47 10/10/10
f 10/10/10 49/33/47 44/9/42
f 10/10/10 44/9/42 11/11/11
f 11/11/11 44/9/42 45/31/43
f 11/11/11 45/31/43 43/32/41
f 43/32/41 45/31/43 27/25/27
f 43/32/41 27/25/27 42/31/40
f 42/31/40 27/25/27 28/22/28
f 42/31/40 28/22/28 41/21/39
f 41/21/39 28/22/28 54/20/52
f 41/21/39 54/20/52 53/19/51
f 53/19/51 54/20/52 38/18/36
f 53/19/51 38/18/36 52/17/50
f 52/17/50 38/18/36 39/15/37
f 52/17/50 39/15/37 35/13/34
f 35/13/34 39/15/37 40/14/38
f 35/13/34 40/14/38 31/28/30
f 31/28/30 40/14/38 14/12/14
f 31/28/30 14/12/14 29/26/29
f 29/26/29 14/12/14 50/28/48
f 29/26/29 50/28/48 30/27/11
f 30/27/11 50/28/48 51/29/49
f 30/27/11 51/29/49 37/30/4
f 37/30/4 51/29/49 6/6/6
f 37/30/4 6/6/6 36/29/35
f 36/29/35 6/6/6 7/7/7
f 36/29/35 7/7/7 35/13/34
o editpl_f-0000-1880
v -1.775070 53.817154 8.727448
v -2.039611 52.681393 9.219777
v -0.965575 54.134781 9.799903
v -7.409793 52.771225 4.542094
v -7.042081 54.737953 5.187790
v -7.743115 55.148624 0.346738
v -0.820077 53.024685 10.387809
v -2.976086 56.707893 9.771008
v -3.341153 60.140846 8.998617
v -5.830483 59.617882 7.213786
v -7.534127 59.544086 0.082236
v -7.542063 53.236439 -2.550558
v 4.558041 52.046135 8.394042
v 2.745935 53.358356 8.455167
v 2.055483 50.855831 9.348694
v -2.055483 50.855831 9.348694
v -1.002610 51.115707 11.207987
v 9.491730 52.739140 -2.903968
v 9.700718 54.972164 -2.869516
v 8.986457 56.120762 -1.190263
v 7.743115 55.148624 0.346738
v 8.986457 56.120762 -1.190263
v 7.542063 53.236439 -2.550558
v 9.700718 54.972164 -2.869516
v 7.042081 54.737953 5.187790
v 6.243167 56.422348 7.521631
v 6.129415 54.365784 6.942616
v 5.058024 55.642715 8.086198
v 2.039611 52.681393 9.219777
v 0.965575 54.134781 9.799903
v 0.820077 53.024685 10.387809
v 0.000000 54.680202 10.184431
v 0.000000 53.249271 10.736774
v 4.163875 49.963905 8.647431
v 6.039471 49.671944 6.994849
v 6.396601 51.779839 7.070421
v 6.978591 49.646275 4.723245
v -2.745935 53.358356 8.455167
v -9.491730 52.739140 -2.903968
v -9.700718 54.972164 -2.869516
v -7.542063 53.236439 -2.550558
v -8.986457 56.101509 -1.190263
v -7.743115 55.148624 0.346738
v -6.393956 53.101688 6.942616
v -6.396601 51.779839 7.070421
v -4.558041 52.046135 8.394042
v -8.986457 56.101509 -1.190263
v -9.700718 54.972164 -2.869516
v 1.775070 53.823570 8.727448
v 1.529047 55.421337 9.602083
v 0.000000 56.143219 10.380029
v -1.529047 55.421337 9.602083
v -2.769744 55.758217 9.031960
v 7.409793 52.771225 4.542094
v 6.393956 53.101688 6.942616
v 5.140031 53.348732 7.917272
v 3.785581 54.728329 9.005286
v 7.306622 49.758568 0.271166
v 7.801314 49.745735 -1.209156
v 7.306622 49.758568 0.271166
v 7.743115 55.148624 0.346738
v 0.000000 63.775925 8.289575
v 3.333216 60.140846 8.974167
v 3.851717 63.461506 7.007073
v 5.830483 59.617882 7.213786
v 6.388665 61.982449 4.224246
v 7.179642 58.392284 4.621000
v 7.534127 59.544086 0.082236
v 7.743115 55.148624 0.346738
v 7.542063 53.236439 -2.550558
v -5.140031 53.345524 7.917272
v -6.129415 54.445992 6.942616
v -3.785581 54.728329 9.005286
v -5.058024 55.642715 8.086198
v -6.243167 56.422348 7.521631
v -7.179642 58.392284 4.621000
v -7.743115 55.148624 0.346738
v -7.306622 49.758568 0.271166
v -7.801314 49.745735 -1.209156
v -7.306622 49.758568 0.271166
v -7.306622 49.758568 0.271166
v -6.978591 49.646275 4.723245
v -6.039471 49.671944 6.994849
v -4.163875 49.963905 8.647431
v 2.976086 56.707893 9.771008
v 2.769744 55.758217 9.031960
v 0.000000 60.256348 9.799902
v 1.002610 51.115707 11.207987
v 0.000000 51.407669 11.787003
v -6.388665 61.982449 4.224246
v -3.851717 63.461506 7.007073
v 7.306622 49.758568 0.271166
v 0.000000 50.656910 11.430258
vn -0.5745 -0.0000 0.8185
vn -0.6857 0.2443 0.6857
vn -0.6581 0.1567 0.7365
vn -0.9736 -0.0157 0.2277
vn -0.9469 0.0235 0.3208
vn -0.9876 0.0079 0.1567
vn -0.6257 0.2816 0.7274
vn -0.4152 -0.1724 0.8932
vn -0.4004 0.3062 0.8637
vn -0.7494 0.2445 0.6153
vn -0.9940 0.1018 0.0391
vn -0.9948 0.0392 -0.0940
vn 0.4710 0.0707 0.8793
vn 0.2664 0.0079 0.9638
vn 0.5270 -0.0236 0.8495
vn -0.5270 -0.0236 0.8495
vn -0.6435 -0.2040 0.7377
vn 0.8982 -0.3545 -0.2600
vn 0.8942 -0.0863 0.4393
vn 0.8557 -0.0864 0.5103
vn -0.7919 0.5331 -0.2979
vn -0.6859 0.5597 -0.4651
vn -0.6520 0.1335 -0.7464
vn -0.3852 0.3223 -0.8647
vn 0.9466 0.0313 0.3208
vn 0.7766 -0.0549 0.6276
vn 0.7524 -0.0235 0.6583
vn 0.5345 -0.1415 0.8332
vn 0.6857 0.2443 0.6857
vn 0.6581 0.1567 0.7365
vn 0.6257 0.2816 0.7274
vn -0.0000 0.1491 0.9888
vn -0.0000 0.4250 0.9052
vn 0.3761 -0.1802 0.9089
vn 0.7634 -0.2439 0.5981
vn 0.8235 -0.0549 0.5647
vn 0.9419 -0.2668 0.2041
vn -0.2664 0.0078 0.9638
vn -0.8982 -0.3545 -0.2600
vn 0.3852 0.3223 -0.8647
vn 0.6468 0.1420 -0.7494
vn 0.6828 0.5651 -0.4630
vn 0.7856 0.5420 -0.2985
vn -0.7792 0.0787 0.6218
vn -0.8235 -0.0549 0.5647
vn -0.4710 0.0707 0.8793
vn -0.8557 -0.0863 0.5103
vn -0.8942 -0.0863 0.4393
vn 0.5745 -0.0000 0.8185
vn 0.4641 -0.2989 0.8338
vn -0.0000 -0.1337 0.9910
vn -0.4641 -0.2989 0.8338
vn -0.2743 -0.3135 0.9091
vn 0.9736 -0.0157 0.2277
vn 0.7792 0.0787 0.6218
vn 0.5178 -0.0235 0.8552
vn 0.2668 -0.1099 0.9575
vn -0.9333 -0.1882 -0.3059
vn -0.2269 -0.6808 -0.6964
vn 0.9565 -0.2352 0.1725
vn 0.9876 0.0078 0.1568
vn -0.0000 0.4315 0.9021
vn 0.4004 0.3062 0.8637
vn 0.5729 0.4159 0.7063
vn 0.7494 0.2446 0.6153
vn 0.8956 0.2985 0.3299
vn 0.9638 0.1097 0.2429
vn 0.9940 0.1017 0.0391
vn 0.9876 0.0078 0.1567
vn 0.9948 0.0392 -0.0940
vn -0.5178 -0.0235 0.8552
vn -0.7522 -0.0313 0.6582
vn -0.2595 -0.1101 0.9594
vn -0.5401 -0.1409 0.8297
vn -0.7766 -0.0549 0.6276
vn -0.9638 0.1097 0.2429
vn -0.9876 0.0079 0.1568
vn -0.9565 -0.2352 0.1725
vn 0.2269 -0.6808 -0.6964
vn 0.9333 -0.1882 -0.3059
vn -0.9419 -0.2668 0.2041
vn -0.7634 -0.2439 0.5981
vn -0.3761 -0.1802 0.9089
vn 0.4158 -0.1648 0.8944
vn 0.2743 -0.3135 0.9091
vn -0.0000 0.2426 0.9701
vn 0.6436 -0.2040 0.7377
vn -0.0000 0.0079 1.0000
vn -0.8956 0.2985 0.3299
vn -0.5760 0.4182 0.7023
vn -0.0000 -0.7226 0.6913
vt 0.388885 0.402771
vt 0.389832 0.500000
vt 0.433594 0.455719
vt 0.126404 0.504944
vt 0.108490 0.377594
vt 0.051208 0.382812
vt 0.460052 0.481750
vt 0.326813 0.247375
vt 0.326813 0.052063
vt 0.205719 0.111969
vt 0.007812 0.164062
vt 0.007812 0.476562
vt 0.281250 0.502838
vt 0.342010 0.441833
vt 0.397552 0.618042
vt 0.448639 0.600433
vt 0.992188 0.578125
vt 0.992188 0.398438
vt 0.984375 0.367188
vt 0.882812 0.453125
vt 0.968750 0.539062
vt 0.150665 0.265625
vt 0.166656 0.375000
vt 0.221344 0.318207
vt 0.495880 0.396515
vt 0.491180 0.484375
vt 0.313599 0.631683
vt 0.214264 0.649536
vt 0.194580 0.552551
vt 0.123871 0.724304
vt 0.172852 0.473633
vt 0.420563 0.352844
vt 0.484375 0.312500
vt 0.345825 0.324463
vt 0.215271 0.444427
vt 0.295990 0.375854
vt 0.851562 0.656250
vt 0.945312 0.648438
vt 0.500000 0.007812
vt 0.242188 0.007812
vt 0.007812 0.007812
vt 0.049469 0.199646
vt 0.079224 0.565826
vt 0.500000 0.062500
vt 0.491180 0.585938
vt 0.491180 0.632812
s 1
usemtl f_face094
f 55/34/53 56/35/54 57/36/55
f 58/37/56 59/38/57 60/39/58
f 56/35/54 61/40/59 57/36/55
f 62/41/60 63/42/61 64/43/62
f 60/39/58 65/44/63 66/45/64
f 67/46/65 68/47/66 69/48/67
f 70/48/68 71/49/69 61/40/59
f 72/50/70 73/51/71 74/52/72
f 75/53/73 76/52/74 77/54/75
f 77/54/75 76/52/74 78/51/76
f 77/54/75 78/51/76 72/50/70
f 79/38/77 80/55/78 81/56/79
f 81/56/79 80/55/78 82/57/80
f 83/35/81 84/36/82 85/40/83
f 85/40/83 84/36/82 86/58/84
f 85/40/83 86/58/84 87/59/85
f 69/48/67 88/60/86 67/46/65
f 67/46/65 88/60/86 89/61/87
f 67/46/65 89/61/87 90/62/88
f 90/62/88 89/61/87 91/63/89
f 56/35/54 55/34/53 92/47/90
f 93/50/91 94/51/92 95/54/93
f 95/54/93 94/51/92 96/52/94
f 95/54/93 96/52/94 97/53/95
f 59/38/57 58/37/56 98/64/96
f 98/64/96 58/37/56 99/62/97
f 98/64/96 99/62/97 100/46/98
f 101/52/99 102/51/100 93/50/91
f 83/35/81 103/34/101 84/36/82
f 84/36/82 103/34/101 104/65/102
f 84/36/82 104/65/102 86/58/84
f 86/58/84 104/65/102 105/66/103
f 86/58/84 105/66/103 106/65/104
f 106/65/104 105/66/103 62/41/60
f 106/65/104 62/41/60 107/67/105
f 108/37/106 79/38/77 109/64/107
f 109/64/107 79/38/77 81/56/79
f 109/64/107 81/56/79 110/68/108
f 110/68/108 81/56/79 82/57/80
f 110/68/108 82/57/80 111/69/109
f 112/70/110 77/54/75 113/71/111
f 113/71/111 77/54/75 72/50/70
f 113/71/111 72/50/70 114/70/112
f 114/70/112 72/50/70 74/52/72
f 114/70/112 74/52/72 115/53/113
f 116/72/114 117/42/115 118/73/116
f 118/73/116 117/42/115 119/43/117
f 118/73/116 119/43/117 120/74/118
f 120/74/118 119/43/117 121/75/119
f 120/74/118 121/75/119 122/44/120
f 122/44/120 121/75/119 123/39/121
f 122/44/120 123/39/121 124/45/122
f 61/40/59 56/35/54 70/48/68
f 70/48/68 56/35/54 92/47/90
f 70/48/68 92/47/90 100/46/98
f 100/46/98 92/47/90 125/68/123
f 100/46/98 125/68/123 98/64/96
f 98/64/96 125/68/123 126/56/124
f 98/64/96 126/56/124 59/38/57
f 127/69/125 107/67/105 128/57/126
f 128/57/126 107/67/105 62/41/60
f 128/57/126 62/41/60 129/55/127
f 129/55/127 62/41/60 64/43/62
f 129/55/127 64/43/62 130/75/128
f 131/53/129 101/52/99 132/70/130
f 132/70/130 101/52/99 93/50/91
f 132/70/130 93/50/91 133/71/131
f 133/71/131 93/50/91 95/54/93
f 133/71/131 95/54/93 134/70/132
f 60/39/58 135/76/130 58/37/56
f 58/37/56 135/76/130 136/63/133
f 58/37/56 136/63/133 99/62/97
f 99/62/97 136/63/133 137/61/134
f 99/62/97 137/61/134 100/46/98
f 100/46/98 137/61/134 138/60/135
f 100/46/98 138/60/135 70/48/68
f 80/55/78 139/41/136 82/57/80
f 82/57/80 139/41/136 140/67/137
f 82/57/80 140/67/137 111/69/109
f 111/69/109 140/67/137 68/47/66
f 111/69/109 68/47/66 110/68/108
f 110/68/108 68/47/66 67/46/65
f 110/68/108 67/46/65 109/64/107
f 109/64/107 67/46/65 90/62/88
f 109/64/107 90/62/88 108/37/106
f 108/37/106 90/62/88 91/63/89
f 63/42/61 62/41/60 141/77/138
f 141/77/138 62/41/60 105/66/103
f 141/77/138 105/66/103 139/41/136
f 139/41/136 105/66/103 104/65/102
f 139/41/136 104/65/102 140/67/137
f 140/67/137 104/65/102 103/34/101
f 140/67/137 103/34/101 68/47/66
f 68/47/66 103/34/101 83/35/81
f 68/47/66 83/35/81 69/48/67
f 69/48/67 83/35/81 85/40/83
f 69/48/67 85/40/83 142/49/139
f 142/49/139 85/40/83 87/59/85
f 142/49/139 87/59/85 143/78/140
f 65/44/63 130/75/128 144/74/141
f 144/74/141 130/75/128 64/43/62
f 144/74/141 64/43/62 145/73/142
f 145/73/142 64/43/62 63/42/61
f 145/73/142 63/42/61 116/72/114
f 116/72/114 63/42/61 141/77/138
f 116/72/114 141/77/138 117/42/115
f 117/42/115 141/77/138 139/41/136
f 117/42/115 139/41/136 119/43/117
f 119/43/117 139/41/136 80/55/78
f 119/43/117 80/55/78 121/75/119
f 121/75/119 80/55/78 79/38/77
f 121/75/119 79/38/77 123/39/121
f 123/39/121 79/38/77 108/37/106
f 123/39/121 108/37/106 146/76/112
f 146/76/112 108/37/106 91/63/89
f 65/44/63 60/39/58 130/75/128
f 130/75/128 60/39/58 59/38/57
f 130/75/128 59/38/57 129/55/127
f 129/55/127 59/38/57 126/56/124
f 129/55/127 126/56/124 128/57/126
f 128/57/126 126/56/124 125/68/123
f 128/57/126 125/68/123 127/69/125
f 127/69/125 125/68/123 92/47/90
f 127/69/125 92/47/90 107/67/105
f 107/67/105 92/47/90 55/34/53
f 107/67/105 55/34/53 106/65/104
f 106/65/104 55/34/53 57/36/55
f 106/65/104 57/36/55 86/58/84
f 86/58/84 57/36/55 61/40/59
f 86/58/84 61/40/59 87/59/85
f 87/59/85 61/40/59 71/49/69
f 87/59/85 71/49/69 143/78/140
f 143/78/140 71/49/69 147/79/143
f 143/78/140 147/79/143 142/49/139
