mtllib f_face002.mtl
o editpl_f-0000-1839
v 0.000000 50.432323 11.368022
v 1.052873 51.205544 11.179092
v 0.000000 51.128540 11.868132
v -3.521040 51.795879 9.076413
v -1.976121 50.294365 9.533179
v -2.224790 52.123135 9.533179
v -5.478644 46.986538 5.361162
v -6.624106 49.408855 4.529869
v -6.597652 48.279510 2.983979
v 3.055448 48.417473 8.695219
v 1.626927 49.145771 10.313348
v 1.783006 48.164009 9.305352
v 2.066065 44.798431 8.601865
v 0.000000 44.034840 9.028626
v 1.896759 43.781380 7.700559
v 3.870235 46.556618 0.512330
v 7.542063 53.236439 -2.550558
v 6.552680 47.317001 0.621242
v 7.240487 49.758568 0.271166
v 1.976121 50.294365 9.533179
v 0.000000 50.149990 10.592299
v 3.325280 44.561012 5.696791
v 3.880816 45.725651 6.841484
v 3.005186 45.789818 8.120650
v 6.597652 48.279510 2.983979
v 5.478644 46.986538 5.361162
v 6.211422 46.575867 1.429196
v 5.356955 45.789818 3.371841
v 0.000000 43.765339 3.215140
v -1.052873 51.205544 11.179092
v -3.325280 44.561012 5.696791
v -1.896759 43.781380 7.700559
v 0.000000 43.588879 8.275129
v -2.066065 44.798431 8.601865
v 0.000000 44.792015 9.388703
v 2.423195 46.046486 8.508512
v -7.542063 53.236439 -2.550558
v -3.870235 46.556618 0.512330
v -6.552680 47.317001 0.621242
v -7.240487 49.758568 0.271166
v -7.161124 52.379803 5.082212
v -7.743115 55.148624 0.346738
v 2.224790 52.123135 9.533179
v 3.521040 51.795879 9.076413
v 4.171811 49.649483 8.784127
v 5.113577 51.564880 8.314025
v 5.653241 49.463398 7.299360
v 6.362211 51.596962 6.959286
v 6.624106 49.408855 4.529869
v 7.161124 52.379803 5.082212
v 7.743115 55.148624 0.346738
v -5.356955 45.789818 3.371841
v -6.211422 46.575867 1.429196
v 0.000000 48.131927 10.057737
v -0.936475 48.292343 9.827687
v 0.000000 47.583294 10.226664
v -1.825333 47.162998 9.460941
v 0.000000 47.025040 10.241110
v -2.423195 46.046486 8.508512
v 0.000000 46.271072 9.470943
v -3.055448 48.417473 8.695219
v -1.783006 48.164009 9.305352
v -1.626927 49.145771 10.313348
v -0.936475 48.292343 9.827687
v 0.000000 49.235603 10.959044
v 0.000000 48.131927 10.057737
v 0.936475 48.292343 9.827687
v -4.171811 49.649483 8.784127
v -5.113577 51.564880 8.314025
v -5.653241 49.463398 7.299360
v -6.362211 51.596962 6.959286
v -3.005186 45.789818 8.120650
v -4.483970 47.493462 7.733899
v -1.783006 48.164009 9.305352
v 4.483970 47.493462 7.733899
v -3.880816 45.725651 6.841484
v 1.825333 47.162998 9.460941
v 0.936475 48.292343 9.827687
v 1.783006 48.164009 9.305352
vn -0.0000 -0.7915 0.6112
vn 0.6891 -0.0783 0.7204
vn -0.0000 -0.2111 0.9775
vn -0.3626 0.1340 0.9223
vn -0.5417 -0.0314 0.8400
vn -0.5023 0.2355 0.8320
vn -0.8403 -0.4241 0.3377
vn -0.9383 -0.2523 0.2365
vn -0.9393 -0.3053 0.1566
vn 0.5025 -0.2041 0.8401
vn 0.4956 -0.1809 0.8495
vn 0.3783 -0.6305 0.6778
vn 0.5813 -0.4163 0.6991
vn -0.0000 -0.6831 0.7303
vn 0.4014 -0.8657 0.2991
vn 0.2195 -0.6820 -0.6976
vn 0.6204 -0.4476 -0.6440
vn 0.5982 -0.6296 -0.4958
vn 0.9509 -0.2515 0.1807
vn 0.5417 -0.0314 0.8400
vn -0.0000 -0.2591 0.9658
vn 0.6119 -0.7767 0.1490
vn 0.7394 -0.5348 0.4090
vn 0.6710 -0.3316 0.6632
vn 0.9393 -0.3053 0.1566
vn 0.8403 -0.4241 0.3377
vn 0.8117 -0.5832 -0.0316
vn 0.6555 -0.7502 0.0869
vn -0.0000 -0.9548 -0.2973
vn -0.6891 -0.0783 0.7204
vn -0.6119 -0.7767 0.1490
vn -0.4014 -0.8657 0.2991
vn -0.0000 -0.9701 0.2425
vn -0.5813 -0.4163 0.6991
vn -0.0000 -0.1733 0.9849
vn 0.4485 -0.2517 0.8576
vn -0.6204 -0.4476 -0.6440
vn -0.2195 -0.6820 -0.6976
vn -0.5982 -0.6296 -0.4958
vn -0.9508 -0.2515 0.1807
vn -0.9730 -0.0707 0.2197
vn -0.9835 -0.0000 0.1809
vn 0.5023 0.2355 0.8320
vn 0.3626 0.1340 0.9223
vn 0.4555 -0.1806 0.8717
vn 0.5974 0.0157 0.8018
vn 0.8051 -0.2526 0.5367
vn 0.8622 -0.0706 0.5016
vn 0.9383 -0.2523 0.2365
vn 0.9730 -0.0707 0.2197
vn 0.9835 -0.0000 0.1809
vn -0.6555 -0.7502 0.0869
vn -0.8117 -0.5832 -0.0316
vn -0.0000 0.2902 0.9570
vn -0.3754 0.1485 0.9149
vn -0.0000 0.1096 0.9940
vn -0.4774 -0.0627 0.8765
vn -0.0000 -0.4314 0.9021
vn -0.4485 -0.2517 0.8576
vn -0.0000 -0.4156 0.9095
vn -0.5025 -0.2041 0.8401
vn -0.3783 -0.6305 0.6778
vn -0.4956 -0.1809 0.8495
vn -0.2904 -0.6279 0.7221
vn -0.0000 -0.3537 0.9354
vn -0.0000 -0.6332 0.7740
vn 0.2904 -0.6279 0.7221
vn -0.4555 -0.1806 0.8717
vn -0.5974 0.0157 0.8018
vn -0.8051 -0.2526 0.5367
vn -0.8622 -0.0706 0.5016
vn -0.6710 -0.3316 0.6632
vn -0.6076 -0.3393 0.7181
vn -0.4702 0.1489 0.8699
vn 0.6076 -0.3393 0.7181
vn -0.7394 -0.5348 0.4090
vn 0.4774 -0.0627 0.8765
vn 0.3754 0.1485 0.9149
vn 0.4702 0.1489 0.8699
vt 0.504944 0.637054
vt 0.554443 0.624146
vt 0.504944 0.619812
vt 0.695251 0.593292
vt 0.616211 0.695221
vt 0.621887 0.561829
vt 0.873566 0.865814
vt 0.901978 0.739105
vt 0.920593 0.796814
vt 0.672089 0.796478
vt 0.591309 0.749084
vt 0.581543 0.796478
vt 0.612823 0.934967
vt 0.504944 0.952637
vt 0.611664 0.977356
vt 0.987244 0.987396
vt 0.987244 0.593323
vt 0.956390 0.939697
vt 0.967621 0.727783
vt 0.504944 0.703186
vt 0.755707 0.980835
vt 0.750916 0.921936
vt 0.699707 0.906494
vt 0.911102 0.949371
vt 0.809662 0.969177
vt 0.504944 0.987396
vt 0.504944 0.977356
vt 0.504944 0.929504
vt 0.648529 0.891022
vt 0.925629 0.563690
vt 0.975433 0.413086
vt 0.719971 0.716980
vt 0.787415 0.597260
vt 0.806671 0.733063
vt 0.858124 0.593353
vt 0.504944 0.800507
vt 0.540619 0.798492
vt 0.504944 0.830475
vt 0.582062 0.859833
vt 0.504944 0.863892
vt 0.504944 0.886536
vt 0.504944 0.756226
vt 0.777466 0.831573
s 1
usemtl f_face074
f 1/1/1 2/2/2 3/3/3
f 4/4/4 5/5/5 6/6/6
f 7/7/7 8/8/8 9/9/9
f 10/10/10 11/11/11 12/12/12
f 13/13/13 14/14/14 15/15/15
f 16/16/16 17/17/17 18/18/18
f 18/18/18 17/17/17 19/19/19
f 20/5/20 2/2/2 21/20/21
f 15/15/15 22/21/22 13/13/13
f 13/13/13 22/21/22 23/22/23
f 13/13/13 23/22/23 24/23/24
f 25/9/25 26/7/26 27/24/27
f 27/24/27 26/7/26 28/25/28
f 27/24/27 28/25/28 29/26/29
f 3/3/3 30/2/30 1/1/1
f 31/21/31 29/26/29 32/15/32
f 32/15/32 29/26/29 33/27/33
f 34/13/34 14/14/14 35/28/35
f 35/28/35 14/14/14 13/13/13
f 35/28/35 13/13/13 36/29/36
f 36/29/36 13/13/13 24/23/24
f 37/17/37 38/16/38 39/18/39
f 39/18/39 38/16/38 29/26/29
f 40/19/40 41/30/41 42/31/42
f 2/2/2 1/1/1 21/20/21
f 21/20/21 1/1/1 30/2/30
f 21/20/21 30/2/30 5/5/5
f 43/6/43 20/5/20 44/4/44
f 44/4/44 20/5/20 45/32/45
f 44/4/44 45/32/45 46/33/46
f 46/33/46 45/32/45 47/34/47
f 46/33/46 47/34/47 48/35/48
f 48/35/48 47/34/47 49/8/49
f 48/35/48 49/8/49 50/30/50
f 50/30/50 49/8/49 19/19/19
f 50/30/50 19/19/19 51/31/51
f 31/21/31 52/25/52 29/26/29
f 29/26/29 52/25/52 53/24/53
f 29/26/29 53/24/53 39/18/39
f 39/18/39 53/24/53 40/19/40
f 39/18/39 40/19/40 37/17/37
f 54/36/54 55/37/55 56/38/56
f 56/38/56 55/37/55 57/39/57
f 56/38/56 57/39/57 58/40/58
f 58/40/58 57/39/57 59/29/59
f 58/40/58 59/29/59 60/41/60
f 61/10/61 62/12/62 63/11/63
f 63/11/63 62/12/62 64/37/64
f 63/11/63 64/37/64 65/42/65
f 65/42/65 64/37/64 66/36/66
f 65/42/65 66/36/66 67/37/67
f 5/5/5 4/4/4 68/32/68
f 68/32/68 4/4/4 69/33/69
f 68/32/68 69/33/69 70/34/70
f 70/34/70 69/33/69 71/35/71
f 70/34/70 71/35/71 8/8/8
f 7/7/7 72/23/72 73/43/73
f 73/43/73 72/23/72 59/29/59
f 73/43/73 59/29/59 61/10/61
f 61/10/61 59/29/59 57/39/57
f 61/10/61 57/39/57 74/12/74
f 74/12/74 57/39/57 55/37/55
f 21/20/21 11/11/11 20/5/20
f 20/5/20 11/11/11 10/10/10
f 20/5/20 10/10/10 45/32/45
f 45/32/45 10/10/10 75/43/75
f 45/32/45 75/43/75 47/34/47
f 47/34/47 75/43/75 26/7/26
f 47/34/47 26/7/26 49/8/49
f 49/8/49 26/7/26 25/9/25
f 49/8/49 25/9/25 19/19/19
f 19/19/19 25/9/25 27/24/27
f 19/19/19 27/24/27 18/18/18
f 18/18/18 27/24/27 29/26/29
f 18/18/18 29/26/29 16/16/16
f 8/8/8 7/7/7 70/34/70
f 70/34/70 7/7/7 73/43/73
f 70/34/70 73/43/73 68/32/68
f 68/32/68 73/43/73 61/10/61
f 68/32/68 61/10/61 5/5/5
f 5/5/5 61/10/61 63/11/63
f 5/5/5 63/11/63 21/20/21
f 21/20/21 63/11/63 65/42/65
f 21/20/21 65/42/65 11/11/11
f 11/11/11 65/42/65 67/37/67
f 11/11/11 67/37/67 12/12/12
f 7/7/7 76/22/76 72/23/72
f 72/23/72 76/22/76 34/13/34
f 72/23/72 34/13/34 59/29/59
f 59/29/59 34/13/34 35/28/35
f 59/29/59 35/28/35 60/41/60
f 60/41/60 35/28/35 36/29/36
f 60/41/60 36/29/36 58/40/58
f 58/40/58 36/29/36 77/39/77
f 58/40/58 77/39/77 56/38/56
f 56/38/56 77/39/77 78/37/78
f 56/38/56 78/37/78 54/36/54
f 71/35/71 41/30/41 8/8/8
f 8/8/8 41/30/41 40/19/40
f 8/8/8 40/19/40 9/9/9
f 9/9/9 40/19/40 53/24/53
f 9/9/9 53/24/53 7/7/7
f 7/7/7 53/24/53 52/25/52
f 7/7/7 52/25/52 76/22/76
f 76/22/76 52/25/52 31/21/31
f 76/22/76 31/21/31 34/13/34
f 34/13/34 31/21/31 32/15/32
f 34/13/34 32/15/32 14/14/14
f 14/14/14 32/15/32 33/27/33
f 14/14/14 33/27/33 15/15/15
f 15/15/15 33/27/33 29/26/29
f 15/15/15 29/26/29 22/21/22
f 22/21/22 29/26/29 28/25/28
f 22/21/22 28/25/28 23/22/23
f 23/22/23 28/25/28 26/7/26
f 23/22/23 26/7/26 24/23/24
f 24/23/24 26/7/26 75/43/75
f 24/23/24 75/43/75 36/29/36
f 36/29/36 75/43/75 10/10/10
f 36/29/36 10/10/10 77/39/77
f 77/39/77 10/10/10 79/12/79
f 77/39/77 79/12/79 78/37/78
o editpl_f-0000-1840
v -5.769639 54.413910 7.342703
v -6.147932 56.178513 7.272688
v -6.698178 54.429951 6.046866
v -1.976121 50.294365 9.533179
v -0.870340 52.479263 10.527840
v -2.224790 52.123135 9.533179
v -7.534127 59.544086 0.082236
v -7.743115 55.148624 0.346738
v -7.179642 58.392284 4.621000
v 0.000000 51.824757 11.721432
v 0.000000 51.128540 11.868132
v 1.052873 51.205544 11.179092
v -6.362211 51.596962 6.959286
v -7.161124 52.379803 5.082212
v -6.388665 61.982449 4.224246
v 2.486685 53.958321 8.589641
v 3.534268 54.609619 8.709667
v 2.454940 55.344337 8.780793
v 0.822722 54.327282 9.684323
v 2.224790 52.123135 9.533179
v 1.753907 54.288784 8.748564
v 0.000000 55.902592 10.134421
v 0.000000 54.407494 9.827687
v 9.560511 52.739140 -2.903968
v 7.999719 49.745735 -1.209156
v 7.542063 53.236439 -2.550558
v 7.240487 49.758568 0.271166
v 6.362211 51.596962 6.959286
v 7.161124 52.379803 5.082212
v 6.698178 54.429951 6.046866
v 7.743115 55.148624 0.346738
v 7.179642 58.392284 4.621000
v 7.743115 55.148624 0.346738
v 9.055238 56.120762 -1.190263
v 9.769499 54.972164 -2.869516
v 9.560511 52.739140 -2.903968
v 9.769499 54.972164 -2.869516
v 9.055238 56.120762 -1.190263
v 1.976121 50.294365 9.533179
v 0.870340 52.479263 10.527840
v 0.000000 52.597973 10.905699
v -9.560511 52.739140 -2.903968
v -7.999719 49.745735 -1.209156
v -7.240487 49.758568 0.271166
v -2.486685 53.958321 8.589641
v -1.753907 54.288784 8.748564
v -2.454940 55.344337 8.780793
v -4.983952 55.273750 8.150656
v -4.962789 53.945488 7.903936
v -3.534268 54.609619 8.709667
v 7.999719 49.745735 -1.209156
v 7.240487 49.758568 0.271166
v 7.743115 55.148624 0.346738
v -1.052873 51.205544 11.179092
v -9.560511 52.739140 -2.903968
v -7.542063 53.236439 -2.550558
v -7.999719 49.745735 -1.209156
v -7.240487 49.758568 0.271166
v -9.769499 54.972164 -2.869516
v -9.055238 56.120762 -1.190263
v -7.743115 55.148624 0.346738
v -7.542063 53.236439 -2.550558
v -9.769499 54.972164 -2.869516
v -9.055238 56.120762 -1.190263
v -7.743115 55.148624 0.346738
v -2.912596 58.125992 9.544291
v 0.000000 58.052197 10.239998
v 3.851717 63.461506 7.007073
v 5.830483 59.617882 7.213786
v 6.388665 61.982449 4.224246
v 7.534127 59.544086 0.082236
v 7.542063 53.236439 -2.550558
v 5.404572 57.551693 8.123983
v 5.259075 56.518597 8.648542
v 6.147932 56.178513 7.272688
v 4.983952 55.273750 8.150656
v 5.769639 54.413910 7.342703
v 4.962789 53.945488 7.903936
v 5.113577 51.564880 8.314025
v 3.521040 51.795879 9.076413
v 3.333216 60.140846 8.974167
v 0.000000 63.775925 8.289575
v -5.259075 56.518597 8.648542
v -0.822722 54.327282 9.684323
v -2.484040 56.159260 9.819908
v -5.404572 57.551693 8.123983
v -5.830483 59.617882 7.213786
v -3.851717 63.461506 7.007073
v -3.333216 60.140846 8.974167
v 0.000000 60.256348 9.799902
v 2.912596 58.125992 9.544291
v 2.484040 56.159260 9.819908
v -5.113577 51.564880 8.314025
v -3.521040 51.795879 9.076413
vn -0.6992 -0.0079 0.7149
vn -0.8275 -0.0473 0.5595
vn -0.9195 0.0079 0.3929
vn -0.5417 -0.0314 0.8400
vn -0.6133 0.2988 0.7312
vn -0.5024 0.2355 0.8320
vn -0.9940 0.1018 0.0391
vn -0.9835 -0.0000 0.1809
vn -0.9498 0.0942 0.2983
vn -0.0000 0.4783 0.8782
vn -0.0000 -0.2111 0.9775
vn 0.6891 -0.0783 0.7204
vn -0.8622 -0.0705 0.5017
vn -0.9730 -0.0706 0.2197
vn -0.8956 0.2985 0.3299
vn 0.2441 0.0472 0.9686
vn 0.2269 -0.1487 0.9625
vn 0.3458 -0.3458 0.8723
vn 0.4935 0.0157 0.8696
vn 0.5024 0.2355 0.8320
vn 0.5023 0.0471 0.8634
vn -0.0000 -0.0785 0.9969
vn -0.0000 0.1644 0.9864
vn -0.2112 -0.1721 -0.9622
vn -0.1807 -0.6836 -0.7071
vn -0.6194 0.1176 -0.7762
vn 0.9509 -0.2514 0.1807
vn 0.8622 -0.0705 0.5017
vn 0.9730 -0.0706 0.2197
vn 0.9195 0.0078 0.3930
vn 0.9835 -0.0000 0.1809
vn 0.9498 0.0942 0.2983
vn -0.7773 0.5496 -0.3062
vn -0.6688 0.5744 -0.4721
vn -0.3785 0.3233 -0.8673
vn 0.8750 -0.1340 0.4651
vn 0.8942 -0.0863 0.4393
vn 0.8495 -0.0944 0.5191
vn 0.5417 -0.0314 0.8400
vn 0.6133 0.2988 0.7312
vn -0.0000 0.5420 0.8404
vn -0.8750 -0.1340 0.4651
vn 0.1807 -0.6836 -0.7072
vn -0.9508 -0.2514 0.1808
vn -0.2441 0.0472 0.9686
vn -0.5023 0.0471 0.8634
vn -0.3458 -0.3458 0.8723
vn -0.5028 -0.1650 0.8485
vn -0.4313 -0.0235 0.9019
vn -0.2269 -0.1487 0.9625
vn 0.9508 -0.2514 0.1808
vn 0.9835 -0.0000 0.1810
vn -0.6891 -0.0783 0.7204
vn 0.2112 -0.1721 -0.9622
vn 0.6194 0.1176 -0.7762
vn -0.9509 -0.2514 0.1807
vn 0.3785 0.3233 -0.8673
vn 0.6688 0.5744 -0.4721
vn 0.7773 0.5496 -0.3062
vn -0.9948 0.0392 -0.0940
vn -0.8942 -0.0863 0.4393
vn -0.8495 -0.0944 0.5191
vn -0.9835 -0.0000 0.1810
vn -0.3075 0.1025 0.9460
vn -0.0000 0.0708 0.9975
vn 0.5729 0.4159 0.7063
vn 0.7754 0.2506 0.5796
vn 0.8956 0.2985 0.3299
vn 0.9940 0.1017 0.0391
vn 0.9948 0.0392 -0.0940
vn 0.6783 0.1577 0.7177
vn 0.5652 -0.2276 0.7929
vn 0.8275 -0.0473 0.5595
vn 0.5028 -0.1650 0.8485
vn 0.6992 -0.0079 0.7149
vn 0.4313 -0.0235 0.9019
vn 0.5974 0.0158 0.8018
vn 0.3626 0.1341 0.9222
vn 0.4247 0.2910 0.8573
vn -0.0000 0.4314 0.9021
vn -0.5667 -0.2275 0.7919
vn -0.4935 0.0157 0.8696
vn -0.3844 -0.1961 0.9021
vn -0.6783 0.1577 0.7177
vn -0.7753 0.2506 0.5798
vn -0.5729 0.4159 0.7063
vn -0.4247 0.2910 0.8573
vn -0.0000 0.2664 0.9638
vn 0.3075 0.1025 0.9460
vn 0.3844 -0.1961 0.9021
vn -0.5974 0.0158 0.8018
vn -0.3626 0.1341 0.9223
vt 0.842407 0.437195
vt 0.882324 0.326294
vt 0.923553 0.419373
vt 0.616211 0.695221
vt 0.549377 0.541443
vt 0.621887 0.561829
vt 0.983582 0.012604
vt 0.975433 0.413086
vt 0.938690 0.196442
vt 0.499695 0.602600
vt 0.499695 0.619812
vt 0.554443 0.624146
vt 0.858124 0.593353
vt 0.925629 0.563690
vt 0.825226 0.013000
vt 0.636078 0.465057
vt 0.699493 0.423096
vt 0.636078 0.382263
vt 0.546234 0.442963
vt 0.597534 0.447601
vt 0.499695 0.333221
vt 0.499695 0.439148
vt 0.012085 0.626709
vt 0.018372 0.654877
vt 0.032990 0.621338
vt 0.032990 0.658783
vt 0.032990 0.610321
vt 0.014496 0.586975
vt 0.012085 0.602661
vt 0.012573 0.541260
vt 0.012573 0.373413
vt 0.036835 0.373413
vt 0.499695 0.541260
vt 0.053650 0.654327
vt 0.129089 0.654327
vt 0.784454 0.382263
vt 0.781342 0.466583
vt 0.129089 0.479553
vt 0.987671 0.593323
vt 0.637421 0.229523
vt 0.499695 0.228027
vt 0.654266 0.013000
vt 0.823364 0.150177
vt 0.814301 0.249420
vt 0.805237 0.298798
vt 0.787415 0.597260
vt 0.695251 0.593292
vt 0.653961 0.129150
vt 0.499695 0.013000
vt 0.620880 0.327271
vt 0.499695 0.120239
s 1
usemtl f_face074
f 80/44/80 81/45/81 82/46/82
f 83/47/83 84/48/84 85/49/85
f 86/50/86 87/51/87 88/52/88
f 89/53/89 90/54/90 91/55/91
f 92/56/92 82/46/82 93/57/93
f 88/52/88 94/58/94 86/50/86
f 95/59/95 96/60/96 97/61/97
f 98/62/98 99/49/99 100/63/100
f 98/62/98 101/64/101 102/65/102
f 103/66/103 104/67/104 105/68/105
f 105/68/105 104/67/104 106/69/106
f 107/56/107 108/57/108 109/46/109
f 109/46/109 108/57/108 110/51/110
f 109/46/109 110/51/110 111/52/111
f 112/70/112 113/71/113 105/68/105
f 105/68/105 113/71/113 114/72/114
f 105/68/105 114/72/114 103/66/103
f 115/73/115 116/74/116 117/75/117
f 118/47/118 119/48/119 91/55/91
f 91/55/91 119/48/119 120/76/120
f 91/55/91 120/76/120 89/53/89
f 121/73/121 122/77/122 123/78/123
f 124/59/124 125/63/125 126/61/126
f 81/45/81 80/44/80 127/79/127
f 127/79/127 80/44/80 128/80/128
f 127/79/127 128/80/128 129/60/129
f 130/77/104 115/73/115 131/78/130
f 131/78/130 115/73/115 117/75/117
f 131/78/130 117/75/117 132/81/131
f 84/48/84 83/47/83 133/55/132
f 134/66/133 135/68/134 136/67/122
f 136/67/122 135/68/134 137/69/135
f 134/66/133 138/72/136 135/68/134
f 135/68/134 138/72/136 139/71/137
f 135/68/134 139/71/137 140/70/138
f 87/51/87 86/50/86 141/82/139
f 142/74/140 121/73/121 143/75/141
f 143/75/141 121/73/121 123/78/123
f 143/75/141 123/78/123 144/81/142
f 145/83/143 101/64/101 146/84/144
f 147/85/145 148/86/146 149/58/147
f 149/58/147 148/86/146 111/52/111
f 149/58/147 111/52/111 150/50/148
f 150/50/148 111/52/111 110/51/110
f 150/50/148 110/51/110 151/82/149
f 152/87/150 153/88/151 154/45/152
f 154/45/152 153/88/151 155/79/153
f 154/45/152 155/79/153 156/44/154
f 156/44/154 155/79/153 157/80/155
f 156/44/154 157/80/155 158/89/156
f 158/89/156 157/80/155 159/90/157
f 158/89/156 107/56/107 156/44/154
f 156/44/154 107/56/107 109/46/109
f 156/44/154 109/46/109 154/45/152
f 154/45/152 109/46/109 111/52/111
f 154/45/152 111/52/111 152/87/150
f 152/87/150 111/52/111 148/86/146
f 152/87/150 148/86/146 160/91/158
f 160/91/158 148/86/146 147/85/145
f 160/91/158 147/85/145 161/92/159
f 128/80/128 124/59/124 129/60/129
f 129/60/129 124/59/124 126/61/126
f 129/60/129 126/61/126 127/79/127
f 127/79/127 126/61/126 162/88/160
f 127/79/127 162/88/160 81/45/81
f 118/47/118 99/49/99 119/48/119
f 119/48/119 99/49/99 98/62/98
f 119/48/119 98/62/98 120/76/120
f 120/76/120 98/62/98 102/65/102
f 120/76/120 102/65/102 163/62/161
f 163/62/161 102/65/102 101/64/101
f 163/62/161 101/64/101 164/93/162
f 164/93/162 101/64/101 145/83/143
f 164/93/162 145/83/143 165/87/163
f 90/54/90 89/53/89 133/55/132
f 133/55/132 89/53/89 120/76/120
f 133/55/132 120/76/120 84/48/84
f 84/48/84 120/76/120 163/62/161
f 84/48/84 163/62/161 85/49/85
f 94/58/94 166/86/164 167/85/165
f 167/85/165 166/86/164 168/91/166
f 167/85/165 168/91/166 161/92/159
f 161/92/159 168/91/166 169/94/167
f 161/92/159 169/94/167 160/91/158
f 160/91/158 169/94/167 170/83/168
f 160/91/158 170/83/168 152/87/150
f 152/87/150 170/83/168 171/93/169
f 152/87/150 171/93/169 153/88/151
f 153/88/151 171/93/169 97/61/97
f 153/88/151 97/61/97 155/79/153
f 155/79/153 97/61/97 96/60/96
f 155/79/153 96/60/96 157/80/155
f 157/80/155 96/60/96 95/59/95
f 157/80/155 95/59/95 159/90/157
f 82/46/82 92/56/92 80/44/80
f 80/44/80 92/56/92 172/89/170
f 80/44/80 172/89/170 128/80/128
f 128/80/128 172/89/170 173/90/171
f 128/80/128 173/90/171 124/59/124
f 124/59/124 173/90/171 85/49/85
f 124/59/124 85/49/85 125/63/125
f 125/63/125 85/49/85 163/62/161
f 125/63/125 163/62/161 126/61/126
f 126/61/126 163/62/161 164/93/162
f 126/61/126 164/93/162 162/88/160
f 162/88/160 164/93/162 165/87/163
f 162/88/160 165/87/163 81/45/81
f 81/45/81 165/87/163 88/52/88
f 81/45/81 88/52/88 82/46/82
f 82/46/82 88/52/88 87/51/87
f 82/46/82 87/51/87 93/57/93
f 94/58/94 88/52/88 166/86/164
f 166/86/164 88/52/88 165/87/163
f 166/86/164 165/87/163 168/91/166
f 168/91/166 165/87/163 145/83/143
f 168/91/166 145/83/143 169/94/167
f 169/94/167 145/83/143 146/84/144
f 169/94/167 146/84/144 170/83/168
f 170/83/168 146/84/144 101/64/101
f 170/83/168 101/64/101 171/93/169
f 171/93/169 101/64/101 98/62/98
f 171/93/169 98/62/98 97/61/97
f 97/61/97 98/62/98 100/63/100
f 97/61/97 100/63/100 95/59/95
f 95/59/95 100/63/100 99/49/99
f 95/59/95 99/49/99 159/90/157
