mtllib f_face031.mtl
o editpl_f-0000-1835
v 0.000000 43.765339 3.210695
v 2.907305 44.917141 4.904396
v 1.346514 44.371719 7.267132
v 4.245883 47.721256 7.527187
v 5.232621 47.050705 5.634555
v 5.872810 49.248440 6.765911
v 6.766958 48.680557 4.112001
v 7.224614 51.465420 4.807707
v 1.497302 47.807880 9.086415
v 3.021058 48.497681 8.380706
v 1.320060 48.244221 8.884150
v 0.000000 48.735100 9.909927
v 2.074001 50.451576 9.430934
v 0.000000 49.835567 9.857695
v 0.928539 51.106083 10.966825
v 0.000000 50.727493 11.210210
v -1.346514 44.371719 7.267132
v -2.010511 46.091404 8.012848
v -3.589821 45.744900 6.503633
v -7.436247 49.758568 0.271166
v -7.542063 53.236439 -2.550558
v -5.526261 46.511700 1.034666
v -3.822617 46.380157 0.512330
v 5.589751 46.511700 1.034666
v 3.822617 46.380157 0.512330
v 7.542063 53.236439 -2.550558
v -5.872810 49.248440 6.765911
v -5.232621 47.050705 5.634555
v -4.245883 47.721256 7.527187
v 0.000000 48.545807 9.876587
v -1.343868 48.622807 9.584301
v -3.021058 48.497681 8.380706
v -1.481430 48.815308 9.606528
v -3.502523 50.060154 8.705221
v -2.074001 50.451576 9.430934
v -7.796023 55.148624 0.346738
v -7.224614 51.465420 4.807707
v -2.907305 44.917141 4.904396
v -5.677050 46.765160 2.691692
v -6.766958 48.680557 4.112001
v 2.010511 46.091404 8.012848
v 3.589821 45.744900 6.503633
v 5.677050 46.765160 2.691692
v 7.436247 49.758568 0.271166
v 3.502523 50.060154 8.705221
v 1.481430 48.815308 9.606528
v 1.343868 48.622807 9.584301
v 0.000000 48.042091 9.335359
v -1.320060 48.244221 8.884150
v 0.000000 47.018623 9.412041
v -1.629572 47.079582 8.642985
v 0.000000 46.046486 8.692996
v 0.000000 44.830517 8.407379
v 0.000000 44.108631 7.446060
v -1.497302 47.807880 9.086415
v 0.000000 47.695587 9.478724
v 7.796023 55.148624 0.346738
v 1.629572 47.079582 8.642985
v 0.000000 51.333878 11.436926
v -0.928539 51.106083 10.966825
vn -0.0000 -0.9910 -0.1337
vn 0.5169 -0.8537 0.0627
vn 0.4174 -0.8112 0.4096
vn 0.5742 -0.4247 0.7000
vn 0.7468 -0.5581 0.3616
vn 0.8026 -0.3069 0.5115
vn 0.8965 -0.3932 0.2044
vn 0.9520 -0.0944 0.2911
vn 0.3223 0.0786 0.9434
vn 0.4345 -0.3318 0.8373
vn 0.3289 -0.2584 0.9083
vn -0.0000 -0.0863 0.9963
vn 0.4172 -0.0788 0.9054
vn -0.0000 -0.5797 0.8148
vn 0.6112 -0.1567 0.7758
vn -0.0000 -0.6199 0.7847
vn -0.4174 -0.8112 0.4096
vn -0.4408 -0.4015 0.8028
vn -0.6213 -0.6684 0.4089
vn -0.9183 -0.3846 0.0941
vn -0.4647 -0.5199 -0.7168
vn -0.5510 -0.7556 -0.3542
vn -0.2604 -0.6944 -0.6708
vn 0.5580 -0.7544 -0.3458
vn 0.2517 -0.6922 -0.6764
vn 0.4647 -0.5199 -0.7168
vn -0.8026 -0.3069 0.5115
vn -0.7468 -0.5581 0.3616
vn -0.5742 -0.4247 0.7000
vn -0.0000 -0.4783 0.8782
vn -0.2906 -0.5891 0.7540
vn -0.4345 -0.3318 0.8373
vn -0.3858 -0.2126 0.8977
vn -0.4396 -0.1413 0.8870
vn -0.4173 -0.0788 0.9054
vn -0.9876 -0.0000 0.1568
vn -0.9520 -0.0944 0.2911
vn -0.5112 -0.8572 0.0629
vn -0.7458 -0.6595 0.0942
vn -0.8965 -0.3932 0.2044
vn 0.4408 -0.4015 0.8028
vn 0.6213 -0.6684 0.4089
vn 0.7491 -0.6545 0.1025
vn 0.9203 -0.3776 0.1022
vn 0.4396 -0.1413 0.8870
vn 0.3858 -0.2126 0.8977
vn 0.2906 -0.5891 0.7540
vn -0.0000 -0.2351 0.9720
vn -0.3289 -0.2584 0.9083
vn -0.0000 -0.3930 0.9196
vn -0.4173 -0.4252 0.8031
vn -0.0000 -0.4250 0.9052
vn -0.0000 -0.5511 0.8345
vn -0.0000 -0.9354 0.3537
vn -0.3223 0.0786 0.9434
vn -0.0000 0.1414 0.9899
vn 0.9876 -0.0000 0.1568
vn 0.4173 -0.4252 0.8031
vn -0.0000 0.2518 0.9678
vn -0.6112 -0.1567 0.7758
vt 0.500000 0.987701
vt 0.265991 0.941284
vt 0.415802 0.952820
vt 0.290558 0.808929
vt 0.213379 0.830658
vt 0.192078 0.709045
vt 0.129028 0.746582
vt 0.091431 0.591187
vt 0.434448 0.822632
vt 0.372131 0.808472
vt 0.439209 0.801453
vt 0.500000 0.760376
vt 0.391235 0.648224
vt 0.500000 0.703125
vt 0.457031 0.641388
vt 0.500000 0.664062
vt 0.382324 0.907532
vt 0.277557 0.889954
vt 0.050781 0.644531
vt 0.012360 0.585938
vt 0.052734 0.945312
vt 0.012360 0.987701
vt 0.500000 0.768616
vt 0.446960 0.769196
vt 0.444580 0.762299
vt 0.324402 0.661255
vt 0.032227 0.372345
vt 0.140625 0.875000
vt 0.500000 0.804779
vt 0.500000 0.854828
vt 0.424164 0.854736
vt 0.500000 0.919281
vt 0.500000 0.945312
vt 0.500000 0.976562
vt 0.500000 0.823547
vt 0.500000 0.617188
s 1
usemtl f_face072
f 1/1/1 2/2/2 3/3/3
f 4/4/4 5/5/5 6/6/6
f 6/6/6 5/5/5 7/7/7
f 6/6/6 7/7/7 8/8/8
f 9/9/9 10/10/10 11/11/11
f 12/12/12 13/13/13 14/14/14
f 14/14/14 13/13/13 15/15/15
f 14/14/14 15/15/15 16/16/16
f 17/3/17 18/17/18 19/18/19
f 20/19/20 21/20/21 22/21/22
f 22/21/22 21/20/21 23/22/23
f 22/21/22 23/22/23 1/1/1
f 2/2/2 1/1/1 24/21/24
f 24/21/24 1/1/1 25/22/25
f 24/21/24 25/22/25 26/20/26
f 27/6/27 28/5/28 29/4/29
f 30/23/30 12/12/12 31/24/31
f 32/10/32 33/25/33 34/26/34
f 34/26/34 33/25/33 35/13/35
f 36/27/36 20/19/20 37/8/37
f 1/1/1 38/2/38 22/21/22
f 22/21/22 38/2/38 39/28/39
f 22/21/22 39/28/39 20/19/20
f 20/19/20 39/28/39 40/7/40
f 20/19/20 40/7/40 37/8/37
f 41/17/41 3/3/3 42/18/42
f 42/18/42 3/3/3 2/2/2
f 42/18/42 2/2/2 43/28/43
f 43/28/43 2/2/2 24/21/24
f 43/28/43 24/21/24 44/19/44
f 44/19/44 24/21/24 26/20/26
f 45/26/45 46/25/46 10/10/10
f 10/10/10 46/25/46 47/24/47
f 10/10/10 47/24/47 11/11/11
f 11/11/11 47/24/47 48/29/48
f 11/11/11 48/29/48 9/9/9
f 45/26/45 13/13/13 46/25/46
f 46/25/46 13/13/13 12/12/12
f 46/25/46 12/12/12 47/24/47
f 47/24/47 12/12/12 30/23/30
f 47/24/47 30/23/30 48/29/48
f 48/29/48 30/23/30 31/24/31
f 48/29/48 31/24/31 49/11/49
f 50/30/50 51/31/51 52/32/52
f 52/32/52 51/31/51 18/17/18
f 52/32/52 18/17/18 53/33/53
f 53/33/53 18/17/18 17/3/17
f 53/33/53 17/3/17 54/34/54
f 28/5/28 19/18/19 29/4/29
f 29/4/29 19/18/19 18/17/18
f 29/4/29 18/17/18 32/10/32
f 32/10/32 18/17/18 51/31/51
f 32/10/32 51/31/51 55/9/55
f 55/9/55 51/31/51 50/30/50
f 55/9/55 50/30/50 56/35/56
f 57/27/57 8/8/8 44/19/44
f 44/19/44 8/8/8 7/7/7
f 44/19/44 7/7/7 43/28/43
f 43/28/43 7/7/7 5/5/5
f 43/28/43 5/5/5 42/18/42
f 42/18/42 5/5/5 4/4/4
f 42/18/42 4/4/4 41/17/41
f 41/17/41 4/4/4 10/10/10
f 41/17/41 10/10/10 58/31/58
f 58/31/58 10/10/10 9/9/9
f 15/15/15 59/36/59 16/16/16
f 16/16/16 59/36/59 60/15/60
f 16/16/16 60/15/60 14/14/14
f 14/14/14 60/15/60 35/13/35
f 14/14/14 35/13/35 12/12/12
f 12/12/12 35/13/35 33/25/33
f 12/12/12 33/25/33 31/24/31
f 31/24/31 33/25/33 32/10/32
f 31/24/31 32/10/32 49/11/49
f 49/11/49 32/10/32 55/9/55
f 49/11/49 55/9/55 48/29/48
f 48/29/48 55/9/55 56/35/56
f 48/29/48 56/35/56 9/9/9
f 9/9/9 56/35/56 50/30/50
f 9/9/9 50/30/50 58/31/58
f 58/31/58 50/30/50 52/32/52
f 58/31/58 52/32/52 41/17/41
f 41/17/41 52/32/52 53/33/53
f 41/17/41 53/33/53 3/3/3
f 3/3/3 53/33/53 54/34/54
f 3/3/3 54/34/54 1/1/1
f 1/1/1 54/34/54 17/3/17
f 1/1/1 17/3/17 38/2/38
f 38/2/38 17/3/17 19/18/19
f 38/2/38 19/18/19 39/28/39
f 39/28/39 19/18/19 28/5/28
f 39/28/39 28/5/28 40/7/40
f 40/7/40 28/5/28 27/6/27
f 40/7/40 27/6/27 37/8/37
o editpl_f-0000-1836
v -5.354310 53.550858 7.727231
v -2.685091 53.576527 8.566302
v -3.952242 54.471661 8.470726
v -6.256394 54.336906 6.511411
v -6.325175 53.143394 6.733682
v -4.843745 49.655899 8.017294
v -4.245883 47.721256 7.527187
v -3.021058 48.497681 8.380706
v 1.505238 55.209583 9.439825
v 0.854467 53.910194 9.548738
v 1.732743 53.743359 8.810801
v 2.685091 53.576527 8.566302
v 5.354310 53.550858 7.727231
v 3.952242 54.471661 8.470726
v 6.240522 51.657921 6.853708
v 6.325175 53.143394 6.733682
v 5.214103 51.821548 8.053968
v 0.000000 53.923031 10.144423
v 0.000000 54.949707 10.076631
v 0.000000 56.050175 10.404479
v 6.155869 56.553890 7.416052
v 3.896689 58.142033 9.400928
v 3.896689 56.557098 9.526511
v 3.502523 50.060154 8.705221
v 3.021058 48.497681 8.380706
v 4.843745 49.655899 8.017294
v 4.245883 47.721256 7.527187
v 5.872810 49.248440 6.765911
v 8.986457 56.101509 -1.190263
v 7.796023 55.148624 0.346738
v 7.436247 49.758568 0.271166
v 9.700718 54.972164 -2.869516
v 7.542063 53.236439 -2.550558
v 8.986457 56.101509 -1.190263
v 7.796023 55.148624 0.346738
v 9.700718 54.972164 -2.869516
v 9.491730 52.739140 -2.903968
v 7.801314 49.745735 -1.209156
v -2.018448 52.193718 9.175323
v -3.653311 52.007633 8.741897
v -7.436247 49.758568 0.271166
v -7.801314 49.745735 -1.209156
v -7.542063 53.236439 -2.550558
v -0.928539 51.106083 10.966825
v -2.074001 50.451576 9.430934
v -3.502523 50.060154 8.705221
v -9.491730 52.739140 -2.903968
v -7.801314 49.745735 -1.209156
v -7.436247 49.758568 0.271166
v -3.687701 60.070259 9.057519
v -5.830483 59.617882 7.213786
v -3.896689 58.142033 9.400928
v 0.000000 58.260742 10.327795
v 0.000000 60.448849 9.706550
v -8.986457 56.101509 -1.190263
v -7.796023 55.148624 0.346738
v -6.155869 56.553890 7.416052
v -7.179642 58.392284 4.494306
v -7.092344 54.599995 5.173342
v -7.796023 55.148624 0.346738
v -7.224614 51.465420 4.807707
v -9.491730 52.739140 -2.903968
v -9.700718 54.972164 -2.869516
v -5.214103 51.821548 8.053968
v -6.240522 51.657921 6.853708
v 9.491730 52.739140 -2.903968
v 7.801314 49.745735 -1.209156
v 7.436247 49.758568 0.271166
v -9.700718 54.972164 -2.869516
v -8.986457 56.101509 -1.190263
v -7.796023 55.148624 0.346738
v 3.687701 60.070259 9.057519
v 5.830483 59.617882 7.213786
v 7.179642 58.392284 4.494306
v 7.092344 54.599995 5.173342
v 7.796023 55.148624 0.346738
v 7.224614 51.465420 4.807707
v 1.732743 53.743359 8.810801
v 2.629537 55.325085 8.833027
v 5.372827 55.257710 7.932831
v 6.256394 54.336906 6.511411
v 6.325175 53.143394 6.733682
v 2.018448 52.193718 9.175323
v 3.653311 52.007633 8.741897
v 5.214103 51.821548 8.053968
v 6.256394 54.336906 6.511411
v 5.372827 55.257710 7.932831
v 2.629537 55.325085 8.833027
v 0.000000 63.775925 8.289575
v 3.851717 63.461506 7.007073
v 6.388665 61.982449 4.224246
v 7.534127 59.544086 0.082236
v 7.542063 53.236439 -2.550558
v 2.018448 52.193718 9.175323
v 0.888858 52.546638 10.028842
v 0.000000 52.726307 10.575628
v -0.854467 53.910194 9.548738
v -1.505238 55.209583 9.439825
v -3.896689 56.557098 9.526511
v -5.372827 55.257710 7.932831
v -2.629537 55.325085 8.833027
v -1.732743 53.743359 8.810801
v -0.888858 52.546638 10.028842
v 0.000000 51.333878 11.436926
v -3.851717 63.461506 7.007073
v -6.388665 61.982449 4.224246
v -7.534127 59.544086 0.082236
v -7.542063 53.236439 -2.550558
v -5.872810 49.248440 6.765911
v 0.928539 51.106083 10.966825
v 2.074001 50.451576 9.430934
v 3.653311 52.007633 8.741897
vn -0.5509 0.0236 0.8342
vn -0.2589 0.0393 0.9651
vn -0.2975 -0.1174 0.9475
vn -0.8119 -0.0236 0.5833
vn -0.8173 0.0550 0.5736
vn -0.5688 -0.2291 0.7899
vn -0.5741 -0.4247 0.7000
vn -0.4345 -0.3318 0.8374
vn 0.4326 -0.3618 0.8258
vn 0.5671 0.0866 0.8191
vn 0.5028 0.0236 0.8641
vn 0.2589 0.0393 0.9651
vn 0.5509 0.0236 0.8342
vn 0.2975 -0.1174 0.9475
vn 0.8154 -0.0863 0.5724
vn 0.8173 0.0550 0.5736
vn 0.5975 -0.0079 0.8018
vn -0.0000 0.2037 0.9790
vn -0.0000 -0.1260 0.9920
vn -0.0000 -0.1720 0.9851
vn 0.8083 -0.0157 0.5886
vn 0.4656 0.1263 0.8759
vn 0.4397 -0.3376 0.8323
vn 0.4396 -0.1413 0.8870
vn 0.4345 -0.3318 0.8374
vn 0.5687 -0.2291 0.7900
vn 0.5741 -0.4247 0.7000
vn 0.8026 -0.3069 0.5115
vn 0.8645 -0.0865 0.4951
vn 0.9876 -0.0000 0.1568
vn 0.9203 -0.3775 0.1023
vn -0.3852 0.3223 -0.8647
vn -0.6635 0.1422 -0.7346
vn -0.6853 0.5671 -0.4569
vn -0.7954 0.5356 -0.2836
vn 0.8942 -0.0863 0.4393
vn 0.9035 -0.1885 0.3850
vn -0.2369 -0.6870 -0.6869
vn -0.5027 0.2592 0.8247
vn -0.3538 0.1180 0.9278
vn -0.9183 -0.3846 0.0941
vn 0.2368 -0.6870 -0.6870
vn 0.6635 0.1422 -0.7346
vn -0.6112 -0.1568 0.7758
vn -0.4173 -0.0787 0.9054
vn -0.4396 -0.1413 0.8870
vn -0.9035 -0.1885 0.3850
vn 0.2369 -0.6870 -0.6869
vn -0.9183 -0.3846 0.0942
vn -0.4165 0.3457 0.8408
vn -0.7870 0.2440 0.5666
vn -0.4656 0.1263 0.8759
vn -0.0000 0.1337 0.9910
vn -0.0000 0.3139 0.9495
vn 0.6853 0.5671 -0.4569
vn 0.7954 0.5356 -0.2836
vn -0.8083 -0.0157 0.5886
vn -0.9638 0.1097 0.2429
vn -0.9327 -0.0000 0.3606
vn -0.9876 -0.0000 0.1567
vn -0.9520 -0.0944 0.2911
vn 0.2115 -0.1645 -0.9634
vn 0.3852 0.3223 -0.8647
vn -0.5974 -0.0079 0.8019
vn -0.8154 -0.0863 0.5724
vn -0.2115 -0.1645 -0.9634
vn -0.2368 -0.6870 -0.6870
vn 0.9203 -0.3776 0.1022
vn -0.8942 -0.0863 0.4393
vn -0.8645 -0.0865 0.4951
vn -0.9876 -0.0000 0.1568
vn 0.4165 0.3457 0.8408
vn 0.7870 0.2440 0.5666
vn 0.9638 0.1097 0.2429
vn 0.9327 -0.0000 0.3606
vn 0.9876 -0.0000 0.1567
vn 0.9520 -0.0944 0.2911
vn 0.5027 0.0236 0.8641
vn 0.3157 -0.3236 0.8920
vn 0.5716 -0.1879 0.7987
vn 0.8119 -0.0236 0.5833
vn 0.8172 0.0550 0.5737
vn 0.5026 0.2592 0.8247
vn 0.3538 0.1180 0.9278
vn 0.5975 -0.0078 0.8019
vn 0.5717 -0.1879 0.7987
vn 0.3157 -0.3237 0.8919
vn -0.0000 0.4473 0.8944
vn 0.5951 0.4385 0.6735
vn 0.8999 0.2921 0.3237
vn 0.9935 0.1095 0.0313
vn 0.9919 0.0472 -0.1181
vn 0.5027 0.2592 0.8247
vn 0.5823 0.3698 0.7239
vn -0.0000 0.4091 0.9125
vn -0.5671 0.0866 0.8191
vn -0.4326 -0.3618 0.8258
vn -0.4397 -0.3376 0.8323
vn -0.5716 -0.1879 0.7987
vn -0.3157 -0.3237 0.8919
vn -0.5028 0.0236 0.8641
vn -0.5823 0.3698 0.7239
vn -0.0000 0.2518 0.9678
vn -0.5951 0.4386 0.6734
vn -0.8999 0.2921 0.3237
vn -0.9935 0.1095 0.0313
vn -0.9919 0.0472 -0.1181
vn -0.8026 -0.3069 0.5115
vn 0.6112 -0.1567 0.7758
vn 0.4173 -0.0787 0.9054
vn 0.3538 0.1179 0.9278
vt 0.223206 0.464172
vt 0.348633 0.460693
vt 0.303802 0.410553
vt 0.167389 0.422974
vt 0.170898 0.502777
vt 0.258759 0.681580
vt 0.290558 0.808929
vt 0.372131 0.808472
vt 0.410492 0.387756
vt 0.448853 0.433228
vt 0.401672 0.453766
vt 0.857361 0.125336
vt 0.731964 0.128845
vt 0.812561 0.075226
vt 0.178314 0.582886
vt 0.252838 0.570831
vt 0.495331 0.445343
vt 0.495331 0.406250
vt 0.495331 0.343750
vt 0.163483 0.297607
vt 0.327057 0.196869
vt 0.328033 0.300049
vt 0.324402 0.661255
vt 0.192078 0.709045
vt 0.978668 0.367188
vt 0.882812 0.453125
vt 0.851562 0.656250
vt 0.971710 0.695374
vt 0.947845 0.748047
vt 0.951477 0.686523
vt 0.932770 0.714844
vt 0.986481 0.398438
vt 0.986481 0.578125
vt 0.945312 0.648438
vt 0.387421 0.541290
vt 0.323944 0.555756
vt 0.939484 0.785919
vt 0.955017 0.783630
vt 0.457031 0.641388
vt 0.391235 0.648224
vt 0.342621 0.059357
vt 0.173157 0.090363
vt 0.495331 0.201721
vt 0.495331 0.059692
vt 0.082031 0.198242
vt 0.084656 0.386322
vt 0.032227 0.372345
vt 0.091431 0.591187
vt 0.975494 0.728973
vt 0.910431 0.118439
vt 0.858337 0.027710
vt 0.726898 0.032104
vt 0.676147 0.087646
vt 0.679626 0.167450
vt 0.896179 0.210815
vt 0.832703 0.222839
vt 0.761597 0.237915
vt 0.218140 0.367432
vt 0.349609 0.363037
vt 0.495331 0.011902
vt 0.242188 0.011902
vt 0.011658 0.011902
vt 0.011658 0.187500
vt 0.011658 0.585938
vt 0.464264 0.527893
vt 0.495331 0.500000
vt 0.495331 0.617188
s 1
usemtl f_face072
f 61/37/61 62/38/62 63/39/63
f 61/37/61 64/40/64 65/41/65
f 66/42/66 67/43/67 68/44/68
f 69/45/69 70/46/70 71/47/71
f 72/48/72 73/49/73 74/50/74
f 75/51/75 76/41/76 77/52/77
f 78/53/78 70/46/70 79/54/79
f 79/54/79 70/46/70 69/45/69
f 79/54/79 69/45/69 80/55/80
f 81/56/81 82/57/82 83/58/83
f 84/59/84 85/44/85 86/42/86
f 86/42/86 85/44/85 87/43/87
f 86/42/86 87/43/87 88/60/88
f 89/61/89 90/62/90 91/63/91
f 92/64/92 93/65/93 94/66/94
f 94/66/94 93/65/93 95/67/95
f 96/68/96 89/61/89 97/69/97
f 97/69/97 89/61/89 91/63/91
f 97/69/97 91/63/91 98/70/98
f 99/71/99 62/38/62 100/72/100
f 101/73/101 102/74/102 103/65/103
f 104/75/104 99/71/99 105/76/105
f 105/76/105 99/71/99 100/72/100
f 105/76/105 100/72/100 106/59/106
f 107/69/107 108/70/108 109/63/109
f 110/77/110 111/78/111 112/57/112
f 80/55/80 113/79/113 112/57/112
f 112/57/112 113/79/113 114/80/114
f 112/57/112 114/80/114 110/77/110
f 103/65/103 115/66/115 116/67/116
f 117/56/117 118/81/118 119/82/119
f 119/82/119 118/81/118 120/83/120
f 119/82/119 120/83/120 121/84/121
f 102/74/102 122/85/122 103/65/103
f 103/65/103 122/85/122 123/64/123
f 103/65/103 123/64/123 115/66/115
f 61/37/61 65/41/65 124/52/124
f 124/52/124 65/41/65 125/51/125
f 124/52/124 125/51/125 66/42/66
f 92/64/92 126/85/126 93/65/93
f 93/65/93 126/85/126 127/74/127
f 93/65/93 127/74/127 128/73/128
f 129/68/129 107/69/107 130/61/130
f 130/61/130 107/69/107 109/63/109
f 130/61/130 109/63/109 131/62/131
f 132/77/132 82/57/82 133/78/133
f 133/78/133 82/57/82 81/56/81
f 133/78/133 81/56/81 134/81/134
f 134/81/134 81/56/81 135/82/135
f 134/81/134 135/82/135 136/83/136
f 136/83/136 135/82/135 137/84/137
f 138/86/138 72/48/72 139/87/139
f 139/87/139 72/48/72 74/50/74
f 139/87/139 74/50/74 140/88/140
f 140/88/140 74/50/74 73/49/73
f 140/88/140 73/49/73 141/89/141
f 141/89/141 73/49/73 142/90/142
f 138/86/138 143/91/143 72/48/72
f 72/48/72 143/91/143 144/92/144
f 72/48/72 144/92/144 73/49/73
f 73/49/73 144/92/144 145/93/145
f 73/49/73 145/93/145 142/90/142
f 75/51/75 137/84/137 76/41/76
f 76/41/76 137/84/137 135/82/135
f 76/41/76 135/82/135 146/40/141
f 146/40/141 135/82/135 81/56/81
f 146/40/141 81/56/81 147/94/146
f 147/94/146 81/56/81 83/58/83
f 147/94/146 83/58/83 148/95/147
f 149/96/148 132/77/132 150/97/149
f 150/97/149 132/77/132 133/78/133
f 150/97/149 133/78/133 151/98/150
f 151/98/150 133/78/133 134/81/134
f 151/98/150 134/81/134 152/99/151
f 152/99/151 134/81/134 136/83/136
f 152/99/151 136/83/136 153/100/152
f 62/38/62 61/37/61 100/72/100
f 100/72/100 61/37/61 124/52/124
f 100/72/100 124/52/124 106/59/106
f 106/59/106 124/52/124 66/42/66
f 106/59/106 66/42/66 68/44/68
f 154/71/153 71/47/71 155/101/154
f 155/101/154 71/47/71 70/46/70
f 155/101/154 70/46/70 156/102/155
f 156/102/155 70/46/70 78/53/78
f 156/102/155 78/53/78 157/46/156
f 157/46/156 78/53/78 79/54/79
f 157/46/156 79/54/79 158/45/157
f 158/45/157 79/54/79 80/55/80
f 158/45/157 80/55/80 159/58/158
f 159/58/158 80/55/80 112/57/112
f 159/58/158 112/57/112 117/56/117
f 117/56/117 112/57/112 111/78/111
f 117/56/117 111/78/111 118/81/118
f 64/40/64 61/37/61 160/94/159
f 160/94/159 61/37/61 63/39/63
f 160/94/159 63/39/63 161/95/160
f 161/95/160 63/39/63 62/38/62
f 161/95/160 62/38/62 162/47/161
f 162/47/161 62/38/62 99/71/99
f 162/47/161 99/71/99 163/101/162
f 163/101/162 99/71/99 104/75/104
f 163/101/162 104/75/104 164/103/163
f 71/47/71 148/95/147 69/45/69
f 69/45/69 148/95/147 83/58/83
f 69/45/69 83/58/83 80/55/80
f 80/55/80 83/58/83 82/57/82
f 80/55/80 82/57/82 113/79/113
f 113/79/113 82/57/82 132/77/132
f 113/79/113 132/77/132 114/80/114
f 114/80/114 132/77/132 149/96/148
f 114/80/114 149/96/148 110/77/110
f 110/77/110 149/96/148 165/97/164
f 110/77/110 165/97/164 111/78/111
f 111/78/111 165/97/164 166/98/165
f 111/78/111 166/98/165 118/81/118
f 118/81/118 166/98/165 167/99/166
f 118/81/118 167/99/166 120/83/120
f 120/83/120 167/99/166 168/100/167
f 67/43/67 66/42/66 169/60/168
f 169/60/168 66/42/66 125/51/125
f 169/60/168 125/51/125 121/84/121
f 121/84/121 125/51/125 65/41/65
f 121/84/121 65/41/65 119/82/119
f 119/82/119 65/41/65 64/40/64
f 119/82/119 64/40/64 117/56/117
f 117/56/117 64/40/64 160/94/159
f 117/56/117 160/94/159 159/58/158
f 159/58/158 160/94/159 161/95/160
f 159/58/158 161/95/160 158/45/157
f 158/45/157 161/95/160 162/47/161
f 158/45/157 162/47/161 157/46/156
f 157/46/156 162/47/161 163/101/162
f 157/46/156 163/101/162 156/102/155
f 156/102/155 163/101/162 164/103/163
f 156/102/155 164/103/163 155/101/154
f 155/101/154 164/103/163 170/75/169
f 155/101/154 170/75/169 154/71/153
f 154/71/153 170/75/169 171/76/170
f 154/71/153 171/76/170 172/72/171
f 172/72/171 171/76/170 84/59/84
f 172/72/171 84/59/84 77/52/77
f 77/52/77 84/59/84 86/42/86
f 77/52/77 86/42/86 75/51/75
f 75/51/75 86/42/86 88/60/88
f 75/51/75 88/60/88 137/84/137
