mtllib f_face016.mtl
o editpl_f-0000-1865
v 1.230116 44.082966 7.276022
v 0.000000 44.830517 8.604088
v 0.000000 44.108631 7.802804
v 4.391380 47.823921 7.538301
v 5.457480 47.201500 5.320042
v 5.814611 49.232395 6.903718
v 6.766958 48.821724 4.112001
v 7.224614 51.529587 4.807707
v 1.497302 47.788631 9.168655
v 2.973441 48.282719 8.430717
v 1.320060 48.224968 9.080858
v 0.000000 48.831348 10.012172
v 2.074001 50.551037 9.499838
v 0.000000 50.034489 9.925487
v 0.928539 51.170250 10.966825
v 0.000000 50.788452 11.210210
v 0.000000 48.645264 9.979943
v -1.343868 48.651680 9.687657
v 0.000000 43.765339 3.210695
v -1.230116 44.082966 7.276022
v -3.349089 45.183437 5.165564
v -1.624282 44.811268 7.957282
v -3.573949 45.985527 6.343598
v 0.000000 47.198292 9.608751
v -1.841205 47.175831 9.070856
v 0.000000 46.149155 8.796352
v -2.383514 46.425076 8.118427
v -2.973441 48.282719 8.430717
v -1.481430 48.844185 9.708774
v -3.528977 50.220573 8.901931
v -2.074001 50.551037 9.499838
v 7.542063 53.236439 -2.550558
v 7.436247 49.758568 0.271166
v 5.589751 46.511700 1.034666
v 5.677050 46.765160 2.691692
v 3.349089 45.183437 5.165564
v 3.573949 45.985527 6.343598
v 1.624282 44.811268 7.957282
v 2.383514 46.425076 8.118427
v 3.528977 50.220573 8.901931
v 1.481430 48.844185 9.708774
v 1.343868 48.651680 9.687657
v 0.000000 48.103050 9.532067
v -1.320060 48.224968 9.080858
v -5.457480 47.201500 5.320042
v -6.766958 48.821724 4.112001
v -5.677050 46.765160 2.691692
v -7.436247 49.758568 0.271166
v -5.526261 46.511700 1.034666
v -7.542063 53.236439 -2.550558
v -3.822617 46.380157 0.512330
v -4.391380 47.823921 7.538301
v -1.497302 47.788631 9.168655
v 0.000000 47.756546 9.675432
v 1.841205 47.175831 9.070856
v 7.796023 55.148624 0.346738
v -7.796023 55.148624 0.346738
v -7.224614 51.529587 4.807707
v -5.814611 49.232395 6.903718
v 0.000000 51.398045 11.436926
v -0.928539 51.170250 10.966825
v 3.822617 46.380157 0.512330
vn 0.3448 -0.8699 0.3527
vn -0.0000 -0.5029 0.8643
vn -0.0000 -0.9224 0.3863
vn 0.5900 -0.4641 0.6607
vn 0.7394 -0.5821 0.3382
vn 0.8129 -0.3157 0.4893
vn 0.9007 -0.3838 0.2036
vn 0.9556 -0.0862 0.2819
vn 0.3287 0.1566 0.9314
vn 0.4621 -0.2898 0.8381
vn 0.3462 -0.2990 0.8892
vn -0.0000 -0.0707 0.9975
vn 0.3927 -0.0393 0.9188
vn -0.0000 -0.5886 0.8084
vn 0.6139 -0.2282 0.7556
vn -0.0000 -0.6371 0.7708
vn -0.0000 -0.4156 0.9096
vn -0.2751 -0.5423 0.7939
vn -0.0000 -0.9888 -0.1491
vn -0.3448 -0.8699 0.3527
vn -0.6033 -0.7835 0.1488
vn -0.5668 -0.5746 0.5904
vn -0.6706 -0.6233 0.4024
vn -0.0000 -0.2518 0.9678
vn -0.4012 -0.3225 0.8574
vn -0.0000 -0.5029 0.8644
vn -0.4954 -0.4010 0.7706
vn -0.4621 -0.2898 0.8381
vn -0.3703 -0.2048 0.9060
vn -0.4323 -0.1022 0.8959
vn -0.3926 -0.0393 0.9188
vn 0.4647 -0.5199 -0.7168
vn 0.9203 -0.3776 0.1022
vn 0.5667 -0.7476 -0.3463
vn 0.7685 -0.6274 0.1255
vn 0.6070 -0.7804 0.1498
vn 0.6706 -0.6233 0.4024
vn 0.5668 -0.5746 0.5904
vn 0.4954 -0.4010 0.7706
vn 0.4323 -0.1022 0.8959
vn 0.3703 -0.2048 0.9061
vn 0.2751 -0.5423 0.7939
vn -0.0000 -0.2351 0.9720
vn -0.3462 -0.2990 0.8892
vn -0.7394 -0.5821 0.3382
vn -0.9007 -0.3838 0.2036
vn -0.7622 -0.6365 0.1179
vn -0.9203 -0.3776 0.1022
vn -0.5564 -0.7523 -0.3527
vn -0.4647 -0.5199 -0.7168
vn -0.2604 -0.6944 -0.6708
vn -0.5900 -0.4641 0.6607
vn -0.3287 0.1565 0.9314
vn -0.0000 0.1337 0.9910
vn 0.4012 -0.3225 0.8574
vn 0.9876 -0.0000 0.1567
vn -0.9876 -0.0000 0.1567
vn -0.9556 -0.0862 0.2820
vn -0.8129 -0.3157 0.4893
vn -0.0000 0.1260 0.9920
vn -0.6140 -0.2282 0.7556
vn 0.2517 -0.6922 -0.6764
vt 0.426331 0.970428
vt 0.500000 0.945312
vt 0.500000 0.981415
vt 0.290558 0.808929
vt 0.213379 0.830658
vt 0.192078 0.709045
vt 0.129028 0.746582
vt 0.091431 0.591187
vt 0.434448 0.822632
vt 0.372131 0.808472
vt 0.439209 0.801453
vt 0.500000 0.760376
vt 0.391235 0.648224
vt 0.500000 0.703125
vt 0.457031 0.641388
vt 0.500000 0.664062
vt 0.500000 0.768616
vt 0.446960 0.769196
vt 0.500000 0.987213
vt 0.265991 0.950989
vt 0.405243 0.946045
vt 0.277557 0.889954
vt 0.500000 0.854828
vt 0.424164 0.854736
vt 0.500000 0.919281
vt 0.396912 0.907532
vt 0.444580 0.762299
vt 0.324402 0.661255
vt 0.011993 0.585938
vt 0.050781 0.644531
vt 0.047852 0.952118
vt 0.140625 0.875000
vt 0.500000 0.804779
vt 0.011383 0.985779
vt 0.500000 0.823547
vt 0.032227 0.372345
vt 0.500000 0.617188
s 1
usemtl f_face087
f 1/1/1 2/2/2 3/3/3
f 4/4/4 5/5/5 6/6/6
f 6/6/6 5/5/5 7/7/7
f 6/6/6 7/7/7 8/8/8
f 9/9/9 10/10/10 11/11/11
f 12/12/12 13/13/13 14/14/14
f 14/14/14 13/13/13 15/15/15
f 14/14/14 15/15/15 16/16/16
f 17/17/17 12/12/12 18/18/18
f 19/19/19 20/1/20 21/20/21
f 21/20/21 20/1/20 22/21/22
f 21/20/21 22/21/22 23/22/23
f 24/23/24 25/24/25 26/25/26
f 26/25/26 25/24/25 27/26/27
f 26/25/26 27/26/27 2/2/2
f 28/10/28 29/27/29 30/28/30
f 30/28/30 29/27/29 31/13/31
f 32/29/32 33/30/33 34/31/34
f 34/31/34 33/30/33 35/32/35
f 34/31/34 35/32/35 36/20/36
f 36/20/36 35/32/35 37/22/37
f 36/20/36 37/22/37 38/21/38
f 38/21/38 37/22/37 39/26/39
f 40/28/40 41/27/41 10/10/10
f 10/10/10 41/27/41 42/18/42
f 10/10/10 42/18/42 11/11/11
f 11/11/11 42/18/42 43/33/43
f 11/11/11 43/33/43 9/9/9
f 40/28/40 13/13/13 41/27/41
f 41/27/41 13/13/13 12/12/12
f 41/27/41 12/12/12 42/18/42
f 42/18/42 12/12/12 17/17/17
f 42/18/42 17/17/17 43/33/43
f 43/33/43 17/17/17 18/18/18
f 43/33/43 18/18/18 44/11/44
f 45/5/45 46/7/46 47/32/47
f 47/32/47 46/7/46 48/30/48
f 47/32/47 48/30/48 49/31/49
f 49/31/49 48/30/48 50/29/50
f 49/31/49 50/29/50 51/34/51
f 51/34/51 19/19/19 49/31/49
f 49/31/49 19/19/19 21/20/21
f 49/31/49 21/20/21 47/32/47
f 47/32/47 21/20/21 23/22/23
f 47/32/47 23/22/23 45/5/45
f 52/4/52 27/26/27 28/10/28
f 28/10/28 27/26/27 25/24/25
f 28/10/28 25/24/25 53/9/53
f 53/9/53 25/24/25 24/23/24
f 53/9/53 24/23/24 54/35/54
f 9/9/9 55/24/55 10/10/10
f 10/10/10 55/24/55 39/26/39
f 10/10/10 39/26/39 4/4/4
f 4/4/4 39/26/39 37/22/37
f 4/4/4 37/22/37 5/5/5
f 5/5/5 37/22/37 35/32/35
f 5/5/5 35/32/35 7/7/7
f 7/7/7 35/32/35 33/30/33
f 7/7/7 33/30/33 8/8/8
f 8/8/8 33/30/33 56/36/56
f 57/36/57 48/30/48 58/8/58
f 58/8/58 48/30/48 46/7/46
f 58/8/58 46/7/46 59/6/59
f 59/6/59 46/7/46 45/5/45
f 59/6/59 45/5/45 52/4/52
f 52/4/52 45/5/45 23/22/23
f 52/4/52 23/22/23 27/26/27
f 27/26/27 23/22/23 22/21/22
f 27/26/27 22/21/22 2/2/2
f 2/2/2 22/21/22 20/1/20
f 2/2/2 20/1/20 3/3/3
f 3/3/3 20/1/20 19/19/19
f 3/3/3 19/19/19 1/1/1
f 15/15/15 60/37/60 16/16/16
f 16/16/16 60/37/60 61/15/61
f 16/16/16 61/15/61 14/14/14
f 14/14/14 61/15/61 31/13/31
f 14/14/14 31/13/31 12/12/12
f 12/12/12 31/13/31 29/27/29
f 12/12/12 29/27/29 18/18/18
f 18/18/18 29/27/29 28/10/28
f 18/18/18 28/10/28 44/11/44
f 44/11/44 28/10/28 53/9/53
f 44/11/44 53/9/53 43/33/43
f 43/33/43 53/9/53 54/35/54
f 43/33/43 54/35/54 9/9/9
f 9/9/9 54/35/54 24/23/24
f 9/9/9 24/23/24 55/24/55
f 55/24/55 24/23/24 26/25/26
f 55/24/55 26/25/26 39/26/39
f 39/26/39 26/25/26 2/2/2
f 39/26/39 2/2/2 38/21/38
f 38/21/38 2/2/2 1/1/1
f 38/21/38 1/1/1 36/20/36
f 36/20/36 1/1/1 19/19/19
f 36/20/36 19/19/19 34/31/34
f 34/31/34 19/19/19 62/34/62
f 34/31/34 62/34/62 32/29/32
o editpl_f-0000-1866
v 1.732743 53.913403 8.778570
v 0.888858 52.918812 10.353357
v 2.018448 52.289970 9.175323
v -6.272267 51.632256 6.884825
v -7.224614 51.529587 4.807707
v -5.814611 49.232395 6.903718
v -7.796023 55.148624 0.346738
v -7.534127 59.544086 0.082236
v -7.542063 53.236439 -2.550558
v 0.000000 56.399887 10.373362
v 0.000000 55.289791 10.044401
v 1.505238 55.273750 9.408708
v 2.685091 53.682400 8.535184
v 5.354310 53.656734 7.659438
v 3.952242 54.535828 8.457389
v 6.272267 51.632256 6.884825
v 6.325175 53.207561 6.701452
v 5.195585 51.885715 8.091754
v 6.155869 56.618057 7.384933
v 3.896689 58.283199 9.369809
v 3.896689 56.621265 9.494281
v 3.528977 50.220573 8.901931
v 2.973441 48.282719 8.430717
v 4.854327 49.726482 8.150656
v 4.391380 47.823921 7.538301
v 5.814611 49.232395 6.903718
v 8.986457 56.101509 -1.190263
v 7.796023 55.148624 0.346738
v 7.436247 49.758568 0.271166
v 9.700718 54.972164 -2.869516
v 7.542063 53.236439 -2.550558
v 8.986457 56.101509 -1.190263
v 7.796023 55.148624 0.346738
v 0.000000 53.079227 10.720103
v 0.000000 54.462036 9.997725
v 0.854467 54.365784 9.553184
v 9.700718 54.972164 -2.869516
v 9.491730 52.739140 -2.903968
v 7.801314 49.745735 -1.209156
v -2.629537 55.386044 8.838583
v -1.505238 55.273750 9.408708
v -3.896689 56.621265 9.494281
v -7.436247 49.758568 0.271166
v -7.801314 49.745735 -1.209156
v -7.542063 53.236439 -2.550558
v -9.491730 52.739140 -2.903968
v -7.801314 49.745735 -1.209156
v -7.436247 49.758568 0.271166
v -3.952242 54.535828 8.457389
v -5.372827 55.318668 7.938388
v -6.155869 56.618057 7.384933
v -3.687701 60.070259 9.057519
v -5.830483 59.617882 7.213786
v -3.896689 58.283199 9.369809
v 0.000000 58.398701 10.296678
v 0.000000 60.448849 9.706550
v -4.391380 47.823921 7.538301
v -4.854327 49.726482 8.150656
v -2.973441 48.282719 8.430717
v -3.528977 50.220573 8.901931
v -8.986457 56.101509 -1.190263
v -7.796023 55.148624 0.346738
v -9.491730 52.739140 -2.903968
v -9.700718 54.972164 -2.869516
v -5.354310 53.656734 7.659438
v -6.256394 54.397865 6.480293
v -6.325175 53.207561 6.701452
v -7.092344 54.660954 5.142225
v 9.491730 52.739140 -2.903968
v 7.801314 49.745735 -1.209156
v 7.436247 49.758568 0.271166
v -9.700718 54.972164 -2.869516
v -8.986457 56.101509 -1.190263
v -7.796023 55.148624 0.346738
v 3.687701 60.070259 9.057519
v 5.830483 59.617882 7.213786
v 7.179642 58.392284 4.494306
v 7.092344 54.660954 5.142225
v 7.796023 55.148624 0.346738
v 7.224614 51.529587 4.807707
v 1.732743 53.913403 8.778570
v 2.629537 55.386044 8.838583
v 5.372827 55.318668 7.938388
v 6.256394 54.397865 6.480293
v 6.325175 53.207561 6.701452
v 2.018448 52.289970 9.175323
v 3.595112 52.100677 8.743008
v 5.195585 51.885715 8.091754
v 6.256394 54.397865 6.480293
v 5.372827 55.318668 7.938388
v 2.629537 55.386044 8.838583
v 0.000000 63.775925 8.289575
v 3.851717 63.461506 7.007073
v 6.388665 61.982449 4.224246
v 7.534127 59.544086 0.082236
v 7.542063 53.236439 -2.550558
v 0.000000 51.398045 11.436926
v -0.888858 52.918812 10.353357
v -0.928539 51.170250 10.966825
v -2.018448 52.289970 9.175323
v -2.074001 50.551037 9.499838
v -3.595112 52.100677 8.743008
v -5.195585 51.885715 8.091754
v -7.179642 58.392284 4.494306
v -2.685091 53.682400 8.535184
v -1.732743 53.913403 8.778570
v -0.854467 54.365784 9.553184
v -6.388665 61.982449 4.224246
v -3.851717 63.461506 7.007073
v 0.928539 51.170250 10.966825
v 2.074001 50.551037 9.499838
v 3.595112 52.100677 8.743008
vn 0.5363 0.0236 0.8437
vn 0.5805 0.3452 0.7374
vn 0.5578 0.2435 0.7934
vn -0.8205 -0.0631 0.5681
vn -0.9555 -0.0862 0.2820
vn -0.8129 -0.3157 0.4894
vn -0.9876 -0.0000 0.1567
vn -0.9935 0.1095 0.0313
vn -0.9919 0.0472 -0.1181
vn -0.0000 -0.1568 0.9876
vn -0.0000 -0.1644 0.9864
vn 0.4105 -0.3236 0.8525
vn 0.2664 0.0235 0.9636
vn 0.5510 0.0157 0.8343
vn 0.2985 -0.1493 0.9427
vn 0.8205 -0.0631 0.5681
vn 0.8160 0.0785 0.5727
vn 0.5882 0.0392 0.8078
vn 0.8083 -0.0157 0.5885
vn 0.4722 0.1181 0.8736
vn 0.4338 -0.3155 0.8440
vn 0.4323 -0.1022 0.8959
vn 0.4621 -0.2898 0.8381
vn 0.5829 -0.2284 0.7798
vn 0.5899 -0.4641 0.6608
vn 0.8129 -0.3157 0.4894
vn 0.8645 -0.0865 0.4951
vn 0.9876 -0.0000 0.1568
vn 0.9203 -0.3775 0.1023
vn -0.3852 0.3223 -0.8647
vn -0.6635 0.1422 -0.7346
vn -0.6853 0.5671 -0.4569
vn -0.7954 0.5356 -0.2836
vn -0.0000 0.4250 0.9052
vn -0.0000 0.1810 0.9835
vn 0.5724 0.0863 0.8154
vn 0.8942 -0.0863 0.4393
vn 0.9035 -0.1885 0.3850
vn -0.2369 -0.6870 -0.6869
vn -0.3070 -0.3385 0.8895
vn -0.4105 -0.3236 0.8525
vn -0.4338 -0.3155 0.8440
vn -0.9203 -0.3776 0.1022
vn 0.2368 -0.6870 -0.6870
vn 0.6635 0.1422 -0.7346
vn -0.9035 -0.1885 0.3850
vn 0.2369 -0.6870 -0.6869
vn -0.9203 -0.3776 0.1023
vn -0.2985 -0.1493 0.9427
vn -0.5744 -0.1967 0.7946
vn -0.8083 -0.0157 0.5885
vn -0.4165 0.3457 0.8408
vn -0.7870 0.2440 0.5666
vn -0.4722 0.1181 0.8736
vn -0.0000 0.1337 0.9910
vn -0.0000 0.3139 0.9495
vn -0.5899 -0.4641 0.6608
vn -0.5829 -0.2284 0.7798
vn -0.4621 -0.2898 0.8381
vn -0.4323 -0.1022 0.8959
vn 0.6853 0.5671 -0.4569
vn 0.7954 0.5356 -0.2836
vn 0.2115 -0.1645 -0.9634
vn 0.3852 0.3223 -0.8647
vn -0.5510 0.0157 0.8343
vn -0.8117 -0.0315 0.5832
vn -0.8160 0.0785 0.5727
vn -0.9327 -0.0000 0.3606
vn -0.2115 -0.1645 -0.9634
vn -0.2368 -0.6870 -0.6870
vn 0.9203 -0.3776 0.1022
vn -0.8942 -0.0863 0.4393
vn -0.8645 -0.0865 0.4951
vn -0.9876 -0.0000 0.1568
vn 0.4165 0.3458 0.8408
vn 0.7870 0.2440 0.5666
vn 0.9638 0.1097 0.2429
vn 0.9327 -0.0000 0.3606
vn 0.9876 -0.0000 0.1567
vn 0.9555 -0.0862 0.2820
vn 0.5362 0.0237 0.8438
vn 0.3070 -0.3385 0.8895
vn 0.5743 -0.1967 0.7946
vn 0.8117 -0.0315 0.5832
vn 0.8159 0.0785 0.5728
vn 0.5578 0.2435 0.7935
vn 0.3368 0.1802 0.9242
vn 0.5744 -0.1967 0.7946
vn -0.0000 0.4472 0.8944
vn 0.5951 0.4385 0.6735
vn 0.8999 0.2921 0.3237
vn 0.9935 0.1095 0.0313
vn 0.9919 0.0472 -0.1181
vn -0.0000 0.1260 0.9920
vn -0.5805 0.3452 0.7374
vn -0.6139 -0.2282 0.7556
vn -0.5577 0.2435 0.7935
vn -0.3927 -0.0393 0.9188
vn -0.3368 0.1801 0.9242
vn -0.5882 0.0392 0.8078
vn -0.9638 0.1097 0.2429
vn -0.2664 0.0235 0.9636
vn -0.5362 0.0237 0.8437
vn -0.5724 0.0862 0.8155
vn -0.8999 0.2921 0.3237
vn -0.5951 0.4386 0.6734
vn 0.6140 -0.2282 0.7556
vn 0.3927 -0.0393 0.9188
vn 0.3368 0.1801 0.9242
vt 0.401672 0.453766
vt 0.464264 0.527893
vt 0.387421 0.541290
vt 0.178314 0.582886
vt 0.091431 0.591187
vt 0.192078 0.709045
vt 0.032227 0.372345
vt 0.012421 0.187500
vt 0.012421 0.585938
vt 0.493561 0.343750
vt 0.493561 0.375000
vt 0.410492 0.387756
vt 0.857361 0.125336
vt 0.731964 0.128845
vt 0.812561 0.075226
vt 0.170898 0.502777
vt 0.252838 0.570831
vt 0.163483 0.297607
vt 0.327057 0.196869
vt 0.328033 0.300049
vt 0.324402 0.661255
vt 0.372131 0.808472
vt 0.258759 0.681580
vt 0.290558 0.808929
vt 0.978027 0.367188
vt 0.882812 0.453125
vt 0.851562 0.656250
vt 0.971710 0.695374
vt 0.947845 0.748047
vt 0.951477 0.686523
vt 0.932770 0.714844
vt 0.493561 0.500000
vt 0.493561 0.406250
vt 0.448853 0.433228
vt 0.985840 0.398438
vt 0.985840 0.578125
vt 0.945312 0.648438
vt 0.349609 0.363037
vt 0.939484 0.785919
vt 0.955017 0.783630
vt 0.303802 0.410553
vt 0.218140 0.367432
vt 0.342621 0.059357
vt 0.173157 0.090363
vt 0.493561 0.201721
vt 0.493561 0.059692
vt 0.975494 0.728973
vt 0.223206 0.464172
vt 0.167389 0.422974
vt 0.084656 0.386322
vt 0.082031 0.198242
vt 0.910431 0.118439
vt 0.858337 0.027710
vt 0.726898 0.032104
vt 0.676147 0.087646
vt 0.679626 0.167450
vt 0.896179 0.210815
vt 0.832703 0.222839
vt 0.761597 0.237915
vt 0.493561 0.012817
vt 0.242188 0.012817
vt 0.012421 0.012817
vt 0.493561 0.617188
vt 0.457031 0.641388
vt 0.391235 0.648224
vt 0.323944 0.555756
vt 0.348633 0.460693
s 1
usemtl f_face087
f 63/38/63 64/39/64 65/40/65
f 66/41/66 67/42/67 68/43/68
f 69/44/69 70/45/70 71/46/71
f 72/47/72 73/48/73 74/49/74
f 75/50/75 76/51/76 77/52/77
f 78/41/78 79/53/79 80/54/80
f 81/55/81 82/56/82 83/57/83
f 84/58/84 85/59/85 86/60/86
f 86/60/86 85/59/85 87/61/87
f 86/60/86 87/61/87 88/43/88
f 89/62/89 90/63/90 91/64/91
f 92/65/92 93/66/93 94/67/94
f 94/67/94 93/66/93 95/68/95
f 96/69/96 64/39/64 97/70/97
f 97/70/97 64/39/64 98/71/98
f 99/72/99 89/62/89 100/73/100
f 100/73/100 89/62/89 91/64/91
f 100/73/100 91/64/91 101/74/101
f 102/75/102 103/49/103 104/57/104
f 105/76/105 106/77/106 107/66/107
f 108/73/108 109/74/109 110/64/110
f 111/78/111 102/75/102 112/79/112
f 112/79/112 102/75/102 104/57/104
f 112/79/112 104/57/104 113/55/113
f 114/80/114 115/81/115 116/56/116
f 72/47/72 117/82/117 116/56/116
f 116/56/116 117/82/117 118/83/118
f 116/56/116 118/83/118 114/80/114
f 68/43/68 119/61/119 120/60/120
f 120/60/120 119/61/119 121/59/121
f 120/60/120 121/59/121 122/58/122
f 107/66/107 123/67/123 124/68/124
f 106/77/106 125/84/125 107/66/107
f 107/66/107 125/84/125 126/65/126
f 107/66/107 126/65/126 123/67/123
f 127/85/127 128/86/128 129/53/129
f 129/53/129 128/86/128 130/87/130
f 129/53/129 130/87/130 67/42/67
f 67/42/67 130/87/130 69/44/69
f 92/65/92 131/84/131 93/66/93
f 93/66/93 131/84/131 132/77/132
f 93/66/93 132/77/132 133/76/133
f 134/72/134 108/73/108 135/62/135
f 135/62/135 108/73/108 110/64/110
f 135/62/135 110/64/110 136/63/136
f 137/80/137 82/56/82 138/81/138
f 138/81/138 82/56/82 81/55/81
f 138/81/138 81/55/81 139/88/139
f 139/88/139 81/55/81 140/87/140
f 139/88/139 140/87/140 141/44/141
f 141/44/141 140/87/140 142/42/142
f 143/89/143 75/50/75 144/90/144
f 144/90/144 75/50/75 77/52/77
f 144/90/144 77/52/77 145/91/145
f 145/91/145 77/52/77 76/51/76
f 145/91/145 76/51/76 146/92/146
f 146/92/146 76/51/76 147/93/147
f 143/89/143 148/94/148 75/50/75
f 75/50/75 148/94/148 149/95/149
f 75/50/75 149/95/149 76/51/76
f 76/51/76 149/95/149 150/96/80
f 76/51/76 150/96/80 147/93/147
f 78/41/78 142/42/142 79/53/79
f 79/53/79 142/42/142 140/87/140
f 79/53/79 140/87/140 151/86/146
f 151/86/146 140/87/140 81/55/81
f 151/86/146 81/55/81 152/79/150
f 152/79/150 81/55/81 83/57/83
f 152/79/150 83/57/83 153/75/144
f 154/97/151 137/80/137 155/98/152
f 155/98/152 137/80/137 138/81/138
f 155/98/152 138/81/138 156/99/153
f 156/99/153 138/81/138 139/88/139
f 156/99/153 139/88/139 157/45/154
f 157/45/154 139/88/139 141/44/141
f 157/45/154 141/44/141 158/46/155
f 159/100/156 160/39/157 161/101/158
f 161/101/158 160/39/157 162/40/159
f 161/101/158 162/40/159 163/102/160
f 163/102/160 162/40/159 164/103/161
f 163/102/160 164/103/161 122/58/122
f 122/58/122 164/103/161 165/54/162
f 122/58/122 165/54/162 120/60/120
f 120/60/120 165/54/162 66/41/66
f 120/60/120 66/41/66 68/43/68
f 64/39/64 63/38/63 98/71/98
f 98/71/98 63/38/63 74/49/74
f 98/71/98 74/49/74 97/70/97
f 97/70/97 74/49/74 73/48/73
f 97/70/97 73/48/73 103/49/103
f 103/49/103 73/48/73 72/47/72
f 103/49/103 72/47/72 104/57/104
f 104/57/104 72/47/72 116/56/116
f 104/57/104 116/56/116 113/55/113
f 113/55/113 116/56/116 115/81/115
f 113/55/113 115/81/115 166/88/163
f 67/42/67 66/41/66 129/53/129
f 129/53/129 66/41/66 165/54/162
f 129/53/129 165/54/162 127/85/127
f 127/85/127 165/54/162 164/103/161
f 127/85/127 164/103/161 167/104/164
f 167/104/164 164/103/161 162/40/159
f 167/104/164 162/40/159 168/38/165
f 168/38/165 162/40/159 160/39/157
f 168/38/165 160/39/157 169/71/166
f 70/45/70 166/88/163 170/99/167
f 170/99/167 166/88/163 115/81/115
f 170/99/167 115/81/115 171/98/168
f 171/98/168 115/81/115 114/80/114
f 171/98/168 114/80/114 154/97/151
f 154/97/151 114/80/114 118/83/118
f 154/97/151 118/83/118 137/80/137
f 137/80/137 118/83/118 117/82/117
f 137/80/137 117/82/117 82/56/82
f 82/56/82 117/82/117 72/47/72
f 82/56/82 72/47/72 83/57/83
f 83/57/83 72/47/72 74/49/74
f 83/57/83 74/49/74 153/75/144
f 153/75/144 74/49/74 63/38/63
f 70/45/70 69/44/69 166/88/163
f 166/88/163 69/44/69 130/87/130
f 166/88/163 130/87/130 113/55/113
f 113/55/113 130/87/130 128/86/128
f 113/55/113 128/86/128 112/79/112
f 112/79/112 128/86/128 127/85/127
f 112/79/112 127/85/127 111/78/111
f 111/78/111 127/85/127 167/104/164
f 111/78/111 167/104/164 102/75/102
f 102/75/102 167/104/164 168/38/165
f 102/75/102 168/38/165 103/49/103
f 103/49/103 168/38/165 169/71/166
f 103/49/103 169/71/166 97/70/97
f 97/70/97 169/71/166 160/39/157
f 97/70/97 160/39/157 96/69/96
f 96/69/96 160/39/157 159/100/156
f 96/69/96 159/100/156 64/39/64
f 64/39/64 159/100/156 172/101/169
f 64/39/64 172/101/169 65/40/65
f 65/40/65 172/101/169 173/102/170
f 65/40/65 173/102/170 174/103/171
f 174/103/171 173/102/170 84/58/84
f 174/103/171 84/58/84 80/54/80
f 80/54/80 84/58/84 86/60/86
f 80/54/80 86/60/86 78/41/78
f 78/41/78 86/60/86 88/43/88
f 78/41/78 88/43/88 142/42/142
