mtllib f_face018.mtl
o editpl_f-0000-1869
v -6.192904 46.396198 0.762384
v 0.000000 43.765339 3.215140
v -5.621496 45.805859 2.766153
v 6.192904 46.396198 0.762384
v 7.134670 49.758568 0.271166
v 5.621496 45.805859 2.766153
v 6.333111 47.955467 3.178464
v 6.269621 52.129551 6.881491
v 5.505098 49.787441 7.155996
v -6.333111 47.955467 3.178464
v -5.534197 46.591911 5.268919
v -5.505098 49.787441 7.155996
v 1.531692 49.238811 10.137755
v 2.092519 50.842995 9.474277
v 0.000000 50.400242 10.355580
v -3.870235 46.556618 0.512330
v -1.531692 49.238811 10.137755
v -2.478749 49.649483 9.363142
v -2.698318 48.510513 8.867479
v -7.743115 55.148624 0.346738
v -7.134670 49.758568 0.271166
v -7.129380 52.601181 4.651007
v -6.269621 52.129551 6.881491
v 0.000000 47.679546 10.125530
v 1.822687 47.775799 9.617642
v 0.000000 48.539391 9.864362
v 2.698318 48.510513 8.867479
v 1.251279 48.584305 9.678766
v 7.542063 53.236439 -2.550558
v 7.129380 52.601181 4.651007
v 4.065995 50.567078 8.542964
v 2.478749 49.649483 9.363142
v 2.185109 44.285095 7.672776
v 1.428521 45.039059 8.876369
v 1.462912 44.076550 8.061749
v 0.000000 46.376949 9.396482
v -2.404678 46.749119 8.651876
v 0.000000 45.173813 9.250896
v -1.428521 45.039059 8.876369
v 0.000000 44.333218 8.717446
v -1.462912 44.076550 8.061749
v 0.000000 43.871216 7.980619
v -7.542063 53.236439 -2.550558
v 2.404678 46.749119 8.651876
v 3.103066 45.449730 7.322699
v 3.870235 46.556618 0.512330
v 0.000000 49.216354 10.448934
v -1.251279 48.584305 9.678766
v -1.822687 47.775799 9.617642
v 0.000000 47.169415 9.849915
v -2.185109 44.285095 7.672776
v -3.103066 45.449730 7.322699
v -4.314663 47.666714 7.968394
v -4.065995 50.567078 8.542964
v 4.314663 47.666714 7.968394
v 5.542134 46.591911 5.268919
v 7.743115 55.148624 0.346738
v -2.092519 50.842995 9.474277
vn -0.5839 -0.6706 -0.4576
vn -0.0000 -0.9806 -0.1961
vn -0.7615 -0.6359 0.1256
vn 0.5839 -0.6706 -0.4576
vn 0.9453 -0.2599 0.1969
vn 0.7615 -0.6359 0.1256
vn 0.9472 -0.2526 0.1974
vn 0.8850 -0.1019 0.4542
vn 0.8083 -0.2119 0.5493
vn -0.9457 -0.2522 0.2049
vn -0.8329 -0.4322 0.3457
vn -0.8083 -0.2119 0.5493
vn 0.4176 -0.1812 0.8904
vn 0.5885 -0.0235 0.8082
vn -0.0000 -0.4723 0.8815
vn -0.0392 -0.5882 -0.8078
vn -0.4176 -0.1812 0.8904
vn -0.5734 -0.0628 0.8169
vn -0.5429 -0.1888 0.8183
vn -0.9790 0.0078 0.2036
vn -0.9453 -0.2599 0.1969
vn -0.9648 -0.0471 0.2588
vn -0.8850 -0.1019 0.4542
vn -0.0000 -0.0941 0.9956
vn 0.3867 -0.1105 0.9155
vn -0.0000 -0.1173 0.9931
vn 0.5429 -0.1888 0.8183
vn 0.3141 -0.2670 0.9110
vn 0.5983 -0.4408 -0.6691
vn 0.9648 -0.0471 0.2588
vn 0.4871 -0.1257 0.8642
vn 0.5734 -0.0628 0.8169
vn 0.5754 -0.7330 0.3626
vn 0.4407 -0.4171 0.7949
vn 0.2674 -0.8650 0.4247
vn -0.0000 -0.3138 0.9495
vn -0.4549 -0.2980 0.8392
vn -0.0000 -0.2278 0.9737
vn -0.4407 -0.4171 0.7949
vn -0.0000 -0.6832 0.7303
vn -0.2674 -0.8650 0.4247
vn -0.0000 -0.9591 0.2830
vn -0.5983 -0.4408 -0.6691
vn 0.4549 -0.2980 0.8392
vn 0.6674 -0.5025 0.5496
vn 0.0392 -0.5882 -0.8078
vn -0.0000 -0.2974 0.9548
vn -0.3141 -0.2670 0.9110
vn -0.3867 -0.1105 0.9155
vn -0.0000 -0.5180 0.8554
vn -0.5754 -0.7331 0.3626
vn -0.6674 -0.5025 0.5496
vn -0.6062 -0.2913 0.7400
vn -0.4871 -0.1257 0.8642
vn 0.6062 -0.2913 0.7400
vn 0.8329 -0.4322 0.3457
vn 0.9790 0.0078 0.2036
vn -0.5884 -0.0235 0.8082
vt 0.942169 0.943268
vt 0.494568 0.987457
vt 0.846008 0.953583
vt 0.967621 0.737885
vt 0.887787 0.799927
vt 0.847687 0.575500
vt 0.791321 0.721802
vt 0.801331 0.883728
vt 0.567017 0.755951
vt 0.595245 0.682739
vt 0.494568 0.703186
vt 0.988495 0.987457
vt 0.626923 0.745758
vt 0.658630 0.808807
vt 0.975433 0.377716
vt 0.914154 0.550079
vt 0.494568 0.850037
vt 0.578033 0.847931
vt 0.494568 0.798370
vt 0.561523 0.799103
vt 0.988495 0.593323
vt 0.717316 0.692230
vt 0.586487 0.977356
vt 0.551666 0.943329
vt 0.543091 0.977356
vt 0.494568 0.902771
vt 0.621552 0.885986
vt 0.494568 0.941589
vt 0.494568 0.959717
vt 0.494568 0.977356
vt 0.679504 0.917908
vt 0.494568 0.765259
vt 0.494568 0.868164
vt 0.725189 0.831879
s 1
usemtl f_face089
f 1/1/1 2/2/2 3/3/3
f 4/1/4 5/4/5 6/3/6
f 7/5/7 8/6/8 9/7/9
f 10/5/10 11/8/11 12/7/12
f 13/9/13 14/10/14 15/11/15
f 2/2/2 1/1/1 16/12/16
f 17/9/17 18/13/18 19/14/19
f 20/15/20 21/4/21 22/16/22
f 22/16/22 21/4/21 10/5/10
f 22/16/22 10/5/10 23/6/23
f 23/6/23 10/5/10 12/7/12
f 24/17/24 25/18/25 26/19/26
f 27/14/27 13/9/13 28/20/28
f 5/4/5 4/1/4 29/21/29
f 8/6/8 7/5/7 30/16/30
f 31/22/31 14/10/14 32/13/32
f 33/23/33 34/24/34 35/25/35
f 36/26/36 37/27/37 38/28/38
f 38/28/38 37/27/37 39/24/39
f 38/28/38 39/24/39 40/29/40
f 40/29/40 39/24/39 41/25/41
f 40/29/40 41/25/41 42/30/42
f 11/8/11 10/5/10 3/3/3
f 3/3/3 10/5/10 21/4/21
f 3/3/3 21/4/21 1/1/1
f 1/1/1 21/4/21 43/21/43
f 1/1/1 43/21/43 16/12/16
f 44/27/44 34/24/34 45/31/45
f 45/31/45 34/24/34 33/23/33
f 45/31/45 33/23/33 6/3/6
f 6/3/6 33/23/33 2/2/2
f 6/3/6 2/2/2 4/1/4
f 4/1/4 2/2/2 46/12/46
f 4/1/4 46/12/46 29/21/29
f 47/32/47 48/20/48 26/19/26
f 26/19/26 48/20/48 49/18/49
f 26/19/26 49/18/49 24/17/24
f 24/17/24 49/18/49 50/33/50
f 24/17/24 50/33/50 25/18/25
f 25/18/25 50/33/50 44/27/44
f 2/2/2 51/23/51 3/3/3
f 3/3/3 51/23/51 52/31/52
f 3/3/3 52/31/52 11/8/11
f 11/8/11 52/31/52 53/34/53
f 11/8/11 53/34/53 12/7/12
f 12/7/12 53/34/53 54/22/54
f 14/10/14 13/9/13 32/13/32
f 32/13/32 13/9/13 27/14/27
f 32/13/32 27/14/27 31/22/31
f 31/22/31 27/14/27 55/34/55
f 31/22/31 55/34/55 9/7/9
f 9/7/9 55/34/55 56/8/56
f 9/7/9 56/8/56 7/5/7
f 47/32/47 17/9/17 48/20/48
f 48/20/48 17/9/17 19/14/19
f 48/20/48 19/14/19 49/18/49
f 49/18/49 19/14/19 37/27/37
f 49/18/49 37/27/37 50/33/50
f 50/33/50 37/27/37 36/26/36
f 50/33/50 36/26/36 44/27/44
f 44/27/44 36/26/36 38/28/38
f 44/27/44 38/28/38 34/24/34
f 34/24/34 38/28/38 40/29/40
f 34/24/34 40/29/40 35/25/35
f 35/25/35 40/29/40 42/30/42
f 57/15/57 30/16/30 5/4/5
f 5/4/5 30/16/30 7/5/7
f 5/4/5 7/5/7 6/3/6
f 6/3/6 7/5/7 56/8/56
f 6/3/6 56/8/56 45/31/45
f 45/31/45 56/8/56 55/34/55
f 45/31/45 55/34/55 44/27/44
f 44/27/44 55/34/55 27/14/27
f 44/27/44 27/14/27 25/18/25
f 25/18/25 27/14/27 28/20/28
f 25/18/25 28/20/28 26/19/26
f 26/19/26 28/20/28 13/9/13
f 26/19/26 13/9/13 47/32/47
f 47/32/47 13/9/13 15/11/15
f 47/32/47 15/11/15 17/9/17
f 17/9/17 15/11/15 58/10/58
f 17/9/17 58/10/58 18/13/18
f 18/13/18 58/10/58 54/22/54
f 18/13/18 54/22/54 19/14/19
f 19/14/19 54/22/54 53/34/53
f 19/14/19 53/34/53 37/27/37
f 37/27/37 53/34/53 52/31/52
f 37/27/37 52/31/52 39/24/39
f 39/24/39 52/31/52 51/23/51
f 39/24/39 51/23/51 41/25/41
o editpl_f-0000-1870
v -7.534127 59.544086 0.082236
v -7.743115 55.148624 0.346738
v -6.692887 57.853279 4.621000
v 2.423195 57.558109 9.628755
v 4.394026 56.428764 9.416487
v 3.798809 57.583775 9.181991
v 1.846496 53.034309 9.600971
v 1.867659 54.519787 8.791907
v 0.687807 53.948696 10.107748
v 6.441573 54.747578 6.030195
v 7.743115 55.148624 0.346738
v 6.692887 57.853279 4.621000
v -5.991853 53.682400 7.089314
v -7.129380 52.601181 4.651007
v -6.269621 52.129551 6.881491
v 5.174422 57.609444 8.077306
v 5.629432 59.643547 6.949284
v 3.341153 60.262764 8.891927
v -6.441573 54.747578 6.030195
v -2.454940 55.517586 8.758566
v -3.767064 54.904789 8.702998
v -2.547530 54.266323 8.689662
v -5.121513 55.530422 8.036187
v -5.756412 54.757202 7.384933
v -5.124159 54.144405 7.868373
v -8.986457 56.120762 -1.190263
v -9.700718 54.972164 -2.869516
v -9.491730 52.739140 -2.903968
v -7.542063 53.236439 -2.550558
v 0.000000 57.503567 10.013282
v -2.092519 56.175304 10.081077
v 0.000000 56.018093 10.506724
v -6.388665 61.982449 4.224246
v -5.629432 59.643547 6.949284
v -3.851717 63.461506 7.007073
v -3.341153 60.262764 8.891927
v 0.000000 63.775925 8.289575
v -9.491730 52.739140 -2.903968
v -7.542063 53.236439 -2.550558
v -8.163735 49.745735 -1.209156
v -7.134670 49.758568 0.271166
v -9.700718 54.972164 -2.869516
v -8.986457 56.120762 -1.190263
v -7.743115 55.148624 0.346738
v -1.021128 51.282543 11.430258
v 0.000000 50.663326 11.194652
v 0.000000 51.337086 11.951482
v -5.055378 52.187302 8.414047
v -5.505098 49.787441 7.155996
v -4.065995 50.567078 8.542964
v -7.743115 55.148624 0.346738
v -7.134670 49.758568 0.271166
v -8.163735 49.745735 -1.209156
v 1.462912 44.076550 8.061749
v 0.000000 43.765339 3.215140
v 2.185109 44.285095 7.672776
v 2.092519 56.175304 10.081077
v 2.454940 55.517586 8.758566
v 3.767064 54.904789 8.702998
v 5.121513 55.530422 8.036187
v 7.134670 49.758568 0.271166
v 8.163735 49.745735 -1.209156
v 9.491730 52.739140 -2.903968
v 3.177137 52.597973 9.110866
v 9.491730 52.739140 -2.903968
v 8.163735 49.745735 -1.209156
v 7.542063 53.236439 -2.550558
v 7.134670 49.758568 0.271166
v 7.129380 52.601181 4.651007
v 5.991853 53.682400 7.089314
v 6.269621 52.129551 6.881491
v 5.055378 52.187302 8.414047
v 5.124159 54.144405 7.868373
v 2.547530 54.266323 8.689662
v 7.743115 55.148624 0.346738
v 8.986457 56.120762 -1.190263
v 9.700718 54.972164 -2.869516
v 7.743115 55.148624 0.346738
v 8.986457 56.120762 -1.190263
v 9.700718 54.972164 -2.869516
v 0.000000 43.871216 7.980619
v -1.462912 44.076550 8.061749
v -2.185109 44.285095 7.672776
v -3.177137 52.597973 9.110866
v -2.092519 50.842995 9.474277
v -3.798809 57.583775 9.181991
v -5.174422 57.609444 8.077306
v 0.000000 50.400242 10.355580
v 2.092519 50.842995 9.474277
v 1.021128 51.282543 11.430258
v 0.915312 51.959507 11.265779
v 0.000000 51.882507 11.868132
v 0.000000 52.700642 11.325791
v -0.915312 51.959507 11.265779
v -5.632078 55.947510 7.910604
v -4.394026 56.428764 9.416487
v 5.505098 49.787441 7.155996
v 4.065995 50.567078 8.542964
v -1.867659 54.519787 8.791907
v -0.830659 55.110126 9.927710
v 0.000000 55.045956 10.041067
v 5.632078 55.947510 7.910604
v 5.756412 54.757202 7.384933
v -2.423195 57.558109 9.628755
v 0.000000 60.378265 9.896590
v 3.851717 63.461506 7.007073
v 6.388665 61.982449 4.224246
v 7.534127 59.544086 0.082236
v 7.542063 53.236439 -2.550558
v -1.846496 53.034309 9.600971
v -0.687807 53.948696 10.107748
v 0.000000 54.221409 10.585630
v 0.830659 55.110126 9.927710
vn -0.9927 0.0630 0.1024
vn -0.9790 0.0078 0.2036
vn -0.9489 0.0784 0.3058
vn 0.2360 0.1966 0.9517
vn 0.4969 -0.1656 0.8518
vn 0.4477 0.2828 0.8483
vn 0.5894 0.2672 0.7623
vn 0.5287 0.0868 0.8444
vn 0.6196 0.2902 0.7293
vn 0.9346 0.0393 0.3534
vn 0.9790 0.0078 0.2036
vn 0.9489 0.0784 0.3058
vn -0.8271 0.0552 0.5593
vn -0.9648 -0.0470 0.2589
vn -0.8850 -0.1018 0.4543
vn 0.7616 0.2120 0.6124
vn 0.8131 0.2052 0.5447
vn 0.4549 0.2745 0.8471
vn -0.9346 0.0393 0.3534
vn -0.3223 -0.3852 0.8647
vn -0.2587 -0.0549 0.9644
vn -0.2276 0.0314 0.9732
vn -0.4733 -0.2524 0.8440
vn -0.7343 -0.1026 0.6711
vn -0.5122 -0.0000 0.8589
vn -0.8523 -0.1026 0.5129
vn -0.8942 -0.0863 0.4393
vn -0.8557 -0.0864 0.5103
vn -0.9948 0.0392 -0.0940
vn -0.0000 0.2111 0.9775
vn -0.2742 -0.2351 0.9325
vn -0.0000 -0.0550 0.9985
vn -0.9116 0.1807 0.3693
vn -0.8131 0.2052 0.5447
vn -0.6058 0.3779 0.7001
vn -0.4549 0.2745 0.8471
vn -0.0000 0.4472 0.8944
vn 0.2200 -0.1807 -0.9586
vn 0.6036 0.0940 -0.7918
vn 0.1805 -0.6593 -0.7299
vn -0.9453 -0.2600 0.1969
vn 0.3852 0.3223 -0.8647
vn 0.6859 0.5597 -0.4651
vn 0.7919 0.5331 -0.2979
vn -0.6043 -0.3688 0.7063
vn -0.0000 -0.8678 0.4970
vn -0.0000 -0.3537 0.9354
vn -0.6149 -0.0158 0.7884
vn -0.8083 -0.2119 0.5494
vn -0.4871 -0.1257 0.8642
vn -0.9790 0.0079 0.2037
vn -0.9453 -0.2600 0.1970
vn 0.1806 -0.6593 -0.7299
vn 0.2674 -0.8650 0.4246
vn -0.0000 -0.9806 -0.1961
vn 0.5755 -0.7331 0.3626
vn 0.2742 -0.2351 0.9325
vn 0.3223 -0.3852 0.8647
vn 0.2587 -0.0549 0.9644
vn 0.4733 -0.2524 0.8440
vn 0.9453 -0.2600 0.1970
vn -0.1806 -0.6593 -0.7299
vn 0.8557 -0.0864 0.5103
vn 0.3630 0.1263 0.9232
vn -0.2200 -0.1807 -0.9586
vn -0.1805 -0.6593 -0.7299
vn -0.6036 0.0940 -0.7918
vn 0.9453 -0.2600 0.1969
vn 0.9648 -0.0470 0.2589
vn 0.8271 0.0552 0.5593
vn 0.8850 -0.1018 0.4543
vn 0.6149 -0.0158 0.7884
vn 0.5122 -0.0000 0.8589
vn 0.2276 0.0314 0.9732
vn -0.7919 0.5331 -0.2979
vn -0.6859 0.5597 -0.4651
vn -0.3852 0.3223 -0.8647
vn 0.9790 0.0078 0.2037
vn 0.8523 -0.1026 0.5129
vn 0.8942 -0.0863 0.4393
vn -0.0000 -0.9591 0.2830
vn -0.2674 -0.8650 0.4246
vn -0.5754 -0.7331 0.3626
vn -0.3630 0.1263 0.9232
vn -0.5885 -0.0236 0.8082
vn -0.4477 0.2828 0.8483
vn -0.7616 0.2120 0.6124
vn -0.0000 -0.4722 0.8815
vn 0.5885 -0.0236 0.8082
vn 0.6043 -0.3688 0.7063
vn 0.6517 0.3455 0.6752
vn -0.0000 0.3443 0.9389
vn -0.0000 0.5180 0.8554
vn -0.6517 0.3454 0.6752
vn -0.8091 -0.0864 0.5813
vn -0.4969 -0.1656 0.8518
vn 0.8083 -0.2119 0.5494
vn 0.4871 -0.1257 0.8642
vn -0.5287 0.0868 0.8444
vn -0.5110 -0.1337 0.8491
vn -0.0000 -0.0628 0.9980
vn 0.8091 -0.0864 0.5813
vn 0.7343 -0.1026 0.6711
vn -0.2360 0.1966 0.9517
vn -0.0000 0.2112 0.9774
vn 0.6058 0.3777 0.7003
vn 0.9116 0.1807 0.3693
vn 0.9927 0.0630 0.1024
vn 0.9948 0.0392 -0.0940
vn -0.5894 0.2672 0.7623
vn -0.6196 0.2902 0.7294
vn -0.0000 0.3700 0.9290
vn 0.5110 -0.1337 0.8491
vt 0.987305 0.011993
vt 0.975433 0.377716
vt 0.929474 0.177826
vt 0.604340 0.260498
vt 0.741180 0.313873
vt 0.670227 0.256378
vt 0.597870 0.543854
vt 0.605347 0.445251
vt 0.549347 0.493622
vt 0.925415 0.386566
vt 0.833527 0.495056
vt 0.914154 0.550079
vt 0.847687 0.575500
vt 0.736115 0.252258
vt 0.803436 0.136566
vt 0.653961 0.120422
vt 0.638123 0.378296
vt 0.713470 0.421997
vt 0.649139 0.461639
vt 0.782043 0.377411
vt 0.828979 0.417755
vt 0.781647 0.461639
vt 0.036835 0.373413
vt 0.013031 0.373413
vt 0.013031 0.541260
vt 0.986938 0.593323
vt 0.494568 0.265411
vt 0.617798 0.345673
vt 0.494568 0.341370
vt 0.779938 0.012390
vt 0.654266 0.012390
vt 0.494568 0.012390
vt 0.012421 0.627197
vt 0.032990 0.621338
vt 0.018372 0.654877
vt 0.032990 0.658783
vt 0.012421 0.603180
vt 0.014832 0.587463
vt 0.032990 0.610321
vt 0.549377 0.643646
vt 0.494568 0.663361
vt 0.494568 0.627777
vt 0.758057 0.574341
vt 0.791321 0.721802
vt 0.717316 0.692230
vt 0.129089 0.479553
vt 0.129089 0.654327
vt 0.053650 0.654327
vt 0.543091 0.977356
vt 0.494568 0.995789
vt 0.586487 0.977356
vt 0.672150 0.560852
vt 0.494568 0.977356
vt 0.595245 0.682739
vt 0.494568 0.703186
vt 0.549103 0.611206
vt 0.494568 0.599335
vt 0.494568 0.567261
vt 0.839569 0.317383
vt 0.558746 0.392731
vt 0.494568 0.408875
vt 0.494568 0.120239
vt 0.494568 0.490997
s 1
usemtl f_face089
f 59/35/59 60/36/60 61/37/61
f 62/38/62 63/39/63 64/40/64
f 65/41/65 66/42/66 67/43/67
f 68/44/68 69/36/69 70/37/70
f 71/45/71 72/46/72 73/47/73
f 74/48/74 75/49/75 76/50/76
f 77/44/77 60/36/60 72/46/72
f 78/51/78 79/52/79 80/53/80
f 81/54/81 82/55/82 83/56/83
f 84/57/84 85/58/85 86/59/86
f 60/36/60 59/35/59 87/60/87
f 88/61/88 89/62/89 90/63/90
f 91/64/91 92/49/92 93/65/93
f 93/65/93 92/49/92 94/50/94
f 93/65/93 94/50/94 95/66/95
f 96/67/96 97/68/97 98/69/98
f 98/69/98 97/68/97 99/70/99
f 96/67/96 100/71/100 97/68/97
f 97/68/97 100/71/100 101/72/101
f 97/68/97 101/72/101 102/73/102
f 103/74/103 104/75/104 105/76/105
f 71/45/71 73/47/73 106/77/106
f 106/77/106 73/47/73 107/78/107
f 106/77/106 107/78/107 108/79/108
f 109/80/109 84/57/84 110/81/110
f 110/81/110 84/57/84 86/59/86
f 110/81/110 86/59/86 111/82/111
f 112/83/112 113/84/113 114/85/114
f 63/39/63 62/38/62 115/62/115
f 116/51/116 117/52/117 118/54/118
f 119/81/119 120/82/120 121/59/121
f 66/42/66 65/41/65 122/86/122
f 123/67/123 124/69/124 125/68/125
f 125/68/125 124/69/124 126/70/126
f 69/36/69 68/44/68 127/46/127
f 127/46/127 68/44/68 128/45/128
f 127/46/127 128/45/128 129/47/129
f 130/77/130 131/56/131 122/86/122
f 122/86/122 131/56/131 132/53/132
f 122/86/122 132/53/132 66/42/66
f 133/73/133 134/72/134 125/68/125
f 125/68/125 134/72/134 135/71/135
f 125/68/125 135/71/135 123/67/123
f 136/80/136 119/81/119 137/57/137
f 137/57/137 119/81/119 121/59/121
f 137/57/137 121/59/121 138/58/138
f 112/83/112 139/87/139 113/84/113
f 113/84/113 139/87/139 140/83/140
f 113/84/113 140/83/140 141/85/141
f 82/55/82 71/45/71 83/56/83
f 83/56/83 71/45/71 106/77/106
f 83/56/83 106/77/106 142/86/142
f 142/86/142 106/77/106 108/79/108
f 142/86/142 108/79/108 143/88/143
f 144/40/144 94/50/94 145/48/145
f 145/48/145 94/50/94 92/49/92
f 145/48/145 92/49/92 61/37/61
f 61/37/61 92/49/92 91/64/91
f 61/37/61 91/64/91 59/35/59
f 146/89/146 147/88/147 148/74/148
f 148/74/148 147/88/147 149/90/149
f 148/74/148 149/90/149 150/91/150
f 150/91/150 149/90/149 151/92/151
f 150/91/150 151/92/151 152/90/152
f 72/46/72 71/45/71 77/44/77
f 77/44/77 71/45/71 82/55/82
f 77/44/77 82/55/82 153/93/153
f 153/93/153 82/55/82 81/54/81
f 153/93/153 81/54/81 154/39/154
f 155/78/155 130/77/130 156/79/156
f 156/79/156 130/77/130 122/86/122
f 156/79/156 122/86/122 147/88/147
f 147/88/147 122/86/122 65/41/65
f 147/88/147 65/41/65 149/90/149
f 149/90/149 65/41/65 67/43/67
f 149/90/149 67/43/67 151/92/151
f 80/53/80 157/42/157 78/51/78
f 78/51/78 157/42/157 158/94/158
f 78/51/78 158/94/158 89/62/89
f 89/62/89 158/94/158 159/95/159
f 89/62/89 159/95/159 90/63/90
f 90/63/90 159/95/159 115/62/115
f 90/63/90 115/62/115 88/61/88
f 88/61/88 115/62/115 62/38/62
f 75/49/75 74/48/74 70/37/70
f 70/37/70 74/48/74 160/93/160
f 70/37/70 160/93/160 68/44/68
f 68/44/68 160/93/160 161/55/161
f 68/44/68 161/55/161 128/45/128
f 60/36/60 77/44/77 61/37/61
f 61/37/61 77/44/77 153/93/153
f 61/37/61 153/93/153 145/48/145
f 145/48/145 153/93/153 154/39/154
f 145/48/145 154/39/154 144/40/144
f 144/40/144 154/39/154 162/38/162
f 144/40/144 162/38/162 94/50/94
f 94/50/94 162/38/162 163/96/163
f 94/50/94 163/96/163 95/66/95
f 95/66/95 163/96/163 76/50/76
f 95/66/95 76/50/76 164/65/164
f 164/65/164 76/50/76 75/49/75
f 164/65/164 75/49/75 165/64/165
f 165/64/165 75/49/75 70/37/70
f 165/64/165 70/37/70 166/35/166
f 166/35/166 70/37/70 69/36/69
f 166/35/166 69/36/69 167/60/167
f 80/53/80 168/41/168 157/42/157
f 157/42/157 168/41/168 169/43/169
f 157/42/157 169/43/169 158/94/158
f 158/94/158 169/43/169 170/97/170
f 158/94/158 170/97/170 159/95/159
f 159/95/159 170/97/170 171/94/171
f 159/95/159 171/94/171 115/62/115
f 115/62/115 171/94/171 116/51/116
f 115/62/115 116/51/116 63/39/63
f 63/39/63 116/51/116 118/54/118
f 168/41/168 152/90/152 169/43/169
f 169/43/169 152/90/152 151/92/151
f 169/43/169 151/92/151 170/97/170
f 170/97/170 151/92/151 67/43/67
f 170/97/170 67/43/67 171/94/171
f 171/94/171 67/43/67 66/42/66
f 171/94/171 66/42/66 116/51/116
f 116/51/116 66/42/66 132/53/132
f 116/51/116 132/53/132 117/52/117
f 117/52/117 132/53/132 131/56/131
f 117/52/117 131/56/131 118/54/118
f 155/78/155 129/47/129 130/77/130
f 130/77/130 129/47/129 128/45/128
f 130/77/130 128/45/128 131/56/131
f 131/56/131 128/45/128 161/55/161
f 131/56/131 161/55/161 118/54/118
f 118/54/118 161/55/161 160/93/160
f 118/54/118 160/93/160 63/39/63
f 63/39/63 160/93/160 74/48/74
f 63/39/63 74/48/74 64/40/64
f 64/40/64 74/48/74 76/50/76
f 64/40/64 76/50/76 62/38/62
f 62/38/62 76/50/76 163/96/163
f 62/38/62 163/96/163 88/61/88
f 88/61/88 163/96/163 162/38/162
f 88/61/88 162/38/162 89/62/89
f 89/62/89 162/38/162 154/39/154
f 89/62/89 154/39/154 78/51/78
f 78/51/78 154/39/154 81/54/81
f 78/51/78 81/54/81 79/52/79
f 79/52/79 81/54/81 83/56/83
f 79/52/79 83/56/83 80/53/80
f 80/53/80 83/56/83 142/86/142
f 80/53/80 142/86/142 168/41/168
f 168/41/168 142/86/142 143/88/143
f 168/41/168 143/88/143 152/90/152
f 152/90/152 143/88/143 103/74/103
f 152/90/152 103/74/103 150/91/150
f 150/91/150 103/74/103 105/76/105
f 150/91/150 105/76/105 148/74/148
f 148/74/148 105/76/105 104/75/104
f 148/74/148 104/75/104 146/89/146
f 146/89/146 104/75/104 103/74/103
f 146/89/146 103/74/103 143/88/143
