mtllib f_face025.mtl
o editpl_f-0000-1881
v 5.825192 47.146957 4.556543
v 6.806640 49.405647 4.961074
v 5.780220 49.636650 7.348260
v 2.965504 48.366138 8.282907
v 1.208952 48.244221 8.883039
v 1.465557 47.390793 9.128646
v 0.000000 43.765339 3.210695
v 4.087158 46.556618 0.512330
v 6.026244 47.220749 0.314509
v -7.542063 53.236439 -2.550558
v -4.169166 46.556618 0.512330
v -6.026244 47.220749 0.314509
v -1.208952 48.244221 8.883039
v 0.000000 48.070969 9.167544
v 0.000000 48.228176 9.707662
v 7.542063 53.236439 -2.550558
v 7.264295 49.758568 0.271166
v 3.560722 44.971684 4.307600
v 2.256535 46.672119 8.009514
v 0.000000 50.862247 11.430258
v -0.970865 51.321041 11.207987
v 0.000000 50.089031 9.761006
v -2.055483 51.061165 9.308686
v -2.256535 46.672119 8.009514
v -3.526331 45.558815 6.593652
v -1.632218 44.801640 7.822808
v -2.965504 48.366138 8.282907
v -1.206307 48.978935 9.885478
v 0.000000 49.052727 10.244444
v 0.000000 43.608128 6.345819
v 1.534338 44.031631 6.918167
v 3.526331 45.558815 6.593652
v 4.909881 47.403625 6.895939
v 3.817326 50.021652 8.707444
v 1.206307 48.978935 9.885478
v 2.055483 51.061165 9.308686
v 0.970865 51.321041 11.207987
v 0.000000 47.557629 9.480946
v -1.465557 47.390793 9.128646
v 0.000000 46.784412 9.439825
v 0.000000 46.001572 8.581861
v 0.000000 44.596306 8.351811
v -3.560722 44.971684 4.307600
v -1.534338 44.031631 6.918167
v 0.000000 43.938591 7.538301
v 1.632218 44.801640 7.822808
v -5.825192 47.146957 4.556543
v -4.909881 47.403625 6.895939
v -3.891398 50.021652 8.707444
v -5.780220 49.636650 7.348260
v -6.806640 49.405647 4.961074
v -7.264295 49.758568 0.271166
vn 0.7964 -0.5599 0.2287
vn 0.9212 -0.3150 0.2283
vn 0.7284 -0.2585 0.6345
vn 0.4311 -0.2901 0.8544
vn 0.3291 -0.2821 0.9012
vn 0.3918 -0.0784 0.9167
vn -0.0000 -0.9720 -0.2351
vn 0.1491 -0.6671 -0.7299
vn 0.6613 -0.6771 -0.3229
vn -0.4887 -0.4730 -0.7331
vn -0.1645 -0.6736 -0.7205
vn -0.6595 -0.6830 -0.3141
vn -0.3291 -0.2821 0.9012
vn -0.0000 -0.3537 0.9354
vn -0.0000 -0.8018 0.5976
vn 0.4887 -0.4730 -0.7331
vn 0.9522 -0.2518 0.1731
vn 0.5564 -0.8307 0.0157
vn 0.4636 -0.4243 0.7779
vn -0.0000 -0.7149 0.6992
vn -0.6701 -0.1576 0.7253
vn -0.5565 -0.0001 0.8308
vn -0.4636 -0.4243 0.7779
vn -0.6362 -0.6048 0.4791
vn -0.4182 -0.4892 0.7654
vn -0.4237 -0.2982 0.8553
vn -0.3702 -0.2914 0.8821
vn -0.0000 -0.0707 0.9975
vn -0.0000 -0.9940 0.1096
vn 0.4011 -0.8808 0.2517
vn 0.6362 -0.6048 0.4791
vn 0.5765 -0.4422 0.6871
vn 0.3762 -0.1333 0.9169
vn 0.3702 -0.2914 0.8821
vn 0.5565 -0.0000 0.8309
vn 0.6701 -0.1576 0.7253
vn -0.0000 0.2830 0.9591
vn -0.3918 -0.0784 0.9167
vn -0.0000 -0.5122 0.8589
vn -0.0000 -0.3768 0.9263
vn -0.0000 -0.5029 0.8644
vn -0.5564 -0.8307 0.0157
vn -0.4011 -0.8808 0.2517
vn -0.0000 -0.8589 0.5122
vn 0.4182 -0.4892 0.7654
vn -0.7964 -0.5598 0.2287
vn -0.5765 -0.4423 0.6870
vn -0.3761 -0.1333 0.9169
vn -0.7386 -0.2436 0.6286
vn -0.9218 -0.3073 0.2364
vn -0.9522 -0.2518 0.1731
vt 0.210938 0.859375
vt 0.152893 0.725433
vt 0.242188 0.701996
vt 0.360474 0.793518
vt 0.437500 0.796875
vt 0.433014 0.843750
vt 0.494324 0.992188
vt 0.007812 0.992188
vt 0.101562 0.906250
vt 0.007812 0.458313
vt 0.494324 0.804688
vt 0.494324 0.796875
vt 0.081451 0.623871
vt 0.313202 0.973694
vt 0.407104 0.888000
vt 0.494324 0.679688
vt 0.448639 0.647308
vt 0.494324 0.703125
vt 0.390625 0.664062
vt 0.301331 0.907349
vt 0.414062 0.937500
vt 0.446411 0.753326
vt 0.494324 0.755554
vt 0.494324 0.984375
vt 0.400391 0.974609
vt 0.267853 0.815826
vt 0.312500 0.676331
vt 0.494324 0.833984
vt 0.494324 0.867188
vt 0.494324 0.906250
vt 0.494324 0.945312
vt 0.494324 0.976562
s 1
usemtl f_face095
f 1/1/1 2/2/2 3/3/3
f 4/4/4 5/5/5 6/6/6
f 7/7/7 8/8/8 9/9/9
f 10/10/10 11/8/11 12/9/12
f 13/5/13 14/11/14 15/12/15
f 8/8/8 16/10/16 9/9/9
f 9/9/9 16/10/16 17/13/17
f 9/9/9 17/13/17 2/2/2
f 2/2/2 1/1/1 9/9/9
f 9/9/9 1/1/1 18/14/18
f 9/9/9 18/14/18 7/7/7
f 6/6/6 19/15/19 4/4/4
f 20/16/20 21/17/21 22/18/14
f 22/18/14 21/17/21 23/19/22
f 24/15/23 25/20/24 26/21/25
f 27/4/26 13/5/13 28/22/27
f 28/22/27 13/5/13 15/12/15
f 28/22/27 15/12/15 29/23/28
f 30/24/29 7/7/7 31/25/30
f 31/25/30 7/7/7 18/14/18
f 31/25/30 18/14/18 32/20/31
f 32/20/31 18/14/18 1/1/1
f 32/20/31 1/1/1 33/26/32
f 33/26/32 1/1/1 3/3/3
f 33/26/32 3/3/3 34/27/33
f 5/5/5 4/4/4 35/22/34
f 35/22/34 4/4/4 36/19/35
f 35/22/34 36/19/35 22/18/14
f 22/18/14 36/19/35 37/17/36
f 22/18/14 37/17/36 20/16/20
f 38/28/37 39/6/38 40/29/39
f 40/29/39 39/6/38 24/15/23
f 40/29/39 24/15/23 41/30/40
f 41/30/40 24/15/23 26/21/25
f 41/30/40 26/21/25 42/31/41
f 43/14/42 7/7/7 44/25/43
f 44/25/43 7/7/7 30/24/29
f 44/25/43 30/24/29 45/32/44
f 45/32/44 30/24/29 31/25/30
f 45/32/44 31/25/30 46/21/45
f 46/21/45 31/25/30 32/20/31
f 46/21/45 32/20/31 19/15/19
f 19/15/19 32/20/31 33/26/32
f 19/15/19 33/26/32 4/4/4
f 4/4/4 33/26/32 34/27/33
f 4/4/4 34/27/33 36/19/35
f 5/5/5 38/28/37 6/6/6
f 6/6/6 38/28/37 40/29/39
f 6/6/6 40/29/39 19/15/19
f 19/15/19 40/29/39 41/30/40
f 19/15/19 41/30/40 46/21/45
f 46/21/45 41/30/40 42/31/41
f 46/21/45 42/31/41 45/32/44
f 45/32/44 42/31/41 26/21/25
f 45/32/44 26/21/25 44/25/43
f 44/25/43 26/21/25 25/20/24
f 44/25/43 25/20/24 43/14/42
f 11/8/11 7/7/7 12/9/12
f 12/9/12 7/7/7 43/14/42
f 12/9/12 43/14/42 47/1/46
f 47/1/46 43/14/42 25/20/24
f 47/1/46 25/20/24 48/26/47
f 48/26/47 25/20/24 24/15/23
f 48/26/47 24/15/23 27/4/26
f 27/4/26 24/15/23 39/6/38
f 27/4/26 39/6/38 13/5/13
f 13/5/13 39/6/38 38/28/37
f 13/5/13 38/28/37 14/11/14
f 14/11/14 38/28/37 5/5/5
f 14/11/14 5/5/5 15/12/15
f 15/12/15 5/5/5 35/22/34
f 15/12/15 35/22/34 29/23/28
f 29/23/28 35/22/34 22/18/14
f 29/23/28 22/18/14 28/22/27
f 28/22/27 22/18/14 23/19/22
f 28/22/27 23/19/22 27/4/26
f 27/4/26 23/19/22 49/27/48
f 27/4/26 49/27/48 48/26/47
f 48/26/47 49/27/48 50/3/49
f 48/26/47 50/3/49 47/1/46
f 47/1/46 50/3/49 51/2/50
f 47/1/46 51/2/50 12/9/12
f 12/9/12 51/2/50 52/13/51
f 12/9/12 52/13/51 10/10/10
o editpl_f-0000-1882
v -1.775070 53.749779 8.834138
v -1.719516 52.761600 9.139760
v -0.954993 54.195740 9.759895
v 6.132060 54.192532 7.013741
v 6.243167 56.457638 7.561639
v 5.481289 55.844841 8.032853
v -7.372757 52.190510 5.002194
v -6.973300 54.587162 5.527864
v -7.743115 55.148624 0.346738
v -3.116293 56.425556 9.811017
v -3.309408 60.140846 8.958609
v -5.777575 59.617882 7.173777
v -7.534127 59.544086 0.082236
v -7.542063 53.236439 -2.550558
v -2.055483 51.061165 9.308686
v -0.970865 51.321041 11.207987
v -0.751296 52.803310 10.447823
v 6.359565 51.978760 7.130434
v 6.462736 53.191521 6.822590
v 5.407218 53.047146 7.717229
v 5.780220 49.636650 7.348260
v 4.753801 52.107094 8.254012
v 3.817326 50.021652 8.707444
v 2.775035 53.239647 8.452944
v 2.055483 51.061165 9.308686
v 9.491730 52.739140 -2.903968
v 9.700718 54.972164 -2.869516
v 8.986457 56.120762 -1.190263
v 7.743115 55.148624 0.346738
v 8.986457 56.120762 -1.190263
v 7.542063 53.236439 -2.550558
v 9.700718 54.972164 -2.869516
v 1.719516 52.761600 9.139760
v 0.954993 54.195740 9.759895
v 0.751296 52.803310 10.447823
v 0.000000 54.359367 10.104414
v 0.000000 53.027893 10.836795
v 4.031605 54.644913 8.845252
v -2.775035 53.239647 8.452944
v -9.491730 52.739140 -2.903968
v -9.700718 54.972164 -2.869516
v -7.542063 53.236439 -2.550558
v -8.986457 56.101509 -1.190263
v -7.743115 55.148624 0.346738
v -6.462736 53.191521 6.822590
v -6.132060 54.192532 7.013741
v -5.407218 53.047146 7.717229
v -8.986457 56.101509 -1.190263
v -9.700718 54.972164 -2.869516
v 1.775070 53.756195 8.834138
v 1.529047 55.366795 9.462052
v 0.000000 56.066219 10.420038
v -1.529047 55.366795 9.462052
v -2.796198 55.732548 9.038628
v 6.973300 54.587162 5.527864
v 7.372757 52.190510 5.002194
v 6.806640 49.405647 4.961074
v 7.264295 49.758568 0.271166
v 7.801314 49.745735 -1.209156
v 7.264295 49.758568 0.271166
v 7.743115 55.148624 0.346738
v 3.116293 56.425556 9.811017
v 2.796198 55.732548 9.038628
v 0.000000 63.775925 8.289575
v 3.304117 60.140846 8.934159
v 3.851717 63.461506 7.007073
v 5.777575 59.617882 7.173777
v 6.388665 61.982449 4.224246
v 7.113507 58.392284 4.580992
v 7.534127 59.544086 0.082236
v 7.743115 55.148624 0.346738
v 7.542063 53.236439 -2.550558
v -6.251103 51.978760 7.130434
v -4.753801 52.107094 8.254012
v -3.952242 54.644913 8.845252
v -5.481289 55.844841 8.032853
v -6.243167 56.457638 7.561639
v -7.113507 58.392284 4.580992
v -7.743115 55.148624 0.346738
v -7.264295 49.758568 0.271166
v -7.801314 49.745735 -1.209156
v -7.264295 49.758568 0.271166
v 0.000000 60.256348 9.759894
v 0.970865 51.321041 11.207987
v 0.000000 51.564880 11.787003
v -6.388665 61.982449 4.224246
v -3.851717 63.461506 7.007073
v 7.264295 49.758568 0.271166
v -7.264295 49.758568 0.271166
v -6.806640 49.405647 4.961074
v -5.780220 49.636650 7.348260
v -3.891398 50.021652 8.707444
v 0.000000 50.862247 11.430258
vn -0.5356 -0.0551 0.8427
vn -0.6746 0.1883 0.7138
vn -0.6280 0.1177 0.7693
vn 0.7702 -0.0393 0.6366
vn 0.7914 -0.0078 0.6112
vn 0.5574 -0.1884 0.8086
vn -0.9618 -0.0552 0.2680
vn -0.9407 0.0392 0.3371
vn -0.9876 0.0079 0.1567
vn -0.4244 -0.2122 0.8803
vn -0.4004 0.3062 0.8637
vn -0.7514 0.2505 0.6105
vn -0.9937 0.1017 0.0470
vn -0.9948 0.0392 -0.0940
vn -0.5565 -0.0000 0.8308
vn -0.6701 -0.1577 0.7253
vn -0.6534 0.3385 0.6771
vn 0.7774 -0.0314 0.6282
vn 0.8020 0.0944 0.5898
vn 0.5420 -0.0000 0.8404
vn 0.7285 -0.2585 0.6345
vn 0.4395 0.0785 0.8948
vn 0.3762 -0.1332 0.9169
vn 0.2901 0.0235 0.9567
vn 0.5565 0.0001 0.8308
vn 0.9039 -0.3458 -0.2516
vn 0.8942 -0.0863 0.4393
vn 0.8551 -0.0941 0.5099
vn -0.7919 0.5331 -0.2979
vn -0.6859 0.5597 -0.4651
vn -0.6437 0.1334 -0.7536
vn -0.3852 0.3223 -0.8647
vn 0.6746 0.1883 0.7138
vn 0.6280 0.1178 0.7693
vn 0.6534 0.3385 0.6771
vn -0.0000 0.1961 0.9806
vn -0.0000 0.5180 0.8554
vn 0.2751 -0.1415 0.9510
vn -0.2901 0.0235 0.9567
vn -0.9039 -0.3458 -0.2516
vn 0.3852 0.3223 -0.8647
vn 0.6436 0.1334 -0.7536
vn 0.6828 0.5651 -0.4630
vn 0.7856 0.5420 -0.2985
vn -0.8003 0.0628 0.5963
vn -0.7702 -0.0393 0.6366
vn -0.5474 -0.0156 0.8367
vn -0.8551 -0.0941 0.5099
vn -0.8942 -0.0863 0.4393
vn 0.5355 -0.0551 0.8427
vn 0.4408 -0.3307 0.8345
vn -0.0000 -0.2202 0.9754
vn -0.4408 -0.3307 0.8345
vn -0.2834 -0.3778 0.8815
vn 0.9407 0.0392 0.3370
vn 0.9651 -0.0392 0.2589
vn 0.9212 -0.3149 0.2283
vn -0.9239 -0.1957 -0.3288
vn -0.2207 -0.6777 -0.7014
vn 0.9522 -0.2518 0.1731
vn 0.9876 0.0078 0.1568
vn 0.4244 -0.2122 0.8803
vn 0.2842 -0.3710 0.8841
vn -0.0000 0.4251 0.9052
vn 0.4004 0.3062 0.8637
vn 0.5766 0.4028 0.7108
vn 0.7479 0.2519 0.6141
vn 0.8973 0.2834 0.3385
vn 0.9630 0.1175 0.2427
vn 0.9937 0.1017 0.0470
vn 0.9876 0.0078 0.1567
vn 0.9948 0.0392 -0.0940
vn -0.7769 -0.0471 0.6278
vn -0.4552 0.0785 0.8869
vn -0.2675 -0.1494 0.9519
vn -0.5519 -0.1892 0.8121
vn -0.7914 -0.0078 0.6112
vn -0.9630 0.1175 0.2427
vn -0.9876 0.0079 0.1568
vn -0.9522 -0.2518 0.1732
vn 0.2207 -0.6777 -0.7014
vn 0.9239 -0.1957 -0.3288
vn -0.0000 0.2518 0.9678
vn 0.6701 -0.1577 0.7253
vn -0.0000 0.0236 0.9997
vn -0.8973 0.2834 0.3385
vn -0.5818 0.4010 0.7076
vn -0.9522 -0.2518 0.1731
vn -0.9218 -0.3073 0.2364
vn -0.7386 -0.2436 0.6286
vn -0.3762 -0.1332 0.9169
vn -0.0000 -0.7149 0.6992
vt 0.399536 0.459808
vt 0.379456 0.542389
vt 0.439056 0.462494
vt 0.168732 0.440613
vt 0.149719 0.329407
vt 0.215179 0.375000
vt 0.121643 0.581451
vt 0.091797 0.442383
vt 0.044617 0.454224
vt 0.333679 0.328125
vt 0.328125 0.158844
vt 0.191406 0.182281
vt 0.007812 0.278992
vt 0.007812 0.458313
vt 0.390625 0.664062
vt 0.448639 0.647308
vt 0.464264 0.532349
vt 0.187500 0.600433
vt 0.161804 0.507812
vt 0.220306 0.485931
vt 0.242188 0.701996
vt 0.278992 0.550201
vt 0.312500 0.676331
vt 0.339386 0.482635
vt 0.992188 0.578125
vt 0.992188 0.398438
vt 0.984375 0.367188
vt 0.882812 0.453125
vt 0.968750 0.539062
vt 0.494324 0.443390
vt 0.494324 0.531250
vt 0.304688 0.427063
vt 0.408844 0.394531
vt 0.494324 0.359375
vt 0.341614 0.387756
vt 0.152893 0.725433
vt 0.851562 0.656250
vt 0.945312 0.648438
vt 0.494324 0.007812
vt 0.242188 0.007812
vt 0.007812 0.007812
vt 0.078125 0.218750
vt 0.494324 0.148438
vt 0.494324 0.632812
vt 0.081451 0.623871
vt 0.494324 0.679688
s 1
usemtl f_face095
f 53/33/52 54/34/53 55/35/54
f 56/36/55 57/37/56 58/38/57
f 59/39/58 60/40/59 61/41/60
f 62/42/61 63/43/62 64/44/63
f 61/41/60 65/45/64 66/46/65
f 67/47/66 68/48/67 69/49/68
f 70/50/69 71/51/70 72/52/71
f 73/53/72 74/54/73 75/55/74
f 75/55/74 74/54/73 76/56/75
f 75/55/74 76/56/75 77/47/76
f 78/57/77 79/58/78 80/59/79
f 81/60/80 82/59/81 83/61/82
f 83/61/82 82/59/81 84/58/83
f 83/61/82 84/58/83 78/57/77
f 85/34/84 86/35/85 87/49/86
f 87/49/86 86/35/85 88/62/87
f 87/49/86 88/62/87 89/63/88
f 71/51/70 56/36/55 72/52/71
f 72/52/71 56/36/55 58/38/57
f 72/52/71 58/38/57 90/64/89
f 54/34/53 53/33/52 91/56/90
f 92/57/91 93/58/92 94/61/93
f 94/61/93 93/58/92 95/59/94
f 94/61/93 95/59/94 96/60/95
f 60/40/59 97/51/96 98/36/97
f 98/36/97 97/51/96 99/52/98
f 100/59/99 101/58/100 92/57/91
f 85/34/84 102/33/101 86/35/85
f 86/35/85 102/33/101 103/65/102
f 86/35/85 103/65/102 88/62/87
f 88/62/87 103/65/102 104/66/103
f 88/62/87 104/66/103 105/65/104
f 105/65/104 104/66/103 62/42/61
f 105/65/104 62/42/61 106/67/105
f 57/37/56 56/36/55 107/40/106
f 107/40/106 56/36/55 71/51/70
f 107/40/106 71/51/70 108/39/107
f 108/39/107 71/51/70 70/50/69
f 108/39/107 70/50/69 109/68/108
f 110/69/109 83/61/82 111/70/110
f 111/70/110 83/61/82 78/57/77
f 111/70/110 78/57/77 112/69/111
f 112/69/111 78/57/77 80/59/79
f 112/69/111 80/59/79 113/60/112
f 57/37/56 114/42/113 58/38/57
f 58/38/57 114/42/113 115/67/114
f 58/38/57 115/67/114 90/64/89
f 90/64/89 115/67/114 76/56/75
f 90/64/89 76/56/75 72/52/71
f 72/52/71 76/56/75 74/54/73
f 72/52/71 74/54/73 70/50/69
f 70/50/69 74/54/73 73/53/72
f 70/50/69 73/53/72 109/68/108
f 116/71/115 117/43/116 118/72/117
f 118/72/117 117/43/116 119/44/118
f 118/72/117 119/44/118 120/73/119
f 120/73/119 119/44/118 121/74/120
f 120/73/119 121/74/120 122/45/121
f 122/45/121 121/74/120 123/41/122
f 122/45/121 123/41/122 124/46/123
f 60/40/59 59/39/58 97/51/96
f 97/51/96 59/39/58 125/50/124
f 97/51/96 125/50/124 99/52/98
f 99/52/98 125/50/124 126/54/125
f 99/52/98 126/54/125 91/56/90
f 127/64/126 106/67/105 128/38/127
f 128/38/127 106/67/105 62/42/61
f 128/38/127 62/42/61 129/37/128
f 129/37/128 62/42/61 64/44/63
f 129/37/128 64/44/63 130/74/129
f 131/60/130 100/59/99 132/69/131
f 132/69/131 100/59/99 92/57/91
f 132/69/131 92/57/91 133/70/132
f 133/70/132 92/57/91 94/61/93
f 133/70/132 94/61/93 134/69/133
f 63/43/62 62/42/61 135/75/134
f 135/75/134 62/42/61 104/66/103
f 135/75/134 104/66/103 114/42/113
f 114/42/113 104/66/103 103/65/102
f 114/42/113 103/65/102 115/67/114
f 115/67/114 103/65/102 102/33/101
f 115/67/114 102/33/101 76/56/75
f 76/56/75 102/33/101 85/34/84
f 76/56/75 85/34/84 77/47/76
f 77/47/76 85/34/84 87/49/86
f 77/47/76 87/49/86 136/48/135
f 136/48/135 87/49/86 89/63/88
f 136/48/135 89/63/88 137/76/136
f 65/45/64 130/74/129 138/73/137
f 138/73/137 130/74/129 64/44/63
f 138/73/137 64/44/63 139/72/138
f 139/72/138 64/44/63 63/43/62
f 139/72/138 63/43/62 116/71/115
f 116/71/115 63/43/62 135/75/134
f 116/71/115 135/75/134 117/43/116
f 117/43/116 135/75/134 114/42/113
f 117/43/116 114/42/113 119/44/118
f 119/44/118 114/42/113 57/37/56
f 119/44/118 57/37/56 121/74/120
f 121/74/120 57/37/56 107/40/106
f 121/74/120 107/40/106 123/41/122
f 123/41/122 107/40/106 108/39/107
f 123/41/122 108/39/107 140/77/111
f 140/77/111 108/39/107 109/68/108
f 61/41/60 141/77/139 59/39/58
f 59/39/58 141/77/139 142/68/140
f 59/39/58 142/68/140 125/50/124
f 125/50/124 142/68/140 143/53/141
f 125/50/124 143/53/141 126/54/125
f 126/54/125 143/53/141 144/55/142
f 126/54/125 144/55/142 91/56/90
f 91/56/90 144/55/142 67/47/66
f 91/56/90 67/47/66 54/34/53
f 54/34/53 67/47/66 69/49/68
f 54/34/53 69/49/68 55/35/54
f 65/45/64 61/41/60 130/74/129
f 130/74/129 61/41/60 60/40/59
f 130/74/129 60/40/59 129/37/128
f 129/37/128 60/40/59 98/36/97
f 129/37/128 98/36/97 128/38/127
f 128/38/127 98/36/97 99/52/98
f 128/38/127 99/52/98 127/64/126
f 127/64/126 99/52/98 91/56/90
f 127/64/126 91/56/90 106/67/105
f 106/67/105 91/56/90 53/33/52
f 106/67/105 53/33/52 105/65/104
f 105/65/104 53/33/52 55/35/54
f 105/65/104 55/35/54 88/62/87
f 88/62/87 55/35/54 69/49/68
f 88/62/87 69/49/68 89/63/88
f 89/63/88 69/49/68 68/48/67
f 89/63/88 68/48/67 137/76/136
f 137/76/136 68/48/67 145/78/143
f 137/76/136 145/78/143 136/48/135
