mtllib f_face006.mtl
o editpl_f-0000-1847
v 6.026244 47.220749 0.314509
v 7.264295 49.758568 0.271166
v 5.825192 47.089207 4.523201
v 1.179853 49.014229 9.985499
v 2.764453 47.936214 8.382929
v 1.968185 50.903954 9.308686
v -6.872775 49.485855 4.923288
v -5.780220 49.636650 7.234902
v -6.251103 51.978760 7.130434
v 4.087158 46.556618 0.512330
v 7.542063 53.236439 -2.550558
v -2.327961 46.152363 7.829476
v -2.764453 47.936214 8.382929
v -4.862263 47.304169 6.823702
v 0.949702 51.073997 11.196875
v 0.000000 50.618412 11.386915
v 0.000000 49.954277 9.761006
v 7.542063 53.236439 -2.550558
v 7.801314 49.745735 -1.209156
v 7.264295 49.758568 0.271166
v -4.169166 46.556618 0.512330
v 0.000000 43.765339 3.210695
v -6.026244 47.220749 0.314509
v -3.560722 44.830517 4.307600
v -5.825192 47.089207 4.523201
v 5.780220 49.636650 7.234902
v 6.875420 49.485855 4.923288
v 6.359565 51.978760 7.130434
v 7.372757 52.190510 5.002194
v 1.185144 48.199303 8.943051
v 0.000000 48.298759 9.767674
v 0.000000 48.087009 9.207552
v -1.179853 49.014229 9.985499
v 0.000000 49.091228 10.344466
v 0.000000 43.627377 6.345819
v 0.000000 43.957840 7.578310
v -1.518465 44.050884 6.858154
v 2.327961 46.152363 7.829476
v 1.253924 47.339458 9.288681
v 0.000000 46.858204 9.519843
v 0.000000 47.410042 9.640980
v -1.253924 47.339458 9.288681
v -1.185144 48.199303 8.943051
v -7.264295 49.758568 0.271166
v -7.801314 49.745735 -1.209156
v -7.542063 53.236439 -2.550558
v -3.491941 45.424065 6.773691
v -1.616345 44.759933 7.822808
v 0.000000 44.557804 8.351811
v -7.743115 55.148624 0.346738
v -7.264295 49.758568 0.271166
v -7.372757 52.190510 5.002194
v 7.743115 55.148624 0.346738
v 4.862263 47.304169 6.823702
v -1.968185 50.903954 9.308686
v -0.949702 51.073997 11.196875
v 0.000000 51.365959 11.743659
v -7.542063 53.236439 -2.550558
v 3.491941 45.424065 6.773691
v 3.560722 44.830517 4.307600
v 0.000000 45.959862 8.581861
v 1.616345 44.759933 7.822808
v 1.518465 44.050884 6.858154
vn 0.5836 -0.7098 -0.3944
vn 0.9355 -0.3302 0.1258
vn 0.8179 -0.5348 0.2123
vn 0.3382 -0.2596 0.9046
vn 0.4487 -0.2755 0.8501
vn 0.5655 -0.0000 0.8247
vn -0.9169 -0.2743 0.2899
vn -0.7408 -0.2522 0.6225
vn -0.7937 -0.0629 0.6050
vn 0.1491 -0.6671 -0.7299
vn 0.4887 -0.4730 -0.7331
vn -0.4422 -0.4106 0.7975
vn -0.4477 -0.2828 0.8483
vn -0.6112 -0.4153 0.6738
vn 0.6601 -0.2043 0.7229
vn -0.0000 -0.7227 0.6912
vn -0.0000 -0.3138 0.9495
vn -0.6437 0.1334 -0.7536
vn -0.2207 -0.6777 -0.7014
vn -0.1645 -0.6736 -0.7205
vn -0.0000 -0.9720 -0.2351
vn -0.5888 -0.7065 -0.3926
vn -0.5419 -0.8404 0.0079
vn -0.8179 -0.5348 0.2123
vn 0.7306 -0.2671 0.6284
vn 0.9190 -0.2827 0.2749
vn 0.7944 -0.0472 0.6056
vn 0.9636 -0.0236 0.2663
vn 0.2984 -0.2591 0.9186
vn -0.0000 -0.7952 0.6063
vn -0.0000 -0.3068 0.9518
vn -0.3382 -0.2596 0.9046
vn -0.0000 -0.0236 0.9997
vn -0.0000 -0.9940 0.1095
vn -0.0000 -0.8730 0.4876
vn -0.3704 -0.8983 0.2364
vn 0.4422 -0.4106 0.7975
vn 0.4010 -0.0865 0.9120
vn -0.0000 -0.5328 0.8462
vn -0.0000 0.2518 0.9678
vn -0.4010 -0.0865 0.9120
vn -0.2983 -0.2591 0.9186
vn -0.9355 -0.3302 0.1257
vn 0.2207 -0.6778 -0.7013
vn 0.6437 0.1335 -0.7536
vn -0.6218 -0.6061 0.4959
vn -0.4084 -0.5027 0.7619
vn -0.0000 -0.5122 0.8589
vn -0.9876 0.0078 0.1567
vn -0.9355 -0.3302 0.1258
vn -0.9605 -0.0394 0.2755
vn 0.9876 0.0078 0.1567
vn 0.6132 -0.4088 0.6760
vn -0.5655 -0.0000 0.8247
vn -0.6600 -0.2043 0.7229
vn -0.0000 -0.0000 1.0000
vn -0.4887 -0.4730 -0.7331
vn 0.6218 -0.6061 0.4959
vn 0.5419 -0.8404 0.0079
vn -0.0000 -0.3701 0.9290
vn 0.4084 -0.5027 0.7619
vn 0.3704 -0.8983 0.2364
vt 0.094727 0.929688
vt 0.093750 0.651031
vt 0.194336 0.808594
vt 0.453125 0.726562
vt 0.375000 0.765625
vt 0.412323 0.631073
vt 0.148254 0.665253
vt 0.219604 0.665161
vt 0.187958 0.549255
vt 0.010651 0.986877
vt 0.010651 0.523438
vt 0.400818 0.862366
vt 0.267853 0.784576
vt 0.464386 0.608490
vt 0.497589 0.640625
vt 0.497589 0.664062
vt 0.968750 0.539062
vt 0.929688 0.656250
vt 0.851562 0.656250
vt 0.497589 0.986877
vt 0.213928 0.917053
vt 0.121979 0.525024
vt 0.445312 0.757812
vt 0.497589 0.750000
vt 0.497589 0.765625
vt 0.497589 0.726562
vt 0.497589 0.976562
vt 0.497589 0.953125
vt 0.403229 0.951904
vt 0.453125 0.796875
vt 0.497589 0.812500
vt 0.497589 0.796875
vt 0.296875 0.859375
vt 0.402618 0.910431
vt 0.497589 0.906250
vt 0.054688 0.414062
vt 0.497589 0.585938
vt 0.497589 0.875000
s 1
usemtl f_face078
f 1/1/1 2/2/2 3/3/3
f 4/4/4 5/5/5 6/6/6
f 7/7/7 8/8/8 9/9/9
f 1/1/1 10/10/10 11/11/11
f 12/12/12 13/5/13 14/13/14
f 15/14/15 16/15/16 17/16/17
f 2/2/2 1/1/1 11/11/11
f 18/17/18 19/18/19 20/19/2
f 21/10/20 22/20/21 23/1/22
f 23/1/22 22/20/21 24/21/23
f 23/1/22 24/21/23 25/3/24
f 26/8/25 27/7/26 28/9/27
f 28/9/27 27/7/26 29/22/28
f 5/5/5 4/4/4 30/23/29
f 30/23/29 4/4/4 31/24/30
f 30/23/29 31/24/30 32/25/31
f 17/16/17 33/4/32 34/26/33
f 35/27/34 36/28/35 37/29/36
f 38/12/37 39/30/38 40/31/39
f 40/31/39 39/30/38 41/32/40
f 40/31/39 41/32/40 42/30/41
f 42/30/41 41/32/40 43/23/42
f 44/19/43 45/18/44 46/17/45
f 47/33/46 37/29/36 48/34/47
f 48/34/47 37/29/36 36/28/35
f 48/34/47 36/28/35 49/35/48
f 50/36/49 51/2/50 52/22/51
f 52/22/51 51/2/50 7/7/7
f 52/22/51 7/7/7 9/9/9
f 53/36/52 29/22/28 2/2/2
f 2/2/2 29/22/28 27/7/26
f 2/2/2 27/7/26 3/3/3
f 3/3/3 27/7/26 26/8/25
f 3/3/3 26/8/25 54/13/53
f 13/5/13 33/4/32 55/6/54
f 55/6/54 33/4/32 17/16/17
f 55/6/54 17/16/17 56/14/55
f 56/14/55 17/16/17 16/15/16
f 56/14/55 16/15/16 57/37/56
f 57/37/56 16/15/16 15/14/15
f 8/8/8 7/7/7 25/3/24
f 25/3/24 7/7/7 51/2/50
f 25/3/24 51/2/50 23/1/22
f 23/1/22 51/2/50 58/11/57
f 23/1/22 58/11/57 21/10/20
f 31/24/30 43/23/42 32/25/31
f 32/25/31 43/23/42 41/32/40
f 32/25/31 41/32/40 30/23/29
f 30/23/29 41/32/40 39/30/38
f 30/23/29 39/30/38 5/5/5
f 5/5/5 39/30/38 38/12/37
f 5/5/5 38/12/37 54/13/53
f 54/13/53 38/12/37 59/33/58
f 54/13/53 59/33/58 3/3/3
f 3/3/3 59/33/58 60/21/59
f 3/3/3 60/21/59 1/1/1
f 14/13/14 47/33/46 12/12/12
f 12/12/12 47/33/46 48/34/47
f 12/12/12 48/34/47 61/38/60
f 61/38/60 48/34/47 49/35/48
f 61/38/60 49/35/48 62/34/61
f 62/34/61 49/35/48 36/28/35
f 62/34/61 36/28/35 63/29/62
f 63/29/62 36/28/35 35/27/34
f 63/29/62 35/27/34 22/20/21
f 22/20/21 35/27/34 37/29/36
f 22/20/21 37/29/36 24/21/23
f 24/21/23 37/29/36 47/33/46
f 24/21/23 47/33/46 25/3/24
f 25/3/24 47/33/46 14/13/14
f 25/3/24 14/13/14 8/8/8
f 10/10/10 1/1/1 22/20/21
f 22/20/21 1/1/1 60/21/59
f 22/20/21 60/21/59 63/29/62
f 63/29/62 60/21/59 59/33/58
f 63/29/62 59/33/58 62/34/61
f 62/34/61 59/33/58 38/12/37
f 62/34/61 38/12/37 61/38/60
f 61/38/60 38/12/37 40/31/39
f 61/38/60 40/31/39 12/12/12
f 12/12/12 40/31/39 42/30/41
f 12/12/12 42/30/41 13/5/13
f 13/5/13 42/30/41 43/23/42
f 13/5/13 43/23/42 33/4/32
f 33/4/32 43/23/42 31/24/30
f 33/4/32 31/24/30 34/26/33
f 34/26/33 31/24/30 4/4/4
f 34/26/33 4/4/4 17/16/17
f 17/16/17 4/4/4 6/6/6
f 17/16/17 6/6/6 15/14/15
o editpl_f-0000-1848
v -3.891398 50.021652 8.707444
v -4.862263 47.304169 6.823702
v -2.764453 47.936214 8.382929
v -2.928469 56.807350 9.811017
v -3.309408 60.140846 8.958609
v -5.777575 59.617882 7.173777
v -7.743115 55.148624 0.346738
v -7.534127 59.544086 0.082236
v -7.542063 53.236439 -2.550558
v 2.775035 53.236439 8.455167
v 1.968185 50.903954 9.308686
v 3.817326 50.021652 8.707444
v 2.764453 47.936214 8.382929
v 4.862263 47.304169 6.823702
v -1.775070 54.067406 8.727448
v -1.719516 52.761600 9.139760
v -0.954993 54.195740 9.759895
v -0.722197 52.803310 10.515615
v 3.952242 54.651329 8.655210
v 2.796198 55.738964 8.702998
v -9.491730 52.739140 -2.903968
v -7.801314 49.745735 -1.209156
v -7.264295 49.758568 0.271166
v 8.986457 56.120762 -1.190263
v 7.743115 55.148624 0.346738
v 7.264295 49.758568 0.271166
v 7.743115 55.148624 0.346738
v 8.986457 56.120762 -1.190263
v 7.542063 53.236439 -2.550558
v 9.700718 54.972164 -2.869516
v 9.491730 52.739140 -2.903968
v 7.801314 49.745735 -1.209156
v 1.719516 52.761600 9.139760
v 0.954993 54.195740 9.759895
v 0.722197 52.803310 10.515615
v 0.000000 54.786079 10.091078
v 0.000000 53.027893 10.836795
v 6.243167 56.425556 7.681665
v 6.132060 54.327282 6.822590
v 6.973300 54.320866 5.527864
v 6.335757 53.140186 6.942616
v 7.372757 52.190510 5.002194
v 6.359565 51.978760 7.130434
v 9.700718 54.972164 -2.869516
v 9.491730 52.739140 -2.903968
v -2.775035 53.236439 8.455167
v -1.968185 50.903954 9.308686
v -0.949702 51.073997 11.196875
v -7.542063 53.236439 -2.550558
v -8.986457 56.101509 -1.190263
v -7.743115 55.148624 0.346738
v -9.491730 52.739140 -2.903968
v -9.700718 54.972164 -2.869516
v -9.700718 54.972164 -2.869516
v -8.986457 56.101509 -1.190263
v -7.743115 55.148624 0.346738
v 1.775070 54.073822 8.727448
v 1.529047 55.321877 9.462052
v 0.000000 56.085468 10.420038
v -1.529047 55.321877 9.462052
v -2.796198 55.738964 8.702998
v 5.780220 49.636650 7.234902
v 4.753801 52.225803 8.254012
v 5.301401 53.367981 7.777242
v 5.216748 55.722923 7.856148
v 2.931114 56.807350 9.811017
v 0.000000 63.775925 8.289575
v 3.304117 60.140846 8.934159
v 3.851717 63.461506 7.007073
v 5.777575 59.617882 7.173777
v 6.388665 61.982449 4.224246
v 7.113507 58.392284 4.580992
v 7.534127 59.544086 0.082236
v 7.743115 55.148624 0.346738
v 7.542063 53.236439 -2.550558
v -4.753801 52.225803 8.254012
v -5.301401 53.361565 7.777242
v -6.335757 53.143394 6.942616
v -6.132060 54.327282 6.822590
v -6.973300 54.320866 5.527864
v -3.952242 54.651329 8.655210
v -5.216748 55.722923 7.856148
v -6.243167 56.425556 7.681665
v -7.113507 58.392284 4.580992
v -5.780220 49.636650 7.234902
v -6.251103 51.978760 7.130434
v -7.372757 52.190510 5.002194
v 0.000000 60.256348 9.759894
v 0.949702 51.073997 11.196875
v 0.000000 51.365959 11.743659
v -6.388665 61.982449 4.224246
v -3.851717 63.461506 7.007073
vn -0.4091 -0.1180 0.9048
vn -0.6111 -0.4152 0.6739
vn -0.4477 -0.2828 0.8483
vn -0.4244 -0.2122 0.8803
vn -0.4004 0.3062 0.8637
vn -0.7479 0.2519 0.6141
vn -0.9876 0.0078 0.1567
vn -0.9937 0.1017 0.0470
vn -0.9948 0.0392 -0.0940
vn 0.2754 0.0551 0.9598
vn 0.5655 -0.0000 0.8247
vn 0.4025 -0.1184 0.9077
vn 0.4487 -0.2755 0.8502
vn 0.6131 -0.4087 0.6760
vn -0.5791 -0.0469 0.8139
vn -0.6793 0.1817 0.7110
vn -0.6666 0.1098 0.7372
vn -0.6686 0.2910 0.6843
vn 0.2755 -0.0394 0.9605
vn 0.3307 -0.2914 0.8976
vn -0.8887 -0.1730 0.4247
vn 0.2206 -0.6778 -0.7014
vn -0.9355 -0.3302 0.1258
vn 0.8551 -0.0941 0.5099
vn 0.9876 0.0078 0.1568
vn 0.9355 -0.3302 0.1258
vn -0.7919 0.5331 -0.2979
vn -0.6859 0.5597 -0.4651
vn -0.6436 0.1334 -0.7536
vn 0.8942 -0.0863 0.4393
vn 0.8887 -0.1730 0.4247
vn -0.2206 -0.6778 -0.7014
vn 0.6794 0.1817 0.7110
vn 0.6667 0.1098 0.7372
vn 0.6686 0.2910 0.6843
vn -0.0000 0.1491 0.9888
vn -0.0000 0.4314 0.9021
vn 0.7404 -0.1181 0.6617
vn 0.7181 -0.0473 0.6944
vn 0.9325 0.0235 0.3605
vn 0.7622 0.1179 0.6365
vn 0.9636 -0.0235 0.2664
vn 0.7943 -0.0472 0.6056
vn -0.3852 0.3223 -0.8647
vn -0.2115 -0.1645 -0.9634
vn -0.2207 -0.6777 -0.7014
vn -0.2754 0.0551 0.9598
vn -0.5655 -0.0000 0.8247
vn -0.6600 -0.2043 0.7229
vn 0.6437 0.1334 -0.7536
vn 0.6828 0.5651 -0.4630
vn 0.7856 0.5420 -0.2985
vn 0.2207 -0.6777 -0.7014
vn 0.2115 -0.1645 -0.9634
vn 0.3852 0.3223 -0.8647
vn -0.8942 -0.0863 0.4393
vn -0.8551 -0.0941 0.5099
vn -0.9876 0.0079 0.1568
vn 0.5791 -0.0469 0.8139
vn 0.5102 -0.3140 0.8007
vn -0.0001 -0.1961 0.9806
vn -0.5102 -0.3140 0.8007
vn -0.3307 -0.2914 0.8976
vn 0.7305 -0.2671 0.6285
vn 0.4713 0.0628 0.8797
vn 0.5328 0.0157 0.8461
vn 0.4797 -0.2202 0.8493
vn 0.4244 -0.2122 0.8802
vn -0.0000 0.4251 0.9052
vn 0.4004 0.3062 0.8637
vn 0.5766 0.4028 0.7108
vn 0.7464 0.2593 0.6129
vn 0.8973 0.2834 0.3385
vn 0.9648 0.1177 0.2353
vn 0.9937 0.1017 0.0470
vn 0.9948 0.0392 -0.0940
vn -0.4869 0.0550 0.8717
vn -0.5328 0.0157 0.8461
vn -0.7641 0.0945 0.6381
vn -0.7181 -0.0473 0.6944
vn -0.9325 0.0235 0.3605
vn -0.2755 -0.0394 0.9605
vn -0.4797 -0.2202 0.8493
vn -0.7404 -0.1181 0.6617
vn -0.9648 0.1177 0.2353
vn -0.7408 -0.2522 0.6226
vn -0.7937 -0.0629 0.6051
vn -0.9605 -0.0393 0.2756
vn -0.0000 0.2518 0.9678
vn 0.6601 -0.2043 0.7229
vn -0.0000 -0.0000 1.0000
vn -0.8973 0.2834 0.3385
vn -0.5818 0.4010 0.7076
vt 0.312225 0.647308
vt 0.267853 0.784576
vt 0.375000 0.765625
vt 0.304688 0.291656
vt 0.312500 0.109375
vt 0.167389 0.146179
vt 0.054688 0.414062
vt 0.012299 0.210938
vt 0.012299 0.523438
vt 0.351562 0.476562
vt 0.412323 0.631073
vt 0.414062 0.437500
vt 0.401550 0.491394
vt 0.445312 0.429688
vt 0.465271 0.493896
vt 0.296875 0.406250
vt 0.343750 0.351562
vt 0.987335 0.570984
vt 0.929688 0.656250
vt 0.851562 0.656250
vt 0.968750 0.367188
vt 0.890625 0.445312
vt 0.968750 0.539062
vt 0.987335 0.399109
vt 0.493011 0.412140
vt 0.493011 0.484375
vt 0.158691 0.324219
vt 0.171875 0.414062
vt 0.101562 0.414062
vt 0.177429 0.483826
vt 0.121979 0.525024
vt 0.187958 0.549255
vt 0.464386 0.608490
vt 0.414062 0.367188
vt 0.493011 0.320312
vt 0.219604 0.665161
vt 0.264801 0.533142
vt 0.234375 0.468750
vt 0.234375 0.351562
vt 0.493011 0.013458
vt 0.242188 0.013458
vt 0.012299 0.013458
vt 0.101562 0.218750
vt 0.493011 0.085938
vt 0.493011 0.585938
s 1
usemtl f_face078
f 64/39/63 65/40/64 66/41/65
f 67/42/66 68/43/67 69/44/68
f 70/45/69 71/46/70 72/47/71
f 73/48/72 74/49/73 75/39/74
f 75/39/74 74/49/73 76/41/75
f 75/39/74 76/41/75 77/40/76
f 78/50/77 79/51/78 80/52/79
f 80/52/79 79/51/78 81/53/80
f 73/48/72 82/54/81 83/55/82
f 84/56/83 85/57/84 86/58/85
f 87/59/86 88/60/87 89/58/88
f 90/60/89 91/59/90 92/61/91
f 93/62/92 87/59/86 94/56/93
f 94/56/93 87/59/86 89/58/88
f 94/56/93 89/58/88 95/57/94
f 96/51/95 97/52/96 98/53/97
f 98/53/97 97/52/96 99/63/98
f 98/53/97 99/63/98 100/64/99
f 101/65/100 102/66/101 103/67/102
f 103/67/102 102/66/101 104/68/103
f 103/67/102 104/68/103 105/69/104
f 105/69/104 104/68/103 106/70/105
f 91/59/90 107/62/106 92/61/91
f 92/61/91 107/62/106 108/56/107
f 92/61/91 108/56/107 95/57/108
f 78/50/77 109/48/109 79/51/78
f 79/51/78 109/48/109 110/49/110
f 79/51/78 110/49/110 81/53/80
f 81/53/80 110/49/110 111/71/111
f 112/61/112 113/59/113 114/60/114
f 85/57/115 115/56/116 112/61/112
f 112/61/112 115/56/116 116/62/117
f 112/61/112 116/62/117 113/59/113
f 117/62/118 84/56/83 118/59/119
f 118/59/119 84/56/83 86/58/85
f 118/59/119 86/58/85 119/60/120
f 96/51/95 120/50/121 97/52/96
f 97/52/96 120/50/121 121/72/122
f 97/52/96 121/72/122 99/63/98
f 99/63/98 121/72/122 122/73/123
f 99/63/98 122/73/123 123/72/124
f 123/72/124 122/73/123 67/42/66
f 123/72/124 67/42/66 124/55/125
f 77/40/76 125/74/126 75/39/74
f 75/39/74 125/74/126 126/75/127
f 75/39/74 126/75/127 73/48/72
f 73/48/72 126/75/127 127/76/128
f 73/48/72 127/76/128 82/54/81
f 82/54/81 127/76/128 128/77/129
f 82/54/81 128/77/129 83/55/82
f 83/55/82 128/77/129 129/42/130
f 125/74/126 106/70/105 126/75/127
f 126/75/127 106/70/105 104/68/103
f 126/75/127 104/68/103 127/76/128
f 127/76/128 104/68/103 102/66/101
f 127/76/128 102/66/101 128/77/129
f 128/77/129 102/66/101 101/65/100
f 128/77/129 101/65/100 129/42/130
f 130/78/131 131/43/132 132/79/133
f 132/79/133 131/43/132 133/44/134
f 132/79/133 133/44/134 134/80/135
f 134/80/135 133/44/134 135/81/136
f 134/80/135 135/81/136 136/46/137
f 136/46/137 135/81/136 137/45/87
f 136/46/137 137/45/87 138/47/138
f 66/41/65 110/49/110 64/39/63
f 64/39/63 110/49/110 109/48/109
f 64/39/63 109/48/109 139/75/139
f 139/75/139 109/48/109 140/76/140
f 139/75/139 140/76/140 141/68/141
f 141/68/141 140/76/140 142/66/142
f 141/68/141 142/66/142 143/67/143
f 144/54/144 124/55/125 145/77/145
f 145/77/145 124/55/125 67/42/66
f 145/77/145 67/42/66 146/65/146
f 146/65/146 67/42/66 69/44/68
f 146/65/146 69/44/68 147/81/147
f 65/40/64 64/39/63 148/74/148
f 148/74/148 64/39/63 139/75/139
f 148/74/148 139/75/139 149/70/149
f 149/70/149 139/75/139 141/68/141
f 149/70/149 141/68/141 150/69/150
f 150/69/150 141/68/141 143/67/143
f 150/69/150 143/67/143 70/45/69
f 68/43/67 67/42/66 151/82/151
f 151/82/151 67/42/66 122/73/123
f 151/82/151 122/73/123 129/42/130
f 129/42/130 122/73/123 121/72/122
f 129/42/130 121/72/122 83/55/82
f 83/55/82 121/72/122 120/50/121
f 83/55/82 120/50/121 73/48/72
f 73/48/72 120/50/121 96/51/95
f 73/48/72 96/51/95 74/49/73
f 74/49/73 96/51/95 98/53/97
f 74/49/73 98/53/97 152/71/152
f 152/71/152 98/53/97 100/64/99
f 152/71/152 100/64/99 153/83/153
f 71/46/70 147/81/147 154/80/154
f 154/80/154 147/81/147 69/44/68
f 154/80/154 69/44/68 155/79/155
f 155/79/155 69/44/68 68/43/67
f 155/79/155 68/43/67 130/78/131
f 130/78/131 68/43/67 151/82/151
f 130/78/131 151/82/151 131/43/132
f 131/43/132 151/82/151 129/42/130
f 131/43/132 129/42/130 133/44/134
f 133/44/134 129/42/130 101/65/100
f 133/44/134 101/65/100 135/81/136
f 135/81/136 101/65/100 103/67/102
f 135/81/136 103/67/102 137/45/87
f 137/45/87 103/67/102 105/69/104
f 71/46/70 70/45/69 147/81/147
f 147/81/147 70/45/69 143/67/143
f 147/81/147 143/67/143 146/65/146
f 146/65/146 143/67/143 142/66/142
f 146/65/146 142/66/142 145/77/145
f 145/77/145 142/66/142 140/76/140
f 145/77/145 140/76/140 144/54/144
f 144/54/144 140/76/140 109/48/109
f 144/54/144 109/48/109 124/55/125
f 124/55/125 109/48/109 78/50/77
f 124/55/125 78/50/77 123/72/124
f 123/72/124 78/50/77 80/52/79
f 123/72/124 80/52/79 99/63/98
f 99/63/98 80/52/79 81/53/80
f 99/63/98 81/53/80 100/64/99
f 100/64/99 81/53/80 111/71/111
f 100/64/99 111/71/111 153/83/153
