mtllib f_face008.mtl
o editpl_f-0000-1851
v 5.401927 49.200314 7.423832
v 5.007761 51.924217 8.310691
v 3.825263 49.607777 8.924158
v -2.566048 44.439095 7.027080
v -4.312018 45.517105 4.348720
v 0.000000 43.765339 3.215140
v 5.682340 47.130917 4.635448
v 4.312018 45.517105 4.348720
v 6.216713 47.127708 1.503656
v 7.253714 49.758568 0.271166
v 2.566048 44.439095 7.027080
v 1.682481 44.108631 7.925053
v 2.425841 45.167397 8.193999
v 1.441748 44.589890 8.916378
v 2.259180 46.011196 8.612979
v 6.274912 52.129551 6.820367
v 6.526226 49.225979 4.438738
v 7.089698 52.511349 4.425402
v 1.761843 50.451576 9.452050
v 1.642800 50.531784 9.473166
v 0.000000 49.995987 10.270006
v 1.002610 51.340294 11.594738
v 0.000000 50.714661 11.496940
v 0.000000 48.221760 9.725443
v -1.108427 48.353302 9.572076
v 0.000000 47.394001 10.023285
v -7.494446 53.236439 -2.550558
v -3.989278 46.794037 -0.004449
v -7.253714 49.758568 0.271166
v -6.216713 47.127708 1.503656
v -5.682340 47.130917 4.635448
v -4.206202 46.094612 6.243576
v 0.000000 45.934193 9.337582
v -2.259180 46.011196 8.612979
v 0.000000 45.180229 9.424266
v -1.441748 44.589890 8.916378
v 0.000000 44.236969 9.035294
v -7.089698 52.511349 4.425402
v -6.526226 49.225979 4.438738
v -6.274912 52.129551 6.820367
v -5.401927 49.200314 7.423832
v -5.007761 51.924217 8.310691
v -3.825263 49.607777 8.924158
v 4.206202 46.094612 6.243576
v 4.441643 47.422878 7.716117
v 3.304117 46.367325 8.108425
v 2.796198 48.147968 8.947496
v 2.481394 46.816494 8.664102
v -1.386195 49.181061 10.287787
v 0.000000 49.100853 10.701210
v 1.108427 48.353302 9.572076
v 1.560792 47.371544 9.520954
v 0.000000 46.909538 10.011060
v -1.560792 47.371544 9.520954
v -2.796198 48.147968 8.947496
v 0.000000 51.596962 12.070397
v -1.002610 51.340294 11.594738
v -1.642800 50.531784 9.473166
v -1.761843 50.451576 9.452050
v -2.481394 46.816494 8.664102
v -3.304117 46.367325 8.108425
v -2.425841 45.167397 8.193999
v -1.682481 44.108631 7.925053
v 0.000000 43.762131 8.079531
v 1.386195 49.181061 10.287787
v 7.743115 55.148624 0.346738
v -4.441643 47.422878 7.716117
v 7.494446 53.236439 -2.550558
v 3.989278 46.794037 -0.004449
v -7.743115 55.148624 0.346738
vn 0.8075 -0.2352 0.5409
vn 0.6112 0.0156 0.7913
vn 0.4490 -0.1418 0.8822
vn -0.6107 -0.7673 0.1957
vn -0.6276 -0.7766 0.0549
vn -0.0000 -0.9888 -0.1491
vn 0.8510 -0.4649 0.2443
vn 0.6276 -0.7766 0.0549
vn 0.6671 -0.7142 -0.2119
vn 0.9256 -0.3766 0.0392
vn 0.6107 -0.7673 0.1957
vn 0.4098 -0.8589 0.3073
vn 0.6833 -0.4712 0.5577
vn 0.4555 -0.4476 0.7696
vn 0.4488 -0.2204 0.8660
vn 0.8874 -0.0707 0.4555
vn 0.9383 -0.2445 0.2445
vn 0.9750 -0.0865 0.2044
vn 0.3219 0.0942 0.9421
vn 0.5716 -0.1879 0.7987
vn -0.0000 -0.1018 0.9948
vn 0.7200 -0.0860 0.6886
vn -0.0000 -0.7150 0.6992
vn -0.0000 -0.2203 0.9754
vn -0.2584 -0.1880 0.9476
vn -0.0000 0.1414 0.9900
vn -0.5500 -0.5500 -0.6285
vn -0.4948 -0.6598 -0.5655
vn -0.9256 -0.3765 0.0392
vn -0.6671 -0.7142 -0.2119
vn -0.8510 -0.4649 0.2443
vn -0.7388 -0.5737 0.3537
vn -0.0000 -0.2425 0.9701
vn -0.4488 -0.2204 0.8660
vn -0.0000 -0.0863 0.9963
vn -0.4555 -0.4476 0.7696
vn -0.0000 -0.7564 0.6541
vn -0.9750 -0.0865 0.2044
vn -0.9383 -0.2445 0.2445
vn -0.8874 -0.0707 0.4555
vn -0.8075 -0.2352 0.5409
vn -0.6112 0.0156 0.7913
vn -0.4490 -0.1418 0.8822
vn 0.7388 -0.5737 0.3537
vn 0.6824 -0.4000 0.6118
vn 0.5807 -0.3610 0.7297
vn 0.4558 -0.2122 0.8644
vn 0.5105 -0.2435 0.8247
vn -0.4015 -0.0709 0.9131
vn -0.0000 -0.1733 0.9849
vn 0.2584 -0.1880 0.9476
vn 0.4251 -0.1181 0.8974
vn -0.0000 -0.3373 0.9414
vn -0.4251 -0.1181 0.8974
vn -0.4558 -0.2122 0.8644
vn -0.0000 0.0315 0.9995
vn -0.7200 -0.0860 0.6887
vn -0.5716 -0.1879 0.7987
vn -0.3219 0.0943 0.9421
vn -0.5105 -0.2435 0.8247
vn -0.5807 -0.3610 0.7297
vn -0.6833 -0.4713 0.5577
vn -0.4098 -0.8589 0.3073
vn -0.0000 -0.9737 0.2277
vn 0.4015 -0.0709 0.9131
vn 0.9850 -0.0157 0.1720
vn -0.6824 -0.4000 0.6118
vn 0.5500 -0.5500 -0.6285
vn 0.4948 -0.6598 -0.5655
vn -0.9850 -0.0157 0.1720
vt 0.852997 0.685699
vt 0.793274 0.562622
vt 0.729736 0.687134
vt 0.699646 0.967407
vt 0.774414 0.955231
vt 0.499695 0.987976
vt 0.887878 0.880676
vt 0.942169 0.943268
vt 0.967621 0.672516
vt 0.624847 0.979614
vt 0.643280 0.933075
vt 0.601410 0.936890
vt 0.622864 0.895477
vt 0.865875 0.552185
vt 0.910370 0.680542
vt 0.927368 0.535217
vt 0.608124 0.684967
vt 0.602814 0.682739
vt 0.499695 0.703186
vt 0.549377 0.643646
vt 0.499695 0.663361
vt 0.499695 0.804321
vt 0.567932 0.804321
vt 0.499695 0.852264
vt 0.987549 0.593323
vt 0.987549 0.987976
vt 0.795715 0.898651
vt 0.499695 0.895386
vt 0.499695 0.934326
vt 0.499695 0.952637
vt 0.790680 0.821320
vt 0.713593 0.866486
vt 0.662750 0.804321
vt 0.647614 0.844788
vt 0.588074 0.765198
vt 0.499695 0.774109
vt 0.587738 0.852051
vt 0.499695 0.866089
vt 0.499695 0.631439
vt 0.499695 0.977356
vt 0.975433 0.413086
s 1
usemtl f_face080
f 1/1/1 2/2/2 3/3/3
f 4/4/4 5/5/5 6/6/6
f 7/7/7 8/5/8 9/8/9
f 9/8/9 10/9/10 7/7/7
f 6/6/6 11/4/11 12/10/12
f 12/10/12 11/4/11 13/11/13
f 12/10/12 13/11/13 14/12/14
f 14/12/14 13/11/13 15/13/15
f 2/2/2 1/1/1 16/14/16
f 16/14/16 1/1/1 17/15/17
f 16/14/16 17/15/17 18/16/18
f 19/17/19 20/18/20 21/19/21
f 21/19/21 20/18/20 22/20/22
f 21/19/21 22/20/22 23/21/23
f 24/22/24 25/23/25 26/24/26
f 27/25/27 28/26/28 29/9/29
f 29/9/29 28/26/28 30/8/30
f 29/9/29 30/8/30 31/7/31
f 5/5/5 4/4/4 32/27/32
f 33/28/33 34/13/34 35/29/35
f 35/29/35 34/13/34 36/12/36
f 35/29/35 36/12/36 37/30/37
f 38/16/38 39/15/39 40/14/40
f 40/14/40 39/15/39 41/1/41
f 40/14/40 41/1/41 42/2/42
f 42/2/42 41/1/41 43/3/43
f 8/5/8 7/7/7 44/27/44
f 44/27/44 7/7/7 45/31/45
f 44/27/44 45/31/45 46/32/46
f 46/32/46 45/31/45 47/33/47
f 46/32/46 47/33/47 48/34/48
f 49/35/49 25/23/25 50/36/50
f 50/36/50 25/23/25 24/22/24
f 50/36/50 24/22/24 51/23/51
f 51/23/51 24/22/24 26/24/26
f 51/23/51 26/24/26 52/37/52
f 15/13/15 52/37/52 53/38/53
f 53/38/53 52/37/52 26/24/26
f 53/38/53 26/24/26 54/37/54
f 54/37/54 26/24/26 25/23/25
f 54/37/54 25/23/25 55/33/55
f 55/33/55 25/23/25 49/35/49
f 22/20/22 56/39/56 23/21/23
f 23/21/23 56/39/56 57/20/57
f 23/21/23 57/20/57 21/19/21
f 21/19/21 57/20/57 58/18/58
f 21/19/21 58/18/58 59/17/59
f 60/34/60 61/32/61 34/13/34
f 34/13/34 61/32/61 62/11/62
f 34/13/34 62/11/62 36/12/36
f 36/12/36 62/11/62 63/10/63
f 36/12/36 63/10/63 37/30/37
f 37/30/37 63/10/63 64/40/64
f 21/19/21 65/35/65 19/17/19
f 19/17/19 65/35/65 47/33/47
f 19/17/19 47/33/47 3/3/3
f 3/3/3 47/33/47 45/31/45
f 3/3/3 45/31/45 1/1/1
f 1/1/1 45/31/45 7/7/7
f 1/1/1 7/7/7 17/15/17
f 17/15/17 7/7/7 10/9/10
f 17/15/17 10/9/10 18/16/18
f 18/16/18 10/9/10 66/41/66
f 61/32/61 32/27/32 62/11/62
f 62/11/62 32/27/32 4/4/4
f 62/11/62 4/4/4 63/10/63
f 63/10/63 4/4/4 6/6/6
f 63/10/63 6/6/6 64/40/64
f 64/40/64 6/6/6 12/10/12
f 64/40/64 12/10/12 37/30/37
f 37/30/37 12/10/12 14/12/14
f 37/30/37 14/12/14 35/29/35
f 35/29/35 14/12/14 15/13/15
f 35/29/35 15/13/15 33/28/33
f 33/28/33 15/13/15 53/38/53
f 33/28/33 53/38/53 34/13/34
f 34/13/34 53/38/53 54/37/54
f 34/13/34 54/37/54 60/34/60
f 60/34/60 54/37/54 55/33/55
f 60/34/60 55/33/55 61/32/61
f 61/32/61 55/33/55 67/31/67
f 61/32/61 67/31/67 32/27/32
f 32/27/32 67/31/67 31/7/31
f 32/27/32 31/7/31 5/5/5
f 5/5/5 31/7/31 30/8/30
f 5/5/5 30/8/30 6/6/6
f 6/6/6 30/8/30 28/26/28
f 68/25/68 10/9/10 69/26/69
f 69/26/69 10/9/10 9/8/9
f 69/26/69 9/8/9 6/6/6
f 6/6/6 9/8/9 8/5/8
f 6/6/6 8/5/8 11/4/11
f 11/4/11 8/5/8 44/27/44
f 11/4/11 44/27/44 13/11/13
f 13/11/13 44/27/44 46/32/46
f 13/11/13 46/32/46 15/13/15
f 15/13/15 46/32/46 48/34/48
f 15/13/15 48/34/48 52/37/52
f 52/37/52 48/34/48 47/33/47
f 52/37/52 47/33/47 51/23/51
f 51/23/51 47/33/47 65/35/65
f 51/23/51 65/35/65 50/36/50
f 50/36/50 65/35/65 21/19/21
f 50/36/50 21/19/21 49/35/49
f 49/35/49 21/19/21 59/17/59
f 49/35/49 59/17/59 55/33/55
f 55/33/55 59/17/59 43/3/43
f 55/33/55 43/3/43 67/31/67
f 67/31/67 43/3/43 41/1/41
f 67/31/67 41/1/41 31/7/31
f 31/7/31 41/1/41 39/15/39
f 31/7/31 39/15/39 29/9/29
f 29/9/29 39/15/39 38/16/38
f 29/9/29 38/16/38 70/41/70
o editpl_f-0000-1852
v 5.978626 54.513367 7.153773
v 6.184968 56.168884 7.622764
v 5.015697 56.412724 8.926380
v -8.986457 56.120762 -1.190263
v -7.494446 53.236439 -2.550558
v -9.700718 54.972164 -2.869516
v -3.618921 54.587162 8.617424
v -2.327961 53.884529 8.499621
v -2.269762 55.299419 8.764123
v 1.679835 51.959507 9.586524
v 1.002610 51.340294 11.594738
v 1.642800 50.531784 9.473166
v 9.491730 52.739140 -2.903968
v 9.700718 54.972164 -2.869516
v 8.986457 56.120762 -1.190263
v 7.743115 55.148624 0.346738
v 8.986457 56.120762 -1.190263
v 7.494446 53.236439 -2.550558
v 9.700718 54.972164 -2.869516
v 9.491730 52.739140 -2.903968
v 7.801314 49.745735 -1.209156
v 7.253714 49.758568 0.271166
v 2.269762 55.299419 8.764123
v 3.618921 54.587162 8.617424
v 4.896654 55.283379 8.152879
v 5.007761 51.924217 8.310691
v 6.274912 52.129551 6.820367
v 4.872845 53.868488 8.015071
v 2.327961 53.884529 8.499621
v 3.245918 51.924217 9.148651
v 1.761843 50.451576 9.452050
v 6.917747 54.583954 5.193347
v 7.089698 52.511349 4.425402
v 7.801314 49.745735 -1.209156
v 7.253714 49.758568 0.271166
v 7.743115 55.148624 0.346738
v -1.002610 51.340294 11.594738
v 0.000000 51.596962 12.070397
v 0.000000 52.668556 11.146863
v 0.828013 52.578724 10.544510
v -3.851717 63.461506 7.007073
v -3.341153 60.140846 8.998617
v 0.000000 63.775925 8.289575
v -7.253714 49.758568 0.271166
v -7.743115 55.148624 0.346738
v -8.986457 56.120762 -1.190263
v -7.743115 55.148624 0.346738
v -7.253714 49.758568 0.271166
v -7.801314 49.745735 -1.209156
v -9.491730 52.739140 -2.903968
v 0.000000 60.256348 9.799902
v 0.000000 58.077866 10.197767
v 3.341153 60.140846 8.998617
v -5.015697 56.412724 8.926380
v -4.896654 55.283379 8.152879
v -5.007761 51.924217 8.310691
v -3.825263 49.607777 8.924158
v -3.245918 51.924217 9.148651
v -1.761843 50.451576 9.452050
v -1.679835 51.959507 9.586524
v -1.642800 50.531784 9.473166
v -7.801314 49.745735 -1.209156
v -9.491730 52.739140 -2.903968
v -9.700718 54.972164 -2.869516
v -2.777680 56.172092 9.553184
v -5.830483 59.617882 7.213786
v -6.388665 61.982449 4.224246
v 1.568728 53.942280 8.576304
v 0.780396 54.214989 9.907705
v 0.000000 54.144405 10.343355
v -0.828013 52.578724 10.544510
v -5.978626 54.513367 7.153773
v -6.184968 56.168884 7.622764
v -6.917747 54.583954 5.193347
v -7.179642 58.392284 4.621000
v -7.743115 55.148624 0.346738
v -7.534127 59.544086 0.082236
v -7.494446 53.236439 -2.550558
v 3.851717 63.461506 7.007073
v 5.830483 59.617882 7.213786
v 6.388665 61.982449 4.224246
v 7.179642 58.392284 4.621000
v 7.534127 59.544086 0.082236
v 7.743115 55.148624 0.346738
v 7.494446 53.236439 -2.550558
v -0.780396 54.214989 9.907705
v 0.000000 55.001041 9.811017
v 1.338577 55.164665 9.630979
v -4.872845 53.868488 8.015071
v -1.568728 53.942280 8.576304
v -1.338577 55.164665 9.630979
v 0.000000 56.114346 10.134421
v 2.777680 56.172092 9.553184
v -7.089698 52.511349 4.425402
v -6.274912 52.129551 6.820367
v 3.825263 49.607777 8.924158
vn 0.7163 -0.1338 0.6848
vn 0.8634 -0.0471 0.5024
vn 0.4876 -0.2595 0.8336
vn 0.6786 0.5681 -0.4655
vn 0.6436 0.1334 -0.7536
vn 0.3785 0.3233 -0.8673
vn -0.2036 -0.1253 0.9710
vn -0.1411 0.0705 0.9875
vn -0.3053 -0.4070 0.8609
vn 0.5916 0.2288 0.7731
vn 0.7200 -0.0861 0.6886
vn 0.5716 -0.1879 0.7987
vn 0.8887 -0.1730 0.4247
vn 0.8942 -0.0863 0.4393
vn 0.8551 -0.0941 0.5099
vn -0.7874 0.5433 -0.2913
vn -0.6786 0.5681 -0.4655
vn -0.6436 0.1334 -0.7536
vn -0.3785 0.3233 -0.8673
vn -0.2115 -0.1645 -0.9634
vn -0.2131 -0.6869 -0.6948
vn 0.9256 -0.3765 0.0393
vn 0.3053 -0.4070 0.8609
vn 0.2036 -0.1253 0.9710
vn 0.3710 -0.2290 0.9000
vn 0.6111 0.0157 0.7914
vn 0.8874 -0.0707 0.4555
vn 0.4090 0.0079 0.9125
vn 0.1411 0.0705 0.9875
vn 0.2985 0.1492 0.9427
vn 0.3219 0.0942 0.9421
vn 0.9533 -0.0394 0.2994
vn 0.9750 -0.0865 0.2045
vn -0.2132 -0.6869 -0.6947
vn 0.9256 -0.3765 0.0392
vn 0.9850 -0.0156 0.1720
vn -0.7200 -0.0861 0.6886
vn -0.0000 0.0314 0.9995
vn -0.0000 0.6150 0.7885
vn 0.6385 0.4178 0.6463
vn -0.5760 0.4182 0.7023
vn -0.3682 0.2585 0.8931
vn -0.0000 0.4314 0.9021
vn -0.9256 -0.3765 0.0392
vn -0.9850 -0.0156 0.1720
vn -0.8551 -0.0941 0.5099
vn 0.7874 0.5433 -0.2913
vn 0.2131 -0.6869 -0.6948
vn 0.2115 -0.1645 -0.9634
vn -0.0000 0.2831 0.9591
vn -0.0000 0.0785 0.9969
vn 0.3682 0.2585 0.8931
vn -0.4876 -0.2595 0.8336
vn -0.3710 -0.2290 0.9000
vn -0.6111 0.0157 0.7914
vn -0.4490 -0.1418 0.8822
vn -0.2985 0.1493 0.9427
vn -0.3218 0.0942 0.9421
vn -0.5916 0.2288 0.7731
vn -0.5716 -0.1879 0.7987
vn 0.2132 -0.6869 -0.6948
vn -0.8887 -0.1730 0.4247
vn -0.8942 -0.0863 0.4393
vn -0.3135 -0.2743 0.9091
vn -0.7726 0.2681 0.5755
vn -0.8956 0.2985 0.3299
vn 0.5830 -0.0394 0.8115
vn 0.6140 0.2283 0.7556
vn -0.0000 0.4628 0.8865
vn -0.6385 0.4178 0.6463
vn -0.7163 -0.1338 0.6848
vn -0.8634 -0.0471 0.5024
vn -0.9533 -0.0394 0.2994
vn -0.9654 0.0942 0.2433
vn -0.9850 -0.0156 0.1719
vn -0.9943 0.1018 0.0313
vn -0.9932 0.0391 -0.1095
vn 0.5760 0.4182 0.7023
vn 0.7726 0.2681 0.5755
vn 0.8956 0.2985 0.3299
vn 0.9654 0.0942 0.2433
vn 0.9943 0.1018 0.0313
vn 0.9850 -0.0156 0.1719
vn 0.9932 0.0391 -0.1095
vn -0.6140 0.2283 0.7556
vn -0.0000 0.1568 0.9876
vn 0.4494 -0.3154 0.8358
vn -0.4090 0.0079 0.9125
vn -0.5830 -0.0394 0.8115
vn -0.4494 -0.3154 0.8358
vn -0.0000 -0.1733 0.9849
vn 0.3135 -0.2743 0.9091
vn -0.9751 -0.0865 0.2044
vn -0.8874 -0.0707 0.4555
vn 0.4490 -0.1418 0.8822
vt 0.868805 0.421570
vt 0.878326 0.304199
vt 0.801880 0.302673
vt 0.009308 0.586975
vt 0.032990 0.621338
vt 0.006927 0.602661
vt 0.721985 0.417267
vt 0.653717 0.461914
vt 0.653717 0.378876
vt 0.597351 0.571777
vt 0.549377 0.643646
vt 0.602814 0.682739
vt 0.001282 0.541260
vt 0.001282 0.373413
vt 0.036835 0.373413
vt 0.032990 0.610321
vt 0.006927 0.626709
vt 0.018372 0.654877
vt 0.032990 0.658783
vt 0.793579 0.379059
vt 0.793274 0.562622
vt 0.865875 0.552185
vt 0.793579 0.463684
vt 0.675201 0.571381
vt 0.608124 0.684967
vt 0.926392 0.411804
vt 0.927368 0.535217
vt 0.053650 0.654327
vt 0.129089 0.654327
vt 0.129089 0.479553
vt 0.499695 0.631439
vt 0.499695 0.567749
vt 0.547943 0.569397
vt 0.654266 0.004456
vt 0.653961 0.123688
vt 0.499695 0.004456
vt 0.499695 0.120239
vt 0.499695 0.230804
vt 0.729736 0.687134
vt 0.654663 0.327972
vt 0.782959 0.132660
vt 0.779938 0.004456
vt 0.615662 0.451355
vt 0.549347 0.472046
vt 0.499695 0.469421
vt 0.929474 0.164062
vt 0.975433 0.413086
vt 0.989624 0.004059
vt 0.993713 0.593323
vt 0.499695 0.408875
vt 0.578003 0.398682
vt 0.499695 0.341370
s 1
usemtl f_face080
f 71/42/71 72/43/72 73/44/73
f 74/45/74 75/46/75 76/47/76
f 77/48/77 78/49/78 79/50/79
f 80/51/80 81/52/81 82/53/82
f 83/54/83 84/55/84 85/56/85
f 86/57/86 87/45/87 88/46/88
f 88/46/88 87/45/87 89/47/89
f 89/47/89 90/58/90 88/46/88
f 88/46/88 90/58/90 91/59/91
f 88/46/88 91/59/91 92/60/92
f 93/50/93 94/48/94 95/61/95
f 71/42/71 96/62/96 97/63/97
f 98/64/98 99/49/99 100/65/100
f 100/65/100 99/49/99 80/51/80
f 100/65/100 80/51/80 101/66/101
f 101/66/101 80/51/80 82/53/82
f 72/43/72 71/42/71 102/67/102
f 102/67/102 71/42/71 97/63/97
f 102/67/102 97/63/97 103/68/103
f 104/69/104 83/54/83 105/70/105
f 105/70/105 83/54/83 85/56/85
f 105/70/105 85/56/85 106/71/106
f 107/52/107 108/72/108 109/73/109
f 109/73/109 108/72/108 81/52/81
f 109/73/109 81/52/81 110/74/110
f 110/74/110 81/52/81 80/51/80
f 111/75/111 112/76/112 113/77/113
f 114/70/114 115/71/115 116/56/116
f 75/46/75 74/45/74 117/57/117
f 118/60/114 119/59/118 75/46/75
f 75/46/75 119/59/118 120/58/119
f 75/46/75 120/58/119 76/47/76
f 121/78/120 122/79/121 123/76/122
f 124/44/123 125/61/124 79/50/79
f 79/50/79 125/61/124 77/48/77
f 126/62/125 127/80/126 128/65/127
f 128/65/127 127/80/126 129/66/128
f 128/65/127 129/66/128 130/51/129
f 130/51/129 129/66/128 131/53/130
f 132/69/131 114/70/114 133/54/132
f 133/54/132 114/70/114 116/56/116
f 133/54/132 116/56/116 134/55/133
f 79/50/79 135/81/134 124/44/123
f 124/44/123 135/81/134 112/76/112
f 124/44/123 112/76/112 136/82/135
f 136/82/135 112/76/112 111/75/111
f 136/82/135 111/75/111 137/83/136
f 99/49/99 138/84/137 80/51/80
f 80/51/80 138/84/137 139/85/138
f 80/51/80 139/85/138 110/74/110
f 110/74/110 139/85/138 140/86/139
f 110/74/110 140/86/139 109/73/109
f 109/73/109 140/86/139 141/74/140
f 109/73/109 141/74/140 107/52/107
f 142/42/141 143/43/142 144/67/143
f 144/67/143 143/43/142 145/87/144
f 144/67/143 145/87/144 146/88/145
f 146/88/145 145/87/144 147/89/146
f 146/88/145 147/89/146 148/90/147
f 135/81/134 122/79/121 112/76/112
f 112/76/112 122/79/121 121/78/120
f 112/76/112 121/78/120 113/77/113
f 113/77/113 121/78/120 123/76/122
f 113/77/113 123/76/122 149/75/148
f 149/75/148 123/76/122 150/82/149
f 149/75/148 150/82/149 151/83/150
f 151/83/150 150/82/149 152/87/151
f 151/83/150 152/87/151 153/89/152
f 153/89/152 152/87/151 154/88/153
f 153/89/152 154/88/153 155/90/154
f 131/53/130 107/52/107 130/51/129
f 130/51/129 107/52/107 141/74/140
f 130/51/129 141/74/140 156/85/155
f 156/85/155 141/74/140 140/86/139
f 156/85/155 140/86/139 157/91/156
f 157/91/156 140/86/139 139/85/138
f 157/91/156 139/85/138 158/92/157
f 158/92/157 139/85/138 138/84/137
f 158/92/157 138/84/137 93/50/93
f 93/50/93 138/84/137 99/49/99
f 93/50/93 99/49/99 94/48/94
f 94/48/94 99/49/99 98/64/98
f 94/48/94 98/64/98 95/61/95
f 78/49/78 77/48/77 159/64/158
f 159/64/158 77/48/77 125/61/124
f 159/64/158 125/61/124 142/42/141
f 142/42/141 125/61/124 124/44/123
f 142/42/141 124/44/123 143/43/142
f 143/43/142 124/44/123 136/82/135
f 143/43/142 136/82/135 145/87/144
f 145/87/144 136/82/135 137/83/136
f 145/87/144 137/83/136 147/89/146
f 78/49/78 160/84/159 79/50/79
f 79/50/79 160/84/159 161/92/160
f 79/50/79 161/92/160 135/81/134
f 135/81/134 161/92/160 162/93/161
f 135/81/134 162/93/161 122/79/121
f 122/79/121 162/93/161 163/81/162
f 122/79/121 163/81/162 123/76/122
f 123/76/122 163/81/162 73/44/73
f 123/76/122 73/44/73 150/82/149
f 150/82/149 73/44/73 72/43/72
f 150/82/149 72/43/72 152/87/151
f 152/87/151 72/43/72 102/67/102
f 152/87/151 102/67/102 154/88/153
f 154/88/153 102/67/102 103/68/103
f 146/88/145 164/68/163 144/67/143
f 144/67/143 164/68/163 165/63/164
f 144/67/143 165/63/164 142/42/141
f 142/42/141 165/63/164 126/62/125
f 142/42/141 126/62/125 159/64/158
f 159/64/158 126/62/125 128/65/127
f 159/64/158 128/65/127 78/49/78
f 78/49/78 128/65/127 130/51/129
f 78/49/78 130/51/129 160/84/159
f 160/84/159 130/51/129 156/85/155
f 160/84/159 156/85/155 161/92/160
f 161/92/160 156/85/155 157/91/156
f 161/92/160 157/91/156 162/93/161
f 162/93/161 157/91/156 158/92/157
f 162/93/161 158/92/157 163/81/162
f 163/81/162 158/92/157 93/50/93
f 163/81/162 93/50/93 73/44/73
f 73/44/73 93/50/93 95/61/95
f 73/44/73 95/61/95 71/42/71
f 71/42/71 95/61/95 98/64/98
f 71/42/71 98/64/98 96/62/96
f 96/62/96 98/64/98 100/65/100
f 96/62/96 100/65/100 166/80/165
f 166/80/165 100/65/100 101/66/101
