mtllib f_face003.mtl
o editpl_f-0000-1841
v 1.658672 47.429295 9.683211
v 1.468202 48.433514 9.690991
v 0.000000 47.355499 10.122196
v 2.756517 45.606941 7.651659
v 1.656027 44.958851 8.562968
v 1.949667 44.166386 7.216010
v -6.166450 46.871037 1.079119
v -7.542063 53.236439 -2.550558
v -4.113612 46.556618 0.512330
v -4.214138 48.064548 8.091754
v -2.076647 46.373741 8.893041
v -3.134811 48.391804 8.807467
v 7.743115 55.148624 0.346738
v 6.838384 52.232220 4.633225
v 7.171706 49.758568 0.271166
v 4.513069 45.581272 3.375175
v 5.941590 47.345875 3.368506
v 3.240627 45.212311 6.408056
v 6.166450 46.871037 1.079119
v 7.542063 53.236439 -2.550558
v 7.542063 53.236439 -2.550558
v 7.801314 49.745735 -1.209156
v 7.171706 49.758568 0.271166
v 3.134811 48.391804 8.807467
v 3.568658 52.360554 9.197550
v 2.034320 52.504929 9.534290
v 2.166591 50.438744 9.665430
v 1.973476 50.515743 9.668764
v 1.608409 49.007809 10.163316
v 2.076647 46.373741 8.893041
v 3.510459 46.553410 7.822808
v 4.214138 48.064548 8.091754
v 0.000000 49.120102 10.570071
v 0.000000 50.079407 10.407813
v -1.608409 49.007809 10.163316
v 0.000000 51.430126 11.742548
v -1.002610 51.237625 11.301341
v 0.000000 50.525368 11.239105
v -1.973476 50.515743 9.668764
v -7.171706 49.758568 0.271166
v -7.801314 49.745735 -1.209156
v -7.542063 53.236439 -2.550558
v -4.137421 46.332031 6.314703
v -3.240627 45.212311 6.408056
v -2.756517 45.606941 7.651659
v -1.949667 44.166386 7.216010
v -1.656027 44.958851 8.562968
v 0.000000 43.765339 3.215140
v -4.513069 45.581272 3.375175
v -5.941590 47.345875 3.368506
v -3.510459 46.553410 7.822808
v 6.589716 49.790653 3.941964
v 6.274912 52.097469 6.924834
v 5.772284 49.816319 6.982625
v 5.240557 47.801464 6.556976
v 4.137421 46.332031 6.314703
v -1.468202 48.433514 9.690991
v 0.000000 48.459179 9.898814
v 4.370217 50.031281 8.734117
v 5.142677 52.206551 8.324027
v 0.000000 46.312782 9.319799
v 0.000000 45.167397 9.103086
v 0.000000 44.349262 8.628538
v 0.000000 43.791004 7.828365
v 4.113612 46.556618 0.512330
v -1.658672 47.429295 9.683211
v 0.000000 46.874245 9.893257
v -7.743115 55.148624 0.346738
v -7.171706 49.758568 0.271166
v -6.838384 52.232220 4.633225
v -6.589716 49.790653 3.941964
v -6.274912 52.097469 6.924834
v -5.772284 49.816319 6.982625
v -5.142677 52.206551 8.324027
v -4.370217 50.031281 8.734117
v -3.568658 52.360554 9.197550
v -2.166591 50.438744 9.665430
v -2.034320 52.504929 9.534290
v -5.240557 47.801464 6.556976
v 1.002610 51.237625 11.301341
vn 0.3912 -0.2269 0.8919
vn 0.2830 -0.2122 0.9354
vn -0.0000 -0.0629 0.9980
vn 0.6845 -0.5272 0.5036
vn 0.4647 -0.5199 0.7168
vn 0.5031 -0.8019 0.3223
vn -0.6686 -0.6843 -0.2910
vn -0.6055 -0.4875 -0.6291
vn -0.2837 -0.7013 -0.6540
vn -0.6355 -0.3295 0.6983
vn -0.4408 -0.4014 0.8028
vn -0.5023 -0.2355 0.8320
vn 0.9830 -0.0315 0.1809
vn 0.9777 -0.0939 0.1877
vn 0.9407 -0.2823 0.1881
vn 0.6187 -0.7831 0.0627
vn 0.8494 -0.4797 0.2202
vn 0.7328 -0.5989 0.3231
vn 0.6686 -0.6843 -0.2910
vn 0.6055 -0.4875 -0.6291
vn -0.6359 0.1256 -0.7615
vn -0.2120 -0.6752 -0.7065
vn 0.9407 -0.2822 0.1881
vn 0.5023 -0.2355 0.8320
vn 0.3526 0.1880 0.9167
vn 0.4070 0.2818 0.8689
vn 0.3067 0.0236 0.9515
vn 0.5036 -0.1023 0.8578
vn 0.3067 -0.2123 0.9278
vn 0.4408 -0.4014 0.8028
vn 0.6578 -0.5247 0.5403
vn 0.6355 -0.3295 0.6983
vn -0.0000 -0.3139 0.9495
vn -0.0000 -0.1810 0.9835
vn -0.3067 -0.2123 0.9278
vn -0.0000 0.1260 0.9920
vn -0.6139 -0.1259 0.7792
vn -0.0000 -0.7303 0.6831
vn -0.5037 -0.1023 0.8578
vn -0.9407 -0.2822 0.1881
vn 0.2119 -0.6752 -0.7065
vn 0.6359 0.1256 -0.7615
vn -0.7305 -0.5891 0.3456
vn -0.7328 -0.5989 0.3231
vn -0.6845 -0.5271 0.5036
vn -0.5031 -0.8019 0.3223
vn -0.4647 -0.5199 0.7168
vn -0.0000 -0.9775 -0.2111
vn -0.6187 -0.7831 0.0626
vn -0.8494 -0.4797 0.2202
vn -0.6578 -0.5247 0.5403
vn 0.9503 -0.2278 0.2120
vn 0.9075 -0.0395 0.4182
vn 0.8320 -0.2355 0.5023
vn 0.8160 -0.4316 0.3845
vn 0.7305 -0.5891 0.3456
vn -0.2830 -0.2122 0.9354
vn -0.0000 -0.4314 0.9022
vn 0.5410 -0.1725 0.8232
vn 0.6740 0.0548 0.7367
vn -0.0000 -0.4722 0.8815
vn -0.0000 -0.3303 0.9439
vn -0.0000 -0.7303 0.6832
vn -0.0000 -0.9547 0.2974
vn 0.2837 -0.7013 -0.6540
vn -0.3912 -0.2269 0.8919
vn -0.0000 -0.5655 0.8247
vn -0.9830 -0.0315 0.1809
vn -0.9777 -0.0939 0.1877
vn -0.9503 -0.2278 0.2120
vn -0.9075 -0.0395 0.4182
vn -0.8320 -0.2355 0.5023
vn -0.6740 0.0548 0.7367
vn -0.5410 -0.1725 0.8232
vn -0.3526 0.1880 0.9167
vn -0.3067 0.0236 0.9515
vn -0.4070 0.2818 0.8689
vn -0.8160 -0.4316 0.3845
vn 0.6139 -0.1259 0.7792
vt 0.566498 0.850769
vt 0.565033 0.788208
vt 0.496185 0.847229
vt 0.676422 0.924622
vt 0.607147 0.941772
vt 0.596497 0.975433
vt 0.931824 0.970612
vt 0.987244 0.592682
vt 0.987244 0.987488
vt 0.736298 0.806396
vt 0.620697 0.896912
vt 0.652649 0.791260
vt 0.964844 0.395203
vt 0.927948 0.541656
vt 0.948669 0.637115
vt 0.827301 0.956299
vt 0.878113 0.890137
vt 0.724335 0.948700
vt 0.032990 0.621338
vt 0.018372 0.654877
vt 0.032990 0.658783
vt 0.710114 0.572784
vt 0.638947 0.558044
vt 0.606659 0.693970
vt 0.595978 0.685669
vt 0.566162 0.749298
vt 0.712921 0.876251
vt 0.496185 0.756897
vt 0.496185 0.703186
vt 0.496185 0.627930
vt 0.536926 0.638824
vt 0.496185 0.661072
vt 0.772064 0.905334
vt 0.496185 0.988159
vt 0.873138 0.685516
vt 0.866547 0.563477
vt 0.799103 0.704254
vt 0.807281 0.830750
vt 0.496185 0.788208
vt 0.710999 0.702789
vt 0.793030 0.577698
vt 0.496185 0.898651
vt 0.496185 0.944305
vt 0.496185 0.967438
vt 0.496185 0.983551
vt 0.496185 0.869354
s 1
usemtl f_face075
f 1/1/1 2/2/2 3/3/3
f 4/4/4 5/5/5 6/6/6
f 7/7/7 8/8/8 9/9/9
f 10/10/10 11/11/11 12/12/12
f 13/13/13 14/14/14 15/15/15
f 16/16/16 17/17/17 18/18/18
f 15/15/15 19/7/19 20/8/20
f 21/19/21 22/20/22 23/21/23
f 2/2/2 1/1/1 24/12/24
f 25/22/25 26/23/26 27/24/27
f 27/24/27 26/23/26 28/25/28
f 27/24/27 28/25/28 29/26/29
f 5/5/5 4/4/4 30/11/30
f 30/11/30 4/4/4 31/27/31
f 30/11/30 31/27/31 32/10/32
f 33/28/33 34/29/34 35/26/35
f 36/30/36 37/31/37 38/32/38
f 38/32/38 37/31/37 39/25/39
f 40/21/40 41/20/41 42/19/42
f 43/33/43 44/18/44 45/4/45
f 45/4/45 44/18/44 46/6/46
f 45/4/45 46/6/46 47/5/47
f 9/9/9 48/34/48 7/7/7
f 7/7/7 48/34/48 49/16/49
f 7/7/7 49/16/49 50/17/50
f 47/5/47 11/11/11 45/4/45
f 45/4/45 11/11/11 51/27/51
f 45/4/45 51/27/51 43/33/43
f 16/16/16 19/7/19 17/17/17
f 17/17/17 19/7/19 15/15/15
f 17/17/17 15/15/15 52/35/52
f 52/35/52 15/15/15 14/14/14
f 52/35/52 14/14/14 53/36/53
f 53/36/53 54/37/54 52/35/52
f 52/35/52 54/37/54 55/38/55
f 52/35/52 55/38/55 17/17/17
f 17/17/17 55/38/55 56/33/56
f 17/17/17 56/33/56 18/18/18
f 57/2/57 3/3/3 58/39/58
f 58/39/58 3/3/3 2/2/2
f 58/39/58 2/2/2 29/26/29
f 29/26/29 2/2/2 24/12/24
f 29/26/29 24/12/24 27/24/27
f 27/24/27 24/12/24 59/40/59
f 27/24/27 59/40/59 25/22/25
f 25/22/25 59/40/59 60/41/60
f 61/42/61 11/11/11 62/43/62
f 62/43/62 11/11/11 47/5/47
f 62/43/62 47/5/47 63/44/63
f 63/44/63 47/5/47 46/6/46
f 63/44/63 46/6/46 64/45/64
f 54/37/54 32/10/32 55/38/55
f 55/38/55 32/10/32 31/27/31
f 55/38/55 31/27/31 56/33/56
f 56/33/56 31/27/31 4/4/4
f 56/33/56 4/4/4 18/18/18
f 18/18/18 4/4/4 6/6/6
f 18/18/18 6/6/6 16/16/16
f 16/16/16 6/6/6 48/34/48
f 16/16/16 48/34/48 19/7/19
f 19/7/19 48/34/48 65/9/65
f 19/7/19 65/9/65 20/8/20
f 57/2/57 66/1/66 3/3/3
f 3/3/3 66/1/66 67/46/67
f 3/3/3 67/46/67 1/1/1
f 1/1/1 67/46/67 30/11/30
f 1/1/1 30/11/30 24/12/24
f 24/12/24 30/11/30 32/10/32
f 24/12/24 32/10/32 59/40/59
f 59/40/59 32/10/32 54/37/54
f 59/40/59 54/37/54 60/41/60
f 60/41/60 54/37/54 53/36/53
f 68/13/68 69/15/40 70/14/69
f 70/14/69 69/15/40 71/35/70
f 70/14/69 71/35/70 72/36/71
f 72/36/71 71/35/70 73/37/72
f 72/36/71 73/37/72 74/41/73
f 74/41/73 73/37/72 75/40/74
f 74/41/73 75/40/74 76/22/75
f 76/22/75 75/40/74 77/24/76
f 76/22/75 77/24/76 78/23/77
f 78/23/77 77/24/76 39/25/39
f 8/8/8 7/7/7 69/15/40
f 69/15/40 7/7/7 50/17/50
f 69/15/40 50/17/50 71/35/70
f 71/35/70 50/17/50 79/38/78
f 71/35/70 79/38/78 73/37/72
f 73/37/72 79/38/78 10/10/10
f 73/37/72 10/10/10 75/40/74
f 75/40/74 10/10/10 12/12/12
f 75/40/74 12/12/12 77/24/76
f 77/24/76 12/12/12 35/26/35
f 77/24/76 35/26/35 39/25/39
f 39/25/39 35/26/35 34/29/34
f 39/25/39 34/29/34 38/32/38
f 11/11/11 10/10/10 51/27/51
f 51/27/51 10/10/10 79/38/78
f 51/27/51 79/38/78 43/33/43
f 43/33/43 79/38/78 50/17/50
f 43/33/43 50/17/50 44/18/44
f 44/18/44 50/17/50 49/16/49
f 44/18/44 49/16/49 46/6/46
f 46/6/46 49/16/49 48/34/48
f 46/6/46 48/34/48 64/45/64
f 64/45/64 48/34/48 6/6/6
f 64/45/64 6/6/6 63/44/63
f 63/44/63 6/6/6 5/5/5
f 63/44/63 5/5/5 62/43/62
f 62/43/62 5/5/5 30/11/30
f 62/43/62 30/11/30 61/42/61
f 61/42/61 30/11/30 67/46/67
f 61/42/61 67/46/67 11/11/11
f 11/11/11 67/46/67 66/1/66
f 11/11/11 66/1/66 12/12/12
f 12/12/12 66/1/66 57/2/57
f 12/12/12 57/2/57 35/26/35
f 35/26/35 57/2/57 58/39/58
f 35/26/35 58/39/58 33/28/33
f 33/28/33 58/39/58 29/26/29
f 33/28/33 29/26/29 34/29/34
f 34/29/34 29/26/29 28/25/28
f 34/29/34 28/25/28 38/32/38
f 38/32/38 28/25/28 80/31/79
f 38/32/38 80/31/79 36/30/36
o editpl_f-0000-1842
v 0.880921 54.984997 9.725443
v 0.000000 56.310055 10.295568
v 0.000000 55.001041 9.892146
v 5.830483 59.617882 7.213786
v 6.161160 55.918633 7.368264
v 7.179642 58.392284 4.621000
v 6.729923 54.134781 5.430065
v 6.838384 52.232220 4.633225
v 7.743115 55.148624 0.346738
v 0.000000 60.256348 9.837688
v 0.000000 58.273575 10.276673
v 3.341153 60.140846 8.998617
v 9.491730 52.739140 -2.903968
v 9.700718 54.972164 -2.869516
v 8.986457 56.120762 -1.190263
v 7.743115 55.148624 0.346738
v 8.986457 56.120762 -1.190263
v 7.542063 53.236439 -2.550558
v 9.700718 54.972164 -2.869516
v 9.491730 52.739140 -2.903968
v 7.801314 49.745735 -1.209156
v 4.822582 55.232044 8.254012
v 2.240662 55.158249 8.886373
v 3.444324 54.529411 8.776348
v 4.796128 53.714485 8.088420
v 5.925718 53.730526 6.999295
v 5.743185 54.766830 7.296026
v 7.801314 49.745735 -1.209156
v 7.171706 49.758568 0.271166
v 7.743115 55.148624 0.346738
v -2.034320 52.504929 9.534290
v -1.973476 50.515743 9.668764
v -0.846531 52.068592 10.967936
v -1.002610 51.237625 11.301341
v 0.000000 51.430126 11.742548
v -7.171706 49.758568 0.271166
v -7.743115 55.148624 0.346738
v -8.986457 56.120762 -1.190263
v -7.801314 49.745735 -1.209156
v -9.491730 52.739140 -2.903968
v -7.542063 53.236439 -2.550558
v -9.700718 54.972164 -2.869516
v -8.986457 56.120762 -1.190263
v -7.743115 55.148624 0.346738
v -4.796128 53.714485 8.088420
v -2.282989 53.884529 8.844140
v -3.444324 54.529411 8.776348
v -7.801314 49.745735 -1.209156
v -9.491730 52.739140 -2.903968
v -9.700718 54.972164 -2.869516
v 2.677155 56.560307 9.764340
v 4.912526 56.608433 8.828581
v -7.542063 53.236439 -2.550558
v -7.743115 55.148624 0.346738
v -7.534127 59.544086 0.082236
v -7.179642 58.392284 4.621000
v -6.388665 61.982449 4.224246
v -5.830483 59.617882 7.213786
v -3.851717 63.461506 7.007073
v -3.341153 60.140846 8.998617
v 0.000000 63.775925 8.289575
v -2.240662 55.158249 8.886373
v -1.584600 54.426743 8.798575
v -0.880921 54.984997 9.725443
v -0.690452 52.928436 10.452268
v 0.000000 53.098476 10.754555
v 0.000000 52.190510 11.383581
v 0.690452 52.928436 10.452268
v 0.846531 52.068592 10.967936
v 2.034320 52.504929 9.534290
v 1.973476 50.515743 9.668764
v -3.568658 52.360554 9.197550
v -5.142677 52.206551 8.324027
v -5.925718 53.730526 6.999295
v -6.274912 52.097469 6.924834
v -6.729923 54.134781 5.430065
v -5.743185 54.766830 7.296026
v -6.161160 55.918633 7.368264
v -4.822582 55.232044 8.254012
v -4.912526 56.608433 8.828581
v -2.677155 56.560307 9.764340
v -6.838384 52.232220 4.633225
v 2.282989 53.884529 8.844140
v 1.584600 54.426743 8.798575
v 1.002610 51.237625 11.301341
v 6.274912 52.097469 6.924834
v 5.142677 52.206551 8.324027
v 3.568658 52.360554 9.197550
v 3.851717 63.461506 7.007073
v 6.388665 61.982449 4.224246
v 7.534127 59.544086 0.082236
v 7.542063 53.236439 -2.550558
vn 0.4464 -0.1331 0.8849
vn -0.0000 -0.1809 0.9835
vn -0.0000 0.0629 0.9980
vn 0.7804 0.2444 0.5755
vn 0.8086 -0.1334 0.5731
vn 0.9648 0.0784 0.2510
vn 0.9372 -0.0394 0.3465
vn 0.9777 -0.0939 0.1877
vn 0.9830 -0.0315 0.1808
vn -0.0000 0.3068 0.9518
vn -0.0000 0.1260 0.9920
vn 0.3853 0.2752 0.8808
vn 0.8821 -0.1654 0.4410
vn 0.8942 -0.0863 0.4393
vn 0.8544 -0.1019 0.5095
vn -0.7919 0.5331 -0.2979
vn -0.6859 0.5597 -0.4651
vn -0.6359 0.1256 -0.7615
vn -0.3852 0.3223 -0.8647
vn -0.2115 -0.1645 -0.9634
vn -0.2120 -0.6751 -0.7066
vn 0.4882 -0.1575 0.8584
vn 0.2676 -0.2834 0.9209
vn 0.2440 -0.0551 0.9682
vn 0.5266 0.0472 0.8488
vn 0.7911 0.1018 0.6031
vn 0.7519 -0.1488 0.6423
vn -0.2120 -0.6752 -0.7065
vn 0.9407 -0.2822 0.1882
vn 0.9830 -0.0315 0.1809
vn -0.4071 0.2818 0.8688
vn -0.5037 -0.1023 0.8578
vn -0.6126 0.3691 0.6989
vn -0.6140 -0.1259 0.7792
vn -0.9407 -0.2822 0.1882
vn -0.9830 -0.0314 0.1809
vn -0.8544 -0.1019 0.5095
vn 0.2120 -0.6751 -0.7066
vn 0.2115 -0.1645 -0.9634
vn 0.6359 0.1256 -0.7615
vn 0.3852 0.3223 -0.8647
vn 0.6859 0.5597 -0.4651
vn 0.7919 0.5331 -0.2979
vn -0.5266 0.0472 0.8488
vn -0.1729 0.1415 0.9747
vn -0.2440 -0.0551 0.9682
vn 0.2120 -0.6752 -0.7065
vn -0.8821 -0.1654 0.4411
vn -0.8942 -0.0863 0.4393
vn 0.3288 -0.1957 0.9239
vn 0.5283 -0.1498 0.8358
vn -0.9948 0.0392 -0.0940
vn -0.9830 -0.0315 0.1808
vn -0.9940 0.1018 0.0391
vn -0.9648 0.0784 0.2510
vn -0.8956 0.2985 0.3299
vn -0.7804 0.2444 0.5755
vn -0.5760 0.4182 0.7023
vn -0.3853 0.2752 0.8808
vn -0.0000 0.4409 0.8976
vn -0.2676 -0.2834 0.9209
vn -0.4708 0.0784 0.8788
vn -0.4464 -0.1331 0.8849
vn -0.5719 0.3917 0.7208
vn -0.0000 0.4250 0.9052
vn -0.0000 0.5272 0.8498
vn 0.5719 0.3917 0.7208
vn 0.6126 0.3691 0.6989
vn 0.4071 0.2818 0.8688
vn 0.5037 -0.1023 0.8578
vn -0.3526 0.1881 0.9167
vn -0.6740 0.0549 0.7367
vn -0.7911 0.1018 0.6031
vn -0.9075 -0.0394 0.4182
vn -0.9372 -0.0394 0.3465
vn -0.7519 -0.1488 0.6423
vn -0.8086 -0.1334 0.5730
vn -0.4883 -0.1575 0.8584
vn -0.5283 -0.1498 0.8358
vn -0.3288 -0.1957 0.9239
vn -0.9777 -0.0939 0.1877
vn 0.1729 0.1415 0.9747
vn 0.4708 0.0784 0.8788
vn 0.6140 -0.1259 0.7792
vn 0.9075 -0.0394 0.4182
vn 0.6740 0.0549 0.7367
vn 0.3526 0.1881 0.9167
vn 0.5760 0.4182 0.7023
vn 0.8956 0.2985 0.3299
vn 0.9940 0.1017 0.0391
vn 0.9948 0.0392 -0.0940
vt 0.552704 0.400238
vt 0.496185 0.288361
vt 0.496185 0.389130
vt 0.797577 0.138977
vt 0.854858 0.324615
vt 0.898956 0.179138
vt 0.918671 0.392365
vt 0.927948 0.541656
vt 0.964844 0.395203
vt 0.496185 0.107605
vt 0.496185 0.199585
vt 0.669647 0.116516
vt 0.013580 0.541260
vt 0.013580 0.373413
vt 0.036835 0.373413
vt 0.032990 0.610321
vt 0.014557 0.586975
vt 0.032990 0.621338
vt 0.012177 0.602661
vt 0.012177 0.626709
vt 0.018372 0.654877
vt 0.794800 0.372437
vt 0.660004 0.373260
vt 0.717468 0.403900
vt 0.790955 0.459595
vt 0.856659 0.448608
vt 0.852112 0.400543
vt 0.053650 0.654327
vt 0.129089 0.654327
vt 0.129089 0.479553
vt 0.638947 0.558044
vt 0.595978 0.685669
vt 0.536438 0.585815
vt 0.536926 0.638824
vt 0.496185 0.627930
vt 0.652832 0.444611
vt 0.656677 0.295105
vt 0.792450 0.304047
vt 0.986145 0.593323
vt 0.986298 0.050262
vt 0.779938 0.012573
vt 0.669983 0.012573
vt 0.496185 0.012573
vt 0.598022 0.423798
vt 0.535950 0.532776
vt 0.496185 0.529999
vt 0.496185 0.578949
vt 0.710114 0.572784
vt 0.793030 0.577698
vt 0.866547 0.563477
s 1
usemtl f_face075
f 81/47/80 82/48/81 83/49/82
f 84/50/83 85/51/84 86/52/85
f 87/53/86 88/54/87 89/55/88
f 90/56/89 91/57/90 92/58/91
f 93/59/92 94/60/93 95/61/94
f 96/62/95 97/63/96 98/64/97
f 97/63/96 99/65/98 98/64/97
f 98/64/97 99/65/98 100/66/99
f 98/64/97 100/66/99 101/67/100
f 102/68/101 103/69/102 104/70/103
f 105/71/104 106/72/105 107/73/106
f 107/73/106 106/72/105 87/53/86
f 108/74/107 93/59/92 109/75/108
f 109/75/108 93/59/92 95/61/94
f 109/75/108 95/61/94 110/76/109
f 111/77/110 112/78/111 113/79/112
f 113/79/112 112/78/111 114/80/113
f 113/79/112 114/80/113 115/81/90
f 116/75/114 117/76/115 118/61/116
f 119/67/117 120/66/118 121/64/119
f 120/66/118 122/65/120 121/64/119
f 121/64/119 122/65/120 123/63/121
f 121/64/119 123/63/121 124/62/122
f 125/71/123 126/82/124 127/70/125
f 128/74/126 116/75/114 129/59/127
f 129/59/127 116/75/114 118/61/116
f 129/59/127 118/61/116 130/60/128
f 82/48/81 81/47/80 131/83/129
f 131/83/129 81/47/80 103/69/102
f 131/83/129 103/69/102 132/84/130
f 132/84/130 103/69/102 102/68/101
f 132/84/130 102/68/101 85/51/84
f 133/85/131 134/55/132 135/86/133
f 135/86/133 134/55/132 136/52/134
f 135/86/133 136/52/134 137/87/135
f 137/87/135 136/52/134 138/50/136
f 137/87/135 138/50/136 139/88/137
f 139/88/137 138/50/136 140/58/138
f 139/88/137 140/58/138 141/89/139
f 142/69/140 143/90/141 144/47/142
f 144/47/142 143/90/141 145/91/143
f 144/47/142 145/91/143 146/92/144
f 146/92/144 145/91/143 147/93/145
f 146/92/144 147/93/145 148/91/146
f 148/91/146 147/93/145 149/79/147
f 148/91/146 149/79/147 150/77/148
f 150/77/148 149/79/147 151/78/149
f 85/51/84 84/50/83 132/84/130
f 132/84/130 84/50/83 92/58/91
f 132/84/130 92/58/91 131/83/129
f 131/83/129 92/58/91 91/57/90
f 131/83/129 91/57/90 82/48/81
f 111/77/110 126/82/124 152/94/150
f 152/94/150 126/82/124 125/71/123
f 152/94/150 125/71/123 153/95/151
f 153/95/151 125/71/123 154/72/152
f 153/95/151 154/72/152 155/96/153
f 156/53/154 157/73/155 158/51/156
f 158/51/156 157/73/155 159/68/157
f 158/51/156 159/68/157 160/84/158
f 160/84/158 159/68/157 142/69/140
f 160/84/158 142/69/140 161/83/159
f 161/83/159 142/69/140 144/47/142
f 161/83/159 140/58/138 160/84/158
f 160/84/158 140/58/138 138/50/136
f 160/84/158 138/50/136 158/51/156
f 158/51/156 138/50/136 136/52/134
f 158/51/156 136/52/134 156/53/154
f 156/53/154 136/52/134 134/55/132
f 156/53/154 134/55/132 162/54/160
f 89/55/88 86/52/85 87/53/86
f 87/53/86 86/52/85 85/51/84
f 87/53/86 85/51/84 107/73/106
f 107/73/106 85/51/84 102/68/101
f 107/73/106 102/68/101 105/71/104
f 105/71/104 102/68/101 104/70/103
f 105/71/104 104/70/103 163/82/161
f 163/82/161 104/70/103 103/69/102
f 163/82/161 103/69/102 164/90/162
f 164/90/162 103/69/102 81/47/80
f 162/54/160 155/96/153 156/53/154
f 156/53/154 155/96/153 154/72/152
f 156/53/154 154/72/152 157/73/155
f 157/73/155 154/72/152 125/71/123
f 157/73/155 125/71/123 159/68/157
f 159/68/157 125/71/123 127/70/125
f 159/68/157 127/70/125 142/69/140
f 142/69/140 127/70/125 126/82/124
f 142/69/140 126/82/124 143/90/141
f 143/90/141 126/82/124 111/77/110
f 143/90/141 111/77/110 145/91/143
f 145/91/143 111/77/110 113/79/112
f 145/91/143 113/79/112 147/93/145
f 147/93/145 113/79/112 115/81/90
f 147/93/145 115/81/90 149/79/147
f 149/79/147 115/81/90 165/80/163
f 149/79/147 165/80/163 151/78/149
f 88/54/87 87/53/86 166/96/164
f 166/96/164 87/53/86 106/72/105
f 166/96/164 106/72/105 167/95/165
f 167/95/165 106/72/105 105/71/104
f 167/95/165 105/71/104 168/94/166
f 168/94/166 105/71/104 163/82/161
f 168/94/166 163/82/161 150/77/148
f 150/77/148 163/82/161 164/90/162
f 150/77/148 164/90/162 148/91/146
f 148/91/146 164/90/162 81/47/80
f 148/91/146 81/47/80 146/92/144
f 146/92/144 81/47/80 83/49/82
f 146/92/144 83/49/82 144/47/142
f 144/47/142 83/49/82 82/48/81
f 144/47/142 82/48/81 161/83/159
f 161/83/159 82/48/81 91/57/90
f 161/83/159 91/57/90 140/58/138
f 140/58/138 91/57/90 90/56/89
f 140/58/138 90/56/89 141/89/139
f 141/89/139 90/56/89 92/58/91
f 141/89/139 92/58/91 169/88/167
f 169/88/167 92/58/91 84/50/83
f 169/88/167 84/50/83 170/87/168
f 170/87/168 84/50/83 86/52/85
f 170/87/168 86/52/85 171/86/169
f 171/86/169 86/52/85 89/55/88
f 171/86/169 89/55/88 172/85/170
