mtllib f_face005.mtl
o editpl_f-0000-1845
v -5.796093 47.252834 4.090886
v -4.248528 46.113865 6.422503
v -4.991888 47.387585 6.553642
v -7.108216 49.758568 0.271166
v -6.470672 47.933006 2.254930
v -6.687596 49.742527 3.824160
v 5.788157 49.710442 6.970400
v 4.883427 52.161636 8.271794
v 4.161230 50.098656 8.730783
v -1.560792 48.362926 9.558741
v -1.560792 47.166206 9.733222
v -0.727488 48.401428 9.914373
v 7.542063 53.236439 -2.550558
v 7.801314 49.745735 -1.209156
v 7.108216 49.758568 0.271166
v 6.687596 49.742527 3.824160
v 6.470672 47.933006 2.254930
v 7.108216 49.758568 0.271166
v 6.121478 47.114872 1.219150
v 7.542063 53.236439 -2.550558
v 3.275017 44.801640 6.021306
v 4.248528 46.113865 6.422503
v 2.920532 45.388771 7.709450
v 3.394061 46.514908 7.767240
v 2.312088 46.219738 8.758566
v 0.000000 43.765339 3.215140
v 2.002575 44.070133 7.738345
v 1.759198 44.795223 8.851920
v 2.023739 50.586327 9.477612
v 1.917922 50.672955 9.512063
v 0.000000 49.861237 10.355580
v 1.187789 51.195915 11.411366
v 0.000000 50.506119 11.380247
v 2.777680 48.478432 8.974168
v 1.232761 49.264481 10.472272
v 1.560792 48.362926 9.558741
v -7.108216 49.758568 0.271166
v -7.801314 49.745735 -1.209156
v -7.542063 53.236439 -2.550558
v 0.000000 45.956654 9.245338
v -2.312088 46.219738 8.758566
v 0.000000 45.212311 9.493170
v -1.759198 44.795223 8.851920
v 0.000000 44.269051 9.149762
v -3.275017 44.801640 6.021306
v -5.187649 45.988735 3.013984
v 0.000000 48.295551 10.044401
v 0.000000 47.554420 10.149980
v 0.000000 46.925579 10.003282
v -2.777680 48.478432 8.974168
v -3.833199 47.573669 7.970617
v -6.121478 47.114872 1.219150
v -7.542063 53.236439 -2.550558
v -3.870235 46.556618 0.512330
v 6.200841 52.232220 6.948173
v 7.229905 52.707058 4.651007
v 7.743115 55.148624 0.346738
v -7.743115 55.148624 0.346738
v -7.229905 52.707058 4.651007
v -6.200841 52.232220 6.948173
v -5.788157 49.710442 6.970400
v -4.883427 52.161636 8.271794
v -4.161230 50.098656 8.730783
v 0.000000 43.637005 8.181775
v -2.002575 44.070133 7.738345
v -2.920532 45.388771 7.709450
v -3.394061 46.514908 7.767240
v 0.000000 51.253666 11.935924
v -1.187789 51.195915 11.411366
v -1.917922 50.672955 9.512063
v -2.023739 50.586327 9.477612
v 3.833199 47.573669 7.970617
v 4.991888 47.387585 6.553642
v 5.796093 47.252834 4.090886
v 5.187649 45.988735 3.013984
v -1.232761 49.264481 10.472272
v 0.000000 49.299770 10.744554
v 0.727488 48.401428 9.914373
v 1.560792 47.166206 9.733222
v 3.870235 46.556618 0.512330
vn -0.8495 -0.4719 0.2360
vn -0.7525 -0.5173 0.4076
vn -0.7972 -0.4025 0.4499
vn -0.9425 -0.3063 0.1335
vn -0.9168 -0.3840 0.1097
vn -0.9383 -0.2523 0.2365
vn 0.8028 -0.2282 0.5509
vn 0.5649 0.0471 0.8238
vn 0.4948 -0.0943 0.8639
vn -0.4011 -0.2517 0.8808
vn -0.3765 -0.1256 0.9178
vn -0.2601 -0.2601 0.9299
vn -0.6312 0.1263 -0.7653
vn -0.2055 -0.6720 -0.7115
vn 0.9425 -0.3064 0.1335
vn 0.9383 -0.2523 0.2365
vn 0.9168 -0.3840 0.1097
vn 0.9425 -0.3063 0.1335
vn 0.6693 -0.6614 -0.3386
vn 0.5968 -0.5183 -0.6125
vn 0.6573 -0.7355 0.1643
vn 0.7525 -0.5173 0.4076
vn 0.7382 -0.4319 0.5183
vn 0.6941 -0.3865 0.6073
vn 0.5129 -0.2762 0.8128
vn -0.0000 -0.9771 -0.2127
vn 0.4881 -0.8109 0.3227
vn 0.5116 -0.4093 0.7555
vn 0.3914 0.1487 0.9081
vn 0.7149 -0.0000 0.6992
vn -0.0000 -0.1018 0.9948
vn 0.6440 -0.2277 0.7303
vn -0.0000 -0.7303 0.6831
vn 0.5354 -0.1732 0.8267
vn 0.3833 -0.1251 0.9151
vn 0.4011 -0.2517 0.8808
vn -0.9425 -0.3064 0.1335
vn 0.2055 -0.6720 -0.7115
vn 0.6312 0.1263 -0.7653
vn -0.0000 -0.1644 0.9864
vn -0.5129 -0.2762 0.8128
vn -0.0000 -0.0236 0.9997
vn -0.5116 -0.4093 0.7555
vn -0.0000 -0.6871 0.7266
vn -0.6573 -0.7355 0.1643
vn -0.6871 -0.7266 -0.0000
vn -0.0000 -0.2277 0.9737
vn -0.0000 -0.0158 0.9999
vn -0.0000 -0.4970 0.8678
vn -0.5354 -0.1732 0.8267
vn -0.6453 -0.3226 0.6925
vn -0.6693 -0.6614 -0.3386
vn -0.5968 -0.5183 -0.6125
vn -0.3614 -0.7227 -0.5891
vn 0.8246 -0.0157 0.5654
vn 0.9711 -0.0940 0.2193
vn 0.9864 -0.0079 0.1644
vn -0.9864 -0.0079 0.1644
vn -0.9711 -0.0940 0.2193
vn -0.8246 -0.0157 0.5654
vn -0.8028 -0.2282 0.5509
vn -0.5649 0.0471 0.8238
vn -0.4948 -0.0943 0.8639
vn -0.0000 -0.9639 0.2664
vn -0.4881 -0.8109 0.3227
vn -0.7382 -0.4319 0.5183
vn -0.6941 -0.3865 0.6073
vn -0.0000 -0.2518 0.9678
vn -0.6440 -0.2277 0.7304
vn -0.7149 -0.0000 0.6992
vn -0.3914 0.1487 0.9081
vn 0.6453 -0.3226 0.6925
vn 0.7972 -0.4025 0.4499
vn 0.8495 -0.4719 0.2360
vn 0.6871 -0.7266 -0.0000
vn -0.3833 -0.1251 0.9151
vn -0.0000 -0.2351 0.9720
vn 0.2601 -0.2601 0.9299
vn 0.3765 -0.1256 0.9178
vn 0.3614 -0.7227 -0.5891
vt 0.826691 0.842163
vt 0.775391 0.882629
vt 0.803284 0.830322
vt 0.967621 0.737885
vt 0.873566 0.865814
vt 0.863678 0.728851
vt 0.825378 0.723663
vt 0.758057 0.570618
vt 0.710175 0.707550
vt 0.561096 0.800751
vt 0.585022 0.855499
vt 0.530396 0.803680
vt 0.032990 0.621338
vt 0.018372 0.654877
vt 0.032990 0.658783
vt 0.942169 0.943268
vt 0.988647 0.593323
vt 0.749817 0.963928
vt 0.677216 0.899445
vt 0.728516 0.858978
vt 0.632477 0.873047
vt 0.499695 0.987823
vt 0.586487 0.977356
vt 0.612823 0.934967
vt 0.601349 0.685272
vt 0.595245 0.682739
vt 0.499695 0.703186
vt 0.549377 0.643646
vt 0.499695 0.663361
vt 0.644501 0.801727
vt 0.567017 0.759796
vt 0.499695 0.891876
vt 0.499695 0.929504
vt 0.499695 0.952637
vt 0.846008 0.953583
vt 0.499695 0.806610
vt 0.499695 0.834045
vt 0.499695 0.863739
vt 0.779846 0.818512
vt 0.988647 0.987823
vt 0.838745 0.533539
vt 0.914154 0.550079
vt 0.975433 0.377716
vt 0.499695 0.977356
vt 0.499695 0.627777
vt 0.499695 0.760040
s 1
usemtl f_face077
f 1/1/1 2/2/2 3/3/3
f 4/4/4 5/5/5 6/6/6
f 7/7/7 8/8/8 9/9/9
f 10/10/10 11/11/11 12/12/12
f 13/13/13 14/14/14 15/15/15
f 16/6/16 17/5/17 18/4/18
f 18/4/18 17/5/17 19/16/19
f 18/4/18 19/16/19 20/17/20
f 21/18/21 22/2/22 23/19/23
f 23/19/23 22/2/22 24/20/24
f 23/19/23 24/20/24 25/21/25
f 26/22/26 21/18/21 27/23/27
f 27/23/27 21/18/21 23/19/23
f 27/23/27 23/19/23 28/24/28
f 28/24/28 23/19/23 25/21/25
f 29/25/29 30/26/30 31/27/31
f 31/27/31 30/26/30 32/28/32
f 31/27/31 32/28/32 33/29/33
f 34/30/34 35/31/35 36/10/36
f 37/15/37 38/14/38 39/13/39
f 40/32/40 41/21/41 42/33/42
f 42/33/42 41/21/41 43/24/43
f 42/33/42 43/24/43 44/34/44
f 2/2/2 1/1/1 45/18/45
f 45/18/45 1/1/1 46/35/46
f 45/18/45 46/35/46 26/22/26
f 47/36/47 12/12/12 48/37/48
f 48/37/48 12/12/12 11/11/11
f 48/37/48 11/11/11 49/38/49
f 50/30/50 51/39/51 41/21/41
f 5/5/5 4/4/4 52/16/52
f 52/16/52 4/4/4 53/17/53
f 52/16/52 53/17/53 54/40/54
f 8/8/8 7/7/7 55/41/55
f 55/41/55 7/7/7 16/6/16
f 55/41/55 16/6/16 56/42/56
f 56/42/56 16/6/16 18/4/18
f 56/42/56 18/4/18 57/43/57
f 58/43/58 4/4/4 59/42/59
f 59/42/59 4/4/4 6/6/6
f 59/42/59 6/6/6 60/41/60
f 60/41/60 6/6/6 61/7/61
f 60/41/60 61/7/61 62/8/62
f 62/8/62 61/7/61 63/9/63
f 64/44/64 44/34/44 65/23/65
f 65/23/65 44/34/44 43/24/43
f 65/23/65 43/24/43 66/19/66
f 66/19/66 43/24/43 41/21/41
f 66/19/66 41/21/41 67/20/67
f 67/20/67 41/21/41 51/39/51
f 32/28/32 68/45/68 33/29/33
f 33/29/33 68/45/68 69/28/69
f 33/29/33 69/28/69 31/27/31
f 31/27/31 69/28/69 70/26/70
f 31/27/31 70/26/70 71/25/71
f 31/27/31 35/31/35 29/25/29
f 29/25/29 35/31/35 34/30/34
f 29/25/29 34/30/34 9/9/9
f 9/9/9 34/30/34 72/39/72
f 9/9/9 72/39/72 7/7/7
f 7/7/7 72/39/72 73/3/73
f 7/7/7 73/3/73 16/6/16
f 16/6/16 73/3/73 74/1/74
f 16/6/16 74/1/74 17/5/17
f 17/5/17 74/1/74 75/35/75
f 17/5/17 75/35/75 19/16/19
f 51/39/51 3/3/3 67/20/67
f 67/20/67 3/3/3 2/2/2
f 67/20/67 2/2/2 66/19/66
f 66/19/66 2/2/2 45/18/45
f 66/19/66 45/18/45 65/23/65
f 65/23/65 45/18/45 26/22/26
f 65/23/65 26/22/26 64/44/64
f 64/44/64 26/22/26 27/23/27
f 64/44/64 27/23/27 44/34/44
f 44/34/44 27/23/27 28/24/28
f 44/34/44 28/24/28 42/33/42
f 42/33/42 28/24/28 25/21/25
f 42/33/42 25/21/25 40/32/40
f 40/32/40 25/21/25 49/38/49
f 40/32/40 49/38/49 41/21/41
f 41/21/41 49/38/49 11/11/11
f 41/21/41 11/11/11 50/30/50
f 50/30/50 11/11/11 10/10/10
f 50/30/50 10/10/10 76/31/76
f 76/31/76 10/10/10 12/12/12
f 76/31/76 12/12/12 77/46/77
f 77/46/77 12/12/12 47/36/47
f 77/46/77 47/36/47 78/12/78
f 78/12/78 47/36/47 48/37/48
f 78/12/78 48/37/48 79/11/79
f 79/11/79 48/37/48 49/38/49
f 79/11/79 49/38/49 25/21/25
f 54/40/54 26/22/26 52/16/52
f 52/16/52 26/22/26 46/35/46
f 52/16/52 46/35/46 5/5/5
f 5/5/5 46/35/46 1/1/1
f 5/5/5 1/1/1 6/6/6
f 6/6/6 1/1/1 3/3/3
f 6/6/6 3/3/3 61/7/61
f 61/7/61 3/3/3 51/39/51
f 61/7/61 51/39/51 63/9/63
f 63/9/63 51/39/51 50/30/50
f 63/9/63 50/30/50 71/25/71
f 71/25/71 50/30/50 76/31/76
f 71/25/71 76/31/76 31/27/31
f 31/27/31 76/31/76 77/46/77
f 31/27/31 77/46/77 35/31/35
f 35/31/35 77/46/77 78/12/78
f 35/31/35 78/12/78 36/10/36
f 36/10/36 78/12/78 79/11/79
f 36/10/36 79/11/79 34/30/34
f 34/30/34 79/11/79 25/21/25
f 34/30/34 25/21/25 72/39/72
f 72/39/72 25/21/25 24/20/24
f 72/39/72 24/20/24 73/3/73
f 73/3/73 24/20/24 22/2/22
f 73/3/73 22/2/22 74/1/74
f 74/1/74 22/2/22 21/18/21
f 74/1/74 21/18/21 75/35/75
f 75/35/75 21/18/21 26/22/26
f 75/35/75 26/22/26 19/16/19
f 19/16/19 26/22/26 80/40/80
f 19/16/19 80/40/80 20/17/20
o editpl_f-0000-1846
v -3.166556 52.042927 8.823024
v -4.161230 50.098656 8.730783
v -2.023739 50.586327 9.477612
v 0.000000 55.421337 9.877698
v 0.000000 53.412899 10.642309
v 0.788332 53.990406 9.710995
v -6.679660 54.814957 6.030195
v -7.743115 55.148624 0.346738
v -7.229905 52.707058 4.651007
v 7.743115 55.148624 0.346738
v 8.986457 56.120762 -1.190263
v 7.542063 53.236439 -2.550558
v 2.468167 55.427753 8.669659
v 2.087228 56.634098 10.004393
v 1.037001 55.337917 9.414264
v 7.542063 53.236439 -2.550558
v 7.534127 59.544086 0.082236
v 7.743115 55.148624 0.346738
v 9.491730 52.739140 -2.903968
v 9.700718 54.972164 -2.869516
v 8.986457 56.120762 -1.190263
v 0.000000 60.256348 9.799902
v 3.341153 60.140846 8.998617
v 0.000000 63.775925 8.289575
v 1.722162 54.519787 8.181774
v 2.529012 54.279160 8.397376
v 3.573949 54.837414 8.455167
v 9.700718 54.972164 -2.869516
v 9.491730 52.739140 -2.903968
v 7.801314 49.745735 -1.209156
v 7.801314 49.745735 -1.209156
v 7.108216 49.758568 0.271166
v 7.743115 55.148624 0.346738
v -2.087228 56.634098 10.004393
v 0.000000 56.393471 10.134421
v -7.108216 49.758568 0.271166
v -7.743115 55.148624 0.346738
v -8.986457 56.120762 -1.190263
v -7.542063 53.236439 -2.550558
v -8.986457 56.120762 -1.190263
v -7.743115 55.148624 0.346738
v -1.777715 52.129551 9.316465
v -5.087123 55.405296 7.897268
v -3.573949 54.837414 8.455167
v -2.468167 55.427753 8.669659
v -0.788332 53.990406 9.710995
v -1.722162 54.519787 8.181774
v -2.529012 54.279160 8.397376
v -5.063314 54.214989 7.742790
v -7.801314 49.745735 -1.209156
v -9.491730 52.739140 -2.903968
v -9.700718 54.972164 -2.869516
v -6.200841 52.232220 6.948173
v -1.917922 50.672955 9.512063
v -0.936475 52.418304 10.626750
v -7.801314 49.745735 -1.209156
v -9.491730 52.739140 -2.903968
v -9.700718 54.972164 -2.869516
v 5.063314 54.214989 7.742790
v 5.682340 54.702663 6.982625
v 5.087123 55.405296 7.897268
v 5.706149 56.537849 8.040632
v 4.473388 56.865101 9.457606
v 5.830483 59.617882 7.213786
v 3.851717 63.461506 7.007073
v 6.200841 52.232220 6.948173
v 7.229905 52.707058 4.651007
v 6.679660 54.814957 6.030195
v 7.179642 58.392284 4.621000
v 6.388665 61.982449 4.224246
v -1.187789 51.195915 11.411366
v 0.000000 51.253666 11.935924
v 0.000000 51.824757 11.851460
v 1.187789 51.195915 11.411366
v 0.936475 52.418304 10.626750
v 1.917922 50.672955 9.512063
v 1.777715 52.129551 9.316465
v 2.023739 50.586327 9.477612
v 3.166556 52.042927 8.823024
v -3.341153 60.140846 8.998617
v -3.851717 63.461506 7.007073
v -5.830483 59.617882 7.213786
v -6.388665 61.982449 4.224246
v -7.179642 58.392284 4.621000
v -7.534127 59.544086 0.082236
v -7.542063 53.236439 -2.550558
v -5.706149 56.537849 8.040632
v -4.473388 56.865101 9.457606
v -1.037001 55.337917 9.414264
v -4.883427 52.161636 8.271794
v -5.682340 54.702663 6.982625
v 4.161230 50.098656 8.730783
v 4.883427 52.161636 8.271794
v 0.000000 58.324909 10.182208
vn -0.2818 0.1957 0.9393
vn -0.4947 -0.0942 0.8639
vn -0.3914 0.1487 0.9081
vn -0.0000 -0.1260 0.9920
vn -0.0000 0.5087 0.8609
vn 0.6999 0.2516 0.6684
vn -0.8942 -0.0235 0.4471
vn -0.9864 -0.0078 0.1644
vn -0.9711 -0.0939 0.2193
vn -0.7919 0.5331 -0.2979
vn -0.6859 0.5597 -0.4651
vn -0.6311 0.1262 -0.7653
vn 0.1882 -0.4549 0.8705
vn 0.2277 -0.2748 0.9342
vn 0.5117 -0.3936 0.7637
vn 0.9948 0.0392 -0.0940
vn 0.9940 0.1017 0.0391
vn 0.9864 -0.0078 0.1644
vn 0.8752 -0.1577 0.4573
vn 0.8942 -0.0863 0.4393
vn 0.8523 -0.1026 0.5129
vn -0.0000 0.2902 0.9570
vn 0.3463 0.2990 0.8892
vn -0.0000 0.4314 0.9021
vn 0.4555 -0.0707 0.8874
vn 0.0783 -0.0705 0.9944
vn 0.2429 -0.1646 0.9560
vn -0.3852 0.3223 -0.8647
vn -0.2115 -0.1645 -0.9634
vn -0.2055 -0.6719 -0.7115
vn -0.2056 -0.6720 -0.7115
vn 0.9425 -0.3063 0.1336
vn -0.2277 -0.2748 0.9342
vn -0.0000 -0.1414 0.9900
vn -0.9425 -0.3063 0.1336
vn -0.8523 -0.1026 0.5129
vn 0.6311 0.1262 -0.7653
vn 0.6859 0.5597 -0.4651
vn 0.7919 0.5331 -0.2979
vn -0.5970 0.2513 0.7619
vn -0.5187 -0.2751 0.8095
vn -0.2429 -0.1646 0.9560
vn -0.1882 -0.4548 0.8705
vn -0.6999 0.2516 0.6684
vn -0.4555 -0.0707 0.8874
vn -0.0783 -0.0704 0.9944
vn -0.5122 -0.0000 0.8589
vn 0.2055 -0.6719 -0.7115
vn 0.2115 -0.1645 -0.9634
vn 0.3852 0.3223 -0.8647
vn -0.8246 -0.0157 0.5655
vn -0.7149 -0.0000 0.6992
vn -0.7217 0.4001 0.5648
vn 0.2056 -0.6720 -0.7115
vn -0.8752 -0.1577 0.4573
vn -0.8942 -0.0863 0.4393
vn 0.5122 -0.0000 0.8589
vn 0.7132 -0.1254 0.6897
vn 0.5187 -0.2751 0.8095
vn 0.7785 -0.1651 0.6055
vn 0.5017 -0.2116 0.8388
vn 0.7774 0.2591 0.5732
vn 0.5760 0.4182 0.7023
vn 0.8246 -0.0157 0.5655
vn 0.9711 -0.0939 0.2193
vn 0.8942 -0.0235 0.4471
vn 0.9590 0.0943 0.2673
vn 0.8956 0.2985 0.3299
vn -0.6440 -0.2278 0.7304
vn -0.0000 -0.2518 0.9678
vn -0.0000 0.4628 0.8864
vn 0.6439 -0.2278 0.7304
vn 0.7217 0.4001 0.5648
vn 0.7149 -0.0000 0.6992
vn 0.5970 0.2514 0.7619
vn 0.3914 0.1487 0.9081
vn 0.2818 0.1957 0.9393
vn -0.3463 0.2990 0.8892
vn -0.5760 0.4182 0.7023
vn -0.7773 0.2591 0.5732
vn -0.8956 0.2985 0.3299
vn -0.9590 0.0943 0.2673
vn -0.9940 0.1018 0.0391
vn -0.9948 0.0392 -0.0940
vn -0.7785 -0.1651 0.6055
vn -0.5017 -0.2116 0.8388
vn -0.5117 -0.3936 0.7637
vn -0.5649 0.0471 0.8238
vn -0.7132 -0.1254 0.6897
vn 0.4947 -0.0942 0.8639
vn 0.5649 0.0471 0.8238
vn -0.0000 0.1173 0.9931
vt 0.672150 0.585785
vt 0.710175 0.707550
vt 0.601349 0.685272
vt 0.499695 0.387451
vt 0.499695 0.529144
vt 0.549347 0.493622
vt 0.925415 0.386566
vt 0.975433 0.377716
vt 0.914154 0.550079
vt 0.032990 0.610321
vt 0.013824 0.586975
vt 0.032990 0.621338
vt 0.654053 0.374573
vt 0.617798 0.314545
vt 0.569305 0.397247
vt 0.987183 0.593323
vt 0.988678 0.012146
vt 0.012421 0.541901
vt 0.012421 0.374023
vt 0.036835 0.373413
vt 0.499695 0.120239
vt 0.653961 0.120422
vt 0.499695 0.012543
vt 0.600769 0.443665
vt 0.650879 0.463013
vt 0.707184 0.424225
vt 0.011414 0.602661
vt 0.011414 0.626709
vt 0.018372 0.654877
vt 0.053650 0.654327
vt 0.129089 0.654327
vt 0.129089 0.479553
vt 0.499695 0.319977
vt 0.597870 0.587860
vt 0.787689 0.377289
vt 0.781006 0.464203
vt 0.838745 0.533539
vt 0.595245 0.682739
vt 0.549103 0.595673
vt 0.834076 0.424744
vt 0.839569 0.319733
vt 0.745819 0.315125
vt 0.803436 0.136566
vt 0.654266 0.012543
vt 0.929474 0.177826
vt 0.779938 0.012543
vt 0.549377 0.643646
vt 0.499695 0.627777
vt 0.499695 0.599335
vt 0.758057 0.570618
vt 0.499695 0.220123
s 1
usemtl f_face077
f 81/47/81 82/48/82 83/49/83
f 84/50/84 85/51/85 86/52/86
f 87/53/87 88/54/88 89/55/89
f 90/56/90 91/57/91 92/58/92
f 93/59/93 94/60/94 95/61/95
f 96/62/96 97/63/97 98/54/98
f 99/64/99 100/65/100 101/66/101
f 102/67/102 103/68/103 104/69/104
f 95/61/95 105/70/105 93/59/93
f 93/59/93 105/70/105 106/71/106
f 93/59/93 106/71/106 107/72/107
f 91/57/91 108/73/108 92/58/92
f 92/58/92 108/73/108 109/74/109
f 92/58/92 109/74/109 110/75/110
f 111/76/111 99/64/99 112/77/112
f 112/77/112 99/64/99 101/66/101
f 112/77/112 101/66/101 113/78/98
f 114/60/113 84/50/84 115/79/114
f 116/77/115 117/78/88 118/66/116
f 119/58/117 120/57/118 121/56/119
f 81/47/81 83/49/83 122/80/120
f 123/81/121 124/72/122 125/59/123
f 126/52/124 127/70/125 122/80/120
f 122/80/120 127/70/125 128/71/126
f 122/80/120 128/71/126 81/47/81
f 81/47/81 128/71/126 129/82/127
f 130/75/128 131/74/129 119/58/117
f 119/58/117 131/74/129 132/73/130
f 119/58/117 132/73/130 120/57/118
f 87/53/87 89/55/89 133/83/131
f 83/49/83 134/84/132 122/80/120
f 122/80/120 134/84/132 135/85/133
f 122/80/120 135/85/133 126/52/124
f 126/52/124 135/85/133 85/51/85
f 136/76/134 116/77/115 137/64/135
f 137/64/135 116/77/115 118/66/116
f 137/64/135 118/66/116 138/65/136
f 139/82/137 140/86/138 141/81/139
f 141/81/139 140/86/138 142/87/140
f 141/81/139 142/87/140 143/88/141
f 143/88/141 142/87/140 144/89/142
f 143/88/141 144/89/142 103/68/103
f 103/68/103 144/89/142 145/90/143
f 103/68/103 145/90/143 104/69/104
f 146/83/144 147/55/145 148/53/146
f 148/53/146 147/55/145 98/54/98
f 148/53/146 98/54/98 149/91/147
f 149/91/147 98/54/98 97/63/97
f 149/91/147 97/63/97 150/92/148
f 151/93/149 152/94/150 153/95/151
f 153/95/151 152/94/150 154/93/152
f 153/95/151 154/93/152 155/85/153
f 155/85/153 154/93/152 156/84/154
f 155/85/153 156/84/154 157/80/155
f 157/80/155 156/84/154 158/49/156
f 157/80/155 158/49/156 159/47/157
f 160/68/158 161/90/159 162/89/160
f 162/89/160 161/90/159 163/92/161
f 162/89/160 163/92/161 164/91/162
f 164/91/162 163/92/161 165/63/163
f 164/91/162 165/63/163 88/54/88
f 88/54/88 165/63/163 166/62/164
f 167/87/165 123/81/121 168/88/166
f 168/88/166 123/81/121 125/59/123
f 168/88/166 125/59/123 114/60/113
f 114/60/113 125/59/123 169/61/167
f 114/60/113 169/61/167 84/50/84
f 82/48/82 81/47/81 170/96/168
f 170/96/168 81/47/81 129/82/127
f 170/96/168 129/82/127 133/83/131
f 133/83/131 129/82/127 171/86/169
f 133/83/131 171/86/169 87/53/87
f 158/49/156 172/48/170 159/47/157
f 159/47/157 172/48/170 173/96/171
f 159/47/157 173/96/171 139/82/137
f 139/82/137 173/96/171 146/83/144
f 139/82/137 146/83/144 140/86/138
f 140/86/138 146/83/144 148/53/146
f 140/86/138 148/53/146 142/87/140
f 142/87/140 148/53/146 149/91/147
f 142/87/140 149/91/147 144/89/142
f 144/89/142 149/91/147 150/92/148
f 144/89/142 150/92/148 145/90/143
f 85/51/85 84/50/84 126/52/124
f 126/52/124 84/50/84 169/61/167
f 126/52/124 169/61/167 127/70/125
f 127/70/125 169/61/167 125/59/123
f 127/70/125 125/59/123 128/71/126
f 128/71/126 125/59/123 124/72/122
f 128/71/126 124/72/122 129/82/127
f 129/82/127 124/72/122 123/81/121
f 129/82/127 123/81/121 171/86/169
f 171/86/169 123/81/121 167/87/165
f 171/86/169 167/87/165 87/53/87
f 88/54/88 87/53/87 164/91/162
f 164/91/162 87/53/87 167/87/165
f 164/91/162 167/87/165 162/89/160
f 162/89/160 167/87/165 168/88/166
f 162/89/160 168/88/166 160/68/158
f 160/68/158 168/88/166 114/60/113
f 160/68/158 114/60/113 174/97/172
f 174/97/172 114/60/113 115/79/114
f 174/97/172 115/79/114 94/60/94
f 94/60/94 115/79/114 84/50/84
f 94/60/94 84/50/84 95/61/95
f 95/61/95 84/50/84 86/52/86
f 95/61/95 86/52/86 105/70/105
f 134/84/132 151/93/149 135/85/133
f 135/85/133 151/93/149 153/95/151
f 135/85/133 153/95/151 85/51/85
f 85/51/85 153/95/151 155/85/153
f 85/51/85 155/85/153 86/52/86
f 86/52/86 155/85/153 157/80/155
f 86/52/86 157/80/155 105/70/105
f 105/70/105 157/80/155 159/47/157
f 105/70/105 159/47/157 106/71/106
f 106/71/106 159/47/157 139/82/137
f 106/71/106 139/82/137 107/72/107
f 107/72/107 139/82/137 141/81/139
f 107/72/107 141/81/139 93/59/93
f 93/59/93 141/81/139 143/88/141
f 93/59/93 143/88/141 94/60/94
f 94/60/94 143/88/141 103/68/103
f 94/60/94 103/68/103 174/97/172
f 174/97/172 103/68/103 102/67/102
f 174/97/172 102/67/102 160/68/158
f 160/68/158 102/67/102 104/69/104
f 160/68/158 104/69/104 161/90/159
