mtllib f_face014.mtl
o editpl_f-0000-1861
v -3.058094 44.461555 3.258483
v 0.000000 43.855171 3.210695
v -1.325350 43.669086 6.897051
v -1.738034 47.365128 8.871924
v -3.058094 46.271072 6.914833
v -1.515820 46.441116 8.146212
v 0.000000 48.934017 9.907705
v -1.333287 50.525368 9.477612
v -1.116363 48.940434 9.639869
v 7.555290 55.148624 0.346738
v 6.978591 52.440762 5.005528
v 6.978591 49.447357 0.096684
v 0.000000 46.370533 8.468503
v 1.148108 44.233761 7.912827
v 1.515820 46.441116 8.146212
v 0.000000 50.608784 12.033722
v 0.608444 50.522160 11.626967
v 0.000000 51.141373 11.799227
v 0.000000 50.608784 12.033722
v -0.608444 50.522160 11.626967
v 1.325350 43.669086 6.897051
v 0.000000 43.669086 7.341592
v 0.000000 48.738308 9.922153
v 0.000000 47.952255 9.025291
v 1.116363 48.940434 9.639869
v 1.208952 48.042091 8.740785
v 3.415224 48.369347 7.823918
v 0.000000 43.669086 7.341592
v 0.000000 43.855171 3.210695
v -3.415224 48.369347 7.823918
v -5.089769 48.228176 5.950178
v 0.000000 50.095448 11.656974
v 0.000000 50.265491 10.753444
v 0.000000 50.149990 9.935488
v -4.169166 46.556618 0.512330
v -6.026244 46.733078 0.725709
v -7.542063 53.236439 -2.550558
v -6.978591 52.440762 5.005528
v -6.224649 52.424721 6.757020
v -1.208952 48.042091 8.740785
v 0.000000 43.669086 7.341592
v 1.148108 44.233761 7.912827
v -1.148108 44.233761 7.912827
v 6.224649 52.424721 6.757020
v 5.089769 48.228176 5.950178
v 6.277558 47.371544 1.948197
v 6.026244 46.733078 0.725709
v 7.542063 53.236439 -2.550558
v 0.000000 47.339458 9.312020
v 1.738034 47.365128 8.871924
v 3.058094 46.271072 6.914833
v 3.478714 45.228355 4.258700
v 3.073966 44.461555 3.258483
v 4.169166 46.556618 0.512330
v -1.148108 44.233761 7.912827
v -3.655956 45.228355 4.258700
v -6.277558 47.371544 1.948197
v -6.978591 49.447357 0.096684
v 1.333287 50.525368 9.477612
v -7.555290 55.148624 0.346738
vn -0.4712 -0.8718 -0.1336
vn -0.0000 -0.9697 -0.2444
vn -0.3938 -0.8978 0.1969
vn -0.3836 -0.2897 0.8769
vn -0.6601 -0.4558 0.5972
vn -0.3791 -0.4107 0.8292
vn -0.0000 0.0394 0.9992
vn -0.5721 -0.3606 0.7367
vn -0.3382 -0.2596 0.9046
vn 0.9801 -0.0314 0.1960
vn 0.9570 -0.0941 0.2745
vn 0.9393 -0.3053 0.1565
vn -0.0000 -0.4629 0.8864
vn 0.4158 -0.5099 0.7531
vn 0.3791 -0.4107 0.8292
vn -0.0000 -0.1337 0.9910
vn 0.7137 -0.3922 0.5804
vn -0.0000 0.2902 0.9570
vn 0.0001 -0.1337 0.9910
vn -0.7138 -0.3922 0.5803
vn 0.4251 -0.8817 0.2047
vn -0.0000 -0.9414 0.3374
vn -0.0000 -0.3700 0.9290
vn -0.0000 -0.3995 0.9167
vn 0.3382 -0.2596 0.9046
vn 0.2995 -0.0316 0.9536
vn 0.5755 -0.2444 0.7804
vn -0.0000 -0.9414 0.3373
vn -0.0000 -0.9697 -0.2443
vn -0.3938 -0.8979 0.1969
vn -0.5755 -0.2444 0.7804
vn -0.7863 -0.4168 0.4560
vn -0.0000 -0.9196 0.3929
vn -0.7137 -0.3921 0.5804
vn -0.0000 -0.9997 0.0236
vn -0.0000 -0.6668 0.7452
vn -0.1577 -0.7177 -0.6782
vn -0.6647 -0.6413 -0.3832
vn -0.5522 -0.4733 -0.6863
vn -0.9570 -0.0941 0.2745
vn -0.7800 -0.1182 0.6145
vn -0.2995 -0.0316 0.9536
vn -0.4068 -0.5085 0.7589
vn -0.0000 -0.4628 0.8865
vn 0.7800 -0.1182 0.6145
vn 0.7838 -0.4232 0.4545
vn 0.8508 -0.4805 0.2127
vn 0.6648 -0.6413 -0.3832
vn 0.5522 -0.4733 -0.6863
vn -0.0000 0.0471 0.9989
vn 0.3836 -0.2897 0.8769
vn 0.6638 -0.4663 0.5848
vn 0.7471 -0.5898 0.3067
vn 0.4940 -0.8625 -0.1098
vn 0.1500 -0.7186 -0.6791
vn -0.4069 -0.5085 0.7588
vn -0.7418 -0.5998 0.2999
vn -0.8537 -0.4856 0.1880
vn -0.9393 -0.3053 0.1565
vn 0.5721 -0.3605 0.7367
vn -0.9801 -0.0314 0.1960
vt 0.257355 0.960144
vt 0.500153 0.988647
vt 0.464508 0.975677
vt 0.428162 0.829956
vt 0.314575 0.869629
vt 0.438171 0.885559
vt 0.500153 0.748291
vt 0.415253 0.660095
vt 0.434631 0.748169
vt 0.037567 0.433716
vt 0.113495 0.635681
vt 0.082275 0.652802
vt 0.500153 0.885498
vt 0.460236 0.954803
vt 0.500153 0.638672
vt 0.466125 0.652771
vt 0.500580 0.621429
vt 0.500153 0.965942
vt 0.500153 0.758728
vt 0.500153 0.796143
vt 0.441742 0.791870
vt 0.337311 0.787537
vt 0.241730 0.815582
vt 0.500153 0.679688
vt 0.500153 0.697815
vt 0.500153 0.721497
vt 0.012756 0.988647
vt 0.094910 0.925171
vt 0.012756 0.437836
vt 0.168671 0.606476
vt 0.538818 0.954803
vt 0.172394 0.858154
vt 0.500153 0.835968
vt 0.284546 0.914734
s 1
usemtl f_face085
f 1/1/1 2/2/2 3/3/3
f 4/4/4 5/5/5 6/6/6
f 7/7/7 8/8/8 9/9/9
f 10/10/10 11/11/11 12/12/12
f 13/13/13 14/14/14 15/6/15
f 16/15/16 17/16/17 18/17/18
f 19/15/19 18/17/18 20/16/20
f 21/3/21 14/14/14 22/18/22
f 23/19/23 24/20/24 25/9/25
f 25/9/25 24/20/24 26/21/26
f 25/9/25 26/21/26 27/22/27
f 21/3/21 28/2/28 29/18/29
f 29/18/29 28/2/28 3/3/30
f 30/22/31 31/23/32 5/5/5
f 32/24/33 20/16/34 33/25/35
f 33/25/35 20/16/34 8/8/8
f 33/25/35 8/8/8 34/26/36
f 2/2/2 1/1/1 35/27/37
f 35/27/37 1/1/1 36/28/38
f 35/27/37 36/28/38 37/29/39
f 38/11/40 31/23/32 39/30/41
f 5/5/5 4/4/4 30/22/31
f 30/22/31 4/4/4 40/21/42
f 30/22/31 40/21/42 9/9/9
f 41/18/22 42/31/14 43/14/43
f 43/14/43 42/31/14 13/13/44
f 44/30/45 45/23/46 11/11/11
f 11/11/11 45/23/46 46/32/47
f 11/11/11 46/32/47 12/12/12
f 12/12/12 46/32/47 47/28/48
f 12/12/12 47/28/48 48/29/49
f 49/33/50 13/13/13 50/4/51
f 50/4/51 13/13/13 15/6/15
f 50/4/51 15/6/15 51/5/52
f 51/5/52 15/6/15 14/14/14
f 51/5/52 14/14/14 52/34/53
f 52/34/53 14/14/14 21/3/21
f 52/34/53 21/3/21 53/1/54
f 53/1/54 21/3/21 2/2/2
f 53/1/54 2/2/2 54/27/55
f 22/18/22 55/14/56 3/3/3
f 3/3/3 55/14/56 56/34/57
f 3/3/3 56/34/57 1/1/1
f 1/1/1 56/34/57 57/32/58
f 1/1/1 57/32/58 36/28/38
f 36/28/38 57/32/58 58/12/59
f 36/28/38 58/12/59 37/29/39
f 8/8/8 7/7/7 34/26/36
f 34/26/36 7/7/7 59/8/60
f 34/26/36 59/8/60 33/25/35
f 33/25/35 59/8/60 17/16/17
f 33/25/35 17/16/17 32/24/33
f 32/24/33 17/16/17 16/15/16
f 32/24/33 16/15/16 20/16/34
f 24/20/24 49/33/50 26/21/26
f 26/21/26 49/33/50 50/4/51
f 26/21/26 50/4/51 27/22/27
f 27/22/27 50/4/51 51/5/52
f 27/22/27 51/5/52 45/23/46
f 45/23/46 51/5/52 52/34/53
f 45/23/46 52/34/53 46/32/47
f 46/32/47 52/34/53 53/1/54
f 46/32/47 53/1/54 47/28/48
f 47/28/48 53/1/54 54/27/55
f 47/28/48 54/27/55 48/29/49
f 60/10/61 58/12/59 38/11/40
f 38/11/40 58/12/59 57/32/58
f 38/11/40 57/32/58 31/23/32
f 31/23/32 57/32/58 56/34/57
f 31/23/32 56/34/57 5/5/5
f 5/5/5 56/34/57 55/14/56
f 5/5/5 55/14/56 6/6/6
f 6/6/6 55/14/56 13/13/13
f 6/6/6 13/13/13 4/4/4
f 4/4/4 13/13/13 49/33/50
f 4/4/4 49/33/50 40/21/42
f 40/21/42 49/33/50 24/20/24
f 40/21/42 24/20/24 9/9/9
f 9/9/9 24/20/24 23/19/23
f 9/9/9 23/19/23 7/7/7
f 7/7/7 23/19/23 25/9/25
f 7/7/7 25/9/25 59/8/60
o editpl_f-0000-1862
v -0.976156 53.351940 10.741220
v -0.608444 50.522160 11.626967
v 0.000000 51.141373 11.799227
v 1.999930 52.707058 9.163098
v 1.333287 50.525368 9.477612
v 1.116363 48.940434 9.639869
v -0.740715 55.870506 10.083298
v 0.000000 53.489899 11.179092
v 0.740715 55.870506 10.083298
v 7.555290 55.148624 0.346738
v 8.986457 56.101509 -1.190263
v 7.542063 53.236439 -2.550558
v 8.986457 56.101509 -1.190263
v 7.555290 55.148624 0.346738
v 6.978591 49.447357 0.096684
v -1.333287 50.525368 9.477612
v 7.801314 49.745735 -1.209156
v 6.978591 49.447357 0.096684
v 3.952242 54.558285 8.251789
v 5.195585 54.003239 7.533854
v 5.393991 55.193542 7.458282
v 5.888682 54.574326 6.654776
v 6.145287 56.682224 7.561639
v 9.700718 54.972164 -2.869516
v 9.491730 52.739140 -2.903968
v 7.542063 53.236439 -2.550558
v 7.534127 59.544086 0.082236
v 7.555290 55.148624 0.346738
v 9.700718 54.972164 -2.869516
v 9.491730 52.739140 -2.903968
v 7.801314 49.745735 -1.209156
v -9.491730 52.739140 -2.903968
v -7.801314 49.745735 -1.209156
v -6.978591 49.447357 0.096684
v 0.976156 53.351940 10.741220
v 0.740715 55.870506 10.083298
v -5.195585 54.003239 7.533854
v -3.952242 54.558285 8.251789
v -5.393991 55.193542 7.458282
v -0.740715 55.870506 10.083298
v 0.000000 56.547474 10.371140
v 1.703644 56.547474 10.217772
v 0.000000 58.340950 9.961049
v -7.542063 53.236439 -2.550558
v -8.986457 56.101509 -1.190263
v -7.555290 55.148624 0.346738
v -6.145287 56.682224 7.561639
v -7.113507 57.776279 4.580992
v -6.592361 54.885540 5.527864
v -7.555290 55.148624 0.346738
v -6.978591 52.440762 5.005528
v -6.978591 49.447357 0.096684
v -7.801314 49.745735 -1.209156
v -5.888682 54.574326 6.654776
v -6.195550 53.438564 6.573647
v -4.901944 52.488888 7.836143
v -6.224649 52.424721 6.757020
v -3.309408 60.140846 9.153095
v -5.777575 59.617882 7.173777
v -3.214173 58.283199 9.384257
v -9.491730 52.739140 -2.903968
v -9.700718 54.972164 -2.869516
v -9.700718 54.972164 -2.869516
v -8.986457 56.101509 -1.190263
v -7.555290 55.148624 0.346738
v 4.203556 56.553890 9.268677
v 5.719376 58.109947 7.367153
v 3.214173 58.283199 9.384257
v 5.777575 59.617882 7.173777
v 3.309408 60.140846 9.153095
v 3.851717 63.461506 7.007073
v 0.000000 63.775925 8.289575
v 7.113507 57.776279 4.580992
v 6.592361 54.885540 5.527864
v 6.195550 53.438564 6.573647
v 4.901944 52.488888 7.836143
v 1.801524 54.487701 8.624092
v 1.708935 55.812756 9.223111
v 1.703644 56.547474 10.217772
v 0.608444 50.522160 11.626967
v -1.703644 56.547474 10.217772
v 0.000000 60.256348 9.759894
v 6.224649 52.424721 6.757020
v 6.978591 52.440762 5.005528
v 6.388665 61.982449 4.224246
v -3.415224 48.369347 7.823918
v -1.116363 48.940434 9.639869
v -3.280308 52.569099 8.729671
v -1.999930 52.707058 9.163098
v -2.817361 54.089863 8.269571
v -1.801524 54.487701 8.624092
v -2.841170 55.264126 8.381817
v -1.708935 55.812756 9.223111
v -4.203556 56.553890 9.268677
v 5.089769 48.228176 5.950178
v 3.415224 48.369347 7.823918
v 3.280308 52.569099 8.729671
v 2.817361 54.089863 8.269571
v 2.841170 55.264126 8.381817
v -5.719376 58.109947 7.367153
v -5.089769 48.228176 5.950178
v -7.542063 53.236439 -2.550558
v -7.534127 59.544086 0.082236
v -6.388665 61.982449 4.224246
v -3.851717 63.461506 7.007073
vn -0.7307 0.1414 0.6679
vn -0.7137 -0.3921 0.5804
vn -0.0000 0.2902 0.9570
vn 0.5283 0.1498 0.8358
vn 0.5721 -0.3605 0.7367
vn 0.3383 -0.2595 0.9045
vn -0.4083 -0.1335 0.9030
vn -0.0000 0.3068 0.9518
vn 0.4084 -0.1335 0.9030
vn -0.7535 0.5494 -0.3611
vn -0.6598 0.5655 -0.4948
vn -0.5882 0.1176 -0.8001
vn 0.8330 -0.1100 0.5422
vn 0.9801 -0.0314 0.1960
vn 0.9393 -0.3053 0.1566
vn -0.5721 -0.3605 0.7367
vn -0.1489 -0.6506 -0.7447
vn 0.2915 -0.0788 0.9533
vn 0.5655 -0.0078 0.8247
vn 0.5662 -0.2202 0.7943
vn 0.7923 -0.0863 0.6040
vn 0.8154 -0.0862 0.5724
vn -0.3852 0.3223 -0.8647
vn -0.2115 -0.1645 -0.9634
vn 1.0000 -0.0000 -0.0000
vn 0.9950 0.0627 0.0783
vn 0.8942 -0.0863 0.4393
vn 0.8624 -0.1411 0.4861
vn -0.8624 -0.1411 0.4861
vn 0.1489 -0.6506 -0.7447
vn -0.9393 -0.3053 0.1566
vn 0.7307 0.1414 0.6679
vn -0.5655 -0.0078 0.8247
vn -0.2915 -0.0788 0.9533
vn -0.5662 -0.2202 0.7943
vn 0.4083 -0.1335 0.9030
vn -0.0000 -0.1173 0.9931
vn 0.2587 -0.2195 0.9407
vn -0.0000 0.2111 0.9775
vn 0.5882 0.1176 -0.8001
vn 0.6598 0.5655 -0.4948
vn 0.7535 0.5494 -0.3611
vn -0.8154 -0.0862 0.5724
vn -0.9588 0.0707 0.2751
vn -0.9351 -0.0236 0.3536
vn -0.9801 -0.0314 0.1960
vn -0.9570 -0.0941 0.2745
vn -0.7923 -0.0863 0.6040
vn -0.7948 0.1023 0.5981
vn -0.5885 -0.0236 0.8082
vn -0.7800 -0.1181 0.6145
vn -0.4005 0.2827 0.8716
vn -0.7721 0.1891 0.6067
vn -0.4410 0.1654 0.8821
vn 0.2115 -0.1645 -0.9634
vn 0.3852 0.3223 -0.8647
vn -0.8942 -0.0863 0.4393
vn -0.8330 -0.1100 0.5422
vn 0.4702 -0.2978 0.8308
vn 0.7450 0.2039 0.6352
vn 0.4410 0.1654 0.8821
vn 0.7721 0.1891 0.6067
vn 0.4005 0.2827 0.8716
vn 0.5877 0.4232 0.6896
vn -0.0000 0.4409 0.8975
vn 0.9588 0.0707 0.2751
vn 0.9351 -0.0236 0.3536
vn 0.7949 0.1023 0.5981
vn 0.5885 -0.0236 0.8082
vn 0.6371 -0.0000 0.7708
vn 0.4014 -0.5902 0.7004
vn 0.7137 -0.3921 0.5803
vn -0.2587 -0.2195 0.9407
vn -0.0000 0.2444 0.9697
vn 0.7800 -0.1181 0.6145
vn 0.9570 -0.0941 0.2745
vn 0.9046 0.2596 0.3382
vn -0.5755 -0.2444 0.7804
vn -0.3383 -0.2595 0.9046
vn -0.4235 0.0863 0.9018
vn -0.5283 0.1498 0.8358
vn -0.2827 0.0471 0.9580
vn -0.6371 -0.0000 0.7708
vn -0.2749 -0.2828 0.9189
vn -0.4014 -0.5902 0.7004
vn -0.4702 -0.2978 0.8308
vn 0.7837 -0.4232 0.4546
vn 0.5755 -0.2444 0.7804
vn 0.4235 0.0863 0.9018
vn 0.2827 0.0471 0.9580
vn 0.2749 -0.2828 0.9189
vn -0.7450 0.2039 0.6352
vn -0.7863 -0.4167 0.4561
vn -1.0000 -0.0000 -0.0000
vn -0.9950 0.0627 0.0783
vn -0.9046 0.2596 0.3382
vn -0.5877 0.4232 0.6896
vt 0.451355 0.516357
vt 0.466125 0.652771
vt 0.494904 0.621429
vt 0.387390 0.537964
vt 0.415253 0.660095
vt 0.434631 0.748169
vt 0.485565 0.359283
vt 0.495239 0.506592
vt 0.512939 0.359375
vt 0.935333 0.707153
vt 0.971344 0.676697
vt 0.965820 0.737610
vt 0.975739 0.367188
vt 0.882812 0.453125
vt 0.855011 0.656158
vt 0.957489 0.776398
vt 0.924286 0.779175
vt 0.287842 0.429535
vt 0.219147 0.468323
vt 0.208557 0.384827
vt 0.162109 0.440613
vt 0.159546 0.313141
vt 0.974121 0.687775
vt 0.974121 0.751465
vt 0.011383 0.437836
vt 0.011383 0.278992
vt 0.037567 0.433716
vt 0.986206 0.398438
vt 0.985565 0.578125
vt 0.945312 0.648438
vt 0.494324 0.307587
vt 0.426208 0.311951
vt 0.494476 0.223450
vt 0.078125 0.218750
vt 0.072876 0.433167
vt 0.113495 0.635681
vt 0.154755 0.488922
vt 0.236786 0.578766
vt 0.168671 0.606476
vt 0.304443 0.118561
vt 0.180725 0.132172
vt 0.299286 0.198120
vt 0.281708 0.299469
vt 0.189117 0.195312
vt 0.243134 0.011627
vt 0.495422 0.011627
vt 0.399536 0.444031
vt 0.424194 0.368469
vt 0.426331 0.311707
vt 0.494476 0.117981
vt 0.012329 0.011627
vt 0.337311 0.787537
vt 0.312775 0.554443
vt 0.339386 0.461761
vt 0.341614 0.387756
vt 0.241730 0.815582
s 1
usemtl f_face085
f 61/35/62 62/36/63 63/37/64
f 64/38/65 65/39/66 66/40/67
f 67/41/68 68/42/69 69/43/70
f 70/44/71 71/45/72 72/46/73
f 73/47/74 74/48/75 75/49/76
f 62/36/63 61/35/62 76/39/77
f 72/46/73 77/50/78 78/51/76
f 79/52/79 80/53/80 81/54/81
f 81/54/81 80/53/80 82/55/82
f 81/54/81 82/55/82 83/56/83
f 71/45/72 84/57/84 72/46/73
f 72/46/73 84/57/84 85/58/85
f 72/46/73 85/58/85 77/50/78
f 86/59/86 87/60/87 88/61/75
f 89/62/88 73/47/74 90/63/89
f 90/63/89 73/47/74 75/49/76
f 90/63/89 75/49/76 91/64/78
f 92/63/90 93/64/91 94/49/92
f 95/35/93 96/41/70 68/42/69
f 97/53/94 98/52/95 99/54/96
f 100/43/68 96/41/97 101/65/98
f 101/65/98 96/41/97 102/66/99
f 101/65/98 102/66/99 103/67/100
f 104/46/101 105/45/102 106/44/103
f 107/56/104 108/68/105 109/69/106
f 109/69/106 108/68/105 110/61/107
f 109/69/106 110/61/107 111/70/108
f 112/51/92 113/50/91 104/46/101
f 99/54/96 114/55/109 97/53/94
f 97/53/94 114/55/109 115/71/110
f 97/53/94 115/71/110 116/72/111
f 116/72/111 115/71/110 117/73/112
f 118/74/113 119/75/114 120/76/115
f 113/50/91 121/58/116 104/46/101
f 104/46/101 121/58/116 122/57/117
f 104/46/101 122/57/117 105/45/102
f 123/62/118 92/63/90 124/47/119
f 124/47/119 92/63/90 94/49/92
f 124/47/119 94/49/92 125/48/107
f 126/77/120 127/78/121 128/76/122
f 128/76/122 127/78/121 129/75/123
f 128/76/122 129/75/123 130/74/124
f 130/74/124 129/75/123 131/79/125
f 130/74/124 131/79/125 132/80/126
f 133/68/127 83/56/83 134/69/128
f 134/69/128 83/56/83 82/55/82
f 134/69/128 82/55/82 135/71/129
f 135/71/129 82/55/82 80/53/80
f 135/71/129 80/53/80 136/72/130
f 65/39/66 64/38/65 95/35/93
f 95/35/93 64/38/65 137/81/131
f 95/35/93 137/81/131 96/41/70
f 96/41/70 137/81/131 138/82/132
f 96/41/70 138/82/132 139/83/99
f 67/41/68 61/35/62 68/42/69
f 68/42/69 61/35/62 63/37/64
f 68/42/69 63/37/64 95/35/93
f 95/35/93 63/37/64 140/36/133
f 95/35/93 140/36/133 65/39/66
f 67/41/68 101/65/98 141/83/134
f 141/83/134 101/65/98 103/67/100
f 141/83/134 103/67/100 120/76/115
f 120/76/115 103/67/100 142/84/135
f 120/76/115 142/84/135 118/74/113
f 136/72/130 143/73/136 135/71/129
f 135/71/129 143/73/136 144/70/137
f 135/71/129 144/70/137 134/69/128
f 134/69/128 144/70/137 88/61/75
f 134/69/128 88/61/75 133/68/127
f 133/68/127 88/61/75 87/60/87
f 133/68/127 87/60/87 145/85/138
f 146/86/139 147/40/140 148/87/141
f 148/87/141 147/40/140 149/38/142
f 148/87/141 149/38/142 150/88/143
f 150/88/143 149/38/142 151/81/144
f 150/88/143 151/81/144 152/89/145
f 152/89/145 151/81/144 153/82/146
f 152/89/145 153/82/146 154/77/147
f 99/54/96 107/56/104 114/55/109
f 114/55/109 107/56/104 109/69/106
f 114/55/109 109/69/106 115/71/110
f 115/71/110 109/69/106 111/70/108
f 115/71/110 111/70/108 117/73/112
f 155/90/148 143/73/136 156/86/149
f 156/86/149 143/73/136 136/72/130
f 156/86/149 136/72/130 157/87/150
f 157/87/150 136/72/130 80/53/80
f 157/87/150 80/53/80 158/88/151
f 158/88/151 80/53/80 79/52/79
f 158/88/151 79/52/79 159/89/152
f 159/89/152 79/52/79 81/54/81
f 159/89/152 81/54/81 126/77/120
f 126/77/120 81/54/81 83/56/83
f 126/77/120 83/56/83 127/78/121
f 127/78/121 83/56/83 133/68/127
f 127/78/121 133/68/127 129/75/123
f 129/75/123 133/68/127 145/85/138
f 129/75/123 145/85/138 131/79/125
f 147/40/140 76/39/77 149/38/142
f 149/38/142 76/39/77 61/35/62
f 149/38/142 61/35/62 151/81/144
f 151/81/144 61/35/62 67/41/68
f 151/81/144 67/41/68 153/82/146
f 153/82/146 67/41/68 141/83/134
f 153/82/146 141/83/134 154/77/147
f 154/77/147 141/83/134 120/76/115
f 154/77/147 120/76/115 160/78/153
f 160/78/153 120/76/115 119/75/114
f 119/75/114 108/68/105 160/78/153
f 160/78/153 108/68/105 107/56/104
f 160/78/153 107/56/104 154/77/147
f 154/77/147 107/56/104 99/54/96
f 154/77/147 99/54/96 152/89/145
f 152/89/145 99/54/96 98/52/95
f 152/89/145 98/52/95 150/88/143
f 150/88/143 98/52/95 97/53/94
f 150/88/143 97/53/94 148/87/141
f 148/87/141 97/53/94 116/72/111
f 148/87/141 116/72/111 146/86/139
f 146/86/139 116/72/111 117/73/112
f 146/86/139 117/73/112 161/90/154
f 162/59/155 110/61/107 163/60/156
f 163/60/156 110/61/107 108/68/105
f 163/60/156 108/68/105 164/85/157
f 164/85/157 108/68/105 119/75/114
f 164/85/157 119/75/114 165/79/158
f 165/79/158 119/75/114 118/74/113
f 165/79/158 118/74/113 132/80/126
f 132/80/126 118/74/113 142/84/135
f 132/80/126 142/84/135 130/74/124
f 130/74/124 142/84/135 103/67/100
f 130/74/124 103/67/100 128/76/122
f 128/76/122 103/67/100 139/83/99
f 128/76/122 139/83/99 126/77/120
f 126/77/120 139/83/99 138/82/132
f 126/77/120 138/82/132 159/89/152
f 159/89/152 138/82/132 137/81/131
f 159/89/152 137/81/131 158/88/151
f 158/88/151 137/81/131 64/38/65
f 158/88/151 64/38/65 157/87/150
f 157/87/150 64/38/65 66/40/67
f 157/87/150 66/40/67 156/86/149
