mtllib f_face017.mtl
o editpl_f-0000-1867
v -4.603013 48.366138 7.858370
v -3.198300 46.418659 8.048412
v -3.034285 48.311592 8.834138
v 7.356885 52.248260 3.760813
v 7.224614 49.758568 0.271166
v 7.743115 55.148624 0.346738
v 1.592537 43.893673 7.394937
v 3.084548 44.400597 4.754364
v 3.240627 45.019810 6.233573
v -1.592537 43.893673 7.394937
v -3.084548 44.400597 4.754364
v 0.000000 43.765339 3.215140
v 4.978661 50.130737 8.331807
v 6.616170 51.901756 6.643662
v 5.124159 52.107094 8.476282
v -5.124159 52.107094 8.476282
v -6.616170 51.901756 6.643662
v -4.978661 50.130737 8.331807
v 7.542063 53.236439 -2.550558
v 7.801314 49.745735 -1.209156
v 7.224614 49.758568 0.271166
v -0.005291 48.860226 10.293344
v -1.121654 48.869850 10.014394
v 0.000000 48.350094 10.114416
v 0.000000 47.214333 9.996614
v 1.804170 47.503086 9.647648
v 1.174562 48.154385 9.544292
v 3.034285 48.311592 8.834138
v 1.108427 48.869850 10.014394
v 1.600473 44.458344 8.444054
v 3.235336 45.645439 7.347149
v 1.489366 45.485023 8.681883
v 0.000000 50.320030 11.164644
v -0.989383 50.961704 11.013500
v 0.000000 49.809902 10.139977
v -1.920568 50.217365 9.602083
v -0.002645 49.338272 10.117750
v -7.743115 55.148624 0.346738
v -7.224614 49.758568 0.271166
v -7.356885 52.248260 3.760813
v -6.899229 49.556442 3.000648
v -6.415119 49.944653 6.321370
v -7.224614 49.758568 0.271166
v -7.801314 49.745735 -1.209156
v -7.542063 53.236439 -2.550558
v -5.354310 46.925579 6.148000
v 0.000000 48.122299 9.659873
v -1.174562 48.154385 9.544292
v 0.000000 43.627377 8.081753
v 0.000000 44.185635 8.923047
v 0.000000 45.375938 9.239782
v 0.000000 46.447533 9.282013
v 1.920568 50.217365 9.602083
v 0.989383 50.961704 11.013500
v 0.000000 51.067581 11.690314
v 3.441678 50.204533 9.147539
v 4.603013 48.366138 7.858370
v 6.415119 49.944653 6.321370
v 3.822617 46.380157 0.512330
v 7.542063 53.236439 -2.550558
v 6.079152 46.640034 0.934644
v 6.214068 46.931995 2.358286
v 6.899229 49.556442 3.000648
v 5.354310 46.925579 6.148000
v -3.822617 46.380157 0.512330
v 0.000000 43.765339 3.215140
v -6.079152 46.640034 0.934644
v -6.214068 46.931995 2.358286
v -3.256500 45.019810 6.233573
v -3.235336 45.645439 7.347149
v -7.542063 53.236439 -2.550558
v 3.198300 46.418659 8.048412
v 1.738034 46.630409 8.885261
v 0.000000 46.694576 9.389814
v -1.804170 47.503086 9.647648
v -1.600473 44.458344 8.444054
v -1.489366 45.485023 8.681883
v -1.738034 46.630409 8.885261
v -3.441678 50.204533 9.147539
vn -0.6138 -0.3148 0.7240
vn -0.5494 -0.3924 0.7377
vn -0.4705 -0.2195 0.8547
vn 0.9835 -0.1023 0.1495
vn 0.9448 -0.2992 0.1338
vn 0.9888 -0.0079 0.1491
vn 0.4170 -0.8733 0.2518
vn 0.5415 -0.8398 0.0392
vn 0.6759 -0.6838 0.2751
vn -0.4105 -0.8762 0.2526
vn -0.5361 -0.8436 0.0315
vn -0.0000 -0.9737 -0.2277
vn 0.6211 -0.1808 0.7626
vn 0.8781 -0.0157 0.4782
vn 0.6362 0.0549 0.7696
vn -0.6362 0.0549 0.7696
vn -0.8781 -0.0157 0.4782
vn -0.6211 -0.1808 0.7626
vn -0.6437 0.1335 -0.7536
vn -0.2207 -0.6778 -0.7013
vn 0.9448 -0.2992 0.1339
vn -0.0000 -0.0000 1.0000
vn -0.3150 -0.1496 0.9372
vn -0.0000 -0.6199 0.7847
vn -0.0000 -0.0394 0.9992
vn 0.3684 -0.2822 0.8858
vn 0.2429 -0.1646 0.9560
vn 0.4705 -0.2196 0.8547
vn 0.3150 -0.1496 0.9372
vn 0.5340 -0.4870 0.6911
vn 0.6456 -0.5118 0.5668
vn 0.4323 -0.2279 0.8725
vn -0.0000 -0.7526 0.6585
vn -0.6506 -0.1489 0.7447
vn -0.4332 -0.0788 0.8979
vn -0.0000 0.1644 0.9864
vn -0.9888 -0.0079 0.1491
vn -0.9448 -0.2992 0.1338
vn -0.9835 -0.1023 0.1495
vn -0.9546 -0.2582 0.1487
vn -0.8853 -0.2507 0.3917
vn -0.9448 -0.2992 0.1339
vn 0.2207 -0.6778 -0.7014
vn 0.6436 0.1334 -0.7536
vn -0.7772 -0.4789 0.4082
vn -0.0000 -0.3673 0.9301
vn -0.2429 -0.1646 0.9560
vn -0.0000 -0.9639 0.2664
vn -0.0000 -0.7071 0.7071
vn -0.0000 -0.1568 0.9876
vn -0.0000 -0.2203 0.9754
vn 0.4329 -0.0866 0.8973
vn 0.6506 -0.1489 0.7447
vn -0.0000 0.0236 0.9997
vn 0.3852 -0.1416 0.9119
vn 0.6138 -0.3148 0.7240
vn 0.8853 -0.2507 0.3917
vn 0.2045 -0.6763 -0.7077
vn 0.5722 -0.4782 -0.6663
vn 0.6043 -0.7063 -0.3688
vn 0.8408 -0.5265 0.1257
vn 0.9546 -0.2582 0.1487
vn 0.7767 -0.4864 0.4001
vn -0.2044 -0.6763 -0.7077
vn -0.6043 -0.7063 -0.3688
vn -0.8408 -0.5265 0.1257
vn -0.6759 -0.6837 0.2751
vn -0.6427 -0.5095 0.5722
vn -0.5722 -0.4782 -0.6663
vn 0.5494 -0.3924 0.7377
vn 0.3845 -0.4002 0.8318
vn -0.3684 -0.2822 0.8858
vn -0.5340 -0.4870 0.6911
vn -0.4323 -0.2279 0.8725
vn -0.3845 -0.4002 0.8318
vn -0.3852 -0.1416 0.9119
vt 0.737152 0.797607
vt 0.707916 0.862152
vt 0.634308 0.808472
vt 0.938965 0.572754
vt 0.958557 0.725189
vt 0.975433 0.413086
vt 0.605255 0.971100
vt 0.749176 0.957672
vt 0.737213 0.932281
vt 0.495697 0.988800
vt 0.775574 0.663910
vt 0.883820 0.566376
vt 0.791016 0.554657
vt 0.032990 0.621338
vt 0.018372 0.654877
vt 0.032990 0.658783
vt 0.495697 0.759857
vt 0.555786 0.761383
vt 0.495697 0.783142
vt 0.495697 0.853638
vt 0.587097 0.838531
vt 0.551971 0.800415
vt 0.611877 0.949219
vt 0.696136 0.913818
vt 0.626892 0.910095
vt 0.495697 0.677643
vt 0.550232 0.638824
vt 0.495697 0.703186
vt 0.595245 0.682739
vt 0.495697 0.731537
vt 0.911682 0.720154
vt 0.850159 0.700958
vt 0.800873 0.845764
vt 0.495697 0.802307
vt 0.495697 0.986206
vt 0.495697 0.974457
vt 0.495697 0.957428
vt 0.495697 0.908661
vt 0.495697 0.631683
vt 0.673859 0.679443
vt 0.987305 0.988800
vt 0.987305 0.593323
vt 0.952148 0.954529
vt 0.876587 0.876434
vt 0.499695 0.988800
vt 0.624237 0.873474
vt 0.495697 0.893921
s 1
usemtl f_face088
f 1/1/1 2/2/2 3/3/3
f 4/4/4 5/5/5 6/6/6
f 7/7/7 8/8/8 9/9/9
f 10/7/10 11/8/11 12/10/12
f 13/11/13 14/12/14 15/13/15
f 16/13/16 17/12/17 18/11/18
f 19/14/19 20/15/20 21/16/21
f 22/17/22 23/18/23 24/19/24
f 25/20/25 26/21/26 27/22/27
f 27/22/27 26/21/26 28/3/28
f 27/22/27 28/3/28 29/18/29
f 7/7/7 9/9/9 30/23/30
f 30/23/30 9/9/9 31/24/31
f 30/23/30 31/24/31 32/25/32
f 33/26/33 34/27/34 35/28/24
f 35/28/24 34/27/34 36/29/35
f 35/28/24 36/29/35 37/30/36
f 38/6/37 39/5/38 40/4/39
f 40/4/39 39/5/38 41/31/40
f 40/4/39 41/31/40 42/32/41
f 43/16/42 44/15/43 45/14/44
f 2/2/2 1/1/1 46/33/45
f 47/34/46 24/19/24 48/22/47
f 48/22/47 24/19/24 23/18/23
f 48/22/47 23/18/23 3/3/3
f 49/35/48 7/7/7 50/36/49
f 50/36/49 7/7/7 30/23/30
f 50/36/49 30/23/30 51/37/50
f 51/37/50 30/23/30 32/25/32
f 51/37/50 32/25/32 52/38/51
f 37/30/36 53/29/52 35/28/24
f 35/28/24 53/29/52 54/27/53
f 35/28/24 54/27/53 33/26/33
f 33/26/33 54/27/53 55/39/54
f 33/26/33 55/39/54 34/27/34
f 37/30/36 29/18/29 53/29/52
f 53/29/52 29/18/29 28/3/28
f 53/29/52 28/3/28 56/40/55
f 56/40/55 28/3/28 57/1/56
f 56/40/55 57/1/56 13/11/13
f 13/11/13 57/1/56 58/32/57
f 13/11/13 58/32/57 14/12/14
f 14/12/14 58/32/57 4/4/4
f 59/41/58 60/42/59 61/43/60
f 61/43/60 60/42/59 5/5/5
f 61/43/60 5/5/5 62/44/61
f 62/44/61 5/5/5 63/31/62
f 62/44/61 63/31/62 64/33/63
f 65/41/64 66/45/12 67/43/65
f 67/43/65 66/45/12 11/8/11
f 67/43/65 11/8/11 68/44/66
f 68/44/66 11/8/11 69/9/67
f 68/44/66 69/9/67 46/33/45
f 46/33/45 69/9/67 70/24/68
f 46/33/45 70/24/68 2/2/2
f 1/1/1 42/32/41 46/33/45
f 46/33/45 42/32/41 41/31/40
f 46/33/45 41/31/40 68/44/66
f 68/44/66 41/31/40 39/5/38
f 68/44/66 39/5/38 67/43/65
f 67/43/65 39/5/38 71/42/69
f 67/43/65 71/42/69 65/41/64
f 5/5/5 4/4/4 63/31/62
f 63/31/62 4/4/4 58/32/57
f 63/31/62 58/32/57 64/33/63
f 64/33/63 58/32/57 57/1/56
f 64/33/63 57/1/56 72/2/70
f 72/2/70 57/1/56 28/3/28
f 72/2/70 28/3/28 73/46/71
f 73/46/71 28/3/28 26/21/26
f 73/46/71 26/21/26 74/47/24
f 74/47/24 26/21/26 25/20/25
f 74/47/24 25/20/25 75/21/72
f 8/8/8 7/7/7 12/10/12
f 12/10/12 7/7/7 49/35/48
f 12/10/12 49/35/48 10/7/10
f 10/7/10 49/35/48 50/36/49
f 10/7/10 50/36/49 76/23/73
f 76/23/73 50/36/49 51/37/50
f 76/23/73 51/37/50 77/25/74
f 77/25/74 51/37/50 52/38/51
f 77/25/74 52/38/51 78/46/75
f 75/21/72 78/46/75 74/47/24
f 74/47/24 78/46/75 52/38/51
f 74/47/24 52/38/51 73/46/71
f 73/46/71 52/38/51 32/25/32
f 73/46/71 32/25/32 72/2/70
f 72/2/70 32/25/32 31/24/31
f 72/2/70 31/24/31 64/33/63
f 64/33/63 31/24/31 9/9/9
f 64/33/63 9/9/9 62/44/61
f 62/44/61 9/9/9 8/8/8
f 62/44/61 8/8/8 61/43/60
f 61/43/60 8/8/8 66/45/12
f 61/43/60 66/45/12 59/41/58
f 11/8/11 10/7/10 69/9/67
f 69/9/67 10/7/10 76/23/73
f 69/9/67 76/23/73 70/24/68
f 70/24/68 76/23/73 77/25/74
f 70/24/68 77/25/74 2/2/2
f 2/2/2 77/25/74 78/46/75
f 2/2/2 78/46/75 3/3/3
f 3/3/3 78/46/75 75/21/72
f 3/3/3 75/21/72 48/22/47
f 48/22/47 75/21/72 25/20/25
f 48/22/47 25/20/25 47/34/46
f 47/34/46 25/20/25 27/22/27
f 47/34/46 27/22/27 24/19/24
f 24/19/24 27/22/27 29/18/29
f 24/19/24 29/18/29 22/17/22
f 22/17/22 29/18/29 37/30/36
f 22/17/22 37/30/36 23/18/23
f 23/18/23 37/30/36 36/29/35
f 23/18/23 36/29/35 3/3/3
f 3/3/3 36/29/35 79/40/76
f 3/3/3 79/40/76 1/1/1
f 1/1/1 79/40/76 18/11/18
f 1/1/1 18/11/18 42/32/41
f 42/32/41 18/11/18 17/12/17
f 42/32/41 17/12/17 40/4/39
o editpl_f-0000-1868
v -3.153329 58.581577 9.473166
v -5.830483 59.694881 7.184891
v -5.134740 56.833019 8.811912
v 7.145252 54.484493 4.737692
v 7.356885 52.248260 3.760813
v 7.743115 55.148624 0.346738
v 9.491730 52.739140 -2.903968
v 9.700718 54.972164 -2.869516
v 8.986457 56.120762 -1.190263
v 7.743115 55.148624 0.346738
v 8.986457 56.120762 -1.190263
v 7.542063 53.236439 -2.550558
v 9.700718 54.972164 -2.869516
v 9.491730 52.739140 -2.903968
v 7.801314 49.745735 -1.209156
v 7.801314 49.745735 -1.209156
v 7.224614 49.758568 0.271166
v 7.743115 55.148624 0.346738
v 0.828013 52.469639 10.295568
v 0.000000 52.549847 10.682317
v 0.000000 51.657921 11.194652
v -0.828013 52.469639 10.295568
v 4.854327 53.502731 8.336252
v 6.089733 53.355148 7.017076
v 5.878101 54.420326 7.478288
v 6.547389 55.960342 6.755908
v 5.134740 56.833019 8.811912
v 2.965504 56.727142 9.813240
v 4.875490 54.898373 8.420715
v -7.224614 49.758568 0.271166
v -7.743115 55.148624 0.346738
v -8.986457 56.120762 -1.190263
v -7.801314 49.745735 -1.209156
v -9.491730 52.739140 -2.903968
v -7.542063 53.236439 -2.550558
v -9.700718 54.972164 -2.869516
v -8.986457 56.120762 -1.190263
v -7.743115 55.148624 0.346738
v -3.648020 54.317657 8.868590
v -2.436422 54.853455 9.031960
v -4.875490 54.898373 8.420715
v -2.965504 56.727142 9.813240
v -6.388665 61.982449 4.224246
v -3.851717 63.461506 7.007073
v -3.341153 60.272388 8.795240
v 0.000000 63.775925 8.289575
v -7.145252 54.484493 4.737692
v -6.089733 53.355148 7.017076
v -5.878101 54.420326 7.478288
v -4.854327 53.502731 8.336252
v -7.801314 49.745735 -1.209156
v -9.491730 52.739140 -2.903968
v -9.700718 54.972164 -2.869516
v 5.830483 59.694881 7.184891
v 3.341153 60.272388 8.795240
v 3.153329 58.581577 9.473166
v 0.000000 60.516224 9.865472
v 0.000000 58.462868 10.335574
v -1.320060 54.763622 9.723220
v 0.000000 54.612827 10.012172
v 0.000000 56.265137 10.490053
v 1.320060 54.763622 9.723220
v 2.436422 54.853455 9.031960
v 3.648020 54.317657 8.868590
v -6.547389 55.960342 6.755908
v -7.179642 58.392284 4.621000
v -7.743115 55.148624 0.346738
v -7.534127 59.544086 0.082236
v -7.542063 53.236439 -2.550558
v 0.989383 50.961704 11.013500
v 1.920568 50.217365 9.602083
v 2.364996 52.299595 9.509840
v 3.441678 50.204533 9.147539
v 3.767064 52.216179 9.065299
v 4.978661 50.130737 8.331807
v 5.124159 52.107094 8.476282
v -5.124159 52.107094 8.476282
v -4.978661 50.130737 8.331807
v -3.767064 52.216179 9.065299
v -3.441678 50.204533 9.147539
v -2.364996 52.299595 9.509840
v -1.920568 50.217365 9.602083
v -0.989383 50.961704 11.013500
v 0.000000 51.067581 11.690314
v 2.383514 53.554066 8.928603
v 1.719516 53.878113 9.056409
v 0.894149 53.727318 9.919930
v 3.851717 63.461506 7.007073
v 6.388665 61.982449 4.224246
v 7.179642 58.392284 4.621000
v 7.534127 59.544086 0.082236
v 7.542063 53.236439 -2.550558
v -0.894149 53.727318 9.919930
v -1.719516 53.878113 9.056409
v -2.383514 53.554066 8.928603
v -6.616170 51.901756 6.643662
v -7.356885 52.248260 3.760813
v 6.616170 51.901756 6.643662
vn -0.3939 0.2285 0.8903
vn -0.7535 0.2590 0.6043
vn -0.6285 -0.0000 0.7778
vn 0.9518 -0.0000 0.3068
vn 0.9835 -0.1023 0.1495
vn 0.9888 -0.0078 0.1491
vn 0.8857 -0.1724 0.4311
vn 0.8942 -0.0863 0.4393
vn 0.8551 -0.0941 0.5099
vn -0.7919 0.5331 -0.2979
vn -0.6859 0.5597 -0.4651
vn -0.6436 0.1334 -0.7536
vn -0.3852 0.3223 -0.8647
vn -0.2115 -0.1645 -0.9634
vn -0.2207 -0.6777 -0.7014
vn 0.9448 -0.2991 0.1339
vn 0.9888 -0.0079 0.1491
vn 0.5589 0.2834 0.7793
vn -0.0000 0.3537 0.9353
vn -0.0000 0.5364 0.8440
vn -0.5589 0.2834 0.7793
vn 0.4969 0.0158 0.8676
vn 0.8101 0.0708 0.5820
vn 0.7800 -0.1182 0.6145
vn 0.8944 -0.0078 0.4472
vn 0.6285 -0.0000 0.7778
vn 0.3385 -0.1495 0.9290
vn 0.4337 -0.1341 0.8910
vn -0.9448 -0.2992 0.1339
vn -0.9888 -0.0078 0.1491
vn -0.8551 -0.0941 0.5099
vn 0.2207 -0.6777 -0.7014
vn 0.2115 -0.1645 -0.9634
vn 0.6436 0.1334 -0.7536
vn 0.3852 0.3223 -0.8647
vn 0.6859 0.5597 -0.4651
vn 0.7919 0.5331 -0.2979
vn -0.2275 -0.0470 0.9726
vn -0.2978 -0.2038 0.9326
vn -0.4337 -0.1341 0.8910
vn -0.3385 -0.1496 0.9290
vn -0.8978 0.2993 0.3229
vn -0.5662 0.4089 0.7157
vn -0.4153 0.3527 0.8385
vn -0.0000 0.4410 0.8975
vn -0.9518 -0.0000 0.3068
vn -0.8101 0.0708 0.5820
vn -0.7800 -0.1182 0.6145
vn -0.4969 0.0158 0.8676
vn -0.8857 -0.1724 0.4311
vn -0.8942 -0.0863 0.4393
vn 0.7535 0.2590 0.6043
vn 0.4153 0.3527 0.8385
vn 0.3939 0.2285 0.8903
vn -0.0000 0.3304 0.9439
vn -0.0000 0.1491 0.9888
vn -0.4178 -0.2444 0.8751
vn -0.0000 0.0393 0.9992
vn -0.0000 -0.1568 0.9876
vn 0.4178 -0.2444 0.8751
vn 0.2978 -0.2038 0.9326
vn 0.2275 -0.0470 0.9726
vn -0.8944 -0.0078 0.4472
vn -0.9664 0.1022 0.2357
vn -0.9940 0.1018 0.0391
vn -0.9948 0.0392 -0.0940
vn 0.6506 -0.1490 0.7447
vn 0.4329 -0.0865 0.8973
vn 0.3620 0.1889 0.9128
vn 0.3852 -0.1415 0.9119
vn 0.3535 0.1257 0.9270
vn 0.6210 -0.1808 0.7626
vn 0.6361 0.0550 0.7697
vn -0.6361 0.0550 0.7697
vn -0.6211 -0.1808 0.7626
vn -0.3535 0.1257 0.9270
vn -0.3852 -0.1415 0.9119
vn -0.3620 0.1889 0.9128
vn -0.4332 -0.0787 0.8979
vn -0.6506 -0.1490 0.7447
vn -0.0000 0.0236 0.9997
vn 0.2281 0.1101 0.9674
vn 0.5169 0.0627 0.8537
vn 0.5023 0.1256 0.8555
vn 0.5662 0.4089 0.7157
vn 0.8978 0.2993 0.3229
vn 0.9664 0.1022 0.2357
vn 0.9940 0.1017 0.0391
vn 0.9948 0.0392 -0.0940
vn -0.5023 0.1256 0.8555
vn -0.5169 0.0627 0.8537
vn -0.2281 0.1101 0.9674
vn -0.8781 -0.0157 0.4782
vn -0.9835 -0.1023 0.1495
vn 0.8781 -0.0157 0.4782
vt 0.647766 0.178253
vt 0.782959 0.104614
vt 0.784332 0.274963
vt 0.923553 0.419373
vt 0.938965 0.572754
vt 0.975433 0.413086
vt 0.011627 0.541260
vt 0.011627 0.373413
vt 0.036835 0.373413
vt 0.032990 0.610321
vt 0.013550 0.587402
vt 0.032990 0.621338
vt 0.011139 0.603088
vt 0.011139 0.627136
vt 0.018372 0.654877
vt 0.053650 0.654327
vt 0.129089 0.654327
vt 0.129089 0.479553
vt 0.547821 0.541077
vt 0.495697 0.538300
vt 0.495697 0.592285
vt 0.781982 0.467926
vt 0.865875 0.465179
vt 0.856384 0.410126
vt 0.878326 0.291534
vt 0.641541 0.272919
vt 0.781677 0.388947
vt 0.710114 0.426331
vt 0.653290 0.390778
vt 0.779938 0.010895
vt 0.654266 0.010895
vt 0.653961 0.083588
vt 0.495697 0.010895
vt 0.495697 0.120239
vt 0.495697 0.223236
vt 0.579529 0.384583
vt 0.495697 0.386078
vt 0.495697 0.313232
vt 0.929474 0.155853
vt 0.986450 0.011078
vt 0.986481 0.593353
vt 0.550232 0.638824
vt 0.595245 0.682739
vt 0.624695 0.544800
vt 0.673859 0.679443
vt 0.710022 0.549500
vt 0.775574 0.663910
vt 0.791016 0.554657
vt 0.495697 0.631683
vt 0.641815 0.468170
vt 0.607361 0.456299
vt 0.549347 0.448090
vt 0.883820 0.566376
s 1
usemtl f_face088
f 80/48/77 81/49/78 82/50/79
f 83/51/80 84/52/81 85/53/82
f 86/54/83 87/55/84 88/56/85
f 89/57/86 90/58/87 91/59/88
f 90/58/87 92/60/89 91/59/88
f 91/59/88 92/60/89 93/61/90
f 91/59/88 93/61/90 94/62/91
f 95/63/91 86/54/83 96/64/92
f 96/64/92 86/54/83 88/56/85
f 96/64/92 88/56/85 97/65/93
f 98/66/94 99/67/95 100/68/96
f 100/68/96 99/67/95 101/66/97
f 102/69/98 103/70/99 104/71/100
f 104/71/100 103/70/99 83/51/80
f 104/71/100 83/51/80 105/72/101
f 106/50/102 107/73/103 108/74/104
f 109/64/105 110/65/106 111/56/107
f 112/62/108 113/61/109 114/59/110
f 113/61/109 115/60/111 114/59/110
f 114/59/110 115/60/111 116/58/112
f 114/59/110 116/58/112 117/57/113
f 118/75/114 119/76/115 120/74/116
f 120/74/116 119/76/115 121/73/117
f 122/77/118 81/49/78 123/78/119
f 123/78/119 81/49/78 124/79/120
f 123/78/119 124/79/120 125/80/121
f 126/51/122 127/70/123 128/71/124
f 128/71/124 127/70/123 129/69/125
f 130/63/108 109/64/105 131/54/126
f 131/54/126 109/64/105 111/56/107
f 131/54/126 111/56/107 132/55/127
f 133/49/128 134/79/129 135/48/130
f 135/48/130 134/79/129 136/81/131
f 135/48/130 136/81/131 137/82/132
f 137/82/132 136/81/131 80/48/77
f 137/82/132 80/48/77 121/73/117
f 121/73/117 80/48/77 82/50/79
f 121/73/117 82/50/79 120/74/116
f 138/83/133 139/84/134 140/85/135
f 140/85/135 139/84/134 141/83/136
f 140/85/135 141/83/136 107/73/103
f 107/73/103 141/83/136 142/76/137
f 107/73/103 142/76/137 108/74/104
f 108/74/104 142/76/137 143/75/138
f 128/71/124 144/72/139 126/51/122
f 126/51/122 144/72/139 145/86/140
f 126/51/122 145/86/140 146/53/106
f 146/53/106 145/86/140 147/87/141
f 146/53/106 147/87/141 148/88/142
f 100/68/96 149/89/143 98/66/94
f 98/66/94 149/89/143 150/90/144
f 98/66/94 150/90/144 151/91/145
f 151/91/145 150/90/144 152/92/146
f 151/91/145 152/92/146 153/93/147
f 153/93/147 152/92/146 154/94/148
f 153/93/147 154/94/148 155/95/149
f 156/95/150 157/94/151 158/93/152
f 158/93/152 157/94/151 159/92/153
f 158/93/152 159/92/153 160/91/154
f 160/91/154 159/92/153 161/90/155
f 160/91/154 161/90/155 101/66/97
f 101/66/97 161/90/155 162/89/156
f 101/66/97 162/89/156 100/68/96
f 100/68/96 162/89/156 163/96/157
f 100/68/96 163/96/157 149/89/143
f 105/72/101 106/50/102 104/71/100
f 104/71/100 106/50/102 108/74/104
f 104/71/100 108/74/104 102/69/98
f 102/69/98 108/74/104 143/75/138
f 102/69/98 143/75/138 164/97/158
f 164/97/158 143/75/138 142/76/137
f 164/97/158 142/76/137 165/98/159
f 165/98/159 142/76/137 141/83/136
f 165/98/159 141/83/136 166/99/160
f 166/99/160 141/83/136 139/84/134
f 81/49/78 80/48/77 124/79/120
f 124/79/120 80/48/77 136/81/131
f 124/79/120 136/81/131 125/80/121
f 125/80/121 136/81/131 134/79/129
f 125/80/121 134/79/129 167/78/161
f 167/78/161 134/79/129 133/49/128
f 167/78/161 133/49/128 168/77/162
f 168/77/162 133/49/128 169/86/163
f 168/77/162 169/86/163 170/87/164
f 170/87/164 169/86/163 85/53/82
f 170/87/164 85/53/82 171/88/165
f 99/67/95 172/99/166 101/66/97
f 101/66/97 172/99/166 173/98/167
f 101/66/97 173/98/167 160/91/154
f 160/91/154 173/98/167 174/97/168
f 160/91/154 174/97/168 158/93/152
f 158/93/152 174/97/168 129/69/125
f 158/93/152 129/69/125 156/95/150
f 156/95/150 129/69/125 127/70/123
f 156/95/150 127/70/123 175/100/169
f 175/100/169 127/70/123 126/51/122
f 175/100/169 126/51/122 176/52/170
f 176/52/170 126/51/122 146/53/106
f 119/76/115 138/83/133 121/73/117
f 121/73/117 138/83/133 140/85/135
f 121/73/117 140/85/135 137/82/132
f 137/82/132 140/85/135 107/73/103
f 137/82/132 107/73/103 135/48/130
f 135/48/130 107/73/103 106/50/102
f 135/48/130 106/50/102 133/49/128
f 133/49/128 106/50/102 105/72/101
f 133/49/128 105/72/101 169/86/163
f 169/86/163 105/72/101 83/51/80
f 169/86/163 83/51/80 85/53/82
f 84/52/81 83/51/80 177/100/171
f 177/100/171 83/51/80 103/70/99
f 177/100/171 103/70/99 155/95/149
f 155/95/149 103/70/99 102/69/98
f 155/95/149 102/69/98 153/93/147
f 153/93/147 102/69/98 164/97/158
f 153/93/147 164/97/158 151/91/145
f 151/91/145 164/97/158 165/98/159
f 151/91/145 165/98/159 98/66/94
f 98/66/94 165/98/159 166/99/160
f 98/66/94 166/99/160 99/67/95
f 99/67/95 166/99/160 139/84/134
f 99/67/95 139/84/134 172/99/166
f 172/99/166 139/84/134 138/83/133
f 172/99/166 138/83/133 173/98/167
f 173/98/167 138/83/133 119/76/115
f 173/98/167 119/76/115 174/97/168
f 174/97/168 119/76/115 118/75/114
f 174/97/168 118/75/114 129/69/125
f 129/69/125 118/75/114 120/74/116
f 129/69/125 120/74/116 128/71/124
f 128/71/124 120/74/116 82/50/79
f 128/71/124 82/50/79 144/72/139
f 144/72/139 82/50/79 81/49/78
f 144/72/139 81/49/78 145/86/140
f 145/86/140 81/49/78 122/77/118
f 145/86/140 122/77/118 147/87/141
