mtllib f_face007.mtl
o editpl_f-0000-1849
v 0.000000 46.755535 9.761006
v -1.531692 47.223957 9.679877
v -1.880886 46.303158 8.781904
v -5.211457 52.010841 8.304023
v -4.920462 50.008820 8.305134
v -3.465487 50.259071 8.914155
v -6.311948 47.406834 1.444754
v -7.542063 53.236439 -2.550558
v -4.113612 46.556618 0.512330
v 5.938945 49.482651 6.273582
v 6.282848 52.171261 6.608099
v 5.211457 52.010841 8.304023
v 2.216853 50.512535 9.434268
v 2.034320 52.453598 9.449827
v 2.074001 50.595951 9.458718
v 7.743115 55.148624 0.346738
v 6.973300 52.636475 4.604330
v 7.171706 49.758568 0.271166
v 6.311948 47.406834 1.444754
v 7.542063 53.236439 -2.550558
v 4.113612 46.556618 0.512330
v 7.542063 53.236439 -2.550558
v 7.801314 49.745735 -1.209156
v 7.171706 49.758568 0.271166
v 0.000000 50.053738 10.521172
v 1.002610 51.256878 11.239105
v 0.000000 50.534992 11.226880
v 0.000000 43.765339 3.215140
v 5.002470 46.133114 3.023986
v 3.005186 44.615555 6.026862
v 5.346373 46.867828 4.893283
v 3.428451 45.690357 6.911499
v 4.872845 47.265667 6.684783
v 0.000000 47.204708 10.064405
v 1.531692 47.223957 9.679877
v 0.954993 48.311592 9.589858
v -7.171706 49.758568 0.271166
v -6.973300 52.636475 4.604330
v -7.743115 55.148624 0.346738
v -1.449685 49.177853 10.271117
v -2.216853 50.512535 9.434268
v -5.938945 49.482651 6.273582
v -2.899369 46.065739 7.939500
v -3.428451 45.690357 6.911499
v -2.423195 45.234772 7.836143
v -3.005186 44.615555 6.026862
v -7.171706 49.758568 0.271166
v -7.801314 49.745735 -1.209156
v -7.542063 53.236439 -2.550558
v 6.544744 49.245228 3.654123
v 6.393956 48.106258 2.303830
v 0.000000 43.730045 8.059526
v 1.822687 44.105427 7.446060
v 0.000000 44.336426 8.887484
v 1.470848 44.974892 8.757455
v 0.000000 45.154560 9.269788
v 1.880886 46.303158 8.781904
v 0.000000 46.043278 9.268677
v 4.920462 50.008820 8.305134
v 2.687736 48.022842 8.846363
v 3.917852 47.596130 8.170660
v 2.899369 46.065739 7.939500
v 2.423195 45.234772 7.836143
v 0.000000 49.139355 10.690097
v 1.449685 49.177853 10.271117
v 3.465487 50.259071 8.914155
v -6.393956 48.106258 2.303830
v -6.544744 49.245228 3.654123
v -6.282848 52.171261 6.608099
v 0.000000 51.552044 11.666976
v -1.002610 51.256878 11.239105
v -2.074001 50.595951 9.458718
v -2.034320 52.453598 9.449827
v -3.436387 52.055759 8.844140
v -1.470848 44.974892 8.757455
v -1.822687 44.105427 7.446060
v 0.000000 48.147968 9.797681
v -0.954993 48.311592 9.589858
v -2.687736 48.022842 8.846363
v -3.917852 47.596130 8.170660
v -4.872845 47.265667 6.684783
v -5.346373 46.867828 4.893283
v -5.002470 46.133114 3.023986
v 3.436387 52.055759 8.844140
vn -0.0000 -0.5886 0.8084
vn -0.4006 -0.2277 0.8875
vn -0.4263 -0.3237 0.8447
vn -0.6454 0.0236 0.7635
vn -0.5980 -0.1888 0.7789
vn -0.3532 -0.0550 0.9339
vn -0.7076 -0.6604 -0.2516
vn -0.5820 -0.5427 -0.6056
vn -0.4817 -0.7423 -0.4659
vn 0.8814 -0.2361 0.4092
vn 0.9049 -0.0237 0.4249
vn 0.6454 0.0236 0.7635
vn 0.4075 0.0862 0.9091
vn 0.3925 0.2433 0.8870
vn 0.5271 0.0079 0.8498
vn 0.9819 -0.0157 0.1885
vn 0.9707 -0.0783 0.2270
vn 0.9349 -0.3143 0.1650
vn 0.7076 -0.6604 -0.2515
vn 0.5820 -0.5427 -0.6056
vn 0.4817 -0.7423 -0.4659
vn -0.6359 0.1256 -0.7615
vn -0.2120 -0.6752 -0.7065
vn -0.0000 -0.1414 0.9899
vn 0.6218 -0.0787 0.7792
vn -0.0000 -0.6237 0.7816
vn -0.0000 -0.9835 -0.1810
vn 0.6750 -0.7378 -0.0000
vn 0.6371 -0.7473 0.1888
vn 0.8170 -0.5263 0.2357
vn 0.7008 -0.5669 0.4331
vn 0.7865 -0.4483 0.4247
vn -0.0000 -0.0236 0.9997
vn 0.4006 -0.2277 0.8875
vn 0.2829 -0.1258 0.9509
vn -0.9349 -0.3143 0.1650
vn -0.9707 -0.0783 0.2270
vn -0.9819 -0.0157 0.1885
vn -0.4076 -0.1881 0.8936
vn -0.4075 0.0862 0.9091
vn -0.8814 -0.2361 0.4092
vn -0.6462 -0.4413 0.6226
vn -0.7008 -0.5669 0.4331
vn -0.6913 -0.5264 0.4950
vn -0.6371 -0.7473 0.1888
vn 0.2119 -0.6752 -0.7065
vn 0.6359 0.1256 -0.7615
vn 0.9374 -0.2757 0.2127
vn 0.9045 -0.3932 0.1652
vn -0.0000 -0.9548 0.2974
vn 0.4726 -0.8034 0.3623
vn -0.0000 -0.6831 0.7303
vn 0.5024 -0.4239 0.7536
vn -0.0000 -0.1810 0.9835
vn 0.4263 -0.3237 0.8447
vn -0.0000 -0.2902 0.9570
vn 0.5980 -0.1888 0.7789
vn 0.4728 -0.1970 0.8589
vn 0.6126 -0.3535 0.7069
vn 0.6462 -0.4413 0.6226
vn 0.6913 -0.5264 0.4950
vn -0.0000 -0.2830 0.9591
vn 0.4076 -0.1881 0.8936
vn 0.3532 -0.0550 0.9339
vn -0.9045 -0.3932 0.1652
vn -0.9374 -0.2757 0.2127
vn -0.9049 -0.0237 0.4249
vn -0.0000 0.0785 0.9969
vn -0.6218 -0.0787 0.7792
vn -0.5271 0.0079 0.8498
vn -0.3925 0.2433 0.8870
vn -0.3531 0.1334 0.9260
vn -0.5024 -0.4239 0.7536
vn -0.4726 -0.8034 0.3623
vn -0.0000 -0.2277 0.9737
vn -0.2829 -0.1258 0.9509
vn -0.4728 -0.1970 0.8589
vn -0.6126 -0.3535 0.7069
vn -0.7865 -0.4483 0.4247
vn -0.8170 -0.5263 0.2357
vn -0.6750 -0.7378 -0.0000
vn 0.3531 0.1334 0.9260
vt 0.502808 0.853302
vt 0.570892 0.833435
vt 0.586884 0.889038
vt 0.761108 0.573761
vt 0.732056 0.711548
vt 0.672668 0.692566
vt 0.945282 0.943268
vt 0.987823 0.593323
vt 0.987823 0.987244
vt 0.824036 0.724548
vt 0.850830 0.575439
vt 0.610718 0.679565
vt 0.601624 0.558044
vt 0.598358 0.672913
vt 0.978546 0.413086
vt 0.938263 0.565216
vt 0.970734 0.737885
vt 0.036102 0.621338
vt 0.021484 0.654877
vt 0.036102 0.658783
vt 0.502808 0.712921
vt 0.546326 0.638824
vt 0.502808 0.685638
vt 0.502808 0.987244
vt 0.827362 0.949524
vt 0.731445 0.960358
vt 0.844910 0.900421
vt 0.718750 0.924652
vt 0.758636 0.857788
vt 0.502808 0.833862
vt 0.551453 0.787628
vt 0.558258 0.750061
vt 0.650909 0.902985
vt 0.651978 0.931915
vt 0.918335 0.728394
vt 0.919739 0.891388
vt 0.502808 0.977356
vt 0.564972 0.977356
vt 0.502808 0.960388
vt 0.572479 0.948944
vt 0.502808 0.929504
vt 0.502808 0.898651
vt 0.625000 0.795746
vt 0.693329 0.821991
vt 0.502808 0.754883
vt 0.502808 0.621368
vt 0.674103 0.567535
vt 0.502808 0.794922
s 1
usemtl f_face079
f 1/1/1 2/2/2 3/3/3
f 4/4/4 5/5/5 6/6/6
f 7/7/7 8/8/8 9/9/9
f 10/10/10 11/11/11 12/4/12
f 13/12/13 14/13/14 15/14/15
f 16/15/16 17/16/17 18/17/18
f 18/17/18 19/7/19 20/8/20
f 20/8/20 19/7/19 21/9/21
f 22/18/22 23/19/23 24/20/18
f 13/12/13 15/14/15 25/21/24
f 25/21/24 15/14/15 26/22/25
f 25/21/24 26/22/25 27/23/26
f 28/24/27 29/25/28 30/26/29
f 30/26/29 29/25/28 31/27/30
f 30/26/29 31/27/30 32/28/31
f 32/28/31 31/27/30 33/29/32
f 2/2/2 1/1/1 34/30/33
f 34/30/33 1/1/1 35/2/34
f 34/30/33 35/2/34 36/31/35
f 37/17/36 38/16/37 39/15/38
f 40/32/39 25/21/24 41/12/40
f 5/5/5 4/4/4 42/10/41
f 43/33/42 44/28/43 45/34/44
f 45/34/44 44/28/43 46/26/45
f 8/8/8 7/7/7 37/17/36
f 47/20/36 48/19/46 49/18/47
f 11/11/11 10/10/10 17/16/17
f 17/16/17 10/10/10 50/35/48
f 17/16/17 50/35/48 18/17/18
f 18/17/18 50/35/48 51/36/49
f 18/17/18 51/36/49 19/7/19
f 52/37/50 53/38/51 54/39/52
f 54/39/52 53/38/51 55/40/53
f 54/39/52 55/40/53 56/41/54
f 56/41/54 55/40/53 57/3/55
f 56/41/54 57/3/55 58/42/56
f 59/5/57 60/43/58 61/44/59
f 61/44/59 60/43/58 57/3/55
f 61/44/59 57/3/55 62/33/60
f 62/33/60 57/3/55 55/40/53
f 62/33/60 55/40/53 63/34/61
f 63/34/61 55/40/53 53/38/51
f 10/10/10 33/29/32 50/35/48
f 50/35/48 33/29/32 31/27/30
f 50/35/48 31/27/30 51/36/49
f 51/36/49 31/27/30 29/25/28
f 51/36/49 29/25/28 19/7/19
f 19/7/19 29/25/28 28/24/27
f 19/7/19 28/24/27 21/9/21
f 40/32/39 64/45/62 25/21/24
f 25/21/24 64/45/62 65/32/63
f 25/21/24 65/32/63 13/12/13
f 13/12/13 65/32/63 60/43/58
f 13/12/13 60/43/58 66/6/64
f 66/6/64 60/43/58 59/5/57
f 7/7/7 67/36/65 37/17/36
f 37/17/36 67/36/65 68/35/66
f 37/17/36 68/35/66 38/16/37
f 38/16/37 68/35/66 42/10/41
f 38/16/37 42/10/41 69/11/67
f 69/11/67 42/10/41 4/4/4
f 26/22/25 70/46/68 27/23/26
f 27/23/26 70/46/68 71/22/69
f 27/23/26 71/22/69 25/21/24
f 25/21/24 71/22/69 72/14/70
f 25/21/24 72/14/70 41/12/40
f 41/12/40 72/14/70 73/13/71
f 41/12/40 73/13/71 74/47/72
f 3/3/3 43/33/42 75/40/73
f 75/40/73 43/33/42 45/34/44
f 75/40/73 45/34/44 76/38/74
f 76/38/74 45/34/44 46/26/45
f 76/38/74 46/26/45 28/24/27
f 36/31/35 77/48/75 34/30/33
f 34/30/33 77/48/75 78/31/76
f 34/30/33 78/31/76 2/2/2
f 2/2/2 78/31/76 79/43/77
f 2/2/2 79/43/77 3/3/3
f 3/3/3 79/43/77 80/44/78
f 3/3/3 80/44/78 43/33/42
f 43/33/42 80/44/78 81/29/79
f 43/33/42 81/29/79 44/28/43
f 44/28/43 81/29/79 82/27/80
f 44/28/43 82/27/80 46/26/45
f 46/26/45 82/27/80 83/25/81
f 46/26/45 83/25/81 28/24/27
f 9/9/9 28/24/27 7/7/7
f 7/7/7 28/24/27 83/25/81
f 7/7/7 83/25/81 67/36/65
f 67/36/65 83/25/81 82/27/80
f 67/36/65 82/27/80 68/35/66
f 68/35/66 82/27/80 81/29/79
f 68/35/66 81/29/79 42/10/41
f 42/10/41 81/29/79 80/44/78
f 42/10/41 80/44/78 5/5/5
f 5/5/5 80/44/78 79/43/77
f 5/5/5 79/43/77 6/6/6
f 14/13/14 13/12/13 84/47/82
f 84/47/82 13/12/13 66/6/64
f 84/47/82 66/6/64 12/4/12
f 12/4/12 66/6/64 59/5/57
f 12/4/12 59/5/57 10/10/10
f 10/10/10 59/5/57 61/44/59
f 10/10/10 61/44/59 33/29/32
f 33/29/32 61/44/59 62/33/60
f 33/29/32 62/33/60 32/28/31
f 32/28/31 62/33/60 63/34/61
f 32/28/31 63/34/61 30/26/29
f 30/26/29 63/34/61 53/38/51
f 30/26/29 53/38/51 28/24/27
f 28/24/27 53/38/51 52/37/50
f 28/24/27 52/37/50 76/38/74
f 76/38/74 52/37/50 54/39/52
f 76/38/74 54/39/52 75/40/73
f 75/40/73 54/39/52 56/41/54
f 75/40/73 56/41/54 3/3/3
f 3/3/3 56/41/54 58/42/56
f 3/3/3 58/42/56 1/1/1
f 1/1/1 58/42/56 57/3/55
f 1/1/1 57/3/55 35/2/34
f 35/2/34 57/3/55 60/43/58
f 35/2/34 60/43/58 36/31/35
f 36/31/35 60/43/58 65/32/63
f 36/31/35 65/32/63 77/48/75
f 77/48/75 65/32/63 64/45/62
f 77/48/75 64/45/62 78/31/76
f 78/31/76 64/45/62 40/32/39
f 78/31/76 40/32/39 79/43/77
f 79/43/77 40/32/39 41/12/40
f 79/43/77 41/12/40 6/6/6
f 6/6/6 41/12/40 74/47/72
f 6/6/6 74/47/72 4/4/4
o editpl_f-0000-1850
v 0.000000 53.287773 10.414481
v 0.000000 51.552044 11.666976
v 1.002610 51.256878 11.239105
v -5.015697 54.038528 7.910604
v -5.880746 54.705872 7.062642
v -5.933654 53.865276 6.947061
v 0.000000 63.775925 8.289575
v 3.341153 60.140846 8.998617
v 3.851717 63.461506 7.007073
v 9.491730 52.739140 -2.903968
v 9.700718 54.972164 -2.869516
v 8.986457 56.120762 -1.190263
v 7.743115 55.148624 0.346738
v 8.986457 56.120762 -1.190263
v 7.542063 53.236439 -2.550558
v 9.700718 54.972164 -2.869516
v 9.491730 52.739140 -2.903968
v 7.801314 49.745735 -1.209156
v 0.730133 54.933666 9.370921
v 0.690452 53.117729 10.113305
v 6.645270 54.413910 5.356716
v 5.880746 54.705872 7.062642
v 5.933654 53.865276 6.947061
v 5.015697 54.038528 7.910604
v 7.801314 49.745735 -1.209156
v 7.171706 49.758568 0.271166
v 7.743115 55.148624 0.346738
v -3.341153 60.140846 8.998617
v 0.000000 58.273575 10.199989
v 0.000000 60.256348 9.799902
v -6.973300 52.636475 4.604330
v -6.282848 52.171261 6.608099
v -6.645270 54.413910 5.356716
v -7.171706 49.758568 0.271166
v -7.743115 55.148624 0.346738
v -8.986457 56.120762 -1.190263
v -7.801314 49.745735 -1.209156
v -9.491730 52.739140 -2.903968
v -7.542063 53.236439 -2.550558
v -9.700718 54.972164 -2.869516
v -8.986457 56.120762 -1.190263
v -7.743115 55.148624 0.346738
v -2.595147 55.389252 8.636317
v -1.743325 54.150822 8.282907
v -0.730133 54.933666 9.370921
v -2.663928 54.096279 8.592974
v -3.698283 54.709080 8.670769
v -1.002610 51.256878 11.239105
v -0.690452 53.117729 10.113305
v -2.074001 50.595951 9.458718
v -2.034320 52.453598 9.449827
v -3.436387 52.055759 8.844140
v -5.211457 52.010841 8.304023
v -7.801314 49.745735 -1.209156
v -9.491730 52.739140 -2.903968
v -9.700718 54.972164 -2.869516
v 2.595147 55.389252 8.636317
v 2.965504 56.371014 9.662096
v 5.129450 56.553890 8.687439
v 5.830483 59.617882 7.213786
v 6.388665 61.982449 4.224246
v 1.743325 54.150822 8.282907
v 2.034320 52.453598 9.449827
v 2.663928 54.096279 8.592974
v 3.436387 52.055759 8.844140
v 5.211457 52.010841 8.304023
v 6.282848 52.171261 6.608099
v 6.973300 52.636475 4.604330
v 7.743115 55.148624 0.346738
v 7.534127 59.544086 0.082236
v 7.179642 58.392284 4.621000
v 6.161160 55.787090 7.227122
v 5.020988 55.331501 8.076196
v 3.698283 54.709080 8.670769
v 0.000000 56.082260 10.134421
v -2.965504 56.371014 9.662096
v -5.129450 56.553890 8.687439
v -5.830483 59.617882 7.213786
v -6.161160 55.787090 7.227122
v -7.179642 58.392284 4.621000
v -7.743115 55.148624 0.346738
v -5.020988 55.331501 8.076196
v 2.074001 50.595951 9.458718
v 7.542063 53.236439 -2.550558
v 0.000000 55.001041 9.537624
v -7.542063 53.236439 -2.550558
v -7.534127 59.544086 0.082236
v -6.388665 61.982449 4.224246
v -3.851717 63.461506 7.007073
vn -0.0000 0.4970 0.8678
vn -0.0000 0.0785 0.9969
vn 0.6218 -0.0787 0.7792
vn -0.5179 -0.0157 0.8553
vn -0.7881 -0.1419 0.5990
vn -0.8328 0.0629 0.5500
vn -0.0000 0.4314 0.9021
vn 0.3862 0.2680 0.8826
vn 0.5760 0.4182 0.7023
vn 0.8821 -0.1654 0.4410
vn 0.8942 -0.0863 0.4393
vn 0.8544 -0.1019 0.5095
vn -0.7919 0.5331 -0.2979
vn -0.6859 0.5597 -0.4651
vn -0.6359 0.1256 -0.7615
vn -0.3852 0.3223 -0.8647
vn -0.2115 -0.1645 -0.9634
vn -0.2120 -0.6751 -0.7066
vn 0.4640 -0.0944 0.8808
vn 0.5678 0.3233 0.7570
vn 0.9409 -0.0314 0.3372
vn 0.7881 -0.1419 0.5990
vn 0.8328 0.0629 0.5500
vn 0.5179 -0.0157 0.8553
vn -0.2120 -0.6752 -0.7065
vn 0.9349 -0.3142 0.1650
vn 0.9819 -0.0157 0.1886
vn -0.3862 0.2680 0.8826
vn -0.0000 0.1018 0.9948
vn -0.0000 0.2973 0.9548
vn -0.9707 -0.0782 0.2270
vn -0.9049 -0.0236 0.4249
vn -0.9409 -0.0314 0.3372
vn -0.9349 -0.3142 0.1650
vn -0.9819 -0.0157 0.1886
vn -0.8544 -0.1019 0.5095
vn 0.2120 -0.6751 -0.7066
vn 0.2115 -0.1645 -0.9634
vn 0.6359 0.1256 -0.7615
vn 0.3852 0.3223 -0.8647
vn 0.6859 0.5597 -0.4651
vn 0.7919 0.5331 -0.2979
vn -0.1886 -0.3457 0.9192
vn -0.2127 0.1260 0.9689
vn -0.4640 -0.0944 0.8808
vn -0.0548 0.0784 0.9954
vn -0.2273 -0.0627 0.9718
vn -0.6218 -0.0787 0.7792
vn -0.5678 0.3233 0.7570
vn -0.5272 0.0079 0.8497
vn -0.3925 0.2433 0.8870
vn -0.3531 0.1334 0.9260
vn -0.6454 0.0237 0.7635
vn 0.2120 -0.6752 -0.7065
vn -0.8821 -0.1654 0.4411
vn -0.8942 -0.0863 0.4393
vn 0.1886 -0.3457 0.9192
vn 0.3143 -0.3143 0.8958
vn 0.5528 -0.2132 0.8056
vn 0.7885 0.2366 0.5677
vn 0.8956 0.2985 0.3299
vn 0.2127 0.1261 0.9689
vn 0.3925 0.2433 0.8870
vn 0.0548 0.0784 0.9954
vn 0.3531 0.1334 0.9260
vn 0.6454 0.0237 0.7635
vn 0.9049 -0.0236 0.4249
vn 0.9707 -0.0782 0.2270
vn 0.9820 -0.0157 0.1885
vn 0.9940 0.1017 0.0391
vn 0.9654 0.0707 0.2512
vn 0.8323 -0.1492 0.5339
vn 0.5120 -0.1655 0.8429
vn 0.2273 -0.0627 0.9718
vn -0.0000 -0.3303 0.9439
vn -0.3143 -0.3143 0.8958
vn -0.5528 -0.2132 0.8056
vn -0.7885 0.2366 0.5677
vn -0.8323 -0.1492 0.5339
vn -0.9654 0.0707 0.2512
vn -0.9820 -0.0157 0.1885
vn -0.5120 -0.1655 0.8429
vn 0.5272 0.0079 0.8497
vn 0.9948 0.0392 -0.0940
vn -0.0000 -0.0158 0.9999
vn -0.9948 0.0392 -0.0940
vn -0.9940 0.1018 0.0391
vn -0.8956 0.2985 0.3299
vn -0.5760 0.4182 0.7023
vt 0.502808 0.519012
vt 0.502808 0.621368
vt 0.546326 0.638824
vt 0.756012 0.466736
vt 0.806946 0.428833
vt 0.830933 0.470093
vt 0.502808 0.012665
vt 0.657074 0.148682
vt 0.657379 0.012665
vt 0.012451 0.541260
vt 0.012451 0.373413
vt 0.039948 0.373413
vt 0.036102 0.610321
vt 0.014496 0.586975
vt 0.036102 0.621338
vt 0.012085 0.602661
vt 0.012085 0.626709
vt 0.021484 0.654877
vt 0.538513 0.422668
vt 0.537628 0.521790
vt 0.888000 0.434937
vt 0.056763 0.654327
vt 0.132202 0.654327
vt 0.132202 0.479553
vt 0.502808 0.257294
vt 0.502808 0.139771
vt 0.938263 0.565216
vt 0.850830 0.575439
vt 0.634796 0.396179
vt 0.590393 0.458893
vt 0.636963 0.463226
vt 0.685913 0.422394
vt 0.598358 0.672913
vt 0.601624 0.558044
vt 0.674103 0.567535
vt 0.761108 0.573761
vt 0.650787 0.328979
vt 0.774139 0.327942
vt 0.786041 0.169708
vt 0.783051 0.012665
vt 0.978546 0.413086
vt 0.988922 0.012695
vt 0.913086 0.230469
vt 0.839355 0.364349
vt 0.751434 0.406586
vt 0.502808 0.353058
vt 0.988403 0.593750
vt 0.502808 0.408875
s 1
usemtl f_face079
f 85/49/83 86/50/84 87/51/85
f 88/52/86 89/53/87 90/54/88
f 91/55/89 92/56/90 93/57/91
f 94/58/92 95/59/93 96/60/94
f 97/61/95 98/62/96 99/63/97
f 98/62/96 100/64/98 99/63/97
f 99/63/97 100/64/98 101/65/99
f 99/63/97 101/65/99 102/66/100
f 103/67/101 85/49/83 104/68/102
f 104/68/102 85/49/83 87/51/85
f 105/69/103 106/53/104 107/54/105
f 107/54/105 106/53/104 108/52/106
f 109/70/107 94/58/92 110/71/108
f 110/71/108 94/58/92 96/60/94
f 110/71/108 96/60/94 111/72/109
f 112/56/110 113/73/111 114/74/112
f 115/75/113 116/76/114 117/69/115
f 118/71/116 119/72/117 120/60/118
f 121/66/119 122/65/120 123/63/121
f 122/65/120 124/64/122 123/63/121
f 123/63/121 124/64/122 125/62/123
f 123/63/121 125/62/123 126/61/124
f 127/77/125 128/78/126 129/67/127
f 130/79/128 131/80/129 88/52/86
f 86/50/84 85/49/83 132/51/130
f 132/51/130 85/49/83 133/68/131
f 132/51/130 133/68/131 134/81/132
f 135/82/133 130/79/128 136/83/134
f 136/83/134 130/79/128 88/52/86
f 136/83/134 88/52/86 137/84/135
f 137/84/135 88/52/86 90/54/88
f 138/70/136 118/71/116 139/58/137
f 139/58/137 118/71/116 120/60/118
f 139/58/137 120/60/118 140/59/138
f 103/67/101 141/77/139 142/85/140
f 142/85/140 141/77/139 143/86/141
f 142/85/140 143/86/141 92/56/90
f 92/56/90 143/86/141 144/87/142
f 92/56/90 144/87/142 93/57/91
f 93/57/91 144/87/142 145/88/143
f 146/78/144 147/82/145 148/79/146
f 148/79/146 147/82/145 149/83/147
f 148/79/146 149/83/147 108/52/106
f 108/52/106 149/83/147 150/84/148
f 108/52/106 150/84/148 107/54/105
f 107/54/105 150/84/148 151/76/149
f 107/54/105 151/76/149 105/69/103
f 105/69/103 151/76/149 152/75/150
f 105/69/103 152/75/150 153/89/151
f 154/90/152 145/88/143 155/91/153
f 155/91/153 145/88/143 144/87/142
f 155/91/153 144/87/142 156/92/154
f 156/92/154 144/87/142 143/86/141
f 156/92/154 143/86/141 157/93/155
f 157/93/155 143/86/141 141/77/139
f 157/93/155 141/77/139 158/80/156
f 159/94/157 113/73/111 160/85/158
f 160/85/158 113/73/111 112/56/110
f 160/85/158 112/56/110 161/86/159
f 161/86/159 112/56/110 162/87/160
f 161/86/159 162/87/160 163/92/161
f 163/92/161 162/87/160 164/91/162
f 163/92/161 164/91/162 117/69/115
f 117/69/115 164/91/162 165/89/163
f 117/69/115 165/89/163 115/75/113
f 89/53/87 88/52/86 166/93/164
f 166/93/164 88/52/86 131/80/129
f 166/93/164 131/80/129 127/77/125
f 127/77/125 131/80/129 130/79/128
f 127/77/125 130/79/128 128/78/126
f 128/78/126 130/79/128 135/82/133
f 128/78/126 135/82/133 129/67/127
f 87/51/85 167/81/165 104/68/102
f 104/68/102 167/81/165 147/82/145
f 104/68/102 147/82/145 103/67/101
f 103/67/101 147/82/145 146/78/144
f 103/67/101 146/78/144 141/77/139
f 141/77/139 146/78/144 148/79/146
f 141/77/139 148/79/146 158/80/156
f 158/80/156 148/79/146 108/52/106
f 158/80/156 108/52/106 157/93/155
f 157/93/155 108/52/106 106/53/104
f 157/93/155 106/53/104 156/92/154
f 156/92/154 106/53/104 105/69/103
f 156/92/154 105/69/103 155/91/153
f 155/91/153 105/69/103 153/89/151
f 155/91/153 153/89/151 154/90/152
f 154/90/152 153/89/151 168/95/166
f 169/96/167 159/94/157 129/67/127
f 129/67/127 159/94/157 160/85/158
f 129/67/127 160/85/158 127/77/125
f 127/77/125 160/85/158 161/86/159
f 127/77/125 161/86/159 166/93/164
f 166/93/164 161/86/159 163/92/161
f 166/93/164 163/92/161 89/53/87
f 89/53/87 163/92/161 117/69/115
f 89/53/87 117/69/115 90/54/88
f 90/54/88 117/69/115 116/76/114
f 90/54/88 116/76/114 137/84/135
f 170/95/168 165/89/163 171/90/169
f 171/90/169 165/89/163 164/91/162
f 171/90/169 164/91/162 172/88/170
f 172/88/170 164/91/162 162/87/160
f 172/88/170 162/87/160 173/57/171
f 173/57/171 162/87/160 112/56/110
f 173/57/171 112/56/110 91/55/89
f 91/55/89 112/56/110 114/74/112
f 91/55/89 114/74/112 92/56/90
f 92/56/90 114/74/112 113/73/111
f 92/56/90 113/73/111 142/85/140
f 142/85/140 113/73/111 159/94/157
f 142/85/140 159/94/157 103/67/101
f 103/67/101 159/94/157 169/96/167
f 103/67/101 169/96/167 85/49/83
f 85/49/83 169/96/167 129/67/127
f 85/49/83 129/67/127 133/68/131
f 133/68/131 129/67/127 135/82/133
f 133/68/131 135/82/133 134/81/132
