mtllib f_face022.mtl
o editpl_f-0000-1823
v 4.169166 46.556618 0.512330
v 5.629432 46.056110 1.089123
v 0.000000 43.765339 3.210695
v 3.417870 48.125507 8.787461
v 1.325350 48.176842 9.476501
v 1.481430 47.634628 9.705439
v 6.383374 46.826118 0.539002
v 7.542063 53.236439 -2.550558
v 6.936265 49.704025 0.212264
v 7.542063 53.236439 -2.550558
v 7.801314 49.745735 -1.209156
v 6.936265 49.704025 0.212264
v 2.462877 46.325615 8.559634
v 1.634863 44.493637 8.291799
v 3.777645 45.693565 6.572536
v 1.743325 43.900089 7.145994
v 3.761773 44.987724 4.278705
v 5.370182 47.435711 6.255800
v 5.920427 47.275291 4.145342
v 5.968045 49.421692 6.491407
v 6.669078 49.508316 4.114223
v 6.166450 51.013039 6.561422
v 7.118798 52.466431 4.339828
v -1.743325 43.900089 7.145994
v 0.000000 43.492626 7.322699
v -1.158690 48.780018 10.455601
v -3.417870 48.125507 8.787461
v -1.325350 48.176842 9.476501
v -1.481430 47.634628 9.705439
v 0.000000 50.374577 11.262444
v -0.999965 50.743538 11.139083
v 0.000000 49.713650 10.316682
v -2.132200 50.092239 9.478724
v 0.000000 49.123310 10.431152
v -1.179853 49.046310 10.191100
v -6.936265 49.704025 0.212264
v -7.801314 49.745735 -1.209156
v -7.542063 53.236439 -2.550558
v -3.761773 44.987724 4.278705
v -5.629432 46.056110 1.089123
v -4.169166 46.556618 0.512330
v -2.462877 46.325615 8.559634
v -3.777645 45.693565 6.572536
v -1.634863 44.493637 8.291799
v -7.743115 55.097290 0.266721
v -6.936265 49.704025 0.212264
v -7.118798 52.466431 4.339828
v -6.669078 49.508316 4.114223
v -6.166450 51.013039 6.561422
v -5.968045 49.421692 6.491407
v 1.674544 47.130917 9.625422
v -5.370182 47.435711 6.255800
v -5.920427 47.275291 4.145342
v -6.383374 46.826118 0.539002
v -7.542063 53.236439 -2.550558
v -1.674544 47.130917 9.625422
v 7.743115 55.097290 0.266721
v 0.000000 48.805683 10.677873
v 0.000000 47.997173 9.716552
v 0.000000 47.746922 9.894368
v 0.000000 47.130917 10.077743
v 0.000000 46.344864 9.674321
v 0.000000 45.847569 9.045295
v 0.000000 44.156757 8.652989
v 1.158690 48.780018 10.455601
v 1.179853 49.046310 10.191100
v 2.132200 50.092239 9.478724
v 0.999965 50.743538 11.139083
v 0.000000 50.987373 11.645860
vn 0.0550 -0.6053 -0.7941
vn 0.4570 -0.8430 -0.2836
vn -0.0000 -0.9639 -0.2664
vn 0.5575 -0.1492 0.8166
vn 0.2274 -0.0549 0.9723
vn 0.2582 0.2269 0.9390
vn 0.8154 -0.5097 -0.2745
vn 0.6835 -0.4085 -0.6049
vn 0.9486 -0.2352 0.2116
vn -0.6108 0.1175 -0.7830
vn -0.1880 -0.6583 -0.7289
vn 0.9486 -0.2352 0.2117
vn 0.5034 -0.4955 0.7079
vn 0.4339 -0.5837 0.6863
vn 0.7075 -0.5975 0.3774
vn 0.4548 -0.8705 0.1882
vn 0.5820 -0.8101 0.0708
vn 0.7572 -0.4417 0.4811
vn 0.8331 -0.5109 0.2122
vn 0.8546 -0.2509 0.4547
vn 0.9618 -0.2050 0.1813
vn 0.8725 -0.0943 0.4794
vn 0.9680 -0.1338 0.2125
vn -0.4548 -0.8705 0.1882
vn -0.0000 -0.9570 0.2902
vn -0.3462 -0.1338 0.9286
vn -0.5575 -0.1492 0.8166
vn -0.2274 -0.0549 0.9723
vn -0.2582 0.2269 0.9390
vn -0.0000 -0.6832 0.7303
vn -0.5883 -0.2510 0.7687
vn -0.0000 -0.5565 0.8309
vn -0.4875 0.0236 0.8728
vn -0.0000 0.4936 0.8697
vn -0.4025 0.4499 0.7972
vn -0.9486 -0.2352 0.2117
vn 0.1880 -0.6583 -0.7289
vn 0.6108 0.1175 -0.7830
vn -0.5820 -0.8101 0.0708
vn -0.4570 -0.8430 -0.2836
vn -0.0550 -0.6053 -0.7941
vn -0.5034 -0.4955 0.7079
vn -0.7075 -0.5975 0.3774
vn -0.4339 -0.5837 0.6863
vn -0.9903 -0.0393 0.1336
vn -0.9486 -0.2352 0.2116
vn -0.9680 -0.1338 0.2125
vn -0.9618 -0.2050 0.1813
vn -0.8725 -0.0943 0.4794
vn -0.8546 -0.2509 0.4547
vn 0.3769 -0.3140 0.8714
vn -0.7572 -0.4417 0.4811
vn -0.8331 -0.5109 0.2122
vn -0.8154 -0.5097 -0.2745
vn -0.6835 -0.4085 -0.6049
vn -0.3769 -0.3140 0.8714
vn 0.9903 -0.0393 0.1336
vn -0.0000 -0.1095 0.9940
vn -0.0001 -0.4472 0.8944
vn -0.0000 0.4315 0.9021
vn -0.0000 -0.0707 0.9975
vn -0.0000 -0.6456 0.7637
vn -0.0000 -0.4409 0.8975
vn -0.0000 -0.6199 0.7847
vn 0.3462 -0.1338 0.9286
vn 0.4025 0.4499 0.7972
vn 0.4875 0.0235 0.8728
vn 0.5883 -0.2510 0.7687
vn -0.0000 -0.2203 0.9754
vt 0.012177 0.987579
vt 0.069397 0.951660
vt 0.493469 0.987122
vt 0.364105 0.803833
vt 0.441284 0.796143
vt 0.433868 0.820587
vt 0.052368 0.931488
vt 0.011993 0.693298
vt 0.059845 0.706299
vt 0.940430 0.757904
vt 0.943298 0.812134
vt 0.929413 0.812134
vt 0.397705 0.884827
vt 0.442261 0.932739
vt 0.323364 0.921173
vt 0.453125 0.968750
vt 0.272064 0.949371
vt 0.260834 0.823364
vt 0.133026 0.885284
vt 0.225830 0.698761
vt 0.127563 0.710938
vt 0.210510 0.617188
vt 0.113708 0.539551
vt 0.493500 0.960297
vt 0.448151 0.753723
vt 0.493500 0.679047
vt 0.470184 0.650818
vt 0.493500 0.718109
vt 0.397125 0.667053
vt 0.493500 0.740570
vt 0.445404 0.740997
vt 0.035583 0.411438
vt 0.426666 0.840393
vt 0.493500 0.753479
vt 0.493500 0.799347
vt 0.493500 0.820404
vt 0.493500 0.839478
vt 0.493500 0.866547
vt 0.493500 0.897797
vt 0.493500 0.921234
vt 0.493500 0.647797
s 1
usemtl f_face066
f 1/1/1 2/2/2 3/3/3
f 4/4/4 5/5/5 6/6/6
f 2/2/2 1/1/1 7/7/7
f 7/7/7 1/1/1 8/8/8
f 7/7/7 8/8/8 9/9/9
f 10/10/10 11/11/11 12/12/12
f 13/13/13 14/14/14 15/15/15
f 15/15/15 14/14/14 16/16/16
f 15/15/15 16/16/16 17/17/17
f 18/18/18 19/19/19 20/20/20
f 20/20/20 19/19/19 21/21/21
f 20/20/20 21/21/21 22/22/22
f 22/22/22 21/21/21 23/23/23
f 24/16/24 3/3/3 25/24/25
f 26/25/26 27/4/27 28/5/28
f 28/5/28 27/4/27 29/6/29
f 30/26/30 31/27/31 32/28/32
f 32/28/32 31/27/31 33/29/33
f 32/28/32 33/29/33 34/30/34
f 34/30/34 33/29/33 35/31/35
f 36/12/36 37/11/37 38/10/38
f 24/16/24 39/17/39 3/3/3
f 3/3/3 39/17/39 40/2/40
f 3/3/3 40/2/40 41/1/41
f 42/13/42 43/15/43 44/14/44
f 45/32/45 46/9/46 47/23/47
f 47/23/47 46/9/46 48/21/48
f 47/23/47 48/21/48 49/22/49
f 49/22/49 48/21/48 50/20/50
f 17/17/17 19/19/19 15/15/15
f 15/15/15 19/19/19 18/18/18
f 15/15/15 18/18/18 13/13/13
f 13/13/13 18/18/18 4/4/4
f 13/13/13 4/4/4 51/33/51
f 51/33/51 4/4/4 6/6/6
f 52/18/52 50/20/50 53/19/53
f 53/19/53 50/20/50 48/21/48
f 53/19/53 48/21/48 54/7/54
f 54/7/54 48/21/48 46/9/46
f 54/7/54 46/9/46 55/8/55
f 53/19/53 43/15/43 52/18/52
f 52/18/52 43/15/43 42/13/42
f 52/18/52 42/13/42 27/4/27
f 27/4/27 42/13/42 56/33/56
f 27/4/27 56/33/56 29/6/29
f 57/32/57 23/23/23 9/9/9
f 9/9/9 23/23/23 21/21/21
f 9/9/9 21/21/21 7/7/7
f 7/7/7 21/21/21 19/19/19
f 7/7/7 19/19/19 2/2/2
f 2/2/2 19/19/19 17/17/17
f 2/2/2 17/17/17 3/3/3
f 3/3/3 17/17/17 16/16/16
f 3/3/3 16/16/16 25/24/25
f 25/24/25 16/16/16 14/14/14
f 58/34/58 26/25/26 59/35/59
f 59/35/59 26/25/26 28/5/28
f 59/35/59 28/5/28 60/36/60
f 60/36/60 28/5/28 29/6/29
f 60/36/60 29/6/29 61/37/61
f 61/37/61 29/6/29 56/33/56
f 61/37/61 56/33/56 62/38/62
f 62/38/62 56/33/56 42/13/42
f 62/38/62 42/13/42 63/39/63
f 63/39/63 42/13/42 44/14/44
f 63/39/63 44/14/44 64/40/64
f 5/5/5 4/4/4 65/25/65
f 65/25/65 4/4/4 66/31/66
f 65/25/65 66/31/66 34/30/34
f 34/30/34 66/31/66 67/29/67
f 34/30/34 67/29/67 32/28/32
f 32/28/32 67/29/67 68/27/68
f 32/28/32 68/27/68 30/26/30
f 30/26/30 68/27/68 69/41/69
f 30/26/30 69/41/69 31/27/31
f 55/8/55 41/1/41 54/7/54
f 54/7/54 41/1/41 40/2/40
f 54/7/54 40/2/40 53/19/53
f 53/19/53 40/2/40 39/17/39
f 53/19/53 39/17/39 43/15/43
f 43/15/43 39/17/39 24/16/24
f 43/15/43 24/16/24 44/14/44
f 44/14/44 24/16/24 25/24/25
f 44/14/44 25/24/25 64/40/64
f 64/40/64 25/24/25 14/14/14
f 64/40/64 14/14/14 63/39/63
f 63/39/63 14/14/14 13/13/13
f 63/39/63 13/13/13 62/38/62
f 62/38/62 13/13/13 51/33/51
f 62/38/62 51/33/51 61/37/61
f 61/37/61 51/33/51 6/6/6
f 61/37/61 6/6/6 60/36/60
f 60/36/60 6/6/6 5/5/5
f 60/36/60 5/5/5 59/35/59
f 59/35/59 5/5/5 65/25/65
f 59/35/59 65/25/65 58/34/58
f 58/34/58 65/25/65 34/30/34
f 58/34/58 34/30/34 26/25/26
f 26/25/26 34/30/34 35/31/35
f 26/25/26 35/31/35 27/4/27
o editpl_f-0000-1824
v -2.566048 55.276958 9.140871
v -5.100350 55.219208 8.111759
v -3.751191 54.487701 8.828581
v 0.000000 51.786255 11.540282
v 0.000000 50.987373 11.645860
v 0.999965 50.743538 11.139083
v -7.743115 55.097290 0.266721
v -7.534127 59.544086 0.082236
v -7.542063 53.236439 -2.550558
v 5.785511 56.252304 8.262903
v 5.891328 57.997654 7.594980
v 3.079257 57.747402 9.283123
v 1.365031 55.838425 10.500056
v 1.634863 54.195740 9.119756
v 2.566048 55.276958 9.140871
v 2.613665 53.727318 8.827470
v 3.751191 54.487701 8.828581
v 7.743115 55.097290 0.266721
v 8.986457 56.101509 -1.190263
v 7.542063 53.236439 -2.550558
v 8.986457 56.101509 -1.190263
v 7.743115 55.097290 0.266721
v 6.936265 49.704025 0.212264
v 2.150718 52.142384 9.295349
v 0.886212 54.160446 9.695436
v 0.986738 52.062176 10.370028
v 0.000000 54.247074 10.237776
v 0.000000 52.261093 10.967936
v -5.370182 47.435711 6.255800
v -3.417870 48.125507 8.787461
v -5.968045 49.421692 6.491407
v 4.177102 49.902946 8.833027
v 2.132200 50.092239 9.478724
v 3.417870 48.125507 8.787461
v 1.179853 49.046310 10.191100
v 9.700718 54.972164 -2.869516
v 9.491730 52.739140 -2.903968
v 7.801314 49.745735 -1.209156
v 7.542063 53.236439 -2.550558
v 7.534127 59.544086 0.082236
v 7.743115 55.097290 0.266721
v 9.700718 54.972164 -2.869516
v 9.491730 52.739140 -2.903968
v 7.801314 49.745735 -1.209156
v -9.491730 52.739140 -2.903968
v -7.801314 49.745735 -1.209156
v -6.936265 49.704025 0.212264
v -6.388665 61.982449 4.224246
v -7.174351 58.373035 4.478747
v -1.179853 49.046310 10.191100
v -2.132200 50.092239 9.478724
v -4.177102 49.902946 8.833027
v -6.166450 51.013039 6.561422
v -2.150718 52.142384 9.295349
v -0.986738 52.062176 10.370028
v -0.886212 54.160446 9.695436
v -3.079257 57.747402 9.283123
v -5.785511 56.252304 8.262903
v -2.732708 56.075844 10.108859
v -7.542063 53.236439 -2.550558
v -8.986457 56.101509 -1.190263
v -7.743115 55.097290 0.266721
v -1.365031 55.838425 10.500056
v 6.166450 51.013039 6.561422
v 5.968045 49.421692 6.491407
v 5.370182 47.435711 6.255800
v -3.851717 63.461506 7.007073
v -5.994499 59.765465 7.128211
v -5.891328 57.997654 7.594980
v -7.801314 49.745735 -1.209156
v -9.491730 52.739140 -2.903968
v -9.700718 54.972164 -2.869516
v -9.700718 54.972164 -2.869516
v -8.986457 56.101509 -1.190263
v -7.743115 55.097290 0.266721
v 7.174351 58.373035 4.478747
v 6.388665 61.982449 4.224246
v 5.994499 59.765465 7.128211
v 3.851717 63.461506 7.007073
v 3.428451 60.432804 8.656322
v 0.000000 63.775925 8.289575
v 0.000000 60.557934 9.715440
v 5.105641 53.836403 7.893934
v 5.100350 55.219208 8.111759
v 2.732708 56.075844 10.108859
v -1.634863 54.195740 9.119756
v -2.613665 53.727318 8.827470
v -4.505133 52.132759 8.679660
v -5.105641 53.836403 7.893934
v -6.192904 52.819351 6.667000
v -5.841065 54.519787 7.132657
v -7.330431 54.882332 5.103327
v 5.841065 54.519787 7.132657
v 0.000000 57.750610 10.077742
v 0.000000 55.806339 10.650088
v -3.428451 60.432804 8.656322
v 4.505133 52.132759 8.679660
v 6.192904 52.819351 6.667000
v 7.118798 52.466431 4.339828
v 7.330431 54.882332 5.103327
v -0.999965 50.743538 11.139083
v -7.118798 52.466431 4.339828
vn -0.3225 -0.4012 0.8574
vn -0.5185 -0.2985 0.8013
vn -0.3451 -0.1568 0.9254
vn -0.0000 0.4876 0.8731
vn -0.0000 -0.2202 0.9755
vn 0.5883 -0.2510 0.7687
vn -0.9903 -0.0393 0.1336
vn -0.9940 0.1018 0.0392
vn -0.9948 0.0392 -0.0940
vn 0.7174 -0.0631 0.6938
vn 0.7428 0.1642 0.6490
vn 0.3862 0.2679 0.8827
vn 0.3452 -0.1961 0.9178
vn 0.4784 -0.1647 0.8626
vn 0.3225 -0.4012 0.8574
vn 0.2756 -0.0315 0.9607
vn 0.3451 -0.1568 0.9254
vn -0.7889 0.5365 -0.2998
vn -0.6828 0.5651 -0.4631
vn -0.6108 0.1174 -0.7831
vn 0.8416 -0.1180 0.5270
vn 0.9903 -0.0393 0.1336
vn 0.9486 -0.2352 0.2117
vn 0.4485 0.1495 0.8812
vn 0.5882 -0.0392 0.8078
vn 0.6390 0.3313 0.6942
vn -0.0000 -0.0472 0.9989
vn -0.0000 0.5798 0.8148
vn -0.7572 -0.4417 0.4812
vn -0.5575 -0.1492 0.8166
vn -0.8546 -0.2509 0.4547
vn 0.5431 -0.0945 0.8343
vn 0.4875 0.0236 0.8728
vn 0.5575 -0.1492 0.8166
vn 0.4026 0.4499 0.7972
vn -0.3852 0.3223 -0.8647
vn -0.2115 -0.1645 -0.9634
vn -0.1881 -0.6583 -0.7289
vn 0.9948 0.0392 -0.0940
vn 0.9940 0.1018 0.0392
vn 0.8942 -0.0863 0.4393
vn 0.8571 -0.1415 0.4954
vn -0.1882 -0.6583 -0.7288
vn -0.8571 -0.1415 0.4954
vn 0.1882 -0.6583 -0.7288
vn -0.9486 -0.2352 0.2117
vn -0.9038 0.3065 0.2987
vn -0.9594 0.1101 0.2595
vn -0.4026 0.4499 0.7972
vn -0.4875 0.0236 0.8728
vn -0.5431 -0.0945 0.8343
vn -0.8725 -0.0943 0.4795
vn -0.4485 0.1495 0.8812
vn -0.6390 0.3313 0.6942
vn -0.5882 -0.0392 0.8078
vn -0.3862 0.2679 0.8827
vn -0.7174 -0.0631 0.6938
vn -0.3920 -0.2979 0.8704
vn 0.6108 0.1174 -0.7831
vn 0.6828 0.5651 -0.4631
vn 0.7889 0.5365 -0.2998
vn -0.3452 -0.1961 0.9178
vn 0.8725 -0.0943 0.4795
vn 0.8546 -0.2509 0.4547
vn 0.7572 -0.4417 0.4812
vn -0.5590 0.4173 0.7165
vn -0.7386 0.2436 0.6286
vn -0.7428 0.1642 0.6490
vn 0.1881 -0.6583 -0.7289
vn 0.2115 -0.1645 -0.9634
vn 0.3852 0.3223 -0.8647
vn -0.8942 -0.0863 0.4393
vn -0.8416 -0.1180 0.5270
vn 0.9594 0.1101 0.2595
vn 0.9038 0.3065 0.2987
vn 0.7386 0.2436 0.6286
vn 0.5590 0.4173 0.7165
vn 0.3930 0.2908 0.8724
vn -0.0000 0.4250 0.9052
vn -0.0000 0.2830 0.9591
vn 0.6048 -0.0707 0.7933
vn 0.5185 -0.2985 0.8013
vn 0.3920 -0.2979 0.8704
vn -0.4784 -0.1647 0.8626
vn -0.2756 -0.0315 0.9608
vn -0.5493 0.0785 0.8319
vn -0.6048 -0.0707 0.7933
vn -0.8275 -0.0473 0.5595
vn -0.7411 -0.1813 0.6465
vn -0.9325 -0.0783 0.3526
vn 0.7411 -0.1813 0.6465
vn -0.0000 0.2737 0.9618
vn -0.0000 0.0079 1.0000
vn -0.3930 0.2908 0.8724
vn 0.5493 0.0785 0.8319
vn 0.8275 -0.0473 0.5595
vn 0.9680 -0.1338 0.2125
vn 0.9325 -0.0783 0.3526
vn -0.5883 -0.2510 0.7687
vn -0.9680 -0.1338 0.2125
vt 0.364258 0.396515
vt 0.235352 0.396545
vt 0.298584 0.428741
vt 0.498627 0.589844
vt 0.498627 0.648438
vt 0.470184 0.650818
vt 0.035583 0.411438
vt 0.012299 0.011963
vt 0.012299 0.693787
vt 0.204834 0.328125
vt 0.199280 0.260132
vt 0.347290 0.259216
vt 0.429321 0.352936
vt 0.420746 0.447540
vt 0.361603 0.472168
vt 0.923431 0.725952
vt 0.956573 0.696136
vt 0.940430 0.757904
vt 0.962921 0.378906
vt 0.894531 0.449219
vt 0.855469 0.652344
vt 0.404297 0.542969
vt 0.457031 0.440094
vt 0.468750 0.541656
vt 0.498627 0.421875
vt 0.498627 0.531250
vt 0.260834 0.823364
vt 0.364105 0.803833
vt 0.225830 0.698761
vt 0.319794 0.682953
vt 0.397125 0.667053
vt 0.445404 0.740997
vt 0.975098 0.711273
vt 0.972961 0.752960
vt 0.943298 0.812134
vt 0.986359 0.386719
vt 0.986359 0.558594
vt 0.941406 0.652344
vt 0.164062 0.011963
vt 0.096344 0.251709
vt 0.210510 0.617188
vt 0.356323 0.343933
vt 0.304688 0.011963
vt 0.193726 0.192169
vt 0.335938 0.179688
vt 0.498627 0.011963
vt 0.498627 0.179688
vt 0.244141 0.472595
vt 0.301422 0.545135
vt 0.194611 0.527252
vt 0.177063 0.424927
vt 0.103119 0.415405
vt 0.498627 0.273438
vt 0.498627 0.382843
vt 0.113708 0.539551
s 1
usemtl f_face066
f 70/42/70 71/43/71 72/44/72
f 73/45/73 74/46/74 75/47/75
f 76/48/76 77/49/77 78/50/78
f 79/51/79 80/52/80 81/53/81
f 82/54/82 83/55/83 84/42/84
f 84/42/84 83/55/83 85/56/85
f 84/42/84 85/56/85 86/44/86
f 87/57/87 88/58/88 89/59/89
f 90/60/90 91/61/91 92/62/92
f 93/63/93 94/64/94 95/65/95
f 95/65/95 94/64/94 96/66/96
f 95/65/95 96/66/96 97/67/97
f 98/68/98 99/69/99 100/70/100
f 101/71/101 102/72/102 103/69/103
f 103/69/103 102/72/102 104/73/104
f 88/58/88 105/74/105 89/59/89
f 89/59/89 105/74/105 106/75/106
f 89/59/89 106/75/106 107/76/107
f 108/50/108 109/49/109 110/48/91
f 111/77/110 90/60/90 112/78/111
f 112/78/111 90/60/90 92/62/92
f 112/78/111 92/62/92 113/79/112
f 114/78/113 115/79/114 116/62/115
f 117/80/116 77/49/77 118/81/117
f 119/73/118 120/72/119 99/69/99
f 99/69/99 120/72/119 121/71/120
f 99/69/99 121/71/120 100/70/100
f 100/70/100 121/71/120 122/82/121
f 123/63/122 124/65/123 125/64/124
f 126/53/125 127/51/126 128/83/127
f 128/83/127 127/51/126 71/43/71
f 129/59/128 130/58/129 131/57/130
f 71/43/71 70/42/70 128/83/127
f 128/83/127 70/42/70 132/54/131
f 128/83/127 132/54/131 126/53/125
f 133/82/132 101/71/101 134/70/133
f 134/70/133 101/71/101 103/69/103
f 134/70/133 103/69/103 135/68/134
f 136/84/135 117/80/116 137/85/136
f 137/85/136 117/80/116 118/81/117
f 137/85/136 118/81/117 138/52/137
f 139/76/138 140/75/139 129/59/128
f 129/59/128 140/75/139 141/74/140
f 129/59/128 141/74/140 130/58/129
f 142/77/141 114/78/113 143/60/142
f 143/60/142 114/78/113 116/62/115
f 143/60/142 116/62/115 144/61/76
f 145/81/143 146/80/144 147/85/145
f 147/85/145 146/80/144 148/84/146
f 147/85/145 148/84/146 149/86/147
f 149/86/147 148/84/146 150/87/148
f 149/86/147 150/87/148 151/88/149
f 85/56/85 152/89/150 86/44/86
f 86/44/86 152/89/150 153/43/151
f 86/44/86 153/43/151 84/42/84
f 84/42/84 153/43/151 154/83/152
f 84/42/84 154/83/152 82/54/82
f 125/64/124 155/55/153 123/63/122
f 123/63/122 155/55/153 156/56/154
f 123/63/122 156/56/154 157/90/155
f 157/90/155 156/56/154 158/89/156
f 157/90/155 158/89/156 159/91/157
f 159/91/157 158/89/156 160/92/158
f 159/91/157 160/92/158 161/93/159
f 152/89/150 162/92/160 153/43/151
f 153/43/151 162/92/160 79/51/79
f 153/43/151 79/51/79 154/83/152
f 154/83/152 79/51/79 81/53/81
f 154/83/152 81/53/81 82/54/82
f 82/54/82 81/53/81 163/94/161
f 82/54/82 163/94/161 164/95/162
f 118/81/117 127/51/126 138/52/137
f 138/52/137 127/51/126 126/53/125
f 138/52/137 126/53/125 137/85/136
f 137/85/136 126/53/125 165/86/163
f 137/85/136 165/86/163 136/84/135
f 95/65/95 102/72/102 93/63/93
f 93/63/93 102/72/102 101/71/101
f 93/63/93 101/71/101 166/90/164
f 166/90/164 101/71/101 133/82/132
f 166/90/164 133/82/132 167/91/165
f 167/91/165 133/82/132 168/96/166
f 167/91/165 168/96/166 169/93/167
f 169/93/167 168/96/166 110/48/91
f 169/93/167 110/48/91 145/81/143
f 145/81/143 110/48/91 109/49/109
f 145/81/143 109/49/109 146/80/144
f 74/46/74 73/45/73 170/47/168
f 170/47/168 73/45/73 124/65/123
f 170/47/168 124/65/123 120/72/119
f 120/72/119 124/65/123 123/63/122
f 120/72/119 123/63/122 121/71/120
f 121/71/120 123/63/122 157/90/155
f 121/71/120 157/90/155 122/82/121
f 122/82/121 157/90/155 159/91/157
f 122/82/121 159/91/157 171/96/169
f 171/96/169 159/91/157 161/93/159
f 171/96/169 161/93/159 76/48/76
f 77/49/77 76/48/76 118/81/117
f 118/81/117 76/48/76 161/93/159
f 118/81/117 161/93/159 127/51/126
f 127/51/126 161/93/159 160/92/158
f 127/51/126 160/92/158 71/43/71
f 71/43/71 160/92/158 158/89/156
f 71/43/71 158/89/156 72/44/72
f 72/44/72 158/89/156 156/56/154
f 72/44/72 156/56/154 70/42/70
f 70/42/70 156/56/154 155/55/153
f 70/42/70 155/55/153 132/54/131
f 132/54/131 155/55/153 125/64/124
f 132/54/131 125/64/124 96/66/96
f 96/66/96 125/64/124 124/65/123
f 96/66/96 124/65/123 97/67/97
f 97/67/97 124/65/123 73/45/73
f 97/67/97 73/45/73 95/65/95
f 95/65/95 73/45/73 75/47/75
f 95/65/95 75/47/75 102/72/102
f 151/88/149 163/94/161 149/86/147
f 149/86/147 163/94/161 81/53/81
f 149/86/147 81/53/81 147/85/145
f 147/85/145 81/53/81 80/52/80
f 147/85/145 80/52/80 145/81/143
f 145/81/143 80/52/80 79/51/79
f 145/81/143 79/51/79 169/93/167
f 169/93/167 79/51/79 162/92/160
f 169/93/167 162/92/160 167/91/165
f 167/91/165 162/92/160 152/89/150
f 167/91/165 152/89/150 166/90/164
f 166/90/164 152/89/150 85/56/85
f 166/90/164 85/56/85 93/63/93
f 93/63/93 85/56/85 83/55/83
f 93/63/93 83/55/83 94/64/94
f 94/64/94 83/55/83 82/54/82
f 94/64/94 82/54/82 96/66/96
f 96/66/96 82/54/82 164/95/162
f 96/66/96 164/95/162 132/54/131
f 132/54/131 164/95/162 163/94/161
f 132/54/131 163/94/161 126/53/125
f 126/53/125 163/94/161 151/88/149
f 126/53/125 151/88/149 165/86/163
f 165/86/163 151/88/149 150/87/148
f 165/86/163 150/87/148 136/84/135
