mtllib f_face027.mtl
o editpl_f-0000-1827
v 0.000000 48.141552 9.227557
v -1.208952 48.067760 8.883039
v -1.333287 47.531960 9.209775
v 1.841205 49.777817 9.523177
v 1.206307 49.030270 9.806572
v 2.769744 47.926590 8.282907
v -6.732568 49.485855 3.988641
v -5.931009 49.636650 7.234902
v -6.354274 51.978760 7.130434
v -7.645234 55.148624 0.346738
v -7.385984 49.758568 0.271166
v -7.219323 52.190510 4.468745
v -4.216783 49.970322 8.541852
v -4.804064 47.474213 7.270465
v -7.385984 49.758568 0.271166
v -7.801314 49.745735 -1.209156
v -7.542063 53.236439 -2.550558
v -3.081902 50.464409 9.068633
v -1.841205 49.777817 9.523177
v -1.978767 50.589535 9.455384
v 0.000000 49.854820 9.998837
v -1.074036 51.170250 11.137972
v 0.000000 50.711452 11.430258
v 0.000000 48.478432 9.872141
v -7.542063 53.236439 -2.550558
v -5.798738 46.540577 0.995768
v -4.169166 46.556618 0.512330
v 0.000000 43.765339 3.210695
v 7.542063 53.236439 -2.550558
v 7.801314 49.745735 -1.209156
v 7.385984 49.758568 0.271166
v 1.208952 48.067760 8.883039
v 0.000000 47.483837 9.660984
v 1.333287 47.531960 9.209775
v 0.000000 46.806870 9.560964
v 4.804064 47.474213 7.270465
v 2.349124 46.194073 8.224005
v 4.169166 46.556618 0.512330
v 5.798738 46.540577 0.995768
v 7.542063 53.236439 -2.550558
v -2.349124 46.194073 8.224005
v -2.769744 47.926590 8.282907
v -1.206307 49.030270 9.806572
v 0.000000 49.107269 10.165538
v -5.470708 46.771580 3.710802
v -3.526331 45.648651 6.953730
v -3.560722 45.016602 3.738587
v -1.534338 43.932175 7.252684
v 0.000000 43.742878 6.740351
v 0.000000 45.959862 8.894151
v 7.645234 55.148624 0.346738
v 7.219323 52.190510 4.468745
v 7.385984 49.758568 0.271166
v 6.732568 49.485855 3.988641
v 5.470708 46.771580 3.710802
v 3.526331 45.648651 6.953730
v 1.632218 44.840141 8.117316
v 0.000000 44.638016 8.646319
v 6.354274 51.978760 7.130434
v 5.931009 49.636650 7.234902
v 4.216783 49.970322 8.541852
v 3.081902 50.464409 9.068633
v 1.978767 50.589535 9.455384
v 1.074036 51.170250 11.137972
v 0.000000 51.375584 11.664753
v 3.560722 45.016602 3.738587
v 1.534338 43.932175 7.252684
v 0.000000 43.800629 7.872818
v -1.632218 44.840141 8.117316
vn -0.0000 -0.2591 0.9658
vn -0.3206 -0.2972 0.8994
vn -0.4072 0.0940 0.9085
vn 0.3922 -0.0628 0.9177
vn 0.3446 -0.2898 0.8929
vn 0.4338 -0.2130 0.8755
vn -0.9256 -0.3138 0.2118
vn -0.7603 -0.2195 0.6113
vn -0.8588 -0.0158 0.5121
vn -0.9851 -0.0000 0.1720
vn -0.9279 -0.3381 0.1572
vn -0.9730 -0.0393 0.2275
vn -0.4472 -0.2040 0.8709
vn -0.6695 -0.4175 0.6144
vn -0.9279 -0.3381 0.1573
vn 0.2356 -0.6833 -0.6911
vn 0.6513 0.1413 -0.7455
vn -0.3781 -0.0867 0.9217
vn -0.3922 -0.0628 0.9177
vn -0.5087 -0.0079 0.8609
vn -0.0000 -0.2830 0.9591
vn -0.6381 -0.0945 0.7642
vn -0.0000 -0.6285 0.7778
vn -0.0000 -0.6912 0.7226
vn -0.4895 -0.5053 -0.7106
vn -0.5823 -0.7318 -0.3541
vn -0.2044 -0.6682 -0.7153
vn -0.0000 -0.9720 -0.2351
vn -0.6513 0.1412 -0.7456
vn -0.2356 -0.6833 -0.6911
vn 0.9279 -0.3381 0.1573
vn 0.3207 -0.2971 0.8994
vn -0.0000 0.2203 0.9754
vn 0.4072 0.0940 0.9085
vn -0.0000 -0.3834 0.9236
vn 0.6695 -0.4175 0.6144
vn 0.4489 -0.3387 0.8269
vn 0.2044 -0.6682 -0.7153
vn 0.5823 -0.7318 -0.3541
vn 0.4895 -0.5053 -0.7106
vn -0.4489 -0.3386 0.8269
vn -0.4338 -0.2130 0.8755
vn -0.3446 -0.2898 0.8929
vn -0.0000 -0.1095 0.9940
vn -0.8098 -0.5582 0.1808
vn -0.6616 -0.6064 0.4411
vn -0.5509 -0.8342 0.0236
vn -0.3865 -0.8914 0.2367
vn -0.0000 -0.9999 0.0157
vn -0.0000 -0.3537 0.9354
vn 0.9851 -0.0000 0.1720
vn 0.9730 -0.0393 0.2275
vn 0.9279 -0.3381 0.1572
vn 0.9256 -0.3138 0.2118
vn 0.8098 -0.5582 0.1808
vn 0.6616 -0.6064 0.4411
vn 0.4178 -0.4651 0.7805
vn -0.0000 -0.4472 0.8944
vn 0.8588 -0.0158 0.5121
vn 0.7603 -0.2195 0.6114
vn 0.4472 -0.2040 0.8709
vn 0.3781 -0.0867 0.9217
vn 0.5087 -0.0079 0.8609
vn 0.6381 -0.0945 0.7642
vn -0.0000 0.1173 0.9931
vn 0.5509 -0.8342 0.0236
vn 0.3865 -0.8914 0.2367
vn -0.0000 -0.8554 0.5180
vn -0.4178 -0.4651 0.7805
vt 0.496704 0.802155
vt 0.444275 0.789062
vt 0.443359 0.822357
vt 0.408325 0.712738
vt 0.445312 0.754730
vt 0.367188 0.795563
vt 0.171875 0.726562
vt 0.232025 0.700775
vt 0.196869 0.603119
vt 0.054688 0.445312
vt 0.093750 0.648438
vt 0.130463 0.553101
vt 0.313599 0.678558
vt 0.285156 0.824982
vt 0.851562 0.656250
vt 0.945312 0.648438
vt 0.968750 0.539062
vt 0.352112 0.671295
vt 0.390625 0.664062
vt 0.496704 0.703766
vt 0.448639 0.647308
vt 0.496704 0.680328
vt 0.496704 0.789703
vt 0.012817 0.523438
vt 0.090881 0.929688
vt 0.012817 0.988495
vt 0.496704 0.989166
vt 0.496704 0.825928
vt 0.496704 0.860016
vt 0.404663 0.906250
vt 0.496704 0.755005
vt 0.176819 0.876404
vt 0.301331 0.907349
vt 0.278381 0.943176
vt 0.384369 0.952332
vt 0.496704 0.985016
vt 0.496704 0.906891
vt 0.426544 0.939056
vt 0.496704 0.953766
vt 0.496704 0.633453
vt 0.496704 0.977203
s 1
usemtl f_face068
f 1/1/1 2/2/2 3/3/3
f 4/4/4 5/5/5 6/6/6
f 7/7/7 8/8/8 9/9/9
f 10/10/10 11/11/11 12/12/12
f 13/13/13 8/8/8 14/14/14
f 15/15/15 16/16/16 17/17/17
f 18/18/18 19/4/19 20/19/20
f 20/19/20 19/4/19 21/20/21
f 20/19/20 21/20/21 22/21/22
f 22/21/22 21/20/21 23/22/23
f 2/2/2 1/1/1 24/23/24
f 11/11/11 25/24/25 26/25/26
f 26/25/26 25/24/25 27/26/27
f 26/25/26 27/26/27 28/27/28
f 29/17/29 30/16/30 31/15/31
f 32/2/32 33/28/33 34/3/34
f 34/3/34 33/28/33 35/29/35
f 5/5/5 4/4/4 21/20/21
f 36/14/36 6/6/6 37/30/37
f 28/27/28 38/26/38 39/25/39
f 39/25/39 38/26/38 40/24/40
f 41/30/41 3/3/3 42/6/42
f 42/6/42 3/3/3 2/2/2
f 42/6/42 2/2/2 43/5/43
f 43/5/43 2/2/2 24/23/24
f 43/5/43 24/23/24 44/31/44
f 8/8/8 7/7/7 14/14/14
f 14/14/14 7/7/7 45/32/45
f 14/14/14 45/32/45 46/33/46
f 46/33/46 45/32/45 47/34/47
f 46/33/46 47/34/47 48/35/48
f 9/9/9 12/12/12 7/7/7
f 7/7/7 12/12/12 11/11/11
f 7/7/7 11/11/11 45/32/45
f 45/32/45 11/11/11 26/25/26
f 45/32/45 26/25/26 47/34/47
f 47/34/47 26/25/26 28/27/28
f 47/34/47 28/27/28 48/35/48
f 48/35/48 28/27/28 49/36/49
f 5/5/5 32/2/32 6/6/6
f 6/6/6 32/2/32 34/3/34
f 6/6/6 34/3/34 37/30/37
f 37/30/37 34/3/34 35/29/35
f 37/30/37 35/29/35 50/37/50
f 51/10/51 52/12/52 53/11/53
f 53/11/53 52/12/52 54/7/54
f 53/11/53 54/7/54 55/32/55
f 55/32/55 54/7/54 36/14/36
f 55/32/55 36/14/36 56/33/56
f 56/33/56 36/14/36 37/30/37
f 56/33/56 37/30/37 57/38/57
f 57/38/57 37/30/37 50/37/50
f 57/38/57 50/37/50 58/39/58
f 52/12/52 59/9/59 54/7/54
f 54/7/54 59/9/59 60/8/60
f 54/7/54 60/8/60 36/14/36
f 36/14/36 60/8/60 61/13/61
f 36/14/36 61/13/61 6/6/6
f 6/6/6 61/13/61 62/18/62
f 6/6/6 62/18/62 4/4/4
f 4/4/4 62/18/62 63/19/63
f 4/4/4 63/19/63 21/20/21
f 21/20/21 63/19/63 64/21/64
f 21/20/21 64/21/64 23/22/23
f 23/22/23 64/21/64 65/40/65
f 23/22/23 65/40/65 22/21/22
f 39/25/39 66/34/66 28/27/28
f 28/27/28 66/34/66 67/35/67
f 28/27/28 67/35/67 49/36/49
f 49/36/49 67/35/67 68/41/68
f 49/36/49 68/41/68 48/35/48
f 48/35/48 68/41/68 69/38/69
f 48/35/48 69/38/69 46/33/46
f 46/33/46 69/38/69 41/30/41
f 46/33/46 41/30/41 14/14/14
f 14/14/14 41/30/41 42/6/42
f 14/14/14 42/6/42 13/13/13
f 40/24/40 53/11/53 39/25/39
f 39/25/39 53/11/53 55/32/55
f 39/25/39 55/32/55 66/34/66
f 66/34/66 55/32/55 56/33/56
f 66/34/66 56/33/56 67/35/67
f 67/35/67 56/33/56 57/38/57
f 67/35/67 57/38/57 68/41/68
f 68/41/68 57/38/57 58/39/58
f 68/41/68 58/39/58 69/38/69
f 69/38/69 58/39/58 50/37/50
f 69/38/69 50/37/50 41/30/41
f 41/30/41 50/37/50 35/29/35
f 41/30/41 35/29/35 3/3/3
f 3/3/3 35/29/35 33/28/33
f 3/3/3 33/28/33 1/1/1
f 1/1/1 33/28/33 32/2/32
f 1/1/1 32/2/32 24/23/24
f 24/23/24 32/2/32 5/5/5
f 24/23/24 5/5/5 44/31/44
f 44/31/44 5/5/5 21/20/21
f 44/31/44 21/20/21 43/5/43
f 43/5/43 21/20/21 19/4/19
f 43/5/43 19/4/19 42/6/42
f 42/6/42 19/4/19 18/18/18
f 42/6/42 18/18/18 13/13/13
o editpl_f-0000-1828
v -6.243167 56.387054 7.681665
v -2.928469 56.589184 9.811017
v -5.830483 59.617882 7.213786
v 4.883427 52.225803 8.254012
v 4.216783 49.970322 8.541852
v 5.931009 49.636650 7.234902
v 6.243167 56.387054 7.681665
v 6.007726 54.192532 7.098205
v 6.973300 54.571117 5.186679
v 0.822722 52.373386 10.447823
v 1.074036 51.170250 11.137972
v 1.978767 50.589535 9.455384
v 0.000000 52.581932 10.836795
v 0.000000 51.375584 11.664753
v -4.216783 49.970322 8.541852
v -3.081902 50.464409 9.068633
v -4.883427 52.225803 8.254012
v -7.801314 49.745735 -1.209156
v -9.491730 52.739140 -2.903968
v -7.542063 53.236439 -2.550558
v -7.385984 49.758568 0.271166
v -7.645234 55.148624 0.346738
v -8.986457 56.101509 -1.190263
v -9.700718 54.972164 -2.869516
v -8.986457 56.101509 -1.190263
v -7.645234 55.148624 0.346738
v -5.095059 55.594589 8.048412
v -6.007726 54.192532 7.098205
v -5.174422 53.688820 7.807248
v -2.864979 55.642715 8.801909
v -1.902050 53.650318 8.704110
v -1.529047 55.254501 9.462052
v -0.954993 54.154030 9.759895
v 0.000000 55.058792 9.985499
v -9.491730 52.739140 -2.903968
v -9.700718 54.972164 -2.869516
v 9.491730 52.739140 -2.903968
v 9.700718 54.972164 -2.869516
v 8.986457 56.101509 -1.190263
v 6.354274 51.978760 7.130434
v 7.542063 53.236439 -2.550558
v 9.491730 52.739140 -2.903968
v 7.801314 49.745735 -1.209156
v 7.645234 55.148624 0.346738
v 8.986457 56.101509 -1.190263
v 9.700718 54.972164 -2.869516
v 2.843816 53.576527 8.351811
v 5.174422 53.688820 7.807248
v 3.952242 54.526203 8.677437
v 7.385984 49.758568 0.271166
v 7.645234 55.148624 0.346738
v -7.179642 58.392284 4.621000
v -7.645234 55.148624 0.346738
v -6.973300 54.571117 5.186679
v -7.219323 52.190510 4.468745
v -6.214068 53.104897 6.942616
v -6.354274 51.978760 7.130434
v -5.931009 49.636650 7.234902
v -3.510459 52.472847 8.813023
v -1.978767 50.589535 9.455384
v 0.000000 63.775925 8.289575
v 3.341153 60.140846 8.998617
v 3.851717 63.461506 7.007073
v 5.830483 59.617882 7.213786
v 6.388665 61.982449 4.224246
v 7.179642 58.392284 4.621000
v 7.534127 59.544086 0.082236
v 7.645234 55.148624 0.346738
v 7.542063 53.236439 -2.550558
v 1.529047 55.254501 9.462052
v 2.928469 56.589184 9.811017
v 0.000000 56.197762 10.515615
v 0.000000 60.256348 9.799902
v -3.341153 60.140846 8.998617
v 3.081902 50.464409 9.068633
v 3.510459 52.472847 8.813023
v 2.023739 52.723099 9.139760
v 0.954993 54.154030 9.759895
v 5.095059 55.594589 8.048412
v 2.864979 55.642715 8.801909
v 1.902050 53.650318 8.704110
v 7.219323 52.190510 4.468745
v 6.214068 53.104897 6.942616
v -0.822722 52.373386 10.447823
v -2.023739 52.723099 9.139760
v -2.843816 53.576527 8.351811
v -3.952242 54.526203 8.677437
v -7.542063 53.236439 -2.550558
v -7.534127 59.544086 0.082236
v -6.388665 61.982449 4.224246
v -3.851717 63.461506 7.007073
v -1.074036 51.170250 11.137972
vn -0.7652 -0.0789 0.6390
vn -0.4150 -0.2114 0.8849
vn -0.7479 0.2519 0.6141
vn 0.5322 0.0470 0.8453
vn 0.4472 -0.2040 0.8709
vn 0.7603 -0.2195 0.6114
vn 0.7652 -0.0789 0.6390
vn 0.7390 -0.0865 0.6682
vn 0.9517 -0.0157 0.3067
vn 0.6383 0.2995 0.7092
vn 0.6381 -0.0945 0.7641
vn 0.5087 -0.0078 0.8609
vn -0.0000 0.4936 0.8697
vn -0.0000 0.1173 0.9931
vn -0.4472 -0.2040 0.8709
vn -0.3781 -0.0866 0.9217
vn -0.5322 0.0470 0.8453
vn 0.2356 -0.6832 -0.6911
vn 0.2115 -0.1645 -0.9634
vn 0.6513 0.1412 -0.7455
vn -0.9279 -0.3381 0.1573
vn -0.9851 -0.0000 0.1720
vn -0.8506 -0.0788 0.5199
vn 0.3852 0.3223 -0.8647
vn 0.6693 0.5669 -0.4803
vn 0.7716 0.5433 -0.3307
vn -0.4736 -0.2210 0.8525
vn -0.7390 -0.0865 0.6682
vn -0.5029 0.0079 0.8643
vn -0.3070 -0.3385 0.8895
vn -0.5654 0.0236 0.8245
vn -0.4471 -0.3295 0.8316
vn -0.6150 0.1577 0.7726
vn -0.0000 0.0785 0.9969
vn 0.2355 -0.6833 -0.6911
vn -0.9007 -0.1880 0.3916
vn -0.8942 -0.0863 0.4393
vn 0.9007 -0.1880 0.3916
vn 0.8942 -0.0863 0.4393
vn 0.8506 -0.0788 0.5199
vn 0.8588 -0.0158 0.5121
vn -0.6513 0.1412 -0.7455
vn -0.2115 -0.1645 -0.9634
vn -0.2356 -0.6832 -0.6911
vn -0.7716 0.5433 -0.3307
vn -0.6693 0.5669 -0.4803
vn -0.3852 0.3223 -0.8647
vn 0.2270 0.0783 0.9707
vn 0.5029 0.0079 0.8643
vn 0.2595 -0.1651 0.9515
vn -0.2355 -0.6833 -0.6911
vn 0.9279 -0.3381 0.1573
vn 0.9851 -0.0000 0.1720
vn -0.9682 0.1023 0.2283
vn -0.9517 -0.0157 0.3067
vn -0.9730 -0.0392 0.2276
vn -0.8021 0.0944 0.5898
vn -0.8588 -0.0158 0.5121
vn -0.7603 -0.2194 0.6114
vn -0.3051 0.2347 0.9230
vn -0.5087 -0.0078 0.8609
vn -0.0000 0.4314 0.9021
vn 0.4004 0.3062 0.8637
vn 0.5760 0.4182 0.7023
vn 0.7479 0.2519 0.6141
vn 0.8956 0.2985 0.3299
vn 0.9682 0.1023 0.2283
vn 0.9941 0.0939 0.0548
vn 0.9988 0.0158 -0.0472
vn 0.4471 -0.3295 0.8316
vn 0.4150 -0.2114 0.8849
vn -0.0000 -0.2591 0.9658
vn -0.0000 0.2518 0.9678
vn -0.4004 0.3062 0.8637
vn 0.3781 -0.0866 0.9217
vn 0.3051 0.2347 0.9230
vn 0.5275 0.2992 0.7952
vn 0.6150 0.1577 0.7726
vn 0.4736 -0.2210 0.8525
vn 0.3070 -0.3385 0.8895
vn 0.5654 0.0236 0.8245
vn 0.9730 -0.0392 0.2276
vn 0.8021 0.0944 0.5898
vn -0.6383 0.2995 0.7092
vn -0.5275 0.2992 0.7952
vn -0.2270 0.0783 0.9707
vn -0.2595 -0.1651 0.9515
vn -0.9988 0.0158 -0.0472
vn -0.9941 0.0939 0.0548
vn -0.8956 0.2985 0.3299
vn -0.5760 0.4182 0.7023
vn -0.6381 -0.0945 0.7642
vt 0.176331 0.334808
vt 0.310547 0.313843
vt 0.203125 0.187500
vt 0.274994 0.568726
vt 0.313599 0.678558
vt 0.232025 0.700775
vt 0.187500 0.437500
vt 0.132812 0.421875
vt 0.464264 0.532349
vt 0.448639 0.647308
vt 0.390625 0.664062
vt 0.494324 0.531250
vt 0.494324 0.632812
vt 0.352112 0.671295
vt 0.945312 0.648438
vt 0.987854 0.578125
vt 0.968750 0.539062
vt 0.851562 0.656250
vt 0.876709 0.473083
vt 0.974854 0.365448
vt 0.987854 0.398438
vt 0.226562 0.367188
vt 0.228027 0.475800
vt 0.342773 0.371094
vt 0.398438 0.462921
vt 0.421875 0.406250
vt 0.437500 0.465393
vt 0.494324 0.443390
vt 0.196869 0.603119
vt 0.350098 0.477661
vt 0.295990 0.420990
vt 0.078125 0.296875
vt 0.054688 0.445312
vt 0.130463 0.553101
vt 0.181244 0.521088
vt 0.327209 0.555573
vt 0.494324 0.011932
vt 0.320312 0.132812
vt 0.242188 0.011932
vt 0.011597 0.011932
vt 0.011597 0.210938
vt 0.011597 0.523438
vt 0.494324 0.351562
vt 0.494324 0.152588
vt 0.379456 0.542389
s 1
usemtl f_face068
f 70/42/70 71/43/71 72/44/72
f 73/45/73 74/46/74 75/47/75
f 76/42/76 77/48/77 78/49/78
f 79/50/79 80/51/80 81/52/81
f 82/53/82 83/54/83 80/51/80
f 84/46/84 85/55/85 86/45/86
f 87/56/87 88/57/88 89/58/89
f 90/59/90 91/60/91 92/61/92
f 88/57/88 93/62/93 89/58/89
f 89/58/89 93/62/93 94/61/94
f 89/58/89 94/61/94 95/60/95
f 71/43/71 70/42/70 96/63/96
f 96/63/96 70/42/70 97/48/97
f 96/63/96 97/48/97 98/64/98
f 99/65/99 100/66/100 101/67/101
f 101/67/101 100/66/100 102/68/102
f 101/67/101 102/68/102 103/69/103
f 87/56/104 90/59/90 104/57/105
f 104/57/105 90/59/90 92/61/92
f 104/57/105 92/61/92 105/62/106
f 106/57/107 107/62/108 108/61/109
f 75/47/75 109/70/110 73/45/73
f 110/58/111 111/57/112 112/56/113
f 113/60/114 114/61/115 110/58/111
f 110/58/111 114/61/115 115/62/116
f 110/58/111 115/62/116 111/57/112
f 116/71/117 117/64/118 118/72/119
f 112/56/120 106/57/107 119/59/121
f 119/59/121 106/57/107 108/61/109
f 119/59/121 108/61/109 120/60/122
f 121/73/123 122/74/91 123/49/124
f 123/49/124 122/74/91 124/75/125
f 123/49/124 124/75/125 125/76/126
f 125/76/126 124/75/125 126/70/127
f 125/76/126 126/70/127 86/45/86
f 86/45/86 126/70/127 127/47/128
f 86/45/86 127/47/128 84/46/84
f 72/44/72 121/73/123 70/42/70
f 70/42/70 121/73/123 123/49/124
f 70/42/70 123/49/124 97/48/97
f 97/48/97 123/49/124 125/76/126
f 97/48/97 125/76/126 98/64/98
f 98/64/98 125/76/126 86/45/86
f 98/64/98 86/45/86 128/77/129
f 128/77/129 86/45/86 85/55/85
f 128/77/129 85/55/85 129/52/130
f 130/78/131 131/79/132 132/80/133
f 132/80/133 131/79/132 133/44/134
f 132/80/133 133/44/134 134/81/135
f 134/81/135 133/44/134 135/73/136
f 134/81/135 135/73/136 136/82/137
f 136/82/137 135/73/136 137/74/122
f 136/82/137 137/74/122 138/83/138
f 139/67/139 140/43/140 141/84/141
f 141/84/141 140/43/140 142/85/142
f 141/84/141 142/85/142 71/43/71
f 71/43/71 142/85/142 143/79/143
f 71/43/71 143/79/143 72/44/72
f 74/46/74 73/45/73 144/55/144
f 144/55/144 73/45/73 145/77/145
f 144/55/144 145/77/145 81/52/81
f 81/52/81 145/77/145 146/86/146
f 81/52/81 146/86/146 79/50/79
f 79/50/79 146/86/146 147/68/147
f 79/50/79 147/68/147 103/69/103
f 77/48/77 76/42/76 148/63/148
f 148/63/148 76/42/76 140/43/140
f 148/63/148 140/43/140 149/65/149
f 149/65/149 140/43/140 139/67/139
f 149/65/149 139/67/139 150/66/150
f 151/75/151 78/49/78 152/76/152
f 152/76/152 78/49/78 77/48/77
f 152/76/152 77/48/77 117/64/118
f 117/64/118 77/48/77 148/63/148
f 117/64/118 148/63/148 118/72/119
f 118/72/119 148/63/148 149/65/149
f 118/72/119 149/65/149 116/71/117
f 116/71/117 149/65/149 150/66/150
f 80/51/80 79/50/79 82/53/82
f 82/53/82 79/50/79 103/69/103
f 82/53/82 103/69/103 153/50/153
f 153/50/153 103/69/103 102/68/102
f 153/50/153 102/68/102 154/86/154
f 154/86/154 102/68/102 100/66/100
f 154/86/154 100/66/100 155/71/155
f 155/71/155 100/66/100 99/65/99
f 155/71/155 99/65/99 156/72/156
f 157/83/157 122/74/91 158/82/158
f 158/82/158 122/74/91 121/73/123
f 158/82/158 121/73/123 159/81/159
f 159/81/159 121/73/123 72/44/72
f 159/81/159 72/44/72 160/80/160
f 160/80/160 72/44/72 143/79/143
f 160/80/160 143/79/143 130/78/131
f 130/78/131 143/79/143 142/85/142
f 130/78/131 142/85/142 131/79/132
f 131/79/132 142/85/142 140/43/140
f 131/79/132 140/43/140 133/44/134
f 133/44/134 140/43/140 76/42/76
f 133/44/134 76/42/76 135/73/136
f 135/73/136 76/42/76 78/49/78
f 135/73/136 78/49/78 137/74/122
f 137/74/122 78/49/78 151/75/151
f 83/54/83 82/53/82 161/51/161
f 161/51/161 82/53/82 153/50/153
f 161/51/161 153/50/153 129/52/130
f 129/52/130 153/50/153 154/86/154
f 129/52/130 154/86/154 128/77/129
f 128/77/129 154/86/154 155/71/155
f 128/77/129 155/71/155 98/64/98
f 98/64/98 155/71/155 156/72/156
f 98/64/98 156/72/156 96/63/96
f 96/63/96 156/72/156 99/65/99
f 96/63/96 99/65/99 71/43/71
f 71/43/71 99/65/99 101/67/101
f 71/43/71 101/67/101 141/84/141
f 141/84/141 101/67/101 103/69/103
f 141/84/141 103/69/103 139/67/139
f 139/67/139 103/69/103 147/68/147
f 139/67/139 147/68/147 150/66/150
f 150/66/150 147/68/147 146/86/146
f 150/66/150 146/86/146 116/71/117
f 116/71/117 146/86/146 145/77/145
f 116/71/117 145/77/145 117/64/118
f 117/64/118 145/77/145 73/45/73
f 117/64/118 73/45/73 152/76/152
f 152/76/152 73/45/73 109/70/110
f 152/76/152 109/70/110 151/75/151
