mtllib f_face026.mtl
o editpl_f-0000-1825
v 2.491976 48.269886 9.188659
v 1.010547 48.391804 9.937711
v 1.529047 47.140541 9.813240
v 0.000000 50.133945 10.582296
v 1.100490 51.263290 11.235771
v 0.000000 50.695412 11.526945
v 7.743115 55.148624 0.346738
v 7.190224 52.495304 3.856390
v 7.253714 49.758568 0.271166
v 0.000000 43.765339 3.406293
v 3.989278 46.556618 0.512330
v 6.428346 47.336250 1.731483
v 7.542063 53.236439 -2.550558
v 7.542063 53.236439 -2.550558
v 7.801314 49.745735 -1.209156
v 7.253714 49.758568 0.271166
v 6.769604 49.473022 3.342945
v 6.222004 49.335064 5.702346
v 6.116188 47.342667 3.305159
v 2.298861 50.307198 9.387592
v 3.957533 49.687984 8.628538
v 1.751261 44.063717 7.586090
v 4.565977 45.587692 4.031984
v 3.367607 45.375938 6.590318
v 5.227330 47.297749 6.043533
v 2.018448 46.344864 8.737451
v 4.200911 47.608963 7.741678
v -7.190224 52.495304 3.856390
v -6.222004 49.335064 5.702346
v -6.137351 52.055759 6.781470
v -7.253714 49.758568 0.271166
v -7.542063 53.236439 -2.550558
v -6.428346 47.336250 1.731483
v -3.989278 46.556618 0.512330
v -7.253714 49.758568 0.271166
v -7.801314 49.745735 -1.209156
v -7.542063 53.236439 -2.550558
v 0.000000 47.695587 10.357802
v -1.529047 47.140541 9.813240
v 0.000000 46.935204 10.202213
v -2.018448 46.344864 8.737451
v 0.000000 45.966278 9.292015
v 0.000000 48.301968 10.145535
v 0.000000 49.341480 10.846798
v -1.010547 48.391804 9.937711
v -1.245988 49.335064 10.508946
v -2.491976 48.269886 9.188659
v 6.137351 52.055759 6.781470
v 0.000000 43.823090 7.837255
v 1.245988 49.335064 10.508946
v 2.113682 50.483658 9.537624
v 0.000000 51.690006 11.750327
v -1.100490 51.263290 11.235771
v -2.113682 50.483658 9.537624
v -2.298861 50.307198 9.387592
v -6.116188 47.342667 3.305159
v -4.565977 45.587692 4.031984
v -3.367607 45.375938 6.590318
v -1.751261 44.063717 7.586090
v -1.695708 44.577057 8.438497
v 0.000000 44.342842 8.640763
v 0.000000 45.106438 9.108643
v 1.695708 44.577057 8.438497
v 2.613665 45.748108 7.900603
v -5.227330 47.297749 6.043533
v -2.613665 45.748108 7.900603
v -4.200911 47.608963 7.741678
v -6.769604 49.473022 3.342945
v -7.743115 55.148624 0.346738
v -3.957533 49.687984 8.628538
vn 0.5592 -0.2048 0.8033
vn 0.3302 -0.1258 0.9355
vn 0.4480 -0.2280 0.8645
vn -0.0000 -0.2425 0.9701
vn 0.6280 -0.0392 0.7772
vn -0.0000 -0.5746 0.8185
vn 0.9835 -0.0079 0.1809
vn 0.9735 -0.0864 0.2120
vn 0.9372 -0.3150 0.1496
vn -0.0000 -0.9835 -0.1809
vn 0.4738 -0.7423 -0.4738
vn 0.6650 -0.6884 -0.2895
vn 0.5117 -0.5669 -0.6456
vn -0.6436 0.1334 -0.7536
vn -0.2207 -0.6778 -0.7014
vn 0.9372 -0.3151 0.1496
vn 0.9595 -0.2281 0.1652
vn 0.9136 -0.2363 0.3308
vn 0.8755 -0.4338 0.2129
vn 0.5195 0.0866 0.8501
vn 0.5198 -0.0788 0.8506
vn 0.4089 -0.8650 0.2909
vn 0.6397 -0.7660 0.0632
vn 0.7367 -0.5565 0.3841
vn 0.7721 -0.4649 0.4333
vn 0.4864 -0.4001 0.7767
vn 0.6308 -0.3627 0.6860
vn -0.9735 -0.0864 0.2120
vn -0.9136 -0.2363 0.3308
vn -0.8589 -0.0079 0.5121
vn -0.9372 -0.3151 0.1496
vn -0.5117 -0.5669 -0.6456
vn -0.6650 -0.6884 -0.2895
vn -0.4738 -0.7423 -0.4738
vn 0.2207 -0.6777 -0.7014
vn 0.6437 0.1335 -0.7536
vn -0.0000 0.0629 0.9980
vn -0.4480 -0.2280 0.8645
vn -0.0000 -0.5655 0.8248
vn -0.4864 -0.4001 0.7767
vn -0.0000 -0.4628 0.8864
vn -0.0000 -0.1182 0.9930
vn -0.0000 -0.1337 0.9910
vn -0.3302 -0.1258 0.9355
vn -0.4306 -0.0626 0.9004
vn -0.5592 -0.2048 0.8033
vn 0.8588 -0.0158 0.5121
vn -0.0000 -0.9591 0.2830
vn 0.4306 -0.0626 0.9004
vn 0.7174 -0.0631 0.6938
vn -0.0000 0.2425 0.9701
vn -0.6280 -0.0392 0.7772
vn -0.7174 -0.0631 0.6938
vn -0.5195 0.0866 0.8501
vn -0.8755 -0.4338 0.2129
vn -0.6397 -0.7660 0.0632
vn -0.7367 -0.5565 0.3841
vn -0.4089 -0.8650 0.2909
vn -0.5120 -0.4963 0.7011
vn -0.0000 -0.7564 0.6541
vn -0.0000 -0.3209 0.9471
vn 0.5120 -0.4963 0.7011
vn 0.6845 -0.4170 0.5980
vn -0.7721 -0.4648 0.4333
vn -0.6845 -0.4170 0.5980
vn -0.6308 -0.3627 0.6860
vn -0.9595 -0.2281 0.1652
vn -0.9835 -0.0079 0.1809
vn -0.5198 -0.0788 0.8506
vt 0.644470 0.799500
vt 0.550354 0.802490
vt 0.572540 0.859833
vt 0.501068 0.703186
vt 0.544678 0.618988
vt 0.501068 0.661072
vt 0.975403 0.413086
vt 0.914124 0.618500
vt 0.967590 0.737885
vt 0.501068 0.986786
vt 0.988281 0.986786
vt 0.942139 0.943268
vt 0.988281 0.593323
vt 0.035034 0.621338
vt 0.020386 0.654877
vt 0.035034 0.658783
vt 0.901947 0.734039
vt 0.835419 0.728241
vt 0.873535 0.865814
vt 0.624634 0.688019
vt 0.714447 0.708374
vt 0.586456 0.977356
vt 0.749786 0.963928
vt 0.709991 0.928833
vt 0.800629 0.846985
vt 0.637756 0.882812
vt 0.734467 0.828583
vt 0.847626 0.610443
vt 0.501068 0.836060
vt 0.501068 0.869354
vt 0.501068 0.904907
vt 0.501068 0.799500
vt 0.501068 0.766388
vt 0.564026 0.756104
vt 0.501068 0.977356
vt 0.616180 0.681946
vt 0.501068 0.604675
vt 0.612793 0.934967
vt 0.501068 0.952637
vt 0.501068 0.929504
vt 0.675507 0.901764
s 1
usemtl f_face067
f 1/1/1 2/2/2 3/3/3
f 4/4/4 5/5/5 6/6/6
f 7/7/7 8/8/8 9/9/9
f 10/10/10 11/11/11 12/12/12
f 12/12/12 11/11/11 13/13/13
f 12/12/12 13/13/13 9/9/9
f 14/14/14 15/15/15 16/16/16
f 17/17/17 18/18/18 19/19/19
f 20/20/20 1/1/1 21/21/21
f 22/22/22 23/23/23 24/24/24
f 24/24/24 23/23/23 19/19/19
f 24/24/24 19/19/19 25/25/25
f 25/25/25 19/19/19 18/18/18
f 3/3/3 26/26/26 1/1/1
f 1/1/1 26/26/26 27/27/27
f 1/1/1 27/27/27 21/21/21
f 28/8/28 29/18/29 30/28/30
f 31/9/31 32/13/32 33/12/33
f 33/12/33 32/13/32 34/11/34
f 33/12/33 34/11/34 10/10/10
f 35/16/31 36/15/35 37/14/36
f 38/29/37 39/3/38 40/30/39
f 40/30/39 39/3/38 41/26/40
f 40/30/39 41/26/40 42/31/41
f 43/32/42 44/33/43 45/2/44
f 45/2/44 44/33/43 46/34/45
f 45/2/44 46/34/45 47/1/46
f 48/28/47 18/18/18 8/8/8
f 8/8/8 18/18/18 17/17/17
f 8/8/8 17/17/17 9/9/9
f 9/9/9 17/17/17 19/19/19
f 9/9/9 19/19/19 12/12/12
f 12/12/12 19/19/19 23/23/23
f 12/12/12 23/23/23 10/10/10
f 10/10/10 23/23/23 22/22/22
f 10/10/10 22/22/22 49/35/48
f 2/2/2 1/1/1 50/34/49
f 50/34/49 1/1/1 20/20/20
f 50/34/49 20/20/20 4/4/4
f 4/4/4 20/20/20 51/36/50
f 4/4/4 51/36/50 5/5/5
f 5/5/5 52/37/51 6/6/6
f 6/6/6 52/37/51 53/5/52
f 6/6/6 53/5/52 4/4/4
f 4/4/4 53/5/52 54/36/53
f 4/4/4 54/36/53 55/20/54
f 56/19/55 57/23/56 58/24/57
f 58/24/57 57/23/56 59/22/58
f 58/24/57 59/22/58 60/38/59
f 60/38/59 59/22/58 61/39/60
f 60/38/59 61/39/60 62/40/61
f 62/40/61 61/39/60 63/38/62
f 62/40/61 63/38/62 26/26/26
f 26/26/26 63/38/62 64/41/63
f 26/26/26 64/41/63 27/27/27
f 65/25/64 66/41/65 67/27/66
f 67/27/66 66/41/65 41/26/40
f 67/27/66 41/26/40 47/1/46
f 47/1/46 41/26/40 39/3/38
f 47/1/46 39/3/38 45/2/44
f 45/2/44 39/3/38 38/29/37
f 45/2/44 38/29/37 43/32/42
f 68/17/67 31/9/31 56/19/55
f 56/19/55 31/9/31 33/12/33
f 56/19/55 33/12/33 57/23/56
f 57/23/56 33/12/33 10/10/10
f 57/23/56 10/10/10 59/22/58
f 59/22/58 10/10/10 49/35/48
f 59/22/58 49/35/48 61/39/60
f 61/39/60 49/35/48 22/22/22
f 61/39/60 22/22/22 63/38/62
f 63/38/62 22/22/22 24/24/24
f 63/38/62 24/24/24 64/41/63
f 64/41/63 24/24/24 25/25/25
f 64/41/63 25/25/25 27/27/27
f 69/7/68 31/9/31 28/8/28
f 28/8/28 31/9/31 68/17/67
f 28/8/28 68/17/67 29/18/29
f 29/18/29 68/17/67 56/19/55
f 29/18/29 56/19/55 65/25/64
f 65/25/64 56/19/55 58/24/57
f 65/25/64 58/24/57 66/41/65
f 66/41/65 58/24/57 60/38/59
f 66/41/65 60/38/59 41/26/40
f 41/26/40 60/38/59 62/40/61
f 41/26/40 62/40/61 42/31/41
f 42/31/41 62/40/61 26/26/26
f 42/31/41 26/26/26 40/30/39
f 40/30/39 26/26/26 3/3/3
f 40/30/39 3/3/3 38/29/37
f 38/29/37 3/3/3 2/2/2
f 38/29/37 2/2/2 43/32/42
f 43/32/42 2/2/2 50/34/49
f 43/32/42 50/34/49 44/33/43
f 44/33/43 50/34/49 4/4/4
f 44/33/43 4/4/4 46/34/45
f 46/34/45 4/4/4 55/20/54
f 46/34/45 55/20/54 47/1/46
f 47/1/46 55/20/54 70/21/69
f 47/1/46 70/21/69 67/27/66
o editpl_f-0000-1826
v 2.113682 50.483658 9.537624
v 0.936475 52.585140 10.412259
v 1.100490 51.263290 11.235771
v 6.811930 54.478077 5.210017
v 6.137351 52.055759 6.781470
v 7.190224 52.495304 3.856390
v -6.811930 54.478077 5.210017
v -7.743115 55.148624 0.346738
v -7.190224 52.495304 3.856390
v 3.431097 52.062176 8.652988
v 2.484040 53.958321 8.461835
v 2.026384 52.257885 9.195328
v 9.491730 52.739140 -2.903968
v 9.700718 54.972164 -2.869516
v 8.986457 56.120762 -1.190263
v 2.460231 55.957134 8.516292
v 4.983952 55.809547 7.829475
v 2.484040 56.820183 9.819908
v 7.743115 55.148624 0.346738
v 8.986457 56.120762 -1.190263
v 7.542063 53.236439 -2.550558
v 9.700718 54.972164 -2.869516
v 9.491730 52.739140 -2.903968
v 7.801314 49.745735 -1.209156
v 3.544849 54.612827 8.575193
v 4.812000 53.878113 7.911715
v 5.185003 52.023674 7.880597
v 2.428486 55.302628 8.640763
v 0.870340 54.603203 9.576522
v 1.796233 54.256699 8.388486
v 7.743115 55.148624 0.346738
v 7.179642 58.392284 4.621000
v 6.425700 56.390263 6.755908
v 5.830483 59.617882 7.213786
v 4.200911 47.608963 7.741678
v 5.227330 47.297749 6.043533
v 5.182358 49.408855 7.551637
v 6.222004 49.335064 5.702346
v 7.801314 49.745735 -1.209156
v 7.253714 49.758568 0.271166
v 7.743115 55.148624 0.346738
v 0.000000 55.206375 9.751004
v -0.870340 54.603203 9.576522
v 0.000000 54.330490 9.933267
v 0.000000 58.273575 10.197767
v 0.000000 60.256348 9.799902
v -3.341153 60.140846 8.998617
v 3.341153 60.140846 8.998617
v 5.259075 57.012688 8.799685
v 5.806675 54.487701 6.586983
v -7.253714 49.758568 0.271166
v -7.743115 55.148624 0.346738
v -8.986457 56.120762 -1.190263
v -2.428486 55.302628 8.640763
v -2.460231 55.957134 8.516292
v -7.801314 49.745735 -1.209156
v -9.491730 52.739140 -2.903968
v -7.542063 53.236439 -2.550558
v -9.700718 54.972164 -2.869516
v -8.986457 56.120762 -1.190263
v -7.743115 55.148624 0.346738
v 0.000000 51.690006 11.750327
v 0.000000 52.755184 10.713435
v -1.100490 51.263290 11.235771
v -0.936475 52.585140 10.412259
v -2.113682 50.483658 9.537624
v -3.544849 54.612827 8.575193
v -4.830518 55.219208 8.143989
v -4.983952 55.809547 7.829475
v -5.185003 52.023674 7.880597
v -3.957533 49.687984 8.628538
v -3.431097 52.062176 8.652988
v -2.298861 50.307198 9.387592
v -2.026384 52.257885 9.195328
v -6.137351 52.055759 6.781470
v -6.222004 49.335064 5.702346
v -5.182358 49.408855 7.551637
v -5.227330 47.297749 6.043533
v -4.200911 47.608963 7.741678
v -7.801314 49.745735 -1.209156
v -9.491730 52.739140 -2.903968
v -9.700718 54.972164 -2.869516
v -5.806675 54.487701 6.586983
v -5.259075 57.012688 8.799685
v -6.425700 56.390263 6.755908
v 3.851717 63.461506 7.007073
v 6.388665 61.982449 4.224246
v 7.534127 59.544086 0.082236
v 7.542063 53.236439 -2.550558
v 2.298861 50.307198 9.387592
v 3.957533 49.687984 8.628538
v -4.812000 53.878113 7.911715
v -2.484040 53.958321 8.461835
v -1.796233 54.256699 8.388486
v 0.000000 63.775925 8.289575
v 4.830518 55.219208 8.143989
v -7.542063 53.236439 -2.550558
v -7.534127 59.544086 0.082236
v -7.179642 58.392284 4.621000
v -6.388665 61.982449 4.224246
v -5.830483 59.617882 7.213786
v -3.851717 63.461506 7.007073
v -2.484040 56.820183 9.819908
v 0.000000 56.290806 10.134421
vn 0.7174 -0.0630 0.6938
vn 0.6437 0.3454 0.6829
vn 0.6280 -0.0392 0.7772
vn 0.9310 -0.0394 0.3629
vn 0.8588 -0.0157 0.5121
vn 0.9735 -0.0863 0.2120
vn -0.9310 -0.0394 0.3629
vn -0.9835 -0.0079 0.1809
vn -0.9735 -0.0863 0.2120
vn 0.3690 0.1413 0.9186
vn 0.1173 0.0235 0.9928
vn 0.5744 0.2518 0.7789
vn 0.8887 -0.1730 0.4247
vn 0.8942 -0.0863 0.4393
vn 0.8551 -0.0941 0.5099
vn 0.4876 -0.2596 0.8336
vn 0.4256 -0.3074 0.8511
vn 0.3378 -0.2357 0.9112
vn -0.7919 0.5331 -0.2979
vn -0.6859 0.5597 -0.4651
vn -0.6436 0.1334 -0.7536
vn -0.3852 0.3223 -0.8647
vn -0.2115 -0.1645 -0.9634
vn -0.2207 -0.6777 -0.7014
vn 0.1959 -0.1332 0.9715
vn 0.4964 -0.0473 0.8668
vn 0.6061 0.0236 0.7950
vn 0.2351 -0.0157 0.9718
vn 0.4970 0.0079 0.8677
vn 0.3930 0.0079 0.9195
vn 0.9835 -0.0079 0.1809
vn 0.9660 0.0864 0.2435
vn 0.8782 -0.0863 0.4705
vn 0.7972 0.2605 0.5446
vn 0.6308 -0.3627 0.6860
vn 0.7721 -0.4648 0.4334
vn 0.7546 -0.2122 0.6209
vn 0.9136 -0.2363 0.3309
vn -0.2207 -0.6778 -0.7014
vn 0.9372 -0.3150 0.1497
vn 0.9835 -0.0079 0.1810
vn -0.0000 -0.0707 0.9975
vn -0.4970 0.0079 0.8677
vn -0.0000 0.3304 0.9439
vn -0.0000 0.1096 0.9940
vn -0.0000 0.2974 0.9548
vn -0.3703 0.2911 0.8821
vn 0.3702 0.2914 0.8821
vn 0.5672 -0.2127 0.7956
vn 0.7557 -0.1496 0.6376
vn -0.9372 -0.3150 0.1497
vn -0.9835 -0.0079 0.1810
vn -0.8551 -0.0941 0.5099
vn -0.2351 -0.0157 0.9718
vn -0.4876 -0.2595 0.8336
vn 0.2207 -0.6777 -0.7014
vn 0.2115 -0.1645 -0.9634
vn 0.6436 0.1334 -0.7536
vn 0.3852 0.3223 -0.8647
vn 0.6859 0.5597 -0.4651
vn 0.7919 0.5331 -0.2979
vn -0.0000 0.2425 0.9701
vn -0.0000 0.5272 0.8498
vn -0.6280 -0.0392 0.7772
vn -0.6437 0.3454 0.6829
vn -0.7174 -0.0630 0.6938
vn -0.1959 -0.1332 0.9715
vn -0.5409 0.0627 0.8387
vn -0.4255 -0.3074 0.8511
vn -0.6366 0.0393 0.7702
vn -0.5198 -0.0788 0.8506
vn -0.3690 0.1414 0.9186
vn -0.5195 0.0866 0.8501
vn -0.5744 0.2518 0.7789
vn -0.8589 -0.0079 0.5122
vn -0.9136 -0.2363 0.3309
vn -0.7546 -0.2122 0.6209
vn -0.7721 -0.4648 0.4334
vn -0.6308 -0.3627 0.6860
vn 0.2207 -0.6778 -0.7014
vn -0.8887 -0.1730 0.4247
vn -0.8942 -0.0863 0.4393
vn -0.7557 -0.1102 0.6455
vn -0.5672 -0.2127 0.7956
vn -0.8782 -0.0863 0.4705
vn 0.5760 0.4182 0.7023
vn 0.8956 0.2985 0.3299
vn 0.9940 0.1017 0.0391
vn 0.9948 0.0392 -0.0940
vn 0.5195 0.0866 0.8501
vn 0.5198 -0.0788 0.8506
vn -0.4962 -0.0551 0.8664
vn -0.1172 0.0235 0.9928
vn -0.3930 0.0079 0.9195
vn -0.0000 0.4314 0.9021
vn 0.5409 0.0627 0.8388
vn -0.9948 0.0392 -0.0940
vn -0.9940 0.1018 0.0391
vn -0.9660 0.0864 0.2435
vn -0.8956 0.2985 0.3299
vn -0.7972 0.2605 0.5446
vn -0.5760 0.4182 0.7023
vn -0.3378 -0.2357 0.9112
vn -0.0000 -0.1961 0.9806
vt 0.616180 0.681946
vt 0.546539 0.541229
vt 0.544678 0.618988
vt 0.923523 0.419373
vt 0.847626 0.610443
vt 0.914124 0.618500
vt 0.975403 0.413086
vt 0.695221 0.585144
vt 0.638519 0.463593
vt 0.621857 0.571777
vt 0.012512 0.541809
vt 0.012512 0.373962
vt 0.038849 0.373413
vt 0.630737 0.363190
vt 0.781921 0.353333
vt 0.620850 0.318878
vt 0.035034 0.610321
vt 0.014343 0.586975
vt 0.035034 0.621338
vt 0.011932 0.602661
vt 0.011932 0.626709
vt 0.020386 0.654877
vt 0.706696 0.417938
vt 0.778076 0.465057
vt 0.768585 0.598480
vt 0.636200 0.385284
vt 0.559784 0.442963
vt 0.601685 0.446777
vt 0.929443 0.191406
vt 0.879028 0.329987
vt 0.783295 0.141052
vt 0.734467 0.828583
vt 0.800629 0.846985
vt 0.784302 0.721954
vt 0.835419 0.728241
vt 0.055664 0.654327
vt 0.131134 0.654327
vt 0.131134 0.464233
vt 0.499664 0.408875
vt 0.499664 0.469421
vt 0.499664 0.223236
vt 0.499664 0.120239
vt 0.644897 0.137024
vt 0.784302 0.305511
vt 0.853851 0.421234
vt 0.499664 0.604675
vt 0.499664 0.539276
vt 0.781067 0.370850
vt 0.714447 0.708374
vt 0.624634 0.688019
vt 0.654236 0.012451
vt 0.779907 0.012451
vt 0.988037 0.012054
vt 0.986908 0.593323
vt 0.499664 0.012451
vt 0.499664 0.326263
s 1
usemtl f_face067
f 71/42/70 72/43/71 73/44/72
f 74/45/73 75/46/74 76/47/75
f 77/45/76 78/48/77 79/47/78
f 80/49/79 81/50/80 82/51/81
f 83/52/82 84/53/83 85/54/84
f 86/55/85 87/56/86 88/57/87
f 89/58/88 90/59/89 91/60/90
f 90/59/89 92/61/91 91/60/90
f 91/60/90 92/61/91 93/62/92
f 91/60/90 93/62/92 94/63/93
f 95/64/94 81/50/80 96/65/95
f 96/65/95 81/50/80 80/49/79
f 96/65/95 80/49/79 97/66/96
f 98/67/97 99/68/98 100/69/99
f 76/47/75 101/48/100 74/45/73
f 74/45/73 101/48/100 102/70/101
f 74/45/73 102/70/101 103/71/102
f 103/71/102 102/70/101 104/72/103
f 105/73/104 106/74/105 107/75/106
f 107/75/106 106/74/105 108/76/107
f 107/75/106 108/76/107 75/46/74
f 109/77/108 83/52/82 110/78/109
f 110/78/109 83/52/82 85/54/84
f 110/78/109 85/54/84 111/79/110
f 112/80/111 113/68/112 114/81/113
f 115/82/114 116/83/115 117/84/116
f 118/84/117 88/57/87 119/85/118
f 119/85/118 88/57/87 87/56/86
f 119/85/118 87/56/86 120/86/119
f 121/78/120 122/79/121 123/54/122
f 124/67/123 113/68/112 125/55/124
f 126/63/125 127/62/126 128/60/127
f 127/62/126 129/61/128 128/60/127
f 128/60/127 129/61/128 130/59/129
f 128/60/127 130/59/129 131/58/130
f 132/87/131 133/88/132 134/44/133
f 134/44/133 133/88/132 135/43/134
f 134/44/133 135/43/134 136/42/135
f 137/64/136 124/67/123 138/89/137
f 138/89/137 124/67/123 125/55/124
f 138/89/137 125/55/124 139/56/138
f 140/66/139 141/90/140 142/49/141
f 142/49/141 141/90/140 143/91/142
f 142/49/141 143/91/142 144/51/143
f 145/46/144 77/45/76 79/47/78
f 145/46/144 146/76/145 147/75/146
f 147/75/146 146/76/145 148/74/147
f 147/75/146 148/74/147 149/73/148
f 150/77/149 121/78/120 151/52/150
f 151/52/150 121/78/120 123/54/122
f 151/52/150 123/54/122 152/53/151
f 153/86/152 154/85/153 155/71/154
f 156/92/155 104/72/103 157/93/156
f 157/93/156 104/72/103 102/70/101
f 157/93/156 102/70/101 158/94/157
f 158/94/157 102/70/101 101/48/100
f 158/94/157 101/48/100 159/95/158
f 72/43/71 71/42/70 82/51/81
f 82/51/81 71/42/70 160/91/159
f 82/51/81 160/91/159 80/49/79
f 80/49/79 160/91/159 161/90/160
f 80/49/79 161/90/160 97/66/96
f 153/86/152 140/66/139 162/65/161
f 162/65/161 140/66/139 142/49/141
f 162/65/161 142/49/141 163/50/162
f 163/50/162 142/49/141 144/51/143
f 163/50/162 144/51/143 164/69/163
f 75/46/74 74/45/73 120/86/119
f 120/86/119 74/45/73 103/71/102
f 120/86/119 103/71/102 119/85/118
f 119/85/118 103/71/102 104/72/103
f 119/85/118 104/72/103 118/84/117
f 118/84/117 104/72/103 156/92/155
f 118/84/117 156/92/155 165/96/164
f 155/71/154 77/45/76 153/86/152
f 153/86/152 77/45/76 145/46/144
f 153/86/152 145/46/144 140/66/139
f 140/66/139 145/46/144 147/75/146
f 140/66/139 147/75/146 141/90/140
f 141/90/140 147/75/146 149/73/148
f 132/87/131 73/44/72 133/88/132
f 133/88/132 73/44/72 72/43/71
f 133/88/132 72/43/71 99/68/98
f 99/68/98 72/43/71 82/51/81
f 99/68/98 82/51/81 100/69/99
f 100/69/99 82/51/81 81/50/80
f 100/69/99 81/50/80 98/67/97
f 98/67/97 81/50/80 95/64/94
f 98/67/97 95/64/94 166/89/165
f 166/89/165 95/64/94 96/65/95
f 167/95/166 78/48/77 168/94/167
f 168/94/167 78/48/77 169/70/168
f 168/94/167 169/70/168 170/93/169
f 170/93/169 169/70/168 171/72/170
f 170/93/169 171/72/170 172/92/171
f 172/92/171 171/72/170 117/84/116
f 172/92/171 117/84/116 165/96/164
f 165/96/164 117/84/116 116/83/115
f 165/96/164 116/83/115 118/84/117
f 118/84/117 116/83/115 115/82/114
f 118/84/117 115/82/114 88/57/87
f 78/48/77 77/45/76 169/70/168
f 169/70/168 77/45/76 155/71/154
f 169/70/168 155/71/154 171/72/170
f 171/72/170 155/71/154 154/85/153
f 171/72/170 154/85/153 117/84/116
f 117/84/116 154/85/153 173/57/172
f 117/84/116 173/57/172 115/82/114
f 115/82/114 173/57/172 174/97/173
f 115/82/114 174/97/173 88/57/87
f 88/57/87 174/97/173 99/68/98
f 88/57/87 99/68/98 86/55/85
f 86/55/85 99/68/98 98/67/97
f 86/55/85 98/67/97 87/56/86
f 87/56/86 98/67/97 166/89/165
f 87/56/86 166/89/165 120/86/119
f 120/86/119 166/89/165 96/65/95
f 120/86/119 96/65/95 75/46/74
f 75/46/74 96/65/95 97/66/96
f 75/46/74 97/66/96 107/75/106
f 107/75/106 97/66/96 161/90/160
f 107/75/106 161/90/160 105/73/104
f 144/51/143 113/68/112 164/69/163
f 164/69/163 113/68/112 124/67/123
f 164/69/163 124/67/123 163/50/162
f 163/50/162 124/67/123 137/64/136
f 163/50/162 137/64/136 162/65/161
f 162/65/161 137/64/136 138/89/137
f 162/65/161 138/89/137 153/86/152
f 153/86/152 138/89/137 139/56/138
f 153/86/152 139/56/138 154/85/153
f 154/85/153 139/56/138 125/55/124
f 154/85/153 125/55/124 173/57/172
f 173/57/172 125/55/124 113/68/112
f 173/57/172 113/68/112 174/97/173
f 174/97/173 113/68/112 112/80/111
f 174/97/173 112/80/111 99/68/98
f 99/68/98 112/80/111 114/81/113
f 99/68/98 114/81/113 133/88/132
f 133/88/132 114/81/113 113/68/112
f 133/88/132 113/68/112 135/43/134
f 135/43/134 113/68/112 144/51/143
f 135/43/134 144/51/143 136/42/135
f 136/42/135 144/51/143 143/91/142
