mtllib f_face021.mtl
o editpl_f-0000-1875
v -2.767099 48.366138 8.282907
v -3.817326 50.602367 8.707444
v -3.841135 48.343678 8.023962
v 3.386125 45.520313 6.827035
v 1.534338 44.050884 6.858154
v 3.560722 44.830517 4.204244
v 0.000000 43.765339 3.210695
v 4.087158 46.556618 0.512330
v 6.026244 47.220749 0.314509
v -2.245953 46.623993 7.829476
v -0.970865 51.321041 10.989051
v -2.076647 51.061165 9.308686
v 0.000000 50.089031 9.761006
v 0.000000 48.340469 9.707662
v 0.000000 48.135136 9.227557
v 1.208952 48.292343 8.883039
v 0.000000 43.848755 7.478289
v 0.000000 44.596306 8.286242
v -1.632218 44.801640 7.757237
v -6.026244 47.220749 0.314509
v -4.169166 46.556618 0.512330
v -3.560722 44.830517 4.204244
v -5.886037 47.034664 4.684348
v -6.806640 49.405647 4.957740
v 7.542063 53.236439 -2.550558
v 7.264295 49.758568 0.271166
v 6.806640 49.405647 4.957740
v 0.000000 49.142563 10.244444
v 1.206307 49.065559 9.885478
v 2.767099 48.366138 8.282907
v 5.886037 47.034664 4.684348
v 5.058024 47.541588 6.992627
v 2.245953 46.623993 7.829476
v 2.076647 51.061165 9.308686
v 0.970865 51.321041 10.989051
v 0.000000 50.862247 11.212433
v 1.372968 47.374752 9.148651
v 0.000000 46.842163 9.499838
v 0.000000 47.471001 9.600971
v -1.372968 47.374752 9.148651
v -1.208952 48.292343 8.883039
v -7.264295 49.758568 0.271166
v -7.542063 53.236439 -2.550558
v -1.206307 49.065559 9.885478
v 0.000000 45.921360 8.509624
v 1.632218 44.801640 7.757237
v -5.780220 49.854820 7.388268
v -5.058024 47.541588 6.992627
v -3.386125 45.520313 6.827035
v -1.534338 44.050884 6.858154
v 0.000000 43.627377 6.345819
v 5.780220 49.854820 7.388268
v 3.841135 48.343678 8.023962
v 3.817326 50.602367 8.707444
vn -0.4079 -0.2746 0.8708
vn -0.3521 -0.0940 0.9312
vn -0.3607 -0.3137 0.8783
vn 0.5976 -0.5976 0.5346
vn 0.3925 -0.8870 0.2433
vn 0.5363 -0.8439 0.0158
vn -0.0000 -0.9720 -0.2352
vn 0.1491 -0.6671 -0.7299
vn 0.6534 -0.6770 -0.3386
vn -0.4239 -0.4082 0.8085
vn -0.6436 -0.1726 0.7457
vn -0.5565 -0.0000 0.8309
vn -0.0000 -0.3139 0.9495
vn -0.0000 -0.7778 0.6285
vn 0.3530 -0.2746 0.8944
vn -0.0000 -0.8609 0.5087
vn -0.0000 -0.4783 0.8782
vn -0.4152 -0.4623 0.7835
vn -0.6579 -0.6736 -0.3368
vn -0.1645 -0.6736 -0.7205
vn -0.5363 -0.8439 0.0158
vn -0.7868 -0.5823 0.2046
vn -0.9186 -0.2984 0.2591
vn 0.4887 -0.4730 -0.7331
vn 0.9540 -0.2444 0.1734
vn 0.9186 -0.2984 0.2591
vn -0.0000 -0.0629 0.9980
vn 0.3710 -0.2842 0.8841
vn 0.4079 -0.2746 0.8708
vn 0.7868 -0.5823 0.2046
vn 0.6396 -0.4264 0.6396
vn 0.4239 -0.4082 0.8085
vn 0.5565 -0.0000 0.8309
vn 0.6436 -0.1726 0.7456
vn -0.0000 -0.6913 0.7226
vn 0.4472 -0.1177 0.8866
vn -0.0000 -0.5511 0.8345
vn -0.0000 0.2277 0.9737
vn -0.4472 -0.1177 0.8866
vn -0.3530 -0.2746 0.8944
vn -0.9540 -0.2444 0.1734
vn -0.4887 -0.4730 -0.7331
vn -0.3710 -0.2842 0.8841
vn -0.0000 -0.3606 0.9327
vn 0.4152 -0.4623 0.7835
vn -0.6682 -0.2044 0.7153
vn -0.6396 -0.4264 0.6396
vn -0.5976 -0.5976 0.5346
vn -0.3925 -0.8870 0.2433
vn -0.0000 -0.9975 0.0707
vn 0.6682 -0.2044 0.7153
vn 0.3607 -0.3137 0.8783
vn 0.3521 -0.0940 0.9312
vt 0.366058 0.795746
vt 0.313599 0.678558
vt 0.313904 0.811066
vt 0.368469 0.923157
vt 0.394531 0.958313
vt 0.276031 0.941406
vt 0.494324 0.991730
vt 0.007812 0.992188
vt 0.076538 0.937500
vt 0.401031 0.899719
vt 0.448639 0.647308
vt 0.390625 0.664062
vt 0.494324 0.702667
vt 0.494324 0.788605
vt 0.494324 0.804230
vt 0.440826 0.787933
vt 0.494324 0.976105
vt 0.494324 0.944855
vt 0.444000 0.950500
vt 0.198853 0.865753
vt 0.160706 0.732117
vt 0.007812 0.523438
vt 0.093750 0.648438
vt 0.494324 0.755127
vt 0.445312 0.754456
vt 0.262054 0.838043
vt 0.494324 0.679230
vt 0.429688 0.843750
vt 0.494324 0.866730
vt 0.494324 0.835480
vt 0.494324 0.897980
vt 0.214264 0.696411
vt 0.494324 0.983917
s 1
usemtl f_face092
f 1/1/1 2/2/2 3/3/3
f 4/4/4 5/5/5 6/6/6
f 7/7/7 8/8/8 9/9/9
f 10/10/10 1/1/1 3/3/3
f 11/11/11 12/12/12 13/13/13
f 14/14/14 15/15/13 16/16/15
f 17/17/16 18/18/17 19/19/18
f 20/9/19 21/8/20 7/7/7
f 7/7/7 22/6/21 20/9/19
f 20/9/19 22/6/21 23/20/22
f 20/9/19 23/20/22 24/21/23
f 8/8/8 25/22/24 9/9/9
f 9/9/9 25/22/24 26/23/25
f 9/9/9 26/23/25 27/21/26
f 28/24/27 14/14/14 29/25/28
f 29/25/28 14/14/14 16/16/15
f 29/25/28 16/16/15 30/1/29
f 6/6/6 31/20/30 4/4/4
f 4/4/4 31/20/30 32/26/31
f 4/4/4 32/26/31 33/10/32
f 34/12/33 35/11/34 13/13/13
f 13/13/13 35/11/34 36/27/35
f 13/13/13 36/27/35 11/11/11
f 33/10/32 37/28/36 38/29/37
f 38/29/37 37/28/36 39/30/38
f 38/29/37 39/30/38 40/28/39
f 40/28/39 39/30/38 41/16/40
f 24/21/23 42/23/41 20/9/19
f 20/9/19 42/23/41 43/22/42
f 20/9/19 43/22/42 21/8/20
f 2/2/2 1/1/1 12/12/12
f 12/12/12 1/1/1 44/25/43
f 12/12/12 44/25/43 13/13/13
f 10/10/10 19/19/18 45/31/44
f 45/31/44 19/19/18 18/18/17
f 45/31/44 18/18/17 46/19/45
f 46/19/45 18/18/17 17/17/16
f 46/19/45 17/17/16 5/5/5
f 47/32/46 24/21/23 48/26/47
f 48/26/47 24/21/23 23/20/22
f 48/26/47 23/20/22 49/4/48
f 49/4/48 23/20/22 22/6/21
f 49/4/48 22/6/21 50/5/49
f 50/5/49 22/6/21 7/7/7
f 50/5/49 7/7/7 51/33/50
f 5/5/5 4/4/4 46/19/45
f 46/19/45 4/4/4 33/10/32
f 46/19/45 33/10/32 45/31/44
f 45/31/44 33/10/32 38/29/37
f 45/31/44 38/29/37 10/10/10
f 10/10/10 38/29/37 40/28/39
f 10/10/10 40/28/39 1/1/1
f 1/1/1 40/28/39 41/16/40
f 1/1/1 41/16/40 44/25/43
f 2/2/2 47/32/46 3/3/3
f 3/3/3 47/32/46 48/26/47
f 3/3/3 48/26/47 10/10/10
f 10/10/10 48/26/47 49/4/48
f 10/10/10 49/4/48 19/19/18
f 19/19/18 49/4/48 50/5/49
f 19/19/18 50/5/49 17/17/16
f 17/17/16 50/5/49 51/33/50
f 17/17/16 51/33/50 5/5/5
f 5/5/5 51/33/50 7/7/7
f 5/5/5 7/7/7 6/6/6
f 6/6/6 7/7/7 9/9/9
f 6/6/6 9/9/9 31/20/30
f 31/20/30 9/9/9 27/21/26
f 31/20/30 27/21/26 32/26/31
f 32/26/31 27/21/26 52/32/51
f 32/26/31 52/32/51 53/3/52
f 53/3/52 52/32/51 54/2/53
f 53/3/52 54/2/53 30/1/29
f 30/1/29 54/2/53 34/12/33
f 30/1/29 34/12/33 29/25/28
f 29/25/28 34/12/33 13/13/13
f 29/25/28 13/13/13 28/24/27
f 28/24/27 13/13/13 44/25/43
f 28/24/27 44/25/43 14/14/14
f 14/14/14 44/25/43 41/16/40
f 14/14/14 41/16/40 15/15/13
f 15/15/13 41/16/40 39/30/38
f 15/15/13 39/30/38 16/16/15
f 16/16/15 39/30/38 37/28/36
f 16/16/15 37/28/36 30/1/29
f 30/1/29 37/28/36 33/10/32
f 30/1/29 33/10/32 53/3/52
f 53/3/52 33/10/32 32/26/31
o editpl_f-0000-1876
v -1.775070 53.794693 8.800797
v -1.719516 52.761600 9.211998
v -0.954993 54.195740 9.723220
v -5.248493 53.197937 7.707226
v -4.896654 52.107094 8.219561
v -2.775035 53.268520 8.501844
v -7.372757 52.408680 5.002194
v -6.973300 54.718704 5.315596
v -7.743115 55.148624 0.346738
v -2.928469 56.605225 9.774343
v -3.304117 60.140846 8.934159
v -5.777575 59.617882 7.173777
v -7.534127 59.544086 0.082236
v -7.542063 53.236439 -2.550558
v -2.076647 51.061165 9.308686
v -0.970865 51.321041 10.989051
v -0.751296 52.803310 10.375585
v 9.491730 52.739140 -2.903968
v 9.700718 54.972164 -2.869516
v 8.986457 56.120762 -1.190263
v 7.743115 55.148624 0.346738
v 8.986457 56.120762 -1.190263
v 7.542063 53.236439 -2.550558
v 9.700718 54.972164 -2.869516
v 6.973300 54.718704 5.315596
v 6.243167 56.691849 7.681665
v 6.132060 54.397865 6.863710
v 5.163840 55.896175 8.058414
v 1.719516 52.761600 9.211998
v 0.954993 54.195740 9.723220
v 0.751296 52.803310 10.375585
v 0.000000 54.359367 10.067739
v 0.000000 53.027893 10.764557
v -9.491730 52.739140 -2.903968
v -9.700718 54.972164 -2.869516
v -7.542063 53.236439 -2.550558
v -8.986457 56.101509 -1.190263
v -7.743115 55.148624 0.346738
v -6.335757 53.191521 6.864821
v -6.132060 54.397865 6.863710
v -6.359565 51.978760 7.057085
v -8.986457 56.101509 -1.190263
v -9.700718 54.972164 -2.869516
v 1.775070 53.801109 8.800797
v 1.529047 55.321877 9.643203
v 0.000000 56.011677 10.383364
v -1.529047 55.321877 9.643203
v -2.796198 55.838425 8.996395
v 7.372757 52.408680 5.002194
v 6.335757 53.191521 6.864821
v 5.248493 53.197937 7.707226
v 3.952242 54.632076 8.880816
v 7.264295 49.758568 0.271166
v 7.801314 49.745735 -1.209156
v 7.264295 49.758568 0.271166
v 7.743115 55.148624 0.346738
v 6.806640 49.405647 4.957740
v 6.359565 51.978760 7.057085
v 5.780220 49.854820 7.388268
v 4.896654 52.107094 8.219561
v 3.817326 50.602367 8.707444
v 2.775035 53.268520 8.501844
v 2.076647 51.061165 9.308686
v 0.000000 63.775925 8.289575
v 3.304117 60.140846 8.934159
v 3.851717 63.461506 7.007073
v 5.777575 59.617882 7.173777
v 6.388665 61.982449 4.224246
v 7.113507 58.392284 4.580992
v 7.534127 59.544086 0.082236
v 7.743115 55.148624 0.346738
v 7.542063 53.236439 -2.550558
v -3.952242 54.632076 8.880816
v -5.163840 55.896175 8.058414
v -6.243167 56.691849 7.681665
v -7.113507 58.392284 4.580992
v -7.743115 55.148624 0.346738
v -7.264295 49.758568 0.271166
v -7.801314 49.745735 -1.209156
v -7.264295 49.758568 0.271166
v 2.931114 56.605225 9.774343
v 2.796198 55.838425 8.996395
v 0.000000 60.256348 9.759894
v 0.970865 51.321041 10.989051
v 0.000000 51.564880 11.569178
v -6.388665 61.982449 4.224246
v -3.851717 63.461506 7.007073
v 7.264295 49.758568 0.271166
v -7.264295 49.758568 0.271166
v -6.806640 49.405647 4.957740
v -5.780220 49.854820 7.388268
v -3.817326 50.602367 8.707444
v 0.000000 50.862247 11.212433
vn -0.5500 -0.0628 0.8328
vn -0.6545 0.2129 0.7255
vn -0.6047 0.0707 0.7933
vn -0.5475 -0.0000 0.8368
vn -0.4944 0.1020 0.8632
vn -0.2828 0.0393 0.9584
vn -0.9637 -0.0157 0.2664
vn -0.9409 0.0314 0.3372
vn -0.9876 0.0078 0.1567
vn -0.4241 -0.1806 0.8874
vn -0.4014 0.2990 0.8657
vn -0.7393 0.2595 0.6213
vn -0.9937 0.1017 0.0470
vn -0.9948 0.0392 -0.0940
vn -0.5565 -0.0000 0.8308
vn -0.6436 -0.1726 0.7456
vn -0.6352 0.3137 0.7058
vn 0.9039 -0.3458 -0.2516
vn 0.8942 -0.0863 0.4393
vn 0.8551 -0.0941 0.5099
vn -0.7919 0.5331 -0.2979
vn -0.6859 0.5597 -0.4651
vn -0.6437 0.1334 -0.7536
vn -0.3852 0.3223 -0.8647
vn 0.9409 0.0314 0.3372
vn 0.7731 -0.0631 0.6311
vn 0.7477 -0.0630 0.6611
vn 0.5348 -0.2124 0.8179
vn 0.6545 0.2129 0.7255
vn 0.6047 0.0707 0.7933
vn 0.6352 0.3137 0.7058
vn -0.0000 0.1337 0.9910
vn -0.0000 0.4629 0.8864
vn -0.9039 -0.3458 -0.2516
vn 0.3852 0.3223 -0.8647
vn 0.6436 0.1334 -0.7536
vn 0.6828 0.5651 -0.4630
vn 0.7856 0.5420 -0.2985
vn -0.7622 0.1179 0.6365
vn -0.7477 -0.0629 0.6611
vn -0.8117 -0.0315 0.5832
vn -0.8551 -0.0941 0.5099
vn -0.8942 -0.0863 0.4393
vn 0.5500 -0.0628 0.8328
vn 0.4625 -0.3293 0.8232
vn -0.0001 -0.1414 0.9900
vn -0.4625 -0.3293 0.8232
vn -0.3290 -0.3290 0.8851
vn 0.9637 -0.0157 0.2664
vn 0.7622 0.1179 0.6365
vn 0.5475 -0.0000 0.8368
vn 0.2995 -0.1261 0.9457
vn -0.9239 -0.1957 -0.3288
vn -0.2207 -0.6777 -0.7014
vn 0.9540 -0.2444 0.1735
vn 0.9876 0.0078 0.1568
vn 0.9186 -0.2983 0.2591
vn 0.8117 -0.0315 0.5832
vn 0.6682 -0.2044 0.7153
vn 0.4944 0.1020 0.8632
vn 0.3521 -0.0938 0.9312
vn 0.2828 0.0392 0.9584
vn 0.5565 -0.0000 0.8308
vn -0.0000 0.4251 0.9052
vn 0.4014 0.2991 0.8657
vn 0.5766 0.4028 0.7108
vn 0.7393 0.2595 0.6213
vn 0.8973 0.2834 0.3385
vn 0.9648 0.1176 0.2353
vn 0.9937 0.1017 0.0470
vn 0.9876 0.0078 0.1567
vn 0.9948 0.0392 -0.0940
vn -0.2995 -0.1261 0.9457
vn -0.5348 -0.2123 0.8179
vn -0.7731 -0.0631 0.6311
vn -0.9648 0.1176 0.2353
vn -0.9876 0.0079 0.1568
vn -0.9540 -0.2444 0.1735
vn 0.2207 -0.6777 -0.7014
vn 0.9239 -0.1957 -0.3288
vn 0.4241 -0.1806 0.8874
vn 0.3290 -0.3290 0.8852
vn -0.0000 0.2425 0.9701
vn 0.6436 -0.1726 0.7456
vn -0.0000 -0.0000 1.0000
vn -0.8973 0.2834 0.3385
vn -0.5766 0.4028 0.7108
vn 0.9540 -0.2444 0.1734
vn -0.9540 -0.2444 0.1734
vn -0.9186 -0.2983 0.2591
vn -0.6682 -0.2044 0.7153
vn -0.3521 -0.0938 0.9312
vn -0.0000 -0.6912 0.7227
vt 0.400757 0.454681
vt 0.398438 0.522308
vt 0.437500 0.465393
vt 0.228790 0.478790
vt 0.285706 0.533478
vt 0.346680 0.476562
vt 0.126404 0.551819
vt 0.099304 0.425201
vt 0.054688 0.445312
vt 0.343750 0.320312
vt 0.318359 0.154297
vt 0.201996 0.190826
vt 0.007812 0.210938
vt 0.007812 0.523438
vt 0.390625 0.664062
vt 0.448639 0.647308
vt 0.464264 0.532349
vt 0.992188 0.578125
vt 0.992188 0.398438
vt 0.984375 0.367188
vt 0.882812 0.453125
vt 0.968750 0.539062
vt 0.178711 0.324219
vt 0.182800 0.432007
vt 0.228790 0.380554
vt 0.494324 0.442932
vt 0.494324 0.530792
vt 0.187500 0.523438
vt 0.194580 0.599426
vt 0.423828 0.405273
vt 0.494324 0.366730
vt 0.337219 0.373688
vt 0.306793 0.426117
vt 0.851562 0.656250
vt 0.945312 0.648438
vt 0.160706 0.732117
vt 0.214264 0.696411
vt 0.313599 0.678558
vt 0.494324 0.007355
vt 0.242188 0.007812
vt 0.007812 0.007812
vt 0.062500 0.296875
vt 0.494324 0.152161
vt 0.494324 0.632355
vt 0.093750 0.648438
vt 0.494324 0.679230
s 1
usemtl f_face092
f 55/34/54 56/35/55 57/36/56
f 58/37/57 59/38/58 60/39/59
f 61/40/60 62/41/61 63/42/62
f 64/43/63 65/44/64 66/45/65
f 63/42/62 67/46/66 68/47/67
f 69/48/68 70/49/69 71/50/70
f 72/51/71 73/52/72 74/53/73
f 75/54/74 76/53/75 77/55/76
f 77/55/76 76/53/75 78/52/77
f 77/55/76 78/52/77 72/51/71
f 79/41/78 80/56/79 81/57/80
f 81/57/80 80/56/79 82/58/81
f 83/35/82 84/36/83 85/50/84
f 85/50/84 84/36/83 86/59/85
f 85/50/84 86/59/85 87/60/86
f 56/35/55 55/34/54 60/39/59
f 88/51/87 89/52/88 90/55/89
f 90/55/89 89/52/88 91/53/90
f 90/55/89 91/53/90 92/54/91
f 59/38/58 58/37/57 93/61/92
f 93/61/92 58/37/57 94/57/93
f 93/61/92 94/57/93 62/41/61
f 62/41/61 61/40/60 93/61/92
f 93/61/92 61/40/60 95/62/94
f 93/61/92 95/62/94 59/38/58
f 96/53/95 97/52/96 88/51/87
f 83/35/82 98/34/97 84/36/83
f 84/36/83 98/34/97 99/63/98
f 84/36/83 99/63/98 86/59/85
f 86/59/85 99/63/98 100/64/99
f 86/59/85 100/64/99 101/63/100
f 101/63/100 100/64/99 64/43/63
f 101/63/100 64/43/63 102/65/101
f 103/40/102 79/41/78 104/61/103
f 104/61/103 79/41/78 81/57/80
f 104/61/103 81/57/80 105/37/104
f 105/37/104 81/57/80 82/58/81
f 105/37/104 82/58/81 106/66/105
f 107/67/106 77/55/76 108/68/107
f 108/68/107 77/55/76 72/51/71
f 108/68/107 72/51/71 109/67/108
f 109/67/108 72/51/71 74/53/73
f 109/67/108 74/53/73 110/54/109
f 111/69/110 112/62/111 113/70/112
f 113/70/112 112/62/111 114/38/113
f 113/70/112 114/38/113 115/71/114
f 115/71/114 114/38/113 116/39/115
f 115/71/114 116/39/115 117/48/116
f 118/72/117 119/44/118 120/73/119
f 120/73/119 119/44/118 121/45/120
f 120/73/119 121/45/120 122/74/121
f 122/74/121 121/45/120 123/75/122
f 122/74/121 123/75/122 124/46/123
f 124/46/123 123/75/122 125/42/124
f 124/46/123 125/42/124 126/47/125
f 127/66/126 102/65/101 128/58/127
f 128/58/127 102/65/101 64/43/63
f 128/58/127 64/43/63 129/56/128
f 129/56/128 64/43/63 66/45/65
f 129/56/128 66/45/65 130/75/129
f 131/54/130 96/53/95 132/67/131
f 132/67/131 96/53/95 88/51/87
f 132/67/131 88/51/87 133/68/132
f 133/68/132 88/51/87 90/55/89
f 133/68/132 90/55/89 134/67/133
f 80/56/79 135/43/134 82/58/81
f 82/58/81 135/43/134 136/65/135
f 82/58/81 136/65/135 106/66/105
f 106/66/105 136/65/135 116/39/115
f 106/66/105 116/39/115 105/37/104
f 105/37/104 116/39/115 114/38/113
f 105/37/104 114/38/113 104/61/103
f 104/61/103 114/38/113 112/62/111
f 104/61/103 112/62/111 103/40/102
f 103/40/102 112/62/111 111/69/110
f 65/44/64 64/43/63 137/76/136
f 137/76/136 64/43/63 100/64/99
f 137/76/136 100/64/99 135/43/134
f 135/43/134 100/64/99 99/63/98
f 135/43/134 99/63/98 136/65/135
f 136/65/135 99/63/98 98/34/97
f 136/65/135 98/34/97 116/39/115
f 116/39/115 98/34/97 83/35/82
f 116/39/115 83/35/82 117/48/116
f 117/48/116 83/35/82 85/50/84
f 117/48/116 85/50/84 138/49/137
f 138/49/137 85/50/84 87/60/86
f 138/49/137 87/60/86 139/77/138
f 67/46/66 130/75/129 140/74/139
f 140/74/139 130/75/129 66/45/65
f 140/74/139 66/45/65 141/73/140
f 141/73/140 66/45/65 65/44/64
f 141/73/140 65/44/64 118/72/117
f 118/72/117 65/44/64 137/76/136
f 118/72/117 137/76/136 119/44/118
f 119/44/118 137/76/136 135/43/134
f 119/44/118 135/43/134 121/45/120
f 121/45/120 135/43/134 80/56/79
f 121/45/120 80/56/79 123/75/122
f 123/75/122 80/56/79 79/41/78
f 123/75/122 79/41/78 125/42/124
f 125/42/124 79/41/78 103/40/102
f 125/42/124 103/40/102 142/78/141
f 142/78/141 103/40/102 111/69/110
f 63/42/62 143/78/142 61/40/60
f 61/40/60 143/78/142 144/69/143
f 61/40/60 144/69/143 95/62/94
f 95/62/94 144/69/143 145/70/144
f 95/62/94 145/70/144 59/38/58
f 59/38/58 145/70/144 146/71/145
f 59/38/58 146/71/145 60/39/59
f 60/39/59 146/71/145 69/48/68
f 60/39/59 69/48/68 56/35/55
f 56/35/55 69/48/68 71/50/70
f 56/35/55 71/50/70 57/36/56
f 67/46/66 63/42/62 130/75/129
f 130/75/129 63/42/62 62/41/61
f 130/75/129 62/41/61 129/56/128
f 129/56/128 62/41/61 94/57/93
f 129/56/128 94/57/93 128/58/127
f 128/58/127 94/57/93 58/37/57
f 128/58/127 58/37/57 127/66/126
f 127/66/126 58/37/57 60/39/59
f 127/66/126 60/39/59 102/65/101
f 102/65/101 60/39/59 55/34/54
f 102/65/101 55/34/54 101/63/100
f 101/63/100 55/34/54 57/36/56
f 101/63/100 57/36/56 86/59/85
f 86/59/85 57/36/56 71/50/70
f 86/59/85 71/50/70 87/60/86
f 87/60/86 71/50/70 70/49/69
f 87/60/86 70/49/69 139/77/138
f 139/77/138 70/49/69 147/79/146
f 139/77/138 147/79/146 138/49/137
