mtllib f_face010.mtl
o editpl_f-0000-1855
v 1.171917 48.603558 10.672316
v 3.100420 48.151176 8.713001
v 2.134846 50.490074 9.847692
v -6.632042 49.431316 4.882168
v -5.637368 49.809902 7.526076
v -6.346338 51.741341 7.163775
v 6.129415 46.421867 0.306729
v 3.822617 46.380157 0.512330
v 7.542063 53.236439 -2.550558
v 7.412438 52.055759 4.975522
v 6.346338 51.741341 7.163775
v 6.632042 49.431316 4.882168
v 5.637368 49.809902 7.526076
v 5.782866 47.021832 4.755475
v 7.436247 49.758568 0.271166
v 1.177207 47.942631 9.836578
v 0.000000 48.125507 10.708990
v 0.000000 47.862423 10.107748
v -3.100420 48.151176 8.713001
v -1.171917 48.603558 10.672316
v -2.129555 50.490074 9.847692
v -2.510494 45.776985 8.306245
v -4.928399 47.775799 7.443836
v -3.822617 46.380157 0.512330
v 0.000000 43.765339 3.210695
v -6.129415 46.421867 0.306729
v -4.110967 44.743889 3.969749
v -5.782866 47.021832 4.755475
v 0.000000 43.040249 6.752576
v 0.000000 43.444500 8.428495
v -1.671899 43.483002 7.300472
v 2.510494 45.776985 8.306245
v 1.481430 47.085999 10.147758
v 0.000000 46.315990 10.347800
v 0.000000 47.114872 10.472272
v -1.481430 47.085999 10.147758
v -1.177207 47.942631 9.836578
v -3.589821 45.241188 6.749241
v -1.783006 44.281883 8.606311
v 0.000000 44.192051 8.880816
v -7.796023 55.148624 0.346738
v -7.436247 49.758568 0.271166
v -7.412438 52.055759 4.975522
v 7.796023 55.148624 0.346738
v 4.928399 47.775799 7.443836
v 0.002645 51.686798 11.815897
v -0.650771 51.503922 11.609185
v 0.002645 50.765995 11.541393
v -1.216889 51.247250 11.121303
v 0.002645 50.191696 10.839018
v 0.000000 49.543606 10.942374
v 0.000000 48.943642 11.401363
v -7.542063 53.239647 -2.529443
v 3.589821 45.241188 6.749241
v 4.110967 44.743889 3.969749
v 0.000000 45.635815 9.387592
v 1.783006 44.281883 8.606311
v 1.671899 43.483002 7.300472
v 1.224825 51.247250 11.121303
v 0.658707 51.503922 11.609185
vn 0.5129 -0.2762 0.8128
vn 0.5609 -0.2212 0.7978
vn 0.5508 -0.0315 0.8340
vn -0.9115 -0.2986 0.2829
vn -0.7798 -0.2284 0.5828
vn -0.8275 -0.0473 0.5595
vn 0.5722 -0.6976 -0.4311
vn -0.0630 -0.5353 -0.8423
vn 0.4636 -0.4243 -0.7779
vn 0.9577 -0.0550 0.2826
vn 0.8275 -0.0473 0.5595
vn 0.9115 -0.2986 0.2829
vn 0.7798 -0.2284 0.5828
vn 0.8559 -0.4476 0.2591
vn 0.9361 -0.3146 0.1573
vn 0.3610 -0.2354 0.9024
vn -0.0000 -0.7953 0.6063
vn -0.0000 -0.3443 0.9389
vn -0.5609 -0.2212 0.7978
vn -0.5129 -0.2762 0.8128
vn -0.5508 -0.0315 0.8340
vn -0.5577 -0.4084 0.7226
vn -0.6687 -0.3698 0.6451
vn 0.0630 -0.5353 -0.8423
vn -0.0000 -0.9327 -0.3605
vn -0.5722 -0.6976 -0.4311
vn -0.5830 -0.8115 0.0394
vn -0.8559 -0.4476 0.2591
vn -0.0000 -0.9999 0.0157
vn -0.0000 -0.8308 0.5565
vn -0.4317 -0.8869 0.1648
vn 0.5577 -0.4084 0.7226
vn 0.4467 -0.0470 0.8934
vn -0.0000 -0.5797 0.8148
vn -0.0000 0.2351 0.9720
vn -0.4467 -0.0470 0.8934
vn -0.3610 -0.2354 0.9024
vn -0.7302 -0.5418 0.4162
vn -0.4560 -0.4717 0.7547
vn -0.0000 -0.4251 0.9051
vn -0.9887 0.0157 0.1491
vn -0.9384 -0.3075 0.1577
vn -0.9577 -0.0550 0.2826
vn 0.9887 0.0157 0.1491
vn 0.6687 -0.3698 0.6451
vn -0.0000 0.3996 0.9167
vn -0.5266 0.2044 0.8252
vn -0.0005 -0.5328 0.8462
vn -0.6856 -0.1261 0.7170
vn -0.0000 -0.4783 0.8782
vn -0.0000 0.3233 0.9463
vn -0.0000 -0.0785 0.9969
vn -0.4651 -0.4178 -0.7804
vn 0.7302 -0.5418 0.4162
vn 0.5830 -0.8115 0.0394
vn -0.0000 -0.4156 0.9095
vn 0.4560 -0.4717 0.7547
vn 0.4317 -0.8869 0.1648
vn 0.6855 -0.1260 0.7171
vn 0.5266 0.2044 0.8252
vt 0.446411 0.743286
vt 0.353516 0.791016
vt 0.401550 0.657806
vt 0.132996 0.694641
vt 0.228058 0.694122
vt 0.191071 0.586304
vt 0.052063 0.937500
vt 0.012939 0.987701
vt 0.012939 0.523438
vt 0.114349 0.564667
vt 0.162750 0.818420
vt 0.057709 0.651733
vt 0.437500 0.789062
vt 0.491913 0.789062
vt 0.491913 0.796875
vt 0.384766 0.884766
vt 0.263519 0.805084
vt 0.491913 0.988586
vt 0.279114 0.943451
vt 0.491913 0.985260
vt 0.491913 0.976562
vt 0.361603 0.951996
vt 0.425781 0.846680
vt 0.491913 0.875000
vt 0.491913 0.843750
vt 0.284180 0.897369
vt 0.427429 0.949768
vt 0.491913 0.953125
vt 0.044891 0.424072
vt 0.491913 0.603882
vt 0.474976 0.618744
vt 0.491913 0.651733
vt 0.449982 0.633575
vt 0.491913 0.683380
vt 0.491913 0.714844
vt 0.491913 0.742188
vt 0.491913 0.898438
s 1
usemtl f_face082
f 1/1/1 2/2/2 3/3/3
f 4/4/4 5/5/5 6/6/6
f 7/7/7 8/8/8 9/9/9
f 10/10/10 11/6/11 12/4/12
f 12/4/12 11/6/11 13/5/13
f 14/11/14 7/7/7 15/12/15
f 15/12/15 7/7/7 9/9/9
f 2/2/2 1/1/1 16/13/16
f 16/13/16 1/1/1 17/14/17
f 16/13/16 17/14/17 18/15/18
f 19/2/19 20/1/20 21/3/21
f 22/16/22 19/2/19 23/17/23
f 24/8/24 25/18/25 26/7/26
f 26/7/26 25/18/25 27/19/27
f 26/7/26 27/19/27 28/11/28
f 29/20/29 30/21/30 31/22/31
f 32/16/32 33/23/33 34/24/34
f 34/24/34 33/23/33 35/25/35
f 34/24/34 35/25/35 36/23/36
f 36/23/36 35/25/35 37/13/37
f 38/26/38 31/22/31 39/27/39
f 39/27/39 31/22/31 30/21/30
f 39/27/39 30/21/30 40/28/40
f 41/29/41 42/12/42 43/10/43
f 43/10/43 42/12/42 4/4/4
f 43/10/43 4/4/4 6/6/6
f 44/29/44 10/10/10 15/12/15
f 15/12/15 10/10/10 12/4/12
f 15/12/15 12/4/12 14/11/14
f 14/11/14 12/4/12 13/5/13
f 14/11/14 13/5/13 45/17/45
f 46/30/46 47/31/47 48/32/48
f 48/32/48 47/31/47 49/33/49
f 48/32/48 49/33/49 50/34/50
f 50/34/50 49/33/49 21/3/21
f 50/34/50 21/3/21 51/35/51
f 51/35/51 21/3/21 20/1/20
f 51/35/51 20/1/20 52/36/52
f 5/5/5 4/4/4 28/11/28
f 28/11/28 4/4/4 42/12/42
f 28/11/28 42/12/42 26/7/26
f 26/7/26 42/12/42 53/9/53
f 26/7/26 53/9/53 24/8/24
f 17/14/17 37/13/37 18/15/18
f 18/15/18 37/13/37 35/25/35
f 18/15/18 35/25/35 16/13/16
f 16/13/16 35/25/35 33/23/33
f 16/13/16 33/23/33 2/2/2
f 2/2/2 33/23/33 32/16/32
f 2/2/2 32/16/32 45/17/45
f 45/17/45 32/16/32 54/26/54
f 45/17/45 54/26/54 14/11/14
f 14/11/14 54/26/54 55/19/55
f 14/11/14 55/19/55 7/7/7
f 23/17/23 38/26/38 22/16/22
f 22/16/22 38/26/38 39/27/39
f 22/16/22 39/27/39 56/37/56
f 56/37/56 39/27/39 40/28/40
f 56/37/56 40/28/40 57/27/57
f 57/27/57 40/28/40 30/21/30
f 57/27/57 30/21/30 58/22/58
f 58/22/58 30/21/30 29/20/29
f 58/22/58 29/20/29 25/18/25
f 25/18/25 29/20/29 31/22/31
f 25/18/25 31/22/31 27/19/27
f 27/19/27 31/22/31 38/26/38
f 27/19/27 38/26/38 28/11/28
f 28/11/28 38/26/38 23/17/23
f 28/11/28 23/17/23 5/5/5
f 8/8/8 7/7/7 25/18/25
f 25/18/25 7/7/7 55/19/55
f 25/18/25 55/19/55 58/22/58
f 58/22/58 55/19/55 54/26/54
f 58/22/58 54/26/54 57/27/57
f 57/27/57 54/26/54 32/16/32
f 57/27/57 32/16/32 56/37/56
f 56/37/56 32/16/32 34/24/34
f 56/37/56 34/24/34 22/16/22
f 22/16/22 34/24/34 36/23/36
f 22/16/22 36/23/36 19/2/19
f 19/2/19 36/23/36 37/13/37
f 19/2/19 37/13/37 20/1/20
f 20/1/20 37/13/37 17/14/17
f 20/1/20 17/14/17 52/36/52
f 52/36/52 17/14/17 1/1/1
f 52/36/52 1/1/1 51/35/51
f 51/35/51 1/1/1 3/3/3
f 51/35/51 3/3/3 50/34/50
f 50/34/50 3/3/3 59/33/59
f 50/34/50 59/33/59 48/32/48
f 48/32/48 59/33/59 60/31/60
f 48/32/48 60/31/60 46/30/46
o editpl_f-0000-1856
v 0.939120 52.421513 10.502278
v 0.851822 54.494118 9.777677
v 0.470883 52.495304 10.834573
v 6.179677 56.348553 7.484956
v 5.240557 55.472672 7.806137
v 5.766993 54.314449 6.779247
v -4.121549 50.092239 8.843029
v -4.928399 47.775799 7.443836
v -3.100420 48.151176 8.713001
v 7.182288 58.321701 4.575435
v 7.534127 59.544086 0.082236
v 6.388665 61.982449 4.224246
v -7.116152 54.436367 5.302258
v -7.182288 58.321701 4.575435
v -7.796023 55.148624 0.346738
v -0.851822 54.494118 9.777677
v -0.425911 54.635284 10.068851
v -2.010511 55.357170 9.228668
v 1.904695 52.206551 9.610973
v 4.121549 50.092239 8.843029
v 4.756447 52.071800 8.537407
v 3.655956 55.607422 8.950830
v 3.137456 56.387054 9.554295
v 0.002645 51.686798 11.815897
v -0.462947 52.495304 10.834573
v -0.650771 51.503922 11.609185
v -7.436247 49.758568 0.271166
v -7.801314 49.745735 -1.209156
v -7.542063 53.239647 -2.529443
v 1.941731 54.269531 8.881927
v 2.645410 54.776455 8.848586
v 2.010511 55.357170 9.228668
v 3.655956 55.607422 8.950830
v -7.801314 49.745735 -1.209156
v -7.436247 49.758568 0.271166
v -9.491730 52.739140 -2.903968
v 5.788157 57.949532 7.319364
v 3.200946 57.680027 9.369809
v 8.986457 56.101509 -1.190263
v 7.796023 55.148624 0.346738
v 7.436247 49.758568 0.271166
v 9.700718 54.972164 -2.869516
v 7.542063 53.236439 -2.550558
v 8.986457 56.101509 -1.190263
v 7.796023 55.148624 0.346738
v 5.766993 54.314449 6.779247
v 4.864909 54.686619 8.072861
v 4.941626 53.974361 7.851702
v 3.745900 54.891956 8.609645
v 2.589856 53.971153 8.496287
v 0.000000 63.775925 8.289575
v 3.343798 60.067051 8.920822
v 3.851717 63.461506 7.007073
v 5.833129 59.547298 7.154884
v 7.542063 53.236439 -2.550558
v 7.796023 55.148624 0.346738
v 9.700718 54.972164 -2.869516
v 9.491730 52.739140 -2.903968
v 7.801314 49.745735 -1.209156
v -5.833129 59.547298 7.154884
v -5.788157 57.949532 7.319364
v -3.200946 57.680027 9.369809
v -3.655956 55.607422 8.950830
v -2.645410 54.776455 8.848586
v -2.010511 55.357170 9.228668
v -1.941731 54.269531 8.881927
v -2.129555 50.490074 9.847692
v -1.216889 51.247250 11.121303
v -1.899404 52.206551 9.610973
v -0.933830 52.421513 10.502278
v 0.425911 54.635284 10.068851
v 0.000000 54.680202 10.164427
v 0.000000 52.530598 10.972381
v 9.491730 52.739140 -2.903968
v 7.801314 49.745735 -1.209156
v 7.436247 49.758568 0.271166
v -8.986457 56.101509 -1.190263
v -7.796023 55.148624 0.346738
v -9.491730 52.739140 -2.903968
v -9.700718 54.972164 -2.869516
v -2.589856 53.971153 8.496287
v -3.745900 54.891956 8.609645
v -4.941626 53.974361 7.851702
v -4.864909 54.686619 8.072861
v -5.766993 54.314449 6.779247
v -4.756447 52.071800 8.537407
v -4.941626 53.974361 7.851702
v -6.338402 52.922016 6.803697
v -9.700718 54.972164 -2.869516
v -8.986457 56.101509 -1.190263
v -7.796023 55.148624 0.346738
v 0.000000 55.755009 10.616748
v -3.137456 56.387054 9.554295
v -6.179677 56.348553 7.484956
v -5.240557 55.472672 7.806137
v 0.000000 57.246899 10.105524
v 0.000000 60.182552 9.864361
v -3.343798 60.067051 8.920822
v -5.637368 49.809902 7.526076
v -6.346338 51.741341 7.163775
v -7.412438 52.055759 4.975522
v 7.116152 54.436367 5.302258
v 7.412438 52.055759 4.975522
v 6.338402 52.922016 6.803697
v 6.346338 51.741341 7.163775
v 5.637368 49.809902 7.526076
v 4.928399 47.775799 7.443836
v 0.658707 51.503922 11.609185
v 1.224825 51.247250 11.121303
v 2.134846 50.490074 9.847692
v 3.100420 48.151176 8.713001
v -3.851717 63.461506 7.007073
v -6.388665 61.982449 4.224246
v -7.534127 59.544086 0.082236
v -7.542063 53.239647 -2.529443
vn 0.6385 0.4178 0.6464
vn 0.6221 0.0709 0.7797
vn 0.4158 0.5099 0.7531
vn 0.7216 -0.0549 0.6902
vn 0.6352 -0.2039 0.7450
vn 0.7477 -0.0629 0.6611
vn -0.5028 -0.1178 0.8563
vn -0.6687 -0.3697 0.6451
vn -0.5608 -0.2212 0.7978
vn 0.9496 0.1177 0.2904
vn 0.9935 0.1095 0.0313
vn 0.8976 0.2913 0.3307
vn -0.9093 0.0235 0.4155
vn -0.9496 0.1177 0.2904
vn -0.9887 0.0157 0.1490
vn -0.6221 0.0709 0.7797
vn -0.4408 -0.0236 0.8973
vn -0.3930 -0.3537 0.8488
vn 0.5907 0.2599 0.7639
vn 0.5028 -0.1179 0.8563
vn 0.5254 0.1411 0.8391
vn 0.3624 -0.3229 0.8743
vn 0.3848 -0.1492 0.9109
vn -0.0000 0.3996 0.9167
vn -0.4158 0.5099 0.7531
vn -0.5266 0.2044 0.8252
vn -0.9384 -0.3075 0.1577
vn 0.2430 -0.6820 -0.6899
vn 0.6671 0.1491 -0.7299
vn 0.5041 -0.0945 0.8585
vn 0.2512 -0.3689 0.8949
vn 0.3930 -0.3537 0.8488
vn 0.3623 -0.3229 0.8743
vn 0.2430 -0.6820 -0.6898
vn -0.9035 -0.1885 0.3850
vn 0.7566 0.1419 0.6384
vn 0.4405 0.1259 0.8889
vn 0.8645 -0.0865 0.4951
vn 0.9887 0.0157 0.1491
vn 0.9361 -0.3146 0.1574
vn -0.3852 0.3223 -0.8647
vn -0.6635 0.1422 -0.7346
vn -0.6853 0.5671 -0.4569
vn -0.7954 0.5356 -0.2836
vn 0.7477 -0.0630 0.6611
vn 0.6039 -0.1804 0.7764
vn 0.5511 0.0079 0.8344
vn 0.2830 -0.3616 0.8883
vn 0.3534 -0.0393 0.9346
vn -0.0000 0.4250 0.9052
vn 0.4154 0.2900 0.8622
vn 0.5733 0.4006 0.7147
vn 0.7533 0.1962 0.6277
vn 0.9919 0.0472 -0.1181
vn 0.8942 -0.0863 0.4393
vn 0.9035 -0.1885 0.3850
vn -0.2369 -0.6870 -0.6869
vn -0.7533 0.1962 0.6277
vn -0.7566 0.1419 0.6384
vn -0.4405 0.1259 0.8889
vn -0.3623 -0.3230 0.8743
vn -0.2512 -0.3690 0.8949
vn -0.5037 -0.1023 0.8578
vn -0.5508 -0.0314 0.8340
vn -0.6855 -0.1261 0.7171
vn -0.5907 0.2599 0.7639
vn -0.6385 0.4178 0.6464
vn 0.4408 -0.0236 0.8973
vn -0.0000 -0.0236 0.9997
vn -0.0000 0.5419 0.8404
vn -0.2115 -0.1645 -0.9634
vn -0.2368 -0.6870 -0.6870
vn 0.9361 -0.3146 0.1573
vn 0.6925 0.5587 -0.4564
vn 0.7955 0.5355 -0.2836
vn 0.2281 -0.1651 -0.9595
vn 0.3919 0.3213 -0.8621
vn -0.3534 -0.0393 0.9346
vn -0.2830 -0.3616 0.8883
vn -0.5510 0.0078 0.8344
vn -0.6039 -0.1804 0.7764
vn -0.7477 -0.0630 0.6611
vn -0.5254 0.1412 0.8391
vn -0.5510 0.0079 0.8344
vn -0.7603 0.1960 0.6193
vn -0.8942 -0.0863 0.4393
vn -0.8645 -0.0865 0.4951
vn -0.9887 0.0157 0.1491
vn -0.0000 -0.2518 0.9678
vn -0.3848 -0.1492 0.9109
vn -0.7215 -0.0549 0.6902
vn -0.6352 -0.2039 0.7450
vn -0.0000 0.1810 0.9835
vn -0.0000 0.2203 0.9754
vn -0.4154 0.2900 0.8622
vn -0.7798 -0.2284 0.5829
vn -0.8274 -0.0473 0.5596
vn -0.9577 -0.0549 0.2826
vn 0.9093 0.0235 0.4155
vn 0.9577 -0.0549 0.2826
vn 0.7603 0.1960 0.6193
vn 0.8274 -0.0472 0.5596
vn 0.7798 -0.2284 0.5829
vn 0.6686 -0.3697 0.6451
vn 0.5266 0.2044 0.8252
vn 0.6855 -0.1261 0.7171
vn 0.5508 -0.0315 0.8340
vn 0.5608 -0.2212 0.7979
vn -0.5733 0.4006 0.7147
vn -0.8976 0.2913 0.3307
vn -0.9935 0.1095 0.0313
vn -0.9919 0.0472 -0.1181
vt 0.452148 0.559601
vt 0.457336 0.419830
vt 0.476074 0.559113
vt 0.181183 0.308716
vt 0.229034 0.368073
vt 0.195923 0.459076
vt 0.310760 0.682281
vt 0.263519 0.805084
vt 0.353516 0.791016
vt 0.092377 0.255249
vt 0.012360 0.213165
vt 0.012360 0.012970
vt 0.106903 0.439117
vt 0.044891 0.424072
vt 0.478668 0.409546
vt 0.406006 0.363434
vt 0.394501 0.560150
vt 0.274780 0.569214
vt 0.313416 0.348785
vt 0.342560 0.300201
vt 0.496033 0.603882
vt 0.474976 0.618744
vt 0.897064 0.814331
vt 0.936401 0.816406
vt 0.954803 0.724884
vt 0.401611 0.447662
vt 0.358826 0.394348
vt 0.925201 0.658783
vt 0.856018 0.655121
vt 0.986908 0.526276
vt 0.179901 0.241302
vt 0.352325 0.242889
vt 0.960938 0.376099
vt 0.873871 0.466492
vt 0.975739 0.661438
vt 0.956726 0.655701
vt 0.907227 0.707092
vt 0.247223 0.404449
vt 0.246033 0.467682
vt 0.312408 0.392334
vt 0.367889 0.464905
vt 0.496033 0.012970
vt 0.347351 0.136078
vt 0.242188 0.012970
vt 0.173279 0.156097
vt 0.012360 0.523438
vt 0.986908 0.386780
vt 0.401550 0.657806
vt 0.449982 0.633575
vt 0.496033 0.406799
vt 0.496033 0.558655
vt 0.975739 0.740723
vt 0.181854 0.515991
vt 0.496033 0.335938
vt 0.496033 0.263794
vt 0.496033 0.137207
vt 0.228058 0.694122
vt 0.191071 0.586304
vt 0.114349 0.564667
s 1
usemtl f_face082
f 61/38/61 62/39/62 63/40/63
f 64/41/64 65/42/65 66/43/66
f 67/44/67 68/45/68 69/46/69
f 70/47/70 71/48/71 72/49/72
f 73/50/73 74/47/74 75/51/75
f 76/39/76 77/52/77 78/53/78
f 79/54/79 80/44/80 81/55/81
f 82/56/82 65/42/65 83/57/83
f 84/58/84 85/40/85 86/59/86
f 87/60/87 88/61/88 89/62/89
f 90/63/90 91/64/91 92/53/92
f 92/53/92 91/64/91 93/56/93
f 94/65/94 95/66/87 96/67/95
f 97/68/96 98/69/97 64/41/64
f 62/39/62 61/38/61 79/54/79
f 99/70/98 100/71/99 101/66/100
f 102/72/101 103/62/102 104/73/103
f 104/73/103 103/62/102 105/74/104
f 106/43/105 107/75/106 108/76/107
f 108/76/107 107/75/106 109/77/108
f 108/76/107 109/77/108 110/78/109
f 111/79/110 112/80/111 113/81/112
f 113/81/112 112/80/111 114/82/113
f 113/81/112 114/82/113 72/49/72
f 72/49/72 114/82/113 70/47/70
f 115/83/114 71/48/71 116/51/99
f 117/84/115 99/70/98 118/67/116
f 118/67/116 99/70/98 101/66/100
f 118/67/116 101/66/100 119/65/117
f 120/82/118 121/68/119 122/69/120
f 123/56/121 124/64/122 125/53/78
f 125/53/78 124/64/122 126/63/123
f 125/53/78 126/63/123 76/39/76
f 127/85/124 128/86/125 129/54/126
f 129/54/126 128/86/125 130/38/127
f 62/39/62 131/52/128 63/40/63
f 63/40/63 131/52/128 132/87/129
f 63/40/63 132/87/129 133/88/130
f 102/72/101 134/89/131 103/62/102
f 103/62/102 134/89/131 135/61/132
f 103/62/102 135/61/132 136/60/133
f 89/62/89 137/73/134 138/74/135
f 88/61/88 139/89/136 89/62/89
f 89/62/89 139/89/136 140/72/137
f 89/62/89 140/72/137 137/73/134
f 141/78/138 142/77/139 143/76/140
f 143/76/140 142/77/139 144/75/141
f 143/76/140 144/75/141 145/43/142
f 146/55/143 147/76/144 148/90/145
f 148/90/145 147/76/144 145/43/142
f 148/90/145 145/43/142 73/50/73
f 149/84/146 96/67/95 150/70/147
f 150/70/147 96/67/95 95/66/87
f 150/70/147 95/66/87 151/71/148
f 77/52/77 152/91/149 78/53/78
f 78/53/78 152/91/149 153/57/150
f 78/53/78 153/57/150 123/56/121
f 123/56/121 153/57/150 154/41/151
f 123/56/121 154/41/151 155/42/152
f 120/82/118 74/47/74 121/68/119
f 121/68/119 74/47/74 154/41/151
f 121/68/119 154/41/151 122/69/120
f 122/69/120 154/41/151 153/57/150
f 122/69/120 153/57/150 156/92/153
f 156/92/153 153/57/150 152/91/149
f 156/92/153 152/91/149 83/57/83
f 83/57/83 152/91/149 92/53/92
f 83/57/83 92/53/92 82/56/82
f 106/43/105 65/42/65 107/75/106
f 107/75/106 65/42/65 93/56/93
f 107/75/106 93/56/93 109/77/108
f 109/77/108 93/56/93 91/64/91
f 109/77/108 91/64/91 110/78/109
f 110/78/109 91/64/91 90/63/90
f 69/46/69 127/85/124 67/44/67
f 67/44/67 127/85/124 129/54/126
f 67/44/67 129/54/126 146/55/143
f 146/55/143 129/54/126 141/78/138
f 146/55/143 141/78/138 147/76/144
f 65/42/65 64/41/64 83/57/83
f 83/57/83 64/41/64 98/69/97
f 83/57/83 98/69/97 156/92/153
f 156/92/153 98/69/97 157/93/154
f 156/92/153 157/93/154 122/69/120
f 122/69/120 157/93/154 158/80/155
f 122/69/120 158/80/155 120/82/118
f 68/45/68 67/44/67 159/94/156
f 159/94/156 67/44/67 146/55/143
f 159/94/156 146/55/143 160/95/157
f 160/95/157 146/55/143 148/90/145
f 160/95/157 148/90/145 161/96/158
f 161/96/158 148/90/145 73/50/73
f 161/96/158 73/50/73 75/51/75
f 71/48/71 70/47/70 116/51/99
f 116/51/99 70/47/70 162/50/159
f 116/51/99 162/50/159 163/96/160
f 163/96/160 162/50/159 164/90/161
f 163/96/160 164/90/161 165/95/162
f 165/95/162 164/90/161 81/55/81
f 165/95/162 81/55/81 166/94/163
f 166/94/163 81/55/81 80/44/80
f 166/94/163 80/44/80 167/45/164
f 132/87/129 85/40/85 133/88/130
f 133/88/130 85/40/85 84/58/84
f 133/88/130 84/58/84 63/40/63
f 63/40/63 84/58/84 168/59/165
f 63/40/63 168/59/165 61/38/61
f 61/38/61 168/59/165 169/86/166
f 61/38/61 169/86/166 79/54/79
f 79/54/79 169/86/166 170/85/167
f 79/54/79 170/85/167 80/44/80
f 80/44/80 170/85/167 171/46/168
f 80/44/80 171/46/168 167/45/164
f 74/47/74 73/50/73 154/41/151
f 154/41/151 73/50/73 145/43/142
f 154/41/151 145/43/142 155/42/152
f 155/42/152 145/43/142 144/75/141
f 155/42/152 144/75/141 123/56/121
f 123/56/121 144/75/141 142/77/139
f 123/56/121 142/77/139 124/64/122
f 124/64/122 142/77/139 141/78/138
f 124/64/122 141/78/138 126/63/123
f 126/63/123 141/78/138 129/54/126
f 126/63/123 129/54/126 76/39/76
f 76/39/76 129/54/126 130/38/127
f 76/39/76 130/38/127 77/52/77
f 128/86/125 86/59/86 130/38/127
f 130/38/127 86/59/86 85/40/85
f 130/38/127 85/40/85 77/52/77
f 77/52/77 85/40/85 132/87/129
f 77/52/77 132/87/129 152/91/149
f 152/91/149 132/87/129 131/52/128
f 152/91/149 131/52/128 92/53/92
f 92/53/92 131/52/128 62/39/62
f 92/53/92 62/39/62 90/63/90
f 90/63/90 62/39/62 79/54/79
f 90/63/90 79/54/79 110/78/109
f 110/78/109 79/54/79 81/55/81
f 110/78/109 81/55/81 108/76/107
f 108/76/107 81/55/81 164/90/161
f 108/76/107 164/90/161 66/43/66
f 66/43/66 164/90/161 162/50/159
f 66/43/66 162/50/159 64/41/64
f 64/41/64 162/50/159 70/47/70
f 64/41/64 70/47/70 97/68/96
f 97/68/96 70/47/70 114/82/113
f 97/68/96 114/82/113 98/69/97
f 98/69/97 114/82/113 112/80/111
f 98/69/97 112/80/111 157/93/154
f 157/93/154 112/80/111 111/79/110
f 157/93/154 111/79/110 158/80/155
f 158/80/155 111/79/110 172/81/169
f 158/80/155 172/81/169 120/82/118
f 120/82/118 172/81/169 173/49/170
f 120/82/118 173/49/170 74/47/74
f 74/47/74 173/49/170 174/48/171
f 74/47/74 174/48/171 75/51/75
f 75/51/75 174/48/171 175/83/172
