mtllib f_face023.mtl
o editpl_f-0000-1877
v -2.052838 50.952080 9.189772
v -1.245988 49.177853 10.358914
v -0.015872 50.127529 9.835467
v 4.140066 45.815483 6.768134
v 3.751191 44.811268 4.765477
v 6.182323 47.557629 4.316490
v -0.013227 46.068947 8.730783
v -0.021163 46.980122 9.788790
v -1.666608 47.448544 9.408708
v -0.005291 43.723629 3.166241
v 4.084513 46.537369 0.494548
v 6.118833 47.211124 0.268943
v -2.730063 46.511700 8.079530
v -2.907305 48.382179 8.261791
v -4.044832 48.289135 8.270682
v -0.896794 51.035500 11.278002
v -0.021163 48.295551 9.889923
v -0.021163 48.234592 9.403152
v 1.351804 48.378971 9.125312
v -6.129415 47.207916 0.252273
v -4.171811 46.534161 0.483434
v -3.772354 44.811268 4.756586
v -6.200841 47.557629 4.302042
v -6.975946 49.899734 4.602107
v -0.013227 44.605930 8.748564
v 1.618991 44.727848 8.272905
v 7.542063 53.242855 -2.509438
v 7.229905 49.687984 0.224489
v 6.954782 49.902946 4.619889
v -0.018518 49.155396 10.498944
v 1.201016 49.177853 10.361136
v 2.880851 48.382179 8.269571
v 2.695673 46.511700 8.085086
v 5.714085 47.971508 7.017076
v 1.865014 50.952080 9.195328
v 0.857113 51.035500 11.280225
v -0.015872 50.705036 11.439149
v -4.174457 50.384201 8.873035
v 7.362176 52.713474 5.171120
v 6.557971 51.940258 7.111541
v 6.245813 50.201324 7.292692
v 4.592431 51.981968 8.739674
v 4.081867 50.387409 8.883039
v -1.396776 48.378971 9.123090
v -0.021163 47.541588 9.824353
v 1.618991 47.448544 9.412041
v -6.589716 51.940258 7.094871
v -7.383339 52.713474 5.152227
v -7.240487 49.684776 0.204485
v -7.542063 53.239647 -2.529443
v -4.737929 51.981968 8.728559
v -6.274912 50.198112 7.276022
v -5.740539 47.971508 7.003740
v -4.166520 45.812275 6.818145
v -1.753907 43.993134 7.237124
v -0.007936 43.454124 5.909059
v 1.730098 43.993134 7.241570
v -0.013227 43.659462 7.697225
v -1.648090 44.727848 8.269571
v 4.015732 48.289135 8.280684
vn -0.5095 -0.1019 0.8544
vn -0.3629 -0.2130 0.9072
vn -0.0000 -0.2664 0.9639
vn 0.6614 -0.5826 0.4724
vn 0.5833 -0.8119 0.0236
vn 0.8457 -0.5168 0.1331
vn -0.0000 -0.3996 0.9167
vn -0.0000 -0.4409 0.8976
vn -0.4322 -0.1571 0.8880
vn -0.0000 -0.9658 -0.2591
vn 0.1257 -0.6444 -0.7543
vn 0.6830 -0.6517 -0.3298
vn -0.4163 -0.3063 0.8561
vn -0.3782 -0.1891 0.9062
vn -0.3306 -0.2676 0.9051
vn -0.6852 -0.2677 0.6774
vn -0.0000 -0.8462 0.5328
vn -0.0001 -0.4314 0.9021
vn 0.3693 -0.2986 0.8800
vn -0.6831 -0.6517 -0.3298
vn -0.1336 -0.6521 -0.7463
vn -0.5833 -0.8119 0.0236
vn -0.8465 -0.5173 0.1254
vn -0.9503 -0.2592 0.1728
vn 0.3989 -0.4380 0.8056
vn 0.4955 -0.4561 -0.7392
vn 0.9552 -0.2349 0.1800
vn 0.9503 -0.2591 0.1728
vn -0.0000 -0.0000 1.0000
vn 0.3683 -0.1958 0.9089
vn 0.3693 -0.1807 0.9116
vn 0.4153 -0.3134 0.8540
vn 0.7362 -0.4073 0.5404
vn 0.5187 -0.1022 0.8488
vn 0.6930 -0.2677 0.6694
vn -0.0000 -0.7670 0.6417
vn -0.2673 -0.1966 0.9434
vn 0.9723 -0.0549 0.2274
vn 0.8185 -0.0000 0.5745
vn 0.7384 -0.1728 0.6519
vn 0.4708 0.1412 0.8709
vn 0.2585 -0.1880 0.9476
vn -0.3761 -0.2977 0.8775
vn -0.0000 0.2830 0.9591
vn 0.4322 -0.1572 0.8880
vn -0.8284 -0.0000 0.5601
vn -0.9723 -0.0549 0.2274
vn -0.9552 -0.2349 0.1801
vn -0.4955 -0.4561 -0.7392
vn -0.4796 0.1493 0.8647
vn -0.7446 -0.1803 0.6427
vn -0.7386 -0.4007 0.5421
vn -0.6589 -0.5805 0.4785
vn -0.4165 -0.8801 0.2279
vn -0.0000 -1.0000 0.0079
vn 0.4165 -0.8801 0.2279
vn -0.0000 -0.8782 0.4783
vn -0.3936 -0.4330 0.8109
vn 0.3235 -0.2683 0.9074
vt 0.406250 0.656250
vt 0.447906 0.757812
vt 0.493622 0.718750
vt 0.312500 0.921875
vt 0.257812 0.945312
vt 0.171875 0.877228
vt 0.493622 0.890625
vt 0.493622 0.862915
vt 0.441040 0.840179
vt 0.492310 0.993469
vt 0.007812 0.992188
vt 0.093750 0.945312
vt 0.396851 0.882812
vt 0.360138 0.795288
vt 0.311371 0.795746
vt 0.463257 0.654663
vt 0.493622 0.786438
vt 0.493622 0.796875
vt 0.448425 0.793213
vt 0.142853 0.727661
vt 0.493622 0.945312
vt 0.437500 0.929688
vt 0.007812 0.640625
vt 0.050201 0.606018
vt 0.493622 0.762146
vt 0.241058 0.828125
vt 0.493622 0.679688
vt 0.329224 0.657349
vt 0.108246 0.568054
vt 0.194183 0.607117
vt 0.251099 0.687500
vt 0.282349 0.568054
vt 0.493622 0.824554
vt 0.453125 0.968750
vt 0.493622 0.976562
vt 0.493622 0.968750
s 1
usemtl f_face093
f 1/1/1 2/2/2 3/3/3
f 4/4/4 5/5/5 6/6/6
f 7/7/7 8/8/8 9/9/9
f 10/10/10 11/11/11 12/12/12
f 13/13/13 14/14/14 15/15/15
f 16/16/16 1/1/1 3/3/3
f 17/17/17 18/18/18 19/19/19
f 20/12/20 21/11/21 10/10/10
f 10/10/10 22/5/22 20/12/20
f 20/12/20 22/5/22 23/6/23
f 20/12/20 23/6/23 24/20/24
f 7/7/7 25/21/7 26/22/25
f 11/11/11 27/23/26 12/12/12
f 12/12/12 27/23/26 28/24/27
f 12/12/12 28/24/27 29/20/28
f 30/25/29 17/17/17 31/2/30
f 31/2/30 17/17/17 19/19/19
f 31/2/30 19/19/19 32/14/31
f 33/13/32 4/4/4 34/26/33
f 34/26/33 4/4/4 6/6/6
f 35/1/34 36/16/35 3/3/3
f 3/3/3 36/16/35 37/27/36
f 3/3/3 37/27/36 16/16/16
f 2/2/2 1/1/1 14/14/14
f 14/14/14 1/1/1 38/28/37
f 14/14/14 38/28/37 15/15/15
f 28/24/27 39/29/38 29/20/28
f 29/20/28 39/29/38 40/30/39
f 29/20/28 40/30/39 41/31/40
f 41/31/40 40/30/39 42/32/41
f 41/31/40 42/32/41 43/28/42
f 44/19/43 9/9/9 45/33/44
f 45/33/44 9/9/9 8/8/8
f 45/33/44 8/8/8 46/9/45
f 46/9/45 8/8/8 7/7/7
f 46/9/45 7/7/7 33/13/32
f 33/13/32 7/7/7 26/22/25
f 33/13/32 26/22/25 4/4/4
f 47/30/46 48/29/47 24/20/24
f 24/20/24 48/29/47 49/24/48
f 24/20/24 49/24/48 20/12/20
f 20/12/20 49/24/48 50/23/49
f 20/12/20 50/23/49 21/11/21
f 51/32/50 47/30/46 52/31/51
f 52/31/51 47/30/46 24/20/24
f 52/31/51 24/20/24 53/26/52
f 53/26/52 24/20/24 23/6/23
f 53/26/52 23/6/23 54/4/53
f 54/4/53 23/6/23 22/5/22
f 54/4/53 22/5/22 55/34/54
f 55/34/54 22/5/22 10/10/10
f 55/34/54 10/10/10 56/35/55
f 5/5/5 4/4/4 57/34/56
f 57/34/56 4/4/4 26/22/25
f 57/34/56 26/22/25 58/36/57
f 58/36/57 26/22/25 25/21/7
f 58/36/57 25/21/7 59/22/58
f 59/22/58 25/21/7 7/7/7
f 59/22/58 7/7/7 13/13/13
f 13/13/13 7/7/7 9/9/9
f 13/13/13 9/9/9 14/14/14
f 14/14/14 9/9/9 44/19/43
f 14/14/14 44/19/43 2/2/2
f 34/26/33 60/15/59 33/13/32
f 33/13/32 60/15/59 32/14/31
f 33/13/32 32/14/31 46/9/45
f 46/9/45 32/14/31 19/19/19
f 46/9/45 19/19/19 45/33/44
f 45/33/44 19/19/19 18/18/18
f 45/33/44 18/18/18 44/19/43
f 44/19/43 18/18/18 17/17/17
f 44/19/43 17/17/17 2/2/2
f 2/2/2 17/17/17 30/25/29
f 2/2/2 30/25/29 3/3/3
f 3/3/3 30/25/29 31/2/30
f 3/3/3 31/2/30 35/1/34
f 35/1/34 31/2/30 32/14/31
f 35/1/34 32/14/31 43/28/42
f 43/28/42 32/14/31 60/15/59
f 43/28/42 60/15/59 41/31/40
f 41/31/40 60/15/59 34/26/33
f 41/31/40 34/26/33 29/20/28
f 29/20/28 34/26/33 6/6/6
f 29/20/28 6/6/6 12/12/12
f 12/12/12 6/6/6 5/5/5
f 12/12/12 5/5/5 10/10/10
f 10/10/10 5/5/5 57/34/56
f 10/10/10 57/34/56 56/35/55
f 56/35/55 57/34/56 58/36/57
f 56/35/55 58/36/57 55/34/54
f 55/34/54 58/36/57 59/22/58
f 55/34/54 59/22/58 54/4/53
f 54/4/53 59/22/58 13/13/13
f 54/4/53 13/13/13 53/26/52
f 53/26/52 13/13/13 15/15/15
f 53/26/52 15/15/15 52/31/51
f 52/31/51 15/15/15 38/28/37
f 52/31/51 38/28/37 51/32/50
o editpl_f-0000-1878
v 0.730133 53.018269 10.465604
v 1.865014 50.952080 9.195328
v 1.952312 52.707058 9.455384
v -6.010371 59.547298 7.154884
v -6.399246 61.931114 4.316489
v -7.182288 58.321701 4.575435
v -1.986703 52.707058 9.450939
v -4.737929 51.981968 8.728559
v -4.174457 50.384201 8.873035
v 5.269656 53.255688 8.042855
v 4.592431 51.981968 8.739674
v 6.557971 51.940258 7.111541
v -0.015872 54.619244 10.336687
v -0.949702 54.429951 9.941045
v -0.759233 53.018269 10.463381
v -2.052838 50.952080 9.189772
v 0.912666 54.429951 9.943268
v 1.343868 55.549671 9.957715
v 1.502593 53.983990 9.124201
v 2.494621 55.735756 9.250896
v 9.491730 52.748768 -2.863960
v 9.700718 54.978580 -2.811726
v 8.983812 56.117554 -1.124693
v 7.737824 55.132584 0.402306
v 8.983812 56.117554 -1.124693
v 7.542063 53.242855 -2.509438
v 9.700718 54.978580 -2.811726
v 0.857113 51.035500 11.280225
v -0.018518 51.491085 11.901471
v -0.015872 50.705036 11.439149
v 6.399246 53.165855 7.063753
v 6.285494 54.150822 6.983736
v 5.314628 55.767841 8.208447
v -9.491730 52.745560 -2.890632
v -9.700718 54.978580 -2.838399
v -7.542063 53.239647 -2.529443
v -8.986457 56.095093 -1.149143
v -7.745760 55.129375 0.381190
v -7.415084 54.847038 5.206683
v -6.425700 53.165855 7.045972
v -6.311948 54.170074 6.967066
v -5.304047 53.252480 8.030630
v -0.018518 60.182552 9.864361
v -3.444324 60.067051 8.920822
v -2.833234 56.525017 9.705439
v -7.745760 55.129375 0.381190
v -7.240487 49.684776 0.204485
v -7.383339 52.713474 5.152227
v -7.536773 59.524837 0.153362
v -7.542063 53.239647 -2.529443
v -8.986457 56.095093 -1.149143
v -9.700718 54.978580 -2.838399
v -2.573984 53.425732 8.684105
v -1.529047 53.983990 9.119756
v -2.526366 55.735756 9.243116
v -1.380904 55.549671 9.954381
v -0.015872 56.207386 10.462270
v 2.798844 56.525017 9.713218
v 5.772284 56.736767 8.212893
v 7.391275 54.850246 5.225576
v 7.362176 52.713474 5.171120
v 7.229905 49.687984 0.224489
v 7.801314 49.742527 -1.195819
v 7.229905 49.687984 0.224489
v 7.737824 55.132584 0.402306
v -0.015872 63.692509 8.404044
v 3.404642 60.067051 8.929713
v 3.838490 63.387711 7.123765
v 5.973335 59.550507 7.171554
v 6.378083 61.934322 4.333159
v 7.155834 58.321701 4.595438
v 7.528836 59.528046 0.173367
v 7.737824 55.132584 0.402306
v 7.542063 53.242855 -2.509438
v -0.013227 53.130562 11.043508
v -0.896794 51.035500 11.278002
v -5.801384 56.733559 8.197333
v -5.351664 55.767841 8.196222
v -3.830553 54.616035 9.099751
v -7.745760 55.129375 0.381190
v -7.240487 49.684776 0.204485
v -7.801314 49.739319 -1.216935
v -7.240487 49.684776 0.204485
v 2.544884 53.428940 8.691885
v 3.793518 54.619244 9.109754
v -3.867589 63.387711 7.113763
v 7.229905 49.687984 0.224489
v 4.081867 50.387409 8.883039
v -6.589716 51.940258 7.094871
vn 0.6518 0.2042 0.7304
vn 0.5187 -0.1021 0.8488
vn 0.5198 0.1811 0.8349
vn -0.7372 0.2509 0.6274
vn -0.9016 0.2979 0.3136
vn -0.9639 0.1254 0.2351
vn -0.5183 0.1963 0.8324
vn -0.4795 0.1494 0.8647
vn -0.2673 -0.1965 0.9434
vn 0.5510 0.0079 0.8344
vn 0.4707 0.1412 0.8709
vn 0.8185 -0.0000 0.5745
vn -0.0000 0.1095 0.9940
vn -0.6385 0.0867 0.7647
vn -0.6451 0.2203 0.7316
vn -0.5095 -0.1019 0.8544
vn 0.6385 0.0867 0.7647
vn 0.4549 -0.2745 0.8472
vn 0.6284 -0.0157 0.7777
vn 0.3229 -0.2993 0.8978
vn 0.9057 -0.3465 -0.2442
vn 0.8942 -0.0863 0.4393
vn 0.8544 -0.1019 0.5095
vn -0.7937 0.5344 -0.2908
vn -0.6828 0.5651 -0.4630
vn -0.6390 0.1341 -0.7574
vn -0.3852 0.3223 -0.8647
vn 0.6930 -0.2677 0.6694
vn -0.0006 -0.0862 0.9963
vn -0.0000 -0.7669 0.6417
vn 0.7955 0.0945 0.5986
vn 0.7415 -0.0237 0.6705
vn 0.5093 -0.1567 0.8462
vn -0.9057 -0.3465 -0.2442
vn 0.3842 0.3294 -0.8625
vn 0.6383 0.1418 -0.7566
vn 0.6828 0.5651 -0.4630
vn 0.7874 0.5433 -0.2914
vn -0.9346 0.0393 0.3534
vn -0.7977 0.1017 0.5944
vn -0.7450 -0.0235 0.6666
vn -0.5564 0.0157 0.8307
vn -0.0000 0.2351 0.9720
vn -0.4079 0.2746 0.8708
vn -0.4000 -0.1098 0.9099
vn -0.9920 -0.0000 0.1259
vn -0.9552 -0.2348 0.1800
vn -0.9723 -0.0549 0.2274
vn -0.9940 0.1018 0.0392
vn -0.9948 0.0392 -0.0940
vn -0.8544 -0.1019 0.5095
vn -0.8936 -0.0941 0.4389
vn -0.2679 0.0631 0.9614
vn -0.6370 -0.0157 0.7707
vn -0.3229 -0.2993 0.8978
vn -0.4642 -0.2754 0.8418
vn -0.0000 -0.0315 0.9995
vn 0.4000 -0.1098 0.9099
vn 0.7302 -0.0078 0.6832
vn 0.9346 0.0393 0.3534
vn 0.9723 -0.0549 0.2274
vn -0.9060 -0.2049 -0.3703
vn -0.2044 -0.6682 -0.7154
vn 0.9552 -0.2349 0.1801
vn 0.9920 -0.0000 0.1260
vn -0.0000 0.4156 0.9096
vn 0.4079 0.2746 0.8708
vn 0.5715 0.4071 0.7125
vn 0.7336 0.2524 0.6310
vn 0.9037 0.2907 0.3143
vn 0.9639 0.1254 0.2351
vn 0.9937 0.1017 0.0469
vn 0.9920 -0.0000 0.1259
vn 0.9948 0.0392 -0.0940
vn -0.0000 0.4378 0.8991
vn -0.6852 -0.2678 0.6774
vn -0.7378 -0.0078 0.6750
vn -0.5133 -0.1501 0.8450
vn -0.2514 -0.1336 0.9586
vn -0.9920 -0.0000 0.1260
vn -0.9552 -0.2349 0.1801
vn 0.2119 -0.6671 -0.7142
vn 0.9100 -0.2040 -0.3609
vn 0.2660 0.0548 0.9624
vn 0.2514 -0.1336 0.9586
vn -0.5747 0.4094 0.7086
vn 0.2584 -0.1879 0.9476
vn -0.8284 0.0001 0.5602
vt 0.466492 0.527893
vt 0.406250 0.656250
vt 0.400665 0.522308
vt 0.205719 0.129333
vt 0.164062 0.007812
vt 0.069427 0.190094
vt 0.282349 0.568054
vt 0.329224 0.657349
vt 0.224976 0.469513
vt 0.194183 0.607117
vt 0.493622 0.406250
vt 0.457031 0.424469
vt 0.425201 0.386139
vt 0.412109 0.436523
vt 0.357117 0.355469
vt 0.996094 0.558594
vt 0.996094 0.386719
vt 0.972656 0.378906
vt 0.894531 0.449219
vt 0.977661 0.524536
vt 0.463257 0.654663
vt 0.493622 0.648438
vt 0.493622 0.679688
vt 0.165619 0.504669
vt 0.169617 0.407349
vt 0.213867 0.350586
vt 0.071869 0.375000
vt 0.493622 0.164062
vt 0.350250 0.141907
vt 0.367188 0.330719
vt 0.029297 0.386719
vt 0.050201 0.606018
vt 0.108246 0.568054
vt 0.007812 0.007812
vt 0.007812 0.640625
vt 0.348633 0.467773
vt 0.493622 0.359375
vt 0.207458 0.297729
vt 0.855469 0.652344
vt 0.941406 0.652344
vt 0.493622 0.007812
vt 0.304688 0.007812
vt 0.493622 0.515625
vt 0.285156 0.407227
s 1
usemtl f_face093
f 61/37/60 62/38/61 63/39/62
f 64/40/63 65/41/64 66/42/65
f 67/39/66 68/43/67 69/44/68
f 70/45/69 71/43/70 72/46/71
f 73/47/72 74/48/73 75/37/74
f 75/37/74 74/48/73 67/39/66
f 75/37/74 67/39/66 76/38/75
f 76/38/75 67/39/66 69/44/68
f 73/47/72 77/48/76 78/49/77
f 78/49/77 77/48/76 79/50/78
f 78/49/77 79/50/78 80/51/79
f 81/52/80 82/53/81 83/54/82
f 84/55/83 85/54/84 86/56/85
f 86/56/85 85/54/84 87/53/86
f 86/56/85 87/53/86 81/52/80
f 88/57/87 89/58/88 90/59/89
f 72/46/71 91/60/90 70/45/69
f 70/45/69 91/60/90 92/61/91
f 70/45/69 92/61/91 93/62/92
f 94/52/93 95/53/94 96/56/95
f 96/56/95 95/53/94 97/54/96
f 96/56/95 97/54/96 98/55/97
f 99/63/98 100/60/99 101/61/100
f 101/61/100 100/60/99 102/45/101
f 103/64/102 104/65/103 105/66/104
f 105/66/104 104/65/103 64/40/63
f 106/67/105 107/68/106 108/69/107
f 106/67/105 109/70/108 110/71/109
f 111/54/110 112/53/111 94/52/93
f 113/72/112 114/50/113 115/51/114
f 115/51/114 114/50/113 116/49/115
f 115/51/114 116/49/115 105/66/104
f 105/66/104 116/49/115 117/73/116
f 105/66/104 117/73/116 103/64/102
f 103/64/102 117/73/116 118/66/117
f 118/66/117 93/62/92 119/74/118
f 119/74/118 93/62/92 92/61/91
f 119/74/118 92/61/91 120/63/119
f 120/63/119 92/61/91 91/60/90
f 120/63/119 91/60/90 121/69/120
f 121/69/120 91/60/90 72/46/71
f 122/75/121 86/56/85 123/76/122
f 123/76/122 86/56/85 81/52/80
f 123/76/122 81/52/80 124/75/123
f 124/75/123 81/52/80 83/54/82
f 124/75/123 83/54/82 125/55/124
f 126/77/125 127/65/126 128/78/127
f 128/78/127 127/65/126 129/40/128
f 128/78/127 129/40/128 130/41/129
f 130/41/129 129/40/128 131/42/130
f 130/41/129 131/42/130 132/70/131
f 132/70/131 131/42/130 133/67/132
f 132/70/131 133/67/132 134/71/133
f 62/38/61 61/37/60 88/57/87
f 88/57/87 61/37/60 135/79/134
f 88/57/87 135/79/134 89/58/88
f 89/58/88 135/79/134 136/57/135
f 89/58/88 136/57/135 90/59/89
f 66/42/65 99/63/98 137/74/136
f 137/74/136 99/63/98 101/61/100
f 137/74/136 101/61/100 138/62/137
f 138/62/137 101/61/100 102/45/101
f 138/62/137 102/45/101 139/80/138
f 102/45/101 113/72/112 139/80/138
f 139/80/138 113/72/112 115/51/114
f 139/80/138 115/51/114 138/62/137
f 138/62/137 115/51/114 105/66/104
f 138/62/137 105/66/104 137/74/136
f 137/74/136 105/66/104 64/40/63
f 137/74/136 64/40/63 66/42/65
f 140/55/139 111/54/110 141/75/140
f 141/75/140 111/54/110 94/52/93
f 141/75/140 94/52/93 142/76/141
f 142/76/141 94/52/93 96/56/95
f 142/76/141 96/56/95 143/75/142
f 76/38/75 136/57/135 75/37/74
f 75/37/74 136/57/135 135/79/134
f 75/37/74 135/79/134 73/47/72
f 73/47/72 135/79/134 61/37/60
f 73/47/72 61/37/60 77/48/76
f 77/48/76 61/37/60 63/39/62
f 77/48/76 63/39/62 79/50/78
f 79/50/78 63/39/62 144/72/143
f 79/50/78 144/72/143 80/51/79
f 80/51/79 144/72/143 145/80/144
f 65/41/64 64/40/63 146/78/145
f 146/78/145 64/40/63 104/65/103
f 146/78/145 104/65/103 126/77/125
f 126/77/125 104/65/103 103/64/102
f 126/77/125 103/64/102 127/65/126
f 127/65/126 103/64/102 118/66/117
f 127/65/126 118/66/117 129/40/128
f 129/40/128 118/66/117 119/74/118
f 129/40/128 119/74/118 131/42/130
f 131/42/130 119/74/118 120/63/119
f 131/42/130 120/63/119 133/67/132
f 133/67/132 120/63/119 121/69/120
f 133/67/132 121/69/120 147/68/123
f 62/38/61 148/44/146 63/39/62
f 63/39/62 148/44/146 71/43/70
f 63/39/62 71/43/70 144/72/143
f 144/72/143 71/43/70 70/45/69
f 144/72/143 70/45/69 145/80/144
f 145/80/144 70/45/69 93/62/92
f 145/80/144 93/62/92 80/51/79
f 80/51/79 93/62/92 118/66/117
f 80/51/79 118/66/117 78/49/77
f 78/49/77 118/66/117 117/73/116
f 78/49/77 117/73/116 73/47/72
f 73/47/72 117/73/116 116/49/115
f 73/47/72 116/49/115 74/48/73
f 74/48/73 116/49/115 114/50/113
f 74/48/73 114/50/113 67/39/66
f 67/39/66 114/50/113 113/72/112
f 67/39/66 113/72/112 68/43/67
f 68/43/67 113/72/112 102/45/101
f 68/43/67 102/45/101 149/46/147
f 149/46/147 102/45/101 100/60/99
f 149/46/147 100/60/99 108/69/107
f 108/69/107 100/60/99 99/63/98
f 108/69/107 99/63/98 106/67/105
f 106/67/105 99/63/98 66/42/65
f 106/67/105 66/42/65 109/70/108
f 109/70/108 66/42/65 65/41/64
