mtllib f_face001.mtl
o editpl_f-0000-1837
v -5.296110 45.911736 1.065784
v 0.000000 43.723629 3.166241
v -3.804099 45.109646 3.099559
v 2.314734 46.678535 8.387374
v 1.436458 44.448719 8.334029
v 3.507813 46.190865 7.161552
v -6.031534 52.132759 7.027079
v -5.904555 50.012028 6.855930
v -4.769674 50.329659 8.625204
v -1.245988 49.158604 10.237776
v 0.000000 49.209938 10.405591
v 0.000000 50.140366 10.381141
v -7.116152 49.684776 0.204485
v -7.801314 49.739319 -1.216935
v -7.542063 53.239647 -2.529443
v -1.933795 44.092590 6.279139
v -1.431167 44.448719 8.334029
v -5.674404 46.665703 3.255148
v -7.745760 55.129375 0.381190
v -7.116152 49.684776 0.204485
v -7.256359 52.334888 4.642116
v -6.671724 49.344688 3.983084
v -7.542063 53.239647 -2.529443
v -6.259040 47.098831 0.576788
v -1.756552 47.483837 9.509840
v -1.396776 48.510513 9.555407
v -3.108357 48.475220 8.557411
v 7.542063 53.239647 -2.529443
v 7.801314 49.739319 -1.216935
v 7.116152 49.684776 0.204485
v 1.756552 47.483837 9.509840
v 0.000000 47.904133 10.008839
v 0.000000 47.249626 9.891034
v 0.000000 48.308388 9.726554
v 1.396776 48.510513 9.555407
v 3.108357 48.475220 8.557411
v 1.973476 50.730701 9.674321
v 1.245988 49.158604 10.237776
v 3.409933 50.496494 9.207552
v 0.000000 46.611160 9.060854
v -2.314734 46.678535 8.387374
v -3.502523 46.190865 7.161552
v -5.261720 48.164009 6.863710
v 3.804099 45.109646 3.099559
v 5.296110 45.911736 1.065784
v 5.674404 46.665703 3.255148
v 6.259040 47.098831 0.576788
v 7.116152 49.684776 0.204485
v 7.256359 52.334888 4.642116
v 5.904555 50.012028 6.855930
v 6.671724 49.344688 3.983084
v 5.261720 48.164009 6.863710
v -4.171811 46.534161 0.483434
v 6.031534 52.132759 7.027079
v 4.769674 50.329659 8.625204
v 1.973476 50.730701 9.674321
v 0.851822 51.109291 11.394694
v 0.000000 50.688995 11.503607
v 0.000000 43.781380 7.444948
v 1.436458 44.448719 8.334029
v 0.007936 46.476406 9.021957
v 0.000000 48.966103 10.272228
v 1.933795 44.092590 6.279139
v 4.171811 46.534161 0.483434
v 7.542063 53.239647 -2.529443
v -3.409933 50.496494 9.207552
v -1.973476 50.730701 9.674321
v -0.851822 51.109291 11.394694
v 0.000000 51.266502 11.811452
v 7.745760 55.129375 0.381190
vn -0.4477 -0.8247 -0.3456
vn -0.0000 -0.9678 -0.2517
vn -0.4936 -0.8697 0.0078
vn 0.4712 -0.3691 0.8011
vn 0.4240 -0.6124 0.6673
vn 0.6675 -0.4555 0.5890
vn -0.8404 -0.0079 0.5419
vn -0.8757 -0.2033 0.4379
vn -0.6362 -0.1964 0.7461
vn -0.2983 -0.2591 0.9186
vn -0.0000 -0.2351 0.9720
vn -0.0000 -0.4472 0.8944
vn -0.9403 -0.2978 0.1645
vn 0.1967 -0.6611 -0.7241
vn 0.6267 0.1332 -0.7678
vn -0.4383 -0.8921 0.1096
vn -0.4239 -0.6124 0.6673
vn -0.7869 -0.5822 0.2046
vn -0.9849 -0.0000 0.1733
vn -0.9404 -0.2978 0.1645
vn -0.9555 -0.0549 0.2898
vn -0.9278 -0.3067 0.2123
vn -0.5972 -0.4557 -0.6601
vn -0.7248 -0.5357 -0.4333
vn -0.3951 -0.3398 0.8535
vn -0.3140 -0.1178 0.9421
vn -0.5349 -0.3461 0.7708
vn -0.6267 0.1332 -0.7678
vn -0.1967 -0.6611 -0.7240
vn 0.9403 -0.2978 0.1645
vn 0.3951 -0.3398 0.8535
vn -0.0000 0.1644 0.9864
vn -0.0000 -0.5180 0.8554
vn -0.0000 -0.0550 0.9985
vn 0.3140 -0.1178 0.9421
vn 0.5349 -0.3461 0.7708
vn 0.5087 -0.0000 0.8610
vn 0.2984 -0.2591 0.9186
vn 0.4080 -0.0707 0.9102
vn -0.0000 -0.6371 0.7708
vn -0.4712 -0.3691 0.8011
vn -0.6675 -0.4555 0.5890
vn -0.7531 -0.4158 0.5099
vn 0.4936 -0.8697 0.0078
vn 0.4477 -0.8247 -0.3456
vn 0.7868 -0.5823 0.2046
vn 0.7248 -0.5357 -0.4333
vn 0.9404 -0.2978 0.1645
vn 0.9555 -0.0549 0.2898
vn 0.8757 -0.2033 0.4379
vn 0.9278 -0.3067 0.2123
vn 0.7531 -0.4158 0.5099
vn -0.1098 -0.5568 -0.8234
vn 0.8404 -0.0079 0.5419
vn 0.6362 -0.1964 0.7461
vn 0.5087 -0.0000 0.8609
vn 0.5677 -0.2365 0.7885
vn -0.0000 -0.7149 0.6992
vn -0.0000 -0.9737 0.2278
vn 0.4239 -0.6123 0.6673
vn -0.0000 -0.2277 0.9737
vn -0.0000 -0.5798 0.8148
vn 0.4383 -0.8921 0.1096
vn 0.1098 -0.5568 -0.8234
vn 0.5972 -0.4557 -0.6601
vn -0.4080 -0.0707 0.9102
vn -0.5087 -0.0000 0.8610
vn -0.5677 -0.2365 0.7885
vn -0.0000 -0.0000 1.0000
vn 0.9849 -0.0000 0.1733
vt 0.148315 0.948578
vt 0.499725 0.986908
vt 0.245728 0.946167
vt 0.397736 0.881256
vt 0.424438 0.952118
vt 0.335571 0.892578
vt 0.169220 0.579895
vt 0.188263 0.698456
vt 0.265808 0.687866
vt 0.447906 0.756439
vt 0.499725 0.752289
vt 0.499725 0.718750
vt 0.911346 0.797760
vt 0.952789 0.797760
vt 0.970276 0.736145
vt 0.415649 0.964996
vt 0.168091 0.877686
vt 0.029297 0.386719
vt 0.042603 0.698578
vt 0.093994 0.572174
vt 0.116211 0.702911
vt 0.011871 0.744415
vt 0.050873 0.951019
vt 0.421204 0.843781
vt 0.431824 0.796295
vt 0.360748 0.791260
vt 0.499725 0.824554
vt 0.499725 0.851654
vt 0.499725 0.796875
vt 0.406250 0.663513
vt 0.337830 0.674408
vt 0.499725 0.886383
vt 0.240723 0.794739
vt 0.011871 0.985626
vt 0.593353 0.663513
vt 0.536346 0.644958
vt 0.499725 0.679688
vt 0.499725 0.975708
vt 0.574677 0.952118
vt 0.499725 0.889893
vt 0.499725 0.760773
vt 0.463257 0.644958
vt 0.499725 0.645996
s 1
usemtl f_face073
f 1/1/1 2/2/2 3/3/3
f 4/4/4 5/5/5 6/6/6
f 7/7/7 8/8/8 9/9/9
f 10/10/10 11/11/11 12/12/12
f 13/13/13 14/14/14 15/15/15
f 16/16/16 17/5/17 18/17/18
f 19/18/19 20/19/20 21/20/21
f 21/20/21 20/19/20 22/21/22
f 23/22/23 24/23/24 20/19/20
f 20/19/20 24/23/24 18/17/18
f 20/19/20 18/17/18 22/21/22
f 25/24/25 26/25/26 27/26/27
f 27/26/27 26/25/26 10/10/10
f 28/15/28 29/14/29 30/13/30
f 31/24/31 32/27/32 33/28/33
f 34/29/34 32/27/32 35/25/35
f 35/25/35 32/27/32 31/24/31
f 35/25/35 31/24/31 36/26/36
f 37/30/37 38/10/38 39/31/39
f 40/32/40 25/24/25 41/4/41
f 41/4/41 25/24/25 27/26/27
f 41/4/41 27/26/27 42/6/42
f 42/6/42 27/26/27 43/33/43
f 44/3/44 45/1/45 46/17/46
f 46/17/46 45/1/45 47/23/47
f 46/17/46 47/23/47 48/19/48
f 49/20/49 50/8/50 51/21/51
f 51/21/51 50/8/50 52/33/52
f 2/2/2 1/1/1 53/34/53
f 49/20/49 54/7/54 50/8/50
f 50/8/50 54/7/54 55/9/55
f 50/8/50 55/9/55 52/33/52
f 52/33/52 55/9/55 36/26/36
f 56/35/56 57/36/57 12/12/12
f 12/12/12 57/36/57 58/37/58
f 16/16/16 59/38/59 17/5/17
f 17/5/17 59/38/59 60/39/60
f 17/5/17 60/39/60 61/40/61
f 5/5/5 4/4/4 61/40/61
f 55/9/55 39/31/39 36/26/36
f 36/26/36 39/31/39 38/10/38
f 36/26/36 38/10/38 35/25/35
f 35/25/35 38/10/38 62/41/62
f 35/25/35 62/41/62 34/29/34
f 46/17/46 63/16/63 44/3/44
f 44/3/44 63/16/63 2/2/2
f 44/3/44 2/2/2 45/1/45
f 45/1/45 2/2/2 64/34/64
f 45/1/45 64/34/64 47/23/47
f 47/23/47 64/34/64 65/22/65
f 47/23/47 65/22/65 48/19/48
f 8/8/8 43/33/43 9/9/9
f 9/9/9 43/33/43 27/26/27
f 9/9/9 27/26/27 66/31/66
f 66/31/66 27/26/27 10/10/10
f 66/31/66 10/10/10 67/30/67
f 67/30/67 10/10/10 12/12/12
f 67/30/67 12/12/12 68/42/68
f 68/42/68 12/12/12 58/37/58
f 68/42/68 58/37/58 69/43/69
f 69/43/69 58/37/58 57/36/57
f 4/4/4 40/32/40 61/40/61
f 61/40/61 40/32/40 41/4/41
f 61/40/61 41/4/41 17/5/17
f 17/5/17 41/4/41 42/6/42
f 17/5/17 42/6/42 18/17/18
f 18/17/18 42/6/42 43/33/43
f 18/17/18 43/33/43 22/21/22
f 22/21/22 43/33/43 8/8/8
f 22/21/22 8/8/8 21/20/21
f 21/20/21 8/8/8 7/7/7
f 23/22/23 53/34/53 24/23/24
f 24/23/24 53/34/53 1/1/1
f 24/23/24 1/1/1 18/17/18
f 18/17/18 1/1/1 3/3/3
f 18/17/18 3/3/3 16/16/16
f 16/16/16 3/3/3 2/2/2
f 16/16/16 2/2/2 59/38/59
f 59/38/59 2/2/2 63/16/63
f 59/38/59 63/16/63 5/5/5
f 5/5/5 63/16/63 46/17/46
f 5/5/5 46/17/46 6/6/6
f 37/30/37 12/12/12 38/10/38
f 38/10/38 12/12/12 11/11/11
f 38/10/38 11/11/11 62/41/62
f 62/41/62 11/11/11 10/10/10
f 62/41/62 10/10/10 34/29/34
f 34/29/34 10/10/10 26/25/26
f 34/29/34 26/25/26 32/27/32
f 32/27/32 26/25/26 25/24/25
f 32/27/32 25/24/25 33/28/33
f 33/28/33 25/24/25 40/32/40
f 33/28/33 40/32/40 31/24/31
f 31/24/31 40/32/40 4/4/4
f 31/24/31 4/4/4 36/26/36
f 36/26/36 4/4/4 6/6/6
f 36/26/36 6/6/6 52/33/52
f 52/33/52 6/6/6 46/17/46
f 52/33/52 46/17/46 51/21/51
f 51/21/51 46/17/46 48/19/48
f 51/21/51 48/19/48 49/20/49
f 49/20/49 48/19/48 70/18/70
o editpl_f-0000-1838
v -6.920392 54.632076 4.866609
v -5.952172 56.226639 7.759459
v -6.933619 58.321701 4.575435
v -7.745760 55.129375 0.381190
v -7.536773 59.524837 0.153362
v 6.031534 52.132759 7.027079
v 4.894008 52.389427 8.461835
v 4.769674 50.329659 8.625204
v 5.975981 53.384022 6.963732
v 5.065960 53.846027 7.781687
v 3.177137 60.067051 8.920822
v 3.867589 63.387711 7.113763
v 0.000000 63.692509 8.404044
v -7.542063 53.239647 -2.529443
v -3.137456 57.692860 9.267565
v 0.000000 56.021301 10.635641
v 0.000000 57.686443 10.178874
v -7.116152 49.684776 0.204485
v -7.745760 55.129375 0.381190
v -8.986457 56.095093 -1.149143
v -7.542063 53.239647 -2.529443
v -8.986457 56.095093 -1.149143
v -7.745760 55.129375 0.381190
v -1.904695 52.703850 9.415375
v -1.600473 54.561493 8.975280
v -2.573984 54.016071 8.554077
v 0.000000 60.182552 9.864361
v -3.177137 60.067051 8.920822
v -5.698213 59.547298 7.154884
v 2.981377 56.284386 9.708774
v 1.116363 54.728329 9.672098
v 2.526366 55.357170 8.664102
v -2.981377 56.284386 9.708774
v -5.113577 55.366795 7.700558
v -6.028889 54.410702 6.710343
v -5.065960 53.846027 7.781687
v -7.801314 49.739319 -1.216935
v -9.491730 52.745560 -2.890632
v -9.700718 54.978580 -2.838399
v 9.491730 52.745560 -2.890632
v 9.700718 54.978580 -2.838399
v 8.986457 56.095093 -1.149143
v 7.542063 53.239647 -2.529443
v 7.536773 59.524837 0.153362
v 7.745760 55.129375 0.381190
v 7.542063 53.239647 -2.529443
v 9.491730 52.745560 -2.890632
v 7.801314 49.739319 -1.216935
v 1.013192 53.220394 10.626750
v 0.494692 54.808537 10.394477
v 7.745760 55.129375 0.381190
v 8.986457 56.095093 -1.149143
v 9.700718 54.978580 -2.838399
v -7.801314 49.739319 -1.216935
v -9.491730 52.745560 -2.890632
v -9.700718 54.978580 -2.838399
v 3.830553 54.686619 8.652988
v 5.113577 55.366795 7.700558
v 6.028889 54.410702 6.710343
v 5.952172 56.226639 7.759459
v 7.801314 49.739319 -1.216935
v 7.116152 49.684776 0.204485
v 7.745760 55.129375 0.381190
v -5.975981 53.384022 6.963732
v -4.894008 52.389427 8.461835
v -3.528977 52.597973 9.138649
v -3.409933 50.496494 9.207552
v -1.973476 50.730701 9.674321
v -7.256359 52.334888 4.642116
v -6.031534 52.132759 7.027079
v -4.769674 50.329659 8.625204
v -3.830553 54.686619 8.652988
v -2.526366 55.357170 8.664102
v -1.116363 54.728329 9.672098
v -1.013192 53.220394 10.626750
v 7.256359 52.334888 4.642116
v 6.920392 54.632076 4.866609
v 6.933619 58.321701 4.575435
v 6.399246 61.931114 4.316489
v -6.399246 61.931114 4.316489
v -3.867589 63.387711 7.113763
v 3.137456 57.692860 9.267565
v 2.981377 56.284386 9.708774
v 0.851822 51.109291 11.394694
v 1.973476 50.730701 9.674321
v 1.904695 52.703850 9.415375
v 1.600473 54.561493 8.975280
v 5.698213 59.547298 7.154884
v 2.526366 55.357170 8.664102
v 1.600473 54.561493 8.975280
v 2.573984 54.016071 8.554077
v 1.904695 52.703850 9.415375
v 3.528977 52.597973 9.138649
v 1.973476 50.730701 9.674321
v 3.409933 50.496494 9.207552
v 0.000000 51.266502 11.811452
v 0.000000 51.917801 11.431369
v -0.851822 51.109291 11.394694
v -0.494692 54.808537 10.394477
v 0.000000 53.428940 11.182426
vn -0.9437 0.0157 0.3303
vn -0.7384 -0.0943 0.6677
vn -0.9623 0.0861 0.2582
vn -0.9849 -0.0000 0.1733
vn -0.9944 0.0783 0.0705
vn 0.8404 -0.0078 0.5419
vn 0.6151 0.1104 0.7807
vn 0.6362 -0.1963 0.7462
vn 0.8241 0.1020 0.5573
vn 0.5658 0.1100 0.8172
vn 0.4162 0.2591 0.8716
vn 0.5806 0.3610 0.7298
vn -0.0000 0.3996 0.9167
vn -0.9948 0.0392 -0.0940
vn -0.4170 0.1888 0.8891
vn -0.0000 0.1018 0.9948
vn -0.0000 0.1961 0.9806
vn -0.9403 -0.2978 0.1646
vn -0.9849 -0.0000 0.1734
vn -0.8516 -0.1104 0.5125
vn 0.6267 0.1332 -0.7678
vn 0.6828 0.5651 -0.4630
vn 0.7874 0.5433 -0.2914
vn -0.5981 0.2676 0.7555
vn -0.6371 -0.0079 0.7708
vn -0.2741 0.1097 0.9554
vn -0.0000 0.2591 0.9658
vn -0.4162 0.2591 0.8716
vn -0.7475 0.2124 0.6294
vn 0.4726 -0.3624 0.8034
vn 0.7881 -0.1970 0.5832
vn 0.4170 -0.3226 0.8497
vn -0.4726 -0.3623 0.8034
vn -0.5108 -0.2122 0.8331
vn -0.7647 -0.0867 0.6385
vn -0.5658 0.1100 0.8172
vn 0.1968 -0.6611 -0.7240
vn -0.8741 -0.1654 0.4568
vn -0.8936 -0.0941 0.4390
vn 0.8741 -0.1654 0.4568
vn 0.8936 -0.0941 0.4390
vn 0.8516 -0.1104 0.5125
vn 0.9948 0.0392 -0.0940
vn 0.9944 0.0783 0.0705
vn 0.9849 -0.0000 0.1733
vn -0.6267 0.1332 -0.7678
vn -0.2192 -0.1566 -0.9630
vn -0.1968 -0.6611 -0.7241
vn 0.6766 0.2281 0.7001
vn 0.3994 0.0313 0.9162
vn -0.7874 0.5433 -0.2914
vn -0.6828 0.5651 -0.4630
vn -0.3842 0.3294 -0.8625
vn 0.1968 -0.6611 -0.7241
vn 0.2192 -0.1566 -0.9630
vn 0.3842 0.3294 -0.8625
vn 0.2974 -0.0078 0.9547
vn 0.5109 -0.2122 0.8331
vn 0.7647 -0.0867 0.6385
vn 0.7384 -0.0943 0.6677
vn -0.1968 -0.6611 -0.7240
vn 0.9404 -0.2977 0.1646
vn 0.9849 -0.0000 0.1734
vn -0.8241 0.1020 0.5572
vn -0.6151 0.1104 0.7807
vn -0.3154 0.2523 0.9148
vn -0.4080 -0.0706 0.9102
vn -0.5088 -0.0000 0.8609
vn -0.9555 -0.0548 0.2898
vn -0.8404 -0.0078 0.5419
vn -0.6362 -0.1963 0.7462
vn -0.2974 -0.0078 0.9547
vn -0.4170 -0.3226 0.8497
vn -0.7881 -0.1970 0.5832
vn -0.6766 0.2281 0.7001
vn 0.9555 -0.0548 0.2898
vn 0.9437 0.0157 0.3303
vn 0.9623 0.0861 0.2582
vn 0.9049 0.2361 0.3541
vn -0.9049 0.2361 0.3541
vn -0.5806 0.3610 0.7298
vn 0.4170 0.1888 0.8891
vn 0.4726 -0.3623 0.8034
vn 0.5677 -0.2365 0.7885
vn 0.5088 -0.0000 0.8609
vn 0.5981 0.2675 0.7554
vn 0.6371 -0.0079 0.7708
vn 0.7475 0.2124 0.6294
vn 0.4170 -0.3226 0.8498
vn 0.6370 -0.0079 0.7708
vn 0.2741 0.1097 0.9554
vn 0.5980 0.2676 0.7555
vn 0.3155 0.2524 0.9148
vn 0.5087 -0.0000 0.8609
vn 0.4080 -0.0706 0.9102
vn -0.0000 -0.0000 1.0000
vn -0.0000 0.3304 0.9439
vn -0.5677 -0.2365 0.7885
vn -0.3994 0.0313 0.9162
vn -0.0000 0.2996 0.9541
vt 0.071869 0.386475
vt 0.207458 0.297729
vt 0.069427 0.190094
vt 0.029297 0.386719
vt 0.012024 0.011719
vt 0.169220 0.579895
vt 0.242615 0.574249
vt 0.265808 0.687866
vt 0.166199 0.504669
vt 0.224976 0.452332
vt 0.350250 0.141907
vt 0.304688 0.011719
vt 0.499725 0.011719
vt 0.012024 0.744415
vt 0.358704 0.236328
vt 0.499725 0.359375
vt 0.499725 0.261719
vt 0.855469 0.652344
vt 0.894531 0.449219
vt 0.972656 0.378906
vt 0.970276 0.736145
vt 0.967834 0.665924
vt 0.930176 0.699829
vt 0.400665 0.542999
vt 0.412109 0.423126
vt 0.351807 0.447388
vt 0.499725 0.164062
vt 0.205719 0.129333
vt 0.632416 0.330719
vt 0.542572 0.424469
vt 0.642487 0.362457
vt 0.367188 0.330719
vt 0.218445 0.359100
vt 0.174072 0.406708
vt 0.941406 0.652344
vt 0.987549 0.558594
vt 0.987549 0.386719
vt 0.979156 0.752563
vt 0.952789 0.797760
vt 0.553955 0.532745
vt 0.514221 0.408081
vt 0.979156 0.669678
vt 0.285156 0.407227
vt 0.319550 0.556000
vt 0.337830 0.674408
vt 0.406250 0.663513
vt 0.093994 0.572174
vt 0.357117 0.362457
vt 0.457031 0.424469
vt 0.445648 0.532745
vt 0.164062 0.011719
vt 0.536346 0.644958
vt 0.593353 0.663513
vt 0.598938 0.542999
vt 0.587494 0.423126
vt 0.499725 0.645996
vt 0.499725 0.609558
vt 0.463257 0.644958
vt 0.485046 0.408081
vt 0.499725 0.520477
s 1
usemtl f_face073
f 71/44/71 72/45/72 73/46/73
f 74/47/74 73/46/73 75/48/75
f 76/49/76 77/50/77 78/51/78
f 79/52/79 80/53/80 77/50/77
f 81/54/81 82/55/82 83/56/83
f 74/47/74 75/48/75 84/57/84
f 85/58/85 86/59/86 87/60/87
f 88/61/88 89/62/89 90/63/90
f 91/64/91 92/65/92 93/66/93
f 94/67/94 95/68/95 96/69/96
f 87/60/87 97/70/97 85/58/85
f 85/58/85 97/70/97 98/54/98
f 85/58/85 98/54/98 99/71/99
f 100/72/100 101/73/101 102/74/102
f 103/75/103 72/45/72 104/76/104
f 104/76/104 72/45/72 105/77/105
f 104/76/104 105/77/105 106/53/106
f 107/78/107 88/61/88 108/79/108
f 108/79/108 88/61/88 90/63/90
f 108/79/108 90/63/90 109/80/109
f 110/79/110 111/80/111 112/63/112
f 113/57/113 114/48/114 115/47/115
f 116/64/116 117/81/117 118/82/118
f 119/83/119 101/73/101 120/84/120
f 120/84/120 101/73/101 100/72/100
f 120/84/120 100/72/100 86/59/86
f 121/66/121 122/65/122 116/64/116
f 116/64/116 122/65/122 123/85/123
f 116/64/116 123/85/123 117/81/117
f 124/82/124 125/81/125 91/64/91
f 91/64/91 125/81/125 126/85/126
f 91/64/91 126/85/126 92/65/92
f 127/86/127 80/53/80 128/76/128
f 128/76/128 80/53/80 129/77/129
f 128/76/128 129/77/129 130/45/130
f 131/78/131 110/79/110 132/61/132
f 132/61/132 110/79/110 112/63/112
f 132/61/132 112/63/112 133/62/133
f 72/45/72 71/44/71 105/77/105
f 105/77/105 71/44/71 134/52/134
f 105/77/105 134/52/134 106/53/106
f 106/53/106 134/52/134 135/50/135
f 106/53/106 135/50/135 136/87/136
f 136/87/136 135/50/135 137/88/137
f 136/87/136 137/88/137 138/89/138
f 73/46/73 74/47/74 71/44/71
f 71/44/71 74/47/74 139/90/139
f 71/44/71 139/90/139 134/52/134
f 134/52/134 139/90/139 140/49/140
f 134/52/134 140/49/140 135/50/135
f 135/50/135 140/49/140 141/51/141
f 135/50/135 141/51/141 137/88/137
f 142/86/142 96/69/96 143/91/143
f 143/91/143 96/69/96 95/68/95
f 143/91/143 95/68/95 144/92/144
f 144/92/144 95/68/95 94/67/94
f 144/92/144 94/67/94 145/93/145
f 77/50/77 76/49/76 79/52/79
f 79/52/79 76/49/76 146/90/146
f 79/52/79 146/90/146 147/44/147
f 147/44/147 146/90/146 115/47/115
f 147/44/147 115/47/115 148/46/148
f 148/46/148 115/47/115 114/48/114
f 148/46/148 114/48/114 149/94/149
f 150/94/150 99/71/99 151/55/151
f 151/55/151 99/71/99 98/54/98
f 151/55/151 98/54/98 83/56/83
f 83/56/83 98/54/98 97/70/97
f 83/56/83 97/70/97 81/54/81
f 81/54/81 97/70/97 87/60/87
f 81/54/81 87/60/87 152/58/152
f 152/58/152 87/60/87 86/59/86
f 152/58/152 86/59/86 153/75/153
f 154/95/154 155/96/155 119/83/119
f 119/83/119 155/96/155 156/97/156
f 119/83/119 156/97/156 101/73/101
f 101/73/101 156/97/156 157/98/157
f 101/73/101 157/98/157 102/74/102
f 80/53/80 79/52/79 129/77/129
f 129/77/129 79/52/79 147/44/147
f 129/77/129 147/44/147 130/45/130
f 130/45/130 147/44/147 148/46/148
f 130/45/130 148/46/148 158/71/158
f 158/71/158 148/46/148 149/94/149
f 158/71/158 149/94/149 82/55/82
f 159/91/159 160/68/160 161/69/161
f 161/69/161 160/68/160 162/67/162
f 161/69/161 162/67/162 163/87/163
f 163/87/163 162/67/162 164/89/164
f 163/87/163 164/89/164 165/88/165
f 166/99/166 167/100/167 168/101/168
f 168/101/168 167/100/167 145/93/145
f 168/101/168 145/93/145 138/89/138
f 138/89/138 145/93/145 94/67/94
f 138/89/138 94/67/94 136/87/136
f 136/87/136 94/67/94 96/69/96
f 136/87/136 96/69/96 106/53/106
f 106/53/106 96/69/96 142/86/142
f 106/53/106 142/86/142 104/76/104
f 104/76/104 142/86/142 143/91/143
f 104/76/104 143/91/143 103/75/103
f 103/75/103 143/91/143 144/92/144
f 103/75/103 144/92/144 169/102/169
f 169/102/169 144/92/144 145/93/145
f 169/102/169 145/93/145 170/103/170
f 170/103/170 145/93/145 167/100/167
f 166/99/166 154/95/154 167/100/167
f 167/100/167 154/95/154 119/83/119
f 167/100/167 119/83/119 170/103/170
f 170/103/170 119/83/119 120/84/120
f 170/103/170 120/84/120 169/102/169
f 169/102/169 120/84/120 86/59/86
f 169/102/169 86/59/86 103/75/103
f 103/75/103 86/59/86 85/58/85
f 103/75/103 85/58/85 72/45/72
f 72/45/72 85/58/85 99/71/99
f 72/45/72 99/71/99 73/46/73
f 73/46/73 99/71/99 150/94/150
f 73/46/73 150/94/150 75/48/75
f 82/55/82 81/54/81 158/71/158
f 158/71/158 81/54/81 152/58/152
f 158/71/158 152/58/152 130/45/130
f 130/45/130 152/58/152 153/75/153
f 130/45/130 153/75/153 128/76/128
f 128/76/128 153/75/153 159/91/159
f 128/76/128 159/91/159 127/86/127
f 127/86/127 159/91/159 161/69/161
f 127/86/127 161/69/161 80/53/80
f 80/53/80 161/69/161 163/87/163
f 80/53/80 163/87/163 77/50/77
f 77/50/77 163/87/163 165/88/165
f 77/50/77 165/88/165 78/51/78
