mtllib f_face030.mtl
o editpl_f-0000-1833
v 0.000000 48.141552 9.227557
v -1.208952 48.067760 8.883039
v -1.333287 47.531960 9.209775
v 1.841205 49.777817 9.523177
v 1.206307 49.030270 9.806572
v 2.769744 47.926590 8.282907
v -6.732568 49.485855 3.988641
v -5.931009 49.636650 7.234902
v -6.354274 51.978760 7.130434
v -7.645234 55.148624 0.346738
v -7.385984 49.758568 0.271166
v -7.219323 52.190510 4.468745
v -4.216783 49.970322 8.541852
v -4.804064 47.474213 7.270465
v -7.385984 49.758568 0.271166
v -7.801314 49.745735 -1.209156
v -7.542063 53.236439 -2.550558
v -3.081902 50.464409 9.068633
v -1.841205 49.777817 9.523177
v -1.978767 50.589535 9.455384
v 0.000000 49.854820 9.998837
v -1.074036 51.170250 11.137972
v 0.000000 50.711452 11.430258
v 0.000000 48.478432 9.872141
v -7.542063 53.236439 -2.550558
v -5.798738 46.540577 0.995768
v -4.169166 46.556618 0.512330
v 0.000000 43.765339 3.210695
v 7.542063 53.236439 -2.550558
v 7.801314 49.745735 -1.209156
v 7.385984 49.758568 0.271166
v 1.208952 48.067760 8.883039
v 0.000000 47.483837 9.660984
v 1.333287 47.531960 9.209775
v 0.000000 46.806870 9.560964
v 4.804064 47.474213 7.270465
v 2.349124 46.194073 8.224005
v 4.169166 46.556618 0.512330
v 5.798738 46.540577 0.995768
v 7.542063 53.236439 -2.550558
v -2.349124 46.194073 8.224005
v -2.769744 47.926590 8.282907
v -1.206307 49.030270 9.806572
v 0.000000 49.107269 10.165538
v -5.470708 46.771580 3.710802
v -3.526331 45.648651 6.953730
v -3.560722 45.016602 3.738587
v -1.534338 43.932175 7.252684
v 0.000000 43.742878 6.740351
v 0.000000 45.959862 8.894151
v 7.645234 55.148624 0.346738
v 7.219323 52.190510 4.468745
v 7.385984 49.758568 0.271166
v 6.732568 49.485855 3.988641
v 5.470708 46.771580 3.710802
v 3.526331 45.648651 6.953730
v 1.632218 44.840141 8.117316
v 0.000000 44.638016 8.646319
v 6.354274 51.978760 7.130434
v 5.931009 49.636650 7.234902
v 4.216783 49.970322 8.541852
v 3.081902 50.464409 9.068633
v 1.978767 50.589535 9.455384
v 1.074036 51.170250 11.137972
v 0.000000 51.375584 11.664753
v 3.560722 45.016602 3.738587
v 1.534338 43.932175 7.252684
v 0.000000 43.800629 7.872818
v -1.632218 44.840141 8.117316
vn -0.0000 -0.2591 0.9658
vn -0.3206 -0.2972 0.8994
vn -0.4072 0.0940 0.9085
vn 0.3922 -0.0628 0.9177
vn 0.3446 -0.2898 0.8929
vn 0.4338 -0.2130 0.8755
vn -0.9256 -0.3138 0.2118
vn -0.7603 -0.2195 0.6113
vn -0.8588 -0.0158 0.5121
vn -0.9851 -0.0000 0.1720
vn -0.9279 -0.3381 0.1572
vn -0.9730 -0.0393 0.2275
vn -0.4472 -0.2040 0.8709
vn -0.6695 -0.4175 0.6144
vn -0.9279 -0.3381 0.1573
vn 0.2356 -0.6833 -0.6911
vn 0.6513 0.1413 -0.7455
vn -0.3781 -0.0867 0.9217
vn -0.3922 -0.0628 0.9177
vn -0.5087 -0.0079 0.8609
vn -0.0000 -0.2830 0.9591
vn -0.6381 -0.0945 0.7642
vn -0.0000 -0.6285 0.7778
vn -0.0000 -0.6912 0.7226
vn -0.4895 -0.5053 -0.7106
vn -0.5823 -0.7318 -0.3541
vn -0.2044 -0.6682 -0.7153
vn -0.0000 -0.9720 -0.2351
vn -0.6513 0.1412 -0.7456
vn -0.2356 -0.6833 -0.6911
vn 0.9279 -0.3381 0.1573
vn 0.3207 -0.2971 0.8994
vn -0.0000 0.2203 0.9754
vn 0.4072 0.0940 0.9085
vn -0.0000 -0.3834 0.9236
vn 0.6695 -0.4175 0.6144
vn 0.4489 -0.3387 0.8269
vn 0.2044 -0.6682 -0.7153
vn 0.5823 -0.7318 -0.3541
vn 0.4895 -0.5053 -0.7106
vn -0.4489 -0.3386 0.8269
vn -0.4338 -0.2130 0.8755
vn -0.3446 -0.2898 0.8929
vn -0.0000 -0.1095 0.9940
vn -0.8098 -0.5582 0.1808
vn -0.6616 -0.6064 0.4411
vn -0.5509 -0.8342 0.0236
vn -0.3865 -0.8914 0.2367
vn -0.0000 -0.9999 0.0157
vn -0.0000 -0.3537 0.9354
vn 0.9851 -0.0000 0.1720
vn 0.9730 -0.0393 0.2275
vn 0.9279 -0.3381 0.1572
vn 0.9256 -0.3138 0.2118
vn 0.8098 -0.5582 0.1808
vn 0.6616 -0.6064 0.4411
vn 0.4178 -0.4651 0.7805
vn -0.0000 -0.4472 0.8944
vn 0.8588 -0.0158 0.5121
vn 0.7603 -0.2195 0.6114
vn 0.4472 -0.2040 0.8709
vn 0.3781 -0.0867 0.9217
vn 0.5087 -0.0079 0.8609
vn 0.6381 -0.0945 0.7642
vn -0.0000 0.1173 0.9931
vn 0.5509 -0.8342 0.0236
vn 0.3865 -0.8914 0.2367
vn -0.0000 -0.8554 0.5180
vn -0.4178 -0.4651 0.7805
vt 0.500000 0.801483
vt 0.444275 0.789062
vt 0.443359 0.822357
vt 0.408325 0.712738
vt 0.445312 0.754730
vt 0.367188 0.795563
vt 0.171875 0.726562
vt 0.232025 0.700775
vt 0.196869 0.603119
vt 0.054688 0.445312
vt 0.093750 0.648438
vt 0.130463 0.553101
vt 0.313599 0.678558
vt 0.285156 0.824982
vt 0.929413 0.797485
vt 0.953186 0.796570
vt 0.941223 0.753876
vt 0.352112 0.671295
vt 0.390625 0.664062
vt 0.500000 0.703125
vt 0.448639 0.647308
vt 0.500000 0.679688
vt 0.500000 0.789062
vt 0.011963 0.523438
vt 0.090881 0.929688
vt 0.011963 0.987152
vt 0.500000 0.987152
vt 0.500000 0.825287
vt 0.500000 0.859375
vt 0.404663 0.906250
vt 0.500000 0.754333
vt 0.176819 0.876404
vt 0.301331 0.907349
vt 0.278381 0.943176
vt 0.384369 0.952332
vt 0.500000 0.984375
vt 0.500000 0.906250
vt 0.426544 0.939056
vt 0.500000 0.953125
vt 0.500000 0.632812
vt 0.500000 0.976562
s 1
usemtl f_face071
f 1/1/1 2/2/2 3/3/3
f 4/4/4 5/5/5 6/6/6
f 7/7/7 8/8/8 9/9/9
f 10/10/10 11/11/11 12/12/12
f 13/13/13 8/8/8 14/14/14
f 15/15/15 16/16/16 17/17/17
f 18/18/18 19/4/19 20/19/20
f 20/19/20 19/4/19 21/20/21
f 20/19/20 21/20/21 22/21/22
f 22/21/22 21/20/21 23/22/23
f 2/2/2 1/1/1 24/23/24
f 11/11/11 25/24/25 26/25/26
f 26/25/26 25/24/25 27/26/27
f 26/25/26 27/26/27 28/27/28
f 29/17/29 30/16/30 31/15/31
f 32/2/32 33/28/33 34/3/34
f 34/3/34 33/28/33 35/29/35
f 5/5/5 4/4/4 21/20/21
f 36/14/36 6/6/6 37/30/37
f 28/27/28 38/26/38 39/25/39
f 39/25/39 38/26/38 40/24/40
f 41/30/41 3/3/3 42/6/42
f 42/6/42 3/3/3 2/2/2
f 42/6/42 2/2/2 43/5/43
f 43/5/43 2/2/2 24/23/24
f 43/5/43 24/23/24 44/31/44
f 8/8/8 7/7/7 14/14/14
f 14/14/14 7/7/7 45/32/45
f 14/14/14 45/32/45 46/33/46
f 46/33/46 45/32/45 47/34/47
f 46/33/46 47/34/47 48/35/48
f 9/9/9 12/12/12 7/7/7
f 7/7/7 12/12/12 11/11/11
f 7/7/7 11/11/11 45/32/45
f 45/32/45 11/11/11 26/25/26
f 45/32/45 26/25/26 47/34/47
f 47/34/47 26/25/26 28/27/28
f 47/34/47 28/27/28 48/35/48
f 48/35/48 28/27/28 49/36/49
f 5/5/5 32/2/32 6/6/6
f 6/6/6 32/2/32 34/3/34
f 6/6/6 34/3/34 37/30/37
f 37/30/37 34/3/34 35/29/35
f 37/30/37 35/29/35 50/37/50
f 51/10/51 52/12/52 53/11/53
f 53/11/53 52/12/52 54/7/54
f 53/11/53 54/7/54 55/32/55
f 55/32/55 54/7/54 36/14/36
f 55/32/55 36/14/36 56/33/56
f 56/33/56 36/14/36 37/30/37
f 56/33/56 37/30/37 57/38/57
f 57/38/57 37/30/37 50/37/50
f 57/38/57 50/37/50 58/39/58
f 52/12/52 59/9/59 54/7/54
f 54/7/54 59/9/59 60/8/60
f 54/7/54 60/8/60 36/14/36
f 36/14/36 60/8/60 61/13/61
f 36/14/36 61/13/61 6/6/6
f 6/6/6 61/13/61 62/18/62
f 6/6/6 62/18/62 4/4/4
f 4/4/4 62/18/62 63/19/63
f 4/4/4 63/19/63 21/20/21
f 21/20/21 63/19/63 64/21/64
f 21/20/21 64/21/64 23/22/23
f 23/22/23 64/21/64 65/40/65
f 23/22/23 65/40/65 22/21/22
f 39/25/39 66/34/66 28/27/28
f 28/27/28 66/34/66 67/35/67
f 28/27/28 67/35/67 49/36/49
f 49/36/49 67/35/67 68/41/68
f 49/36/49 68/41/68 48/35/48
f 48/35/48 68/41/68 69/38/69
f 48/35/48 69/38/69 46/33/46
f 46/33/46 69/38/69 41/30/41
f 46/33/46 41/30/41 14/14/14
f 14/14/14 41/30/41 42/6/42
f 14/14/14 42/6/42 13/13/13
f 40/24/40 53/11/53 39/25/39
f 39/25/39 53/11/53 55/32/55
f 39/25/39 55/32/55 66/34/66
f 66/34/66 55/32/55 56/33/56
f 66/34/66 56/33/56 67/35/67
f 67/35/67 56/33/56 57/38/57
f 67/35/67 57/38/57 68/41/68
f 68/41/68 57/38/57 58/39/58
f 68/41/68 58/39/58 69/38/69
f 69/38/69 58/39/58 50/37/50
f 69/38/69 50/37/50 41/30/41
f 41/30/41 50/37/50 35/29/35
f 41/30/41 35/29/35 3/3/3
f 3/3/3 35/29/35 33/28/33
f 3/3/3 33/28/33 1/1/1
f 1/1/1 33/28/33 32/2/32
f 1/1/1 32/2/32 24/23/24
f 24/23/24 32/2/32 5/5/5
f 24/23/24 5/5/5 44/31/44
f 44/31/44 5/5/5 21/20/21
f 44/31/44 21/20/21 43/5/43
f 43/5/43 21/20/21 19/4/19
f 43/5/43 19/4/19 42/6/42
f 42/6/42 19/4/19 18/18/18
f 42/6/42 18/18/18 13/13/13
o editpl_f-0000-1834
v -6.243167 56.387054 7.681665
v -2.928469 56.589184 9.811017
v -5.830483 59.617882 7.213786
v 4.883427 52.225803 8.254012
v 4.216783 49.970322 8.541852
v 5.931009 49.636650 7.234902
v 6.243167 56.387054 7.681665
v 6.007726 54.192532 7.098205
v 6.973300 54.571117 5.186679
v 0.822722 52.373386 10.447823
v 1.074036 51.170250 11.137972
v 1.978767 50.589535 9.455384
v 0.000000 52.581932 10.836795
v 0.000000 51.375584 11.664753
v -4.216783 49.970322 8.541852
v -3.081902 50.464409 9.068633
v -4.883427 52.225803 8.254012
v -7.801314 49.745735 -1.209156
v -9.491730 52.739140 -2.903968
v -7.542063 53.236439 -2.550558
v -7.385984 49.758568 0.271166
v -7.645234 55.148624 0.346738
v -8.986457 56.101509 -1.190263
v -9.700718 54.972164 -2.869516
v -8.986457 56.101509 -1.190263
v -7.645234 55.148624 0.346738
v -5.095059 55.594589 8.048412
v -6.007726 54.192532 7.098205
v -5.174422 53.688820 7.807248
v -2.864979 55.642715 8.801909
v -1.902050 53.650318 8.704110
v -1.529047 55.254501 9.462052
v -0.954993 54.154030 9.759895
v 0.000000 55.058792 9.985499
v -7.801314 49.745735 -1.209156
v -9.491730 52.739140 -2.903968
v -9.700718 54.972164 -2.869516
v 9.491730 52.739140 -2.903968
v 9.700718 54.972164 -2.869516
v 8.986457 56.101509 -1.190263
v 6.354274 51.978760 7.130434
v 7.542063 53.236439 -2.550558
v 9.491730 52.739140 -2.903968
v 7.801314 49.745735 -1.209156
v 7.645234 55.148624 0.346738
v 8.986457 56.101509 -1.190263
v 9.700718 54.972164 -2.869516
v 2.843816 53.576527 8.351811
v 5.174422 53.688820 7.807248
v 3.952242 54.526203 8.677437
v 7.801314 49.745735 -1.209156
v 7.385984 49.758568 0.271166
v 7.645234 55.148624 0.346738
v -7.179642 58.392284 4.621000
v -7.645234 55.148624 0.346738
v -6.973300 54.571117 5.186679
v -7.219323 52.190510 4.468745
v -6.214068 53.104897 6.942616
v -6.354274 51.978760 7.130434
v -5.931009 49.636650 7.234902
v -3.510459 52.472847 8.813023
v -1.978767 50.589535 9.455384
v 0.000000 63.775925 8.289575
v 3.341153 60.140846 8.998617
v 3.851717 63.461506 7.007073
v 5.830483 59.617882 7.213786
v 6.388665 61.982449 4.224246
v 7.179642 58.392284 4.621000
v 7.534127 59.544086 0.082236
v 7.645234 55.148624 0.346738
v 7.542063 53.236439 -2.550558
v 1.529047 55.254501 9.462052
v 2.928469 56.589184 9.811017
v 0.000000 56.197762 10.515615
v 0.000000 60.256348 9.799902
v -3.341153 60.140846 8.998617
v 3.081902 50.464409 9.068633
v 3.510459 52.472847 8.813023
v 2.023739 52.723099 9.139760
v 0.954993 54.154030 9.759895
v 5.095059 55.594589 8.048412
v 2.864979 55.642715 8.801909
v 1.902050 53.650318 8.704110
v 7.219323 52.190510 4.468745
v 6.214068 53.104897 6.942616
v -0.822722 52.373386 10.447823
v -2.023739 52.723099 9.139760
v -2.843816 53.576527 8.351811
v -3.952242 54.526203 8.677437
v -7.542063 53.236439 -2.550558
v -7.534127 59.544086 0.082236
v -6.388665 61.982449 4.224246
v -3.851717 63.461506 7.007073
v -1.074036 51.170250 11.137972
vn -0.7652 -0.0789 0.6390
vn -0.4150 -0.2114 0.8849
vn -0.7479 0.2519 0.6141
vn 0.5322 0.0470 0.8453
vn 0.4472 -0.2040 0.8709
vn 0.7603 -0.2195 0.6114
vn 0.7652 -0.0789 0.6390
vn 0.7390 -0.0865 0.6682
vn 0.9517 -0.0157 0.3067
vn 0.6383 0.2995 0.7092
vn 0.6381 -0.0945 0.7641
vn 0.5087 -0.0078 0.8609
vn -0.0000 0.4936 0.8697
vn -0.0000 0.1173 0.9931
vn -0.4472 -0.2040 0.8709
vn -0.3781 -0.0866 0.9217
vn -0.5322 0.0470 0.8453
vn 0.2356 -0.6832 -0.6911
vn 0.2115 -0.1645 -0.9634
vn 0.6513 0.1412 -0.7455
vn -0.9279 -0.3381 0.1573
vn -0.9851 -0.0000 0.1720
vn -0.8506 -0.0788 0.5199
vn 0.3852 0.3223 -0.8647
vn 0.6693 0.5669 -0.4803
vn 0.7716 0.5433 -0.3307
vn -0.4736 -0.2210 0.8525
vn -0.7390 -0.0865 0.6682
vn -0.5029 0.0079 0.8643
vn -0.3070 -0.3385 0.8895
vn -0.5654 0.0236 0.8245
vn -0.4471 -0.3295 0.8316
vn -0.6150 0.1577 0.7726
vn -0.0000 0.0785 0.9969
vn 0.2355 -0.6833 -0.6911
vn -0.9007 -0.1880 0.3916
vn -0.8942 -0.0863 0.4393
vn 0.9007 -0.1880 0.3916
vn 0.8942 -0.0863 0.4393
vn 0.8506 -0.0788 0.5199
vn 0.8588 -0.0158 0.5121
vn -0.6513 0.1412 -0.7455
vn -0.2115 -0.1645 -0.9634
vn -0.2356 -0.6832 -0.6911
vn -0.7716 0.5433 -0.3307
vn -0.6693 0.5669 -0.4803
vn -0.3852 0.3223 -0.8647
vn 0.2270 0.0783 0.9707
vn 0.5029 0.0079 0.8643
vn 0.2595 -0.1651 0.9515
vn -0.2355 -0.6833 -0.6911
vn 0.9279 -0.3381 0.1573
vn 0.9851 -0.0000 0.1720
vn -0.9682 0.1023 0.2283
vn -0.9517 -0.0157 0.3067
vn -0.9730 -0.0392 0.2276
vn -0.8021 0.0944 0.5898
vn -0.8588 -0.0158 0.5121
vn -0.7603 -0.2194 0.6114
vn -0.3051 0.2347 0.9230
vn -0.5087 -0.0078 0.8609
vn -0.0000 0.4314 0.9021
vn 0.4004 0.3062 0.8637
vn 0.5760 0.4182 0.7023
vn 0.7479 0.2519 0.6141
vn 0.8956 0.2985 0.3299
vn 0.9682 0.1023 0.2283
vn 0.9941 0.0939 0.0548
vn 0.9988 0.0158 -0.0472
vn 0.4471 -0.3295 0.8316
vn 0.4150 -0.2114 0.8849
vn -0.0000 -0.2591 0.9658
vn -0.0000 0.2518 0.9678
vn -0.4004 0.3062 0.8637
vn 0.3781 -0.0866 0.9217
vn 0.3051 0.2347 0.9230
vn 0.5275 0.2992 0.7952
vn 0.6150 0.1577 0.7726
vn 0.4736 -0.2210 0.8525
vn 0.3070 -0.3385 0.8895
vn 0.5654 0.0236 0.8245
vn 0.9730 -0.0392 0.2276
vn 0.8021 0.0944 0.5898
vn -0.6383 0.2995 0.7092
vn -0.5275 0.2992 0.7952
vn -0.2270 0.0783 0.9707
vn -0.2595 -0.1651 0.9515
vn -0.9988 0.0158 -0.0472
vn -0.9941 0.0939 0.0548
vn -0.8956 0.2985 0.3299
vn -0.5760 0.4182 0.7023
vn -0.6381 -0.0945 0.7642
vt 0.176331 0.334808
vt 0.310547 0.313843
vt 0.203125 0.187500
vt 0.274994 0.568726
vt 0.313599 0.678558
vt 0.232025 0.700775
vt 0.187500 0.437500
vt 0.132812 0.421875
vt 0.464264 0.532349
vt 0.448639 0.647308
vt 0.390625 0.664062
vt 0.496124 0.531250
vt 0.496124 0.632812
vt 0.352112 0.671295
vt 0.953186 0.796570
vt 0.974731 0.740326
vt 0.941223 0.753876
vt 0.851562 0.656250
vt 0.876709 0.473083
vt 0.974030 0.364868
vt 0.967926 0.693756
vt 0.944366 0.684753
vt 0.920441 0.724457
vt 0.226562 0.367188
vt 0.228027 0.475800
vt 0.342773 0.371094
vt 0.398438 0.462921
vt 0.421875 0.406250
vt 0.437500 0.465393
vt 0.496124 0.443390
vt 0.945312 0.648438
vt 0.987061 0.577545
vt 0.987061 0.397858
vt 0.196869 0.603119
vt 0.350098 0.477661
vt 0.295990 0.420990
vt 0.078125 0.296875
vt 0.054688 0.445312
vt 0.130463 0.553101
vt 0.181244 0.521088
vt 0.327209 0.555573
vt 0.496124 0.012939
vt 0.320312 0.132812
vt 0.242188 0.012939
vt 0.011627 0.012939
vt 0.011627 0.210938
vt 0.011627 0.523438
vt 0.496124 0.351562
vt 0.496124 0.152588
vt 0.379456 0.542389
s 1
usemtl f_face071
f 70/42/70 71/43/71 72/44/72
f 73/45/73 74/46/74 75/47/75
f 76/42/76 77/48/77 78/49/78
f 79/50/79 80/51/80 81/52/81
f 82/53/82 83/54/83 80/51/80
f 84/46/84 85/55/85 86/45/86
f 87/56/87 88/57/88 89/58/89
f 90/59/90 91/60/91 92/61/92
f 88/57/88 93/62/93 89/58/89
f 89/58/89 93/62/93 94/63/94
f 89/58/89 94/63/94 95/64/95
f 71/43/71 70/42/70 96/65/96
f 96/65/96 70/42/70 97/48/97
f 96/65/96 97/48/97 98/66/98
f 99/67/99 100/68/100 101/69/101
f 101/69/101 100/68/100 102/70/102
f 101/69/101 102/70/102 103/71/103
f 104/72/104 90/59/90 105/73/105
f 105/73/105 90/59/90 92/61/92
f 105/73/105 92/61/92 106/74/106
f 107/73/107 108/74/108 109/61/109
f 75/47/75 110/75/110 73/45/73
f 111/58/111 112/57/112 113/56/113
f 114/64/114 115/63/115 111/58/111
f 111/58/111 115/63/115 116/62/116
f 111/58/111 116/62/116 112/57/112
f 117/76/117 118/66/118 119/77/119
f 120/72/120 107/73/107 121/59/121
f 121/59/121 107/73/107 109/61/109
f 121/59/121 109/61/109 122/60/122
f 123/78/123 124/79/91 125/49/124
f 125/49/124 124/79/91 126/80/125
f 125/49/124 126/80/125 127/81/126
f 127/81/126 126/80/125 128/75/127
f 127/81/126 128/75/127 86/45/86
f 86/45/86 128/75/127 129/47/128
f 86/45/86 129/47/128 84/46/84
f 72/44/72 123/78/123 70/42/70
f 70/42/70 123/78/123 125/49/124
f 70/42/70 125/49/124 97/48/97
f 97/48/97 125/49/124 127/81/126
f 97/48/97 127/81/126 98/66/98
f 98/66/98 127/81/126 86/45/86
f 98/66/98 86/45/86 130/82/129
f 130/82/129 86/45/86 85/55/85
f 130/82/129 85/55/85 131/52/130
f 132/83/131 133/84/132 134/85/133
f 134/85/133 133/84/132 135/44/134
f 134/85/133 135/44/134 136/86/135
f 136/86/135 135/44/134 137/78/136
f 136/86/135 137/78/136 138/87/137
f 138/87/137 137/78/136 139/79/122
f 138/87/137 139/79/122 140/88/138
f 141/69/139 142/43/140 143/89/141
f 143/89/141 142/43/140 144/90/142
f 143/89/141 144/90/142 71/43/71
f 71/43/71 144/90/142 145/84/143
f 71/43/71 145/84/143 72/44/72
f 74/46/74 73/45/73 146/55/144
f 146/55/144 73/45/73 147/82/145
f 146/55/144 147/82/145 81/52/81
f 81/52/81 147/82/145 148/91/146
f 81/52/81 148/91/146 79/50/79
f 79/50/79 148/91/146 149/70/147
f 79/50/79 149/70/147 103/71/103
f 77/48/77 76/42/76 150/65/148
f 150/65/148 76/42/76 142/43/140
f 150/65/148 142/43/140 151/67/149
f 151/67/149 142/43/140 141/69/139
f 151/67/149 141/69/139 152/68/150
f 153/80/151 78/49/78 154/81/152
f 154/81/152 78/49/78 77/48/77
f 154/81/152 77/48/77 118/66/118
f 118/66/118 77/48/77 150/65/148
f 118/66/118 150/65/148 119/77/119
f 119/77/119 150/65/148 151/67/149
f 119/77/119 151/67/149 117/76/117
f 117/76/117 151/67/149 152/68/150
f 80/51/80 79/50/79 82/53/82
f 82/53/82 79/50/79 103/71/103
f 82/53/82 103/71/103 155/50/153
f 155/50/153 103/71/103 102/70/102
f 155/50/153 102/70/102 156/91/154
f 156/91/154 102/70/102 100/68/100
f 156/91/154 100/68/100 157/76/155
f 157/76/155 100/68/100 99/67/99
f 157/76/155 99/67/99 158/77/156
f 159/88/157 124/79/91 160/87/158
f 160/87/158 124/79/91 123/78/123
f 160/87/158 123/78/123 161/86/159
f 161/86/159 123/78/123 72/44/72
f 161/86/159 72/44/72 162/85/160
f 162/85/160 72/44/72 145/84/143
f 162/85/160 145/84/143 132/83/131
f 132/83/131 145/84/143 144/90/142
f 132/83/131 144/90/142 133/84/132
f 133/84/132 144/90/142 142/43/140
f 133/84/132 142/43/140 135/44/134
f 135/44/134 142/43/140 76/42/76
f 135/44/134 76/42/76 137/78/136
f 137/78/136 76/42/76 78/49/78
f 137/78/136 78/49/78 139/79/122
f 139/79/122 78/49/78 153/80/151
f 83/54/83 82/53/82 163/51/161
f 163/51/161 82/53/82 155/50/153
f 163/51/161 155/50/153 131/52/130
f 131/52/130 155/50/153 156/91/154
f 131/52/130 156/91/154 130/82/129
f 130/82/129 156/91/154 157/76/155
f 130/82/129 157/76/155 98/66/98
f 98/66/98 157/76/155 158/77/156
f 98/66/98 158/77/156 96/65/96
f 96/65/96 158/77/156 99/67/99
f 96/65/96 99/67/99 71/43/71
f 71/43/71 99/67/99 101/69/101
f 71/43/71 101/69/101 143/89/141
f 143/89/141 101/69/101 103/71/103
f 143/89/141 103/71/103 141/69/139
f 141/69/139 103/71/103 149/70/147
f 141/69/139 149/70/147 152/68/150
f 152/68/150 149/70/147 148/91/146
f 152/68/150 148/91/146 117/76/117
f 117/76/117 148/91/146 147/82/145
f 117/76/117 147/82/145 118/66/118
f 118/66/118 147/82/145 73/45/73
f 118/66/118 73/45/73 154/81/152
f 154/81/152 73/45/73 110/75/110
f 154/81/152 110/75/110 153/80/151
