mtllib barrel.mtl
o npc_02-0001-6
v 25.116314 59.712173 1.777390
v 0.014302 63.723812 1.777390
v 25.116314 59.712173 16.271622
v -25.087709 59.712173 1.777390
v 0.014302 63.723812 1.777390
v 0.014302 59.712170 -27.204016
v 25.116314 59.712173 1.777390
v -25.087709 59.712173 1.777390
v -25.087709 59.712173 16.271622
v 0.014302 63.723812 1.777390
v 0.014302 59.712177 30.762323
v 0.014302 64.753403 -27.204018
v 25.116314 64.753403 16.271620
v 25.116314 64.753403 -12.713314
v 0.014302 64.753403 30.762321
v -25.087709 64.753403 -12.713314
v -25.087709 64.753403 16.271620
v -25.087709 61.030285 16.271622
v -25.087709 64.753403 -12.713314
v -25.087709 61.030285 -12.713314
v 0.014302 64.753403 -27.204018
v 0.014302 61.030281 -27.204016
v 25.116314 64.753403 -12.713314
v 25.116314 61.030285 -12.713314
v 25.116314 64.753403 16.271620
v 25.116314 61.030285 16.271622
v 0.014302 64.753403 30.762321
v 0.014302 61.030289 30.762323
v -25.087709 64.753403 16.271620
v 0.014302 5.300111 44.851002
v 0.014302 -19.510798 31.203152
v 12.565308 -19.510798 23.956038
v 0.014302 39.476120 44.850998
v 0.014302 64.290977 31.203144
v -12.535114 64.290977 23.956030
v 37.316120 5.300110 23.314198
v 25.116314 -19.510798 16.708921
v -25.087709 -19.510798 16.708921
v -37.287514 5.300110 23.314198
v -25.087709 -19.510799 2.218218
v -25.087709 -19.510799 -12.272485
v -37.287514 5.300107 -19.755882
v -12.535114 -19.510801 -19.519600
v 0.014302 -19.510801 -26.766716
v 0.014302 5.300105 -41.292686
v 12.565308 -19.510801 -19.519600
v 25.116314 -19.510799 -12.272485
v 37.316120 5.300107 -19.755882
v 25.116314 -19.510799 2.218218
v -25.087709 59.712173 -12.713314
v -25.087709 59.712173 1.777390
v 0.014302 59.712170 -27.204016
v 25.116314 59.712173 -12.713314
v 25.116314 59.712173 1.777390
v -37.287514 5.300110 23.314198
v -37.287514 39.476116 23.314194
v 37.316120 39.476116 23.314194
v 25.116314 64.290977 16.708914
v 37.316120 39.476116 23.314194
v 25.116314 64.290977 2.218212
v -25.087709 64.290977 -12.272491
v -37.287514 39.476116 -19.755886
v -25.087709 64.290977 2.218212
v -12.535114 -19.510798 23.956038
v -25.087709 -19.510798 16.708921
v 12.565308 64.290977 23.956030
v 25.116314 64.290977 16.708914
v 25.116314 64.290977 -12.272491
v 37.316120 39.476116 -19.755886
v 12.565308 64.290977 -19.519608
v 0.014302 64.290977 -26.766724
v 0.014302 39.476112 -41.292690
v -12.535114 64.290977 -19.519608
v 25.116314 64.290977 -12.272491
v 37.316120 39.476116 -19.755886
v 37.316120 5.300110 23.314198
v 25.116314 -19.510798 16.708921
v -25.087709 -19.510799 -12.272485
v -37.287514 5.300107 -19.755882
v -37.287514 39.476116 23.314194
v -25.087709 64.290977 16.708914
v -25.087709 64.290977 16.708914
v -25.087709 64.290977 -12.272491
v -37.287514 39.476116 -19.755886
v 37.316120 5.300107 -19.755882
v 25.116314 -19.510799 -12.272485
vn 0.1018 0.9940 -0.0391
vn -0.0000 1.0000 -0.0000
vn 0.1180 0.9910 0.0629
vn -0.1018 0.9940 -0.0392
vn -0.0000 1.0000 -0.0001
vn -0.0000 0.9980 -0.0629
vn -0.1018 0.9940 -0.0391
vn -0.1180 0.9910 0.0629
vn -0.0000 0.9910 0.1337
vn -0.0000 0.7564 -0.6541
vn 0.7511 0.5007 0.4303
vn 0.7511 0.5007 -0.4303
vn -0.0000 0.7564 0.6541
vn -0.7540 0.4948 -0.4320
vn -0.7540 0.4948 0.4320
vn -0.8644 -0.0000 0.5029
vn -0.8644 -0.0000 -0.5029
vn -0.0000 0.7565 -0.6540
vn -0.0000 -0.0000 -1.0000
vn 0.8644 -0.0000 -0.5029
vn 0.8644 -0.0000 0.5029
vn -0.0000 0.7565 0.6540
vn -0.0000 -0.0000 1.0000
vn -0.0000 -0.3303 0.9439
vn -0.0000 -0.4783 0.8782
vn 0.4468 -0.4311 0.7839
vn -0.0000 0.3303 0.9439
vn -0.0000 0.4783 0.8782
vn -0.4468 0.4311 0.7839
vn 0.8155 -0.3372 0.4704
vn 0.7543 -0.4872 0.4401
vn -0.7543 -0.4872 0.4400
vn -0.8155 -0.3372 0.4704
vn -0.8975 -0.4410 -0.0000
vn -0.7540 -0.4948 -0.4320
vn -0.8163 -0.3454 -0.4631
vn -0.4492 -0.4492 -0.7723
vn -0.0000 -0.5029 -0.8643
vn -0.0000 -0.3468 -0.9379
vn 0.4492 -0.4492 -0.7723
vn 0.7540 -0.4948 -0.4320
vn 0.8163 -0.3454 -0.4631
vn 0.8975 -0.4410 -0.0000
vn -0.1017 0.9940 -0.0391
vn 0.1017 0.9940 -0.0391
vn -0.8155 -0.3372 0.4705
vn -0.8154 0.3372 0.4705
vn 0.8155 0.3371 0.4704
vn 0.7543 0.4872 0.4400
vn 0.8155 0.3372 0.4704
vn 0.8976 0.4409 -0.0000
vn -0.7540 0.4949 -0.4320
vn -0.8163 0.3454 -0.4631
vn -0.8976 0.4409 -0.0000
vn -0.4468 -0.4311 0.7839
vn -0.7543 -0.4872 0.4401
vn 0.4468 0.4311 0.7839
vn 0.7540 0.4948 -0.4320
vn 0.8163 0.3454 -0.4631
vn 0.4492 0.4492 -0.7723
vn -0.0000 0.5029 -0.8644
vn -0.0000 0.3468 -0.9380
vn -0.4492 0.4492 -0.7723
vn 0.8163 0.3453 -0.4631
vn 0.8155 -0.3372 0.4705
vn 0.7544 -0.4871 0.4400
vn -0.8163 -0.3453 -0.4631
vn -0.8155 0.3371 0.4705
vn -0.7544 0.4871 0.4400
vn -0.7543 0.4872 0.4400
vn -0.8163 0.3453 -0.4631
vn 0.8163 -0.3453 -0.4631
vt 0.410126 0.839203
vt 0.410126 0.968597
vt 0.480469 0.839203
vt 0.492188 0.968597
vt 0.196899 0.752502
vt 0.054382 0.885376
vt 0.144501 0.885162
vt 0.007446 0.751373
vt 0.144501 0.617157
vt 0.054382 0.617371
vt 0.015625 0.782532
vt 0.191376 0.729401
vt 0.191376 0.782532
vt 0.015625 0.729401
vt 0.204254 0.839020
vt 0.204254 0.994995
vt 0.304688 0.994995
vt 0.204254 0.650513
vt 0.204254 0.505493
vt 0.304688 0.505493
vt 0.399628 0.837891
vt 0.399628 0.994995
vt 0.007446 0.994995
vt 0.007446 0.837891
vt 0.101562 0.994995
vt 0.201691 0.994995
vt 0.201691 0.839020
vt 0.399628 0.649384
vt 0.007446 0.505493
vt 0.007446 0.649384
vt 0.101562 0.505493
vt 0.201691 0.505493
vt 0.201691 0.650513
vt 0.399628 0.505493
s 1
usemtl npc02_02
f 1/1/1 2/2/2 3/3/3
f 4/1/4 5/1/5 6/1/6
f 6/1/6 5/1/5 7/1/1
f 8/1/7 9/3/8 10/2/2
f 10/2/2 9/3/8 11/4/9
f 10/2/2 11/4/9 3/3/3
f 12/5/10 13/6/11 14/7/12
f 13/6/11 12/5/10 15/8/13
f 15/8/13 12/5/10 16/9/14
f 15/8/13 16/9/14 17/10/15
f 18/11/16 19/12/14 20/13/17
f 20/13/17 19/12/14 21/14/18
f 20/13/17 21/14/18 22/11/19
f 22/11/19 21/14/18 23/12/12
f 22/11/19 23/12/12 24/13/20
f 24/13/20 23/12/12 25/14/11
f 24/13/20 25/14/11 26/11/21
f 26/11/21 25/14/11 27/12/22
f 26/11/21 27/12/22 28/13/23
f 28/13/23 27/12/22 29/14/15
f 28/13/23 29/14/15 18/11/16
f 18/11/16 29/14/15 19/12/14
f 30/15/24 31/16/25 32/17/26
f 33/18/27 34/19/28 35/20/29
f 36/21/30 32/17/26 37/22/31
f 38/23/32 39/24/33 40/25/34
f 41/23/35 42/24/36 43/25/37
f 44/26/38 45/27/39 46/25/40
f 47/26/41 48/27/42 49/25/43
f 50/1/2 51/1/44 52/1/6
f 53/1/2 52/1/6 54/1/45
f 55/21/46 30/15/24 56/28/47
f 36/21/30 57/28/48 33/18/27
f 58/29/49 59/30/50 60/31/51
f 61/32/52 62/33/53 63/31/54
f 31/16/25 30/15/24 64/17/55
f 64/17/55 30/15/24 55/21/46
f 64/17/55 55/21/46 65/22/56
f 34/19/28 33/18/27 66/20/57
f 66/20/57 33/18/27 57/28/48
f 66/20/57 57/28/48 67/34/49
f 68/29/58 69/30/59 70/31/60
f 71/32/61 72/33/62 73/31/63
f 74/32/58 60/31/51 75/33/64
f 75/33/64 60/31/51 59/30/50
f 75/33/64 59/30/50 48/27/42
f 48/27/42 59/30/50 76/24/65
f 48/27/42 76/24/65 49/25/43
f 49/25/43 76/24/65 77/23/66
f 78/26/35 40/25/34 79/27/67
f 79/27/67 40/25/34 39/24/33
f 79/27/67 39/24/33 62/33/53
f 62/33/53 39/24/33 80/30/68
f 62/33/53 80/30/68 63/31/54
f 63/31/54 80/30/68 81/29/69
f 32/17/26 36/21/30 30/15/24
f 30/15/24 36/21/30 33/18/27
f 30/15/24 33/18/27 56/28/47
f 56/28/47 33/18/27 35/20/29
f 56/28/47 35/20/29 82/34/70
f 83/29/14 73/31/63 84/30/71
f 84/30/71 73/31/63 72/33/62
f 84/30/71 72/33/62 42/24/36
f 42/24/36 72/33/62 45/27/39
f 42/24/36 45/27/39 43/25/37
f 43/25/37 45/27/39 44/26/38
f 71/32/61 70/31/60 72/33/62
f 72/33/62 70/31/60 69/30/59
f 72/33/62 69/30/59 45/27/39
f 45/27/39 69/30/59 85/24/72
f 45/27/39 85/24/72 46/25/40
f 46/25/40 85/24/72 86/23/41
