mtllib m_hair009.mtl
o editpl_m-0000-1831
v -4.556864 57.924690 -10.627722
v -4.248016 55.884296 -10.485002
v -6.721511 55.508350 -7.878697
v 0.000000 56.976791 -12.240224
v 0.000000 56.157417 -11.942830
v -7.114344 58.255650 -8.121545
v -1.801614 56.951084 -12.149063
v -0.533711 56.668320 -12.502498
v -0.820886 57.436279 -12.242466
v -0.105659 57.108532 -12.921689
v -0.094822 57.423428 -12.710973
v 0.861524 57.478050 -12.591417
v 0.596023 57.699764 -12.132625
v 0.281756 58.062859 -12.240224
v 0.021674 57.805801 -12.665393
v -0.484946 58.059643 -12.187172
v -1.040331 57.619434 -12.085549
v 4.768182 60.704124 8.113316
v 6.301585 56.719730 6.943169
v 7.374426 60.000427 4.209089
v 6.908445 56.404839 4.797152
v 8.219695 59.460606 0.535753
v -8.219695 59.460606 0.535753
v -8.260333 59.049316 -2.572685
v -8.249496 57.253124 -0.993807
v -8.290134 58.670155 -5.536908
v -8.273879 57.021774 -3.382671
v 0.000000 57.789734 -12.079572
v 4.556864 57.924690 -10.627722
v 0.864233 57.500546 -12.034739
v 0.392833 56.417690 -12.638492
v -0.514747 56.411263 -12.514453
v 7.146854 55.855377 0.868266
v 7.314824 55.656158 -0.895174
v 8.249496 57.253124 -0.993807
v 8.024633 55.402313 -2.297707
v 8.273879 57.021774 -3.382671
v 7.872918 55.318768 -5.290325
v -0.308848 33.221466 -13.266156
v -4.670651 33.687382 -11.550538
v -0.300721 35.849876 -13.162292
v 4.670651 33.687382 -11.550538
v 0.308848 33.221466 -13.266156
v 4.334711 36.328648 -11.623018
v -4.521645 53.027744 -11.902480
v -1.595715 51.880627 -13.902789
v -1.519858 51.893478 -13.396921
v 4.248016 55.884296 -10.485002
v 6.721511 55.508350 -7.878697
v 7.114344 58.255650 -8.121545
v 8.290134 58.670155 -5.536908
v -7.872918 55.318768 -5.290325
v -8.040888 55.402313 -2.297707
v 4.521645 53.027744 -11.902480
v 1.595715 51.880627 -13.902789
v 3.302508 54.987808 -12.049682
v 1.064713 54.280899 -13.240004
v 2.086079 56.951084 -12.218554
v 0.533711 56.677959 -12.598888
v 0.820886 57.436279 -12.242466
v 0.820886 57.436279 -12.242466
v 0.533711 56.668320 -12.502498
v 1.945201 56.951084 -12.149063
v 1.026785 54.280899 -12.938874
v 3.104736 54.962101 -11.778440
v 1.519858 51.893478 -13.396921
v 4.264272 52.973118 -11.430236
v 1.595715 51.880627 -13.902789
v 4.521645 53.027744 -11.902480
v -4.334711 36.328648 -11.623018
v -3.614065 41.206314 -11.702224
v -0.273629 41.016735 -12.952323
v -2.847363 46.225361 -11.781430
v -0.243827 45.878334 -12.742355
v -2.075243 53.133781 -12.074340
v -0.214026 52.732128 -12.746839
v -0.923835 56.915737 -12.175962
v -0.186934 56.379131 -12.559286
v 0.300721 35.849876 -13.162292
v 0.273629 41.016735 -12.952323
v 3.614065 41.206314 -11.702224
v 0.243827 45.878334 -12.742355
v 2.847363 46.225361 -11.781430
v 0.214026 52.732128 -12.746839
v 2.075243 53.133781 -12.074340
v 0.186934 56.379131 -12.559286
v 0.923835 56.915737 -12.175962
v -0.820886 57.436279 -12.242466
v -0.533711 56.677959 -12.598888
v -2.086079 56.951084 -12.218554
v -1.064713 54.280899 -13.240004
v -3.302508 54.987808 -12.049682
v -1.595715 51.880627 -13.902789
v -4.521645 53.027744 -11.902480
v -1.026785 54.280899 -12.938874
v -3.104736 54.962101 -11.778440
v -3.947296 52.973118 -11.430236
v 8.260333 59.049316 -2.572685
v 0.872361 56.816128 -11.901731
v 0.000000 56.179913 -11.901731
v -1.040331 56.873966 -11.983928
v -7.341916 55.656158 -0.895174
v -7.146854 55.855377 0.868266
v -6.908445 56.404839 4.797152
v -7.374426 60.000427 4.208342
v -6.301585 56.719730 6.943169
v -4.768182 60.704124 8.113316
v -4.619176 57.031414 9.089185
v -2.264886 60.858356 9.052572
v -2.194447 57.198502 10.022464
v 0.000000 60.970821 9.593559
v 0.000000 57.320602 10.557474
v 2.264886 60.858356 9.052572
v 2.194447 57.198502 10.022464
v 4.619176 57.031414 9.089185
vn -0.5318 -0.0626 -0.8446
vn -0.4628 -0.2039 -0.8627
vn -0.8157 -0.1569 -0.5568
vn -0.0000 -0.0941 -0.9956
vn -0.0000 -0.3373 -0.9414
vn -0.8182 -0.1652 -0.5507
vn 0.2911 -0.1967 0.9363
vn 0.2121 -0.2278 0.9503
vn 0.2038 -0.2430 0.9484
vn -0.2915 0.0788 -0.9533
vn -0.0314 0.5026 -0.8639
vn 0.5336 0.5100 -0.6747
vn 0.5824 0.5903 -0.5588
vn 0.3470 0.6940 -0.6309
vn 0.0709 0.4649 -0.8825
vn -0.2751 0.6915 -0.6679
vn -0.5344 0.2907 -0.7937
vn 0.6836 0.1807 0.7072
vn 0.8760 0.0704 0.4771
vn 0.9354 -0.0000 0.3537
vn 0.9685 -0.1417 0.2047
vn 0.9736 -0.1492 0.1727
vn -0.9736 -0.1492 0.1727
vn -1.0000 -0.0000 0.0079
vn -0.9616 -0.2128 0.1734
vn -0.9691 -0.1102 -0.2206
vn -0.9945 -0.1018 -0.0235
vn -0.0000 0.1886 -0.9821
vn 0.5318 -0.0626 -0.8446
vn 0.9303 0.3232 -0.1734
vn 0.4411 -0.6616 -0.6064
vn -0.4477 -0.6990 -0.5576
vn 0.9203 -0.3382 0.1966
vn 0.8318 -0.4630 0.3061
vn 0.9599 -0.2203 0.1731
vn 0.9546 -0.2582 0.1487
vn 0.9961 -0.0863 -0.0157
vn 0.9723 -0.1490 -0.1804
vn -0.3536 0.0236 -0.9351
vn -0.3535 0.0314 -0.9349
vn 0.3536 0.0236 -0.9351
vn 0.3535 0.0314 -0.9349
vn -0.6134 -0.5662 -0.5505
vn -0.5744 -0.1967 -0.7946
vn 0.3067 -0.5584 0.7708
vn 0.4628 -0.2039 -0.8627
vn 0.8157 -0.1569 -0.5568
vn 0.8182 -0.1652 -0.5507
vn 0.9691 -0.1103 -0.2206
vn -0.9723 -0.1490 -0.1803
vn -0.9583 -0.2435 0.1492
vn 0.6082 -0.5371 -0.5845
vn 0.5671 -0.1812 -0.8035
vn 0.4243 0.2436 -0.8722
vn 0.3212 0.2664 -0.9088
vn 0.2511 0.2825 -0.9258
vn 0.1654 0.3307 -0.9291
vn 0.1566 0.3681 -0.9165
vn -0.1883 -0.2511 0.9495
vn -0.1894 -0.2288 0.9549
vn -0.2822 -0.1881 0.9407
vn -0.3551 -0.1894 0.9154
vn -0.4655 -0.1735 0.8679
vn -0.2599 -0.5907 0.7639
vn -0.1416 -0.7707 0.6213
vn 0.5672 -0.1812 -0.8034
vn 0.6082 -0.5371 -0.5846
vn -0.3465 0.0394 -0.9372
vn -0.3466 0.0394 -0.9372
vn -0.3442 0.0157 -0.9388
vn -0.3466 0.0315 -0.9375
vn -0.3530 0.0628 -0.9335
vn 0.3465 0.0394 -0.9372
vn 0.3442 0.0157 -0.9388
vn 0.3466 0.0315 -0.9375
vn 0.3530 0.0628 -0.9335
vn -0.1567 0.3682 -0.9165
vn -0.1654 0.3307 -0.9291
vn -0.2511 0.2825 -0.9258
vn -0.3212 0.2664 -0.9088
vn -0.4243 0.2436 -0.8722
vn -0.6134 -0.5663 -0.5505
vn 0.3614 -0.1964 0.9115
vn 0.4876 -0.1651 0.8573
vn 0.2117 -0.7292 0.6507
vn 1.0000 -0.0000 0.0079
vn 0.8136 -0.5711 -0.1095
vn -0.0000 -0.9992 -0.0393
vn -0.7854 -0.3613 -0.5026
vn -0.8349 -0.4568 0.3071
vn -0.9213 -0.3307 0.2047
vn -0.9685 -0.1417 0.2047
vn -0.9354 -0.0000 0.3537
vn -0.8760 0.0704 0.4771
vn -0.6836 0.1807 0.7072
vn -0.5952 0.1801 0.7831
vn -0.2979 0.2352 0.9252
vn -0.2980 0.2352 0.9251
vn -0.0000 0.2518 0.9678
vn 0.2979 0.2352 0.9252
vn 0.2980 0.2352 0.9251
vn 0.5952 0.1801 0.7831
vt 0.987122 0.011719
vt 0.987122 0.222626
vt 0.839844 0.222626
vt 0.746094 0.113251
vt 0.746094 0.222626
vt 0.839844 0.011719
vt 0.066376 0.683594
vt 0.067383 0.512054
vt 0.011444 0.605469
vt 0.809326 0.607971
vt 0.808167 0.573151
vt 0.708496 0.567047
vt 0.736206 0.542572
vt 0.768890 0.502228
vt 0.795807 0.530609
vt 0.848877 0.502502
vt 0.906433 0.551544
vt 0.160126 0.011719
vt 0.230469 0.222626
vt 0.300751 0.011719
vt 0.300751 0.222626
vt 0.441376 0.011719
vt 0.574219 0.011719
vt 0.534149 0.104004
vt 0.699219 0.011719
vt 0.619171 0.104004
vt 0.746094 0.011719
vt 0.708191 0.564575
vt 0.757202 0.684601
vt 0.851807 0.685211
vt 0.441376 0.222626
vt 0.532959 0.222534
vt 0.619934 0.222565
vt 0.699219 0.222626
vt 0.987122 0.246094
vt 0.987122 0.463623
vt 0.832001 0.246094
vt 0.832001 0.463623
vt 0.535126 0.683594
vt 0.582001 0.511719
vt 0.558594 0.511719
vt 0.511719 0.683594
vt 0.277344 0.683594
vt 0.308594 0.511719
vt 0.628876 0.463623
vt 0.628876 0.246094
vt 0.432770 0.463104
vt 0.433594 0.246094
vt 0.246094 0.463623
vt 0.246094 0.246094
vt 0.011444 0.463623
vt 0.011444 0.246094
vt 0.707550 0.640411
vt 0.798279 0.711121
vt 0.906525 0.634216
vt 0.160126 0.222626
vt 0.082001 0.011719
vt 0.082001 0.222626
vt 0.011444 0.011719
vt 0.011444 0.222626
s 1
usemtl m_hair0113
f 1/1/1 2/2/2 3/3/3
f 4/4/4 5/5/5 2/2/2
f 3/3/3 6/6/6 1/1/1
f 7/7/7 8/8/8 9/9/9
f 10/10/10 11/11/11 12/12/12
f 12/12/12 11/11/11 13/13/13
f 14/14/14 15/15/15 16/16/16
f 16/16/16 15/15/15 17/17/17
f 18/18/18 19/19/19 20/20/20
f 20/20/20 19/19/19 21/21/21
f 20/20/20 21/21/21 22/22/22
f 23/22/23 24/23/24 25/24/25
f 25/24/25 24/23/24 26/25/26
f 25/24/25 26/25/26 27/26/27
f 2/2/2 1/1/1 4/4/4
f 4/4/4 1/1/1 28/27/28
f 4/4/4 28/27/28 29/1/29
f 13/13/13 30/28/30 12/12/12
f 12/12/12 30/28/30 31/29/31
f 12/12/12 31/29/31 10/10/10
f 10/10/10 31/29/31 32/30/32
f 33/31/33 34/32/34 35/24/35
f 35/24/35 34/32/34 36/33/36
f 35/24/35 36/33/36 37/26/37
f 37/26/37 36/33/36 38/34/38
f 39/35/39 40/36/39 41/37/40
f 42/36/41 43/35/41 44/38/42
f 45/39/43 46/40/44 47/41/45
f 5/5/5 4/4/4 48/2/46
f 48/2/46 4/4/4 29/1/29
f 48/2/46 29/1/29 49/3/47
f 49/3/47 29/1/29 50/6/48
f 49/3/47 50/6/48 51/25/49
f 6/6/6 3/3/3 26/25/26
f 26/25/26 3/3/3 52/34/50
f 26/25/26 52/34/50 27/26/27
f 27/26/27 52/34/50 53/33/51
f 27/26/27 53/33/51 25/24/25
f 54/42/52 55/41/53 56/43/54
f 56/43/54 55/41/53 57/44/55
f 56/43/54 57/44/55 58/7/56
f 58/7/56 57/44/55 59/8/57
f 58/7/56 59/8/57 60/9/58
f 61/9/59 62/8/60 63/7/61
f 63/7/61 62/8/60 64/44/62
f 63/7/61 64/44/62 65/43/63
f 65/43/63 64/44/62 66/41/64
f 65/43/63 66/41/64 67/42/65
f 67/42/65 66/41/64 68/40/66
f 67/42/65 68/40/66 69/39/67
f 40/36/39 70/38/40 41/37/40
f 41/37/40 70/38/40 71/45/68
f 41/37/40 71/45/68 72/46/69
f 72/46/69 71/45/68 73/47/70
f 72/46/69 73/47/70 74/48/70
f 74/48/70 73/47/70 75/49/71
f 74/48/70 75/49/71 76/50/71
f 76/50/71 75/49/71 77/51/72
f 76/50/71 77/51/72 78/52/72
f 43/35/41 79/37/42 44/38/42
f 44/38/42 79/37/42 80/46/73
f 44/38/42 80/46/73 81/45/73
f 81/45/73 80/46/73 82/48/74
f 81/45/73 82/48/74 83/47/74
f 83/47/74 82/48/74 84/50/75
f 83/47/74 84/50/75 85/49/75
f 85/49/75 84/50/75 86/52/76
f 85/49/75 86/52/76 87/51/76
f 88/9/77 89/8/78 90/7/79
f 90/7/79 89/8/78 91/44/80
f 90/7/79 91/44/80 92/43/81
f 92/43/81 91/44/80 93/41/44
f 92/43/81 93/41/44 94/42/82
f 8/8/8 7/7/7 95/44/83
f 95/44/83 7/7/7 96/43/84
f 95/44/83 96/43/84 47/41/45
f 47/41/45 96/43/84 97/42/85
f 47/41/45 97/42/85 45/39/43
f 21/21/21 33/31/33 22/22/22
f 22/22/22 33/31/33 35/24/35
f 22/22/22 35/24/35 98/23/86
f 98/23/86 35/24/35 37/26/37
f 98/23/86 37/26/37 51/25/49
f 51/25/49 37/26/37 38/34/38
f 51/25/49 38/34/38 49/3/47
f 30/28/30 99/53/87 31/29/31
f 31/29/31 99/53/87 100/54/88
f 31/29/31 100/54/88 32/30/32
f 32/30/32 100/54/88 101/55/89
f 32/30/32 101/55/89 10/10/10
f 10/10/10 101/55/89 17/17/17
f 10/10/10 17/17/17 11/11/11
f 11/11/11 17/17/17 15/15/15
f 11/11/11 15/15/15 13/13/13
f 13/13/13 15/15/15 14/14/14
f 53/33/51 102/32/90 25/24/25
f 25/24/25 102/32/90 103/31/91
f 25/24/25 103/31/91 23/22/23
f 23/22/23 103/31/91 104/21/92
f 23/22/23 104/21/92 105/20/93
f 105/20/93 104/21/92 106/19/94
f 105/20/93 106/19/94 107/18/95
f 107/18/95 106/19/94 108/56/96
f 107/18/95 108/56/96 109/57/97
f 109/57/97 108/56/96 110/58/98
f 109/57/97 110/58/98 111/59/99
f 111/59/99 110/58/98 112/60/99
f 111/59/99 112/60/99 113/57/100
f 113/57/100 112/60/99 114/58/101
f 113/57/100 114/58/101 18/18/18
f 18/18/18 114/58/101 115/56/102
f 18/18/18 115/56/102 19/19/19
o editpl_m-0000-1832
v 3.838928 50.212963 -6.856499
v 0.000000 50.752785 -3.758523
v 0.000000 49.997681 -6.784019
v -6.060467 51.356873 -3.949064
v -5.507792 50.752785 -3.758523
v -7.344625 53.673599 -2.657120
v 6.060467 51.356873 -3.949064
v 6.442464 53.377983 -7.505087
v 7.152272 53.464741 -4.407111
v 2.706485 59.820488 8.927039
v 0.000000 62.439262 8.680456
v 0.000000 59.762650 9.642877
v -4.814238 64.929504 1.919605
v 0.000000 65.729599 2.272293
v 0.000000 66.173019 -2.556246
v 7.163109 53.696095 -2.334321
v 7.932520 55.209518 -2.435943
v 0.000000 53.696095 -2.334321
v 0.000000 55.209518 -2.435943
v -7.163109 53.696095 -2.334321
v -7.932520 55.209518 -2.435943
v 5.507792 50.752785 -3.758523
v -3.941877 50.637112 -6.969330
v -2.706485 59.820488 8.927039
v -3.519243 62.191841 7.890644
v -5.445480 59.283878 7.053758
v -4.876549 65.148003 -2.938076
v 0.000000 65.450050 -7.164355
v -7.970449 57.359161 -5.261184
v -8.046307 58.072498 -2.842431
v -7.252513 59.656612 -7.898872
v -7.374426 62.240040 -3.476075
v -4.844039 63.499622 -7.593260
v 0.000000 63.457851 -9.943268
v 7.867500 59.075020 0.555181
v 8.046307 58.072498 -2.842431
v 7.970449 57.359161 -5.261184
v 3.941877 50.637112 -6.969330
v -4.779018 60.286404 -9.997816
v 0.000000 60.610939 -11.498234
v 7.344625 53.673599 -2.657120
v 0.000000 50.826691 -8.654312
v -3.838928 50.212963 -6.856499
v -7.867500 59.075020 0.555181
v -7.163109 62.667400 0.992304
v 3.519243 62.191841 7.890644
v 5.445480 59.283878 7.053758
v 6.542704 60.819798 4.765020
v 6.437045 58.175320 3.896751
v -4.332001 63.917339 5.930684
v -6.542704 60.819798 4.765020
v -6.437045 58.175320 3.896751
v -7.152272 53.464741 -4.407111
v -6.442464 53.377983 -7.505087
v -4.426823 53.898525 -9.907401
v 0.000000 52.073418 -9.805779
v 0.000000 54.242340 -11.135831
v 4.426823 53.898525 -9.907401
v 4.765472 57.227421 -10.104668
v 6.846134 57.098892 -7.917553
v 7.252513 59.656612 -7.898872
v 4.814238 64.929504 1.919605
v 4.876549 65.148003 -2.938076
v 4.844039 63.499622 -7.593260
v 4.779018 60.286404 -9.997816
v 0.000000 57.458771 -11.862131
v -4.765472 57.227421 -10.104668
v -6.846134 57.098892 -7.917553
v 0.000000 64.457161 6.216870
v 4.332001 63.917339 5.930684
v 7.163109 62.667400 0.992304
v 7.374426 62.240040 -3.476075
vn 0.3294 -0.8874 -0.3226
vn -0.0000 -0.8782 0.4783
vn -0.0000 -0.9963 -0.0863
vn -0.7911 -0.6031 -0.1018
vn -0.5423 -0.7546 0.3694
vn -0.8424 -0.4881 0.2283
vn 0.7911 -0.6031 -0.1018
vn 0.8191 -0.4017 -0.4096
vn 0.9234 -0.3600 -0.1330
vn 0.4084 0.2435 0.8797
vn -0.0000 0.5601 0.8284
vn -0.0000 0.3304 0.9439
vn -0.4173 0.8976 0.1417
vn -0.0000 0.9754 0.2202
vn -0.0000 1.0000 -0.0000
vn 0.4315 -0.3845 0.8161
vn 0.9476 -0.1880 0.2584
vn -0.0000 -0.2737 0.9618
vn -0.0000 0.0629 0.9980
vn -0.4316 -0.3844 0.8161
vn -0.9476 -0.1879 0.2584
vn 0.5423 -0.7546 0.3694
vn -0.5483 -0.5952 -0.5874
vn -0.4084 0.2435 0.8797
vn -0.5263 0.3928 0.7541
vn -0.7875 0.1103 0.6064
vn -0.5091 0.8537 -0.1096
vn -0.0000 0.9327 -0.3606
vn -0.9736 -0.1021 -0.2041
vn -0.9960 0.0863 -0.0235
vn -0.8741 0.1654 -0.4568
vn -0.9099 0.4000 -0.1098
vn -0.5433 0.6772 -0.4961
vn -0.0000 0.6417 -0.7669
vn 0.9891 0.0628 0.1334
vn 0.9960 0.0863 -0.0235
vn 0.9736 -0.1021 -0.2041
vn 0.5483 -0.5952 -0.5874
vn -0.4477 0.2828 -0.8483
vn -0.0000 0.2994 -0.9541
vn 0.8424 -0.4881 0.2283
vn -0.0000 -0.6913 -0.7226
vn -0.3299 -0.8874 -0.3220
vn -0.9891 0.0628 0.1334
vn -0.8594 0.4888 0.1498
vn 0.5263 0.3928 0.7541
vn 0.7875 0.1103 0.6064
vn 0.8899 0.1654 0.4252
vn 0.9265 -0.1492 0.3455
vn -0.5049 0.7416 0.4418
vn -0.8899 0.1654 0.4252
vn -0.9265 -0.1492 0.3455
vn -0.9234 -0.3600 -0.1330
vn -0.8191 -0.4017 -0.4096
vn -0.4819 -0.3792 -0.7900
vn -0.0000 -0.6332 -0.7740
vn -0.0000 -0.2830 -0.9591
vn 0.4819 -0.3792 -0.7900
vn 0.5198 -0.0787 -0.8506
vn 0.8149 -0.1332 -0.5641
vn 0.8741 0.1654 -0.4568
vn 0.4173 0.8976 0.1417
vn 0.5091 0.8537 -0.1096
vn 0.5433 0.6772 -0.4961
vn 0.4477 0.2828 -0.8483
vn -0.0000 -0.0236 -0.9997
vn -0.5198 -0.0787 -0.8506
vn -0.8149 -0.1332 -0.5641
vn -0.0000 0.8697 0.4935
vn 0.5049 0.7416 0.4418
vn 0.8594 0.4888 0.1498
vn 0.9099 0.4000 -0.1098
vt 0.756256 0.631836
vt 0.717041 0.601562
vt 0.795471 0.662079
vt 0.737427 0.581665
vt 0.706146 0.561737
vt 0.792999 0.560974
vt 0.757812 0.561737
vt 0.485352 0.434814
vt 0.492828 0.385223
vt 0.470459 0.434601
vt 0.575958 0.344391
vt 0.564301 0.325745
vt 0.630951 0.312653
vt 0.695312 0.561737
vt 0.688293 0.502563
vt 0.815216 0.622467
vt 0.508484 0.392975
vt 0.503052 0.434845
vt 0.635925 0.333435
vt 0.714905 0.329468
vt 0.739899 0.482513
vt 0.679016 0.461700
vt 0.738525 0.435822
vt 0.685120 0.387909
vt 0.743774 0.378052
vt 0.782166 0.369812
vt 0.611816 0.435120
vt 0.781097 0.421722
vt 0.807465 0.415771
vt 0.871002 0.604370
vt 0.596466 0.378174
vt 0.550507 0.419739
vt 0.562988 0.434998
vt 0.542480 0.364014
vt 0.825531 0.553284
vt 0.862732 0.575165
vt 0.854462 0.545959
vt 0.802277 0.476379
vt 0.771973 0.482513
vt 0.830139 0.467682
vt 0.526581 0.349823
s 1
usemtl
f 116/61/103 117/62/104 118/63/105
f 119/64/106 120/62/107 121/65/108
f 122/64/109 123/66/110 124/67/111
f 125/68/112 126/69/113 127/70/114
f 128/71/115 129/72/116 130/73/117
f 131/74/118 132/75/119 133/74/120
f 133/74/120 132/75/119 134/75/121
f 133/74/120 134/75/121 135/74/122
f 135/74/122 134/75/121 136/75/123
f 117/62/104 116/61/103 137/62/124
f 120/62/107 119/64/106 138/76/125
f 139/68/126 140/77/127 141/78/128
f 142/79/129 130/73/117 143/80/130
f 144/81/131 145/82/132 146/83/133
f 147/84/134 142/79/129 148/85/135
f 148/85/135 142/79/129 143/80/130
f 148/85/135 143/80/130 149/86/136
f 150/87/137 132/75/119 151/82/138
f 151/82/138 132/75/119 152/81/139
f 123/66/110 122/64/109 153/76/140
f 145/82/132 147/84/134 146/83/133
f 146/83/133 147/84/134 148/85/135
f 146/83/133 148/85/135 154/88/141
f 154/88/141 148/85/135 149/86/136
f 154/88/141 149/86/136 155/89/142
f 124/67/111 156/65/143 122/64/109
f 122/64/109 156/65/143 137/62/124
f 122/64/109 137/62/124 153/76/140
f 153/76/140 137/62/124 116/61/103
f 153/76/140 116/61/103 157/90/144
f 157/90/144 116/61/103 118/63/105
f 157/90/144 118/63/105 158/61/145
f 158/61/145 118/63/105 117/62/104
f 144/81/131 136/75/123 145/82/132
f 145/82/132 136/75/123 159/87/146
f 145/82/132 159/87/146 147/84/134
f 147/84/134 159/87/146 160/91/147
f 147/84/134 160/91/147 142/79/129
f 142/79/129 160/91/147 128/71/115
f 142/79/129 128/71/115 130/73/117
f 126/69/113 125/68/112 161/77/148
f 161/77/148 125/68/112 162/78/149
f 161/77/148 162/78/149 163/92/150
f 163/92/150 162/78/149 164/93/151
f 163/92/150 164/93/151 150/87/137
f 129/72/116 128/71/115 165/94/152
f 165/94/152 128/71/115 160/91/147
f 165/94/152 160/91/147 166/92/153
f 166/92/153 160/91/147 159/87/146
f 166/92/153 159/87/146 167/93/154
f 121/65/108 168/67/155 119/64/106
f 119/64/106 168/67/155 169/66/156
f 119/64/106 169/66/156 138/76/125
f 138/76/125 169/66/156 170/95/157
f 138/76/125 170/95/157 171/96/158
f 171/96/158 170/95/157 172/97/159
f 171/96/158 172/97/159 173/95/160
f 173/95/160 172/97/159 174/98/161
f 173/95/160 174/98/161 175/99/162
f 175/99/162 174/98/161 176/83/163
f 129/72/116 177/71/164 130/73/117
f 130/73/117 177/71/164 178/79/165
f 130/73/117 178/79/165 143/80/130
f 143/80/130 178/79/165 179/85/166
f 143/80/130 179/85/166 149/86/136
f 149/86/136 179/85/166 180/88/167
f 149/86/136 180/88/167 155/89/142
f 155/89/142 180/88/167 181/100/168
f 155/89/142 181/100/168 154/88/141
f 154/88/141 181/100/168 182/98/169
f 154/88/141 182/98/169 146/83/133
f 146/83/133 182/98/169 183/99/170
f 146/83/133 183/99/170 144/81/131
f 167/93/154 141/78/128 166/92/153
f 166/92/153 141/78/128 140/77/127
f 166/92/153 140/77/127 165/94/152
f 165/94/152 140/77/127 184/101/171
f 165/94/152 184/101/171 129/72/116
f 129/72/116 184/101/171 185/94/172
f 129/72/116 185/94/172 177/71/164
f 177/71/164 185/94/172 186/91/173
f 177/71/164 186/91/173 178/79/165
f 178/79/165 186/91/173 187/84/174
f 178/79/165 187/84/174 179/85/166
f 179/85/166 187/84/174 176/83/163
f 179/85/166 176/83/163 180/88/167
f 180/88/167 176/83/163 174/98/161
f 180/88/167 174/98/161 181/100/168
f 181/100/168 174/98/161 172/97/159
f 181/100/168 172/97/159 182/98/169
f 182/98/169 172/97/159 170/95/157
f 182/98/169 170/95/157 183/99/170
f 183/99/170 170/95/157 169/66/156
f 183/99/170 169/66/156 144/81/131
f 144/81/131 169/66/156 168/67/155
f 144/81/131 168/67/155 136/75/123
f 136/75/123 168/67/155 121/65/108
f 136/75/123 121/65/108 135/74/122
f 135/74/122 121/65/108 120/62/107
f 135/74/122 120/62/107 133/74/120
f 139/68/126 127/70/114 140/77/127
f 140/77/127 127/70/114 126/69/113
f 140/77/127 126/69/113 184/101/171
f 184/101/171 126/69/113 161/77/148
f 184/101/171 161/77/148 185/94/172
f 185/94/172 161/77/148 163/92/150
f 185/94/172 163/92/150 186/91/173
f 186/91/173 163/92/150 150/87/137
f 186/91/173 150/87/137 187/84/174
f 187/84/174 150/87/137 151/82/138
f 187/84/174 151/82/138 176/83/163
f 176/83/163 151/82/138 152/81/139
f 176/83/163 152/81/139 175/99/162
f 175/99/162 152/81/139 123/66/110
f 175/99/162 123/66/110 173/95/160
f 173/95/160 123/66/110 153/76/140
f 173/95/160 153/76/140 171/96/158
f 171/96/158 153/76/140 157/90/144
f 171/96/158 157/90/144 138/76/125
f 138/76/125 157/90/144 158/61/145
f 138/76/125 158/61/145 120/62/107
f 120/62/107 158/61/145 117/62/104
f 120/62/107 117/62/104 133/74/120
f 133/74/120 117/62/104 137/62/124
f 133/74/120 137/62/124 131/74/118
f 131/74/118 137/62/124 156/65/143
f 131/74/118 156/65/143 132/75/119
f 132/75/119 156/65/143 124/67/111
f 132/75/119 124/67/111 152/81/139
f 152/81/139 124/67/111 123/66/110
