mtllib m_hair008.mtl
o editpl_m-0000-1830
v 6.209473 63.708481 -7.699365
v 6.672745 62.998360 -1.047608
v 6.859679 62.416767 -4.841994
v 3.269997 64.071579 7.205442
v 4.123393 66.966682 0.957932
v 0.046056 65.919174 7.939213
v 5.648670 59.293522 -9.802044
v 6.133615 61.960491 -4.968274
v 7.065578 59.422050 -6.071918
v 3.917495 65.215485 3.948308
v 4.153195 66.658218 -2.970207
v 0.046056 66.201942 4.442221
v 3.909367 64.065147 -7.384038
v 3.540917 61.452805 -11.764245
v 0.046056 64.601753 -8.462276
v 4.288654 65.215485 -4.288304
v 4.269690 63.184727 -10.091218
v 0.046056 65.989868 -4.943616
v 7.748295 55.312344 0.644847
v 6.374734 55.916428 4.338358
v 6.751312 54.743603 3.130850
v 6.968047 51.646061 -2.865595
v 7.249803 56.295586 -0.807749
v 7.100798 52.340115 -1.735797
v 8.206149 60.967606 -1.421966
v 4.399731 66.166595 -1.232172
v 6.114651 61.613464 4.438485
v 0.046056 62.998360 -9.927577
v 4.797983 58.082138 -9.948499
v 0.046056 57.616219 -11.623767
v 6.656490 48.927677 2.222230
v 7.748295 55.312344 0.644847
v 7.290441 53.548286 1.906903
v 2.313652 59.949017 11.298717
v 0.046056 59.219616 9.751224
v 2.096916 59.614841 9.219949
v 2.313652 60.292831 10.582879
v 0.046056 59.393131 9.520332
v 2.096916 59.669468 8.918073
v 2.573734 61.125053 10.208522
v 0.046056 59.762650 9.359679
v 2.332616 60.122532 8.685686
v -4.602921 62.487457 -6.860984
v 0.046056 66.009148 -4.086554
v 4.399731 66.166595 -1.232172
v 6.063176 65.485390 -0.222677
v 5.475281 62.101871 5.700540
v 6.886771 62.628841 1.805280
v 3.779326 62.953377 -8.360655
v 3.540917 59.168205 -11.922656
v 0.046056 62.998360 -9.927577
v 6.128197 65.559296 -2.763226
v 6.263657 62.310734 3.673331
v 6.995139 62.866619 -1.345002
v 6.567087 61.642384 4.002108
v 6.732347 65.003410 1.466789
v 3.310635 61.835175 8.728278
v 4.061082 67.811760 3.560501
v 0.046056 63.579952 10.400558
v 2.771506 65.649269 11.146283
v 4.968662 62.747730 7.527495
v 4.925315 66.195511 6.341656
v 5.044519 61.211811 -10.126337
v 6.586051 62.339649 -4.411595
v 6.775694 59.576283 -6.594972
v 6.315131 61.414246 -8.199256
v 6.672745 62.767010 -2.615277
v 6.946374 60.816586 -6.092841
v 6.114651 61.613464 4.438485
v 4.399731 66.166595 -1.232172
v 3.828091 63.644218 6.890863
v 0.046056 65.234764 7.998991
v 4.925315 66.195511 6.341656
v 7.927102 62.047249 2.524106
v 6.588760 66.407585 2.604059
v 7.252513 56.298801 -0.881724
v 7.106216 52.346542 -1.891966
v 7.111635 54.856064 -4.259908
v 7.983995 58.660515 1.715614
v 7.106216 60.839077 1.939779
v 6.989721 58.586613 2.905189
v 8.200731 60.961182 -1.306146
v 4.581247 60.707336 7.381787
v 5.605323 59.473461 6.487365
v 4.968662 62.747730 7.527495
v 7.639927 54.958889 -4.477349
v 5.995447 49.991253 -4.402627
v 6.263657 53.432610 -6.849027
v 3.933750 50.977711 -7.800239
v 5.900625 49.663506 -4.062642
v 3.814545 47.822330 -7.429618
v 4.695033 62.487457 -6.860984
v 7.369008 58.724781 -5.623586
v 0.046056 54.264832 -9.975398
v 4.481007 54.441559 -8.328524
v 2.367836 63.470703 15.537698
v 4.456624 62.346077 9.391810
v 4.518936 66.693565 10.045629
v 3.963551 60.636646 8.652809
v 2.422020 60.771603 13.721205
v 2.367836 65.148003 13.916230
v 4.456624 62.236828 8.218674
v 4.518936 66.780319 7.952663
v 3.963551 60.553101 8.149929
v 2.422020 61.597397 12.781949
v 2.831108 62.895538 10.885504
v 4.581247 60.707336 7.381787
v 2.552061 64.045868 9.517344
v 2.785052 62.789501 9.633909
v 4.968662 63.734188 6.632324
v 0.046056 60.999741 9.825198
v 2.619791 61.317848 9.066770
v 4.201960 61.256798 7.862249
v 6.103814 49.033714 0.724800
v 0.046056 66.529686 -8.687938
v -4.112557 64.948784 -7.212177
v -4.307619 66.166595 -1.232172
v -6.117360 63.708481 -7.699365
v -6.580632 62.998360 -1.047608
v -6.767567 62.416767 -4.841994
v 0.046056 66.738548 -0.124791
v 4.204669 64.948784 -7.212177
v -2.240504 60.122532 8.685686
v -2.481622 61.125053 10.208522
v -4.489135 60.707336 7.381787
v -4.876549 62.747730 7.527495
v -2.275723 63.470703 15.537698
v 0.046056 67.413322 16.080181
v -2.235085 66.340111 14.063433
v -8.114036 60.967606 -1.421966
v -6.022539 61.613464 4.438485
v -4.307619 66.166595 -1.232172
v -6.496647 66.407585 2.604059
v -7.834989 62.047249 2.524106
v -4.833202 66.195511 6.341656
v -2.679393 65.649269 11.146283
v 0.046056 70.160622 10.653117
v -2.630627 68.515457 9.314099
v -7.891882 58.660515 1.715614
v -7.656183 55.312344 0.644847
v -6.282621 55.916428 4.338358
v -6.659199 54.743603 3.130850
v -7.008685 52.340115 -1.735797
v -7.154982 56.295586 -0.807749
v -7.547815 54.958889 -4.477349
v -6.897608 58.586613 2.905189
v -7.014104 60.839077 1.939779
v -8.108618 60.961182 -1.306146
v -6.726929 64.004097 1.619969
v -4.876549 62.747730 7.527495
v -5.513210 59.473461 6.487365
v -4.489135 60.707336 7.381787
v -7.019522 54.856064 -4.259908
v -7.160400 56.298801 -0.881724
v -6.171544 53.432610 -6.849027
v -5.903334 49.991253 -4.402627
v -6.875935 51.646061 -2.865595
v -3.841637 50.977711 -7.800239
v -5.808512 49.663506 -4.062642
v -7.014104 52.346542 -1.891966
v -6.022539 61.613464 4.438485
v -3.735979 63.644218 6.890863
v -4.307619 66.166595 -1.232172
v 0.046056 66.558609 1.915868
v -4.388894 54.441559 -8.328524
v -4.705870 58.082138 -9.948499
v -7.276895 58.724781 -5.623586
v -2.004804 59.614841 9.219949
v -2.221539 59.949017 11.298717
v -3.871438 60.636646 8.652809
v -4.364512 62.346077 9.391810
v -2.329907 60.771603 13.721205
v -4.426823 66.693565 10.045629
v -2.275723 65.148003 13.916230
v 0.046056 69.607948 13.275862
v -2.235085 67.766777 11.605824
v -2.004804 59.669468 8.918073
v -2.221539 60.292831 10.582879
v -3.871438 60.553101 8.149929
v -4.364512 62.236828 8.218674
v -2.329907 61.597397 12.781949
v -4.426823 66.780319 7.952663
v -4.833202 66.195511 6.341656
v -2.738995 62.895538 10.885504
v -5.201653 66.218002 4.385432
v -4.876549 63.734188 6.632324
v -2.630627 67.937080 6.016615
v -2.543933 66.754616 8.545957
v 0.046056 70.064224 6.328953
v -5.767874 48.821640 3.306448
v -6.214891 51.781013 2.823742
v -6.564377 48.927677 2.222230
v -7.198329 53.548286 1.906903
v 5.591777 57.304539 6.675663
v 8.016505 60.003639 -5.178990
v 6.353060 57.976101 -8.415202
v 6.819042 64.004097 1.619969
v 7.778096 65.311874 -1.293444
v 7.469248 63.907703 -5.270151
v 6.103814 62.178989 -8.630402
v 8.634202 56.568710 -3.523896
v 9.097474 60.553101 -5.087082
v 7.951485 65.536804 -0.855572
v 0.046056 59.380276 11.844187
v 0.046056 60.543461 14.542401
v 0.046056 63.445000 16.228876
v 0.046056 59.846195 11.235203
v 0.046056 61.545986 13.632286
v 0.046056 65.266891 14.597695
v 0.046056 60.778027 10.931085
v 0.046056 63.011215 11.731358
v 0.046056 65.912750 12.304475
v 6.751312 54.743603 3.130850
v 6.307004 51.781013 2.823742
v 5.859987 48.821640 3.306448
v -6.794659 62.628841 1.805280
v -5.383169 62.101871 5.700540
v -5.971064 65.485390 -0.222677
v -3.177885 64.071579 7.205442
v -4.031281 66.966682 0.957932
v 0.046056 68.846420 0.318311
v 0.046056 58.576973 -12.914964
v -3.448804 59.168205 -11.922656
v -3.687213 62.953377 -8.360655
v -5.556557 59.293522 -9.802044
v -6.041503 61.960491 -4.968274
v -6.973466 59.422050 -6.071918
v -6.903027 62.866619 -1.345002
v -6.171544 62.310734 3.673331
v -6.036084 65.559296 -2.763226
v -3.825382 65.215485 3.948308
v -4.061082 66.658218 -2.970207
v 0.046056 68.309814 -4.315951
v 0.046056 69.354111 3.890772
v -3.968969 67.811760 3.560501
v -3.218523 61.835175 8.728278
v -6.640235 65.003410 1.466789
v -6.474974 61.642384 4.002108
v -6.683582 59.576283 -6.594972
v -6.493938 62.339649 -4.411595
v -4.952407 61.211811 -10.126337
v -3.817255 64.065147 -7.384038
v -3.448804 61.452805 -11.764245
v 0.046056 61.092922 -12.833517
v -6.854261 60.816586 -6.092841
v -6.580632 62.767010 -2.615277
v -6.223019 61.414246 -8.199256
v -4.196542 65.215485 -4.288304
v -4.177577 63.184727 -10.091218
v 0.046056 64.267586 -11.552781
v -5.499664 57.304539 6.675663
v -6.260948 57.976101 -8.415202
v -7.924393 60.003639 -5.178990
v -7.685984 65.311874 -1.293444
v -7.377136 63.907703 -5.270151
v -6.011702 62.178989 -8.630402
v -7.859372 65.536804 -0.855572
v -9.005361 60.553101 -5.087082
v -8.542089 56.568710 -3.523896
v 1.934365 47.057583 -8.847842
v 0.046056 46.929054 -9.225189
v 0.046056 50.277229 -9.071260
v -1.842252 47.057583 -8.847842
v -3.722433 47.822330 -7.429618
v -4.109847 61.256798 7.862249
v -2.692939 62.789501 9.633909
v -2.459948 64.045868 9.517344
v 0.046056 67.956360 9.271507
v 0.046056 62.876259 10.502927
v 0.046056 64.357552 10.216742
v 2.636046 66.754616 8.545957
v 2.722740 67.937080 6.016615
v -6.659199 54.743603 3.130850
v -7.656183 55.312344 0.644847
v -6.011702 49.033714 0.724800
v 0.046056 66.558609 1.915868
v 2.327198 66.340111 14.063433
v 2.327198 67.766777 11.605824
v 2.722740 68.515457 9.314099
v -2.527678 61.317848 9.066770
v 5.293765 66.218002 4.385432
vn 0.7618 0.6440 -0.0707
vn 0.8643 0.5029 -0.0000
vn 0.9094 0.4155 -0.0157
vn 0.6616 0.6381 0.3939
vn 0.5279 0.7564 0.3861
vn -0.0000 0.9095 0.4156
vn 0.7350 0.5137 -0.4426
vn 0.7958 0.4964 -0.3467
vn 0.8315 0.4472 -0.3295
vn 0.5115 0.8262 0.2361
vn 0.3377 0.9188 0.2042
vn -0.0000 0.9754 0.2205
vn 0.5425 0.7154 -0.4403
vn 0.3287 0.7748 -0.5400
vn -0.0000 0.8148 -0.5798
vn 0.6043 0.7535 -0.2590
vn 0.4404 0.8571 -0.2674
vn -0.0000 0.9570 -0.2902
vn 0.9749 -0.1179 0.1887
vn 0.9196 -0.1336 0.3694
vn 0.9029 -0.0707 0.4240
vn 0.9763 -0.2047 -0.0709
vn 0.9788 -0.1488 0.1409
vn 0.9903 -0.1022 0.0943
vn 0.9530 0.2757 -0.1260
vn 0.5272 0.8498 -0.0000
vn 0.7829 0.5793 0.2270
vn -0.0000 0.6199 -0.7847
vn 0.5835 0.0079 -0.8121
vn -0.0000 -0.0707 -0.9975
vn 0.8915 -0.3708 0.2603
vn 0.8869 -0.0785 0.4552
vn 0.5117 -0.8344 0.2047
vn -0.0000 -0.9948 0.1019
vn 0.3610 -0.9261 0.1099
vn 0.5132 -0.7738 0.3711
vn -0.0000 -0.9570 0.2902
vn 0.3616 -0.8883 0.2830
vn 0.5182 -0.5889 0.6203
vn -0.0000 -0.8498 0.5271
vn 0.3691 -0.8011 0.4712
vn -0.6140 0.6140 -0.4959
vn -0.0000 0.9327 -0.3606
vn 0.4791 0.8718 -0.1021
vn 0.7512 0.5456 0.3716
vn 0.7770 0.5102 0.3689
vn 0.8026 0.4800 0.3541
vn 0.5642 0.5877 -0.5799
vn 0.3456 0.5891 -0.7305
vn 0.7390 0.6368 0.2201
vn 0.8424 0.4881 0.2283
vn 0.9074 0.3833 0.1721
vn 0.7782 0.3538 0.5189
vn 0.7782 0.3537 0.5189
vn 0.7217 0.4001 0.5648
vn 0.5841 0.5289 0.6157
vn -0.0000 0.6832 0.7303
vn 0.6597 0.1414 0.7382
vn 0.8176 -0.0472 0.5739
vn 0.8740 0.2205 0.4331
vn 0.7633 0.5351 -0.3620
vn 0.8329 0.4556 -0.3143
vn 0.9060 0.2994 -0.2994
vn 0.8121 0.5519 -0.1892
vn 0.8418 0.5114 -0.1731
vn 0.9039 0.4008 -0.1493
vn 0.5272 0.8498 0.0001
vn 0.6236 0.7342 0.2684
vn -0.0000 0.9638 0.2665
vn 0.9295 0.1024 0.3544
vn 0.8988 0.2681 0.3469
vn 0.9940 -0.1096 -0.0000
vn 0.9830 -0.1258 -0.1337
vn 0.9441 -0.1809 -0.2754
vn 0.9482 -0.0862 0.3056
vn 0.9397 0.0940 0.3288
vn 0.9670 -0.0393 0.2516
vn 0.9940 -0.0000 0.1096
vn 0.6313 -0.4024 0.6629
vn 0.8173 -0.0550 0.5736
vn 0.8176 -0.0471 0.5739
vn 0.9730 -0.1883 -0.1334
vn 0.9093 -0.3057 -0.2822
vn 0.9062 -0.1891 -0.3782
vn 0.6267 -0.1332 -0.7678
vn 0.8916 -0.1736 -0.4182
vn 0.7635 -0.1023 -0.6376
vn 0.6140 0.6140 -0.4960
vn 0.9014 0.0392 -0.4311
vn -0.0000 -0.3233 -0.9463
vn 0.6716 -0.2765 -0.6874
vn 0.6915 -0.1022 0.7151
vn 0.8919 -0.3236 0.3157
vn 0.9071 0.0946 0.4101
vn 0.6945 -0.6707 0.2604
vn 0.5650 -0.6983 0.4394
vn 0.6975 0.0705 0.7131
vn 0.8903 -0.2284 0.3939
vn 0.9062 0.1891 0.3782
vn 0.7014 -0.5831 0.4098
vn 0.5721 -0.5720 0.5878
vn 0.5344 -0.2436 0.8094
vn 0.6313 -0.4025 0.6629
vn 0.5583 0.2123 0.8020
vn 0.5331 -0.1098 0.8389
vn 0.7858 0.2829 0.5501
vn -0.0000 -0.3605 0.9327
vn 0.4326 -0.3618 0.8258
vn 0.6984 -0.1569 0.6983
vn 0.5808 -0.7691 -0.2669
vn -0.0000 0.9940 -0.1096
vn -0.4486 0.8736 -0.1889
vn -0.4791 0.8718 -0.1021
vn -0.7618 0.6440 -0.0707
vn -0.8643 0.5029 -0.0000
vn -0.9094 0.4155 -0.0157
vn -0.0000 0.9997 -0.0237
vn 0.4486 0.8736 -0.1889
vn -0.3691 -0.8011 0.4712
vn -0.5182 -0.5888 0.6203
vn -0.6313 -0.4025 0.6629
vn -0.8176 -0.0472 0.5739
vn -0.6915 -0.1022 0.7151
vn -0.0000 0.2203 0.9754
vn -0.7775 0.2906 0.5576
vn -0.9530 0.2757 -0.1260
vn -0.7829 0.5793 0.2270
vn -0.5272 0.8498 -0.0000
vn -0.8988 0.2681 0.3469
vn -0.9294 0.1021 0.3547
vn -0.8740 0.2205 0.4331
vn -0.6597 0.1414 0.7382
vn -0.0000 0.4472 0.8944
vn -0.7501 0.3632 0.5527
vn -0.9482 -0.0862 0.3056
vn -0.9749 -0.1179 0.1887
vn -0.9196 -0.1336 0.3694
vn -0.9029 -0.0707 0.4240
vn -0.9903 -0.1022 0.0943
vn -0.9788 -0.1488 0.1410
vn -0.9730 -0.1883 -0.1334
vn -0.9670 -0.0393 0.2516
vn -0.9397 0.0940 0.3289
vn -0.9940 -0.0000 0.1096
vn -0.9380 0.1025 0.3311
vn -0.8176 -0.0471 0.5739
vn -0.8173 -0.0550 0.5736
vn -0.6313 -0.4024 0.6629
vn -0.9442 -0.1810 -0.2754
vn -0.9940 -0.1096 -0.0000
vn -0.9062 -0.1891 -0.3782
vn -0.9093 -0.3057 -0.2822
vn -0.9763 -0.2047 -0.0709
vn -0.6267 -0.1332 -0.7678
vn -0.8916 -0.1736 -0.4182
vn -0.9830 -0.1259 -0.1337
vn -0.6236 0.7342 0.2684
vn -0.5272 0.8498 0.0001
vn -0.0000 0.9985 0.0551
vn -0.6716 -0.2765 -0.6874
vn -0.5835 0.0079 -0.8121
vn -0.9014 0.0392 -0.4311
vn -0.3610 -0.9261 0.1099
vn -0.5117 -0.8344 0.2047
vn -0.6945 -0.6707 0.2604
vn -0.8920 -0.3236 0.3157
vn -0.5650 -0.6983 0.4394
vn -0.9071 0.0946 0.4101
vn -0.6975 0.0705 0.7131
vn -0.0000 0.4567 0.8896
vn -0.7919 0.4077 0.4547
vn -0.3616 -0.8883 0.2830
vn -0.5133 -0.7738 0.3711
vn -0.7014 -0.5831 0.4098
vn -0.8903 -0.2284 0.3939
vn -0.5721 -0.5720 0.5878
vn -0.9062 0.1891 0.3782
vn -0.5344 -0.2436 0.8094
vn -0.6742 0.4469 0.5880
vn -0.7858 0.2829 0.5501
vn -0.7226 0.5577 0.4084
vn -0.6456 0.5117 0.5669
vn -0.0000 0.8554 0.5180
vn -0.5892 -0.7227 0.3614
vn -0.7923 -0.0863 0.6040
vn -0.8915 -0.3708 0.2603
vn -0.8869 -0.0785 0.4552
vn 0.9068 -0.0552 0.4179
vn 0.9518 -0.0079 -0.3068
vn 0.9038 -0.0550 -0.4244
vn 0.9380 0.1025 0.3311
vn 0.9887 0.1020 0.1099
vn 0.9719 0.1176 -0.2038
vn 0.8922 0.0704 -0.4461
vn 0.9837 -0.0865 0.1574
vn 0.9899 0.0078 0.1415
vn 0.9574 0.1962 0.2119
vn -0.0000 -0.9658 0.2591
vn -0.0000 -0.6912 0.7226
vn -0.0000 -0.2426 0.9701
vn -0.0000 -0.8944 0.4472
vn -0.0000 -0.4783 0.8782
vn -0.0000 0.0157 0.9999
vn -0.0000 -0.5475 0.8368
vn -0.0000 -0.2037 0.9790
vn -0.0000 0.0863 0.9963
vn 0.7923 -0.0863 0.6040
vn 0.5892 -0.7227 0.3614
vn -0.8026 0.4800 0.3541
vn -0.7770 0.5102 0.3689
vn -0.7512 0.5456 0.3716
vn -0.6616 0.6381 0.3939
vn -0.5279 0.7564 0.3861
vn -0.0000 0.9354 0.3537
vn -0.0000 0.5565 -0.8308
vn -0.3456 0.5891 -0.7305
vn -0.5642 0.5877 -0.5799
vn -0.7350 0.5137 -0.4426
vn -0.7958 0.4964 -0.3467
vn -0.8315 0.4472 -0.3295
vn -0.9074 0.3833 0.1721
vn -0.8424 0.4881 0.2283
vn -0.7390 0.6368 0.2201
vn -0.5115 0.8262 0.2361
vn -0.3377 0.9188 0.2042
vn -0.0000 0.9737 0.2277
vn -0.0000 0.7492 0.6623
vn -0.5841 0.5289 0.6157
vn -0.7217 0.4001 0.5648
vn -0.7782 0.3537 0.5188
vn -0.7782 0.3538 0.5189
vn -0.9060 0.2994 -0.2994
vn -0.8328 0.4557 -0.3143
vn -0.7633 0.5351 -0.3620
vn -0.5425 0.7154 -0.4403
vn -0.3287 0.7748 -0.5400
vn -0.0000 0.7778 -0.6285
vn -0.9039 0.4008 -0.1493
vn -0.8418 0.5114 -0.1731
vn -0.8121 0.5519 -0.1892
vn -0.6043 0.7535 -0.2590
vn -0.4404 0.8571 -0.2673
vn -0.0000 0.9678 -0.2517
vn -0.9068 -0.0552 0.4179
vn -0.9038 -0.0550 -0.4244
vn -0.9518 -0.0079 -0.3068
vn -0.9887 0.1020 0.1099
vn -0.9719 0.1176 -0.2038
vn -0.8922 0.0704 -0.4461
vn -0.9574 0.1962 0.2119
vn -0.9899 0.0079 0.1415
vn -0.9837 -0.0865 0.1574
vn 0.3768 0.0079 -0.9263
vn -0.0000 0.0393 -0.9992
vn -0.0000 -0.0158 -0.9999
vn -0.3768 0.0079 -0.9263
vn -0.7635 -0.1023 -0.6376
vn -0.6984 -0.1569 0.6983
vn -0.5331 -0.1097 0.8389
vn -0.5583 0.2123 0.8020
vn -0.0000 0.5709 0.8210
vn -0.0000 -0.0863 0.9963
vn -0.0000 0.2277 0.9737
vn 0.6456 0.5117 0.5669
vn 0.7226 0.5577 0.4084
vn -0.5808 -0.7691 -0.2668
vn -0.0000 0.9985 0.0550
vn 0.7775 0.2906 0.5576
vn 0.7919 0.4077 0.4547
vn 0.7501 0.3632 0.5527
vn -0.4326 -0.3618 0.8258
vn 0.6742 0.4469 0.5880
vt 0.417664 0.776276
vt 0.377258 0.988464
vt 0.434357 0.776276
vt 0.695038 0.988464
vt 0.746002 0.776276
vt 0.936371 0.988464
vt 0.988861 0.777740
vt 0.986389 0.988464
vt 0.986816 0.776276
vt 0.669678 0.988464
vt 0.625641 0.776276
vt 0.413452 0.988464
vt 0.668610 0.988464
vt 0.618500 0.776276
vt 0.405121 0.987457
vt 0.837708 0.389893
vt 0.632172 0.373779
vt 0.700745 0.401733
vt 0.149048 0.397064
vt 0.274689 0.273224
vt 0.199951 0.383881
vt 0.312775 0.630188
vt 0.337555 0.515320
vt 0.340424 0.578552
vt 0.011475 0.490723
vt 0.144409 0.644470
vt 0.012634 0.645477
vt 0.306549 0.370453
vt 0.408691 0.284912
vt 0.393738 0.323517
vt 0.791473 0.677429
vt 0.668152 0.755493
vt 0.801605 0.750763
vt 0.226990 0.520142
vt 0.196747 0.429840
vt 0.618378 0.988464
vt 0.553558 0.776276
vt 0.794861 0.776276
vt 0.949127 0.988464
vt 0.949554 0.776276
vt 0.789124 0.521576
vt 0.983856 0.589844
vt 0.960175 0.428894
vt 0.492371 0.704407
vt 0.625824 0.653473
vt 0.436584 0.607727
vt 0.453369 0.480255
vt 0.541504 0.011688
vt 0.750183 0.161926
vt 0.763916 0.011688
vt 0.324585 0.735443
vt 0.358154 0.830322
vt 0.268188 0.755463
vt 0.738251 0.297028
vt 0.426331 0.140167
vt 0.440063 0.217468
vt 0.296936 0.122559
vt 0.481171 0.216370
vt 0.543060 0.256226
vt 0.512665 0.122803
vt 0.125336 0.284637
vt 0.070862 0.435852
vt 0.019806 0.312317
vt 0.148041 0.866913
vt 0.295532 0.914398
vt 0.154541 0.976868
vt 0.238708 0.641541
vt 0.012634 0.757904
vt 0.148560 0.761810
vt 0.921814 0.742401
vt 0.781372 0.604065
vt 0.307526 0.357941
vt 0.957642 0.776276
vt 0.568237 0.776276
vt 0.952850 0.988464
vt 0.668152 0.428894
vt 0.796906 0.439087
vt 0.439819 0.047943
vt 0.631866 0.528778
vt 0.305573 0.388245
vt 0.378815 0.367371
vt 0.545837 0.339417
vt 0.143921 0.117859
vt 0.011322 0.156067
vt 0.336304 0.019989
vt 0.182526 0.011078
vt 0.044281 0.022186
vt 0.953033 0.375366
vt 0.988281 0.239960
vt 0.935120 0.039703
vt 0.668152 0.677521
vt 0.668152 0.599548
vt 0.668152 0.514221
vt 0.471741 0.337952
vt 0.936798 0.776276
vt 0.413879 0.776276
vt 0.470154 0.776276
vt 0.089813 0.990082
vt 0.012634 0.985840
vt 0.012634 0.881836
vt 0.337555 0.430664
s 1
usemtl m_hair0112
f 1/1/1 2/2/2 3/3/3
f 4/4/4 5/5/5 6/6/6
f 7/7/7 8/8/8 9/9/9
f 10/10/10 11/11/11 12/12/12
f 13/13/13 14/14/14 15/15/15
f 16/13/16 17/14/17 18/2/18
f 19/16/19 20/17/20 21/18/21
f 22/19/22 23/20/23 24/21/24
f 25/22/25 26/23/26 27/24/27
f 28/25/28 29/26/29 30/27/30
f 31/28/31 32/29/19 33/30/32
f 34/31/33 35/32/34 36/33/35
f 37/31/36 38/32/37 39/33/38
f 40/31/39 41/32/40 42/33/41
f 28/25/28 43/34/42 44/35/43
f 2/2/2 1/1/1 45/36/44
f 5/5/5 4/4/4 46/37/45
f 46/37/45 4/4/4 47/2/46
f 46/37/45 47/2/46 48/3/47
f 8/8/8 7/7/7 49/13/48
f 49/13/48 7/7/7 50/14/49
f 49/13/48 50/14/49 51/2/28
f 11/11/11 10/10/10 52/38/50
f 52/38/50 10/10/10 53/39/51
f 52/38/50 53/39/51 54/40/52
f 55/8/53 56/7/54 57/13/55
f 57/13/55 56/7/54 58/14/56
f 57/13/55 58/14/56 59/2/57
f 60/41/58 61/42/59 62/43/60
f 14/14/14 13/13/13 63/7/61
f 63/7/61 13/13/13 64/8/62
f 63/7/61 64/8/62 65/9/63
f 17/14/17 16/13/16 66/7/64
f 66/7/64 16/13/16 67/8/65
f 66/7/64 67/8/65 68/9/66
f 69/44/27 70/45/67 71/46/68
f 71/46/68 70/45/67 72/47/69
f 73/48/60 74/49/70 75/50/71
f 76/51/72 77/52/73 78/53/74
f 20/17/20 19/16/19 79/54/75
f 80/55/76 81/56/77 82/57/78
f 83/58/79 84/59/80 85/60/81
f 23/20/23 22/19/22 86/61/82
f 86/61/82 22/19/22 87/62/83
f 86/61/82 87/62/83 88/63/84
f 89/64/85 90/65/86 91/66/87
f 26/23/26 25/22/25 92/34/88
f 92/34/88 25/22/25 93/67/89
f 92/34/88 93/67/89 29/26/29
f 94/68/90 95/69/91 89/64/85
f 89/64/85 95/69/91 78/53/74
f 89/64/85 78/53/74 90/65/86
f 90/65/86 78/53/74 77/52/73
f 29/26/29 28/25/28 92/34/88
f 92/34/88 28/25/28 44/35/43
f 92/34/88 44/35/43 26/23/26
f 96/41/92 97/42/93 98/43/94
f 36/33/35 99/70/95 34/31/33
f 34/31/33 99/70/95 97/42/93
f 34/31/33 97/42/93 100/71/96
f 100/71/96 97/42/93 96/41/92
f 101/41/97 102/42/98 103/43/99
f 39/33/38 104/70/100 37/31/36
f 37/31/36 104/70/100 102/42/98
f 37/31/36 102/42/98 105/71/101
f 105/71/101 102/42/98 101/41/97
f 60/41/58 106/71/102 61/42/59
f 61/42/59 106/71/102 40/31/39
f 61/42/59 40/31/39 107/70/103
f 107/70/103 40/31/39 42/33/41
f 108/71/104 109/31/105 110/42/106
f 111/32/107 112/33/108 109/31/105
f 109/31/105 112/33/108 113/70/109
f 109/31/105 113/70/109 110/42/106
f 32/29/19 31/28/31 114/72/110
f 115/73/111 116/74/112 117/36/113
f 117/36/113 116/74/112 118/1/114
f 117/36/113 118/1/114 119/2/115
f 119/2/115 118/1/114 120/3/116
f 117/36/113 121/75/117 115/73/111
f 115/73/111 121/75/117 45/36/44
f 115/73/111 45/36/44 122/74/118
f 122/74/118 45/36/44 1/1/1
f 123/33/119 124/31/120 125/70/121
f 125/70/121 124/31/120 126/42/122
f 127/41/123 128/76/124 129/77/125
f 130/22/126 131/24/127 132/23/128
f 133/50/129 134/49/130 135/48/131
f 136/41/132 137/76/133 138/77/134
f 139/54/135 140/16/136 141/17/137
f 141/17/137 140/16/136 142/18/138
f 143/21/139 144/20/140 145/61/141
f 146/56/142 147/55/143 148/57/144
f 148/57/144 147/55/143 149/78/145
f 150/60/146 151/59/147 152/58/148
f 130/22/126 153/53/149 154/51/150
f 155/63/151 156/62/152 145/61/141
f 145/61/141 156/62/152 157/19/153
f 145/61/141 157/19/153 143/21/139
f 158/64/154 159/65/155 153/53/149
f 153/53/149 159/65/155 160/52/156
f 153/53/149 160/52/156 154/51/150
f 161/44/127 162/46/157 163/45/158
f 163/45/158 162/46/157 72/47/69
f 163/45/158 72/47/69 164/79/159
f 164/79/159 72/47/69 70/45/67
f 94/68/90 165/69/160 166/26/161
f 166/26/161 165/69/160 167/67/162
f 166/26/161 167/67/162 43/34/42
f 168/33/163 169/31/164 170/70/165
f 170/70/165 169/31/164 171/42/166
f 169/31/164 172/71/167 171/42/166
f 171/42/166 172/71/167 127/41/123
f 171/42/166 127/41/123 173/43/168
f 173/43/168 127/41/123 129/77/125
f 174/41/169 175/76/170 176/77/171
f 177/33/172 178/31/173 179/70/174
f 179/70/174 178/31/173 180/42/175
f 178/31/173 181/71/176 180/42/175
f 180/42/175 181/71/176 174/41/169
f 180/42/175 174/41/169 182/43/177
f 182/43/177 174/41/169 176/77/171
f 138/77/134 183/43/131 136/41/132
f 136/41/132 183/43/131 126/42/122
f 136/41/132 126/42/122 184/71/178
f 184/71/178 126/42/122 124/31/120
f 185/43/179 186/42/180 187/77/181
f 187/77/181 186/42/180 188/41/182
f 187/77/181 188/41/182 189/76/183
f 190/80/184 191/81/185 192/28/186
f 192/28/186 191/81/185 193/30/187
f 73/48/60 85/60/81 74/49/70
f 74/49/70 85/60/81 84/59/80
f 74/49/70 84/59/80 79/54/75
f 79/54/75 84/59/80 194/82/188
f 79/54/75 194/82/188 20/17/20
f 81/56/77 23/20/23 82/57/78
f 82/57/78 23/20/23 86/61/82
f 82/57/78 86/61/82 195/83/189
f 195/83/189 86/61/82 88/63/84
f 195/83/189 88/63/84 196/84/190
f 197/78/191 80/55/76 198/85/192
f 198/85/192 80/55/76 82/57/78
f 198/85/192 82/57/78 199/86/193
f 199/86/193 82/57/78 195/83/189
f 199/86/193 195/83/189 200/87/194
f 200/87/194 195/83/189 196/84/190
f 19/16/19 201/88/195 79/54/75
f 79/54/75 201/88/195 202/89/196
f 79/54/75 202/89/196 74/49/70
f 74/49/70 202/89/196 203/90/197
f 74/49/70 203/90/197 75/50/71
f 35/32/34 34/31/33 204/91/198
f 204/91/198 34/31/33 100/71/96
f 204/91/198 100/71/96 205/92/199
f 205/92/199 100/71/96 96/41/92
f 205/92/199 96/41/92 206/93/200
f 38/32/37 37/31/36 207/91/201
f 207/91/201 37/31/36 105/71/101
f 207/91/201 105/71/101 208/92/202
f 208/92/202 105/71/101 101/41/97
f 208/92/202 101/41/97 209/93/203
f 41/32/40 40/31/39 210/91/204
f 210/91/204 40/31/39 106/71/102
f 210/91/204 106/71/102 211/92/205
f 211/92/205 106/71/102 60/41/58
f 211/92/205 60/41/58 212/93/206
f 32/29/19 213/94/21 33/30/32
f 33/30/32 213/94/21 214/81/207
f 33/30/32 214/81/207 31/28/31
f 31/28/31 214/81/207 215/80/208
f 31/28/31 215/80/208 114/72/110
f 216/3/209 217/2/210 218/37/211
f 218/37/211 217/2/210 219/4/212
f 218/37/211 219/4/212 220/5/213
f 220/5/213 219/4/212 6/6/6
f 220/5/213 6/6/6 221/95/214
f 221/95/214 6/6/6 5/5/5
f 50/14/49 222/3/215 51/2/28
f 51/2/28 222/3/215 223/14/216
f 51/2/28 223/14/216 224/13/217
f 224/13/217 223/14/216 225/7/218
f 224/13/217 225/7/218 226/8/219
f 226/8/219 225/7/218 227/9/220
f 228/40/221 229/39/222 230/38/223
f 230/38/223 229/39/222 231/10/224
f 230/38/223 231/10/224 232/11/225
f 232/11/225 231/10/224 12/12/12
f 232/11/225 12/12/12 233/96/226
f 233/96/226 12/12/12 11/11/11
f 58/14/56 234/3/227 59/2/57
f 59/2/57 234/3/227 235/14/228
f 59/2/57 235/14/228 236/13/229
f 236/13/229 235/14/228 237/7/230
f 236/13/229 237/7/230 238/8/231
f 239/9/232 240/8/233 241/7/234
f 241/7/234 240/8/233 242/13/235
f 241/7/234 242/13/235 243/14/236
f 243/14/236 242/13/235 15/15/15
f 243/14/236 15/15/15 244/97/237
f 244/97/237 15/15/15 14/14/14
f 245/9/238 246/8/239 247/7/240
f 247/7/240 246/8/239 248/13/241
f 247/7/240 248/13/241 249/14/242
f 249/14/242 248/13/241 18/2/18
f 249/14/242 18/2/18 250/3/243
f 250/3/243 18/2/18 17/14/17
f 141/17/137 251/82/244 139/54/135
f 139/54/135 251/82/244 151/59/147
f 139/54/135 151/59/147 134/49/130
f 134/49/130 151/59/147 150/60/146
f 134/49/130 150/60/146 135/48/131
f 252/84/245 155/63/151 253/83/246
f 253/83/246 155/63/151 145/61/141
f 253/83/246 145/61/141 148/57/144
f 148/57/144 145/61/141 144/20/140
f 148/57/144 144/20/140 146/56/142
f 149/78/145 254/85/247 148/57/144
f 148/57/144 254/85/247 255/86/248
f 148/57/144 255/86/248 253/83/246
f 253/83/246 255/86/248 256/87/249
f 253/83/246 256/87/249 252/84/245
f 133/50/129 257/90/250 134/49/130
f 134/49/130 257/90/250 258/89/251
f 134/49/130 258/89/251 139/54/135
f 139/54/135 258/89/251 259/88/252
f 139/54/135 259/88/252 140/16/136
f 260/98/253 261/99/254 262/100/255
f 262/100/255 261/99/254 263/98/256
f 262/100/255 263/98/256 158/64/154
f 158/64/154 263/98/256 264/66/257
f 158/64/154 264/66/257 159/65/155
f 265/70/258 266/31/259 186/42/180
f 186/42/180 266/31/259 267/71/260
f 186/42/180 267/71/260 188/41/182
f 188/41/182 267/71/260 268/93/261
f 188/41/182 268/93/261 189/76/183
f 266/31/259 269/91/262 267/71/260
f 267/71/260 269/91/262 270/92/263
f 267/71/260 270/92/263 268/93/261
f 268/93/261 270/92/263 271/41/264
f 268/93/261 271/41/264 189/76/183
f 189/76/183 271/41/264 272/77/265
f 191/81/185 273/94/138 193/30/187
f 193/30/187 273/94/138 274/29/136
f 193/30/187 274/29/136 192/28/186
f 192/28/186 274/29/136 275/72/266
f 192/28/186 275/72/266 190/80/184
f 43/34/42 28/25/28 166/26/161
f 166/26/161 28/25/28 30/27/30
f 166/26/161 30/27/30 94/68/90
f 94/68/90 30/27/30 29/26/29
f 94/68/90 29/26/29 95/69/91
f 95/69/91 29/26/29 93/67/89
f 95/69/91 93/67/89 78/53/74
f 78/53/74 93/67/89 25/22/25
f 78/53/74 25/22/25 76/51/72
f 91/66/87 260/98/253 89/64/85
f 89/64/85 260/98/253 262/100/255
f 89/64/85 262/100/255 94/68/90
f 94/68/90 262/100/255 158/64/154
f 94/68/90 158/64/154 165/69/160
f 165/69/160 158/64/154 153/53/149
f 165/69/160 153/53/149 167/67/162
f 167/67/162 153/53/149 130/22/126
f 167/67/162 130/22/126 43/34/42
f 43/34/42 130/22/126 132/23/128
f 43/34/42 132/23/128 44/35/43
f 44/35/43 132/23/128 276/101/267
f 44/35/43 276/101/267 26/23/26
f 98/43/94 277/77/268 96/41/92
f 96/41/92 277/77/268 128/76/124
f 96/41/92 128/76/124 206/93/200
f 206/93/200 128/76/124 127/41/123
f 206/93/200 127/41/123 205/92/199
f 205/92/199 127/41/123 172/71/167
f 205/92/199 172/71/167 204/91/198
f 204/91/198 172/71/167 169/31/164
f 204/91/198 169/31/164 35/32/34
f 35/32/34 169/31/164 168/33/163
f 103/43/99 278/77/269 101/41/97
f 101/41/97 278/77/269 175/76/170
f 101/41/97 175/76/170 209/93/203
f 209/93/203 175/76/170 174/41/169
f 209/93/203 174/41/169 208/92/202
f 208/92/202 174/41/169 181/71/176
f 208/92/202 181/71/176 207/91/201
f 207/91/201 181/71/176 178/31/173
f 207/91/201 178/31/173 38/32/37
f 38/32/37 178/31/173 177/33/172
f 123/33/119 41/32/40 124/31/120
f 124/31/120 41/32/40 210/91/204
f 124/31/120 210/91/204 184/71/178
f 184/71/178 210/91/204 211/92/205
f 184/71/178 211/92/205 136/41/132
f 136/41/132 211/92/205 212/93/206
f 136/41/132 212/93/206 137/76/133
f 137/76/133 212/93/206 60/41/58
f 137/76/133 60/41/58 279/77/270
f 279/77/270 60/41/58 62/43/60
f 265/70/258 280/33/271 266/31/259
f 266/31/259 280/33/271 111/32/107
f 266/31/259 111/32/107 269/91/262
f 269/91/262 111/32/107 109/31/105
f 269/91/262 109/31/105 270/92/263
f 270/92/263 109/31/105 108/71/104
f 270/92/263 108/71/104 271/41/264
f 271/41/264 108/71/104 110/42/106
f 271/41/264 110/42/106 272/77/265
f 272/77/265 110/42/106 281/43/272
