mtllib m_hair007.mtl
o editpl_m-0000-1829
v -2.774215 59.306374 11.618527
v 0.000000 59.637333 12.758039
v -3.080354 60.427788 10.998334
v -7.490922 48.481041 -4.999656
v -6.499357 45.791576 -4.458668
v -6.174253 46.912991 -0.638878
v -5.074321 52.513630 7.717290
v -7.780805 55.595104 4.491539
v -5.849150 53.018105 5.706519
v -8.783207 53.943512 1.401034
v -8.200731 60.517757 3.206318
v -8.859065 60.308895 1.221702
v 0.000000 61.298569 11.685778
v 0.000000 62.632053 9.523321
v -3.475896 62.056889 9.242366
v -6.705255 63.065838 1.480239
v -4.751926 65.684608 -2.695229
v -7.331079 63.393585 -4.332390
v -4.099011 47.963711 -8.321799
v -4.462043 45.364220 -7.939968
v 4.621885 64.216171 -7.174816
v 0.000000 64.945572 -8.039351
v 0.000000 65.433983 -6.140663
v -7.856663 45.762657 -5.739404
v -4.713998 44.487007 -9.548735
v -5.028264 42.700459 -6.569566
v 0.000000 43.372025 -12.497266
v 0.000000 40.361237 -9.085457
v -4.621885 64.216171 -7.174816
v -4.426823 42.555866 -7.153145
v 2.202575 59.402771 11.618527
v 2.836526 55.138828 11.640197
v 5.282929 55.553333 9.778872
v -6.380152 59.036465 8.646832
v -5.859987 56.822556 9.360427
v -4.608339 59.932953 9.874515
v 3.475896 62.056889 9.242366
v 4.608339 59.932953 9.874515
v 6.252820 60.604511 7.480420
v 7.360880 57.895771 6.396951
v 8.739860 58.528774 3.799612
v 0.609569 54.856064 13.184702
v -2.096916 54.708256 12.064618
v 1.758267 52.870296 11.021500
v -8.501451 50.007320 2.240163
v -7.610126 50.698162 3.581424
v 5.028264 42.700459 -6.569566
v 7.856663 45.762657 -5.739404
v 5.841023 42.523731 -2.839441
v 8.783207 53.943512 1.401034
v 8.200731 60.517757 3.206318
v 7.195620 54.174862 3.716671
v -8.948468 60.058266 -0.569387
v -9.032453 55.370178 -4.638002
v -7.220002 51.000202 -7.325007
v -8.607110 51.758522 -4.253183
v -8.460813 48.044041 -6.798963
v 7.220002 51.000202 -7.325007
v 8.607110 51.758522 -4.253183
v 8.460813 48.044041 -6.798963
v 8.355155 47.587765 -2.659362
v -5.841023 42.523731 -2.839441
v -6.946374 49.403233 -0.351198
v -6.678163 48.705963 -0.578353
v 6.079432 51.276539 4.700760
v 7.610126 50.698162 3.581424
v 8.501451 50.007320 2.240163
v -5.269383 50.543926 6.837811
v -8.276588 53.914593 2.793106
v -6.838006 51.893478 3.985670
v -6.195927 49.657078 -1.911394
v -4.640850 52.478283 -9.180355
v 0.000000 52.259785 -11.097723
v -7.629091 57.253124 5.996441
v 0.000000 64.286865 6.588986
v -4.364512 63.711697 6.027076
v -3.475896 62.056889 9.242366
v -6.195927 49.657078 -1.911394
v -6.160707 51.960957 -2.465832
v -7.084543 52.198734 -5.064665
v 0.000000 66.741760 -2.146770
v 0.000000 65.883827 2.985888
v -4.554155 64.887733 2.415012
v 7.780805 55.595104 4.491539
v 8.276588 53.914593 2.793106
v 4.751926 65.684608 -2.695229
v 4.554155 64.887733 2.415012
v 6.705255 63.065838 1.480239
v 4.757345 58.091778 -10.998343
v 0.000000 57.735107 -13.100275
v 0.000000 61.439949 -11.599855
v 8.038179 58.772980 -6.903574
v 4.827784 62.230404 -8.634885
v 5.849150 53.018105 5.706519
v 5.269383 50.543926 6.837811
v 6.838006 51.893478 3.985670
v 4.713998 44.487007 -9.548735
v 5.315439 47.060799 -10.484255
v 4.984917 50.110142 -10.670313
v 7.352753 53.773212 -0.886955
v 6.678163 48.705963 -0.578353
v 5.561976 45.653408 0.555929
v 7.569488 47.411037 3.192869
v -7.195620 54.174862 3.716671
v -6.079432 51.276539 4.700760
v 7.331079 63.393585 -4.332390
v 7.983995 56.276306 -1.734303
v 9.029744 59.483101 -3.360255
v 8.907830 60.006855 -0.499148
v 8.859065 60.308895 1.221702
v 7.490922 48.481041 -4.999656
v 6.160707 51.960957 -2.465832
v 6.195927 49.657078 -1.911394
v -5.315439 47.060799 -10.484255
v 0.000000 46.424580 -13.673391
v -4.984917 50.110142 -10.670313
v 0.000000 49.316479 -13.507509
v 6.821751 53.480808 5.594436
v 7.103507 55.807178 7.316032
v 5.001172 58.705502 10.645646
v 3.080354 60.427788 10.998334
v 8.989106 56.003185 3.519405
v -4.741090 54.929970 9.920843
v -1.232683 53.342640 11.287509
v -6.255529 60.604511 7.480420
v 4.364512 63.711697 6.027076
v 6.195927 49.657078 -1.911394
v 6.174253 46.912991 -0.638878
v 6.499357 45.791576 -4.458668
v 4.099011 47.963711 -8.321799
v 4.462043 45.364220 -7.939968
v 0.000000 48.391071 -10.379643
v 0.000000 45.531303 -10.659104
v 0.000000 62.632053 9.523321
v 3.475896 62.056889 9.242366
v 6.252820 60.604511 7.480420
v 7.455702 57.253124 5.996441
v 5.074321 52.513630 7.717290
v 4.640850 52.478283 -9.180355
v 7.084543 52.198734 -5.064665
v 0.000000 53.326572 -12.755805
v 4.063791 53.564350 -10.506672
v 6.699837 54.232700 -7.889158
v 9.032453 55.370178 -4.638002
v -8.523125 47.677734 -2.656373
v -7.702239 51.800297 -2.570443
v -7.983995 56.276306 -1.734303
v -9.029744 59.483101 -3.360255
v 7.702239 51.800297 -2.570443
v -7.257931 53.773212 -0.886955
v -5.561976 45.653408 0.555929
v -7.569488 47.411037 3.192869
v -4.443078 45.001125 4.070854
v -4.044827 47.186111 7.033584
v -5.526756 49.364674 4.916707
v -4.735671 49.380741 7.020880
v 4.735671 49.380741 7.020880
v 5.526756 49.364674 4.916707
v 4.044827 47.186111 7.033584
v 4.443078 45.001125 4.070854
v 5.654088 53.130566 7.931742
v 3.272706 53.872822 10.348253
v -6.255529 60.604511 7.480420
v -7.629091 57.253124 5.996441
v -6.404535 55.029579 7.438576
v -4.231761 53.856754 9.271508
v -6.388280 44.117489 0.662782
v -7.092670 49.310051 -2.098199
v -6.274494 51.041973 -1.502664
v -6.629398 54.717896 1.209746
v -6.699837 54.232700 -7.889158
v -8.038179 58.772980 -6.903574
v -4.827784 62.230404 -8.634885
v -4.757345 58.091778 -10.998343
v -4.063791 53.564350 -10.506672
v 0.000000 51.562515 -12.680336
v 6.388280 44.117489 0.662782
v 7.092670 49.310051 -2.098199
v 6.274494 51.041973 -1.502664
v 6.629398 54.717896 1.209746
v 4.426823 42.555866 -7.153145
vn -0.5099 0.1490 0.8472
vn 0.0236 0.2830 0.9588
vn -0.4887 0.4730 0.7331
vn -0.9922 -0.0709 -0.1024
vn -0.9049 -0.2361 -0.3541
vn -0.9629 -0.0783 0.2583
vn -0.8511 -0.4256 0.3074
vn -0.9102 -0.2510 0.3295
vn -0.8304 -0.2585 0.4935
vn -0.9950 -0.0627 0.0783
vn -0.9119 0.2437 0.3302
vn -0.9788 0.1409 0.1488
vn -0.0000 0.6912 0.7226
vn -0.0000 0.8609 0.5088
vn -0.4090 0.7156 0.5663
vn -0.7299 0.6593 0.1805
vn -0.4086 0.9115 -0.0472
vn -0.8007 0.5573 -0.2198
vn -0.6047 -0.1728 -0.7775
vn -0.6284 0.0157 -0.7777
vn 0.3920 0.7997 -0.4547
vn -0.0000 0.7953 -0.6063
vn -0.0000 0.9570 -0.2902
vn -0.8495 -0.4719 -0.2359
vn -0.6532 -0.5194 -0.5509
vn -0.7418 -0.5998 -0.2999
vn -0.0000 -0.5420 -0.8404
vn -0.0000 -0.7847 -0.6199
vn -0.3920 0.7997 -0.4547
vn -0.5501 -0.6837 -0.4794
vn 0.4788 0.1963 0.8557
vn 0.5578 -0.2435 0.7935
vn 0.6530 -0.3068 0.6924
vn -0.8083 0.2119 0.5493
vn -0.7319 -0.0787 0.6768
vn -0.6454 0.3384 0.6848
vn 0.4090 0.7156 0.5662
vn 0.6909 0.4083 0.5966
vn 0.7885 0.3627 0.4968
vn 0.8635 0.1805 0.4710
vn 0.8561 0.1492 0.4948
vn 0.1177 -0.1963 0.9735
vn -0.5050 -0.3314 0.7970
vn -0.2052 -0.7734 0.5998
vn -0.9495 -0.1883 0.2511
vn -0.7776 -0.1414 0.6127
vn 0.7418 -0.5998 -0.2999
vn 0.8495 -0.4719 -0.2359
vn 0.7473 -0.6371 -0.1888
vn 0.9943 -0.0627 0.0861
vn 0.9057 0.2442 0.3466
vn 0.7847 -0.0079 0.6199
vn -0.9622 -0.1025 -0.2523
vn -0.9938 -0.0704 -0.0861
vn -0.8506 0.0788 -0.5198
vn -0.9973 0.0393 0.0628
vn -0.9234 -0.1330 -0.3600
vn 0.8506 0.0788 -0.5198
vn 0.9992 0.0315 0.0236
vn 0.9260 -0.1334 -0.3531
vn 0.8862 -0.0235 0.4627
vn -0.7473 -0.6371 -0.1888
vn 0.7014 0.2207 0.6778
vn 0.7776 -0.1414 0.6127
vn 0.9495 -0.1883 0.2511
vn -0.8561 -0.1728 0.4870
vn -0.8729 -0.1730 0.4561
vn -0.8546 -0.4547 0.2509
vn -0.9339 0.1177 0.3375
vn -0.6742 -0.1176 -0.7291
vn -0.0000 -0.2037 -0.9790
vn -0.9325 -0.0235 0.3604
vn -0.9950 -0.0627 0.0784
vn -0.8482 -0.1414 -0.5105
vn -0.8532 -0.2426 -0.4618
vn -0.0000 0.8865 0.4628
vn -0.5028 0.7778 0.3771
vn -0.4089 0.7157 0.5662
vn -0.9330 0.1020 0.3450
vn -0.9910 0.1022 -0.0865
vn -0.0000 0.9975 -0.0707
vn -0.0000 0.9658 0.2591
vn -0.4736 0.8525 0.2210
vn 0.9049 -0.2361 0.3541
vn 0.8729 -0.1730 0.4561
vn 0.4086 0.9115 -0.0471
vn 0.4736 0.8525 0.2210
vn 0.7299 0.6593 0.1805
vn 0.5971 0.1178 -0.7935
vn -0.0000 0.0393 -0.9992
vn -0.0000 0.5328 -0.8462
vn 0.8496 0.1573 -0.5034
vn 0.5356 0.5041 -0.6774
vn 0.8304 -0.2585 0.4935
vn 0.8561 -0.1728 0.4870
vn 0.8545 -0.4548 0.2509
vn 0.6532 -0.5194 -0.5509
vn 0.6379 -0.2126 -0.7402
vn 0.6226 0.1261 -0.7723
vn 0.8439 -0.1578 -0.5127
vn 0.8593 -0.2444 -0.4493
vn 0.7943 -0.5662 -0.2202
vn 0.8096 -0.5266 0.2594
vn -0.7847 -0.0078 0.6199
vn -0.7014 0.2207 0.6778
vn 0.8205 0.5365 -0.1972
vn 0.9070 -0.2189 0.3597
vn 0.9958 0.0862 -0.0314
vn 0.9995 -0.0000 -0.0315
vn 0.9355 0.3301 0.1258
vn 0.9922 -0.0709 -0.1024
vn 0.9330 0.1020 0.3450
vn 0.9339 0.1177 0.3375
vn -0.6379 -0.2126 -0.7402
vn -0.0000 -0.0941 -0.9956
vn -0.6226 0.1261 -0.7723
vn -0.0000 0.2036 -0.9790
vn 0.7392 -0.4561 0.4954
vn 0.8557 -0.0864 0.5103
vn 0.7347 0.1738 0.6557
vn 0.4561 0.4954 0.7393
vn 0.8895 0.0866 0.4487
vn -0.5967 -0.4082 0.6909
vn -0.5117 -0.6456 0.5669
vn -0.7696 0.4555 0.4476
vn 0.5028 0.7778 0.3771
vn 0.9629 -0.0783 0.2583
vn 0.9049 -0.2361 -0.3541
vn 0.6047 -0.1728 -0.7775
vn 0.6284 0.0157 -0.7777
vn -0.0000 -0.0551 -0.9985
vn -0.0000 0.0941 -0.9956
vn -0.0000 0.8609 0.5087
vn 0.4089 0.7157 0.5662
vn 0.7885 0.3627 0.4967
vn 0.9256 -0.0392 0.3765
vn 0.8552 -0.4001 0.3295
vn 0.6742 -0.1176 -0.7291
vn 0.9910 0.1022 -0.0865
vn -0.0000 -0.0550 -0.9985
vn 0.5419 -0.0078 -0.8404
vn 0.7777 -0.0157 -0.6284
vn 0.9938 -0.0704 -0.0861
vn -0.9256 -0.0393 0.3765
vn -0.7772 -0.0393 0.6280
vn -0.9080 -0.2270 0.3522
vn -0.9958 0.0863 -0.0314
vn 0.7596 -0.0235 0.6500
vn -0.8253 -0.1572 -0.5424
vn -0.8531 -0.2426 -0.4618
vn -0.8532 -0.2427 -0.4618
vn -0.7943 -0.5662 -0.2202
vn -0.8096 -0.5266 0.2594
vn -0.6362 -0.7147 0.2906
vn -0.7067 -0.1100 0.6989
vn -0.7222 -0.3061 0.6202
vn -0.7864 -0.2281 0.5741
vn 0.7864 -0.2281 0.5741
vn 0.7223 -0.3062 0.6202
vn 0.7067 -0.1100 0.6989
vn 0.6362 -0.7147 0.2906
vn 0.5681 -0.4418 0.6943
vn 0.5606 -0.4738 0.6791
vn -0.7696 0.4554 0.4476
vn -0.9325 -0.0235 0.3605
vn -0.8026 -0.3069 0.5115
vn -0.7076 -0.4010 0.5818
vn -0.9326 -0.1646 0.3213
vn -0.6596 0.1413 0.7382
vn -0.7548 -0.1572 0.6369
vn -0.9143 -0.3232 0.2443
vn -0.7777 -0.0157 -0.6284
vn -0.8496 0.1573 -0.5034
vn -0.5356 0.5041 -0.6774
vn -0.5971 0.1178 -0.7935
vn -0.5419 -0.0078 -0.8404
vn -0.0000 0.1568 -0.9876
vn 0.9384 -0.1577 0.3075
vn 0.5888 0.1099 0.8008
vn 0.7548 -0.1572 0.6369
vn 0.9186 -0.2984 0.2591
vn 0.5501 -0.6837 -0.4794
vt 0.144592 0.863190
vt 0.222321 0.846741
vt 0.141144 0.825500
vt 0.035156 0.574219
vt 0.143372 0.585175
vt 0.144531 0.761719
vt 0.154694 0.493103
vt 0.271027 0.389587
vt 0.227203 0.476166
vt 0.382477 0.445099
vt 0.317352 0.224091
vt 0.388947 0.231049
vt 0.222321 0.804291
vt 0.222656 0.777344
vt 0.124908 0.793671
vt 0.379639 0.138397
vt 0.530273 0.050415
vt 0.589294 0.127411
vt 0.035156 0.402344
vt 0.144012 0.401947
vt 0.691803 0.099762
vt 0.795380 0.057770
vt 0.651428 0.044067
vt 0.605469 0.777344
vt 0.753906 0.816406
vt 0.636719 0.894531
vt 0.933594 0.855469
vt 0.808594 0.988281
vt 0.675781 0.886719
vt 0.295410 0.857330
vt 0.300781 0.949219
vt 0.366058 0.935730
vt 0.043701 0.878571
vt 0.059784 0.911224
vt 0.092438 0.846741
vt 0.319763 0.783051
vt 0.360352 0.846741
vt 0.392822 0.814911
vt 0.423157 0.890472
vt 0.465912 0.878571
vt 0.246094 0.957031
vt 0.160156 0.957031
vt 0.270538 0.986816
vt 0.352203 0.577332
vt 0.303833 0.554138
vt 0.480469 0.894531
vt 0.298950 0.437317
vt 0.453583 0.239471
vt 0.616913 0.405945
vt 0.699615 0.592621
vt 0.581726 0.545013
vt 0.665771 0.686401
vt 0.542725 0.643982
vt 0.263489 0.534698
vt 0.186401 0.559296
vt 0.332275 0.446045
vt 0.289276 0.513977
vt 0.021667 0.742432
vt 0.011902 0.402344
vt 0.011902 0.222656
vt 0.216736 0.333832
vt 0.445709 0.597626
vt 0.453888 0.621155
vt 0.195374 0.097351
vt 0.215637 0.116699
vt 0.099670 0.172333
vt 0.029663 0.742432
vt 0.011902 0.746094
vt 0.011902 0.574219
vt 0.510498 0.014801
vt 0.325348 0.043671
vt 0.345917 0.077209
vt 0.829742 0.305603
vt 0.977936 0.300110
vt 0.923798 0.175598
vt 0.682068 0.282684
vt 0.744476 0.166534
vt 0.796509 0.728790
vt 0.817902 0.635773
vt 0.465027 0.450775
vt 0.412964 0.723755
vt 0.317871 0.664612
vt 0.495605 0.366577
vt 0.554260 0.258820
vt 0.451050 0.241272
vt 0.981079 0.764130
vt 0.981079 0.658112
vt 0.441559 0.984680
vt 0.416107 0.930847
vt 0.360352 0.878571
vt 0.311646 0.825500
vt 0.490265 0.942230
vt 0.097656 0.957031
vt 0.197479 0.986816
vt 0.163208 0.221191
vt 0.035156 0.222656
vt 0.144531 0.222656
vt 0.089539 0.133209
vt 0.965515 0.448303
vt 0.819580 0.460236
vt 0.731812 0.441925
vt 0.617340 0.406372
vt 0.525757 0.517059
vt 0.288940 0.742920
vt 0.179321 0.672211
vt 0.255707 0.599030
vt 0.179810 0.598480
vt 0.384216 0.986816
vt 0.311646 0.974060
vt 0.027466 0.836121
vt 0.011169 0.902893
vt 0.035583 0.974060
vt 0.100555 0.984680
vt 0.402344 0.792969
vt 0.481201 0.622772
vt 0.487244 0.542633
vt 0.473511 0.424896
vt 0.965118 0.534119
s 1
usemtl m_hair0111
f 1/1/1 2/2/2 3/3/3
f 4/4/4 5/5/5 6/6/6
f 7/7/7 8/8/8 9/9/9
f 10/10/10 11/11/11 12/12/12
f 13/13/13 14/14/14 15/15/15
f 16/16/16 17/17/17 18/18/18
f 19/19/19 20/20/20 5/5/5
f 21/21/21 22/22/22 23/23/23
f 24/24/24 25/25/25 26/26/26
f 25/25/25 27/27/27 28/28/28
f 22/22/22 29/21/29 23/23/23
f 28/28/28 30/29/30 25/25/25
f 31/30/31 32/31/32 33/32/33
f 34/33/34 35/34/35 36/35/36
f 37/36/37 38/37/38 39/38/39
f 39/38/39 38/37/38 40/39/40
f 39/38/39 40/39/40 41/40/41
f 2/2/2 1/1/1 42/41/42
f 42/41/42 1/1/1 43/42/43
f 42/41/42 43/42/43 44/43/44
f 45/44/45 46/45/46 10/10/10
f 47/26/47 48/24/48 49/46/49
f 50/10/50 51/11/51 52/47/52
f 12/12/12 53/48/53 10/10/10
f 54/49/54 55/50/55 56/51/56
f 56/51/56 55/50/55 57/52/57
f 58/50/58 59/51/59 60/52/60
f 60/52/60 59/51/59 61/53/61
f 62/46/62 24/24/24 26/26/26
f 52/47/52 65/54/63 50/10/50
f 50/10/50 65/54/63 66/45/64
f 50/10/50 66/45/64 67/44/65
f 68/55/66 69/56/67 70/57/68
f 4/4/4 6/6/6 71/58/69
f 5/5/5 4/4/4 19/19/19
f 19/19/19 4/4/4 72/59/70
f 19/19/19 72/59/70 73/60/71
f 8/8/8 7/7/7 74/61/72
f 10/10/73 63/62/74 64/63/75
f 75/64/76 76/65/77 77/66/78
f 78/67/69 79/68/79 4/4/4
f 4/4/4 79/68/79 80/69/80
f 4/4/4 80/69/80 72/59/70
f 81/70/81 17/17/17 82/71/82
f 82/71/82 17/17/17 83/72/83
f 51/11/51 84/8/84 85/56/85
f 86/17/86 87/72/87 88/16/88
f 89/73/89 90/74/90 91/75/91
f 92/76/92 89/73/89 93/77/93
f 93/77/93 89/73/89 91/75/91
f 93/77/93 91/75/91 22/22/22
f 84/8/84 94/9/94 85/56/85
f 85/56/85 94/9/94 95/55/95
f 85/56/85 95/55/95 96/57/96
f 97/25/97 98/78/98 60/52/60
f 60/52/60 98/78/98 99/79/99
f 60/52/60 99/79/99 58/50/58
f 100/80/100 50/10/50 101/63/101
f 101/63/101 50/10/50 67/44/65
f 101/63/101 67/44/65 102/81/102
f 102/81/102 67/44/65 103/82/103
f 11/11/11 10/10/10 104/47/104
f 104/47/104 10/10/10 46/45/46
f 104/47/104 46/45/46 105/54/105
f 88/16/88 106/18/106 86/17/86
f 86/17/86 106/18/106 21/21/21
f 86/17/86 21/21/21 23/23/23
f 107/83/107 108/84/108 109/85/109
f 109/85/109 108/84/108 106/18/106
f 109/85/109 106/18/106 110/12/110
f 110/12/110 106/18/106 88/16/88
f 111/4/111 112/68/112 113/67/113
f 27/27/27 114/78/114 115/86/115
f 115/86/115 114/78/114 116/79/116
f 115/86/115 116/79/116 117/87/117
f 118/88/118 119/89/119 33/32/33
f 33/32/33 119/89/119 120/90/120
f 33/32/33 120/90/120 31/30/31
f 31/30/31 120/90/120 121/91/121
f 31/30/31 121/91/121 13/13/13
f 14/14/14 13/13/13 37/36/37
f 37/36/37 13/13/13 121/91/121
f 37/36/37 121/91/121 38/37/38
f 38/37/38 121/91/121 120/90/120
f 38/37/38 120/90/120 40/39/40
f 40/39/40 120/90/120 119/89/119
f 40/39/40 119/89/119 122/92/122
f 3/3/3 36/35/36 1/1/1
f 1/1/1 36/35/36 35/34/35
f 1/1/1 35/34/35 43/42/43
f 43/42/43 35/34/35 123/93/123
f 43/42/43 123/93/123 124/94/124
f 68/55/66 9/9/9 69/56/67
f 69/56/67 9/9/9 8/8/8
f 69/56/67 8/8/8 11/11/11
f 11/11/11 8/8/8 74/61/72
f 11/11/11 74/61/72 125/95/125
f 17/17/17 16/16/16 83/72/83
f 83/72/83 16/16/16 76/65/77
f 83/72/83 76/65/77 82/71/82
f 82/71/82 76/65/77 75/64/76
f 82/71/82 75/64/76 126/65/126
f 127/58/113 128/6/127 111/4/111
f 111/4/111 128/6/127 129/5/128
f 111/4/111 129/5/128 130/19/129
f 130/19/129 129/5/128 131/20/130
f 130/19/129 131/20/130 132/96/131
f 132/96/131 131/20/130 133/97/132
f 132/96/131 133/97/132 20/20/20
f 77/66/78 134/98/133 75/64/76
f 75/64/76 134/98/133 135/66/134
f 75/64/76 135/66/134 126/65/126
f 126/65/126 135/66/134 136/95/135
f 126/65/126 136/95/135 51/11/51
f 51/11/51 136/95/135 137/61/136
f 51/11/51 137/61/136 84/8/84
f 84/8/84 137/61/136 138/7/137
f 84/8/84 138/7/137 94/9/94
f 20/20/20 19/19/19 132/96/131
f 132/96/131 19/19/19 73/60/71
f 132/96/131 73/60/71 130/19/129
f 130/19/129 73/60/71 139/59/138
f 130/19/129 139/59/138 111/4/111
f 111/4/111 139/59/138 140/69/139
f 111/4/111 140/69/139 112/68/112
f 141/99/140 90/74/90 142/100/141
f 142/100/141 90/74/90 89/73/89
f 142/100/141 89/73/89 143/101/142
f 143/101/142 89/73/89 92/76/92
f 143/101/142 92/76/92 144/102/143
f 57/52/57 145/53/144 56/51/56
f 56/51/56 145/53/144 146/103/145
f 56/51/56 146/103/145 54/49/54
f 54/49/54 146/103/145 147/83/146
f 54/49/54 147/83/146 148/84/147
f 148/84/147 147/83/146 12/12/12
f 22/22/22 21/21/21 93/77/93
f 93/77/93 21/21/21 106/18/106
f 93/77/93 106/18/106 92/76/92
f 92/76/92 106/18/106 108/84/108
f 92/76/92 108/84/108 144/102/143
f 144/102/143 108/84/108 107/83/107
f 144/102/143 107/83/107 149/103/148
f 53/48/53 150/80/149 10/10/10
f 10/10/10 150/80/149 64/63/150
f 10/10/10 64/63/151 45/44/45
f 45/44/45 64/63/151 151/81/152
f 45/44/45 151/81/152 152/82/153
f 151/81/152 153/104/154 152/82/153
f 152/82/153 153/104/154 154/105/155
f 152/82/153 154/105/155 45/44/45
f 45/44/45 154/105/155 155/106/156
f 45/44/45 155/106/156 46/45/46
f 46/45/46 155/106/156 156/107/157
f 46/45/46 156/107/157 105/54/105
f 65/54/63 157/107/158 66/45/64
f 66/45/64 157/107/158 158/106/159
f 66/45/64 158/106/159 67/44/65
f 67/44/65 158/106/159 159/105/160
f 67/44/65 159/105/160 103/82/103
f 103/82/103 159/105/160 160/104/161
f 103/82/103 160/104/161 102/81/102
f 161/108/162 33/32/33 162/109/163
f 162/109/163 33/32/33 32/31/32
f 162/109/163 32/31/32 42/41/42
f 42/41/42 32/31/32 31/30/31
f 42/41/42 31/30/31 2/2/2
f 2/2/2 31/30/31 13/13/13
f 2/2/2 13/13/13 3/3/3
f 3/3/3 13/13/13 15/15/15
f 3/3/3 15/15/15 36/35/36
f 36/35/36 15/15/15 163/110/164
f 36/35/36 163/110/164 34/33/34
f 34/33/34 163/110/164 164/111/165
f 34/33/34 164/111/165 35/34/35
f 35/34/35 164/111/165 165/112/166
f 35/34/35 165/112/166 166/113/167
f 25/25/25 24/24/24 57/52/57
f 57/52/57 24/24/24 167/114/168
f 57/52/57 167/114/168 145/53/144
f 145/53/144 167/114/168 168/115/169
f 145/53/144 168/115/169 146/103/145
f 146/103/145 168/115/169 169/116/170
f 146/103/145 169/116/170 147/83/146
f 147/83/146 169/116/170 170/117/171
f 147/83/146 170/117/171 12/12/12
f 27/27/27 25/25/25 114/78/114
f 114/78/114 25/25/25 57/52/57
f 114/78/114 57/52/57 116/79/116
f 116/79/116 57/52/57 55/50/55
f 116/79/116 55/50/55 171/101/172
f 171/101/172 55/50/55 54/49/54
f 171/101/172 54/49/54 172/76/173
f 172/76/173 54/49/54 148/84/147
f 172/76/173 148/84/147 18/18/18
f 18/18/18 148/84/147 12/12/12
f 18/18/18 12/12/12 16/16/16
f 16/16/16 12/12/12 11/11/11
f 16/16/16 11/11/11 76/65/77
f 76/65/77 11/11/11 125/95/125
f 76/65/77 125/95/125 77/66/78
f 29/21/29 22/22/22 173/77/174
f 173/77/174 22/22/22 91/75/91
f 173/77/174 91/75/91 174/73/175
f 174/73/175 91/75/91 90/74/90
f 174/73/175 90/74/90 175/100/176
f 175/100/176 90/74/90 141/99/140
f 175/100/176 141/99/140 176/118/177
f 176/118/177 141/99/140 142/100/141
f 176/118/177 142/100/141 99/79/99
f 99/79/99 142/100/141 143/101/142
f 99/79/99 143/101/142 58/50/58
f 58/50/58 143/101/142 144/102/143
f 58/50/58 144/102/143 59/51/59
f 59/51/59 144/102/143 149/103/148
f 59/51/59 149/103/148 61/53/61
f 47/26/47 97/25/97 48/24/48
f 48/24/48 97/25/97 60/52/60
f 48/24/48 60/52/60 177/114/178
f 177/114/178 60/52/60 61/53/61
f 177/114/178 61/53/61 178/115/179
f 178/115/179 61/53/61 149/103/148
f 178/115/179 149/103/148 179/116/180
f 179/116/180 149/103/148 107/83/107
f 179/116/180 107/83/107 180/117/181
f 180/117/181 107/83/107 109/85/109
f 100/80/100 109/85/109 50/10/50
f 50/10/50 109/85/109 110/12/110
f 50/10/50 110/12/110 51/11/51
f 51/11/51 110/12/110 88/16/88
f 51/11/51 88/16/88 126/65/126
f 126/65/126 88/16/88 87/72/87
f 126/65/126 87/72/87 82/71/82
f 82/71/82 87/72/87 86/17/86
f 82/71/82 86/17/86 81/70/81
f 81/70/81 86/17/86 23/23/23
f 81/70/81 23/23/23 17/17/17
f 17/17/17 23/23/23 29/21/29
f 17/17/17 29/21/29 18/18/18
f 18/18/18 29/21/29 173/77/174
f 18/18/18 173/77/174 172/76/173
f 172/76/173 173/77/174 174/73/175
f 172/76/173 174/73/175 171/101/172
f 171/101/172 174/73/175 175/100/176
f 171/101/172 175/100/176 116/79/116
f 116/79/116 175/100/176 176/118/177
f 116/79/116 176/118/177 117/87/117
f 117/87/117 176/118/177 99/79/99
f 117/87/117 99/79/99 115/86/115
f 115/86/115 99/79/99 98/78/98
f 115/86/115 98/78/98 27/27/27
f 27/27/27 98/78/98 97/25/97
f 27/27/27 97/25/97 28/28/28
f 28/28/28 97/25/97 181/29/182
