mtllib m_hair026.mtl
o editpl_m-0000-1820
v -6.848843 59.103939 4.200123
v -6.263657 61.870522 3.363235
v -7.593871 59.505592 0.218932
v 0.000000 63.978394 -8.445839
v 0.000000 65.665329 -5.136399
v 1.880181 63.326111 -8.251561
v -4.659814 50.563206 -6.641300
v -2.963858 47.963711 -7.589523
v -4.383476 48.898758 -6.692858
v 5.399424 60.508118 6.033801
v 5.778711 61.549198 4.637246
v 4.586666 61.568478 6.572547
v 0.000000 63.978394 -8.445839
v 0.000000 60.376373 -11.030474
v -1.880181 63.326111 -8.251561
v 0.000000 66.137672 -1.049103
v -2.511423 65.308662 2.951516
v 0.000000 65.552872 3.444682
v -7.041195 59.595562 -5.459198
v -7.504468 55.122765 -3.325883
v -5.534884 50.572845 -2.960492
v -4.659814 50.563206 -6.641300
v -4.383476 48.898758 -6.692858
v -4.117975 61.963703 -8.235869
v -2.473494 63.027279 -7.855534
v -1.625516 59.830128 -10.383381
v -4.508099 63.798450 -4.586445
v -2.738995 64.694939 -3.815313
v 1.341051 48.021549 -9.748242
v 1.519858 42.726166 -12.685566
v 0.763993 48.252899 -10.173410
v -4.955116 62.635265 5.044481
v -4.632722 61.568478 6.572547
v -3.860602 62.230404 7.150895
v -4.640850 63.396801 4.079072
v -5.778711 61.549198 4.637246
v -5.399424 60.508118 6.033801
v -1.880181 63.326111 -8.251561
v -7.011394 55.652943 -0.070243
v -6.797368 52.831738 2.023469
v -6.607724 55.675434 3.040436
v -7.087252 54.753242 -5.820852
v -3.917495 54.907478 -10.053109
v -2.543933 51.671764 -9.354458
v -6.529158 56.880394 4.438486
v -5.954809 58.175320 6.645775
v 0.000000 60.530609 9.293178
v 0.000000 61.706646 8.930776
v -1.666154 60.925835 8.616196
v -2.557479 61.590973 7.963871
v -2.543933 51.671764 -9.354458
v 0.000000 63.033707 7.860008
v 0.000000 64.408966 6.257967
v -2.384091 62.767010 7.818163
v -2.440984 64.164757 5.767790
v -2.996369 62.195057 7.546922
v 6.607724 55.675434 3.040436
v 6.797368 52.831738 2.023469
v 7.011394 55.652943 -0.070243
v 6.848843 59.103939 4.200123
v 5.954809 58.175320 6.645775
v 6.529158 56.880394 4.438486
v 7.087252 54.753242 -5.820852
v 4.659814 50.563206 -6.641300
v 3.917495 54.907478 -10.053109
v 2.543933 51.671764 -9.354458
v 2.473494 63.027279 -7.855534
v 2.126717 65.315094 -4.086554
v 2.738995 64.694939 -3.815313
v 2.373254 65.697464 -1.099914
v 2.752541 65.077316 -1.052839
v 2.511423 65.315094 2.951516
v 1.880181 63.326111 -8.251561
v 2.543933 51.671764 -9.354458
v 4.659814 50.563206 -6.641300
v 2.963858 47.963711 -7.589523
v 4.383476 48.898758 -6.692858
v 1.825997 55.170959 -11.243431
v 1.625516 59.830128 -10.383381
v 2.473494 63.027279 -7.855534
v 1.709501 41.376614 -12.120667
v 2.010222 39.236610 -13.560561
v 2.354290 41.347694 -12.814088
v -1.709501 41.376614 -12.120667
v -2.010222 39.236610 -13.560561
v -1.105351 41.174183 -12.814088
v -1.519858 42.726166 -12.685566
v -0.763993 48.252899 -10.173410
v -1.113479 42.552650 -12.280572
v -0.241118 47.963711 -9.748242
v -0.815467 47.632751 -9.328305
v -3.018042 63.881996 4.774734
v -2.925930 64.781700 2.460592
v -2.373254 65.697464 -1.099914
v -2.752541 65.077316 -1.052839
v -2.126717 65.337585 -4.086554
v -2.738995 64.694939 -3.815313
v -2.473494 63.027279 -7.855534
v -3.974388 59.245323 -9.631677
v -1.825997 55.170959 -11.243431
v -6.957210 52.863869 -3.035214
v -6.003574 62.519592 -4.902519
v -4.581247 64.184036 1.565422
v -6.236565 62.638481 0.670252
v 0.000000 46.912991 -10.373666
v 0.000000 48.008698 -10.951268
v 0.000000 51.427563 -10.281011
v -1.825997 55.170959 -11.243431
v 0.000000 55.832886 -11.765738
v -1.625516 59.830128 -10.383381
v 7.593871 59.505592 0.218932
v 6.263657 61.870522 3.363235
v 4.955116 62.635265 5.044481
v -2.752541 65.077316 -1.052839
v -2.925930 64.781700 2.460592
v -3.018042 63.881996 4.774734
v -2.996369 62.195057 7.546922
v 1.666154 60.925835 8.616196
v 2.557479 61.590973 7.963871
v 2.384091 62.767010 7.818163
v 2.996369 62.195057 7.546922
v 2.440984 64.164757 5.767790
v 3.018042 63.881996 4.774734
v 2.925930 64.781700 2.460592
v 2.996369 62.195057 7.546922
v 3.784744 62.230404 7.150895
v 3.018042 63.881996 4.774734
v 4.640850 63.396801 4.079072
v 2.925930 64.781700 2.460592
v 4.581247 64.184036 1.565422
v 2.752541 65.077316 -1.052839
v 4.508099 63.798450 -4.586445
v 2.738995 64.694939 -3.815313
v 2.473494 63.027279 -7.855534
v 7.504468 55.122765 -3.325883
v 7.041195 59.595562 -5.459198
v 3.974388 59.245323 -9.631677
v 1.825997 55.170959 -11.243431
v 6.957210 52.863869 -3.035214
v 5.534884 50.572845 -2.960492
v 4.383476 48.898758 -6.692858
v 6.236565 62.638481 0.670252
v 6.003574 62.519592 -4.902519
v 4.117975 61.963703 -8.235869
v 1.625516 59.830128 -10.383381
v 1.953329 42.671539 -12.280572
v 0.815467 47.632751 -9.328305
v 1.544241 42.552650 -11.822526
v 0.241118 47.963711 -9.748242
v 1.113479 42.552650 -12.280572
v 0.763993 48.252899 -10.173410
v 1.519858 42.726166 -12.685566
v -0.763993 48.252899 -10.173410
v -1.519858 42.726166 -12.685566
v -1.341051 48.021549 -9.748242
v -1.953329 42.671539 -12.280572
v -1.544241 42.552650 -11.822526
v -2.473494 63.027279 -7.855534
v 0.000000 47.478516 -8.689431
v 1.105351 41.174183 -12.814088
v 1.671573 41.636887 -13.476125
v 1.953329 42.671539 -12.280572
v 1.544241 42.552650 -11.822526
v 1.113479 42.552650 -12.280572
v -2.354290 41.347694 -12.814088
v -1.671573 41.636887 -13.476125
v -1.113479 42.552650 -12.280572
v -1.544241 42.552650 -11.822526
v -1.953329 42.671539 -12.280572
vn -0.9303 0.1576 0.3311
vn -0.8576 0.4485 0.2518
vn -0.9916 0.1023 0.0787
vn -0.0000 0.7565 -0.6540
vn -0.0000 0.9570 -0.2902
vn 0.4729 0.6463 -0.5989
vn -0.7858 -0.2829 -0.5501
vn -0.6735 -0.4385 -0.5951
vn -0.8164 -0.1178 -0.5653
vn 0.8307 0.3213 0.4546
vn 0.8161 0.3845 0.4316
vn 0.7711 0.4091 0.4878
vn -0.0000 0.7564 -0.6541
vn -0.0000 0.4250 -0.9052
vn -0.4790 0.6438 -0.5968
vn -0.0000 0.9995 0.0315
vn -0.4086 0.8877 0.2121
vn -0.0000 0.9678 0.2518
vn -0.9167 0.1880 -0.3526
vn -0.9940 -0.1096 -0.0000
vn -0.8906 -0.3783 -0.2522
vn -0.7858 -0.2829 -0.5500
vn -0.8165 -0.1178 -0.5652
vn -0.5338 0.5574 -0.6359
vn -0.4626 0.6900 -0.5567
vn -0.4011 0.3618 -0.8416
vn -0.4733 0.8440 -0.2524
vn -0.5666 0.7870 -0.2440
vn 0.9256 0.2432 -0.2902
vn 0.1175 0.4936 -0.8617
vn -0.3388 0.3468 -0.8746
vn -0.7141 0.5572 0.4238
vn -0.7832 0.4073 0.4699
vn -0.4859 0.7367 0.4703
vn -0.5812 0.7539 0.3063
vn -0.8188 0.3858 0.4251
vn -0.8358 0.3154 0.4494
vn -0.4790 0.6439 -0.5967
vn -0.9808 -0.1255 0.1491
vn -0.9919 0.0157 0.1260
vn -0.9863 -0.0861 0.1409
vn -0.8977 -0.2126 -0.3859
vn -0.6483 -0.1976 -0.7353
vn -0.5523 -0.2446 -0.7969
vn -0.9703 -0.1174 0.2113
vn -0.9203 0.1023 0.3776
vn -0.0000 0.2902 0.9570
vn -0.0000 0.3863 0.9224
vn -0.3220 0.3299 0.8874
vn -0.4149 0.2427 0.8769
vn -0.0000 0.6990 0.7151
vn -0.0000 0.8677 0.4970
vn -0.3548 0.5597 0.7489
vn -0.5680 0.7180 0.4024
vn -0.6058 0.5665 0.5586
vn 0.9863 -0.0861 0.1409
vn 0.9919 0.0157 0.1260
vn 0.9808 -0.1255 0.1491
vn 0.9303 0.1576 0.3311
vn 0.9203 0.1023 0.3776
vn 0.9703 -0.1174 0.2113
vn 0.8977 -0.2126 -0.3859
vn 0.7858 -0.2829 -0.5500
vn 0.6483 -0.1976 -0.7353
vn 0.5516 -0.2450 -0.7973
vn 0.4626 0.6900 -0.5567
vn 0.5356 0.8035 -0.2599
vn 0.5578 0.7934 -0.2435
vn 0.4715 0.8801 -0.0550
vn 0.5968 0.8010 -0.0471
vn 0.4086 0.8877 0.2121
vn 0.4729 0.6462 -0.5990
vn 0.5523 -0.2446 -0.7969
vn 0.7858 -0.2829 -0.5501
vn 0.6734 -0.4385 -0.5951
vn 0.8165 -0.1178 -0.5653
vn 0.3678 -0.1096 -0.9234
vn 0.4011 0.3618 -0.8416
vn 0.0552 -0.4019 0.9140
vn 0.1255 -0.9883 -0.0863
vn 0.9982 0.0550 0.0236
vn -0.0552 -0.4019 0.9140
vn -0.1255 -0.9883 -0.0863
vn 0.9752 -0.2202 0.0236
vn -0.1175 0.4935 -0.8618
vn 0.3388 0.3467 -0.8746
vn 0.9620 0.0625 -0.2659
vn 0.9899 -0.1335 -0.0472
vn -0.3545 -0.3702 0.8587
vn -0.5424 0.7545 0.3694
vn -0.5901 0.7868 0.1810
vn -0.4715 0.8801 -0.0550
vn -0.5970 0.8012 -0.0393
vn -0.5356 0.8034 -0.2599
vn -0.5667 0.7870 -0.2440
vn -0.6220 0.1732 -0.7637
vn -0.3678 -0.1096 -0.9234
vn -0.9403 -0.3291 -0.0862
vn -0.7845 0.5883 -0.1961
vn -0.5736 0.8173 0.0550
vn -0.8059 0.5868 0.0782
vn -0.0000 -0.9719 -0.2352
vn -0.0000 -0.1644 -0.9864
vn -0.0000 -0.1886 -0.9821
vn -0.0000 -0.0785 -0.9969
vn 0.9916 0.1023 0.0787
vn 0.8576 0.4485 0.2518
vn 0.7054 0.5565 0.4389
vn -0.5970 0.8013 -0.0393
vn -0.5900 0.7868 0.1810
vn -0.5423 0.7546 0.3694
vn 0.3220 0.3299 0.8874
vn 0.4149 0.2427 0.8769
vn 0.3548 0.5597 0.7489
vn 0.6108 0.5638 0.5560
vn 0.5680 0.7180 0.4024
vn 0.5511 0.7479 0.3700
vn 0.5901 0.7868 0.1809
vn 0.4869 0.7304 0.4791
vn 0.5811 0.7540 0.3063
vn 0.5900 0.7868 0.1810
vn 0.5736 0.8173 0.0550
vn 0.4733 0.8440 -0.2524
vn 0.5577 0.7935 -0.2435
vn 0.9940 -0.1096 -0.0000
vn 0.9167 0.1880 -0.3526
vn 0.6220 0.1732 -0.7637
vn 0.9403 -0.3291 -0.0862
vn 0.8906 -0.3783 -0.2522
vn 0.8165 -0.1177 -0.5652
vn 0.8059 0.5868 0.0782
vn 0.7845 0.5883 -0.1961
vn 0.5338 0.5574 -0.6359
vn 0.9798 0.1960 0.0392
vn 0.3544 -0.3703 0.8586
vn 0.0393 -0.3301 0.9431
vn -0.9899 -0.1335 -0.0472
vn -0.9620 0.0625 -0.2659
vn -0.3388 0.3467 -0.8746
vn 0.1175 0.4935 -0.8618
vn -0.1175 0.4935 -0.8617
vn -0.9256 0.2432 -0.2902
vn -0.9798 0.1960 0.0392
vn -0.0393 -0.3301 0.9431
vn -0.0000 -0.9495 0.3139
vn -0.9752 -0.2202 0.0236
vn -0.0551 0.3857 -0.9210
vn -0.9620 0.0626 -0.2659
vn 0.1174 0.4936 -0.8617
vn -0.9982 0.0550 0.0236
vn 0.0551 0.3857 -0.9210
vn -0.0393 -0.3300 0.9431
vn -0.1175 0.4936 -0.8617
vt 0.867188 0.781250
vt 0.798157 0.676422
vt 0.730469 0.769531
vt 0.808594 0.253906
vt 0.652344 0.253906
vt 0.808594 0.058594
vt 0.879883 0.211914
vt 0.968750 0.280273
vt 0.945312 0.199219
vt 0.983704 0.745422
vt 0.876282 0.681641
vt 0.986328 0.671875
vt 0.142334 0.518219
vt 0.362305 0.518066
vt 0.142334 0.326813
vt 0.503906 0.253906
vt 0.355469 0.058594
vt 0.355469 0.253906
vt 0.468750 0.773438
vt 0.593750 0.859375
vt 0.476562 0.968750
vt 0.296875 0.953125
vt 0.281250 0.984375
vt 0.250000 0.632812
vt 0.179688 0.585938
vt 0.148438 0.734375
vt 0.398438 0.578125
vt 0.351562 0.539062
vt 0.031250 0.390625
vt 0.012665 0.742188
vt 0.012665 0.375000
vt 0.902344 0.628906
vt 0.986328 0.601562
vt 0.855469 0.589844
vt 0.734375 0.875000
vt 0.789062 0.968750
vt 0.836578 0.886047
vt 0.445312 0.867188
vt 0.257812 0.843750
vt 0.164062 0.921875
vt 0.915771 0.877594
vt 0.979370 0.812500
vt 0.012665 0.252502
vt 0.058594 0.253906
vt 0.023438 0.156250
vt 0.078125 0.117188
vt 0.808350 0.327637
vt 0.121094 0.253906
vt 0.222656 0.253906
vt 0.128204 0.092194
vt 0.222656 0.058594
vt 0.116730 0.062866
vt 0.808594 0.011719
vt 0.652344 0.058594
vt 0.652344 0.011719
vt 0.503906 0.058594
vt 0.503906 0.011719
vt 0.572266 0.327454
vt 0.362305 0.326660
vt 0.142792 0.276031
vt 0.117188 0.859375
vt 0.062500 0.960938
vt 0.062500 0.859375
vt 0.117188 0.742188
vt 0.117188 0.375000
vt 0.093750 0.742188
vt 0.093750 0.390625
vt 0.062500 0.406250
vt 0.230469 0.011719
vt 0.355469 0.011719
vt 0.257812 0.734375
vt 0.148438 0.835938
vt 0.550781 0.950317
vt 0.429688 0.640625
vt 0.718750 0.593750
vt 0.703125 0.648438
vt 0.975586 0.517578
vt 0.942383 0.517578
vt 0.809265 0.517914
vt 0.572540 0.517853
vt 0.554688 0.539062
vt 0.773438 0.539062
vt 0.859375 0.539062
vt 0.984375 0.539062
vt 0.031250 0.742188
vt 0.062500 0.742188
vt 0.987427 0.413513
vt 0.012665 0.859375
s 1
usemtl m_hair0104
f 1/1/1 2/2/2 3/3/3
f 4/4/4 5/5/5 6/6/6
f 7/7/7 8/8/8 9/9/9
f 10/10/10 11/11/11 12/12/12
f 13/13/13 14/14/14 15/15/15
f 16/16/16 17/17/17 18/18/18
f 19/19/19 20/20/20 3/3/3
f 21/21/21 22/22/22 23/23/23
f 24/24/24 25/25/25 26/26/26
f 27/27/27 28/28/28 25/25/25
f 29/29/29 30/30/30 31/31/31
f 32/32/32 33/12/33 34/33/34
f 34/33/34 35/34/35 32/32/32
f 2/2/2 1/1/1 36/11/36
f 36/11/36 1/1/1 37/10/37
f 36/11/36 37/10/37 33/12/33
f 5/5/5 4/4/4 38/6/38
f 39/35/39 40/36/40 41/37/41
f 42/38/42 43/39/43 22/22/22
f 22/22/22 43/39/43 44/40/44
f 3/3/3 45/41/45 1/1/1
f 1/1/1 45/41/45 46/42/46
f 1/1/1 46/42/46 37/10/37
f 47/43/47 48/44/48 49/45/49
f 49/45/49 48/44/48 50/46/50
f 8/8/8 7/7/7 51/47/44
f 52/48/51 53/49/52 54/50/53
f 54/50/53 53/49/52 55/51/54
f 54/50/53 55/51/54 56/52/55
f 57/37/56 58/36/57 59/35/58
f 11/11/11 10/10/10 60/1/59
f 60/1/59 10/10/10 61/42/60
f 60/1/59 61/42/60 62/41/61
f 63/38/62 64/22/63 65/39/64
f 65/39/64 64/22/63 66/40/65
f 67/53/66 68/54/67 69/55/68
f 69/55/68 68/54/67 70/56/69
f 69/55/68 70/56/69 71/57/70
f 71/57/70 70/56/69 72/17/71
f 14/14/14 13/13/13 73/15/72
f 74/47/73 75/7/74 76/8/75
f 76/8/75 75/7/74 77/9/76
f 78/58/77 14/14/14 79/59/78
f 79/59/78 14/14/14 73/15/72
f 79/59/78 73/15/72 80/60/66
f 81/61/79 82/62/80 83/63/81
f 84/61/82 85/62/83 86/63/84
f 87/64/85 88/65/86 89/66/87
f 89/66/87 88/65/86 90/67/88
f 89/66/87 90/67/88 91/68/89
f 92/69/90 17/17/17 93/70/91
f 93/70/91 17/17/17 94/56/92
f 93/70/91 94/56/92 95/57/93
f 95/57/93 94/56/92 96/54/94
f 95/57/93 96/54/94 97/55/95
f 97/55/95 96/54/94 98/53/25
f 17/17/17 16/16/16 94/56/92
f 94/56/92 16/16/16 5/5/5
f 94/56/92 5/5/5 96/54/94
f 96/54/94 5/5/5 38/6/38
f 96/54/94 38/6/38 98/53/25
f 20/20/20 19/19/19 42/38/42
f 42/38/42 19/19/19 99/71/96
f 42/38/42 99/71/96 43/39/43
f 43/39/43 99/71/96 100/72/97
f 43/39/43 100/72/97 44/40/44
f 22/22/22 21/21/21 42/38/42
f 42/38/42 21/21/21 101/73/98
f 42/38/42 101/73/98 20/20/20
f 20/20/20 101/73/98 39/35/39
f 20/20/20 39/35/39 3/3/3
f 3/3/3 39/35/39 41/37/41
f 3/3/3 41/37/41 45/41/45
f 25/25/25 24/24/24 27/27/27
f 27/27/27 24/24/24 102/74/99
f 27/27/27 102/74/99 103/75/100
f 103/75/100 102/74/99 104/76/101
f 103/75/100 104/76/101 35/34/35
f 105/77/102 8/8/8 106/78/103
f 106/78/103 8/8/8 51/47/44
f 106/78/103 51/47/44 107/79/104
f 107/79/104 51/47/44 108/58/97
f 107/79/104 108/58/97 109/80/105
f 109/80/105 108/58/97 110/59/26
f 62/41/61 111/3/106 60/1/59
f 60/1/59 111/3/106 112/2/107
f 60/1/59 112/2/107 11/11/11
f 11/11/11 112/2/107 113/32/108
f 11/11/11 113/32/108 12/12/12
f 28/28/28 27/27/27 114/81/109
f 114/81/109 27/27/27 103/75/100
f 114/81/109 103/75/100 115/82/110
f 115/82/110 103/75/100 35/34/35
f 115/82/110 35/34/35 116/83/111
f 116/83/111 35/34/35 34/33/34
f 116/83/111 34/33/34 117/84/55
f 47/43/47 118/45/112 48/44/48
f 48/44/48 118/45/112 119/46/113
f 48/44/48 119/46/113 120/50/114
f 120/50/114 119/46/113 121/52/115
f 120/50/114 121/52/115 122/51/116
f 122/51/116 121/52/115 123/69/117
f 122/51/116 123/69/117 124/70/118
f 125/84/115 126/33/119 127/83/117
f 127/83/117 126/33/119 128/34/120
f 127/83/117 128/34/120 129/82/121
f 129/82/121 128/34/120 130/75/122
f 129/82/121 130/75/122 131/81/70
f 131/81/70 130/75/122 132/27/123
f 131/81/70 132/27/123 133/28/124
f 133/28/124 132/27/123 134/25/66
f 111/3/106 135/20/125 136/19/126
f 136/19/126 135/20/125 63/38/62
f 136/19/126 63/38/62 137/71/127
f 137/71/127 63/38/62 65/39/64
f 137/71/127 65/39/64 138/72/77
f 138/72/77 65/39/64 66/40/65
f 62/41/61 57/37/56 111/3/106
f 111/3/106 57/37/56 59/35/58
f 111/3/106 59/35/58 135/20/125
f 135/20/125 59/35/58 139/73/128
f 135/20/125 139/73/128 63/38/62
f 63/38/62 139/73/128 140/21/129
f 63/38/62 140/21/129 64/22/63
f 64/22/63 140/21/129 141/23/130
f 56/52/55 50/46/50 54/50/53
f 54/50/53 50/46/50 48/44/48
f 54/50/53 48/44/48 52/48/51
f 52/48/51 48/44/48 120/50/114
f 52/48/51 120/50/114 53/49/52
f 53/49/52 120/50/114 122/51/116
f 53/49/52 122/51/116 72/17/71
f 72/17/71 122/51/116 124/70/118
f 72/17/71 124/70/118 71/57/70
f 128/34/120 142/76/131 130/75/122
f 130/75/122 142/76/131 143/74/132
f 130/75/122 143/74/132 132/27/123
f 132/27/123 143/74/132 144/24/133
f 132/27/123 144/24/133 134/25/66
f 134/25/66 144/24/133 145/26/78
f 30/30/30 29/29/29 146/85/134
f 146/85/134 29/29/29 147/68/135
f 146/85/134 147/68/135 148/86/136
f 148/86/136 147/68/135 149/67/137
f 148/86/136 149/67/137 150/66/138
f 150/66/138 149/67/137 151/65/139
f 150/66/138 151/65/139 152/64/140
f 153/31/86 154/30/141 155/29/142
f 155/29/142 154/30/141 156/85/143
f 155/29/142 156/85/143 91/68/89
f 91/68/89 156/85/143 157/86/144
f 91/68/89 157/86/144 89/66/87
f 33/12/33 32/32/32 36/11/36
f 36/11/36 32/32/32 35/34/35
f 36/11/36 35/34/35 2/2/2
f 2/2/2 35/34/35 104/76/101
f 2/2/2 104/76/101 3/3/3
f 3/3/3 104/76/101 102/74/99
f 3/3/3 102/74/99 19/19/19
f 19/19/19 102/74/99 24/24/24
f 19/19/19 24/24/24 99/71/96
f 99/71/96 24/24/24 26/26/26
f 99/71/96 26/26/26 100/72/97
f 67/53/66 6/6/6 68/54/67
f 68/54/67 6/6/6 5/5/5
f 68/54/67 5/5/5 70/56/69
f 70/56/69 5/5/5 16/16/16
f 70/56/69 16/16/16 72/17/71
f 72/17/71 16/16/16 18/18/18
f 72/17/71 18/18/18 53/49/52
f 53/49/52 18/18/18 17/17/17
f 53/49/52 17/17/17 55/51/54
f 55/51/54 17/17/17 92/69/90
f 55/51/54 92/69/90 56/52/55
f 138/72/77 145/26/78 137/71/127
f 137/71/127 145/26/78 144/24/133
f 137/71/127 144/24/133 136/19/126
f 136/19/126 144/24/133 143/74/132
f 136/19/126 143/74/132 111/3/106
f 111/3/106 143/74/132 142/76/131
f 111/3/106 142/76/131 112/2/107
f 112/2/107 142/76/131 128/34/120
f 112/2/107 128/34/120 113/32/108
f 113/32/108 128/34/120 126/33/119
f 113/32/108 126/33/119 12/12/12
f 158/60/25 15/15/15 110/59/26
f 110/59/26 15/15/15 14/14/14
f 110/59/26 14/14/14 109/80/105
f 109/80/105 14/14/14 78/58/77
f 109/80/105 78/58/77 107/79/104
f 107/79/104 78/58/77 74/47/73
f 107/79/104 74/47/73 106/78/103
f 106/78/103 74/47/73 76/8/75
f 106/78/103 76/8/75 105/77/102
f 105/77/102 76/8/75 159/87/145
f 105/77/102 159/87/145 8/8/8
f 81/61/79 160/63/146 82/62/80
f 82/62/80 160/63/146 161/88/147
f 82/62/80 161/88/147 83/63/81
f 83/63/81 161/88/147 162/86/134
f 83/63/81 162/86/134 81/61/79
f 81/61/79 162/86/134 163/64/136
f 81/61/79 163/64/136 160/63/146
f 160/63/146 163/64/136 164/86/148
f 160/63/146 164/86/148 161/88/147
f 161/88/147 164/86/148 30/30/149
f 161/88/147 30/30/149 162/86/134
f 84/61/82 165/63/150 85/62/83
f 85/62/83 165/63/150 166/88/151
f 85/62/83 166/88/151 86/63/84
f 86/63/84 166/88/151 167/86/87
f 86/63/84 167/86/87 84/61/82
f 84/61/82 167/86/87 168/64/152
f 84/61/82 168/64/152 165/63/150
f 165/63/150 168/64/152 169/86/143
f 165/63/150 169/86/143 166/88/151
f 166/88/151 169/86/143 154/30/153
f 166/88/151 154/30/153 167/86/87
