mtllib m_hair017.mtl
o editpl_m-0000-1840
v -9.996926 46.132175 -7.097851
v -8.095072 43.751183 -5.607893
v -8.566472 45.634129 -1.938293
v 8.095072 43.751183 -5.607893
v 5.524047 43.722263 -9.103391
v 6.415372 42.469109 -9.561437
v -4.575829 45.396351 -5.860455
v 0.000000 47.282509 -8.321799
v 0.000000 44.824398 -8.714089
v 7.813316 50.778492 6.178762
v 6.965338 50.209751 6.219860
v 8.338899 48.609570 2.240163
v 8.046307 51.568943 5.739397
v 7.515304 52.905643 6.645028
v 2.294687 21.586401 -15.906085
v 0.000000 24.070217 -17.113594
v 1.590297 24.070217 -15.794749
v 0.265501 46.893711 -17.105375
v 0.376578 38.867088 -16.713833
v -5.315439 47.070438 -13.665173
v 8.536671 53.243031 4.806866
v 6.569796 58.271717 8.038593
v 7.794351 53.072727 6.260957
v 8.246787 52.031647 5.480859
v 8.997234 50.649963 3.932618
v 10.121549 50.527859 1.801545
v 8.940341 49.258640 2.091466
v 6.987012 52.728916 7.596987
v 5.952099 58.033939 9.612240
v 3.169757 36.874893 -14.788992
v 2.584571 33.096149 -15.162601
v 0.170679 36.045883 -17.610495
v 2.319070 17.830147 -13.386456
v 2.424729 17.367445 -15.542188
v 3.741397 19.436756 -15.877691
v -2.969277 31.630920 -15.164843
v 0.224863 29.478064 -18.041641
v -2.026477 28.240974 -15.610933
v 0.000000 26.451212 -16.976852
v -1.649899 26.451212 -15.543683
v -0.119205 31.624495 -12.926171
v 0.205899 28.803288 -13.962564
v 2.533096 29.706203 -15.609439
v 0.000000 26.451212 -14.162072
v 1.636353 26.451212 -15.543683
v 4.779018 40.425503 -12.164753
v 3.204977 41.042439 -14.180007
v 0.376578 38.867088 -16.713833
v 1.590297 24.070217 -15.794749
v 0.000000 24.070217 -14.383997
v 2.294687 21.586401 -15.906085
v 0.726064 20.754175 -13.724948
v 3.741397 19.436756 -15.877691
v 2.319070 17.830147 -13.386456
v -1.649899 26.451212 -15.543683
v 0.000000 26.451212 -14.162072
v -2.026477 28.240974 -15.610933
v 0.205899 28.803288 -13.962564
v -0.119205 31.624495 -12.926171
v 0.376578 38.867088 -16.713833
v 0.170679 36.045883 -17.610495
v -2.338035 40.660065 -14.281629
v -8.750697 44.435596 -10.360964
v -9.433414 50.630684 -9.105633
v -7.645346 55.868229 6.139160
v -7.536978 58.641235 5.579492
v -8.555635 53.281590 4.575974
v -9.601384 53.577206 1.022194
v -10.045692 50.807411 1.554962
v 3.527371 61.610252 8.490663
v 2.310943 61.064003 9.034638
v 4.624594 60.726616 8.403984
v 1.105351 62.397488 10.845154
v 2.465367 61.838390 10.684502
v 3.039716 63.853077 8.304605
v 3.462350 61.002953 10.447632
v 5.342531 63.293976 6.804185
v -1.105351 62.397488 10.845154
v -0.319685 61.652023 9.776628
v 0.000000 62.558151 9.170632
v 0.000000 60.884064 9.689951
v -4.475589 40.425503 -12.164753
v -6.415372 42.469109 -9.561437
v -4.933442 42.555866 -13.228795
v 0.005418 63.110825 -11.338328
v -4.854876 62.516376 -8.801515
v 0.005418 65.080528 -8.236617
v -10.110712 52.018795 -4.577477
v -9.457797 58.638023 0.372859
v -9.449669 57.747963 -5.372520
v 0.000000 52.500774 -14.344396
v -5.857278 51.739243 -12.234246
v 0.000000 58.239586 -12.968017
v -6.407244 57.747963 -10.502189
v -4.619176 60.726616 8.403984
v -2.310943 61.064003 9.034638
v -3.527371 61.610252 8.490663
v 4.871131 62.516376 -8.801515
v 7.344625 62.307518 -5.193188
v 6.407244 57.747963 -10.502189
v 5.169142 64.688515 3.691264
v 3.912076 65.768158 -0.236874
v 2.709194 65.401848 5.570524
v 0.831723 66.581100 1.343497
v 0.000000 64.521423 7.820405
v 0.005418 66.304764 1.232909
v -3.039716 63.853077 8.304605
v -2.465367 61.838390 10.684502
v -3.462350 61.002953 10.447632
v 5.315439 58.030724 9.144481
v 3.462350 61.002953 10.447632
v 3.527371 61.610252 8.490663
v 2.465367 61.838390 10.684502
v 1.300413 62.072952 9.394799
v 1.300413 62.072952 9.394799
v 0.319685 61.652023 9.776628
v 0.000000 60.884064 9.689951
v 0.319685 61.652023 9.776628
v 1.300413 62.072952 9.394799
v 1.105351 62.397488 10.845154
v 7.314824 62.651333 0.041839
v 4.220924 65.443619 -4.463900
v 0.005418 65.080528 -8.236617
v -3.898530 65.768158 -0.236874
v -1.005111 66.520050 -3.925902
v -4.204669 65.443619 -4.463900
v 9.644731 50.630684 -9.105633
v 8.750697 44.435596 -10.360964
v 5.315439 47.070438 -13.665173
v 4.933442 42.555866 -13.228795
v 0.000000 60.884064 9.689951
v -0.319685 61.652023 9.776628
v -1.300413 62.072952 9.394799
v 6.526449 52.912067 6.987255
v 7.431319 50.871674 5.530175
v 6.965338 50.209751 6.219860
v 8.338899 48.609570 2.240163
v -5.534884 43.722263 -9.103391
v -4.475589 40.425503 -12.164753
v -0.002709 42.735806 -10.634445
v 0.002709 38.439732 -11.210552
v 4.779018 40.425503 -12.164753
v -6.632107 52.912067 6.987255
v -6.317841 58.050007 8.451806
v -5.315439 58.030724 9.144481
v -3.527371 61.610252 8.490663
v -8.338899 48.609570 2.240163
v -7.485503 50.871674 5.530175
v -6.968047 50.209751 6.219860
v -5.906043 52.192307 7.934731
v 8.067980 46.074341 -6.406672
v 8.566472 45.634129 -1.938293
v 8.338899 48.609570 2.240163
v 0.000000 44.824398 -8.714089
v 0.000000 47.282509 -8.321799
v 4.575829 45.396351 -5.860455
v 4.754636 47.504223 -5.598927
v 5.859987 47.260017 -1.303157
v 7.014104 50.177620 -2.947042
v 0.000000 46.755543 -7.695627
v 8.067980 46.074341 -6.406672
v -4.754636 47.504223 -5.598927
v -5.859987 47.260017 -1.303157
v -7.014104 50.177620 -2.947042
v 5.906043 52.192307 7.934731
v 5.315439 58.030724 9.144481
v 6.263657 58.050007 8.451806
v 3.527371 61.610252 8.490663
v 7.536978 58.641235 5.579492
v 9.457797 58.638023 0.372859
v 9.601384 53.577206 1.022194
v 10.110712 52.018795 -4.577477
v 10.135095 47.803051 -3.145055
v 9.996926 46.132175 -7.097851
v 5.906043 52.192307 7.934731
v 5.315439 58.030724 9.144481
v 5.952099 58.033939 9.612240
v 3.462350 61.002953 10.447632
v 8.626074 50.691734 4.638741
v 8.566472 45.634129 -1.938293
v 1.636353 26.451212 -15.543683
v 0.000000 26.451212 -16.976852
v 2.533096 29.706203 -15.609439
v 0.224863 29.478064 -18.041641
v -0.089403 31.952242 -17.390812
v -1.587588 24.070217 -15.783541
v 0.000000 24.070217 -17.113594
v -2.164646 21.621744 -15.807452
v 0.298011 21.020874 -18.185108
v -1.636353 17.460627 -15.501091
v 1.858507 18.437445 -18.268049
v 0.189644 16.554499 -15.493618
v 0.002709 38.439732 -11.210552
v -4.475589 40.425503 -12.164753
v -0.029801 35.396812 -12.479333
v -3.188721 35.547836 -14.848769
v -2.969277 31.630920 -15.164843
v 2.584571 33.096149 -15.162601
v 3.169757 36.874893 -14.788992
v -0.029801 35.396812 -12.479333
v 4.779018 40.425503 -12.164753
v 0.002709 38.439732 -11.210552
v -4.475589 40.425503 -12.164753
v -3.188721 35.547836 -14.848769
v -0.089403 31.952242 -17.390812
v -3.462350 61.002953 10.447632
v -5.952099 58.033939 9.612240
v -5.315439 58.030724 9.144481
v -6.987012 52.728916 7.596987
v -5.906043 52.192307 7.934731
v -7.813316 50.778492 6.178762
v -6.968047 50.209751 6.219860
v -8.338899 48.609570 2.240163
v -5.152887 64.688515 3.691264
v -7.301278 62.651333 0.041839
v -7.328370 62.307518 -5.193188
v 5.797675 51.739243 -12.234246
v -0.319685 61.652023 9.776628
v -1.105351 62.397488 10.845154
v -1.300413 62.072952 9.394799
v -2.465367 61.838390 10.684502
v -3.527371 61.610252 8.490663
v -3.462350 61.002953 10.447632
v -5.315439 58.030724 9.144481
v -10.135095 47.803051 -3.145055
v -10.118840 48.419991 -1.693953
v 0.002709 38.439732 -11.210552
v 4.779018 40.425503 -12.164753
v 6.415372 42.469109 -9.561437
v 10.110712 52.018795 -4.577477
v 9.449669 57.747963 -5.372520
v -8.067980 46.074341 -6.406672
v -8.338899 48.609570 2.240163
v -8.566472 45.634129 -1.938293
v -8.067980 46.074341 -6.406672
v -8.095072 43.751183 -5.607893
v -6.415372 42.469109 -9.561437
v 0.298011 21.020874 -18.185108
v -1.636353 17.460627 -15.501091
v 0.726064 20.754175 -13.724948
v -2.164646 21.621744 -15.807452
v 0.000000 24.070217 -14.383997
v -1.587588 24.070217 -15.783541
v -5.952099 58.033939 9.612240
v -5.334403 63.293976 6.804185
v -2.692939 65.401848 5.570524
v -0.815467 66.581100 1.343497
v 0.005418 66.269417 -4.055918
v 1.021366 66.520050 -3.925902
v 8.095072 43.751183 -5.607893
v -10.118840 48.419991 -1.693953
v -10.121549 50.585697 1.988350
v -8.536671 52.937775 4.997407
v 0.000000 62.558151 9.170632
v 0.319685 61.652023 9.776628
v 0.000000 60.884064 9.689951
vn -0.9262 -0.3767 -0.0157
vn -0.7911 -0.6109 0.0313
vn -0.8296 -0.5056 0.2370
vn -0.8947 -0.1412 0.4238
vn -0.4090 -0.5349 0.7394
vn -0.5347 -0.5976 0.5975
vn -0.7063 0.0471 -0.7063
vn -0.5041 0.0945 -0.8585
vn -0.5110 0.1336 -0.8491
vn 0.6833 -0.3848 0.6205
vn 0.4476 -0.6204 0.6440
vn 0.6462 -0.6226 0.4413
vn 0.8782 0.0078 0.4782
vn 0.8942 0.0235 0.4471
vn 0.6449 0.3068 -0.7000
vn 0.6536 0.1575 -0.7402
vn 0.6305 0.1340 -0.7645
vn 0.0079 0.2202 -0.9754
vn 0.0236 -0.5509 -0.8342
vn -0.6025 -0.0000 -0.7981
vn 0.9167 0.0784 0.3918
vn 0.8973 0.1653 0.4093
vn 0.8886 0.0472 0.4562
vn 0.8971 0.0315 0.4407
vn 0.8736 -0.1888 0.4486
vn 0.9205 -0.2203 0.3226
vn 0.7071 -0.5657 0.4243
vn 0.5042 -0.2205 0.8350
vn 0.8408 0.2514 0.4793
vn 0.7218 0.0471 -0.6905
vn 0.6614 0.0551 -0.7480
vn 0.6449 0.0472 -0.7628
vn 0.1336 -0.7463 0.6521
vn 0.6151 -0.7807 -0.1104
vn 0.8793 -0.0707 -0.4710
vn -0.6456 0.0078 -0.7637
vn -0.6697 -0.0551 -0.7406
vn -0.6744 -0.1569 -0.7215
vn -0.6590 -0.1020 -0.7452
vn -0.6501 -0.0157 -0.7597
vn 0.6460 -0.1496 0.7485
vn 0.6112 -0.1567 0.7758
vn 0.6291 -0.1494 0.7628
vn 0.6371 -0.1101 0.7629
vn 0.6359 -0.1256 0.7615
vn 0.7994 0.0784 -0.5956
vn 0.6810 0.1331 -0.7201
vn 0.5583 0.2123 -0.8020
vn 0.6585 0.0001 0.7526
vn 0.6903 0.1177 0.7139
vn 0.6765 0.2911 0.6765
vn 0.6681 0.3851 0.6367
vn 0.6421 0.4307 0.6342
vn 0.6442 0.4243 0.6364
vn -0.6381 -0.0945 0.7641
vn -0.6308 -0.0710 0.7727
vn -0.5901 -0.1810 0.7868
vn -0.5527 -0.1816 0.8133
vn -0.5832 -0.1970 0.7881
vn -0.5254 0.2901 -0.7999
vn -0.6053 0.1258 -0.7860
vn -0.6236 0.2210 -0.7499
vn -0.8152 -0.3684 -0.4468
vn -0.8725 0.0943 -0.4795
vn -0.9029 0.0707 0.4240
vn -0.9220 0.1735 0.3462
vn -0.9392 0.1409 0.3131
vn -0.9703 0.1174 0.2113
vn -0.9910 0.1023 0.0865
vn 0.3377 0.1649 0.9267
vn 0.3302 0.0314 0.9434
vn 0.2906 0.2670 0.9188
vn -0.3531 0.6043 0.7142
vn 0.4792 0.6127 0.6284
vn 0.3711 0.7343 0.5685
vn 0.6116 0.5018 0.6116
vn 0.7549 0.5190 0.4010
vn 0.3531 0.6044 0.7142
vn 0.7707 0.1416 0.6213
vn 0.7708 0.2203 0.5978
vn 0.6989 0.2120 0.6831
vn -0.6949 -0.6159 -0.3712
vn -0.7373 -0.6589 -0.1490
vn -0.7159 -0.3855 -0.5822
vn -0.0000 0.5745 -0.8185
vn -0.5274 0.6533 -0.5432
vn -0.0000 0.9052 -0.4251
vn -0.9950 0.0783 -0.0627
vn -0.9518 0.2832 0.1180
vn -0.9294 0.2835 -0.2363
vn -0.0000 0.3373 -0.9414
vn -0.5017 0.2116 -0.8387
vn -0.0000 0.2591 -0.9658
vn -0.6469 0.3156 -0.6942
vn -0.2906 0.2670 0.9188
vn -0.3302 0.0315 0.9434
vn -0.3377 0.1649 0.9267
vn 0.5251 0.6505 -0.5486
vn 0.8051 0.5367 -0.2526
vn 0.6289 0.3223 -0.7075
vn 0.6105 0.7748 0.1644
vn 0.4407 0.8971 0.0315
vn 0.2829 0.9115 0.2986
vn -0.0157 0.9909 0.1337
vn -0.0000 0.8815 0.4722
vn -0.0000 0.9931 0.1173
vn -0.3711 0.7343 0.5685
vn -0.4792 0.6127 0.6285
vn -0.6116 0.5018 0.6116
vn -0.7706 -0.1731 -0.6134
vn -0.7734 -0.5998 -0.2052
vn -0.6305 -0.7093 -0.3152
vn -0.4249 -0.9049 -0.0236
vn -0.0314 -0.9883 0.1490
vn 0.3697 0.0393 0.9283
vn 0.3219 -0.0942 0.9421
vn 0.2825 -0.2197 0.9338
vn 0.4639 -0.8494 0.2517
vn -0.0313 -0.9883 0.1490
vn 0.0549 -0.9740 0.2199
vn 0.7838 0.6192 0.0470
vn 0.5032 0.8335 -0.2280
vn -0.0000 0.9052 -0.4250
vn -0.4407 0.8971 0.0315
vn -0.0627 0.9880 -0.1412
vn -0.5032 0.8335 -0.2280
vn 0.8337 0.1022 -0.5426
vn 0.8106 -0.3856 -0.4407
vn 0.6370 0.0158 -0.7707
vn 0.7443 -0.3447 -0.5720
vn -0.2825 -0.2197 0.9338
vn -0.3219 -0.0942 0.9421
vn -0.3697 0.0393 0.9283
vn -0.7870 0.0629 -0.6138
vn -0.8736 0.1181 -0.4722
vn -0.8651 0.0786 -0.4955
vn -0.8950 0.2120 -0.3925
vn 0.4017 -0.5278 0.7484
vn 0.0787 -0.4801 0.8737
vn -0.0000 -0.4783 0.8782
vn -0.0078 -0.1337 0.9910
vn -0.0940 -0.4855 0.8692
vn 0.7609 0.0863 -0.6432
vn 0.5662 -0.1022 -0.8179
vn 0.7538 -0.1649 -0.6361
vn 0.6242 -0.7110 -0.3239
vn 0.8763 0.2582 -0.4068
vn 0.8584 0.1575 -0.4883
vn 0.8465 0.1254 -0.5173
vn 0.8112 0.0473 -0.5828
vn -0.9638 -0.0000 0.2664
vn -0.9910 -0.0865 0.1022
vn -0.9766 -0.1969 0.0866
vn 0.5110 0.1336 -0.8491
vn 0.5041 0.0945 -0.8585
vn 0.7063 0.0471 -0.7063
vn 0.8485 -0.1650 -0.5028
vn 0.9298 -0.2680 -0.2522
vn 0.8479 -0.4711 -0.2434
vn -0.0000 -0.6285 0.7778
vn -0.1728 -0.6519 0.7383
vn -0.8485 -0.1650 -0.5028
vn -0.9298 -0.2680 -0.2522
vn -0.8479 -0.4711 -0.2434
vn -0.8439 0.0158 -0.5363
vn -0.7706 -0.1730 -0.6134
vn -0.5841 -0.1026 -0.8051
vn -0.6305 -0.7093 -0.3153
vn 0.9192 0.1886 0.3457
vn 0.9518 0.2832 0.1180
vn 0.9802 0.1098 0.1647
vn 0.9989 0.0472 -0.0000
vn 0.9825 -0.1651 0.0865
vn 0.9263 -0.3768 -0.0079
vn 0.3941 -0.3468 0.8512
vn -0.2436 -0.4243 0.8721
vn -0.5112 -0.4876 0.7078
vn -0.4809 -0.5835 0.6544
vn 0.8392 -0.2980 0.4549
vn 0.7918 -0.5331 0.2979
vn 0.6500 -0.0235 -0.7596
vn 0.6760 -0.1415 -0.7232
vn 0.7015 -0.1261 -0.7015
vn 0.6788 0.0237 -0.7340
vn 0.6123 0.0942 -0.7850
vn -0.6376 0.1023 -0.7635
vn -0.6455 0.1102 -0.7557
vn -0.6737 0.0627 -0.7364
vn -0.6520 -0.0786 -0.7541
vn -0.5423 -0.3851 -0.7467
vn 0.2283 -0.5509 -0.8028
vn -0.0001 -0.9992 -0.0393
vn -0.0079 -0.3835 0.9235
vn -0.4417 -0.4417 0.7809
vn 0.0157 -0.4155 0.9095
vn -0.5956 -0.2352 0.7681
vn -0.6076 -0.1814 0.7733
vn 0.6760 -0.1415 0.7232
vn 0.6674 -0.3141 0.6752
vn 0.0157 -0.4156 0.9094
vn 0.4943 -0.5178 0.6982
vn -0.0078 -0.3835 0.9235
vn -0.7022 0.1894 -0.6864
vn -0.6604 0.1336 -0.7390
vn -0.6141 0.0551 -0.7873
vn 0.4809 -0.5835 0.6544
vn 0.5112 -0.4876 0.7078
vn 0.2436 -0.4243 0.8721
vn -0.5821 -0.1730 0.7945
vn -0.3941 -0.3467 0.8512
vn -0.6749 -0.4002 0.6200
vn -0.4476 -0.6204 0.6440
vn -0.6868 -0.5999 0.4105
vn -0.6105 0.7748 0.1644
vn -0.7838 0.6192 0.0470
vn -0.8051 0.5367 -0.2526
vn 0.4941 0.2274 -0.8391
vn -0.4639 -0.8494 0.2517
vn -0.0549 -0.9740 0.2199
vn 0.0314 -0.9883 0.1490
vn 0.4249 -0.9049 -0.0236
vn 0.6241 -0.7110 -0.3239
vn 0.7734 -0.5998 -0.2052
vn 0.7538 -0.1649 -0.6360
vn -0.9776 -0.1955 0.0782
vn -0.8825 -0.4018 0.2443
vn -0.0000 -0.9969 -0.0785
vn 0.7412 -0.5598 -0.3706
vn 0.7557 -0.6376 -0.1496
vn 0.9364 0.2597 -0.2361
vn 0.1720 -0.6564 0.7346
vn 0.9766 -0.1969 0.0866
vn 0.9910 -0.0865 0.1022
vn 0.9639 -0.0000 0.2664
vn 0.8947 -0.1412 0.4238
vn 0.5264 -0.5893 0.6129
vn 0.6485 0.3717 -0.6643
vn -0.4734 -0.2762 0.8364
vn -0.5414 -0.0392 0.8398
vn -0.6054 0.0550 0.7940
vn -0.6368 0.0315 0.7704
vn -0.6540 -0.0000 0.7565
vn -0.8644 0.2122 0.4558
vn -0.7318 0.5508 0.4013
vn -0.2828 0.9115 0.2986
vn 0.0158 0.9909 0.1337
vn -0.0000 0.9899 -0.1414
vn 0.0627 0.9880 -0.1412
vn 0.7911 -0.6109 0.0313
vn -0.8825 -0.4019 0.2443
vn -0.7976 -0.4186 0.4343
vn -0.8643 0.0078 0.5029
vn -0.7708 0.2203 0.5978
vn -0.7707 0.1416 0.6213
vn -0.6989 0.2120 0.6831
vt 0.517029 0.766907
vt 0.580170 0.798584
vt 0.607391 0.737549
vt 0.613892 0.141388
vt 0.518494 0.115509
vt 0.613892 0.189667
vt 0.739868 0.190887
vt 0.621979 0.101654
vt 0.621979 0.190887
vt 0.604126 0.563568
vt 0.613129 0.581024
vt 0.606689 0.652832
vt 0.586823 0.551147
vt 0.586060 0.503143
vt 0.748260 0.834961
vt 0.844513 0.750214
vt 0.777771 0.753052
vt 0.036530 0.800201
vt 0.082428 0.886719
vt 0.185944 0.779388
vt 0.550049 0.524750
vt 0.566711 0.414124
vt 0.578522 0.507660
vt 0.576599 0.543823
vt 0.584930 0.599243
vt 0.566711 0.633057
vt 0.593170 0.646149
vt 0.604706 0.491943
vt 0.602722 0.399750
vt 0.738403 0.350159
vt 0.738403 0.496552
vt 0.810028 0.345856
vt 0.785431 0.955353
vt 0.781036 0.970337
vt 0.725861 0.903320
vt 0.907867 0.520111
vt 0.822266 0.610748
vt 0.907867 0.633179
vt 0.822266 0.729614
vt 0.907867 0.729614
vt 0.669342 0.517120
vt 0.653992 0.586639
vt 0.738403 0.595825
vt 0.653992 0.729614
vt 0.738403 0.729614
vt 0.703796 0.199524
vt 0.732391 0.217621
vt 0.799042 0.253326
vt 0.844513 0.771576
vt 0.837646 0.875427
vt 0.992920 0.676910
vt 0.992920 0.520721
vt 0.992920 0.466614
vt 0.857727 0.203552
vt 0.451599 0.822479
vt 0.284698 0.673401
vt 0.553314 0.471466
vt 0.510437 0.436584
vt 0.539703 0.522491
vt 0.485657 0.580780
vt 0.554840 0.625397
vt 0.220764 0.064209
vt 0.147156 0.181641
vt 0.283905 0.181641
vt 0.613129 0.255554
vt 0.613129 0.271240
vt 0.556915 0.275085
vt 0.613129 0.294067
vt 0.517365 0.323364
vt 0.605560 0.235535
vt 0.585999 0.227905
vt 0.613129 0.231842
vt 0.365540 0.994476
vt 0.527039 0.877350
vt 0.304047 0.886719
vt 0.029510 0.402344
vt 0.151306 0.402344
vt 0.097961 0.246094
vt 0.387451 0.632050
vt 0.410095 0.482849
vt 0.282501 0.517181
vt 0.011902 0.659576
vt 0.148590 0.670746
vt 0.011902 0.527344
vt 0.158142 0.525604
vt 0.276855 0.400146
vt 0.437012 0.308319
vt 0.367523 0.283478
vt 0.476929 0.269318
vt 0.413330 0.233154
vt 0.537018 0.218018
vt 0.417114 0.218018
vt 0.283905 0.023102
vt 0.137390 0.023102
vt 0.040527 0.093719
vt 0.014069 0.137695
vt 0.007568 0.181641
vt 0.026672 0.063904
vt 0.387634 0.378937
vt 0.260559 0.299683
vt 0.097198 0.245514
vt 0.237915 0.235992
vt 0.547119 0.008972
vt 0.580505 0.008972
vt 0.597076 0.044403
vt 0.613892 0.008972
vt 0.484100 0.189667
vt 0.300018 0.113434
vt 0.333893 0.189667
vt 0.512634 0.031525
vt 0.516205 0.081879
vt 0.478149 0.054108
vt 0.580261 0.079865
vt 0.539856 0.050568
vt 0.613892 0.088013
vt 0.739716 0.094635
vt 0.863831 0.190887
vt 0.863831 0.006042
vt 0.300018 0.008972
vt 0.543274 0.692871
vt 0.613129 0.492004
vt 0.613129 0.393921
vt 0.590973 0.588013
vt 0.822266 0.534058
vt 0.911133 0.752411
vt 0.935364 0.833771
vt 0.855560 0.866760
vt 0.945801 0.958313
vt 0.804718 0.935730
vt 0.851135 0.996613
vt 0.992920 0.205566
vt 0.924072 0.200409
vt 0.992920 0.333954
vt 0.907867 0.370605
vt 0.662750 0.393280
vt 0.653992 0.253876
vt 0.546753 0.672516
vt 0.011902 0.994476
vt 0.234100 0.218018
vt 0.550293 0.674927
s 1
usemtl m_hair0120
f 1/1/1 2/2/2 3/3/3
f 4/4/4 5/5/5 6/6/6
f 7/7/7 8/8/8 9/9/9
f 10/10/10 11/11/11 12/12/12
f 10/10/10 13/13/13 14/14/14
f 15/15/15 16/16/16 17/17/17
f 18/18/18 19/19/19 20/20/20
f 21/21/21 22/22/22 23/23/23
f 23/23/23 24/24/24 21/21/21
f 21/21/21 24/24/24 25/25/25
f 21/21/21 25/25/25 26/26/26
f 26/26/26 25/25/25 27/27/27
f 10/10/10 14/14/14 28/28/28
f 28/28/28 14/14/14 22/22/22
f 28/28/28 22/22/22 29/29/29
f 30/30/30 31/31/31 32/32/32
f 33/33/33 34/34/34 35/35/35
f 36/36/36 37/37/37 38/38/38
f 38/38/38 37/37/37 39/39/39
f 38/38/38 39/39/39 40/40/40
f 41/41/41 42/42/42 43/43/43
f 43/43/43 42/42/42 44/44/44
f 43/43/43 44/44/44 45/45/45
f 46/46/46 30/30/30 47/47/47
f 47/47/47 30/30/30 32/32/32
f 47/47/47 32/32/32 48/48/48
f 49/17/49 50/49/50 51/15/51
f 51/15/51 50/49/50 52/50/52
f 51/15/51 52/50/52 53/35/53
f 53/35/53 52/50/52 54/33/54
f 55/40/55 56/51/56 57/38/57
f 57/38/57 56/51/56 58/52/58
f 57/38/57 58/52/58 59/53/59
f 60/48/60 61/32/61 62/54/62
f 63/55/63 1/1/1 64/56/64
f 65/57/65 66/58/66 67/59/67
f 67/59/67 66/58/66 68/60/68
f 67/59/67 68/60/68 69/61/69
f 70/62/70 71/63/71 72/64/72
f 73/65/73 74/66/74 75/67/75
f 75/67/75 74/66/74 76/68/76
f 75/67/75 76/68/76 77/69/77
f 78/65/78 79/70/79 80/71/80
f 80/71/80 79/70/79 81/72/81
f 82/73/82 83/74/83 84/75/84
f 85/76/85 86/77/86 87/78/87
f 88/79/88 89/80/89 90/81/90
f 91/82/91 92/83/92 93/84/93
f 93/84/93 92/83/92 94/85/94
f 95/64/95 96/63/96 97/62/97
f 98/77/98 99/86/99 100/85/100
f 101/87/101 102/88/102 103/89/103
f 103/89/103 102/88/102 104/90/104
f 103/89/103 104/90/104 105/91/105
f 105/91/105 104/90/104 106/92/106
f 80/71/80 105/91/105 78/65/78
f 78/65/78 105/91/105 107/67/107
f 78/65/78 107/67/107 108/66/108
f 108/66/108 107/67/107 109/68/109
f 110/64/110 111/93/111 112/62/112
f 112/62/112 111/93/111 113/94/113
f 112/62/112 113/94/113 114/95/114
f 70/62/70 115/95/115 71/63/71
f 71/63/71 115/95/115 116/96/116
f 71/63/71 116/96/116 117/97/117
f 118/96/118 119/95/119 120/98/120
f 120/98/120 119/95/119 113/94/113
f 2/2/2 1/1/1 83/74/83
f 83/74/83 1/1/1 63/55/63
f 83/74/83 63/55/63 84/75/84
f 121/99/121 99/86/99 122/100/122
f 122/100/122 99/86/99 98/77/98
f 122/100/122 98/77/98 123/101/123
f 124/88/124 125/102/125 126/100/126
f 126/100/126 125/102/125 123/101/123
f 126/100/126 123/101/123 86/77/86
f 127/56/127 128/55/128 129/20/129
f 129/20/129 128/55/128 130/75/130
f 129/20/129 130/75/130 19/19/19
f 131/97/131 132/96/132 96/63/96
f 96/63/96 132/96/132 133/95/133
f 96/63/96 133/95/133 97/62/97
f 134/103/134 135/104/135 136/105/136
f 136/105/136 135/104/135 137/106/137
f 138/5/138 139/107/139 140/108/140
f 140/108/140 139/107/139 141/109/141
f 140/108/140 141/109/141 142/107/142
f 143/103/143 144/110/144 145/111/145
f 145/111/145 144/110/144 146/112/146
f 147/106/147 148/104/148 149/105/149
f 149/105/149 148/104/148 143/103/143
f 149/105/149 143/103/143 150/113/150
f 150/113/150 143/103/143 145/111/145
f 5/5/5 4/4/4 151/114/151
f 151/114/151 4/4/4 152/115/152
f 151/114/151 152/115/152 153/106/153
f 154/9/154 155/8/155 156/7/156
f 156/7/156 155/8/155 157/116/157
f 156/7/156 157/116/157 158/117/158
f 158/117/158 157/116/157 159/118/159
f 160/119/160 5/5/5 161/114/161
f 8/8/8 7/7/7 162/116/162
f 162/116/162 7/7/7 163/117/163
f 162/116/162 163/117/163 164/118/164
f 136/105/136 165/113/165 134/103/134
f 134/103/134 165/113/165 166/111/166
f 134/103/134 166/111/166 167/110/167
f 167/110/167 166/111/166 168/112/168
f 77/69/77 169/58/169 170/80/170
f 170/80/170 169/58/169 171/60/171
f 170/80/170 171/60/171 172/79/172
f 172/79/172 171/60/171 173/120/173
f 172/79/172 173/120/173 174/1/174
f 11/11/11 10/10/10 175/121/175
f 175/121/175 10/10/10 28/28/28
f 175/121/175 28/28/28 176/122/176
f 176/122/176 28/28/28 177/29/177
f 176/122/176 177/29/177 178/68/178
f 13/13/13 10/10/10 179/123/179
f 179/123/179 10/10/10 12/12/12
f 179/123/179 12/12/12 27/27/27
f 27/27/27 12/12/12 180/3/180
f 27/27/27 180/3/180 26/26/26
f 181/45/181 182/39/182 183/43/183
f 183/43/183 182/39/182 184/37/184
f 183/43/183 184/37/184 31/31/31
f 31/31/31 184/37/184 185/124/185
f 31/31/31 185/124/185 32/32/32
f 186/125/186 187/16/187 188/126/188
f 188/126/188 187/16/187 189/127/189
f 188/126/188 189/127/189 190/128/190
f 190/128/190 189/127/189 191/129/191
f 190/128/190 191/129/191 192/130/192
f 193/131/193 194/132/194 195/133/195
f 195/133/195 194/132/194 196/134/196
f 195/133/195 196/134/196 59/53/59
f 59/53/59 196/134/196 197/36/197
f 59/53/59 197/36/197 57/38/57
f 43/43/43 198/31/198 41/41/41
f 41/41/41 198/31/198 199/30/199
f 41/41/41 199/30/199 200/135/200
f 200/135/200 199/30/199 201/46/201
f 200/135/200 201/46/201 202/136/202
f 203/132/203 62/54/62 204/134/204
f 204/134/204 62/54/62 61/32/61
f 204/134/204 61/32/61 36/36/36
f 36/36/36 61/32/61 205/124/205
f 36/36/36 205/124/205 37/37/37
f 206/68/206 207/29/207 208/122/208
f 208/122/208 207/29/207 209/28/209
f 208/122/208 209/28/209 210/121/210
f 210/121/210 209/28/209 211/10/211
f 210/121/210 211/10/211 212/11/212
f 212/11/212 211/10/211 213/12/213
f 214/87/214 124/88/124 215/99/215
f 215/99/215 124/88/124 126/100/126
f 215/99/215 126/100/126 216/86/216
f 216/86/216 126/100/126 86/77/86
f 216/86/216 86/77/86 94/85/94
f 94/85/94 86/77/86 85/76/85
f 94/85/94 85/76/85 93/84/93
f 87/78/87 98/77/98 85/76/85
f 85/76/85 98/77/98 100/85/100
f 85/76/85 100/85/100 93/84/93
f 93/84/93 100/85/100 217/83/217
f 93/84/93 217/83/217 91/82/91
f 91/82/91 217/83/217 18/18/18
f 91/82/91 18/18/18 92/83/92
f 92/83/92 18/18/18 20/20/20
f 218/96/218 219/98/219 220/95/220
f 220/95/220 219/98/219 221/94/221
f 220/95/220 221/94/221 222/62/222
f 222/62/222 221/94/221 223/93/223
f 222/62/222 223/93/223 224/64/224
f 66/58/66 89/80/89 68/60/68
f 68/60/68 89/80/89 88/79/88
f 68/60/68 88/79/88 69/61/69
f 69/61/69 88/79/88 225/120/225
f 69/61/69 225/120/225 226/137/226
f 227/138/227 19/19/19 228/73/228
f 228/73/228 19/19/19 130/75/130
f 228/73/228 130/75/130 229/74/229
f 229/74/229 130/75/130 128/55/128
f 229/74/229 128/55/128 174/1/174
f 174/1/174 128/55/128 127/56/127
f 174/1/174 127/56/127 230/79/172
f 230/79/172 127/56/127 231/81/230
f 230/79/172 231/81/230 170/80/170
f 232/114/231 138/5/138 160/119/160
f 160/119/160 138/5/138 140/108/140
f 160/119/160 140/108/140 5/5/5
f 5/5/5 140/108/140 142/107/142
f 5/5/5 142/107/142 6/6/6
f 233/106/232 234/115/233 235/114/234
f 235/114/234 234/115/233 236/4/235
f 235/114/234 236/4/235 138/5/138
f 138/5/138 236/4/235 237/6/236
f 138/5/138 237/6/236 139/107/139
f 16/16/16 15/15/15 238/127/237
f 238/127/237 15/15/15 35/35/35
f 238/127/237 35/35/35 191/129/191
f 191/129/191 35/35/35 34/34/34
f 191/129/191 34/34/34 192/130/192
f 192/130/192 34/34/34 33/33/33
f 192/130/192 33/33/33 239/128/238
f 239/128/238 33/33/33 240/50/239
f 239/128/238 240/50/239 241/126/240
f 241/126/240 240/50/239 242/49/241
f 241/126/240 242/49/241 243/125/242
f 244/29/243 109/68/109 245/69/244
f 245/69/244 109/68/109 107/67/107
f 245/69/244 107/67/107 246/89/245
f 246/89/245 107/67/107 105/91/105
f 246/89/245 105/91/105 247/90/246
f 247/90/246 105/91/105 106/92/106
f 247/90/246 106/92/106 248/139/247
f 248/139/247 106/92/106 104/90/104
f 248/139/247 104/90/104 249/102/248
f 249/102/248 104/90/104 102/88/102
f 76/68/76 29/29/29 77/69/77
f 77/69/77 29/29/29 22/22/22
f 77/69/77 22/22/22 169/58/169
f 169/58/169 22/22/22 21/21/21
f 169/58/169 21/21/21 171/60/171
f 171/60/171 21/21/21 26/26/26
f 171/60/171 26/26/26 173/120/173
f 173/120/173 26/26/26 180/3/180
f 173/120/173 180/3/180 174/1/174
f 174/1/174 180/3/180 250/2/249
f 174/1/174 250/2/249 229/74/229
f 90/81/90 64/56/64 88/79/88
f 88/79/88 64/56/64 1/1/1
f 88/79/88 1/1/1 225/120/225
f 225/120/225 1/1/1 3/3/3
f 225/120/225 3/3/3 251/140/250
f 251/140/250 3/3/3 213/12/213
f 251/140/250 213/12/213 252/26/251
f 252/26/251 213/12/213 211/10/211
f 252/26/251 211/10/211 253/21/252
f 253/21/252 211/10/211 209/28/209
f 253/21/252 209/28/209 65/57/65
f 65/57/65 209/28/209 244/29/243
f 65/57/65 244/29/243 66/58/66
f 66/58/66 244/29/243 245/69/244
f 66/58/66 245/69/244 89/80/89
f 19/19/19 18/18/18 129/20/129
f 129/20/129 18/18/18 217/83/217
f 129/20/129 217/83/217 127/56/127
f 127/56/127 217/83/217 100/85/100
f 127/56/127 100/85/100 231/81/230
f 231/81/230 100/85/100 99/86/99
f 231/81/230 99/86/99 170/80/170
f 170/80/170 99/86/99 121/99/121
f 170/80/170 121/99/121 77/69/77
f 227/138/227 82/73/82 19/19/19
f 19/19/19 82/73/82 84/75/84
f 19/19/19 84/75/84 20/20/20
f 20/20/20 84/75/84 63/55/63
f 20/20/20 63/55/63 92/83/92
f 92/83/92 63/55/63 64/56/64
f 92/83/92 64/56/64 94/85/94
f 94/85/94 64/56/64 90/81/90
f 94/85/94 90/81/90 216/86/216
f 216/86/216 90/81/90 89/80/89
f 216/86/216 89/80/89 215/99/215
f 215/99/215 89/80/89 245/69/244
f 215/99/215 245/69/244 214/87/214
f 214/87/214 245/69/244 246/89/245
f 214/87/214 246/89/245 124/88/124
f 124/88/124 246/89/245 247/90/246
f 124/88/124 247/90/246 125/102/125
f 125/102/125 247/90/246 248/139/247
f 125/102/125 248/139/247 123/101/123
f 123/101/123 248/139/247 249/102/248
f 123/101/123 249/102/248 122/100/122
f 122/100/122 249/102/248 102/88/102
f 122/100/122 102/88/102 121/99/121
f 121/99/121 102/88/102 101/87/101
f 121/99/121 101/87/101 77/69/77
f 77/69/77 101/87/101 103/89/103
f 77/69/77 103/89/103 75/67/75
f 75/67/75 103/89/103 105/91/105
f 75/67/75 105/91/105 73/65/73
f 73/65/73 105/91/105 254/71/253
f 73/65/73 254/71/253 255/70/254
f 255/70/254 254/71/253 256/72/255
o editpl_m-0000-1841
v 0.000000 24.070217 -14.383997
v 1.590297 24.070217 -15.794749
v 0.000000 26.451212 -14.162072
v 1.636353 26.451212 -15.543683
v 0.000000 26.451212 -16.976852
v 0.000000 24.070217 -17.113594
v -1.649899 26.451212 -15.543683
v -1.587588 24.070217 -15.783541
v -1.649899 26.451212 -15.543683
v -1.587588 24.070217 -15.783541
v 0.000000 26.451212 -14.162072
v 0.000000 24.070217 -14.383997
v 0.000000 26.451212 -16.976852
v 1.636353 26.451212 -15.543683
v 0.000000 24.070217 -17.113594
v 1.590297 24.070217 -15.794749
vn 0.6903 0.1176 0.7139
vn 0.6585 -0.0000 0.7526
vn 0.6371 -0.1101 0.7629
vn 0.6359 -0.1256 0.7615
vn -0.6589 -0.1020 -0.7452
vn -0.6455 0.1102 -0.7557
vn -0.6501 -0.0156 -0.7597
vn -0.6376 0.1023 -0.7635
vn -0.6381 -0.0945 0.7642
vn -0.6540 -0.0000 0.7565
vn -0.6308 -0.0710 0.7727
vn -0.6368 0.0314 0.7704
vn 0.6760 -0.1415 -0.7232
vn 0.6500 -0.0234 -0.7596
vn 0.6536 0.1575 -0.7403
vn 0.6305 0.1340 -0.7645
vt 0.872437 0.179352
vt 0.932678 0.179352
vt 0.872437 0.006561
vt 0.932678 0.006561
vt 0.996033 0.006561
vt 0.996033 0.179352
s 1
usemtl m_hair0120
f 257/141/256 258/142/257 259/143/258
f 259/143/258 258/142/257 260/144/259
f 261/145/260 262/146/261 263/144/262
f 263/144/262 262/146/261 264/142/263
f 265/144/264 266/142/265 267/143/266
f 267/143/266 266/142/265 268/141/267
f 269/145/268 270/144/269 271/146/270
f 271/146/270 270/144/269 272/142/271
