mtllib m_hair010.mtl
o editpl_m-0000-1833
v -6.689000 48.802361 -9.268527
v -7.276895 51.196209 -0.519322
v -14.217851 52.799606 -2.646659
v 12.129062 56.790424 -17.036633
v 0.000000 55.900360 -22.678894
v 12.622135 62.882687 -18.002789
v -11.560131 69.145248 -17.049337
v -12.622135 62.882687 -18.002789
v -17.850880 64.241875 -4.726175
v 11.766030 57.002495 -16.718315
v 0.000000 56.131714 -22.220100
v 12.242848 62.921246 -17.635902
v -11.210645 68.997437 -16.695154
v -12.242848 62.921246 -17.635902
v -17.314461 64.241875 -4.726175
v 12.508349 56.568710 -17.366903
v 10.053819 51.350445 -14.511025
v 0.000000 50.264378 -19.536083
v 7.276895 51.196209 -0.519322
v 6.894899 47.626324 2.635443
v 0.000000 50.235458 -1.764939
v 0.000000 61.783764 12.028751
v 0.000000 66.227646 13.829553
v -12.129062 58.782619 7.587273
v 0.000000 61.905869 11.530355
v 0.000000 66.176231 13.310981
v -11.766030 58.946491 7.241310
v -9.436123 53.429398 3.205572
v -6.894899 47.626324 2.635443
v -6.989721 48.734882 4.995912
v 0.000000 45.618061 4.182189
v 0.000000 61.661663 12.545828
v -12.508349 58.612316 7.945939
v 0.000000 60.218925 6.203420
v -9.121857 74.607719 -15.105816
v -4.936152 78.135834 -10.715148
v 0.000000 77.971962 -12.709479
v 0.000000 79.610703 -5.988231
v -11.920454 69.299484 -17.416222
v 0.000000 74.022911 -19.446421
v 4.936152 78.135834 -10.715148
v 9.436123 53.429398 3.205572
v 14.217851 52.799606 -2.646659
v 12.508349 58.612316 7.945939
v 0.000000 47.083290 6.868448
v -6.927409 48.747738 4.803129
v 0.000000 45.720886 4.195640
v -6.835297 47.774132 2.737065
v 0.000000 50.714226 -1.764939
v 0.000000 46.996532 6.958114
v 6.989721 48.734882 4.995912
v -13.017678 65.591431 8.245573
v 0.000000 66.282272 14.367551
v -11.920454 71.555161 6.960354
v -12.511058 75.089699 -5.616863
v -6.770276 78.180817 -5.870918
v -4.787146 77.711685 -10.532825
v 0.000000 79.135147 -5.949376
v -9.747680 51.707111 -14.268927
v -17.154617 57.738323 -3.961767
v -12.129062 56.790424 -17.036633
v -16.347277 70.160622 -5.211868
v -8.845519 74.292824 -14.809169
v 0.000000 77.551025 -12.466633
v 12.129062 58.782619 7.587273
v 0.000000 60.292831 5.607885
v 9.148949 53.766785 2.935078
v 6.927409 48.747738 4.803129
v 6.835297 47.774132 2.737065
v 0.000000 47.153980 6.727222
v -6.808205 48.789509 4.632016
v 0.000000 45.810856 4.154542
v -6.716092 47.905872 2.725109
v 0.000000 51.170506 -1.764939
v -12.134480 74.768379 -5.590710
v -6.567087 77.759888 -5.836545
v -4.643559 77.300400 -10.357230
v 0.000000 78.678864 -5.911268
v -9.455087 52.054138 -14.035794
v -16.639870 57.911835 -3.981942
v -11.766030 57.002495 -16.718315
v -15.854204 69.983894 -5.197671
v -8.580018 73.990784 -14.522984
v 0.000000 77.146164 -12.233500
v 11.766030 58.946491 7.241310
v 0.000000 59.743370 6.236298
v 8.872611 54.091320 2.674298
v 6.808205 48.789509 4.632016
v 6.716092 47.905872 2.725109
v -0.812758 61.610252 -5.509262
v 0.875070 62.027969 -5.983747
v -0.812758 64.347916 -5.691584
v -13.017678 62.847340 -18.383123
v 0.000000 68.621490 -22.886623
v 9.121857 74.607719 -15.105816
v 6.981593 78.621033 -5.906784
v -10.053819 51.350445 -14.511025
v 0.000000 48.220768 -13.440259
v 6.689000 48.802361 -9.268527
v -12.508349 56.568710 -17.366903
v 0.000000 62.040821 -24.241331
v 11.920454 69.299484 -17.416222
v 12.901182 75.427094 -5.644510
v 4.936152 79.276527 -1.113365
v 0.000000 79.440399 0.880220
v 9.121857 76.416763 3.981932
v 16.859316 70.340569 -5.226813
v 13.017678 62.847340 -18.383123
v 0.000000 55.662582 -23.154873
v -9.121857 76.416763 3.981932
v 0.000000 72.027504 12.720676
v 13.017678 65.591431 8.245573
v 17.691038 57.555168 -3.941592
v -18.408974 64.241875 -4.726175
v -16.859316 70.340569 -5.226813
v -12.901182 75.427094 -5.644510
v -6.981593 78.621033 -5.906784
v -17.691038 57.555168 -3.941592
v 0.000000 50.630684 -19.182650
v 9.747680 51.707111 -14.268927
v 0.000000 48.673832 -13.269893
v 6.488520 49.252213 -9.158686
v 0.000000 68.480110 -22.373283
v 0.000000 73.717659 -19.037689
v 8.845519 74.292824 -14.809169
v 4.787146 77.711685 -10.532825
v 6.770276 78.180817 -5.870918
v 12.511058 75.089699 -5.616863
v 11.560131 69.145248 -17.049337
v 0.000000 62.095448 -23.703333
v 4.787146 78.826675 -1.223206
v 12.511058 75.089699 -5.616863
v 7.054741 51.636421 -0.519322
v 13.787089 53.136993 -2.674306
v 17.154617 57.738323 -3.961767
v 12.622135 65.552872 7.865238
v 17.850880 64.241875 -4.726175
v 11.560131 71.346298 6.623358
v 16.347277 70.160622 -5.211868
v 8.845519 76.060097 3.739833
v 0.000000 50.987350 -18.841917
v 9.455087 52.054138 -14.035794
v 0.000000 49.114044 -13.106252
v 6.293458 49.685997 -9.053328
v 0.000000 68.345154 -21.879370
v 0.000000 73.425255 -18.643906
v 8.580018 73.990784 -14.522984
v 4.643559 77.300400 -10.357230
v 6.567087 77.759888 -5.836545
v 12.134480 74.768379 -5.590710
v 11.210645 68.997437 -16.695154
v 0.000000 62.146858 -23.184761
v 4.643559 78.389679 -1.328564
v 6.843424 52.060566 -0.519322
v 13.372582 53.458317 -2.700459
v 16.639870 57.911835 -3.981942
v 12.242848 65.517525 7.498353
v 17.314461 64.241875 -4.726175
v 11.210645 71.143867 6.298317
v 15.854204 69.983894 -5.197671
v 8.580018 75.713066 3.506700
v 18.408974 64.241875 -4.726175
v 11.920454 71.555161 6.960354
v 0.000000 76.770218 8.270978
v -4.936152 79.276527 -1.113365
v 0.000000 78.984123 0.710601
v -4.787146 78.826675 -1.223206
v 0.000000 76.400696 7.916795
v -8.845519 76.060097 3.739833
v 0.000000 71.805794 12.237972
v -11.560131 71.346298 6.623358
v -12.622135 65.552872 7.865238
v -13.787089 53.136993 -2.674306
v -6.488520 49.252213 -9.158686
v -7.054741 51.636421 -0.519322
v -9.148949 53.766785 2.935078
v 0.000000 78.543915 0.546212
v -4.643559 78.389679 -1.328564
v 0.000000 76.047241 7.576063
v -8.580018 75.713066 3.506700
v 0.000000 71.590508 11.772453
v -11.210645 71.143867 6.298317
v -12.242848 65.517525 7.498353
v -13.372582 53.458317 -2.700459
v -6.293458 49.685997 -9.053328
v -6.843424 52.060566 -0.519322
v -8.872611 54.091320 2.674298
v 8.580018 75.713066 3.506700
v 0.000000 62.095448 -23.703333
v -12.511058 75.089699 -5.616863
v -13.017678 62.847340 -18.383123
v -17.314461 64.241875 -4.726175
vn -0.2347 -0.9701 0.0626
vn -0.4247 -0.9045 -0.0393
vn -0.5646 -0.7998 0.2039
vn 0.6452 -0.4091 -0.6452
vn -0.0000 -0.3701 -0.9290
vn 0.7224 0.0236 -0.6911
vn -0.6460 0.3939 -0.6539
vn -0.7224 0.0236 -0.6910
vn -0.9975 0.0707 -0.0000
vn 0.6452 -0.4092 -0.6452
vn -0.0000 -0.3700 -0.9290
vn 0.7224 0.0236 -0.6910
vn 0.6385 -0.4178 -0.6464
vn 0.5358 -0.7801 -0.3231
vn -0.0000 -0.7492 -0.6624
vn 0.4247 -0.9045 -0.0393
vn 0.5981 -0.7555 -0.2676
vn -0.0000 -0.9678 -0.2518
vn -0.0000 -0.7637 0.6456
vn -0.0000 -0.0629 0.9980
vn -0.4307 -0.5638 0.7047
vn -0.0000 -0.7149 0.6992
vn -0.4409 -0.5510 0.7085
vn -0.6042 -0.6121 0.5101
vn -0.5981 -0.7555 -0.2676
vn -0.5408 -0.4702 0.6975
vn -0.0000 -0.9969 0.0785
vn -0.4331 -0.5669 0.7008
vn -0.0000 -0.4315 0.9021
vn -0.4570 0.7327 -0.5043
vn -0.2118 0.9332 -0.2902
vn -0.0000 0.9263 -0.3768
vn -0.0000 0.9940 -0.1096
vn -0.0000 0.7226 -0.6912
vn 0.2118 0.9332 -0.2902
vn 0.6042 -0.6121 0.5101
vn 0.5646 -0.7998 0.2039
vn 0.4331 -0.5669 0.7008
vn -0.0000 -0.4722 0.8815
vn -0.5577 -0.4477 0.6990
vn -0.0000 -0.9975 0.0707
vn -0.6133 -0.7312 -0.2987
vn -0.0000 -0.9639 -0.2664
vn -0.0000 -0.4936 0.8697
vn 0.5408 -0.4702 0.6975
vn -0.7763 0.0627 0.6273
vn -0.6614 0.4724 0.5826
vn -0.6440 0.7618 -0.0707
vn -0.3075 0.9460 -0.1025
vn -0.2117 0.9333 -0.2902
vn -0.5358 -0.7801 -0.3231
vn -0.9361 -0.3461 0.0629
vn -0.6452 -0.4091 -0.6452
vn -0.9017 0.4312 -0.0314
vn -0.0000 0.9290 -0.3700
vn 0.4307 -0.5638 0.7047
vn -0.0000 -0.4091 0.9125
vn 0.6121 -0.6042 0.5101
vn 0.5577 -0.4477 0.6990
vn 0.6133 -0.7312 -0.2987
vn -0.5829 -0.4489 0.6773
vn -0.0000 -0.9985 0.0550
vn -0.6190 -0.7131 -0.3291
vn -0.0000 -0.9570 -0.2902
vn -0.5372 -0.7820 -0.3160
vn -0.9386 -0.3391 0.0631
vn -0.6452 -0.4092 -0.6452
vn -0.9017 0.4313 -0.0314
vn -0.4570 0.7327 -0.5042
vn -0.0000 0.9290 -0.3701
vn 0.4409 -0.5510 0.7085
vn -0.0000 -0.4156 0.9095
vn 0.6392 -0.5997 0.4814
vn 0.5829 -0.4489 0.6773
vn 0.6190 -0.7131 -0.3291
vn 0.2513 0.0628 0.9659
vn -0.0000 0.3835 -0.9235
vn 0.4570 0.7327 -0.5043
vn 0.3074 0.9460 -0.1025
vn -0.0000 -0.9899 -0.1414
vn 0.2347 -0.9701 0.0626
vn -0.6385 -0.4178 -0.6464
vn -0.0000 0.0157 -0.9999
vn 0.6460 0.3939 -0.6539
vn 0.6440 0.7618 -0.0707
vn 0.2118 0.9728 0.0942
vn -0.0000 0.9821 0.1886
vn 0.4726 0.8034 0.3623
vn 0.9017 0.4313 -0.0314
vn 0.7225 0.0236 -0.6910
vn -0.0000 -0.3768 -0.9263
vn -0.4726 0.8034 0.3623
vn -0.0000 0.4936 0.8697
vn 0.7762 0.0627 0.6273
vn 0.9361 -0.3461 0.0629
vn -0.0000 -0.9900 -0.1414
vn 0.2273 -0.9718 0.0627
vn 0.4570 0.7327 -0.5042
vn 0.3075 0.9460 -0.1025
vn -0.0000 0.0158 -0.9999
vn 0.4246 -0.9042 -0.0472
vn 0.5637 -0.7985 0.2114
vn 0.7763 0.0627 0.6273
vn 0.9975 0.0707 -0.0000
vn 0.6614 0.4724 0.5826
vn 0.9017 0.4312 -0.0314
vn -0.0000 -0.7491 -0.6624
vn 0.5372 -0.7821 -0.3160
vn -0.0000 -0.9910 -0.1337
vn -0.0000 0.3863 -0.9224
vn -0.0000 0.7302 -0.6832
vn 0.4306 -0.9004 -0.0626
vn 0.5583 -0.8020 0.2123
vn 0.9386 -0.3392 0.0631
vn 0.6658 0.4699 0.5796
vn -0.0000 0.8345 0.5511
vn -0.2118 0.9728 0.0941
vn -0.0000 0.9835 0.1810
vn -0.7762 0.0627 0.6273
vn -0.5637 -0.7985 0.2114
vn -0.2273 -0.9718 0.0627
vn -0.4246 -0.9042 -0.0472
vn -0.6121 -0.6043 0.5101
vn -0.6658 0.4699 0.5796
vn -0.5583 -0.8020 0.2123
vn -0.4306 -0.9004 -0.0626
vn -0.6392 -0.5998 0.4814
vn 0.4726 0.8034 0.3624
vn -0.6440 0.7618 -0.0706
vn -0.7225 0.0236 -0.6910
vt 0.289062 0.915649
vt 0.439209 0.915649
vt 0.437500 0.796875
vt 0.659485 0.656250
vt 0.828125 0.667969
vt 0.668396 0.500000
vt 0.660156 0.351562
vt 0.437500 0.500000
vt 0.988251 0.162384
vt 0.988251 0.012390
vt 0.846222 0.162384
vt 0.846222 0.316956
vt 0.215485 0.656250
vt 0.253540 0.804688
vt 0.101562 0.847076
vt 0.523438 0.945312
vt 0.437500 0.988037
vt 0.046875 0.667969
vt 0.026550 0.500000
vt 0.846222 0.012390
vt 0.621429 0.804688
vt 0.585938 0.915649
vt 0.566406 0.988037
vt 0.773438 0.847076
vt 0.250000 0.213898
vt 0.304688 0.101562
vt 0.183594 0.011963
vt 0.437500 0.011963
vt 0.214844 0.351562
vt 0.078125 0.144531
vt 0.179688 0.988037
vt 0.308594 0.988037
vt 0.351562 0.945312
vt 0.695312 0.988037
vt 0.848419 0.500000
vt 0.437500 0.218750
vt 0.437500 0.102936
vt 0.570312 0.101562
vt 0.437500 0.656250
vt 0.437500 0.351562
vt 0.625000 0.213898
vt 0.691406 0.011963
vt 0.919189 0.085083
vt 0.988251 0.239685
vt 0.988251 0.316956
vt 0.638397 0.380920
vt 0.722107 0.360840
vt 0.640625 0.250031
vt 0.206573 0.500000
vt 0.046875 0.316406
vt 0.828125 0.316406
vt 0.796875 0.144531
s 1
usemtl m_hair0114
f 1/1/1 2/2/2 3/3/3
f 4/4/4 5/5/5 6/6/6
f 7/7/7 8/6/8 9/8/9
f 10/9/10 11/10/11 12/11/12
f 13/9/7 14/11/8 15/12/9
f 16/13/13 17/14/14 18/15/15
f 19/2/16 20/16/17 21/17/18
f 22/18/19 23/19/20 24/13/21
f 25/10/22 26/20/20 27/9/23
f 28/21/24 29/16/25 30/22/26
f 30/22/26 29/16/25 31/23/27
f 32/5/19 33/4/28 34/24/29
f 2/2/2 1/1/1 21/17/18
f 35/25/30 36/26/31 37/27/32
f 37/27/32 36/26/31 38/28/33
f 39/29/7 35/25/30 40/30/34
f 40/30/34 35/25/30 37/27/32
f 40/30/34 37/27/32 41/26/35
f 41/26/35 37/27/32 38/28/33
f 42/21/36 43/3/37 44/4/38
f 45/31/39 46/1/40 47/32/41
f 47/32/41 46/1/40 48/33/42
f 47/32/41 48/33/42 49/17/43
f 50/34/44 51/22/45 34/24/29
f 52/6/46 53/35/20 54/7/47
f 55/36/48 56/37/49 57/38/50
f 57/38/50 56/37/49 58/28/33
f 59/21/51 60/39/52 61/4/53
f 62/40/54 55/36/48 63/41/30
f 63/41/30 55/36/48 57/38/50
f 63/41/30 57/38/50 64/42/55
f 64/42/55 57/38/50 58/28/33
f 65/13/56 66/15/57 67/14/58
f 67/14/58 66/15/57 68/1/59
f 67/14/58 68/1/59 69/33/60
f 70/10/44 71/9/61 72/43/62
f 72/43/62 71/9/61 73/44/63
f 72/43/62 73/44/63 74/11/64
f 75/12/48 76/45/49 77/9/31
f 77/9/31 76/45/49 78/11/33
f 79/11/65 80/45/66 81/9/67
f 82/45/68 75/12/48 83/11/69
f 83/11/69 75/12/48 77/9/31
f 83/11/69 77/9/31 84/10/70
f 84/10/70 77/9/31 78/11/33
f 85/9/71 86/20/72 87/11/73
f 87/11/73 86/20/72 88/9/74
f 87/11/73 88/9/74 89/44/75
f 90/46/76 91/47/76 92/48/76
f 93/49/8 39/29/7 94/50/77
f 94/50/77 39/29/7 40/30/34
f 94/50/77 40/30/34 95/25/78
f 95/25/78 40/30/34 41/26/35
f 95/25/78 41/26/35 96/37/79
f 96/37/79 41/26/35 38/28/33
f 3/3/3 97/14/51 1/1/1
f 1/1/1 97/14/51 98/31/80
f 1/1/1 98/31/80 21/17/18
f 21/17/18 98/31/80 99/1/81
f 21/17/18 99/1/81 19/2/16
f 100/13/82 93/49/8 101/19/83
f 101/19/83 93/49/8 94/50/77
f 101/19/83 94/50/77 102/29/84
f 102/29/84 94/50/77 95/25/78
f 102/29/84 95/25/78 103/36/85
f 103/36/85 95/25/78 96/37/79
f 103/36/85 96/37/79 104/38/86
f 104/38/86 96/37/79 38/28/33
f 38/28/33 105/42/87 104/38/86
f 104/38/86 105/42/87 106/41/88
f 104/38/86 106/41/88 103/36/85
f 103/36/85 106/41/88 107/40/89
f 103/36/85 107/40/89 102/29/84
f 102/29/84 107/40/89 108/49/90
f 102/29/84 108/49/90 101/19/83
f 101/19/83 108/49/90 109/18/91
f 101/19/83 109/18/91 100/13/82
f 110/41/92 54/7/47 111/51/93
f 111/51/93 54/7/47 53/35/20
f 111/51/93 53/35/20 112/6/94
f 112/6/94 53/35/20 44/4/38
f 112/6/94 44/4/38 113/39/95
f 113/39/95 44/4/38 43/3/37
f 113/39/95 43/3/37 17/14/14
f 114/8/9 52/6/46 115/40/54
f 115/40/54 52/6/46 54/7/47
f 115/40/54 54/7/47 116/36/48
f 116/36/48 54/7/47 110/41/92
f 116/36/48 110/41/92 117/37/49
f 114/8/9 118/39/52 52/6/46
f 52/6/46 118/39/52 33/4/28
f 52/6/46 33/4/28 53/35/20
f 53/35/20 33/4/28 32/5/19
f 53/35/20 32/5/19 44/4/38
f 44/4/38 32/5/19 34/24/29
f 44/4/38 34/24/29 42/21/36
f 42/21/36 34/24/29 51/22/45
f 20/16/17 31/23/27 21/17/18
f 21/17/18 31/23/27 29/16/25
f 21/17/18 29/16/25 2/2/2
f 2/2/2 29/16/25 28/21/24
f 2/2/2 28/21/24 3/3/3
f 5/5/5 4/4/4 119/24/15
f 119/24/15 4/4/4 120/21/14
f 119/24/15 120/21/14 121/34/96
f 121/34/96 120/21/14 122/22/97
f 121/34/96 122/22/97 49/17/43
f 8/6/8 7/7/7 123/51/77
f 123/51/77 7/7/7 124/52/34
f 123/51/77 124/52/34 125/41/98
f 125/41/98 124/52/34 126/38/35
f 125/41/98 126/38/35 127/37/99
f 127/37/99 128/36/85 125/41/98
f 125/41/98 128/36/85 129/7/84
f 125/41/98 129/7/84 123/51/77
f 123/51/77 129/7/84 130/35/100
f 123/51/77 130/35/100 8/6/8
f 9/8/9 62/40/54 7/7/7
f 7/7/7 62/40/54 63/41/30
f 7/7/7 63/41/30 124/52/34
f 124/52/34 63/41/30 64/42/55
f 124/52/34 64/42/55 126/38/35
f 126/38/35 64/42/55 58/28/33
f 126/38/35 58/28/33 127/37/99
f 127/37/99 58/28/33 131/26/86
f 127/37/99 131/26/86 132/36/85
f 69/33/60 133/2/101 67/14/58
f 67/14/58 133/2/101 134/3/102
f 67/14/58 134/3/102 65/13/56
f 65/13/56 134/3/102 135/39/95
f 65/13/56 135/39/95 136/49/103
f 136/49/103 135/39/95 137/8/104
f 136/49/103 137/8/104 138/29/105
f 138/29/105 137/8/104 139/40/106
f 138/29/105 139/40/106 140/25/88
f 11/10/11 10/9/10 141/20/107
f 141/20/107 10/9/10 142/11/108
f 141/20/107 142/11/108 143/10/109
f 143/10/109 142/11/108 144/9/97
f 143/10/109 144/9/97 74/11/64
f 14/11/8 13/9/7 145/10/110
f 145/10/110 13/9/7 146/20/111
f 145/10/110 146/20/111 147/11/78
f 147/11/78 146/20/111 148/9/35
f 147/11/78 148/9/35 149/45/99
f 149/45/99 150/12/85 147/11/78
f 147/11/78 150/12/85 151/9/84
f 147/11/78 151/9/84 145/10/110
f 145/10/110 151/9/84 152/20/83
f 145/10/110 152/20/83 14/11/8
f 15/12/9 82/45/68 13/9/7
f 13/9/7 82/45/68 83/11/69
f 13/9/7 83/11/69 146/20/111
f 146/20/111 83/11/69 84/10/70
f 146/20/111 84/10/70 148/9/35
f 148/9/35 84/10/70 78/11/33
f 148/9/35 78/11/33 149/45/99
f 149/45/99 78/11/33 153/9/86
f 149/45/99 153/9/86 150/12/85
f 89/44/75 154/45/112 87/11/73
f 87/11/73 154/45/112 155/12/113
f 87/11/73 155/12/113 85/9/71
f 85/9/71 155/12/113 156/45/114
f 85/9/71 156/45/114 157/11/103
f 157/11/103 156/45/114 158/12/104
f 157/11/103 158/12/104 159/9/115
f 159/9/115 158/12/104 160/45/106
f 159/9/115 160/45/106 161/11/88
f 17/14/14 16/13/13 113/39/95
f 113/39/95 16/13/13 162/8/104
f 113/39/95 162/8/104 112/6/94
f 112/6/94 162/8/104 163/7/105
f 112/6/94 163/7/105 111/51/93
f 111/51/93 163/7/105 164/52/116
f 111/51/93 164/52/116 110/41/92
f 110/41/92 164/52/116 165/38/117
f 110/41/92 165/38/117 117/37/49
f 166/27/118 167/26/117 168/30/116
f 168/30/116 167/26/117 169/25/92
f 168/30/116 169/25/92 170/50/93
f 170/50/93 169/25/92 171/29/47
f 170/50/93 171/29/47 23/19/20
f 23/19/20 171/29/47 172/49/119
f 23/19/20 172/49/119 24/13/21
f 24/13/21 172/49/119 60/39/52
f 24/13/21 60/39/52 173/3/120
f 173/3/120 60/39/52 59/21/51
f 173/3/120 59/21/51 174/22/121
f 174/22/121 175/2/122 173/3/120
f 173/3/120 175/2/122 176/14/123
f 173/3/120 176/14/123 24/13/21
f 24/13/21 176/14/123 66/15/57
f 24/13/21 66/15/57 22/18/19
f 22/18/19 66/15/57 65/13/56
f 22/18/19 65/13/56 23/19/20
f 23/19/20 65/13/56 136/49/103
f 23/19/20 136/49/103 170/50/93
f 170/50/93 136/49/103 138/29/105
f 170/50/93 138/29/105 168/30/116
f 168/30/116 138/29/105 140/25/88
f 168/30/116 140/25/88 166/27/118
f 177/10/118 178/9/117 179/20/116
f 179/20/116 178/9/117 180/11/92
f 179/20/116 180/11/92 181/10/93
f 181/10/93 180/11/92 182/9/124
f 181/10/93 182/9/124 26/20/20
f 26/20/20 182/9/124 183/11/46
f 26/20/20 183/11/46 27/9/23
f 27/9/23 183/11/46 80/45/66
f 27/9/23 80/45/66 184/12/125
f 184/12/125 80/45/66 79/11/65
f 184/12/125 79/11/65 185/9/121
f 185/9/121 186/45/126 184/12/125
f 184/12/125 186/45/126 187/11/127
f 184/12/125 187/11/127 27/9/23
f 27/9/23 187/11/127 86/20/72
f 27/9/23 86/20/72 25/10/22
f 25/10/22 86/20/72 85/9/71
f 25/10/22 85/9/71 26/20/20
f 26/20/20 85/9/71 157/11/103
f 26/20/20 157/11/103 181/10/93
f 181/10/93 157/11/103 159/9/115
f 181/10/93 159/9/115 179/20/116
f 179/20/116 159/9/115 188/11/128
f 179/20/116 188/11/128 177/10/118
f 189/35/83 61/4/53 8/6/8
f 8/6/8 61/4/53 60/39/52
f 8/6/8 60/39/52 9/8/9
f 9/8/9 60/39/52 172/49/119
f 9/8/9 172/49/119 62/40/54
f 62/40/54 172/49/119 171/29/47
f 62/40/54 171/29/47 190/36/129
f 190/36/129 171/29/47 169/25/92
f 190/36/129 169/25/92 56/37/49
f 56/37/49 169/25/92 167/26/117
f 56/37/49 167/26/117 58/28/33
f 58/28/33 167/26/117 166/27/118
f 58/28/33 166/27/118 131/26/86
f 131/26/86 166/27/118 140/25/88
f 131/26/86 140/25/88 128/36/85
f 128/36/85 140/25/88 139/40/106
f 128/36/85 139/40/106 129/7/84
f 129/7/84 139/40/106 6/6/6
f 129/7/84 6/6/6 189/35/83
f 189/35/83 6/6/6 5/5/5
f 189/35/83 5/5/5 61/4/53
f 61/4/53 5/5/5 119/24/15
f 61/4/53 119/24/15 59/21/51
f 59/21/51 119/24/15 121/34/96
f 59/21/51 121/34/96 174/22/121
f 174/22/121 121/34/96 49/17/43
f 174/22/121 49/17/43 175/2/122
f 175/2/122 49/17/43 48/33/42
f 175/2/122 48/33/42 176/14/123
f 176/14/123 48/33/42 46/1/40
f 176/14/123 46/1/40 66/15/57
f 66/15/57 46/1/40 45/31/39
f 66/15/57 45/31/39 68/1/59
f 68/1/59 45/31/39 47/32/41
f 68/1/59 47/32/41 69/33/60
f 69/33/60 47/32/41 49/17/43
f 69/33/60 49/17/43 133/2/101
f 133/2/101 49/17/43 122/22/97
f 133/2/101 122/22/97 134/3/102
f 134/3/102 122/22/97 120/21/14
f 134/3/102 120/21/14 135/39/95
f 135/39/95 120/21/14 4/4/4
f 135/39/95 4/4/4 137/8/104
f 137/8/104 4/4/4 6/6/6
f 137/8/104 6/6/6 139/40/106
f 97/14/51 18/15/15 98/31/80
f 98/31/80 18/15/15 17/14/14
f 98/31/80 17/14/14 99/1/81
f 99/1/81 17/14/14 43/3/37
f 99/1/81 43/3/37 19/2/16
f 19/2/16 43/3/37 42/21/36
f 19/2/16 42/21/36 20/16/17
f 20/16/17 42/21/36 51/22/45
f 20/16/17 51/22/45 31/23/27
f 31/23/27 51/22/45 50/34/44
f 31/23/27 50/34/44 30/22/26
f 30/22/26 50/34/44 34/24/29
f 30/22/26 34/24/29 28/21/24
f 28/21/24 34/24/29 33/4/28
f 28/21/24 33/4/28 3/3/3
f 3/3/3 33/4/28 118/39/52
f 3/3/3 118/39/52 97/14/51
f 97/14/51 118/39/52 100/13/82
f 97/14/51 100/13/82 18/15/15
f 18/15/15 100/13/82 109/18/91
f 18/15/15 109/18/91 16/13/13
f 16/13/13 109/18/91 108/49/90
f 16/13/13 108/49/90 162/8/104
f 162/8/104 108/49/90 107/40/89
f 162/8/104 107/40/89 163/7/105
f 163/7/105 107/40/89 106/41/88
f 163/7/105 106/41/88 164/52/116
f 164/52/116 106/41/88 105/42/87
f 164/52/116 105/42/87 165/38/117
f 165/38/117 105/42/87 38/28/33
f 165/38/117 38/28/33 117/37/49
f 117/37/49 38/28/33 36/26/31
f 117/37/49 36/26/31 116/36/48
f 116/36/48 36/26/31 35/25/30
f 116/36/48 35/25/30 115/40/54
f 115/40/54 35/25/30 39/29/7
f 115/40/54 39/29/7 114/8/9
f 114/8/9 39/29/7 191/49/130
f 114/8/9 191/49/130 118/39/52
f 118/39/52 191/49/130 100/13/82
f 152/20/83 81/9/67 14/11/8
f 14/11/8 81/9/67 80/45/66
f 14/11/8 80/45/66 192/12/9
f 192/12/9 80/45/66 183/11/46
f 192/12/9 183/11/46 82/45/68
f 82/45/68 183/11/46 182/9/124
f 82/45/68 182/9/124 75/12/48
f 75/12/48 182/9/124 180/11/92
f 75/12/48 180/11/92 76/45/49
f 76/45/49 180/11/92 178/9/117
f 76/45/49 178/9/117 78/11/33
f 78/11/33 178/9/117 177/10/118
f 78/11/33 177/10/118 153/9/86
f 153/9/86 177/10/118 161/11/88
f 153/9/86 161/11/88 150/12/85
f 150/12/85 161/11/88 160/45/106
f 150/12/85 160/45/106 151/9/84
f 151/9/84 160/45/106 12/11/12
f 151/9/84 12/11/12 152/20/83
f 152/20/83 12/11/12 11/10/11
f 152/20/83 11/10/11 81/9/67
f 81/9/67 11/10/11 141/20/107
f 81/9/67 141/20/107 79/11/65
f 79/11/65 141/20/107 143/10/109
f 79/11/65 143/10/109 185/9/121
f 185/9/121 143/10/109 74/11/64
f 185/9/121 74/11/64 186/45/126
f 186/45/126 74/11/64 73/44/63
f 186/45/126 73/44/63 187/11/127
f 187/11/127 73/44/63 71/9/61
f 187/11/127 71/9/61 86/20/72
f 86/20/72 71/9/61 70/10/44
f 86/20/72 70/10/44 88/9/74
f 88/9/74 70/10/44 72/43/62
f 88/9/74 72/43/62 89/44/75
f 89/44/75 72/43/62 74/11/64
f 89/44/75 74/11/64 154/45/112
f 154/45/112 74/11/64 144/9/97
f 154/45/112 144/9/97 155/12/113
f 155/12/113 144/9/97 142/11/108
f 155/12/113 142/11/108 156/45/114
f 156/45/114 142/11/108 10/9/10
f 156/45/114 10/9/10 158/12/104
f 158/12/104 10/9/10 12/11/12
f 158/12/104 12/11/12 160/45/106
