mtllib m_hair022.mtl
o editpl_m-0000-1813
v 0.065021 60.141811 -11.308440
v 0.712518 61.565266 -8.860546
v 0.736901 59.839767 -10.153236
v -7.826862 60.061478 4.623796
v -6.615852 62.426407 3.109927
v -7.788933 60.058266 3.763746
v 4.643559 65.000198 -2.634705
v 4.220924 64.559982 3.538831
v 6.374734 62.526016 3.047160
v -0.715227 53.692879 -12.205851
v -0.685426 50.286869 -13.176491
v 0.717936 53.692879 -12.205851
v 0.690844 50.286869 -13.176491
v 0.005418 54.078468 -13.346109
v 0.005418 50.688522 -14.278641
v -0.715227 53.692879 -12.205851
v -0.685426 50.286869 -13.176491
v 0.717936 53.692879 -12.205851
v 0.690844 50.286869 -13.176491
v 0.005418 54.078468 -13.346109
v 0.005418 50.688522 -14.278641
v -0.791085 57.606579 -10.954258
v -0.671880 55.376606 -11.675324
v 0.758574 57.606579 -10.954258
v 0.674589 55.376606 -11.675324
v 0.035220 57.915051 -12.110955
v 0.002709 55.768620 -12.814089
v -0.791085 57.606579 -10.954258
v -0.671880 55.376606 -11.675324
v 0.758574 57.606579 -10.954258
v 0.674589 55.376606 -11.675324
v 0.035220 57.915051 -12.110955
v 0.002709 55.768620 -12.814089
v -7.523432 50.964859 4.546086
v -7.848535 57.063545 4.040217
v -7.279605 51.009842 5.993452
v -7.306697 57.134235 5.604897
v -0.731482 59.839767 -10.153236
v -0.650207 61.565266 -8.859798
v -0.734192 47.899448 -13.817606
v 0.008128 41.444092 -16.108583
v 0.739610 47.899448 -13.817606
v -0.734192 47.899448 -13.817606
v 0.008128 48.288246 -14.923491
v 0.008128 41.444092 -16.108583
v 0.739610 47.899448 -13.817606
v 0.000000 63.737400 -8.019923
v 0.035220 62.275387 -9.680246
v -7.252513 48.657768 4.700013
v -7.252513 48.657768 6.178015
v -7.458411 41.749348 6.186235
v -8.279297 48.628849 5.606392
v -7.252513 48.657768 4.700013
v -4.337420 64.457161 3.537337
v -6.637526 62.545296 4.400377
v -6.989721 60.058266 5.234275
v -5.935844 62.082596 4.911475
v 5.496955 54.984592 7.927258
v 5.713690 46.472778 6.776540
v 6.832588 46.948334 4.908489
v 5.654088 39.792496 5.498793
v 4.191123 62.959801 -5.754350
v 6.772985 62.677040 -2.554005
v 8.030051 59.884750 -2.581651
v -3.592391 40.415863 7.818165
v -3.540917 47.385334 9.011476
v -4.337420 47.388546 8.463763
v -4.269690 54.647205 9.483719
v 1.145989 61.141121 10.509652
v -0.398252 61.083282 10.304166
v -2.094207 55.652943 11.511675
v 4.261562 60.819798 8.108832
v 6.567087 60.141811 5.902290
v 4.277817 62.885899 6.313261
v -0.398252 61.083282 10.304166
v 1.145989 61.141121 10.509652
v 0.200480 63.457851 8.161139
v 2.050860 61.603825 9.752717
v -7.279605 51.009842 5.993452
v -7.306697 57.134235 5.604897
v -8.263042 50.993778 5.439761
v -8.282006 57.188862 4.948837
v -7.523432 50.964859 4.546086
v -7.848535 57.063545 4.040217
v -5.296474 60.386013 7.556636
v -2.126717 57.603367 10.360955
v -2.156519 60.832653 9.565166
v -1.389817 59.383492 10.416249
v -0.398252 61.083282 10.304166
v 6.759439 41.540489 2.386619
v 7.111635 48.159718 1.093927
v 8.222404 55.852161 2.450879
v 7.539687 56.157417 0.052301
v 7.732040 59.968296 2.689990
v 0.000000 66.391518 -3.053148
v 0.000000 36.852402 -16.008453
v -6.212182 40.229496 -12.403116
v -5.090576 47.819118 -11.395117
v -8.403920 48.609570 -7.836106
v -8.802172 42.514091 -8.330017
v -9.284408 44.011452 -3.828761
v -6.087559 48.558159 -1.632681
v -6.334096 51.392216 -1.430184
v -8.634202 48.770229 -3.893023
v -8.357864 56.128502 -2.901461
v -7.683274 48.995155 3.486527
v -6.041503 42.559078 4.032746
v -6.946374 47.815903 5.965805
v -5.586358 39.185200 5.879128
v -4.865713 47.391758 7.367590
v -6.835297 62.677040 -2.554005
v -4.646268 65.000198 -2.634705
v -4.191123 62.959801 -5.754350
v -0.829013 56.864326 11.951040
v 2.050860 61.603825 9.752717
v 1.145989 61.141121 10.509652
v 0.000000 60.000427 -9.970916
v 4.429532 55.267357 -9.964937
v 0.000000 55.601532 -11.471333
v 5.090576 47.819118 -11.395117
v 0.000000 48.031189 -13.694314
v 6.087559 48.558159 -1.632681
v 8.634202 48.770229 -3.893023
v 6.334096 51.392216 -1.430184
v 8.357864 56.128502 -2.901461
v 7.016813 55.588680 -0.167381
v -4.432242 55.267357 -9.964937
v -7.387972 55.389462 -7.159124
v -5.808512 59.842979 -6.768327
v -7.661601 41.942139 -0.426666
v -8.030051 59.884750 -2.581651
v -8.130292 55.865017 2.746031
v -6.618561 55.559761 7.409435
v -5.364204 55.206306 8.761904
v 5.692017 59.842979 -6.768327
v 7.387972 55.389462 -7.159124
v 8.403920 48.609570 -7.836106
v 8.802172 42.514091 -8.330017
v 9.281699 44.011452 -3.828761
v 0.000000 63.801666 -7.987045
v -3.083063 54.168438 10.109142
v -7.973158 59.855831 2.713153
v -8.319935 56.138142 -0.326539
v -7.041195 47.333920 1.699175
v -6.762148 42.260250 3.127115
v -6.916573 55.588680 -0.387064
v -6.615852 62.426407 3.093488
v -4.020444 62.828060 7.193487
v 0.200480 63.457851 8.161139
v 7.669729 55.341263 5.319458
v 4.462043 58.467724 9.137755
v 2.050860 61.603825 9.752717
v 0.000000 65.639626 4.294271
v -4.220924 64.559982 3.538831
v 7.661601 41.942139 -0.426666
v 6.212182 40.229496 -12.403116
v 7.618254 47.391758 3.006811
vn 0.0235 0.5327 -0.8460
vn 0.8488 0.3537 -0.3930
vn 0.8643 0.2436 -0.4400
vn -0.8485 0.3457 0.4007
vn -0.8332 0.5502 -0.0550
vn -0.9565 0.2509 -0.1489
vn 0.5740 0.8020 -0.1651
vn 0.4627 0.8547 0.2353
vn 0.8011 0.5655 0.1964
vn 0.0001 -0.2830 0.9591
vn -0.0000 -0.2665 0.9638
vn 0.8657 -0.1417 0.4801
vn 0.0001 -0.2665 0.9638
vn -0.0000 0.2903 -0.9569
vn -0.0000 0.2665 -0.9638
vn -0.8624 0.1411 -0.4861
vn -0.8580 0.1338 -0.4959
vn 0.8580 0.1338 -0.4959
vn -0.0000 0.2902 -0.9570
vn -0.0000 0.2664 -0.9639
vn -0.0000 -0.3209 0.9471
vn -0.0000 -0.2996 0.9541
vn 0.8669 -0.1576 0.4729
vn 0.0235 0.3138 -0.9492
vn 0.0078 0.2973 -0.9547
vn -0.8384 0.1724 -0.5171
vn -0.8561 0.1492 -0.4948
vn 0.8647 0.1494 -0.4795
vn 0.0078 0.2974 -0.9547
vn 0.9859 0.0313 -0.1643
vn 0.9456 -0.0394 -0.3231
vn -0.8183 0.2911 -0.4957
vn -0.8338 0.3618 -0.4169
vn -0.0000 -0.2974 0.9548
vn -0.0000 -0.3303 0.9439
vn -0.8474 0.1177 -0.5178
vn -0.0000 0.2202 -0.9754
vn -0.0000 0.1644 -0.9864
vn 0.8515 0.1104 -0.5125
vn -0.0000 0.7526 -0.6585
vn -0.0000 0.6831 -0.7303
vn 0.9992 0.0079 -0.0393
vn 0.5207 0.0552 0.8520
vn -0.5733 -0.6282 0.5261
vn -0.9905 -0.0551 0.1257
vn -0.6829 -0.1099 -0.7222
vn -0.4879 0.7711 0.4091
vn -0.6517 0.6124 0.4475
vn -0.5500 0.2829 0.7858
vn -0.3936 0.4330 0.8109
vn 0.8084 -0.0000 0.5886
vn 0.8656 -0.0708 0.4957
vn 0.9018 -0.0863 0.4235
vn 0.8982 -0.1103 0.4255
vn 0.5588 0.5824 -0.5903
vn 0.8109 0.5354 -0.2362
vn 0.9129 0.3384 -0.2282
vn -0.5588 -0.1338 0.8184
vn -0.5418 -0.1178 0.8322
vn -0.5270 -0.0236 0.8495
vn 0.1577 0.4573 0.8752
vn -0.2676 0.4957 0.8262
vn -0.1336 0.2514 0.9586
vn 0.6597 0.4241 0.6204
vn 0.8086 0.3062 0.5024
vn 0.5434 0.6772 0.4961
vn -0.2675 0.4958 0.8262
vn 0.1577 0.4574 0.8752
vn -0.0157 0.7777 0.6285
vn 0.5186 0.5029 0.6915
vn -0.4869 0.0550 0.8717
vn -0.5340 0.0942 0.8402
vn -0.9263 0.0074 0.3768
vn -0.9961 0.0392 0.0785
vn -0.8036 -0.0709 -0.5909
vn -0.9414 -0.0079 -0.3373
vn -0.7056 0.2980 0.6429
vn -0.5191 0.1495 0.8415
vn -0.4547 0.4077 0.7918
vn -0.4710 0.2434 0.8479
vn 0.9672 -0.0944 -0.2359
vn 0.9623 -0.0861 -0.2582
vn 0.9999 -0.0157 -0.0000
vn 0.9700 -0.2425 -0.0156
vn 0.9771 0.1655 0.1340
vn -0.0000 0.9754 -0.2202
vn -0.0000 0.1961 -0.9806
vn -0.6116 0.1882 -0.7685
vn -0.5663 0.1888 -0.8023
vn -0.9364 0.1180 -0.3305
vn -0.8609 0.1252 -0.4931
vn -0.9415 0.1569 0.2982
vn -0.7161 0.0865 0.6926
vn -0.7536 -0.1334 0.6437
vn -0.8863 0.0157 0.4628
vn -0.9857 -0.1340 0.1025
vn -0.9927 -0.1024 0.0630
vn -0.9801 -0.1882 0.0627
vn -0.8634 -0.1334 0.4866
vn -0.8870 -0.1413 0.4396
vn -0.5807 -0.1491 0.8004
vn -0.8078 0.5333 -0.2510
vn -0.5597 0.8120 -0.1656
vn -0.5588 0.5825 -0.5903
vn 0.6533 -0.0472 0.7556
vn -0.0000 0.4409 -0.8976
vn 0.4957 0.2911 -0.8183
vn -0.0000 0.2737 -0.9618
vn 0.5892 0.1886 -0.7856
vn -0.0000 0.2352 -0.9720
vn 0.7161 0.0865 0.6926
vn 0.8863 0.0157 0.4628
vn 0.7628 -0.1494 0.6291
vn 0.9829 -0.1179 0.1415
vn 0.8164 -0.4945 0.2983
vn -0.4968 0.2839 -0.8201
vn -0.8493 0.2202 -0.4797
vn -0.6464 0.4178 -0.6385
vn -0.7858 0.2829 0.5500
vn -0.9326 0.2978 -0.2037
vn -0.9835 -0.0000 0.1810
vn -0.8854 0.0470 0.4624
vn -0.6199 -0.0000 0.7847
vn 0.6385 0.4178 -0.6464
vn 0.8225 0.2193 -0.5248
vn 0.9364 0.1180 -0.3305
vn 0.8609 0.1252 -0.4931
vn 0.9415 0.1569 0.2981
vn -0.0000 0.7149 -0.6992
vn -0.4875 -0.0236 0.8728
vn -0.9536 0.2128 0.2128
vn -0.9849 -0.1734 -0.0000
vn -0.9674 -0.1494 -0.2045
vn -0.9648 -0.1177 -0.2353
vn -0.7022 -0.6627 0.2604
vn -0.8033 0.5592 0.2048
vn -0.4799 0.6765 0.5586
vn -0.0157 0.7777 0.6284
vn 0.9121 0.0314 0.4089
vn 0.7314 0.2438 0.6370
vn 0.0078 0.9327 0.3605
vn -0.4488 0.8660 0.2205
vn 0.7858 0.2829 0.5500
vn 0.6116 0.1882 -0.7685
vn 0.9288 -0.0787 0.3621
vt 0.218750 0.257812
vt 0.140625 0.179688
vt 0.140625 0.257812
vt 0.695312 0.289062
vt 0.663177 0.236084
vt 0.668732 0.290619
vt 0.367188 0.171875
vt 0.632812 0.179688
vt 0.632812 0.226562
vt 0.625000 0.937500
vt 0.718750 0.937500
vt 0.625000 0.906250
vt 0.718750 0.906250
vt 0.625000 0.968750
vt 0.718750 0.968750
vt 0.585938 0.968750
vt 0.671875 0.968750
vt 0.585938 0.906250
vt 0.671875 0.906250
vt 0.585938 0.937500
vt 0.671875 0.937500
vt 0.703125 0.937500
vt 0.609375 0.906250
vt 0.703125 0.906250
vt 0.609375 0.937500
vt 0.835938 0.914001
vt 0.986206 0.953125
vt 0.835938 0.992188
vt 0.187500 0.125000
vt 0.218750 0.179688
vt 0.688263 0.151550
vt 0.698975 0.233093
vt 0.731750 0.291229
vt 0.730011 0.232635
vt 0.968750 0.476562
vt 0.976562 0.710938
vt 0.837219 0.694000
vt 0.976562 0.890625
vt 0.242188 0.226562
vt 0.398438 0.226562
vt 0.421875 0.287415
vt 0.976562 0.876190
vt 0.905518 0.699554
vt 0.914276 0.474274
vt 0.164612 0.047424
vt 0.164978 0.004578
vt 0.016174 0.019531
vt 0.882812 0.228943
vt 0.789917 0.295135
vt 0.781250 0.178772
vt 0.914062 0.062500
vt 0.953125 0.062500
vt 0.945953 0.011719
vt 0.986298 0.062500
vt 0.703125 0.968750
vt 0.609375 0.968750
vt 0.781250 0.293396
vt 0.968750 0.293396
vt 0.912476 0.106232
vt 0.966400 0.203125
vt 0.952332 0.078125
vt 0.601562 0.898438
vt 0.553375 0.696594
vt 0.636719 0.486969
vt 0.545135 0.496521
vt 0.644531 0.305969
vt 0.242188 0.039062
vt 0.022919 0.975403
vt 0.146484 0.914062
vt 0.132812 0.726562
vt 0.273438 0.726562
vt 0.281250 0.890625
vt 0.421875 0.890625
vt 0.539062 0.703125
vt 0.539062 0.570312
vt 0.421875 0.695312
vt 0.429688 0.500000
vt 0.659363 0.581238
vt 0.660156 0.881500
vt 0.770813 0.677063
vt 0.968750 0.885040
vt 0.920563 0.700500
vt 0.012299 0.055786
vt 0.170197 0.080902
vt 0.159576 0.050781
vt 0.015625 0.296875
vt 0.132812 0.500000
vt 0.013153 0.500000
vt 0.013153 0.796875
vt 0.421875 0.500000
vt 0.536438 0.545563
vt 0.273438 0.500000
vt 0.242188 0.281433
vt 0.546875 0.890625
vt 0.640625 0.460938
vt 0.781250 0.468750
vt 0.868835 0.472382
vt 0.093750 0.132812
vt 0.636719 0.305664
vt 0.764648 0.160156
vt 0.827332 0.042969
vt 0.804688 0.518219
vt 0.969513 0.150757
vt 0.632812 0.023438
vt 0.621094 0.166992
vt 0.660706 0.885040
s 1
usemtl m_hair0100
f 1/1/1 2/2/2 3/3/3
f 4/4/4 5/5/5 6/6/6
f 7/7/7 8/8/8 9/9/9
f 10/10/10 11/11/11 12/12/12
f 12/12/12 11/11/11 13/13/13
f 14/10/14 15/11/15 16/12/16
f 16/12/16 15/11/15 17/13/17
f 18/10/12 19/11/18 20/14/19
f 20/14/19 19/11/18 21/15/20
f 22/16/21 23/17/22 24/18/21
f 24/18/21 23/17/22 25/19/23
f 26/20/24 27/21/25 28/18/26
f 28/18/26 27/21/25 29/19/27
f 30/20/28 31/21/23 32/16/24
f 32/16/24 31/21/23 33/17/29
f 34/22/30 35/23/31 36/24/30
f 36/24/30 35/23/31 37/25/31
f 1/1/1 38/3/32 39/2/33
f 40/26/34 41/27/35 42/26/34
f 43/26/36 44/28/37 45/27/38
f 45/27/38 44/28/37 46/26/39
f 47/29/40 2/2/2 48/30/41
f 49/26/42 50/26/43 51/27/44
f 51/27/44 50/26/43 52/28/45
f 51/27/44 52/28/45 53/26/46
f 54/31/47 5/5/5 55/32/48
f 4/4/4 56/33/49 57/34/50
f 58/35/51 59/36/52 60/37/53
f 60/37/53 59/36/52 61/38/54
f 62/39/55 63/40/56 64/41/57
f 65/42/58 66/36/59 67/43/59
f 67/43/59 66/36/59 68/44/60
f 69/45/61 70/46/62 71/47/63
f 72/48/64 73/49/65 74/50/66
f 75/51/67 76/52/68 77/53/69
f 77/53/69 76/52/68 78/54/70
f 2/2/2 1/1/1 48/30/41
f 48/30/41 1/1/1 39/2/33
f 48/30/41 39/2/33 47/29/40
f 5/5/5 4/4/4 55/32/48
f 55/32/48 4/4/4 57/34/50
f 55/32/48 57/34/50 54/31/47
f 79/22/71 80/25/72 81/55/73
f 81/55/73 80/25/72 82/56/74
f 81/55/73 82/56/74 83/22/75
f 83/22/75 82/56/74 84/25/76
f 85/57/77 86/58/78 87/59/79
f 87/59/79 86/58/78 88/60/80
f 87/59/79 88/60/80 89/61/62
f 90/62/81 91/63/82 92/64/83
f 92/64/83 91/63/82 93/65/84
f 92/64/83 93/65/84 94/66/85
f 8/8/8 7/7/7 95/67/86
f 96/68/87 97/69/88 98/70/89
f 99/71/90 100/72/91 101/73/92
f 102/74/93 103/75/94 104/76/95
f 104/76/95 103/75/94 105/77/96
f 106/78/97 107/79/98 108/80/99
f 108/80/99 107/79/98 109/81/100
f 108/80/99 109/81/100 110/82/101
f 111/40/102 112/7/103 113/39/104
f 114/83/105 115/84/70 116/85/61
f 117/86/106 118/87/107 119/88/108
f 119/88/108 118/87/107 120/70/109
f 119/88/108 120/70/109 121/89/110
f 122/74/111 123/76/112 124/75/113
f 124/75/113 123/76/112 125/90/114
f 124/75/113 125/90/114 126/91/115
f 97/69/88 100/72/91 98/70/89
f 98/70/89 100/72/91 99/71/90
f 98/70/89 99/71/90 127/87/116
f 127/87/116 99/71/90 128/92/117
f 127/87/116 128/92/117 129/93/118
f 130/94/119 102/74/93 101/73/92
f 101/73/92 102/74/93 104/76/95
f 101/73/92 104/76/95 99/71/90
f 99/71/90 104/76/95 105/77/96
f 99/71/90 105/77/96 128/92/117
f 128/92/117 105/77/96 131/41/120
f 128/92/117 131/41/120 129/93/118
f 132/95/121 106/78/97 133/96/122
f 133/96/122 106/78/97 108/80/99
f 133/96/122 108/80/99 134/97/123
f 134/97/123 108/80/99 110/82/101
f 134/97/123 110/82/101 68/44/60
f 117/86/106 135/93/124 118/87/107
f 118/87/107 135/93/124 136/92/125
f 118/87/107 136/92/125 120/70/109
f 120/70/109 136/92/125 137/71/126
f 120/70/109 137/71/126 138/72/127
f 138/72/127 137/71/126 139/73/128
f 140/98/129 95/67/86 62/39/55
f 62/39/55 95/67/86 7/7/7
f 62/39/55 7/7/7 63/40/56
f 63/40/56 7/7/7 9/9/9
f 63/40/56 9/9/9 64/41/57
f 64/41/57 9/9/9 94/66/85
f 64/41/57 94/66/85 125/90/114
f 125/90/114 94/66/85 93/65/84
f 125/90/114 93/65/84 126/91/115
f 66/36/59 141/35/130 68/44/60
f 68/44/60 141/35/130 86/58/78
f 68/44/60 86/58/78 134/97/123
f 134/97/123 86/58/78 85/57/77
f 134/97/123 85/57/77 133/96/122
f 133/96/122 85/57/77 142/99/131
f 133/96/122 142/99/131 132/95/121
f 132/95/121 142/99/131 143/65/132
f 132/95/121 143/65/132 106/78/97
f 106/78/97 143/65/132 144/63/133
f 106/78/97 144/63/133 145/62/134
f 103/75/94 146/91/135 105/77/96
f 105/77/96 146/91/135 143/65/132
f 105/77/96 143/65/132 131/41/120
f 131/41/120 143/65/132 142/99/131
f 131/41/120 142/99/131 147/9/136
f 147/9/136 142/99/131 85/57/77
f 147/9/136 85/57/77 148/100/137
f 148/100/137 85/57/77 87/59/79
f 148/100/137 87/59/79 149/101/138
f 149/101/138 87/59/79 89/61/62
f 60/37/53 150/102/139 58/35/51
f 58/35/51 150/102/139 73/49/65
f 58/35/51 73/49/65 151/58/140
f 151/58/140 73/49/65 72/48/64
f 151/58/140 72/48/64 152/103/70
f 152/103/70 72/48/64 74/50/66
f 152/103/70 74/50/66 149/101/138
f 149/101/138 74/50/66 153/104/141
f 149/101/138 153/104/141 148/100/137
f 148/100/137 153/104/141 154/105/142
f 148/100/137 154/105/142 147/9/136
f 112/7/103 95/67/86 113/39/104
f 113/39/104 95/67/86 140/98/129
f 113/39/104 140/98/129 117/86/106
f 117/86/106 140/98/129 62/39/55
f 117/86/106 62/39/55 135/93/124
f 135/93/124 62/39/55 64/41/57
f 135/93/124 64/41/57 136/92/125
f 136/92/125 64/41/57 125/90/114
f 136/92/125 125/90/114 137/71/126
f 137/71/126 125/90/114 123/76/112
f 137/71/126 123/76/112 139/73/128
f 139/73/128 123/76/112 122/74/111
f 139/73/128 122/74/111 155/94/143
f 138/72/127 156/69/144 120/70/109
f 120/70/109 156/69/144 96/68/87
f 120/70/109 96/68/87 121/89/110
f 121/89/110 96/68/87 98/70/89
f 121/89/110 98/70/89 119/88/108
f 119/88/108 98/70/89 127/87/116
f 119/88/108 127/87/116 117/86/106
f 117/86/106 127/87/116 129/93/118
f 117/86/106 129/93/118 113/39/104
f 113/39/104 129/93/118 131/41/120
f 113/39/104 131/41/120 111/40/102
f 111/40/102 131/41/120 147/9/136
f 111/40/102 147/9/136 112/7/103
f 112/7/103 147/9/136 154/105/142
f 112/7/103 154/105/142 95/67/86
f 95/67/86 154/105/142 153/104/141
f 95/67/86 153/104/141 8/8/8
f 8/8/8 153/104/141 74/50/66
f 8/8/8 74/50/66 9/9/9
f 9/9/9 74/50/66 73/49/65
f 9/9/9 73/49/65 94/66/85
f 94/66/85 73/49/65 150/102/139
f 94/66/85 150/102/139 92/64/83
f 92/64/83 150/102/139 60/37/53
f 92/64/83 60/37/53 157/106/145
f 157/106/145 60/37/53 61/38/54
o editpl_m-0000-1814
v 0.758574 57.606579 -10.954258
v 0.736901 59.839767 -10.153236
v -0.791085 57.606579 -10.954258
v -0.731482 59.839767 -10.153236
v -0.791085 57.606579 -10.954258
v -0.731482 59.839767 -10.153236
v 0.035220 57.915051 -12.110955
v 0.065021 60.141811 -11.308440
v 0.758574 57.606579 -10.954258
v 0.736901 59.839767 -10.153236
v 0.690844 50.286869 -13.176491
v 0.739610 47.899448 -13.817606
v 0.005418 50.688522 -14.278641
v 0.008128 48.288246 -14.923491
v -0.685426 50.286869 -13.176491
v -0.734192 47.899448 -13.817606
v -0.685426 50.286869 -13.176491
v -0.734192 47.899448 -13.817606
v 0.690844 50.286869 -13.176491
v 0.739610 47.899448 -13.817606
v -7.848535 57.063545 4.040217
v -7.788933 60.058266 3.763746
v -7.306697 57.134235 5.604897
v -6.989721 60.058266 5.234275
v -7.306697 57.134235 5.604897
v -6.989721 60.058266 5.234275
v -8.282006 57.188862 4.948837
v -7.826862 60.061478 4.623796
v -7.848535 57.063545 4.040217
v -7.788933 60.058266 3.763746
v -7.523432 50.964859 4.546086
v -7.252513 48.657768 4.700013
v -8.263042 50.993778 5.439761
v -8.279297 48.628849 5.606392
v -7.279605 51.009842 5.993452
v -7.252513 48.657768 6.178015
v -7.279605 51.009842 5.993452
v -7.252513 48.657768 6.178015
v -7.523432 50.964859 4.546086
v -7.252513 48.657768 4.700013
v -0.715227 53.692879 -12.205851
v -0.671880 55.376606 -11.675324
v 0.005418 54.078468 -13.346109
v 0.002709 55.768620 -12.814089
v 0.717936 53.692879 -12.205851
v 0.674589 55.376606 -11.675324
v -0.715227 53.692879 -12.205851
v -0.671880 55.376606 -11.675324
vn -0.0002 -0.3209 0.9471
vn -0.0000 -0.3373 0.9414
vn -0.0000 -0.3209 0.9471
vn -0.0000 -0.3372 0.9414
vn -0.8384 0.1724 -0.5171
vn -0.8183 0.2911 -0.4957
vn 0.0235 0.3138 -0.9492
vn 0.0235 0.5326 -0.8460
vn 0.8647 0.1494 -0.4795
vn 0.8643 0.2435 -0.4400
vn 0.8580 0.1338 -0.4959
vn 0.8516 0.1104 -0.5125
vn -0.0000 0.2665 -0.9638
vn -0.0000 0.2203 -0.9754
vn -0.8580 0.1338 -0.4959
vn -0.8474 0.1177 -0.5178
vn -0.0000 -0.2664 0.9639
vn -0.0000 -0.2974 0.9548
vn 0.9456 -0.0394 -0.3231
vn 0.9107 -0.1021 -0.4004
vn 0.9106 -0.1021 -0.4004
vn -0.5340 0.0943 0.8402
vn -0.5501 0.2828 0.7858
vn -0.9961 0.0392 0.0785
vn -0.8485 0.3456 0.4007
vn -0.9414 -0.0078 -0.3373
vn -0.9565 0.2508 -0.1489
vn -0.8036 -0.0709 -0.5909
vn -0.6829 -0.1099 -0.7222
vn -0.9263 0.0078 0.3767
vn -0.9905 -0.0550 0.1258
vn -0.4869 0.0550 0.8717
vn 0.5206 0.0552 0.8520
vn 0.9859 0.0313 -0.1643
vn 0.5207 0.0553 0.8520
vn 0.9992 0.0079 -0.0393
vn -0.8624 0.1411 -0.4861
vn -0.8561 0.1492 -0.4948
vn -0.0000 0.2903 -0.9570
vn 0.0078 0.2974 -0.9547
vn 0.8657 -0.1417 0.4801
vn 0.8669 -0.1576 0.4729
vn -0.0000 -0.2830 0.9591
vn -0.0000 -0.2997 0.9540
vt 0.374268 0.986511
vt 0.374573 0.923492
vt 0.342621 0.987335
vt 0.342102 0.923492
vt 0.320831 0.985687
vt 0.320709 0.923096
vt 0.480469 0.910156
vt 0.480469 0.986511
vt 0.402344 0.910156
vt 0.402344 0.986511
vt 0.480225 0.911499
vt 0.480225 0.985168
vt 0.519531 0.986511
vt 0.519531 0.910156
vt 0.457031 0.986511
vt 0.457031 0.910156
vt 0.296875 0.921875
vt 0.297150 0.986267
vt 0.250000 0.921875
vt 0.250275 0.986267
vt 0.195312 0.921875
vt 0.195587 0.986267
vt 0.371094 0.986633
vt 0.371399 0.922974
vt 0.322754 0.986633
vt 0.323059 0.922974
s 1
usemtl m_hair0100
f 158/107/146 159/108/147 160/109/148
f 160/109/148 159/108/147 161/110/149
f 162/107/150 163/108/151 164/111/152
f 164/111/152 163/108/151 165/112/153
f 164/111/152 165/112/153 166/107/154
f 166/107/154 165/112/153 167/108/155
f 168/113/156 169/114/157 170/115/158
f 170/115/158 169/114/157 171/116/159
f 170/115/158 171/116/159 172/113/160
f 172/113/160 171/116/159 173/114/161
f 174/113/162 175/114/163 176/117/162
f 176/117/162 175/114/163 177/118/163
f 178/119/164 179/120/165 180/116/164
f 180/116/164 179/120/165 181/115/166
f 182/116/167 183/115/168 184/121/169
f 184/121/169 183/115/168 185/122/170
f 184/121/169 185/122/170 186/119/171
f 186/119/171 185/122/170 187/120/172
f 188/123/173 189/124/174 190/125/175
f 190/125/175 189/124/174 191/126/176
f 190/125/175 191/126/176 192/127/177
f 192/127/177 191/126/176 193/128/178
f 194/123/179 195/124/180 196/127/179
f 196/127/179 195/124/180 197/128/181
f 198/129/182 199/130/183 200/131/184
f 200/131/184 199/130/183 201/132/185
f 200/131/184 201/132/185 202/129/186
f 202/129/186 201/132/185 203/130/187
f 202/129/186 203/130/187 204/129/188
f 204/129/188 203/130/187 205/130/189
