mtllib m_hair025.mtl
o editpl_m-0000-1819
v -9.078509 54.110600 1.412243
v -8.119455 49.168671 -0.414711
v -5.231454 43.169590 2.772185
v -8.580018 53.773212 -2.326849
v -9.547200 54.316246 -7.089633
v -8.482487 50.078011 -2.462843
v -9.869594 55.595104 -6.358103
v -9.536363 59.483101 -3.360255
v -8.650457 58.772980 -6.970824
v -5.892497 50.177620 -12.540606
v -5.331694 53.413330 -10.680027
v 0.000000 54.117023 -12.523419
v -2.568316 58.689434 10.991610
v -3.960842 61.542774 9.042110
v -4.212797 56.584778 10.511894
v -4.099011 47.963711 -8.321799
v -4.462043 45.364220 -7.939968
v -6.499357 45.791576 -4.458668
v -9.514690 46.720196 -8.999528
v -9.438832 42.832203 -6.438802
v -8.531252 42.652264 0.020919
v 6.913863 46.125751 -13.422326
v 5.892497 50.177620 -12.540606
v 9.154367 50.441105 -8.324788
v -5.659506 49.126896 5.179729
v 0.000000 62.535656 10.061319
v 1.173081 58.856522 11.737335
v 1.912691 62.330013 9.811749
v 2.568316 58.689434 10.991610
v 3.960842 61.542774 9.042110
v 0.000000 65.883827 2.985888
v -4.554155 64.887733 2.415012
v -4.364512 63.711697 6.027076
v 4.364512 63.711697 6.027076
v 4.554155 64.887733 2.415012
v -5.003882 46.758755 5.954597
v -4.816947 50.100502 7.387765
v 0.000000 55.064926 12.736370
v -1.173081 58.856522 11.737335
v -2.202575 55.090630 11.924889
v -3.475896 62.056889 9.242366
v -4.364512 63.711697 6.027076
v -6.355769 60.604511 7.480420
v -8.580018 53.773212 -2.326849
v -8.859065 59.855831 0.234622
v -8.552926 58.493427 -2.995611
v -7.331079 63.393585 -4.332390
v -4.621885 64.216171 -7.174816
v -4.827784 62.230404 -8.634885
v -8.650457 58.772980 -6.970824
v -9.536363 59.483101 -3.360255
v -8.650457 58.772980 -6.970824
v -7.490922 48.481041 -4.999656
v -6.174253 46.912991 -0.638878
v -5.253127 49.759899 7.802473
v -4.478298 52.108765 9.909636
v -8.536671 55.347687 4.688058
v -7.629091 57.253124 5.996441
v -8.200731 60.517757 3.206318
v -3.960842 61.542774 9.042110
v -6.355769 60.604511 7.480420
v -4.212797 56.584778 10.511894
v -3.554463 53.744293 11.629736
v -5.030973 55.562973 10.342276
v -5.152887 52.780327 11.101451
v -8.580018 53.773212 -2.326849
v -10.544183 50.813835 -1.232171
v -9.143530 50.309361 1.880003
v -10.441234 55.887508 -2.066816
v -8.859065 59.855831 0.234622
v 0.000000 52.259785 -11.097723
v -5.692017 52.478283 -9.180355
v -7.084543 52.198734 -5.064665
v -3.080354 60.427788 10.998334
v -2.468076 57.523037 13.591936
v 0.000000 58.027512 14.168790
v -10.511673 51.475761 -4.305489
v -5.505082 56.539791 10.471544
v -3.391911 57.217781 12.823047
v -4.204669 60.398869 10.899701
v -8.650457 58.772980 -6.970824
v -8.831973 53.365131 -10.165192
v -4.757345 58.091778 -10.998343
v -5.003882 53.429398 -12.858922
v 8.552926 58.493427 -2.995611
v 8.859065 59.855831 0.234622
v 8.580018 53.773212 -2.326849
v 9.078509 54.110600 1.412243
v 0.000000 65.433983 -6.140663
v 0.000000 66.741760 -2.147517
v 4.751926 65.684608 -2.695229
v 0.000000 61.439949 -11.599855
v 0.000000 64.945572 -8.039351
v 4.827784 62.230404 -8.634885
v 4.621885 64.216171 -7.174816
v 7.331079 63.393585 -4.332390
v 4.816947 50.100502 7.387765
v 5.003882 46.758755 5.954597
v 9.536363 59.483101 -3.360255
v 8.650457 58.772980 -6.970824
v 8.650457 58.772980 -6.970824
v 8.580018 53.773212 -2.326849
v 9.547200 54.316246 -7.089633
v 8.482487 50.078011 -2.462843
v 10.861159 49.628159 -6.920760
v 5.659506 49.126896 5.179729
v 5.231454 43.169590 2.772185
v 8.119455 49.168671 -0.414711
v 8.200731 60.517757 3.206318
v 7.629091 57.253124 5.996441
v 8.536671 55.347687 4.688058
v 4.478298 52.108765 9.909636
v 5.255837 49.759899 7.802473
v 3.475896 62.056889 9.242366
v 0.000000 64.286865 6.588986
v 0.000000 63.220074 9.971653
v 6.355769 60.604511 7.480420
v 5.030973 55.562973 10.342276
v 5.152887 52.780327 11.101451
v 3.554463 53.744293 11.629736
v 4.212797 56.584778 10.511894
v 3.960842 61.542774 9.042110
v 8.580018 53.773212 -2.326849
v 9.536363 59.483101 -3.360255
v 8.859065 59.855831 0.234622
v 10.441234 55.887508 -2.066816
v 9.143530 50.309361 1.880003
v 10.544183 50.813835 -1.232171
v 7.490922 48.481041 -4.999656
v 6.160707 51.960957 -2.465832
v 6.195927 49.657078 -1.911394
v 8.650457 58.772980 -6.970824
v 9.869594 55.595104 -6.358103
v 10.511673 51.475761 -4.305489
v 0.000000 50.441105 -14.257719
v 0.000000 45.868694 -15.420394
v -6.913863 46.125751 -13.422326
v -9.154367 50.441105 -8.324788
v -7.425901 48.236835 -3.671098
v -7.707657 51.960957 -4.085806
v 7.425901 48.236835 -3.671098
v 8.531252 42.652264 0.020919
v 9.514690 46.720196 -8.999528
v 9.438832 42.832203 -6.438802
v 5.645961 41.084209 -12.520430
v 5.331694 53.413330 -10.680027
v 8.249496 55.447296 -5.129673
v 7.707657 51.960957 -4.085806
v 7.100798 54.978168 -1.545256
v -6.705255 63.065838 1.480239
v -4.751926 65.684608 -2.695229
v -6.195927 49.657078 -1.911394
v -6.160707 51.960957 -2.465832
v -7.528850 54.859280 0.894419
v -8.249496 55.527630 -5.129673
v -6.223019 49.088337 -15.147657
v -9.977962 48.879478 -11.194115
v -10.861159 49.628159 -6.920760
v -4.827784 62.230404 -8.634885
v 0.000000 61.439949 -11.599855
v 0.000000 57.735107 -13.100275
v 4.757345 58.091778 -10.998343
v 2.191738 53.901741 -14.873427
v 0.000000 50.637112 -17.999800
v -2.191738 53.901741 -14.873427
v -4.136939 49.833805 -16.261017
v 6.174253 46.912991 -0.638878
v 6.499357 45.791576 -4.458668
v 4.099011 47.963711 -8.321799
v 4.462043 45.364220 -7.939968
v 0.000000 48.391071 -10.379643
v 0.000000 45.531303 -10.659104
v 6.705255 63.065838 1.480239
v -6.017120 53.956364 8.719312
v 0.000000 65.883827 2.985888
v 4.364512 63.711697 6.027076
v 6.355769 60.604511 7.480420
v 4.204669 60.398869 10.899701
v 5.505082 56.539791 10.471544
v 2.468076 57.523037 13.591936
v 3.080354 60.427788 10.998334
v 0.000000 61.038300 12.476336
v 3.391911 57.217781 12.823047
v 9.977962 48.879478 -11.194115
v 6.223019 49.088337 -15.147657
v 8.831973 53.365131 -10.165192
v 5.003882 53.429398 -12.858922
v 4.136939 49.833805 -16.261017
v 4.827784 62.230404 -8.634885
v 8.650457 58.772980 -6.970824
v -7.100798 54.978168 -1.545256
v -8.249496 55.447296 -5.129673
v -4.770891 56.645828 -8.820195
v 0.000000 58.197811 -10.693478
v 4.770891 56.645828 -8.820195
v 0.000000 38.969913 -14.978786
v -1.912691 62.330013 9.811749
v 2.202575 55.090630 11.924889
v 4.212797 56.584778 10.511894
v 6.017120 53.956364 8.719312
v 4.640850 52.478283 -9.180355
v 7.084543 52.198734 -5.064665
v 8.249496 55.527630 -5.129673
v 7.528850 54.859280 0.894419
v -5.645961 41.084209 -12.520430
vn -0.9669 -0.1415 0.2122
vn -0.9718 -0.2195 0.0862
vn -0.8896 -0.2677 0.3700
vn -0.9999 -0.0000 0.0158
vn -0.9790 0.2037 -0.0000
vn -0.9406 0.1097 0.3214
vn -0.9640 0.1881 -0.1881
vn -0.9338 0.3452 -0.0941
vn -0.8874 0.3220 -0.3298
vn -0.4804 0.4016 -0.7797
vn -0.5730 0.4867 -0.6594
vn -0.0000 0.4783 -0.8782
vn -0.4876 0.2595 0.8336
vn -0.5343 0.2908 0.7937
vn -0.5287 0.2446 0.8128
vn -0.5910 -0.2049 -0.7802
vn -0.6284 0.0157 -0.7777
vn -0.9049 -0.2361 -0.3541
vn -0.9931 -0.0000 -0.1173
vn -0.9806 -0.1177 -0.1569
vn -0.9574 0.2119 0.1962
vn 0.5737 0.0550 -0.8172
vn 0.4804 0.4016 -0.7797
vn 0.9558 0.2194 -0.1958
vn -0.8562 -0.2435 0.4556
vn -0.0000 0.3996 0.9167
vn 0.2443 0.2995 0.9223
vn 0.3616 0.3852 0.8490
vn 0.4876 0.2595 0.8336
vn 0.5343 0.2908 0.7937
vn -0.0000 0.9658 0.2591
vn -0.4736 0.8525 0.2210
vn -0.5028 0.7778 0.3771
vn 0.5028 0.7778 0.3771
vn 0.4736 0.8525 0.2210
vn -0.8540 -0.1645 0.4936
vn -0.8609 -0.3052 0.4070
vn -0.0000 0.2425 0.9701
vn -0.2443 0.2995 0.9223
vn -0.4322 0.1572 0.8880
vn -0.3868 0.7499 0.5367
vn -0.5028 0.7778 0.3772
vn -0.7379 0.3690 0.5652
vn -0.9999 -0.0000 0.0157
vn -0.9575 0.2668 0.1099
vn -0.9995 -0.0000 -0.0315
vn -0.7844 0.5884 -0.1961
vn -0.3920 0.7997 -0.4547
vn -0.5094 0.5251 -0.6818
vn -0.8874 0.3220 -0.3299
vn -0.9338 0.3453 -0.0942
vn -0.9936 -0.0939 -0.0626
vn -0.9629 -0.0783 0.2583
vn -0.8324 -0.1963 0.5183
vn -0.8172 -0.1100 0.5657
vn -0.9126 -0.0787 0.4012
vn -0.9051 0.0158 0.4250
vn -0.9046 0.3382 0.2596
vn -0.5344 0.2907 0.7937
vn -0.7379 0.3689 0.5652
vn -0.4635 0.2279 0.8563
vn -0.5655 0.2514 0.7855
vn -0.8697 0.0078 0.4936
vn -0.9756 0.0551 0.2124
vn -0.8997 0.0947 0.4262
vn -0.9839 0.1338 0.1181
vn 0.0157 -0.2202 -0.9753
vn -0.7088 -0.1969 -0.6774
vn -0.9954 -0.0784 0.0549
vn -0.2758 0.5830 0.7642
vn -0.2910 0.5977 0.7471
vn -0.0000 0.5655 0.8247
vn -0.9964 0.0471 -0.0706
vn -0.7910 0.1958 0.5796
vn -0.4560 0.3695 0.8097
vn -0.5165 0.5087 0.6887
vn -0.7298 0.3610 -0.5806
vn -0.5334 0.4001 -0.7452
vn -0.6530 0.3698 -0.6609
vn 0.9995 -0.0000 -0.0315
vn 0.9575 0.2668 0.1099
vn 0.9999 -0.0000 0.0157
vn 0.9669 -0.1415 0.2122
vn -0.0000 0.9570 -0.2902
vn -0.0000 0.9975 -0.0707
vn 0.4086 0.9115 -0.0471
vn -0.0000 0.5328 -0.8462
vn -0.0000 0.7953 -0.6063
vn 0.5094 0.5251 -0.6818
vn 0.3920 0.7997 -0.4547
vn 0.7844 0.5884 -0.1961
vn 0.8609 -0.3052 0.4070
vn 0.8540 -0.1645 0.4936
vn 0.9338 0.3453 -0.0942
vn 0.8874 0.3220 -0.3299
vn 0.9999 -0.0000 0.0158
vn 0.9790 0.2037 -0.0000
vn 0.9406 0.1097 0.3214
vn 0.9583 0.2671 0.1021
vn 0.8562 -0.2435 0.4556
vn 0.8896 -0.2677 0.3700
vn 0.9718 -0.2195 0.0862
vn 0.9046 0.3382 0.2596
vn 0.9051 0.0158 0.4250
vn 0.9126 -0.0787 0.4012
vn 0.8172 -0.1100 0.5657
vn 0.8324 -0.1963 0.5183
vn 0.3868 0.7499 0.5367
vn -0.0000 0.9167 0.3996
vn -0.0000 0.8730 0.4877
vn 0.7379 0.3689 0.5652
vn 0.5655 0.2514 0.7855
vn 0.8697 0.0078 0.4936
vn 0.4635 0.2279 0.8563
vn 0.5287 0.2446 0.8128
vn 0.5344 0.2908 0.7937
vn 0.8874 0.3220 -0.3298
vn 0.9338 0.3452 -0.0941
vn 0.9839 0.1338 0.1181
vn 0.8997 0.0947 0.4262
vn 0.9756 0.0551 0.2124
vn 0.9922 -0.0709 -0.1024
vn 0.9567 -0.0706 0.2823
vn 0.9339 0.1177 0.3375
vn 0.9640 0.1881 -0.1881
vn 0.9964 0.0471 -0.0706
vn -0.0000 0.3139 -0.9495
vn -0.0000 0.0863 -0.9963
vn -0.5737 0.0550 -0.8172
vn -0.9558 0.2194 -0.1958
vn -0.9406 0.1098 0.3214
vn -0.9456 -0.0394 0.3231
vn 0.9406 0.1098 0.3214
vn 0.9574 0.2119 0.1962
vn 0.9931 -0.0000 -0.1173
vn 0.9806 -0.1177 -0.1569
vn 0.7453 -0.2981 -0.5963
vn 0.5730 0.4867 -0.6594
vn 0.9035 0.3221 -0.2828
vn 0.9456 -0.0394 0.3231
vn 0.9461 -0.0469 0.3205
vn -0.7538 0.6360 0.1649
vn -0.4086 0.9115 -0.0471
vn -0.9339 0.1177 0.3375
vn -0.9567 -0.0706 0.2823
vn -0.8935 -0.4311 0.1254
vn -0.8936 -0.4311 0.1254
vn -0.6062 0.4173 -0.6771
vn -0.8657 0.2991 -0.4014
vn -0.9583 0.2671 0.1021
vn -0.5094 0.5250 -0.6818
vn -0.0000 0.5029 -0.8644
vn 0.5334 0.4001 -0.7452
vn 0.3447 0.5171 -0.7835
vn -0.0000 0.5656 -0.8247
vn -0.3447 0.5171 -0.7835
vn -0.6672 0.3611 -0.6515
vn 0.9629 -0.0783 0.2583
vn 0.9049 -0.2361 -0.3541
vn 0.6047 -0.1728 -0.7775
vn 0.6284 0.0157 -0.7777
vn -0.0000 -0.0551 -0.9985
vn -0.0000 0.0941 -0.9956
vn 0.7538 0.6360 0.1649
vn -0.9355 -0.2987 0.1886
vn -0.0000 0.9658 0.2592
vn 0.7379 0.3690 0.5652
vn 0.5165 0.5087 0.6887
vn 0.7910 0.1958 0.5796
vn 0.2910 0.5977 0.7471
vn 0.2758 0.5830 0.7642
vn -0.0000 0.6456 0.7637
vn 0.4560 0.3694 0.8097
vn 0.8657 0.2991 -0.4014
vn 0.6062 0.4173 -0.6771
vn 0.7298 0.3609 -0.5806
vn 0.6530 0.3698 -0.6609
vn 0.6672 0.3611 -0.6515
vn 0.5094 0.5250 -0.6818
vn -0.9461 -0.0469 0.3205
vn -0.9035 0.3221 -0.2828
vn -0.5119 0.4489 -0.7324
vn -0.0000 0.4092 -0.9125
vn 0.5119 0.4489 -0.7324
vn -0.0000 -0.1810 -0.9835
vn -0.3616 0.3852 0.8490
vn 0.4322 0.1572 0.8880
vn 0.9355 -0.2987 0.1887
vn 0.6742 -0.1176 -0.7291
vn 0.9962 -0.0863 -0.0078
vn 0.8935 -0.4311 0.1254
vn -0.7453 -0.2981 -0.5963
vt 0.500000 0.522308
vt 0.429688 0.610474
vt 0.517029 0.748566
vt 0.140625 0.203125
vt 0.179688 0.351562
vt 0.014008 0.185028
vt 0.779297 0.893555
vt 0.851562 0.734375
vt 0.781250 0.742188
vt 0.155304 0.400238
vt 0.207855 0.400238
vt 0.196594 0.253906
vt 0.921875 0.414062
vt 0.875000 0.570312
vt 0.988403 0.578125
vt 0.921875 0.046875
vt 0.921875 0.164062
vt 0.843750 0.164062
vt 0.132812 0.546875
vt 0.016663 0.578125
vt 0.016663 0.750000
vt 0.109375 0.412476
vt 0.170319 0.557709
vt 0.620728 0.693878
vt 0.859375 0.179688
vt 0.921875 0.273438
vt 0.859375 0.328125
vt 0.695312 0.012817
vt 0.617188 0.093750
vt 0.742188 0.132812
vt 0.523438 0.742188
vt 0.632812 0.703125
vt 0.988403 0.187500
vt 0.988403 0.390625
vt 0.598419 0.810913
vt 0.548279 0.752838
vt 0.468018 0.776276
vt 0.398438 0.500000
vt 0.476562 0.312500
vt 0.390625 0.359375
vt 0.351562 0.187500
vt 0.233063 0.118469
vt 0.191040 0.208069
vt 0.296875 0.335938
vt 0.359375 0.328125
vt 0.289062 0.335938
vt 0.843750 0.046875
vt 0.753326 0.165161
vt 0.636719 0.720306
vt 0.773438 0.710938
vt 0.603516 0.519531
vt 0.649414 0.467773
vt 0.570312 0.320312
vt 0.851562 0.250000
vt 0.734375 0.242188
vt 0.890625 0.640625
vt 0.859375 0.710938
vt 0.820312 0.601562
vt 0.835938 0.718750
vt 0.460938 0.500000
vt 0.888031 0.986420
vt 0.987305 0.987061
vt 0.881836 0.865234
vt 0.960938 0.718750
vt 0.988159 0.031250
vt 0.921875 0.031250
vt 0.843750 0.031250
vt 0.601562 0.893738
vt 0.578125 0.985443
vt 0.734375 0.985443
vt 0.810883 0.983490
vt 0.453125 0.851562
vt 0.538544 0.986542
vt 0.562500 0.856232
vt 0.307922 0.361328
vt 0.174988 0.526550
vt 0.304688 0.704681
vt 0.174988 0.734375
vt 0.234375 0.012817
vt 0.437500 0.012817
vt 0.406250 0.093750
vt 0.016266 0.172516
vt 0.145813 0.054688
vt 0.016663 0.351562
vt 0.739563 0.759094
vt 0.751282 0.808594
vt 0.750000 0.031250
vt 0.743835 0.056335
vt 0.153625 0.236969
vt 0.101562 0.203125
vt 0.150238 0.738678
vt 0.186554 0.715057
vt 0.016663 0.406250
vt 0.230377 0.557709
vt 0.215363 0.675690
vt 0.546875 0.203125
vt 0.742188 0.012268
vt 0.843750 0.012268
vt 0.016663 0.539062
vt 0.411438 0.619781
vt 0.438141 0.985016
vt 0.289062 0.984375
vt 0.159363 0.849976
vt 0.016235 0.954681
vt 0.014618 0.805359
vt 0.988159 0.046875
vt 0.988159 0.164062
vt 0.726562 0.625000
vt 0.692688 0.729156
vt 0.752594 0.882812
vt 0.260406 0.400238
vt 0.253906 0.264313
vt 0.013550 0.217163
s 1
usemtl m_hair0103
f 1/1/1 2/2/2 3/3/3
f 4/4/4 5/5/5 6/6/6
f 7/7/7 8/8/8 9/9/9
f 10/10/10 11/11/11 12/12/12
f 13/13/13 14/14/14 15/15/15
f 16/16/16 17/17/17 18/18/18
f 19/19/19 20/20/20 21/21/21
f 22/22/22 23/10/23 24/23/24
f 3/3/3 25/24/25 1/1/1
f 26/25/26 27/26/27 28/27/28
f 28/27/28 27/26/27 29/13/29
f 28/27/28 29/13/29 30/14/30
f 31/28/31 32/29/32 33/30/33
f 34/30/34 35/29/35 31/28/31
f 1/1/1 36/31/36 37/32/37
f 38/33/38 39/26/39 40/34/40
f 40/34/40 39/26/39 13/13/13
f 40/34/40 13/13/13 15/15/15
f 41/35/41 42/36/42 43/37/43
f 2/2/2 1/1/1 44/38/44
f 44/38/44 1/1/1 45/39/45
f 44/38/44 45/39/45 46/40/46
f 47/41/47 48/42/48 49/43/49
f 49/43/49 50/44/50 47/41/47
f 47/41/47 50/44/50 51/45/51
f 47/41/47 51/45/51 45/39/45
f 5/5/5 4/4/4 52/46/9
f 16/16/16 18/18/18 53/47/52
f 53/47/52 18/18/18 54/48/53
f 55/49/54 56/50/55 57/51/56
f 57/51/56 56/50/55 58/52/57
f 57/51/56 58/52/57 59/53/58
f 60/54/59 61/55/60 62/56/15
f 63/57/61 62/56/15 64/58/62
f 64/58/62 62/56/15 61/55/60
f 64/58/62 61/55/60 65/59/63
f 46/40/46 50/44/9 66/60/4
f 67/61/64 68/62/65 69/63/66
f 69/63/66 68/62/65 70/64/45
f 69/63/66 70/64/45 8/8/8
f 71/65/67 16/16/16 72/66/68
f 72/66/68 16/16/16 53/47/52
f 72/66/68 53/47/52 73/67/69
f 74/68/70 75/69/71 76/70/72
f 8/8/8 7/7/7 69/63/66
f 69/63/66 7/7/7 77/71/73
f 69/63/66 77/71/73 67/61/64
f 78/72/74 79/73/75 80/74/76
f 80/74/76 79/73/75 74/68/70
f 5/5/5 81/75/50 82/76/77
f 82/76/77 81/75/50 83/77/78
f 82/76/77 83/77/78 84/78/79
f 85/40/80 86/39/81 87/38/82
f 87/38/82 86/39/81 88/1/83
f 89/79/84 90/80/85 91/81/86
f 92/82/87 93/83/88 94/43/89
f 94/43/89 93/83/88 95/42/90
f 94/43/89 95/42/90 96/41/91
f 97/32/92 98/31/93 88/1/83
f 86/39/81 99/45/94 96/41/91
f 96/41/91 99/45/94 100/44/95
f 96/41/91 100/44/95 94/43/89
f 101/46/95 102/4/96 103/5/97
f 103/5/97 102/4/96 104/6/98
f 103/5/97 104/6/98 105/84/99
f 106/24/100 107/3/101 88/1/83
f 88/1/83 107/3/101 108/2/102
f 88/1/83 108/2/102 87/38/82
f 109/53/103 110/52/104 111/51/105
f 111/51/105 110/52/104 112/50/106
f 111/51/105 112/50/106 113/49/107
f 114/35/108 115/85/109 116/86/110
f 117/55/111 118/58/112 119/59/113
f 120/57/114 118/58/112 121/56/115
f 121/56/115 118/58/112 117/55/111
f 121/56/115 117/55/111 122/54/116
f 123/60/96 100/44/117 85/40/80
f 124/8/118 125/64/81 126/63/119
f 126/63/119 125/64/81 127/62/120
f 126/63/119 127/62/120 128/61/121
f 129/47/122 130/87/123 131/88/124
f 132/9/117 124/8/118 133/7/125
f 133/7/125 124/8/118 126/63/119
f 133/7/125 126/63/119 134/71/126
f 134/71/126 126/63/119 128/61/121
f 135/89/127 136/90/128 137/22/129
f 11/11/11 10/10/10 138/23/130
f 139/91/131 140/92/132 138/23/130
f 141/91/133 142/21/134 143/19/135
f 143/19/135 142/21/134 144/20/136
f 143/19/135 144/20/136 145/93/137
f 23/10/23 146/11/138 24/23/24
f 24/23/24 146/11/138 147/94/139
f 24/23/24 147/94/139 148/92/140
f 148/92/140 147/94/139 149/95/141
f 37/32/37 57/51/56 1/1/1
f 1/1/1 57/51/56 59/53/58
f 1/1/1 59/53/58 45/39/45
f 45/39/45 59/53/58 150/96/142
f 45/39/45 150/96/142 47/41/47
f 47/41/47 150/96/142 151/81/143
f 47/41/47 151/81/143 48/42/48
f 54/48/53 152/88/144 53/47/52
f 53/47/52 152/88/144 153/87/145
f 53/47/52 153/87/145 73/67/69
f 73/67/69 153/87/145 154/97/146
f 73/67/69 154/97/146 155/98/147
f 84/78/79 156/21/148 82/76/77
f 82/76/77 156/21/148 157/99/149
f 82/76/77 157/99/149 5/5/5
f 5/5/5 157/99/149 158/84/150
f 5/5/5 158/84/150 6/6/6
f 81/75/50 159/100/151 83/77/78
f 83/77/78 159/100/151 160/101/87
f 83/77/78 160/101/87 161/102/152
f 161/102/152 160/101/87 162/77/153
f 161/102/152 162/77/153 163/103/154
f 163/103/154 164/104/155 161/102/152
f 161/102/152 164/104/155 165/103/156
f 161/102/152 165/103/156 83/77/78
f 83/77/78 165/103/156 166/105/157
f 83/77/78 166/105/157 84/78/79
f 131/88/124 167/48/158 129/47/122
f 129/47/122 167/48/158 168/18/159
f 129/47/122 168/18/159 169/16/160
f 169/16/160 168/18/159 170/17/161
f 169/16/160 170/17/161 171/106/162
f 171/106/162 170/17/161 172/107/163
f 171/106/162 172/107/163 17/17/17
f 93/83/88 89/79/84 95/42/90
f 95/42/90 89/79/84 91/81/86
f 95/42/90 91/81/86 96/41/91
f 96/41/91 91/81/86 173/96/164
f 96/41/91 173/96/164 86/39/81
f 86/39/81 173/96/164 109/53/103
f 86/39/81 109/53/103 88/1/83
f 88/1/83 109/53/103 111/51/105
f 88/1/83 111/51/105 97/32/92
f 174/108/165 65/59/63 58/52/57
f 58/52/57 65/59/63 61/55/60
f 58/52/57 61/55/60 59/53/58
f 59/53/58 61/55/60 33/30/33
f 59/53/58 33/30/33 150/96/142
f 150/96/142 33/30/33 32/29/32
f 150/96/142 32/29/32 151/81/143
f 151/81/143 32/29/32 31/28/31
f 175/109/166 115/85/109 176/36/34
f 176/36/34 115/85/109 114/35/108
f 176/36/34 114/35/108 177/37/167
f 177/37/167 114/35/108 178/74/168
f 177/37/167 178/74/168 179/72/169
f 180/69/170 181/68/171 76/70/72
f 76/70/72 181/68/171 182/110/172
f 76/70/72 182/110/172 74/68/70
f 74/68/70 182/110/172 41/35/41
f 74/68/70 41/35/41 80/74/76
f 80/74/76 41/35/41 43/37/43
f 80/74/76 43/37/43 78/72/74
f 175/109/166 42/36/42 115/85/109
f 115/85/109 42/36/42 41/35/41
f 115/85/109 41/35/41 116/86/110
f 116/86/110 41/35/41 182/110/172
f 116/86/110 182/110/172 114/35/108
f 114/35/108 182/110/172 181/68/171
f 114/35/108 181/68/171 178/74/168
f 178/74/168 181/68/171 183/73/173
f 178/74/168 183/73/173 179/72/169
f 184/99/174 185/21/175 186/76/176
f 186/76/176 185/21/175 187/78/177
f 186/76/176 187/78/177 162/77/153
f 162/77/153 187/78/177 188/105/178
f 162/77/153 188/105/178 163/103/154
f 160/101/87 189/100/179 162/77/153
f 162/77/153 189/100/179 190/75/95
f 162/77/153 190/75/95 186/76/176
f 186/76/176 190/75/95 103/5/97
f 186/76/176 103/5/97 184/99/174
f 184/99/174 103/5/97 105/84/99
f 21/21/21 139/91/131 19/19/19
f 19/19/19 139/91/131 138/23/130
f 19/19/19 138/23/130 137/22/129
f 137/22/129 138/23/130 10/10/10
f 137/22/129 10/10/10 135/89/127
f 135/89/127 10/10/10 12/12/12
f 140/92/132 191/95/180 138/23/130
f 138/23/130 191/95/180 192/94/181
f 138/23/130 192/94/181 11/11/11
f 11/11/11 192/94/181 193/111/182
f 11/11/11 193/111/182 12/12/12
f 12/12/12 193/111/182 194/112/183
f 12/12/12 194/112/183 195/111/184
f 148/92/140 141/91/133 24/23/24
f 24/23/24 141/91/133 143/19/135
f 24/23/24 143/19/135 22/22/22
f 22/22/22 143/19/135 145/93/137
f 22/22/22 145/93/137 196/113/185
f 14/14/14 13/13/13 197/27/186
f 197/27/186 13/13/13 39/26/39
f 197/27/186 39/26/39 26/25/26
f 26/25/26 39/26/39 38/33/38
f 26/25/26 38/33/38 27/26/27
f 27/26/27 38/33/38 198/34/187
f 27/26/27 198/34/187 29/13/29
f 29/13/29 198/34/187 199/15/115
f 29/13/29 199/15/115 30/14/30
f 92/82/87 49/43/49 93/83/88
f 93/83/88 49/43/49 48/42/48
f 93/83/88 48/42/48 89/79/84
f 89/79/84 48/42/48 151/81/143
f 89/79/84 151/81/143 90/80/85
f 90/80/85 151/81/143 31/28/31
f 90/80/85 31/28/31 91/81/86
f 91/81/86 31/28/31 35/29/35
f 91/81/86 35/29/35 173/96/164
f 173/96/164 35/29/35 34/30/34
f 173/96/164 34/30/34 109/53/103
f 109/53/103 34/30/34 117/55/111
f 109/53/103 117/55/111 110/52/104
f 110/52/104 117/55/111 119/59/113
f 110/52/104 119/59/113 200/108/188
f 17/17/17 16/16/16 171/106/162
f 171/106/162 16/16/16 71/65/67
f 171/106/162 71/65/67 169/16/160
f 169/16/160 71/65/67 201/66/189
f 169/16/160 201/66/189 129/47/122
f 129/47/122 201/66/189 202/67/190
f 129/47/122 202/67/190 130/87/123
f 130/87/123 202/67/190 203/98/191
f 130/87/123 203/98/191 204/97/191
f 20/20/20 19/19/19 205/93/192
f 205/93/192 19/19/19 137/22/129
f 205/93/192 137/22/129 196/113/185
f 196/113/185 137/22/129 136/90/128
f 196/113/185 136/90/128 22/22/22
f 22/22/22 136/90/128 135/89/127
f 22/22/22 135/89/127 23/10/23
f 23/10/23 135/89/127 12/12/12
f 23/10/23 12/12/12 146/11/138
f 146/11/138 12/12/12 195/111/184
f 146/11/138 195/111/184 147/94/139
