mtllib m_hair006.mtl
o editpl_m-0000-1828
v 0.000000 65.022690 -10.435687
v 0.000000 60.655926 -11.518409
v -4.535191 61.080070 -8.869513
v 4.703161 61.555626 -8.587810
v 3.259161 60.305683 -10.139787
v 2.749832 63.046558 -10.785386
v 0.000000 58.904720 -12.447204
v -2.524969 60.941902 -10.933335
v -0.598732 63.261845 -12.519685
v 0.000000 66.189087 -1.819487
v -1.988548 66.706413 -4.658178
v -2.939476 65.221909 -1.748501
v 4.215506 62.522804 6.078634
v 3.551753 65.221909 -1.748501
v 0.000000 63.570312 6.989496
v 3.630320 58.875801 -10.342284
v 1.425036 62.015118 -11.809825
v 3.259161 60.305683 -10.139787
v -7.398809 62.664185 -0.344474
v -7.973158 62.117939 -2.334322
v -7.591162 58.397034 1.265040
v 0.000000 62.786289 8.610964
v -3.803709 60.434212 8.357656
v 0.000000 59.842979 9.563670
v -0.506619 64.351128 -11.386150
v -1.847670 63.056198 -9.961948
v 0.000000 63.962326 -9.471772
v 3.684504 56.048168 -10.406544
v 1.335633 56.642616 -11.695499
v 2.698357 59.454182 -12.885076
v 8.184475 56.118858 -6.207165
v 6.545413 56.106007 -8.244088
v 6.992430 58.442017 -9.680246
v 6.710674 55.832886 4.628280
v 7.591162 58.397034 1.265040
v 5.686598 57.118172 7.219641
v 3.920204 52.944199 -9.049592
v 7.201038 53.075943 -5.698308
v 3.400039 50.360771 -7.947441
v 6.591469 61.221451 5.100522
v 5.499664 59.148926 6.626348
v 5.827477 58.380966 6.386490
v -0.051475 65.340797 -6.967089
v 0.533711 66.086266 -10.309405
v 0.000000 63.962326 -9.471772
v 7.409646 52.250145 -1.792586
v 7.431319 55.958199 -0.770388
v -4.535191 63.772747 -5.177496
v 0.000000 65.022690 -10.435687
v 4.535191 61.080070 -8.869513
v 4.535191 63.772747 -5.177496
v 4.535191 63.772747 -5.177496
v 0.000000 65.022690 -10.435687
v 0.000000 65.948097 -4.612597
v -4.535191 63.772747 -5.177496
v 0.000000 63.962326 -9.471772
v -2.944894 65.070885 -10.335559
v -2.462657 64.508575 -7.144180
v 0.000000 63.962326 -9.471772
v 2.633337 64.865242 -9.895446
v 4.280527 63.393585 -8.066998
v -4.302200 60.006855 -9.602536
v -6.185090 60.498478 -5.929947
v -3.202267 61.754845 -10.218246
v -0.940090 61.944424 -11.340570
v 0.268210 62.940521 -10.960236
v 0.046056 59.377064 -12.159524
v -4.161322 63.204006 -8.322547
v 0.000000 63.962326 -9.471772
v -2.161937 64.351128 -10.302682
v 6.144452 60.379589 -2.111650
v 5.748910 60.537037 -5.905289
v 5.968355 61.677727 -1.581871
v 4.724835 64.290077 -5.116224
v 4.952407 63.730976 1.400286
v 3.204977 61.761272 -10.006035
v 2.543933 64.235451 -10.002298
v -6.130906 60.379589 -2.111650
v -6.344933 61.677727 -1.581871
v 0.268210 62.940521 -10.960236
v 1.232683 63.673138 -10.825736
v 3.204977 61.761272 -10.006035
v 3.947296 59.949017 -9.546494
v 3.058680 65.433983 -4.496778
v 1.842252 65.887047 -9.870788
v 1.343760 65.122299 -7.395246
v 0.005418 65.327942 2.458351
v 3.627611 64.678871 1.809016
v 2.023768 62.988720 -9.816988
v -0.807340 66.095901 -10.098690
v -1.571333 65.051605 -7.138950
v -7.783515 58.666943 -2.536819
v -6.656490 61.382111 2.919386
v -6.848843 62.513165 -3.567983
v 4.613758 65.456474 -1.019214
v 2.592699 67.583626 -4.754569
v 2.356999 66.973114 -0.795048
v 5.748910 64.463593 -3.156264
v 4.318455 66.250137 -5.702792
v 6.721511 62.397488 -3.568730
v 6.832588 61.382111 2.919386
v 7.786224 58.666943 -2.536819
v 6.122779 65.041969 -8.225408
v 6.835297 62.930882 -5.800678
v 5.483409 63.596020 -8.539241
v 6.856970 60.678417 -7.378808
v -0.948218 67.609329 -8.702882
v -0.243827 67.406898 -4.442978
v -6.496647 60.013283 -6.875181
v -3.787453 59.097515 -10.319868
v -4.987626 55.820030 -9.107875
v 0.747738 60.373161 -12.273102
v 3.589682 65.443619 -5.780503
v 5.673052 63.721336 -6.065941
v 4.172159 66.111969 -9.908895
v -3.890403 66.439720 -8.953200
v -5.312730 63.695629 -6.141410
v -3.703468 65.003410 -4.936144
v -4.101720 64.370407 -9.367908
v -5.185398 61.648808 -8.414454
v -6.496647 60.013283 -6.875181
v 3.630320 58.875801 -10.342284
v -3.787453 59.097515 -10.319868
v 0.000000 55.193455 -11.647676
v -4.987626 55.820030 -9.107875
v 1.758267 66.478279 -5.034777
v 0.614987 67.635033 -8.969640
v -3.031588 62.963017 -10.692731
v -2.524969 60.941902 -10.933335
v 7.390682 57.757603 1.376376
v 7.141436 55.958199 -0.770388
v 6.683582 56.250603 -5.576511
v 4.987626 55.820030 -9.107875
v 0.000000 55.193455 -11.647676
v -7.206456 56.176697 -5.607147
v -7.141436 55.958199 -0.770388
v -7.390682 57.757603 1.376376
v 5.491536 63.265057 -2.693735
v 5.754328 60.877636 5.427058
v 4.987626 55.820030 -9.107875
v 6.705255 59.997215 -6.878169
v 5.201653 64.810616 -10.417006
v -0.130041 67.541855 -0.006730
v 0.647497 68.123444 -5.347862
v 0.747738 60.373161 -12.273102
v 0.000000 58.904720 -12.447204
v -1.148698 59.447754 -12.610098
v 0.308848 61.697006 -13.728688
v -0.197771 54.788589 -11.939841
v 2.747123 58.760124 -11.637217
v -6.206764 62.426407 -10.647897
v -6.027957 58.856522 -9.761694
v -6.442464 60.501690 -7.466980
v -2.210702 61.433525 -12.563770
v -1.148698 59.447754 -12.610098
v -3.578845 58.994690 -11.072319
v -0.197771 54.788589 -11.939841
v -6.101105 55.765408 -8.240352
v -2.617082 67.014885 -0.715842
v -2.565607 67.336205 -5.104268
v -4.789855 65.543228 -1.025939
v -0.197771 54.788589 -11.939841
v 2.747123 58.760124 -11.637217
v 6.399116 56.112434 -8.027393
v 5.488827 59.483101 -9.897688
v 5.564685 62.638481 -10.981905
v 1.232683 63.673138 -10.825736
v 2.023768 62.988720 -9.816988
v -6.867807 54.782162 3.848182
v -7.184783 54.788589 0.799522
v -6.437045 50.694946 2.712406
v -7.656183 61.263222 -3.599365
v -7.883755 61.648808 -5.489834
v -8.097781 60.048626 -4.392167
v -3.400039 50.360771 -7.947441
v -1.863926 46.434219 -9.391070
v -3.960842 46.990108 -7.887663
v -2.151100 67.741074 1.231414
v -3.917495 65.915962 2.857366
v -1.972293 66.372238 3.325126
v 0.018964 66.687134 3.780184
v -0.270919 68.839989 0.594783
v -6.390989 64.457161 -4.640244
v -3.920204 52.944199 -9.049592
v -3.204977 55.871441 -10.641171
v -1.704083 55.868229 -11.451158
v -1.701374 58.223518 -12.664646
v -7.201038 53.075943 -5.698308
v -8.105909 56.433758 -6.705561
v -6.426208 55.919640 -8.655059
v -7.038486 58.586613 -9.914126
v -7.184783 54.788589 0.799522
v -6.867807 54.782162 3.848182
v -7.431319 55.958199 -0.770388
v -6.710674 55.832886 4.628280
v -5.686598 57.118172 7.219641
v -7.623672 61.025444 -7.704596
v -7.816025 58.313488 -5.617608
v -6.591469 61.221451 5.100522
v -4.283236 62.930882 6.843041
v -4.708579 63.772747 5.459188
v -4.405150 58.930428 -11.210554
v -3.204977 55.871441 -10.641171
v -3.920204 52.944199 -9.049592
v -3.400039 50.360771 -7.947441
v -4.283236 62.930882 6.843041
v 0.000000 64.711006 6.238539
v -4.708579 63.772747 5.459188
v -3.202267 61.754845 -10.218246
v -7.241676 62.076168 2.833455
v -6.201345 64.421814 2.182626
v -6.748603 65.125511 -2.290983
v -3.803709 60.434212 8.357656
v -4.768182 59.910458 7.582790
v -5.499664 59.148926 6.626348
v -5.827477 58.380966 6.386490
v -4.863003 66.336899 -5.811886
v -5.778711 64.106918 -3.244436
v 6.437045 50.694946 2.712406
v 7.184783 54.788589 0.799522
v 6.867807 54.782162 3.848182
v 8.276588 59.958656 -4.717207
v 7.886464 61.648808 -5.489834
v 7.658892 61.263222 -3.599365
v -6.355769 64.916649 -8.335250
v -6.810914 63.101185 -5.838786
v 3.960842 46.990108 -7.887663
v 1.863926 46.434219 -9.391070
v 3.400039 50.360771 -7.947441
v 6.959920 64.633888 -4.783711
v 7.398809 62.664185 -0.344474
v 7.973158 62.117939 -2.334322
v 3.920204 52.944199 -9.049592
v -6.198636 63.120464 -8.578844
v 6.867807 54.782162 3.848182
v 7.184783 54.788589 0.799522
v 7.780805 58.123909 -5.799182
v 7.282314 60.588448 -7.945201
v 4.708579 63.772747 5.459188
v 4.283236 62.930882 6.843041
v 3.684504 56.048168 -10.406544
v 4.881968 58.805111 -11.693259
v 6.653781 65.511101 -2.597344
v 6.282621 64.556770 2.074279
v 7.241676 62.076168 2.833455
v 4.768182 59.910458 7.582790
v 3.803709 60.434212 8.357656
v -1.847670 63.056198 -9.961948
v -3.202267 61.754845 -10.218246
v -4.708579 64.290077 -5.116224
v 3.947296 59.949017 -9.546494
v 2.538515 64.585693 -7.780812
v -2.516841 65.433983 -4.496778
v -1.918109 65.459686 -9.562933
v 2.083370 67.288010 -8.411466
v -5.754328 60.877636 5.427058
v -5.488827 63.265057 -2.693735
v -4.215506 62.522804 6.078634
v 0.005418 65.948097 -4.612597
v 0.000000 63.962326 -9.471772
v 0.268210 62.940521 -10.960236
v -0.940090 61.944424 -11.340570
v 0.046056 59.377064 -12.159524
v -4.302200 60.006855 -9.602536
v -2.543933 67.673592 -7.817426
v -3.917495 65.915962 2.857366
v -4.310328 67.567558 -0.531279
v 3.803709 60.434212 8.357656
v 4.283236 62.930882 6.843041
v 4.708579 63.772747 5.459188
v 2.267595 66.288696 3.325874
v 4.220924 65.854912 2.740800
v 2.270305 67.647888 1.382353
v 0.338649 68.460831 0.630649
v -0.398252 58.046791 -13.798925
v 0.000000 54.422279 -12.072099
v 0.000000 50.791344 -9.388830
v 0.000000 49.708488 -9.164664
v 0.000000 46.376381 -9.773648
v -7.409646 52.250145 -1.792586
v -5.789548 49.191162 -4.017809
v -5.307311 47.931580 -5.923221
v -3.960842 46.990108 -7.887663
v -6.843424 59.338505 -9.158687
v -7.420483 63.862717 -5.944891
v 5.789548 49.191162 -4.017809
v 5.307311 47.931580 -5.923221
v 3.960842 46.990108 -7.887663
v 7.607417 63.862717 -5.944891
v 7.070997 59.267815 -9.392567
v 4.443078 67.567558 -1.384605
v 4.220924 65.854912 2.740800
v -4.938861 63.730976 1.400286
v -3.616774 64.678871 1.809016
v 0.000000 64.955208 5.122192
v -4.546028 63.342175 4.380202
v -6.101105 55.765408 -8.240352
v -3.578845 58.994690 -11.072319
v -5.372332 61.735565 -11.581923
v -1.078259 68.480110 -3.870607
v 4.546028 63.342175 4.380202
v 6.721511 62.397488 -3.568730
v 7.786224 58.666943 -2.536819
v 4.976790 61.687366 -12.291035
vn -0.0000 0.7670 -0.6417
vn -0.0000 0.2352 -0.9720
vn -0.6042 0.4237 -0.6749
vn 0.7911 0.1018 -0.6031
vn 0.7158 0.1731 -0.6765
vn 0.7377 -0.0157 -0.6749
vn -0.1727 -0.0864 -0.9812
vn -0.6062 0.0079 -0.7952
vn -0.1960 -0.0392 -0.9798
vn -0.0000 0.9439 0.3303
vn -0.3523 0.8847 0.3053
vn -0.4863 0.8393 0.2432
vn 0.6124 0.7616 0.2120
vn 0.4796 0.8570 0.1887
vn -0.0079 0.9591 0.2830
vn 0.6358 0.0628 -0.7693
vn 0.6841 0.1415 -0.7156
vn -0.9346 0.3298 0.1335
vn -0.9931 0.1173 -0.0000
vn -0.9835 -0.0000 0.1810
vn -0.0000 0.5328 0.8462
vn -0.4321 0.3457 0.8329
vn -0.0000 0.3068 0.9518
vn -0.1418 0.7566 -0.6384
vn -0.2513 0.5970 -0.7619
vn 0.0705 0.7434 -0.6652
vn 0.4546 -0.4232 -0.7838
vn 0.4808 -0.3311 -0.8119
vn 0.3145 -0.4953 -0.8098
vn 0.9700 -0.1420 -0.1972
vn 0.6452 -0.4092 -0.6452
vn 0.6904 -0.4708 -0.5493
vn 0.9806 -0.0000 0.1961
vn 0.9835 -0.0000 0.1810
vn 0.9414 0.1020 0.3216
vn 0.5118 -0.3779 -0.7715
vn 0.7944 -0.4011 -0.4561
vn 0.6119 -0.1020 -0.7844
vn 0.8406 0.1807 0.5106
vn 0.7696 0.0550 0.6361
vn 0.8940 0.0314 0.4470
vn -0.0236 0.9377 -0.3467
vn -0.0943 0.5897 -0.8021
vn 0.0704 0.7433 -0.6652
vn 0.9673 -0.2517 -0.0315
vn 0.9936 -0.0626 0.0939
vn -0.5598 0.7726 -0.2996
vn 0.0001 0.7670 -0.6417
vn -0.6042 0.4238 -0.6748
vn 0.6042 0.4238 -0.6748
vn -0.0000 0.7669 -0.6417
vn 0.5598 0.7726 -0.2996
vn 0.6042 0.4237 -0.6749
vn 0.5597 0.7726 -0.2995
vn -0.0000 0.9876 -0.1569
vn -0.5597 0.7726 -0.2996
vn 0.0703 0.7419 -0.6668
vn -0.3395 0.8608 -0.3791
vn -0.5282 0.8278 -0.1892
vn 0.0704 0.7434 -0.6651
vn 0.2995 0.8826 -0.3625
vn 0.8349 0.3072 -0.4568
vn -0.6905 0.1884 -0.6983
vn -0.9290 0.2283 -0.2913
vn -0.6114 0.2195 -0.7603
vn -0.1329 0.1095 -0.9851
vn 0.1806 0.4241 -0.8874
vn -0.0000 0.1644 -0.9864
vn -0.8328 0.3143 -0.4557
vn 0.0705 0.7434 -0.6651
vn -0.0551 0.3857 -0.9210
vn 0.9818 0.1649 -0.0943
vn 0.9333 0.2118 -0.2901
vn 0.9517 0.2989 -0.0708
vn 0.7157 0.6920 -0.0944
vn 0.7706 0.6369 0.0236
vn 0.6671 0.2119 -0.7142
vn 0.1417 0.4173 -0.8976
vn -0.9864 -0.1644 0.0079
vn -0.9631 0.2663 -0.0391
vn 0.2912 0.7401 -0.6062
vn 0.7322 0.1260 -0.6693
vn 0.4804 0.8742 -0.0709
vn 0.2516 0.8808 -0.4011
vn 0.4648 0.7168 -0.5199
vn -0.0000 0.9963 0.0863
vn 0.4619 0.8847 0.0626
vn 0.3067 0.5898 -0.7470
vn -0.0784 0.7684 -0.6351
vn -0.4713 0.7776 -0.4163
vn -0.9869 0.1253 -0.1018
vn -0.8718 0.4713 0.1336
vn -0.9120 0.4010 0.0865
vn 0.6826 0.7061 0.1883
vn 0.5605 0.8130 0.1579
vn 0.4182 0.8601 0.2920
vn 0.8578 0.5037 0.1023
vn 0.7288 0.6818 0.0627
vn 0.9350 0.3457 0.0786
vn 0.8643 0.4871 0.1257
vn 0.9865 0.1566 -0.0470
vn 0.8952 0.4319 0.1099
vn 0.9515 0.3067 -0.0236
vn 0.8896 0.2677 -0.3700
vn 0.9436 0.0236 -0.3302
vn -0.3776 0.9203 0.1023
vn 0.0394 0.9605 0.2756
vn -0.9109 0.1492 -0.3847
vn -0.6199 -0.0000 -0.7847
vn -0.7144 -0.0392 -0.6986
vn 0.4552 -0.0785 -0.8869
vn 0.6915 0.7151 0.1022
vn 0.9082 0.4149 -0.0548
vn 0.6389 0.7414 0.2051
vn -0.7211 0.6427 0.2587
vn -0.8851 0.4622 -0.0548
vn -0.7155 0.6841 0.1415
vn -0.9207 0.2597 -0.2912
vn -0.8094 0.1572 -0.5658
vn -0.8851 0.4621 -0.0549
vn -0.9109 0.1492 -0.3848
vn 0.1180 -0.1887 -0.9749
vn -0.7143 -0.0392 -0.6987
vn 0.3447 0.9088 0.2350
vn 0.4468 0.8858 0.1255
vn -0.6966 -0.0861 -0.7123
vn -0.6063 0.0079 -0.7952
vn 0.9806 0.1961 -0.0000
vn 0.9954 -0.0157 -0.0941
vn 0.9763 -0.0709 -0.2047
vn 0.7280 -0.0783 -0.6811
vn 0.1179 -0.1887 -0.9749
vn -0.9790 -0.0000 -0.2037
vn -0.9900 -0.1414 -0.0000
vn -0.9790 0.2037 -0.0000
vn 0.7935 0.5971 0.1178
vn 0.8508 0.5121 0.1182
vn 0.7281 -0.0783 -0.6810
vn 0.8952 0.1099 -0.4319
vn 0.9590 -0.2358 -0.1572
vn -0.0000 0.9414 0.3373
vn 0.2585 0.9557 0.1410
vn -0.1728 -0.0864 -0.9812
vn -0.4488 -0.2204 -0.8660
vn 0.0315 -0.2517 -0.9673
vn -0.0943 -0.2911 -0.9520
vn 0.5262 -0.3613 -0.7698
vn -0.9899 -0.0786 -0.1179
vn -0.7984 -0.2661 -0.5401
vn -0.9803 -0.0235 -0.1961
vn -0.4872 -0.2357 -0.8409
vn -0.4722 -0.3069 -0.8263
vn -0.0944 -0.2911 -0.9520
vn -0.8033 -0.2048 -0.5592
vn -0.4245 0.8491 0.3144
vn -0.5649 0.8238 0.0471
vn -0.7456 0.6436 0.1727
vn -0.0945 -0.2911 -0.9520
vn 0.5263 -0.3613 -0.7697
vn 0.7832 -0.1801 -0.5952
vn 0.7555 -0.2675 -0.5981
vn 0.8984 -0.1576 -0.4098
vn 0.1807 0.4241 -0.8874
vn 0.2913 0.7401 -0.6062
vn 0.3067 0.5897 -0.7471
vn -0.9929 -0.0469 0.1095
vn -0.9895 -0.1021 0.1021
vn -0.9869 -0.1253 0.1018
vn -0.9989 0.0472 -0.0000
vn -0.9578 0.2355 0.1649
vn -0.9987 0.0315 0.0393
vn -0.6118 -0.1020 -0.7844
vn -0.3540 0.1652 -0.9205
vn -0.6835 0.1021 -0.7228
vn -0.3140 0.7851 0.5338
vn -0.4480 0.7546 0.4795
vn -0.2767 0.7744 0.5690
vn -0.0000 0.8084 0.5886
vn -0.2509 0.7919 0.5567
vn -0.7937 0.6051 0.0629
vn -0.5013 -0.3995 -0.7676
vn -0.4709 -0.3532 -0.8084
vn -0.5041 -0.3544 -0.7876
vn -0.4330 -0.4094 -0.8031
vn -0.8136 -0.3911 -0.4302
vn -0.9621 -0.1251 -0.2425
vn -0.6367 -0.3851 -0.6681
vn -0.7400 -0.4172 -0.5275
vn -0.9944 -0.0705 0.0783
vn -0.9806 -0.0000 0.1961
vn -0.9414 0.1020 0.3216
vn -0.9865 -0.0470 -0.1566
vn -0.9980 0.0314 -0.0550
vn -0.8406 0.1807 0.5106
vn -0.5121 0.5279 0.6776
vn -0.5448 0.6632 0.5132
vn -0.4946 -0.3376 -0.8008
vn -0.6119 -0.1020 -0.7844
vn -0.0000 0.7885 0.6150
vn -0.9155 0.2999 0.2683
vn -0.7722 0.5516 0.3152
vn -0.9114 0.3771 0.1650
vn -0.4322 0.3457 0.8329
vn -0.7362 0.1880 0.6501
vn -0.7696 0.0550 0.6361
vn -0.8940 0.0314 0.4470
vn -0.8814 0.4643 0.0866
vn -0.8617 0.4935 0.1175
vn 0.9869 -0.1253 0.1018
vn 0.9895 -0.1021 0.1021
vn 0.9929 -0.0469 0.1094
vn 0.9996 0.0236 0.0157
vn 0.9413 0.2902 0.1726
vn 0.9977 0.0629 0.0236
vn -0.8741 0.4567 0.1654
vn -0.9656 0.2590 -0.0236
vn 0.6835 0.1021 -0.7228
vn 0.3540 0.1652 -0.9205
vn 0.6118 -0.1020 -0.7844
vn 0.8736 0.4722 0.1180
vn 0.9499 0.2826 0.1335
vn 0.9972 0.0707 0.0236
vn 0.5117 -0.3779 -0.7716
vn -0.9754 -0.0000 -0.2203
vn 0.9929 -0.0469 0.1095
vn 0.9968 0.0157 -0.0785
vn 0.9494 -0.0706 -0.3060
vn 0.5426 0.6605 0.5190
vn 0.5121 0.5279 0.6776
vn 0.4546 -0.4232 -0.7837
vn 0.5184 -0.5342 -0.6677
vn 0.9250 0.3528 0.1411
vn 0.7806 0.5441 0.3075
vn 0.9190 0.2827 0.2749
vn 0.7362 0.1880 0.6501
vn 0.4322 0.3457 0.8329
vn -0.2514 0.5969 -0.7619
vn -0.6835 0.7228 -0.1021
vn 0.7323 0.1260 -0.6692
vn 0.5513 0.7875 -0.2756
vn -0.4400 0.8958 -0.0629
vn -0.2836 0.9057 -0.3150
vn 0.5007 0.8528 0.1486
vn -0.8508 0.5121 0.1182
vn -0.7782 0.6209 0.0943
vn -0.5743 0.7947 0.1967
vn -0.0079 0.9999 0.0079
vn -0.1329 0.1094 -0.9851
vn -0.6905 0.1883 -0.6984
vn -0.6213 0.7393 0.2595
vn -0.4481 0.7546 0.4795
vn -0.5832 0.7014 0.4098
vn 0.4321 0.3458 0.8329
vn 0.5425 0.6605 0.5190
vn 0.2834 0.7793 0.5589
vn 0.4576 0.7575 0.4656
vn 0.3307 0.7717 0.5433
vn 0.2438 0.8337 0.4955
vn 0.0315 -0.4248 -0.9047
vn 0.0158 -0.4408 -0.8974
vn -0.0000 -0.4156 -0.9096
vn -0.0000 0.0707 -0.9975
vn -0.0000 0.1809 -0.9835
vn -0.9648 -0.2588 -0.0471
vn -0.8937 -0.2038 -0.3998
vn -0.8259 0.2202 -0.5191
vn -0.6835 0.1021 -0.7227
vn -0.9508 0.2515 -0.1807
vn -0.9790 -0.0783 -0.1880
vn 0.8937 -0.2038 -0.3998
vn 0.8259 0.2202 -0.5191
vn 0.6835 0.1021 -0.7227
vn 0.9806 -0.1177 -0.1569
vn 0.9699 0.2129 -0.1183
vn 0.5735 0.7463 0.3378
vn 0.4577 0.7575 0.4655
vn -0.7262 0.6868 0.0316
vn -0.4245 0.9042 0.0472
vn -0.0000 0.8897 0.4566
vn -0.5668 0.7400 0.3621
vn -0.8034 -0.2048 -0.5591
vn -0.4722 -0.3070 -0.8263
vn -0.4095 -0.4175 -0.8112
vn -0.2743 0.9169 0.2900
vn 0.5507 0.7631 0.3383
vn 0.8642 0.4872 0.1257
vn 0.5421 -0.5578 -0.6285
vt 0.946472 0.456818
vt 0.984222 0.668427
vt 0.730469 0.520477
vt 0.807098 0.019196
vt 0.632141 0.149109
vt 0.547272 0.019135
vt 0.188995 0.180115
vt 0.334259 0.203857
vt 0.247711 0.346191
vt 0.193237 0.402313
vt 0.031281 0.264709
vt 0.768280 0.243225
vt 0.560974 0.161133
vt 0.648468 0.207794
vt 0.454865 0.282166
vt 0.560455 0.322510
vt 0.407196 0.492584
vt 0.013123 0.798370
vt 0.215118 0.965576
vt 0.013123 0.987854
vt 0.639313 0.210571
vt 0.632782 0.119781
vt 0.529266 0.106171
vt 0.716614 0.617767
vt 0.859558 0.585846
vt 0.858704 0.412109
vt 0.289001 0.612701
vt 0.203491 0.549591
vt 0.987335 0.746887
vt 0.778717 0.789581
vt 0.987335 0.870056
vt 0.222290 0.336853
vt 0.189362 0.436035
vt 0.220917 0.487946
vt 0.268188 0.077423
vt 0.414734 0.024628
vt 0.558899 0.816437
vt 0.479889 0.620087
vt 0.573059 0.390778
vt 0.799255 0.331024
vt 0.376740 0.465607
vt 0.567322 0.206360
vt 0.439758 0.274475
vt 0.643036 0.448425
vt 0.974213 0.905609
vt 0.644043 0.841003
vt 0.927155 0.812805
vt 0.715485 0.074890
vt 0.929901 0.019196
vt 0.980927 0.810303
vt 0.410919 0.604858
vt 0.414368 0.573181
vt 0.289948 0.477264
vt 0.694275 0.043915
vt 0.559357 0.149719
vt 0.970184 0.244415
vt 0.506897 0.122070
vt 0.941956 0.628235
vt 0.602997 0.577301
vt 0.586029 0.453125
vt 0.560089 0.328461
vt 0.660461 0.262054
vt 0.670013 0.403748
vt 0.719788 0.071808
vt 0.984222 0.695557
vt 0.896820 0.403748
vt 0.863739 0.590485
vt 0.536530 0.108917
vt 0.971497 0.864716
vt 0.963135 0.669159
vt 0.774078 0.741241
vt 0.867493 0.598724
vt 0.889984 0.413116
vt 0.014771 0.121826
vt 0.014435 0.012390
vt 0.200897 0.060333
vt 0.625580 0.370667
vt 0.735107 0.292664
vt 0.682098 0.425659
vt 0.856293 0.243927
vt 0.988190 0.129944
vt 0.987335 0.242279
vt 0.108002 0.395020
vt 0.170135 0.534729
vt 0.095612 0.534576
vt 0.013123 0.512909
vt 0.013123 0.365570
vt 0.570892 0.206207
vt 0.764038 0.253754
vt 0.456268 0.691101
vt 0.316315 0.683716
vt 0.799133 0.331665
vt 0.715057 0.496246
vt 0.100342 0.196503
vt 0.187073 0.174011
vt 0.939056 0.445099
vt 0.987335 0.584869
vt 0.249817 0.734955
vt 0.013123 0.658661
vt 0.248901 0.677704
vt 0.321594 0.302643
vt 0.322327 0.213013
vt 0.516632 0.118011
vt 0.011841 0.279724
vt 0.046631 0.322510
vt 0.941956 0.655396
vt 0.271423 0.068634
vt 0.426697 0.012573
vt 0.547821 0.016602
vt 0.694092 0.016602
vt 0.842346 0.016602
vt 0.900635 0.016602
vt 0.988434 0.016724
vt 0.763794 0.989166
vt 0.876160 0.991486
vt 0.987335 0.993378
vt 0.666260 0.253510
vt 0.819061 0.778839
vt 0.925323 0.485870
vt 0.936859 0.464294
s 1
usemtl m_hair0110
f 1/1/1 2/2/2 3/3/3
f 4/3/4 5/2/5 6/1/6
f 7/4/7 8/5/8 9/6/9
f 10/7/10 11/8/11 12/9/12
f 13/10/13 14/9/14 15/11/15
f 16/12/16 17/13/17 18/14/5
f 19/15/18 20/16/19 21/17/20
f 22/18/21 23/19/22 24/20/23
f 25/6/24 26/5/25 27/12/26
f 28/21/27 29/22/28 30/23/29
f 31/24/30 32/25/31 33/26/32
f 34/27/33 35/17/34 36/28/35
f 37/29/36 38/30/37 39/31/38
f 40/32/39 41/33/40 42/34/41
f 43/35/42 44/36/43 45/7/44
f 46/37/45 31/24/30 47/38/46
f 48/39/47 49/40/48 3/3/49
f 50/3/50 49/40/51 51/39/52
f 2/2/2 1/1/1 50/3/53
f 52/9/54 53/36/51 54/7/55
f 54/7/55 53/36/51 55/9/56
f 56/41/57 57/42/58 58/43/59
f 59/41/60 60/42/61 61/44/62
f 62/45/63 63/46/64 64/47/65
f 65/4/66 66/48/67 67/49/68
f 68/44/69 69/50/70 70/1/71
f 71/51/72 72/46/73 73/52/74
f 73/52/74 72/46/73 74/41/75
f 73/52/74 74/41/75 75/53/76
f 61/44/62 76/50/77 77/1/78
f 63/46/64 78/51/79 79/52/80
f 80/54/67 81/55/81 67/49/68
f 67/49/68 81/55/81 82/12/77
f 67/49/68 82/12/77 83/56/82
f 84/9/83 85/57/84 86/8/85
f 87/11/86 88/10/87 84/9/83
f 76/50/77 89/58/88 77/1/78
f 77/1/78 89/58/88 69/50/60
f 77/1/78 69/50/60 61/44/62
f 43/35/42 45/7/44 90/36/89
f 90/36/89 45/7/44 91/8/90
f 92/59/91 93/41/92 94/60/93
f 95/43/94 96/57/95 97/8/96
f 95/43/94 98/61/97 99/42/98
f 100/60/99 101/41/100 102/59/101
f 103/62/102 98/61/97 104/63/103
f 105/40/104 104/63/103 106/3/105
f 107/36/106 11/8/11 108/35/107
f 109/59/108 110/47/109 111/45/110
f 7/4/7 9/6/9 112/64/111
f 113/43/112 114/39/113 115/42/114
f 116/42/115 117/39/116 118/43/117
f 119/40/118 120/3/119 117/39/120
f 117/39/120 120/3/119 121/59/121
f 5/2/5 4/3/4 122/47/16
f 8/5/8 7/4/7 123/12/109
f 123/12/109 7/4/7 124/49/122
f 123/12/109 124/49/122 125/56/123
f 11/8/11 10/7/10 108/35/107
f 108/35/107 10/7/10 126/8/124
f 108/35/107 126/8/124 127/36/125
f 128/1/126 129/65/127 120/3/119
f 120/3/119 129/65/127 110/47/109
f 120/3/119 110/47/109 121/59/121
f 130/52/128 131/51/129 132/46/130
f 16/12/16 133/56/131 134/49/132
f 135/46/133 136/51/134 137/52/135
f 14/9/14 13/10/13 138/41/136
f 138/41/136 13/10/13 139/53/137
f 138/41/136 139/53/137 130/52/128
f 140/45/138 122/47/16 141/59/139
f 141/59/139 122/47/16 4/3/4
f 141/59/139 4/3/4 114/39/113
f 114/39/113 4/3/4 142/40/140
f 143/35/141 97/8/96 144/36/142
f 17/13/17 16/12/16 145/48/111
f 145/48/111 16/12/16 134/49/132
f 145/48/111 134/49/132 146/4/143
f 147/64/144 148/6/145 149/4/146
f 149/4/146 148/6/145 150/5/147
f 151/66/148 152/67/149 153/3/150
f 154/68/151 155/48/144 156/14/152
f 156/14/152 155/48/144 157/4/153
f 156/14/152 157/4/153 158/12/154
f 159/8/155 160/57/156 161/43/157
f 162/69/158 163/70/159 164/71/160
f 106/3/105 165/72/161 166/73/162
f 66/48/163 27/12/60 167/68/164
f 167/68/164 27/12/60 168/14/165
f 167/68/164 168/14/165 82/12/77
f 169/74/166 170/75/167 171/76/168
f 172/77/169 173/78/170 174/79/171
f 175/80/172 176/81/173 177/82/174
f 178/83/175 179/84/176 180/85/177
f 181/86/178 182/87/179 180/85/177
f 20/16/19 19/15/18 183/88/180
f 184/89/181 185/21/182 186/22/183
f 186/22/183 185/21/182 187/23/184
f 188/30/185 189/24/186 190/25/187
f 190/25/187 189/24/186 191/26/188
f 192/90/167 193/91/166 194/38/189
f 194/38/189 193/91/166 195/27/190
f 194/38/189 195/27/190 21/17/20
f 21/17/20 195/27/190 196/28/191
f 197/92/192 198/93/193 174/79/171
f 199/32/194 200/94/195 201/95/196
f 202/96/197 203/97/182 190/25/187
f 190/25/187 203/97/182 204/29/181
f 190/25/187 204/29/181 188/30/185
f 188/30/185 204/29/181 205/31/198
f 23/19/22 22/18/21 206/98/195
f 206/98/195 22/18/21 207/99/199
f 206/98/195 207/99/199 208/100/196
f 26/5/25 25/6/24 209/12/65
f 21/17/20 210/101/200 19/15/18
f 19/15/18 210/101/200 211/102/201
f 19/15/18 211/102/201 212/103/202
f 213/104/203 200/94/195 214/105/204
f 214/105/204 200/94/195 199/32/194
f 214/105/204 199/32/194 215/33/205
f 215/33/205 199/32/194 216/34/206
f 217/42/207 218/61/208 161/43/157
f 219/76/209 220/75/210 221/74/211
f 222/79/212 223/78/213 224/77/214
f 218/61/208 225/62/215 226/63/216
f 227/82/217 228/81/218 229/80/219
f 230/88/220 231/15/221 232/16/222
f 232/16/222 231/15/221 35/17/34
f 29/22/28 28/21/27 233/89/223
f 153/3/150 226/63/216 234/40/224
f 32/25/31 31/24/30 38/30/37
f 35/17/34 34/27/33 47/38/46
f 47/38/46 34/27/33 235/91/225
f 47/38/46 235/91/225 236/90/210
f 222/79/212 237/93/226 238/92/227
f 239/95/228 240/94/229 40/32/39
f 38/30/37 37/29/36 32/25/31
f 32/25/31 37/29/36 241/97/230
f 32/25/31 241/97/230 242/96/231
f 243/103/232 244/102/233 231/15/221
f 231/15/221 244/102/233 245/101/234
f 231/15/221 245/101/234 35/17/34
f 41/33/40 40/32/39 246/105/235
f 246/105/235 40/32/39 240/94/229
f 246/105/235 240/94/229 247/104/236
f 69/50/70 248/106/237 70/1/71
f 70/1/71 248/106/237 249/50/65
f 70/1/71 249/50/65 68/44/69
f 68/44/69 249/50/65 63/46/64
f 68/44/69 63/46/64 250/41/238
f 250/41/238 63/46/64 79/52/80
f 251/45/239 76/50/77 72/46/73
f 72/46/73 76/50/77 61/44/62
f 72/46/73 61/44/62 74/41/75
f 74/41/75 61/44/62 60/42/61
f 74/41/75 60/42/61 252/43/240
f 252/43/240 60/42/61 59/41/60
f 56/41/57 68/44/69 57/42/58
f 57/42/58 68/44/69 250/41/238
f 57/42/58 250/41/238 58/43/59
f 58/43/59 250/41/238 253/9/241
f 58/43/59 253/9/241 254/57/242
f 255/57/243 14/9/14 113/43/112
f 113/43/112 14/9/14 138/41/136
f 113/43/112 138/41/136 114/39/113
f 114/39/113 138/41/136 130/52/128
f 114/39/113 130/52/128 141/59/139
f 141/59/139 130/52/128 132/46/130
f 141/59/139 132/46/130 140/45/138
f 137/52/135 256/53/244 257/41/245
f 257/41/245 256/53/244 258/10/246
f 257/41/245 258/10/246 12/9/12
f 12/9/12 258/10/246 15/11/15
f 12/9/12 15/11/15 10/7/10
f 10/7/10 15/11/15 14/9/14
f 10/7/10 14/9/14 126/8/124
f 126/8/124 14/9/14 255/57/243
f 44/36/43 43/35/42 259/7/247
f 259/7/247 43/35/42 90/36/89
f 259/7/247 90/36/89 253/9/241
f 253/9/241 90/36/89 91/8/90
f 253/9/241 91/8/90 254/57/242
f 254/57/242 91/8/90 260/9/60
f 254/57/242 260/9/60 58/43/59
f 27/12/26 261/64/67 25/6/24
f 25/6/24 261/64/67 262/4/248
f 25/6/24 262/4/248 209/12/65
f 209/12/65 262/4/248 263/49/68
f 209/12/65 263/49/68 264/56/249
f 11/8/11 265/57/250 12/9/12
f 12/9/12 265/57/250 118/43/117
f 12/9/12 118/43/117 257/41/245
f 257/41/245 118/43/117 117/39/116
f 257/41/245 117/39/116 137/52/135
f 137/52/135 117/39/116 109/59/108
f 137/52/135 109/59/108 135/46/133
f 135/46/133 109/59/108 111/45/110
f 196/28/191 216/34/206 21/17/20
f 21/17/20 216/34/206 199/32/194
f 21/17/20 199/32/194 210/101/200
f 210/101/200 199/32/194 201/95/196
f 210/101/200 201/95/196 211/102/201
f 211/102/201 201/95/196 266/107/251
f 211/102/201 266/107/251 267/108/252
f 24/20/23 268/19/253 22/18/21
f 22/18/21 268/19/253 269/98/229
f 22/18/21 269/98/229 207/99/199
f 207/99/199 269/98/229 270/100/254
f 207/99/199 270/100/254 271/85/255
f 271/85/255 270/100/254 272/84/256
f 271/85/255 272/84/256 273/83/257
f 179/84/176 208/100/196 180/85/177
f 180/85/177 208/100/196 207/99/199
f 180/85/177 207/99/199 181/86/178
f 181/86/178 207/99/199 271/85/255
f 181/86/178 271/85/255 274/87/258
f 275/109/259 29/22/28 276/110/260
f 276/110/260 29/22/28 233/89/223
f 276/110/260 233/89/223 277/111/261
f 277/111/261 233/89/223 229/80/219
f 277/111/261 229/80/219 278/112/262
f 278/112/262 229/80/219 228/81/218
f 278/112/262 228/81/218 279/113/263
f 194/38/189 189/24/186 280/37/264
f 280/37/264 189/24/186 188/30/185
f 280/37/264 188/30/185 281/114/265
f 281/114/265 188/30/185 205/31/198
f 281/114/265 205/31/198 282/115/266
f 282/115/266 205/31/198 283/116/267
f 279/113/263 176/81/173 278/112/262
f 278/112/262 176/81/173 175/80/172
f 278/112/262 175/80/172 277/111/261
f 277/111/261 175/80/172 184/89/181
f 277/111/261 184/89/181 276/110/260
f 276/110/260 184/89/181 186/22/183
f 276/110/260 186/22/183 275/109/259
f 284/26/268 189/24/186 198/93/193
f 198/93/193 189/24/186 194/38/189
f 198/93/193 194/38/189 174/79/171
f 174/79/171 194/38/189 21/17/20
f 174/79/171 21/17/20 172/77/169
f 172/77/169 21/17/20 20/16/19
f 172/77/169 20/16/19 285/117/269
f 31/24/30 46/37/45 38/30/37
f 38/30/37 46/37/45 286/114/270
f 38/30/37 286/114/270 39/31/38
f 39/31/38 286/114/270 287/115/271
f 39/31/38 287/115/271 288/116/272
f 289/117/273 232/16/222 224/77/214
f 224/77/214 232/16/222 35/17/34
f 224/77/214 35/17/34 222/79/212
f 222/79/212 35/17/34 47/38/46
f 222/79/212 47/38/46 237/93/226
f 237/93/226 47/38/46 31/24/30
f 237/93/226 31/24/30 290/26/274
f 291/108/275 292/107/276 244/102/233
f 244/102/233 292/107/276 239/95/228
f 244/102/233 239/95/228 245/101/234
f 245/101/234 239/95/228 40/32/39
f 245/101/234 40/32/39 35/17/34
f 35/17/34 40/32/39 42/34/41
f 35/17/34 42/34/41 36/28/35
f 79/52/80 293/53/277 250/41/238
f 250/41/238 293/53/277 294/10/278
f 250/41/238 294/10/278 253/9/241
f 253/9/241 294/10/278 87/11/86
f 253/9/241 87/11/86 259/7/247
f 259/7/247 87/11/86 84/9/83
f 259/7/247 84/9/83 44/36/43
f 44/36/43 84/9/83 86/8/85
f 44/36/43 86/8/85 260/9/70
f 260/9/70 86/8/85 85/57/84
f 260/9/70 85/57/84 252/43/240
f 252/43/240 85/57/84 84/9/83
f 252/43/240 84/9/83 74/41/75
f 74/41/75 84/9/83 88/10/87
f 74/41/75 88/10/87 75/53/76
f 295/7/279 159/8/155 296/9/280
f 296/9/280 159/8/155 161/43/157
f 296/9/280 161/43/157 93/41/92
f 93/41/92 161/43/157 218/61/208
f 93/41/92 218/61/208 94/60/93
f 94/60/93 218/61/208 226/63/216
f 94/60/93 226/63/216 92/59/91
f 92/59/91 226/63/216 153/3/150
f 92/59/91 153/3/150 297/118/281
f 297/118/281 153/3/150 152/67/149
f 297/118/281 152/67/149 298/2/282
f 298/2/282 152/67/149 299/119/283
f 300/36/284 159/8/155 143/35/141
f 143/35/141 159/8/155 295/7/279
f 143/35/141 295/7/279 97/8/96
f 97/8/96 295/7/279 301/9/285
f 97/8/96 301/9/285 95/43/94
f 95/43/94 301/9/285 101/41/286
f 95/43/94 101/41/286 98/61/97
f 98/61/97 101/41/286 302/60/99
f 98/61/97 302/60/99 104/63/103
f 104/63/103 302/60/99 303/59/101
f 104/63/103 303/59/101 106/3/105
f 106/3/105 303/59/101 164/71/160
f 106/3/105 164/71/160 165/72/161
f 165/72/161 164/71/160 163/70/159
f 165/72/161 163/70/159 304/120/287
