mtllib m_hair002.mtl
o editpl_m-0000-1823
v 4.860294 64.335060 4.711220
v 5.104122 65.411491 1.666297
v 3.188721 66.182663 1.901671
v 8.804881 59.344933 -3.582927
v 8.222404 56.514088 -2.962733
v 7.821443 55.106697 -5.664683
v -7.466539 57.747963 3.449166
v -6.737766 55.701141 4.420553
v -5.616159 57.137451 7.144171
v 0.241118 60.251060 -10.850393
v -4.854876 57.702976 -10.090470
v -4.099011 60.749107 -8.971882
v 6.003574 61.211811 -7.707585
v 3.763071 63.750256 -6.984275
v 6.103814 63.811306 -4.076093
v -8.067980 61.552414 0.293653
v -8.103200 61.523495 -3.587410
v -8.785916 59.852619 -0.048574
v 6.515612 62.114727 5.444991
v 5.494246 62.738091 5.599666
v 5.748910 60.643070 6.979035
v 0.000000 49.242573 -8.789558
v 3.053262 47.520287 -8.058777
v 0.000000 48.047256 -8.935266
v -7.073706 58.339195 -7.623895
v -8.804881 59.254959 -3.355025
v -6.233856 61.115414 -7.566360
v 6.716092 64.000885 0.364639
v 7.843117 61.841602 -3.480558
v -3.532789 58.014660 9.849110
v -3.901240 58.172108 10.014992
v -4.340129 55.935707 9.438887
v -4.107138 58.239586 9.743752
v -3.053262 47.520287 -8.058777
v -4.201960 49.396809 -6.920013
v 0.000000 51.006630 -9.281977
v 7.141436 58.371326 -7.623895
v 4.673360 54.255196 -9.500166
v 4.695033 57.773666 -10.382634
v 4.695033 57.773666 -10.382634
v 3.754943 60.475983 -9.633172
v 2.687521 64.518211 7.234584
v 4.518936 63.374310 7.255506
v 3.085772 65.311874 4.728406
v -3.855183 63.502834 -7.119522
v -4.099011 60.749107 -8.971882
v -4.854876 57.702976 -10.090470
v 0.338649 65.707108 -6.157849
v -1.714920 63.377522 -8.795538
v -9.547200 60.617367 2.556237
v -8.352445 60.244633 4.463143
v -6.707965 61.995838 4.646959
v 3.792872 62.150070 9.120569
v 0.566222 63.040134 9.286452
v 2.565607 61.661663 10.140525
v 5.494246 62.738091 5.599666
v 8.371410 57.995380 -0.167381
v 8.791335 59.852619 -0.048574
v 8.319935 59.023609 2.764711
v -2.804016 60.527397 9.527058
v -2.541224 60.234993 10.300430
v -2.031896 59.968296 10.246631
v 8.791335 59.852619 -0.048574
v 7.436738 60.832653 4.440727
v 8.319935 59.023609 2.764711
v -4.928024 47.700230 -5.764063
v -5.553848 49.040138 -2.610045
v -5.702854 50.675667 -4.339861
v -6.987012 52.979546 -3.108441
v -7.821443 55.106697 -5.664683
v -8.309098 56.514088 -2.962733
v -7.480085 55.897148 1.977141
v -8.577309 58.175320 0.092651
v -7.485503 56.093155 -0.286937
v -8.788626 58.445229 5.518967
v -5.515919 58.458084 9.341000
v -5.575521 59.531300 9.198280
v -2.516841 59.123219 10.510399
v -2.050860 61.909081 10.446885
v -0.102949 60.315323 10.358713
v 5.822058 64.071579 0.846596
v 4.995754 64.071579 -3.492514
v 6.103814 63.811306 -4.076093
v 3.763071 63.750256 -6.984275
v -6.493938 62.937309 3.307193
v -7.859372 62.834488 1.778380
v -7.485503 56.093155 -0.286937
v -7.095379 53.300869 1.469779
v -7.480085 55.897148 1.977141
v -6.827169 52.985973 3.159244
v -6.737766 55.701141 4.420553
v 4.201960 49.396809 -6.920013
v 4.928024 47.700230 -5.764063
v 5.702854 50.675667 -4.339861
v 5.553848 49.040138 -2.610045
v 6.987012 52.979546 -3.108441
v -5.440062 61.796616 6.624105
v -6.415372 62.937309 3.307193
v -5.526756 60.736256 6.677905
v -7.387972 61.324272 2.766953
v -5.616159 59.672680 6.730958
v -8.062562 59.929737 2.507668
v 5.748910 60.643070 6.979035
v 6.848843 59.794781 5.698300
v 6.651072 55.701141 4.420553
v 6.827169 52.985973 3.159244
v 7.637218 55.897148 1.977141
v 7.095379 53.300869 1.469779
v 7.685984 56.093155 -0.286937
v 5.553848 59.274242 7.091119
v 5.656797 57.137451 7.144171
v 7.387972 58.078922 4.753813
v 6.651072 55.701141 4.420553
v 7.637218 55.897148 1.977141
v -3.061389 62.143646 8.909852
v -1.064713 60.488838 9.914117
v 5.822058 64.071579 0.846596
v 4.995754 64.071579 -3.492514
v 4.158613 65.106232 -3.183912
v 3.012624 64.142265 -6.384257
v 2.459948 66.259781 -2.590619
v -3.053262 47.520287 -8.058777
v -4.201960 49.396809 -6.920013
v -4.169450 51.520744 -7.940716
v -4.995754 54.255196 -9.762440
v -4.169450 51.520744 -7.940716
v -4.995754 54.255196 -9.762440
v 0.000000 54.001350 -11.110426
v 0.000000 57.108532 -11.595373
v -7.119762 60.350670 6.208650
v -5.678471 62.072952 6.486616
v -4.372639 63.653858 6.037537
v -3.343146 64.810616 5.274625
v -2.088789 64.206528 8.466003
v -4.096301 62.362144 8.338976
v -5.513210 60.588448 8.626657
v -6.900317 59.412411 6.837811
v 3.763071 63.750256 -6.984275
v 2.153809 63.152596 -8.609480
v 0.482237 63.075478 -9.214727
v 2.153809 63.152596 -8.609480
v 0.482237 63.075478 -9.214727
v -1.714920 63.377522 -8.795538
v -3.855183 63.502834 -7.119522
v -0.043347 65.064461 7.287637
v 4.811529 62.079380 7.615667
v -4.854876 57.702976 -10.090470
v -7.073706 58.339195 -7.623895
v -8.804881 59.254959 -3.355025
v -0.149006 60.437428 9.988839
v -6.870516 63.496410 -3.535852
v -7.052032 63.255417 0.635880
v -4.486425 65.565720 -3.065851
v -4.321165 65.446831 1.167153
v 0.000000 66.796387 -2.450888
v 0.000000 66.719269 1.717855
v 6.859679 62.959801 3.410309
v 7.951485 61.902653 0.157659
v -5.616159 59.672680 6.730958
v -8.062562 59.929737 2.507668
v -8.785916 59.852619 -0.048574
v 4.491844 60.324963 7.635841
v 6.848843 59.794781 5.698300
v 7.685984 56.093155 -0.286937
v 4.169450 51.520744 -7.940716
v -8.539380 60.244633 4.989934
v 0.000000 66.144104 4.627532
v 4.491844 60.324963 7.635841
v 3.958133 60.405293 8.025144
v 1.639062 60.045414 9.336515
v -0.192353 59.884750 9.612988
v -2.026477 59.945805 9.323813
v -4.410568 60.080757 8.069977
v -5.440062 61.796616 6.624105
v -5.526756 60.736256 6.677905
v -5.616159 59.672680 6.730958
vn 0.6187 0.7205 0.3133
vn 0.7162 0.6926 0.0866
vn 0.3213 0.9406 0.1098
vn 0.9901 0.0629 -0.1257
vn 0.9572 -0.2824 0.0628
vn 0.9016 -0.3136 -0.2979
vn -0.9203 -0.1023 0.3776
vn -0.9335 -0.1412 0.3295
vn -0.8974 -0.0157 0.4409
vn -0.0391 0.3993 -0.9160
vn -0.4815 0.1184 -0.8684
vn -0.4003 0.4317 -0.8084
vn 0.6291 0.4875 -0.6055
vn 0.3388 0.8508 -0.4018
vn 0.5209 0.8129 -0.2605
vn -0.8913 0.4417 0.1026
vn -0.8834 0.4143 -0.2189
vn -0.9839 0.1181 0.1338
vn 0.7007 0.4803 0.5275
vn 0.7320 0.5195 0.4408
vn 0.6286 0.2436 0.7386
vn -0.0000 0.0550 -0.9985
vn 0.5033 0.1101 -0.8571
vn -0.0000 0.1173 -0.9931
vn -0.8332 0.0551 -0.5502
vn -0.9887 0.0157 -0.1491
vn -0.6517 0.4475 -0.6124
vn 0.5508 0.8341 0.0315
vn 0.8532 0.4618 -0.2426
vn 0.2602 -0.3312 0.9070
vn -0.2208 -0.1025 0.9699
vn -0.3138 -0.1726 0.9337
vn -0.7710 0.2910 0.5665
vn -0.5032 0.1101 -0.8571
vn -0.6501 -0.1097 -0.7519
vn 0.0079 -0.4566 -0.8896
vn 0.8373 0.0861 -0.5399
vn 0.5651 -0.3532 -0.7456
vn 0.4960 0.0630 -0.8660
vn 0.3550 0.4338 -0.8281
vn 0.3075 0.7806 0.5441
vn 0.6111 0.6189 0.4935
vn 0.3452 0.8788 0.3295
vn -0.4564 0.6925 -0.5587
vn -0.4816 0.1184 -0.8684
vn 0.0393 0.8724 -0.4872
vn -0.2682 0.6152 -0.7414
vn -0.6504 0.5564 0.5171
vn -0.6663 0.5722 0.4781
vn -0.6597 0.6204 0.4241
vn 0.6465 0.1813 0.7411
vn 0.1731 0.6845 0.7081
vn 0.4386 -0.1957 0.8771
vn 0.7321 0.5195 0.4408
vn 0.9639 -0.2586 0.0627
vn 0.9887 0.1098 0.1020
vn 0.9588 -0.0707 0.2751
vn -0.7660 0.4738 0.4344
vn -0.5490 0.2666 0.7922
vn 0.1333 -0.2587 0.9567
vn 0.9887 0.1099 0.1020
vn 0.8974 0.2519 0.3621
vn -0.9012 -0.0940 -0.4232
vn -0.9421 -0.2826 -0.1806
vn -0.9057 -0.2835 -0.3150
vn -0.9191 -0.3928 -0.0314
vn -0.9057 -0.3150 -0.2835
vn -0.9584 -0.2828 0.0393
vn -0.9642 -0.2195 0.1490
vn -0.9619 -0.2286 0.1498
vn -0.9400 -0.3368 0.0549
vn -0.7381 0.4319 0.5183
vn -0.5872 0.0705 0.8064
vn -0.6285 0.3064 0.7149
vn -0.2365 0.0631 0.9696
vn -0.2359 0.3932 0.8887
vn 0.0239 -0.5962 0.8025
vn 0.5678 0.8201 0.0710
vn 0.3698 0.9128 -0.1731
vn 0.5209 0.8129 -0.2604
vn 0.3387 0.8508 -0.4017
vn -0.6291 0.6921 0.3539
vn -0.5344 0.7309 0.4244
vn -0.9400 -0.3368 0.0548
vn -0.9862 -0.1565 0.0548
vn -0.9642 -0.2195 0.1489
vn -0.9700 -0.1330 0.2034
vn 0.6501 -0.1097 -0.7519
vn 0.9012 -0.0940 -0.4232
vn 0.9057 -0.2835 -0.3150
vn 0.9421 -0.2826 -0.1806
vn 0.9283 -0.3697 -0.0393
vn -0.7868 0.1809 0.5901
vn -0.7726 0.5597 0.2996
vn -0.8358 0.1971 0.5125
vn -0.8746 0.3467 0.3388
vn -0.8460 0.0940 0.5248
vn -0.9272 0.0629 0.3693
vn 0.8307 0.0157 0.5564
vn 0.8853 -0.2506 0.3917
vn 0.9578 -0.1649 0.2355
vn 0.9547 -0.2426 0.1722
vn 0.9756 -0.2124 0.0551
vn 0.9499 -0.3061 0.0628
vn 0.6990 -0.0236 0.7147
vn 0.8282 -0.1341 0.5442
vn 0.8669 -0.1576 0.4729
vn 0.8853 -0.2507 0.3917
vn -0.5270 0.0236 0.8495
vn -0.3613 -0.5262 0.7698
vn 0.3699 0.9128 -0.1731
vn 0.6054 0.7626 -0.2280
vn 0.4003 0.8243 -0.4004
vn 0.3684 0.9014 -0.2273
vn -0.5033 0.1101 -0.8571
vn -0.6501 -0.1096 -0.7519
vn -0.6425 -0.4623 -0.6111
vn -0.5664 -0.3304 -0.7551
vn -0.6425 -0.4623 -0.6112
vn -0.5663 -0.3303 -0.7551
vn 0.0079 -0.2830 -0.9591
vn -0.0236 0.0707 -0.9972
vn -0.7386 0.4400 0.5108
vn -0.6857 0.6069 0.4019
vn -0.6223 0.6854 0.3781
vn -0.4321 0.8563 0.2828
vn -0.3214 0.7604 0.5644
vn -0.6051 0.5972 0.5265
vn -0.7078 0.4326 0.5584
vn -0.7549 0.4011 0.5190
vn 0.3210 0.6890 -0.6498
vn 0.1258 0.6053 -0.7860
vn 0.1258 0.6052 -0.7861
vn -0.2682 0.6151 -0.7414
vn 0.0235 0.8862 0.4627
vn 0.8901 0.0788 0.4490
vn -0.8332 0.0550 -0.5502
vn -0.9887 0.0156 -0.1491
vn 0.1332 -0.9402 0.3134
vn -0.7377 0.6357 -0.2276
vn -0.7670 0.6261 0.1408
vn -0.4580 0.8685 -0.1895
vn -0.4713 0.8718 0.1335
vn -0.0314 0.9958 -0.0862
vn -0.1182 0.9850 0.1261
vn 0.6686 0.6843 0.2910
vn 0.9107 0.4082 0.0628
vn -0.9272 0.0628 0.3693
vn -0.9840 0.1180 0.1338
vn 0.6745 -0.0392 0.7372
vn 0.9499 -0.3062 0.0628
vn 0.6396 -0.4264 -0.6396
vn -0.6289 0.3223 0.7075
vn -0.0000 0.9570 0.2902
vn 0.6745 -0.0393 0.7372
vn 0.5502 -0.4559 0.6996
vn 0.3289 -0.5716 0.7517
vn 0.0236 -0.5654 0.8245
vn -0.3764 -0.2431 0.8940
vn -0.6524 0.0707 0.7546
vn -0.8357 0.1971 0.5125
vn -0.8460 0.0940 0.5249
vt 0.339264 0.945251
vt 0.509644 0.955750
vt 0.497498 0.872040
vt 0.432892 0.189514
vt 0.431122 0.298798
vt 0.545258 0.321198
vt 0.188568 0.281952
vt 0.155060 0.360504
vt 0.057617 0.305359
vt 0.799072 0.115906
vt 0.929626 0.216156
vt 0.936035 0.113495
vt 0.622284 0.098450
vt 0.668976 0.011566
vt 0.502319 0.041138
vt 0.575073 0.586884
vt 0.696289 0.592560
vt 0.584808 0.529907
vt 0.109528 0.078430
vt 0.096405 0.013000
vt 0.066040 0.142487
vt 0.799072 0.444946
vt 0.669800 0.493835
vt 0.799072 0.493835
vt 0.814606 0.543671
vt 0.676117 0.545593
vt 0.861237 0.612518
vt 0.319092 0.036804
vt 0.467621 0.115326
vt 0.367401 0.612854
vt 0.346283 0.607117
vt 0.420685 0.470184
vt 0.321167 0.605255
vt 0.928375 0.493835
vt 0.992126 0.432434
vt 0.799072 0.388031
vt 0.574432 0.193695
vt 0.657776 0.313599
vt 0.666138 0.219757
vt 0.691315 0.111755
vt 0.262512 0.861176
vt 0.237762 0.940704
vt 0.362885 0.874054
vt 0.916382 0.677429
vt 0.905579 0.596710
vt 0.894745 0.515961
vt 0.855347 0.801697
vt 0.954498 0.742157
vt 0.267426 0.430084
vt 0.223572 0.491211
vt 0.285065 0.512421
vt 0.118469 0.930634
vt 0.151276 0.799683
vt 0.066223 0.848999
vt 0.267609 0.989075
vt 0.341644 0.272430
vt 0.336578 0.201019
vt 0.217560 0.232971
vt 0.261047 0.733368
vt 0.292236 0.742157
vt 0.320526 0.756012
vt 0.146637 0.163422
vt 0.548798 0.488007
vt 0.407471 0.444214
vt 0.478851 0.415527
vt 0.429352 0.380432
vt 0.250885 0.349976
vt 0.330597 0.265503
vt 0.346680 0.339447
vt 0.133972 0.492004
vt 0.094757 0.552582
vt 0.125122 0.551910
vt 0.082275 0.646118
vt 0.124512 0.742310
vt 0.071167 0.767914
vt 0.297516 0.012054
vt 0.471588 0.011536
vt 0.341003 0.602570
vt 0.376678 0.414734
vt 0.157562 0.377258
vt 0.112885 0.477448
vt 0.082703 0.383728
vt 0.057037 0.479919
vt 0.013306 0.390167
vt 0.606049 0.432434
vt 0.365570 0.635559
vt 0.434662 0.642120
vt 0.375793 0.601746
vt 0.449219 0.594543
vt 0.386017 0.567932
vt 0.463776 0.546967
vt 0.093445 0.203308
vt 0.059845 0.223328
vt 0.133392 0.269165
vt 0.074646 0.597198
vt 0.043732 0.711060
vt 0.550415 0.989075
vt 0.715973 0.989075
vt 0.700317 0.953186
vt 0.888580 0.912079
vt 0.685242 0.869110
vt 0.631897 0.365387
vt 0.966278 0.365387
vt 0.940399 0.313599
vt 0.799072 0.306610
vt 0.799072 0.227997
vt 0.202240 0.533813
vt 0.238922 0.601990
vt 0.286011 0.667297
vt 0.341888 0.703766
vt 0.218231 0.741058
vt 0.204437 0.676178
vt 0.157715 0.631744
vt 0.150604 0.572693
vt 0.900757 0.989075
vt 0.978607 0.856079
vt 0.988770 0.806854
vt 0.715271 0.012054
vt 0.797882 0.012146
vt 0.855713 0.013214
vt 0.925568 0.029572
vt 0.262634 0.804199
vt 0.199463 0.977112
vt 0.039368 0.758789
vt 0.716431 0.639526
vt 0.565308 0.643860
vt 0.699066 0.749054
vt 0.536499 0.729187
vt 0.686127 0.801453
vt 0.510559 0.802460
vt 0.188446 0.038544
vt 0.327850 0.118927
vt 0.075073 0.207947
vt 0.233734 0.205109
vt 0.015900 0.134766
vt 0.190796 0.438904
vt 0.386047 0.802460
vt 0.132660 0.989075
vt 0.041138 0.925812
vt 0.012512 0.829315
vt 0.012512 0.767914
vt 0.012512 0.653809
vt 0.012512 0.569153
vt 0.074646 0.509155
vt 0.039825 0.509155
vt 0.012512 0.509155
s 1
usemtl m_hair0106
f 1/1/1 2/2/2 3/3/3
f 4/4/4 5/5/5 6/6/6
f 7/7/7 8/8/8 9/9/9
f 10/10/10 11/11/11 12/12/12
f 13/13/13 14/14/14 15/15/15
f 16/16/16 17/17/17 18/18/18
f 19/19/19 20/20/20 21/21/21
f 22/22/22 23/23/23 24/24/24
f 25/25/25 26/26/26 27/27/27
f 28/28/28 29/29/29 15/15/15
f 15/15/15 29/29/29 13/13/13
f 30/30/30 31/31/31 32/32/32
f 32/32/32 31/31/31 33/33/33
f 24/24/24 34/34/34 22/22/22
f 22/22/22 34/34/34 35/35/35
f 22/22/22 35/35/35 36/36/36
f 37/37/37 38/38/38 39/39/39
f 29/29/29 37/37/37 13/13/13
f 13/13/13 37/37/37 40/39/39
f 13/13/13 40/39/39 41/40/40
f 42/41/41 43/42/42 44/43/43
f 45/44/44 46/45/12 27/27/27
f 27/27/27 46/45/12 47/46/45
f 27/27/27 47/46/45 25/25/25
f 45/44/44 48/47/46 49/48/47
f 50/49/48 51/50/49 52/51/50
f 53/52/51 54/53/52 55/54/53
f 2/2/2 1/1/1 56/55/54
f 10/10/10 41/40/40 39/39/39
f 5/5/5 4/4/4 57/56/55
f 57/56/55 4/4/4 58/57/56
f 57/56/55 58/57/56 59/58/57
f 60/59/58 33/33/33 61/60/59
f 61/60/59 33/33/33 31/31/31
f 61/60/59 31/31/31 62/61/60
f 62/61/60 31/31/31 30/30/30
f 63/57/61 64/62/62 65/58/57
f 66/63/63 67/64/64 68/65/65
f 68/65/65 67/64/64 69/66/66
f 68/65/65 69/66/66 70/6/67
f 70/6/67 69/66/66 71/5/68
f 8/8/8 7/7/7 72/67/69
f 72/67/69 7/7/7 73/68/70
f 72/67/69 73/68/70 74/69/71
f 75/70/72 76/71/73 77/72/74
f 77/72/74 76/71/73 78/73/75
f 77/72/74 78/73/75 79/74/76
f 79/74/76 78/73/75 80/75/77
f 81/76/78 28/28/28 82/77/79
f 82/77/79 28/28/28 83/15/80
f 82/77/79 83/15/80 84/14/81
f 52/51/50 85/78/82 86/79/83
f 87/80/84 88/81/85 89/82/86
f 89/82/86 88/81/85 90/83/87
f 89/82/86 90/83/87 91/84/8
f 23/23/23 92/85/88 93/63/89
f 93/63/89 92/85/88 94/65/90
f 93/63/89 94/65/90 95/64/91
f 95/64/91 94/65/90 96/66/92
f 97/86/93 98/87/94 99/88/95
f 99/88/95 98/87/94 100/89/96
f 99/88/95 100/89/96 101/90/97
f 101/90/97 100/89/96 102/91/98
f 19/19/19 103/21/21 64/62/62
f 64/62/62 103/21/21 104/92/99
f 64/62/62 104/92/99 65/58/57
f 105/84/100 106/83/101 107/82/102
f 107/82/102 106/83/101 108/81/103
f 107/82/102 108/81/103 109/80/104
f 110/93/105 111/9/106 112/94/107
f 112/94/107 111/9/106 113/8/108
f 112/94/107 113/8/108 114/67/102
f 115/95/109 116/96/110 80/75/77
f 117/97/78 118/98/111 119/99/112
f 119/99/112 118/98/111 120/100/113
f 119/99/112 120/100/113 121/101/114
f 121/101/114 120/100/113 48/47/46
f 122/23/115 66/63/63 123/85/116
f 123/85/116 66/63/63 68/65/65
f 123/85/116 68/65/65 124/102/117
f 124/102/117 68/65/65 70/6/67
f 124/102/117 70/6/67 125/38/118
f 35/35/35 126/103/119 36/36/36
f 36/36/36 126/103/119 127/104/120
f 36/36/36 127/104/120 128/105/121
f 128/105/121 127/104/120 11/11/11
f 128/105/121 11/11/11 129/106/122
f 11/11/11 10/10/10 129/106/122
f 129/106/122 10/10/10 39/39/39
f 129/106/122 39/39/39 128/105/121
f 128/105/121 39/39/39 38/38/38
f 128/105/121 38/38/38 36/36/36
f 51/50/49 130/107/123 52/51/50
f 52/51/50 130/107/123 131/108/124
f 52/51/50 131/108/124 85/78/82
f 85/78/82 131/108/124 132/109/125
f 85/78/82 132/109/125 133/110/126
f 134/111/127 135/112/128 79/74/76
f 79/74/76 135/112/128 136/113/129
f 79/74/76 136/113/129 77/72/74
f 77/72/74 136/113/129 137/114/130
f 77/72/74 137/114/130 75/70/72
f 118/98/111 138/115/81 120/100/113
f 120/100/113 138/115/81 139/116/131
f 120/100/113 139/116/131 48/47/46
f 48/47/46 139/116/131 140/117/132
f 48/47/46 140/117/132 49/48/47
f 14/14/14 13/13/13 141/118/131
f 141/118/131 13/13/13 41/40/40
f 141/118/131 41/40/40 142/119/133
f 142/119/133 41/40/40 10/10/10
f 142/119/133 10/10/10 143/120/134
f 143/120/134 10/10/10 12/12/12
f 143/120/134 12/12/12 144/121/44
f 44/43/43 145/122/135 42/41/41
f 42/41/41 145/122/135 54/53/52
f 42/41/41 54/53/52 43/42/42
f 43/42/42 54/53/52 53/52/51
f 43/42/42 53/52/51 146/123/136
f 147/39/45 125/38/118 148/37/137
f 148/37/137 125/38/118 70/6/67
f 148/37/137 70/6/67 149/4/138
f 149/4/138 70/6/67 71/5/68
f 149/4/138 71/5/68 73/68/70
f 73/68/70 71/5/68 69/66/66
f 73/68/70 69/66/66 74/69/71
f 116/96/110 150/124/139 80/75/77
f 80/75/77 150/124/139 55/54/53
f 80/75/77 55/54/53 79/74/76
f 79/74/76 55/54/53 54/53/52
f 79/74/76 54/53/52 134/111/127
f 134/111/127 54/53/52 145/122/135
f 17/17/17 16/16/16 151/125/140
f 151/125/140 16/16/16 152/126/141
f 151/125/140 152/126/141 153/127/142
f 153/127/142 152/126/141 154/128/143
f 153/127/142 154/128/143 155/129/144
f 155/129/144 154/128/143 156/130/145
f 155/129/144 156/130/145 3/3/3
f 20/20/20 19/19/19 157/131/146
f 157/131/146 19/19/19 64/62/62
f 157/131/146 64/62/62 158/132/147
f 158/132/147 64/62/62 63/57/61
f 158/132/147 63/57/61 4/4/4
f 9/9/9 159/133/97 7/7/7
f 7/7/7 159/133/97 160/134/148
f 7/7/7 160/134/148 73/68/70
f 73/68/70 160/134/148 161/57/149
f 73/68/70 161/57/149 149/4/138
f 56/55/54 117/97/78 2/2/2
f 2/2/2 117/97/78 119/99/112
f 2/2/2 119/99/112 3/3/3
f 3/3/3 119/99/112 121/101/114
f 3/3/3 121/101/114 155/129/144
f 155/129/144 121/101/114 48/47/46
f 155/129/144 48/47/46 153/127/142
f 153/127/142 48/47/46 45/44/44
f 153/127/142 45/44/44 151/125/140
f 151/125/140 45/44/44 27/27/27
f 151/125/140 27/27/27 17/17/17
f 17/17/17 27/27/27 26/26/26
f 17/17/17 26/26/26 18/18/18
f 20/20/20 162/135/150 21/21/21
f 21/21/21 162/135/150 110/93/105
f 21/21/21 110/93/105 163/92/99
f 163/92/99 110/93/105 112/94/107
f 163/92/99 112/94/107 59/58/57
f 59/58/57 112/94/107 114/67/102
f 59/58/57 114/67/102 57/56/55
f 57/56/55 114/67/102 164/69/151
f 57/56/55 164/69/151 5/5/5
f 5/5/5 164/69/151 96/66/92
f 5/5/5 96/66/92 6/6/6
f 6/6/6 96/66/92 94/65/90
f 6/6/6 94/65/90 165/102/152
f 165/102/152 94/65/90 92/85/88
f 166/136/153 137/114/130 130/107/123
f 130/107/123 137/114/130 136/113/129
f 130/107/123 136/113/129 131/108/124
f 131/108/124 136/113/129 135/112/128
f 131/108/124 135/112/128 132/109/125
f 132/109/125 135/112/128 134/111/127
f 132/109/125 134/111/127 133/110/126
f 133/110/126 134/111/127 145/122/135
f 133/110/126 145/122/135 167/137/154
f 167/137/154 145/122/135 44/43/43
f 23/23/23 22/22/22 92/85/88
f 92/85/88 22/22/22 36/36/36
f 92/85/88 36/36/36 165/102/152
f 165/102/152 36/36/36 38/38/38
f 165/102/152 38/38/38 6/6/6
f 6/6/6 38/38/38 37/37/37
f 6/6/6 37/37/37 4/4/4
f 4/4/4 37/37/37 29/29/29
f 4/4/4 29/29/29 158/132/147
f 158/132/147 29/29/29 28/28/28
f 158/132/147 28/28/28 157/131/146
f 157/131/146 28/28/28 81/76/78
f 157/131/146 81/76/78 20/20/20
f 18/18/18 102/91/98 16/16/16
f 16/16/16 102/91/98 100/89/96
f 16/16/16 100/89/96 152/126/141
f 152/126/141 100/89/96 98/87/94
f 152/126/141 98/87/94 154/128/143
f 154/128/143 98/87/94 133/110/126
f 154/128/143 133/110/126 156/130/145
f 156/130/145 133/110/126 167/137/154
f 156/130/145 167/137/154 3/3/3
f 3/3/3 167/137/154 44/43/43
f 3/3/3 44/43/43 1/1/1
f 1/1/1 44/43/43 43/42/42
f 1/1/1 43/42/42 56/55/54
f 56/55/54 43/42/42 146/123/136
f 56/55/54 146/123/136 168/138/155
f 168/138/155 146/123/136 53/52/51
f 168/138/155 53/52/51 169/139/156
f 169/139/156 53/52/51 55/54/53
f 169/139/156 55/54/53 170/140/157
f 170/140/157 55/54/53 150/124/139
f 170/140/157 150/124/139 171/141/158
f 171/141/158 150/124/139 116/96/110
f 171/141/158 116/96/110 172/142/159
f 172/142/159 116/96/110 115/95/109
f 172/142/159 115/95/109 173/143/160
f 173/143/160 115/95/109 174/144/93
f 173/143/160 174/144/93 175/145/161
f 176/146/162 173/143/160 175/145/161
