mtllib m_hair023.mtl
o editpl_m-0000-1815
v 0.000000 47.083290 -16.091398
v 0.000000 48.503532 -13.476126
v 1.294995 47.587765 -12.599636
v 7.417773 50.177620 4.100742
v 8.046307 51.186569 5.101270
v 6.301585 47.179688 3.588897
v -4.643559 64.678871 -1.894209
v -6.634816 62.355717 -2.554005
v -6.057758 62.217548 3.766734
v -5.502373 54.007774 7.617908
v -5.656797 54.113811 7.810692
v -6.206764 52.584320 5.826074
v 0.000000 64.097282 6.536680
v 0.000000 64.839539 4.350313
v -1.733884 64.370407 6.447014
v -7.656183 52.131256 -2.855881
v -9.016198 56.247391 -2.982161
v -8.141128 54.952461 -7.477440
v 3.866020 50.608192 -8.957684
v 0.000000 51.083748 -13.015091
v 0.000000 52.896004 -12.323165
v 2.619791 44.564129 -14.043265
v 0.000000 41.784695 -18.906178
v 0.000000 45.341724 -16.262510
v 0.000000 39.316940 -17.379606
v 3.356692 41.418385 -15.639328
v 0.000000 44.515926 -12.403865
v -3.356692 41.418385 -15.639328
v 0.000000 34.805580 -15.681173
v 0.000000 42.205624 -12.652688
v -1.297704 47.587765 -12.599636
v -2.617082 44.564129 -14.043265
v -5.656797 54.113811 7.810692
v -7.992123 53.439037 4.484066
v -6.748603 50.903809 6.933455
v -6.385571 51.022697 4.948090
v -5.299184 48.130798 4.911476
v 5.971064 50.466808 -2.795356
v 5.017427 48.108307 -4.971262
v 6.567087 50.919872 -6.410409
v 4.201960 47.889809 -7.095610
v 0.000000 54.981380 -13.611373
v 0.000000 59.759438 -11.046913
v 5.323566 54.605434 -11.124622
v 5.808512 59.502380 -7.211429
v 8.154674 54.952461 -7.477440
v 9.018907 56.247391 -2.982161
v 6.995139 55.787899 -0.047079
v 6.298876 51.212276 -1.630439
v 4.529773 63.001575 -6.278899
v 0.000000 63.583168 -8.942739
v 0.000000 65.989868 -2.473305
v 6.301585 47.179688 3.588897
v 7.033068 50.579273 5.634039
v 7.285023 54.316246 2.046633
v 6.036084 53.808556 6.577778
v 5.803094 54.862492 7.698609
v 5.364204 57.667633 7.527496
v 5.610741 58.184959 8.729773
v 3.814545 60.148235 8.545957
v -6.231146 49.467499 1.862817
v -6.718801 52.902428 1.798556
v -6.908445 52.484711 0.480459
v -7.539687 56.199192 0.052301
v -6.789240 55.633663 2.553996
v -6.166126 59.643761 6.010638
v -7.070997 59.756226 3.158496
v -5.304602 54.605434 -11.124622
v -3.863311 50.608192 -8.957684
v -6.564377 50.919872 -6.410409
v -4.521645 63.001575 -6.278899
v -4.207378 63.904488 6.853502
v -4.220924 64.158333 4.306227
v -5.656797 54.113811 7.810692
v -7.932520 56.321293 5.146104
v -5.621578 58.184959 9.029408
v -7.642637 59.097515 5.495803
v -7.493631 54.271259 1.806775
v -6.745893 50.617828 4.003604
v -8.477068 51.286179 5.196915
v -5.361495 47.282509 3.547052
v -6.502066 48.291458 4.354797
v -5.161015 42.462681 5.133402
v -5.093285 57.667633 7.827878
v -3.814545 60.148235 8.545957
v 6.122779 49.467499 1.862817
v 6.911154 52.484711 0.480459
v 6.661908 52.902428 1.798556
v 7.542396 56.199192 0.052301
v 6.791950 55.633663 2.553996
v 7.065578 59.756226 3.158496
v 6.168835 59.643761 6.010638
v 7.677856 59.097515 5.436025
v 7.997541 56.321293 4.986199
v 5.803094 54.862492 7.698609
v 7.569488 53.753929 4.278581
v 6.036084 53.808556 6.577778
v 6.252820 53.104862 5.121445
v 0.000000 63.589592 8.980838
v 2.240504 64.225807 8.784319
v 1.723047 64.370407 6.447014
v 4.210088 63.904488 6.853502
v 4.220924 64.158333 4.306227
v 6.055049 62.217548 3.766734
v 4.646268 64.678871 -1.894209
v 6.637526 62.355717 -2.554005
v 2.405764 62.876259 11.454138
v 3.879566 61.954063 10.702435
v 6.694419 61.831963 6.612149
v 0.000000 48.150078 -10.271297
v 2.470785 47.674522 -7.866742
v -5.971064 50.466808 -2.795356
v -6.293458 51.212276 -1.630439
v -6.992430 55.787899 -0.047079
v 0.000000 47.674522 -9.007000
v -2.606245 47.674522 -7.866742
v -4.199251 47.889809 -7.095610
v -5.014718 48.108307 -4.971262
v -7.791642 59.380276 -2.710174
v -5.805803 59.502380 -7.211429
v 0.000000 46.845512 -11.746311
v 7.656183 52.131256 -2.855881
v 7.794351 59.380276 -2.710174
v -2.235085 64.225807 8.784319
v -5.743492 43.683704 5.757331
v -6.694419 61.831963 6.471672
v -3.879566 61.954063 10.702435
v -2.403055 62.876259 11.454138
v -2.275723 60.472771 9.080966
v 0.000000 59.274242 9.944006
v 2.275723 60.472771 9.080966
vn -0.0001 0.6417 -0.7669
vn -0.0000 0.8782 -0.4783
vn 0.9014 0.4311 0.0392
vn 0.9129 -0.2282 -0.3384
vn 0.9320 -0.0392 0.3603
vn 0.8748 -0.4492 0.1813
vn -0.5820 0.8101 -0.0708
vn -0.8645 0.4951 -0.0865
vn -0.8017 0.5973 0.0236
vn 0.5896 -0.5347 0.6054
vn -0.3536 -0.4951 0.7937
vn 0.0787 -0.4012 0.9126
vn -0.0000 0.9658 0.2591
vn -0.0000 0.9821 0.1886
vn -0.0000 0.9899 0.1414
vn -0.8571 -0.4954 0.1416
vn -0.9495 -0.1883 0.2511
vn -0.9059 -0.0709 -0.4175
vn 0.5999 -0.4105 -0.6867
vn -0.0000 -0.2425 -0.9702
vn -0.0000 -0.3303 -0.9439
vn 0.9522 0.2518 -0.1731
vn -0.0001 0.2517 -0.9678
vn -0.0000 0.3605 -0.9327
vn -0.0000 -0.4409 -0.8975
vn 0.9678 -0.2439 0.0629
vn -0.1023 -0.2283 0.9682
vn -0.9678 -0.2439 0.0629
vn -0.0000 -0.9995 -0.0315
vn -0.0000 -0.2444 0.9697
vn -0.9133 0.2677 0.3070
vn -0.9503 0.2592 -0.1727
vn -0.3536 -0.4951 0.7936
vn -0.8786 0.1177 0.4628
vn -0.0078 -0.0393 0.9992
vn 0.9810 0.0706 0.1805
vn 0.0783 -0.0627 0.9950
vn 0.7731 -0.6232 0.1183
vn 0.8562 -0.5106 -0.0785
vn 0.8154 -0.5096 -0.2744
vn 0.6474 -0.4895 -0.5842
vn -0.0000 -0.0314 -0.9995
vn -0.0000 0.5029 -0.8643
vn 0.5830 -0.0394 -0.8115
vn 0.6943 0.4418 -0.5681
vn 0.9073 -0.0704 -0.4145
vn 0.9495 -0.1883 0.2511
vn 0.7147 -0.5733 0.4006
vn 0.7715 -0.4173 0.4802
vn 0.6140 0.6140 -0.4959
vn -0.0003 0.7708 -0.6371
vn -0.0000 0.9940 -0.1096
vn 0.5178 -0.1177 0.8473
vn 0.9719 -0.0078 -0.2351
vn -0.9861 -0.1566 -0.0548
vn -0.9854 -0.1419 0.0946
vn -0.9294 -0.3072 0.2048
vn 0.2595 -0.3382 0.9046
vn -0.3774 -0.7075 0.5975
vn -0.9744 -0.1336 0.1807
vn -0.9694 -0.1251 0.2111
vn -0.9115 -0.2908 0.2908
vn -0.9562 -0.1019 0.2743
vn -0.9513 -0.1022 0.2909
vn -0.9834 0.1731 0.0550
vn -0.5830 -0.0394 -0.8115
vn -0.6049 -0.4085 -0.6835
vn -0.8154 -0.5096 -0.2744
vn -0.6140 0.6140 -0.4959
vn -0.5028 0.8485 0.1650
vn -0.3843 0.9176 0.1020
vn -0.9805 0.0078 0.1961
vn -0.2761 -0.2682 0.9230
vn -0.9694 0.1655 0.1813
vn -0.9543 -0.0313 -0.2972
vn -0.6326 -0.3400 -0.6959
vn -0.9776 -0.1955 -0.0782
vn -0.6671 -0.2119 -0.7142
vn -0.8672 -0.4573 0.1971
vn -0.6963 -0.2503 -0.6727
vn 0.7938 -0.3301 0.5108
vn 0.3850 -0.6757 0.6286
vn 0.9636 -0.1410 0.2272
vn 0.9636 -0.1411 0.2272
vn 0.9629 -0.1331 0.2348
vn 0.9094 -0.2901 0.2979
vn 0.9583 -0.1021 0.2671
vn 0.9838 0.1731 0.0472
vn 0.9513 -0.1022 0.2909
vn 0.9665 0.1650 0.1965
vn 0.9838 -0.0472 0.1731
vn 0.8001 -0.2588 0.5412
vn 0.8936 -0.1881 0.4076
vn 0.6964 -0.5381 0.4748
vn 0.5087 -0.0157 0.8608
vn -0.0000 0.8944 0.4472
vn 0.1891 0.9377 0.2915
vn 0.5028 0.8485 0.1650
vn 0.3840 0.9168 0.1097
vn 0.8017 0.5973 0.0236
vn 0.5820 0.8101 -0.0708
vn 0.8645 0.4951 -0.0865
vn 0.0548 -0.0862 0.9948
vn 0.5118 0.2598 0.8189
vn 0.8725 0.4402 0.2122
vn -0.0000 -0.7740 -0.6332
vn 0.3917 -0.6737 -0.6267
vn -0.7731 -0.6232 0.1183
vn -0.7686 -0.4157 0.4862
vn -0.7147 -0.5733 0.4006
vn -0.0000 -0.9379 -0.3468
vn -0.3939 -0.6616 -0.6381
vn -0.6519 -0.4870 -0.5813
vn -0.8562 -0.5106 -0.0785
vn -0.8992 0.3865 -0.2050
vn -0.6943 0.4418 -0.5681
vn -0.0391 -0.2424 0.9694
vn 0.8537 -0.5013 0.1410
vn 0.8992 0.3865 -0.2051
vn -0.1891 0.9377 0.2915
vn -0.3865 0.2051 0.8992
vn -0.8709 0.4472 0.2040
vn -0.5027 0.2828 0.8169
vn -0.0549 -0.0861 0.9948
vn -0.3228 -0.6771 0.6613
vn -0.0000 -0.3209 0.9471
vn 0.3228 -0.6771 0.6613
vt 0.611328 0.773438
vt 0.742188 0.839844
vt 0.744141 0.982422
vt 0.714844 0.660156
vt 0.863281 0.660156
vt 0.816437 0.831360
vt 0.429688 0.101562
vt 0.460938 0.179688
vt 0.675781 0.175781
vt 0.988281 0.480469
vt 0.957031 0.550781
vt 0.944000 0.640625
vt 0.812500 0.012909
vt 0.695312 0.012909
vt 0.752594 0.095032
vt 0.491058 0.558014
vt 0.525665 0.383911
vt 0.343750 0.429688
vt 0.141724 0.726562
vt 0.024536 0.616058
vt 0.035706 0.523438
vt 0.525391 0.984375
vt 0.386719 0.775391
vt 0.513672 0.759766
vt 0.276550 0.812500
vt 0.356232 0.978119
vt 0.564453 0.775391
vt 0.068726 0.928101
vt 0.417969 0.781250
vt 0.953125 0.500000
vt 0.855469 0.613281
vt 0.945312 0.738281
vt 0.980469 0.738281
vt 0.972656 0.761719
vt 0.445312 0.687500
vt 0.328125 0.710938
vt 0.320312 0.593750
vt 0.242188 0.750000
vt 0.031250 0.359375
vt 0.054688 0.234375
vt 0.195312 0.421875
vt 0.289062 0.265625
vt 0.585938 0.523438
vt 0.546875 0.632812
vt 0.312500 0.156250
vt 0.148438 0.054688
vt 0.343750 0.012909
vt 0.949127 0.820587
vt 0.980469 0.660156
vt 0.714844 0.566406
vt 0.957031 0.511719
vt 0.941406 0.480469
vt 0.988281 0.378906
vt 0.920563 0.341125
vt 0.988281 0.316406
vt 0.682526 0.728668
vt 0.696411 0.610474
vt 0.591614 0.740753
vt 0.609375 0.484375
vt 0.703125 0.492188
vt 0.635040 0.407349
vt 0.697540 0.226562
vt 0.757812 0.148438
vt 0.679688 0.093750
vt 0.955719 0.497375
vt 0.811188 0.514313
vt 0.785156 0.339844
vt 0.701813 0.558594
vt 0.707031 0.738281
vt 0.839844 0.738281
vt 0.714935 0.764282
vt 0.847656 0.761719
vt 0.839355 0.818024
vt 0.988281 0.433594
vt 0.800781 0.308594
vt 0.800781 0.441406
vt 0.871094 0.566406
vt 0.941406 0.597656
vt 0.859375 0.012909
vt 0.833313 0.121094
vt 0.917969 0.136719
vt 0.910156 0.199219
vt 0.796875 0.226562
vt 0.013885 0.779785
vt 0.171875 0.789062
vt 0.031250 0.843750
vt 0.484375 0.273438
vt 0.744141 0.859375
vt 0.949219 0.824219
vt 0.988281 0.144531
vt 0.988281 0.016815
s 1
usemtl m_hair0101
f 1/1/1 2/2/2 3/3/3
f 4/4/4 5/5/5 6/6/6
f 7/7/7 8/8/8 9/9/9
f 10/10/10 11/11/11 12/12/12
f 13/13/13 14/14/14 15/15/15
f 16/16/16 17/17/17 18/18/18
f 19/19/19 20/20/20 21/21/21
f 22/22/22 23/23/23 24/24/24
f 25/25/25 23/23/23 26/26/26
f 26/26/26 23/23/23 22/22/22
f 26/26/26 22/22/22 27/27/27
f 28/26/28 29/28/29 30/29/30
f 2/2/2 1/1/1 31/3/31
f 31/3/31 1/1/1 32/22/32
f 31/3/31 32/22/32 27/27/27
f 33/30/33 34/31/34 12/12/12
f 12/12/12 34/31/34 35/32/35
f 12/12/12 35/32/35 36/33/36
f 36/33/36 35/32/35 37/34/37
f 38/35/38 39/36/39 40/37/40
f 40/37/40 39/36/39 41/38/41
f 40/37/40 41/38/41 19/19/19
f 42/39/42 43/40/43 44/41/44
f 44/41/44 43/40/43 45/42/45
f 44/41/44 45/42/45 46/18/46
f 47/17/47 48/43/48 49/44/49
f 50/45/50 51/46/51 52/47/52
f 53/48/6 5/5/5 54/49/53
f 5/5/5 4/4/4 55/50/54
f 56/51/55 57/52/56 58/53/57
f 58/53/57 57/52/56 59/54/58
f 58/53/57 59/54/58 60/55/59
f 61/56/60 62/57/61 63/58/60
f 63/58/60 62/57/61 64/59/62
f 65/60/63 66/61/64 67/62/65
f 68/41/66 69/19/67 18/18/18
f 18/18/18 69/19/67 70/37/68
f 18/18/18 70/37/68 16/16/16
f 8/8/8 7/7/7 71/45/69
f 72/63/70 15/15/15 73/64/71
f 73/64/71 15/15/15 14/14/14
f 73/64/71 14/14/14 52/47/52
f 34/31/34 74/65/33 75/66/72
f 75/66/72 74/65/33 76/54/73
f 75/66/72 76/54/73 77/67/74
f 78/68/75 79/69/76 80/70/77
f 80/70/77 79/69/76 81/71/78
f 80/70/77 81/71/78 82/72/79
f 82/72/79 81/71/78 83/73/80
f 11/11/11 10/10/10 76/54/73
f 76/54/73 10/10/10 84/74/81
f 76/54/73 84/74/81 85/55/82
f 86/56/83 87/58/84 88/57/85
f 88/57/85 87/58/84 89/59/86
f 88/57/85 89/59/86 90/60/87
f 90/60/87 89/59/86 91/62/88
f 90/60/87 91/62/88 92/61/89
f 93/75/90 59/54/58 94/76/91
f 94/76/91 59/54/58 95/52/92
f 94/76/91 95/52/92 96/77/93
f 96/77/93 95/52/92 97/51/94
f 96/77/93 97/51/94 98/78/95
f 99/79/96 100/80/97 101/15/15
f 101/15/15 100/80/97 102/63/98
f 101/15/15 102/63/98 103/64/99
f 103/64/99 102/63/98 104/9/100
f 103/64/99 104/9/100 105/7/101
f 105/7/101 104/9/100 106/8/102
f 99/79/96 107/81/103 100/80/97
f 100/80/97 107/81/103 108/82/104
f 100/80/97 108/82/104 102/63/98
f 102/63/98 108/82/104 109/83/105
f 102/63/98 109/83/105 104/9/100
f 104/9/100 109/83/105 91/62/88
f 104/9/100 91/62/88 106/8/102
f 68/41/66 21/21/21 69/19/67
f 69/19/67 21/21/21 20/20/20
f 69/19/67 20/20/20 110/84/106
f 110/84/106 20/20/20 19/19/19
f 110/84/106 19/19/19 111/85/107
f 111/85/107 19/19/19 41/38/41
f 70/37/68 112/35/108 16/16/16
f 16/16/16 112/35/108 113/44/109
f 16/16/16 113/44/109 17/17/17
f 17/17/17 113/44/109 114/43/110
f 17/17/17 114/43/110 64/59/62
f 111/85/107 115/86/111 110/84/106
f 110/84/106 115/86/111 116/85/112
f 110/84/106 116/85/112 69/19/67
f 69/19/67 116/85/112 117/38/113
f 69/19/67 117/38/113 70/37/68
f 70/37/68 117/38/113 118/36/114
f 70/37/68 118/36/114 112/35/108
f 62/57/61 65/60/63 64/59/62
f 64/59/62 65/60/63 67/62/65
f 64/59/62 67/62/65 17/17/17
f 17/17/17 67/62/65 119/87/115
f 17/17/17 119/87/115 18/18/18
f 18/18/18 119/87/115 120/42/116
f 18/18/18 120/42/116 68/41/66
f 32/22/32 28/26/28 27/27/27
f 27/27/27 28/26/28 30/29/30
f 27/27/27 30/29/30 26/26/26
f 26/26/26 30/29/30 29/28/29
f 26/26/26 29/28/29 25/25/25
f 25/25/25 29/28/29 28/26/28
f 25/25/25 28/26/28 23/23/23
f 23/23/23 28/26/28 32/22/32
f 23/23/23 32/22/32 24/24/24
f 24/24/24 32/22/32 1/1/1
f 24/24/24 1/1/1 22/22/22
f 22/22/22 1/1/1 3/3/3
f 22/22/22 3/3/3 27/27/27
f 27/27/27 3/3/3 121/88/117
f 27/27/27 121/88/117 31/3/31
f 107/81/103 60/55/59 108/82/104
f 108/82/104 60/55/59 59/54/58
f 108/82/104 59/54/58 109/83/105
f 109/83/105 59/54/58 93/75/90
f 109/83/105 93/75/90 91/62/88
f 91/62/88 93/75/90 94/76/91
f 91/62/88 94/76/91 55/50/54
f 55/50/54 94/76/91 96/77/93
f 55/50/54 96/77/93 5/5/5
f 5/5/5 96/77/93 98/78/95
f 5/5/5 98/78/95 54/49/53
f 49/44/49 122/16/118 47/17/47
f 47/17/47 122/16/118 46/18/46
f 47/17/47 46/18/46 123/87/119
f 123/87/119 46/18/46 45/42/45
f 123/87/119 45/42/45 50/45/50
f 50/45/50 45/42/45 43/40/43
f 50/45/50 43/40/43 51/46/51
f 51/46/51 43/40/43 71/45/69
f 51/46/51 71/45/69 52/47/52
f 52/47/52 71/45/69 7/7/7
f 52/47/52 7/7/7 73/64/71
f 73/64/71 7/7/7 9/9/9
f 73/64/71 9/9/9 72/63/70
f 72/63/70 124/80/120 15/15/15
f 15/15/15 124/80/120 99/79/96
f 15/15/15 99/79/96 13/13/13
f 13/13/13 99/79/96 101/15/15
f 13/13/13 101/15/15 14/14/14
f 14/14/14 101/15/15 103/64/99
f 14/14/14 103/64/99 52/47/52
f 52/47/52 103/64/99 105/7/101
f 52/47/52 105/7/101 50/45/50
f 50/45/50 105/7/101 106/8/102
f 50/45/50 106/8/102 123/87/119
f 123/87/119 106/8/102 91/62/88
f 123/87/119 91/62/88 47/17/47
f 47/17/47 91/62/88 89/59/86
f 47/17/47 89/59/86 48/43/48
f 125/89/121 37/34/37 82/72/79
f 82/72/79 37/34/37 35/32/35
f 82/72/79 35/32/35 80/70/77
f 80/70/77 35/32/35 34/31/34
f 80/70/77 34/31/34 78/68/75
f 78/68/75 34/31/34 75/66/72
f 78/68/75 75/66/72 67/62/65
f 67/62/65 75/66/72 77/67/74
f 67/62/65 77/67/74 126/83/122
f 126/83/122 77/67/74 76/54/73
f 126/83/122 76/54/73 127/82/123
f 127/82/123 76/54/73 85/55/82
f 127/82/123 85/55/82 128/81/124
f 128/81/124 85/55/82 129/90/125
f 128/81/124 129/90/125 130/91/126
f 49/44/49 38/35/38 122/16/118
f 122/16/118 38/35/38 40/37/40
f 122/16/118 40/37/40 46/18/46
f 46/18/46 40/37/40 19/19/19
f 46/18/46 19/19/19 44/41/44
f 44/41/44 19/19/19 21/21/21
f 44/41/44 21/21/21 42/39/42
f 42/39/42 21/21/21 68/41/66
f 42/39/42 68/41/66 43/40/43
f 43/40/43 68/41/66 120/42/116
f 43/40/43 120/42/116 71/45/69
f 71/45/69 120/42/116 119/87/115
f 71/45/69 119/87/115 8/8/8
f 8/8/8 119/87/115 67/62/65
f 8/8/8 67/62/65 9/9/9
f 9/9/9 67/62/65 126/83/122
f 9/9/9 126/83/122 72/63/70
f 72/63/70 126/83/122 127/82/123
f 72/63/70 127/82/123 124/80/120
f 124/80/120 127/82/123 128/81/124
f 124/80/120 128/81/124 99/79/96
f 99/79/96 128/81/124 130/91/126
f 99/79/96 130/91/126 107/81/103
f 107/81/103 130/91/126 131/90/127
f 107/81/103 131/90/127 60/55/59
o editpl_m-0000-1816
v -1.712211 47.276085 -12.875360
v 1.712211 47.276085 -12.875360
v 0.000000 46.251064 -11.558011
v 0.000000 48.561371 -13.877383
v -1.712211 47.276085 -12.875360
v 1.568623 49.011223 -11.108931
v 0.000000 50.309361 -12.272354
v -1.549659 49.011223 -11.108931
v -1.549659 49.011223 -11.108931
v 0.000000 50.309361 -12.272354
v 0.000000 48.561371 -13.877383
v 1.568623 49.011223 -11.108931
v 1.712211 47.276085 -12.875360
v 0.000000 46.251064 -11.558011
v 0.000000 48.011909 -10.168180
v -1.712211 47.276085 -12.875360
vn -0.5904 -0.5668 -0.5746
vn 0.5904 -0.5668 -0.5746
vn -0.0001 -0.8554 0.5179
vn -0.0000 0.4472 -0.8944
vn -0.5904 -0.5667 -0.5747
vn 0.9251 0.2352 0.2980
vn -0.0000 0.9888 -0.1491
vn -0.9251 0.2352 0.2980
vn -0.9252 0.2352 0.2979
vn 0.0001 0.9888 -0.1491
vn -0.0000 0.4473 -0.8944
vn 0.9252 0.2352 0.2979
vn 0.5904 -0.5667 -0.5747
vn -0.0000 -0.8554 0.5180
vn -0.0000 -0.6199 0.7847
vt 0.980469 0.917969
vt 0.988373 0.878906
vt 0.988373 0.949219
vt 0.988281 0.933594
vt 0.988281 0.871094
vt 0.769531 0.871094
vt 0.769531 0.933594
vt 0.769531 0.986603
vt 0.988281 0.986603
s 1
usemtl m_hair0101
f 132/92/128 133/93/129 134/94/130
f 135/92/131 133/93/129 136/94/132
f 137/92/133 138/93/134 139/94/135
f 140/95/136 141/96/137 142/97/138
f 142/97/138 141/96/137 143/95/139
f 142/97/138 143/95/139 144/98/140
f 144/98/140 143/95/139 145/99/141
f 143/95/139 146/100/142 145/99/141
f 145/99/141 146/100/142 140/95/136
f 145/99/141 140/95/136 147/98/132
f 147/98/132 140/95/136 142/97/138
