mtllib m_hair015.mtl
o editpl_m-0000-1838
v -3.833510 54.599007 10.736060
v -5.198943 54.775734 9.740763
v -5.976482 52.365822 8.539232
v -6.764858 55.701141 3.377433
v -7.108925 51.437202 1.347982
v -6.651072 51.363297 2.754251
v -11.961092 50.592125 -6.872938
v -7.946066 57.217781 -6.804941
v -5.236872 57.285259 -10.810043
v -6.995139 57.837933 -3.125627
v -7.512595 56.915737 -2.491984
v -8.092363 56.093155 -0.778608
v -5.095994 51.938461 -11.298725
v -4.256144 56.459461 -10.033681
v 0.000000 56.475529 -11.908457
v -8.861774 48.365364 -4.893551
v -7.344625 49.946266 -2.596595
v -7.192910 55.007088 -5.239514
v 9.761226 48.188637 -3.703976
v 7.983995 53.985283 -4.488558
v 7.523432 54.043121 -2.199074
v -6.426208 45.582718 -1.581122
v -7.228130 43.526257 -2.703447
v -5.486118 38.545769 0.175594
v 7.228130 43.526257 -2.703447
v 5.486118 38.545769 0.175594
v 6.707965 40.512257 -3.160746
v 4.510808 62.950165 7.356381
v 2.080661 60.778027 8.692411
v 5.816640 61.761272 6.751132
v 8.745279 55.036007 -2.493479
v 7.512595 56.915737 -2.491984
v 8.092363 56.093155 -0.778608
v 0.000000 61.472080 9.195292
v 0.000000 60.373161 9.296913
v 5.640542 60.803734 8.720806
v 5.816640 61.761272 6.751132
v 4.510808 62.950165 7.356381
v -4.689615 61.224663 10.579144
v -3.950005 62.950165 8.448817
v -5.255837 61.761272 7.708322
v -9.192296 56.295586 -0.236873
v -8.200731 58.817963 -3.187648
v -9.108311 57.278831 -3.930384
v -8.745279 55.036007 -2.493479
v -3.928331 45.859055 -16.400747
v -7.217293 44.464516 -15.412922
v 7.157691 54.081680 5.523450
v 7.287732 57.220993 6.597953
v 7.024940 56.880394 7.779309
v 6.756730 58.994690 8.202982
v 0.677299 61.449589 11.531102
v 1.197464 58.985050 10.590351
v 2.362417 61.382111 9.641381
v -4.611048 57.086040 10.315374
v 2.419310 62.876259 7.966860
v 2.362417 61.382111 9.641381
v 4.223634 61.938000 9.239377
v -1.034912 56.526939 11.897242
v -0.178807 58.859737 12.009323
v -1.430454 58.609104 11.862868
v -1.400653 59.791569 11.525871
v -3.722433 59.736942 10.801815
v -1.744721 58.946491 11.601341
v -2.804016 56.462673 11.611056
v -5.548430 59.386703 10.399810
v -7.512595 57.664417 5.696805
v -6.006283 57.542316 9.904404
v -7.864791 53.988495 4.182936
v -6.995139 54.881771 7.462487
v 2.362417 61.382111 9.641381
v 3.530080 60.980461 9.830428
v 4.223634 61.938000 9.239377
v 4.681487 59.569859 9.611493
v 5.640542 60.803734 8.720806
v 6.756730 58.994690 8.202982
v 6.428918 55.852161 8.678215
v 7.024940 56.880394 7.779309
v -1.893727 56.578350 11.765730
v -2.468076 54.563663 11.322629
v -1.162244 55.559761 11.210546
v -6.176963 60.103252 6.843788
v -3.120992 60.691269 10.756982
v -2.329907 61.565266 10.502927
v -2.088789 63.534969 8.421170
v -2.207993 63.316471 9.853592
v -3.429840 62.477821 10.170413
v -5.255837 61.761272 7.708322
v -3.950005 62.950165 8.448817
v -4.058373 63.968754 5.273130
v -8.092363 56.093155 -0.778608
v -10.828649 51.106239 -2.898472
v -10.641714 55.739700 -4.673121
v -6.724220 51.029121 -6.947660
v -7.217293 55.614384 -2.307421
v -6.745893 55.579041 -7.395993
v -7.038486 54.891411 -0.759927
v -7.217293 55.614384 -2.307421
v -6.987012 49.502842 -3.127869
v -6.724220 51.029121 -6.947660
v -5.903334 43.185658 -3.813069
v -6.033375 46.961189 -4.847223
v -4.619176 40.338745 -7.182287
v -3.502988 44.927219 -6.844543
v -2.646883 39.361927 -9.217715
v 0.000000 43.927910 -9.954474
v -9.975253 48.950169 -7.194243
v -9.926487 48.982304 -2.731842
v -7.016813 56.559071 -7.447551
v -6.426208 60.257484 -7.135214
v -4.193832 59.691959 -9.542010
v -9.111020 42.449829 -12.229013
v -10.666097 40.762890 -8.056535
v -11.010165 45.720886 -4.996667
v -7.767260 43.365597 -3.545564
v -9.186877 41.977486 -5.396430
v -7.545106 34.455341 -2.997104
v 8.872611 48.230408 -2.559234
v 6.594178 34.850567 -6.113014
v 5.878951 38.227661 -8.903135
v 7.829571 41.122768 -7.659761
v 4.909060 41.980698 -9.361929
v 5.459026 49.894855 -7.263735
v 6.171544 47.754852 -5.418100
v 6.995139 42.179920 -6.187737
v 4.123393 41.450520 -16.021158
v 0.000000 42.761513 -18.158211
v 0.000000 52.108765 -13.730181
v -4.123393 41.450520 -16.021158
v 7.192910 55.007088 -5.239514
v 7.344625 49.946266 -2.596595
v 8.861774 48.365364 -4.893551
v 7.767260 43.365597 -3.545564
v 9.186877 41.977486 -5.396430
v 7.545106 34.455341 -2.997104
v 7.946066 52.985973 -7.217407
v 10.343703 45.386711 -6.759360
v 5.236872 51.678192 -11.151523
v 6.886771 57.423428 4.283064
v 5.976482 61.645596 5.099028
v 6.737766 60.103252 6.030065
v 5.236872 57.285259 -10.810043
v 11.961092 50.592125 -6.872938
v 8.317226 50.479664 -12.161017
v -7.536978 46.231789 -3.077805
v -7.024940 54.100960 -1.788103
v -7.203747 55.148468 -4.318939
v 8.092363 56.093155 -0.778608
v 6.764858 55.701141 3.377433
v 7.108925 51.437202 1.347982
v 6.651072 51.363297 2.754251
v 4.058373 63.968754 5.273130
v 0.000000 65.601067 2.748272
v 0.000000 64.116562 6.251242
v 6.995139 57.837933 -3.125627
v 7.016813 56.559071 -7.447551
v 6.426208 60.257484 -7.135214
v 4.256144 56.459461 -10.033681
v 4.193832 59.691959 -9.542010
v 0.216736 63.875568 8.484684
v -2.088789 63.534969 8.421170
v -3.950005 62.950165 8.448817
v 6.426208 45.582718 -1.581122
v 7.536978 46.231789 -3.077805
v 7.024940 54.100960 -1.788103
v 6.745893 55.579041 -7.395993
v 7.217293 55.614384 -2.307421
v 6.724220 51.029121 -6.947660
v -5.878951 38.227661 -8.903135
v -6.594178 34.850567 -6.113014
v -7.829571 41.122768 -7.659761
v -6.995139 42.179920 -6.187737
v -6.171544 47.754852 -5.418100
v 10.641714 55.739700 -4.673121
v 9.108311 57.278831 -3.930384
v 9.192296 56.295586 -0.236873
v 11.010165 45.720886 -4.996667
v 10.666097 40.762890 -8.056535
v 9.975253 48.950169 -7.194243
v 7.393391 59.965084 4.189661
v 6.737766 60.103252 6.030065
v 7.634509 57.664417 5.050459
v 2.419310 62.876259 7.966860
v -5.459026 49.894855 -7.263735
v -4.909060 41.980698 -9.361929
v 9.926487 48.982304 -2.731842
v -7.512595 57.664417 5.696805
v -6.176963 60.103252 6.843788
v -7.393391 59.965084 4.189661
v -2.080661 60.778027 8.692411
v -5.255837 61.761272 7.708322
v 6.737766 60.103252 6.030065
v 7.634509 57.664417 5.050459
v 7.493631 53.512939 2.738559
v -0.964473 60.636646 11.368956
v -0.046056 56.848263 11.099209
v -5.545720 54.775734 9.310364
v -6.981593 52.812458 6.605425
v 5.288347 58.008232 9.110108
v 5.459026 56.138142 8.781332
v 5.366914 52.552189 8.588550
v 0.216736 63.875568 8.484684
v 0.000000 59.926525 -10.642667
v 0.000000 57.291683 -13.236269
v -4.361803 59.920097 -9.614491
v -6.686291 60.286404 -7.109808
v -8.238659 57.767242 -2.936581
v -8.092363 56.093155 -0.778608
v -7.845826 59.618053 -0.298892
v -8.271170 55.559761 2.513646
v -7.780805 56.228111 5.081096
v -3.738688 48.750950 -8.835887
v 0.000000 52.108765 -13.730181
v -5.236872 51.678192 -11.151523
v -7.913556 38.507210 -11.457135
v -10.343703 45.386711 -6.759360
v -10.089039 41.254513 -6.301314
v -9.761226 48.188637 -3.703976
v -9.555328 43.982533 -2.920141
v -8.872611 48.230408 -2.559234
v 9.555328 43.982533 -2.920141
v 10.089039 41.254513 -6.301314
v 7.913556 38.507210 -11.457135
v 4.123393 51.527172 -15.610188
v 0.000000 51.954529 -18.213503
v -4.123393 51.527172 -15.610188
v -8.317226 50.479664 -12.161017
v 8.067980 38.462227 -6.411155
v 7.320242 42.070667 -7.384037
v 7.043905 46.463139 -6.840807
v -7.046614 46.880856 -4.575234
v -6.987012 44.024307 -4.492293
v -6.707965 40.512257 -3.160746
v 0.000000 60.254272 -10.077767
v 6.764858 55.701141 3.377433
v 8.092363 56.093155 -0.778608
v 7.710366 60.157875 -0.048574
v 6.339514 62.892326 0.364639
v 3.879566 64.939148 1.374134
v -7.523432 54.043121 -2.199074
v -7.983995 53.985283 -4.488558
v -7.946066 52.985973 -7.217407
v 6.987012 44.024307 -4.492293
v 7.046614 46.880856 -4.575234
v 7.203747 55.148468 -4.318939
v -2.088789 63.534969 8.421170
v 0.216736 63.875568 8.484684
v 2.419310 62.876259 7.966860
v 4.510808 62.950165 7.356381
v 5.816640 61.761272 6.751132
v -4.491844 55.068138 -9.349974
v 0.000000 55.521202 -10.918390
v 0.000000 47.382118 -10.240661
v 4.491844 55.068138 -9.349974
v 3.738688 48.750950 -8.835887
v 6.745893 55.579041 -7.395993
v 6.724220 51.029121 -6.947660
v 6.987012 49.502842 -3.127869
v 5.903334 43.185658 -3.813069
v 6.033375 46.961189 -4.847223
v 4.619176 40.338745 -7.182287
v 3.502988 44.927219 -6.844543
v 2.646883 39.361927 -9.217715
v 0.000000 39.635052 -10.082997
v -7.043905 46.463139 -6.840807
v -7.320242 42.070667 -7.384037
v -8.067980 38.462227 -6.411155
v 9.111020 42.449829 -12.229013
v 7.217293 44.464516 -15.412922
v 5.095994 51.938461 -11.298725
v 3.928331 45.859055 -16.400747
v 0.000000 50.804195 -14.449007
v 0.000000 45.637341 -18.401804
v 8.200731 58.817963 -3.187648
v 7.845826 59.618053 -0.298892
v 8.271170 55.559761 2.513646
v 7.585744 56.228111 4.282317
v 2.419310 62.876259 7.966860
v -7.710366 60.157875 -0.048574
v -6.339514 62.892326 0.364639
v -7.396100 61.709862 -4.032007
v -3.651994 64.900589 -3.635980
v -3.600519 62.898750 -7.855534
v 0.000000 64.698151 -7.669476
v 0.000000 62.358929 -9.365666
v 3.600519 62.898750 -7.855534
v 4.361803 59.920097 -9.614491
v 6.686291 60.286404 -7.109808
v 7.946066 57.217781 -6.804941
v -3.879566 64.939148 1.374134
v 0.000000 65.925606 -1.833684
v 3.651994 64.900589 -3.635980
v 7.396100 61.709862 -4.032007
v 8.238659 57.767242 -2.936581
v 10.828649 51.106239 -2.898472
v -7.412355 57.664417 5.696805
v -6.176963 60.103252 6.843788
v 7.038486 54.891411 -0.759927
v 7.217293 55.614384 -2.307421
v -6.745893 55.579041 -7.395993
v -6.764858 55.701141 3.377433
vn -0.5948 -0.0939 0.7983
vn -0.5971 -0.1178 0.7935
vn -0.5920 -0.1973 0.7814
vn -0.9522 -0.0630 0.2990
vn -0.9499 -0.0628 0.3062
vn -0.8183 0.4957 -0.2911
vn -0.8847 0.4071 -0.2271
vn -0.6213 0.4562 -0.6371
vn -0.9369 0.3386 -0.0866
vn -0.8752 0.4573 -0.1577
vn -0.8684 0.4929 -0.0548
vn -0.5165 0.4383 -0.7356
vn -0.5829 0.2284 -0.7798
vn -0.0000 0.3374 -0.9414
vn -0.9861 0.1174 -0.1174
vn -0.8632 0.1020 0.4944
vn -0.9534 0.2285 -0.1970
vn 0.9478 0.1332 0.2898
vn 0.9533 0.2994 0.0394
vn 0.8875 0.2278 0.4005
vn -0.8185 -0.0079 0.5745
vn -0.9750 -0.0865 0.2044
vn -0.9120 -0.0865 0.4010
vn 0.9750 -0.0865 0.2044
vn 0.9120 -0.0865 0.4010
vn 0.9846 -0.1733 0.0237
vn 0.5011 0.5715 0.6498
vn 0.3375 0.1178 0.9339
vn 0.7892 0.4894 0.3709
vn 0.8910 0.4258 -0.1577
vn 0.8752 0.4573 -0.1577
vn 0.8684 0.4929 -0.0548
vn 0.0626 0.1957 0.9787
vn -0.0000 0.0863 0.9963
vn 0.7407 0.4255 0.5200
vn 0.8098 0.4953 0.3145
vn 0.3696 0.7707 0.5190
vn -0.5112 0.4247 0.7472
vn -0.5739 0.7625 0.2987
vn -0.8231 0.5095 0.2508
vn -0.8658 0.4723 0.1653
vn -0.9038 0.4244 0.0550
vn -0.8157 0.5647 0.1255
vn -0.8910 0.4258 -0.1577
vn -0.3768 0.5495 -0.7457
vn -0.7095 0.4178 -0.5676
vn 0.9766 -0.1024 0.1890
vn 0.9773 -0.0156 0.2111
vn 0.9457 -0.0788 0.3152
vn 0.7927 0.1256 0.5965
vn 0.4003 0.4161 0.8165
vn 0.7081 -0.1731 0.6845
vn 0.3231 0.5988 0.7328
vn -0.4306 -0.0627 0.9004
vn 0.4251 0.6928 0.5826
vn 0.3230 0.5989 0.7328
vn 0.3223 0.5502 0.7703
vn 0.4021 -0.3154 0.8595
vn 0.3137 -0.0392 0.9487
vn -0.1569 0.1176 0.9806
vn -0.2683 0.2999 0.9155
vn -0.2350 0.0313 0.9715
vn -0.4018 0.1339 0.9059
vn -0.5580 0.0865 0.8253
vn -0.6774 0.1260 0.7247
vn -0.9393 0.1566 0.3053
vn -0.7932 -0.0707 0.6048
vn -0.9598 0.0551 0.2753
vn -0.8703 -0.1176 0.4782
vn 0.3230 0.5988 0.7328
vn 0.2431 0.3764 0.8940
vn 0.5173 0.1254 0.8466
vn 0.7406 0.4255 0.5200
vn 0.5786 -0.0626 0.8132
vn 0.9457 -0.0788 0.3153
vn -0.1409 -0.0861 0.9863
vn 0.1728 -0.3927 0.9033
vn 0.5597 -0.5282 0.6385
vn -0.8957 0.3771 0.2357
vn -0.1566 0.2506 0.9553
vn 0.0236 0.3929 0.9193
vn -0.2677 0.9448 0.1890
vn -0.0315 0.7561 0.6537
vn -0.2762 0.6472 0.7105
vn -0.8136 0.4266 0.3949
vn -0.4002 0.3845 0.8319
vn -0.3925 0.8870 0.2433
vn -0.9522 -0.0629 0.2990
vn -0.9039 0.4088 0.1258
vn -0.7364 0.6581 0.1567
vn -0.8645 -0.2122 -0.4557
vn -0.9980 -0.0550 -0.0315
vn -0.8798 -0.0628 -0.4713
vn -0.9952 -0.0470 0.0862
vn -0.9980 -0.0550 -0.0314
vn -0.9886 -0.0942 -0.1177
vn -0.8644 -0.2122 -0.4558
vn -0.9461 -0.1095 -0.3049
vn -0.8866 -0.1177 -0.4472
vn -0.7525 0.1019 -0.6506
vn -0.6806 -0.0860 -0.7276
vn -0.5333 0.1568 -0.8313
vn -0.0000 -0.0550 -0.9985
vn -0.8888 0.2910 -0.3539
vn -0.9678 0.2518 0.0079
vn -0.8883 0.2830 -0.3616
vn -0.9017 0.1647 -0.3999
vn -0.4337 0.2444 -0.8673
vn -0.9228 0.1499 -0.3549
vn -0.9505 0.1100 -0.2907
vn -0.9669 0.2123 -0.1415
vn -0.8084 -0.0000 0.5886
vn -0.9964 -0.0470 -0.0706
vn -0.9615 -0.1261 0.2443
vn 0.7875 0.1103 0.6064
vn 0.9805 -0.1961 -0.0157
vn 0.6686 -0.1337 -0.7315
vn 0.9584 0.0393 -0.2828
vn 0.5244 0.1017 -0.8454
vn 0.8337 0.2438 -0.4955
vn 0.9653 0.1727 0.1962
vn 0.8730 0.0079 0.4876
vn 0.6048 0.2985 -0.7383
vn -0.0000 0.4251 -0.9052
vn -0.0000 0.4091 -0.9125
vn -0.6048 0.2985 -0.7383
vn 0.9534 0.2285 -0.1970
vn 0.8632 0.1020 0.4944
vn 0.9861 0.1174 -0.1174
vn 0.8084 -0.0000 0.5886
vn 0.9964 -0.0470 -0.0706
vn 0.9615 -0.1261 0.2443
vn 0.8974 0.2519 -0.3621
vn 0.9429 0.1100 -0.3143
vn 0.7078 0.2281 -0.6685
vn 0.9910 0.0629 0.1180
vn 0.8704 0.4861 0.0784
vn 0.9196 0.3694 -0.1336
vn 0.6213 0.4562 -0.6371
vn 0.8183 0.4957 -0.2911
vn 0.6928 0.4251 -0.5825
vn -0.9887 -0.0157 0.1491
vn -0.9380 -0.0000 0.3468
vn -0.9939 0.0157 -0.1095
vn 0.9522 -0.0630 0.2990
vn 0.9499 -0.0628 0.3062
vn 0.4237 0.8553 0.2982
vn -0.0000 0.9737 0.2277
vn 0.1024 0.9534 0.2837
vn 0.9369 0.3386 -0.0866
vn 0.8883 0.2830 -0.3616
vn 0.9017 0.1646 -0.3999
vn 0.5829 0.2284 -0.7798
vn 0.4337 0.2444 -0.8673
vn 0.1102 0.8270 0.5513
vn -0.1569 0.6983 0.6983
vn -0.4002 0.3845 0.8318
vn 0.8185 -0.0079 0.5745
vn 0.9887 -0.0157 0.1491
vn 0.9380 -0.0000 0.3468
vn 0.8798 -0.0628 -0.4713
vn 0.9980 -0.0550 -0.0315
vn 0.8645 -0.2122 -0.4557
vn -0.6686 -0.1337 -0.7315
vn -0.9805 -0.1961 -0.0158
vn -0.9584 0.0393 -0.2828
vn -0.8730 0.0079 0.4876
vn -0.9653 0.1727 0.1962
vn 0.7364 0.6581 0.1567
vn 0.8157 0.5647 0.1255
vn 0.8658 0.4723 0.1653
vn 0.9669 0.2123 -0.1415
vn 0.9505 0.1100 -0.2907
vn 0.8888 0.2910 -0.3539
vn 0.9818 0.1178 0.1492
vn 0.9256 0.2118 0.3138
vn 0.9880 0.1333 0.0784
vn 0.2754 0.7398 0.6139
vn -0.8337 0.2438 -0.4955
vn -0.5244 0.1017 -0.8454
vn 0.9678 0.2518 0.0079
vn -0.9442 0.2124 0.2518
vn -0.8730 0.2989 0.3854
vn -0.9654 0.1805 0.1884
vn -0.2753 -0.0551 0.9598
vn -0.8137 0.4265 0.3949
vn 0.9019 0.3764 0.2117
vn 0.9790 0.0783 0.1880
vn 0.9745 -0.1335 0.1805
vn -0.2202 0.5191 0.8259
vn 0.6515 -0.3611 0.6672
vn -0.6509 -0.2588 0.7137
vn -0.7702 -0.2436 0.5894
vn 0.5587 -0.0708 0.8263
vn 0.2737 -0.0000 0.9618
vn 0.6124 -0.2120 0.7616
vn 0.0629 0.7622 0.6443
vn -0.0000 0.5886 -0.8084
vn -0.0000 0.6285 -0.7778
vn -0.3694 0.5424 -0.7546
vn -0.7863 0.4167 -0.4561
vn -0.9678 0.2518 -0.0079
vn -0.9805 -0.0078 0.1961
vn -0.9415 0.2982 0.1569
vn -0.9536 0.2207 0.2049
vn -0.9820 0.1336 0.1335
vn -0.5637 -0.2114 -0.7985
vn -0.7078 0.2281 -0.6685
vn -0.8506 0.0788 -0.5198
vn -0.9429 0.1100 -0.3143
vn -0.9989 -0.0472 0.0078
vn -0.9478 0.1331 0.2898
vn -0.9165 0.0235 0.3995
vn -0.7875 0.1103 0.6064
vn 0.9165 0.0235 0.3995
vn 0.9989 -0.0472 0.0078
vn 0.8506 0.0788 -0.5198
vn 0.4869 0.5341 -0.6911
vn -0.0000 0.6832 -0.7303
vn -0.4869 0.5341 -0.6911
vn -0.6928 0.4251 -0.5826
vn 0.8860 -0.1490 -0.4391
vn 0.7057 0.0627 -0.7057
vn 0.6610 0.1259 -0.7397
vn -0.9605 -0.0394 -0.2756
vn -0.9728 -0.1099 -0.2040
vn -0.9846 -0.1733 0.0237
vn -0.0000 0.4315 -0.9021
vn 0.9374 -0.2127 0.2757
vn 0.9678 0.0630 0.2439
vn 0.9625 0.2269 0.1487
vn 0.7641 0.6381 0.0945
vn 0.4078 0.9097 0.0784
vn -0.8875 0.2278 0.4005
vn -0.9533 0.2994 0.0394
vn -0.8974 0.2519 -0.3621
vn 0.9728 -0.1098 -0.2039
vn 0.9605 -0.0394 -0.2755
vn 0.9939 0.0157 -0.1095
vn -0.1570 0.6983 0.6983
vn 0.1103 0.8270 0.5513
vn 0.2754 0.7398 0.6138
vn 0.7893 0.4894 0.3709
vn -0.4480 -0.1022 -0.8882
vn -0.0000 -0.0785 -0.9969
vn -0.0000 -0.0938 -0.9956
vn 0.4480 -0.1022 -0.8881
vn 0.5637 -0.2114 -0.7985
vn 0.8797 -0.0629 -0.4713
vn 0.8644 -0.2122 -0.4558
vn 0.9886 -0.0941 -0.1177
vn 0.9461 -0.1095 -0.3049
vn 0.8866 -0.1177 -0.4472
vn 0.7525 0.1019 -0.6506
vn 0.6806 -0.0860 -0.7276
vn 0.5333 0.1568 -0.8313
vn -0.0000 0.0236 -0.9997
vn -0.6610 0.1259 -0.7397
vn -0.7057 0.0627 -0.7057
vn -0.8860 -0.1490 -0.4391
vn 0.9228 0.1499 -0.3549
vn 0.7095 0.4178 -0.5676
vn 0.5165 0.4383 -0.7356
vn 0.3768 0.5495 -0.7457
vn -0.0000 0.5419 -0.8404
vn -0.0000 0.6063 -0.7952
vn 0.9038 0.4244 0.0550
vn 0.9415 0.2982 0.1569
vn 0.9428 0.1886 0.2750
vn 0.9945 0.0470 0.0940
vn 0.4251 0.6928 0.5825
vn -0.9509 0.2829 0.1257
vn -0.7641 0.6381 0.0945
vn -0.8372 0.5164 -0.1800
vn -0.4648 0.8667 -0.1812
vn -0.4641 0.6608 -0.5900
vn -0.0000 0.8643 -0.5029
vn -0.0000 0.5365 -0.8439
vn 0.4641 0.6608 -0.5900
vn 0.3694 0.5423 -0.7546
vn 0.7863 0.4167 -0.4561
vn 0.8847 0.4071 -0.2271
vn -0.4078 0.9097 0.0784
vn -0.0000 0.9989 -0.0472
vn 0.4648 0.8667 -0.1812
vn 0.8372 0.5164 -0.1800
vn 0.9678 0.2518 -0.0079
vn 0.9039 0.4088 0.1258
vn -0.9832 -0.0236 0.1809
vn -0.9034 0.3771 0.2042
vn 0.9952 -0.0470 0.0862
vn 0.9980 -0.0550 -0.0314
vn -0.8797 -0.0628 -0.4713
vn -0.8239 -0.5257 0.2119
vt 0.147156 0.351379
vt 0.102936 0.351410
vt 0.140808 0.400116
vt 0.311584 0.712006
vt 0.445404 0.676331
vt 0.445465 0.708099
vt 0.599884 0.578888
vt 0.630066 0.421387
vt 0.793457 0.436157
vt 0.464722 0.609375
vt 0.464722 0.704468
vt 0.652679 0.675201
vt 0.837036 0.807190
vt 0.828156 0.687958
vt 0.987640 0.700653
vt 0.378174 0.761597
vt 0.329315 0.737244
vt 0.423218 0.747864
vt 0.470825 0.441467
vt 0.489410 0.343475
vt 0.379944 0.342712
vt 0.322144 0.835236
vt 0.366211 0.876404
vt 0.275482 0.989990
vt 0.379395 0.956329
vt 0.876556 0.072418
vt 0.925751 0.009979
vt 0.816803 0.009979
vt 0.464722 0.799530
vt 0.993011 0.047241
vt 0.993011 0.010101
vt 0.075592 0.135010
vt 0.009979 0.125061
vt 0.009979 0.068787
vt 0.042328 0.138824
vt 0.009979 0.095123
vt 0.009979 0.129852
vt 0.233612 0.573212
vt 0.328766 0.451233
vt 0.366058 0.526398
vt 0.932678 0.989990
vt 0.799805 0.969513
vt 0.076813 0.331818
vt 0.046814 0.237732
vt 0.077637 0.236664
vt 0.077026 0.172760
vt 0.166534 0.071381
vt 0.223389 0.071136
vt 0.158142 0.009979
vt 0.089600 0.260925
vt 0.009979 0.036896
vt 0.074127 0.034241
vt 0.075653 0.081360
vt 0.222168 0.198151
vt 0.202271 0.140167
vt 0.157471 0.150635
vt 0.140900 0.141479
vt 0.081482 0.188599
vt 0.150452 0.189575
vt 0.150055 0.263397
vt 0.043762 0.176575
vt 0.009979 0.259460
vt 0.054993 0.260986
vt 0.022858 0.352081
vt 0.058929 0.350403
vt 0.076141 0.037109
vt 0.075745 0.106323
vt 0.009979 0.095215
vt 0.089600 0.221039
vt 0.009979 0.172150
vt 0.009979 0.218597
vt 0.060425 0.291016
vt 0.009979 0.305573
vt 0.183533 0.207947
vt 0.221313 0.284485
vt 0.233185 0.241119
vt 0.009979 0.164581
vt 0.075409 0.147797
vt 0.069366 0.106995
vt 0.016052 0.068939
vt 0.042725 0.087952
vt 0.040894 0.101074
vt 0.283386 0.236237
vt 0.253052 0.131653
vt 0.318756 0.127777
vt 0.311859 0.623047
vt 0.452240 0.550598
vt 0.384308 0.590454
vt 0.302216 0.723633
vt 0.293610 0.704529
vt 0.296967 0.745575
vt 0.268890 0.719696
vt 0.278229 0.897064
vt 0.245117 0.830750
vt 0.207001 0.989990
vt 0.117432 0.877014
vt 0.105591 0.989990
vt 0.009979 0.875641
vt 0.570740 0.801727
vt 0.473755 0.874481
vt 0.649536 0.675171
vt 0.682007 0.609375
vt 0.843658 0.609375
vt 0.690369 0.972076
vt 0.599152 0.989990
vt 0.517761 0.927246
vt 0.413818 0.455994
vt 0.429932 0.893188
vt 0.885376 0.578888
vt 0.972809 0.578888
vt 0.981384 0.428467
vt 0.614990 0.506287
vt 0.294067 0.335815
vt 0.243591 0.278381
vt 0.776917 0.578888
vt 0.378662 0.822327
vt 0.468414 0.011108
vt 0.322083 0.014587
vt 0.993011 0.105621
vt 0.934479 0.091064
vt 0.070587 0.422394
vt 0.009979 0.422699
vt 0.048950 0.574158
vt 0.009979 0.239105
vt 0.009979 0.303589
vt 0.131378 0.093353
vt 0.240875 0.176819
vt 0.103638 0.348755
vt 0.103302 0.395844
vt 0.089508 0.252228
vt 0.090302 0.277435
vt 0.084045 0.341522
vt 0.034546 0.031586
vt 0.981354 0.269684
vt 0.811401 0.324127
vt 0.687622 0.306488
vt 0.226746 0.422150
vt 0.144135 0.615723
vt 0.070740 0.628418
vt 0.121948 0.755371
vt 0.989990 0.428467
vt 0.431091 0.804321
vt 0.989380 0.609375
vt 0.311646 0.384216
vt 0.462616 0.260986
vt 0.444000 0.209290
vt 0.455261 0.119263
vt 0.252380 0.073120
vt 0.251923 0.014587
vt 0.253174 0.211182
vt 0.136169 0.663849
vt 0.009979 0.676270
vt 0.009979 0.789581
vt 0.287872 0.676361
vt 0.009979 0.989990
vt 0.989380 0.813507
vt 0.989380 0.989990
vt 0.094269 0.009979
vt 0.547791 0.239105
vt 0.648041 0.155182
vt 0.756226 0.200958
vt 0.787689 0.050385
vt 0.933563 0.152771
vt 0.632477 0.011108
s 1
usemtl m_hair0118
f 1/1/1 2/2/2 3/3/3
f 4/4/4 5/5/4 6/6/5
f 7/7/6 8/8/7 9/9/8
f 10/10/9 11/11/10 12/12/11
f 13/13/12 14/14/13 15/15/14
f 16/16/15 17/17/16 18/18/17
f 19/19/18 20/20/19 21/21/20
f 22/22/21 23/23/22 24/24/23
f 25/23/24 26/24/25 27/25/26
f 28/26/27 29/27/28 30/28/29
f 31/29/30 32/11/31 33/12/32
f 34/30/33 35/31/34 29/27/28
f 36/32/35 37/33/36 38/34/37
f 39/35/38 40/36/39 41/37/40
f 42/38/41 43/39/42 44/40/43
f 11/11/10 45/29/44 12/12/11
f 13/13/12 46/41/45 47/42/46
f 48/43/47 49/44/48 50/45/49
f 50/45/49 49/44/48 51/46/50
f 52/47/51 53/48/52 54/49/53
f 2/2/2 1/1/1 55/50/54
f 56/51/55 57/52/56 38/34/37
f 38/34/37 57/52/56 58/53/57
f 38/34/37 58/53/57 36/32/35
f 59/54/58 60/55/59 61/56/60
f 62/57/61 63/58/62 64/59/63
f 64/59/63 63/58/62 55/50/54
f 64/59/63 55/50/54 65/60/64
f 65/60/64 55/50/54 1/1/1
f 66/61/65 67/62/66 68/63/67
f 68/63/67 67/62/66 69/64/68
f 68/63/67 69/64/68 70/65/69
f 71/66/70 72/67/71 73/68/57
f 73/68/57 72/67/71 74/69/72
f 73/68/57 74/69/72 75/70/73
f 75/70/73 74/69/72 76/71/50
f 76/71/50 77/72/74 78/73/75
f 61/56/60 79/74/76 59/54/58
f 59/54/58 79/74/76 80/75/77
f 59/54/58 80/75/77 81/76/78
f 41/37/40 82/77/79 39/35/38
f 83/78/80 84/79/81 39/35/38
f 85/80/82 40/36/39 86/81/83
f 86/81/83 40/36/39 87/82/84
f 88/83/85 89/84/86 90/85/87
f 5/5/4 4/4/4 91/86/88
f 8/8/7 7/7/6 92/87/89
f 42/38/41 44/40/43 93/88/90
f 94/7/91 95/87/92 96/8/93
f 97/89/94 98/90/95 99/91/96
f 99/91/96 98/90/95 100/92/97
f 101/93/98 102/94/99 103/95/100
f 103/95/100 102/94/99 104/96/101
f 103/95/100 104/96/101 105/97/102
f 105/97/102 104/96/101 106/98/103
f 107/99/104 108/100/105 45/29/44
f 11/11/10 10/10/9 109/101/106
f 109/101/106 10/10/9 110/102/107
f 109/101/106 110/102/107 111/103/108
f 14/14/13 13/13/12 107/99/104
f 107/99/104 13/13/12 47/42/46
f 107/99/104 47/42/46 112/104/109
f 112/104/109 113/105/110 107/99/104
f 107/99/104 113/105/110 114/106/111
f 107/99/104 114/106/111 108/100/105
f 17/17/16 16/16/15 115/22/112
f 115/22/112 16/16/15 116/23/113
f 115/22/112 116/23/113 117/24/114
f 118/107/115 19/19/18 21/21/20
f 119/24/116 120/25/117 121/23/118
f 121/23/118 120/25/117 122/108/119
f 121/23/118 122/108/119 123/18/120
f 123/18/120 124/17/121 121/23/118
f 121/23/118 124/17/121 125/22/122
f 121/23/118 125/22/122 119/24/116
f 126/109/123 127/110/124 128/111/125
f 128/111/125 127/110/124 129/109/126
f 130/18/127 131/17/128 132/16/129
f 132/16/129 131/17/128 133/22/130
f 132/16/129 133/22/130 134/23/131
f 134/23/131 133/22/130 135/24/132
f 20/20/19 19/19/18 136/8/133
f 136/8/133 19/19/18 137/112/134
f 136/8/133 137/112/134 138/9/135
f 139/113/136 140/83/137 141/114/138
f 142/9/139 143/7/140 144/115/141
f 23/23/22 22/22/21 145/116/142
f 145/116/142 22/22/21 146/17/143
f 145/116/142 146/17/143 147/18/144
f 148/86/145 149/4/145 150/5/145
f 150/5/145 149/4/145 151/6/146
f 152/85/147 153/117/148 154/118/149
f 154/118/149 153/117/148 90/85/87
f 155/10/150 156/101/151 157/102/152
f 157/102/152 156/101/151 158/14/153
f 157/102/152 158/14/153 159/103/154
f 159/103/154 158/14/153 15/15/14
f 160/119/155 161/120/156 34/30/33
f 34/30/33 161/120/156 162/26/157
f 26/24/25 25/23/24 163/22/158
f 163/22/158 25/23/24 164/116/159
f 163/22/158 164/116/159 165/17/160
f 166/8/161 167/87/162 168/7/163
f 169/25/164 170/24/165 171/23/166
f 171/23/166 170/24/165 172/22/167
f 171/23/166 172/22/167 173/17/168
f 174/88/169 175/40/170 176/38/171
f 177/106/172 178/105/173 179/99/174
f 180/121/175 181/122/176 182/123/177
f 29/27/28 28/26/27 34/30/33
f 34/30/33 28/26/27 183/120/178
f 34/30/33 183/120/178 160/119/155
f 173/17/168 184/18/179 171/23/166
f 171/23/166 184/18/179 185/108/180
f 171/23/166 185/108/180 169/25/164
f 32/11/31 31/29/30 179/99/174
f 179/99/174 31/29/30 186/100/181
f 179/99/174 186/100/181 177/106/172
f 187/123/182 188/122/183 189/121/184
f 35/31/34 34/30/33 190/27/185
f 190/27/185 34/30/33 162/26/157
f 190/27/185 162/26/157 191/28/186
f 37/33/36 36/32/35 192/77/187
f 192/77/187 36/32/35 51/46/50
f 192/77/187 51/46/50 193/124/188
f 193/124/188 51/46/50 49/44/48
f 193/124/188 49/44/48 194/125/189
f 195/126/190 61/56/60 52/47/51
f 52/47/51 61/56/60 60/55/59
f 52/47/51 60/55/59 53/48/52
f 53/48/52 60/55/59 59/54/58
f 53/48/52 59/54/58 196/127/191
f 196/127/191 59/54/58 81/76/78
f 63/58/62 66/61/65 55/50/54
f 55/50/54 66/61/65 68/63/67
f 55/50/54 68/63/67 197/128/192
f 197/128/192 68/63/67 70/65/69
f 197/128/192 70/65/69 198/129/193
f 74/69/72 199/130/194 76/71/50
f 76/71/50 199/130/194 200/131/195
f 76/71/50 200/131/195 77/72/74
f 77/72/74 200/131/195 201/132/196
f 77/72/74 201/132/196 78/73/75
f 40/36/39 39/35/38 87/82/84
f 87/82/84 39/35/38 84/79/81
f 87/82/84 84/79/81 86/81/83
f 86/81/83 84/79/81 202/133/197
f 86/81/83 202/133/197 85/80/82
f 203/134/198 204/111/199 205/135/200
f 205/135/200 204/111/199 9/9/8
f 205/135/200 9/9/8 206/136/201
f 206/136/201 9/9/8 8/8/7
f 206/136/201 8/8/7 207/20/202
f 207/20/202 8/8/7 92/87/89
f 207/20/202 92/87/89 208/21/203
f 43/39/42 42/38/41 209/137/204
f 209/137/204 42/38/41 210/138/205
f 209/137/204 210/138/205 189/121/184
f 189/121/184 210/138/205 211/139/206
f 189/121/184 211/139/206 187/123/182
f 101/93/98 99/91/96 102/94/99
f 102/94/99 99/91/96 100/92/97
f 102/94/99 100/92/97 104/96/101
f 104/96/101 100/92/97 212/140/207
f 104/96/101 212/140/207 106/98/103
f 213/141/125 129/109/126 214/9/208
f 214/9/208 129/109/126 215/115/209
f 214/9/208 215/115/209 216/112/210
f 216/112/210 215/115/209 217/7/211
f 216/112/210 217/7/211 218/19/212
f 218/19/212 217/7/211 219/87/213
f 218/19/212 219/87/213 220/107/214
f 118/107/115 221/87/215 19/19/18
f 19/19/18 221/87/215 222/7/216
f 19/19/18 222/7/216 137/112/134
f 137/112/134 222/7/216 223/115/217
f 137/112/134 223/115/217 138/9/135
f 138/9/135 223/115/217 126/109/123
f 138/9/135 126/109/123 213/141/125
f 224/109/218 225/110/219 204/111/199
f 204/111/199 225/110/219 226/109/220
f 204/111/199 226/109/220 9/9/8
f 9/9/8 226/109/220 227/115/221
f 9/9/8 227/115/221 7/7/6
f 135/24/132 228/25/222 134/23/131
f 134/23/131 228/25/222 229/108/223
f 134/23/131 229/108/223 132/16/129
f 132/16/129 229/108/223 230/142/224
f 132/16/129 230/142/224 130/18/127
f 147/18/144 231/142/225 145/116/142
f 145/116/142 231/142/225 232/108/226
f 145/116/142 232/108/226 23/23/22
f 23/23/22 232/108/226 233/25/227
f 23/23/22 233/25/227 24/24/23
f 45/29/44 11/11/10 107/99/104
f 107/99/104 11/11/10 109/101/106
f 107/99/104 109/101/106 14/14/13
f 14/14/13 109/101/106 111/103/108
f 14/14/13 111/103/108 15/15/14
f 15/15/14 111/103/108 234/143/228
f 15/15/14 234/143/228 159/103/154
f 235/144/229 236/21/230 139/113/136
f 139/113/136 236/21/230 237/145/231
f 139/113/136 237/145/231 140/83/137
f 140/83/137 237/145/231 238/146/232
f 140/83/137 238/146/232 152/85/147
f 152/85/147 238/146/232 239/147/233
f 152/85/147 239/147/233 153/117/148
f 220/107/214 240/21/234 218/19/212
f 218/19/212 240/21/234 241/20/235
f 218/19/212 241/20/235 216/112/210
f 216/112/210 241/20/235 242/8/236
f 216/112/210 242/8/236 214/9/208
f 27/25/26 243/108/237 25/23/24
f 25/23/24 243/108/237 244/142/238
f 25/23/24 244/142/238 164/116/159
f 164/116/159 244/142/238 245/18/239
f 164/116/159 245/18/239 165/17/160
f 89/84/86 246/148/240 90/85/87
f 90/85/87 246/148/240 247/149/241
f 90/85/87 247/149/241 154/118/149
f 154/118/149 247/149/241 248/148/242
f 154/118/149 248/148/242 152/85/147
f 152/85/147 248/148/242 249/84/27
f 152/85/147 249/84/27 140/83/137
f 140/83/137 249/84/27 250/150/243
f 140/83/137 250/150/243 141/114/138
f 251/151/244 252/152/245 253/153/246
f 253/153/246 252/152/245 254/151/247
f 253/153/246 254/151/247 255/140/248
f 255/140/248 254/151/247 256/154/249
f 255/140/248 256/154/249 257/92/250
f 258/91/251 259/93/252 260/94/253
f 260/94/253 259/93/252 261/95/254
f 260/94/253 261/95/254 262/96/255
f 262/96/255 261/95/254 263/97/256
f 262/96/255 263/97/256 106/98/103
f 106/98/103 263/97/256 264/155/257
f 106/98/103 264/155/257 105/97/102
f 18/18/17 265/142/258 16/16/15
f 16/16/15 265/142/258 266/108/259
f 16/16/15 266/108/259 116/23/113
f 116/23/113 266/108/259 267/25/260
f 116/23/113 267/25/260 117/24/114
f 178/105/173 268/104/261 179/99/174
f 179/99/174 268/104/261 269/42/262
f 179/99/174 269/42/262 270/13/263
f 270/13/263 269/42/262 271/41/264
f 270/13/263 271/41/264 272/156/265
f 272/156/265 271/41/264 273/157/266
f 272/156/265 273/157/266 46/41/45
f 175/40/170 274/39/267 176/38/171
f 176/38/171 274/39/267 275/137/268
f 176/38/171 275/137/268 276/138/269
f 276/138/269 275/137/268 180/121/175
f 276/138/269 180/121/175 277/139/270
f 277/139/270 180/121/175 182/123/177
f 54/49/53 278/158/271 52/47/51
f 52/47/51 278/158/271 202/133/197
f 52/47/51 202/133/197 195/126/190
f 195/126/190 202/133/197 84/79/81
f 195/126/190 84/79/81 62/57/61
f 62/57/61 84/79/81 83/78/80
f 62/57/61 83/78/80 63/58/62
f 63/58/62 83/78/80 39/35/38
f 63/58/62 39/35/38 66/61/65
f 66/61/65 39/35/38 82/77/79
f 66/61/65 82/77/79 67/62/66
f 279/145/272 280/146/273 281/159/274
f 281/159/274 280/146/273 282/160/275
f 281/159/274 282/160/275 283/161/276
f 283/161/276 282/160/275 284/162/277
f 283/161/276 284/162/277 285/163/278
f 285/163/278 284/162/277 286/161/279
f 285/163/278 286/161/279 287/135/280
f 287/135/280 286/161/279 288/136/281
f 287/135/280 288/136/281 142/9/139
f 142/9/139 288/136/281 289/8/282
f 142/9/139 289/8/282 143/7/140
f 280/146/273 290/147/283 282/160/275
f 282/160/275 290/147/283 291/164/284
f 282/160/275 291/164/284 284/162/277
f 284/162/277 291/164/284 292/160/285
f 284/162/277 292/160/285 286/161/279
f 286/161/279 292/160/285 293/159/286
f 286/161/279 293/159/286 288/136/281
f 288/136/281 293/159/286 294/20/287
f 288/136/281 294/20/287 289/8/282
f 289/8/282 294/20/287 295/87/288
f 289/8/282 295/87/288 143/7/140
f 296/113/289 297/114/290 279/145/272
f 279/145/272 297/114/290 88/83/85
f 279/145/272 88/83/85 280/146/273
f 280/146/273 88/83/85 90/85/87
f 280/146/273 90/85/87 290/147/283
f 290/147/283 90/85/87 153/117/148
f 290/147/283 153/117/148 291/164/284
f 291/164/284 153/117/148 239/147/233
f 291/164/284 239/147/233 292/160/285
f 292/160/285 239/147/233 238/146/232
f 292/160/285 238/146/232 293/159/286
f 293/159/286 238/146/232 237/145/231
f 293/159/286 237/145/231 294/20/287
f 294/20/287 237/145/231 236/21/230
f 294/20/287 236/21/230 295/87/288
f 298/89/291 258/91/251 299/90/292
f 299/90/292 258/91/251 260/94/253
f 299/90/292 260/94/253 257/92/250
f 257/92/250 260/94/253 262/96/255
f 257/92/250 262/96/255 255/140/248
f 255/140/248 262/96/255 106/98/103
f 255/140/248 106/98/103 253/153/246
f 253/153/246 106/98/103 212/140/207
f 253/153/246 212/140/207 251/151/244
f 251/151/244 212/140/207 100/92/97
f 251/151/244 100/92/97 300/154/293
f 46/41/45 13/13/12 272/156/265
f 272/156/265 13/13/12 15/15/14
f 272/156/265 15/15/14 270/13/263
f 270/13/263 15/15/14 158/14/153
f 270/13/263 158/14/153 179/99/174
f 179/99/174 158/14/153 156/101/151
f 179/99/174 156/101/151 32/11/31
f 32/11/31 156/101/151 155/10/150
f 32/11/31 155/10/150 33/12/32
f 144/115/141 224/109/218 142/9/139
f 142/9/139 224/109/218 204/111/199
f 142/9/139 204/111/199 287/135/280
f 287/135/280 204/111/199 203/134/198
f 287/135/280 203/134/198 285/163/278
f 285/163/278 203/134/198 205/135/200
f 285/163/278 205/135/200 283/161/276
f 283/161/276 205/135/200 206/136/201
f 283/161/276 206/136/201 281/159/274
f 281/159/274 206/136/201 207/20/202
f 281/159/274 207/20/202 279/145/272
f 279/145/272 207/20/202 208/21/203
f 279/145/272 208/21/203 296/113/289
f 296/113/289 208/21/203 301/144/294
