mtllib m_hair013.mtl
o editpl_m-0000-1835
v 0.000000 48.998367 -9.353710
v 0.000000 51.989876 -7.741956
v -2.283851 49.743835 -9.786351
v 10.332866 52.269424 -6.688375
v 7.545106 58.936852 -5.337400
v 9.045999 56.976791 -3.019522
v -6.363897 60.842293 4.608104
v -6.087559 62.484245 -1.124572
v -7.220002 60.938686 -1.572157
v 3.299798 48.863415 -10.475287
v 4.369930 49.824165 -13.204138
v 6.518321 50.823475 -10.041901
v -5.529465 62.272175 5.073622
v -3.665540 63.875568 2.270798
v 4.294073 64.373619 1.121573
v 0.000000 63.946259 0.023159
v 2.554770 64.682091 -1.186591
v 7.699530 56.996071 3.947562
v 6.036084 57.555168 5.766297
v 6.615852 55.935707 3.499230
v 2.302815 57.927902 -10.775672
v 0.000000 60.585236 -8.850084
v 1.744721 61.272861 -7.915312
v 0.000000 63.795238 5.822337
v 3.540917 63.223286 5.531668
v 0.000000 65.234764 -0.356429
v 0.000000 64.142265 -4.928672
v -3.860602 62.416767 -6.231824
v -4.009607 63.355026 -4.548336
v -1.744721 61.272861 -7.915312
v -1.644481 61.292141 -9.218465
v 0.000000 60.585236 -8.850084
v -5.486118 50.306149 -3.201844
v -3.987934 51.032333 -6.033810
v -5.496955 51.250835 -3.586662
v -2.302815 57.927902 -10.775672
v -1.744721 61.272861 -7.915312
v 0.000000 60.736256 9.335021
v -3.540917 62.018330 7.729244
v -3.473187 61.404606 7.899610
v -1.763685 64.142265 -3.499239
v 0.000000 63.946259 0.023159
v -2.554770 64.682091 -1.186591
v 0.000000 62.124367 -9.653347
v -1.625516 62.018330 -9.276748
v -2.454530 61.227879 -11.581176
v -4.700452 52.115189 -13.521707
v -2.102335 51.726391 -13.435776
v -4.369930 49.824165 -13.204138
v -3.299798 48.863415 -10.475287
v 0.000000 62.153286 -14.486369
v -1.284158 60.341030 -12.094516
v -1.644481 61.292141 -9.218465
v 0.000000 62.124367 -9.653347
v -1.693246 52.063778 -12.465884
v 0.000000 50.299721 -13.040496
v -4.621885 60.790878 6.679399
v -4.993045 61.237518 6.408905
v -5.496955 59.454182 6.578525
v -1.888308 66.034851 -1.304652
v 0.000000 66.616447 -5.258943
v -1.617389 65.424339 -4.457923
v -1.034912 63.779175 -7.206200
v -1.397944 63.014427 -6.712287
v -4.489135 53.943512 -12.471114
v -2.901547 55.257717 -14.413141
v -2.660429 54.072041 -14.779279
v 0.000000 51.578583 -15.526499
v 0.000000 52.892788 -15.559377
v -0.763993 54.939610 -13.208621
v 0.000000 55.003872 -13.461928
v -8.726314 59.444542 -2.107913
v -7.878336 59.328865 4.522175
v -6.036084 57.555168 5.766297
v -10.332866 52.269424 -6.688375
v -8.344318 53.859966 -3.978206
v -9.045999 56.976791 -3.019522
v -7.813316 56.311653 -1.229182
v -7.699530 56.996071 3.947562
v -6.615852 55.935707 3.499230
v -5.472572 56.867538 -9.627941
v -6.924700 56.266666 -8.549701
v -5.626996 60.376373 -7.063481
v -7.545106 58.936852 -5.337400
v -6.247402 62.362144 -4.037985
v 0.000000 67.522575 2.064565
v -2.988241 67.104851 1.489205
v 0.000000 65.337585 1.897935
v -4.294073 64.373619 1.121573
v -2.554770 64.682091 -1.186591
v -7.163109 53.824623 -2.474798
v -7.474667 51.456478 -4.802390
v -3.987934 51.032333 -6.033810
v 4.009607 63.355026 -4.548336
v 3.917495 64.023376 -0.732281
v 6.247402 62.362144 -4.037985
v 2.102335 51.726391 -13.435776
v 0.763993 54.939610 -13.208621
v 2.660429 54.072041 -14.779279
v 2.283851 49.743835 -9.786351
v 1.693246 52.063778 -12.465884
v 1.644481 61.292141 -9.218465
v 0.000000 62.124367 -9.653347
v 0.000000 63.489983 -7.091128
v 3.987934 51.032333 -6.033810
v 0.000000 51.989876 -7.741956
v 1.744721 61.272861 -7.915312
v 5.496955 51.250835 -3.586662
v 3.987934 51.032333 -6.033810
v 5.486118 50.306149 -3.201844
v 2.554770 64.682091 -1.186591
v 1.888308 66.034851 -1.304652
v 4.294073 64.373619 1.121573
v 1.227265 62.416767 -12.224533
v 2.454530 61.227879 -11.581176
v 3.987934 51.032333 -6.033810
v 6.762148 49.361462 -6.620378
v 7.474667 51.456478 -4.802390
v 0.000000 59.377064 -13.158558
v 1.284158 60.341030 -12.094516
v 0.000000 59.152138 -10.523859
v 1.644481 61.292141 -9.218465
v 0.000000 60.585236 -8.850084
v 0.000000 67.448669 -1.439899
v 0.000000 69.097054 1.110365
v 2.988241 67.104851 1.489205
v 2.283851 49.743835 -9.786351
v 1.693246 52.063778 -12.465884
v 7.878336 59.328865 4.522175
v 5.496955 59.454182 6.578525
v 6.363897 60.842293 4.608104
v 4.993045 61.237518 6.408905
v 5.529465 62.272175 5.073622
v 8.496033 52.915279 -8.732770
v 8.864483 50.164764 -7.816678
v -1.227265 62.416767 -12.224533
v -1.552368 62.811993 -9.611503
v 0.000000 63.445000 -12.731894
v 0.000000 63.502834 -9.932060
v 1.552368 62.811993 -9.611503
v 5.626996 60.376373 -7.063481
v 6.924700 56.266666 -8.549701
v 5.472572 56.867538 -9.627941
v 8.111327 53.635040 -11.611811
v 6.550831 54.239128 -12.746092
v 6.225728 51.784229 -11.969728
v 3.987934 51.032333 -6.033810
v 7.163109 53.824623 -2.474798
v -2.072533 62.734879 -6.587501
v -3.540917 60.999741 -7.768857
v -4.047536 57.198502 -10.117371
v -4.294073 64.373619 1.121573
v -2.988241 67.104851 1.489205
v -6.762148 49.361462 -6.620378
v -5.713690 48.548519 -8.238110
v -3.987934 51.032333 -6.033810
v -5.155596 49.326115 -8.602754
v -6.518321 50.823475 -10.041901
v -8.864483 50.164764 -7.816678
v -3.917495 64.023376 -0.732281
v 0.000000 50.164764 -13.849736
v 0.000000 50.299721 -13.040496
v -1.693246 52.063778 -12.465884
v 4.489135 53.943512 -12.471114
v 2.901547 55.257717 -14.413141
v 4.047536 57.198502 -10.117371
v 3.540917 60.999741 -7.768857
v 3.860602 62.416767 -6.231824
v 2.072533 62.734879 -6.587501
v 0.000000 63.489983 -7.091128
v 1.617389 65.424339 -4.457923
v 1.763685 64.142265 -3.499239
v -1.763685 64.142265 -3.499239
v -3.540917 63.223286 5.531668
v 0.000000 62.587070 8.330757
v 3.540917 62.018330 7.729244
v 3.473187 61.404606 7.899610
v 4.621885 60.790878 6.679399
v 8.726314 59.444542 -2.107913
v 7.220002 60.938686 -1.572157
v 6.087559 62.484245 -1.124572
v 3.665540 63.875568 2.270798
v 4.700452 52.115189 -13.521707
v 2.988241 67.104851 1.489205
v 0.000000 69.097054 1.110365
v -1.397944 63.014427 -6.712287
v 1.397944 63.014427 -6.712287
v 1.034912 63.779175 -7.206200
v 0.000000 64.543922 -7.638840
v -6.550831 54.239128 -12.746092
v -8.111327 53.635040 -11.611811
v -8.496033 52.915279 -8.732770
v -9.045999 56.976791 -3.019522
v 8.344318 53.859966 -3.978206
v 7.813316 56.311653 -1.229182
v 7.016813 55.373394 0.304115
v 6.770276 52.706421 1.894200
v -6.225728 51.784229 -11.969728
v -3.987934 51.032333 -6.033810
v -1.625516 62.018330 -9.276748
v 1.625516 62.018330 -9.276748
v 5.713690 48.548519 -8.238110
v 5.155596 49.326115 -8.602754
v 9.045999 56.976791 -3.019522
v -6.770276 52.706421 1.894200
v -7.016813 55.373394 0.304115
v -2.283851 49.743835 -9.786351
vn -0.0000 -0.9353 0.3537
vn -0.0000 -0.7669 0.6418
vn -0.0236 -0.9997 0.0079
vn 0.9784 -0.1800 0.1017
vn 0.8106 0.4407 -0.3856
vn 0.9773 -0.1419 0.1576
vn -0.7719 0.5277 0.3544
vn -0.6902 0.7216 0.0549
vn -0.8013 0.5970 -0.0393
vn -0.3536 -0.9351 0.0236
vn 0.3713 -0.6242 -0.6874
vn 0.4956 -0.6843 -0.5348
vn -0.6848 0.6454 0.3385
vn -0.4311 0.8935 0.1254
vn 0.8561 -0.4948 0.1492
vn -0.0000 -0.9910 0.1338
vn 0.8786 -0.3530 -0.3216
vn 0.7390 -0.5581 0.3774
vn 0.6060 -0.3620 0.7083
vn 0.8128 -0.5129 0.2762
vn 0.1569 0.6825 -0.7139
vn -0.0000 0.6371 -0.7708
vn 0.5206 0.3944 -0.7572
vn -0.0000 0.9439 0.3303
vn 0.2893 0.8991 0.3284
vn -0.0000 0.9975 0.0707
vn -0.0000 0.9439 -0.3303
vn -0.3242 0.7433 -0.5851
vn -0.3298 0.8874 -0.3220
vn -0.5206 0.3943 -0.7573
vn -0.9849 -0.1733 -0.0001
vn -0.0000 -0.9495 0.3138
vn 0.3928 -0.5264 0.7541
vn 0.8420 0.2125 0.4958
vn 0.8090 0.2278 0.5419
vn -0.1569 0.6825 -0.7139
vn -0.5206 0.3944 -0.7572
vn -0.0000 0.3537 0.9353
vn -0.5288 0.4262 0.7340
vn -0.5604 0.1579 0.8130
vn -0.6062 -0.7952 -0.0078
vn -0.0000 -0.9910 0.1337
vn -0.8786 -0.3530 -0.3216
vn -0.0000 -0.9956 0.0941
vn -0.5672 -0.7956 0.2127
vn -0.9939 0.0078 -0.1096
vn -0.3609 0.1648 -0.9179
vn -0.1730 -0.4562 -0.8729
vn -0.3713 -0.6242 -0.6874
vn 0.3536 -0.9351 0.0236
vn -0.0000 0.1644 -0.9864
vn -0.7242 -0.6534 -0.2204
vn -0.9849 -0.1733 -0.0000
vn -0.0000 0.9864 -0.1644
vn -0.0865 -0.9837 -0.1574
vn -0.0000 -0.9414 -0.3374
vn -0.6135 0.0708 0.7865
vn -0.6988 0.2120 0.6831
vn -0.6357 0.2276 0.7377
vn -0.7083 0.6060 -0.3620
vn -0.0000 0.8944 -0.4472
vn -0.9011 0.3292 -0.2821
vn -0.7684 0.5488 -0.3293
vn -0.9609 -0.2678 0.0709
vn -0.4634 0.1964 -0.8641
vn -0.3063 0.5812 -0.7539
vn -0.1019 -0.1176 -0.9878
vn -0.0000 -0.4628 -0.8864
vn -0.0000 0.4628 -0.8865
vn 0.0391 0.5324 -0.8456
vn -0.0000 0.6707 -0.7417
vn -0.8476 0.5258 -0.0707
vn -0.8669 0.1576 0.4729
vn -0.6060 -0.3620 0.7083
vn -0.9784 -0.1800 0.1017
vn -0.6982 -0.4079 0.5883
vn -0.9773 -0.1419 0.1576
vn -0.7955 -0.5356 0.2835
vn -0.7390 -0.5581 0.3774
vn -0.8128 -0.5129 0.2762
vn -0.5040 0.6301 -0.5907
vn -0.7624 0.4952 -0.4166
vn -0.5976 0.5347 -0.5975
vn -0.8106 0.4407 -0.3856
vn -0.6751 0.6908 -0.2590
vn -0.0000 0.2278 0.9737
vn -0.6140 0.4960 0.6140
vn -0.0000 -0.3373 0.9414
vn -0.8561 -0.4948 0.1492
vn -0.8786 -0.3530 -0.3217
vn -0.6151 -0.4022 0.6781
vn -0.5100 -0.6747 0.5335
vn 0.5895 -0.7938 0.1493
vn 0.3298 0.8874 -0.3220
vn 0.4017 0.9136 -0.0630
vn 0.6751 0.6908 -0.2590
vn 0.1730 -0.4562 -0.8729
vn -0.0391 0.5324 -0.8456
vn 0.1019 -0.1176 -0.9878
vn 0.0236 -0.9997 0.0079
vn 0.0866 -0.9837 -0.1574
vn 0.9849 -0.1733 -0.0001
vn -0.0000 0.9864 -0.1645
vn -0.0000 0.9021 -0.4315
vn 0.0314 -0.9017 0.4312
vn -0.0000 -0.7670 0.6417
vn -0.0000 -0.9495 0.3139
vn 0.9849 -0.1733 -0.0000
vn 0.5206 0.3943 -0.7573
vn -0.8089 0.2278 0.5420
vn -0.8420 0.2125 0.4958
vn -0.3928 -0.5264 0.7541
vn 0.7083 0.6060 -0.3620
vn 0.8561 -0.4948 0.1491
vn 0.7149 0.6206 -0.3221
vn 0.9939 0.0078 -0.1096
vn -0.5895 -0.7938 0.1494
vn 0.1258 -0.8094 0.5736
vn 0.5100 -0.6747 0.5335
vn -0.0000 -0.8440 -0.5364
vn 0.7242 -0.6534 -0.2204
vn -0.0000 -0.9570 0.2902
vn -0.0000 0.9235 -0.3835
vn -0.0000 0.9989 -0.0472
vn 0.6140 0.4960 0.6140
vn 0.0865 -0.9837 -0.1574
vn 0.8669 0.1576 0.4729
vn 0.6357 0.2276 0.7377
vn 0.7719 0.5277 0.3545
vn 0.6988 0.2120 0.6831
vn 0.6848 0.6454 0.3384
vn 0.8626 0.0627 -0.5019
vn 0.7149 -0.6755 -0.1807
vn -0.7149 0.6206 -0.3221
vn -0.8047 0.5917 -0.0473
vn -0.0000 0.9612 -0.2758
vn -0.0000 0.9851 -0.1720
vn 0.8047 0.5917 -0.0473
vn 0.5976 0.5347 -0.5975
vn 0.7624 0.4952 -0.4166
vn 0.5040 0.6301 -0.5907
vn 0.8656 0.0708 -0.4957
vn 0.2830 0.3616 -0.8883
vn 0.6125 -0.2827 -0.7381
vn 0.6151 -0.4022 0.6781
vn -0.5351 0.7004 -0.4722
vn -0.3370 0.5958 -0.7290
vn -0.4156 0.6273 -0.6586
vn -0.8561 -0.4947 0.1492
vn -0.6141 0.4959 0.6140
vn -0.1258 -0.8094 0.5736
vn 0.1488 -0.9709 -0.1879
vn 0.5895 -0.7938 0.1494
vn 0.7633 -0.3620 -0.5351
vn -0.4956 -0.6843 -0.5348
vn -0.7149 -0.6755 -0.1807
vn -0.4017 0.9136 -0.0630
vn -0.0000 -0.9997 0.0236
vn -0.0000 -0.9414 -0.3373
vn -0.0866 -0.9837 -0.1574
vn 0.4634 0.1964 -0.8641
vn 0.3063 0.5812 -0.7539
vn 0.4156 0.6273 -0.6586
vn 0.3370 0.5958 -0.7290
vn 0.3242 0.7433 -0.5851
vn 0.5351 0.7004 -0.4722
vn -0.0000 0.9022 -0.4314
vn 0.9011 0.3292 -0.2821
vn 0.6063 -0.7952 -0.0079
vn -0.6063 -0.7952 -0.0079
vn -0.2893 0.8992 0.3284
vn -0.0000 0.7846 0.6199
vn 0.5288 0.4262 0.7340
vn 0.5604 0.1579 0.8130
vn 0.6135 0.0708 0.7865
vn 0.8476 0.5258 -0.0707
vn 0.8013 0.5970 -0.0393
vn 0.6902 0.7216 0.0549
vn 0.4311 0.8935 0.1254
vn 0.3609 0.1647 -0.9179
vn 0.6141 0.4959 0.6140
vn -0.9609 -0.2678 0.0710
vn 0.9609 -0.2678 0.0709
vn 0.7684 0.5488 -0.3293
vn -0.0000 0.8697 -0.4936
vn -0.2830 0.3616 -0.8883
vn -0.8656 0.0708 -0.4957
vn -0.8626 0.0627 -0.5019
vn -0.9772 -0.1419 0.1577
vn 0.6982 -0.4079 0.5883
vn 0.7955 -0.5356 0.2835
vn 0.9428 -0.2750 0.1886
vn 0.9919 -0.0157 0.1260
vn -0.6126 -0.2827 -0.7381
vn -0.0314 -0.9017 0.4312
vn -0.5673 -0.7956 0.2127
vn -0.0000 -0.9956 0.0940
vn 0.5672 -0.7956 0.2127
vn -0.1488 -0.9709 -0.1879
vn -0.7633 -0.3620 -0.5351
vn 0.9772 -0.1421 0.1575
vn -0.9919 -0.0157 0.1260
vn -0.9428 -0.2750 0.1886
vt 0.174988 0.841644
vt 0.166016 0.975311
vt 0.107025 0.903717
vt 0.435577 0.692871
vt 0.368408 0.396881
vt 0.494110 0.458527
vt 0.744995 0.292267
vt 0.500397 0.237610
vt 0.493011 0.294617
vt 0.171997 0.988190
vt 0.172333 0.902191
vt 0.254913 0.879456
vt 0.777161 0.222870
vt 0.688782 0.146881
vt 0.908142 0.279297
vt 0.987762 0.384460
vt 0.906647 0.345032
vt 0.720398 0.433319
vt 0.800903 0.426910
vt 0.738708 0.500732
vt 0.105377 0.542542
vt 0.018097 0.352173
vt 0.133636 0.300934
vt 0.783508 0.018555
vt 0.837616 0.146881
vt 0.565338 0.018555
vt 0.263489 0.033569
vt 0.246552 0.226227
vt 0.339020 0.180664
vt 0.071594 0.176086
vt 0.012482 0.095703
vt 0.012482 0.176086
vt 0.586548 0.830200
vt 0.560883 0.870422
vt 0.642792 0.844696
vt 0.983246 0.023743
vt 0.897064 0.148956
vt 0.917786 0.149170
vt 0.844208 0.618774
vt 0.769073 0.500244
vt 0.844208 0.500244
vt 0.760803 0.818481
vt 0.820129 0.722961
vt 0.816956 0.847168
vt 0.171600 0.823273
vt 0.099792 0.895050
vt 0.988434 0.865204
vt 0.890961 0.911743
vt 0.775574 0.957520
vt 0.743805 0.912354
vt 0.164673 0.974487
vt 0.227051 0.898376
vt 0.868073 0.222351
vt 0.846588 0.222351
vt 0.816864 0.313232
vt 0.922546 0.500244
vt 0.985535 0.618774
vt 0.922546 0.618774
vt 0.922363 0.712372
vt 0.844208 0.712372
vt 0.170868 0.744324
vt 0.116394 0.713806
vt 0.103485 0.795227
vt 0.011719 0.895844
vt 0.011719 0.863647
vt 0.046936 0.683716
vt 0.011719 0.683716
vt 0.488586 0.365540
vt 0.733643 0.357422
vt 0.507324 0.628815
vt 0.494110 0.459747
vt 0.555420 0.532074
vt 0.216827 0.550140
vt 0.290405 0.546844
vt 0.281647 0.345856
vt 0.383331 0.260223
vt 0.987762 0.211090
vt 0.947510 0.211090
vt 0.987762 0.279297
vt 0.563904 0.675385
vt 0.516846 0.835144
vt 0.508789 0.146881
vt 0.137695 0.981049
vt 0.095947 0.944702
vt 0.012482 0.011871
vt 0.166626 0.011871
vt 0.245087 0.974060
vt 0.091949 0.987305
vt 0.826996 0.425873
vt 0.909821 0.813232
vt 0.426239 0.987244
vt 0.462646 0.872009
vt 0.956055 0.957275
vt 0.882294 0.971710
vt 0.802216 0.988464
vt 0.985535 0.500244
vt 0.983978 0.400208
vt 0.905090 0.400208
vt 0.355469 0.721497
vt 0.426788 0.839783
vt 0.885895 0.722961
vt 0.974030 0.781464
vt 0.964691 0.722961
vt 0.277039 0.746887
vt 0.207520 0.754944
vt 0.204803 0.823883
vt 0.206665 0.177307
vt 0.206421 0.318787
vt 0.168701 0.548309
vt 0.355499 0.965027
vt 0.426788 0.904633
vt 0.011719 0.988190
vt 0.036469 0.986389
vt 0.195435 0.042175
vt 0.739716 0.618774
vt 0.909088 0.018555
vt 0.987762 0.162537
vt 0.730408 0.712372
vt 0.981628 0.712372
vt 0.629364 0.558197
vt 0.673157 0.664520
vt 0.734924 0.722961
s 1
usemtl m_hair0116
f 1/1/1 2/2/2 3/3/3
f 4/4/4 5/5/5 6/6/6
f 7/7/7 8/8/8 9/9/9
f 10/10/10 11/11/11 12/12/12
f 13/13/13 14/14/14 8/8/8
f 15/15/15 16/16/16 17/17/17
f 18/18/18 19/19/19 20/20/20
f 21/21/21 22/22/22 23/23/23
f 24/24/24 25/25/25 26/26/26
f 27/27/27 28/28/28 29/29/29
f 30/30/30 31/31/31 32/32/32
f 33/33/33 34/34/34 35/35/35
f 22/22/22 36/21/36 37/23/37
f 38/36/38 39/37/39 40/38/40
f 41/39/41 42/40/42 43/41/43
f 44/42/44 45/43/45 46/44/46
f 47/45/47 48/46/48 49/11/49
f 49/11/49 48/46/48 50/10/50
f 51/47/51 52/48/52 46/44/46
f 46/44/46 52/48/52 53/49/53
f 46/44/46 53/49/53 54/50/54
f 55/51/55 56/52/56 3/3/3
f 3/3/3 56/52/56 1/1/1
f 57/53/57 58/54/58 59/55/59
f 59/55/59 58/54/58 7/7/7
f 60/56/60 61/57/61 62/58/62
f 62/58/62 61/57/61 63/59/63
f 62/58/62 63/59/63 64/60/64
f 65/61/65 66/62/66 67/63/67
f 68/64/68 48/46/48 69/65/69
f 69/65/69 48/46/48 70/66/70
f 69/65/69 70/66/70 71/67/71
f 9/9/9 72/68/72 7/7/7
f 7/7/7 72/68/72 73/69/73
f 7/7/7 73/69/73 59/55/59
f 59/55/59 73/69/73 74/19/74
f 75/4/75 76/70/76 77/71/77
f 77/71/77 76/70/76 78/72/78
f 77/71/77 78/72/78 79/18/79
f 79/18/79 78/72/78 80/20/80
f 81/73/81 82/74/82 83/75/83
f 83/75/83 82/74/82 84/5/84
f 83/75/83 84/5/84 85/76/85
f 86/77/86 87/78/87 88/79/88
f 88/79/88 87/78/87 89/15/89
f 88/79/88 89/15/89 16/16/16
f 16/16/16 89/15/89 90/17/90
f 35/35/35 91/80/91 33/33/33
f 33/33/33 91/80/91 92/81/92
f 33/33/33 92/81/92 93/34/93
f 94/29/94 95/82/95 96/76/96
f 97/46/97 98/66/98 99/63/99
f 10/10/10 100/83/100 101/84/101
f 102/31/102 103/85/103 104/86/104
f 104/86/104 103/85/103 31/31/31
f 12/12/12 105/87/105 10/10/10
f 10/10/10 105/87/105 106/88/106
f 10/10/10 106/88/106 100/83/100
f 32/32/107 102/31/108 107/30/109
f 108/35/110 109/34/111 110/33/112
f 111/41/17 112/56/113 113/89/114
f 51/47/51 114/90/115 115/44/116
f 116/91/117 117/92/118 118/81/119
f 119/93/120 120/48/121 121/94/122
f 121/94/122 120/48/121 122/49/108
f 121/94/122 122/49/108 123/95/107
f 124/96/123 125/97/124 112/56/113
f 112/56/113 125/97/124 126/98/125
f 112/56/113 126/98/125 113/89/114
f 2/2/2 1/1/1 127/3/100
f 127/3/100 1/1/1 56/52/56
f 127/3/100 56/52/56 128/51/126
f 19/19/19 129/69/127 130/55/128
f 130/55/128 129/69/127 131/7/129
f 130/55/128 131/7/129 132/54/130
f 132/54/130 131/7/129 133/13/131
f 5/5/5 4/4/4 134/99/132
f 134/99/132 4/4/4 135/100/133
f 134/99/132 135/100/133 12/12/12
f 136/90/134 137/101/135 138/102/136
f 138/102/136 137/101/135 139/103/137
f 138/102/136 139/103/137 140/101/138
f 141/75/139 142/74/140 143/73/141
f 143/73/141 142/74/140 144/104/142
f 143/73/141 144/104/142 145/105/143
f 145/105/143 144/104/142 146/106/144
f 147/34/117 118/81/119 110/33/112
f 110/33/112 118/81/119 148/80/145
f 110/33/112 148/80/145 108/35/110
f 27/27/27 149/107/146 28/28/28
f 28/28/28 149/107/146 37/23/37
f 28/28/28 37/23/37 150/108/147
f 150/108/147 37/23/37 36/21/36
f 150/108/147 36/21/36 151/109/148
f 64/60/64 41/39/41 62/58/62
f 62/58/62 41/39/41 43/41/43
f 62/58/62 43/41/43 60/56/60
f 60/56/60 43/41/43 152/89/149
f 60/56/60 152/89/149 153/98/150
f 154/92/151 155/110/152 156/91/153
f 156/91/153 155/110/152 157/111/154
f 156/91/153 157/111/154 158/12/155
f 158/12/155 157/111/154 155/110/152
f 158/12/155 155/110/152 159/100/156
f 159/100/156 155/110/152 154/92/151
f 159/100/156 154/92/151 92/81/92
f 92/81/92 154/92/151 156/91/153
f 151/109/148 81/73/81 150/108/147
f 150/108/147 81/73/81 83/75/83
f 150/108/147 83/75/83 28/28/28
f 28/28/28 83/75/83 85/76/85
f 28/28/28 85/76/85 29/29/29
f 29/29/29 85/76/85 160/82/157
f 29/29/29 160/82/157 27/27/27
f 27/27/27 160/82/157 26/26/26
f 8/8/8 7/7/7 13/13/13
f 13/13/13 7/7/7 58/54/58
f 13/13/13 58/54/58 39/37/39
f 39/37/39 58/54/58 57/53/57
f 39/37/39 57/53/57 40/38/40
f 11/11/11 10/10/10 97/46/97
f 97/46/97 10/10/10 101/84/101
f 97/46/97 101/84/101 161/112/158
f 161/112/158 101/84/101 162/113/159
f 161/112/158 162/113/159 163/84/160
f 123/95/107 53/49/53 121/94/122
f 121/94/122 53/49/53 52/48/52
f 121/94/122 52/48/52 119/93/120
f 119/93/120 52/48/52 51/47/51
f 119/93/120 51/47/51 120/48/121
f 120/48/121 51/47/51 115/44/116
f 120/48/121 115/44/116 122/49/108
f 122/49/108 115/44/116 54/50/54
f 164/61/161 165/62/162 166/109/163
f 166/109/163 165/62/162 21/21/21
f 166/109/163 21/21/21 167/108/164
f 167/108/164 21/21/21 23/23/23
f 167/108/164 23/23/23 168/28/165
f 168/28/165 23/23/23 169/107/166
f 168/28/165 169/107/166 27/27/27
f 27/27/27 169/107/166 170/114/167
f 27/27/27 170/114/167 149/107/146
f 153/98/150 125/97/124 60/56/60
f 60/56/60 125/97/124 124/96/123
f 60/56/60 124/96/123 61/57/61
f 61/57/61 124/96/123 112/56/113
f 61/57/61 112/56/113 171/58/168
f 171/58/168 112/56/113 111/41/17
f 171/58/168 111/41/17 172/39/169
f 172/39/169 111/41/17 42/40/42
f 172/39/169 42/40/42 173/115/170
f 14/14/14 13/13/13 174/25/171
f 174/25/171 13/13/13 39/37/39
f 174/25/171 39/37/39 175/116/172
f 175/116/172 39/37/39 38/36/38
f 175/116/172 38/36/38 176/37/173
f 176/37/173 38/36/38 177/38/174
f 176/37/173 177/38/174 178/53/175
f 129/69/127 179/68/176 131/7/129
f 131/7/129 179/68/176 180/9/177
f 131/7/129 180/9/177 133/13/131
f 133/13/131 180/9/177 181/8/178
f 133/13/131 181/8/178 182/14/179
f 168/28/165 141/75/139 167/108/164
f 167/108/164 141/75/139 143/73/141
f 167/108/164 143/73/141 166/109/163
f 166/109/163 143/73/141 145/105/143
f 166/109/163 145/105/143 164/61/161
f 164/61/161 145/105/143 146/106/144
f 164/61/161 146/106/144 183/45/180
f 16/16/16 15/15/15 88/79/88
f 88/79/88 15/15/15 184/78/181
f 88/79/88 184/78/181 86/77/86
f 86/77/86 184/78/181 185/117/124
f 86/77/86 185/117/124 87/78/87
f 173/115/170 186/118/182 172/39/169
f 172/39/169 186/118/182 187/60/183
f 172/39/169 187/60/183 171/58/168
f 171/58/168 187/60/183 188/59/184
f 171/58/168 188/59/184 61/57/61
f 61/57/61 188/59/184 189/119/185
f 61/57/61 189/119/185 63/59/63
f 151/109/148 190/105/186 81/73/81
f 81/73/81 190/105/186 191/104/187
f 81/73/81 191/104/187 82/74/82
f 82/74/82 191/104/187 192/99/188
f 82/74/82 192/99/188 84/5/84
f 84/5/84 192/99/188 75/4/75
f 84/5/84 75/4/75 193/6/189
f 118/81/119 194/70/190 148/80/145
f 148/80/145 194/70/190 195/72/191
f 148/80/145 195/72/191 196/120/192
f 196/120/192 195/72/191 20/20/20
f 196/120/192 20/20/20 197/121/193
f 66/62/66 70/66/70 67/63/67
f 67/63/67 70/66/70 48/46/48
f 67/63/67 48/46/48 65/61/65
f 65/61/65 48/46/48 47/45/47
f 65/61/65 47/45/47 198/106/194
f 198/106/194 47/45/47 49/11/49
f 198/106/194 49/11/49 158/12/155
f 158/12/155 49/11/49 50/10/50
f 158/12/155 50/10/50 199/87/195
f 199/87/195 50/10/50 106/88/106
f 200/122/196 44/42/197 201/43/198
f 201/43/198 44/42/197 115/44/116
f 201/43/198 115/44/116 140/101/138
f 140/101/138 115/44/116 114/90/115
f 140/101/138 114/90/115 138/102/136
f 138/102/136 114/90/115 51/47/51
f 138/102/136 51/47/51 136/90/134
f 136/90/134 51/47/51 46/44/46
f 136/90/134 46/44/46 137/101/135
f 137/101/135 46/44/46 45/43/45
f 135/100/133 202/110/199 12/12/12
f 12/12/12 202/110/199 203/111/200
f 12/12/12 203/111/200 116/91/117
f 116/91/117 203/111/200 202/110/199
f 116/91/117 202/110/199 117/92/118
f 117/92/118 202/110/199 135/100/133
f 117/92/118 135/100/133 118/81/119
f 118/81/119 135/100/133 4/4/4
f 118/81/119 4/4/4 194/70/190
f 194/70/190 4/4/4 204/71/201
f 194/70/190 204/71/201 195/72/191
f 195/72/191 204/71/201 18/18/18
f 195/72/191 18/18/18 20/20/20
f 80/20/80 74/19/74 79/18/79
f 79/18/79 74/19/74 73/69/73
f 79/18/79 73/69/73 77/71/77
f 77/71/77 73/69/73 72/68/72
f 77/71/77 72/68/72 84/5/84
f 84/5/84 72/68/72 9/9/9
f 84/5/84 9/9/9 85/76/85
f 85/76/85 9/9/9 8/8/8
f 85/76/85 8/8/8 160/82/157
f 160/82/157 8/8/8 14/14/14
f 160/82/157 14/14/14 26/26/26
f 26/26/26 14/14/14 174/25/171
f 26/26/26 174/25/171 24/24/24
f 24/24/24 174/25/171 175/116/172
f 24/24/24 175/116/172 25/25/25
f 25/25/25 175/116/172 176/37/173
f 19/19/19 18/18/18 129/69/127
f 129/69/127 18/18/18 204/71/201
f 129/69/127 204/71/201 179/68/176
f 179/68/176 204/71/201 5/5/5
f 179/68/176 5/5/5 180/9/177
f 180/9/177 5/5/5 96/76/96
f 180/9/177 96/76/96 181/8/178
f 181/8/178 96/76/96 95/82/95
f 181/8/178 95/82/95 182/14/179
f 205/121/202 80/20/80 206/120/203
f 206/120/203 80/20/80 78/72/78
f 206/120/203 78/72/78 91/80/91
f 91/80/91 78/72/78 76/70/76
f 91/80/91 76/70/76 92/81/92
f 92/81/92 76/70/76 75/4/75
f 92/81/92 75/4/75 159/100/156
f 159/100/156 75/4/75 192/99/188
f 159/100/156 192/99/188 158/12/155
f 158/12/155 192/99/188 191/104/187
f 158/12/155 191/104/187 198/106/194
f 198/106/194 191/104/187 190/105/186
f 198/106/194 190/105/186 65/61/65
f 65/61/65 190/105/186 151/109/148
f 65/61/65 151/109/148 66/62/66
f 66/62/66 151/109/148 36/21/36
f 66/62/66 36/21/36 70/66/70
f 70/66/70 36/21/36 22/22/22
f 70/66/70 22/22/22 71/67/71
f 71/67/71 22/22/22 98/66/98
f 71/67/71 98/66/98 69/65/69
f 69/65/69 98/66/98 97/46/97
f 69/65/69 97/46/97 68/64/68
f 68/64/68 97/46/97 161/112/158
f 68/64/68 161/112/158 48/46/48
f 48/46/48 161/112/158 163/84/160
f 48/46/48 163/84/160 50/10/50
f 50/10/50 163/84/160 207/83/3
f 50/10/50 207/83/3 106/88/106
f 22/22/22 21/21/21 98/66/98
f 98/66/98 21/21/21 165/62/162
f 98/66/98 165/62/162 99/63/99
f 99/63/99 165/62/162 164/61/161
f 99/63/99 164/61/161 97/46/97
f 97/46/97 164/61/161 183/45/180
f 97/46/97 183/45/180 11/11/11
f 11/11/11 183/45/180 146/106/144
f 11/11/11 146/106/144 12/12/12
f 12/12/12 146/106/144 144/104/142
f 12/12/12 144/104/142 134/99/132
f 134/99/132 144/104/142 142/74/140
f 134/99/132 142/74/140 5/5/5
f 5/5/5 142/74/140 141/75/139
f 5/5/5 141/75/139 96/76/96
f 96/76/96 141/75/139 168/28/165
f 96/76/96 168/28/165 94/29/94
f 94/29/94 168/28/165 27/27/27
f 94/29/94 27/27/27 95/82/95
f 95/82/95 27/27/27 26/26/26
f 95/82/95 26/26/26 182/14/179
f 182/14/179 26/26/26 25/25/25
f 182/14/179 25/25/25 133/13/131
f 133/13/131 25/25/25 176/37/173
f 133/13/131 176/37/173 132/54/130
f 132/54/130 176/37/173 178/53/175
f 132/54/130 178/53/175 130/55/128
o editpl_m-0000-1836
v 1.397944 63.014427 -6.712287
v 1.625516 62.018330 -9.276748
v 1.552368 62.811993 -9.611503
v -1.744721 61.272861 -7.915312
v -2.072533 62.734879 -6.587501
v -1.644481 61.292141 -9.218465
v 0.000000 63.489983 -7.091128
v 1.744721 61.272861 -7.915312
v 1.644481 61.292141 -9.218465
v 2.072533 62.734879 -6.587501
v -1.625516 62.018330 -9.276748
v -1.397944 63.014427 -6.712287
v -1.552368 62.811993 -9.611503
v -1.034912 63.779175 -7.206200
v 0.000000 63.502834 -9.932060
v 0.000000 64.543922 -7.638840
v 1.034912 63.779175 -7.206200
vn 0.9609 -0.2678 0.0709
vn 0.5672 -0.7956 0.2127
vn 0.8048 0.5917 -0.0474
vn -0.5206 0.3944 -0.7572
vn -0.5352 0.7004 -0.4722
vn -0.9849 -0.1734 0.0001
vn -0.0000 0.9021 -0.4315
vn 0.5206 0.3944 -0.7572
vn 0.9849 -0.1734 0.0001
vn 0.5352 0.7004 -0.4722
vn -0.5672 -0.7956 0.2127
vn -0.9609 -0.2678 0.0709
vn -0.8048 0.5917 -0.0474
vn -0.7684 0.5488 -0.3292
vn -0.0000 0.9851 -0.1721
vn -0.0000 0.8697 -0.4936
vn 0.7684 0.5489 -0.3292
vt 0.531403 0.980194
vt 0.719269 0.980194
vt 0.719269 0.930756
vt 0.071594 0.176086
vt 0.166626 0.095703
vt 0.012482 0.095703
vt 0.166626 0.009674
vt 0.531403 0.930756
vt 0.719269 0.880249
vt 0.531403 0.880249
s 1
usemtl m_hair0116
f 208/123/204 209/124/205 210/125/206
f 211/126/207 212/127/208 213/128/209
f 213/128/209 212/127/208 214/129/210
f 215/126/211 216/128/212 217/127/213
f 217/127/213 216/128/212 214/129/210
f 209/124/205 208/123/204 218/124/214
f 218/124/214 208/123/204 219/123/215
f 218/124/214 219/123/215 220/125/216
f 220/125/216 219/123/215 221/130/217
f 220/125/216 221/130/217 222/131/218
f 222/131/218 221/130/217 223/132/219
f 222/131/218 223/132/219 210/125/206
f 210/125/206 223/132/219 224/130/220
f 210/125/206 224/130/220 208/123/204
