mtllib m_hair020.mtl
o editpl_m-0000-1810
v -5.553848 48.564583 -2.610044
v -5.702854 50.521435 -4.339861
v -5.207071 46.414940 -7.182287
v -7.653473 59.245323 -5.790963
v -8.525834 58.940067 -0.632153
v -6.856970 62.137218 -4.851708
v 4.264272 59.891178 10.301925
v 5.239581 61.064003 8.200740
v 3.061389 62.747730 8.909852
v 8.040888 60.733044 2.408288
v 8.130292 58.053219 3.523141
v 8.525834 58.348835 1.555709
v 4.486425 65.427551 -3.668858
v -0.338649 65.777794 -6.420871
v 0.000000 66.985962 -2.966470
v 5.643251 59.672680 6.518001
v 6.602306 60.874424 2.205044
v 5.396715 61.796616 6.624105
v 6.466846 51.475761 -9.775889
v 5.618869 55.444084 -10.148005
v 7.211875 56.963936 -7.359379
v -0.338649 65.777794 -6.420871
v -0.298011 63.470703 -9.622711
v -3.982515 62.831272 -8.215694
v -7.550524 56.028889 -6.781030
v -5.429225 54.884983 -8.808239
v -5.740782 52.619663 -9.007747
v 4.161322 52.288704 -12.441226
v 4.429532 55.762192 -11.602844
v 5.177270 59.920097 -9.660071
v -7.317533 59.139286 0.233876
v -7.295860 61.060791 0.541730
v -7.810607 59.277454 -2.599585
v 6.927409 58.676582 -6.301315
v 7.927102 59.322437 -4.003613
v 6.843424 52.937775 -3.148044
v 8.027342 55.852161 2.848401
v 7.910847 53.750717 0.910111
v 8.590855 56.186337 1.262051
v 7.168528 55.993546 -0.147206
v 8.384956 58.789043 0.130760
v 2.703776 54.727535 -12.353054
v 0.197771 52.449364 -14.405668
v 2.790470 56.472313 -12.250684
v 0.000000 56.970364 -13.074121
v 0.000000 59.984364 -11.785167
v 4.275108 49.531761 -7.931750
v 0.000000 48.985516 -10.650138
v 0.000000 51.716751 -11.262858
v 6.380152 57.420216 7.053758
v 7.463830 57.657993 5.382973
v 7.133308 53.998135 5.482353
v 7.653473 54.737175 4.368247
v 7.333788 48.731670 3.233219
v -4.313037 58.050007 -9.388083
v -4.201960 49.531761 -7.931750
v -7.125181 59.476673 -5.501789
v 0.000000 66.985962 -2.966470
v -4.340129 65.745667 -3.117409
v -5.429225 64.219383 -3.549302
v -6.011702 63.030495 -4.153804
v -6.987012 52.979546 -3.127869
v -7.485503 56.093155 -0.286937
v -7.810607 59.277454 -2.599585
v -7.317533 59.139286 0.233876
v -6.987012 52.979546 -3.127869
v -4.413277 59.621269 -9.959706
v -3.982515 62.831272 -8.215694
v -6.856970 62.137218 -4.851708
v -6.011702 63.030495 -4.153804
v -6.550831 60.832653 5.290316
v -5.578231 62.722023 5.599666
v -7.136017 61.513855 3.410310
v -6.288040 63.258633 1.236645
v -7.610126 61.864094 0.364639
v -2.687521 64.428246 8.335987
v -5.933135 64.325417 5.793196
v -5.114958 63.464279 8.424906
v -8.745279 54.386936 0.250315
v -7.677856 59.438114 3.114410
v -8.775080 55.135616 -2.594354
v -7.482794 54.637566 -5.695319
v -8.265751 52.629307 -4.288303
v -7.295860 61.060791 0.541730
v -7.807897 59.219616 -1.315860
v -7.810607 59.277454 -2.599585
v 6.843424 52.937775 -3.148044
v 7.927102 59.322437 -4.003613
v 7.168528 55.993546 -0.147206
v 8.154674 59.123219 -1.020707
v 8.384956 58.789043 0.130760
v 6.521030 63.335751 0.635880
v 6.610434 56.944656 7.687401
v 5.919589 56.228111 9.630175
v 7.016813 48.323593 7.192741
v 0.000000 66.985962 -2.966470
v -4.340129 65.745667 -3.117409
v -4.269690 65.986656 1.901671
v -3.015333 60.405293 8.742476
v -4.573120 62.445686 7.744936
v -4.608339 60.257484 7.467717
v -5.477990 62.860191 5.599666
v -5.521338 59.274242 6.877414
v -1.639062 59.923309 9.424687
v -3.305217 62.175777 10.141273
v -3.015333 60.405293 8.742476
v -4.573120 62.445686 7.744936
v -3.305217 62.175777 10.141273
v -0.346777 62.699532 10.147997
v 0.192353 59.142498 9.863306
v 2.893419 52.667866 -12.728906
v 4.139649 63.669926 -7.455771
v -0.298011 63.470703 -9.622711
v 5.616159 50.521435 -4.339861
v 5.212489 57.005711 -8.907620
v 0.000000 54.836784 -12.045946
v 0.197771 52.449364 -14.405668
v -2.923220 56.571922 -11.210553
v 0.000000 56.970364 -13.074121
v 0.000000 59.984364 -11.785167
v -0.298011 63.470703 -9.622711
v -0.338649 44.811546 -10.754748
v 7.412355 60.386013 4.465385
v 6.550831 63.004787 3.279546
v 6.063176 62.368568 5.303019
v 3.993352 64.736710 4.212824
v 3.765780 64.013741 6.376028
v 6.767567 63.509262 -4.292040
v 8.084235 59.524872 -5.151342
v 8.084235 56.481953 -5.267161
v 7.528850 51.809933 -7.610445
v -2.443693 55.007088 -11.793385
v -3.844346 52.185883 -12.608603
v -6.927409 52.809246 -7.190507
v -7.862081 56.848263 4.144081
v -3.670958 65.433983 5.474880
v -6.350351 64.498932 1.666297
v -5.429225 64.219383 -3.549302
v 0.043347 64.849174 7.277923
v -0.566222 62.680252 10.567935
v 2.042732 60.453491 11.619274
v 3.145374 58.580185 11.422755
v 5.263964 57.057121 10.237663
v 4.315746 55.733273 10.727095
v 5.616159 52.063778 9.710875
v 0.000000 66.433289 1.717855
v 4.321165 65.363289 1.167153
v 6.521030 63.335751 0.635880
v -6.602306 62.089020 2.205043
v -7.295860 61.060791 0.541730
v -5.968355 57.137451 6.930466
v -7.317533 59.139286 0.233876
v -6.651072 55.701141 4.241220
v -7.485503 56.093155 -0.286937
v -6.827169 52.985973 2.754251
v -7.095379 53.059875 1.064038
v 7.295860 60.392441 1.461558
v 5.925008 57.596943 6.930466
v 7.989413 57.924690 0.576850
v 6.737766 56.163845 4.241220
v 7.062869 56.019249 -0.326539
v 6.827169 52.985973 2.754251
v 7.095379 53.059875 1.064038
v 5.643251 59.672680 6.518001
v 5.396715 61.796616 6.624105
v 3.481314 60.080757 8.787309
v 3.061389 62.644909 8.909852
v 2.026477 59.984364 9.322318
v -0.346777 62.699532 10.147997
v 0.192353 59.142498 9.863306
v 5.654088 48.564583 -2.610044
v 4.946988 46.414940 -7.182287
v -0.138169 57.796162 -12.317187
v 4.126103 50.813835 10.558969
v 3.286252 56.122074 11.490753
v 2.232376 55.344475 12.394143
v 1.788068 59.990788 11.663361
v 0.078567 58.895081 12.749819
v -0.566222 62.680252 10.567935
v -2.915093 61.533134 10.981148
v -4.573120 62.426407 7.744936
v -5.578231 62.722023 5.599666
v -6.288040 63.258633 1.236645
v -6.011702 63.030495 -4.153804
v 0.000000 65.584999 5.016834
v 4.486425 65.427551 -3.668858
v 6.767567 63.509262 -4.292040
v 8.154674 59.123219 -1.020707
v 8.084235 59.524872 -5.151342
v 8.688386 56.003185 -2.647406
v 8.084235 56.481953 -5.267161
v 8.810299 52.189095 -4.563280
vn -0.9647 -0.2117 -0.1568
vn -0.9379 -0.1261 -0.3231
vn -0.8942 0.0235 -0.4471
vn -0.8920 0.1800 -0.4147
vn -0.9752 0.2202 0.0236
vn -0.8155 0.5253 -0.2430
vn 0.6787 0.3472 0.6471
vn 0.7866 0.3461 0.5113
vn 0.4721 0.6688 0.5744
vn 0.9421 0.3140 0.1178
vn 0.9637 0.0157 0.2664
vn 0.9931 0.0938 0.0704
vn 0.4803 0.8582 -0.1811
vn -0.0313 0.8860 -0.4626
vn 0.0314 0.9970 -0.0707
vn 0.8814 0.2361 0.4092
vn 0.8913 0.3471 0.2918
vn 0.8259 0.0786 0.5584
vn 0.8314 0.1255 -0.5413
vn 0.8057 0.1252 -0.5789
vn 0.8751 0.1025 -0.4730
vn -0.0314 0.8860 -0.4626
vn -0.0314 0.6828 -0.7299
vn -0.5745 0.5981 -0.5587
vn -0.8890 0.0394 -0.4563
vn -0.7478 0.1181 -0.6533
vn -0.6376 0.1495 -0.7557
vn 0.7787 0.0865 -0.6214
vn 0.5569 0.1569 -0.8157
vn 0.6596 0.3298 -0.6754
vn -0.9864 -0.0000 0.1644
vn -0.9864 -0.0078 0.1644
vn -0.9984 -0.0550 0.0157
vn 0.9034 -0.2042 -0.3771
vn 0.9656 -0.2277 -0.1256
vn 0.9378 -0.2207 -0.2680
vn 0.9619 -0.1498 0.2287
vn 0.9409 -0.2274 -0.2509
vn 0.9830 -0.1337 -0.1259
vn 0.8990 -0.2502 -0.3596
vn 0.9691 0.0709 -0.2364
vn 0.4395 0.0785 -0.8948
vn -0.0785 0.1728 -0.9818
vn 0.4157 0.2353 -0.8785
vn -0.1806 0.2826 -0.9421
vn 0.0314 0.4781 -0.8778
vn 0.7411 -0.1104 -0.6623
vn -0.0000 -0.0941 -0.9956
vn -0.0079 -0.2128 -0.9771
vn 0.8404 0.0079 0.5419
vn 0.8971 0.0315 0.4407
vn 0.9024 -0.0785 0.4237
vn 0.9562 -0.0784 0.2822
vn 0.9583 -0.1021 0.2670
vn -0.6521 -0.1336 -0.7463
vn -0.7292 -0.0549 -0.6821
vn -0.9010 -0.1489 -0.4074
vn -0.5196 0.8188 -0.2441
vn -0.8510 0.4649 -0.2443
vn -0.7299 0.6593 -0.1806
vn -0.9448 -0.1889 -0.2677
vn -0.9969 -0.0471 0.0628
vn -0.9984 -0.0550 0.0158
vn -0.9448 -0.1890 -0.2677
vn -0.5895 0.2672 -0.7623
vn -0.5745 0.5981 -0.5588
vn -0.8154 0.5254 -0.2431
vn -0.7299 0.6593 -0.1805
vn -0.8974 0.2519 0.3621
vn -0.9617 0.0867 0.2601
vn -0.8880 0.3851 0.2515
vn -0.9118 0.4088 0.0393
vn -0.8438 0.5362 0.0237
vn -0.1733 0.8507 0.4962
vn -0.8328 0.4557 0.3143
vn -0.7076 0.3223 0.6289
vn -0.9750 0.0865 0.2044
vn -0.9463 0.1720 0.2737
vn -0.9480 0.0549 -0.3134
vn -0.9730 -0.0392 -0.2276
vn -0.9167 0.0784 -0.3918
vn 0.9678 -0.2518 -0.0079
vn 0.9378 -0.2206 -0.2679
vn 0.8990 -0.2501 -0.3596
vn 0.9943 0.0861 -0.0627
vn 0.8248 0.5655 -0.0000
vn 0.8874 0.1806 0.4241
vn 0.9086 0.1645 0.3838
vn 0.9411 0.0235 0.3373
vn 0.0314 0.9970 -0.0706
vn -0.5196 0.8188 -0.2440
vn -0.2978 0.9483 0.1097
vn -0.6757 -0.3850 0.6286
vn -0.8218 -0.1896 0.5373
vn -0.7702 0.0393 0.6366
vn -0.8826 0.1103 0.4570
vn -0.8977 0.1811 0.4016
vn -0.2589 -0.3452 0.9021
vn -0.4781 -0.4781 0.7367
vn -0.8218 -0.1897 0.5373
vn -0.2589 -0.3451 0.9021
vn 0.1020 -0.1021 0.9895
vn 0.0078 -0.0785 0.9969
vn 0.2911 0.1967 -0.9362
vn 0.4170 0.6845 -0.5980
vn 0.9415 -0.1413 -0.3060
vn 0.6461 -0.1497 -0.7484
vn -0.0235 -0.1643 -0.9861
vn -0.4092 0.2046 -0.8892
vn 0.0313 0.4780 -0.8778
vn -0.0000 -0.0079 -1.0000
vn -0.9984 -0.0551 0.0157
vn 0.8821 0.2914 0.3702
vn 0.7542 0.6128 0.2357
vn 0.7098 0.5836 0.3943
vn 0.4247 0.8573 0.2910
vn 0.4789 0.7772 0.4082
vn 0.8089 0.5419 -0.2278
vn 0.9455 0.1734 -0.2758
vn 0.9555 0.0548 -0.2898
vn 0.9267 0.0707 -0.3691
vn -0.3998 0.2038 -0.8937
vn -0.4173 0.2755 -0.8660
vn -0.9749 -0.1651 -0.1494
vn -0.9178 0.1961 0.3452
vn -0.1573 0.9437 0.2910
vn -0.9327 0.3605 -0.0078
vn -0.8510 0.4649 -0.2442
vn 0.1647 0.8944 0.4158
vn 0.0393 0.6827 0.7297
vn 0.4650 0.4965 0.7330
vn 0.5351 0.1338 0.8341
vn 0.5269 0.0315 0.8493
vn 0.4967 -0.0315 0.8673
vn 0.5174 -0.0470 0.8545
vn 0.1102 0.9758 0.1889
vn 0.4783 0.8703 0.1176
vn 0.8247 0.5655 -0.0000
vn -0.9487 0.1255 0.2901
vn -0.9583 0.1021 0.2670
vn -0.9667 0.0786 0.2436
vn -0.9805 0.0157 0.1961
vn -0.9819 0.0157 0.1885
vn -0.9850 -0.0156 0.1720
vn -0.9856 -0.0391 0.1643
vn -0.9873 -0.0548 0.1489
vn 0.8934 0.3056 0.3292
vn 0.9437 0.1022 0.3146
vn 0.9630 -0.1174 0.2427
vn 0.9724 -0.1725 0.1569
vn 0.9869 -0.1254 0.1018
vn 0.9932 0.0391 0.1095
vn 0.9837 0.0866 0.1574
vn 0.8813 0.2361 0.4093
vn 0.8258 0.0786 0.5585
vn 0.6056 0.0472 0.7944
vn 0.4781 0.0313 0.8778
vn 0.3233 -0.0000 0.9463
vn 0.1021 -0.1021 0.9895
vn 0.0079 -0.0785 0.9969
vn 0.9569 -0.1804 -0.2275
vn 0.8863 -0.0157 -0.4628
vn -0.0235 -0.0863 -0.9960
vn 0.6622 -0.0237 0.7489
vn 0.6135 0.0708 0.7865
vn 0.5568 0.1098 0.8234
vn 0.4079 0.2981 0.8630
vn 0.1882 0.4076 0.8936
vn 0.0392 0.6826 0.7297
vn -0.4887 0.2759 0.8277
vn -0.8593 -0.4494 0.2444
vn -0.9118 0.4087 0.0393
vn -0.7299 0.6592 -0.1805
vn 0.0784 0.9648 0.2510
vn 0.4803 0.8582 -0.1810
vn 0.8090 0.5419 -0.2277
vn 0.9943 0.0862 -0.0626
vn 0.9455 0.1733 -0.2757
vn 0.9848 0.1016 -0.1407
vn 0.9725 0.1255 -0.1961
vt 0.399200 0.966400
vt 0.337494 0.865601
vt 0.214783 0.986511
vt 0.390625 0.265625
vt 0.625000 0.281250
vt 0.390625 0.117188
vt 0.851562 0.398438
vt 0.773438 0.398438
vt 0.792389 0.284576
vt 0.603119 0.398438
vt 0.679688 0.476562
vt 0.601562 0.476562
vt 0.289062 0.062500
vt 0.098633 0.014801
vt 0.289062 0.013824
vt 0.265625 0.708008
vt 0.289062 0.570312
vt 0.343750 0.570312
vt 0.236969 0.525513
vt 0.213531 0.453644
vt 0.271484 0.449219
vt 0.570312 0.718750
vt 0.443329 0.835938
vt 0.533752 0.986298
vt 0.386719 0.398438
vt 0.320312 0.445831
vt 0.361450 0.522888
vt 0.178711 0.551758
vt 0.173950 0.432281
vt 0.177734 0.289062
vt 0.414062 0.781250
vt 0.367188 0.765625
vt 0.429688 0.718750
vt 0.296875 0.718750
vt 0.414062 0.796875
vt 0.679688 0.585938
vt 0.601562 0.696198
vt 0.601562 0.585938
vt 0.520813 0.587219
vt 0.515625 0.476562
vt 0.145294 0.485138
vt 0.040039 0.534180
vt 0.116394 0.421082
vt 0.027344 0.424805
vt 0.031250 0.350586
vt 0.180450 0.882812
vt 0.012939 0.883362
vt 0.012939 0.820862
vt 0.781250 0.476562
vt 0.718750 0.476562
vt 0.765625 0.585938
vt 0.717773 0.586914
vt 0.717773 0.689362
vt 0.171875 0.718750
vt 0.703125 0.726562
vt 0.703125 0.796875
vt 0.703125 0.882812
vt 0.703125 0.987122
vt 0.257812 0.742188
vt 0.109375 0.742188
vt 0.281250 0.859375
vt 0.148438 0.859375
vt 0.203125 0.296875
vt 0.179688 0.164062
vt 0.390625 0.140625
vt 0.398438 0.031250
vt 0.828125 0.070312
vt 0.828125 0.026886
vt 0.718750 0.078125
vt 0.617188 0.026886
vt 0.617188 0.078125
vt 0.828125 0.109375
vt 0.757812 0.039062
vt 0.898438 0.039062
vt 0.670563 0.680969
vt 0.734375 0.281250
vt 0.578125 0.500000
vt 0.430969 0.494781
vt 0.506500 0.542969
vt 0.352417 0.718750
vt 0.101562 0.851562
vt 0.109375 0.937500
vt 0.781250 0.460938
vt 0.851562 0.460938
vt 0.828125 0.570312
vt 0.304688 0.195312
vt 0.304688 0.109375
vt 0.539062 0.101562
vt 0.363037 0.714142
vt 0.359375 0.617188
vt 0.298431 0.704681
vt 0.484375 0.710938
vt 0.453125 0.609375
vt 0.369019 0.712769
vt 0.335938 0.609375
vt 0.490875 0.600250
vt 0.367188 0.578125
vt 0.398438 0.710938
vt 0.156769 0.548950
vt 0.164062 0.132812
vt 0.045990 0.132812
vt 0.012939 0.766174
vt 0.048828 0.525391
vt 0.171875 0.445312
vt 0.046875 0.421875
vt 0.035217 0.351562
vt 0.018951 0.181915
vt 0.018738 0.986420
vt 0.679688 0.398438
vt 0.609375 0.335938
vt 0.687500 0.328125
vt 0.617188 0.265625
vt 0.710938 0.273438
vt 0.296875 0.140625
vt 0.320312 0.281250
vt 0.341797 0.440430
vt 0.296875 0.566406
vt 0.164062 0.507812
vt 0.242188 0.539062
vt 0.382812 0.531250
vt 0.763000 0.565094
vt 0.703125 0.101562
vt 0.578125 0.039062
vt 0.304688 0.039062
vt 0.750000 0.195312
vt 0.898438 0.179688
vt 0.906250 0.273438
vt 0.914062 0.398438
vt 0.851562 0.468750
vt 0.911133 0.462891
vt 0.889648 0.535156
vt 0.523438 0.187500
vt 0.515625 0.273438
vt 0.515625 0.359375
vt 0.234375 0.601562
vt 0.163177 0.706573
vt 0.171875 0.578125
vt 0.098083 0.710052
vt 0.094849 0.588715
vt 0.012939 0.703674
vt 0.013489 0.579224
vt 0.117188 0.710938
vt 0.218750 0.601562
vt 0.257812 0.710938
vt 0.351562 0.601562
vt 0.343750 0.710938
vt 0.460938 0.593750
vt 0.406250 0.710938
vt 0.012939 0.719299
vt 0.929688 0.562500
vt 0.898438 0.488281
vt 0.945312 0.488281
vt 0.881500 0.381500
vt 0.959625 0.388000
vt 0.869781 0.173157
vt 0.953125 0.171875
vt 0.986938 0.013824
vt 0.835938 0.013824
vt 0.617188 0.013824
vt 0.304688 0.013824
vt 0.656250 0.195312
vt 0.304688 0.289062
vt 0.304688 0.375000
vt 0.515625 0.492188
vt 0.304688 0.476562
vt 0.477844 0.522125
vt 0.333313 0.524719
vt 0.415344 0.571594
s 1
usemtl m_hair098
f 1/1/1 2/2/2 3/3/3
f 4/4/4 5/5/5 6/6/6
f 7/7/7 8/8/8 9/9/9
f 10/10/10 11/11/11 12/12/12
f 13/13/13 14/14/14 15/15/15
f 16/16/16 17/17/17 18/18/18
f 19/19/19 20/20/20 21/21/21
f 22/22/22 23/23/23 24/24/24
f 25/25/25 26/26/26 27/27/27
f 28/28/28 29/29/29 20/20/20
f 20/20/20 29/29/29 30/30/30
f 20/20/20 30/30/30 21/21/21
f 31/31/31 32/32/32 33/33/33
f 34/34/34 35/33/35 36/35/36
f 37/36/37 38/37/38 39/38/39
f 39/38/39 38/37/38 40/39/40
f 39/38/39 40/39/40 41/40/41
f 42/41/42 43/42/43 44/43/44
f 44/43/44 43/42/43 45/44/45
f 44/43/44 45/44/45 46/45/46
f 47/46/47 48/47/48 49/48/49
f 8/8/8 50/49/50 51/50/51
f 51/50/51 50/49/50 52/51/52
f 51/50/51 52/51/52 53/52/53
f 53/52/53 52/51/52 54/53/54
f 55/54/55 56/46/56 57/34/57
f 58/55/15 22/22/22 59/56/58
f 59/56/58 22/22/22 24/24/24
f 59/56/58 24/24/24 60/57/59
f 60/57/59 24/24/24 61/58/60
f 62/59/61 63/60/62 64/61/63
f 64/61/63 63/60/62 65/62/31
f 2/2/2 1/1/1 66/35/64
f 67/63/65 4/4/4 68/64/66
f 68/64/66 4/4/4 69/65/67
f 68/64/66 69/65/67 70/66/68
f 71/67/69 72/68/70 73/69/71
f 73/69/71 72/68/70 74/70/72
f 73/69/71 74/70/72 75/71/73
f 75/71/73 74/70/72 70/66/68
f 76/72/74 77/73/75 78/74/76
f 5/5/5 79/75/77 80/76/78
f 5/5/5 4/4/4 81/77/79
f 81/77/79 4/4/4 82/78/80
f 81/77/79 82/78/80 83/79/81
f 84/32/82 85/80/82 86/33/82
f 87/59/83 88/61/35 89/60/84
f 89/60/84 88/61/35 90/62/85
f 89/60/84 90/62/85 91/81/41
f 91/81/41 90/62/85 92/82/86
f 8/8/8 7/7/7 93/83/87
f 93/83/87 7/7/7 94/84/88
f 93/83/87 94/84/88 95/85/89
f 96/86/90 97/87/91 98/88/92
f 99/89/93 100/90/94 101/91/95
f 101/91/95 100/90/94 102/18/96
f 101/91/95 102/18/96 103/16/97
f 104/92/98 105/93/99 106/94/93
f 106/94/93 105/93/99 107/95/100
f 108/96/99 104/92/101 109/97/102
f 109/97/102 104/92/101 110/98/103
f 111/99/104 42/41/42 29/29/29
f 29/29/29 42/41/42 44/43/44
f 29/29/29 44/43/44 30/30/30
f 30/30/30 44/43/44 46/45/46
f 30/30/30 46/45/46 112/100/105
f 112/100/105 46/45/46 113/101/23
f 112/100/105 113/101/23 14/14/14
f 36/35/36 114/2/106 34/34/34
f 34/34/34 114/2/106 47/46/47
f 34/34/34 47/46/47 115/54/107
f 115/54/107 47/46/47 49/48/49
f 115/54/107 49/48/49 116/102/108
f 117/103/43 118/104/109 119/105/45
f 119/105/45 118/104/109 67/63/65
f 119/105/45 67/63/65 120/106/110
f 120/106/110 67/63/65 68/64/66
f 120/106/110 68/64/66 121/107/23
f 122/108/111 3/3/3 56/46/56
f 56/46/56 3/3/3 2/2/2
f 56/46/56 2/2/2 57/34/57
f 57/34/57 2/2/2 66/35/64
f 57/34/57 66/35/64 33/33/112
f 11/11/11 10/10/10 123/109/113
f 123/109/113 10/10/10 124/110/114
f 123/109/113 124/110/114 125/111/115
f 125/111/115 124/110/114 126/112/116
f 125/111/115 126/112/116 127/113/117
f 14/14/14 13/13/13 112/100/105
f 112/100/105 13/13/13 128/114/118
f 112/100/105 128/114/118 30/30/30
f 30/30/30 128/114/118 129/115/119
f 30/30/30 129/115/119 21/21/21
f 21/21/21 129/115/119 130/116/120
f 21/21/21 130/116/120 131/117/121
f 117/103/43 132/118/122 118/104/109
f 118/104/109 132/118/122 133/119/123
f 118/104/109 133/119/123 67/63/65
f 67/63/65 133/119/123 26/26/26
f 67/63/65 26/26/26 4/4/4
f 4/4/4 26/26/26 25/25/25
f 4/4/4 25/25/25 82/78/80
f 82/78/80 25/25/25 134/120/124
f 135/121/125 71/67/69 80/76/78
f 80/76/78 71/67/69 73/69/71
f 80/76/78 73/69/71 5/5/5
f 5/5/5 73/69/71 75/71/73
f 5/5/5 75/71/73 6/6/6
f 6/6/6 75/71/73 70/66/68
f 76/72/74 136/122/126 77/73/75
f 77/73/75 136/122/126 98/88/92
f 77/73/75 98/88/92 137/123/127
f 137/123/127 98/88/92 97/87/91
f 137/123/127 97/87/91 138/124/128
f 139/125/129 140/126/130 9/9/9
f 9/9/9 140/126/130 141/127/131
f 9/9/9 141/127/131 7/7/7
f 7/7/7 141/127/131 142/128/132
f 7/7/7 142/128/132 143/129/133
f 143/129/133 142/128/132 144/130/134
f 143/129/133 144/130/134 145/131/135
f 146/132/136 126/112/116 147/133/137
f 147/133/137 126/112/116 124/110/114
f 147/133/137 124/110/114 148/134/138
f 148/134/138 124/110/114 10/10/10
f 148/134/138 10/10/10 41/40/41
f 41/40/41 10/10/10 12/12/12
f 41/40/41 12/12/12 39/38/39
f 39/38/39 12/12/12 11/11/11
f 39/38/39 11/11/11 37/36/37
f 102/18/96 149/17/139 103/16/97
f 103/16/97 149/17/139 150/135/140
f 103/16/97 150/135/140 151/136/141
f 151/136/141 150/135/140 152/137/142
f 151/136/141 152/137/142 153/138/143
f 153/138/143 152/137/142 154/139/144
f 153/138/143 154/139/144 155/140/145
f 155/140/145 154/139/144 156/141/146
f 17/17/17 16/16/16 157/135/147
f 157/135/147 16/16/16 158/136/148
f 157/135/147 158/136/148 159/137/149
f 159/137/149 158/136/148 160/138/150
f 159/137/149 160/138/150 161/139/151
f 161/139/151 160/138/150 162/140/152
f 161/139/151 162/140/152 163/141/153
f 164/142/154 165/143/155 166/144/156
f 166/144/156 165/143/155 167/145/157
f 166/144/156 167/145/157 168/146/158
f 168/146/158 167/145/157 169/147/159
f 168/146/158 169/147/159 170/148/160
f 36/35/36 171/1/161 114/2/106
f 114/2/106 171/1/161 172/3/162
f 114/2/106 172/3/162 47/46/47
f 47/46/47 172/3/162 122/108/111
f 47/46/47 122/108/111 48/47/48
f 48/47/48 122/108/111 56/46/56
f 48/47/48 56/46/56 49/48/49
f 49/48/49 56/46/56 55/54/55
f 49/48/49 55/54/55 116/102/108
f 116/102/108 55/54/55 173/149/163
f 116/102/108 173/149/163 115/54/107
f 174/150/164 175/151/165 176/152/166
f 176/152/166 175/151/165 177/153/167
f 176/152/166 177/153/167 178/154/168
f 178/154/168 177/153/167 179/155/169
f 178/154/168 179/155/169 180/156/170
f 180/156/170 179/155/169 78/74/76
f 180/156/170 78/74/76 181/157/171
f 181/157/171 78/74/76 77/73/75
f 181/157/171 77/73/75 182/158/70
f 182/158/70 77/73/75 137/123/127
f 182/158/70 137/123/127 183/159/172
f 183/159/172 137/123/127 138/124/128
f 183/159/172 138/124/128 184/160/173
f 54/53/54 37/36/37 53/52/53
f 53/52/53 37/36/37 11/11/11
f 53/52/53 11/11/11 51/50/51
f 51/50/51 11/11/11 123/109/113
f 51/50/51 123/109/113 8/8/8
f 8/8/8 123/109/113 125/111/115
f 8/8/8 125/111/115 9/9/9
f 9/9/9 125/111/115 127/113/117
f 9/9/9 127/113/117 139/125/129
f 139/125/129 127/113/117 126/112/116
f 139/125/129 126/112/116 185/161/174
f 185/161/174 126/112/116 146/132/136
f 78/74/76 140/126/130 76/72/74
f 76/72/74 140/126/130 139/125/129
f 76/72/74 139/125/129 136/122/126
f 136/122/126 139/125/129 185/161/174
f 136/122/126 185/161/174 98/88/92
f 98/88/92 185/161/174 146/132/136
f 98/88/92 146/132/136 96/86/90
f 96/86/90 146/132/136 147/133/137
f 96/86/90 147/133/137 186/162/175
f 186/162/175 147/133/137 148/134/138
f 186/162/175 148/134/138 187/163/176
f 187/163/176 148/134/138 188/164/177
f 187/163/176 188/164/177 189/165/178
f 189/165/178 188/164/177 190/166/179
f 189/165/178 190/166/179 191/167/120
f 191/167/120 190/166/179 192/168/180
o editpl_m-0000-1811
v 8.834682 48.278606 -0.521564
v 8.412048 50.309361 0.036610
v 7.016813 48.278606 2.630212
v 7.325661 50.489304 1.877761
v 8.506870 50.286869 0.999777
v 7.900010 50.286869 0.392287
v 8.365991 54.113811 0.999777
v 7.900010 50.286869 1.607267
v 7.900010 54.113811 1.607267
v 7.152272 54.113811 0.999777
v 6.661908 39.798923 3.072568
v 7.948776 42.382351 0.857806
v 6.450591 43.400944 2.235681
v 9.111020 47.298576 0.221173
v 6.534576 47.298576 2.198319
v 8.357864 49.290771 0.552192
v 7.225421 49.290771 1.476504
v 7.900010 54.113811 0.392287
v 7.290441 50.286869 0.999777
v 8.506870 50.286869 0.999777
vn 0.8637 0.0393 0.5025
vn 0.8637 0.0392 0.5025
vn 0.8404 -0.5420 -0.0000
vn 0.0471 -0.5739 -0.8176
vn 0.8247 0.5655 -0.0000
vn 0.0472 -0.5739 0.8176
vn 0.0470 0.5791 0.8139
vn -0.8084 0.5886 -0.0000
vn 0.7326 0.1891 0.6538
vn 0.6891 0.0783 0.7204
vn 0.6197 0.0235 0.7845
vn 0.6127 0.0864 0.7855
vn 0.0469 0.5791 -0.8139
vn -0.7953 -0.6063 -0.0000
vn 0.8404 -0.5420 -0.0001
vt 0.781250 0.703125
vt 0.820312 0.609375
vt 0.986603 0.742188
vt 0.921875 0.609375
vt 0.757812 0.992188
vt 0.734375 0.992188
vt 0.757812 0.769745
vt 0.789062 0.992188
vt 0.789062 0.769745
vt 0.986633 0.985962
vt 0.835938 0.906250
vt 0.984375 0.851562
vt 0.816498 0.639771
vt 0.921875 0.640625
vt 0.734375 0.769745
s 1
usemtl m_hair098
f 193/169/181 194/170/181 195/171/182
f 195/171/182 194/170/181 196/172/181
f 197/173/183 198/174/184 199/175/185
f 200/176/186 201/177/187 202/175/188
f 203/178/189 204/179/190 205/180/190
f 205/180/190 204/179/190 206/169/191
f 205/180/190 206/169/191 207/171/191
f 207/171/191 206/169/191 208/181/192
f 207/171/191 208/181/192 209/182/192
f 201/177/187 210/183/193 202/175/188
f 202/175/188 210/183/193 211/173/194
f 202/175/188 211/173/194 200/176/186
f 200/176/186 211/173/194 212/173/195
f 200/176/186 212/173/195 201/177/187
f 201/177/187 212/173/195 199/175/185
f 201/177/187 199/175/185 210/183/193
f 210/183/193 199/175/185 198/174/184
f 210/183/193 198/174/184 211/173/194
f 211/173/194 198/174/184 212/173/195
