mtllib m_hair024.mtl
o editpl_m-0000-1817
v -7.225421 60.286404 1.143991
v -8.319935 59.280666 0.489425
v -6.044212 58.789043 5.781241
v 6.033375 62.419983 -5.892586
v 6.835297 61.751633 -6.834831
v 4.004189 62.182201 -8.289669
v 2.021059 58.352047 -19.645926
v 2.172774 60.109676 -19.763987
v 0.000000 60.880852 -17.849607
v 0.000000 68.544373 -21.926445
v 0.000000 70.208824 -18.084236
v 3.053262 67.824615 -19.196100
v -4.304909 64.482864 -4.140354
v 0.000000 63.869144 -7.500605
v -4.443078 63.114037 -6.577787
v 0.000000 63.975178 -17.956461
v 1.384398 65.977013 -16.326775
v 0.000000 64.964851 -17.026173
v 0.000000 63.265057 -17.917606
v 0.000000 62.310734 -17.848862
v 1.950620 61.995838 -19.823017
v -6.323259 62.545296 1.527314
v -4.310328 64.662811 1.749985
v 1.622807 54.643993 -19.249899
v 0.000000 55.254505 -21.289064
v 3.922913 62.648121 -7.301097
v 3.150793 61.629532 8.262759
v 2.771506 61.809471 8.552681
v 4.231761 61.468868 8.922555
v 3.470478 62.008690 9.995564
v 4.611048 56.485168 8.831395
v 2.850072 60.912983 9.210982
v 2.736286 60.601299 9.039869
v 2.771506 61.809471 8.552681
v 4.611048 56.485168 8.831395
v 2.736286 60.601299 9.039869
v 3.150793 61.629532 8.262759
v 2.850072 60.912983 9.210982
v 4.231761 61.468868 8.922555
v 4.611048 56.485168 8.831395
v -3.922913 62.648121 -7.301097
v -4.004189 62.182201 -8.289669
v -6.033375 62.419983 -5.892586
v -6.835297 61.751633 -6.834831
v -8.276588 60.440639 -2.707185
v -7.030359 61.520279 -2.976183
v 6.044212 58.789043 5.781241
v 8.319935 59.280666 0.489425
v 7.225421 60.286404 1.143991
v 8.276588 60.440639 -2.707185
v 7.030359 61.520279 -2.976183
v 2.096916 60.617367 -18.214251
v 1.874762 57.690125 -17.269016
v 1.481929 60.132172 -17.681482
v 2.698357 60.132172 -17.681482
v 2.096916 60.710548 -17.245106
v 0.000000 59.553791 -21.726934
v -2.048151 58.352047 -19.645926
v -3.072226 67.824615 -19.196100
v -2.822980 64.556770 -19.539824
v -1.668864 54.643993 -19.249899
v 0.000000 48.789509 -18.459339
v 0.000000 55.704353 -18.147749
v 1.043040 63.624939 -18.281502
v 2.151100 63.271484 -19.899982
v 2.546642 63.981606 -19.843193
v 0.000000 65.511101 -21.779989
v 0.000000 63.020851 -22.295570
v -2.164646 63.271484 -19.899982
v -2.552061 63.936623 -19.861876
v -1.164953 63.624939 -18.281502
v 3.757652 51.099812 -8.081194
v 5.789548 48.738098 -4.519941
v 3.730560 47.494583 -7.714309
v 0.000000 47.369267 -9.555460
v -3.757652 51.099812 -8.081194
v 0.000000 50.633896 -9.359688
v -5.832895 59.823700 5.799174
v -4.326583 60.749107 7.857766
v -5.822058 62.044037 4.745593
v -4.245307 62.513165 6.951387
v -4.280527 63.361454 5.406135
v 0.000000 64.033020 6.188475
v -4.825075 60.022923 -8.445090
v -7.832280 59.261387 -5.143123
v -6.231146 62.638481 -4.324170
v -7.604708 58.792259 0.298884
v 7.604708 58.792259 0.298884
v 6.710674 55.832886 4.059645
v 7.447575 55.958199 -0.770388
v 6.900317 54.782162 2.939562
v 6.437045 51.601074 1.589334
v 0.000000 65.591431 -3.866124
v 0.000000 65.482178 1.966679
v 4.825075 60.022923 -8.445090
v 7.832280 59.261387 -5.143123
v 4.987626 56.623337 -9.054075
v 7.726622 56.253815 -5.589213
v 6.572505 53.153061 -5.276875
v -6.437045 51.601074 1.589334
v -6.900317 54.782162 2.939562
v -7.447575 55.958199 -0.770388
v -6.710674 55.832886 4.059645
v -0.241118 62.477821 -8.817206
v -5.505082 61.099350 -7.827887
v -7.748295 60.016495 -5.102027
v -7.965031 57.953609 -0.110593
v -6.743184 56.311653 4.255417
v 6.751312 56.311653 4.255417
v 7.965031 57.953609 -0.110593
v 7.748295 60.016495 -5.102027
v 5.505082 61.099350 -7.827887
v 0.241118 62.477821 -8.817206
v 2.115881 60.806946 -18.226954
v 1.517149 60.437428 -17.694185
v 1.769104 62.815208 -17.787588
v 2.354290 63.293976 -17.342247
v 2.175483 66.475060 -17.461054
v 2.944894 62.815208 -17.787588
v 2.384091 67.050232 -18.004284
v 2.354290 63.194366 -18.374907
v 2.175483 66.593948 -18.428705
v 1.755558 66.889565 -18.004284
v 2.725449 60.408508 -17.693439
v 2.113171 60.877636 -17.251831
v -1.389817 65.977013 -16.326775
v 0.000000 67.313713 -15.411427
v 0.000000 48.789509 -18.459339
v 0.000000 59.531300 -17.853344
v 2.804016 64.556770 -19.539824
v 0.000000 66.246925 -21.898050
v -2.170064 60.128956 -19.751284
v 0.000000 60.549889 -21.951101
v -1.969584 61.995838 -19.823017
v -2.151100 62.664185 -19.875322
v 0.000000 62.169350 -21.700035
v 0.000000 62.577431 -22.204409
v 2.132136 62.654549 -19.864861
v -2.652301 60.582020 9.065274
v 0.000000 59.589134 9.854340
v 0.000000 61.648808 9.552463
v 2.736286 60.601299 9.039869
v 4.245307 62.513165 6.951387
v 4.326583 60.749107 7.857766
v 5.822058 62.044037 4.745593
v 5.832895 59.823700 5.799174
v 6.055049 57.111744 6.213881
v -3.730560 47.494583 -7.714309
v -5.789548 48.738098 -4.519941
v -6.572505 53.153061 -5.276875
v -6.531867 52.250145 -1.792586
v 0.000000 61.359619 -10.195082
v 0.000000 57.282043 -11.297978
v -4.987626 56.623337 -9.054075
v -7.726622 56.253815 -5.589213
v 4.280527 63.361454 5.406135
v 4.310328 64.662811 1.749985
v 6.323259 62.545296 1.527314
v 4.304909 64.482864 -4.140354
v 6.231146 62.638481 -4.324170
v 4.443078 63.114037 -6.577787
v -6.055049 57.111744 6.213881
v 6.531867 52.250145 -1.792586
vn -0.7007 0.6613 0.2677
vn -0.9619 0.1498 0.2287
vn -0.8657 0.2990 0.4014
vn 0.5106 0.8406 -0.1807
vn 0.7390 0.4481 -0.5031
vn 0.3225 0.6371 -0.7001
vn 0.9763 -0.0709 0.2047
vn 0.9997 -0.0237 0.0079
vn -0.0000 -0.0000 1.0000
vn -0.0000 0.3996 -0.9167
vn -0.0000 0.9821 0.1886
vn 0.9737 0.1571 0.1649
vn -0.4789 0.8479 -0.2276
vn -0.0000 0.7847 -0.6199
vn -0.4974 0.6553 -0.5685
vn -0.0000 -0.0628 0.9980
vn 0.8703 -0.1176 0.4783
vn -0.3132 -0.9160 0.2506
vn 0.0078 -0.2036 0.9790
vn -0.0000 0.0707 0.9975
vn 0.9982 -0.0551 0.0236
vn -0.8116 0.5752 0.1024
vn -0.4009 0.9039 0.1493
vn 0.9771 -0.1655 0.1339
vn -0.0000 -0.2425 -0.9701
vn 0.2352 0.8859 -0.3998
vn 0.6929 0.1339 -0.7085
vn -0.4730 0.8751 0.1025
vn 0.7558 0.1102 -0.6455
vn -0.1730 0.5114 0.8418
vn 0.2117 -0.1568 0.9647
vn -0.1730 0.5113 0.8418
vn -0.7665 -0.0313 0.6414
vn -0.8992 0.2051 0.3865
vn -0.4730 0.8751 0.1024
vn -0.1731 0.5113 0.8418
vn -0.7666 -0.0313 0.6414
vn 0.2118 -0.1569 0.9646
vn 0.4167 -0.7863 -0.4561
vn 0.6928 0.1338 -0.7086
vn 0.1258 -0.4717 -0.8727
vn 0.7557 0.1102 -0.6455
vn -0.2037 -0.0000 -0.9790
vn -0.2352 0.8859 -0.3998
vn -0.3225 0.6371 -0.7001
vn -0.5106 0.8406 -0.1807
vn -0.7390 0.4481 -0.5031
vn -0.9021 0.4314 -0.0078
vn -0.6376 0.7635 0.1023
vn 0.8657 0.2990 0.4014
vn 0.9619 0.1498 0.2286
vn 0.7007 0.6613 0.2677
vn 0.9021 0.4314 -0.0078
vn 0.6376 0.7635 0.1023
vn -0.0314 -0.1809 -0.9830
vn -0.1733 -0.9847 -0.0157
vn -0.9999 -0.0158 -0.0000
vn 0.9789 -0.2036 0.0157
vn -0.0314 0.0157 0.9994
vn -0.0000 -0.1491 -0.9888
vn -0.9763 -0.0708 0.2046
vn -0.9819 -0.0157 0.1885
vn -0.9760 -0.0472 -0.2125
vn -0.9771 -0.1655 0.1340
vn 0.0235 -0.8641 0.5027
vn -0.0000 -0.0236 0.9997
vn 0.6124 -0.2120 0.7615
vn 0.9499 -0.1492 -0.2747
vn 0.9020 -0.3922 -0.1804
vn -0.0000 -0.0314 -0.9995
vn -0.0000 -0.0236 -0.9997
vn -0.9427 -0.1493 -0.2985
vn -0.8964 -0.3932 -0.2045
vn -0.6210 -0.2123 0.7545
vn 0.5740 -0.1651 -0.8020
vn 0.9017 -0.1647 -0.3999
vn 0.6729 -0.0783 -0.7356
vn -0.0000 -0.0157 -0.9999
vn -0.5740 -0.1651 -0.8020
vn -0.0000 -0.1096 -0.9940
vn -0.9205 0.1652 0.3541
vn -0.7293 0.3215 0.6039
vn -0.8488 0.3930 0.3537
vn -0.4876 0.6291 0.6055
vn -0.5242 0.7823 0.3364
vn -0.0000 0.9021 0.4315
vn -0.5494 0.3924 -0.7377
vn -0.9040 0.2280 -0.3616
vn -0.8170 0.5264 -0.2356
vn -0.9818 0.1178 0.1492
vn 0.9818 0.1178 0.1492
vn 0.9819 -0.0157 0.1886
vn 0.9864 -0.1487 0.0704
vn 0.9899 -0.0786 0.1178
vn 0.9812 -0.1727 0.0863
vn -0.0000 0.9888 -0.1491
vn -0.0000 0.9851 0.1720
vn 0.5494 0.3924 -0.7377
vn 0.9040 0.2280 -0.3616
vn 0.6686 -0.0787 -0.7394
vn 0.9590 -0.1572 -0.2358
vn 0.9054 -0.2756 -0.3228
vn -0.9812 -0.1727 0.0863
vn -0.9899 -0.0786 0.1178
vn -0.9864 -0.1487 0.0704
vn -0.9819 -0.0157 0.1886
vn -0.1571 0.4164 -0.8955
vn -0.4484 -0.0943 -0.8888
vn -0.9139 -0.1260 -0.3860
vn -0.9613 -0.2736 -0.0312
vn -0.9499 -0.1491 0.2748
vn 0.9499 -0.1491 0.2748
vn 0.9613 -0.2736 -0.0313
vn 0.9139 -0.1260 -0.3860
vn 0.4484 -0.0943 -0.8888
vn 0.1571 0.4164 -0.8955
vn 0.1334 -0.0550 -0.9895
vn -0.9945 0.1018 0.0235
vn -0.9766 0.0315 0.2126
vn 0.1337 0.0236 0.9907
vn 0.0392 0.0784 0.9961
vn 0.9995 0.0079 -0.0315
vn 0.9617 0.0867 -0.2601
vn 0.2517 -0.0000 -0.9678
vn 0.1415 -0.0000 -0.9899
vn -0.9989 -0.0079 -0.0472
vn 0.9562 -0.0784 0.2821
vn -0.0393 0.0472 0.9981
vn -0.9182 -0.2197 0.3296
vn -0.0000 0.6112 0.7914
vn 0.0237 -0.8641 0.5027
vn -0.0000 -0.0393 0.9992
vn 0.9763 -0.0709 -0.2047
vn -0.0000 -0.0863 -0.9963
vn -0.9998 -0.0157 0.0157
vn -0.0000 -0.0001 -1.0000
vn -0.9982 -0.0550 0.0236
vn -0.9470 -0.3211 -0.0078
vn -0.0000 -0.2277 -0.9737
vn -0.0000 -0.3996 -0.9167
vn 0.9495 -0.3139 -0.0000
vn -0.3706 0.3707 0.8516
vn -0.0000 0.1414 0.9900
vn -0.0000 0.5419 0.8404
vn 0.3763 0.3763 0.8466
vn 0.4876 0.6291 0.6055
vn 0.7328 0.3231 0.5989
vn 0.8488 0.3930 0.3537
vn 0.9205 0.1652 0.3541
vn 0.9583 0.0785 0.2749
vn -0.6729 -0.0783 -0.7356
vn -0.9017 -0.1647 -0.3999
vn -0.9054 -0.2756 -0.3228
vn -0.9783 -0.2035 -0.0391
vn -0.0000 0.5122 -0.8589
vn -0.6686 -0.0787 -0.7394
vn -0.9590 -0.1572 -0.2358
vn 0.5242 0.7823 0.3364
vn 0.4009 0.9039 0.1493
vn 0.8116 0.5752 0.1024
vn 0.4789 0.8479 -0.2277
vn 0.8170 0.5264 -0.2356
vn 0.4974 0.6553 -0.5685
vn -0.9583 0.0785 0.2749
vn 0.9783 -0.2035 -0.0391
vt 0.339844 0.886719
vt 0.339844 0.933594
vt 0.236084 0.889740
vt 0.542969 0.886719
vt 0.535156 0.933594
vt 0.614258 0.941406
vt 0.843750 0.703125
vt 0.843750 0.640625
vt 0.987305 0.578125
vt 0.703125 0.453125
vt 0.742188 0.406250
vt 0.867188 0.437500
vt 0.367188 0.156250
vt 0.125000 0.130188
vt 0.242188 0.257812
vt 0.987305 0.492188
vt 0.914062 0.351562
vt 0.987305 0.351562
vt 0.987305 0.507812
vt 0.987305 0.570312
vt 0.843750 0.632812
vt 0.539062 0.250000
vt 0.546875 0.134369
vt 0.843750 0.750000
vt 0.687500 0.750000
vt 0.628906 0.886719
vt 0.191406 0.949219
vt 0.145782 0.911255
vt 0.058594 0.987701
vt 0.058594 0.910156
vt 0.013672 0.949249
vt 0.058594 0.964844
vt 0.144531 0.964844
vt 0.144531 0.910156
vt 0.016449 0.941406
vt 0.145782 0.986511
vt 0.191193 0.949249
vt 0.058594 0.949219
vt 0.417969 0.933594
vt 0.457031 0.886719
vt 0.539062 0.875000
vt 0.650330 0.862518
vt 0.539062 0.851562
vt 0.539062 0.820312
vt 0.687500 0.703125
vt 0.843750 0.531250
vt 0.929688 0.837524
vt 0.987305 0.750000
vt 0.987305 0.500000
vt 0.843750 0.585938
vt 0.843750 0.539062
vt 0.690430 0.552734
vt 0.704102 0.623047
vt 0.187500 0.781250
vt 0.335938 0.804688
vt 0.199219 0.894531
vt 0.027344 0.894531
vt 0.023438 0.781250
vt 0.744781 0.313782
vt 0.850250 0.239563
vt 0.693726 0.242188
vt 0.878113 0.143738
vt 0.740601 0.139038
vt 0.840607 0.017181
vt 0.164062 0.439056
vt 0.348419 0.445312
vt 0.367188 0.289062
vt 0.528107 0.428101
vt 0.637482 0.473419
vt 0.517181 0.557800
vt 0.626556 0.565613
vt 0.585602 0.694946
vt 0.328125 0.012085
vt 0.546875 0.012085
vt 0.168732 0.598419
vt 0.349976 0.589050
vt 0.343750 0.693726
vt 0.667969 0.941406
vt 0.582031 0.987823
vt 0.472656 0.987823
vt 0.332031 0.987823
vt 0.234375 0.982422
vt 0.476562 0.851562
vt 0.476562 0.820312
vt 0.351562 0.820312
vt 0.351562 0.851562
vt 0.476562 0.875000
vt 0.351562 0.875000
vt 0.820312 0.351562
vt 0.765625 0.837524
vt 0.987305 0.703125
vt 0.701172 0.541992
vt 0.687500 0.664062
vt 0.843750 0.593750
vt 0.674805 0.656250
vt 0.664062 0.640625
vt 0.937500 0.117188
vt 0.985718 0.046875
vt 0.918732 0.020294
vt 0.721680 0.401367
vt 0.453125 0.734375
vt 0.012695 0.281250
vt 0.012695 0.562500
s 1
usemtl m_hair0102
f 1/1/1 2/2/2 3/3/3
f 4/4/4 5/5/5 6/6/6
f 7/7/7 8/8/8 9/9/9
f 10/10/10 11/11/11 12/12/12
f 13/13/13 14/14/14 15/15/15
f 16/16/16 17/17/17 18/18/18
f 19/19/19 20/20/20 21/21/21
f 13/13/13 22/22/22 23/23/23
f 7/7/7 24/24/24 25/25/25
f 26/26/26 4/4/4 6/6/6
f 27/27/27 28/28/28 29/29/29
f 29/29/29 28/28/28 30/30/30
f 29/29/29 30/30/30 31/31/31
f 30/30/32 32/32/33 33/33/34
f 34/34/35 33/33/34 30/30/36
f 30/30/30 32/32/37 35/35/38
f 36/36/39 37/37/40 38/29/41
f 38/29/41 37/37/40 39/38/42
f 38/29/41 39/38/42 40/31/43
f 41/26/44 42/6/45 43/4/46
f 43/4/46 42/6/45 44/5/47
f 43/4/46 44/5/47 45/39/48
f 2/2/2 1/1/1 45/39/48
f 45/39/48 1/1/1 46/40/49
f 45/39/48 46/40/49 43/4/46
f 47/3/50 48/2/51 49/1/52
f 49/1/52 48/2/51 50/39/53
f 5/5/5 4/4/4 50/39/53
f 50/39/53 4/4/4 51/40/54
f 50/39/53 51/40/54 49/1/52
f 52/41/55 53/42/56 54/43/57
f 52/41/55 55/43/58 53/42/56
f 53/42/56 55/43/58 56/44/59
f 53/42/56 56/44/59 54/43/57
f 8/8/8 7/7/7 57/45/60
f 57/45/60 7/7/7 25/25/25
f 57/45/60 25/25/25 58/7/61
f 11/11/11 10/10/10 59/12/62
f 59/12/62 10/10/10 60/46/63
f 59/12/62 60/46/63 16/16/16
f 61/24/64 62/47/65 63/48/66
f 64/49/67 65/50/68 66/51/69
f 66/51/69 65/50/68 67/52/70
f 65/50/68 68/53/71 67/52/70
f 67/52/70 68/53/71 69/50/72
f 67/52/70 69/50/72 70/51/73
f 70/51/73 69/50/72 71/49/74
f 72/54/75 73/55/76 74/56/77
f 75/57/78 76/54/79 77/58/80
f 78/59/81 79/60/82 80/61/83
f 80/61/83 79/60/82 81/62/84
f 80/61/83 81/62/84 82/63/85
f 82/63/85 81/62/84 83/64/86
f 84/65/87 85/66/88 86/67/89
f 86/67/89 85/66/88 87/68/90
f 86/67/89 87/68/90 22/22/22
f 88/68/91 89/69/92 90/70/93
f 90/70/93 89/69/92 91/71/94
f 90/70/93 91/71/94 92/72/95
f 14/14/14 13/13/13 93/73/96
f 93/73/96 13/13/13 23/23/23
f 93/73/96 23/23/23 94/74/97
f 95/65/98 96/66/99 97/75/100
f 97/75/100 96/66/99 98/76/101
f 97/75/100 98/76/101 99/77/102
f 100/72/103 101/71/104 102/70/105
f 102/70/105 101/71/104 103/69/106
f 41/26/44 104/78/107 42/6/45
f 42/6/45 104/78/107 105/79/108
f 42/6/45 105/79/108 44/5/47
f 44/5/47 105/79/108 106/80/109
f 44/5/47 106/80/109 45/39/48
f 45/39/48 106/80/109 107/81/110
f 45/39/48 107/81/110 2/2/2
f 2/2/2 107/81/110 108/82/111
f 2/2/2 108/82/111 3/3/3
f 47/3/50 109/82/112 48/2/51
f 48/2/51 109/82/112 110/81/113
f 48/2/51 110/81/113 50/39/53
f 50/39/53 110/81/113 111/80/114
f 50/39/53 111/80/114 5/5/5
f 5/5/5 111/80/114 112/79/115
f 5/5/5 112/79/115 6/6/6
f 6/6/6 112/79/115 113/78/116
f 6/6/6 113/78/116 26/26/26
f 114/41/117 115/43/118 116/83/119
f 116/83/119 115/43/118 117/84/120
f 116/83/119 117/84/120 118/85/121
f 118/85/121 117/84/120 119/83/122
f 118/85/121 119/83/122 120/86/123
f 120/86/123 119/83/122 121/87/124
f 120/86/123 121/87/124 122/88/125
f 122/88/125 121/87/124 123/86/126
f 118/85/121 123/86/126 116/83/119
f 116/83/119 123/86/126 121/87/124
f 116/83/119 121/87/124 114/41/117
f 114/41/117 121/87/124 119/83/122
f 114/41/117 119/83/122 124/43/127
f 124/43/127 119/83/122 117/84/120
f 124/43/127 117/84/120 125/44/128
f 125/44/128 117/84/120 115/43/118
f 16/16/16 18/18/18 59/12/62
f 59/12/62 18/18/18 126/17/129
f 59/12/62 126/17/129 11/11/11
f 11/11/11 126/17/129 127/89/130
f 11/11/11 127/89/130 12/12/12
f 12/12/12 127/89/130 17/17/17
f 24/24/24 128/90/131 25/25/25
f 25/25/25 128/90/131 61/24/64
f 25/25/25 61/24/64 58/7/61
f 58/7/61 61/24/64 63/48/66
f 58/7/61 63/48/66 129/91/132
f 17/17/17 16/16/16 12/12/12
f 12/12/12 16/16/16 130/46/133
f 12/12/12 130/46/133 10/10/10
f 10/10/10 130/46/133 131/92/134
f 10/10/10 131/92/134 60/46/63
f 62/47/65 24/24/24 63/48/66
f 63/48/66 24/24/24 7/7/7
f 63/48/66 7/7/7 129/91/132
f 129/91/132 7/7/7 9/9/9
f 129/91/132 9/9/9 58/7/61
f 58/7/61 9/9/9 132/8/135
f 58/7/61 132/8/135 57/45/60
f 57/45/60 132/8/135 133/93/136
f 57/45/60 133/93/136 8/8/8
f 20/20/20 19/19/19 134/21/137
f 134/21/137 19/19/19 135/94/138
f 134/21/137 135/94/138 136/95/139
f 136/95/139 135/94/138 137/96/140
f 136/95/139 137/96/140 21/21/21
f 21/21/21 137/96/140 138/94/141
f 21/21/21 138/94/141 19/19/19
f 139/97/142 140/98/143 141/99/144
f 141/99/144 140/98/143 142/97/145
f 141/99/144 142/97/145 143/62/146
f 143/62/146 142/97/145 144/60/147
f 143/62/146 144/60/147 145/61/148
f 145/61/148 144/60/147 146/59/149
f 145/61/148 146/59/149 88/68/91
f 88/68/91 146/59/149 147/100/150
f 88/68/91 147/100/150 89/69/92
f 75/57/78 148/56/151 76/54/79
f 76/54/79 148/56/151 149/55/152
f 76/54/79 149/55/152 150/77/153
f 150/77/153 149/55/152 151/101/154
f 150/77/153 151/101/154 102/70/105
f 152/102/155 153/103/71 84/65/87
f 84/65/87 153/103/71 154/75/156
f 84/65/87 154/75/156 85/66/88
f 85/66/88 154/75/156 155/76/157
f 85/66/88 155/76/157 87/68/90
f 83/64/86 156/63/158 157/23/159
f 157/23/159 156/63/158 158/22/160
f 157/23/159 158/22/160 159/13/161
f 159/13/161 158/22/160 160/67/162
f 159/13/161 160/67/162 161/15/163
f 79/60/82 139/97/142 81/62/84
f 81/62/84 139/97/142 141/99/144
f 81/62/84 141/99/144 83/64/86
f 83/64/86 141/99/144 143/62/146
f 83/64/86 143/62/146 156/63/158
f 156/63/158 143/62/146 145/61/148
f 156/63/158 145/61/148 158/22/160
f 158/22/160 145/61/148 88/68/91
f 158/22/160 88/68/91 160/67/162
f 74/56/77 75/57/78 72/54/75
f 72/54/75 75/57/78 77/58/80
f 72/54/75 77/58/80 153/103/71
f 153/103/71 77/58/80 76/54/79
f 153/103/71 76/54/79 154/75/156
f 154/75/156 76/54/79 150/77/153
f 154/75/156 150/77/153 155/76/157
f 155/76/157 150/77/153 102/70/105
f 155/76/157 102/70/105 87/68/90
f 87/68/90 102/70/105 103/69/106
f 87/68/90 103/69/106 162/100/164
f 22/22/22 13/13/13 86/67/89
f 86/67/89 13/13/13 15/15/15
f 86/67/89 15/15/15 84/65/87
f 84/65/87 15/15/15 14/14/14
f 84/65/87 14/14/14 152/102/155
f 152/102/155 14/14/14 95/65/98
f 152/102/155 95/65/98 153/103/71
f 153/103/71 95/65/98 97/75/100
f 153/103/71 97/75/100 72/54/75
f 72/54/75 97/75/100 99/77/102
f 72/54/75 99/77/102 73/55/76
f 162/100/164 78/59/81 87/68/90
f 87/68/90 78/59/81 80/61/83
f 87/68/90 80/61/83 22/22/22
f 22/22/22 80/61/83 82/63/85
f 22/22/22 82/63/85 23/23/23
f 23/23/23 82/63/85 83/64/86
f 23/23/23 83/64/86 94/74/97
f 94/74/97 83/64/86 157/23/159
f 94/74/97 157/23/159 93/73/96
f 93/73/96 157/23/159 159/13/161
f 93/73/96 159/13/161 14/14/14
f 14/14/14 159/13/161 161/15/163
f 14/14/14 161/15/163 95/65/98
f 95/65/98 161/15/163 160/67/162
f 95/65/98 160/67/162 96/66/99
f 96/66/99 160/67/162 88/68/91
f 96/66/99 88/68/91 98/76/101
f 98/76/101 88/68/91 90/70/93
f 98/76/101 90/70/93 99/77/102
f 99/77/102 90/70/93 163/101/165
f 99/77/102 163/101/165 73/55/76
o editpl_m-0000-1818
v 2.172774 60.109676 -19.763987
v 1.950620 61.995838 -19.823017
v 0.000000 62.310734 -17.848862
v 0.000000 60.549889 -21.951101
v 0.000000 62.169350 -21.700035
v 1.281449 63.730976 -13.175744
v 1.958747 61.031872 -9.371645
v 0.000000 59.431686 -10.659105
v -1.284158 63.727760 -13.179481
v -1.961457 61.028660 -9.374634
v 0.000000 63.152596 -8.279208
v -2.151100 62.664185 -19.875322
v 0.000000 63.265057 -17.917606
v -1.164953 63.624939 -18.281502
v 2.804016 64.556770 -19.539824
v 0.000000 63.975178 -17.956461
v 1.043040 63.624939 -18.281502
v 2.546642 63.981606 -19.843193
v 0.000000 65.511101 -21.779989
v 0.000000 66.246925 -21.898050
v -2.822980 64.556770 -19.539824
v -2.164646 63.271484 -19.899982
v 0.000000 63.020851 -22.295570
v 0.000000 62.577431 -22.204409
v 2.132136 62.654549 -19.864861
v -1.969584 61.995838 -19.823017
v -2.170064 60.128956 -19.751284
v 0.000000 60.880852 -17.849607
v 2.151100 63.271484 -19.899982
v -2.552061 63.936623 -19.861876
v 0.000000 64.797760 -12.185677
v -1.676991 66.214790 -16.694407
v 0.000000 62.583855 -13.683106
v 0.000000 64.441093 -17.454330
v 1.674282 66.218002 -16.690670
v 1.517149 60.437428 -17.694185
v 1.481929 60.132172 -17.681482
v 2.113171 60.877636 -17.251831
v 2.096916 60.710548 -17.245106
v 2.725449 60.408508 -17.693439
v 2.698357 60.132172 -17.681482
v 2.115881 60.806946 -18.226954
v 2.096916 60.617367 -18.214251
v 0.000000 67.728218 -15.396483
v 1.674282 66.218002 -16.690670
vn 0.9997 -0.0236 0.0079
vn 0.9982 -0.0550 0.0236
vn -0.0000 0.0707 0.9975
vn -0.0000 -0.0000 -1.0000
vn -0.0000 -0.2277 -0.9737
vn 0.9961 0.0157 -0.0863
vn 0.9899 0.0471 -0.1336
vn -0.0000 -0.7071 -0.7071
vn -0.9955 0.0078 -0.0941
vn -0.9899 0.0471 -0.1335
vn -0.0000 0.9154 0.4025
vn -0.9471 -0.3209 -0.0078
vn 0.0079 -0.2036 0.9790
vn -0.6209 -0.2122 0.7546
vn 0.9763 -0.0709 -0.2047
vn -0.0000 -0.0628 0.9980
vn 0.6124 -0.2120 0.7616
vn 0.9020 -0.3922 -0.1804
vn -0.0000 -0.0315 -0.9995
vn -0.0000 -0.0863 -0.9963
vn -0.9760 -0.0472 -0.2125
vn -0.9427 -0.1492 -0.2985
vn -0.0000 -0.0237 -0.9997
vn -0.0000 -0.3995 -0.9167
vn 0.9495 -0.3139 -0.0000
vn -0.9982 -0.0550 0.0236
vn -0.9998 -0.0157 0.0157
vn -0.0000 -0.0000 1.0000
vn 0.9499 -0.1491 -0.2747
vn -0.8965 -0.3932 -0.2045
vn -0.0003 0.8185 0.5745
vn -0.9744 0.0943 -0.2043
vn -0.0000 -0.8247 -0.5656
vn -0.0000 -0.4091 -0.9125
vn 0.9744 0.0943 -0.2043
vn -0.9945 0.1018 0.0235
vn -0.9999 -0.0157 -0.0000
vn -0.0393 0.0472 0.9981
vn -0.0313 0.0159 0.9994
vn 0.9562 -0.0784 0.2821
vn 0.9789 -0.2036 0.0157
vn 0.1335 -0.0550 -0.9895
vn -0.0315 -0.1808 -0.9830
vn -0.0000 1.0000 0.0079
vn 0.9743 0.0943 -0.2043
vt 0.050781 0.160156
vt 0.050964 0.092102
vt 0.089630 0.092102
vt 0.010956 0.160156
vt 0.011108 0.092133
vt 0.820312 0.921875
vt 0.987579 0.921875
vt 0.987579 0.980042
vt 0.987061 0.864227
vt 0.074219 0.087891
vt 0.118164 0.087891
vt 0.100250 0.058899
vt 0.081879 0.029633
vt 0.118164 0.029602
vt 0.082031 0.058594
vt 0.017242 0.058594
vt 0.016968 0.029633
vt 0.074219 0.058594
vt 0.011017 0.058716
vt 0.010773 0.087799
vt 0.089844 0.160156
vt 0.819763 0.864227
vt 0.679688 0.921875
vt 0.820312 0.980042
vt 0.679688 0.980042
vt 0.074219 0.011658
vt 0.074219 0.019531
vt 0.121094 0.011658
vt 0.121094 0.019531
vt 0.012299 0.011658
vt 0.012299 0.019531
vt 0.679138 0.864227
vt 0.687500 0.921875
s 1
usemtl m_hair0102
f 164/104/166 165/105/167 166/106/168
f 167/107/169 168/108/170 165/105/167
f 169/109/171 170/110/172 171/111/173
f 172/109/174 173/110/175 174/112/176
f 175/113/177 176/114/178 177/115/179
f 178/116/180 179/117/181 180/115/182
f 180/115/182 181/118/183 178/116/180
f 178/116/180 181/118/183 182/119/184
f 178/116/180 182/119/184 183/120/185
f 183/120/185 182/119/184 184/116/186
f 165/105/167 164/104/166 167/107/169
f 177/115/179 185/121/187 175/113/177
f 175/113/177 185/121/187 186/122/188
f 175/113/177 186/122/188 187/123/189
f 187/123/189 186/122/188 188/113/190
f 168/108/170 167/107/169 189/105/191
f 189/105/191 167/107/169 190/104/192
f 189/105/191 190/104/192 166/106/168
f 166/106/168 190/104/192 191/124/193
f 166/106/168 191/124/193 164/104/166
f 186/122/188 192/121/194 188/113/190
f 188/113/190 192/121/194 180/115/182
f 188/113/190 180/115/182 176/114/178
f 176/114/178 180/115/182 179/117/181
f 176/114/178 179/117/181 177/115/179
f 177/115/179 179/117/181 184/116/186
f 177/115/179 184/116/186 193/118/195
f 193/118/195 184/116/186 182/119/184
f 170/110/172 169/109/171 174/112/176
f 174/112/176 169/109/171 194/125/196
f 174/112/176 194/125/196 172/109/174
f 172/109/174 194/125/196 195/126/197
f 172/109/174 195/126/197 196/127/198
f 196/127/198 195/126/197 197/128/199
f 196/127/198 197/128/199 198/126/200
f 199/129/201 200/130/202 201/131/203
f 201/131/203 200/130/202 202/132/204
f 201/131/203 202/132/204 203/129/205
f 203/129/205 202/132/204 204/130/206
f 203/129/205 204/130/206 205/133/207
f 205/133/207 204/130/206 206/134/208
f 205/133/207 206/134/208 199/129/201
f 199/129/201 206/134/208 200/130/202
f 173/110/175 172/109/174 171/111/173
f 171/111/173 172/109/174 196/127/198
f 171/111/173 196/127/198 169/109/171
f 169/109/171 196/127/198 198/126/200
f 169/109/171 198/126/200 194/125/196
f 194/125/196 198/126/200 207/135/209
f 194/125/196 207/135/209 195/126/197
f 195/126/197 207/135/209 208/136/210
f 195/126/197 208/136/210 197/128/199
