mtllib m_hair004.mtl
o editpl_m-0000-1826
v -6.266366 61.080070 -8.058778
v -4.662523 58.628384 -10.366195
v -7.035777 59.142498 -8.068492
v -8.422884 56.224895 -3.169713
v -6.987012 52.896004 -3.127869
v -7.485503 56.093155 -0.286937
v 6.136325 51.157650 -5.212614
v 6.884062 53.747505 -6.309534
v 8.422884 56.224895 -3.169713
v 3.218523 61.677727 8.216433
v 1.647190 62.628841 8.339724
v 1.568623 61.012592 9.159424
v 0.000000 61.944424 9.265530
v -1.568623 61.012592 9.159424
v 0.000000 60.761963 9.508376
v 0.000000 58.499855 -11.995883
v 0.000000 60.003639 -11.293496
v 2.329907 58.496643 -11.513179
v 6.266366 61.080070 -8.058778
v 4.662523 58.628384 -10.366195
v 4.139649 60.273552 -9.990343
v 2.102335 60.080757 -10.949027
v -8.574599 60.173943 -3.252656
v -7.973158 61.301781 -4.112707
v -2.611663 65.915962 2.466570
v -4.613758 65.491821 1.334531
v -2.435566 65.221909 4.728406
v -4.096301 64.264366 5.431541
v -2.454530 63.965542 6.918510
v -4.139649 60.273552 -9.990343
v -3.424421 62.069740 -9.313362
v -1.779941 61.690582 -10.241408
v -6.884062 53.747505 -6.309534
v -3.218523 61.677727 8.216433
v -3.242905 62.873047 7.369831
v -4.581247 61.761272 7.233090
v -5.055356 63.261845 5.436771
v -5.900625 61.677727 5.848490
v 3.242905 62.873047 7.369831
v 2.454530 63.965542 6.918510
v -5.242291 65.160858 -3.522403
v -2.904256 66.147316 -4.142596
v -2.516841 64.476440 -7.662004
v 0.000000 66.725693 -4.250943
v 0.000000 64.932716 -7.869732
v 8.574599 60.173943 -3.252656
v 7.802479 62.644909 0.224161
v 8.639620 60.874424 -0.048574
v 5.055356 63.261845 5.436771
v 4.096301 64.264366 5.431541
v 2.435566 65.221909 4.728406
v -7.802479 62.644909 0.224161
v -8.639620 60.874424 -0.048574
v -7.190201 61.433525 3.882554
v -7.840408 59.023609 2.764711
v -6.873225 59.332081 4.850204
v 6.827169 52.789967 2.908178
v 7.095379 53.059875 1.064038
v 7.485503 56.093155 -0.286937
v 6.651072 55.701141 4.241220
v 6.932828 58.078922 4.753813
v 5.315439 57.137451 7.248782
v 5.580940 59.274242 6.491848
v 4.949698 56.289162 -10.596338
v 0.000000 52.667866 -10.313889
v 0.000000 55.710781 -12.301495
v -4.949698 56.289162 -10.596338
v -2.329907 58.496643 -11.513179
v 4.546028 49.515697 -7.168838
v 5.207071 47.211819 -6.488866
v 3.345855 46.514549 -7.967615
v -4.540609 52.928135 -8.708112
v -7.542396 56.285950 -7.447551
v -7.095379 53.059875 1.064038
v -6.827169 52.789967 2.908178
v -6.651072 55.701141 4.241220
v -6.932828 58.078922 4.753813
v -5.315439 57.137451 7.248782
v -5.580940 59.274242 6.491848
v -3.058680 66.503983 -1.067783
v 0.000000 66.092690 3.356510
v 0.000000 67.014885 -0.978117
v 3.058680 66.590736 -1.078991
v 2.904256 66.192299 -4.147079
v 5.242291 65.160858 -3.522403
v 2.516841 64.476440 -7.662004
v 4.787146 63.130104 -7.871973
v 3.424421 62.069740 -9.313362
v -6.225728 64.235451 0.604496
v -7.068287 63.232925 -4.219559
v -4.787146 63.130104 -7.871973
v 6.873225 59.332081 4.850204
v 5.900625 61.677727 5.848490
v 4.922606 60.379589 6.775043
v 4.581247 61.761272 7.233090
v 3.944587 60.572380 7.768847
v 1.639062 59.820488 9.278979
v 0.000000 59.640549 9.548726
v 0.000000 49.759899 -9.648115
v 4.540609 52.928135 -8.708112
v 7.542396 56.285950 -7.447551
v 8.485196 58.162468 -0.167381
v 0.000000 46.501698 -9.775889
v -3.345855 46.514549 -7.967615
v -4.546028 49.515697 -7.168838
v -5.207071 47.211819 -6.488866
v -6.136325 51.157650 -5.212614
v -5.792257 49.226505 -3.813070
v -2.102335 60.080757 -10.949027
v 7.035777 59.142498 -8.068492
v 7.973158 61.282501 -4.602883
v 7.068287 63.232925 -4.219559
v 1.779941 61.690582 -10.241408
v 0.000000 61.504215 -10.591856
v -8.485196 58.162468 -0.167381
v 7.190201 61.433525 3.882554
v 7.840408 59.023609 2.764711
v -1.647190 62.628841 8.339724
v 0.000000 63.451424 8.055032
v 0.000000 64.765633 6.490352
v 2.611663 65.915962 2.466570
v 4.613758 65.491821 1.334531
v 6.225728 64.235451 0.604496
v 6.987012 52.896004 -3.127869
v 5.792257 49.226505 -3.813070
v -4.922606 60.379589 6.775043
v -3.944587 60.572380 7.768847
v -1.639062 59.820488 9.278979
vn -0.6728 0.4068 -0.6180
vn -0.5423 0.2515 -0.8017
vn -0.8255 0.1808 -0.5346
vn -0.9639 -0.2664 -0.0000
vn -0.9379 -0.3468 -0.0000
vn -0.9362 -0.2675 0.2282
vn 0.9279 -0.2517 -0.2752
vn 0.8490 -0.3616 -0.3852
vn 0.9639 -0.2664 -0.0000
vn 0.4734 0.2762 0.8364
vn 0.2907 0.5344 0.7937
vn 0.2752 0.2202 0.9358
vn -0.0000 0.4314 0.9021
vn -0.2752 0.2204 0.9358
vn -0.0000 0.1173 0.9931
vn -0.0000 0.2518 -0.9678
vn -0.0001 0.4091 -0.9125
vn 0.3054 0.1958 -0.9319
vn 0.6586 0.4156 -0.6273
vn 0.5423 0.2515 -0.8017
vn 0.4471 0.4000 -0.8001
vn 0.2590 0.4003 -0.8790
vn -0.9761 0.1496 -0.1574
vn -0.8982 0.3545 -0.2600
vn -0.2444 0.9384 0.2445
vn -0.4856 0.8537 0.1880
vn -0.2431 0.8940 0.3764
vn -0.5257 0.7376 0.4238
vn -0.3225 0.7000 0.6371
vn -0.4471 0.4000 -0.8001
vn -0.3831 0.5160 -0.7662
vn -0.2044 0.5502 -0.8096
vn -0.8490 -0.3616 -0.3852
vn -0.4734 0.2762 0.8364
vn -0.4564 0.5587 0.6925
vn -0.6427 0.2587 0.7211
vn -0.6519 0.5812 0.4870
vn -0.7462 0.2199 0.6284
vn 0.4564 0.5587 0.6925
vn 0.3225 0.7001 0.6371
vn -0.5511 0.8109 -0.1968
vn -0.3135 0.9091 -0.2743
vn -0.3070 0.7401 -0.5983
vn -0.0000 0.9591 -0.2830
vn -0.0000 0.7378 -0.6750
vn 0.9798 0.1333 -0.1489
vn 0.8466 0.5252 0.0862
vn 0.9749 0.1651 0.1493
vn 0.6519 0.5812 0.4870
vn 0.5257 0.7376 0.4237
vn 0.2431 0.8940 0.3764
vn -0.8471 0.5256 0.0785
vn -0.9749 0.1651 0.1493
vn -0.8703 0.2980 0.3921
vn -0.9364 -0.1180 0.3305
vn -0.8488 0.0471 0.5266
vn 0.9869 -0.0392 0.1566
vn 0.9891 -0.0628 0.1334
vn 0.9362 -0.2675 0.2282
vn 0.9530 -0.1260 0.2757
vn 0.8990 -0.1025 0.4258
vn 0.8488 -0.0472 0.5266
vn 0.7473 0.0708 0.6607
vn 0.5409 -0.1725 -0.8232
vn -0.0000 -0.4314 -0.9021
vn -0.0000 -0.1491 -0.9888
vn -0.5409 -0.1725 -0.8232
vn -0.3054 0.1958 -0.9319
vn 0.6765 -0.1731 -0.7158
vn 0.8471 -0.0784 -0.5256
vn 0.5328 0.0078 -0.8462
vn -0.5205 -0.3628 -0.7729
vn -0.9049 -0.1417 -0.4013
vn -0.9891 -0.0628 0.1334
vn -0.9869 -0.0392 0.1566
vn -0.9530 -0.1260 0.2757
vn -0.8990 -0.1025 0.4258
vn -0.8488 -0.0472 0.5266
vn -0.7473 0.0708 0.6607
vn -0.3208 0.9466 0.0313
vn -0.0000 0.9547 0.2974
vn -0.0079 0.9989 0.0472
vn 0.3302 0.9434 0.0315
vn 0.3150 0.9057 -0.2836
vn 0.5601 0.8046 -0.1972
vn 0.3071 0.7401 -0.5984
vn 0.5178 0.6355 -0.5728
vn 0.3831 0.5160 -0.7662
vn -0.7000 0.7000 0.1416
vn -0.7717 0.5906 -0.2362
vn -0.5178 0.6355 -0.5727
vn 0.8488 0.0471 0.5266
vn 0.7462 0.2199 0.6284
vn 0.6750 0.0079 0.7378
vn 0.6427 0.2587 0.7211
vn 0.6112 -0.0000 0.7915
vn 0.3851 0.0786 0.9195
vn -0.0000 0.0707 0.9975
vn -0.0000 -0.1415 -0.9899
vn 0.5205 -0.3628 -0.7729
vn 0.9049 -0.1417 -0.4013
vn 0.9650 -0.2040 0.1648
vn -0.0000 0.0392 -0.9992
vn -0.5328 0.0078 -0.8462
vn -0.6765 -0.1731 -0.7158
vn -0.8471 -0.0784 -0.5256
vn -0.9279 -0.2516 -0.2752
vn -0.9646 -0.2431 -0.1019
vn -0.2590 0.4003 -0.8790
vn 0.8243 0.1648 -0.5416
vn 0.8944 0.3531 -0.2746
vn 0.7612 0.6043 -0.2354
vn 0.2044 0.5502 -0.8096
vn -0.0002 0.5272 -0.8498
vn -0.9650 -0.2040 0.1648
vn 0.8703 0.2980 0.3921
vn 0.9364 -0.1180 0.3305
vn -0.2907 0.5344 0.7937
vn -0.0000 0.6911 0.7227
vn -0.0000 0.8589 0.5122
vn 0.2440 0.9365 0.2519
vn 0.4941 0.8470 0.1961
vn 0.7000 0.7000 0.1416
vn 0.9379 -0.3468 -0.0000
vn 0.9646 -0.2431 -0.1019
vn -0.6750 0.0079 0.7378
vn -0.6112 -0.0000 0.7915
vn -0.3851 0.0786 0.9195
vt 0.757019 0.290863
vt 0.821167 0.369324
vt 0.732361 0.376587
vt 0.585785 0.500214
vt 0.564270 0.655304
vt 0.474945 0.525940
vt 0.668640 0.751007
vt 0.716370 0.566223
vt 0.076569 0.176178
vt 0.109802 0.087616
vt 0.048370 0.086609
vt 0.071594 0.012054
vt 0.047760 0.012054
vt 0.981659 0.356476
vt 0.966461 0.247498
vt 0.908905 0.365631
vt 0.821136 0.287445
vt 0.905396 0.274963
vt 0.593231 0.348877
vt 0.625061 0.301605
vt 0.385864 0.086426
vt 0.412689 0.138306
vt 0.278168 0.093048
vt 0.256409 0.141266
vt 0.190247 0.111328
vt 0.814880 0.207581
vt 0.875977 0.200684
vt 0.163788 0.148743
vt 0.156830 0.224304
vt 0.238953 0.183990
vt 0.209930 0.262054
vt 0.632751 0.175659
vt 0.662506 0.092285
vt 0.779053 0.123749
vt 0.681335 0.017212
vt 0.821533 0.043610
vt 0.448792 0.233398
vt 0.465363 0.309906
vt 0.285400 0.285339
vt 0.352600 0.394012
vt 0.251892 0.369568
vt 0.352997 0.665833
vt 0.420746 0.662506
vt 0.293396 0.543549
vt 0.272858 0.436462
vt 0.201050 0.478882
vt 0.138824 0.362366
vt 0.820740 0.465851
vt 0.976257 0.646057
vt 0.987061 0.475525
vt 0.800659 0.816071
vt 0.751343 0.961884
vt 0.822937 0.986664
vt 0.824951 0.635010
vt 0.729767 0.459229
vt 0.571014 0.084808
vt 0.348541 0.012054
vt 0.582336 0.012054
vt 0.743958 0.206573
vt 0.429474 0.170715
vt 0.686371 0.239197
vt 0.076385 0.295746
vt 0.036804 0.251251
vt 0.013031 0.098358
vt 0.011841 0.012054
vt 0.972656 0.844238
vt 0.470154 0.440277
vt 0.972656 0.984863
vt 0.635345 0.862579
vt 0.926758 0.157623
vt 0.149658 0.012054
vt 0.221588 0.012054
s 1
usemtl m_hair0108
f 1/1/1 2/2/2 3/3/3
f 4/4/4 5/5/5 6/6/6
f 7/7/7 8/8/8 9/4/9
f 10/9/10 11/10/11 12/11/12
f 13/12/13 14/11/14 15/13/15
f 16/14/16 17/15/17 18/16/18
f 19/1/19 20/2/20 21/17/21
f 21/17/21 20/2/20 18/16/18
f 21/17/21 18/16/18 22/18/22
f 22/18/22 18/16/18 17/15/17
f 23/19/23 24/20/24 3/3/3
f 3/3/3 24/20/24 1/1/1
f 25/21/25 26/22/26 27/23/27
f 27/23/27 26/22/26 28/24/28
f 27/23/27 28/24/28 29/25/29
f 2/2/2 1/1/1 30/17/30
f 30/17/30 1/1/1 31/26/31
f 30/17/30 31/26/31 32/27/32
f 5/5/5 4/4/4 33/8/33
f 34/9/34 35/28/35 36/29/36
f 36/29/36 35/28/35 37/30/37
f 36/29/36 37/30/37 38/31/38
f 39/28/39 40/25/40 11/10/11
f 41/32/41 42/33/42 43/34/43
f 43/34/43 42/33/42 44/35/44
f 43/34/43 44/35/44 45/36/45
f 46/19/46 47/37/47 48/38/48
f 39/28/39 49/30/49 40/25/40
f 40/25/40 49/30/49 50/24/50
f 40/25/40 50/24/50 51/23/51
f 52/37/52 53/38/53 54/39/54
f 54/39/54 53/38/53 55/40/55
f 54/39/54 55/40/55 56/41/56
f 57/42/57 58/43/58 59/6/59
f 60/44/60 61/45/61 62/46/62
f 62/46/62 61/45/61 63/47/63
f 64/48/64 65/49/65 66/50/66
f 66/50/66 65/49/65 67/48/67
f 66/50/66 67/48/67 68/16/68
f 8/8/8 7/7/7 69/51/69
f 69/51/69 7/7/7 70/52/70
f 69/51/69 70/52/70 71/53/71
f 65/49/65 72/54/72 67/48/67
f 67/48/67 72/54/72 33/8/33
f 67/48/67 33/8/33 73/55/73
f 73/55/73 33/8/33 4/4/4
f 74/43/74 75/42/75 6/6/6
f 6/6/6 75/42/75 76/44/76
f 6/6/6 76/44/76 77/45/77
f 77/45/77 76/44/76 78/46/78
f 77/45/77 78/46/78 79/47/79
f 80/56/80 81/57/81 82/58/82
f 82/58/82 81/57/81 83/56/83
f 82/58/82 83/56/83 84/33/84
f 84/33/84 83/56/83 85/32/85
f 84/33/84 85/32/85 86/34/86
f 86/34/86 85/32/85 87/59/87
f 86/34/86 87/59/87 88/26/88
f 56/41/56 38/31/38 54/39/54
f 54/39/54 38/31/38 37/30/37
f 54/39/54 37/30/37 52/37/52
f 52/37/52 37/30/37 89/60/89
f 52/37/52 89/60/89 90/61/90
f 90/61/90 89/60/89 41/32/41
f 90/61/90 41/32/41 91/59/91
f 91/59/91 41/32/41 43/34/43
f 61/45/61 92/41/92 63/47/63
f 63/47/63 92/41/92 93/31/93
f 63/47/63 93/31/93 94/62/94
f 94/62/94 93/31/93 95/29/95
f 94/62/94 95/29/95 96/63/96
f 96/63/96 95/29/95 10/9/10
f 96/63/96 10/9/10 97/64/97
f 97/64/97 10/9/10 12/11/12
f 97/64/97 12/11/12 98/65/98
f 71/53/71 99/66/99 69/51/69
f 69/51/69 99/66/99 100/54/100
f 69/51/69 100/54/100 8/8/8
f 8/8/8 100/54/100 101/55/101
f 8/8/8 101/55/101 9/4/9
f 9/4/9 101/55/101 46/19/46
f 9/4/9 46/19/46 102/67/102
f 102/67/102 46/19/46 48/38/48
f 71/53/71 103/68/103 99/66/99
f 99/66/99 103/68/103 104/53/104
f 99/66/99 104/53/104 105/51/105
f 105/51/105 104/53/104 106/52/106
f 105/51/105 106/52/106 107/7/107
f 107/7/107 106/52/106 108/69/108
f 109/18/109 17/15/17 68/16/68
f 68/16/68 17/15/17 16/14/16
f 68/16/68 16/14/16 66/50/66
f 66/50/66 16/14/16 18/16/18
f 66/50/66 18/16/18 64/48/64
f 64/48/64 18/16/18 20/2/20
f 64/48/64 20/2/20 110/3/110
f 110/3/110 20/2/20 19/1/19
f 110/3/110 19/1/19 111/20/111
f 111/20/111 19/1/19 112/61/112
f 113/27/113 114/70/114 45/36/45
f 45/36/45 114/70/114 32/27/32
f 45/36/45 32/27/32 43/34/43
f 43/34/43 32/27/32 31/26/31
f 43/34/43 31/26/31 91/59/91
f 91/59/91 31/26/31 1/1/1
f 91/59/91 1/1/1 90/61/90
f 90/61/90 1/1/1 24/20/24
f 90/61/90 24/20/24 52/37/52
f 52/37/52 24/20/24 23/19/23
f 52/37/52 23/19/23 53/38/53
f 53/38/53 23/19/23 115/67/115
f 53/38/53 115/67/115 55/40/55
f 11/10/11 10/9/10 39/28/39
f 39/28/39 10/9/10 95/29/95
f 39/28/39 95/29/95 49/30/49
f 49/30/49 95/29/95 93/31/93
f 49/30/49 93/31/93 116/39/116
f 116/39/116 93/31/93 92/41/92
f 116/39/116 92/41/92 117/40/117
f 117/40/117 92/41/92 61/45/61
f 117/40/117 61/45/61 59/6/59
f 59/6/59 61/45/61 60/44/60
f 59/6/59 60/44/60 57/42/57
f 14/11/14 13/12/13 118/10/118
f 118/10/118 13/12/13 119/71/119
f 118/10/118 119/71/119 29/25/29
f 29/25/29 119/71/119 120/72/120
f 29/25/29 120/72/120 27/23/27
f 27/23/27 120/72/120 81/57/81
f 27/23/27 81/57/81 25/21/25
f 25/21/25 81/57/81 80/56/80
f 25/21/25 80/56/80 26/22/26
f 88/26/88 113/27/113 86/34/86
f 86/34/86 113/27/113 45/36/45
f 86/34/86 45/36/45 84/33/84
f 84/33/84 45/36/45 44/35/44
f 84/33/84 44/35/44 82/58/82
f 82/58/82 44/35/44 42/33/42
f 82/58/82 42/33/42 80/56/80
f 80/56/80 42/33/42 41/32/41
f 80/56/80 41/32/41 26/22/26
f 26/22/26 41/32/41 89/60/89
f 26/22/26 89/60/89 28/24/28
f 28/24/28 89/60/89 37/30/37
f 28/24/28 37/30/37 29/25/29
f 29/25/29 37/30/37 35/28/35
f 29/25/29 35/28/35 118/10/118
f 118/10/118 35/28/35 34/9/34
f 118/10/118 34/9/34 14/11/14
f 121/21/121 51/23/51 122/22/122
f 122/22/122 51/23/51 50/24/50
f 122/22/122 50/24/50 123/60/123
f 123/60/123 50/24/50 49/30/49
f 123/60/123 49/30/49 47/37/47
f 47/37/47 49/30/49 116/39/116
f 47/37/47 116/39/116 48/38/48
f 48/38/48 116/39/116 117/40/117
f 48/38/48 117/40/117 102/67/102
f 102/67/102 117/40/117 59/6/59
f 102/67/102 59/6/59 9/4/9
f 9/4/9 59/6/59 124/5/124
f 9/4/9 124/5/124 7/7/7
f 7/7/7 124/5/124 125/69/125
f 7/7/7 125/69/125 70/52/70
f 85/32/85 112/61/112 87/59/87
f 87/59/87 112/61/112 19/1/19
f 87/59/87 19/1/19 88/26/88
f 88/26/88 19/1/19 21/17/21
f 88/26/88 21/17/21 113/27/113
f 113/27/113 21/17/21 22/18/22
f 113/27/113 22/18/22 114/70/114
f 114/70/114 22/18/22 17/15/17
f 114/70/114 17/15/17 32/27/32
f 32/27/32 17/15/17 109/18/109
f 32/27/32 109/18/109 30/17/30
f 30/17/30 109/18/109 68/16/68
f 30/17/30 68/16/68 2/2/2
f 2/2/2 68/16/68 67/48/67
f 2/2/2 67/48/67 3/3/3
f 3/3/3 67/48/67 73/55/73
f 3/3/3 73/55/73 23/19/23
f 23/19/23 73/55/73 4/4/4
f 23/19/23 4/4/4 115/67/115
f 115/67/115 4/4/4 6/6/6
f 115/67/115 6/6/6 55/40/55
f 55/40/55 6/6/6 77/45/77
f 55/40/55 77/45/77 56/41/56
f 56/41/56 77/45/77 79/47/79
f 56/41/56 79/47/79 38/31/38
f 38/31/38 79/47/79 126/62/126
f 38/31/38 126/62/126 36/29/36
f 36/29/36 126/62/126 127/63/127
f 36/29/36 127/63/127 34/9/34
f 34/9/34 127/63/127 128/64/128
f 34/9/34 128/64/128 14/11/14
f 14/11/14 128/64/128 98/65/98
f 14/11/14 98/65/98 15/13/15
f 15/13/15 98/65/98 12/11/12
f 15/13/15 12/11/12 13/12/13
f 13/12/13 12/11/12 11/10/11
f 13/12/13 11/10/11 119/71/119
f 119/71/119 11/10/11 40/25/40
f 119/71/119 40/25/40 120/72/120
f 120/72/120 40/25/40 51/23/51
f 120/72/120 51/23/51 81/57/81
f 81/57/81 51/23/51 121/21/121
f 81/57/81 121/21/121 83/56/83
f 83/56/83 121/21/121 122/22/122
f 83/56/83 122/22/122 85/32/85
f 85/32/85 122/22/122 123/60/123
f 85/32/85 123/60/123 112/61/112
f 112/61/112 123/60/123 47/37/47
f 112/61/112 47/37/47 111/20/111
f 111/20/111 47/37/47 46/19/46
f 111/20/111 46/19/46 110/3/110
f 110/3/110 46/19/46 101/55/101
f 110/3/110 101/55/101 64/48/64
f 64/48/64 101/55/101 100/54/100
f 64/48/64 100/54/100 65/49/65
f 65/49/65 100/54/100 99/66/99
f 65/49/65 99/66/99 72/54/72
f 72/54/72 99/66/99 105/51/105
f 72/54/72 105/51/105 33/8/33
f 33/8/33 105/51/105 107/7/107
f 33/8/33 107/7/107 5/5/5
f 5/5/5 107/7/107 108/69/108
