mtllib m_hair000.mtl
o editpl_m-0000-1806
v 2.684811 43.953613 -20.971495
v 1.297704 47.022240 -16.583817
v -0.002709 45.756229 -15.868726
v 2.021059 61.391750 8.776100
v 4.459334 61.883373 6.813152
v 0.000000 64.325417 6.396950
v 0.000000 64.325417 6.396950
v 0.000000 61.677727 9.507629
v 2.021059 61.391750 8.776100
v -4.036699 63.881996 4.156783
v -4.459334 61.883373 6.813152
v 8.533961 57.503757 -5.151342
v 7.217293 52.269424 -5.535414
v 5.873533 51.430775 -7.610445
v -4.835911 64.669235 2.394837
v -7.192910 62.667400 0.793543
v -4.353675 63.464279 5.633290
v -3.034297 61.690582 8.497387
v -1.587588 61.979771 9.219202
v -4.353675 63.464279 5.633290
v -0.005418 42.391991 -18.274029
v 0.000000 66.610016 -2.725865
v 4.835911 64.669235 2.394837
v 4.898223 65.151215 -3.369222
v 4.337420 61.629532 7.570086
v 3.034297 61.690582 8.497387
v 3.288962 57.481266 11.187381
v 6.529158 56.787209 -9.121325
v 5.025555 60.321751 -9.235651
v 7.406937 62.130791 -4.672375
v 0.000000 50.595337 -11.011793
v 0.000000 53.937084 -11.377184
v 4.770891 56.645828 -9.123567
v 0.000000 65.980225 2.685506
v 0.000000 64.672447 6.396950
v -0.002709 43.494125 -21.368269
v 1.698665 45.335300 -18.833696
v -0.002709 43.343105 -18.166430
v -1.709501 45.335300 -18.833696
v -0.002709 46.993320 -20.475340
v -0.005418 46.880856 -22.311260
v 2.151100 57.821865 11.174678
v 6.461428 62.108299 1.815741
v 4.036699 63.881996 4.156783
v 4.459334 61.883373 6.813152
v 7.268768 56.131714 3.945320
v 6.412662 60.055054 4.581204
v 6.461428 55.219158 7.054505
v 6.369315 51.379364 5.484595
v 7.347334 54.672913 1.964439
v -2.151100 57.821865 11.174678
v -2.021059 61.391750 8.776100
v -4.459334 61.883373 6.813152
v -2.021059 61.391750 8.776100
v -6.461428 62.108299 1.815741
v -6.461428 55.219158 7.054505
v -6.412662 60.055054 4.581204
v -7.268768 56.131714 3.945320
v -7.347334 54.672913 1.964439
v -6.369315 51.379364 5.484595
v 4.898223 65.151215 -3.369222
v 5.201653 62.911606 -7.775582
v 0.000000 65.112656 -7.020889
v 8.268460 59.916885 0.555180
v 7.192910 62.667400 0.793543
v 8.011087 55.971050 2.891739
v 7.710366 58.313488 3.316161
v 7.052032 54.570087 6.030813
v 5.968355 60.498478 6.516505
v 6.577923 50.736717 -2.752017
v 7.236257 52.510414 2.896970
v 7.157691 55.473003 -0.307112
v 7.694111 53.663960 2.914903
v 7.398809 53.018105 5.673641
v 6.577923 50.736717 -2.752017
v 5.654088 47.918728 -2.673558
v 5.616159 49.779179 -4.999656
v 4.424114 46.652718 -7.722528
v 1.587588 61.979771 9.219202
v 0.000000 61.112202 10.067297
v 0.482237 57.539104 12.107956
v 7.423192 60.263912 4.116433
v 5.694726 56.096367 8.226148
v 0.482237 57.539104 12.107956
v 3.034297 61.690582 8.497387
v 4.353675 63.464279 5.633290
v 4.749217 53.403690 -9.364172
v 2.527678 51.819572 -11.378677
v 4.353675 57.291683 -10.246640
v 1.953329 55.293064 -11.229234
v 0.000000 61.025444 -10.733828
v 0.000000 57.857212 -11.699237
v 0.000000 48.869839 -9.474760
v 4.047536 49.669930 -8.018427
v 7.203747 54.888199 -5.401661
v -8.501451 55.090630 3.499977
v -8.268460 59.916885 0.555180
v -8.848228 57.992168 -2.260346
v 8.848228 57.992168 -2.260346
v 8.487905 54.454414 0.347454
v -1.587588 61.979771 9.219202
v 0.000000 62.526016 9.602527
v -4.047536 49.669930 -8.018427
v -4.424114 46.652718 -7.722528
v -5.616159 49.779179 -4.999656
v -5.654088 47.918728 -2.673558
v -8.268460 59.916885 0.555180
v -7.406937 62.130791 -4.672375
v -8.848228 57.992168 -2.260346
v -7.052032 54.570087 6.030813
v -7.710366 58.313488 3.316161
v -8.011087 55.971050 2.891739
v -4.337420 61.629532 7.570086
v -5.968355 60.498478 6.516505
v -3.288962 57.481266 11.187381
v 0.000000 65.112656 -7.020889
v -4.898223 65.151215 -3.369222
v -4.835911 64.669235 2.394837
v 0.000000 62.853767 -9.125809
v -5.201653 62.911606 -7.775582
v -5.025555 60.321751 -9.235651
v -4.770891 56.645828 -9.123567
v -7.203747 54.888199 -5.401661
v -6.577923 50.736717 -2.752017
v -4.898223 65.151215 -3.369222
v -0.482237 57.539104 12.107956
v 0.000000 61.112202 10.067297
v -5.694726 56.096367 8.226148
v -7.490922 60.263912 4.116433
v -1.587588 61.979771 9.219202
v 0.000000 61.112202 10.067297
v 0.000000 60.125744 12.690042
v 1.587588 61.979771 9.219202
v -0.482237 57.539104 12.107956
v 8.848228 57.992168 -2.260346
v 8.268460 59.916885 0.555180
v 8.501451 55.090630 3.499977
v -7.398809 53.018105 5.673641
v -7.694111 53.663960 2.914903
v -7.157691 55.473003 -0.307112
v -7.236257 52.510414 2.896970
v -0.002709 48.175785 -17.168142
v -0.005418 45.968304 -22.657972
v -1.305832 47.022240 -16.583817
v -2.040023 44.262085 -20.497757
v -0.002709 46.035782 -15.868726
v -0.005418 41.479439 -20.439474
v 1.297704 47.022240 -16.583817
v 2.026477 44.262085 -20.497757
v -2.703776 43.953613 -20.971495
v -1.305832 47.022240 -16.583817
v -0.002709 48.333233 -17.168142
v 6.483102 50.550354 1.737284
v 7.133308 55.302704 -0.088176
v 7.452993 59.219616 -1.254588
v 6.461428 62.108299 1.815741
v 4.984917 57.465199 9.583845
v -4.984917 57.465199 9.583845
v -6.461428 62.108299 1.815741
v -7.452993 59.219616 -1.254588
v -7.133308 55.302704 -0.088176
v -6.483102 50.550354 1.737284
v 4.835911 64.669235 2.394837
v 4.353675 63.464279 5.633290
v 0.000000 46.649506 -9.799054
v -4.353675 63.464279 5.633290
v 0.000000 60.125744 12.690042
v 1.587588 61.979771 9.219202
v 4.353675 63.464279 5.633290
v -1.953329 55.293064 -11.229234
v -2.527678 51.819572 -11.378677
v -4.353675 57.291683 -10.246640
v -4.749217 53.403690 -9.364172
v -6.529158 56.787209 -9.121325
v -5.873533 51.430775 -7.610445
v -8.533961 57.503757 -5.151342
v -7.217293 52.269424 -5.535414
v -6.577923 50.736717 -2.752017
v 0.000000 57.857212 -11.433226
v 7.881046 60.051842 -2.675802
v 0.000000 52.420444 -12.641480
v -8.487905 54.454414 0.347454
v -7.881046 60.051842 -2.675802
v -3.034297 61.690582 8.497387
vn 0.9288 -0.0787 0.3621
vn 0.9361 0.3461 0.0629
vn -0.0000 -0.6063 0.7953
vn 0.3852 0.6525 0.6525
vn 0.6227 0.5913 0.5125
vn -0.0000 0.7885 0.6150
vn -0.0000 0.7637 0.6456
vn -0.5722 0.6976 0.4311
vn -0.6228 0.5913 0.5124
vn -0.0001 0.7885 0.6150
vn 0.9796 -0.1254 -0.1568
vn 0.9536 -0.2207 -0.2049
vn 0.8090 -0.2278 -0.5419
vn -0.4394 0.8710 0.2197
vn -0.8086 0.5574 0.1884
vn -0.5434 0.6772 0.4961
vn -0.4794 0.5501 0.6837
vn -0.3698 0.6530 0.6609
vn -0.5433 0.6772 0.4961
vn -0.0000 -0.5798 0.8148
vn -0.0000 0.9992 -0.0394
vn 0.4394 0.8710 0.2197
vn 0.5127 0.8440 -0.1577
vn 0.5963 0.5100 0.6199
vn 0.4794 0.5501 0.6837
vn 0.6003 0.4345 0.6714
vn 0.7226 0.0079 -0.6912
vn 0.5651 0.2983 -0.7692
vn 0.8790 0.4003 -0.2590
vn -0.0000 -0.3537 -0.9353
vn -0.0000 -0.0550 -0.9985
vn 0.5742 -0.1180 -0.8102
vn -0.0000 0.9754 0.2202
vn -0.0000 0.8832 0.4689
vn -0.0000 -0.5975 -0.8019
vn 0.8815 -0.2833 -0.3778
vn -0.0000 -0.9992 -0.0394
vn -0.8815 -0.2833 -0.3778
vn -0.0000 0.2425 -0.9701
vn -0.0000 0.9591 -0.2830
vn 0.4781 0.5016 0.7210
vn 0.9007 0.3603 0.2428
vn 0.5722 0.6976 0.4311
vn 0.6228 0.5913 0.5124
vn 0.0001 0.7885 0.6150
vn 0.9858 0.0782 0.1487
vn 0.9059 0.2915 0.3072
vn 0.9437 0.1573 0.2910
vn 0.9809 -0.1334 0.1413
vn 0.9937 -0.1095 -0.0235
vn -0.4781 0.5016 0.7210
vn -0.3853 0.6525 0.6525
vn -0.6227 0.5913 0.5124
vn -0.3852 0.6526 0.6525
vn -0.9007 0.3603 0.2428
vn -0.9437 0.1573 0.2910
vn -0.9059 0.2915 0.3072
vn -0.9858 0.0782 0.1487
vn -0.9937 -0.1096 -0.0235
vn -0.9809 -0.1334 0.1413
vn 0.5127 0.8439 -0.1578
vn 0.4392 0.6353 -0.6352
vn -0.0000 0.8609 -0.5087
vn 0.9910 0.1179 0.0629
vn 0.8086 0.5574 0.1884
vn 0.9932 -0.1095 0.0391
vn 0.9834 -0.0551 0.1731
vn 0.9476 0.0627 0.3133
vn 0.7543 0.4400 0.4872
vn 0.9646 -0.2274 0.1333
vn 0.8765 -0.3443 -0.3365
vn 0.9252 -0.3607 -0.1176
vn 0.9650 -0.2040 -0.1648
vn 0.9885 -0.1334 0.0706
vn 0.9164 -0.3055 -0.2585
vn 0.9407 -0.2587 -0.2195
vn 0.9221 -0.2128 -0.3231
vn 0.7225 -0.0157 -0.6912
vn 0.3698 0.6530 0.6609
vn 0.1726 0.5022 0.8474
vn 0.3234 0.4575 0.8283
vn 0.9105 0.2276 0.3453
vn 0.8958 0.0629 0.4400
vn 0.3235 0.4575 0.8283
vn 0.5433 0.6772 0.4961
vn 0.5960 -0.1725 -0.7842
vn 0.5180 -0.0000 -0.8554
vn 0.4240 0.0707 -0.9029
vn 0.3771 0.1650 -0.9114
vn -0.0000 0.3768 -0.9263
vn -0.0000 0.2277 -0.9737
vn -0.0000 -0.2037 -0.9790
vn 0.6778 -0.2206 -0.7014
vn 0.8639 -0.2591 -0.4320
vn -0.9861 0.1174 0.1174
vn -0.9910 0.1180 0.0629
vn -0.9905 0.1336 -0.0314
vn 0.9905 0.1336 -0.0315
vn 0.9844 -0.1575 -0.0788
vn -0.3698 0.6531 0.6609
vn -0.0000 0.8121 0.5835
vn -0.6778 -0.2206 -0.7014
vn -0.7225 -0.0157 -0.6912
vn -0.9221 -0.2128 -0.3231
vn -0.9407 -0.2587 -0.2195
vn -0.8790 0.4003 -0.2590
vn -0.9905 0.1336 -0.0315
vn -0.9476 0.0627 0.3133
vn -0.9824 -0.0707 0.1729
vn -0.9932 -0.1095 0.0391
vn -0.5963 0.5100 0.6199
vn -0.7483 0.4490 0.4884
vn -0.6003 0.4345 0.6714
vn -0.0000 0.8610 -0.5087
vn -0.5127 0.8440 -0.1578
vn -0.0000 0.6707 -0.7418
vn -0.4392 0.6353 -0.6353
vn -0.5651 0.2983 -0.7692
vn -0.5742 -0.1180 -0.8102
vn -0.8639 -0.2591 -0.4320
vn -0.9164 -0.3055 -0.2585
vn -0.5127 0.8439 -0.1578
vn -0.3234 0.4575 0.8283
vn -0.1726 0.5022 0.8474
vn -0.8965 0.0472 0.4404
vn -0.9129 0.2283 0.3384
vn -0.3057 -0.8934 -0.3292
vn -0.0000 -0.9353 -0.3537
vn 0.3057 -0.8934 -0.3292
vn -0.3235 0.4575 0.8283
vn 0.9905 0.1336 -0.0314
vn 0.9910 0.1180 0.0629
vn 0.9861 0.1174 0.1174
vn -0.9885 -0.1334 0.0706
vn -0.9650 -0.2040 -0.1648
vn -0.9252 -0.3607 -0.1176
vn -0.8765 -0.3443 -0.3365
vn -0.0000 0.9195 -0.3930
vn -0.9855 0.0631 0.1577
vn -0.9855 0.0630 0.1577
vn -0.0000 -0.7149 0.6992
vn 0.9857 0.0626 0.1565
vn 0.9857 0.0625 0.1565
vn -0.9288 -0.0787 0.3620
vn -0.9361 0.3461 0.0630
vn -0.0000 0.9638 -0.2665
vn 0.9692 -0.1891 -0.1576
vn 0.9761 -0.1574 -0.1496
vn 0.9998 0.0158 0.0079
vn 0.9007 0.3602 0.2428
vn 0.6228 0.5912 0.5124
vn 0.8286 0.3630 0.4261
vn -0.8286 0.3630 0.4261
vn -0.6228 0.5912 0.5124
vn -0.9007 0.3602 0.2428
vn -0.9998 0.0158 0.0079
vn -0.9761 -0.1574 -0.1496
vn -0.9692 -0.1891 -0.1576
vn 0.5434 0.6772 0.4961
vn -0.0000 0.1414 -0.9900
vn -0.5433 0.6773 0.4961
vn -0.0000 0.7915 0.6112
vn 0.3698 0.6531 0.6609
vn 0.5433 0.6773 0.4961
vn -0.3771 0.1650 -0.9114
vn -0.5180 -0.0000 -0.8554
vn -0.4240 0.0707 -0.9029
vn -0.5960 -0.1725 -0.7842
vn -0.7226 0.0079 -0.6912
vn -0.8090 -0.2278 -0.5419
vn -0.9796 -0.1254 -0.1568
vn -0.9536 -0.2207 -0.2049
vn -0.9646 -0.2274 0.1333
vn -0.0000 -0.0079 -1.0000
vn 0.9969 -0.0784 0.0079
vn -0.0000 0.1644 -0.9864
vn -0.9844 -0.1575 -0.0788
vn -0.9969 -0.0785 0.0079
vt 0.406250 0.867188
vt 0.562500 0.859375
vt 0.562500 0.984375
vt 0.748993 0.011719
vt 0.757812 0.125000
vt 0.569305 0.011719
vt 0.827118 0.011719
vt 0.975555 0.011719
vt 0.976562 0.046875
vt 0.679688 0.015625
vt 0.703125 0.109375
vt 0.421875 0.406250
vt 0.420746 0.684143
vt 0.292389 0.667389
vt 0.523438 0.023438
vt 0.625000 0.203125
vt 0.816406 0.284576
vt 0.820312 0.195312
vt 0.679688 0.273438
vt 0.406250 0.984375
vt 0.960938 0.914062
vt 0.782806 0.809357
vt 0.782806 0.918732
vt 0.835938 0.054688
vt 0.905243 0.011719
vt 0.980438 0.110138
vt 0.291656 0.454407
vt 0.226562 0.289062
vt 0.429688 0.257812
vt 0.012299 0.773438
vt 0.012299 0.656250
vt 0.239929 0.658478
vt 0.986786 0.750000
vt 0.986786 0.664062
vt 0.718750 0.742188
vt 0.687500 0.921875
vt 0.750000 0.921875
vt 0.406250 0.750000
vt 0.981415 0.058380
vt 0.773438 0.351562
vt 0.779510 0.223938
vt 0.973083 0.279510
vt 0.981506 0.470154
vt 0.767334 0.482635
vt 0.359375 0.101562
vt 0.312500 0.218750
vt 0.246094 0.036438
vt 0.597656 0.344727
vt 0.783844 0.396698
vt 0.982239 0.453827
vt 0.851562 0.156250
vt 0.523438 0.734375
vt 0.762756 0.671875
vt 0.644958 0.546875
vt 0.762695 0.583984
vt 0.879883 0.572266
vt 0.390625 0.718750
vt 0.398438 0.945312
vt 0.328125 0.812500
vt 0.186371 0.985352
vt 0.986023 0.244629
vt 0.796875 0.257812
vt 0.977844 0.287231
vt 0.980438 0.274200
vt 0.238831 0.623871
vt 0.158844 0.628906
vt 0.180786 0.414062
vt 0.104889 0.542389
vt 0.078125 0.185913
vt 0.032806 0.359375
vt 0.012268 0.915161
vt 0.250000 0.854675
vt 0.328125 0.688599
vt 0.015228 0.359375
vt 0.133545 0.012268
vt 0.015961 0.012268
vt 0.511719 0.366211
vt 0.617188 0.490234
vt 0.880188 0.605469
vt 0.986786 0.578125
vt 0.934357 0.985931
vt 0.133911 0.091492
vt 0.875000 0.609375
vt 0.986786 0.507812
vt 0.562500 0.750000
vt 0.798279 0.623566
vt 0.578125 0.554688
vt 0.585938 0.406250
vt 0.609375 0.250000
vt 0.984894 0.182129
vt 0.018951 0.987579
vt 0.776550 0.673431
vt 0.984192 0.513000
vt 0.012299 0.609375
vt 0.539062 0.398438
vt 0.042969 0.584625
s 1
usemtl m_hair096
f 1/1/1 2/2/2 3/3/3
f 4/4/4 5/5/5 6/6/6
f 7/7/6 8/8/7 9/9/4
f 10/10/8 11/11/9 7/7/10
f 12/12/11 13/13/12 14/14/13
f 15/15/14 16/16/15 17/10/16
f 18/17/17 19/18/18 20/19/19
f 3/3/3 21/20/20 1/1/1
f 22/21/21 23/22/22 24/23/23
f 25/24/24 26/25/25 27/26/26
f 28/27/27 29/28/28 30/29/29
f 31/30/30 32/31/31 33/32/32
f 23/22/22 34/33/33 35/34/34
f 36/35/35 37/36/36 38/37/37
f 38/37/37 39/36/38 36/35/35
f 36/35/35 39/36/38 40/37/39
f 36/35/35 40/37/39 37/36/36
f 2/2/2 1/1/1 41/38/40
f 5/5/5 4/4/4 42/39/41
f 43/16/42 44/10/43 45/11/44
f 45/11/44 44/10/43 7/7/45
f 46/40/46 47/41/47 48/42/48
f 46/40/46 49/43/49 50/44/50
f 51/39/51 52/4/52 53/5/53
f 53/5/53 52/4/52 6/6/6
f 8/8/7 7/7/6 54/9/54
f 11/11/9 10/10/8 55/16/55
f 56/42/56 57/41/57 58/40/58
f 59/44/59 60/43/60 58/40/58
f 61/45/61 62/46/62 63/47/63
f 64/48/64 30/29/29 65/16/65
f 66/44/66 67/49/67 68/50/68
f 27/26/26 69/51/69 25/24/24
f 13/13/12 12/12/11 70/52/70
f 71/53/71 72/54/72 73/55/73
f 73/55/73 72/54/72 66/44/66
f 73/55/73 66/44/66 74/56/74
f 75/57/75 76/58/76 77/59/77
f 77/59/77 76/58/76 78/60/78
f 79/18/79 80/17/80 81/61/81
f 67/49/67 82/62/82 83/63/83
f 83/63/83 82/62/82 69/51/69
f 84/64/84 85/17/25 79/18/79
f 79/18/79 85/17/25 86/19/85
f 87/65/86 88/66/87 89/67/88
f 89/67/88 88/66/87 90/68/89
f 89/67/88 90/68/89 91/69/90
f 91/69/90 90/68/89 92/70/91
f 93/71/92 31/30/30 94/72/93
f 94/72/93 31/30/30 33/32/32
f 94/72/93 33/32/32 95/73/94
f 96/74/95 97/75/96 98/76/97
f 99/77/98 100/78/99 12/12/11
f 14/14/13 28/27/27 12/12/11
f 12/12/11 28/27/27 30/29/29
f 12/12/11 30/29/29 99/77/98
f 99/77/98 30/29/29 64/48/64
f 101/79/100 102/80/101 35/34/34
f 103/72/102 104/60/103 105/59/104
f 105/59/104 104/60/103 106/58/105
f 107/48/96 108/29/106 109/77/107
f 110/50/108 111/49/109 112/44/110
f 113/24/111 114/51/112 115/26/113
f 24/23/23 116/81/114 22/21/21
f 22/21/21 116/81/114 117/23/115
f 22/21/21 117/23/115 118/22/14
f 119/82/116 91/69/90 120/46/117
f 120/46/117 91/69/90 121/28/118
f 120/46/117 121/28/118 108/29/106
f 122/32/119 103/72/102 123/73/120
f 123/73/120 103/72/102 105/59/104
f 123/73/120 105/59/104 124/57/121
f 124/57/121 105/59/104 106/58/105
f 16/16/15 15/15/14 125/45/122
f 126/61/123 127/17/124 19/18/18
f 111/49/109 128/63/125 129/62/126
f 129/62/126 128/63/125 114/51/112
f 130/83/127 131/80/128 132/84/128
f 132/84/128 131/80/128 133/83/129
f 19/18/18 18/17/17 134/64/130
f 135/76/131 136/75/132 137/74/133
f 138/56/134 112/44/110 139/55/135
f 139/55/135 112/44/110 140/54/136
f 139/55/135 140/54/136 141/53/137
f 142/85/138 143/38/138 144/2/139
f 144/2/139 143/38/138 145/1/140
f 144/2/139 145/1/140 146/3/141
f 146/3/141 145/1/140 147/20/141
f 146/3/141 147/20/141 148/2/142
f 148/2/142 147/20/141 149/1/143
f 148/2/142 149/1/143 142/85/138
f 142/85/138 149/1/143 143/38/138
f 21/20/20 3/3/3 150/1/144
f 150/1/144 3/3/3 151/2/145
f 150/1/144 151/2/145 41/38/40
f 41/38/40 151/2/145 152/85/146
f 41/38/40 152/85/146 2/2/2
f 153/86/147 154/87/148 50/44/50
f 50/44/50 154/87/148 155/88/149
f 50/44/50 155/88/149 46/40/46
f 46/40/46 155/88/149 156/89/150
f 46/40/46 156/89/150 47/41/47
f 47/41/47 156/89/150 5/5/151
f 47/41/47 5/5/151 157/90/152
f 158/90/153 53/5/154 57/41/57
f 57/41/57 53/5/154 159/89/155
f 57/41/57 159/89/155 58/40/58
f 58/40/58 159/89/155 160/88/156
f 58/40/58 160/88/156 59/44/59
f 59/44/59 160/88/156 161/87/157
f 59/44/59 161/87/157 162/86/158
f 29/28/28 62/46/62 30/29/29
f 30/29/29 62/46/62 61/45/61
f 30/29/29 61/45/61 65/16/65
f 65/16/65 61/45/61 163/15/22
f 65/16/65 163/15/22 164/10/159
f 165/91/160 93/71/92 78/60/78
f 78/60/78 93/71/92 94/72/93
f 78/60/78 94/72/93 77/59/77
f 77/59/77 94/72/93 95/73/94
f 77/59/77 95/73/94 75/57/75
f 23/22/22 22/21/21 34/33/33
f 34/33/33 22/21/21 118/22/14
f 34/33/33 118/22/14 35/34/34
f 35/34/34 118/22/14 166/92/161
f 35/34/34 166/92/161 101/79/100
f 101/79/100 167/93/162 102/80/101
f 102/80/101 167/93/162 168/79/163
f 102/80/101 168/79/163 35/34/34
f 35/34/34 168/79/163 169/92/164
f 35/34/34 169/92/164 23/22/22
f 170/68/165 171/66/166 172/67/167
f 172/67/167 171/66/166 173/65/168
f 172/67/167 173/65/168 174/27/169
f 174/27/169 173/65/168 175/14/170
f 174/27/169 175/14/170 176/12/171
f 176/12/171 175/14/170 177/13/172
f 176/12/171 177/13/172 178/52/173
f 165/91/160 104/60/103 93/71/92
f 93/71/92 104/60/103 103/72/102
f 93/71/92 103/72/102 31/30/30
f 31/30/30 103/72/102 122/32/119
f 31/30/30 122/32/119 32/31/31
f 32/31/31 122/32/119 179/94/174
f 32/31/31 179/94/174 33/32/32
f 26/25/25 25/24/24 164/10/159
f 164/10/159 25/24/24 69/51/69
f 164/10/159 69/51/69 65/16/65
f 65/16/65 69/51/69 82/62/82
f 65/16/65 82/62/82 64/48/64
f 64/48/64 82/62/82 67/49/67
f 64/48/64 67/49/67 180/95/175
f 180/95/175 67/49/67 66/44/66
f 180/95/175 66/44/66 12/12/11
f 12/12/11 66/44/66 72/54/72
f 12/12/11 72/54/72 70/52/70
f 107/48/96 16/16/15 108/29/106
f 108/29/106 16/16/15 125/45/122
f 108/29/106 125/45/122 120/46/117
f 120/46/117 125/45/122 63/47/63
f 120/46/117 63/47/63 119/82/116
f 119/82/116 63/47/63 62/46/62
f 119/82/116 62/46/62 91/69/90
f 91/69/90 62/46/62 29/28/28
f 91/69/90 29/28/28 89/67/88
f 89/67/88 29/28/28 28/27/27
f 89/67/88 28/27/27 87/65/86
f 87/65/86 28/27/27 14/14/13
f 90/68/89 181/96/176 92/70/91
f 92/70/91 181/96/176 170/68/165
f 92/70/91 170/68/165 91/69/90
f 91/69/90 170/68/165 172/67/167
f 91/69/90 172/67/167 121/28/118
f 121/28/118 172/67/167 174/27/169
f 121/28/118 174/27/169 108/29/106
f 108/29/106 174/27/169 176/12/171
f 108/29/106 176/12/171 109/77/107
f 109/77/107 176/12/171 182/78/177
f 178/52/173 140/54/136 176/12/171
f 176/12/171 140/54/136 112/44/110
f 176/12/171 112/44/110 183/95/178
f 183/95/178 112/44/110 111/49/109
f 183/95/178 111/49/109 107/48/96
f 107/48/96 111/49/109 129/62/126
f 107/48/96 129/62/126 16/16/15
f 16/16/15 129/62/126 114/51/112
f 16/16/15 114/51/112 17/10/16
f 17/10/16 114/51/112 113/24/111
f 17/10/16 113/24/111 184/25/17
f 184/25/17 113/24/111 115/26/113
o editpl_m-0000-1807
v 0.000000 52.246933 -11.067834
v 0.000000 49.081913 -9.707146
v 1.549659 50.646748 -10.716640
v -1.549659 50.646748 -10.716640
v 0.000000 49.081913 -9.707146
v 1.690537 46.932270 -16.816202
v -0.002709 45.377071 -15.963623
v -0.002709 48.381432 -17.522326
v -1.698665 46.932270 -16.816202
v 0.000000 49.081913 -9.707146
v 1.690537 46.932270 -16.816202
v 1.549659 50.646748 -10.716640
v -0.002709 48.381432 -17.522326
v 0.000000 52.246933 -11.067834
v -1.698665 46.932270 -16.816202
v -1.549659 50.646748 -10.716640
v -0.002709 45.377071 -15.963623
vn -0.0000 0.8815 0.4722
vn -0.0000 -0.1414 0.9899
vn 0.8563 0.2278 0.4634
vn -0.8563 0.2278 0.4635
vn -0.0001 -0.1414 0.9899
vn 0.8203 -0.2366 -0.5206
vn -0.0000 -0.8865 -0.4628
vn -0.0000 0.1173 -0.9931
vn -0.8203 -0.2366 -0.5206
vn -0.0000 -0.1414 0.9900
vn 0.8204 -0.2366 -0.5206
vn 0.8563 0.2278 0.4635
vn -0.8203 -0.2367 -0.5206
vn 0.0001 -0.8864 -0.4628
vt 0.665344 0.734375
vt 0.585938 0.734375
vt 0.632812 0.726562
vt 0.632812 0.992188
vt 0.632812 0.734375
vt 0.585938 0.992188
vt 0.665344 0.992188
s 1
usemtl m_hair096
f 185/97/179 186/98/180 187/99/181
f 185/97/179 188/98/182 189/99/183
f 190/98/184 191/97/185 192/99/186
f 192/99/186 191/97/185 193/98/187
f 194/97/188 195/100/189 196/101/190
f 196/101/190 195/100/189 197/102/186
f 196/101/190 197/102/186 198/98/179
f 198/98/179 197/102/186 199/100/191
f 198/98/179 199/100/191 200/101/182
f 200/101/182 199/100/191 201/103/192
f 200/101/182 201/103/192 194/97/188
f 194/97/188 201/103/192 195/100/189
