mtllib m_hair021.mtl
o editpl_m-0000-1812
v 3.692632 61.176468 8.294890
v 2.798598 57.645138 10.513389
v 3.933750 57.767242 9.850603
v -4.150485 57.767242 9.850603
v -3.692632 61.176468 8.294144
v -7.303987 58.708714 6.544901
v -7.615545 57.256340 0.030632
v -6.702546 56.208832 3.105444
v -6.363897 57.240273 4.919696
v 9.208551 58.862949 -1.963700
v 7.908138 61.292141 2.260337
v 8.710059 59.107155 2.389606
v 6.932828 54.319458 -5.752855
v 7.585744 56.906097 -5.921727
v 7.840408 57.044266 -2.722128
v 4.164031 57.429852 -8.808240
v 3.784744 60.559528 -8.631896
v 7.060160 61.337128 -5.113982
v 7.612835 57.256340 0.030632
v 6.363897 57.240273 4.919696
v 6.705255 56.208832 3.105444
v 2.197156 57.539104 10.858604
v 2.153809 61.327488 9.043605
v 0.000000 61.478508 9.565166
v 3.248324 63.454639 6.564327
v -3.248324 63.454639 6.564327
v 0.000000 63.551037 7.599975
v 0.000000 64.907013 5.065403
v 0.000000 65.993080 0.579091
v 0.000000 66.034851 -2.701954
v -1.598425 66.144104 0.616452
v -1.576751 66.086266 -2.859618
v -5.014718 65.215485 0.146450
v 6.886771 53.728226 2.403804
v 7.550524 54.949249 -3.247424
v 7.087252 55.579041 -0.202501
v 7.179364 54.235912 -2.047388
v -7.840408 57.044266 -2.722128
v -7.667019 61.382111 0.203986
v -7.601999 59.887966 -5.328434
v -2.999078 65.103020 3.013535
v -5.364204 63.438572 4.340599
v -6.705255 61.153973 5.561557
v -7.377136 60.996525 -5.881378
v -5.123086 60.723400 -9.037637
v -8.428303 58.355259 -6.517262
v -5.941263 57.484478 -10.065813
v 5.941263 57.484478 -10.065813
v 0.000000 56.857899 -12.366505
v 0.000000 60.260700 -11.141063
v 0.000000 57.053905 11.867352
v 7.601999 59.887966 -5.328434
v -7.060160 61.337128 -5.113982
v -3.784744 60.559528 -8.631896
v -4.164031 57.429852 -8.808240
v 0.000000 60.029346 -10.675545
v 0.000000 57.365589 -11.001333
v -3.960842 63.345390 -7.566360
v 0.000000 62.934097 -9.440389
v 7.667019 61.382111 0.203986
v 5.854568 60.861572 5.333655
v 6.488520 51.453266 -2.432207
v 5.415679 49.991253 -3.541829
v 6.282621 52.169815 -3.573213
v 5.039101 49.326115 -5.332170
v 5.583649 51.674980 -5.594444
v 4.093592 48.644913 -7.390015
v -6.886771 53.728226 2.403804
v -7.087252 55.579041 -0.202501
v -6.808205 54.165222 0.479712
v 0.000000 64.977707 -7.296613
v -3.749525 65.369713 -3.413308
v -7.079124 63.499622 -1.659582
v -6.713383 63.499622 1.786599
v -8.574599 61.150761 -1.806784
v -7.908138 61.292141 2.260337
v 6.079432 63.499622 -4.749339
v 3.749525 65.369713 -3.413308
v 7.079124 63.499622 -1.659582
v 5.014718 65.215485 0.146450
v 6.713383 63.499622 1.786599
v 5.364204 63.438572 4.340599
v 6.372025 61.153973 5.561557
v 7.092670 58.708714 6.544901
v 2.999078 65.103020 3.013535
v 8.574599 61.150761 -1.806784
v 8.428303 58.355259 -6.517262
v 7.377136 60.996525 -5.881378
v 5.123086 60.723400 -9.037637
v 3.960842 63.345390 -7.566360
v -6.079432 63.499622 -4.749339
v 6.808205 54.165222 0.499139
v -7.550524 54.949249 -3.247424
v -7.585744 56.906097 -5.921727
v 3.754943 50.839542 -7.743450
v 0.000000 50.521435 -9.386588
v 0.000000 48.053680 -9.362677
v -4.093592 48.644913 -7.390015
v -6.358479 51.453266 -2.432207
v -7.179364 54.235912 -2.047388
v -5.854568 60.861572 5.333655
v -8.710059 59.107155 2.389606
v 1.598425 66.144104 0.616452
v 1.576751 66.105545 -2.859618
v 4.204669 54.152370 -8.445838
v 0.000000 52.635731 -9.926081
v -3.754943 50.839542 -7.743450
v -5.583649 51.674980 -5.594444
v -5.039101 49.326115 -5.332170
v -5.415679 49.991253 -3.541829
v 0.000000 54.464054 -10.712157
v -4.204669 54.152370 -8.445838
v -6.932828 54.319458 -5.752855
v -6.155289 52.169815 -3.573213
v -9.208551 58.862949 -1.963700
vn 0.5256 0.4628 0.7138
vn 0.4316 0.4002 0.8084
vn 0.5279 0.3861 0.7565
vn -0.4238 0.4238 0.8005
vn -0.4860 0.4938 0.7211
vn -0.7170 0.3939 0.5751
vn -0.9826 -0.1100 0.1494
vn -0.9639 -0.0627 0.2586
vn -0.9611 -0.0158 0.2757
vn 0.9569 0.2902 0.0078
vn 0.8903 0.3939 0.2285
vn 0.8863 0.3608 0.2902
vn 0.8552 -0.3295 -0.4001
vn 0.8533 -0.0704 -0.5166
vn 0.9975 -0.0707 -0.0000
vn 0.5653 0.0314 -0.8243
vn 0.5665 0.1495 -0.8104
vn 0.6611 0.1968 -0.7241
vn 0.9826 -0.1100 0.1493
vn 0.9612 -0.0079 0.2758
vn 0.9644 -0.0549 0.2587
vn 0.2665 0.4310 0.8621
vn 0.3231 0.5358 0.7801
vn -0.0236 0.5743 0.8183
vn 0.3626 0.7331 0.5754
vn -0.3616 0.7468 0.5581
vn -0.0000 0.7953 0.6063
vn -0.0000 0.9327 0.3605
vn -0.0000 0.9931 0.1173
vn -0.0000 0.9975 -0.0707
vn -0.0785 0.9890 0.1256
vn -0.1414 0.9819 -0.1257
vn -0.4390 0.8936 0.0941
vn 0.9834 -0.1809 0.0158
vn 0.9610 -0.2756 -0.0236
vn 0.9717 -0.2351 0.0235
vn 0.9612 -0.2206 0.1655
vn -0.9975 -0.0707 -0.0000
vn -0.9874 0.0235 0.1567
vn -0.8982 0.1103 -0.4255
vn -0.2913 0.8976 0.3307
vn -0.5279 0.7564 0.3861
vn -0.7301 0.5024 0.4632
vn -0.7613 0.5101 -0.4003
vn -0.5522 0.4733 -0.6863
vn -0.8317 0.3766 -0.4080
vn -0.4635 0.3613 -0.8091
vn 0.4635 0.3613 -0.8091
vn -0.0000 0.3374 -0.9414
vn -0.0000 0.4628 -0.8865
vn -0.0157 0.4628 0.8863
vn 0.8982 0.1103 -0.4255
vn -0.6611 0.1968 -0.7240
vn -0.5665 0.1495 -0.8104
vn -0.5653 0.0314 -0.8243
vn -0.0000 0.1173 -0.9931
vn -0.0000 0.0079 -1.0000
vn -0.4257 0.6780 -0.5992
vn -0.0000 0.6371 -0.7708
vn 0.9874 0.0235 0.1567
vn 0.9370 0.0866 0.3386
vn 0.9213 -0.3307 -0.2047
vn 0.9055 -0.3228 -0.2755
vn 0.8966 -0.3697 -0.2438
vn 0.9279 -0.2752 -0.2516
vn 0.8795 -0.2905 -0.3769
vn 0.6682 -0.0865 -0.7389
vn -0.9847 -0.1733 0.0158
vn -0.9717 -0.2351 0.0235
vn -0.9679 -0.2361 -0.0866
vn -0.0000 0.9066 -0.4221
vn -0.4011 0.8808 -0.2516
vn -0.7215 0.6823 -0.1177
vn -0.7474 0.6295 0.2124
vn -0.9004 0.4306 -0.0626
vn -0.8817 0.4172 0.2204
vn 0.6291 0.6999 -0.3382
vn 0.4076 0.8780 -0.2508
vn 0.7215 0.6823 -0.1177
vn 0.4386 0.8929 0.1018
vn 0.7556 0.6140 0.2283
vn 0.5422 0.7386 0.4007
vn 0.7331 0.4809 0.4809
vn 0.7147 0.4006 0.5734
vn 0.2913 0.8976 0.3307
vn 0.9038 0.4244 -0.0550
vn 0.8317 0.3766 -0.4080
vn 0.7613 0.5101 -0.4003
vn 0.5522 0.4733 -0.6863
vn 0.4257 0.6780 -0.5992
vn -0.6291 0.6999 -0.3382
vn 0.9672 -0.2359 -0.0944
vn -0.9567 -0.2901 -0.0235
vn -0.8533 -0.0704 -0.5166
vn 0.5910 -0.2049 -0.7802
vn -0.0000 -0.1173 -0.9931
vn -0.0000 -0.0079 -1.0000
vn -0.6682 -0.0865 -0.7389
vn -0.9173 -0.3371 -0.2117
vn -0.9583 -0.2435 0.1493
vn -0.9370 0.0866 0.3386
vn -0.9070 0.3312 0.2602
vn 0.0785 0.9890 0.1256
vn 0.1337 0.9830 -0.1258
vn 0.5592 -0.2048 -0.8033
vn -0.0000 -0.2974 -0.9548
vn -0.5910 -0.2049 -0.7802
vn -0.8883 -0.2830 -0.3616
vn -0.9346 -0.2592 -0.2435
vn -0.9238 -0.2897 -0.2505
vn -0.0000 -0.1961 -0.9806
vn -0.5592 -0.2048 -0.8033
vn -0.8582 -0.3385 -0.3858
vn -0.8999 -0.3710 -0.2290
vn -0.9565 0.2901 -0.0314
vt 0.867188 0.460938
vt 0.929688 0.578125
vt 0.867188 0.578125
vt 0.750000 0.578125
vt 0.707031 0.700500
vt 0.898438 0.793518
vt 0.963165 0.772308
vt 0.453125 0.578125
vt 0.609375 0.476562
vt 0.609375 0.578125
vt 0.346863 0.792175
vt 0.349976 0.704681
vt 0.498199 0.694305
vt 0.179688 0.687500
vt 0.162109 0.623047
vt 0.346710 0.600250
vt 0.921875 0.460938
vt 0.976562 0.453125
vt 0.859375 0.328125
vt 0.976562 0.328125
vt 0.953125 0.070312
vt 0.656250 0.023438
vt 0.257812 0.023438
vt 0.671875 0.070312
vt 0.296875 0.109375
vt 0.546875 0.195312
vt 0.849304 0.869415
vt 0.499146 0.754852
vt 0.687500 0.776550
vt 0.591492 0.786804
vt 0.684875 0.618469
vt 0.333984 0.646484
vt 0.750000 0.140625
vt 0.742188 0.343750
vt 0.742188 0.476562
vt 0.304688 0.476562
vt 0.156250 0.476562
vt 0.304688 0.578125
vt 0.156250 0.578125
vt 0.015625 0.578125
vt 0.015625 0.476562
vt 0.976562 0.578125
vt 0.035156 0.623047
vt 0.028625 0.697906
vt 0.156250 0.335938
vt 0.015625 0.335938
vt 0.986328 0.592773
vt 0.598877 0.840302
vt 0.515961 0.895630
vt 0.513977 0.842041
vt 0.351562 0.952148
vt 0.345428 0.872192
vt 0.245117 0.981445
vt 0.704224 0.879456
vt 0.031250 0.140625
vt 0.312500 0.195312
vt 0.453125 0.343750
vt 0.593750 0.328125
vt 0.445312 0.476562
vt 0.312500 0.351562
vt 0.196655 0.896820
vt 0.037750 0.911438
vt 0.035156 0.985596
vt 0.198425 0.757812
vt 0.031250 0.851562
vt 0.027344 0.769531
s 1
usemtl m_hair099
f 1/1/1 2/2/2 3/3/3
f 4/3/4 5/1/5 6/4/6
f 7/5/7 8/6/8 9/7/9
f 10/8/10 11/9/11 12/10/12
f 13/11/13 14/12/14 15/13/15
f 16/14/16 17/15/17 18/16/18
f 19/5/19 20/7/20 21/6/21
f 22/2/22 23/17/23 24/18/24
f 2/2/2 1/1/1 23/17/23
f 23/17/23 1/1/1 25/19/25
f 23/17/23 25/19/25 24/18/24
f 26/19/26 27/20/27 28/21/28
f 29/22/29 30/23/30 31/24/31
f 31/24/31 30/23/30 32/25/32
f 31/24/31 32/25/32 33/26/33
f 19/5/19 21/6/21 34/27/34
f 35/28/35 36/29/36 37/30/37
f 38/13/38 39/31/39 40/32/40
f 28/21/28 41/33/41 26/19/26
f 26/19/26 41/33/41 42/34/42
f 26/19/26 42/34/42 43/35/43
f 44/36/44 45/37/45 46/38/46
f 46/38/46 45/37/45 47/39/47
f 48/39/48 49/40/49 50/41/50
f 5/1/5 4/3/4 24/18/24
f 24/18/24 4/3/4 51/42/51
f 24/18/24 51/42/51 22/2/22
f 52/32/52 16/14/16 18/16/18
f 40/32/40 53/16/53 54/15/54
f 55/14/55 56/43/56 57/44/57
f 57/44/57 56/43/56 17/15/17
f 58/45/58 59/46/59 50/41/50
f 20/7/20 60/31/60 61/47/61
f 62/48/62 63/49/63 64/50/64
f 64/50/64 63/49/63 65/51/65
f 64/50/64 65/51/65 66/52/66
f 66/52/66 65/51/65 67/53/67
f 8/6/8 7/5/7 68/27/68
f 68/27/68 7/5/7 69/29/69
f 68/27/68 69/29/69 70/54/70
f 30/23/30 71/55/71 32/25/32
f 32/25/32 71/55/71 72/56/72
f 32/25/32 72/56/72 33/26/33
f 33/26/33 72/56/72 73/57/73
f 33/26/33 73/57/73 74/58/74
f 74/58/74 73/57/73 75/59/75
f 74/58/74 75/59/75 76/9/76
f 77/60/77 78/56/78 79/57/79
f 79/57/79 78/56/78 80/26/80
f 79/57/79 80/26/80 81/58/81
f 81/58/81 80/26/80 82/34/82
f 81/58/81 82/34/82 83/35/83
f 3/3/3 84/4/84 1/1/1
f 1/1/1 84/4/84 83/35/83
f 1/1/1 83/35/83 25/19/25
f 25/19/25 83/35/83 82/34/82
f 25/19/25 82/34/82 85/33/85
f 85/33/85 82/34/82 80/26/80
f 11/9/11 10/8/10 86/59/86
f 86/59/86 10/8/10 87/38/87
f 86/59/86 87/38/87 88/36/88
f 88/36/88 87/38/87 89/37/89
f 88/36/88 89/37/89 90/45/90
f 49/40/49 47/39/47 50/41/50
f 50/41/50 47/39/47 45/37/45
f 50/41/50 45/37/45 58/45/58
f 58/45/58 45/37/45 44/36/44
f 58/45/58 44/36/44 91/60/91
f 13/11/13 15/13/15 35/28/35
f 35/28/35 15/13/15 19/5/19
f 35/28/35 19/5/19 36/29/36
f 36/29/36 19/5/19 34/27/34
f 36/29/36 34/27/34 92/54/92
f 93/28/93 38/13/38 94/12/94
f 94/12/94 38/13/38 40/32/40
f 94/12/94 40/32/40 55/14/55
f 55/14/55 40/32/40 54/15/54
f 55/14/55 54/15/54 56/43/56
f 37/30/37 62/48/62 35/28/35
f 35/28/35 62/48/62 64/50/64
f 35/28/35 64/50/64 13/11/13
f 13/11/13 64/50/64 66/52/66
f 13/11/13 66/52/66 95/61/95
f 95/61/95 66/52/66 67/53/67
f 95/61/95 67/53/67 96/62/96
f 96/62/96 67/53/67 97/63/97
f 96/62/96 97/63/97 98/53/98
f 99/48/99 100/30/100 93/28/93
f 93/28/93 100/30/100 69/29/69
f 93/28/93 69/29/69 38/13/38
f 38/13/38 69/29/69 7/5/7
f 38/13/38 7/5/7 39/31/39
f 39/31/39 7/5/7 9/7/9
f 39/31/39 9/7/9 101/47/101
f 102/10/102 6/4/6 43/35/43
f 43/35/43 6/4/6 5/1/5
f 43/35/43 5/1/5 26/19/26
f 26/19/26 5/1/5 24/18/24
f 26/19/26 24/18/24 27/20/27
f 27/20/27 24/18/24 25/19/25
f 27/20/27 25/19/25 28/21/28
f 28/21/28 25/19/25 85/33/85
f 28/21/28 85/33/85 103/24/103
f 103/24/103 85/33/85 80/26/80
f 103/24/103 80/26/80 104/25/104
f 104/25/104 80/26/80 78/56/78
f 46/38/46 75/59/75 44/36/44
f 44/36/44 75/59/75 73/57/73
f 44/36/44 73/57/73 91/60/91
f 91/60/91 73/57/73 72/56/72
f 91/60/91 72/56/72 58/45/58
f 58/45/58 72/56/72 71/55/71
f 58/45/58 71/55/71 59/46/59
f 59/46/59 71/55/71 90/45/90
f 59/46/59 90/45/90 50/41/50
f 50/41/50 90/45/90 89/37/89
f 50/41/50 89/37/89 48/39/48
f 48/39/48 89/37/89 87/38/87
f 14/12/14 13/11/13 105/64/105
f 105/64/105 13/11/13 95/61/95
f 105/64/105 95/61/95 106/65/106
f 106/65/106 95/61/95 96/62/96
f 106/65/106 96/62/96 107/61/107
f 107/61/107 96/62/96 98/53/98
f 107/61/107 98/53/98 108/52/108
f 108/52/108 98/53/98 109/51/109
f 108/52/108 109/51/109 110/49/110
f 17/15/17 16/14/16 57/44/57
f 57/44/57 16/14/16 111/66/111
f 57/44/57 111/66/111 55/14/55
f 55/14/55 111/66/111 112/64/112
f 55/14/55 112/64/112 94/12/94
f 94/12/94 112/64/112 113/11/113
f 94/12/94 113/11/113 93/28/93
f 93/28/93 113/11/113 114/50/114
f 93/28/93 114/50/114 99/48/99
f 20/7/20 19/5/19 60/31/60
f 60/31/60 19/5/19 15/13/15
f 60/31/60 15/13/15 52/32/52
f 52/32/52 15/13/15 14/12/14
f 52/32/52 14/12/14 16/14/16
f 16/14/16 14/12/14 105/64/105
f 16/14/16 105/64/105 111/66/111
f 111/66/111 105/64/105 106/65/106
f 111/66/111 106/65/106 112/64/112
f 112/64/112 106/65/106 107/61/107
f 112/64/112 107/61/107 113/11/113
f 113/11/113 107/61/107 108/52/108
f 113/11/113 108/52/108 114/50/114
f 114/50/114 108/52/108 110/49/110
f 114/50/114 110/49/110 99/48/99
f 46/38/46 115/8/115 75/59/75
f 75/59/75 115/8/115 102/10/102
f 75/59/75 102/10/102 76/9/76
f 76/9/76 102/10/102 43/35/43
f 76/9/76 43/35/43 74/58/74
f 74/58/74 43/35/43 42/34/42
f 74/58/74 42/34/42 33/26/33
f 33/26/33 42/34/42 41/33/41
f 33/26/33 41/33/41 31/24/31
f 31/24/31 41/33/41 28/21/28
f 31/24/31 28/21/28 29/22/29
f 29/22/29 28/21/28 103/24/103
f 29/22/29 103/24/103 30/23/30
f 30/23/30 103/24/103 104/25/104
f 30/23/30 104/25/104 71/55/71
f 71/55/71 104/25/104 78/56/78
f 71/55/71 78/56/78 90/45/90
f 90/45/90 78/56/78 77/60/77
f 90/45/90 77/60/77 88/36/88
f 88/36/88 77/60/77 79/57/79
f 88/36/88 79/57/79 86/59/86
f 86/59/86 79/57/79 81/58/81
f 86/59/86 81/58/81 11/9/11
f 11/9/11 81/58/81 83/35/83
f 11/9/11 83/35/83 12/10/12
f 12/10/12 83/35/83 84/4/84
