mtllib m_hair018.mtl
o editpl_m-0000-1842
v 6.480392 72.136757 -7.655279
v 7.645346 74.867989 -4.900278
v 7.943357 69.845726 -4.971263
v -5.843732 52.896004 -5.428561
v -5.987319 55.579041 -6.512031
v -4.123393 55.534054 -8.667762
v 3.714305 75.006157 8.774606
v 0.000000 76.918022 11.016266
v 0.000000 75.144325 11.214280
v 3.768489 58.946491 -8.868765
v 0.000000 63.509262 -9.365666
v 4.261562 63.454639 -7.616424
v 3.196849 69.540474 9.269265
v 2.858200 63.313255 9.225927
v 4.873840 69.289841 8.069229
v 3.237487 62.580643 8.636371
v 0.000000 58.695862 9.988092
v 2.072533 59.492741 9.259552
v 4.028572 61.639172 8.289660
v 4.145067 60.289619 7.956399
v 5.106831 55.624023 -9.951487
v 5.543011 58.924000 -9.458322
v 8.235950 59.052528 -5.504778
v 5.740782 45.271034 -11.672336
v 3.110155 43.757610 -14.087351
v 4.304909 50.354347 -10.440916
v 0.000000 49.470711 -12.792418
v 0.000000 52.979546 -11.514672
v 3.765780 54.129879 -10.174906
v 6.103814 58.843670 -6.219121
v 6.228437 55.543694 -7.157629
v 7.333788 58.316704 -3.370716
v 5.179979 55.167747 -7.568601
v 6.615852 55.614384 -2.307421
v 6.133615 51.408283 -7.550667
v 6.756730 52.372250 -3.736107
v 6.867807 46.292839 -8.443596
v 6.428918 46.707344 -5.380738
v 6.033375 46.540257 -3.597124
v 6.084850 49.052994 -4.949593
v 7.528850 50.637112 -3.562004
v 7.024940 54.100960 -1.788103
v 6.721511 50.171192 -1.881505
v 6.163417 45.132866 -1.522092
v 5.729946 68.974945 6.029317
v 5.984610 64.701370 6.037537
v 7.387972 68.547592 3.386398
v 6.331387 63.837009 4.886070
v 6.353060 51.099812 -4.939879
v 6.897608 55.148468 -4.318939
v 6.745893 74.803726 4.138848
v 0.000000 76.702736 0.056783
v 5.865405 74.755524 6.816140
v 3.633029 75.006157 8.598261
v 8.390374 74.832642 -0.230897
v 7.477376 74.867989 -4.780723
v 4.640850 75.006157 -8.672247
v 4.743799 75.006157 -8.877732
v 7.325661 66.250137 -4.374981
v 7.913556 65.893471 -0.033630
v 7.471957 63.939835 -0.041102
v -4.521645 68.688972 -7.895884
v 0.000000 75.144325 -10.394590
v 0.000000 68.386925 -9.545000
v 4.521645 68.688972 -7.895884
v -7.580325 55.954987 -0.834649
v -7.333788 58.316704 -3.370716
v -7.550524 50.412186 -2.898472
v -8.235950 59.052528 -5.504778
v -5.543011 58.924000 -9.458322
v -5.106831 55.624023 -9.951487
v -7.813316 49.975185 -6.227340
v -6.228437 55.543694 -7.157629
v -6.539995 49.461071 -9.154950
v -3.765780 54.129879 -10.174906
v -3.996061 48.500320 -12.235740
v -6.756730 52.372250 -3.736107
v -6.615852 55.614384 -2.307421
v -6.133615 51.408283 -7.550667
v -5.179979 55.167747 -7.568601
v -4.304909 50.354347 -10.440916
v 0.000000 76.918022 11.016266
v -3.651994 76.606339 8.597513
v 0.000000 75.144325 11.214280
v -7.528850 50.637112 -3.562004
v -6.084850 49.052994 -4.949593
v -6.033375 46.540257 -3.597124
v 1.788068 63.779175 9.663052
v 0.000000 64.315781 10.630701
v -1.788068 63.779175 9.663052
v -2.858200 63.313255 9.225927
v -6.163417 45.132866 -1.522092
v -6.721511 50.171192 -1.881505
v -7.024940 54.100960 -1.788103
v -3.237487 62.580643 8.636371
v -4.028572 61.639172 8.289660
v -2.072533 59.492741 9.259552
v -4.145067 60.289619 7.956399
v 0.000000 50.450745 -9.100403
v -3.619483 51.369724 -7.453529
v -6.897608 55.148468 -4.318939
v -6.353060 51.099812 -4.939879
v -7.217293 55.614384 -2.307421
v -6.987012 52.979546 -3.127869
v -7.038486 54.891411 -0.759927
v -5.865405 74.755524 6.816140
v -3.633029 75.006157 8.598261
v 0.000000 75.144325 10.985630
v -7.477376 74.867989 -4.780723
v -8.390374 74.832642 -0.230897
v -6.745893 74.803726 4.138848
v 0.000000 75.144325 -10.156975
v -4.640850 75.006157 -8.672247
v -4.743799 75.006157 -8.877732
v -6.480392 72.136757 -7.655279
v -7.645346 74.867989 -4.900278
v -7.943357 69.845726 -4.971263
v -7.471957 63.939835 -0.041102
v -7.913556 65.893471 -0.033630
v -7.325661 66.250137 -4.374981
v 6.824460 57.474838 3.278052
v 7.035777 54.174862 2.309655
v 8.119455 58.978626 -0.434139
v 7.702239 55.797539 -1.483984
v 6.862389 55.733273 -5.904541
v 6.959920 62.188629 -5.386718
v 7.320242 62.105087 0.032125
v 6.258238 60.263912 5.049711
v 7.176655 62.683468 -4.118684
v 7.377136 62.201485 -0.048574
v 7.580325 55.954987 -0.834649
v 6.927409 76.394272 3.716669
v 8.577309 74.832642 -0.249578
v 8.244078 76.256104 -0.747227
v 7.377136 76.185410 -5.300788
v 4.342838 76.256104 -9.176620
v 6.372025 61.690582 4.171727
v 6.661908 63.065838 4.262141
v 7.320242 67.618973 1.232909
v 3.651994 76.606339 8.597513
v 5.995447 74.755524 6.952881
v 6.894899 74.803726 4.216559
v 6.987012 52.979546 -3.127869
v 5.903334 48.452122 -3.813070
v 5.843732 52.896004 -5.428561
v 4.619176 46.414940 -7.182287
v 3.619483 51.369724 -7.453529
v 2.646883 45.881546 -9.351469
v -6.862389 55.733273 -5.904541
v -7.702239 55.797539 -1.483984
v -8.119455 58.978626 -0.434139
v -7.035777 54.174862 2.309655
v -6.824460 57.474838 3.278052
v -6.258238 60.263912 5.049711
v -7.320242 62.105087 0.032125
v -6.959920 62.188629 -5.386718
v 0.000000 54.926758 -10.224222
v -7.377136 62.201485 -0.048574
v -7.176655 62.683468 -4.118684
v -6.103814 58.843670 -6.219121
v -4.261562 63.454639 -7.616424
v -3.768489 58.946491 -8.868765
v 0.000000 58.763340 -9.965685
v 7.550524 50.412186 -2.898472
v 7.813316 49.975185 -6.227340
v 6.539995 49.461071 -9.154950
v 3.996061 48.500320 -12.235740
v 0.000000 47.369267 -14.344396
v 0.000000 41.032799 -16.479204
v -3.110155 43.757610 -14.087351
v -5.740782 45.271034 -11.672336
v -6.867807 46.292839 -8.443596
v -6.428918 46.707344 -5.380738
v 0.000000 55.521202 -10.090469
v 4.123393 55.534054 -8.667762
v 5.987319 55.579041 -6.512031
v 7.217293 55.614384 -2.307421
v 7.038486 54.891411 -0.759927
v 0.000000 45.910465 -10.082998
v -2.646883 45.881546 -9.351469
v -4.619176 46.414940 -7.182287
v -5.903334 48.452122 -3.813070
v 0.000000 76.500305 -10.776420
v -4.342838 76.256104 -9.176620
v -7.377136 76.185410 -5.300788
v -8.577309 74.832642 -0.249578
v -8.244078 76.256104 -0.747227
v -6.894899 74.803726 4.216559
v -6.927409 76.394272 3.716669
v -5.995447 74.755524 6.952881
v -3.714305 75.006157 8.774606
v -5.984610 64.701370 6.037537
v -6.331387 63.837009 4.886070
v -6.661908 63.065838 4.262141
v -5.304602 60.851933 6.022592
v -6.372025 61.690582 4.171727
v -6.185090 59.666252 4.727660
v -6.575214 57.423428 3.559755
v -6.745893 55.000660 2.781151
v -7.108925 52.783539 0.575356
v -6.781113 52.709637 1.981625
v -7.320242 67.618973 1.232909
v -7.387972 68.547592 3.386398
v -5.729946 68.974945 6.029317
v -4.873840 69.289841 8.069229
v -3.196849 69.540474 9.269265
v 0.000000 69.816811 11.069320
v 6.781113 52.709637 1.981625
v 7.108925 52.783539 0.575356
v 6.745893 55.000660 2.781151
v 6.575214 57.423428 3.559755
v 6.185090 59.666252 4.727660
v 5.304602 60.851933 6.022592
vn 0.7280 -0.0783 -0.6811
vn 0.9654 0.0706 -0.2512
vn 0.9511 -0.0786 -0.2987
vn -0.8698 -0.0862 -0.4858
vn -0.8630 -0.2197 -0.4550
vn -0.5176 -0.2588 -0.8156
vn 0.5789 0.0548 0.8136
vn -0.0000 0.1173 0.9931
vn -0.0000 0.0550 0.9985
vn 0.4549 0.1882 -0.8704
vn -0.0000 0.0941 -0.9956
vn 0.6225 0.0630 -0.7801
vn 0.5121 -0.0158 0.8588
vn 0.5482 -0.1018 0.8301
vn 0.7717 -0.0866 0.6300
vn 0.6779 -0.0552 0.7331
vn -0.0000 -0.0550 0.9985
vn 0.4250 0.0158 0.9051
vn 0.6199 -0.0078 0.7846
vn 0.7949 -0.1023 0.5981
vn 0.8647 -0.1729 -0.4717
vn 0.8157 0.1569 -0.5569
vn 0.9677 0.0157 -0.2518
vn 0.7418 0.2999 -0.5998
vn 0.4092 0.3699 -0.8341
vn 0.5753 0.3468 -0.7408
vn -0.0000 0.4250 -0.9052
vn -0.0000 0.3304 -0.9439
vn 0.5679 0.2603 -0.7809
vn 0.8102 0.1180 -0.5742
vn 0.8324 0.1963 -0.5183
vn 0.9820 0.0550 -0.1807
vn 0.6676 0.3298 -0.6675
vn 0.9569 0.1804 -0.2275
vn 0.9019 0.2118 -0.3765
vn 0.9950 0.0627 -0.0784
vn 0.9863 0.0861 -0.1409
vn 0.9835 -0.1023 0.1495
vn 0.8664 -0.3072 -0.3938
vn 0.7856 -0.1886 -0.5892
vn 0.9719 -0.1176 -0.2038
vn 0.9768 0.0236 0.2127
vn 0.9073 -0.0704 0.4145
vn 0.9747 -0.2122 0.0707
vn 0.8687 -0.0470 0.4931
vn 0.8084 -0.0000 0.5886
vn 0.9476 -0.0627 0.3132
vn 0.9210 -0.0945 0.3779
vn 0.7517 -0.0470 -0.6578
vn 0.9381 0.0709 -0.3390
vn 0.2194 0.9718 0.0862
vn -0.0000 0.9999 0.0157
vn 0.2043 0.9744 0.0943
vn 0.1569 0.9806 0.1177
vn 0.2127 0.9768 0.0236
vn 0.1957 0.9787 -0.0627
vn 0.1261 0.9850 -0.1182
vn 0.5414 -0.0471 -0.8395
vn 0.8936 -0.1881 -0.4076
vn 0.9954 -0.0549 0.0784
vn 0.9903 -0.1336 0.0393
vn -0.4708 -0.1412 -0.8709
vn -0.0000 -0.1644 -0.9864
vn -0.0000 -0.0863 -0.9963
vn 0.4708 -0.1412 -0.8709
vn -0.9948 -0.0000 0.1018
vn -0.9820 0.0550 -0.1807
vn -0.9997 0.0236 -0.0000
vn -0.9677 0.0157 -0.2518
vn -0.8157 0.1569 -0.5568
vn -0.8647 -0.1729 -0.4717
vn -0.9586 0.1336 -0.2514
vn -0.8324 0.1963 -0.5183
vn -0.7681 0.2351 -0.5956
vn -0.5679 0.2603 -0.7809
vn -0.4246 0.3538 -0.8334
vn -0.9950 0.0627 -0.0784
vn -0.9569 0.1804 -0.2275
vn -0.9019 0.2118 -0.3765
vn -0.6676 0.3298 -0.6675
vn -0.5753 0.3468 -0.7408
vn -0.6580 0.2428 0.7128
vn -0.0000 0.0551 0.9985
vn -0.9719 -0.1176 -0.2038
vn -0.7857 -0.1886 -0.5892
vn -0.8664 -0.3072 -0.3938
vn 0.4082 -0.0628 0.9107
vn -0.0000 -0.0863 0.9963
vn -0.4082 -0.0628 0.9107
vn -0.5482 -0.1018 0.8301
vn -0.9747 -0.2122 0.0707
vn -0.9073 -0.0704 0.4145
vn -0.9768 0.0236 0.2127
vn -0.6779 -0.0552 0.7331
vn -0.6199 -0.0078 0.7846
vn -0.4250 0.0158 0.9051
vn -0.7949 -0.1023 0.5981
vn -0.0000 -0.0000 -1.0000
vn -0.6061 -0.0236 -0.7950
vn -0.9381 0.0709 -0.3390
vn -0.7517 -0.0470 -0.6578
vn -0.9730 -0.0706 -0.2197
vn -0.9572 -0.0628 -0.2825
vn -0.9927 -0.1024 0.0630
vn -0.2043 0.9744 0.0943
vn -0.1569 0.9806 0.1177
vn -0.0000 0.9900 0.1412
vn -0.1957 0.9787 -0.0627
vn -0.2127 0.9768 0.0236
vn -0.2194 0.9718 0.0862
vn -0.0000 0.9888 -0.1491
vn -0.1261 0.9850 -0.1182
vn -0.5414 -0.0471 -0.8395
vn -0.7280 -0.0783 -0.6811
vn -0.9654 0.0706 -0.2512
vn -0.9511 -0.0786 -0.2987
vn -0.9903 -0.1336 0.0393
vn -0.9954 -0.0549 0.0784
vn -0.8936 -0.1881 -0.4076
vn 0.9470 -0.0157 0.3209
vn 0.9728 -0.0941 0.2118
vn 0.9834 0.0158 0.1809
vn 0.9754 -0.2202 -0.0079
vn 0.9027 -0.3375 -0.2669
vn 0.8779 0.3684 -0.3057
vn 0.9583 0.2749 0.0786
vn 0.9505 0.0864 0.2985
vn 0.9290 -0.0000 -0.3700
vn 0.9940 -0.0000 0.1096
vn 0.9948 -0.0000 0.1018
vn 0.8896 0.2676 0.3700
vn 0.9980 -0.0000 0.0629
vn 0.9834 0.1731 0.0551
vn 0.9085 0.0940 -0.4072
vn 0.5817 -0.0786 -0.8096
vn 0.9482 -0.0862 0.3056
vn 0.9168 -0.1097 0.3839
vn 0.9936 -0.0626 0.0939
vn 0.6580 0.2428 0.7128
vn 0.8408 0.0865 0.5344
vn 0.9310 0.0395 0.3629
vn 0.9572 -0.0628 -0.2825
vn 0.9214 -0.1181 -0.3701
vn 0.8698 -0.0862 -0.4858
vn 0.7948 0.0315 -0.6060
vn 0.6061 -0.0236 -0.7950
vn 0.4548 0.1882 -0.8705
vn -0.9027 -0.3375 -0.2669
vn -0.9754 -0.2202 -0.0079
vn -0.9834 0.0158 0.1809
vn -0.9728 -0.0941 0.2118
vn -0.9470 -0.0157 0.3209
vn -0.9505 0.0864 0.2985
vn -0.9583 0.2749 0.0786
vn -0.8780 0.3684 -0.3057
vn -0.0000 0.4251 -0.9052
vn -0.9940 -0.0000 0.1096
vn -0.9290 -0.0000 -0.3700
vn -0.8102 0.1180 -0.5742
vn -0.6225 0.0630 -0.7801
vn -0.4549 0.1882 -0.8704
vn -0.0000 0.1885 -0.9821
vn 0.9997 0.0242 -0.0000
vn 0.9586 0.1336 -0.2514
vn 0.7681 0.2351 -0.5956
vn 0.4246 0.3538 -0.8334
vn -0.0000 0.4472 -0.8944
vn -0.0000 0.3996 -0.9167
vn -0.4092 0.3699 -0.8341
vn -0.7418 0.2999 -0.5998
vn -0.9863 0.0861 -0.1409
vn -0.9835 -0.1023 0.1495
vn -0.0000 -0.1885 -0.9821
vn 0.5176 -0.2588 -0.8156
vn 0.8629 -0.2197 -0.4550
vn 0.9730 -0.0706 -0.2197
vn 0.9927 -0.1024 0.0630
vn -0.0000 0.2115 -0.9774
vn -0.4548 0.1882 -0.8705
vn -0.7949 0.0315 -0.6060
vn -0.9214 -0.1181 -0.3701
vn -0.0000 -0.2037 -0.9790
vn -0.5817 -0.0786 -0.8096
vn -0.9085 0.0940 -0.4073
vn -0.9980 -0.0000 0.0629
vn -0.9834 0.1731 0.0551
vn -0.9310 0.0394 0.3629
vn -0.8896 0.2676 0.3700
vn -0.8408 0.0865 0.5344
vn -0.5789 0.0547 0.8136
vn -0.8084 -0.0000 0.5886
vn -0.9210 -0.0945 0.3779
vn -0.9168 -0.1097 0.3840
vn -0.8757 -0.0947 0.4734
vn -0.9482 -0.0862 0.3056
vn -0.9411 0.0235 0.3372
vn -0.9719 0.0079 0.2351
vn -0.9747 -0.0393 0.2201
vn -0.9756 -0.0551 0.2125
vn -0.9735 -0.0628 0.2198
vn -0.9936 -0.0626 0.0939
vn -0.9476 -0.0627 0.3132
vn -0.8687 -0.0470 0.4931
vn -0.7718 -0.0866 0.6300
vn -0.5121 -0.0158 0.8588
vn -0.0000 -0.0315 0.9995
vn 0.9735 -0.0628 0.2198
vn 0.9756 -0.0551 0.2125
vn 0.9747 -0.0393 0.2201
vn 0.9719 0.0079 0.2351
vn 0.9411 0.0235 0.3372
vn 0.8757 -0.0947 0.4734
vt 0.838654 0.233917
vt 0.935425 0.334503
vt 0.763641 0.329651
vt 0.290802 0.389740
vt 0.462738 0.347076
vt 0.466980 0.233246
vt 0.935425 0.803711
vt 0.989990 0.989990
vt 0.935425 0.989990
vt 0.394623 0.157745
vt 0.549103 0.009979
vt 0.547241 0.184601
vt 0.753326 0.834778
vt 0.542450 0.860809
vt 0.744873 0.765259
vt 0.517731 0.816223
vt 0.377472 0.989990
vt 0.395844 0.884857
vt 0.485779 0.782440
vt 0.414185 0.778107
vt 0.009979 0.908875
vt 0.138672 0.895813
vt 0.138672 0.809814
vt 0.076691 0.284515
vt 0.056763 0.177277
vt 0.271332 0.258789
vt 0.291534 0.009979
vt 0.192688 0.009979
vt 0.231537 0.138580
vt 0.391174 0.280365
vt 0.279419 0.259521
vt 0.373322 0.367065
vt 0.398438 0.285370
vt 0.419098 0.463379
vt 0.242767 0.365845
vt 0.315277 0.460602
vt 0.097198 0.365967
vt 0.143768 0.439362
vt 0.106232 0.392426
vt 0.202911 0.476410
vt 0.299133 0.382690
vt 0.486267 0.278046
vt 0.283020 0.255066
vt 0.083740 0.267609
vt 0.734131 0.697998
vt 0.594666 0.683472
vt 0.719666 0.606201
vt 0.560150 0.648560
vt 0.315643 0.487549
vt 0.420471 0.429138
vt 0.260315 0.813721
vt 0.349304 0.974335
vt 0.220886 0.845520
vt 0.190216 0.880676
vt 0.349304 0.777710
vt 0.935425 0.188263
vt 0.641968 0.336914
vt 0.629852 0.470459
vt 0.563721 0.457306
vt 0.724487 0.186890
vt 0.935425 0.009979
vt 0.714233 0.009979
vt 0.293365 0.477753
vt 0.105682 0.407745
vt 0.090881 0.311523
vt 0.073486 0.230469
vt 0.040955 0.122467
vt 0.989990 0.803619
vt 0.558228 0.900726
vt 0.576416 0.989990
vt 0.164185 0.009979
vt 0.242340 0.262665
vt 0.452240 0.491364
vt 0.287689 0.464844
vt 0.422791 0.531342
vt 0.150696 0.974335
vt 0.138672 0.598511
vt 0.009979 0.583893
vt 0.138672 0.686493
vt 0.009979 0.686493
vt 0.009979 0.809814
vt 0.226135 0.809814
vt 0.253571 0.686493
vt 0.253571 0.583893
vt 0.521118 0.344757
vt 0.504883 0.457581
vt 0.989990 0.621948
vt 0.935425 0.483337
vt 0.989990 0.471436
vt 0.989990 0.329498
vt 0.989990 0.170898
vt 0.487579 0.587524
vt 0.534119 0.610535
vt 0.688232 0.524323
vt 0.935425 0.719360
vt 0.935425 0.636749
vt 0.129974 0.441010
vt 0.066895 0.281311
vt 0.037048 0.137085
vt 0.459808 0.009979
vt 0.388458 0.009979
vt 0.009979 0.009979
vt 0.419434 0.009979
vt 0.989990 0.009979
vt 0.436371 0.700928
vt 0.410645 0.621582
vt 0.343048 0.594574
vt 0.242279 0.576111
vt 0.154938 0.488495
vt 0.152435 0.563416
vt 0.762604 0.989990
s 1
usemtl m_hair0121
f 1/1/1 2/2/2 3/3/3
f 4/4/4 5/5/5 6/6/6
f 7/7/7 8/8/8 9/9/9
f 10/10/10 11/11/11 12/12/12
f 13/13/13 14/14/14 15/15/15
f 15/15/15 14/14/14 16/16/16
f 17/17/17 18/18/18 19/19/19
f 19/19/19 18/18/18 20/20/20
f 21/21/21 22/22/22 23/23/23
f 24/24/24 25/25/25 26/26/26
f 26/26/26 25/25/25 27/27/27
f 28/28/28 10/10/10 29/29/29
f 29/29/29 10/10/10 30/30/30
f 29/29/29 30/30/30 31/31/31
f 31/31/31 30/30/30 32/32/32
f 33/33/33 34/34/34 35/35/35
f 35/35/35 34/34/34 36/36/36
f 35/35/35 36/36/36 37/37/37
f 37/37/37 36/36/36 38/38/38
f 39/39/39 40/40/40 41/41/41
f 42/42/42 43/43/43 41/41/41
f 41/41/41 43/43/43 44/44/44
f 41/41/41 44/44/44 39/39/39
f 45/45/45 46/46/46 47/47/47
f 47/47/47 46/46/46 48/48/48
f 40/40/40 49/49/49 41/41/41
f 41/41/41 49/49/49 50/50/50
f 41/41/41 50/50/50 42/42/42
f 51/51/51 52/52/52 53/53/53
f 53/53/53 52/52/52 54/54/54
f 51/51/51 55/55/55 52/52/52
f 52/52/52 55/55/55 56/51/56
f 52/52/52 56/51/56 57/54/57
f 2/2/2 1/1/1 58/56/58
f 59/57/59 60/58/60 61/59/61
f 62/60/62 63/61/63 64/62/64
f 64/62/64 63/61/63 65/60/65
f 66/63/66 67/32/67 68/64/68
f 69/23/69 70/22/70 71/21/71
f 72/65/72 73/31/73 74/66/74
f 74/66/74 73/31/73 75/29/75
f 74/66/74 75/29/75 76/67/76
f 76/67/76 75/29/75 28/28/28
f 77/36/77 78/34/78 79/35/79
f 79/35/79 78/34/78 80/33/80
f 79/35/79 80/33/80 81/26/81
f 81/26/81 80/33/80 27/27/27
f 82/8/8 83/68/82 84/9/83
f 85/41/84 86/40/85 87/39/86
f 88/69/87 89/70/88 17/17/17
f 17/17/17 89/70/88 90/69/89
f 17/17/17 90/69/89 91/14/90
f 87/39/86 92/44/91 85/41/84
f 85/41/84 92/44/91 93/43/92
f 85/41/84 93/43/92 94/42/93
f 91/14/90 95/16/94 17/17/17
f 17/17/17 95/16/94 96/19/95
f 17/17/17 96/19/95 97/18/96
f 97/18/96 96/19/95 98/20/97
f 99/71/98 100/72/99 6/6/6
f 6/6/6 100/72/99 4/4/4
f 94/42/93 101/50/100 85/41/84
f 85/41/84 101/50/100 102/49/101
f 85/41/84 102/49/101 86/40/85
f 5/5/5 4/4/4 103/73/102
f 103/73/102 4/4/4 104/74/103
f 103/73/102 104/74/103 105/75/104
f 106/53/105 107/54/106 52/52/52
f 52/52/52 107/54/106 108/76/107
f 52/52/52 108/76/107 54/54/54
f 109/51/108 110/55/109 52/52/52
f 52/52/52 110/55/109 111/51/110
f 52/52/52 111/51/110 106/53/105
f 57/54/57 112/76/111 52/52/52
f 52/52/52 112/76/111 113/54/112
f 52/52/52 113/54/112 109/51/108
f 114/56/113 115/1/114 116/2/115
f 116/2/115 115/1/114 117/3/116
f 118/59/117 119/58/118 120/57/119
f 121/77/120 122/78/121 123/79/122
f 123/79/122 122/78/121 124/80/123
f 123/79/122 124/80/123 23/23/23
f 23/23/23 124/80/123 125/81/124
f 23/23/23 125/81/124 21/21/21
f 22/22/22 126/82/125 23/23/23
f 23/23/23 126/82/125 127/83/126
f 23/23/23 127/83/126 123/79/122
f 123/79/122 127/83/126 128/84/127
f 123/79/122 128/84/127 121/77/120
f 10/10/10 12/12/12 30/30/30
f 30/30/30 12/12/12 129/85/128
f 30/30/30 129/85/128 32/32/32
f 32/32/32 129/85/128 130/86/129
f 32/32/32 130/86/129 131/63/130
f 132/87/131 133/88/132 134/89/133
f 134/89/133 133/88/132 2/2/2
f 134/89/133 2/2/2 135/90/134
f 135/90/134 2/2/2 58/56/58
f 135/90/134 58/56/58 136/91/135
f 137/92/136 61/59/61 138/93/137
f 138/93/137 61/59/61 60/58/60
f 138/93/137 60/58/60 48/48/48
f 48/48/48 60/58/60 139/94/138
f 48/48/48 139/94/138 47/47/47
f 8/8/8 7/7/7 140/68/139
f 140/68/139 7/7/7 141/95/140
f 140/68/139 141/95/140 132/87/131
f 132/87/131 141/95/140 142/96/141
f 132/87/131 142/96/141 133/88/132
f 143/74/142 144/97/143 145/4/144
f 145/4/144 144/97/143 146/98/145
f 145/4/144 146/98/145 147/72/146
f 147/72/146 146/98/145 148/99/147
f 147/72/146 148/99/147 99/71/98
f 71/21/71 149/81/148 69/23/69
f 69/23/69 149/81/148 150/80/149
f 69/23/69 150/80/149 151/79/150
f 151/79/150 150/80/149 152/78/151
f 151/79/150 152/78/151 153/77/152
f 153/77/152 154/84/153 151/79/150
f 151/79/150 154/84/153 155/83/154
f 151/79/150 155/83/154 69/23/69
f 69/23/69 155/83/154 156/82/155
f 69/23/69 156/82/155 70/22/70
f 80/33/80 157/100/156 27/27/27
f 27/27/27 157/100/156 33/33/33
f 27/27/27 33/33/33 26/26/26
f 26/26/26 33/33/33 35/35/35
f 26/26/26 35/35/35 24/24/24
f 24/24/24 35/35/35 37/37/37
f 66/63/66 158/86/157 67/32/67
f 67/32/67 158/86/157 159/85/158
f 67/32/67 159/85/158 160/30/159
f 160/30/159 159/85/158 161/12/160
f 160/30/159 161/12/160 162/10/161
f 162/10/161 161/12/160 11/11/11
f 162/10/161 11/11/11 163/101/162
f 131/63/130 164/64/163 32/32/32
f 32/32/32 164/64/163 165/65/164
f 32/32/32 165/65/164 31/31/31
f 31/31/31 165/65/164 166/66/165
f 31/31/31 166/66/165 29/29/29
f 29/29/29 166/66/165 167/67/166
f 29/29/29 167/67/166 28/28/28
f 28/28/28 167/67/166 168/102/167
f 28/28/28 168/102/167 76/67/76
f 25/25/25 169/102/168 27/27/27
f 27/27/27 169/102/168 170/25/169
f 27/27/27 170/25/169 81/26/81
f 81/26/81 170/25/169 171/24/170
f 81/26/81 171/24/170 79/35/79
f 79/35/79 171/24/170 172/37/171
f 79/35/79 172/37/171 77/36/77
f 77/36/77 172/37/171 173/38/172
f 6/6/6 174/103/173 99/71/98
f 99/71/98 174/103/173 175/6/174
f 99/71/98 175/6/174 147/72/146
f 147/72/146 175/6/174 176/5/175
f 147/72/146 176/5/175 145/4/144
f 145/4/144 176/5/175 177/73/176
f 145/4/144 177/73/176 143/74/142
f 143/74/142 177/73/176 178/75/177
f 148/99/147 179/102/178 99/71/98
f 99/71/98 179/102/178 180/99/179
f 99/71/98 180/99/179 100/72/99
f 100/72/99 180/99/179 181/98/180
f 100/72/99 181/98/180 4/4/4
f 4/4/4 181/98/180 182/97/181
f 4/4/4 182/97/181 104/74/103
f 141/95/140 45/45/45 142/96/141
f 142/96/141 45/45/45 47/47/47
f 142/96/141 47/47/47 133/88/132
f 133/88/132 47/47/47 139/94/138
f 133/88/132 139/94/138 2/2/2
f 2/2/2 139/94/138 60/58/60
f 2/2/2 60/58/60 3/3/3
f 3/3/3 60/58/60 59/57/59
f 3/3/3 59/57/59 1/1/1
f 1/1/1 59/57/59 65/60/65
f 1/1/1 65/60/65 58/56/58
f 58/56/58 65/60/65 63/61/63
f 58/56/58 63/61/63 136/91/135
f 11/11/11 10/10/10 163/101/162
f 163/101/162 10/10/10 28/28/28
f 163/101/162 28/28/28 162/10/161
f 162/10/161 28/28/28 75/29/75
f 162/10/161 75/29/75 160/30/159
f 160/30/159 75/29/75 73/31/73
f 160/30/159 73/31/73 67/32/67
f 67/32/67 73/31/73 72/65/72
f 67/32/67 72/65/72 68/64/68
f 183/104/182 114/56/113 184/91/183
f 184/91/183 114/56/113 116/2/115
f 184/91/183 116/2/115 185/90/184
f 185/90/184 116/2/115 186/88/185
f 185/90/184 186/88/185 187/89/186
f 187/89/186 186/88/185 188/96/187
f 187/89/186 188/96/187 189/87/188
f 189/87/188 188/96/187 190/95/189
f 189/87/188 190/95/189 83/68/82
f 83/68/82 190/95/189 191/7/190
f 83/68/82 191/7/190 84/9/83
f 95/16/94 192/46/191 96/19/95
f 96/19/95 192/46/191 193/48/192
f 96/19/95 193/48/192 98/20/97
f 98/20/97 193/48/192 194/93/193
f 98/20/97 194/93/193 195/105/194
f 195/105/194 194/93/193 196/92/195
f 195/105/194 196/92/195 197/106/196
f 197/106/196 196/92/195 158/86/157
f 197/106/196 158/86/157 198/107/197
f 198/107/197 158/86/157 66/63/66
f 198/107/197 66/63/66 199/108/198
f 199/108/198 66/63/66 200/109/199
f 199/108/198 200/109/199 201/110/200
f 137/92/136 130/86/129 61/59/61
f 61/59/61 130/86/129 129/85/128
f 61/59/61 129/85/128 59/57/59
f 59/57/59 129/85/128 12/12/12
f 59/57/59 12/12/12 65/60/65
f 65/60/65 12/12/12 11/11/11
f 65/60/65 11/11/11 64/62/64
f 64/62/64 11/11/11 161/12/160
f 64/62/64 161/12/160 62/60/62
f 62/60/62 161/12/160 159/85/158
f 62/60/62 159/85/158 120/57/119
f 120/57/119 159/85/158 158/86/157
f 120/57/119 158/86/157 118/59/117
f 118/59/117 158/86/157 196/92/195
f 118/59/117 196/92/195 119/58/118
f 119/58/118 196/92/195 194/93/193
f 119/58/118 194/93/193 202/94/201
f 202/94/201 194/93/193 193/48/192
f 202/94/201 193/48/192 203/47/202
f 203/47/202 193/48/192 192/46/191
f 203/47/202 192/46/191 204/45/203
f 204/45/203 192/46/191 95/16/94
f 204/45/203 95/16/94 205/15/204
f 205/15/204 95/16/94 91/14/90
f 205/15/204 91/14/90 206/13/205
f 206/13/205 91/14/90 90/69/89
f 206/13/205 90/69/89 207/111/206
f 207/111/206 90/69/89 89/70/88
f 207/111/206 89/70/88 13/13/13
f 13/13/13 89/70/88 88/69/87
f 13/13/13 88/69/87 14/14/14
f 14/14/14 88/69/87 17/17/17
f 14/14/14 17/17/17 16/16/16
f 16/16/16 17/17/17 19/19/19
f 208/110/207 209/109/208 210/108/209
f 210/108/209 209/109/208 131/63/130
f 210/108/209 131/63/130 211/107/210
f 211/107/210 131/63/130 130/86/129
f 211/107/210 130/86/129 212/106/211
f 212/106/211 130/86/129 137/92/136
f 212/106/211 137/92/136 213/105/212
f 213/105/212 137/92/136 138/93/137
f 213/105/212 138/93/137 20/20/20
f 20/20/20 138/93/137 48/48/48
f 20/20/20 48/48/48 19/19/19
f 19/19/19 48/48/48 46/46/46
f 19/19/19 46/46/46 16/16/16
f 16/16/16 46/46/46 45/45/45
f 16/16/16 45/45/45 15/15/15
f 15/15/15 45/45/45 141/95/140
f 15/15/15 141/95/140 13/13/13
f 13/13/13 141/95/140 7/7/7
f 13/13/13 7/7/7 207/111/206
f 207/111/206 7/7/7 9/9/9
f 207/111/206 9/9/9 206/13/205
f 206/13/205 9/9/9 191/7/190
f 206/13/205 191/7/190 205/15/204
f 205/15/204 191/7/190 190/95/189
f 205/15/204 190/95/189 204/45/203
f 204/45/203 190/95/189 188/96/187
f 204/45/203 188/96/187 203/47/202
f 203/47/202 188/96/187 186/88/185
f 203/47/202 186/88/185 202/94/201
f 202/94/201 186/88/185 116/2/115
f 202/94/201 116/2/115 119/58/118
f 119/58/118 116/2/115 117/3/116
f 119/58/118 117/3/116 120/57/119
f 120/57/119 117/3/116 115/1/114
f 120/57/119 115/1/114 62/60/62
f 62/60/62 115/1/114 114/56/113
f 62/60/62 114/56/113 63/61/63
f 63/61/63 114/56/113 183/104/182
f 63/61/63 183/104/182 136/91/135
o editpl_m-0000-1843
v 7.138726 50.698162 -0.224170
v 8.211567 48.432842 -0.462534
v 6.805496 48.072960 -1.613253
v 6.366606 48.760590 0.742733
v 6.258238 43.596947 -0.056792
v 6.599597 45.287102 -1.090198
v -6.366606 48.760590 0.742733
v -7.138726 50.698162 -0.224170
v -8.211567 48.432842 -0.462534
v -6.805496 48.072960 -1.613253
v -6.599597 45.287102 -1.090198
v -6.258238 43.596947 -0.056792
vn 0.9047 0.4248 0.0315
vn 0.9970 -0.0549 -0.0549
vn 0.6180 0.0782 -0.7823
vn 0.5510 0.0157 0.8344
vn 0.8874 -0.3299 0.3220
vn 0.7840 -0.2901 -0.5488
vn -0.5510 0.0157 0.8344
vn -0.9047 0.4248 0.0315
vn -0.9970 -0.0549 -0.0549
vn -0.6180 0.0782 -0.7823
vn -0.7840 -0.2901 -0.5488
vn -0.8874 -0.3298 0.3220
vt 0.047913 0.329590
vt 0.060608 0.407593
vt 0.087708 0.422852
vt 0.009979 0.386078
vt 0.009979 0.569641
vt 0.065002 0.516632
s 1
usemtl m_hair0121
f 214/112/213 215/113/214 216/114/215
f 215/113/214 214/112/213 217/115/216
f 217/115/216 218/116/217 215/113/214
f 215/113/214 218/116/217 219/117/218
f 215/113/214 219/117/218 216/114/215
f 220/115/219 221/112/220 222/113/221
f 222/113/221 221/112/220 223/114/222
f 223/114/222 224/117/223 222/113/221
f 222/113/221 224/117/223 225/116/224
f 222/113/221 225/116/224 220/115/219
