mtllib m_hair014.mtl
o editpl_m-0000-1837
v 9.690787 52.867085 2.902948
v 9.303373 54.872131 3.086764
v 8.723605 53.278374 4.648455
v 7.008685 51.324738 -10.759979
v 5.263964 54.901051 -10.090469
v 8.374119 54.190929 -7.623895
v 3.979806 53.721798 9.438887
v 4.467461 55.820030 10.014993
v 4.172159 55.893936 9.849111
v 4.670651 60.093613 10.832451
v 4.676069 55.762192 9.743752
v 5.049938 60.167515 10.485742
v 6.827169 52.985973 3.159244
v 7.480085 56.967152 1.977141
v 6.396407 56.771145 4.420553
v 5.648670 64.614609 4.627532
v 7.125181 61.639172 5.274625
v 5.968355 65.090164 1.717855
v -8.723605 53.278374 4.648455
v -8.021924 52.622879 5.277615
v -7.523432 54.370869 7.065713
v -7.439447 50.675667 -4.339861
v -6.176963 47.166836 -1.479501
v -6.987012 51.022697 -1.007257
v -1.425036 66.857437 1.666297
v -1.617389 66.073410 -3.183912
v -3.020751 66.426865 1.901671
v -7.119762 56.925377 8.626657
v -5.315439 60.614155 10.979653
v -6.938246 59.187485 8.338976
v -8.869902 54.955673 2.507668
v -7.490922 53.320148 3.603093
v -7.344625 55.534054 4.619313
v 8.322644 55.829670 6.208651
v 7.618254 55.177387 6.837811
v 9.441541 54.952461 4.989935
v -8.669421 57.555168 4.476593
v -9.246479 58.310276 3.277305
v -9.826247 55.775047 0.908616
v -9.587838 53.214111 0.092651
v -10.205534 50.996990 -0.812233
v -8.533961 51.858131 2.162452
v -5.033683 57.118172 8.071471
v -7.734749 57.969673 6.624106
v -7.217293 57.037842 6.677906
v 5.315439 60.614155 10.979653
v 4.145067 60.067905 10.903438
v 4.443078 57.568024 10.597076
v 0.000000 65.681396 -3.492514
v 0.000000 64.727074 -6.984275
v -2.785052 64.788124 -6.674179
v 8.899703 57.426640 4.646960
v 9.287117 55.418381 4.463144
v 6.339514 52.603600 7.600723
v 6.984302 53.461529 7.638084
v 5.125795 54.942822 8.705115
v 5.981901 58.406673 8.886689
v 4.724835 60.408508 10.350494
v 9.826247 55.775047 0.908616
v 8.669421 57.555168 4.476593
v 8.487905 55.511562 4.925673
v 7.341916 56.636189 6.778781
v 7.523432 54.370869 7.065713
v 10.788011 55.373394 2.556237
v 11.191681 52.818886 0.995294
v 3.053262 45.537731 -8.058777
v 4.979499 49.396809 -6.920013
v 6.843424 46.520977 -5.093058
v 7.439447 50.675667 -4.339861
v 6.176963 47.166836 -1.479501
v 6.987012 51.022697 -1.007257
v 0.000000 52.500774 -13.636031
v 1.213719 64.527855 7.255506
v 1.316668 65.825996 4.711220
v 0.000000 64.852386 5.599666
v 1.425036 66.857437 1.666297
v 7.490922 53.320148 3.603093
v 8.533961 51.858131 2.162452
v 9.587838 53.214111 0.092651
v 7.821443 55.106697 -5.664683
v 5.239581 51.520744 -7.940716
v 3.966260 54.255196 -9.762440
v 6.583342 56.012825 9.198281
v 5.935844 55.158108 9.160920
v 8.642329 53.316933 5.518967
v 9.845211 52.397953 3.429738
v 8.021924 52.622879 5.277615
v 10.324739 57.481266 1.778381
v 9.246479 58.329556 3.307194
v 3.443386 63.274696 9.130283
v 5.849150 61.838390 8.466003
v 4.196542 60.132172 10.779398
v 7.485503 57.163155 -0.286937
v 4.833202 60.463131 10.215247
v 2.400346 62.815208 10.545518
v 3.066808 61.616676 9.534530
v 0.975310 62.214336 9.559187
v 2.400346 62.815208 10.545518
v 1.863926 63.534969 8.964400
v 0.975310 62.214336 9.559187
v 0.000000 62.609562 9.054067
v 0.000000 59.910458 9.965675
v 2.622500 65.646049 4.728406
v 3.020751 66.426865 1.901671
v 5.082448 63.692417 7.287637
v 2.508714 64.453949 7.234584
v 10.519801 53.982071 -3.618793
v 9.547200 54.846424 -0.048573
v 8.869902 54.955673 2.507668
v 7.344625 55.534054 4.619313
v -9.845211 52.397953 3.429738
v -4.724835 60.408508 10.350494
v -5.981901 58.406673 8.886689
v -5.125795 54.942822 8.705115
v -6.984302 53.461529 7.638084
v -6.339514 52.603600 7.600723
v -9.045999 50.765636 3.958023
v -10.725699 54.926758 -0.618703
v -9.303373 54.872131 3.086764
v -8.487905 55.511562 4.925673
v -7.341916 56.636189 6.778781
v -2.508714 64.453949 7.234584
v -1.213719 64.527855 7.255506
v -2.622500 65.646049 4.728406
v -5.263964 54.901051 -10.090469
v -7.824153 56.632977 -7.566360
v -4.648977 58.239586 -10.132315
v -10.788011 55.373394 2.556237
v -9.287117 55.418381 4.463144
v -8.899703 57.426640 4.646960
v 0.000000 55.479431 -11.432478
v -5.263964 54.901051 -10.090469
v 0.000000 59.859047 -10.850393
v -3.966260 54.255196 -9.762440
v 0.000000 54.001350 -11.110426
v 0.000000 51.006630 -9.423202
v 3.966260 54.255196 -9.762440
v -6.843424 46.520977 -5.093058
v -4.979499 49.396809 -6.920013
v -3.053262 45.537731 -8.058777
v 0.000000 66.144104 0.846596
v -3.966260 54.255196 -9.762440
v -5.239581 51.520744 -7.940716
v -7.821443 55.106697 -5.664683
v -5.968355 65.090164 1.717855
v -5.648670 64.614609 4.627532
v -7.125181 61.639172 5.274625
v -9.246479 58.329556 3.307194
v -10.324739 57.481266 1.778381
v -6.583342 56.012825 9.198281
v -7.618254 55.177387 6.837811
v -8.642329 53.316933 5.518967
v -4.676069 55.762192 9.743752
v -3.979806 53.721798 9.438887
v -4.467461 55.820030 10.014993
v -4.172159 55.893936 9.849111
v -3.443386 63.274696 9.130283
v -5.082448 63.692417 7.287637
v -5.849150 61.838390 8.466003
v -4.196542 60.132172 10.779398
v -4.670651 60.093613 10.832451
v -5.049938 60.167515 10.485742
v -7.485503 57.163155 -0.286937
v -6.827169 52.985973 3.159244
v -7.480085 56.967152 1.977141
v -6.396407 56.771145 4.420553
v -4.833202 60.463131 10.215247
v -3.066808 61.616676 9.534530
v -2.400346 62.815208 10.545518
v -0.975310 62.214336 9.559187
v -7.734749 57.969673 6.624106
v -9.181459 58.371326 3.307194
v -7.217293 57.037842 6.677906
v -5.819349 56.109222 6.730958
v -9.547200 54.846424 -0.048573
v -10.519801 53.982071 -3.618793
v 5.239581 51.520744 -7.940716
v 4.979499 49.396809 -6.920013
v 0.000000 49.242573 -8.789558
v 3.053262 45.537731 -8.058777
v 0.000000 45.361004 -8.935266
v 7.119762 56.925377 8.626657
v 6.938246 59.187485 8.338976
v 7.718494 57.924690 6.563581
v 9.246479 58.310276 3.277305
v 9.045999 50.765636 3.958023
v 10.725699 54.926758 -0.618703
v 8.309098 56.514088 -2.962733
v 7.485503 57.163155 -0.286937
v 8.086944 58.066071 6.486617
v 7.886464 60.106464 6.037537
v 2.785052 64.788124 -6.674179
v 3.670958 66.086266 -2.590619
v 5.526756 63.714909 -6.157849
v 6.011702 65.154434 -2.450888
v 8.783207 61.626316 -3.065851
v 8.585436 61.623104 1.167153
v 9.604093 58.278145 0.635881
v 9.181459 58.371326 3.307194
v 9.086637 56.488380 2.766954
v 7.734749 57.969673 6.624106
v 7.217293 57.037842 6.677906
v 9.780191 56.302013 0.293654
v 9.923778 56.253815 -3.587410
v 9.587838 58.580185 -3.535851
v 7.824153 56.632977 -7.566360
v 7.352753 60.601299 -7.119522
v 4.648977 58.239586 -10.132315
v 4.253435 61.359619 -9.190817
v 2.785052 64.788124 -6.674179
v 0.000000 64.727074 -6.984275
v 2.785052 64.788124 -6.674179
v 0.000000 63.335751 -8.609480
v 4.253435 61.359619 -9.190817
v 4.648977 58.239586 -10.132315
v 8.750697 51.176929 -9.668290
v 11.183553 51.090172 -6.815402
v 10.928889 51.379364 -2.748281
v 10.205534 50.996990 -0.812233
v 0.000000 59.910458 9.965675
v 3.578845 60.726616 7.949674
v 4.212797 59.055740 8.353173
v 5.992737 58.483788 8.911347
v 5.033683 57.118172 8.071471
v 7.734749 57.969673 6.624106
v 5.819349 56.109222 6.730958
v 7.217293 57.037842 6.677906
v -11.191681 52.818886 0.995294
v -9.690787 52.867085 2.902948
v -3.053262 45.537731 -8.058777
v -4.979499 49.396809 -6.920013
v -5.239581 51.520744 -7.940716
v -7.008685 51.324738 -10.759979
v -8.374119 54.190929 -7.623895
v -8.319935 55.829670 6.208651
v -8.086944 58.066071 6.486617
v -7.886464 60.106464 6.037537
v -5.935844 55.158108 9.160920
v -4.443078 57.568024 10.597076
v -4.145067 60.067905 10.903438
v -2.400346 62.815208 10.545518
v -1.863926 63.534969 8.964400
v -7.718494 57.924690 6.563581
v -7.485503 57.163155 -0.286937
v -8.309098 56.514088 -2.962733
v -8.585436 61.623104 1.167153
v -6.011702 65.154434 -2.450888
v -3.670958 66.086266 -2.590619
v -4.253435 61.359619 -9.190817
v -7.352753 60.601299 -7.119522
v -9.587838 58.580185 -3.535851
v -9.923778 56.253815 -3.587410
v -9.780191 56.302013 0.293654
v -2.785052 64.788124 -6.674179
v -5.526756 63.714909 -6.157849
v -8.783207 61.626316 -3.065851
v -9.604093 58.278145 0.635881
v -9.086637 56.488380 2.766954
v -4.648977 58.239586 -10.132315
v -4.253435 61.359619 -9.190817
v -2.785052 64.788124 -6.674179
v -10.928889 51.379364 -2.748281
v -11.183553 51.090172 -6.815402
v -8.750697 51.176929 -9.668290
v -8.374119 54.190929 -7.623895
v -10.519801 53.982071 -3.618793
v -9.547200 54.846424 -0.048573
v -8.869902 54.955673 2.507668
v -7.344625 55.534054 4.619313
v -5.992737 58.483788 8.911347
v -4.212797 59.055740 8.353173
v -3.578845 60.726616 7.949674
v 5.819349 56.109222 6.730958
v 7.344625 55.534054 4.619313
v 8.869902 54.955673 2.507668
v 9.547200 54.846424 -0.048573
v 10.519801 53.982071 -3.618793
v 8.374119 54.190929 -7.623895
v 5.263964 54.901051 -10.090469
v -1.316668 65.825996 4.711220
v -9.441541 54.952461 4.989935
v 1.617389 66.073410 -3.183912
v -5.819349 56.109222 6.730958
v 0.000000 59.910458 9.965675
v -0.975310 62.214336 9.559187
v 0.000000 59.910458 9.965675
v 0.000000 59.910458 9.965675
vn 0.8365 0.1105 0.5367
vn 0.8869 0.1648 0.4317
vn 0.8584 -0.0315 0.5119
vn 0.5175 0.3921 -0.7606
vn 0.4854 0.2975 -0.8221
vn 0.7288 0.3762 -0.5721
vn 0.1254 -0.2901 0.9487
vn 0.0788 -0.2362 0.9685
vn -0.5105 -0.1413 0.8482
vn 0.4856 -0.1880 0.8538
vn 0.7242 -0.2204 0.6534
vn 0.6845 -0.1731 0.7081
vn 0.9759 -0.0944 0.1968
vn 0.9759 -0.0944 0.1967
vn 0.9164 -0.0235 0.3995
vn 0.5765 0.7660 0.2843
vn 0.8353 0.4886 0.2522
vn 0.6841 0.7155 0.1415
vn -0.8584 -0.0315 0.5119
vn -0.8501 -0.0866 0.5195
vn -0.8582 -0.0394 0.5118
vn -0.9552 -0.1801 -0.2349
vn -0.9639 -0.1959 0.1802
vn -0.9776 -0.1564 0.1408
vn 0.1888 0.9758 0.1102
vn 0.0548 0.9776 -0.2034
vn -0.2741 0.9554 0.1096
vn -0.8579 -0.0472 0.5116
vn -0.5652 0.2277 0.7929
vn -0.8710 0.2197 0.4394
vn -0.8724 -0.2279 0.4323
vn -0.8218 -0.1565 0.5479
vn -0.6853 -0.4568 0.5672
vn 0.8585 -0.0315 0.5119
vn 0.8501 -0.0866 0.5195
vn 0.7049 -0.0784 0.7049
vn -0.9107 -0.0628 0.4082
vn -0.9167 -0.0784 0.3917
vn -0.9356 0.1022 0.3381
vn -0.9231 0.0313 0.3833
vn -0.9024 0.0785 0.4237
vn -0.8651 0.0787 0.4955
vn -0.2205 -0.5283 0.8199
vn -0.6438 -0.4789 0.5968
vn -0.6712 -0.4659 0.5765
vn 0.5652 0.2277 0.7929
vn -0.0472 -0.0236 0.9986
vn 0.2587 -0.2195 0.9407
vn -0.0000 0.9678 -0.2518
vn -0.0000 0.8865 -0.4628
vn -0.1419 0.8516 -0.5046
vn 0.8812 0.1495 0.4484
vn 0.4546 -0.3762 0.8073
vn 0.6913 -0.1493 0.7070
vn 0.4409 -0.2047 0.8739
vn 0.7053 -0.0705 0.7054
vn 0.6030 -0.1879 0.7753
vn 0.9356 0.1022 0.3381
vn 0.9107 -0.0628 0.4083
vn 0.9097 0.0784 0.4078
vn 0.8643 -0.0000 0.5029
vn 0.8582 -0.0394 0.5118
vn 0.7850 0.0942 0.6123
vn 0.4250 0.0157 -0.9050
vn 0.5395 -0.1876 -0.8208
vn 0.8731 -0.0865 -0.4798
vn 0.9552 -0.1801 -0.2349
vn 0.9639 -0.1959 0.1802
vn 0.9776 -0.1564 0.1408
vn -0.0000 0.4970 -0.8677
vn -0.1180 0.8651 0.4876
vn -0.0709 0.9294 0.3623
vn -0.0000 0.9196 0.3930
vn -0.1888 0.9758 0.1102
vn 0.8218 -0.1565 0.5479
vn 0.8651 0.0787 0.4955
vn 0.9231 0.0313 0.3833
vn 0.9403 -0.1646 -0.2978
vn 0.6024 -0.3285 -0.7275
vn 0.4631 -0.3453 -0.8163
vn 0.7003 -0.1732 0.6925
vn 0.4729 -0.3941 0.7881
vn 0.8367 -0.0938 0.5395
vn 0.8511 0.3074 0.4256
vn 0.9057 0.2835 0.3150
vn 0.2983 0.8164 0.4945
vn 0.7496 0.5130 0.4182
vn -0.3227 -0.1811 0.9290
vn 0.9864 -0.1644 -0.0078
vn -0.6494 -0.6102 0.4538
vn -0.2445 0.2444 0.9383
vn -0.2119 -0.6671 0.7142
vn -0.3066 0.2123 0.9278
vn -0.2444 0.2444 0.9384
vn -0.2046 0.7869 0.5822
vn -0.3067 0.2123 0.9278
vn -0.0000 0.6417 0.7669
vn -0.0000 -0.1019 0.9948
vn 0.1967 0.9048 0.3777
vn 0.2741 0.9554 0.1096
vn 0.5200 0.7406 0.4255
vn 0.1495 0.8812 0.4485
vn 0.9719 0.2352 -0.0078
vn 0.9737 -0.0000 0.2277
vn 0.8724 -0.2279 0.4323
vn 0.6853 -0.4568 0.5671
vn -0.7049 -0.0784 0.7049
vn -0.6030 -0.1880 0.7753
vn -0.7053 -0.0705 0.7054
vn -0.4409 -0.2047 0.8739
vn -0.6913 -0.1493 0.7070
vn -0.4546 -0.3762 0.8073
vn -0.8367 -0.0938 0.5396
vn -0.8849 0.3133 0.3446
vn -0.8869 0.1648 0.4317
vn -0.9097 0.0784 0.4078
vn -0.8643 -0.0000 0.5029
vn -0.1495 0.8812 0.4485
vn 0.1180 0.8651 0.4876
vn -0.1967 0.9048 0.3777
vn -0.4855 0.2975 -0.8221
vn -0.7795 0.1575 -0.6063
vn -0.4882 0.1968 -0.8503
vn -0.7850 0.0942 0.6123
vn -0.8365 0.1105 0.5367
vn -0.8812 0.1495 0.4484
vn -0.0000 0.3537 -0.9354
vn -0.4854 0.2975 -0.8221
vn -0.0000 0.3209 -0.9471
vn -0.4630 -0.3454 -0.8163
vn -0.0000 -0.4876 -0.8730
vn -0.0000 -0.4378 -0.8991
vn 0.4630 -0.3454 -0.8163
vn -0.8731 -0.0865 -0.4798
vn -0.5395 -0.1876 -0.8208
vn -0.4250 0.0157 -0.9050
vn -0.0000 0.9999 -0.0157
vn -0.4631 -0.3453 -0.8163
vn -0.6024 -0.3285 -0.7275
vn -0.9403 -0.1646 -0.2978
vn -0.6841 0.7155 0.1415
vn -0.5765 0.7660 0.2843
vn -0.8353 0.4886 0.2522
vn -0.9057 0.2835 0.3150
vn -0.8511 0.3074 0.4256
vn -0.7003 -0.1732 0.6925
vn -0.7242 -0.2204 0.6534
vn -0.1255 -0.2901 0.9487
vn -0.0788 -0.2362 0.9685
vn 0.5105 -0.1414 0.8482
vn -0.2983 0.8164 0.4945
vn -0.5200 0.7406 0.4255
vn -0.7497 0.5129 0.4183
vn 0.3227 -0.1811 0.9290
vn -0.4856 -0.1880 0.8538
vn -0.6845 -0.1731 0.7081
vn -0.9864 -0.1644 -0.0078
vn -0.9759 -0.0944 0.1968
vn -0.9759 -0.0944 0.1967
vn -0.9164 -0.0235 0.3995
vn 0.6494 -0.6102 0.4538
vn 0.2119 -0.6671 0.7142
vn 0.2444 0.2444 0.9384
vn 0.3066 0.2123 0.9278
vn -0.6439 -0.4789 0.5967
vn -0.9634 0.0705 0.2585
vn -0.6713 -0.4659 0.5765
vn -0.4806 -0.5752 0.6619
vn -0.9737 -0.0000 0.2277
vn -0.9719 0.2352 -0.0078
vn 0.6023 -0.3286 -0.7275
vn 0.5394 -0.1876 -0.8209
vn -0.0000 -0.0629 -0.9980
vn 0.4249 0.0158 -0.9051
vn -0.0000 0.0315 -0.9995
vn 0.8579 -0.0472 0.5116
vn 0.8710 0.2197 0.4394
vn 0.8658 -0.1102 0.4880
vn 0.9167 -0.0784 0.3917
vn 0.8367 -0.0938 0.5396
vn 0.8849 0.3133 0.3446
vn 0.9744 -0.1808 0.1336
vn 0.9429 -0.1100 0.3143
vn 0.9077 0.1184 0.4025
vn 0.8765 0.3443 0.3365
vn 0.1419 0.8516 -0.5046
vn 0.2505 0.9392 -0.2348
vn 0.5437 0.6934 -0.4728
vn 0.6026 0.7905 -0.1096
vn 0.8761 0.4499 -0.1736
vn 0.8791 0.4552 0.1413
vn 0.9846 0.1418 0.1024
vn 0.9634 0.0705 0.2585
vn 0.9253 -0.1882 0.3293
vn 0.6439 -0.4789 0.5967
vn 0.6713 -0.4659 0.5765
vn 0.9895 0.0314 0.1414
vn 0.9709 0.1488 -0.1879
vn 0.9602 0.1810 -0.2125
vn 0.7795 0.1575 -0.6063
vn 0.7394 0.3383 -0.5821
vn 0.4882 0.1968 -0.8503
vn 0.3545 0.5041 -0.7876
vn 0.1420 0.8516 -0.5046
vn -0.0000 0.8864 -0.4629
vn 0.1419 0.8516 -0.5047
vn -0.0000 0.6540 -0.7565
vn 0.3544 0.5041 -0.7876
vn 0.4881 0.1968 -0.8503
vn 0.6786 0.4656 -0.5681
vn 0.8511 0.4256 -0.3074
vn 0.9565 0.1725 0.2352
vn 0.9024 0.0785 0.4237
vn -0.0000 -0.1018 0.9948
vn -0.4244 -0.7309 0.5344
vn -0.5832 -0.4098 0.7014
vn -0.1026 -0.6156 0.7813
vn 0.2207 -0.5282 0.8199
vn 0.6438 -0.4790 0.5967
vn 0.4807 -0.5752 0.6619
vn -0.4250 0.0157 -0.9051
vn -0.5394 -0.1876 -0.8209
vn -0.6023 -0.3286 -0.7275
vn -0.5175 0.3921 -0.7606
vn -0.7288 0.3762 -0.5721
vn -0.9077 0.1184 0.4026
vn -0.8765 0.3443 0.3365
vn -0.4729 -0.3941 0.7881
vn -0.2587 -0.2195 0.9407
vn 0.0472 -0.0236 0.9986
vn 0.2046 0.7868 0.5823
vn -0.8658 -0.1102 0.4880
vn -0.9429 -0.1100 0.3143
vn -0.9744 -0.1808 0.1336
vn -0.8791 0.4552 0.1413
vn -0.6026 0.7905 -0.1096
vn -0.2505 0.9392 -0.2348
vn -0.3545 0.5041 -0.7876
vn -0.7394 0.3383 -0.5821
vn -0.9602 0.1810 -0.2125
vn -0.9709 0.1488 -0.1879
vn -0.9895 0.0314 0.1413
vn -0.1419 0.8516 -0.5047
vn -0.5437 0.6934 -0.4728
vn -0.8761 0.4499 -0.1736
vn -0.9846 0.1418 0.1024
vn -0.9253 -0.1882 0.3293
vn -0.4881 0.1968 -0.8503
vn -0.3544 0.5040 -0.7876
vn -0.1419 0.8515 -0.5047
vn -0.9565 0.1725 0.2352
vn -0.8511 0.4256 -0.3074
vn -0.6786 0.4656 -0.5681
vn -0.7288 0.3761 -0.5721
vn -0.9719 0.2351 -0.0079
vn -0.8725 -0.2279 0.4323
vn -0.6853 -0.4569 0.5671
vn 0.1026 -0.6156 0.7813
vn 0.5832 -0.4098 0.7014
vn 0.4244 -0.7309 0.5344
vn 0.6853 -0.4569 0.5671
vn 0.9719 0.2351 -0.0079
vn 0.7288 0.3761 -0.5721
vn 0.0709 0.9294 0.3623
vn -0.7049 -0.0782 0.7050
vn -0.0548 0.9776 -0.2034
vn -0.4807 -0.5752 0.6619
vn -0.0000 -0.0000 1.0000
vn -0.0001 0.6418 0.7669
vn -0.0000 0.3138 0.9495
vn 0.3066 0.2123 0.9279
vn -0.0000 0.3139 0.9495
vn 0.3067 0.2124 0.9278
vn 0.2047 0.7868 0.5822
vn 0.2445 0.2444 0.9383
vn -0.7496 0.5130 0.4182
vt 0.223572 0.491211
vt 0.285065 0.512421
vt 0.202240 0.533813
vt 0.676971 0.312134
vt 0.740265 0.218475
vt 0.574432 0.193695
vt 0.420685 0.470184
vt 0.346283 0.607117
vt 0.367401 0.612854
vt 0.292236 0.742157
vt 0.321167 0.605255
vt 0.261047 0.733368
vt 0.084961 0.474182
vt 0.082703 0.383728
vt 0.007874 0.390167
vt 0.386047 0.802460
vt 0.341888 0.703766
vt 0.510559 0.802460
vt 0.150604 0.572693
vt 0.157715 0.631744
vt 0.478851 0.415527
vt 0.407471 0.444214
vt 0.429352 0.380432
vt 0.509644 0.955750
vt 0.700317 0.953186
vt 0.497498 0.872040
vt 0.124512 0.742310
vt 0.204437 0.676178
vt 0.233734 0.205109
vt 0.188568 0.281952
vt 0.154419 0.206543
vt 0.190796 0.438904
vt 0.286011 0.667297
vt 0.341003 0.602570
vt 0.330597 0.265503
vt 0.346680 0.325592
vt 0.250885 0.313660
vt 0.009979 0.569153
vt 0.074646 0.509155
vt 0.009979 0.486328
vt 0.076721 0.707031
vt 0.082275 0.646118
vt 0.715454 0.989990
vt 0.900208 0.989990
vt 0.909119 0.837250
vt 0.094757 0.552582
vt 0.125122 0.551910
vt 0.238922 0.601990
vt 0.264618 0.430084
vt 0.669800 0.493835
vt 0.606049 0.432434
vt 0.548798 0.488007
vt 0.881805 0.318787
vt 0.237762 0.940704
vt 0.339264 0.945251
vt 0.267090 0.989990
vt 0.543213 0.338043
vt 0.631897 0.365387
vt 0.657776 0.337952
vt 0.133972 0.492004
vt 0.378082 0.414734
vt 0.151276 0.799683
vt 0.218231 0.741058
vt 0.320526 0.756012
vt 0.157562 0.377258
vt 0.066650 0.711060
vt 0.066742 0.816040
vt 0.034393 0.789062
vt 0.060028 0.849365
vt 0.070557 0.822968
vt 0.118469 0.930634
vt 0.063751 0.930054
vt 0.132111 0.989990
vt 0.000000 1.000000
vt 0.362885 0.874054
vt 0.262634 0.804199
vt 0.262512 0.861176
vt 0.432892 0.189514
vt 0.336578 0.201019
vt 0.962860 0.542633
vt 0.861237 0.612518
vt 0.982697 0.613678
vt 0.879913 0.215607
vt 0.880554 0.116394
vt 0.940399 0.332245
vt 0.799072 0.331421
vt 0.799072 0.388031
vt 0.549866 0.989990
vt 0.365570 0.635559
vt 0.434662 0.642120
vt 0.375793 0.601746
vt 0.009979 0.509155
vt 0.966278 0.365387
vt 0.993011 0.432434
vt 0.799072 0.444946
vt 0.928375 0.488068
vt 0.799072 0.488068
vt 0.429779 0.338226
vt 0.360382 0.355194
vt 0.685242 0.869110
vt 0.855347 0.801697
vt 0.686127 0.801453
vt 0.699066 0.749054
vt 0.536499 0.729187
vt 0.565308 0.643860
vt 0.449219 0.594543
vt 0.575073 0.586884
vt 0.696289 0.592560
vt 0.716431 0.639526
vt 0.878601 0.673157
vt 0.993011 0.679779
vt 0.993011 0.801575
vt 0.877808 0.014099
vt 0.770416 0.013550
vt 0.880615 0.062958
vt 0.725250 0.075195
vt 0.724640 0.163696
vt 0.596100 0.295074
vt 0.545258 0.321198
vt 0.431122 0.298798
vt 0.009979 0.866333
vt 0.009979 0.767914
vt 0.009979 0.653809
vt 0.065796 0.584656
vt 0.814606 0.543671
vt 0.676117 0.545593
vt 0.584808 0.529907
vt 0.463776 0.546967
vt 0.424896 0.557465
vt 0.386017 0.567932
vt 0.029205 0.989990
s 1
usemtl m_hair0117
f 1/1/1 2/2/2 3/3/3
f 4/4/4 5/5/5 6/6/6
f 7/7/7 8/8/8 9/9/9
f 10/10/10 11/11/11 12/12/12
f 13/13/13 14/14/14 15/15/15
f 16/16/16 17/17/17 18/18/18
f 19/3/19 20/19/20 21/20/21
f 22/21/22 23/22/23 24/23/24
f 25/24/25 26/25/26 27/26/27
f 28/20/28 29/27/29 30/28/30
f 31/29/31 32/30/32 33/31/33
f 34/3/34 35/19/35 36/32/36
f 37/33/37 38/17/38 39/34/39
f 40/35/40 41/36/41 42/37/42
f 43/38/43 44/39/44 45/40/45
f 46/27/46 47/41/47 48/42/48
f 49/43/49 50/44/50 51/45/51
f 52/2/52 34/3/34 53/1/1
f 54/46/53 55/47/54 56/42/55
f 56/42/55 55/47/54 57/27/56
f 56/42/55 57/27/56 58/41/57
f 59/34/58 60/33/59 61/48/60
f 61/48/60 60/33/59 62/28/61
f 61/48/60 62/28/61 63/20/62
f 52/2/52 53/1/1 64/49/63
f 2/2/2 1/1/1 65/49/63
f 66/50/64 67/51/65 68/52/66
f 68/52/66 67/51/65 69/21/67
f 68/52/66 69/21/67 70/22/68
f 70/22/68 69/21/67 71/23/69
f 5/5/5 4/4/4 72/53/70
f 73/54/71 74/55/72 75/56/73
f 75/56/73 74/55/72 76/24/74
f 77/30/75 78/37/76 79/35/77
f 80/57/78 81/58/79 82/59/80
f 46/27/46 48/42/48 83/47/81
f 83/47/81 48/42/48 84/46/82
f 83/47/81 84/46/82 85/60/83
f 86/32/36 3/3/3 87/19/35
f 88/61/84 89/34/85 52/2/52
f 8/8/8 7/7/7 11/11/11
f 90/62/86 46/27/46 91/63/87
f 11/11/11 10/10/10 8/8/8
f 8/8/8 10/10/10 92/64/88
f 8/8/8 92/64/88 9/9/9
f 14/14/14 13/13/13 93/65/89
f 94/66/90 95/67/91 96/68/92
f 96/68/92 95/67/91 97/69/93
f 98/70/94 99/71/95 100/72/96
f 100/72/96 99/71/95 101/73/97
f 100/72/96 101/73/97 102/74/98
f 103/75/99 16/16/16 104/26/100
f 104/26/100 16/16/16 18/18/18
f 17/17/17 16/16/16 105/76/101
f 105/76/101 16/16/16 103/75/99
f 105/76/101 103/75/99 106/77/102
f 107/78/103 108/79/104 79/35/77
f 79/35/77 108/79/104 109/29/105
f 79/35/77 109/29/105 77/30/75
f 77/30/75 109/29/105 110/31/106
f 20/19/20 19/3/19 111/32/107
f 112/41/108 113/27/109 114/42/110
f 114/42/110 113/27/109 115/47/111
f 114/42/110 115/47/111 116/46/112
f 116/46/112 115/47/111 117/60/113
f 118/61/114 119/2/115 39/34/39
f 39/34/39 119/2/115 120/48/116
f 39/34/39 120/48/116 37/33/37
f 37/33/37 120/48/116 121/28/117
f 122/77/118 123/54/119 124/75/120
f 125/80/121 126/81/122 127/82/123
f 128/49/124 129/1/125 130/2/126
f 131/83/127 132/5/128 133/84/129
f 134/85/130 135/86/131 136/87/132
f 136/87/132 135/86/131 137/85/133
f 23/22/23 22/21/22 138/52/134
f 138/52/134 22/21/22 139/51/135
f 138/52/134 139/51/135 140/50/136
f 26/25/26 25/24/25 141/88/137
f 40/35/40 42/37/42 32/30/32
f 142/59/138 143/58/139 144/57/140
f 27/26/27 145/18/141 146/16/142
f 146/16/142 145/18/141 147/17/143
f 130/2/126 148/34/144 149/61/145
f 29/27/29 28/20/28 150/47/146
f 150/47/146 28/20/28 151/19/20
f 150/47/146 151/19/20 152/60/113
f 153/11/147 154/7/148 155/8/149
f 155/8/149 154/7/148 156/9/150
f 157/62/151 158/76/152 159/63/153
f 156/9/150 160/64/154 155/8/149
f 155/8/149 160/64/154 161/10/155
f 155/8/149 161/10/155 153/11/147
f 153/11/147 161/10/155 162/12/156
f 163/65/157 164/13/158 165/14/159
f 165/14/159 164/13/158 166/15/160
f 167/66/161 168/68/162 169/67/163
f 169/67/163 168/68/162 170/69/164
f 171/89/165 172/90/166 173/91/167
f 45/40/45 174/92/168 43/38/43
f 32/30/32 31/29/31 40/35/40
f 40/35/40 31/29/31 175/79/169
f 40/35/40 175/79/169 176/78/170
f 137/85/133 177/93/171 136/87/132
f 136/87/132 177/93/171 178/94/172
f 136/87/132 178/94/172 179/95/173
f 179/95/173 178/94/172 180/96/174
f 179/95/173 180/96/174 181/97/175
f 85/60/83 35/19/35 83/47/81
f 83/47/81 35/19/35 182/20/176
f 83/47/81 182/20/176 46/27/46
f 46/27/46 182/20/176 183/28/177
f 46/27/46 183/28/177 91/63/87
f 55/47/54 63/20/62 57/27/56
f 57/27/56 63/20/62 62/28/61
f 57/27/56 62/28/61 184/63/178
f 184/63/178 62/28/61 60/33/59
f 184/63/178 60/33/59 185/17/179
f 185/17/179 60/33/59 59/34/58
f 54/46/53 186/60/180 55/47/54
f 55/47/54 186/60/180 87/19/35
f 55/47/54 87/19/35 63/20/62
f 63/20/62 87/19/35 3/3/3
f 63/20/62 3/3/3 61/48/60
f 61/48/60 3/3/3 2/2/2
f 61/48/60 2/2/2 59/34/58
f 59/34/58 2/2/2 187/61/181
f 67/51/65 81/58/79 69/21/67
f 69/21/67 81/58/79 80/57/78
f 69/21/67 80/57/78 71/23/69
f 71/23/69 80/57/78 188/98/182
f 71/23/69 188/98/182 189/99/183
f 35/19/35 34/3/34 182/20/176
f 182/20/176 34/3/34 190/48/184
f 182/20/176 190/48/184 183/28/177
f 183/28/177 190/48/184 191/33/185
f 183/28/177 191/33/185 91/63/87
f 192/45/186 193/100/187 194/101/188
f 194/101/188 193/100/187 195/102/189
f 194/101/188 195/102/189 196/103/190
f 196/103/190 195/102/189 197/104/191
f 196/103/190 197/104/191 198/105/192
f 198/105/192 197/104/191 199/90/193
f 198/105/192 199/90/193 200/106/194
f 200/106/194 199/90/193 201/89/195
f 200/106/194 201/89/195 202/91/196
f 203/107/197 204/108/198 205/109/199
f 205/109/199 204/108/198 206/81/200
f 205/109/199 206/81/200 207/110/201
f 207/110/201 206/81/200 208/82/202
f 207/110/201 208/82/202 209/111/203
f 200/106/194 203/107/197 198/105/192
f 198/105/192 203/107/197 205/109/199
f 198/105/192 205/109/199 196/103/190
f 196/103/190 205/109/199 207/110/201
f 196/103/190 207/110/201 194/101/188
f 194/101/188 207/110/201 209/111/203
f 194/101/188 209/111/203 210/112/204
f 211/113/205 212/114/206 213/115/207
f 213/115/207 212/114/206 214/116/208
f 213/115/207 214/116/208 133/84/129
f 133/84/129 214/116/208 215/117/209
f 133/84/129 215/117/209 131/83/127
f 216/118/210 6/6/6 217/119/211
f 217/119/211 6/6/6 107/78/103
f 217/119/211 107/78/103 218/120/212
f 218/120/212 107/78/103 79/35/77
f 218/120/212 79/35/77 219/36/213
f 219/36/213 79/35/77 78/37/76
f 97/69/93 220/121/214 96/68/92
f 96/68/92 220/121/214 221/122/215
f 96/68/92 221/122/215 94/66/90
f 94/66/90 221/122/215 222/123/216
f 94/66/90 222/123/216 223/124/217
f 223/124/217 222/123/216 224/38/218
f 223/124/217 224/38/218 225/39/219
f 225/39/219 224/38/218 226/92/220
f 225/39/219 226/92/220 227/40/196
f 228/49/124 229/1/125 119/2/115
f 119/2/115 229/1/125 19/3/19
f 119/2/115 19/3/19 120/48/116
f 120/48/116 19/3/19 21/20/21
f 120/48/116 21/20/21 121/28/117
f 181/97/175 230/96/221 179/95/173
f 179/95/173 230/96/221 231/94/222
f 179/95/173 231/94/222 136/87/132
f 136/87/132 231/94/222 232/93/223
f 136/87/132 232/93/223 134/85/130
f 215/117/209 5/5/5 131/83/127
f 131/83/127 5/5/5 72/53/70
f 131/83/127 72/53/70 132/5/128
f 132/5/128 72/53/70 233/4/224
f 132/5/128 233/4/224 234/6/225
f 129/1/125 235/3/19 130/2/126
f 130/2/126 235/3/19 236/48/226
f 130/2/126 236/48/226 148/34/144
f 148/34/144 236/48/226 237/33/227
f 148/34/144 237/33/227 147/17/143
f 152/60/113 238/46/228 150/47/146
f 150/47/146 238/46/228 239/42/229
f 150/47/146 239/42/229 29/27/29
f 29/27/29 239/42/229 240/41/230
f 29/27/29 240/41/230 241/70/163
f 124/75/120 158/76/152 122/77/118
f 122/77/118 158/76/152 157/62/151
f 122/77/118 157/62/151 123/54/119
f 123/54/119 157/62/151 242/71/231
f 123/54/119 242/71/231 101/73/97
f 38/17/38 37/33/37 243/63/232
f 243/63/232 37/33/37 121/28/117
f 243/63/232 121/28/117 113/27/109
f 113/27/109 121/28/117 21/20/21
f 113/27/109 21/20/21 115/47/111
f 115/47/111 21/20/21 20/19/20
f 115/47/111 20/19/20 117/60/113
f 244/99/233 245/98/234 24/23/24
f 24/23/24 245/98/234 144/57/140
f 24/23/24 144/57/140 22/21/22
f 22/21/22 144/57/140 143/58/139
f 22/21/22 143/58/139 139/51/135
f 172/90/166 147/17/143 246/104/235
f 246/104/235 147/17/143 145/18/141
f 246/104/235 145/18/141 247/102/236
f 247/102/236 145/18/141 27/26/27
f 247/102/236 27/26/27 248/100/237
f 248/100/237 27/26/27 26/25/26
f 249/111/238 127/82/123 250/110/239
f 250/110/239 127/82/123 126/81/122
f 250/110/239 126/81/122 251/109/240
f 251/109/240 126/81/122 252/108/241
f 251/109/240 252/108/241 253/107/242
f 254/112/243 249/111/238 255/101/244
f 255/101/244 249/111/238 250/110/239
f 255/101/244 250/110/239 256/103/245
f 256/103/245 250/110/239 251/109/240
f 256/103/245 251/109/240 257/105/246
f 257/105/246 251/109/240 253/107/242
f 257/105/246 253/107/242 258/106/247
f 132/5/128 259/117/248 133/84/129
f 133/84/129 259/117/248 260/116/249
f 133/84/129 260/116/249 213/115/207
f 213/115/207 260/116/249 261/114/250
f 213/115/207 261/114/250 211/113/205
f 41/36/41 40/35/40 262/120/251
f 262/120/251 40/35/40 176/78/170
f 262/120/251 176/78/170 263/119/252
f 263/119/252 176/78/170 234/6/225
f 263/119/252 234/6/225 264/118/253
f 125/80/121 265/125/254 126/81/122
f 126/81/122 265/125/254 266/126/255
f 126/81/122 266/126/255 252/108/241
f 252/108/241 266/126/255 267/127/169
f 252/108/241 267/127/169 253/107/242
f 253/107/242 267/127/169 268/128/256
f 253/107/242 268/128/256 258/106/247
f 258/106/247 268/128/256 269/129/257
f 44/39/44 43/38/43 270/124/258
f 270/124/258 43/38/43 271/123/259
f 270/124/258 271/123/259 167/66/161
f 167/66/161 271/123/259 272/122/260
f 167/66/161 272/122/260 168/68/162
f 168/68/162 272/122/260 220/121/214
f 168/68/162 220/121/214 170/69/164
f 273/130/220 274/129/261 202/91/196
f 202/91/196 274/129/261 275/128/105
f 202/91/196 275/128/105 200/106/194
f 200/106/194 275/128/105 276/127/104
f 200/106/194 276/127/104 203/107/197
f 203/107/197 276/127/104 277/126/262
f 203/107/197 277/126/262 204/108/198
f 204/108/198 277/126/262 278/125/263
f 204/108/198 278/125/263 206/81/200
f 206/81/200 278/125/263 279/80/5
f 206/81/200 279/80/5 208/82/202
f 47/41/47 46/27/46 98/70/94
f 98/70/94 46/27/46 90/62/86
f 98/70/94 90/62/86 99/71/95
f 99/71/95 90/62/86 73/54/71
f 99/71/95 73/54/71 101/73/97
f 101/73/97 73/54/71 75/56/73
f 101/73/97 75/56/73 123/54/119
f 123/54/119 75/56/73 280/55/264
f 123/54/119 280/55/264 124/75/120
f 281/32/265 151/19/20 235/3/19
f 235/3/19 151/19/20 28/20/28
f 235/3/19 28/20/28 236/48/226
f 236/48/226 28/20/28 30/28/30
f 236/48/226 30/28/30 237/33/227
f 237/33/227 30/28/30 159/63/153
f 237/33/227 159/63/153 147/17/143
f 147/17/143 159/63/153 158/76/152
f 147/17/143 158/76/152 146/16/142
f 146/16/142 158/76/152 124/75/120
f 146/16/142 124/75/120 27/26/27
f 27/26/27 124/75/120 280/55/264
f 27/26/27 280/55/264 25/24/25
f 25/24/25 280/55/264 75/56/73
f 25/24/25 75/56/73 141/88/137
f 141/88/137 75/56/73 76/24/74
f 50/44/50 49/43/49 192/45/186
f 192/45/186 49/43/49 282/25/266
f 192/45/186 282/25/266 193/100/187
f 193/100/187 282/25/266 104/26/100
f 193/100/187 104/26/100 195/102/189
f 195/102/189 104/26/100 18/18/18
f 195/102/189 18/18/18 197/104/191
f 197/104/191 18/18/18 17/17/17
f 197/104/191 17/17/17 199/90/193
f 34/3/34 52/2/52 190/48/184
f 190/48/184 52/2/52 89/34/85
f 190/48/184 89/34/85 191/33/185
f 191/33/185 89/34/85 17/17/17
f 191/33/185 17/17/17 91/63/87
f 91/63/87 17/17/17 105/76/101
f 91/63/87 105/76/101 90/62/86
f 90/62/86 105/76/101 106/77/102
f 90/62/86 106/77/102 73/54/71
f 73/54/71 106/77/102 103/75/99
f 73/54/71 103/75/99 74/55/72
f 74/55/72 103/75/99 104/26/100
f 74/55/72 104/26/100 76/24/74
f 76/24/74 104/26/100 282/25/266
f 76/24/74 282/25/266 141/88/137
f 141/88/137 282/25/266 49/43/49
f 141/88/137 49/43/49 26/25/26
f 26/25/26 49/43/49 51/45/51
f 26/25/26 51/45/51 248/100/237
f 248/100/237 51/45/51 255/101/244
f 248/100/237 255/101/244 247/102/236
f 247/102/236 255/101/244 256/103/245
f 247/102/236 256/103/245 246/104/235
f 246/104/235 256/103/245 257/105/246
f 246/104/235 257/105/246 172/90/166
f 172/90/166 257/105/246 258/106/247
f 172/90/166 258/106/247 173/91/167
f 173/91/167 258/106/247 269/129/257
f 173/91/167 269/129/257 283/130/267
s 0
f 284/131/268 102/74/214 101/73/269
f 286/74/270 285/72/271 287/131/268
s 1
f 101/73/97 286/74/272 285/72/273
f 101/73/97 285/72/273 242/71/274
f 242/71/274 285/72/273 241/70/275
f 242/71/274 241/70/275 157/62/151
f 157/62/151 241/70/275 29/27/29
f 157/62/151 29/27/29 159/63/276
f 159/63/276 29/27/29 30/28/30
