mtllib m_hair005.mtl
o editpl_m-0000-1827
v -7.767260 48.583862 -3.545565
v -9.186877 47.587765 -5.396431
v -7.545106 42.202412 -2.997104
v -6.764858 55.701141 3.377433
v -7.108925 51.437202 1.347982
v -6.651072 51.363297 2.754251
v -11.961092 52.674290 -6.872938
v -7.946066 57.217781 -6.804941
v -5.236872 57.285259 -10.810043
v -6.426208 50.171192 -1.581123
v -7.228130 48.699539 -2.703448
v -5.486118 45.132866 0.175594
v -7.016813 56.559071 -7.447551
v -6.426208 60.257484 -7.135214
v -4.193832 59.691959 -9.542010
v -5.095994 54.721111 -11.298725
v -4.256144 56.459461 -10.033681
v 0.000000 56.475529 -11.908457
v -7.986704 48.497105 -9.228177
v -6.537285 42.796856 -12.528649
v -7.940648 43.163162 -8.443595
v 9.761226 52.038074 -3.703976
v 8.238659 55.048859 -4.488558
v 8.092363 55.109909 -2.199074
v 7.228130 48.699539 -2.703448
v 5.486118 45.132866 0.175594
v 6.707965 46.540257 -3.160747
v 0.000000 65.601067 2.748272
v -3.879566 64.939148 1.374134
v -4.058373 63.968754 5.273130
v 8.745279 55.036007 -2.493479
v 7.512595 56.915737 -2.491984
v 8.092363 56.093155 -0.778608
v -7.512595 56.915737 -2.491984
v -8.745279 55.036007 -2.493479
v -8.092363 56.093155 -0.778608
v -7.658892 50.842754 -3.653912
v -7.358171 45.553799 -2.730347
v 7.940648 43.163162 -8.443595
v 7.658892 50.842754 -3.653912
v 7.358171 45.553799 -2.730347
v 7.986704 48.497105 -9.228177
v 6.900317 51.157650 -7.700111
v 0.000000 62.358929 -9.365666
v 3.600519 62.898750 -7.855534
v 4.361803 59.920097 -9.614491
v 0.000000 64.698151 -7.669476
v 3.651994 64.900589 -3.635980
v -3.928331 50.367199 -16.400747
v -7.217293 49.367889 -15.412922
v -5.459026 53.259094 -7.263735
v -4.909060 47.590977 -9.361930
v -7.829571 46.977253 -7.659761
v -5.878951 44.904728 -8.903136
v -6.594178 42.485172 -6.113014
v -6.995139 47.732361 -6.187737
v -6.171544 51.726391 -5.418100
v -8.861774 52.163387 -4.893551
v -7.344625 53.294441 -2.596595
v -7.192910 55.007088 -5.239514
v -5.748910 58.663731 6.241529
v -5.098703 60.350670 6.979782
v -6.829878 59.965084 4.189661
v -4.486425 61.002953 7.211420
v -5.976482 61.645596 5.099028
v -5.949390 59.229256 5.454706
v -8.092363 56.093155 -0.778608
v -10.828649 53.108074 -2.898472
v -9.192296 56.295586 -0.236873
v -9.108311 57.278831 -3.930384
v -10.641714 55.739700 -4.673121
v -6.724220 54.072041 -6.947660
v -7.217293 55.614384 -2.307421
v -6.745893 55.579041 -7.395993
v -7.038486 54.891411 -0.759927
v -7.217293 55.614384 -2.307421
v -6.987012 52.979546 -3.127869
v -6.724220 54.072041 -6.947660
v -7.536978 50.637112 -3.077805
v -7.024940 54.100960 -1.788103
v -7.203747 55.148468 -4.318939
v -5.903334 48.452122 -3.813070
v -6.033375 51.157650 -4.847224
v -4.619176 46.414940 -7.182287
v -3.502988 49.702065 -6.844544
v -2.646883 45.714458 -9.217716
v 0.000000 48.985516 -9.954475
v -9.975253 52.581108 -7.194243
v -9.926487 52.603600 -2.731842
v -6.995139 57.837933 -3.125627
v -7.658892 50.842754 -3.653912
v -7.217293 55.614384 -2.307421
v -6.900317 51.157650 -7.700111
v -6.745893 55.579041 -7.395993
v -4.491844 55.068138 -9.349974
v -9.111020 47.925152 -12.229014
v -10.666097 46.716984 -8.056536
v -11.010165 50.267590 -4.996668
v -4.844039 46.752327 -12.700511
v -4.478298 50.335068 -10.278022
v 0.000000 50.672455 -12.153545
v 8.872611 52.066994 -2.559234
v 6.594178 42.485172 -6.113014
v 5.878951 44.904728 -8.903136
v 7.829571 46.977253 -7.659761
v 4.909060 47.590977 -9.361930
v 5.459026 53.259094 -7.263735
v 6.171544 51.726391 -5.418100
v 6.995139 47.732361 -6.187737
v 7.192910 55.007088 -5.239514
v 7.344625 53.294441 -2.596595
v 8.861774 52.163387 -4.893551
v 7.767260 48.583862 -3.545565
v 9.186877 47.587765 -5.396431
v 7.545106 42.202412 -2.997104
v 7.946066 52.985973 -7.217407
v 10.343703 50.029812 -6.759361
v 5.236872 51.678192 -11.151523
v 6.829878 59.965084 4.189661
v 5.098703 60.350670 6.979782
v 5.748910 58.663731 6.241529
v -2.080661 60.778027 8.692411
v 0.000000 60.373161 9.296913
v 0.000000 61.472080 9.195292
v 2.080661 60.778027 8.692411
v 4.001480 62.243256 7.233090
v 6.764858 55.701141 3.377433
v 8.092363 56.093155 -0.778608
v 6.886771 57.423428 4.283064
v 8.092363 56.093155 -0.778608
v 6.764858 55.701141 3.377433
v 7.108925 51.437202 1.347982
v 6.651072 51.363297 2.754251
v 6.995139 57.837933 -3.125627
v 7.016813 56.559071 -7.447551
v 6.426208 60.257484 -7.135214
v 4.256144 56.459461 -10.033681
v 4.193832 59.691959 -9.542010
v 4.058373 63.968754 5.273130
v 0.000000 64.116562 6.251242
v 0.000000 62.837700 8.782825
v 10.641714 55.739700 -4.673121
v 9.108311 57.278831 -3.930384
v 9.192296 56.295586 -0.236873
v 6.426208 50.171192 -1.581123
v 7.536978 50.637112 -3.077805
v 7.024940 54.100960 -1.788103
v 6.745893 55.579041 -7.395993
v 7.217293 55.614384 -2.307421
v 6.724220 54.072041 -6.947660
v 0.000000 65.925606 -1.833684
v 3.879566 64.939148 1.374134
v 11.010165 50.267590 -4.996668
v 10.666097 46.716984 -8.056536
v 9.975253 52.581108 -7.194243
v 9.926487 52.603600 -2.731842
v -8.872611 52.066994 -2.559234
v -8.092363 55.109909 -2.199074
v -9.761226 52.038074 -3.703976
v -8.238659 55.048859 -4.488558
v -10.343703 50.029812 -6.759361
v -7.946066 52.985973 -7.217407
v -5.236872 51.678192 -11.151523
v 0.000000 52.108765 -13.730181
v -4.123393 47.211819 -16.021158
v -7.913556 45.103947 -11.457136
v -10.089039 47.070438 -6.301314
v -9.555328 49.024075 -2.920142
v -7.043905 50.800983 -6.840808
v -7.320242 47.655243 -7.384037
v -8.067980 45.071815 -6.411155
v 0.000000 59.926525 -10.642667
v 0.000000 57.291683 -13.236269
v -4.361803 59.920097 -9.614491
v -6.686291 60.286404 -7.109808
v -8.238659 57.767242 -2.936581
v -8.092363 56.093155 -0.778608
v -7.046614 51.099812 -4.575235
v -6.987012 49.052994 -4.492294
v -6.707965 46.540257 -3.160747
v -5.372332 57.831505 7.557384
v -7.054741 56.228111 4.865896
v -8.271170 55.559761 2.513646
v -7.737458 59.618053 -0.298892
v -8.200731 58.817963 -3.187648
v -3.738688 52.439724 -8.835887
v 9.555328 49.024075 -2.920142
v 10.089039 47.070438 -6.301314
v 7.913556 45.103947 -11.457136
v 4.123393 47.211819 -16.021158
v 0.000000 48.150078 -18.158211
v 4.123393 53.467957 -15.610188
v 0.000000 53.831051 -18.213503
v -4.123393 53.467957 -15.610188
v -8.317226 52.577892 -12.161017
v 8.067980 45.071815 -6.411155
v 7.320242 47.655243 -7.384037
v 7.043905 50.800983 -6.840808
v 11.961092 52.674290 -6.872938
v 7.946066 57.217781 -6.804941
v 10.828649 53.108074 -2.898472
v 8.238659 57.767242 -2.936581
v 7.710366 60.157875 -0.048574
v 5.976482 61.645596 5.099028
v 0.000000 60.254272 -10.077767
v 3.337727 61.150761 7.953410
v 4.486425 61.002953 7.211420
v 5.949390 59.229256 5.454706
v 6.987012 49.052994 -4.492294
v 7.046614 51.099812 -4.575235
v 7.203747 55.148468 -4.318939
v -4.491844 55.068138 -9.349974
v 0.000000 55.521202 -10.918390
v 0.000000 51.459694 -10.240661
v 4.491844 55.068138 -9.349974
v 3.738688 52.439724 -8.835887
v 6.745893 55.579041 -7.395993
v 6.724220 54.072041 -6.947660
v 6.987012 52.979546 -3.127869
v 5.903334 48.452122 -3.813070
v 6.033375 51.157650 -4.847224
v 4.619176 46.414940 -7.182287
v 3.502988 49.702065 -6.844544
v 2.646883 45.714458 -9.217716
v 0.000000 45.910465 -10.082998
v 8.200731 58.817963 -3.187648
v 7.737458 59.618053 -0.298892
v 8.271170 55.559761 2.513646
v 7.054741 56.228111 4.865896
v 5.372332 57.831505 7.557384
v 9.111020 47.925152 -12.229014
v 7.217293 49.367889 -15.412922
v 5.095994 54.721111 -11.298725
v 3.928331 50.367199 -16.400747
v 0.000000 53.908165 -14.449007
v 0.000000 50.209751 -18.401804
v 4.491844 55.068138 -9.349974
v 4.478298 50.335068 -10.278022
v 6.745893 55.579041 -7.395993
v 7.217293 55.614384 -2.307421
v 7.658892 50.842754 -3.653912
v 0.000000 55.521202 -10.918390
v 6.537285 42.796856 -12.528649
v 4.844039 46.752327 -12.700511
v 3.110155 42.941452 -15.426371
v 0.000000 47.674522 -14.374285
v 0.000000 43.169590 -17.223436
v -3.110155 42.941452 -15.426371
v -3.600519 62.898750 -7.855534
v -3.651994 64.900589 -3.635980
v -7.396100 61.709862 -4.032007
v -6.339514 62.892326 0.364639
v -7.710366 60.157875 -0.048574
v -6.886771 57.423428 4.283064
v -4.001480 62.243256 7.233090
v -3.337727 61.150761 7.953410
v 5.236872 57.285259 -10.810043
v 6.686291 60.286404 -7.109808
v 7.396100 61.709862 -4.032007
v 6.339514 62.892326 0.364639
v 8.317226 52.577892 -12.161017
v 7.038486 54.891411 -0.759927
v 7.217293 55.614384 -2.307421
v -6.745893 55.579041 -7.395993
v -6.764858 55.701141 3.377433
vn -0.8084 -0.0078 0.5886
vn -0.9955 -0.0627 -0.0706
vn -0.9527 -0.1811 0.2441
vn -0.9522 -0.0630 0.2990
vn -0.9499 -0.0628 0.3062
vn -0.7233 0.6368 -0.2673
vn -0.8391 0.4941 -0.2275
vn -0.5900 0.5427 -0.5978
vn -0.8183 -0.0236 0.5744
vn -0.9719 -0.1176 0.2038
vn -0.9091 -0.1176 0.3997
vn -0.8586 0.3703 -0.3545
vn -0.9017 0.1647 -0.3999
vn -0.4337 0.2444 -0.8673
vn -0.4411 0.6616 -0.6064
vn -0.5590 0.4173 -0.7165
vn -0.0000 0.5122 -0.8589
vn -0.8307 0.3213 -0.4546
vn -0.7767 0.1491 -0.6120
vn -0.9986 -0.0236 -0.0472
vn 0.9499 0.1963 0.2433
vn 0.8695 0.4778 -0.1253
vn 0.8871 0.3062 0.3454
vn 0.9719 -0.1176 0.2038
vn 0.9091 -0.1176 0.3997
vn 0.9717 -0.2351 0.0235
vn -0.0000 0.9737 0.2277
vn -0.4078 0.9097 0.0784
vn -0.4470 0.8078 0.3843
vn 0.8586 0.5120 -0.0236
vn 0.8562 0.5106 -0.0786
vn 0.8684 0.4929 -0.0548
vn -0.8562 0.5106 -0.0786
vn -0.8586 0.5120 -0.0236
vn -0.8684 0.4929 -0.0548
vn -0.9905 0.1336 -0.0314
vn -0.9935 -0.0313 0.1095
vn 0.9986 -0.0236 -0.0472
vn 0.9905 0.1336 -0.0314
vn 0.9935 -0.0313 0.1095
vn 0.8307 0.3213 -0.4546
vn 0.8788 0.2825 -0.3845
vn -0.0000 0.5365 -0.8439
vn 0.4641 0.6608 -0.5900
vn 0.3695 0.5423 -0.7546
vn -0.0000 0.8643 -0.5029
vn 0.4648 0.8667 -0.1812
vn -0.3298 0.6831 -0.6517
vn -0.6677 0.5342 -0.5185
vn -0.8088 0.3298 -0.4868
vn -0.5197 0.1418 -0.8425
vn -0.9598 0.0551 -0.2753
vn -0.6593 -0.1805 -0.7299
vn -0.9638 -0.2664 -0.0079
vn -0.8729 0.0158 0.4876
vn -0.9502 0.2356 0.2041
vn -0.9642 0.2195 -0.1489
vn -0.8613 0.2428 0.4463
vn -0.8449 0.4580 -0.2764
vn -0.8573 0.1652 0.4876
vn -0.8523 0.1026 0.5129
vn -0.8955 0.1571 0.4163
vn -0.7099 0.1893 0.6784
vn -0.8440 0.3155 0.4338
vn -0.8165 0.0707 0.5731
vn -0.9522 -0.0629 0.2990
vn -0.8282 0.5442 0.1341
vn -0.8594 0.4810 0.1735
vn -0.8157 0.5647 0.1255
vn -0.7364 0.6581 0.1567
vn -0.8419 -0.3226 -0.4327
vn -0.9929 -0.1094 -0.0469
vn -0.8857 -0.1724 -0.4310
vn -0.9927 -0.1024 0.0630
vn -0.9796 -0.1567 -0.1254
vn -0.8418 -0.3226 -0.4327
vn -0.9874 -0.0235 0.1567
vn -0.9354 -0.0000 0.3537
vn -0.9940 0.0391 -0.1017
vn -0.9415 -0.1569 -0.2981
vn -0.8821 -0.1654 -0.4411
vn -0.7455 0.1413 -0.6514
vn -0.6748 -0.1098 -0.7298
vn -0.5248 0.2193 -0.8225
vn -0.0000 -0.0707 -0.9975
vn -0.8513 0.4414 -0.2837
vn -0.9052 0.4250 -0.0000
vn -0.9369 0.3386 -0.0866
vn -0.9905 0.1336 -0.0315
vn -0.9873 0.0862 -0.1332
vn -0.8788 0.2825 -0.3845
vn -0.8948 0.0785 -0.4395
vn -0.4777 0.1723 -0.8614
vn -0.9111 0.2121 -0.3535
vn -0.9449 0.1496 -0.2913
vn -0.9468 0.2895 -0.1408
vn -0.4860 0.4311 -0.7603
vn -0.4954 0.4010 -0.7706
vn -0.0000 0.4156 -0.9096
vn 0.7875 0.1102 0.6064
vn 0.9638 -0.2664 -0.0079
vn 0.6593 -0.1805 -0.7299
vn 0.9598 0.0551 -0.2753
vn 0.5197 0.1418 -0.8425
vn 0.8088 0.3298 -0.4868
vn 0.9502 0.2356 0.2041
vn 0.8729 0.0158 0.4876
vn 0.8449 0.4580 -0.2764
vn 0.8613 0.2428 0.4463
vn 0.9642 0.2195 -0.1489
vn 0.8084 -0.0078 0.5886
vn 0.9955 -0.0627 -0.0706
vn 0.9527 -0.1811 0.2441
vn 0.7547 0.4717 -0.4560
vn 0.9000 0.2289 -0.3710
vn 0.6462 0.4413 -0.6226
vn 0.8955 0.1571 0.4163
vn 0.8523 0.1026 0.5129
vn 0.8573 0.1652 0.4876
vn -0.3375 0.2669 0.9027
vn -0.0000 0.0863 0.9963
vn -0.0000 0.2664 0.9639
vn 0.3375 0.2669 0.9027
vn 0.5101 0.4003 0.7613
vn 0.9374 -0.2127 0.2757
vn 0.9617 0.0867 0.2601
vn 0.9413 0.0157 0.3373
vn 0.9522 -0.0630 0.2990
vn 0.9499 -0.0628 0.3062
vn 0.9369 0.3386 -0.0866
vn 0.8586 0.3702 -0.3545
vn 0.9017 0.1646 -0.3999
vn 0.5590 0.4173 -0.7165
vn 0.4337 0.2444 -0.8673
vn 0.4470 0.8078 0.3843
vn -0.0000 0.9096 0.4156
vn -0.0000 0.6831 0.7303
vn 0.7364 0.6581 0.1567
vn 0.8157 0.5647 0.1255
vn 0.8594 0.4810 0.1735
vn 0.8183 -0.0236 0.5743
vn 0.9874 -0.0235 0.1567
vn 0.9354 -0.0000 0.3537
vn 0.8857 -0.1724 -0.4311
vn 0.9929 -0.1094 -0.0469
vn 0.8419 -0.3226 -0.4327
vn -0.0000 0.9989 -0.0472
vn 0.4078 0.9097 0.0784
vn 0.9468 0.2895 -0.1408
vn 0.9449 0.1496 -0.2913
vn 0.8513 0.4414 -0.2837
vn 0.9052 0.4250 -0.0000
vn -0.7875 0.1102 0.6064
vn -0.8871 0.3062 0.3454
vn -0.9499 0.1963 0.2434
vn -0.8695 0.4778 -0.1253
vn -0.9000 0.2289 -0.3710
vn -0.7547 0.4717 -0.4560
vn -0.6462 0.4413 -0.6226
vn -0.0000 0.7149 -0.6992
vn -0.5586 0.5665 -0.6058
vn -0.8314 0.1804 -0.5255
vn -0.9974 -0.0707 0.0157
vn -0.9160 0.0391 0.3992
vn -0.6284 0.2199 -0.7462
vn -0.7045 0.0861 -0.7045
vn -0.8739 -0.2047 -0.4409
vn -0.0000 0.5886 -0.8084
vn -0.0000 0.7071 -0.7071
vn -0.3694 0.5424 -0.7546
vn -0.7863 0.4167 -0.4561
vn -0.9570 0.2902 -0.0000
vn -0.9617 0.0867 0.2601
vn -0.9593 -0.0629 -0.2752
vn -0.9662 -0.1571 -0.2042
vn -0.9717 -0.2351 0.0235
vn -0.8825 0.2443 0.4019
vn -0.8729 0.1730 0.4561
vn -0.9102 0.2511 0.3295
vn -0.9178 0.3452 0.1961
vn -0.8989 0.4337 0.0631
vn -0.5507 -0.3383 -0.7631
vn 0.9160 0.0391 0.3992
vn 0.9974 -0.0707 0.0157
vn 0.8314 0.1804 -0.5255
vn 0.5586 0.5665 -0.6058
vn -0.0000 0.7452 -0.6669
vn 0.4319 0.6831 -0.5889
vn -0.0000 0.8210 -0.5709
vn -0.4319 0.6831 -0.5889
vn -0.6357 0.5651 -0.5258
vn 0.8739 -0.2047 -0.4409
vn 0.7045 0.0861 -0.7045
vn 0.6284 0.2199 -0.7462
vn 0.7232 0.6368 -0.2673
vn 0.8391 0.4941 -0.2275
vn 0.8282 0.5442 0.1341
vn 0.9570 0.2902 -0.0000
vn 0.9625 0.2269 0.1487
vn 0.8440 0.3155 0.4338
vn -0.0000 0.4315 -0.9021
vn 0.4784 0.2588 0.8392
vn 0.7099 0.1893 0.6784
vn 0.8165 0.0707 0.5731
vn 0.9662 -0.1571 -0.2042
vn 0.9593 -0.0629 -0.2752
vn 0.9940 0.0391 -0.1017
vn -0.4556 -0.2435 -0.8562
vn -0.0000 -0.1646 -0.9864
vn -0.0000 -0.1961 -0.9806
vn 0.4556 -0.2435 -0.8562
vn 0.5507 -0.3383 -0.7631
vn 0.8418 -0.3226 -0.4327
vn 0.9796 -0.1567 -0.1254
vn 0.9415 -0.1569 -0.2982
vn 0.8821 -0.1654 -0.4410
vn 0.7455 0.1413 -0.6514
vn 0.6748 -0.1098 -0.7298
vn 0.5248 0.2193 -0.8225
vn -0.0000 0.0394 -0.9992
vn 0.8989 0.4337 0.0631
vn 0.9178 0.3452 0.1961
vn 0.9101 0.2511 0.3295
vn 0.8729 0.1730 0.4561
vn 0.8825 0.2443 0.4019
vn 0.9111 0.2121 -0.3535
vn 0.6677 0.5342 -0.5185
vn 0.4411 0.6616 -0.6064
vn 0.3298 0.6831 -0.6517
vn -0.0000 0.7227 -0.6912
vn -0.0000 0.7302 -0.6832
vn 0.4777 0.1723 -0.8614
vn 0.4954 0.4010 -0.7706
vn 0.8948 0.0785 -0.4395
vn 0.9873 0.0862 -0.1332
vn 0.9905 0.1336 -0.0315
vn -0.0000 0.2425 -0.9701
vn 0.7767 0.1491 -0.6120
vn 0.4860 0.4311 -0.7603
vn 0.4954 0.3853 -0.7785
vn -0.0000 0.5272 -0.8498
vn -0.0000 0.5328 -0.8462
vn -0.4954 0.3853 -0.7785
vn -0.4641 0.6608 -0.5900
vn -0.4648 0.8667 -0.1812
vn -0.8372 0.5164 -0.1800
vn -0.7641 0.6381 0.0945
vn -0.9625 0.2269 0.1487
vn -0.9413 0.0157 0.3373
vn -0.5102 0.4003 0.7613
vn -0.4784 0.2588 0.8392
vn 0.5900 0.5428 -0.5978
vn 0.7863 0.4167 -0.4561
vn 0.8372 0.5164 -0.1800
vn 0.7641 0.6381 0.0945
vn 0.6357 0.5651 -0.5258
vn 0.9927 -0.1024 0.0630
vn 0.9929 -0.1095 -0.0469
vn -0.8857 -0.1724 -0.4311
vn -0.9374 -0.2127 0.2757
vt 0.322144 0.835236
vt 0.366211 0.876404
vt 0.275909 0.987457
vt 0.015594 0.394623
vt 0.146118 0.358826
vt 0.146179 0.386230
vt 0.599884 0.591187
vt 0.630066 0.421387
vt 0.793457 0.436157
vt 0.649536 0.675171
vt 0.682007 0.609375
vt 0.843658 0.609375
vt 0.837036 0.807190
vt 0.828156 0.687958
vt 0.987640 0.700653
vt 0.676544 0.809052
vt 0.799805 0.987091
vt 0.622406 0.960083
vt 0.470825 0.441467
vt 0.489410 0.343475
vt 0.369904 0.372528
vt 0.379395 0.956329
vt 0.366913 0.012451
vt 0.353729 0.119232
vt 0.189667 0.124268
vt 0.459808 0.799530
vt 0.459808 0.704468
vt 0.652679 0.675201
vt 0.495850 0.811279
vt 0.494904 0.928406
vt 0.632385 0.664856
vt 0.933563 0.152771
vt 0.756226 0.200958
vt 0.811401 0.324127
vt 0.787689 0.050385
vt 0.648041 0.155182
vt 0.932678 0.988068
vt 0.799805 0.969513
vt 0.423218 0.747864
vt 0.429932 0.893188
vt 0.329315 0.737244
vt 0.378174 0.761597
vt 0.035217 0.516479
vt 0.014374 0.415985
vt 0.101624 0.424530
vt 0.012909 0.187317
vt 0.154266 0.232727
vt 0.038452 0.274872
vt 0.012543 0.284637
vt 0.452240 0.539429
vt 0.264648 0.593201
vt 0.389648 0.528534
vt 0.419525 0.603699
vt 0.309906 0.723633
vt 0.303589 0.704529
vt 0.296967 0.745575
vt 0.268890 0.719696
vt 0.378662 0.822327
vt 0.278229 0.897064
vt 0.245117 0.830750
vt 0.207001 0.987335
vt 0.117432 0.877014
vt 0.105591 0.987488
vt 0.012299 0.875641
vt 0.570740 0.801727
vt 0.473755 0.874481
vt 0.459808 0.609375
vt 0.690369 0.972076
vt 0.599152 0.987305
vt 0.517761 0.927246
vt 0.792419 0.814087
vt 0.835022 0.691406
vt 0.989380 0.752258
vt 0.411072 0.455994
vt 0.614990 0.506287
vt 0.010712 0.078369
vt 0.010559 0.012451
vt 0.047699 0.012451
vt 0.076965 0.128143
vt 0.182556 0.392456
vt 0.154755 0.333588
vt 0.192993 0.012451
vt 0.106049 0.012451
vt 0.632477 0.012451
vt 0.987549 0.428467
vt 0.885376 0.591187
vt 0.776917 0.591187
vt 0.431091 0.804321
vt 0.981354 0.269684
vt 0.687622 0.306488
vt 0.014984 0.577972
vt 0.101776 0.630554
vt 0.171570 0.641510
vt 0.257782 0.424286
vt 0.359802 0.453369
vt 0.121948 0.755371
vt 0.987549 0.591187
vt 0.361115 0.260956
vt 0.988434 0.609375
vt 0.011139 0.129852
vt 0.136169 0.663849
vt 0.012299 0.676270
vt 0.012299 0.789581
vt 0.287872 0.676361
vt 0.012299 0.987518
vt 0.989380 0.813507
vt 0.989380 0.988068
vt 0.886292 0.988068
vt 0.989380 0.856506
vt 0.547791 0.239105
vt 0.342468 0.209259
s 1
usemtl m_hair0109
f 1/1/1 2/2/2 3/3/3
f 4/4/4 5/5/4 6/6/5
f 7/7/6 8/8/7 9/9/8
f 10/1/9 11/2/10 12/3/11
f 13/10/12 14/11/13 15/12/14
f 16/13/15 17/14/16 18/15/17
f 19/16/18 20/17/19 21/18/20
f 22/19/21 23/20/22 24/21/23
f 25/2/24 26/3/25 27/22/26
f 28/23/27 29/24/28 30/25/29
f 31/26/30 32/27/31 33/28/32
f 34/27/33 35/26/34 36/28/35
f 37/29/36 21/18/20 38/30/37
f 39/18/38 40/29/39 41/30/40
f 42/16/41 43/31/42 40/29/39
f 44/32/43 45/33/44 46/34/45
f 47/35/46 48/36/47 45/33/44
f 16/13/15 49/37/48 50/38/49
f 51/39/50 52/40/51 53/2/52
f 53/2/52 52/40/51 54/22/53
f 53/2/52 54/22/53 55/3/54
f 55/3/54 56/1/55 53/2/52
f 53/2/52 56/1/55 57/41/56
f 53/2/52 57/41/56 51/39/50
f 2/2/2 1/1/1 58/42/57
f 58/42/57 1/1/1 59/41/58
f 58/42/57 59/41/58 60/39/59
f 61/43/60 62/44/61 63/45/62
f 64/46/63 65/47/64 66/48/65
f 5/5/4 4/4/4 67/49/66
f 8/8/7 7/7/6 68/50/67
f 69/51/68 70/52/69 71/53/70
f 72/7/71 73/50/72 74/8/73
f 75/54/74 76/55/72 77/56/75
f 77/56/75 76/55/72 78/57/76
f 11/2/10 10/1/9 79/58/77
f 79/58/77 10/1/9 80/41/78
f 79/58/77 80/41/78 81/39/79
f 82/59/80 83/60/81 84/61/82
f 84/61/82 83/60/81 85/62/83
f 84/61/82 85/62/83 86/63/84
f 86/63/84 85/62/83 87/64/85
f 88/65/86 89/66/87 35/26/34
f 14/11/13 13/10/12 90/67/88
f 90/67/88 13/10/12 34/27/33
f 90/67/88 34/27/33 36/28/35
f 91/26/89 92/67/90 93/31/91
f 93/31/91 92/67/90 94/11/92
f 93/31/91 94/11/92 95/12/93
f 17/14/16 16/13/15 88/65/86
f 88/65/86 16/13/15 50/38/49
f 88/65/86 50/38/49 96/68/94
f 96/68/94 97/69/95 88/65/86
f 88/65/86 97/69/95 98/70/96
f 88/65/86 98/70/96 89/66/87
f 20/17/19 19/16/18 99/71/97
f 99/71/97 19/16/18 100/72/98
f 99/71/97 100/72/98 101/73/99
f 102/74/100 22/19/21 24/21/23
f 103/3/101 104/22/102 105/2/103
f 105/2/103 104/22/102 106/40/104
f 105/2/103 106/40/104 107/39/105
f 107/39/105 108/41/106 105/2/103
f 105/2/103 108/41/106 109/1/107
f 105/2/103 109/1/107 103/3/101
f 110/39/108 111/41/109 112/42/110
f 112/42/110 111/41/109 113/1/111
f 112/42/110 113/1/111 114/2/112
f 114/2/112 113/1/111 115/3/113
f 23/20/22 22/19/21 116/8/114
f 116/8/114 22/19/21 117/75/115
f 116/8/114 117/75/115 118/9/116
f 119/45/117 120/44/118 121/43/119
f 122/76/120 123/77/121 124/78/122
f 124/78/122 123/77/121 125/76/123
f 124/78/122 125/76/123 126/79/124
f 127/80/125 128/21/126 129/81/127
f 130/49/128 131/4/128 132/5/128
f 132/5/128 131/4/128 133/6/129
f 134/67/130 135/10/131 136/11/132
f 136/11/132 135/10/131 137/14/133
f 136/11/132 137/14/133 138/12/134
f 138/12/134 137/14/133 18/15/17
f 139/25/135 140/82/136 141/83/137
f 142/53/138 143/52/139 144/51/140
f 26/3/25 25/2/24 145/1/141
f 145/1/141 25/2/24 146/58/142
f 145/1/141 146/58/142 147/41/143
f 148/8/144 149/50/145 150/7/146
f 29/24/28 28/23/27 151/84/147
f 151/84/147 28/23/27 152/24/148
f 151/84/147 152/24/148 48/36/47
f 153/70/149 154/69/150 155/65/151
f 32/27/31 31/26/30 155/65/151
f 155/65/151 31/26/30 156/66/152
f 155/65/151 156/66/152 153/70/149
f 157/74/153 158/21/154 159/19/155
f 159/19/155 158/21/154 160/20/156
f 159/19/155 160/20/156 161/75/157
f 161/75/157 160/20/156 162/8/158
f 161/75/157 162/8/158 163/9/159
f 164/85/160 165/86/161 163/9/159
f 163/9/159 165/86/161 166/87/162
f 163/9/159 166/87/162 161/75/157
f 161/75/157 166/87/162 167/7/163
f 161/75/157 167/7/163 159/19/155
f 159/19/155 167/7/163 168/50/164
f 159/19/155 168/50/164 157/74/153
f 60/39/59 169/88/165 58/42/57
f 58/42/57 169/88/165 170/40/166
f 58/42/57 170/40/166 2/2/2
f 2/2/2 170/40/166 171/22/167
f 2/2/2 171/22/167 3/3/3
f 172/89/168 173/85/169 174/34/170
f 174/34/170 173/85/169 9/9/8
f 174/34/170 9/9/8 175/90/171
f 175/90/171 9/9/8 8/8/7
f 175/90/171 8/8/7 176/20/172
f 176/20/172 8/8/7 68/50/67
f 176/20/172 68/50/67 177/21/173
f 81/39/79 178/88/174 79/58/77
f 79/58/77 178/88/174 179/40/175
f 79/58/77 179/40/175 11/2/10
f 11/2/10 179/40/175 180/22/176
f 11/2/10 180/22/176 12/3/11
f 181/91/177 61/43/60 182/92/178
f 182/92/178 61/43/60 63/45/62
f 182/92/178 63/45/62 183/93/179
f 183/93/179 63/45/62 184/94/180
f 183/93/179 184/94/180 69/51/68
f 69/51/68 184/94/180 185/95/181
f 69/51/68 185/95/181 70/52/69
f 82/59/80 77/56/75 83/60/81
f 83/60/81 77/56/75 78/57/76
f 83/60/81 78/57/76 85/62/83
f 85/62/83 78/57/76 186/96/182
f 85/62/83 186/96/182 87/64/85
f 102/74/100 187/50/183 22/19/21
f 22/19/21 187/50/183 188/7/184
f 22/19/21 188/7/184 117/75/115
f 117/75/115 188/7/184 189/87/185
f 117/75/115 189/87/185 118/9/116
f 118/9/116 189/87/185 190/86/186
f 118/9/116 190/86/186 164/85/160
f 164/85/160 190/86/186 191/97/187
f 164/85/160 191/97/187 165/86/161
f 192/86/188 193/97/189 173/85/169
f 173/85/169 193/97/189 194/86/190
f 173/85/169 194/86/190 9/9/8
f 9/9/8 194/86/190 195/87/191
f 9/9/8 195/87/191 7/7/6
f 115/3/113 196/22/192 114/2/112
f 114/2/112 196/22/192 197/40/193
f 114/2/112 197/40/193 112/42/110
f 112/42/110 197/40/193 198/88/194
f 112/42/110 198/88/194 110/39/108
f 199/7/195 200/8/196 201/50/197
f 201/50/197 200/8/196 202/20/198
f 201/50/197 202/20/198 128/21/126
f 128/21/126 202/20/198 203/98/199
f 128/21/126 203/98/199 129/81/127
f 129/81/127 203/98/199 204/47/200
f 35/26/34 34/27/33 88/65/86
f 88/65/86 34/27/33 13/10/12
f 88/65/86 13/10/12 17/14/16
f 17/14/16 13/10/12 15/12/14
f 17/14/16 15/12/14 18/15/17
f 18/15/17 15/12/14 205/99/201
f 18/15/17 205/99/201 138/12/134
f 125/76/123 206/100/202 126/79/124
f 126/79/124 206/100/202 207/46/203
f 126/79/124 207/46/203 204/47/200
f 204/47/200 207/46/203 208/48/204
f 204/47/200 208/48/204 129/81/127
f 27/22/26 209/40/205 25/2/24
f 25/2/24 209/40/205 210/88/206
f 25/2/24 210/88/206 146/58/142
f 146/58/142 210/88/206 211/39/207
f 146/58/142 211/39/207 147/41/143
f 212/101/208 213/102/209 214/103/210
f 214/103/210 213/102/209 215/101/211
f 214/103/210 215/101/211 216/96/212
f 216/96/212 215/101/211 217/104/144
f 216/96/212 217/104/144 218/57/213
f 219/56/214 220/59/215 221/60/216
f 221/60/216 220/59/215 222/61/217
f 221/60/216 222/61/217 223/62/218
f 223/62/218 222/61/217 224/63/219
f 223/62/218 224/63/219 87/64/85
f 87/64/85 224/63/219 225/105/220
f 87/64/85 225/105/220 86/63/84
f 143/52/139 226/95/221 144/51/140
f 144/51/140 226/95/221 227/94/222
f 144/51/140 227/94/222 228/93/223
f 228/93/223 227/94/222 119/45/117
f 228/93/223 119/45/117 229/92/224
f 229/92/224 119/45/117 121/43/119
f 229/92/224 121/43/119 230/91/225
f 154/69/150 231/68/226 155/65/151
f 155/65/151 231/68/226 232/38/227
f 155/65/151 232/38/227 233/13/228
f 233/13/228 232/38/227 234/37/229
f 233/13/228 234/37/229 235/106/230
f 235/106/230 234/37/229 236/107/231
f 235/106/230 236/107/231 49/37/48
f 101/73/99 237/12/232 238/72/233
f 238/72/233 237/12/232 239/11/234
f 238/72/233 239/11/234 43/31/42
f 43/31/42 239/11/234 240/67/235
f 43/31/42 240/67/235 241/26/236
f 21/18/20 37/29/36 19/16/18
f 19/16/18 37/29/36 93/31/91
f 19/16/18 93/31/91 100/72/98
f 100/72/98 93/31/91 95/12/93
f 100/72/98 95/12/93 101/73/99
f 101/73/99 95/12/93 242/99/237
f 101/73/99 242/99/237 237/12/232
f 40/29/39 39/18/38 42/16/41
f 42/16/41 39/18/38 243/17/238
f 42/16/41 243/17/238 244/71/239
f 244/71/239 243/17/238 245/108/240
f 244/71/239 245/108/240 246/109/241
f 246/109/241 245/108/240 247/107/242
f 246/109/241 247/107/242 248/108/243
f 43/31/42 42/16/41 238/72/233
f 238/72/233 42/16/41 244/71/239
f 238/72/233 244/71/239 101/73/99
f 101/73/99 244/71/239 246/109/241
f 101/73/99 246/109/241 99/71/97
f 99/71/97 246/109/241 248/108/243
f 99/71/97 248/108/243 20/17/19
f 45/33/44 44/32/43 47/35/46
f 47/35/46 44/32/43 249/33/244
f 47/35/46 249/33/244 250/36/245
f 250/36/245 249/33/244 251/110/246
f 250/36/245 251/110/246 252/111/247
f 252/111/247 251/110/246 253/98/248
f 252/111/247 253/98/248 65/47/64
f 65/47/64 253/98/248 254/81/249
f 65/47/64 254/81/249 66/48/65
f 48/36/47 47/35/46 151/84/147
f 151/84/147 47/35/46 250/36/245
f 151/84/147 250/36/245 29/24/28
f 29/24/28 250/36/245 252/111/247
f 29/24/28 252/111/247 30/25/29
f 30/25/29 252/111/247 65/47/64
f 30/25/29 65/47/64 255/79/250
f 255/79/250 65/47/64 64/46/63
f 255/79/250 64/46/63 256/100/251
f 257/9/252 46/34/45 258/90/253
f 258/90/253 46/34/45 45/33/44
f 258/90/253 45/33/44 259/110/254
f 259/110/254 45/33/44 48/36/47
f 259/110/254 48/36/47 260/111/255
f 260/111/255 48/36/47 152/24/148
f 260/111/255 152/24/148 139/25/135
f 139/25/135 152/24/148 28/23/27
f 139/25/135 28/23/27 140/82/136
f 140/82/136 28/23/27 30/25/29
f 140/82/136 30/25/29 141/83/137
f 141/83/137 30/25/29 255/79/250
f 256/100/251 122/76/120 255/79/250
f 255/79/250 122/76/120 124/78/122
f 255/79/250 124/78/122 141/83/137
f 141/83/137 124/78/122 126/79/124
f 141/83/137 126/79/124 139/25/135
f 139/25/135 126/79/124 204/47/200
f 139/25/135 204/47/200 260/111/255
f 260/111/255 204/47/200 203/98/199
f 260/111/255 203/98/199 259/110/254
f 259/110/254 203/98/199 202/20/198
f 259/110/254 202/20/198 258/90/253
f 258/90/253 202/20/198 200/8/196
f 258/90/253 200/8/196 257/9/252
f 257/9/252 200/8/196 199/7/195
f 257/9/252 199/7/195 261/87/256
f 262/54/257 219/56/214 263/55/258
f 263/55/258 219/56/214 221/60/216
f 263/55/258 221/60/216 218/57/213
f 218/57/213 221/60/216 223/62/218
f 218/57/213 223/62/218 216/96/212
f 216/96/212 223/62/218 87/64/85
f 216/96/212 87/64/85 214/103/210
f 214/103/210 87/64/85 186/96/182
f 214/103/210 186/96/182 212/101/208
f 212/101/208 186/96/182 78/57/76
f 212/101/208 78/57/76 264/104/259
f 49/37/48 16/13/15 235/106/230
f 235/106/230 16/13/15 18/15/17
f 235/106/230 18/15/17 233/13/228
f 233/13/228 18/15/17 137/14/133
f 233/13/228 137/14/133 155/65/151
f 155/65/151 137/14/133 135/10/131
f 155/65/151 135/10/131 32/27/31
f 32/27/31 135/10/131 134/67/130
f 32/27/31 134/67/130 33/28/32
f 261/87/256 192/86/188 257/9/252
f 257/9/252 192/86/188 173/85/169
f 257/9/252 173/85/169 46/34/45
f 46/34/45 173/85/169 172/89/168
f 46/34/45 172/89/168 44/32/43
f 44/32/43 172/89/168 174/34/170
f 44/32/43 174/34/170 249/33/244
f 249/33/244 174/34/170 175/90/171
f 249/33/244 175/90/171 251/110/246
f 251/110/246 175/90/171 176/20/172
f 251/110/246 176/20/172 253/98/248
f 253/98/248 176/20/172 177/21/173
f 253/98/248 177/21/173 254/81/249
f 254/81/249 177/21/173 265/80/260
