mtllib m_hair012.mtl
o editpl_m-0000-1834
v -7.157691 61.960491 1.850860
v -7.629091 61.404606 -0.168877
v -8.501451 57.898983 -1.481742
v -5.832895 46.427792 -7.257756
v 0.000000 48.063320 -10.229453
v 0.000000 45.887974 -10.621744
v 6.951792 47.160408 4.977980
v 6.713383 48.918037 4.595402
v 5.943972 48.159718 5.262670
v 6.778404 60.829437 5.214847
v 6.369315 60.083973 7.927257
v 7.878336 58.094990 4.676849
v 5.602613 64.325417 1.504897
v 5.673052 64.380043 5.391938
v 7.157691 61.960491 1.850860
v -10.760919 54.399788 -5.932935
v -6.239274 55.662582 -11.095481
v -7.761841 50.862034 -14.964589
v 7.328370 43.664425 4.851700
v 8.230532 43.574455 3.852666
v 8.070689 45.348152 3.264603
v -7.591162 38.137691 -16.993294
v -0.330522 37.324745 -18.328573
v 0.000000 31.589149 -15.783542
v 10.985782 46.675213 -11.013287
v 8.046307 46.386021 -5.035522
v 9.425286 43.606586 -6.393222
v -9.474052 58.811539 -5.852983
v -7.629091 61.404606 -0.168877
v -6.881353 62.625629 -5.129674
v -9.861467 46.983681 1.204515
v -7.732040 50.007320 -0.620944
v -7.157691 47.475304 -0.824188
v 5.356077 59.553791 -10.939313
v 0.000000 60.141811 -12.299254
v 0.000000 63.660282 -9.080229
v 2.473494 65.254044 2.296951
v 0.000000 66.304764 -3.856410
v 0.000000 65.414703 3.399101
v 0.306139 55.212734 0.141968
v 1.858507 55.113125 -0.146459
v 0.306139 55.771832 -1.764939
v -7.615545 49.274704 3.934859
v -9.040581 47.002960 3.319150
v -6.951792 47.160408 4.977980
v -7.154982 45.299953 4.471364
v -6.705255 38.481503 5.015341
v -6.775694 39.904961 4.917455
v -6.152580 40.239136 4.186674
v -7.328370 43.664425 4.851700
v -8.070689 45.348152 3.264603
v -8.230532 43.574455 3.852666
v -8.628783 45.235687 1.509382
v -9.376521 51.639633 3.198847
v -9.444251 49.711704 1.015469
v -8.867192 49.364674 2.666826
v -6.808205 42.096375 2.721374
v -7.312115 41.061718 4.738870
v -6.315131 39.757153 5.710256
v -2.768796 31.762663 -15.270202
v -11.931291 49.326115 -9.007000
v -4.345547 63.348602 9.616723
v -2.584571 62.982296 9.120569
v -2.313652 63.763107 9.552463
v 0.000000 65.414703 3.399101
v -2.617082 65.421127 5.770779
v 0.000000 63.991245 6.989496
v -4.345547 63.348602 9.616723
v -6.778404 60.829437 5.214847
v -6.369315 60.083973 7.927257
v -7.878336 58.094990 4.676849
v -8.501451 57.898983 -1.481742
v -6.856970 51.546452 -3.115914
v -6.905736 54.656845 -0.439370
v -11.332559 43.982533 -11.924148
v -10.137804 40.955681 -13.767541
v -9.425286 43.606586 -6.393222
v -3.754943 60.713764 8.254540
v -3.741397 61.594185 8.290407
v -5.372332 60.283192 6.161575
v -7.723912 44.827610 -16.907362
v -10.985782 46.675213 -11.013287
v -7.425901 47.574913 -14.830837
v -5.602613 64.325417 1.504897
v -2.473494 65.254044 2.296951
v -5.673052 64.380043 5.391938
v -5.459026 47.992630 -6.577786
v -5.943972 48.182213 -2.799839
v -8.972851 40.968536 -9.827447
v -10.010472 38.349762 -14.466939
v -8.878029 38.513638 -11.632731
v -5.564685 32.916210 -14.657481
v -6.670036 59.322437 4.537119
v -7.211875 58.747272 1.513865
v -6.908445 54.399788 2.437429
v -6.987012 50.245098 1.610256
v -5.136632 63.049770 -8.353183
v -5.356077 59.553791 -10.939313
v 0.000000 60.598087 9.290936
v -3.643866 62.969440 8.527276
v 2.313652 63.763107 9.552463
v 2.584571 62.982296 9.120569
v 4.345547 63.348602 9.616723
v 2.768796 31.762663 -15.270202
v 7.285023 38.128052 -17.032896
v 5.564685 32.916210 -14.657481
v 10.010472 38.349762 -14.466939
v 8.878029 38.513638 -11.632731
v 5.624287 46.755543 5.508507
v 6.036084 45.380283 5.063910
v 7.154982 45.299953 4.471364
v 6.157998 43.670853 5.201399
v 6.802786 49.843445 4.393653
v 7.615545 49.274704 3.934859
v 6.840715 45.193916 -0.118064
v 7.157691 47.475304 -0.824188
v 9.861467 46.983681 1.204515
v 7.732040 50.007320 -0.620944
v 9.444251 49.711704 1.015469
v 9.040581 47.002960 3.319150
v 8.867192 49.364674 2.666826
v 7.878336 51.295818 4.543097
v 8.317226 54.672913 5.793197
v 6.282621 50.910233 5.343370
v 6.017120 51.973808 5.468156
v 0.000000 63.991245 6.989496
v 2.617082 65.421127 5.770779
v 0.000000 65.414703 3.399101
v 4.345547 63.348602 9.616723
v 11.332559 43.982533 -11.924148
v 5.372332 60.283192 6.161575
v 3.741397 61.594185 8.290407
v 3.754943 60.713764 8.254540
v 5.136632 63.049770 -8.353183
v 7.629091 61.404606 -0.168877
v 8.501451 57.898983 -1.481742
v 2.473494 65.254044 2.296951
v 6.293458 51.148010 -6.302062
v 6.856970 51.546452 -3.115914
v 5.459026 47.992630 -6.577786
v 5.943972 48.182213 -2.799839
v 5.832895 46.427792 -7.257756
v -2.473494 65.254044 2.296951
v 0.000000 65.414703 3.399101
v 6.987012 50.245098 1.610256
v 8.501451 57.898983 -1.481742
v 6.908445 54.399788 2.437429
v 7.211875 58.747272 1.513865
v 6.670036 59.322437 4.537119
v 8.233241 44.988274 -16.931274
v 10.137804 40.955681 -13.767541
v 5.992737 41.752560 -16.262510
v 3.643866 62.969440 8.527276
v 0.000000 60.598087 9.290936
v -6.396407 41.286644 5.838031
v -8.011087 42.420910 4.244956
v -8.547507 43.555176 2.098939
v -6.840715 45.193916 -0.118064
v -6.713383 48.918037 4.595402
v -6.802786 49.843445 4.393653
v -7.878336 51.295818 4.543097
v -6.282621 50.910233 5.343370
v -8.317226 54.672913 5.793197
v -6.017120 51.973808 5.468156
v -6.911154 43.362385 1.161925
v -8.162802 51.925610 -1.195557
v -9.788318 51.989876 1.412990
v -8.517706 54.078468 -1.563189
v -9.674532 55.521202 0.071729
v -8.791335 58.972198 0.988569
v -6.157998 43.670853 5.201399
v -6.036084 45.380283 5.063910
v -5.624287 46.755543 5.508507
v -5.943972 48.159718 5.262670
v 8.011087 42.420910 4.244956
v 6.396407 41.286644 5.838031
v 7.312115 41.061718 4.738870
v 6.315131 39.757153 5.710256
v 6.775694 39.904961 4.917455
v 6.772985 57.147091 7.785287
v 9.373812 54.804653 3.077050
v 9.376521 51.639633 3.198847
v 8.791335 58.972198 0.988569
v 9.674532 55.521202 0.071729
v 8.517706 54.078468 -1.563189
v 9.788318 51.989876 1.412990
v 8.162802 51.925610 -1.195557
v -6.312422 41.350906 -16.223656
v -8.046307 46.386021 -5.035522
v 11.931291 49.326115 -9.007000
v 8.005669 50.862034 -14.949645
v 10.760919 54.399788 -5.932935
v 6.239274 55.662582 -11.095481
v -6.293458 51.148010 -6.302062
v -7.347334 55.948559 -6.739186
v -4.199251 51.038761 -9.197541
v -4.475589 55.248077 -10.923621
v 0.000000 50.884525 -10.755496
v 0.000000 55.357327 -12.270112
v 4.475589 55.248077 -10.923621
v 4.199251 51.038761 -9.197541
v 7.347334 55.948559 -6.739186
v 5.543011 41.829678 5.261177
v 6.905736 54.656845 -0.439370
v -5.602613 64.325417 1.504897
v -4.662523 65.601067 -4.042468
v 4.662523 65.601067 -4.042468
v 6.881353 62.625629 -5.129674
v 9.474052 58.811539 -5.852983
v -8.501451 57.898983 -1.481742
v -8.726314 54.836784 -1.779136
v -7.561361 49.554256 -2.444910
v -9.373812 54.804653 3.077050
v -6.772985 57.147091 7.785287
v -5.968355 39.699314 4.935389
v -5.543011 41.829678 5.261177
v 0.000000 62.493885 8.386051
v -6.369315 60.083973 7.927257
v -5.965645 56.841835 6.952883
v -6.437045 55.553333 6.352118
v -6.409953 54.206993 6.477651
v 5.968355 39.699314 4.935389
v 6.705255 38.481503 5.015341
v 6.152580 40.239136 4.186674
v 6.808205 42.096375 2.721374
v 8.547507 43.555176 2.098939
v 8.628783 45.235687 1.509382
v 0.000000 55.945347 -12.441973
v -0.503910 49.724556 -16.799015
v 7.512595 47.655243 -14.838309
v 8.972851 40.968536 -9.827447
v 6.911154 43.362385 1.161925
v 0.501201 40.705051 -17.130033
v -0.330522 43.622654 -19.043665
v 0.587895 46.373169 -16.902880
v 5.602613 64.325417 1.504897
v 7.629091 61.404606 -0.168877
v 8.501451 57.898983 -1.481742
v 8.726314 54.836784 -1.779136
v 7.561361 49.554256 -2.444910
v 0.000000 62.493885 8.386051
v 6.369315 60.083973 7.927257
v 5.965645 56.841835 6.952883
v 6.437045 55.553333 6.352118
v 6.409953 54.206993 6.477651
vn -0.9091 0.4075 0.0862
vn -0.9223 0.3705 0.1104
vn -0.9298 0.2679 -0.2522
vn -0.7040 0.3207 -0.6336
vn -0.0000 -0.0000 -1.0000
vn -0.0000 0.1734 -0.9849
vn 0.5109 0.0707 0.8567
vn 0.5117 0.2047 0.8344
vn 0.4158 0.1648 0.8944
vn 0.9143 0.3232 0.2443
vn 0.9169 0.2821 0.2821
vn 0.9133 0.2677 0.3071
vn 0.5975 0.8019 -0.0079
vn 0.7411 0.6465 0.1813
vn 0.9091 0.4075 0.0862
vn -0.9491 0.2727 -0.1575
vn -0.4581 0.3397 -0.8214
vn -0.5364 0.2998 -0.7889
vn 0.6067 0.1891 0.7721
vn 0.9120 0.0865 0.4010
vn 0.8630 -0.0549 0.5021
vn -0.4422 -0.1500 -0.8843
vn -0.0236 0.0236 -0.9994
vn -0.0000 -0.3996 -0.9167
vn 0.9805 0.0784 -0.1804
vn 0.8578 -0.2203 0.4643
vn 0.9253 -0.1882 0.3293
vn -0.9160 0.3836 -0.1174
vn -0.8973 0.4329 0.0866
vn -0.8046 0.5601 -0.1972
vn -0.8510 -0.2443 -0.4649
vn -0.6449 -0.1180 -0.7551
vn -0.5663 -0.1888 -0.8023
vn 0.5423 0.3694 -0.7546
vn -0.0469 0.3206 -0.9461
vn -0.0000 0.7778 -0.6285
vn 0.1961 0.9725 0.1255
vn -0.0000 0.9975 -0.0707
vn 0.1174 0.9861 0.1174
vn 0.1096 0.9554 0.2741
vn -0.5974 -0.0157 0.8018
vn -0.8270 -0.1103 0.5513
vn -0.5109 0.0707 0.8567
vn -0.5596 -0.0473 0.8274
vn -0.8042 -0.5519 0.2208
vn -0.9586 -0.2514 -0.1336
vn -0.6840 -0.3695 -0.6290
vn -0.6066 0.1891 0.7722
vn -0.8630 -0.0549 0.5021
vn -0.9120 0.0865 0.4010
vn -0.9484 -0.3136 -0.0471
vn -0.8910 -0.1341 0.4337
vn -0.9895 -0.0707 -0.1257
vn -0.8548 -0.0392 0.5175
vn -0.5911 -0.6699 -0.4492
vn -0.9019 -0.4313 0.0235
vn -0.0548 -0.3368 0.9400
vn -0.2828 -0.4477 -0.8483
vn -0.9777 -0.1182 0.1734
vn 0.3146 -0.7788 0.5427
vn -0.2208 -0.6150 0.7570
vn 0.2444 0.4178 0.8750
vn 0.1409 0.9788 0.1488
vn -0.0704 0.9781 0.1956
vn 0.4171 0.7948 0.4407
vn -0.6355 0.6826 0.3609
vn -0.9143 0.3232 0.2443
vn -0.9169 0.2821 0.2821
vn -0.9133 0.2677 0.3071
vn -0.9718 -0.2351 0.0157
vn -0.9654 -0.2590 -0.0314
vn -0.7854 -0.5026 -0.3613
vn -0.9881 -0.0392 -0.1490
vn -0.9202 -0.1494 -0.3618
vn -0.9253 -0.1882 0.3293
vn -0.5564 -0.0235 0.8306
vn -0.5590 -0.0630 0.8268
vn 0.1411 -0.4861 0.8624
vn -0.5419 0.2278 -0.8090
vn -0.9757 0.0787 -0.2046
vn -0.4945 0.2512 -0.8321
vn -0.5975 0.8019 -0.0079
vn -0.1566 0.9865 -0.0470
vn -0.7411 0.6465 0.1813
vn -0.8842 -0.0704 -0.4617
vn -0.9920 0.0078 -0.1260
vn -0.9060 -0.2994 0.2993
vn -0.9420 -0.3297 -0.0628
vn -0.8140 -0.4618 0.3522
vn -0.6749 -0.6199 -0.4003
vn -0.9832 -0.0236 0.1809
vn -0.9591 -0.0000 0.2830
vn -0.9517 -0.0158 0.3068
vn -0.8579 -0.3305 -0.3935
vn -0.5163 0.6649 -0.5398
vn -0.5813 0.4163 -0.6991
vn -0.1807 -0.1335 0.9744
vn -0.2982 -0.5651 0.7692
vn -0.2444 0.4178 0.8750
vn 0.2208 -0.6150 0.7570
vn -0.3146 -0.7788 0.5427
vn 0.2819 -0.4385 -0.8534
vn 0.3846 -0.0942 -0.9183
vn 0.6695 -0.6144 -0.4175
vn 0.9403 -0.3291 -0.0862
vn 0.8140 -0.4618 0.3522
vn 0.4075 -0.0862 0.9091
vn 0.4628 -0.0157 0.8863
vn 0.5596 -0.0473 0.8274
vn 0.1492 0.2120 0.9658
vn 0.4558 -0.2122 0.8644
vn 0.5974 -0.0157 0.8018
vn 0.5680 -0.4023 -0.7180
vn 0.5663 -0.1888 -0.8023
vn 0.8510 -0.2442 -0.4649
vn 0.6449 -0.1180 -0.7551
vn 0.9896 -0.0707 -0.1257
vn 0.8270 -0.1103 0.5513
vn 0.8548 -0.0392 0.5175
vn 0.6125 -0.2827 0.7382
vn 0.5672 -0.1812 0.8034
vn 0.3377 -0.3141 0.8873
vn 0.2047 -0.2834 0.9369
vn -0.4171 0.7949 0.4407
vn 0.0704 0.9781 0.1956
vn -0.1409 0.9788 0.1488
vn 0.6355 0.6826 0.3609
vn 0.9910 -0.0629 -0.1180
vn -0.1411 -0.4861 0.8624
vn 0.5590 -0.0630 0.8268
vn 0.5564 -0.0235 0.8306
vn 0.5163 0.6649 -0.5398
vn 0.9223 0.3705 0.1104
vn 0.9298 0.2679 -0.2522
vn 0.1566 0.9865 -0.0470
vn 0.9056 -0.2205 -0.3622
vn 0.9654 -0.2590 -0.0314
vn 0.8842 -0.0704 -0.4617
vn 0.9920 0.0078 -0.1260
vn 0.7040 0.3207 -0.6336
vn -0.1961 0.9725 0.1255
vn -0.1174 0.9861 0.1174
vn 0.8578 -0.3306 -0.3935
vn 0.9718 -0.2351 0.0157
vn 0.9517 -0.0158 0.3068
vn 0.9591 -0.0000 0.2830
vn 0.9832 -0.0236 0.1809
vn 0.5742 0.0315 -0.8181
vn 0.9142 -0.1812 -0.3625
vn 0.3369 -0.0470 -0.9403
vn 0.2982 -0.5651 0.7692
vn 0.1807 -0.1336 0.9744
vn -0.2900 0.0392 0.9562
vn -0.9060 -0.2994 0.2994
vn -0.7987 -0.4698 -0.3759
vn -0.5680 -0.4023 -0.7180
vn -0.5117 0.2047 0.8344
vn -0.4558 -0.2122 0.8644
vn -0.6125 -0.2827 0.7382
vn -0.3377 -0.3141 0.8873
vn -0.5672 -0.1811 0.8034
vn -0.2047 -0.2834 0.9369
vn -0.4412 -0.6146 -0.6539
vn -0.7802 -0.2049 -0.5910
vn -0.9690 -0.0945 -0.2284
vn -0.8416 -0.1180 -0.5270
vn -0.9863 0.0861 -0.1409
vn -0.9346 0.3535 0.0392
vn -0.1492 0.2120 0.9658
vn -0.4628 -0.0157 0.8863
vn -0.4075 -0.0862 0.9091
vn -0.4158 0.1648 0.8944
vn 0.9060 -0.2994 0.2993
vn 0.2900 0.0392 0.9562
vn 0.9019 -0.4313 0.0235
vn 0.0548 -0.3368 0.9400
vn 0.9586 -0.2514 -0.1336
vn 0.1658 -0.3000 0.9394
vn 0.9344 0.0864 0.3455
vn 0.8910 -0.1341 0.4337
vn 0.9346 0.3535 0.0392
vn 0.9863 0.0861 -0.1409
vn 0.8416 -0.1180 -0.5270
vn 0.9690 -0.0945 -0.2284
vn 0.7802 -0.2049 -0.5910
vn -0.3137 -0.0314 -0.9490
vn -0.8578 -0.2203 0.4643
vn 0.9764 -0.1181 0.1811
vn 0.6299 0.2998 -0.7165
vn 0.9499 0.2748 -0.1491
vn 0.4168 0.4561 -0.7863
vn -0.9056 -0.2205 -0.3622
vn -0.9088 -0.2350 -0.3447
vn -0.6209 -0.2830 -0.7310
vn -0.4961 -0.3299 -0.8032
vn -0.0000 -0.2996 -0.9541
vn -0.0000 -0.3207 -0.9472
vn 0.4960 -0.3306 -0.8029
vn 0.6209 -0.2830 -0.7310
vn 0.9088 -0.2350 -0.3447
vn -0.6747 -0.0313 0.7375
vn 0.7854 -0.5027 -0.3613
vn -0.6779 0.7331 0.0552
vn -0.4088 0.8961 -0.1729
vn 0.4088 0.8961 -0.1729
vn 0.8046 0.5601 -0.1972
vn 0.9160 0.3836 -0.1174
vn -0.9383 0.1419 0.3154
vn -0.8725 -0.0943 0.4795
vn -0.7972 -0.2763 0.5368
vn -0.9344 0.0864 0.3455
vn -0.1658 -0.3000 0.9394
vn 0.8485 -0.3457 0.4007
vn 0.6747 -0.0313 0.7375
vn 0.5890 0.4555 0.6675
vn 0.7972 -0.2763 0.5367
vn 0.7229 -0.2279 0.6522
vn 0.1025 -0.4098 0.9064
vn -0.3693 -0.1807 0.9115
vn -0.8485 -0.3457 0.4007
vn 0.8042 -0.5519 0.2208
vn 0.6840 -0.3695 -0.6290
vn 0.5911 -0.6699 -0.4492
vn 0.7987 -0.4698 -0.3759
vn 0.9484 -0.3136 -0.0471
vn 0.0235 0.3441 -0.9386
vn 0.0704 0.3131 -0.9471
vn 0.3871 0.3081 -0.8690
vn 0.9060 -0.2994 0.2994
vn 0.4412 -0.6146 -0.6539
vn 0.0860 -0.0860 -0.9926
vn -0.0157 0.1018 -0.9947
vn -0.0551 0.3228 -0.9448
vn 0.6779 0.7331 0.0552
vn 0.8973 0.4329 0.0866
vn 0.9383 0.1419 0.3154
vn 0.8725 -0.0943 0.4795
vn 0.7972 -0.2763 0.5368
vn -0.5890 0.4555 0.6675
vn -0.7972 -0.2763 0.5367
vn -0.7229 -0.2279 0.6522
vn -0.1025 -0.4098 0.9064
vn 0.3693 -0.1807 0.9115
vt 0.914062 0.171875
vt 0.988373 0.171875
vt 0.988373 0.265625
vt 0.226562 0.773438
vt 0.156250 0.987885
vt 0.226562 0.987885
vt 0.781250 0.593750
vt 0.695312 0.517609
vt 0.695312 0.595734
vt 0.851562 0.171875
vt 0.789062 0.171875
vt 0.851562 0.265625
vt 0.988373 0.109375
vt 0.890625 0.109375
vt 0.359375 0.398438
vt 0.507812 0.398438
vt 0.500000 0.546875
vt 0.789062 0.759796
vt 0.851562 0.759796
vt 0.851562 0.681671
vt 0.546875 0.890625
vt 0.687500 0.890625
vt 0.679688 0.987610
vt 0.421875 0.656250
vt 0.234375 0.656250
vt 0.234375 0.742188
vt 0.359375 0.312500
vt 0.234375 0.093750
vt 0.390625 0.179688
vt 0.914062 0.593750
vt 0.988373 0.517609
vt 0.988373 0.595734
vt 0.539062 0.312500
vt 0.687500 0.312500
vt 0.671875 0.179688
vt 0.500275 0.012634
vt 0.632812 0.085938
vt 0.601837 0.012634
vt 0.695343 0.205841
vt 0.643372 0.205841
vt 0.711334 0.271729
vt 0.789062 0.517609
vt 0.851562 0.593750
vt 0.789062 0.681671
vt 0.851562 0.987610
vt 0.859375 0.953125
vt 0.937500 0.953125
vt 0.914062 0.681671
vt 0.851562 0.442078
vt 0.914062 0.517609
vt 0.851562 0.517609
vt 0.960938 0.828125
vt 0.867188 0.885925
vt 0.789062 0.953125
vt 0.562500 0.987610
vt 0.390625 0.546875
vt 0.789062 0.109375
vt 0.765625 0.078125
vt 0.789062 0.054688
vt 0.988129 0.011505
vt 0.890625 0.054688
vt 0.843506 0.011505
vt 0.011932 0.625000
vt 0.054688 0.664062
vt 0.054688 0.625000
vt 0.398438 0.742188
vt 0.390625 0.828125
vt 0.656250 0.093750
vt 0.703125 0.093750
vt 0.695312 0.171875
vt 0.539062 0.742188
vt 0.539062 0.656250
vt 0.988373 0.054688
vt 0.156250 0.773438
vt 0.156250 0.664062
vt 0.234375 0.828125
vt 0.375000 0.890625
vt 0.234375 0.890625
vt 0.414062 0.987610
vt 0.039062 0.523438
vt 0.011932 0.539062
vt 0.070312 0.546875
vt 0.125000 0.585938
vt 0.531250 0.179688
vt 0.695068 0.011505
vt 0.734375 0.101562
vt 0.695312 0.637939
vt 0.695312 0.681671
vt 0.695312 0.759796
vt 0.695312 0.486359
vt 0.988373 0.681671
vt 0.781250 0.445312
vt 0.789062 0.351562
vt 0.695312 0.442078
vt 0.695312 0.398438
vt 0.054688 0.773438
vt 0.546875 0.828125
vt 0.789062 0.885925
vt 0.851562 0.823425
vt 0.914062 0.759796
vt 0.976562 0.757812
vt 0.988373 0.442078
vt 0.914062 0.442078
vt 0.988373 0.351562
vt 0.914062 0.351562
vt 0.914062 0.265625
vt 0.789062 0.265625
vt 0.851562 0.351562
vt 0.011932 0.773438
vt 0.054688 0.859375
vt 0.011932 0.898438
vt 0.054688 0.987885
vt 0.011932 0.987885
vt 0.695312 0.884796
vt 0.390900 0.012634
vt 0.515625 0.085938
vt 0.234375 0.312500
vt 0.234375 0.398438
vt 0.234375 0.546875
vt 0.695312 0.987610
vt 0.769287 0.011505
vt 0.695312 0.265625
vt 0.695312 0.315918
vt 0.695312 0.351562
vt 0.687500 0.398438
vt 0.687500 0.546875
vt 0.687500 0.828125
vt 0.687500 0.742188
vt 0.687500 0.656250
s 1
usemtl m_hair0115
f 1/1/1 2/2/2 3/3/3
f 4/4/4 5/5/5 6/6/6
f 7/7/7 8/8/8 9/9/9
f 10/10/10 11/11/11 12/12/12
f 13/13/13 14/14/14 15/1/15
f 16/15/16 17/16/17 18/17/18
f 19/18/19 20/19/20 21/20/21
f 22/21/22 23/22/23 24/23/24
f 25/24/25 26/25/26 27/26/27
f 28/27/28 29/28/29 30/29/30
f 31/30/31 32/31/32 33/32/33
f 34/33/34 35/34/35 36/35/36
f 37/36/37 38/37/38 39/38/39
f 40/39/40 41/40/40 42/41/40
f 43/42/41 44/43/42 45/7/43
f 45/7/43 44/43/42 46/44/44
f 47/45/45 48/46/46 49/47/47
f 50/18/48 51/20/49 52/19/50
f 52/19/50 51/20/49 53/48/51
f 54/49/52 55/50/53 56/51/54
f 57/52/55 49/47/47 58/53/56
f 58/53/56 49/47/47 48/46/46
f 58/53/56 48/46/46 59/54/57
f 59/54/57 48/46/46 47/45/45
f 60/55/58 22/21/22 24/23/24
f 16/15/16 18/17/18 61/56/59
f 62/57/60 63/58/61 64/59/62
f 65/60/63 66/61/64 67/62/65
f 68/57/66 69/10/67 70/11/68
f 70/11/68 69/10/67 71/12/69
f 72/63/70 73/64/71 74/65/72
f 75/66/73 76/67/74 77/26/75
f 78/68/76 79/69/77 80/70/78
f 81/71/79 82/24/80 83/72/81
f 2/2/2 1/1/1 84/13/82
f 65/60/63 85/73/83 66/61/64
f 66/61/64 85/73/83 84/13/82
f 66/61/64 84/13/82 86/14/84
f 86/14/84 84/13/82 1/1/1
f 5/5/5 4/4/4 87/74/85
f 87/74/85 4/4/4 88/75/86
f 87/74/85 88/75/86 73/64/71
f 89/76/87 90/77/88 91/78/89
f 91/78/89 90/77/88 92/79/90
f 93/80/91 94/81/92 95/82/93
f 95/82/93 94/81/92 72/63/70
f 95/82/93 72/63/70 96/83/94
f 96/83/94 72/63/70 74/65/72
f 97/84/95 98/33/96 30/29/30
f 78/68/76 99/85/97 79/69/77
f 79/69/77 99/85/97 100/86/98
f 79/69/77 100/86/98 80/70/78
f 101/59/99 102/58/100 103/57/101
f 104/55/102 105/21/103 106/79/104
f 106/79/104 105/21/103 107/77/105
f 106/79/104 107/77/105 108/78/106
f 109/87/107 110/88/108 111/44/109
f 111/44/109 110/88/108 112/89/110
f 113/90/111 8/8/8 114/42/112
f 115/91/113 116/32/114 117/30/115
f 117/30/115 116/32/114 118/31/116
f 117/30/115 118/31/116 119/50/117
f 8/8/8 7/7/7 114/42/112
f 114/42/112 7/7/7 120/43/118
f 114/42/112 120/43/118 121/51/119
f 122/92/120 123/93/121 124/94/122
f 124/94/122 123/93/121 125/95/123
f 126/62/124 127/61/125 128/60/126
f 11/11/11 10/10/10 129/57/127
f 25/24/25 27/26/27 130/66/128
f 131/70/129 132/69/130 133/68/131
f 134/84/132 34/33/34 36/35/36
f 13/13/13 15/1/15 135/2/133
f 135/2/133 15/1/15 136/3/134
f 14/14/14 13/13/13 127/61/125
f 127/61/125 13/13/13 137/73/135
f 127/61/125 137/73/135 128/60/126
f 138/96/136 139/64/137 140/74/138
f 140/74/138 139/64/137 141/75/139
f 140/74/138 141/75/139 142/4/140
f 38/37/38 143/36/141 144/38/142
f 17/16/17 16/15/16 98/33/96
f 98/33/96 16/15/16 28/27/28
f 98/33/96 28/27/28 30/29/30
f 145/83/143 146/63/144 147/82/145
f 147/82/145 146/63/144 148/81/146
f 147/82/145 148/81/146 149/80/147
f 150/71/148 151/67/149 152/97/150
f 131/70/129 153/86/151 132/69/130
f 132/69/130 153/86/151 154/85/152
f 132/69/130 154/85/152 133/68/131
f 155/98/153 50/18/48 156/99/154
f 156/99/154 50/18/48 52/19/50
f 156/99/154 52/19/50 157/100/155
f 157/100/155 52/19/50 53/48/51
f 157/100/155 53/48/51 158/91/156
f 45/7/43 159/8/157 43/42/41
f 43/42/41 159/8/157 160/90/158
f 43/42/41 160/90/158 161/92/159
f 161/92/159 160/90/158 162/94/160
f 161/92/159 162/94/160 163/93/161
f 163/93/161 162/94/160 164/95/162
f 59/54/57 155/98/153 58/53/56
f 58/53/56 155/98/153 156/99/154
f 58/53/56 156/99/154 57/52/55
f 57/52/55 156/99/154 157/100/155
f 57/52/55 157/100/155 165/101/163
f 165/101/163 157/100/155 158/91/156
f 166/102/164 167/103/165 168/104/166
f 168/104/166 167/103/165 169/105/167
f 168/104/166 169/105/167 3/3/3
f 3/3/3 169/105/167 170/106/168
f 3/3/3 170/106/168 1/1/1
f 171/89/169 172/88/170 46/44/44
f 46/44/44 172/88/170 173/87/171
f 46/44/44 173/87/171 45/7/43
f 45/7/43 173/87/171 174/9/172
f 45/7/43 174/9/172 159/8/157
f 20/19/20 19/18/19 175/99/173
f 175/99/173 19/18/19 176/98/174
f 175/99/173 176/98/174 177/53/175
f 177/53/175 176/98/174 178/54/176
f 177/53/175 178/54/176 179/46/177
f 11/11/11 180/107/178 12/12/12
f 12/12/12 180/107/178 123/93/121
f 12/12/12 123/93/121 181/108/179
f 181/108/179 123/93/121 122/92/120
f 181/108/179 122/92/120 182/49/180
f 15/1/15 183/106/181 136/3/134
f 136/3/134 183/106/181 184/105/182
f 136/3/134 184/105/182 185/104/183
f 185/104/183 184/105/182 186/103/184
f 185/104/183 186/103/184 187/102/185
f 23/22/23 22/21/22 188/97/186
f 188/97/186 22/21/22 76/67/74
f 188/97/186 76/67/74 81/71/79
f 81/71/79 76/67/74 75/66/73
f 81/71/79 75/66/73 82/24/80
f 82/24/80 75/66/73 77/26/75
f 82/24/80 77/26/75 189/25/187
f 26/25/26 25/24/25 190/56/188
f 190/56/188 25/24/25 191/17/189
f 190/56/188 191/17/189 192/15/190
f 192/15/190 191/17/189 193/16/191
f 192/15/190 193/16/191 34/33/34
f 194/96/192 195/109/193 196/110/194
f 196/110/194 195/109/193 197/111/195
f 196/110/194 197/111/195 198/112/196
f 198/112/196 197/111/195 199/113/197
f 198/112/196 199/113/197 200/111/198
f 72/63/70 195/109/193 73/64/71
f 73/64/71 195/109/193 194/96/192
f 73/64/71 194/96/192 87/74/85
f 87/74/85 194/96/192 196/110/194
f 87/74/85 196/110/194 5/5/5
f 5/5/5 196/110/194 198/112/196
f 5/5/5 198/112/196 201/110/199
f 201/110/199 198/112/196 200/111/198
f 201/110/199 200/111/198 202/109/200
f 21/20/21 111/44/109 19/18/19
f 19/18/19 111/44/109 112/89/110
f 19/18/19 112/89/110 176/98/174
f 176/98/174 112/89/110 203/114/201
f 176/98/174 203/114/201 178/54/176
f 145/83/143 204/65/202 146/63/144
f 146/63/144 204/65/202 139/64/137
f 146/63/144 139/64/137 202/109/200
f 202/109/200 139/64/137 138/96/136
f 202/109/200 138/96/136 201/110/199
f 201/110/199 138/96/136 140/74/138
f 201/110/199 140/74/138 5/5/5
f 5/5/5 140/74/138 142/4/140
f 5/5/5 142/4/140 6/6/6
f 205/115/203 143/36/141 206/116/204
f 206/116/204 143/36/141 38/37/38
f 206/116/204 38/37/38 36/35/36
f 36/35/36 38/37/38 207/116/205
f 36/35/36 207/116/205 134/84/132
f 134/84/132 207/116/205 208/29/206
f 134/84/132 208/29/206 34/33/34
f 34/33/34 208/29/206 209/27/207
f 34/33/34 209/27/207 192/15/190
f 29/28/29 28/27/28 210/117/208
f 210/117/208 28/27/28 16/15/16
f 210/117/208 16/15/16 211/118/209
f 211/118/209 16/15/16 61/56/59
f 211/118/209 61/56/59 212/119/210
f 60/55/58 92/79/90 22/21/22
f 22/21/22 92/79/90 90/77/88
f 22/21/22 90/77/88 76/67/74
f 76/67/74 90/77/88 89/76/87
f 76/67/74 89/76/87 77/26/75
f 32/31/32 31/30/31 55/50/53
f 55/50/53 31/30/31 44/43/42
f 55/50/53 44/43/42 56/51/54
f 56/51/54 44/43/42 43/42/41
f 56/51/54 43/42/41 54/49/52
f 54/49/52 43/42/41 161/92/159
f 54/49/52 161/92/159 213/108/211
f 213/108/211 161/92/159 163/93/161
f 213/108/211 163/93/161 71/12/69
f 71/12/69 163/93/161 214/107/212
f 71/12/69 214/107/212 70/11/68
f 47/45/45 215/120/213 59/54/57
f 59/54/57 215/120/213 216/114/214
f 59/54/57 216/114/214 155/98/153
f 155/98/153 216/114/214 171/89/169
f 155/98/153 171/89/169 50/18/48
f 50/18/48 171/89/169 46/44/44
f 50/18/48 46/44/44 51/20/49
f 51/20/49 46/44/44 44/43/42
f 51/20/49 44/43/42 53/48/51
f 53/48/51 44/43/42 31/30/31
f 53/48/51 31/30/31 158/91/156
f 158/91/156 31/30/31 33/32/33
f 217/121/215 64/59/62 99/85/97
f 99/85/97 64/59/62 63/58/61
f 99/85/97 63/58/61 100/86/98
f 100/86/98 63/58/61 62/57/60
f 100/86/98 62/57/60 80/70/78
f 80/70/78 62/57/60 218/11/216
f 80/70/78 218/11/216 219/122/217
f 219/122/217 218/11/216 214/107/212
f 219/122/217 214/107/212 220/123/218
f 220/123/218 214/107/212 163/93/161
f 220/123/218 163/93/161 221/124/219
f 221/124/219 163/93/161 164/95/162
f 217/121/215 67/62/65 64/59/62
f 64/59/62 67/62/65 66/61/64
f 64/59/62 66/61/64 68/57/66
f 68/57/66 66/61/64 86/14/84
f 68/57/66 86/14/84 69/10/67
f 69/10/67 86/14/84 1/1/1
f 69/10/67 1/1/1 71/12/69
f 71/12/69 1/1/1 170/106/168
f 71/12/69 170/106/168 213/108/211
f 213/108/211 170/106/168 169/105/167
f 213/108/211 169/105/167 54/49/52
f 54/49/52 169/105/167 167/103/165
f 54/49/52 167/103/165 55/50/53
f 55/50/53 167/103/165 166/102/164
f 55/50/53 166/102/164 32/31/32
f 203/114/201 222/120/220 178/54/176
f 178/54/176 222/120/220 223/45/221
f 178/54/176 223/45/221 179/46/177
f 179/46/177 223/45/221 224/47/222
f 179/46/177 224/47/222 177/53/175
f 177/53/175 224/47/222 225/52/223
f 177/53/175 225/52/223 175/99/173
f 175/99/173 225/52/223 226/100/224
f 175/99/173 226/100/224 20/19/20
f 20/19/20 226/100/224 227/48/225
f 20/19/20 227/48/225 21/20/21
f 21/20/21 227/48/225 120/43/118
f 21/20/21 120/43/118 111/44/109
f 111/44/109 120/43/118 7/7/7
f 111/44/109 7/7/7 109/87/107
f 109/87/107 7/7/7 9/9/9
f 35/34/35 34/33/34 228/125/226
f 228/125/226 34/33/34 193/16/191
f 228/125/226 193/16/191 229/126/227
f 229/126/227 193/16/191 191/17/189
f 229/126/227 191/17/189 230/72/228
f 230/72/228 191/17/189 25/24/25
f 230/72/228 25/24/25 150/71/148
f 150/71/148 25/24/25 130/66/128
f 150/71/148 130/66/128 151/67/149
f 151/67/149 130/66/128 27/26/27
f 151/67/149 27/26/27 231/76/229
f 225/52/223 232/101/230 226/100/224
f 226/100/224 232/101/230 115/91/113
f 226/100/224 115/91/113 227/48/225
f 227/48/225 115/91/113 117/30/115
f 227/48/225 117/30/115 120/43/118
f 120/43/118 117/30/115 119/50/117
f 120/43/118 119/50/117 121/51/119
f 121/51/119 119/50/117 182/49/180
f 121/51/119 182/49/180 114/42/112
f 114/42/112 182/49/180 122/92/120
f 114/42/112 122/92/120 113/90/111
f 113/90/111 122/92/120 124/94/122
f 104/55/102 24/23/24 105/21/103
f 105/21/103 24/23/24 23/22/23
f 105/21/103 23/22/23 233/127/231
f 233/127/231 23/22/23 188/97/186
f 233/127/231 188/97/186 234/128/232
f 234/128/232 188/97/186 81/71/79
f 234/128/232 81/71/79 235/129/233
f 235/129/233 81/71/79 83/72/81
f 235/129/233 83/72/81 18/17/18
f 18/17/18 83/72/81 82/24/80
f 18/17/18 82/24/80 61/56/59
f 61/56/59 82/24/80 189/25/187
f 61/56/59 189/25/187 212/119/210
f 126/62/124 101/59/99 127/61/125
f 127/61/125 101/59/99 129/57/127
f 127/61/125 129/57/127 14/14/14
f 14/14/14 129/57/127 10/10/10
f 14/14/14 10/10/10 15/1/15
f 15/1/15 10/10/10 12/12/12
f 15/1/15 12/12/12 183/106/181
f 183/106/181 12/12/12 181/108/179
f 183/106/181 181/108/179 184/105/182
f 184/105/182 181/108/179 182/49/180
f 184/105/182 182/49/180 186/103/184
f 186/103/184 182/49/180 119/50/117
f 186/103/184 119/50/117 187/102/185
f 187/102/185 119/50/117 118/31/116
f 38/37/38 37/36/37 207/116/205
f 207/116/205 37/36/37 236/115/234
f 207/116/205 236/115/234 208/29/206
f 208/29/206 236/115/234 237/28/235
f 208/29/206 237/28/235 209/27/207
f 209/27/207 237/28/235 238/117/236
f 209/27/207 238/117/236 192/15/190
f 192/15/190 238/117/236 239/118/237
f 192/15/190 239/118/237 190/56/188
f 190/56/188 239/118/237 240/119/238
f 190/56/188 240/119/238 26/25/26
f 126/62/124 241/121/239 101/59/99
f 101/59/99 241/121/239 154/85/152
f 101/59/99 154/85/152 102/58/100
f 102/58/100 154/85/152 153/86/151
f 102/58/100 153/86/151 103/57/101
f 103/57/101 153/86/151 131/70/129
f 103/57/101 131/70/129 242/11/240
f 242/11/240 131/70/129 243/122/241
f 242/11/240 243/122/241 180/107/178
f 180/107/178 243/122/241 244/123/242
f 180/107/178 244/123/242 123/93/121
f 123/93/121 244/123/242 245/124/243
f 123/93/121 245/124/243 125/95/123
f 29/28/29 205/115/203 30/29/30
f 30/29/30 205/115/203 206/116/204
f 30/29/30 206/116/204 97/84/95
f 97/84/95 206/116/204 36/35/36
f 97/84/95 36/35/36 98/33/96
f 98/33/96 36/35/36 35/34/35
f 98/33/96 35/34/35 17/16/17
f 17/16/17 35/34/35 228/125/226
f 17/16/17 228/125/226 18/17/18
f 18/17/18 228/125/226 229/126/227
f 18/17/18 229/126/227 235/129/233
f 235/129/233 229/126/227 230/72/228
f 235/129/233 230/72/228 234/128/232
f 234/128/232 230/72/228 150/71/148
f 234/128/232 150/71/148 233/127/231
f 233/127/231 150/71/148 152/97/150
f 233/127/231 152/97/150 105/21/103
f 105/21/103 152/97/150 151/67/149
f 105/21/103 151/67/149 107/77/105
f 107/77/105 151/67/149 231/76/229
f 107/77/105 231/76/229 108/78/106
