mtllib m_hair011.mtl
o editpl_m-0000-1808
v -0.002709 57.519821 -12.793915
v -0.005418 54.730751 -14.375780
v -1.015948 57.134235 -11.770969
v -7.989413 57.796162 0.937011
v -6.678163 56.163845 3.501471
v -5.990028 56.896458 6.210893
v -0.008128 48.648129 -16.089155
v -0.008128 42.848267 -14.808419
v -1.411490 48.394283 -15.137197
v -9.617639 42.584785 -8.777602
v -8.295552 47.989418 -8.664773
v -5.239581 47.198967 -11.935357
v -3.687213 62.937309 6.721991
v -4.285945 60.954754 7.647797
v -3.299798 60.803734 8.421917
v -6.396407 40.190937 -12.242464
v -4.258853 64.505363 -2.242414
v 0.000000 63.981606 -7.021636
v -4.575829 62.959801 -6.606929
v 7.295860 60.273552 1.821720
v 6.802786 61.157188 2.205044
v 5.789548 59.492741 6.197443
v 8.563763 56.395199 -2.741556
v 8.030051 55.469791 -3.063608
v 6.726929 56.642616 -7.613434
v 1.305832 58.088562 -10.462586
v 3.429840 57.368801 -10.053857
v 0.000000 55.158108 -11.676819
v 0.000000 52.111977 -12.710225
v -3.429840 57.368801 -10.053857
v 7.989413 57.802586 0.937011
v 6.678163 56.163845 3.501471
v 5.990028 56.896458 6.210893
v -2.375963 47.902660 -13.312485
v -0.008128 42.848267 -14.808419
v 1.013239 57.134235 -11.770969
v 1.403363 48.394283 -15.137197
v 2.224248 47.902660 -13.312485
v 1.950620 53.721798 -12.400128
v -8.563763 56.395199 -2.741556
v -6.726929 56.642616 -7.613434
v -8.030051 55.469791 -3.063608
v -6.155289 62.436047 3.023996
v -5.144760 60.704124 6.482880
v -5.786839 59.492741 6.197443
v -1.202882 54.248768 -13.555331
v -2.088789 53.721798 -12.400128
v -1.381689 57.034630 -11.584911
v 1.197464 54.248768 -13.555331
v -1.305832 58.088562 -10.462586
v 0.000000 57.539104 -10.787628
v 6.453300 47.954071 -1.232918
v 6.445173 41.122768 1.432419
v 9.883140 43.185658 -3.969238
v -9.883140 43.185658 -3.969238
v -8.298262 53.786064 -3.330366
v -5.935844 51.392216 -1.630439
v -6.954501 55.489071 -0.347462
v -7.518014 53.034172 -8.217935
v -9.314209 48.648129 -4.153056
v -6.450591 47.954071 -1.232918
v -6.008993 59.846195 -8.068492
v -1.346469 58.898293 -10.963223
v -4.529773 58.085350 -10.199565
v -1.305832 58.088562 -10.462586
v -3.429840 57.368801 -10.053857
v -8.650457 57.767242 -2.882034
v -6.884062 57.847572 -7.911575
v 8.298262 53.786064 -3.330366
v 9.314209 48.648129 -4.153056
v 7.518014 53.034172 -8.217935
v 8.295552 47.989418 -8.664773
v 5.239581 47.198967 -11.935357
v 6.884062 57.847572 -7.911575
v 8.650457 57.767242 -2.882034
v 3.429840 57.368801 -10.053857
v 1.305832 58.088562 -10.462586
v 4.529773 58.085350 -10.199565
v 1.346469 58.898293 -10.963223
v 6.008993 59.846195 -8.068492
v 5.789548 59.492741 6.197443
v 6.155289 62.436047 3.023996
v 5.144760 60.704124 6.482880
v 4.285945 60.954754 7.647797
v 1.313959 57.034630 -11.584911
v -8.030051 55.469791 -3.063608
v -6.726929 56.642616 -7.613434
v -4.210088 52.426872 -11.163479
v -6.954501 55.489071 -0.347462
v -7.341916 55.537270 -0.346714
v -7.022231 53.500088 0.564147
v -6.691709 52.786755 1.894200
v -8.076108 60.116104 -2.882035
v -7.295860 60.260700 1.821720
v -5.786839 59.492741 6.197443
v -3.982515 64.232239 3.258624
v -6.309713 62.757370 -2.673560
v 0.000000 37.533604 -14.808419
v 0.000000 46.350677 -14.134427
v 4.210088 52.426872 -11.163479
v 6.802786 61.157188 2.205044
v 6.892190 61.388538 -2.867836
v 6.252820 62.757370 -2.673560
v 5.114958 60.887276 -7.523021
v 4.575829 62.959801 -6.606929
v 0.000000 60.504902 -10.351251
v 6.699837 55.489071 -0.347462
v 5.935844 51.392216 -1.630439
v 9.617639 42.584785 -8.777602
v 6.399116 40.190937 -12.242464
v 6.691709 52.786755 1.894200
v 7.022231 53.500088 0.564147
v 7.341916 55.537270 -0.346714
v 6.699837 55.489071 -0.347462
v 0.000000 61.025444 9.592813
v 3.299798 60.803734 8.421917
v 0.000000 62.847340 8.161139
v 3.687213 62.937309 6.721991
v 0.000000 65.083740 3.393871
v 3.985225 64.232239 3.258624
v 0.000000 65.607491 -1.688723
v 4.258853 64.505363 -2.242414
v 8.076108 60.116104 -2.882035
v 0.000000 57.539104 -10.787628
v 0.000000 59.393131 -12.277585
v 0.000000 60.504902 -10.351251
v -5.114958 60.887276 -7.523021
v -6.919282 61.388538 -2.867836
v -6.800077 61.150761 2.205044
v 0.000000 59.640549 9.944754
v -6.445173 41.122768 1.432419
v 6.726929 56.642616 -7.613434
v 8.030051 55.469791 -3.063608
v 6.892190 61.388538 -2.867836
v 5.114958 60.887276 -7.523021
v -5.114958 60.887276 -7.523021
v -6.919282 61.388538 -2.867836
v -6.800077 61.150761 2.205044
vn 0.0001 0.4937 -0.8696
vn -0.0000 0.4409 -0.8976
vn -0.6783 0.3628 -0.6389
vn -0.9701 -0.0000 0.2426
vn -0.9364 -0.2597 0.2361
vn -0.9413 -0.0157 0.3373
vn -0.0000 0.1096 -0.9940
vn 0.0079 -0.3067 -0.9518
vn -0.7636 0.0157 -0.6455
vn -0.8265 0.1968 -0.5274
vn -0.8961 0.1729 -0.4088
vn -0.5479 0.1565 -0.8218
vn -0.4466 0.7130 0.5406
vn -0.6863 0.4733 0.5522
vn -0.3623 0.4726 0.8034
vn -0.5120 0.1182 -0.8508
vn -0.4079 0.9020 -0.1412
vn -0.0000 0.8896 -0.4566
vn -0.5029 0.6915 -0.5186
vn 0.9166 0.3290 0.2272
vn 0.9062 0.3782 0.1891
vn 0.8975 0.2519 0.3621
vn 0.8969 -0.4405 -0.0393
vn 0.9801 -0.1882 0.0627
vn 0.8465 -0.1255 -0.5173
vn 0.2602 -0.2286 -0.9381
vn 0.3373 0.0157 -0.9413
vn -0.0000 0.3139 -0.9495
vn -0.0000 0.2757 -0.9612
vn -0.3373 0.0157 -0.9413
vn 0.9701 -0.0000 0.2425
vn 0.9364 -0.2597 0.2361
vn 0.9413 -0.0157 0.3373
vn -0.8765 -0.0626 -0.4774
vn 0.7069 0.3535 -0.6127
vn 0.0079 -0.3068 -0.9517
vn 0.7847 0.0078 -0.6199
vn 0.9029 -0.0706 -0.4240
vn 0.8225 0.2193 -0.5248
vn -0.8997 -0.4340 -0.0473
vn -0.8465 -0.1255 -0.5173
vn -0.9832 -0.1810 0.0236
vn -0.8245 0.4947 0.2748
vn -0.8003 0.4080 0.4394
vn -0.8974 0.2519 0.3621
vn -0.7013 0.2837 -0.6540
vn -0.7784 0.2359 -0.5818
vn -0.4965 0.3073 -0.8118
vn 0.7217 0.2746 -0.6354
vn -0.2601 -0.2286 -0.9381
vn -0.0000 -0.1337 -0.9910
vn 0.6736 0.1253 0.7284
vn 0.7798 0.2284 0.5829
vn 0.9470 0.1800 0.2661
vn -0.9470 0.1800 0.2661
vn -0.9468 0.0947 0.3077
vn -0.6466 -0.0946 0.7570
vn -0.7892 -0.5445 0.2841
vn -0.8439 0.2209 -0.4890
vn -0.9771 0.1340 0.1655
vn -0.6736 0.1253 0.7284
vn -0.6305 0.5123 -0.5832
vn -0.4713 0.2120 -0.8561
vn -0.4182 -0.1735 -0.8916
vn -0.2601 -0.2287 -0.9381
vn -0.9799 0.1411 -0.1411
vn -0.8643 0.0079 -0.5029
vn 0.9397 0.0940 0.3288
vn 0.9771 0.1339 0.1655
vn 0.8439 0.2209 -0.4890
vn 0.8961 0.1729 -0.4088
vn 0.5478 0.1565 -0.8218
vn 0.8643 0.0079 -0.5029
vn 0.9799 0.1411 -0.1411
vn 0.2602 -0.2287 -0.9381
vn 0.4182 -0.1735 -0.8916
vn 0.4713 0.2120 -0.8561
vn 0.6305 0.5123 -0.5832
vn 0.8974 0.2519 0.3621
vn 0.8245 0.4947 0.2748
vn 0.8003 0.4080 0.4394
vn 0.6863 0.4733 0.5522
vn 0.5739 0.2987 -0.7625
vn -0.9832 -0.1809 0.0236
vn -0.8466 -0.1254 -0.5173
vn -0.4472 0.2354 -0.8629
vn -0.7769 -0.6278 0.0471
vn -0.9790 -0.0784 0.1880
vn -0.9784 -0.0861 0.1878
vn -0.8718 0.4791 -0.1021
vn -0.9173 0.3214 0.2352
vn -0.8975 0.2519 0.3621
vn -0.4474 0.8790 0.1648
vn -0.7852 0.6046 -0.1335
vn -0.0000 0.0863 -0.9963
vn -0.0000 0.1733 -0.9849
vn 0.4472 0.2354 -0.8629
vn 0.8472 0.5255 -0.0785
vn 0.7853 0.6046 -0.1335
vn 0.6568 0.5708 -0.4927
vn 0.5029 0.6915 -0.5186
vn -0.0000 0.6750 -0.7378
vn 0.7696 -0.5419 0.3377
vn 0.6351 -0.0784 0.7684
vn 0.8265 0.1968 -0.5274
vn 0.5120 0.1182 -0.8508
vn 0.9784 -0.0861 0.1878
vn 0.9790 -0.0783 0.1880
vn 0.7702 -0.6366 0.0393
vn 0.7697 -0.5418 0.3377
vn -0.0000 0.4409 0.8976
vn 0.3623 0.4726 0.8034
vn -0.0000 0.7226 0.6912
vn 0.4466 0.7130 0.5406
vn -0.0001 0.9548 0.2974
vn 0.4474 0.8790 0.1648
vn -0.0000 0.9992 -0.0393
vn 0.4079 0.9020 -0.1412
vn 0.8718 0.4791 -0.1021
vn -0.0000 -0.1886 -0.9821
vn -0.6597 0.5656 -0.4949
vn -0.8506 0.5199 -0.0788
vn -0.9075 0.3709 0.1973
vn -0.0000 0.2426 0.9701
vn -0.7798 0.2284 0.5829
vn 0.8466 -0.1254 -0.5173
vn 0.9801 -0.1881 0.0627
vn 0.8471 0.5256 -0.0784
vn 0.6568 0.5709 -0.4926
vn -0.6598 0.5655 -0.4949
vn -0.8506 0.5198 -0.0788
vt 0.851562 0.664062
vt 0.851562 0.718750
vt 0.914062 0.664062
vt 0.773438 0.453125
vt 0.964844 0.533203
vt 0.979797 0.440735
vt 0.851562 0.875000
vt 0.891388 0.960938
vt 0.914062 0.875000
vt 0.319183 0.986847
vt 0.320312 0.820312
vt 0.179688 0.867188
vt 0.857422 0.127594
vt 0.982117 0.207581
vt 0.988281 0.141602
vt 0.179688 0.984619
vt 0.437500 0.148438
vt 0.196045 0.012207
vt 0.242188 0.210938
vt 0.781250 0.359375
vt 0.781250 0.312500
vt 0.984375 0.335938
vt 0.445312 0.531250
vt 0.445312 0.554688
vt 0.273438 0.554688
vt 0.078125 0.562500
vt 0.179688 0.562500
vt 0.012543 0.632812
vt 0.012543 0.695312
vt 0.984375 0.875000
vt 0.945312 0.963257
vt 0.984375 0.718750
vt 0.750000 0.265625
vt 0.983246 0.256134
vt 0.984375 0.304688
vt 0.914062 0.718750
vt 0.984375 0.664062
vt 0.012543 0.562500
vt 0.679688 0.867188
vt 0.704681 0.983063
vt 0.542389 0.986847
vt 0.546875 0.671875
vt 0.679688 0.703125
vt 0.679688 0.562500
vt 0.320312 0.694183
vt 0.546875 0.820312
vt 0.273438 0.401031
vt 0.100250 0.449219
vt 0.179688 0.492188
vt 0.078125 0.554688
vt 0.187500 0.554688
vt 0.447906 0.475250
vt 0.274719 0.485657
vt 0.546875 0.562500
vt 0.320312 0.562500
vt 0.179688 0.695312
vt 0.609375 0.554688
vt 0.796875 0.554688
vt 0.861969 0.652985
vt 0.966125 0.653625
vt 0.445312 0.406250
vt 0.648438 0.125000
vt 0.453125 0.257812
vt 0.012543 0.950500
vt 0.012543 0.867188
vt 0.750000 0.304688
vt 0.453125 0.312500
vt 0.214844 0.292969
vt 0.046875 0.054688
vt 0.920441 0.029816
vt 0.868469 0.015625
vt 0.703857 0.012207
vt 0.426331 0.012421
vt 0.012543 0.554688
vt 0.012543 0.389313
vt 0.054688 0.322906
vt 0.273438 0.328125
vt 0.437500 0.320312
vt 0.986572 0.038208
s 1
usemtl m_hair097
f 1/1/1 2/2/2 3/3/3
f 4/4/4 5/5/5 6/6/6
f 7/7/7 8/8/8 9/9/9
f 10/10/10 11/11/11 12/12/12
f 13/13/13 14/14/14 15/15/15
f 12/12/12 16/16/16 10/10/10
f 17/17/17 18/18/18 19/19/19
f 20/20/20 21/21/21 22/22/22
f 23/23/23 24/24/24 25/25/25
f 26/26/26 27/27/27 28/28/28
f 28/28/28 27/27/27 29/29/29
f 28/28/28 29/29/29 30/27/30
f 23/23/23 31/4/31 32/5/32
f 32/5/32 31/4/31 33/6/33
f 34/30/34 9/9/9 35/31/8
f 2/2/2 1/1/1 36/3/35
f 35/31/36 37/9/37 38/30/38
f 38/30/38 37/9/37 39/32/39
f 5/5/5 4/4/4 40/23/40
f 41/25/41 42/24/42 40/23/40
f 14/14/14 43/33/43 44/34/44
f 44/34/44 43/33/43 45/35/45
f 2/2/2 46/36/46 3/3/3
f 3/3/3 46/36/46 47/32/47
f 3/3/3 47/32/47 48/37/48
f 8/8/8 7/7/7 37/9/37
f 37/9/37 7/7/7 49/36/49
f 37/9/37 49/36/49 39/32/39
f 30/27/30 50/26/50 28/28/28
f 28/28/28 50/26/50 51/38/51
f 28/28/28 51/38/51 26/26/26
f 52/39/52 53/40/53 54/41/54
f 11/11/11 10/10/10 55/41/55
f 56/42/56 57/43/57 58/44/58
f 59/45/59 60/46/60 56/42/56
f 56/42/56 60/46/60 61/39/61
f 56/42/56 61/39/61 57/43/57
f 62/47/62 63/48/63 64/49/64
f 64/49/64 63/48/63 65/50/65
f 64/49/64 65/50/65 66/51/30
f 4/4/4 67/52/66 40/23/40
f 40/23/40 67/52/66 68/53/67
f 40/23/40 68/53/67 41/25/41
f 69/42/68 70/46/69 71/45/70
f 71/45/70 70/46/69 72/11/71
f 71/45/70 72/11/71 73/12/72
f 25/25/25 74/53/73 23/23/23
f 23/23/23 74/53/73 75/52/74
f 23/23/23 75/52/74 31/4/31
f 76/51/27 77/50/75 78/49/76
f 78/49/76 77/50/75 79/48/77
f 78/49/76 79/48/77 80/47/78
f 81/35/79 82/33/80 83/34/81
f 83/34/81 82/33/80 84/14/82
f 34/30/34 47/32/47 9/9/9
f 9/9/9 47/32/47 46/36/46
f 9/9/9 46/36/46 7/7/7
f 7/7/7 46/36/46 2/2/2
f 7/7/7 2/2/2 49/36/49
f 49/36/49 2/2/2 36/3/35
f 49/36/49 36/3/35 39/32/39
f 39/32/39 36/3/35 85/37/83
f 58/44/58 86/54/84 56/42/56
f 56/42/56 86/54/84 87/55/85
f 56/42/56 87/55/85 59/45/59
f 59/45/59 87/55/85 30/27/30
f 59/45/59 30/27/30 88/56/86
f 88/56/86 30/27/30 29/29/29
f 42/24/42 89/57/58 40/23/40
f 40/23/40 89/57/58 90/58/87
f 40/23/40 90/58/87 5/5/5
f 5/5/5 90/58/87 91/59/88
f 5/5/5 91/59/88 92/60/89
f 66/51/30 41/25/41 64/49/64
f 64/49/64 41/25/41 68/53/67
f 64/49/64 68/53/67 62/47/62
f 62/47/62 68/53/67 67/52/66
f 62/47/62 67/52/66 93/61/90
f 93/61/90 67/52/66 4/4/4
f 93/61/90 4/4/4 94/20/91
f 94/20/91 4/4/4 6/6/6
f 94/20/91 6/6/6 95/22/92
f 14/14/14 13/13/13 43/33/43
f 43/33/43 13/13/13 96/62/93
f 43/33/43 96/62/93 97/63/94
f 97/63/94 96/62/93 17/17/17
f 97/63/94 17/17/17 19/19/19
f 16/16/16 12/12/12 98/64/95
f 98/64/95 12/12/12 99/65/96
f 98/64/95 99/65/96 73/12/72
f 73/12/72 99/65/96 100/56/97
f 73/12/72 100/56/97 71/45/70
f 81/35/79 101/66/21 82/33/80
f 82/33/80 101/66/21 102/67/98
f 82/33/80 102/67/98 103/63/99
f 103/63/99 102/67/98 104/68/100
f 103/63/99 104/68/100 105/19/101
f 105/19/101 104/68/100 106/69/102
f 107/44/103 108/43/104 69/42/68
f 69/42/68 108/43/104 52/39/52
f 69/42/68 52/39/52 70/46/69
f 70/46/69 52/39/52 54/41/54
f 70/46/69 54/41/54 72/11/71
f 72/11/71 54/41/54 109/10/105
f 72/11/71 109/10/105 73/12/72
f 73/12/72 109/10/105 110/16/106
f 73/12/72 110/16/106 98/64/95
f 111/60/107 112/59/108 32/5/32
f 32/5/32 112/59/108 113/58/109
f 32/5/32 113/58/109 23/23/23
f 23/23/23 113/58/109 114/57/110
f 23/23/23 114/57/110 24/24/24
f 115/70/111 116/15/112 117/71/113
f 117/71/113 116/15/112 118/13/114
f 117/71/113 118/13/114 119/72/115
f 119/72/115 118/13/114 120/62/116
f 119/72/115 120/62/116 121/73/117
f 121/73/117 120/62/116 122/17/118
f 121/73/117 122/17/118 18/18/18
f 22/22/22 33/6/33 20/20/20
f 20/20/20 33/6/33 31/4/31
f 20/20/20 31/4/31 123/61/119
f 123/61/119 31/4/31 75/52/74
f 123/61/119 75/52/74 80/47/78
f 80/47/78 75/52/74 74/53/73
f 80/47/78 74/53/73 78/49/76
f 78/49/76 74/53/73 25/25/25
f 78/49/76 25/25/25 76/51/27
f 124/74/51 65/50/65 125/75/120
f 125/75/120 65/50/65 63/48/63
f 125/75/120 63/48/63 126/76/102
f 126/76/102 63/48/63 62/47/62
f 126/76/102 62/47/62 127/77/121
f 127/77/121 62/47/62 93/61/90
f 127/77/121 93/61/90 128/78/122
f 128/78/122 93/61/90 94/20/91
f 128/78/122 94/20/91 129/21/123
f 129/21/123 94/20/91 95/22/92
f 18/18/18 17/17/17 121/73/117
f 121/73/117 17/17/17 96/62/93
f 121/73/117 96/62/93 119/72/115
f 119/72/115 96/62/93 13/13/13
f 119/72/115 13/13/13 117/71/113
f 117/71/113 13/13/13 15/15/15
f 117/71/113 15/15/15 115/70/111
f 115/70/111 15/15/15 130/79/124
f 115/70/111 130/79/124 116/15/112
f 131/40/125 61/39/61 55/41/55
f 55/41/55 61/39/61 60/46/60
f 55/41/55 60/46/60 11/11/11
f 11/11/11 60/46/60 59/45/59
f 11/11/11 59/45/59 12/12/12
f 12/12/12 59/45/59 88/56/86
f 12/12/12 88/56/86 99/65/96
f 99/65/96 88/56/86 29/29/29
f 99/65/96 29/29/29 100/56/97
f 100/56/97 29/29/29 27/27/27
f 100/56/97 27/27/27 71/45/70
f 71/45/70 27/27/27 132/55/126
f 71/45/70 132/55/126 69/42/68
f 69/42/68 132/55/126 133/54/127
f 69/42/68 133/54/127 107/44/103
f 21/21/21 20/20/20 134/78/128
f 134/78/128 20/20/20 123/61/119
f 134/78/128 123/61/119 135/77/129
f 135/77/129 123/61/119 80/47/78
f 135/77/129 80/47/78 126/76/102
f 126/76/102 80/47/78 79/48/77
f 126/76/102 79/48/77 125/75/120
f 125/75/120 79/48/77 77/50/75
f 125/75/120 77/50/75 124/74/51
f 116/15/112 84/14/82 118/13/114
f 118/13/114 84/14/82 82/33/80
f 118/13/114 82/33/80 120/62/116
f 120/62/116 82/33/80 103/63/99
f 120/62/116 103/63/99 122/17/118
f 122/17/118 103/63/99 105/19/101
f 122/17/118 105/19/101 18/18/18
f 18/18/18 105/19/101 106/69/102
f 18/18/18 106/69/102 19/19/19
f 19/19/19 106/69/102 136/68/130
f 19/19/19 136/68/130 97/63/94
f 97/63/94 136/68/130 137/67/131
f 97/63/94 137/67/131 43/33/43
f 43/33/43 137/67/131 138/66/123
f 43/33/43 138/66/123 45/35/45
o editpl_m-0000-1809
v 0.000000 58.548054 -10.445401
v 0.000000 56.488380 -11.241937
v 1.549659 58.959347 -10.922874
v -1.048458 59.364212 -11.734356
v -1.549659 58.959347 -10.922874
v 1.048458 59.364212 -11.734356
v 1.549659 58.959347 -10.922874
v 1.048458 59.364212 -11.734356
v 0.000000 59.608414 -12.454677
v -1.048458 59.364212 -11.734356
v -1.815160 56.690811 -11.735848
v 1.815160 56.690811 -11.735848
v 0.000000 56.488380 -11.241937
v 0.000000 57.355949 -13.430547
v 1.227265 57.047482 -12.701259
v -1.227265 57.047482 -12.701259
v 1.815160 56.690811 -11.735848
v -1.815160 56.690811 -11.735848
v -1.815160 56.690811 -11.735848
v -1.549659 58.959347 -10.922874
v -1.048458 59.364212 -11.734356
v -1.227265 57.047482 -12.701259
v 0.000000 59.608414 -12.454677
v 0.000000 57.355949 -13.430547
v 1.048458 59.364212 -11.734356
v 1.227265 57.047482 -12.701259
v 1.815160 56.690811 -11.735848
vn -0.0000 -0.3303 0.9439
vn -0.0000 -0.7378 0.6750
vn 0.6911 0.4870 0.5340
vn -0.5013 0.8537 -0.1410
vn -0.6912 0.4869 0.5340
vn 0.5013 0.8537 -0.1410
vn 0.6912 0.4869 0.5341
vn -0.0000 0.8084 -0.5886
vn -0.5183 -0.8481 -0.1100
vn 0.5183 -0.8481 -0.1099
vn 0.0001 -0.7378 0.6750
vn -0.0000 -0.1173 -0.9931
vn 0.5286 -0.4654 -0.7100
vn -0.5285 -0.4654 -0.7100
vn -0.5183 -0.8481 -0.1099
vn -0.6911 0.4870 0.5341
vn -0.5012 0.8537 -0.1410
vn -0.5285 -0.4655 -0.7099
vn 0.5013 0.8537 -0.1409
vn 0.5285 -0.4654 -0.7100
vt 0.835236 0.789062
vt 0.835236 0.984375
vt 0.812500 0.789062
vt 0.823853 0.765625
vt 0.835236 0.781250
vt 0.752106 0.765625
vt 0.734375 0.781250
vt 0.789062 0.750000
vt 0.812500 0.984375
vt 0.773438 0.789062
vt 0.773438 0.984375
vt 0.734375 0.789062
vt 0.734375 0.984375
s 1
usemtl m_hair097
f 139/80/132 140/81/133 141/82/134
f 142/83/135 143/84/136 144/85/137
f 144/85/137 143/84/136 145/86/138
f 146/83/137 147/87/139 148/85/135
f 149/83/140 150/85/141 151/87/142
f 152/87/143 153/85/144 154/83/145
f 154/83/145 153/85/144 155/86/141
f 154/83/145 155/86/141 156/84/146
f 140/81/133 139/80/132 157/88/146
f 139/80/132 158/82/147 157/88/146
f 157/88/146 158/82/147 159/89/148
f 157/88/146 159/89/148 160/90/149
f 160/90/149 159/89/148 161/91/139
f 160/90/149 161/91/139 162/92/143
f 162/92/143 161/91/139 163/89/150
f 162/92/143 163/89/150 164/90/151
f 164/90/151 163/89/150 141/82/134
f 164/90/151 141/82/134 165/88/141
f 165/88/141 141/82/134 140/81/133
