mtllib m_hair019.mtl
o editpl_m-0000-1844
v 5.025555 64.212959 -4.195648
v 4.337420 65.237976 -4.176968
v 5.613450 64.177612 1.732799
v 3.137247 62.195057 7.643314
v 4.359093 62.368568 7.546175
v 4.822366 64.206528 5.602654
v 3.727851 65.633202 1.958460
v 4.982208 65.398636 1.820971
v 3.150793 65.321518 -4.035743
v 7.228130 46.646294 1.082719
v 6.155289 43.632294 0.794292
v 6.797368 46.723408 0.140473
v -7.228130 46.646294 1.082719
v -5.510501 43.850792 2.580149
v -6.139034 46.681637 1.757459
v -2.419310 54.348377 -10.025462
v -4.356384 56.131714 -9.494187
v 0.000000 61.500999 -10.195082
v -4.811529 64.441093 -4.195648
v -4.074628 65.440407 -4.176968
v -1.869344 63.718121 -7.315294
v -7.951485 50.990562 1.158935
v -7.707657 55.836098 0.886200
v -7.439447 51.016270 0.128518
v -6.214891 63.798450 -4.647717
v -6.469556 62.506741 -4.389926
v -7.493631 62.680252 1.002765
v 8.254914 57.590515 0.138979
v 7.859372 58.840454 0.102365
v 6.025248 59.592350 5.299284
v -4.367221 62.236828 7.511056
v -5.342531 63.300404 5.268647
v -4.415986 60.768387 7.350403
v -8.249496 57.590515 0.138979
v -7.601999 56.645828 -0.029146
v -6.212182 57.519821 5.266406
v 0.000000 54.637566 -22.330688
v 0.980728 51.276539 -23.623381
v 0.000000 51.389004 -24.484926
v 7.184783 54.981380 2.781151
v 6.770276 50.897381 1.885981
v 8.008378 55.579041 2.049622
v 6.046921 62.481033 4.810601
v 7.073706 61.899441 4.269613
v 6.461428 63.287552 1.342003
v 6.220310 63.798450 -4.647717
v 7.577616 62.805569 1.002765
v 7.458411 61.465656 0.887693
v 4.415986 60.768387 7.350403
v 6.025248 59.592350 5.299284
v 7.027650 60.623795 3.414793
v 1.869344 63.718121 -7.315294
v 1.975003 60.402081 8.981586
v 3.530080 64.412178 5.855962
v 7.471957 55.855377 -0.595539
v 6.762148 51.601074 1.758206
v 7.951485 50.990562 1.158935
v 7.439447 51.093388 0.128518
v 7.707657 55.836098 0.886200
v 0.162552 64.862030 6.517252
v 0.238409 62.134007 8.933016
v 1.248938 62.423195 9.095163
v 0.000000 59.589134 9.548726
v 1.975003 60.402081 8.981586
v 0.000000 54.399788 -10.313142
v 2.419310 54.348377 -10.025462
v 0.000000 50.633896 -9.471771
v 4.445788 47.713081 -5.999438
v 0.000000 46.806953 -9.555460
v 5.025555 64.212959 -4.195648
v 5.613450 64.177612 1.732799
v 6.461428 63.287552 1.342003
v 5.404842 63.290764 5.264164
v 6.046921 62.481033 4.810601
v 4.415986 60.768387 7.350403
v 6.683582 62.506741 -4.471373
v 4.291363 62.873047 -7.239825
v 1.869344 63.718121 -7.315294
v 0.000000 61.500999 -10.195082
v 6.504775 43.776890 1.602038
v 6.139034 46.681637 1.757459
v 5.510501 43.850792 2.580149
v 6.355769 50.537498 -3.116661
v 4.445788 47.713081 -5.999438
v 6.038794 52.452579 -6.093587
v 2.419310 54.348377 -10.025462
v 4.356384 56.131714 -9.494187
v 4.857585 58.114269 -8.801515
v 7.816025 57.028202 -5.255953
v 6.927409 54.055973 -5.267910
v 7.471957 55.855377 -0.595539
v 7.081833 52.314411 -2.209535
v -4.415986 60.768387 7.350403
v -5.342531 63.300404 5.268647
v -5.884370 62.381424 4.835259
v -5.499664 64.264366 1.741019
v -6.461428 63.226498 1.339014
v -4.811529 64.441093 -4.195648
v 7.816025 57.028202 -5.255953
v 7.601999 56.645828 -0.029146
v 6.212182 57.519821 5.266406
v -6.212182 57.519821 5.266406
v -7.601999 56.645828 -0.029146
v -7.184783 54.981380 2.781151
v -2.584571 65.041969 6.286361
v -1.901854 62.285027 8.856053
v -0.669171 62.072952 8.808230
v 0.000000 59.589134 9.548726
v -7.081833 52.314411 -2.209535
v -7.471957 55.855377 -0.595539
v -6.927409 54.055973 -5.267910
v -7.816025 57.028202 -5.255953
v -4.857585 58.114269 -8.801515
v -5.342531 63.300404 5.268647
v -4.835911 64.392899 5.591446
v -5.001172 65.546440 1.798555
v -6.504775 43.776890 1.602038
v -6.797368 46.723408 0.140473
v -6.155289 43.632294 0.794292
v -1.975003 60.402081 8.981586
v -2.985532 62.092232 7.830866
v -3.465059 64.200104 5.858951
v -6.038794 52.452579 -6.093587
v -4.445788 47.713081 -5.999438
v -6.355769 50.537498 -3.116661
v -5.499664 64.264366 1.741019
v -8.008378 55.579041 2.049622
v -6.770276 50.897381 1.885981
v -7.070997 61.899441 4.269613
v -5.884370 62.381424 4.835259
v -4.415986 60.768387 7.350403
v -4.291363 62.873047 -7.239825
v -6.038794 52.452579 -6.093587
v -6.355769 50.537498 -3.116661
v -7.081833 52.314411 -2.209535
v -6.927409 54.055973 -5.267910
v -4.857585 58.114269 -8.801515
v -4.356384 56.131714 -9.494187
v 0.000000 61.500999 -10.195082
v -6.762148 51.601074 1.758206
v -7.471957 55.855377 -0.595539
v -7.816025 57.028202 -5.255953
v 2.516841 50.167980 -17.160669
v 1.956038 49.557468 -18.774668
v 2.720031 53.744293 -18.438417
v 2.571025 52.529694 -15.213414
v 4.044827 49.110832 -16.266994
v 5.675762 49.772755 -17.801786
v 3.735979 53.194832 -16.819191
v 3.045134 53.406902 -18.795589
v 2.996369 57.988953 -16.055531
v 2.909674 58.914360 -17.794313
v 1.070132 53.776424 -20.930397
v 0.422634 49.589600 -19.636211
v -3.386493 54.197357 -18.830708
v -4.399731 50.784920 -21.383213
v -4.963244 50.643536 -19.597357
v 0.945509 53.204472 -13.796684
v 0.000000 57.063545 -13.539640
v 0.000000 53.143421 -12.661655
v -1.105351 57.365589 -14.466941
v -0.950927 53.204472 -13.796684
v 0.000000 60.421360 -13.319211
v -1.823288 62.477821 -12.563024
v -2.953022 61.729141 -14.340661
v -2.235085 63.377522 -14.649262
v -2.549352 63.252205 -15.765611
v -2.549352 63.252205 -15.765611
v -2.860909 58.840454 -17.925077
v -4.042118 48.243263 -16.609222
v -4.611048 49.367889 -14.918262
v -3.302508 53.092007 -15.844815
v -2.627918 49.178307 -12.988191
v -1.053877 50.592125 -13.666667
v 0.000000 50.582485 -12.553308
v 1.048458 50.592125 -13.666667
v -1.956038 53.525791 -14.245763
v -3.001787 57.988953 -16.055531
v 1.211010 65.292603 6.278142
v 1.021366 66.693565 1.911385
v 0.032510 66.131248 1.965185
v 1.043040 66.343323 -3.935615
v -0.086694 65.996292 -3.867618
v 0.000000 64.155121 -7.500605
v 5.025555 64.212959 -4.195648
v 0.000000 64.155121 -7.500605
v -1.197464 66.144104 -3.866124
v -0.086694 65.996292 -3.867618
v -1.614680 66.288696 1.873277
v 0.032510 66.131248 1.965185
v -1.305832 64.849174 6.423850
v 0.162552 64.862030 6.517252
v -0.669171 62.072952 8.808230
v 0.238409 62.134007 8.933016
v 0.000000 59.589134 9.548726
v 0.000000 61.500999 -10.195082
v 4.857585 58.114269 -8.801515
v 4.356384 56.131714 -9.494187
v 6.927409 54.055973 -5.267910
v 6.038794 52.452579 -6.093587
v 7.081833 52.314411 -2.209535
v 6.355769 50.537498 -3.116661
v 1.869344 63.718121 -7.315294
v 1.931655 65.662117 -4.004360
v 3.150793 65.321518 -4.035743
v 2.015640 65.941666 1.851607
v 3.727851 65.633202 1.958460
v 2.148391 64.778481 6.139906
v 3.530080 64.412178 5.855962
v 2.124008 62.220760 8.201488
v 3.137247 62.195057 7.643314
v 1.975003 60.402081 8.981586
v 7.685984 59.058956 -5.180484
v 8.403920 57.902195 -5.512250
v 4.716707 60.308895 -8.445090
v 4.857585 58.114269 -8.801515
v 7.390682 56.944656 1.609509
v 6.212182 57.519821 5.266406
v 6.591469 53.072727 3.860137
v 6.025248 59.592350 5.299284
v 7.859372 58.840454 0.102365
v 8.130292 60.006855 0.265258
v 7.685984 59.058956 -5.180484
v 8.078817 60.238205 -5.069896
v 4.716707 60.308895 -8.445090
v 4.657105 61.777336 -7.700112
v 0.000000 61.500999 -10.195082
v 0.000000 61.500999 -10.195082
v 4.291363 62.873047 -7.239825
v 4.657105 61.777336 -7.700112
v 6.683582 62.506741 -4.471373
v 7.016813 61.025444 -4.779227
v 7.458411 61.465656 0.887693
v 7.490922 60.816586 0.586563
v 7.027650 60.623795 3.414793
v 7.016813 61.025444 -4.779227
v 7.490922 60.816586 0.586563
v 7.027650 60.623795 3.414793
v 4.415986 60.768387 7.350403
v 5.404842 63.290764 5.264164
v -6.903027 60.694485 3.437209
v -7.263349 61.407818 0.913098
v -7.490922 60.816586 0.586563
v -6.469556 62.506741 -4.389926
v -7.016813 61.025444 -4.779227
v -4.291363 62.873047 -7.239825
v -4.657105 61.777336 -7.700112
v 0.000000 61.500999 -10.195082
v 0.000000 61.500999 -10.195082
v -4.716707 60.308895 -8.445090
v -4.657105 61.777336 -7.700112
v -8.076108 60.238205 -5.069896
v -7.016813 61.025444 -4.779227
v -8.124873 60.006855 0.265258
v -7.490922 60.816586 0.586563
v -6.903027 60.694485 3.437209
v -1.305832 64.849174 6.423850
v -1.614680 66.288696 1.873277
v -2.806725 66.484703 1.931560
v -1.197464 66.144104 -3.866124
v -2.462657 66.275841 -3.934868
v 0.000000 64.155121 -7.500605
v -1.869344 63.718121 -7.315294
v 0.000000 61.500999 -10.195082
v -2.898838 65.189774 -4.035743
v -3.665540 65.446831 1.936043
v -3.465059 64.200104 5.858951
v -2.985532 62.092232 7.830866
v -1.975003 60.402081 8.981586
v -4.445788 47.713081 -5.999438
v -2.419310 54.348377 -10.025462
v -7.685984 59.058956 -5.180484
v -7.859372 58.840454 0.102365
v -6.025248 59.592350 5.299284
v 6.212182 57.519821 5.266406
v 7.601999 56.645828 -0.029146
v 7.816025 57.028202 -5.255953
v -3.665540 65.446831 1.936043
v -2.898838 65.189774 -4.035743
v -7.263349 61.407818 0.913098
v -6.903027 60.694485 3.437209
v -6.025248 59.592350 5.299284
v 0.000000 61.500999 -10.195082
v -1.869344 63.718121 -7.315294
v -4.811529 64.441093 -4.195648
v -6.461428 63.226498 1.339014
v -6.591469 53.072727 3.860137
v -6.212182 57.519821 5.266406
v -7.390682 56.944656 1.609509
v -7.816025 57.028202 -5.255953
v -8.401211 57.902195 -5.512250
v -4.857585 58.114269 -8.801515
v -4.716707 60.308895 -8.445090
v 0.000000 61.500999 -10.195082
v -6.025248 59.592350 5.299284
v -7.859372 58.840454 0.102365
v -7.685984 59.058956 -5.180484
v 2.909674 58.914360 -17.794313
v 2.262177 62.924458 -15.816422
v 2.947603 61.729141 -14.340661
v 2.226958 63.403225 -14.660472
v 1.823288 62.477821 -12.563024
v 0.899452 59.817276 -20.562017
v 2.226958 64.672447 -17.082214
v 2.262177 62.924458 -15.816422
v 2.459948 65.398636 -15.344926
v 2.226958 63.403225 -14.660472
v 2.270305 65.054817 -13.934173
v 1.823288 62.477821 -12.563024
v 1.099933 57.365589 -14.466941
v 5.112249 49.483562 -19.813303
v 0.000000 64.261154 -11.189631
v 0.000000 66.433289 -12.824551
v -2.275723 65.054817 -13.934173
v 0.000000 66.754616 -15.697614
v -2.413892 65.331161 -15.340442
v 0.000000 65.787437 -18.476528
v -2.232376 64.672447 -17.082214
v -1.075550 59.817276 -20.562017
v 0.000000 60.051842 -20.959539
v -0.831723 54.419067 -21.713486
v -0.866942 51.276539 -23.623381
v -2.698357 52.436512 -17.751722
v 0.000000 61.500999 -10.195082
v 1.869344 63.718121 -7.315294
v 1.931655 65.662117 -4.004360
v 2.015640 65.941666 1.851607
v 2.148391 64.778481 6.139906
v 2.124008 62.220760 8.201488
v 0.888616 54.419067 -21.713486
v -2.852781 50.649963 -22.776033
v -1.720338 54.589367 -21.431036
v -2.860909 58.840454 -17.925077
v -2.549352 63.252205 -15.765611
v -2.235085 63.377522 -14.649262
v -1.823288 62.477821 -12.563024
v 0.000000 59.589134 9.548726
vn 0.5981 0.7633 -0.2440
vn 0.4573 0.8120 -0.3626
vn 0.8173 0.5736 0.0550
vn 0.2282 0.5509 0.8028
vn 0.5492 0.3452 0.7610
vn 0.5594 0.6697 0.4885
vn 0.1813 0.9772 0.1103
vn 0.5761 0.8128 0.0868
vn 0.1651 0.9595 -0.2281
vn 0.9527 -0.1575 0.2598
vn 0.8808 -0.2752 -0.3853
vn 0.8892 -0.2046 -0.4092
vn -0.9527 -0.1575 0.2598
vn -0.6196 0.0314 0.7843
vn -0.5742 -0.0314 0.8181
vn -0.3609 -0.2040 -0.9100
vn -0.5411 -0.0549 -0.8392
vn -0.0000 0.3700 -0.9290
vn -0.6298 0.7321 -0.2598
vn -0.3388 0.8746 -0.3467
vn -0.3312 0.7414 -0.5836
vn -0.9487 -0.1254 0.2901
vn -0.9480 0.1959 -0.2507
vn -0.9210 -0.0551 -0.3857
vn -0.6706 0.6232 -0.4023
vn -0.9096 0.2195 -0.3529
vn -0.8842 0.4617 0.0704
vn 0.9741 -0.0786 0.2121
vn 0.9853 0.0469 0.1642
vn 0.9131 -0.0708 0.4014
vn -0.5826 0.2992 0.7557
vn -0.8870 0.2669 0.3768
vn -0.7478 0.1180 0.6534
vn -0.9741 -0.0786 0.2121
vn -0.9379 -0.3232 0.1261
vn -0.8982 -0.2599 0.3545
vn -0.0000 0.3768 -0.9263
vn 0.6054 0.4324 -0.6683
vn -0.0235 0.5418 -0.8402
vn 0.9223 -0.1340 0.3626
vn 0.5968 -0.1649 0.7853
vn 0.9349 0.0314 0.3535
vn 0.6934 0.5437 0.4728
vn 0.8635 0.1806 0.4710
vn 0.6139 0.7793 0.1260
vn 0.6126 0.6989 -0.3691
vn 0.8501 0.5195 0.0866
vn 0.9992 0.0393 -0.0000
vn 0.7452 0.1020 0.6590
vn 0.9131 -0.0709 0.4015
vn 0.9701 -0.0078 0.2425
vn 0.2919 0.7809 -0.5522
vn 0.4251 0.2362 0.8738
vn 0.2278 0.8090 0.5419
vn 0.9925 -0.1182 0.0315
vn 0.9796 -0.1567 0.1254
vn 0.9496 -0.1177 0.2904
vn 0.9185 -0.0471 -0.3925
vn 0.9480 0.1959 -0.2507
vn -0.1732 0.8267 0.5354
vn -0.1648 0.4629 0.8709
vn 0.2507 0.3918 0.8853
vn -0.0314 0.1809 0.9830
vn 0.4249 0.2362 0.8739
vn -0.0000 -0.0941 -0.9956
vn 0.3609 -0.2040 -0.9100
vn -0.0000 -0.2203 -0.9754
vn 0.6832 -0.2356 -0.6911
vn -0.0000 0.0157 -0.9999
vn 0.5981 0.7634 -0.2439
vn 0.8172 0.5737 0.0550
vn 0.6140 0.7792 0.1259
vn 0.8552 0.3295 0.4001
vn 0.6935 0.5437 0.4728
vn 0.9030 0.2199 -0.3690
vn 0.5206 0.5286 -0.6705
vn 0.2919 0.7810 -0.5522
vn -0.0000 0.3701 -0.9290
vn 0.9565 -0.1490 0.2509
vn 0.5742 -0.0314 0.8181
vn 0.6196 0.0314 0.7843
vn 0.9113 -0.3064 -0.2750
vn 0.6833 -0.2356 -0.6911
vn 0.8034 -0.2757 -0.5278
vn 0.5411 -0.0549 -0.8392
vn 0.6276 -0.0549 -0.7766
vn 0.8808 -0.3853 -0.2753
vn 0.9262 -0.1962 -0.3218
vn 0.9667 -0.1886 -0.1729
vn -0.7478 0.1181 0.6533
vn -0.6996 0.5502 0.4559
vn -0.8488 0.5266 0.0472
vn -0.6397 0.7581 0.1264
vn -0.6298 0.7321 -0.2597
vn 0.8808 -0.3854 -0.2752
vn 0.9355 -0.3302 0.1258
vn 0.9796 0.0706 0.1881
vn -0.9796 0.0706 0.1881
vn -0.9379 -0.3231 0.1261
vn -0.9223 -0.1340 0.3626
vn -0.3377 0.7696 0.5419
vn -0.3141 0.3377 0.8873
vn -0.0156 0.4782 0.8781
vn -0.1019 0.2116 0.9720
vn -0.9667 -0.1886 -0.1729
vn -0.9925 -0.1182 0.0315
vn -0.9262 -0.1962 -0.3218
vn -0.8808 -0.3853 -0.2753
vn -0.6276 -0.0549 -0.7766
vn -0.5356 0.6774 0.5041
vn -0.4948 0.8639 0.0942
vn -0.9565 -0.1489 0.2509
vn -0.8892 -0.2046 -0.4092
vn -0.8808 -0.2752 -0.3853
vn -0.4327 0.1495 0.8890
vn -0.4262 0.4420 0.7893
vn -0.4000 0.7453 0.5334
vn -0.8034 -0.2757 -0.5278
vn -0.6833 -0.2356 -0.6911
vn -0.9113 -0.3064 -0.2750
vn -0.9349 0.0314 0.3535
vn -0.5968 -0.1649 0.7853
vn -0.8736 0.1889 0.4486
vn -0.6995 0.5503 0.4559
vn -0.5342 0.5185 -0.6677
vn -0.8034 -0.2757 -0.5277
vn -0.9667 -0.1887 -0.1729
vn -0.9262 -0.1963 -0.3218
vn -0.5412 -0.0549 -0.8391
vn -0.9796 -0.1567 0.1254
vn -0.8808 -0.3853 -0.2752
vn 0.9519 -0.1495 -0.2675
vn 0.7868 -0.2046 -0.5823
vn 0.8793 -0.0706 -0.4711
vn 0.7079 0.0944 0.7000
vn 0.7078 0.1415 0.6921
vn 0.8897 0.3858 0.2441
vn 0.9325 0.2351 0.2742
vn 0.9205 0.3226 -0.2203
vn 0.9518 -0.0000 0.3068
vn 0.9566 0.1176 -0.2666
vn 0.7323 -0.1260 -0.6693
vn 0.4575 -0.3234 -0.8283
vn -0.8370 0.3869 -0.3869
vn -0.7575 0.4655 -0.4577
vn -0.8709 0.4315 -0.2354
vn 0.7204 0.0783 0.6891
vn -0.0000 0.0472 0.9989
vn -0.0000 0.1173 0.9931
vn -0.6361 -0.0549 0.7696
vn -0.7204 0.0783 0.6891
vn -0.0000 -0.3700 0.9290
vn -0.8641 -0.0236 0.5028
vn -0.8548 -0.0392 0.5175
vn -0.9653 0.1413 0.2197
vn -0.9885 0.1491 0.0235
vn -0.9497 0.1177 -0.2903
vn -0.8979 0.1969 -0.3938
vn -0.9392 0.3131 0.1409
vn -0.9558 0.1959 0.2194
vn -0.6999 0.3382 0.6291
vn -0.7447 0.0392 0.6663
vn -0.0000 0.0629 0.9980
vn 0.7447 0.0392 0.6663
vn -0.6989 0.2356 0.6753
vn -0.9493 -0.0157 0.3138
vn 0.1488 0.8381 0.5248
vn 0.1019 0.9878 0.1176
vn -0.1644 0.9784 0.1252
vn 0.1496 0.9290 -0.3385
vn -0.1175 0.9630 -0.2427
vn -0.0000 0.8211 -0.5708
vn 0.5981 0.7634 -0.2440
vn 0.1177 0.9648 -0.2353
vn -0.1174 0.9630 -0.2427
vn 0.1017 0.9859 0.1330
vn -0.1643 0.9784 0.1253
vn 0.0392 0.8398 0.5415
vn -0.0157 0.4782 0.8781
vn -0.1019 0.2117 0.9720
vn 0.5412 -0.0549 -0.8391
vn 0.9262 -0.1963 -0.3219
vn 0.8034 -0.2757 -0.5277
vn 0.9667 -0.1887 -0.1729
vn 0.2918 0.7810 -0.5522
vn 0.4181 0.8679 -0.2683
vn 0.1652 0.9595 -0.2281
vn 0.3760 0.9245 0.0627
vn 0.4400 0.7543 0.4872
vn 0.5400 0.4226 0.7279
vn 0.2283 0.5509 0.8028
vn 0.9349 0.1493 -0.3221
vn 0.9022 -0.0000 -0.4314
vn 0.6213 0.2595 -0.7393
vn 0.9093 0.4155 0.0235
vn 0.9017 0.0314 0.4312
vn 0.9444 -0.1180 0.3069
vn 0.9740 0.1257 0.1885
vn 0.8536 0.3524 -0.3837
vn 0.6213 0.2596 -0.7393
vn 0.5803 0.5097 -0.6352
vn 0.5206 0.5285 -0.6705
vn 0.7929 0.5652 -0.2277
vn 0.9206 0.3855 0.0629
vn 0.7929 0.5653 -0.2276
vn 0.9205 0.3856 0.0630
vn 0.9701 -0.0079 0.2426
vn 0.7452 0.1019 0.6590
vn -0.9712 0.0392 0.2350
vn -0.9939 0.1096 0.0079
vn -0.8704 0.4861 0.0784
vn -0.9095 0.2196 -0.3529
vn -0.7629 0.6134 -0.2045
vn -0.5808 0.5180 -0.6279
vn -0.6213 0.2596 -0.7393
vn -0.8536 0.3524 -0.3837
vn -0.7628 0.6135 -0.2045
vn -0.9689 0.1497 0.1969
vn -0.8703 0.4862 0.0784
vn -0.9712 0.0391 0.2350
vn -0.3864 0.9147 0.1183
vn -0.3922 0.8393 -0.3765
vn -0.0000 0.8211 -0.5709
vn -0.4022 0.8754 -0.2681
vn -0.4026 0.9077 0.1184
vn -0.4001 0.7452 0.5334
vn -0.4327 0.1495 0.8891
vn -0.6832 -0.2356 -0.6911
vn -0.9349 0.1492 -0.3221
vn -0.9853 0.0469 0.1642
vn -0.9210 -0.0551 0.3857
vn 0.8963 -0.2673 0.3538
vn 0.8807 -0.3854 -0.2752
vn -0.4025 0.9077 0.1184
vn -0.4023 0.8754 -0.2681
vn -0.9940 0.1095 0.0078
vn -0.9210 -0.0551 0.3858
vn -0.6297 0.7321 -0.2598
vn -0.6397 0.7582 0.1264
vn -0.9444 -0.1180 0.3069
vn -0.9017 0.0314 0.4312
vn -0.9093 0.4155 0.0235
vn -0.8808 -0.3854 -0.2753
vn -0.9021 -0.0000 -0.4314
vn -0.6213 0.2595 -0.7393
vn -0.9853 0.0470 0.1642
vn -0.9349 0.1493 -0.3221
vn 0.9566 0.1176 -0.2665
vn 0.9951 0.0941 -0.0314
vn 0.8858 -0.0392 0.4624
vn 0.9879 0.1098 0.1098
vn 0.8675 -0.0237 0.4969
vn 0.6604 0.2280 -0.7155
vn 0.8868 0.2983 -0.3531
vn 0.9951 0.0940 -0.0313
vn 0.9437 0.3304 -0.0157
vn 0.9879 0.1097 0.1098
vn 0.8669 0.3152 0.3862
vn 0.8675 -0.0236 0.4969
vn 0.6355 -0.0706 0.7689
vn 0.8139 0.5165 -0.2661
vn -0.0000 0.4783 0.8782
vn -0.0000 0.8609 0.5088
vn -0.8714 0.3141 0.3768
vn -0.0000 0.9948 -0.1018
vn -0.9235 0.3836 0.0078
vn 0.0079 0.6285 -0.7778
vn -0.8651 0.3303 -0.3775
vn -0.6590 0.2589 -0.7061
vn 0.0235 0.3138 -0.9492
vn -0.5773 0.3005 -0.7592
vn -0.6452 0.4091 -0.6452
vn -0.9513 0.1022 -0.2909
vn 0.4182 0.8679 -0.2682
vn 0.3761 0.9245 0.0627
vn 0.4401 0.7543 0.4872
vn 0.5401 0.4226 0.7278
vn 0.5658 0.3143 -0.7623
vn -0.5884 0.4079 -0.6982
vn -0.7457 0.3768 -0.5495
vn -0.9496 0.1177 -0.2904
vn -0.9886 0.1490 0.0235
vn -0.9653 0.1412 0.2197
vn -0.8641 -0.0235 0.5028
vn -0.0314 0.1808 0.9830
vn -0.0000 -0.0000 1.0000
vt 0.269531 0.097260
vt 0.269531 0.048584
vt 0.477631 0.097260
vt 0.901642 0.009979
vt 0.899384 0.050049
vt 0.721802 0.047791
vt 0.479675 0.009979
vt 0.479675 0.047943
vt 0.261932 0.009979
vt 0.666656 0.426971
vt 0.807678 0.379395
vt 0.667358 0.379395
vt 0.808594 0.472290
vt 0.667725 0.465240
vt 0.658386 0.678192
vt 0.653717 0.572021
vt 0.403809 0.678192
vt 0.269531 0.009979
vt 0.269531 0.051453
vt 0.107513 0.044159
vt 0.473511 0.428650
vt 0.198486 0.379364
vt 0.473541 0.385529
vt 0.400055 0.144043
vt 0.448090 0.097046
vt 0.653503 0.146942
vt 0.787018 0.141541
vt 0.790527 0.097260
vt 0.989990 0.097168
vt 0.899384 0.049957
vt 0.704498 0.009979
vt 0.989990 0.009979
vt 0.787018 0.145508
vt 0.784180 0.097198
vt 0.989990 0.096771
vt 0.740753 0.699554
vt 0.989990 0.746918
vt 0.989990 0.697815
vt 0.116089 0.476227
vt 0.471497 0.466064
vt 0.181305 0.433319
vt 0.834473 0.097015
vt 0.828400 0.140930
vt 0.655548 0.097260
vt 0.400055 0.144501
vt 0.653503 0.141571
vt 0.682800 0.190643
vt 0.989990 0.190643
vt 0.842682 0.190643
vt 0.728943 0.009979
vt 0.312683 0.478577
vt 0.196777 0.631348
vt 0.747955 0.009979
vt 0.898254 0.009979
vt 0.897491 0.052399
vt 0.653900 0.678192
vt 0.814117 0.678192
vt 0.989990 0.439911
vt 0.989990 0.678192
vt 0.310974 0.528503
vt 0.477051 0.551544
vt 0.472229 0.471924
vt 0.643372 0.551544
vt 0.658325 0.471985
vt 0.790588 0.500183
vt 0.448090 0.190643
vt 0.231873 0.190643
vt 0.184326 0.097076
vt 0.009979 0.143951
vt 0.806335 0.425293
vt 0.824188 0.502899
vt 0.582855 0.603333
vt 0.832977 0.667877
vt 0.822784 0.504333
vt 0.790588 0.529358
vt 0.643372 0.472870
vt 0.658325 0.551544
vt 0.477051 0.472351
vt 0.472229 0.551544
vt 0.310974 0.501038
vt 0.415344 0.475281
vt 0.311646 0.379395
vt 0.009979 0.385345
vt 0.747162 0.047607
vt 0.897491 0.047607
vt 0.898254 0.096802
vt 0.721802 0.052246
vt 0.479675 0.052094
vt 0.901642 0.096741
vt 0.728943 0.096710
vt 0.477631 0.009979
vt 0.828400 0.147614
vt 0.834473 0.190674
vt 0.989990 0.190582
vt 0.231873 0.097046
vt 0.805237 0.198212
vt 0.989990 0.198212
vt 0.989990 0.277100
vt 0.816650 0.278809
vt 0.550476 0.278809
vt 0.544891 0.198181
vt 0.295105 0.239532
vt 0.989990 0.936127
vt 0.989990 0.834839
vt 0.771759 0.935150
vt 0.758240 0.934418
vt 0.989990 0.934753
vt 0.989990 0.848572
vt 0.757568 0.851135
vt 0.761749 0.749786
vt 0.508331 0.833984
vt 0.550446 0.935028
vt 0.774811 0.746796
vt 0.989990 0.746704
vt 0.765930 0.934723
vt 0.528473 0.989990
vt 0.769592 0.989990
vt 0.521912 0.934692
vt 0.250671 0.989990
vt 0.009979 0.749634
vt 0.243103 0.842560
vt 0.189026 0.746704
vt 0.237793 0.743347
vt 0.236755 0.746246
vt 0.484619 0.745972
vt 0.989990 0.750000
vt 0.989990 0.989990
vt 0.747162 0.052399
vt 0.546875 0.052399
vt 0.546875 0.009979
vt 0.312469 0.052399
vt 0.310455 0.009979
vt 0.151337 0.009979
vt 0.400055 0.097229
vt 0.118744 0.328888
vt 0.284698 0.366638
vt 0.286133 0.285095
vt 0.526764 0.366638
vt 0.531708 0.285095
vt 0.751678 0.366638
vt 0.754364 0.285095
vt 0.909637 0.364868
vt 0.909637 0.292542
vt 0.989990 0.330109
vt 0.295105 0.236053
vt 0.550476 0.198212
vt 0.544891 0.278809
vt 0.816650 0.198212
vt 0.805237 0.278809
vt 0.989990 0.277344
vt 0.107178 0.331268
vt 0.247040 0.286438
vt 0.286194 0.366638
vt 0.479828 0.286438
vt 0.499420 0.366638
vt 0.672455 0.286438
vt 0.687256 0.366638
vt 0.849976 0.286438
vt 0.842316 0.366638
vt 0.491821 0.097382
vt 0.492310 0.143677
vt 0.208008 0.097046
vt 0.210785 0.190643
vt 0.137299 0.385193
vt 0.027832 0.566345
vt 0.749176 0.373535
vt 0.712952 0.330444
vt 0.453308 0.379395
vt 0.457184 0.330719
vt 0.189758 0.379395
vt 0.195679 0.286438
vt 0.034241 0.331268
vt 0.034698 0.331604
vt 0.262115 0.366638
vt 0.221375 0.286438
vt 0.576843 0.366638
vt 0.579224 0.286438
vt 0.829956 0.366638
vt 0.851044 0.286469
vt 0.989990 0.330139
vt 0.461060 0.286438
vt 0.711823 0.286438
vt 0.831573 0.286438
vt 0.989990 0.097290
vt 0.704498 0.097260
vt 0.836456 0.366638
vt 0.850403 0.286438
vt 0.521179 0.366638
vt 0.523560 0.286438
vt 0.186920 0.366638
vt 0.184570 0.286438
vt 0.034882 0.331482
vt 0.034241 0.331726
vt 0.189758 0.286438
vt 0.195679 0.366638
vt 0.457184 0.333374
vt 0.461060 0.366638
vt 0.712952 0.333649
vt 0.711823 0.366638
vt 0.831573 0.366638
vt 0.747955 0.096802
vt 0.546875 0.096802
vt 0.546875 0.047638
vt 0.310455 0.096802
vt 0.312469 0.047607
vt 0.151337 0.096680
vt 0.157227 0.009979
vt 0.009979 0.044159
vt 0.314514 0.009979
vt 0.558044 0.009979
vt 0.768768 0.009979
vt 0.896729 0.009979
vt 0.453308 0.286438
vt 0.749176 0.286438
vt 0.784180 0.190399
vt 0.492828 0.190643
vt 0.479675 0.096252
vt 0.261932 0.097198
vt 0.682800 0.097046
vt 0.842682 0.097046
vt 0.989990 0.097046
vt 0.009979 0.143829
vt 0.141541 0.190643
vt 0.400055 0.190552
vt 0.655548 0.190552
vt 0.492828 0.096771
vt 0.492310 0.143372
vt 0.210785 0.096771
vt 0.208008 0.190491
vt 0.989990 0.190399
vt 0.790527 0.190369
vt 0.491821 0.190277
vt 0.562683 0.746857
vt 0.380096 0.838470
vt 0.394165 0.935028
vt 0.249969 0.838593
vt 0.278992 0.935516
vt 0.139435 0.838776
vt 0.136078 0.935577
vt 0.009979 0.698914
vt 0.137329 0.699005
vt 0.246674 0.698914
vt 0.251923 0.838745
vt 0.368896 0.698792
vt 0.521393 0.699127
vt 0.770294 0.747009
vt 0.009979 0.044220
vt 0.157227 0.097076
vt 0.314514 0.096893
vt 0.558044 0.096863
vt 0.768768 0.096863
vt 0.896729 0.096893
vt 0.000000 1.000000
s 1
usemtl m_hair0122
f 1/1/1 2/2/2 3/3/3
f 4/4/4 5/5/5 6/6/6
f 7/7/7 8/8/8 9/9/9
f 10/10/10 11/11/11 12/12/12
f 13/10/13 14/13/14 15/14/15
f 16/15/16 17/16/17 18/17/18
f 19/18/19 20/19/20 21/20/21
f 22/21/22 23/22/23 24/23/24
f 25/24/25 26/25/26 27/26/27
f 28/27/28 29/28/29 30/29/30
f 31/30/31 32/31/32 33/32/33
f 34/33/34 35/34/35 36/35/36
f 37/36/37 38/37/38 39/38/39
f 40/39/40 41/40/41 42/41/42
f 43/42/43 44/43/44 45/44/45
f 46/45/46 47/46/47 48/47/48
f 43/42/43 49/29/49 44/43/44
f 44/43/44 49/29/49 50/48/50
f 44/43/44 50/48/50 51/49/51
f 2/2/2 1/1/1 52/20/52
f 5/5/5 4/4/4 53/32/53
f 8/8/8 7/7/7 6/6/6
f 6/6/6 7/7/7 54/50/54
f 6/6/6 54/50/54 4/4/4
f 55/51/55 40/39/40 56/52/56
f 41/40/41 57/21/57 42/41/42
f 42/41/42 57/21/57 58/23/58
f 42/41/42 58/23/58 59/22/59
f 60/53/60 61/54/61 62/55/62
f 62/55/62 61/54/61 63/32/63
f 62/55/62 63/32/63 64/29/64
f 65/56/65 66/16/66 67/57/67
f 67/57/67 66/16/66 68/58/68
f 67/57/67 68/58/68 69/59/69
f 70/60/70 71/61/71 72/62/72
f 72/62/72 71/61/71 73/63/73
f 72/62/72 73/63/73 74/64/74
f 74/64/74 73/63/73 75/65/49
f 48/47/48 76/66/75 46/45/46
f 46/45/46 76/66/75 77/67/76
f 46/45/46 77/67/76 78/68/77
f 78/68/77 77/67/76 79/69/78
f 11/11/11 10/10/10 80/70/79
f 80/70/79 10/10/10 81/14/80
f 80/70/79 81/14/80 82/13/81
f 83/58/82 84/59/83 85/71/84
f 85/71/84 84/59/83 86/15/66
f 85/71/84 86/15/66 87/16/85
f 87/16/85 86/15/66 18/17/18
f 88/72/86 89/73/87 90/74/88
f 90/74/88 89/73/87 91/59/55
f 90/74/88 91/59/55 92/58/89
f 93/75/90 94/76/32 95/77/91
f 95/77/91 94/76/32 96/78/92
f 95/77/91 96/78/92 97/79/93
f 97/79/93 96/78/92 98/80/94
f 99/81/95 100/82/96 55/51/55
f 55/51/55 100/82/96 101/83/97
f 55/51/55 101/83/97 40/39/40
f 102/83/98 103/82/99 104/39/100
f 105/84/101 106/85/102 107/86/103
f 107/86/103 106/85/102 108/35/104
f 109/58/105 110/59/106 111/74/107
f 111/74/107 110/59/106 112/73/108
f 111/74/107 112/73/108 113/72/109
f 114/31/32 115/87/110 116/88/111
f 14/13/14 13/10/13 117/70/112
f 117/70/112 13/10/13 118/12/113
f 117/70/112 118/12/113 119/11/114
f 33/32/33 120/35/115 31/30/31
f 31/30/31 120/35/115 121/89/116
f 31/30/31 121/89/116 122/90/117
f 17/16/17 16/15/16 123/71/118
f 123/71/118 16/15/16 124/59/119
f 123/71/118 124/59/119 125/58/120
f 20/19/20 19/18/19 116/88/111
f 116/88/111 19/18/19 126/91/92
f 116/88/111 126/91/92 114/31/32
f 23/22/23 22/21/22 127/41/121
f 127/41/121 22/21/22 128/40/122
f 127/41/121 128/40/122 104/39/100
f 27/26/27 129/92/123 130/93/124
f 130/93/124 129/92/123 131/94/90
f 26/25/26 25/24/25 132/95/125
f 133/96/126 134/97/120 135/98/127
f 135/98/127 136/99/128 133/96/126
f 133/96/126 136/99/128 137/100/109
f 133/96/126 137/100/109 138/101/129
f 138/101/129 137/100/109 139/102/18
f 140/52/130 104/39/100 141/51/106
f 141/51/106 104/39/100 103/82/99
f 141/51/106 103/82/99 142/81/131
f 143/103/132 144/104/133 145/105/134
f 146/106/135 147/107/136 148/108/137
f 149/109/138 150/110/139 151/111/140
f 152/112/141 145/105/134 153/113/142
f 153/113/142 145/105/134 144/104/133
f 153/113/142 144/104/133 154/114/143
f 155/105/144 156/104/145 157/103/146
f 158/115/147 159/116/148 160/117/149
f 160/117/149 159/116/148 161/118/150
f 160/117/149 161/118/150 162/115/151
f 163/119/152 164/120/153 165/121/154
f 165/121/154 164/120/153 166/122/155
f 165/121/154 166/122/155 167/123/156
f 168/124/156 169/125/157 165/121/154
f 170/126/158 171/108/159 172/109/160
f 172/109/160 171/108/159 173/107/161
f 162/115/151 174/107/162 160/117/149
f 160/117/149 174/107/162 175/127/163
f 160/117/149 175/127/163 158/115/147
f 158/115/147 175/127/163 176/107/164
f 173/107/161 177/106/165 172/109/160
f 172/109/160 177/106/165 161/118/150
f 172/109/160 161/118/150 178/111/166
f 62/55/62 179/128/167 60/53/60
f 60/53/60 179/128/167 180/129/168
f 60/53/60 180/129/168 181/130/169
f 181/130/169 180/129/168 182/131/170
f 181/130/169 182/131/170 183/132/171
f 183/132/171 182/131/170 184/133/172
f 78/68/77 185/134/173 46/45/46
f 46/45/46 185/134/173 45/44/45
f 46/45/46 45/44/45 47/46/47
f 47/46/47 45/44/45 44/43/44
f 47/46/47 44/43/44 48/47/48
f 48/47/48 44/43/44 51/49/51
f 186/135/172 187/136/174 188/137/175
f 188/137/175 187/136/174 189/138/176
f 188/137/175 189/138/176 190/139/177
f 190/139/177 189/138/176 191/140/178
f 190/139/177 191/140/178 192/141/60
f 192/141/60 191/140/178 193/142/179
f 192/141/60 193/142/179 194/143/61
f 194/143/61 193/142/179 195/144/180
f 196/145/18 197/146/86 198/147/181
f 198/147/181 197/146/86 199/148/182
f 198/147/181 199/148/182 200/149/183
f 200/149/183 199/148/182 201/97/184
f 200/149/183 201/97/184 202/150/82
f 203/151/185 204/152/186 205/153/187
f 205/153/187 204/152/186 206/154/188
f 205/153/187 206/154/188 207/155/7
f 207/155/7 206/154/188 208/156/189
f 207/155/7 208/156/189 209/157/54
f 209/157/54 208/156/189 210/158/190
f 209/157/54 210/158/190 211/159/191
f 211/159/191 210/158/190 212/144/53
f 29/28/29 28/27/28 213/160/192
f 213/160/192 28/27/28 214/161/193
f 213/160/192 214/161/193 215/162/194
f 215/162/194 214/161/193 216/163/86
f 215/162/194 216/163/86 79/69/18
f 59/22/59 217/164/195 42/41/42
f 42/41/42 217/164/195 218/83/196
f 42/41/42 218/83/196 40/39/40
f 40/39/40 218/83/196 219/165/197
f 40/39/40 219/165/197 56/52/56
f 220/144/50 221/166/29 222/167/198
f 222/167/198 221/166/29 223/168/192
f 222/167/198 223/168/192 224/169/199
f 224/169/199 223/168/192 225/170/200
f 224/169/199 225/170/200 226/171/201
f 226/171/201 225/170/200 227/172/18
f 228/173/18 229/174/202 230/175/201
f 230/175/201 229/174/202 231/176/75
f 230/175/201 231/176/75 232/177/203
f 232/177/203 231/176/75 233/178/48
f 232/177/203 233/178/48 234/179/204
f 234/179/204 233/178/48 235/180/51
f 226/171/201 236/181/205 224/169/199
f 224/169/199 236/181/205 237/182/206
f 224/169/199 237/182/206 222/167/198
f 222/167/198 237/182/206 238/183/207
f 222/167/198 238/183/207 220/144/50
f 53/32/53 239/184/208 5/5/5
f 5/5/5 239/184/208 240/185/73
f 5/5/5 240/185/73 6/6/6
f 6/6/6 240/185/73 3/3/3
f 6/6/6 3/3/3 8/8/8
f 8/8/8 3/3/3 2/2/2
f 8/8/8 2/2/2 9/9/9
f 9/9/9 2/2/2 52/20/52
f 241/144/209 242/186/210 243/187/211
f 243/187/211 242/186/210 244/188/212
f 243/187/211 244/188/212 245/189/213
f 245/189/213 244/188/212 246/190/125
f 245/189/213 246/190/125 247/191/214
f 247/191/214 246/190/125 248/192/18
f 249/193/18 250/194/215 251/195/214
f 251/195/214 250/194/215 252/196/216
f 251/195/214 252/196/216 253/197/217
f 253/197/217 252/196/216 254/198/218
f 253/197/217 254/198/218 255/199/219
f 255/199/219 254/198/218 256/200/220
f 107/86/103 257/201/178 105/84/101
f 105/84/101 257/201/178 258/202/176
f 105/84/101 258/202/176 259/203/221
f 259/203/221 258/202/176 260/204/174
f 259/203/221 260/204/174 261/205/222
f 261/205/222 260/204/174 262/206/223
f 261/205/222 262/206/223 263/207/21
f 263/207/21 262/206/223 264/208/78
f 263/207/21 265/209/224 261/205/222
f 261/205/222 265/209/224 266/210/225
f 261/205/222 266/210/225 259/203/221
f 259/203/221 266/210/225 267/211/226
f 259/203/221 267/211/226 105/84/101
f 105/84/101 267/211/226 268/212/116
f 105/84/101 268/212/116 106/85/102
f 106/85/102 268/212/116 269/32/227
f 106/85/102 269/32/227 108/35/104
f 69/59/69 270/58/228 67/57/67
f 67/57/67 270/58/228 271/16/16
f 67/57/67 271/16/16 65/56/65
f 65/56/65 271/16/16 18/17/18
f 65/56/65 18/17/18 66/16/66
f 250/194/215 272/213/229 252/196/216
f 252/196/216 272/213/229 273/214/230
f 252/196/216 273/214/230 254/198/218
f 254/198/218 273/214/230 274/180/231
f 254/198/218 274/180/231 256/200/220
f 30/29/30 275/48/232 28/27/28
f 28/27/28 275/48/232 276/215/96
f 28/27/28 276/215/96 214/161/193
f 214/161/193 276/215/96 277/216/233
f 214/161/193 277/216/233 216/163/86
f 32/31/32 31/30/31 115/87/110
f 115/87/110 31/30/31 122/90/117
f 115/87/110 122/90/117 116/88/111
f 116/88/111 122/90/117 278/217/234
f 116/88/111 278/217/234 20/19/20
f 20/19/20 278/217/234 279/218/235
f 20/19/20 279/218/235 21/20/21
f 26/25/26 280/219/236 27/26/27
f 27/26/27 280/219/236 281/220/220
f 27/26/27 281/220/220 129/92/123
f 129/92/123 281/220/220 282/221/237
f 129/92/123 282/221/237 131/94/90
f 283/222/78 132/95/125 284/223/21
f 284/223/21 132/95/125 25/24/25
f 284/223/21 25/24/25 285/224/238
f 285/224/238 25/24/25 27/26/27
f 285/224/238 27/26/27 286/225/239
f 286/225/239 27/26/27 130/93/124
f 140/52/130 287/165/240 104/39/100
f 104/39/100 287/165/240 288/83/241
f 104/39/100 288/83/241 127/41/121
f 127/41/121 288/83/241 289/164/242
f 127/41/121 289/164/242 23/22/23
f 35/34/35 34/33/34 290/226/243
f 290/226/243 34/33/34 291/227/244
f 290/226/243 291/227/244 292/228/109
f 292/228/109 291/227/244 293/229/245
f 292/228/109 293/229/245 294/222/18
f 36/35/36 295/230/231 34/33/34
f 34/33/34 295/230/231 296/231/246
f 34/33/34 296/231/246 291/227/244
f 291/227/244 296/231/246 297/232/247
f 291/227/244 297/232/247 293/229/245
f 150/110/139 298/125/248 151/111/140
f 151/111/140 298/125/248 299/124/249
f 151/111/140 299/124/249 300/121/250
f 300/121/250 299/124/249 301/122/251
f 300/121/250 301/122/251 302/120/252
f 153/113/142 303/233/253 152/112/141
f 152/112/141 303/233/253 304/234/254
f 152/112/141 304/234/254 305/235/255
f 305/235/255 304/234/254 306/236/256
f 305/235/255 306/236/256 307/237/257
f 307/237/257 306/236/256 308/238/258
f 307/237/257 308/238/258 309/239/259
f 302/120/252 163/119/152 300/121/250
f 300/121/250 163/119/152 310/118/260
f 300/121/250 310/118/260 151/111/140
f 151/111/140 310/118/260 146/106/135
f 151/111/140 146/106/135 149/109/138
f 149/109/138 146/106/135 148/108/137
f 149/109/138 148/108/137 150/110/139
f 150/110/139 148/108/137 311/126/261
f 312/240/262 313/241/263 314/238/264
f 314/238/264 313/241/263 315/242/265
f 314/238/264 315/242/265 316/243/266
f 316/243/266 315/242/265 317/244/267
f 316/243/266 317/244/267 318/234/268
f 318/234/268 317/244/267 319/233/269
f 317/244/267 320/245/270 319/233/269
f 319/233/269 320/245/270 37/36/37
f 319/233/269 37/36/37 321/246/271
f 321/246/271 37/36/37 39/38/39
f 321/246/271 39/38/39 322/37/272
f 158/115/147 310/118/260 159/116/148
f 159/116/148 310/118/260 163/119/152
f 159/116/148 163/119/152 161/118/150
f 161/118/150 163/119/152 165/121/154
f 161/118/150 165/121/154 178/111/166
f 178/111/166 165/121/154 169/125/157
f 178/111/166 169/125/157 172/109/160
f 172/109/160 169/125/157 323/110/273
f 172/109/160 323/110/273 170/126/158
f 324/247/78 184/133/172 325/248/52
f 325/248/52 184/133/172 182/131/170
f 325/248/52 182/131/170 326/249/274
f 326/249/274 182/131/170 180/129/168
f 326/249/274 180/129/168 327/250/275
f 327/250/275 180/129/168 179/128/167
f 327/250/275 179/128/167 328/251/276
f 328/251/276 179/128/167 62/55/62
f 328/251/276 62/55/62 329/252/277
f 329/252/277 62/55/62 64/29/64
f 38/37/38 37/36/37 330/246/278
f 330/246/278 37/36/37 320/245/270
f 330/246/278 320/245/270 303/233/253
f 303/233/253 320/245/270 317/244/267
f 303/233/253 317/244/267 304/234/254
f 304/234/254 317/244/267 315/242/265
f 304/234/254 315/242/265 306/236/256
f 306/236/256 315/242/265 313/241/263
f 306/236/256 313/241/263 308/238/258
f 308/238/258 313/241/263 312/240/262
f 308/238/258 312/240/262 309/239/259
f 331/114/279 156/104/145 332/113/280
f 332/113/280 156/104/145 155/105/144
f 332/113/280 155/105/144 319/233/269
f 319/233/269 155/105/144 333/112/281
f 319/233/269 333/112/281 318/234/268
f 318/234/268 333/112/281 334/235/282
f 318/234/268 334/235/282 316/243/266
f 316/243/266 334/235/282 335/237/283
f 316/243/266 335/237/283 314/238/264
f 314/238/264 335/237/283 336/239/284
f 314/238/264 336/239/284 312/240/262
s 0
f 337/253/285 194/143/61 195/144/286
o editpl_m-0000-1845
v 7.439447 51.093388 0.128518
v 7.951485 50.990562 1.158935
v 6.797368 46.723408 0.140473
v 7.228130 46.646294 1.082719
v 6.770276 50.897381 1.885981
v 6.139034 46.681637 1.757459
v 7.228130 46.646294 1.082719
v -7.439447 51.016270 0.128518
v -6.797368 46.723408 0.140473
v -7.228130 46.646294 1.082719
v -6.139034 46.681637 1.757459
v -6.770276 50.897381 1.885981
v -7.951485 50.990562 1.158935
v -1.823288 62.477821 -12.563024
v 0.000000 63.795238 -7.920542
v 0.000000 64.261154 -11.189631
v 2.633337 61.131481 -9.377623
v 1.823288 62.477821 -12.563024
v 0.046056 58.297421 -10.307912
v 0.000000 60.421360 -13.319211
v -2.589990 61.231091 -9.644380
vn 0.9185 -0.0471 -0.3926
vn 0.9496 -0.1177 0.2905
vn 0.8892 -0.2046 -0.4092
vn 0.9527 -0.1575 0.2599
vn 0.5968 -0.1649 0.7853
vn 0.5742 -0.0315 0.8181
vn 0.9497 -0.1177 0.2904
vn 0.9527 -0.1574 0.2598
vn -0.9210 -0.0551 -0.3857
vn -0.8892 -0.2046 -0.4092
vn -0.9527 -0.1575 0.2599
vn -0.5742 -0.0315 0.8181
vn -0.5968 -0.1649 0.7853
vn -0.9487 -0.1254 0.2901
vn -0.9772 0.0788 -0.1970
vn -0.0000 0.9899 0.1414
vn 0.0001 0.9899 0.1415
vn 0.9766 0.0866 -0.1969
vn -0.0000 -0.8019 -0.5975
vt 0.022461 0.210785
vt 0.022461 0.274750
vt 0.179047 0.210785
vt 0.179047 0.274750
s 1
usemtl m_hair0122
f 338/254/287 339/255/288 340/256/289
f 340/256/289 339/255/288 341/257/290
f 342/254/291 343/256/292 339/255/293
f 339/255/293 343/256/292 344/257/294
f 345/254/295 346/256/296 347/257/297
f 348/256/298 349/254/299 347/257/297
f 347/257/297 349/254/299 350/255/300
f 347/257/297 350/255/300 345/254/295
f 351/257/301 352/254/302 353/256/303
f 353/256/303 352/254/302 354/255/304
f 353/256/303 354/255/304 355/257/304
f 355/257/304 354/255/304 356/254/305
f 355/257/304 356/254/305 357/256/305
f 357/256/305 356/254/305 358/255/301
f 357/256/305 358/255/301 351/257/301
f 351/257/301 358/255/301 352/254/302
