mtllib m_hair016.mtl
o editpl_m-0000-1839
v -2.310943 60.961182 13.739140
v -2.443693 62.722023 12.772984
v -3.115573 60.893703 13.145846
v -8.414757 60.681629 -3.783930
v -7.225421 62.940521 -2.731096
v -5.090576 64.145477 -5.875400
v -10.985782 31.810863 -8.853819
v -10.904506 24.934574 -9.078731
v -8.769661 26.023855 -5.588464
v -6.875935 52.153748 -5.186462
v -6.044212 47.565273 -1.427195
v -7.509886 52.275852 -1.690217
v 6.288040 38.593967 -14.056715
v 7.122471 31.839781 -15.007180
v 0.000000 31.839781 -17.143482
v 7.696820 60.241421 2.505425
v 7.393391 56.282734 -1.049849
v 8.414757 60.681629 -3.783930
v 4.177577 55.007088 11.882298
v 3.895821 54.962101 12.344826
v 3.871438 52.680717 12.394143
v -9.861467 31.855848 -12.103481
v -9.707042 23.764963 -12.540604
v -7.569488 52.137684 -9.450102
v -10.424979 44.792267 -7.270459
v -9.731425 52.526482 -5.710263
v -1.988548 62.786289 11.428733
v -2.828399 60.459919 8.575098
v 0.000000 59.460606 9.896932
v -3.061389 59.023609 13.395417
v -1.660736 62.815208 12.135603
v -1.658027 61.719501 11.941326
v -0.265501 59.839767 9.867043
v 2.310943 60.961182 13.739140
v 3.061389 59.023609 13.395417
v 3.115573 60.893703 13.145846
v 0.265501 59.839767 9.867043
v 1.658027 61.719501 11.941326
v 1.660736 62.815208 12.135603
v 2.443693 62.722023 12.772984
v -7.295860 41.983913 3.523142
v -6.670036 49.483562 4.381697
v -7.677856 48.918037 1.179110
v -8.059852 56.176697 1.043116
v -4.147776 34.760597 11.253885
v -4.919897 43.150311 7.775574
v -5.236872 46.598095 7.517035
v -6.664618 61.950851 6.555361
v -7.696820 60.241421 2.505425
v -6.894899 59.441326 5.470397
v -5.803094 33.288944 9.079474
v -4.738380 28.510887 11.297225
v -2.007513 24.822115 13.411112
v -11.533039 31.450981 -9.703408
v -11.197099 23.594664 -9.923090
v -10.676934 25.002052 -5.622089
v -11.226900 38.169823 -8.387553
v -8.192603 44.949715 -11.093987
v -3.337727 62.464966 10.718873
v -3.668249 60.350670 8.007210
v -5.719109 59.492741 6.713025
v -4.120684 64.274010 4.333127
v -1.598425 65.446831 -0.963172
v -4.174868 65.109444 -1.454843
v -7.122471 31.839781 -15.007180
v -6.903027 22.598562 -15.159612
v 0.000000 61.562054 -10.973686
v 0.000000 58.021088 -12.521926
v -3.811836 57.776882 -11.494497
v -5.209780 38.166611 -15.614670
v -5.494246 31.431702 -16.929777
v -9.265444 31.454193 -13.423819
v -5.477990 20.291473 -16.984324
v -9.100183 22.341507 -13.857207
v 0.000000 64.380043 -8.599766
v -3.251033 61.439949 -10.274287
v -6.320550 61.173252 -7.760637
v -7.393391 56.282734 -1.049849
v -6.916573 55.466576 0.388551
v -7.696820 60.241421 2.505425
v -6.916573 55.466576 0.388551
v -7.179364 53.146633 2.079511
v -9.173331 31.794798 -5.418098
v -10.647133 38.510422 -7.719538
v -9.417159 38.597179 -11.119391
v -6.288040 38.593967 -14.056715
v 0.000000 65.070885 -1.127561
v 0.000000 65.755302 -3.183164
v -1.392526 66.047707 -3.234723
v -4.911769 47.369267 -5.770041
v -5.960227 45.618061 -1.717116
v -6.577923 53.188404 -1.695447
v -8.365991 53.323360 -2.987392
v -8.829264 44.840462 -3.422273
v -10.576694 44.817970 -4.974250
v -10.788011 38.163395 -4.670878
v 0.000000 62.506741 8.874733
v -2.600826 64.370407 8.729773
v -4.852167 52.060566 -9.092930
v 0.000000 47.443169 -8.588557
v 5.236872 46.598095 7.517035
v 6.670036 49.483562 4.381697
v 5.453608 50.049091 7.259243
v 7.163109 55.832886 4.338358
v 4.919897 43.150311 7.775574
v 4.147776 34.760597 11.253885
v 7.295860 41.983913 3.523142
v 2.007513 24.822115 13.411112
v 4.738380 28.510887 11.297225
v 5.803094 33.288944 9.079474
v 11.226900 38.169823 -8.387553
v 11.533039 31.450981 -9.703408
v 9.265444 31.454193 -13.423819
v 11.197099 23.594664 -9.923090
v 9.100183 22.341507 -13.857207
v 8.192603 44.949715 -11.093987
v 10.424979 44.792267 -7.270459
v 8.918667 38.160183 -12.273847
v 4.570410 58.570545 9.352954
v 3.952714 60.517757 10.035914
v 3.337727 62.464966 10.718873
v 8.533961 38.513638 -4.717953
v 9.173331 31.794798 -5.418098
v 10.985782 31.810863 -8.853819
v 1.988548 62.786289 11.428733
v 2.828399 60.459919 8.575098
v 3.668249 60.350670 8.007210
v 5.719109 59.492741 6.713025
v 4.716707 45.232475 -14.001422
v 5.209780 38.166611 -15.614670
v 5.494246 31.431702 -16.929777
v 10.676934 25.002052 -5.622089
v 10.706735 31.447769 -5.461437
v 10.788011 38.163395 -4.670878
v 9.417159 38.597179 -11.119391
v 6.916573 55.466576 0.388551
v 7.179364 53.146633 2.079511
v 6.916573 55.466576 0.388551
v 7.696820 60.241421 2.505425
v 9.707042 23.764963 -12.540604
v 10.904506 24.934574 -9.078731
v 8.769661 26.023855 -5.588464
v 1.392526 66.047707 -3.234723
v 5.090576 64.145477 -5.875400
v 4.174868 65.109444 -1.454843
v 7.225421 62.940521 -2.731096
v -3.484024 59.650188 12.672109
v -3.895821 57.535889 12.135603
v -3.538208 57.066761 12.746830
v -4.177577 55.007088 11.882298
v -3.895821 54.962101 12.344826
v -3.871438 52.680717 12.394143
v -4.716707 45.232475 -14.001422
v -8.918667 38.160183 -12.273847
v -10.706735 31.447769 -5.461437
v 0.000000 45.499172 -15.611682
v -5.209780 38.166611 -15.614670
v 0.000000 38.195526 -17.151703
v -5.494246 31.431702 -16.929777
v 0.000000 31.415634 -18.386110
v 0.000000 18.231798 -18.401054
v -5.453608 50.049091 7.259243
v -7.163109 55.832886 4.338358
v -7.696820 60.241421 2.505425
v 3.538208 57.066761 12.746830
v 3.895821 57.535889 12.135603
v 3.484024 59.650188 12.672109
v -9.696206 45.258183 -6.354366
v -8.704641 50.193684 -4.414583
v -8.598982 45.357792 -9.678004
v -7.615545 50.270802 -8.534010
v -5.453608 45.396351 -12.723675
v -4.199251 50.415398 -11.670841
v 0.000000 50.624256 -12.412830
v 4.120684 64.274010 4.333127
v 1.598425 64.508575 4.760537
v 1.983130 64.251518 6.354358
v 0.000000 63.355026 7.404203
v -1.983130 64.251518 6.354358
v 0.000000 38.581116 -15.903097
v 0.000000 45.711246 -14.308530
v 5.453608 45.396351 -12.723675
v -8.533961 38.513638 -4.717953
v -9.417159 38.597179 -11.119391
v 1.598425 65.446831 -0.963172
v 0.000000 64.309357 4.349566
v -1.598425 64.508575 4.760537
v 6.664618 61.950851 6.555361
v 6.894899 59.441326 5.470397
v 5.158306 56.044956 8.235861
v 8.365991 53.323360 -2.987392
v 9.219388 56.986427 -4.872629
v 6.721511 57.381657 -9.015967
v 6.320550 61.173252 -7.760637
v 3.811836 57.776882 -11.494497
v 3.251033 61.439949 -10.274287
v 5.477990 20.291473 -16.984324
v 5.494246 31.431702 -16.929777
v 5.209780 38.166611 -15.614670
v 0.000000 21.232946 -17.285454
v 6.903027 22.598562 -15.159612
v 9.861467 31.855848 -12.103481
v 10.647133 38.510422 -7.719538
v 7.371717 50.222603 -2.413526
v 8.704641 50.193684 -4.414583
v 8.517706 54.017414 -3.689032
v 7.615545 50.270802 -8.534010
v 5.635124 54.059189 -10.006781
v 4.199251 50.415398 -11.670841
v 0.000000 54.055973 -12.298507
v 7.696820 60.241421 2.505425
v 8.059852 56.176697 1.043116
v 7.677856 48.918037 1.179110
v 4.938861 63.988033 6.695838
v 2.600826 64.370407 8.729773
v 9.731425 52.526482 -5.710263
v 7.569488 52.137684 -9.450102
v 4.296782 51.877411 -12.114690
v 0.000000 51.906330 -13.837781
v 7.894592 45.226051 -3.512687
v 6.044212 47.565273 -1.427195
v 5.960227 45.618061 -1.717116
v 4.911769 47.369267 -5.770041
v 4.925315 45.177853 -6.041281
v 0.000000 45.190704 -8.994297
v -4.925315 45.177853 -6.041281
v 0.000000 51.723179 -12.044452
v 4.852167 52.060566 -9.092930
v 6.875935 52.153748 -5.186462
v 7.509886 52.275852 -1.690217
v -6.721511 57.381657 -9.015967
v -9.219388 56.986427 -4.872629
v -4.296782 51.877411 -12.114690
v 10.576694 44.817970 -4.974250
v -4.938861 63.988033 6.695838
v -5.158306 56.044956 8.235861
v -4.570410 58.570545 9.352954
v -7.894592 45.226051 -3.512687
v -7.371717 50.222603 -2.413526
v -8.517706 54.017414 -3.689032
v -5.635124 54.059189 -10.006781
v 8.598982 45.357792 -9.678004
v 9.696206 45.258183 -6.354366
v 9.417159 38.597179 -11.119391
v 6.577923 53.188404 -1.695447
v 8.829264 44.840462 -3.422273
vn 0.1103 0.3072 0.9452
vn -0.0157 0.4782 0.8781
vn -0.6854 0.1655 0.7091
vn -0.9425 0.3063 -0.1335
vn -0.7525 0.6584 0.0157
vn -0.5496 0.7773 -0.3062
vn -0.9955 0.0078 0.0941
vn -0.9953 -0.0235 0.0940
vn -0.8634 -0.0471 0.5023
vn -0.9091 -0.3135 -0.2743
vn -0.9520 -0.2203 -0.2124
vn -0.9415 -0.2982 -0.1569
vn 0.4941 0.1961 -0.8470
vn 0.5103 0.0863 -0.8557
vn -0.0001 0.0944 -0.9955
vn 0.9724 0.2196 0.0785
vn 0.9507 -0.0471 0.3064
vn 0.9425 0.3063 -0.1335
vn 0.8495 0.0236 0.5270
vn 0.8518 0.0156 0.5236
vn 0.8554 -0.0000 0.5180
vn -0.8476 0.0707 -0.5258
vn -0.8462 -0.0000 -0.5328
vn -0.7684 0.1882 -0.6116
vn -0.9818 0.1492 -0.1179
vn -0.9945 0.1018 -0.0235
vn 0.0707 0.1257 0.9895
vn -0.3313 -0.6942 0.6390
vn -0.0000 -0.3068 0.9518
vn -0.7944 0.0472 0.6056
vn 0.8021 0.0944 0.5897
vn 0.8755 -0.0782 0.4769
vn 0.7776 -0.1021 0.6205
vn -0.1103 0.3072 0.9452
vn 0.7944 0.0472 0.6056
vn 0.6854 0.1655 0.7091
vn -0.7776 -0.1021 0.6205
vn -0.8755 -0.0782 0.4769
vn -0.8021 0.0944 0.5897
vn 0.0157 0.4782 0.8781
vn -0.8958 0.0628 0.4401
vn -0.9326 -0.0157 0.3605
vn -0.9591 -0.0000 0.2830
vn -0.9636 -0.0235 0.2664
vn -0.7905 0.1096 0.6026
vn -0.8778 0.0314 0.4781
vn -0.8975 -0.0079 0.4409
vn -0.8919 0.2738 0.3599
vn -0.9724 0.2196 0.0784
vn -0.9118 -0.0393 0.4087
vn -0.8315 0.1255 0.5412
vn -0.7014 0.0709 0.7093
vn -0.5593 0.0551 0.8271
vn -0.9832 0.0236 -0.1809
vn -0.9847 -0.0158 -0.1733
vn -0.9874 -0.0235 0.1567
vn -0.9728 0.0941 -0.2118
vn -0.7521 0.2037 -0.6268
vn -0.6443 -0.0628 0.7622
vn -0.1884 -0.7615 0.6202
vn -0.0548 -0.7835 0.6190
vn -0.3840 0.9168 0.1097
vn 0.0547 0.9776 0.2033
vn -0.3855 0.9205 0.0629
vn -0.5103 0.0864 -0.8557
vn -0.5122 0.0079 -0.8589
vn -0.0000 0.4690 -0.8832
vn -0.0000 0.3068 -0.9518
vn -0.4404 0.2673 -0.8571
vn -0.4789 0.1963 -0.8556
vn -0.4798 0.0865 -0.8731
vn -0.7759 0.0705 -0.6270
vn -0.4722 -0.0000 -0.8815
vn -0.7778 -0.0000 -0.6285
vn -0.0000 0.8554 -0.5180
vn -0.3711 0.5133 -0.7738
vn -0.6904 0.4315 -0.5806
vn -0.9507 -0.0471 0.3064
vn -0.9383 -0.2365 0.2523
vn -0.9724 0.2195 0.0784
vn -0.9722 -0.0549 -0.2274
vn -0.8586 -0.0236 0.5120
vn -0.9905 0.0708 0.1179
vn -0.8326 0.1728 -0.5263
vn -0.4941 0.1961 -0.8470
vn -0.0000 0.9737 0.2278
vn -0.0000 0.9931 0.1173
vn -0.0784 0.9961 -0.0392
vn -0.8462 -0.1802 -0.5015
vn -0.9701 0.0078 -0.2425
vn -0.5648 -0.3374 0.7531
vn -0.8584 -0.0315 0.5120
vn -0.6371 0.0079 0.7708
vn -0.9078 0.1017 0.4069
vn -0.9407 0.0392 0.3370
vn -0.0000 0.8643 0.5029
vn 0.0078 0.9471 0.3209
vn -0.5990 -0.4729 -0.6462
vn -0.0000 -0.3768 -0.9263
vn 0.8975 -0.0079 0.4409
vn 0.9326 -0.0157 0.3605
vn 0.9089 -0.0392 0.4152
vn 0.9189 -0.0393 0.3926
vn 0.8778 0.0314 0.4781
vn 0.7905 0.1096 0.6026
vn 0.8958 0.0629 0.4400
vn 0.5593 0.0551 0.8271
vn 0.7014 0.0709 0.7093
vn 0.8315 0.1255 0.5412
vn 0.9728 0.0942 -0.2118
vn 0.9832 0.0236 -0.1809
vn 0.7759 0.0705 -0.6270
vn 0.9847 -0.0157 -0.1733
vn 0.7778 -0.0000 -0.6285
vn 0.7521 0.2037 -0.6268
vn 0.9818 0.1492 -0.1178
vn 0.7637 0.1731 -0.6219
vn 0.8697 -0.0000 0.4936
vn 0.8471 0.0785 0.5256
vn 0.6444 -0.0628 0.7621
vn 0.8440 -0.0079 0.5364
vn 0.8586 -0.0236 0.5120
vn 0.9955 0.0078 0.0941
vn -0.0707 0.1257 0.9895
vn 0.3313 -0.6942 0.6390
vn 0.6443 -0.0628 0.7622
vn 0.1884 -0.7615 0.6202
vn 0.0548 -0.7835 0.6190
vn 0.4881 0.2283 -0.8424
vn 0.4789 0.1963 -0.8557
vn 0.4799 0.0865 -0.8731
vn 0.9874 -0.0235 0.1567
vn 0.9875 -0.0157 0.1567
vn 0.9407 0.0392 0.3370
vn 0.8326 0.1728 -0.5263
vn 0.9383 -0.2365 0.2523
vn 0.9723 -0.0549 -0.2274
vn 0.9383 -0.2366 0.2523
vn 0.9724 0.2196 0.0784
vn 0.8462 -0.0000 -0.5328
vn 0.9953 -0.0235 0.0940
vn 0.8634 -0.0471 0.5024
vn 0.0784 0.9961 -0.0392
vn 0.5496 0.7773 -0.3062
vn 0.3855 0.9205 0.0629
vn 0.7525 0.6584 0.0157
vn -0.8491 0.0393 0.5268
vn -0.8493 0.0315 0.5269
vn -0.8491 0.0393 0.5267
vn -0.8495 0.0236 0.5270
vn -0.8518 0.0156 0.5236
vn -0.8554 -0.0000 0.5180
vn -0.4881 0.2283 -0.8424
vn -0.7636 0.1732 -0.6220
vn -0.9875 -0.0157 0.1567
vn -0.0000 0.2518 -0.9678
vn -0.4788 0.1963 -0.8557
vn -0.0000 0.2036 -0.9790
vn -0.0000 0.0941 -0.9956
vn -0.0000 -0.0000 -1.0000
vn -0.9089 -0.0392 0.4152
vn -0.9189 -0.0393 0.3926
vn 0.8491 0.0392 0.5267
vn 0.8493 0.0315 0.5269
vn 0.8491 0.0393 0.5268
vn -0.9701 0.0861 0.2268
vn -0.9914 0.1101 0.0708
vn -0.8493 0.2517 -0.4640
vn -0.8259 0.2202 -0.5191
vn -0.4703 0.2744 -0.8388
vn -0.4235 0.1882 -0.8861
vn -0.0000 0.2111 -0.9775
vn 0.3840 0.9168 0.1097
vn -0.0860 0.9770 0.1954
vn -0.1252 0.9784 0.1644
vn -0.0000 0.9389 0.3443
vn 0.1252 0.9784 0.1644
vn -0.0000 0.1961 -0.9806
vn -0.0000 0.2902 -0.9570
vn 0.4703 0.2744 -0.8388
vn -0.8440 -0.0079 0.5363
vn -0.0547 0.9776 0.2033
vn -0.0000 0.9806 0.1961
vn 0.0860 0.9770 0.1954
vn 0.8919 0.2738 0.3599
vn 0.9118 -0.0393 0.4087
vn 0.8697 0.0001 0.4936
vn 0.8896 -0.0079 0.4566
vn 0.8584 -0.0315 0.5120
vn 0.9885 0.1491 -0.0235
vn 0.7570 0.2208 -0.6150
vn 0.6904 0.4315 -0.5806
vn 0.4404 0.2673 -0.8571
vn 0.3711 0.5133 -0.7738
vn 0.4722 -0.0000 -0.8815
vn 0.4798 0.0865 -0.8731
vn 0.4788 0.1963 -0.8557
vn -0.0000 0.0079 -1.0000
vn 0.5121 0.0079 -0.8589
vn 0.8476 0.0706 -0.5259
vn 0.9905 0.0707 0.1179
vn 0.8335 -0.0472 0.5504
vn 0.9914 0.1101 0.0708
vn 0.9925 0.1182 -0.0315
vn 0.8259 0.2202 -0.5191
vn 0.6697 0.2206 -0.7091
vn 0.4235 0.1882 -0.8861
vn -0.0000 0.1568 -0.9876
vn 0.9636 -0.0235 0.2664
vn 0.9591 -0.0000 0.2830
vn 0.5260 0.8400 0.1334
vn -0.0078 0.9471 0.3209
vn 0.9945 0.1018 -0.0235
vn 0.7684 0.1882 -0.6116
vn 0.5255 0.1804 -0.8314
vn -0.0000 0.2037 -0.9790
vn 0.8403 -0.0158 0.5418
vn 0.9520 -0.2203 -0.2124
vn 0.9701 0.0078 -0.2425
vn 0.8462 -0.1802 -0.5015
vn 0.8026 0.0866 -0.5902
vn -0.0000 0.1491 -0.9888
vn -0.8026 0.0870 -0.5902
vn -0.0000 -0.6285 -0.7778
vn 0.5990 -0.4729 -0.6462
vn 0.9091 -0.3135 -0.2743
vn 0.9415 -0.2982 -0.1569
vn -0.7570 0.2208 -0.6150
vn -0.9885 0.1491 -0.0235
vn -0.5255 0.1804 -0.8314
vn 0.9078 0.1017 0.4069
vn -0.5260 0.8400 0.1334
vn -0.8896 -0.0079 0.4566
vn -0.8697 -0.0000 0.4936
vn -0.8403 -0.0157 0.5419
vn -0.8335 -0.0472 0.5504
vn -0.9925 0.1182 -0.0315
vn -0.6697 0.2206 -0.7091
vn 0.8493 0.2517 -0.4640
vn 0.9701 0.0861 0.2268
vn 0.5648 -0.3374 0.7531
vn 0.6371 0.0079 0.7708
vt 0.676453 0.226593
vt 0.573334 0.168304
vt 0.571991 0.210327
vt 0.349579 0.244781
vt 0.359955 0.178436
vt 0.266022 0.128693
vt 0.455505 0.925751
vt 0.463989 0.992706
vt 0.551270 0.992706
vt 0.701813 0.813324
vt 0.568665 0.928558
vt 0.568665 0.813324
vt 0.137970 0.891388
vt 0.142517 0.925751
vt 0.014923 0.925751
vt 0.472717 0.235321
vt 0.420074 0.386627
vt 0.564789 0.452789
vt 0.652985 0.452881
vt 0.652985 0.490417
vt 0.282379 0.922333
vt 0.281860 0.992706
vt 0.293365 0.541229
vt 0.340363 0.578888
vt 0.337463 0.541687
vt 0.690277 0.130707
vt 0.792206 0.188049
vt 0.792633 0.012512
vt 0.652985 0.362305
vt 0.627960 0.129608
vt 0.478729 0.538574
vt 0.476562 0.453735
vt 0.476501 0.367889
vt 0.652985 0.609222
vt 0.652985 0.527954
vt 0.574432 0.252319
vt 0.477966 0.615662
vt 0.478333 0.690460
vt 0.652985 0.690460
vt 0.346191 0.653290
vt 0.349121 0.690460
vt 0.440430 0.691437
vt 0.343292 0.616089
vt 0.291138 0.578552
vt 0.791962 0.286621
vt 0.791718 0.385193
vt 0.507690 0.134155
vt 0.340851 0.061584
vt 0.355286 0.127716
vt 0.147095 0.992706
vt 0.009796 0.258331
vt 0.008331 0.372620
vt 0.151489 0.369293
vt 0.170715 0.608246
vt 0.174713 0.649353
vt 0.286621 0.653168
vt 0.178711 0.690460
vt 0.284363 0.690460
vt 0.041718 0.135010
vt 0.144806 0.250488
vt 0.258362 0.240906
vt 0.461487 0.443237
vt 0.939026 0.549622
vt 0.920166 0.702850
vt 0.961487 0.696320
vt 0.546356 0.924683
vt 0.447021 0.891388
vt 0.282928 0.884583
vt 0.316589 0.012543
vt 0.184448 0.034119
vt 0.243408 0.098846
vt 0.701813 0.928558
vt 0.568665 0.991394
vt 0.461487 0.545044
vt 0.403137 0.542114
vt 0.461487 0.581390
vt 0.404510 0.580139
vt 0.439667 0.616821
vt 0.648712 0.013153
vt 0.817841 0.813324
vt 0.994324 0.928558
vt 0.572174 0.368042
vt 0.288879 0.615845
vt 0.664703 0.294464
vt 0.541443 0.889252
vt 0.166748 0.567139
vt 0.469116 0.652283
vt 0.652985 0.406036
vt 0.010345 0.559204
vt 0.012329 0.602966
vt 0.014343 0.646729
vt 0.016357 0.690460
vt 0.438538 0.856995
vt 0.458527 0.786499
vt 0.283478 0.846802
vt 0.284760 0.786499
vt 0.133423 0.856995
vt 0.136078 0.786499
vt 0.008423 0.786499
vt 0.483765 0.061096
vt 0.578003 0.092621
vt 0.553406 0.012115
vt 0.011658 0.891388
vt 0.008423 0.856995
vt 0.457489 0.012207
vt 0.343170 0.381927
vt 0.261414 0.374298
vt 0.018188 0.992706
vt 0.533539 0.788116
vt 0.463989 0.720856
vt 0.242798 0.720856
vt 0.016235 0.720856
vt 0.162750 0.526031
vt 0.008331 0.515472
vt 0.536530 0.853851
vt 0.701813 0.990753
vt 0.994324 0.990753
vt 0.994324 0.813324
s 1
usemtl m_hair0119
f 1/1/1 2/2/2 3/3/3
f 4/4/4 5/5/5 6/6/6
f 7/7/7 8/8/8 9/9/9
f 10/10/10 11/11/11 12/12/12
f 13/13/13 14/14/14 15/15/15
f 16/16/16 17/17/17 18/4/18
f 19/18/19 20/19/20 21/20/21
f 22/21/22 23/22/23 8/8/8
f 24/23/24 25/24/25 26/25/26
f 27/26/27 28/27/28 29/28/29
f 3/3/3 30/29/30 1/1/1
f 2/2/2 1/1/1 31/30/31
f 31/30/31 1/1/1 32/26/32
f 31/30/31 32/26/32 33/28/33
f 34/1/34 35/29/35 36/3/36
f 37/28/37 38/26/38 39/30/39
f 39/30/39 38/26/38 34/1/34
f 39/30/39 34/1/34 40/2/40
f 40/2/40 34/1/34 36/3/36
f 41/31/41 42/18/42 43/32/43
f 43/32/43 42/18/42 44/33/44
f 45/34/45 46/35/46 41/31/41
f 41/31/41 46/35/46 47/20/47
f 41/31/41 47/20/47 42/18/42
f 48/3/48 49/16/49 50/36/50
f 41/31/41 51/37/51 45/34/45
f 45/34/45 51/37/51 52/38/52
f 45/34/45 52/38/52 53/39/53
f 54/40/54 55/41/55 56/42/56
f 57/43/57 25/24/25 58/44/58
f 28/27/28 59/1/59 60/45/60
f 60/45/60 59/1/59 61/46/61
f 62/47/62 63/48/63 64/49/64
f 65/14/65 66/50/66 23/22/23
f 67/51/67 68/52/68 69/53/69
f 70/54/70 71/55/71 72/56/72
f 72/56/72 71/55/71 73/57/73
f 72/56/72 73/57/73 74/58/74
f 75/59/75 76/60/76 6/6/6
f 6/6/6 76/60/76 77/61/77
f 6/6/6 77/61/77 4/4/4
f 5/5/5 4/4/4 49/16/49
f 49/16/49 4/4/4 78/17/78
f 49/16/49 78/17/78 79/62/79
f 80/63/80 81/64/79 82/65/81
f 9/9/9 83/66/82 7/7/7
f 7/7/7 83/66/82 84/67/83
f 7/7/7 84/67/83 85/68/84
f 8/8/8 7/7/7 22/21/22
f 22/21/22 7/7/7 85/68/84
f 22/21/22 85/68/84 86/13/85
f 87/69/86 88/70/87 63/48/63
f 63/48/63 88/70/87 89/71/88
f 63/48/63 89/71/88 64/49/64
f 90/72/89 91/73/90 11/11/11
f 92/74/91 93/75/92 94/76/93
f 94/76/93 93/75/92 95/77/94
f 94/76/93 95/77/94 96/78/95
f 29/28/29 97/79/96 27/26/27
f 27/26/27 97/79/96 98/30/97
f 11/11/11 10/10/10 90/72/89
f 90/72/89 10/10/10 99/80/98
f 90/72/89 99/80/98 100/81/99
f 101/20/100 102/18/101 103/19/102
f 103/19/102 102/18/101 104/82/103
f 105/35/104 106/34/105 107/31/106
f 108/39/107 109/38/108 106/34/105
f 106/34/105 109/38/108 110/37/109
f 106/34/105 110/37/109 107/31/106
f 111/43/110 112/40/111 113/56/112
f 113/56/112 112/40/111 114/41/113
f 113/56/112 114/41/113 115/58/114
f 116/44/115 117/24/116 118/83/117
f 119/29/118 120/84/119 121/1/120
f 122/85/121 123/66/122 124/7/123
f 125/26/124 126/27/125 121/1/126
f 121/1/126 126/27/125 127/45/127
f 121/1/126 127/45/127 128/46/128
f 129/86/129 116/44/115 130/54/130
f 130/54/130 116/44/115 118/83/117
f 130/54/130 118/83/117 131/55/131
f 132/42/132 114/41/113 133/87/133
f 133/87/133 114/41/113 112/40/111
f 133/87/133 112/40/111 134/78/134
f 134/78/134 112/40/111 111/43/110
f 14/14/14 13/13/13 135/68/135
f 17/17/17 16/16/16 136/62/136
f 137/65/137 138/64/138 139/63/139
f 140/22/140 124/7/123 141/8/141
f 141/8/141 124/7/123 123/66/122
f 141/8/141 123/66/122 142/9/142
f 75/59/75 143/71/143 144/6/144
f 144/6/144 143/71/143 145/49/145
f 144/6/144 145/49/145 146/5/146
f 3/3/3 147/36/147 30/29/30
f 30/29/30 147/36/147 148/82/148
f 30/29/30 148/82/148 149/88/149
f 149/88/149 148/82/148 150/18/150
f 149/88/149 150/18/150 151/19/151
f 151/19/151 150/18/150 152/20/152
f 153/86/153 70/54/70 154/83/154
f 154/83/154 70/54/70 72/56/72
f 154/83/154 72/56/72 54/40/54
f 54/40/54 72/56/72 74/58/74
f 54/40/54 74/58/74 55/41/55
f 56/42/56 155/87/155 54/40/54
f 54/40/54 155/87/155 57/43/57
f 54/40/54 57/43/57 154/83/154
f 154/83/154 57/43/57 58/44/58
f 154/83/154 58/44/58 153/86/153
f 153/86/153 156/89/156 157/54/157
f 157/54/157 156/89/156 158/90/158
f 157/54/157 158/90/158 159/55/71
f 159/55/71 158/90/158 160/91/159
f 159/55/71 160/91/159 73/57/73
f 73/57/73 160/91/159 161/92/160
f 47/20/47 162/19/161 42/18/42
f 42/18/42 162/19/161 163/82/162
f 42/18/42 163/82/162 44/33/44
f 44/33/44 163/82/162 50/36/50
f 44/33/44 50/36/50 164/16/49
f 20/19/20 19/18/19 165/88/163
f 165/88/163 19/18/19 166/82/164
f 165/88/163 166/82/164 35/29/35
f 35/29/35 166/82/164 167/36/165
f 35/29/35 167/36/165 36/3/36
f 168/93/166 169/94/167 170/95/168
f 170/95/168 169/94/167 171/96/169
f 170/95/168 171/96/169 172/97/170
f 172/97/170 171/96/169 173/98/171
f 172/97/170 173/98/171 174/99/172
f 175/47/173 176/100/174 177/101/175
f 177/101/175 176/100/174 178/102/176
f 177/101/175 178/102/176 97/79/96
f 97/79/96 178/102/176 179/101/177
f 97/79/96 179/101/177 98/30/97
f 23/22/23 22/21/22 65/14/65
f 65/14/65 22/21/22 86/13/85
f 65/14/65 86/13/85 180/103/178
f 180/103/178 86/13/85 181/104/179
f 180/103/178 181/104/179 182/97/180
f 83/66/82 183/85/181 84/67/83
f 84/67/83 183/85/181 168/93/166
f 84/67/83 168/93/166 184/68/84
f 184/68/84 168/93/166 170/95/168
f 184/68/84 170/95/168 86/13/85
f 86/13/85 170/95/168 172/97/170
f 86/13/85 172/97/170 181/104/179
f 181/104/179 172/97/170 174/99/172
f 181/104/179 174/99/172 182/97/180
f 175/47/173 185/48/182 176/100/174
f 176/100/174 185/48/182 186/105/183
f 176/100/174 186/105/183 178/102/176
f 178/102/176 186/105/183 187/100/184
f 178/102/176 187/100/184 179/101/177
f 188/3/185 121/1/126 189/36/186
f 189/36/186 121/1/126 119/29/187
f 189/36/186 119/29/187 104/82/103
f 104/82/103 119/29/187 190/88/188
f 104/82/103 190/88/188 103/19/102
f 136/62/136 191/75/189 17/17/17
f 17/17/17 191/75/189 192/106/190
f 17/17/17 192/106/190 18/4/18
f 18/4/18 192/106/190 193/107/191
f 18/4/18 193/107/191 194/61/192
f 194/61/192 193/107/191 195/53/193
f 194/61/192 195/53/193 196/60/194
f 197/57/195 161/92/160 198/55/196
f 198/55/196 161/92/160 160/91/159
f 198/55/196 160/91/159 199/54/197
f 199/54/197 160/91/159 158/90/158
f 199/54/197 158/90/158 129/86/129
f 129/86/129 158/90/158 156/89/156
f 200/108/198 15/15/15 201/50/199
f 201/50/199 15/15/15 14/14/14
f 201/50/199 14/14/14 202/21/200
f 202/21/200 14/14/14 135/68/135
f 202/21/200 135/68/135 203/67/201
f 204/109/202 205/94/203 206/110/204
f 206/110/204 205/94/203 207/96/205
f 206/110/204 207/96/205 208/111/206
f 208/111/206 207/96/205 209/98/207
f 208/111/206 209/98/207 210/112/208
f 211/16/16 189/36/186 212/33/209
f 212/33/209 189/36/186 104/82/103
f 212/33/209 104/82/103 213/32/210
f 213/32/210 104/82/103 102/18/101
f 213/32/210 102/18/101 107/31/106
f 107/31/106 102/18/101 101/20/100
f 107/31/106 101/20/100 105/35/104
f 189/36/186 16/16/16 188/3/185
f 188/3/185 16/16/16 214/2/211
f 188/3/185 214/2/211 121/1/126
f 121/1/126 214/2/211 215/30/212
f 121/1/126 215/30/212 125/26/124
f 191/75/189 216/25/213 192/106/190
f 192/106/190 216/25/213 217/23/214
f 192/106/190 217/23/214 193/107/191
f 193/107/191 217/23/214 218/113/215
f 193/107/191 218/113/215 195/53/193
f 195/53/193 218/113/215 219/114/216
f 220/115/217 122/85/121 203/67/201
f 203/67/201 122/85/121 124/7/123
f 203/67/201 124/7/123 202/21/200
f 202/21/200 124/7/123 140/22/140
f 202/21/200 140/22/140 201/50/199
f 221/11/218 222/73/219 223/72/220
f 223/72/220 222/73/219 224/116/221
f 223/72/220 224/116/221 100/81/99
f 100/81/99 224/116/221 225/117/222
f 100/81/99 225/117/222 90/72/89
f 90/72/89 225/117/222 226/116/223
f 90/72/89 226/116/223 91/73/90
f 99/80/98 227/118/224 100/81/99
f 100/81/99 227/118/224 228/80/225
f 100/81/99 228/80/225 223/72/220
f 223/72/220 228/80/225 229/10/226
f 223/72/220 229/10/226 221/11/218
f 221/11/218 229/10/226 230/12/227
f 75/59/75 67/51/67 76/60/76
f 76/60/76 67/51/67 69/53/69
f 76/60/76 69/53/69 77/61/77
f 77/61/77 69/53/69 231/107/228
f 77/61/77 231/107/228 4/4/4
f 4/4/4 231/107/228 232/106/229
f 4/4/4 232/106/229 78/17/78
f 78/17/78 232/106/229 93/75/92
f 78/17/78 93/75/92 79/62/79
f 79/62/79 93/75/92 92/74/91
f 25/24/25 24/23/24 58/44/58
f 58/44/58 24/23/24 233/113/230
f 58/44/58 233/113/230 153/86/153
f 153/86/153 233/113/230 219/114/216
f 153/86/153 219/114/216 156/89/156
f 156/89/156 219/114/216 218/113/215
f 156/89/156 218/113/215 129/86/129
f 129/86/129 218/113/215 217/23/214
f 129/86/129 217/23/214 116/44/115
f 116/44/115 217/23/214 216/25/213
f 116/44/115 216/25/213 117/24/116
f 117/24/116 216/25/213 191/75/189
f 117/24/116 191/75/189 234/77/231
f 28/27/28 27/26/27 59/1/59
f 59/1/59 27/26/27 98/30/97
f 59/1/59 98/30/97 235/2/232
f 235/2/232 98/30/97 179/101/177
f 235/2/232 179/101/177 62/47/62
f 62/47/62 179/101/177 187/100/184
f 62/47/62 187/100/184 63/48/63
f 63/48/63 187/100/184 186/105/183
f 63/48/63 186/105/183 87/69/86
f 87/69/86 186/105/183 185/48/182
f 87/69/86 185/48/182 88/70/87
f 162/19/161 236/88/233 163/82/162
f 163/82/162 236/88/233 237/29/234
f 163/82/162 237/29/234 50/36/50
f 50/36/50 237/29/234 59/1/59
f 50/36/50 59/1/59 48/3/48
f 48/3/48 59/1/59 235/2/232
f 48/3/48 235/2/232 49/16/49
f 49/16/49 235/2/232 62/47/62
f 49/16/49 62/47/62 5/5/5
f 5/5/5 62/47/62 64/49/64
f 5/5/5 64/49/64 6/6/6
f 6/6/6 64/49/64 89/71/88
f 6/6/6 89/71/88 75/59/75
f 75/59/75 89/71/88 88/70/87
f 75/59/75 88/70/87 143/71/143
f 143/71/143 88/70/87 185/48/182
f 143/71/143 185/48/182 145/49/145
f 145/49/145 185/48/182 175/47/173
f 145/49/145 175/47/173 146/5/146
f 183/85/181 238/115/235 168/93/166
f 168/93/166 238/115/235 239/109/236
f 168/93/166 239/109/236 169/94/167
f 169/94/167 239/109/236 240/110/237
f 169/94/167 240/110/237 171/96/169
f 171/96/169 240/110/237 241/111/238
f 171/96/169 241/111/238 173/98/171
f 173/98/171 241/111/238 210/112/208
f 173/98/171 210/112/208 174/99/172
f 174/99/172 210/112/208 209/98/207
f 174/99/172 209/98/207 182/97/180
f 182/97/180 209/98/207 207/96/205
f 182/97/180 207/96/205 242/95/239
f 242/95/239 207/96/205 205/94/203
f 242/95/239 205/94/203 243/93/240
f 243/93/240 205/94/203 204/109/202
f 204/109/202 220/115/217 243/93/240
f 243/93/240 220/115/217 203/67/201
f 243/93/240 203/67/201 242/95/239
f 242/95/239 203/67/201 244/68/135
f 242/95/239 244/68/135 182/97/180
f 182/97/180 244/68/135 13/13/13
f 182/97/180 13/13/13 180/103/178
f 180/103/178 13/13/13 15/15/15
f 180/103/178 15/15/15 65/14/65
f 65/14/65 15/15/15 200/108/198
f 65/14/65 200/108/198 66/50/66
f 136/62/136 245/74/241 191/75/189
f 191/75/189 245/74/241 246/76/242
f 191/75/189 246/76/242 234/77/231
f 234/77/231 246/76/242 134/78/134
f 234/77/231 134/78/134 117/24/116
f 117/24/116 134/78/134 111/43/110
f 117/24/116 111/43/110 118/83/117
f 118/83/117 111/43/110 113/56/112
f 118/83/117 113/56/112 131/55/131
f 131/55/131 113/56/112 115/58/114
f 131/55/131 115/58/114 197/57/195
f 155/87/155 96/78/95 57/43/57
f 57/43/57 96/78/95 95/77/94
f 57/43/57 95/77/94 25/24/25
f 25/24/25 95/77/94 93/75/92
f 25/24/25 93/75/92 26/25/26
f 26/25/26 93/75/92 232/106/229
f 26/25/26 232/106/229 24/23/24
f 24/23/24 232/106/229 231/107/228
f 24/23/24 231/107/228 233/113/230
f 233/113/230 231/107/228 69/53/69
f 233/113/230 69/53/69 219/114/216
f 219/114/216 69/53/69 68/52/68
f 219/114/216 68/52/68 195/53/193
f 195/53/193 68/52/68 67/51/67
f 195/53/193 67/51/67 196/60/194
f 196/60/194 67/51/67 75/59/75
f 196/60/194 75/59/75 194/61/192
f 194/61/192 75/59/75 144/6/144
f 194/61/192 144/6/144 18/4/18
f 18/4/18 144/6/144 146/5/146
f 18/4/18 146/5/146 16/16/16
f 16/16/16 146/5/146 175/47/173
f 16/16/16 175/47/173 214/2/211
f 214/2/211 175/47/173 177/101/175
f 214/2/211 177/101/175 215/30/212
f 215/30/212 177/101/175 97/79/96
f 215/30/212 97/79/96 125/26/124
f 125/26/124 97/79/96 29/28/29
f 125/26/124 29/28/29 126/27/125
