mtllib m_hair003.mtl
o editpl_m-0000-1824
v 6.187799 49.489990 5.595183
v 6.474974 49.589600 5.331414
v 6.832588 52.809246 5.502528
v -6.737766 58.962559 4.968265
v -6.553541 60.373161 4.750823
v -7.333788 59.184273 3.570962
v 6.737766 58.965771 4.968265
v 6.553541 60.373161 4.750823
v 5.404842 60.083973 6.376028
v 2.205284 65.228333 -11.742575
v 1.452128 62.831272 -12.063880
v 2.302815 63.502834 -13.892329
v -6.553541 60.373161 4.750823
v -5.822058 62.044037 4.745593
v -6.903027 60.694485 3.437209
v -1.457546 62.831272 -12.063880
v -2.319070 63.502834 -13.892329
v 0.000000 61.819111 -12.503245
v 4.884677 60.498478 6.979035
v 5.822058 62.044037 4.745593
v 4.196542 60.649498 7.857766
v -4.304909 64.691727 -4.140354
v 0.000000 63.869144 -7.500605
v -4.443078 63.114037 -6.577787
v -7.539687 51.944889 3.555271
v -7.650764 52.256573 1.637156
v -7.301278 48.326805 2.118366
v -7.769969 58.371326 0.085179
v -7.035777 55.659370 4.059645
v -6.724220 57.494118 5.122193
v 0.000000 64.363976 -17.028414
v -1.105351 66.266205 -13.978259
v -2.213412 65.228333 -11.742575
v -1.105351 65.935242 -11.232971
v 4.990336 46.235001 5.981497
v -5.404842 60.077545 6.376028
v 7.333788 59.184273 3.570962
v 0.000000 64.167969 -10.997597
v 0.000000 66.054131 -11.093241
v 1.102642 65.935242 -11.232971
v 0.000000 67.114494 -13.293057
v 1.102642 66.266205 -13.978259
v 0.000000 66.378670 -14.563333
v -0.010837 52.362610 -13.177985
v 1.541531 52.163387 -14.812903
v -0.018964 55.646519 -13.056934
v 1.720338 55.036007 -15.049772
v -6.390989 45.042896 2.837941
v -6.824460 46.707344 3.657640
v -5.404842 60.077545 6.376028
v 0.000000 61.298569 -12.931403
v -1.676991 63.069054 -12.172227
v 1.674282 63.072266 -12.168490
v 0.000000 64.582481 -10.873558
v 7.539687 51.944889 3.555271
v 6.824460 46.707344 3.657640
v 7.301278 48.326805 2.118366
v 6.390989 45.042896 2.837941
v -6.903027 60.694485 3.437209
v -7.355462 59.434902 1.963691
v -8.002959 56.186337 1.476504
v 0.000000 39.866402 -14.593220
v -1.322087 44.204247 -14.526717
v 0.013546 42.771152 -15.330726
v 8.002959 56.186337 1.476504
v 7.355462 59.434902 1.963691
v 7.333788 59.184273 3.570962
v 6.903027 60.694485 3.437209
v 0.000000 52.597172 -16.400000
v -1.555077 52.166603 -14.815145
v 0.000000 54.865704 -16.916328
v -1.736593 55.042431 -15.053509
v 0.000000 43.227428 -13.881866
v 0.000000 39.866402 -14.593220
v 1.289576 44.204247 -14.532695
v 5.640542 59.659828 5.799174
v 6.724220 57.494118 5.122193
v 7.769969 58.371326 0.085179
v 7.035777 55.659370 4.059645
v -4.825075 60.022923 -8.445090
v 0.000000 61.359619 -10.195082
v 0.000000 57.282043 -11.297978
v 3.757652 51.099812 -8.081194
v 0.000000 50.633896 -9.359688
v -5.640542 59.659828 5.799174
v -6.553541 60.373161 4.750823
v 5.404842 60.083973 6.376028
v 2.736286 60.601299 8.835131
v 4.245307 62.513165 6.951387
v 4.280527 63.608871 5.406135
v 6.323259 63.155807 1.339014
v -2.652301 60.582020 8.860537
v -4.245307 62.513165 6.951387
v -4.196542 60.649498 7.857766
v -4.884677 60.495262 6.979035
v 6.437045 51.601074 1.589334
v 7.447575 55.958199 -0.770388
v 6.900317 54.782162 2.939562
v 7.035777 55.659370 4.059645
v 7.447575 55.958199 -0.770388
v 6.838006 52.250145 -1.792586
v 7.775387 56.253815 -5.589213
v 6.572505 53.153061 -5.276875
v 4.987626 56.623337 -9.054075
v -3.757652 51.099812 -8.081194
v 0.000000 47.369267 -9.555460
v -3.730560 47.494583 -7.714309
v 0.000000 65.803497 -3.866124
v -4.310328 65.119087 1.749985
v 0.000000 65.938454 1.966679
v -6.437045 51.601074 1.589334
v -6.900317 54.782162 2.939562
v -7.447575 55.958199 -0.770388
v -7.035777 55.659370 4.059645
v 7.241676 52.969906 5.087821
v 7.274186 55.559761 5.140872
v 6.832588 55.392673 5.498792
v 6.409953 58.188171 5.436025
v 6.239274 58.040363 5.678125
v -5.597195 60.077545 6.236297
v -5.751619 60.244633 5.741637
v -6.358479 57.523037 5.804405
v -6.778404 57.741535 5.447234
v -6.664618 54.958889 5.808141
v -7.052032 55.164536 5.393434
v -6.412662 51.585011 5.901544
v -6.686291 51.719963 5.637028
v -5.608032 48.214344 6.287109
v -7.672438 55.861801 3.995384
v -6.659199 58.088562 5.297042
v -5.906043 58.740849 5.829810
v 5.906043 58.744061 5.829810
v 6.659199 58.088562 5.297042
v 7.672438 55.861801 3.995384
v 7.650764 52.256573 1.637156
v 0.000000 48.856987 -13.156316
v -1.465674 48.744522 -14.643285
v -1.907273 46.235001 -15.079660
v 0.000000 48.722031 -16.162384
v 0.029801 45.422054 -16.223656
v 1.885599 46.235001 -14.893602
v 0.000000 45.267822 -13.329671
v 1.468383 48.725246 -14.652251
v -4.749217 41.383041 5.196916
v -5.640542 46.504910 5.093799
v -6.195927 51.629993 5.116962
v -6.317841 55.530842 5.477122
v -5.567394 57.670845 6.600942
v 5.567394 57.670845 6.600942
v 6.317841 55.530842 5.477122
v 6.195927 51.629993 5.116962
v 5.640542 46.504910 5.093799
v 4.749217 41.383041 5.196916
v 6.553541 60.373161 4.750823
v 6.903027 60.694485 3.437209
v 7.260640 61.407818 0.913098
v 6.231146 62.638481 -4.324170
v -7.447575 55.958199 -0.770388
v -7.775387 56.253815 -5.589213
v -6.838006 52.250145 -1.792586
v -6.572505 53.153061 -5.276875
v -5.789548 48.738098 -4.519941
v 7.832280 59.261387 -5.143123
v 4.825075 60.022923 -8.445090
v 0.000000 59.589134 9.751970
v 0.000000 61.648808 9.132524
v 0.000000 64.277222 6.188475
v 4.310328 65.119087 1.749985
v 4.304909 64.691727 -4.140354
v 4.443078 63.114037 -6.577787
v 2.549352 61.340340 -15.168582
v 0.000000 62.207909 -17.742008
v 0.000000 58.515923 -17.727810
v -2.562898 61.308208 -15.178295
v -2.156519 58.201027 -15.365101
v -0.029801 59.071808 -13.164536
v 2.140263 58.194599 -15.359870
v 0.000000 51.295818 -16.292400
v -1.506312 51.369724 -14.647020
v 0.000000 51.379364 -13.145107
v 5.789548 48.738098 -4.519941
v 3.730560 47.494583 -7.714309
v -4.987626 56.623337 -9.054075
v -7.832280 59.261387 -5.143123
v -6.231146 62.638481 -4.324170
v -7.260640 61.407818 0.913098
v -6.323259 63.155807 1.339761
v -4.280527 63.608871 5.406135
v 6.553541 60.373161 4.750823
v 1.492766 51.369724 -14.647020
vn 0.7078 -0.1416 0.6921
vn 0.7078 -0.1415 0.6921
vn 0.6907 -0.0393 0.7221
vn -0.8131 0.1263 0.5683
vn -0.8502 0.2755 0.4487
vn -0.9386 0.1877 0.2894
vn 0.8131 0.1263 0.5683
vn 0.8502 0.2755 0.4487
vn 0.7753 0.1879 0.6030
vn 0.8434 0.1340 0.5202
vn 0.7223 -0.5339 0.4396
vn 0.9861 -0.0235 -0.1643
vn -0.8501 0.2755 0.4487
vn -0.8081 0.3923 0.4394
vn -0.9383 0.2365 0.2523
vn -0.7223 -0.5339 0.4396
vn -0.9861 -0.0235 -0.1643
vn -0.0000 -0.6992 0.7149
vn 0.7937 0.2908 0.5344
vn 0.8081 0.3923 0.4394
vn 0.7093 0.3152 0.6305
vn -0.4855 0.8301 -0.2741
vn -0.0000 0.7669 -0.6417
vn -0.5040 0.6301 -0.5907
vn -0.9555 -0.0862 0.2820
vn -0.9961 -0.0784 0.0392
vn -0.9844 -0.1575 0.0788
vn -0.9888 0.0078 0.1491
vn -0.9861 -0.1174 0.1174
vn -0.9519 0.2045 0.2281
vn -0.0000 0.6025 -0.7981
vn -0.6561 0.6956 -0.2925
vn -0.8425 0.1418 0.5197
vn -0.4646 0.6142 0.6379
vn 0.7003 -0.1731 0.6925
vn -0.7721 0.1891 0.6067
vn 0.9386 0.1877 0.2894
vn -0.0000 -0.1019 0.9948
vn -0.0000 0.5511 0.8345
vn 0.4669 0.6093 0.6410
vn 0.0006 0.9999 0.0157
vn 0.6606 0.6921 -0.2910
vn -0.0000 0.8247 -0.5655
vn -0.0000 -0.0000 1.0000
vn 0.9980 -0.0629 -0.0000
vn -0.0000 -0.0079 1.0000
vn 0.9956 -0.0941 -0.0000
vn -0.9527 -0.2913 0.0866
vn -0.9253 -0.1882 0.3293
vn -0.0000 -0.2830 -0.9591
vn -0.8013 0.2986 -0.5184
vn 0.8013 0.2985 -0.5185
vn -0.0000 0.9920 -0.1260
vn 0.9555 -0.0862 0.2820
vn 0.9253 -0.1882 0.3293
vn 0.9844 -0.1575 0.0788
vn 0.9527 -0.2913 0.0866
vn -0.9383 0.2366 0.2523
vn -0.9741 0.2121 0.0785
vn -0.9963 -0.0000 0.0863
vn 0.0392 -0.9694 0.2423
vn -0.9530 -0.2993 0.0473
vn 0.0079 -0.2830 -0.9591
vn 0.9963 -0.0000 0.0863
vn 0.9741 0.2121 0.0785
vn 0.9383 0.2366 0.2523
vn -0.0000 -0.1491 -0.9888
vn -0.9975 -0.0707 -0.0000
vn -0.0000 -0.2037 -0.9790
vn -0.9955 -0.0941 -0.0078
vn -0.0000 -0.2277 0.9737
vn 0.0390 -0.9694 0.2424
vn 0.9522 -0.2990 0.0630
vn 0.9487 0.0392 0.3136
vn 0.9519 0.2045 0.2281
vn 0.9888 0.0078 0.1491
vn 0.9861 -0.1174 0.1174
vn -0.5494 0.3924 -0.7377
vn -0.0000 0.5122 -0.8589
vn -0.0000 -0.0236 -0.9997
vn 0.5740 -0.1651 -0.8020
vn -0.0000 -0.1096 -0.9940
vn -0.9487 0.0392 0.3136
vn -0.8944 -0.2746 0.3531
vn 0.7753 0.1880 0.6030
vn 0.3387 0.4018 0.8508
vn 0.4889 0.5677 0.6623
vn 0.5453 0.7350 0.4031
vn 0.8030 0.5826 0.1259
vn -0.3387 0.4018 0.8508
vn -0.4889 0.5677 0.6623
vn -0.7058 0.3137 0.6352
vn -0.7937 0.2908 0.5344
vn 0.9812 -0.1727 0.0863
vn 0.9815 -0.1806 0.0628
vn 0.9763 -0.2047 0.0709
vn 0.9667 -0.2436 -0.0786
vn 0.9582 -0.1728 -0.2278
vn 0.8573 -0.2910 -0.4247
vn 0.6690 -0.0708 -0.7399
vn -0.5740 -0.1651 -0.8020
vn -0.0000 -0.0157 -0.9999
vn -0.6730 -0.0782 -0.7355
vn -0.0000 0.9821 -0.1886
vn -0.3914 0.9081 0.1487
vn -0.0000 0.9851 0.1720
vn -0.9812 -0.1727 0.0863
vn -0.9763 -0.2047 0.0708
vn -0.9815 -0.1806 0.0628
vn 0.7174 -0.0631 0.6938
vn 0.6500 0.0235 0.7596
vn 0.6686 0.0787 0.7394
vn 0.6904 0.1177 0.7138
vn 0.7685 0.1255 0.6274
vn -0.9111 0.2121 0.3534
vn -0.7820 0.1877 0.5943
vn -0.7337 0.1499 0.6628
vn -0.6466 0.0946 0.7570
vn -0.6909 0.0314 0.7223
vn -0.7226 0.0079 0.6912
vn -0.7215 -0.0549 0.6902
vn -0.7162 -0.0866 0.6925
vn -0.8897 -0.0000 0.4566
vn -0.7955 0.0945 0.5986
vn -0.7070 0.1493 0.6913
vn 0.7070 0.1493 0.6913
vn 0.7983 0.0939 0.5948
vn 0.8897 -0.0000 0.4566
vn 0.9961 -0.0784 0.0392
vn -0.9776 0.0548 0.2033
vn -0.9992 -0.0315 -0.0236
vn 0.0079 0.0629 -0.9980
vn 0.0313 -0.2350 -0.9715
vn 0.9995 -0.0315 -0.0000
vn -0.0078 -0.1173 0.9931
vn 0.9791 0.0549 0.1958
vn -0.8875 -0.2278 0.4006
vn -0.7706 -0.1022 0.6291
vn -0.7608 -0.0863 0.6432
vn -0.7550 -0.0629 0.6528
vn -0.7452 0.1020 0.6590
vn 0.7452 0.1020 0.6590
vn 0.7550 -0.0629 0.6528
vn 0.7608 -0.0863 0.6432
vn 0.7706 -0.1022 0.6291
vn 0.8875 -0.2278 0.4006
vn 0.9383 0.2365 0.2523
vn 0.9420 0.3297 0.0628
vn 0.7955 0.5356 -0.2835
vn -0.9582 -0.1728 -0.2278
vn -0.9667 -0.2436 -0.0786
vn -0.8573 -0.2910 -0.4247
vn -0.8898 -0.1654 -0.4253
vn 0.9189 0.2278 -0.3220
vn 0.5494 0.3924 -0.7377
vn -0.0000 0.2830 0.9591
vn -0.0000 0.5474 0.8368
vn -0.0000 0.8644 0.5029
vn 0.3915 0.9081 0.1487
vn 0.4855 0.8301 -0.2741
vn 0.5040 0.6301 -0.5907
vn 0.9975 -0.0628 0.0314
vn -0.0000 0.3067 -0.9518
vn -0.0000 -0.0941 -0.9956
vn -0.9975 -0.0628 0.0314
vn -0.9931 -0.1173 0.0078
vn -0.0000 -0.1260 0.9920
vn 0.9939 -0.1096 0.0157
vn -0.0000 -0.1337 -0.9910
vn -0.9859 -0.0313 -0.1643
vn -0.0000 0.0394 0.9992
vn 0.8898 -0.1654 -0.4253
vn 0.6729 -0.0783 -0.7356
vn -0.6690 -0.0708 -0.7399
vn -0.9189 0.2278 -0.3220
vn -0.7955 0.5356 -0.2835
vn -0.9420 0.3297 0.0628
vn -0.8030 0.5826 0.1259
vn -0.5453 0.7350 0.4030
vn 0.8944 -0.2745 0.3531
vn 0.9859 -0.0313 -0.1643
vt 0.915100 0.331451
vt 0.854431 0.365784
vt 0.915100 0.480621
vt 0.903412 0.860657
vt 0.842194 0.976807
vt 0.826324 0.850189
vt 0.932159 0.939880
vt 0.663422 0.987213
vt 0.590820 0.959839
vt 0.590210 0.987823
vt 0.679993 0.293091
vt 0.693726 0.215302
vt 0.607697 0.285553
vt 0.590820 0.916351
vt 0.590210 0.879852
vt 0.550201 0.937958
vt 0.804993 0.269165
vt 0.865234 0.224548
vt 0.367188 0.156250
vt 0.125000 0.130188
vt 0.242188 0.257812
vt 0.872833 0.526825
vt 0.753510 0.573059
vt 0.753510 0.456268
vt 0.528107 0.428101
vt 0.637482 0.473419
vt 0.624878 0.414734
vt 0.526276 0.937958
vt 0.625031 0.914490
vt 0.663757 0.883179
vt 0.690948 0.906647
vt 0.915100 0.182312
vt 0.622437 0.937958
vt 0.690948 0.937958
vt 0.690948 0.969849
vt 0.644318 0.937958
vt 0.625031 0.957947
vt 0.615265 0.937958
vt 0.219513 0.937958
vt 0.222229 0.987823
vt 0.324646 0.937958
vt 0.301636 0.987823
vt 0.802551 0.299561
vt 0.872833 0.365784
vt 0.761414 0.300232
vt 0.183563 0.987274
vt 0.183563 0.934753
vt 0.183563 0.870575
vt 0.753510 0.987793
vt 0.753510 0.823761
vt 0.753510 0.689819
vt 0.579224 0.840515
vt 0.634064 0.716309
vt 0.551788 0.778412
vt 0.218445 0.937958
vt 0.222351 0.879852
vt 0.295898 0.937958
vt 0.301819 0.879852
vt 0.738281 0.716309
vt 0.694397 0.840515
vt 0.164062 0.439056
vt 0.012451 0.281250
vt 0.012451 0.562500
vt 0.187500 0.749451
vt 0.023438 0.749451
vt 0.937500 0.117188
vt 0.833771 0.143738
vt 0.740601 0.139038
vt 0.540131 0.205383
vt 0.312164 0.853058
vt 0.445068 0.754944
vt 0.460876 0.863434
vt 0.544464 0.854370
vt 0.517181 0.557800
vt 0.453125 0.734375
vt 0.349976 0.589050
vt 0.343750 0.693726
vt 0.168732 0.598419
vt 0.027344 0.852081
vt 0.199219 0.852081
vt 0.328125 0.012970
vt 0.546875 0.134369
vt 0.546875 0.012970
vt 0.854431 0.526825
vt 0.859467 0.686737
vt 0.917419 0.660278
vt 0.885956 0.783997
vt 0.911469 0.791687
vt 0.882721 0.686737
vt 0.934784 0.783997
vt 0.954559 0.868835
vt 0.738281 0.444427
vt 0.634064 0.543304
vt 0.634064 0.642181
vt 0.524353 0.580383
vt 0.524353 0.716309
vt 0.738281 0.642181
vt 0.987244 0.181610
vt 0.987244 0.330750
vt 0.987244 0.479919
vt 0.987213 0.658813
vt 0.985016 0.791687
vt 0.534119 0.279419
vt 0.367188 0.264313
vt 0.335938 0.811371
vt 0.348419 0.462646
vt 0.988739 0.046875
vt 0.918732 0.016266
vt 0.781860 0.013123
vt 0.491058 0.987823
vt 0.470093 0.937958
vt 0.384155 0.937958
vt 0.490021 0.879852
vt 0.391937 0.879852
vt 0.460236 0.937958
vt 0.391693 0.987823
vt 0.190948 0.937958
vt 0.190948 0.879852
vt 0.190948 0.987823
s 1
usemtl m_hair0107
f 1/1/1 2/2/2 3/3/3
f 4/4/4 5/5/5 6/6/6
f 7/4/7 8/5/8 9/7/9
f 10/8/10 11/9/11 12/10/12
f 13/11/13 14/12/14 15/13/15
f 16/14/16 17/15/17 18/16/18
f 19/17/19 20/12/20 21/18/21
f 22/19/22 23/20/23 24/21/24
f 25/22/25 26/23/26 27/24/27
f 28/25/28 29/26/29 30/27/30
f 31/28/31 17/15/17 32/29/32
f 32/29/32 17/15/17 33/30/33
f 32/29/32 33/30/33 34/31/34
f 2/2/2 1/1/1 35/32/35
f 5/5/5 4/4/4 36/7/36
f 8/5/8 7/4/7 37/6/37
f 11/9/11 10/8/10 38/33/38
f 39/34/39 40/35/40 41/36/41
f 41/36/41 40/35/40 42/37/42
f 41/36/41 42/37/42 43/38/43
f 44/39/44 45/40/45 46/41/46
f 46/41/46 45/40/45 47/42/47
f 48/43/48 49/44/49 27/24/27
f 27/24/27 49/44/49 25/22/25
f 14/12/14 13/11/13 50/45/36
f 51/46/50 52/47/51 53/47/52
f 53/47/52 52/47/51 54/48/53
f 55/22/54 56/44/55 57/24/56
f 57/24/56 56/44/55 58/43/57
f 5/5/5 59/49/58 6/6/6
f 6/6/6 59/49/58 60/50/59
f 6/6/6 60/50/59 61/51/60
f 62/52/61 63/53/62 64/54/63
f 65/51/64 66/50/65 67/6/37
f 67/6/37 66/50/65 68/49/66
f 67/6/37 68/49/66 8/5/8
f 17/15/17 16/14/16 33/30/33
f 33/30/33 16/14/16 38/33/38
f 33/30/33 38/33/38 34/31/34
f 69/55/67 70/56/68 71/57/69
f 71/57/69 70/56/68 72/58/70
f 73/59/71 74/60/72 75/53/73
f 76/45/74 77/27/75 78/25/76
f 78/25/76 77/27/75 79/26/77
f 80/61/78 81/62/79 82/63/80
f 83/64/81 84/65/82 82/63/80
f 30/27/30 85/45/83 28/25/28
f 28/25/28 85/45/83 86/11/84
f 28/25/28 86/11/84 15/13/15
f 20/12/20 19/17/19 87/45/85
f 88/66/86 21/18/21 89/67/87
f 89/67/87 21/18/21 20/12/20
f 89/67/87 20/12/20 90/68/88
f 90/68/88 20/12/20 91/69/89
f 92/66/90 93/67/91 94/18/92
f 94/18/92 93/67/91 14/12/14
f 94/18/92 14/12/14 95/17/93
f 95/17/93 14/12/14 50/45/36
f 96/70/94 97/71/95 98/72/96
f 98/72/96 97/71/95 99/73/77
f 100/74/95 101/75/97 102/76/98
f 102/76/98 101/75/97 103/77/99
f 102/76/98 103/77/99 104/78/100
f 105/64/101 106/79/102 107/80/103
f 23/20/23 22/19/22 108/81/104
f 108/81/104 22/19/22 109/82/105
f 108/81/104 109/82/105 110/83/106
f 111/70/107 112/72/108 113/71/109
f 113/71/109 112/72/108 114/73/29
f 2/2/2 115/84/110 3/3/3
f 3/3/3 115/84/110 116/85/111
f 3/3/3 116/85/111 117/86/112
f 117/86/112 116/85/111 118/87/113
f 117/86/112 118/87/113 119/88/114
f 120/88/115 121/87/116 122/86/117
f 122/86/117 121/87/116 123/85/118
f 122/86/117 123/85/118 124/3/119
f 124/3/119 123/85/118 125/84/120
f 124/3/119 125/84/120 126/1/121
f 126/1/121 125/84/120 127/2/121
f 126/1/121 127/2/121 128/32/122
f 26/23/26 25/22/25 61/51/60
f 61/51/60 25/22/25 129/89/123
f 61/51/60 129/89/123 6/6/6
f 6/6/6 129/89/123 130/90/124
f 6/6/6 130/90/124 4/4/4
f 4/4/4 130/90/124 131/91/125
f 4/4/4 131/91/125 36/7/36
f 9/7/9 132/91/126 7/4/7
f 7/4/7 132/91/126 133/90/127
f 7/4/7 133/90/127 67/6/37
f 67/6/37 133/90/127 134/89/128
f 67/6/37 134/89/128 65/51/64
f 65/51/64 134/89/128 55/22/54
f 65/51/64 55/22/54 135/23/129
f 135/23/129 55/22/54 57/24/56
f 136/92/44 137/93/130 138/94/131
f 138/94/131 137/93/130 139/95/132
f 138/94/131 139/95/132 140/96/133
f 140/96/133 139/95/132 141/94/134
f 140/96/133 141/94/134 75/53/73
f 75/53/73 141/94/134 142/97/135
f 75/53/73 142/97/135 73/59/71
f 73/59/71 142/97/135 63/53/62
f 73/59/71 63/53/62 74/60/72
f 139/95/132 143/93/136 141/94/134
f 141/94/134 143/93/136 136/92/44
f 141/94/134 136/92/44 142/97/135
f 142/97/135 136/92/44 138/94/131
f 142/97/135 138/94/131 63/53/62
f 63/53/62 138/94/131 140/96/133
f 63/53/62 140/96/133 64/54/63
f 64/54/63 140/96/133 75/53/73
f 64/54/63 75/53/73 62/52/61
f 48/43/48 144/98/137 49/44/49
f 49/44/49 144/98/137 145/99/138
f 49/44/49 145/99/138 25/22/25
f 25/22/25 145/99/138 146/100/139
f 25/22/25 146/100/139 129/89/123
f 129/89/123 146/100/139 147/101/140
f 129/89/123 147/101/140 130/90/124
f 130/90/124 147/101/140 148/102/141
f 130/90/124 148/102/141 131/91/125
f 132/91/126 149/102/142 133/90/127
f 133/90/127 149/102/142 150/101/143
f 133/90/127 150/101/143 134/89/128
f 134/89/128 150/101/143 151/100/144
f 134/89/128 151/100/144 55/22/54
f 55/22/54 151/100/144 152/99/145
f 55/22/54 152/99/145 56/44/55
f 56/44/55 152/99/145 153/98/146
f 56/44/55 153/98/146 58/43/57
f 87/45/85 154/11/8 20/12/20
f 20/12/20 154/11/8 155/13/147
f 20/12/20 155/13/147 91/69/89
f 91/69/89 155/13/147 156/103/148
f 91/69/89 156/103/148 157/104/149
f 29/26/29 28/25/28 158/74/109
f 158/74/109 28/25/28 159/76/150
f 158/74/109 159/76/150 160/75/151
f 160/75/151 159/76/150 161/77/152
f 160/75/151 161/77/152 162/105/153
f 79/26/77 100/74/95 78/25/76
f 78/25/76 100/74/95 102/76/98
f 78/25/76 102/76/98 163/106/154
f 163/106/154 102/76/98 104/78/100
f 163/106/154 104/78/100 164/61/155
f 165/107/156 88/66/86 166/108/157
f 166/108/157 88/66/86 89/67/87
f 166/108/157 89/67/87 167/109/158
f 167/109/158 89/67/87 90/68/88
f 167/109/158 90/68/88 168/82/159
f 168/82/159 90/68/88 91/69/89
f 168/82/159 91/69/89 169/19/160
f 169/19/160 91/69/89 157/104/149
f 169/19/160 157/104/149 170/21/161
f 11/9/11 18/16/18 12/10/12
f 12/10/12 18/16/18 171/110/162
f 12/10/12 171/110/162 172/111/163
f 172/111/163 171/110/162 173/112/164
f 172/111/163 173/112/164 174/113/165
f 174/113/165 173/112/164 175/114/166
f 174/113/165 175/114/166 176/115/167
f 176/115/167 175/114/166 46/41/46
f 176/115/167 46/41/46 177/116/168
f 177/116/168 46/41/46 47/42/47
f 177/116/168 47/42/47 71/57/69
f 71/57/69 47/42/47 45/40/45
f 71/57/69 45/40/45 69/55/67
f 69/55/67 45/40/45 178/117/169
f 69/55/67 178/117/169 70/56/68
f 70/56/68 178/117/169 179/118/170
f 70/56/68 179/118/170 180/117/171
f 181/105/172 182/80/173 83/64/81
f 83/64/81 182/80/173 106/79/102
f 83/64/81 106/79/102 84/65/82
f 84/65/82 106/79/102 105/64/101
f 84/65/82 105/64/101 82/63/80
f 82/63/80 105/64/101 183/78/174
f 82/63/80 183/78/174 80/61/78
f 80/61/78 183/78/174 184/106/175
f 80/61/78 184/106/175 185/104/176
f 185/104/176 184/106/175 186/103/177
f 185/104/176 186/103/177 187/69/178
f 107/80/103 162/105/153 105/64/101
f 105/64/101 162/105/153 161/77/152
f 105/64/101 161/77/152 183/78/174
f 183/78/174 161/77/152 159/76/150
f 183/78/174 159/76/150 184/106/175
f 184/106/175 159/76/150 28/25/28
f 184/106/175 28/25/28 186/103/177
f 186/103/177 28/25/28 15/13/15
f 186/103/177 15/13/15 187/69/178
f 187/69/178 15/13/15 14/12/14
f 187/69/178 14/12/14 188/68/179
f 188/68/179 14/12/14 93/67/91
f 189/11/180 76/45/74 155/13/147
f 155/13/147 76/45/74 78/25/76
f 155/13/147 78/25/76 156/103/148
f 156/103/148 78/25/76 163/106/154
f 156/103/148 163/106/154 157/104/149
f 157/104/149 163/106/154 164/61/155
f 157/104/149 164/61/155 170/21/161
f 170/21/161 164/61/155 23/20/23
f 170/21/161 23/20/23 169/19/160
f 169/19/160 23/20/23 108/81/104
f 169/19/160 108/81/104 168/82/159
f 168/82/159 108/81/104 110/83/106
f 168/82/159 110/83/106 167/109/158
f 167/109/158 110/83/106 109/82/105
f 101/75/97 181/105/172 103/77/99
f 103/77/99 181/105/172 83/64/81
f 103/77/99 83/64/81 104/78/100
f 104/78/100 83/64/81 82/63/80
f 104/78/100 82/63/80 164/61/155
f 164/61/155 82/63/80 81/62/79
f 164/61/155 81/62/79 23/20/23
f 23/20/23 81/62/79 80/61/78
f 23/20/23 80/61/78 24/21/24
f 24/21/24 80/61/78 185/104/176
f 24/21/24 185/104/176 22/19/22
f 22/19/22 185/104/176 187/69/178
f 22/19/22 187/69/178 109/82/105
f 109/82/105 187/69/178 188/68/179
f 109/82/105 188/68/179 167/109/158
f 167/109/158 188/68/179 93/67/91
f 167/109/158 93/67/91 166/108/157
f 166/108/157 93/67/91 92/66/90
f 166/108/157 92/66/90 165/107/156
f 42/37/42 31/28/31 43/38/43
f 43/38/43 31/28/31 32/29/32
f 43/38/43 32/29/32 41/36/41
f 41/36/41 32/29/32 34/31/34
f 41/36/41 34/31/34 39/34/39
f 39/34/39 34/31/34 38/33/38
f 39/34/39 38/33/38 40/35/40
f 40/35/40 38/33/38 10/8/10
f 40/35/40 10/8/10 42/37/42
f 42/37/42 10/8/10 12/10/12
f 42/37/42 12/10/12 31/28/31
f 31/28/31 12/10/12 172/111/163
f 31/28/31 172/111/163 17/15/17
f 17/15/17 172/111/163 174/113/165
f 17/15/17 174/113/165 18/16/18
f 18/16/18 174/113/165 176/115/167
f 18/16/18 176/115/167 171/110/162
f 171/110/162 176/115/167 177/116/168
f 171/110/162 177/116/168 173/112/164
f 173/112/164 177/116/168 71/57/69
f 173/112/164 71/57/69 175/114/166
f 175/114/166 71/57/69 72/58/70
f 175/114/166 72/58/70 46/41/46
f 46/41/46 72/58/70 70/56/68
f 46/41/46 70/56/68 44/39/44
f 44/39/44 70/56/68 180/117/171
f 44/39/44 180/117/171 45/40/45
f 45/40/45 180/117/171 190/119/181
f 45/40/45 190/119/181 178/117/169
o editpl_m-0000-1825
v 0.000000 48.722031 -16.162384
v -1.465674 48.744522 -14.643285
v -1.506312 51.369724 -14.647020
v 0.000000 51.379364 -13.145107
v -1.961457 61.028660 -9.374634
v -1.676991 63.069054 -12.172227
v 0.000000 59.431686 -10.659105
v 0.000000 61.298569 -12.931403
v 1.958747 61.031872 -9.371645
v 1.674282 63.072266 -12.168490
v 0.000000 63.152596 -8.279208
v 0.000000 64.582481 -10.873558
v 0.000000 48.856987 -13.156316
v 1.468383 48.725246 -14.652251
v 1.492766 51.369724 -14.647020
v 0.000000 51.295818 -16.292400
vn 0.0079 0.0628 -0.9980
vn -0.9776 0.0547 0.2033
vn -0.9859 -0.0313 -0.1643
vn -0.0000 0.0393 0.9992
vn -0.9966 0.0235 -0.0785
vn -0.8013 0.2985 -0.5185
vn -0.0000 -0.7637 -0.6456
vn -0.0000 -0.2830 -0.9591
vn 0.9966 0.0236 -0.0785
vn 0.8013 0.2985 -0.5185
vn -0.0000 0.8697 0.4936
vn -0.0000 0.9920 -0.1260
vn -0.0000 -0.0000 1.0000
vn 0.9791 0.0548 0.1958
vn 0.9859 -0.0313 -0.1642
vn -0.0000 -0.1337 -0.9910
vt 0.183563 0.870575
vt 0.183563 0.934753
vt 0.012115 0.934753
vt 0.012115 0.988007
vt 0.183563 0.988007
vt 0.012115 0.870575
s 1
usemtl m_hair0107
f 191/120/182 192/121/183 193/122/184
f 193/122/184 192/121/183 194/123/185
f 195/122/186 196/121/187 197/123/188
f 197/123/188 196/121/187 198/124/189
f 197/123/188 198/124/189 199/122/190
f 199/122/190 198/124/189 200/121/191
f 199/122/190 200/121/191 201/125/192
f 201/125/192 200/121/191 202/120/193
f 201/125/192 202/120/193 195/122/186
f 195/122/186 202/120/193 196/121/187
f 192/121/183 203/124/194 194/123/185
f 194/123/185 203/124/194 204/121/195
f 194/123/185 204/121/195 205/122/196
f 205/122/196 204/121/195 191/120/182
f 205/122/196 191/120/182 206/125/197
f 206/125/197 191/120/182 193/122/184
