mtllib m_hair001.mtl
o editpl_m-0000-1821
v -6.745893 52.459003 -7.692639
v -7.983995 46.977253 -9.812504
v -7.807897 50.919872 -5.344125
v 4.223634 57.349522 -18.956989
v 1.869344 63.191154 -9.691455
v 4.399731 60.662350 -9.384347
v 4.627304 54.078468 -9.880501
v 4.589375 48.403923 -10.461838
v 0.000000 48.188637 -12.680336
v 3.700759 62.705959 -11.022255
v 6.726929 62.596710 -9.888721
v 7.257931 59.778717 -17.264534
v 7.585744 59.855831 0.354925
v 9.111020 60.543461 -2.140791
v 6.453300 63.406441 1.520589
v -1.777231 62.940521 -9.323074
v -2.473494 55.781471 -13.913997
v -5.117668 56.996071 -12.203610
v 5.117668 56.996071 -12.203610
v 7.076415 49.772755 -19.095972
v 2.692939 55.540482 -13.847495
v 4.399731 60.662350 -9.384347
v 5.813931 61.292141 -8.392038
v -3.879566 59.717667 9.946995
v -2.950312 57.372017 10.322846
v -1.113479 59.479885 11.027475
v -6.615852 43.539108 3.801855
v -5.280219 40.595802 6.029319
v -8.368701 53.831051 3.301963
v -8.436430 59.685532 -1.468292
v -7.948776 60.614155 -4.506492
v -8.512288 55.942135 -6.524734
v -7.585744 59.855831 0.354925
v -7.398809 56.212044 -1.086463
v -6.916573 54.714684 1.106630
v 6.916573 54.714684 1.106630
v 7.398809 56.212044 -1.086463
v 7.585744 59.855831 0.354925
v 6.745893 52.459003 -7.692639
v 4.865713 56.645828 -12.020540
v 7.518014 54.888199 -5.009370
v -3.291671 52.809246 -12.908986
v -4.865713 56.645828 -12.020540
v 0.000000 58.197811 -12.113944
v -4.881968 51.912758 -10.190597
v 4.881968 51.912758 -10.190597
v 4.155904 46.347462 -16.469490
v 3.291671 52.809246 -12.908986
v 0.000000 52.005939 -12.104229
v 0.000000 54.117023 -11.683544
v 8.512288 55.942135 -6.524734
v 7.948776 60.614155 -4.506492
v 7.087252 60.874424 -7.108314
v 4.532482 64.396111 -6.944672
v 5.570103 62.252895 -8.180574
v 9.707042 60.305683 -7.650049
v 7.515304 60.649498 -8.755935
v 7.201038 63.432144 -4.552072
v 0.000000 61.073643 -10.609042
v 7.087252 60.874424 -7.108314
v 7.948776 60.614155 -4.506492
v 8.436430 59.685532 -1.468292
v 8.368701 53.831051 3.301963
v 7.060160 44.670162 3.439453
v 7.891882 51.540024 0.787566
v 8.769661 52.426872 -5.498053
v 7.398809 56.212044 -1.086463
v 7.585744 59.855831 0.354925
v 7.490922 48.882690 -5.899310
v 7.807897 50.919872 -5.344125
v 6.160707 51.960957 -2.345529
v 4.692324 65.270103 -6.652509
v 7.463830 52.828526 -10.222728
v 9.566164 52.105549 -8.770878
v 11.064349 46.678425 -11.553528
v 9.544491 50.065159 -7.875708
v 6.390989 49.117256 -2.751270
v 6.477683 45.852627 -2.778917
v 8.092363 45.791576 -6.538930
v 8.593564 58.901508 -4.374980
v 13.418638 54.380508 -13.037508
v 7.471957 55.183815 -2.349265
v 6.160707 51.960957 -2.345529
v 7.807897 50.919872 -5.344125
v 0.379287 60.974033 10.796584
v 1.552368 58.711929 11.286761
v 2.172774 59.380276 11.207556
v 3.879566 54.936398 9.787838
v 0.379287 60.974033 10.796584
v 10.021309 57.304539 -2.604068
v 9.425286 55.566189 -1.086463
v 12.156154 49.586388 -3.440954
v -7.948776 60.614155 -4.506492
v -4.532482 64.396111 -6.944672
v -7.087252 60.874424 -7.108314
v -5.570103 62.252895 -8.180574
v -7.515304 60.649498 -8.755935
v -7.201038 63.432144 -4.552072
v -6.726929 62.596710 -9.888721
v -4.692324 65.270103 -6.652509
v -13.418638 54.380508 -13.037508
v -8.593564 58.901508 -4.374980
v -9.707042 60.305683 -7.650049
v -6.390989 49.117256 -2.751270
v -6.160707 51.960957 -2.345529
v -7.490922 48.882690 -5.899310
v -7.807897 50.919872 -5.344125
v -4.627304 54.078468 -9.880501
v 0.000000 58.393818 -13.848989
v 0.000000 61.025444 -10.196576
v 1.777231 62.940521 -9.323074
v -7.585744 59.855831 0.354925
v -7.398809 56.212044 -1.086463
v -8.769661 52.426872 -5.498053
v -8.092363 45.791576 -6.538930
v -4.589375 48.403923 -10.461838
v -4.892805 44.866169 -10.839931
v -7.463830 52.828526 -10.222728
v -11.064349 46.678425 -11.553528
v -9.566164 52.105549 -8.770878
v -9.544491 50.065159 -7.875708
v -3.779326 63.650642 5.347105
v 0.000000 64.508575 5.608632
v 0.000000 65.944885 2.165440
v 4.554155 64.926292 1.934549
v -6.453300 63.406441 1.520589
v -4.554155 64.926292 1.934549
v -4.751926 65.581787 -3.275820
v 0.000000 66.786743 -1.928581
v -7.585744 59.855831 0.354925
v -8.049016 55.174175 0.451317
v -7.891882 51.540024 0.787566
v -7.060160 44.670162 3.439453
v -1.113479 59.479885 11.027475
v 0.048765 59.332081 11.187381
v -1.167663 53.991711 10.296695
v -6.973466 56.388771 6.917016
v -7.436738 60.710548 3.855654
v -10.121549 55.257717 -4.185186
v -10.021309 57.304539 -2.604068
v -12.156154 49.586388 -3.440954
v 4.751926 65.581787 -3.275820
v 2.172774 59.380276 11.207556
v 2.858200 61.366047 9.417215
v 3.879566 59.717667 9.847614
v 4.421405 61.822323 7.460245
v 5.732655 58.862949 8.542220
v 6.599597 59.887966 5.699794
v 6.740475 57.561596 6.390226
v 7.274186 57.452347 4.428771
v 6.258238 59.704811 7.129227
v 7.436738 60.710548 3.855654
v 6.973466 56.388771 6.917016
v 5.280219 40.595802 6.029319
v 6.615852 43.539108 3.801855
v 6.903027 54.065613 1.974900
v 6.659199 54.341949 5.105007
v 6.006283 55.238438 7.079910
v 4.936152 56.061024 8.864273
v 3.329600 57.571236 10.022464
v 0.000000 65.540016 -7.552163
v -1.869344 63.191154 -9.691455
v -4.399731 60.662350 -9.384347
v -10.939726 53.162701 -15.885165
v 10.939726 53.162701 -15.885165
v -4.223634 57.349522 -18.956989
v -7.087252 60.874424 -7.108314
v -5.813931 61.292141 -8.392038
v -4.399731 60.662350 -9.384347
v 7.983995 46.977253 -9.812504
v 0.000000 66.073410 -7.750923
v 0.000000 63.660282 -17.186077
v -3.700759 62.705959 -11.022255
v -7.257931 59.778717 -17.264534
v -6.160707 51.960957 -2.345529
v -7.471957 55.183815 -2.349265
v -7.518014 54.888199 -5.009370
v -4.155904 46.347462 -16.469490
v 0.000000 52.198734 -20.768251
v 4.892805 44.866169 -10.839931
v 0.000000 43.510193 -14.439292
v -6.477683 45.852627 -2.778917
v 0.000000 54.139519 -11.497486
v -7.076415 49.772755 -19.095972
v -4.421405 61.822323 7.460245
v -2.858200 61.366047 9.417215
v 0.000000 63.081905 8.572109
v 3.779326 63.650642 5.347105
v -9.111020 60.543461 -2.140791
v -4.936152 55.758980 9.164657
v -5.632415 58.862949 8.542220
v -6.006283 54.939610 7.079910
v -6.740475 57.561596 6.390226
v -6.659199 54.341949 5.105007
v 8.049016 55.174175 0.451317
v 7.585744 59.855831 0.354925
v -6.599597 59.887966 5.699794
v -7.274186 57.452347 4.428771
v -6.903027 54.065613 1.974900
v 10.121549 55.257717 -4.185186
v -6.258238 59.704811 7.129227
v -9.425286 55.566189 -1.086463
v -7.585744 59.855831 0.354925
vn -0.8926 0.1331 -0.4306
vn -0.8334 0.3538 -0.4246
vn -0.9980 -0.0000 -0.0629
vn 0.1256 0.8555 -0.5023
vn 0.1807 0.7148 -0.6756
vn 0.3537 0.6209 -0.6995
vn 0.7092 0.0709 -0.7014
vn 0.6671 0.1491 -0.7299
vn -0.0000 0.2111 -0.9775
vn 0.4333 0.7721 -0.4648
vn 0.6599 0.6992 -0.2750
vn 0.6345 0.7363 -0.2350
vn 0.8332 0.1415 0.5345
vn 0.9457 0.3152 0.0788
vn 0.7707 0.5820 0.2595
vn -0.2128 0.6462 -0.7329
vn -0.3862 0.5990 -0.7015
vn -0.5813 0.5263 -0.6206
vn 0.5679 0.5285 -0.6310
vn 0.5592 0.6458 -0.5198
vn 0.3685 0.5959 -0.7135
vn 0.3691 0.6126 -0.6990
vn 0.6470 0.3629 -0.6706
vn -0.5027 0.2828 0.8169
vn -0.4155 -0.0157 0.9094
vn -0.2346 0.1408 0.9618
vn -0.9196 -0.1336 0.3694
vn -0.9082 -0.1253 0.3993
vn -0.9929 -0.0158 0.1182
vn -0.9784 -0.1018 0.1801
vn -0.9227 0.3312 -0.1972
vn -0.9531 0.1890 -0.2363
vn -0.9437 -0.1573 0.2909
vn -0.9638 -0.1097 0.2429
vn -0.9846 -0.1024 0.1418
vn 0.9846 -0.1024 0.1418
vn 0.9638 -0.1097 0.2429
vn 0.9437 -0.1573 0.2909
vn 0.8926 0.1331 -0.4306
vn 0.7378 -0.0364 -0.6740
vn 0.9910 0.0078 -0.1337
vn -0.1645 0.1723 -0.9712
vn -0.7372 -0.0392 -0.6745
vn -0.0000 0.0472 -0.9989
vn -0.8319 0.0785 -0.5494
vn 0.8319 0.0785 -0.5494
vn 0.3527 0.4860 -0.7996
vn 0.1645 0.1723 -0.9712
vn -0.0000 0.3209 -0.9471
vn 0.9531 0.1890 -0.2363
vn 0.9227 0.3313 -0.1972
vn 0.8176 0.4481 -0.3616
vn 0.5287 0.6234 -0.5761
vn 0.4326 0.6607 -0.6135
vn 0.7797 0.6221 -0.0709
vn 0.7290 0.5957 -0.3371
vn 0.7923 0.6040 -0.0863
vn -0.0000 0.6707 -0.7417
vn 0.9227 0.3312 -0.1972
vn 0.9784 -0.1018 0.1801
vn 0.9929 -0.0158 0.1182
vn 0.9885 -0.1412 -0.0548
vn 0.9911 -0.0944 -0.0944
vn 0.9703 0.1174 0.2113
vn 0.9437 -0.1573 0.2910
vn 0.9955 0.0392 -0.0862
vn 0.9980 -0.0001 -0.0628
vn 0.9080 -0.1254 0.3998
vn 0.4547 0.8546 -0.2509
vn 0.7603 0.4311 -0.4859
vn 0.9452 0.3072 -0.1103
vn 0.9140 0.3546 -0.1970
vn 0.9628 0.1018 0.2505
vn 0.9365 0.0551 0.3463
vn 0.9194 0.0157 0.3929
vn 0.9818 0.1492 -0.1178
vn 0.9511 0.2987 -0.0786
vn 0.8021 0.5897 -0.0944
vn 0.9383 -0.1420 0.3154
vn 0.9082 -0.1253 0.3993
vn 0.9980 0.0001 -0.0629
vn -0.0552 0.4962 0.8665
vn 0.1260 -0.0000 0.9920
vn 0.3703 0.2048 0.9061
vn 0.3067 -0.1730 0.9359
vn -0.0551 0.4963 0.8664
vn 0.9597 0.2675 0.0865
vn 0.8326 0.1728 0.5263
vn 0.9605 0.2519 0.1181
vn -0.9227 0.3313 -0.1972
vn -0.5287 0.6234 -0.5761
vn -0.8176 0.4481 -0.3616
vn -0.4326 0.6607 -0.6135
vn -0.7290 0.5957 -0.3371
vn -0.7923 0.6040 -0.0863
vn -0.6599 0.6992 -0.2750
vn -0.4547 0.8546 -0.2509
vn -0.8021 0.5897 -0.0944
vn -0.9511 0.2987 -0.0786
vn -0.7797 0.6221 -0.0709
vn -0.9365 0.0551 0.3463
vn -0.9955 0.0392 -0.0862
vn -0.9980 -0.0001 -0.0628
vn -0.7092 0.0709 -0.7014
vn -0.0000 0.7149 -0.6992
vn -0.0000 0.8121 -0.5835
vn 0.2040 0.6436 -0.7377
vn -0.9437 -0.1573 0.2910
vn -0.9703 0.1174 0.2113
vn -0.9818 0.1492 -0.1178
vn -0.6671 0.1491 -0.7299
vn -0.5841 0.1894 -0.7893
vn -0.7603 0.4311 -0.4859
vn -0.9140 0.3546 -0.1970
vn -0.9452 0.3072 -0.1103
vn -0.9628 0.1018 0.2505
vn -0.4157 0.7921 0.4470
vn -0.0001 0.9125 0.4091
vn -0.0000 0.9547 0.2974
vn 0.4077 0.8780 0.2509
vn -0.7707 0.5820 0.2595
vn -0.4077 0.8780 0.2509
vn -0.5026 0.8639 0.0314
vn -0.0000 0.9997 0.0237
vn -0.9832 0.1809 -0.0236
vn -0.9954 0.0157 -0.0941
vn -0.9911 -0.0944 -0.0944
vn -0.9885 -0.1412 -0.0548
vn -0.2346 0.1407 0.9619
vn -0.1258 0.0550 0.9905
vn -0.1491 -0.1256 0.9808
vn -0.9280 0.0472 0.3696
vn -0.9125 0.3225 0.2517
vn -0.8849 0.3133 -0.3446
vn -0.9597 0.2675 0.0865
vn -0.9605 0.2519 0.1181
vn 0.5026 0.8639 0.0314
vn 0.3703 0.2049 0.9060
vn 0.4091 0.6530 0.6373
vn 0.6064 0.2205 0.7639
vn 0.6469 0.5916 0.4812
vn 0.8122 0.1341 0.5678
vn 0.9046 0.2596 0.3382
vn 0.9377 -0.0236 0.3467
vn 0.9776 -0.0548 0.2034
vn 0.8341 0.3698 0.4092
vn 0.9125 0.3225 0.2517
vn 0.9280 0.0472 0.3696
vn 0.9196 -0.1336 0.3694
vn 0.9812 -0.1727 0.0864
vn 0.9572 -0.1569 0.2432
vn 0.8637 -0.1570 0.4789
vn 0.6466 -0.0946 0.7569
vn 0.5868 -0.0782 0.8059
vn -0.0000 0.6832 -0.7303
vn -0.1807 0.7148 -0.6756
vn -0.3537 0.6209 -0.6995
vn -0.3940 0.7170 -0.5751
vn 0.3940 0.7170 -0.5751
vn -0.1256 0.8555 -0.5023
vn -0.6470 0.3629 -0.6706
vn -0.3691 0.6126 -0.6990
vn 0.8334 0.3538 -0.4246
vn -0.0000 0.9835 -0.1810
vn -0.0000 0.8976 -0.4409
vn -0.4333 0.7721 -0.4648
vn -0.6345 0.7364 -0.2350
vn -0.9383 -0.1419 0.3154
vn -0.9910 0.0079 -0.1337
vn -0.3527 0.4860 -0.7996
vn -0.0000 0.7452 -0.6668
vn 0.5841 0.1894 -0.7893
vn -0.0000 0.3537 -0.9354
vn -0.9194 0.0157 0.3929
vn -0.0000 0.1491 -0.9888
vn -0.5826 0.6377 -0.5039
vn -0.6514 0.5886 0.4787
vn -0.3785 0.6623 0.6466
vn -0.0000 0.8308 0.5565
vn 0.4157 0.7921 0.4470
vn -0.9457 0.3152 0.0788
vn -0.6745 -0.0392 0.7372
vn -0.8253 0.1572 0.5424
vn -0.8866 -0.1177 0.4472
vn -0.9352 -0.0157 0.3536
vn -0.9591 -0.1569 0.2358
vn 0.9954 0.0157 -0.0941
vn 0.9832 0.1809 -0.0236
vn -0.8982 0.2600 0.3545
vn -0.9776 -0.0548 0.2034
vn -0.9812 -0.1727 0.0864
vn 0.8849 0.3133 -0.3446
vn -0.8341 0.3698 0.4092
vn -0.8326 0.1728 0.5263
vn -0.8332 0.1415 0.5345
vt 0.718750 0.840820
vt 0.722656 0.753906
vt 0.790039 0.845703
vt 0.591797 0.669922
vt 0.597656 0.820312
vt 0.669922 0.808594
vt 0.777344 0.683594
vt 0.847656 0.691406
vt 0.847656 0.832031
vt 0.095306 0.220306
vt 0.190613 0.248413
vt 0.011322 0.375977
vt 0.505859 0.373047
vt 0.416016 0.391602
vt 0.515625 0.259094
vt 0.113281 0.986328
vt 0.089844 0.699219
vt 0.183594 0.855469
vt 0.175781 0.667969
vt 0.183594 0.986328
vt 0.253906 0.986328
vt 0.915344 0.218750
vt 0.988220 0.145813
vt 0.977753 0.052856
vt 0.656250 0.695312
vt 0.744415 0.703125
vt 0.636261 0.454834
vt 0.425781 0.986328
vt 0.347656 0.986328
vt 0.347656 0.878906
vt 0.503906 0.582031
vt 0.542969 0.582031
vt 0.660156 0.986328
vt 0.777344 0.986328
vt 0.595703 0.871094
vt 0.518555 0.987305
vt 0.661133 0.777344
vt 0.577148 0.666016
vt 0.498047 0.746094
vt 0.506836 0.891602
vt 0.545898 0.934570
vt 0.536133 0.818359
vt 0.655273 0.920898
vt 0.263000 0.382812
vt 0.168732 0.385925
vt 0.299805 0.251953
vt 0.308594 0.986328
vt 0.638885 0.668396
vt 0.562500 0.589386
vt 0.440094 0.785156
vt 0.488281 0.878906
vt 0.503906 0.986328
vt 0.847656 0.550781
vt 0.777344 0.542969
vt 0.777344 0.441406
vt 0.250000 0.119415
vt 0.251282 0.667969
vt 0.332031 0.729156
vt 0.347656 0.604156
vt 0.420563 0.664062
vt 0.847656 0.441406
vt 0.987793 0.441406
vt 0.987793 0.542969
vt 0.337891 0.435547
vt 0.145813 0.611969
vt 0.855469 0.986328
vt 0.855469 0.878906
vt 0.143219 0.448761
vt 0.129333 0.545135
vt 0.052063 0.491302
vt 0.028625 0.616302
vt 0.917969 0.012238
vt 0.420898 0.475586
vt 0.491211 0.509766
vt 0.465820 0.704102
vt 0.012970 0.777344
vt 0.012878 0.986328
vt 0.987793 0.683594
vt 0.638000 0.162750
vt 0.605469 0.020050
vt 0.496094 0.012238
vt 0.499023 0.163086
vt 0.321411 0.132812
vt 0.316406 0.012238
vt 0.541656 0.516479
vt 0.753906 0.425781
vt 0.628906 0.338531
vt 0.356445 0.590820
vt 0.847656 0.144531
vt 0.746094 0.261719
vt 0.897125 0.315094
vt 0.769531 0.339844
vt 0.886719 0.363281
vt 0.769531 0.425781
vt 0.753906 0.339844
vt 0.940094 0.412750
vt 0.950500 0.363281
vt 0.963531 0.312500
vt 0.977844 0.242188
vt 0.269531 0.012238
vt 0.014038 0.012482
vt 0.027344 0.628906
vt 0.987793 0.832031
vt 0.792969 0.832031
vt 0.785156 0.012238
s 1
usemtl m_hair0105
f 1/1/1 2/2/2 3/3/3
f 4/4/4 5/5/5 6/6/6
f 7/7/7 8/8/8 9/9/9
f 10/10/10 11/11/11 12/12/12
f 13/13/13 14/14/14 15/15/15
f 16/16/16 17/17/17 18/18/18
f 19/18/19 20/19/20 21/17/21
f 19/18/19 22/20/22 23/21/23
f 24/22/24 25/23/25 26/24/26
f 27/25/27 28/26/28 29/27/29
f 30/28/30 31/29/31 32/30/32
f 33/13/33 34/31/34 35/32/35
f 36/32/36 37/31/37 38/13/38
f 39/1/39 40/33/40 41/34/41
f 42/35/42 43/33/43 44/36/44
f 2/2/2 1/1/1 45/37/45
f 46/37/46 47/38/47 48/35/48
f 48/35/48 47/38/47 49/39/49
f 48/35/48 49/39/49 50/40/44
f 51/30/50 19/18/19 23/21/23
f 52/41/51 53/42/52 54/43/53
f 54/43/53 53/42/52 55/5/54
f 56/44/55 57/45/56 58/46/57
f 5/5/5 4/4/4 59/42/58
f 23/21/23 60/47/52 51/30/50
f 51/30/50 60/47/52 61/29/59
f 51/30/50 61/29/59 62/28/60
f 63/27/61 64/48/62 65/49/63
f 66/50/64 51/30/50 67/51/37
f 67/51/37 51/30/50 62/28/60
f 67/51/37 62/28/60 68/52/65
f 8/8/8 7/7/7 69/53/66
f 69/53/66 7/7/7 70/54/67
f 69/53/66 70/54/67 71/55/68
f 11/11/11 10/10/10 72/56/69
f 73/57/70 74/58/71 75/59/72
f 75/59/72 74/58/71 76/60/73
f 77/61/74 78/62/75 79/63/76
f 58/46/57 80/64/77 56/44/55
f 56/44/55 80/64/77 81/65/78
f 56/44/55 81/65/78 57/45/56
f 82/66/79 83/67/80 41/34/41
f 41/34/41 83/67/80 84/3/81
f 41/34/41 84/3/81 39/1/39
f 85/68/82 86/69/83 87/70/84
f 87/70/84 86/69/83 88/71/85
f 24/22/24 26/24/26 89/72/86
f 14/14/14 13/13/13 90/73/87
f 90/73/87 13/13/13 91/74/88
f 90/73/87 91/74/88 92/75/89
f 93/41/90 94/43/91 95/42/92
f 95/42/92 94/43/91 96/5/93
f 97/45/94 98/46/95 99/11/96
f 99/11/96 98/46/95 100/56/97
f 101/65/98 102/64/99 103/44/100
f 104/61/101 105/55/28 106/53/102
f 106/53/102 105/55/28 107/54/103
f 106/53/102 107/54/103 108/7/104
f 17/17/17 16/16/16 109/76/105
f 109/76/105 16/16/16 110/77/106
f 109/76/105 110/77/106 111/16/107
f 112/52/108 30/28/30 113/51/34
f 113/51/34 30/28/30 32/30/32
f 113/51/34 32/30/32 114/50/109
f 115/63/110 116/8/111 117/78/112
f 117/78/112 116/8/111 9/9/9
f 118/57/113 119/59/114 120/58/115
f 120/58/115 119/59/114 121/60/116
f 122/79/117 123/80/118 124/81/119
f 124/81/119 123/80/118 125/82/120
f 126/15/121 127/82/122 128/83/123
f 128/83/123 127/82/122 129/84/124
f 130/13/125 131/85/126 29/27/29
f 29/27/29 131/85/126 132/49/127
f 29/27/29 132/49/127 133/48/128
f 85/68/82 134/70/129 135/69/130
f 135/69/130 134/70/129 136/71/131
f 28/26/28 137/86/132 29/27/29
f 29/27/29 137/86/132 138/87/133
f 29/27/29 138/87/133 130/13/125
f 130/13/125 138/87/133 126/15/121
f 102/64/99 139/88/134 140/73/135
f 140/73/135 139/88/134 141/75/136
f 129/84/124 142/83/137 72/56/69
f 72/56/69 142/83/137 58/46/57
f 72/56/69 58/46/57 11/11/11
f 11/11/11 58/46/57 57/45/56
f 11/11/11 57/45/56 12/12/12
f 20/19/20 19/18/19 73/57/70
f 73/57/70 19/18/19 51/30/50
f 73/57/70 51/30/50 74/58/71
f 74/58/71 51/30/50 66/50/64
f 74/58/71 66/50/64 76/60/73
f 89/72/86 143/24/138 144/89/139
f 144/89/139 143/24/138 145/22/140
f 144/89/139 145/22/140 146/90/141
f 146/90/141 145/22/140 147/91/142
f 146/90/141 147/91/142 148/92/143
f 148/92/143 147/91/142 149/93/144
f 148/92/143 149/93/144 150/94/145
f 146/90/141 151/95/146 152/87/147
f 152/87/147 151/95/146 153/86/148
f 152/87/147 153/86/148 63/27/61
f 63/27/61 153/86/148 154/26/80
f 63/27/61 154/26/80 155/25/149
f 156/96/150 150/94/145 157/97/151
f 157/97/151 150/94/145 149/93/144
f 157/97/151 149/93/144 158/98/152
f 158/98/152 149/93/144 147/91/142
f 158/98/152 147/91/142 159/99/153
f 159/99/153 147/91/142 145/22/140
f 159/99/153 145/22/140 160/23/154
f 160/23/154 145/22/140 143/24/138
f 161/41/155 162/5/156 94/43/91
f 94/43/91 162/5/156 163/6/157
f 94/43/91 163/6/157 96/5/93
f 96/5/93 163/6/157 164/4/158
f 96/5/93 164/4/158 95/42/92
f 53/42/52 165/4/159 55/5/54
f 55/5/54 165/4/159 6/6/6
f 55/5/54 6/6/6 54/43/53
f 54/43/53 6/6/6 5/5/5
f 54/43/53 5/5/5 161/41/155
f 161/41/155 5/5/5 59/42/58
f 161/41/155 59/42/58 162/5/156
f 162/5/156 59/42/58 166/4/160
f 162/5/156 166/4/160 163/6/157
f 31/29/31 167/47/92 32/30/32
f 32/30/32 167/47/92 168/21/161
f 32/30/32 168/21/161 18/18/18
f 18/18/18 168/21/161 169/20/162
f 18/18/18 169/20/162 16/16/16
f 84/3/81 170/2/163 39/1/39
f 39/1/39 170/2/163 46/37/46
f 39/1/39 46/37/46 40/33/40
f 40/33/40 46/37/46 48/35/48
f 40/33/40 48/35/48 44/36/44
f 44/36/44 48/35/48 50/40/44
f 44/36/44 50/40/44 42/35/42
f 42/35/42 50/40/44 49/39/49
f 171/100/164 172/101/165 100/56/97
f 100/56/97 172/101/165 173/10/166
f 100/56/97 173/10/166 99/11/96
f 99/11/96 173/10/166 174/12/167
f 99/11/96 174/12/167 97/45/94
f 175/67/28 176/66/168 3/3/3
f 3/3/3 176/66/168 177/34/169
f 3/3/3 177/34/169 1/1/1
f 1/1/1 177/34/169 43/33/43
f 1/1/1 43/33/43 45/37/45
f 45/37/45 43/33/43 42/35/42
f 45/37/45 42/35/42 178/38/170
f 178/38/170 42/35/42 49/39/49
f 22/20/22 19/18/19 111/16/107
f 111/16/107 19/18/19 21/17/21
f 111/16/107 21/17/21 109/76/105
f 109/76/105 21/17/21 179/102/171
f 109/76/105 179/102/171 17/17/17
f 71/55/68 77/61/74 69/53/66
f 69/53/66 77/61/74 79/63/76
f 69/53/66 79/63/76 8/8/8
f 8/8/8 79/63/76 180/78/172
f 8/8/8 180/78/172 9/9/9
f 9/9/9 180/78/172 181/103/173
f 9/9/9 181/103/173 117/78/112
f 182/62/174 104/61/101 115/63/110
f 115/63/110 104/61/101 106/53/102
f 115/63/110 106/53/102 116/8/111
f 116/8/111 106/53/102 108/7/104
f 116/8/111 108/7/104 9/9/9
f 9/9/9 108/7/104 183/104/175
f 9/9/9 183/104/175 7/7/7
f 121/60/116 114/50/109 120/58/115
f 120/58/115 114/50/109 32/30/32
f 120/58/115 32/30/32 118/57/113
f 118/57/113 32/30/32 18/18/18
f 118/57/113 18/18/18 184/19/176
f 184/19/176 18/18/18 17/17/17
f 185/90/177 186/89/178 122/79/117
f 122/79/117 186/89/178 187/105/179
f 122/79/117 187/105/179 123/80/118
f 123/80/118 187/105/179 188/79/180
f 123/80/118 188/79/180 125/82/120
f 125/82/120 188/79/180 15/15/15
f 140/73/135 189/14/181 102/64/99
f 102/64/99 189/14/181 98/46/95
f 102/64/99 98/46/95 103/44/100
f 103/44/100 98/46/95 97/45/94
f 103/44/100 97/45/94 101/65/98
f 25/23/25 24/22/24 190/99/182
f 190/99/182 24/22/24 191/91/183
f 190/99/182 191/91/183 192/98/184
f 192/98/184 191/91/183 193/93/185
f 192/98/184 193/93/185 194/97/186
f 65/49/63 195/85/187 63/27/61
f 63/27/61 195/85/187 196/13/188
f 63/27/61 196/13/188 152/87/147
f 152/87/147 196/13/188 15/15/15
f 152/87/147 15/15/15 146/90/141
f 146/90/141 15/15/15 188/79/180
f 146/90/141 188/79/180 144/89/139
f 144/89/139 188/79/180 187/105/179
f 144/89/139 187/105/179 89/72/86
f 89/72/86 187/105/179 186/89/178
f 89/72/86 186/89/178 24/22/24
f 24/22/24 186/89/178 185/90/177
f 24/22/24 185/90/177 191/91/183
f 191/91/183 185/90/177 197/92/189
f 191/91/183 197/92/189 193/93/185
f 193/93/185 197/92/189 198/94/190
f 193/93/185 198/94/190 194/97/186
f 194/97/186 198/94/190 199/96/191
f 92/75/89 200/88/192 90/73/87
f 90/73/87 200/88/192 80/64/77
f 90/73/87 80/64/77 14/14/14
f 14/14/14 80/64/77 58/46/57
f 14/14/14 58/46/57 15/15/15
f 15/15/15 58/46/57 142/83/137
f 15/15/15 142/83/137 125/82/120
f 125/82/120 142/83/137 129/84/124
f 125/82/120 129/84/124 124/81/119
f 124/81/119 129/84/124 127/82/122
f 124/81/119 127/82/122 122/79/117
f 122/79/117 127/82/122 126/15/121
f 122/79/117 126/15/121 185/90/177
f 185/90/177 126/15/121 138/87/133
f 185/90/177 138/87/133 201/95/193
f 201/95/193 138/87/133 137/86/132
f 141/75/136 202/74/194 140/73/135
f 140/73/135 202/74/194 203/13/195
f 140/73/135 203/13/195 189/14/181
f 189/14/181 203/13/195 126/15/121
f 189/14/181 126/15/121 98/46/95
f 98/46/95 126/15/121 128/83/123
f 98/46/95 128/83/123 100/56/97
f 100/56/97 128/83/123 129/84/124
f 100/56/97 129/84/124 171/100/164
f 171/100/164 129/84/124 72/56/69
f 171/100/164 72/56/69 172/101/165
f 172/101/165 72/56/69 10/10/10
o editpl_m-0000-1822
v 6.970756 45.457401 0.588060
v 7.810607 44.316708 -1.250103
v 6.862389 51.013058 -0.977368
v 7.615545 45.634129 -3.008313
v -6.970756 45.457401 0.588060
v -6.862389 51.013058 -0.977368
v -7.810607 44.316708 -1.250103
v -7.615545 45.634129 -3.008313
vn 0.9278 0.1179 0.3538
vn 0.9768 0.1260 0.1733
vn 0.9899 0.1414 -0.0000
vn -0.9278 0.1179 0.3538
vn -0.9768 0.1260 0.1733
vn -0.9899 0.1414 -0.0000
vt 0.988129 0.972229
vt 0.933594 0.986938
vt 0.933594 0.847656
vt 0.871094 0.972656
s 1
usemtl m_hair0105
f 204/106/196 205/107/197 206/108/197
f 206/108/197 205/107/197 207/109/198
f 208/106/199 209/108/200 210/107/200
f 210/107/200 209/108/200 211/109/201
