mtllib style2_helper_2.mtl
o npc_03-0001-47.001
v 5.373580 18.786928 14.700909
v 10.368889 18.878002 14.736699
v 5.058943 21.797039 13.946327
v 9.736079 25.052349 8.267582
v 12.458222 23.994490 8.342146
v 10.291114 21.306641 -0.510015
v 10.368889 18.878002 14.736699
v 5.373580 18.786928 14.700909
v 11.075939 15.008525 13.158939
v 12.458222 23.994490 8.342146
v 9.736079 25.052349 8.267582
v 10.368889 18.878002 14.736699
v 7.392208 22.663410 12.935248
vn 0.1412 0.0550 0.9885
vn 0.1969 0.3937 0.8979
vn 0.0783 0.3917 0.9167
vn 0.4870 0.8561 0.1728
vn 0.3536 0.9193 0.1729
vn 0.5189 0.7077 -0.4796
vn 0.1970 0.3938 0.8978
vn 0.1412 0.0549 0.9885
vn 0.5422 0.1101 0.8330
vn 0.3536 0.9193 0.1728
vn 0.1969 0.3938 0.8979
vn 0.3304 0.6058 0.7238
vn 0.0784 0.3918 0.9167
vt 0.332001 0.662720
vt 0.375000 0.648407
vt 0.332001 0.605469
vt 0.410126 0.605469
vt 0.410126 0.648407
vt 0.453125 0.648407
vt 0.375000 0.690186
vt 0.355469 0.605469
s 1
usemtl npc03_05
f 1/1/1 2/2/2 3/3/3
f 4/4/4 5/5/5 6/6/6
f 7/2/7 8/1/8 9/7/9
f 10/5/10 11/4/4 12/2/11
f 12/2/11 11/4/4 13/8/12
f 12/2/11 13/8/12 3/3/13
o npc_03-0001-48.001
v -11.075939 15.008525 13.158939
v -5.373580 18.786928 14.700909
v -10.368889 18.878002 14.736699
v -5.058943 21.797039 13.946327
v -10.291114 21.306641 -0.510015
v -12.458222 23.994490 8.342146
v -9.736079 25.052349 8.267582
v -10.368889 18.878002 14.736699
v -7.392208 22.663410 12.935248
v -5.058943 21.797039 13.946327
vn -0.5423 0.1100 0.8330
vn -0.1412 0.0549 0.9885
vn -0.1969 0.3938 0.8978
vn -0.0783 0.3917 0.9167
vn -0.5189 0.7077 -0.4796
vn -0.3536 0.9193 0.1729
vn -0.4870 0.8562 0.1728
vn -0.1969 0.3938 0.8979
vn -0.3304 0.6058 0.7238
vn -0.0784 0.3918 0.9167
vt 0.375000 0.690186
vt 0.332001 0.662720
vt 0.375000 0.648407
vt 0.332001 0.605469
vt 0.453125 0.648407
vt 0.410126 0.648407
vt 0.410126 0.605469
vt 0.355469 0.605469
s 1
usemtl npc03_05
f 14/9/14 15/10/15 16/11/16
f 16/11/16 15/10/15 17/12/17
f 18/13/18 19/14/19 20/15/20
f 20/15/20 19/14/19 21/11/21
f 20/15/20 21/11/21 22/16/22
f 22/16/22 21/11/21 23/12/23
o npc_03-0001-49.001
v -9.736079 25.052349 8.267582
v -7.052824 24.433514 0.715806
v -10.291114 21.306641 -0.510015
v 0.000000 24.370462 -6.507891
v -11.097151 17.161606 -2.138478
v 0.000000 12.813407 -11.002569
v -13.257189 10.620627 -1.926718
v 13.257189 10.620627 -1.926718
v 0.000000 12.813407 -11.002569
v 11.097151 17.161606 -2.138478
v 0.000000 24.370462 -6.507891
v 10.291114 21.306641 -0.510015
v 7.052824 24.433514 0.715806
v 9.736079 25.052349 8.267582
vn -0.4870 0.8562 0.1728
vn -0.5597 0.7331 -0.3863
vn -0.5189 0.7076 -0.4796
vn -0.0000 0.5745 -0.8185
vn -0.6362 0.2906 -0.7147
vn -0.0000 0.2831 -0.9591
vn -0.8735 0.1889 -0.4486
vn 0.8736 0.1888 -0.4486
vn -0.0000 0.2830 -0.9591
vn 0.6362 0.2906 -0.7147
vn 0.5189 0.7076 -0.4796
vn 0.5597 0.7332 -0.3863
vn 0.4870 0.8562 0.1728
vt 0.410126 0.605469
vt 0.453125 0.605469
vt 0.453125 0.648407
vt 0.496094 0.605469
vt 0.453125 0.690186
vt 0.496094 0.748993
vt 0.429688 0.748993
s 1
usemtl npc03_05
f 24/17/24 25/18/25 26/19/26
f 26/19/26 25/18/25 27/20/27
f 26/19/26 27/20/27 28/21/28
f 28/21/28 27/20/27 29/22/29
f 28/21/28 29/22/29 30/23/30
f 31/23/31 32/22/32 33/21/33
f 33/21/33 32/22/32 34/20/27
f 33/21/33 34/20/27 35/19/34
f 35/19/34 34/20/27 36/18/35
f 35/19/34 36/18/35 37/17/36
o npc_03-0001-50.001
v -11.097151 17.161606 -2.138478
v -13.257189 10.620627 -1.926718
v -12.928410 13.955335 -0.527910
v -13.345570 10.064842 5.926294
v -12.772859 12.421089 6.102264
v -11.881976 9.289547 14.650206
v -11.075939 15.008525 13.158939
v -6.441226 8.817830 17.555195
v -5.373580 18.786928 14.700909
v 5.373580 18.786928 14.700909
v 6.441226 8.817830 17.555195
v 11.075939 15.008525 13.158939
v 11.881976 9.289547 14.650206
v 12.772859 12.421089 6.102264
v 13.345570 10.064842 5.926294
v 12.928410 13.955335 -0.527910
v 13.257189 10.620627 -1.926718
v 11.097151 17.161606 -2.138478
vn -0.6362 0.2906 -0.7147
vn -0.8736 0.1889 -0.4485
vn -0.9710 0.2036 -0.1253
vn -0.9805 0.1804 0.0784
vn -0.9685 0.2047 0.1417
vn -0.8643 0.2436 0.4401
vn -0.5423 0.1100 0.8330
vn -0.4257 0.2838 0.8592
vn -0.1412 0.0549 0.9885
vn 0.1412 0.0549 0.9885
vn 0.4257 0.2838 0.8592
vn 0.5423 0.1101 0.8330
vn 0.8643 0.2436 0.4401
vn 0.9685 0.2047 0.1417
vn 0.9805 0.1804 0.0784
vn 0.9710 0.2036 -0.1253
vn 0.8736 0.1889 -0.4485
vn 0.6362 0.2906 -0.7147
vt 0.453125 0.690186
vt 0.429688 0.748993
vt 0.429688 0.713715
vt 0.406250 0.748993
vt 0.398438 0.713715
vt 0.375000 0.748993
vt 0.375000 0.690186
vt 0.332001 0.748993
vt 0.332001 0.662720
s 1
usemtl npc03_05
f 38/24/37 39/25/38 40/26/39
f 40/26/39 39/25/38 41/27/40
f 40/26/39 41/27/40 42/28/41
f 42/28/41 41/27/40 43/29/42
f 42/28/41 43/29/42 44/30/43
f 44/30/43 43/29/42 45/31/44
f 44/30/43 45/31/44 46/32/45
f 47/32/46 48/31/47 49/30/48
f 49/30/48 48/31/47 50/29/49
f 49/30/48 50/29/49 51/28/50
f 51/28/50 50/29/49 52/27/51
f 51/28/50 52/27/51 53/26/52
f 53/26/52 52/27/51 54/25/53
f 53/26/52 54/25/53 55/24/54
o npc_03-0001-41.001
v 1.898429 21.656925 15.565843
v 2.103474 20.423925 15.011092
v 5.454891 25.148092 12.311898
v 8.965395 21.916138 14.023873
v 7.689169 27.754210 8.628469
v 12.207219 24.669371 8.270565
v 6.183153 28.284307 1.992331
v 9.368413 23.186501 -2.785689
v 0.000000 25.995783 -6.782284
v 0.000000 19.721020 -9.302526
v -9.368413 23.186501 -2.785689
vn 0.2829 -0.0236 0.9589
vn 0.3066 0.3616 0.8805
vn 0.5977 0.2910 0.7471
vn 0.2757 0.6223 0.7326
vn 0.6889 0.6420 0.3366
vn 0.6214 0.7787 0.0865
vn 0.7026 0.5921 -0.3947
vn 0.5530 0.6162 -0.5609
vn -0.0000 0.6198 -0.7847
vn -0.0000 0.3700 -0.9290
vn -0.5530 0.6161 -0.5609
vt 0.308594 0.572540
vt 0.312500 0.596069
vt 0.359375 0.541168
vt 0.359375 0.596069
vt 0.402344 0.541168
vt 0.402344 0.596069
vt 0.445312 0.541168
vt 0.445312 0.596069
vt 0.492188 0.541168
vt 0.492188 0.596069
s 1
usemtl npc03_05_2
f 56/33/55 57/34/56 58/35/57
f 58/35/57 57/34/56 59/36/58
f 58/35/57 59/36/58 60/37/59
f 60/37/59 59/36/58 61/38/60
f 60/37/59 61/38/60 62/39/61
f 62/39/61 61/38/60 63/40/62
f 62/39/61 63/40/62 64/41/63
f 64/41/63 63/40/62 65/42/64
f 64/41/63 65/42/64 66/40/65
o npc_03-0001-42.001
v 6.183153 28.284307 1.992331
v 5.801346 30.946470 3.307628
v 7.689169 27.754210 8.628469
v 6.278605 29.134331 9.245853
v 5.454891 25.148092 12.311898
v 4.896322 26.883171 12.702610
v 1.898429 21.656925 15.565843
vn 0.7026 0.5921 -0.3947
vn 0.8479 0.4710 -0.2433
vn 0.6889 0.6419 0.3366
vn 0.7893 0.4262 0.4420
vn 0.5977 0.2910 0.7471
vn 0.5808 0.2432 0.7769
vn 0.2830 -0.0236 0.9588
vt 0.445312 0.541168
vt 0.445312 0.509796
vt 0.402344 0.541168
vt 0.402344 0.509796
vt 0.359375 0.541168
vt 0.359375 0.509796
vt 0.308594 0.572540
s 1
usemtl npc03_05_2
f 67/43/66 68/44/67 69/45/68
f 69/45/68 68/44/67 70/46/69
f 69/45/68 70/46/69 71/47/70
f 71/47/70 70/46/69 72/48/71
f 71/47/70 72/48/71 73/49/72
o npc_03-0001-43.001
v 0.000000 25.995783 -6.782284
v -9.368413 23.186501 -2.785689
v -6.183153 28.284307 1.992331
v -12.207219 24.669371 8.270565
v -7.689169 27.754210 8.628469
v -8.965395 21.916138 14.023873
v -5.454891 25.148092 12.311898
v -2.103474 20.423925 15.011092
v -1.898429 21.656925 15.565843
vn -0.0000 0.6199 -0.7847
vn -0.5530 0.6162 -0.5608
vn -0.7026 0.5921 -0.3947
vn -0.6214 0.7787 0.0865
vn -0.6889 0.6420 0.3366
vn -0.2757 0.6223 0.7326
vn -0.5977 0.2909 0.7471
vn -0.3066 0.3616 0.8805
vn -0.2829 -0.0236 0.9589
vt 0.492188 0.541168
vt 0.445312 0.596069
vt 0.445312 0.541168
vt 0.402344 0.596069
vt 0.402344 0.541168
vt 0.359375 0.596069
vt 0.359375 0.541168
vt 0.312500 0.596069
vt 0.308594 0.572540
s 1
usemtl npc03_05_2
f 74/50/73 75/51/74 76/52/75
f 76/52/75 75/51/74 77/53/76
f 76/52/75 77/53/76 78/54/77
f 78/54/77 77/53/76 79/55/78
f 78/54/77 79/55/78 80/56/79
f 80/56/79 79/55/78 81/57/80
f 80/56/79 81/57/80 82/58/81
o npc_03-0001-45.001
v 6.183153 28.284307 1.992331
v 0.000000 25.995783 -6.782284
v 0.000000 31.952953 -2.227955
v -6.183153 28.284307 1.992331
vn 0.7026 0.5921 -0.3948
vn -0.0000 0.6199 -0.7847
vn -0.0000 0.5745 -0.8185
vn -0.7026 0.5921 -0.3948
vt 0.445312 0.541168
vt 0.492188 0.541168
vt 0.492188 0.509796
s 1
usemtl npc03_05_2
f 83/59/82 84/60/83 85/61/84
f 85/61/84 84/60/83 86/59/85
o npc_03-0001-46.001
v -4.967027 17.579615 14.942494
v -2.393364 19.195595 16.567974
v -2.103474 20.423925 15.011092
v 1.997416 15.935611 15.861115
v 2.393364 19.195595 16.567974
v 0.989870 19.564560 15.950590
v 0.000000 31.952953 -2.227955
v -6.183153 28.284307 1.992331
v -5.801346 30.946470 3.307628
v 0.000000 23.086086 14.924598
v -1.898429 21.656925 15.565843
v -4.896322 26.883171 12.702610
v -3.966551 16.498404 16.878159
v 5.801346 30.946470 3.307628
v 6.183153 28.284307 1.992331
v 1.898429 21.656925 15.565843
v 4.896322 26.883171 12.702610
v 3.966551 16.498404 16.878159
v -4.892786 13.481285 15.363032
v -1.997416 15.935611 15.861115
v -0.989870 19.564560 15.950590
v 0.000000 20.916658 16.019188
v 2.103474 20.423925 15.011092
v 4.892786 13.481285 15.363032
v 4.967027 17.579615 14.942494
v 0.000000 19.109190 15.932695
vn -0.7667 0.3952 0.5059
vn -0.1018 0.4228 0.9005
vn -0.3066 0.3617 0.8805
vn -0.3843 -0.2588 0.8862
vn 0.1018 0.4228 0.9005
vn -0.0079 0.2518 0.9678
vn 0.0001 0.5745 -0.8185
vn -0.7026 0.5921 -0.3947
vn -0.8479 0.4710 -0.2434
vn -0.0000 0.1810 0.9835
vn -0.2830 -0.0236 0.9588
vn -0.5807 0.2433 0.7769
vn -0.2827 -0.0471 0.9581
vn 0.8479 0.4711 -0.2434
vn 0.7026 0.5921 -0.3947
vn -0.0001 0.5745 -0.8185
vn 0.2830 -0.0235 0.9588
vn 0.5807 0.2432 0.7769
vn 0.2827 -0.0471 0.9581
vn -0.4004 -0.3062 0.8636
vn 0.3844 -0.2589 0.8861
vn 0.0079 0.2518 0.9678
vn -0.0000 0.2351 0.9720
vn 0.3066 0.3617 0.8805
vn 0.4004 -0.3062 0.8636
vn 0.7667 0.3952 0.5059
vn -0.0000 -0.0472 0.9989
vt 0.324219 0.658813
vt 0.296875 0.619598
vt 0.312500 0.596069
vt 0.269501 0.658813
vt 0.281250 0.596069
vt 0.492188 0.509796
vt 0.445312 0.541168
vt 0.445312 0.509796
vt 0.273438 0.545074
vt 0.308594 0.572540
vt 0.359375 0.509796
vt 0.296875 0.658813
vt 0.296875 0.694092
vt 0.257812 0.564697
vt 0.257812 0.596069
s 1
usemtl npc03_05_2
f 87/62/86 88/63/87 89/64/88
f 90/65/89 91/63/90 92/66/91
f 93/67/92 94/68/93 95/69/94
f 89/64/88 96/70/95 97/71/96
f 97/71/96 96/70/95 98/72/97
f 88/63/87 87/62/86 99/73/98
f 100/69/99 101/68/100 93/67/101
f 96/70/95 102/71/102 103/72/103
f 91/63/90 90/65/89 104/73/104
f 87/62/86 105/74/105 99/73/98
f 99/73/98 105/74/105 106/65/106
f 99/73/98 106/65/106 88/63/87
f 88/63/87 106/65/106 107/66/107
f 88/63/87 107/66/107 89/64/88
f 89/64/88 107/66/107 108/75/108
f 89/64/88 108/75/108 96/70/95
f 96/70/95 108/75/108 109/64/109
f 96/70/95 109/64/109 102/71/102
f 90/65/89 110/74/110 104/73/104
f 104/73/104 110/74/110 111/62/111
f 104/73/104 111/62/111 91/63/90
f 91/63/90 111/62/111 109/64/109
f 91/63/90 109/64/109 92/66/91
f 92/66/91 109/64/109 108/75/108
f 92/66/91 108/75/108 112/76/112
f 112/76/112 108/75/108 107/66/107
o npc_03-0001-44.001
v -1.898429 21.656925 15.565843
v -4.896322 26.883171 12.702610
v -5.454891 25.148092 12.311898
v -6.278605 29.134331 9.245853
v -7.689169 27.754210 8.628469
v -5.801346 30.946470 3.307628
v -6.183153 28.284307 1.992331
vn -0.2830 -0.0236 0.9588
vn -0.5808 0.2432 0.7769
vn -0.5977 0.2909 0.7471
vn -0.7893 0.4262 0.4420
vn -0.6889 0.6419 0.3366
vn -0.8479 0.4710 -0.2433
vn -0.7026 0.5921 -0.3947
vt 0.308594 0.572540
vt 0.359375 0.509796
vt 0.359375 0.541168
vt 0.402344 0.509796
vt 0.402344 0.541168
vt 0.445312 0.509796
vt 0.445312 0.541168
s 1
usemtl npc03_05_2
f 113/77/113 114/78/114 115/79/115
f 115/79/115 114/78/114 116/80/116
f 115/79/115 116/80/116 117/81/117
f 117/81/117 116/80/116 118/82/118
f 117/81/117 118/82/118 119/83/119
o npc_03-0001-72.001
v 12.429940 4.046955 8.136353
v 9.580528 6.627384 10.140615
v 10.326466 2.722879 10.820633
v 0.000000 6.055253 15.628478
v 10.326466 2.722879 10.820633
v 9.580528 6.627384 10.140615
v 0.000000 6.055253 14.927583
v -9.195186 -5.212233 17.158518
v 0.000000 -6.431222 18.175562
v -6.158406 6.265423 12.642962
v -7.858861 -5.445755 18.282932
v 12.571350 -3.778401 12.502782
v 9.195186 -5.212233 17.158518
v 0.000000 -6.431222 18.876457
v -12.571350 -3.778401 12.502782
v -10.326466 2.722879 10.820633
v -9.584064 6.627384 10.140615
v 0.000000 10.627631 -9.105677
v -12.680943 7.066406 -2.770774
v -12.203684 9.380619 -2.257779
v -12.429940 4.046955 8.136353
v -9.584064 6.627384 10.140615
v -10.326466 2.722879 10.820633
v 12.203684 9.380619 -2.257779
v 12.680943 7.066406 -2.770774
v 0.000000 8.166299 -9.499372
vn 0.8587 0.3624 0.3624
vn 0.6744 0.3764 0.6352
vn 0.5976 0.3459 0.7233
vn 0.1417 0.3622 0.9213
vn 0.5975 0.3460 0.7234
vn -0.3234 0.3392 0.8834
vn -0.4239 0.4082 0.8085
vn -0.0707 0.2512 0.9654
vn -0.3776 0.4483 0.8102
vn -0.2120 0.3534 0.9111
vn 0.6845 0.3934 0.6137
vn 0.4576 0.3945 0.7969
vn 0.0472 0.2515 0.9667
vn -0.6845 0.3934 0.6137
vn -0.5737 0.3537 0.7388
vn -0.6623 0.3785 0.6466
vn -0.0000 0.2425 -0.9701
vn -0.7472 0.2360 -0.6213
vn -0.8874 0.4241 -0.1807
vn -0.8587 0.3624 0.3624
vn -0.6624 0.3785 0.6465
vn -0.5737 0.3536 0.7388
vn 0.8874 0.4241 -0.1807
vn 0.7472 0.2360 -0.6213
vn -0.0000 0.1568 -0.9876
vt 0.425751 0.498016
vt 0.402344 0.450958
vt 0.402344 0.498016
vt 0.300751 0.399994
vt 0.398438 0.435272
vt 0.398438 0.399994
vt 0.253876 0.399994
vt 0.339844 0.498016
vt 0.300751 0.498016
vt 0.253876 0.498016
vt 0.398438 0.498016
vt 0.352356 0.498016
vt 0.316376 0.498016
vt 0.496094 0.450958
vt 0.453125 0.498016
vt 0.453125 0.450958
vt 0.496094 0.498016
s 1
usemtl npc03_05
f 120/84/120 121/85/121 122/86/122
f 123/87/123 124/88/124 125/89/121
f 126/90/125 127/91/126 128/92/127
f 129/90/128 130/93/129 123/87/123
f 131/94/130 124/88/124 132/95/131
f 132/95/131 124/88/124 123/87/123
f 132/95/131 123/87/123 133/96/132
f 133/96/132 123/87/123 130/93/129
f 134/94/133 127/91/126 135/88/134
f 135/88/134 127/91/126 126/90/125
f 135/88/134 126/90/125 136/89/135
f 137/97/136 138/98/137 139/99/138
f 139/99/138 138/98/137 140/84/139
f 139/99/138 140/84/139 141/85/140
f 141/85/140 140/84/139 142/86/141
f 121/85/121 120/84/120 143/99/142
f 143/99/142 120/84/120 144/98/143
f 143/99/142 144/98/143 137/97/136
f 137/97/136 144/98/143 145/100/144
f 137/97/136 145/100/144 138/98/137
