mtllib style2_helper_3.mtl
o npc_03-0001-47.003
v 5.373580 18.786928 14.700909
v 10.368889 18.878002 14.736699
v 5.058943 21.797039 13.946327
v 9.736079 25.052349 8.267582
v 12.458222 23.994490 8.342146
v 10.291114 21.306641 -0.510015
v 10.368889 18.878002 14.736699
v 5.373580 18.786928 14.700909
v 11.075939 15.008525 13.158939
v 12.458222 23.994490 8.342146
v 9.736079 25.052349 8.267582
v 10.368889 18.878002 14.736699
v 7.392208 22.663410 12.935248
vn 0.1412 0.0550 0.9885
vn 0.1969 0.3937 0.8979
vn 0.0783 0.3917 0.9167
vn 0.4870 0.8561 0.1728
vn 0.3536 0.9193 0.1729
vn 0.5189 0.7077 -0.4796
vn 0.1970 0.3938 0.8978
vn 0.1412 0.0549 0.9885
vn 0.5422 0.1101 0.8330
vn 0.3536 0.9193 0.1728
vn 0.1969 0.3938 0.8979
vn 0.3304 0.6058 0.7238
vn 0.0784 0.3918 0.9167
vt 0.332001 0.662720
vt 0.375000 0.648407
vt 0.332001 0.605469
vt 0.410126 0.605469
vt 0.410126 0.648407
vt 0.453125 0.648407
vt 0.375000 0.690186
vt 0.355469 0.605469
s 1
usemtl npc03_05
f 1/1/1 2/2/2 3/3/3
f 4/4/4 5/5/5 6/6/6
f 7/2/7 8/1/8 9/7/9
f 10/5/10 11/4/4 12/2/11
f 12/2/11 11/4/4 13/8/12
f 12/2/11 13/8/12 3/3/13
o npc_03-0001-48.003
v -11.075939 15.008525 13.158939
v -5.373580 18.786928 14.700909
v -10.368889 18.878002 14.736699
v -5.058943 21.797039 13.946327
v -10.291114 21.306641 -0.510015
v -12.458222 23.994490 8.342146
v -9.736079 25.052349 8.267582
v -10.368889 18.878002 14.736699
v -7.392208 22.663410 12.935248
v -5.058943 21.797039 13.946327
vn -0.5423 0.1100 0.8330
vn -0.1412 0.0549 0.9885
vn -0.1969 0.3938 0.8978
vn -0.0783 0.3917 0.9167
vn -0.5189 0.7077 -0.4796
vn -0.3536 0.9193 0.1729
vn -0.4870 0.8562 0.1728
vn -0.1969 0.3938 0.8979
vn -0.3304 0.6058 0.7238
vn -0.0784 0.3918 0.9167
vt 0.375000 0.690186
vt 0.332001 0.662720
vt 0.375000 0.648407
vt 0.332001 0.605469
vt 0.453125 0.648407
vt 0.410126 0.648407
vt 0.410126 0.605469
vt 0.355469 0.605469
s 1
usemtl npc03_05
f 14/9/14 15/10/15 16/11/16
f 16/11/16 15/10/15 17/12/17
f 18/13/18 19/14/19 20/15/20
f 20/15/20 19/14/19 21/11/21
f 20/15/20 21/11/21 22/16/22
f 22/16/22 21/11/21 23/12/23
o npc_03-0001-49.003
v -9.736079 25.052349 8.267582
v -7.052824 24.433514 0.715806
v -10.291114 21.306641 -0.510015
v 0.000000 24.370462 -6.507891
v -11.097151 17.161606 -2.138478
v 0.000000 12.813407 -11.002569
v -13.257189 10.620627 -1.926718
v 13.257189 10.620627 -1.926718
v 0.000000 12.813407 -11.002569
v 11.097151 17.161606 -2.138478
v 0.000000 24.370462 -6.507891
v 10.291114 21.306641 -0.510015
v 7.052824 24.433514 0.715806
v 9.736079 25.052349 8.267582
vn -0.4870 0.8562 0.1728
vn -0.5597 0.7331 -0.3863
vn -0.5189 0.7076 -0.4796
vn -0.0000 0.5745 -0.8185
vn -0.6362 0.2906 -0.7147
vn -0.0000 0.2831 -0.9591
vn -0.8735 0.1889 -0.4486
vn 0.8736 0.1888 -0.4486
vn -0.0000 0.2830 -0.9591
vn 0.6362 0.2906 -0.7147
vn 0.5189 0.7076 -0.4796
vn 0.5597 0.7332 -0.3863
vn 0.4870 0.8562 0.1728
vt 0.410126 0.605469
vt 0.453125 0.605469
vt 0.453125 0.648407
vt 0.496094 0.605469
vt 0.453125 0.690186
vt 0.496094 0.748993
vt 0.429688 0.748993
s 1
usemtl npc03_05
f 24/17/24 25/18/25 26/19/26
f 26/19/26 25/18/25 27/20/27
f 26/19/26 27/20/27 28/21/28
f 28/21/28 27/20/27 29/22/29
f 28/21/28 29/22/29 30/23/30
f 31/23/31 32/22/32 33/21/33
f 33/21/33 32/22/32 34/20/27
f 33/21/33 34/20/27 35/19/34
f 35/19/34 34/20/27 36/18/35
f 35/19/34 36/18/35 37/17/36
o npc_03-0001-50.003
v -11.097151 17.161606 -2.138478
v -13.257189 10.620627 -1.926718
v -12.928410 13.955335 -0.527910
v -13.345570 10.064842 5.926294
v -12.772859 12.421089 6.102264
v -11.881976 9.289547 14.650206
v -11.075939 15.008525 13.158939
v -6.441226 8.817830 17.555195
v -5.373580 18.786928 14.700909
v 5.373580 18.786928 14.700909
v 6.441226 8.817830 17.555195
v 11.075939 15.008525 13.158939
v 11.881976 9.289547 14.650206
v 12.772859 12.421089 6.102264
v 13.345570 10.064842 5.926294
v 12.928410 13.955335 -0.527910
v 13.257189 10.620627 -1.926718
v 11.097151 17.161606 -2.138478
vn -0.6362 0.2906 -0.7147
vn -0.8736 0.1889 -0.4485
vn -0.9710 0.2036 -0.1253
vn -0.9805 0.1804 0.0784
vn -0.9685 0.2047 0.1417
vn -0.8643 0.2436 0.4401
vn -0.5423 0.1100 0.8330
vn -0.4257 0.2838 0.8592
vn -0.1412 0.0549 0.9885
vn 0.1412 0.0549 0.9885
vn 0.4257 0.2838 0.8592
vn 0.5423 0.1101 0.8330
vn 0.8643 0.2436 0.4401
vn 0.9685 0.2047 0.1417
vn 0.9805 0.1804 0.0784
vn 0.9710 0.2036 -0.1253
vn 0.8736 0.1889 -0.4485
vn 0.6362 0.2906 -0.7147
vt 0.453125 0.690186
vt 0.429688 0.748993
vt 0.429688 0.713715
vt 0.406250 0.748993
vt 0.398438 0.713715
vt 0.375000 0.748993
vt 0.375000 0.690186
vt 0.332001 0.748993
vt 0.332001 0.662720
s 1
usemtl npc03_05
f 38/24/37 39/25/38 40/26/39
f 40/26/39 39/25/38 41/27/40
f 40/26/39 41/27/40 42/28/41
f 42/28/41 41/27/40 43/29/42
f 42/28/41 43/29/42 44/30/43
f 44/30/43 43/29/42 45/31/44
f 44/30/43 45/31/44 46/32/45
f 47/32/46 48/31/47 49/30/48
f 49/30/48 48/31/47 50/29/49
f 49/30/48 50/29/49 51/28/50
f 51/28/50 50/29/49 52/27/51
f 51/28/50 52/27/51 53/26/52
f 53/26/52 52/27/51 54/25/53
f 53/26/52 54/25/53 55/24/54
o npc_03-0001-72.005
v 12.429940 4.046955 8.136353
v 9.580528 6.627384 10.140615
v 10.326466 2.722879 10.820633
v 0.000000 6.055253 15.628478
v 10.326466 2.722879 10.820633
v 9.580528 6.627384 10.140615
v 0.000000 6.055253 14.927583
v -9.195186 -5.212233 17.158518
v 0.000000 -6.431222 18.175562
v -6.158406 6.265423 12.642962
v -7.858861 -5.445755 18.282932
v 12.571350 -3.778401 12.502782
v 9.195186 -5.212233 17.158518
v 0.000000 -6.431222 18.876457
v -12.571350 -3.778401 12.502782
v -10.326466 2.722879 10.820633
v -9.584064 6.627384 10.140615
v 0.000000 10.627631 -9.105677
v -12.680943 7.066406 -2.770774
v -12.203684 9.380619 -2.257779
v -12.429940 4.046955 8.136353
v -9.584064 6.627384 10.140615
v -10.326466 2.722879 10.820633
v 12.203684 9.380619 -2.257779
v 12.680943 7.066406 -2.770774
v 0.000000 8.166299 -9.499372
vn 0.8587 0.3624 0.3624
vn 0.6744 0.3764 0.6352
vn 0.5976 0.3459 0.7233
vn 0.1417 0.3622 0.9213
vn 0.5975 0.3460 0.7234
vn -0.3234 0.3392 0.8834
vn -0.4239 0.4082 0.8085
vn -0.0707 0.2512 0.9654
vn -0.3776 0.4483 0.8102
vn -0.2120 0.3534 0.9111
vn 0.6845 0.3934 0.6137
vn 0.4576 0.3945 0.7969
vn 0.0472 0.2515 0.9667
vn -0.6845 0.3934 0.6137
vn -0.5737 0.3537 0.7388
vn -0.6623 0.3785 0.6466
vn -0.0000 0.2425 -0.9701
vn -0.7472 0.2360 -0.6213
vn -0.8874 0.4241 -0.1807
vn -0.8587 0.3624 0.3624
vn -0.6624 0.3785 0.6465
vn -0.5737 0.3536 0.7388
vn 0.8874 0.4241 -0.1807
vn 0.7472 0.2360 -0.6213
vn -0.0000 0.1568 -0.9876
vt 0.425751 0.498016
vt 0.402344 0.450958
vt 0.402344 0.498016
vt 0.300751 0.399994
vt 0.398438 0.435272
vt 0.398438 0.399994
vt 0.253876 0.399994
vt 0.339844 0.498016
vt 0.300751 0.498016
vt 0.253876 0.498016
vt 0.398438 0.498016
vt 0.352356 0.498016
vt 0.316376 0.498016
vt 0.496094 0.450958
vt 0.453125 0.498016
vt 0.453125 0.450958
vt 0.496094 0.498016
s 1
usemtl npc03_05
f 56/33/55 57/34/56 58/35/57
f 59/36/58 60/37/59 61/38/56
f 62/39/60 63/40/61 64/41/62
f 65/39/63 66/42/64 59/36/58
f 67/43/65 60/37/59 68/44/66
f 68/44/66 60/37/59 59/36/58
f 68/44/66 59/36/58 69/45/67
f 69/45/67 59/36/58 66/42/64
f 70/43/68 63/40/61 71/37/69
f 71/37/69 63/40/61 62/39/60
f 71/37/69 62/39/60 72/38/70
f 73/46/71 74/47/72 75/48/73
f 75/48/73 74/47/72 76/33/74
f 75/48/73 76/33/74 77/34/75
f 77/34/75 76/33/74 78/35/76
f 57/34/56 56/33/55 79/48/77
f 79/48/77 56/33/55 80/47/78
f 79/48/77 80/47/78 73/46/71
f 73/46/71 80/47/78 81/49/79
f 73/46/71 81/49/79 74/47/72
o npc_03-0001-41.005
v 1.898429 21.656925 15.565843
v 2.103474 20.423925 15.011092
v 5.454891 25.148092 12.311898
v 8.965395 21.916138 14.023873
v 7.689169 27.754210 8.628469
v 12.207219 24.669371 8.270565
v 6.183153 28.284307 1.992331
v 9.368413 23.186501 -2.785689
v 0.000000 25.995783 -6.782284
v 0.000000 19.721020 -9.302526
v -9.368413 23.186501 -2.785689
vn 0.2829 -0.0236 0.9589
vn 0.3066 0.3616 0.8805
vn 0.5977 0.2910 0.7471
vn 0.2757 0.6223 0.7326
vn 0.6889 0.6420 0.3366
vn 0.6214 0.7787 0.0865
vn 0.7026 0.5921 -0.3947
vn 0.5530 0.6162 -0.5609
vn -0.0000 0.6198 -0.7847
vn -0.0000 0.3700 -0.9290
vn -0.5530 0.6161 -0.5609
vt 0.308594 0.572540
vt 0.312500 0.596069
vt 0.359375 0.541168
vt 0.359375 0.596069
vt 0.402344 0.541168
vt 0.402344 0.596069
vt 0.445312 0.541168
vt 0.445312 0.596069
vt 0.492188 0.541168
vt 0.492188 0.596069
s 1
usemtl npc03_05_2
f 82/50/80 83/51/81 84/52/82
f 84/52/82 83/51/81 85/53/83
f 84/52/82 85/53/83 86/54/84
f 86/54/84 85/53/83 87/55/85
f 86/54/84 87/55/85 88/56/86
f 88/56/86 87/55/85 89/57/87
f 88/56/86 89/57/87 90/58/88
f 90/58/88 89/57/87 91/59/89
f 90/58/88 91/59/89 92/57/90
o npc_03-0001-51.001
v 5.387721 45.378193 7.900730
v 3.786253 45.950321 16.260771
v 0.003535 44.831749 3.814658
v 5.398327 62.745300 10.012362
v 5.398327 60.823402 7.080531
v 3.298389 61.255421 6.442268
v 5.398327 60.823402 7.080531
v 6.593242 61.215721 10.122715
v 6.508396 59.410591 8.401793
v 6.508396 59.765545 12.085223
v 6.062954 45.651413 11.918202
v 5.398327 61.409546 13.809127
v 4.747841 57.427979 14.286333
v 3.298389 61.832226 14.363879
v 0.003535 57.619469 16.720081
v 1.682779 63.240368 16.028131
v -1.675709 63.240368 16.028131
v -6.501325 59.410591 8.401793
v -6.582636 61.215721 10.122715
v -5.391257 60.823402 7.080531
v -3.291318 61.255421 6.442268
v 0.003535 56.683041 4.545378
v -5.391257 60.823402 7.080531
v -3.291318 61.255421 6.442268
v -3.291318 63.170311 9.946746
v -1.675709 61.993355 3.925010
v -1.675709 61.993355 3.925010
v 1.682779 61.993355 3.925010
v 3.298389 61.255421 6.442268
v -5.391257 61.409546 13.809127
v -3.291318 61.832226 14.363879
v -4.740771 57.427979 14.286333
v -6.055884 45.651413 11.918202
v -5.380651 45.378193 7.900730
v -3.779183 45.950321 16.260771
v 0.003535 46.111454 18.590130
v -5.391257 62.745300 10.012362
v -5.391257 60.823402 7.080531
v -5.525596 56.916565 9.374099
v 0.003535 47.180988 4.124842
v -5.196818 47.124943 8.339161
v -5.380651 45.378193 7.900730
v 0.003535 44.831749 3.814658
v 5.203888 47.124943 8.339161
v 5.387721 45.378193 7.900730
v 5.949826 47.239372 11.366433
v 6.062954 45.651413 11.918202
v 4.047862 47.813835 15.825321
v 3.786253 45.950321 16.260771
v 0.003535 48.278549 18.169594
v 0.003535 46.111454 18.590130
v -1.675709 65.008141 9.818498
v 0.003535 65.283691 9.794638
v 1.682779 65.008141 9.818498
v 3.298389 63.170311 9.946746
v -6.501325 59.765545 12.085223
v -5.942756 47.239372 11.366433
v -6.055884 45.651413 11.918202
v 5.532667 56.916565 9.374099
v 5.398327 60.823402 7.080531
v 1.682779 61.993355 3.925010
v -4.040791 47.813835 15.825321
v -3.779183 45.950321 16.260771
vn 0.6436 -0.6907 -0.3297
vn 0.4251 -0.7949 0.4329
vn -0.0000 -0.9471 -0.3209
vn 0.5576 0.8247 -0.0943
vn 0.6371 0.3697 -0.6764
vn 0.6141 0.3779 -0.6928
vn 0.6371 0.3696 -0.6764
vn 0.9253 0.3764 -0.0470
vn 0.8964 -0.1887 -0.4010
vn 0.9656 -0.1256 0.2277
vn 0.9059 -0.4018 0.1339
vn 0.7085 0.4409 0.5511
vn 0.7635 -0.0236 0.6454
vn 0.5580 0.3930 0.7309
vn -0.0000 0.0785 0.9969
vn 0.4005 0.6518 0.6440
vn -0.4005 0.6518 0.6440
vn -0.8964 -0.1887 -0.4010
vn -0.9253 0.3764 -0.0470
vn -0.6371 0.3696 -0.6764
vn -0.6141 0.3779 -0.6929
vn -0.0000 -0.2127 -0.9771
vn -0.6370 0.3697 -0.6764
vn -0.6141 0.3779 -0.6928
vn -0.5435 0.8349 -0.0866
vn -0.4311 0.5095 -0.7447
vn -0.4311 0.5096 -0.7446
vn 0.4311 0.5096 -0.7446
vn 0.6141 0.3779 -0.6929
vn -0.7085 0.4409 0.5511
vn -0.5580 0.3930 0.7309
vn -0.7635 -0.0236 0.6454
vn -0.9059 -0.4018 0.1340
vn -0.6437 -0.6907 -0.3296
vn -0.4251 -0.7949 0.4329
vn -0.0000 -0.6750 0.7378
vn -0.5576 0.8247 -0.0942
vn -0.9253 -0.1882 -0.3293
vn -0.0000 0.1096 -0.9940
vn -0.8471 0.0784 -0.5255
vn -0.6436 -0.6907 -0.3296
vn 0.8471 0.0784 -0.5255
vn 0.9940 0.0391 0.1018
vn 0.6921 0.0944 0.7156
vn 0.4250 -0.7950 0.4329
vn -0.0000 0.1568 0.9876
vn 0.0001 -0.6750 0.7378
vn -0.4955 0.8651 -0.0786
vn -0.0000 0.9956 -0.0941
vn 0.4955 0.8651 -0.0786
vn 0.5435 0.8349 -0.0867
vn -0.9656 -0.1256 0.2277
vn -0.9940 0.0391 0.1017
vn -0.9059 -0.4018 0.1339
vn 0.9253 -0.1882 -0.3293
vn 0.6370 0.3697 -0.6764
vn 0.4311 0.5095 -0.7447
vn -0.6921 0.0944 0.7156
vn -0.4250 -0.7950 0.4329
vt 0.105469 0.552917
vt 0.027344 0.552917
vt 0.128876 0.505859
vt 0.148407 0.537231
vt 0.148438 0.505859
vt 0.179688 0.505859
vt 0.070282 0.592133
vt 0.113251 0.564697
vt 0.078125 0.619598
vt 0.113251 0.603912
vt 0.066376 0.568604
vt 0.148407 0.568604
vt 0.148438 0.650970
vt 0.179688 0.568604
vt 0.244141 0.636719
vt 0.214844 0.541168
vt 0.042969 0.588226
vt 0.009979 0.651733
vt 0.070587 0.591705
vt 0.179688 0.533325
vt 0.214844 0.505859
vt 0.023438 0.576447
vt 0.009979 0.505859
vt 0.082001 0.650970
vt 0.009979 0.721558
vt 0.058594 0.721558
vt 0.050751 0.745728
vt 0.009979 0.745728
vt 0.082001 0.721558
vt 0.082001 0.745728
vt 0.148438 0.721558
vt 0.148438 0.745728
vt 0.244141 0.721558
vt 0.244141 0.745728
vt 0.214844 0.521545
vt 0.244141 0.521545
s 1
usemtl npc03_05
f 93/60/91 94/61/92 95/62/93
f 96/63/94 97/64/95 98/65/96
f 99/66/97 100/67/98 101/68/99
f 101/68/99 100/67/98 102/69/100
f 94/61/92 93/60/91 103/70/101
f 97/64/95 96/63/94 100/67/98
f 100/67/98 96/63/94 104/71/102
f 100/67/98 104/71/102 102/69/100
f 105/72/103 106/73/104 107/74/105
f 107/74/105 106/73/104 108/75/106
f 107/74/105 108/75/106 109/75/107
f 110/68/108 111/67/109 112/66/110
f 113/76/111 114/77/112 115/78/113
f 115/78/113 114/77/112 110/68/108
f 116/65/114 117/79/115 118/80/116
f 113/76/111 119/81/117 114/77/112
f 114/77/112 119/81/117 120/81/118
f 114/77/112 120/81/118 121/76/119
f 117/79/115 122/71/120 123/73/121
f 123/73/121 122/71/120 124/72/122
f 125/70/123 126/60/124 127/61/125
f 127/61/125 126/60/124 95/62/93
f 127/61/125 95/62/93 128/82/126
f 128/82/126 95/62/93 94/61/92
f 129/63/127 130/64/113 111/67/109
f 131/83/128 132/84/129 133/85/130
f 133/85/130 132/84/129 134/86/131
f 135/87/93 136/85/132 137/86/91
f 137/86/91 136/85/132 138/88/133
f 137/86/91 138/88/133 139/89/101
f 139/89/101 138/88/133 140/90/134
f 139/89/101 140/90/134 141/91/135
f 141/91/135 140/90/134 142/92/136
f 141/91/135 142/92/136 143/93/137
f 144/94/138 109/75/107 145/95/139
f 145/95/139 109/75/107 108/75/106
f 145/95/139 108/75/106 146/94/140
f 146/94/140 108/75/106 106/73/104
f 146/94/140 106/73/104 147/79/141
f 122/71/120 148/69/142 124/72/122
f 124/72/122 148/69/142 131/83/128
f 124/72/122 131/83/128 149/88/143
f 149/88/143 131/83/128 133/85/130
f 149/88/143 133/85/130 150/89/144
f 150/89/144 133/85/130 134/86/131
f 116/65/114 130/64/113 117/79/115
f 117/79/115 130/64/113 129/63/127
f 117/79/115 129/63/127 122/71/120
f 122/71/120 129/63/127 111/67/109
f 122/71/120 111/67/109 148/69/142
f 148/69/142 111/67/109 110/68/108
f 148/69/142 110/68/108 131/83/128
f 131/83/128 110/68/108 114/77/112
f 131/83/128 114/77/112 132/84/129
f 132/84/129 114/77/112 151/83/145
f 121/76/119 152/78/146 114/77/112
f 114/77/112 152/78/146 101/68/99
f 114/77/112 101/68/99 151/83/145
f 151/83/145 101/68/99 102/69/100
f 151/83/145 102/69/100 105/72/103
f 105/72/103 102/69/100 104/71/102
f 105/72/103 104/71/102 106/73/104
f 106/73/104 104/71/102 96/63/94
f 106/73/104 96/63/94 147/79/141
f 147/79/141 96/63/94 98/65/96
f 147/79/141 98/65/96 146/94/140
f 146/94/140 98/65/96 153/80/147
f 146/94/140 153/80/147 145/95/139
f 145/95/139 153/80/147 118/80/116
f 145/95/139 118/80/116 144/94/138
f 144/94/138 118/80/116 117/79/115
f 144/94/138 117/79/115 109/75/107
f 109/75/107 117/79/115 123/73/121
f 109/75/107 123/73/121 107/74/105
f 107/74/105 123/73/121 124/72/122
f 107/74/105 124/72/122 154/90/148
f 154/90/148 124/72/122 149/88/143
f 154/90/148 149/88/143 155/91/149
f 155/91/149 149/88/143 150/89/144
f 155/91/149 143/93/137 154/90/148
f 154/90/148 143/93/137 142/92/136
f 154/90/148 142/92/136 107/74/105
f 107/74/105 142/92/136 140/90/134
f 107/74/105 140/90/134 105/72/103
f 105/72/103 140/90/134 138/88/133
f 105/72/103 138/88/133 151/83/145
f 151/83/145 138/88/133 136/85/132
f 151/83/145 136/85/132 132/84/129
f 132/84/129 136/85/132 135/87/93
f 132/84/129 135/87/93 134/86/131
o npc_03-0001-42.005
v 6.183153 28.284307 1.992331
v 5.801346 30.946470 3.307628
v 7.689169 27.754210 8.628469
v 6.278605 29.134331 9.245853
v 5.454891 25.148092 12.311898
v 4.896322 26.883171 12.702610
v 1.898429 21.656925 15.565843
vn 0.7026 0.5921 -0.3947
vn 0.8479 0.4710 -0.2433
vn 0.6889 0.6419 0.3366
vn 0.7893 0.4262 0.4420
vn 0.5977 0.2910 0.7471
vn 0.5808 0.2432 0.7769
vn 0.2830 -0.0236 0.9588
vt 0.445312 0.541168
vt 0.445312 0.509796
vt 0.402344 0.541168
vt 0.402344 0.509796
vt 0.359375 0.541168
vt 0.359375 0.509796
vt 0.308594 0.572540
s 1
usemtl npc03_05_2
f 156/96/150 157/97/151 158/98/152
f 158/98/152 157/97/151 159/99/153
f 158/98/152 159/99/153 160/100/154
f 160/100/154 159/99/153 161/101/155
f 160/100/154 161/101/155 162/102/156
o npc_03-0001-43.005
v 0.000000 25.995783 -6.782284
v -9.368413 23.186501 -2.785689
v -6.183153 28.284307 1.992331
v -12.207219 24.669371 8.270565
v -7.689169 27.754210 8.628469
v -8.965395 21.916138 14.023873
v -5.454891 25.148092 12.311898
v -2.103474 20.423925 15.011092
v -1.898429 21.656925 15.565843
vn -0.0000 0.6199 -0.7847
vn -0.5530 0.6162 -0.5608
vn -0.7026 0.5921 -0.3947
vn -0.6214 0.7787 0.0865
vn -0.6889 0.6420 0.3366
vn -0.2757 0.6223 0.7326
vn -0.5977 0.2909 0.7471
vn -0.3066 0.3616 0.8805
vn -0.2829 -0.0236 0.9589
vt 0.492188 0.541168
vt 0.445312 0.596069
vt 0.445312 0.541168
vt 0.402344 0.596069
vt 0.402344 0.541168
vt 0.359375 0.596069
vt 0.359375 0.541168
vt 0.312500 0.596069
vt 0.308594 0.572540
s 1
usemtl npc03_05_2
f 163/103/157 164/104/158 165/105/159
f 165/105/159 164/104/158 166/106/160
f 165/105/159 166/106/160 167/107/161
f 167/107/161 166/106/160 168/108/162
f 167/107/161 168/108/162 169/109/163
f 169/109/163 168/108/162 170/110/164
f 169/109/163 170/110/164 171/111/165
o npc_03-0001-45.005
v 6.183153 28.284307 1.992331
v 0.000000 25.995783 -6.782284
v 0.000000 31.952953 -2.227955
v -6.183153 28.284307 1.992331
vn 0.7026 0.5921 -0.3948
vn -0.0000 0.6199 -0.7847
vn -0.0000 0.5745 -0.8185
vn -0.7026 0.5921 -0.3948
vt 0.445312 0.541168
vt 0.492188 0.541168
vt 0.492188 0.509796
s 1
usemtl npc03_05_2
f 172/112/166 173/113/167 174/114/168
f 174/114/168 173/113/167 175/112/169
o npc_03-0001-46.005
v -4.967027 17.579615 14.942494
v -2.393364 19.195595 16.567974
v -2.103474 20.423925 15.011092
v 1.997416 15.935611 15.861115
v 2.393364 19.195595 16.567974
v 0.989870 19.564560 15.950590
v 0.000000 31.952953 -2.227955
v -6.183153 28.284307 1.992331
v -5.801346 30.946470 3.307628
v 0.000000 23.086086 14.924598
v -1.898429 21.656925 15.565843
v -4.896322 26.883171 12.702610
v -3.966551 16.498404 16.878159
v 5.801346 30.946470 3.307628
v 6.183153 28.284307 1.992331
v 1.898429 21.656925 15.565843
v 4.896322 26.883171 12.702610
v 3.966551 16.498404 16.878159
v -4.892786 13.481285 15.363032
v -1.997416 15.935611 15.861115
v -0.989870 19.564560 15.950590
v 0.000000 20.916658 16.019188
v 2.103474 20.423925 15.011092
v 4.892786 13.481285 15.363032
v 4.967027 17.579615 14.942494
v 0.000000 19.109190 15.932695
vn -0.7667 0.3952 0.5059
vn -0.1018 0.4228 0.9005
vn -0.3066 0.3617 0.8805
vn -0.3843 -0.2588 0.8862
vn 0.1018 0.4228 0.9005
vn -0.0079 0.2518 0.9678
vn 0.0001 0.5745 -0.8185
vn -0.7026 0.5921 -0.3947
vn -0.8479 0.4710 -0.2434
vn -0.0000 0.1810 0.9835
vn -0.2830 -0.0236 0.9588
vn -0.5807 0.2433 0.7769
vn -0.2827 -0.0471 0.9581
vn 0.8479 0.4711 -0.2434
vn 0.7026 0.5921 -0.3947
vn -0.0001 0.5745 -0.8185
vn 0.2830 -0.0235 0.9588
vn 0.5807 0.2432 0.7769
vn 0.2827 -0.0471 0.9581
vn -0.4004 -0.3062 0.8636
vn 0.3844 -0.2589 0.8861
vn 0.0079 0.2518 0.9678
vn -0.0000 0.2351 0.9720
vn 0.3066 0.3617 0.8805
vn 0.4004 -0.3062 0.8636
vn 0.7667 0.3952 0.5059
vn -0.0000 -0.0472 0.9989
vt 0.324219 0.658813
vt 0.296875 0.619598
vt 0.312500 0.596069
vt 0.269501 0.658813
vt 0.281250 0.596069
vt 0.492188 0.509796
vt 0.445312 0.541168
vt 0.445312 0.509796
vt 0.273438 0.545074
vt 0.308594 0.572540
vt 0.359375 0.509796
vt 0.296875 0.658813
vt 0.296875 0.694092
vt 0.257812 0.564697
vt 0.257812 0.596069
s 1
usemtl npc03_05_2
f 176/115/170 177/116/171 178/117/172
f 179/118/173 180/116/174 181/119/175
f 182/120/176 183/121/177 184/122/178
f 178/117/172 185/123/179 186/124/180
f 186/124/180 185/123/179 187/125/181
f 177/116/171 176/115/170 188/126/182
f 189/122/183 190/121/184 182/120/185
f 185/123/179 191/124/186 192/125/187
f 180/116/174 179/118/173 193/126/188
f 176/115/170 194/127/189 188/126/182
f 188/126/182 194/127/189 195/118/190
f 188/126/182 195/118/190 177/116/171
f 177/116/171 195/118/190 196/119/191
f 177/116/171 196/119/191 178/117/172
f 178/117/172 196/119/191 197/128/192
f 178/117/172 197/128/192 185/123/179
f 185/123/179 197/128/192 198/117/193
f 185/123/179 198/117/193 191/124/186
f 179/118/173 199/127/194 193/126/188
f 193/126/188 199/127/194 200/115/195
f 193/126/188 200/115/195 180/116/174
f 180/116/174 200/115/195 198/117/193
f 180/116/174 198/117/193 181/119/175
f 181/119/175 198/117/193 197/128/192
f 181/119/175 197/128/192 201/129/196
f 201/129/196 197/128/192 196/119/191
o npc_03-0001-44.005
v -1.898429 21.656925 15.565843
v -4.896322 26.883171 12.702610
v -5.454891 25.148092 12.311898
v -6.278605 29.134331 9.245853
v -7.689169 27.754210 8.628469
v -5.801346 30.946470 3.307628
v -6.183153 28.284307 1.992331
vn -0.2830 -0.0236 0.9588
vn -0.5808 0.2432 0.7769
vn -0.5977 0.2909 0.7471
vn -0.7893 0.4262 0.4420
vn -0.6889 0.6419 0.3366
vn -0.8479 0.4710 -0.2433
vn -0.7026 0.5921 -0.3947
vt 0.308594 0.572540
vt 0.359375 0.509796
vt 0.359375 0.541168
vt 0.402344 0.509796
vt 0.402344 0.541168
vt 0.445312 0.509796
vt 0.445312 0.541168
s 1
usemtl npc03_05_2
f 202/130/197 203/131/198 204/132/199
f 204/132/199 203/131/198 205/133/200
f 204/132/199 205/133/200 206/134/201
f 206/134/201 205/133/200 207/135/202
f 206/134/201 207/135/202 208/136/203
