mtllib style2_helper_4.mtl
o npc_03-0001-47.006
v 5.373580 18.786928 14.700909
v 10.368889 18.878002 14.736699
v 5.058943 21.797039 13.946327
v 9.736079 25.052349 8.267582
v 12.458222 23.994490 8.342146
v 10.291114 21.306641 -0.510015
v 10.368889 18.878002 14.736699
v 5.373580 18.786928 14.700909
v 11.075939 15.008525 13.158939
v 12.458222 23.994490 8.342146
v 9.736079 25.052349 8.267582
v 10.368889 18.878002 14.736699
v 7.392208 22.663410 12.935248
vn 0.1412 0.0550 0.9885
vn 0.1969 0.3937 0.8979
vn 0.0783 0.3917 0.9167
vn 0.4870 0.8561 0.1728
vn 0.3536 0.9193 0.1729
vn 0.5189 0.7077 -0.4796
vn 0.1970 0.3938 0.8978
vn 0.1412 0.0549 0.9885
vn 0.5422 0.1101 0.8330
vn 0.3536 0.9193 0.1728
vn 0.1969 0.3938 0.8979
vn 0.3304 0.6058 0.7238
vn 0.0784 0.3918 0.9167
vt 0.332001 0.662720
vt 0.375000 0.648407
vt 0.332001 0.605469
vt 0.410126 0.605469
vt 0.410126 0.648407
vt 0.453125 0.648407
vt 0.375000 0.690186
vt 0.355469 0.605469
s 1
usemtl npc03_05
f 1/1/1 2/2/2 3/3/3
f 4/4/4 5/5/5 6/6/6
f 7/2/7 8/1/8 9/7/9
f 10/5/10 11/4/4 12/2/11
f 12/2/11 11/4/4 13/8/12
f 12/2/11 13/8/12 3/3/13
o npc_03-0001-48.006
v -11.075939 15.008525 13.158939
v -5.373580 18.786928 14.700909
v -10.368889 18.878002 14.736699
v -5.058943 21.797039 13.946327
v -10.291114 21.306641 -0.510015
v -12.458222 23.994490 8.342146
v -9.736079 25.052349 8.267582
v -10.368889 18.878002 14.736699
v -7.392208 22.663410 12.935248
v -5.058943 21.797039 13.946327
vn -0.5423 0.1100 0.8330
vn -0.1412 0.0549 0.9885
vn -0.1969 0.3938 0.8978
vn -0.0783 0.3917 0.9167
vn -0.5189 0.7077 -0.4796
vn -0.3536 0.9193 0.1729
vn -0.4870 0.8562 0.1728
vn -0.1969 0.3938 0.8979
vn -0.3304 0.6058 0.7238
vn -0.0784 0.3918 0.9167
vt 0.375000 0.690186
vt 0.332001 0.662720
vt 0.375000 0.648407
vt 0.332001 0.605469
vt 0.453125 0.648407
vt 0.410126 0.648407
vt 0.410126 0.605469
vt 0.355469 0.605469
s 1
usemtl npc03_05
f 14/9/14 15/10/15 16/11/16
f 16/11/16 15/10/15 17/12/17
f 18/13/18 19/14/19 20/15/20
f 20/15/20 19/14/19 21/11/21
f 20/15/20 21/11/21 22/16/22
f 22/16/22 21/11/21 23/12/23
o npc_03-0001-49.006
v -9.736079 25.052349 8.267582
v -7.052824 24.433514 0.715806
v -10.291114 21.306641 -0.510015
v 0.000000 24.370462 -6.507891
v -11.097151 17.161606 -2.138478
v 0.000000 12.813407 -11.002569
v -13.257189 10.620627 -1.926718
v 13.257189 10.620627 -1.926718
v 0.000000 12.813407 -11.002569
v 11.097151 17.161606 -2.138478
v 0.000000 24.370462 -6.507891
v 10.291114 21.306641 -0.510015
v 7.052824 24.433514 0.715806
v 9.736079 25.052349 8.267582
vn -0.4870 0.8562 0.1728
vn -0.5597 0.7331 -0.3863
vn -0.5189 0.7076 -0.4796
vn -0.0000 0.5745 -0.8185
vn -0.6362 0.2906 -0.7147
vn -0.0000 0.2831 -0.9591
vn -0.8735 0.1889 -0.4486
vn 0.8736 0.1888 -0.4486
vn -0.0000 0.2830 -0.9591
vn 0.6362 0.2906 -0.7147
vn 0.5189 0.7076 -0.4796
vn 0.5597 0.7332 -0.3863
vn 0.4870 0.8562 0.1728
vt 0.410126 0.605469
vt 0.453125 0.605469
vt 0.453125 0.648407
vt 0.496094 0.605469
vt 0.453125 0.690186
vt 0.496094 0.748993
vt 0.429688 0.748993
s 1
usemtl npc03_05
f 24/17/24 25/18/25 26/19/26
f 26/19/26 25/18/25 27/20/27
f 26/19/26 27/20/27 28/21/28
f 28/21/28 27/20/27 29/22/29
f 28/21/28 29/22/29 30/23/30
f 31/23/31 32/22/32 33/21/33
f 33/21/33 32/22/32 34/20/27
f 33/21/33 34/20/27 35/19/34
f 35/19/34 34/20/27 36/18/35
f 35/19/34 36/18/35 37/17/36
o npc_03-0001-50.006
v -11.097151 17.161606 -2.138478
v -13.257189 10.620627 -1.926718
v -12.928410 13.955335 -0.527910
v -13.345570 10.064842 5.926294
v -12.772859 12.421089 6.102264
v -11.881976 9.289547 14.650206
v -11.075939 15.008525 13.158939
v -6.441226 8.817830 17.555195
v -5.373580 18.786928 14.700909
v 5.373580 18.786928 14.700909
v 6.441226 8.817830 17.555195
v 11.075939 15.008525 13.158939
v 11.881976 9.289547 14.650206
v 12.772859 12.421089 6.102264
v 13.345570 10.064842 5.926294
v 12.928410 13.955335 -0.527910
v 13.257189 10.620627 -1.926718
v 11.097151 17.161606 -2.138478
vn -0.6362 0.2906 -0.7147
vn -0.8736 0.1889 -0.4485
vn -0.9710 0.2036 -0.1253
vn -0.9805 0.1804 0.0784
vn -0.9685 0.2047 0.1417
vn -0.8643 0.2436 0.4401
vn -0.5423 0.1100 0.8330
vn -0.4257 0.2838 0.8592
vn -0.1412 0.0549 0.9885
vn 0.1412 0.0549 0.9885
vn 0.4257 0.2838 0.8592
vn 0.5423 0.1101 0.8330
vn 0.8643 0.2436 0.4401
vn 0.9685 0.2047 0.1417
vn 0.9805 0.1804 0.0784
vn 0.9710 0.2036 -0.1253
vn 0.8736 0.1889 -0.4485
vn 0.6362 0.2906 -0.7147
vt 0.453125 0.690186
vt 0.429688 0.748993
vt 0.429688 0.713715
vt 0.406250 0.748993
vt 0.398438 0.713715
vt 0.375000 0.748993
vt 0.375000 0.690186
vt 0.332001 0.748993
vt 0.332001 0.662720
s 1
usemtl npc03_05
f 38/24/37 39/25/38 40/26/39
f 40/26/39 39/25/38 41/27/40
f 40/26/39 41/27/40 42/28/41
f 42/28/41 41/27/40 43/29/42
f 42/28/41 43/29/42 44/30/43
f 44/30/43 43/29/42 45/31/44
f 44/30/43 45/31/44 46/32/45
f 47/32/46 48/31/47 49/30/48
f 49/30/48 48/31/47 50/29/49
f 49/30/48 50/29/49 51/28/50
f 51/28/50 50/29/49 52/27/51
f 51/28/50 52/27/51 53/26/52
f 53/26/52 52/27/51 54/25/53
f 53/26/52 54/25/53 55/24/54
o npc_03-0001-72.008
v 12.429940 4.046955 8.136353
v 9.580528 6.627384 10.140615
v 10.326466 2.722879 10.820633
v 0.000000 6.055253 15.628478
v 10.326466 2.722879 10.820633
v 9.580528 6.627384 10.140615
v 0.000000 6.055253 14.927583
v -9.195186 -5.212233 17.158518
v 0.000000 -6.431222 18.175562
v -6.158406 6.265423 12.642962
v -7.858861 -5.445755 18.282932
v 12.571350 -3.778401 12.502782
v 9.195186 -5.212233 17.158518
v 0.000000 -6.431222 18.876457
v -12.571350 -3.778401 12.502782
v -10.326466 2.722879 10.820633
v -9.584064 6.627384 10.140615
v 0.000000 10.627631 -9.105677
v -12.680943 7.066406 -2.770774
v -12.203684 9.380619 -2.257779
v -12.429940 4.046955 8.136353
v -9.584064 6.627384 10.140615
v -10.326466 2.722879 10.820633
v 12.203684 9.380619 -2.257779
v 12.680943 7.066406 -2.770774
v 0.000000 8.166299 -9.499372
vn 0.8587 0.3624 0.3624
vn 0.6744 0.3764 0.6352
vn 0.5976 0.3459 0.7233
vn 0.1417 0.3622 0.9213
vn 0.5975 0.3460 0.7234
vn -0.3234 0.3392 0.8834
vn -0.4239 0.4082 0.8085
vn -0.0707 0.2512 0.9654
vn -0.3776 0.4483 0.8102
vn -0.2120 0.3534 0.9111
vn 0.6845 0.3934 0.6137
vn 0.4576 0.3945 0.7969
vn 0.0472 0.2515 0.9667
vn -0.6845 0.3934 0.6137
vn -0.5737 0.3537 0.7388
vn -0.6623 0.3785 0.6466
vn -0.0000 0.2425 -0.9701
vn -0.7472 0.2360 -0.6213
vn -0.8874 0.4241 -0.1807
vn -0.8587 0.3624 0.3624
vn -0.6624 0.3785 0.6465
vn -0.5737 0.3536 0.7388
vn 0.8874 0.4241 -0.1807
vn 0.7472 0.2360 -0.6213
vn -0.0000 0.1568 -0.9876
vt 0.425751 0.498016
vt 0.402344 0.450958
vt 0.402344 0.498016
vt 0.300751 0.399994
vt 0.398438 0.435272
vt 0.398438 0.399994
vt 0.253876 0.399994
vt 0.339844 0.498016
vt 0.300751 0.498016
vt 0.253876 0.498016
vt 0.398438 0.498016
vt 0.352356 0.498016
vt 0.316376 0.498016
vt 0.496094 0.450958
vt 0.453125 0.498016
vt 0.453125 0.450958
vt 0.496094 0.498016
s 1
usemtl npc03_05
f 56/33/55 57/34/56 58/35/57
f 59/36/58 60/37/59 61/38/56
f 62/39/60 63/40/61 64/41/62
f 65/39/63 66/42/64 59/36/58
f 67/43/65 60/37/59 68/44/66
f 68/44/66 60/37/59 59/36/58
f 68/44/66 59/36/58 69/45/67
f 69/45/67 59/36/58 66/42/64
f 70/43/68 63/40/61 71/37/69
f 71/37/69 63/40/61 62/39/60
f 71/37/69 62/39/60 72/38/70
f 73/46/71 74/47/72 75/48/73
f 75/48/73 74/47/72 76/33/74
f 75/48/73 76/33/74 77/34/75
f 77/34/75 76/33/74 78/35/76
f 57/34/56 56/33/55 79/48/77
f 79/48/77 56/33/55 80/47/78
f 79/48/77 80/47/78 73/46/71
f 73/46/71 80/47/78 81/49/79
f 73/46/71 81/49/79 74/47/72
o npc_03-0001-41.008
v 1.898429 21.656925 15.565843
v 2.103474 20.423925 15.011092
v 5.454891 25.148092 12.311898
v 8.965395 21.916138 14.023873
v 7.689169 27.754210 8.628469
v 12.207219 24.669371 8.270565
v 6.183153 28.284307 1.992331
v 9.368413 23.186501 -2.785689
v 0.000000 25.995783 -6.782284
v 0.000000 19.721020 -9.302526
v -9.368413 23.186501 -2.785689
vn 0.2829 -0.0236 0.9589
vn 0.3066 0.3616 0.8805
vn 0.5977 0.2910 0.7471
vn 0.2757 0.6223 0.7326
vn 0.6889 0.6420 0.3366
vn 0.6214 0.7787 0.0865
vn 0.7026 0.5921 -0.3947
vn 0.5530 0.6162 -0.5609
vn -0.0000 0.6198 -0.7847
vn -0.0000 0.3700 -0.9290
vn -0.5530 0.6161 -0.5609
vt 0.308594 0.572540
vt 0.312500 0.596069
vt 0.359375 0.541168
vt 0.359375 0.596069
vt 0.402344 0.541168
vt 0.402344 0.596069
vt 0.445312 0.541168
vt 0.445312 0.596069
vt 0.492188 0.541168
vt 0.492188 0.596069
s 1
usemtl npc03_05_2
f 82/50/80 83/51/81 84/52/82
f 84/52/82 83/51/81 85/53/83
f 84/52/82 85/53/83 86/54/84
f 86/54/84 85/53/83 87/55/85
f 86/54/84 87/55/85 88/56/86
f 88/56/86 87/55/85 89/57/87
f 88/56/86 89/57/87 90/58/88
f 90/58/88 89/57/87 91/59/89
f 90/58/88 91/59/89 92/57/90
o npc_03-0001-42.008
v 6.183153 28.284307 1.992331
v 5.801346 30.946470 3.307628
v 7.689169 27.754210 8.628469
v 6.278605 29.134331 9.245853
v 5.454891 25.148092 12.311898
v 4.896322 26.883171 12.702610
v 1.898429 21.656925 15.565843
vn 0.7026 0.5921 -0.3947
vn 0.8479 0.4710 -0.2433
vn 0.6889 0.6419 0.3366
vn 0.7893 0.4262 0.4420
vn 0.5977 0.2910 0.7471
vn 0.5808 0.2432 0.7769
vn 0.2830 -0.0236 0.9588
vt 0.445312 0.541168
vt 0.445312 0.509796
vt 0.402344 0.541168
vt 0.402344 0.509796
vt 0.359375 0.541168
vt 0.359375 0.509796
vt 0.308594 0.572540
s 1
usemtl npc03_05_2
f 93/60/91 94/61/92 95/62/93
f 95/62/93 94/61/92 96/63/94
f 95/62/93 96/63/94 97/64/95
f 97/64/95 96/63/94 98/65/96
f 97/64/95 98/65/96 99/66/97
o npc_03-0001-43.008
v 0.000000 25.995783 -6.782284
v -9.368413 23.186501 -2.785689
v -6.183153 28.284307 1.992331
v -12.207219 24.669371 8.270565
v -7.689169 27.754210 8.628469
v -8.965395 21.916138 14.023873
v -5.454891 25.148092 12.311898
v -2.103474 20.423925 15.011092
v -1.898429 21.656925 15.565843
vn -0.0000 0.6199 -0.7847
vn -0.5530 0.6162 -0.5608
vn -0.7026 0.5921 -0.3947
vn -0.6214 0.7787 0.0865
vn -0.6889 0.6420 0.3366
vn -0.2757 0.6223 0.7326
vn -0.5977 0.2909 0.7471
vn -0.3066 0.3616 0.8805
vn -0.2829 -0.0236 0.9589
vt 0.492188 0.541168
vt 0.445312 0.596069
vt 0.445312 0.541168
vt 0.402344 0.596069
vt 0.402344 0.541168
vt 0.359375 0.596069
vt 0.359375 0.541168
vt 0.312500 0.596069
vt 0.308594 0.572540
s 1
usemtl npc03_05_2
f 100/67/98 101/68/99 102/69/100
f 102/69/100 101/68/99 103/70/101
f 102/69/100 103/70/101 104/71/102
f 104/71/102 103/70/101 105/72/103
f 104/71/102 105/72/103 106/73/104
f 106/73/104 105/72/103 107/74/105
f 106/73/104 107/74/105 108/75/106
o npc_03-0001-45.008
v 6.183153 28.284307 1.992331
v 0.000000 25.995783 -6.782284
v 0.000000 31.952953 -2.227955
v -6.183153 28.284307 1.992331
vn 0.7026 0.5921 -0.3948
vn -0.0000 0.6199 -0.7847
vn -0.0000 0.5745 -0.8185
vn -0.7026 0.5921 -0.3948
vt 0.445312 0.541168
vt 0.492188 0.541168
vt 0.492188 0.509796
s 1
usemtl npc03_05_2
f 109/76/107 110/77/108 111/78/109
f 111/78/109 110/77/108 112/76/110
o npc_03-0001-46.008
v -4.967027 17.579615 14.942494
v -2.393364 19.195595 16.567974
v -2.103474 20.423925 15.011092
v 1.997416 15.935611 15.861115
v 2.393364 19.195595 16.567974
v 0.989870 19.564560 15.950590
v 0.000000 31.952953 -2.227955
v -6.183153 28.284307 1.992331
v -5.801346 30.946470 3.307628
v 0.000000 23.086086 14.924598
v -1.898429 21.656925 15.565843
v -4.896322 26.883171 12.702610
v -3.966551 16.498404 16.878159
v 5.801346 30.946470 3.307628
v 6.183153 28.284307 1.992331
v 1.898429 21.656925 15.565843
v 4.896322 26.883171 12.702610
v 3.966551 16.498404 16.878159
v -4.892786 13.481285 15.363032
v -1.997416 15.935611 15.861115
v -0.989870 19.564560 15.950590
v 0.000000 20.916658 16.019188
v 2.103474 20.423925 15.011092
v 4.892786 13.481285 15.363032
v 4.967027 17.579615 14.942494
v 0.000000 19.109190 15.932695
vn -0.7667 0.3952 0.5059
vn -0.1018 0.4228 0.9005
vn -0.3066 0.3617 0.8805
vn -0.3843 -0.2588 0.8862
vn 0.1018 0.4228 0.9005
vn -0.0079 0.2518 0.9678
vn 0.0001 0.5745 -0.8185
vn -0.7026 0.5921 -0.3947
vn -0.8479 0.4710 -0.2434
vn -0.0000 0.1810 0.9835
vn -0.2830 -0.0236 0.9588
vn -0.5807 0.2433 0.7769
vn -0.2827 -0.0471 0.9581
vn 0.8479 0.4711 -0.2434
vn 0.7026 0.5921 -0.3947
vn -0.0001 0.5745 -0.8185
vn 0.2830 -0.0235 0.9588
vn 0.5807 0.2432 0.7769
vn 0.2827 -0.0471 0.9581
vn -0.4004 -0.3062 0.8636
vn 0.3844 -0.2589 0.8861
vn 0.0079 0.2518 0.9678
vn -0.0000 0.2351 0.9720
vn 0.3066 0.3617 0.8805
vn 0.4004 -0.3062 0.8636
vn 0.7667 0.3952 0.5059
vn -0.0000 -0.0472 0.9989
vt 0.324219 0.658813
vt 0.296875 0.619598
vt 0.312500 0.596069
vt 0.269501 0.658813
vt 0.281250 0.596069
vt 0.492188 0.509796
vt 0.445312 0.541168
vt 0.445312 0.509796
vt 0.273438 0.545074
vt 0.308594 0.572540
vt 0.359375 0.509796
vt 0.296875 0.658813
vt 0.296875 0.694092
vt 0.257812 0.564697
vt 0.257812 0.596069
s 1
usemtl npc03_05_2
f 113/79/111 114/80/112 115/81/113
f 116/82/114 117/80/115 118/83/116
f 119/84/117 120/85/118 121/86/119
f 115/81/113 122/87/120 123/88/121
f 123/88/121 122/87/120 124/89/122
f 114/80/112 113/79/111 125/90/123
f 126/86/124 127/85/125 119/84/126
f 122/87/120 128/88/127 129/89/128
f 117/80/115 116/82/114 130/90/129
f 113/79/111 131/91/130 125/90/123
f 125/90/123 131/91/130 132/82/131
f 125/90/123 132/82/131 114/80/112
f 114/80/112 132/82/131 133/83/132
f 114/80/112 133/83/132 115/81/113
f 115/81/113 133/83/132 134/92/133
f 115/81/113 134/92/133 122/87/120
f 122/87/120 134/92/133 135/81/134
f 122/87/120 135/81/134 128/88/127
f 116/82/114 136/91/135 130/90/129
f 130/90/129 136/91/135 137/79/136
f 130/90/129 137/79/136 117/80/115
f 117/80/115 137/79/136 135/81/134
f 117/80/115 135/81/134 118/83/116
f 118/83/116 135/81/134 134/92/133
f 118/83/116 134/92/133 138/93/137
f 138/93/137 134/92/133 133/83/132
o npc_03-0001-44.008
v -1.898429 21.656925 15.565843
v -4.896322 26.883171 12.702610
v -5.454891 25.148092 12.311898
v -6.278605 29.134331 9.245853
v -7.689169 27.754210 8.628469
v -5.801346 30.946470 3.307628
v -6.183153 28.284307 1.992331
vn -0.2830 -0.0236 0.9588
vn -0.5808 0.2432 0.7769
vn -0.5977 0.2909 0.7471
vn -0.7893 0.4262 0.4420
vn -0.6889 0.6419 0.3366
vn -0.8479 0.4710 -0.2433
vn -0.7026 0.5921 -0.3947
vt 0.308594 0.572540
vt 0.359375 0.509796
vt 0.359375 0.541168
vt 0.402344 0.509796
vt 0.402344 0.541168
vt 0.445312 0.509796
vt 0.445312 0.541168
s 1
usemtl npc03_05_2
f 139/94/138 140/95/139 141/96/140
f 141/96/140 140/95/139 142/97/141
f 141/96/140 142/97/141 143/98/142
f 143/98/142 142/97/141 144/99/143
f 143/98/142 144/99/143 145/100/144
o npc_03-0001-52.002
v 0.003535 49.532566 1.568809
v -11.181997 57.075359 5.929274
v -6.773540 57.862331 4.834684
v 10.559793 36.691135 6.164895
v 0.000000 36.693470 -0.814235
v 11.475422 49.959915 9.887096
v 12.634985 36.691135 13.033671
v -7.858861 37.777020 20.460180
v -9.817390 50.889336 18.342581
v -12.634985 36.691135 13.033671
v 11.192602 60.573536 10.984668
v 13.699095 57.787605 11.175550
v 11.192602 57.075359 5.929274
v -11.181997 60.573536 10.984668
v -11.181997 57.075359 5.929274
v -13.688489 57.787605 11.175550
v 6.784145 57.862331 4.834684
v 3.393840 59.202755 0.501062
v 6.784145 61.351166 10.871331
v -3.383235 61.477268 21.345993
v 0.003535 62.049400 22.148293
v -3.383235 64.695213 10.650624
v 0.003535 65.197289 10.608869
v 13.522332 54.501938 8.207931
v 11.192602 57.075359 5.929274
v -6.773540 61.351166 10.871331
v -11.181997 58.142559 17.519402
v -6.773540 58.910851 18.476793
v -6.773540 57.862331 4.834684
v -3.383235 59.202755 0.501062
v 6.784145 57.862331 4.834684
v 11.192602 57.075359 5.929274
v -13.515262 54.501938 8.207931
v -11.181997 57.075359 5.929274
v -3.383235 59.202755 0.501062
v 3.393840 59.202755 0.501062
v 6.784145 58.910851 18.476793
v 11.192602 58.142559 17.519402
v 9.827996 50.889336 18.342581
v 13.522332 55.146461 14.551779
v -10.559793 36.691135 6.164895
v -11.464817 49.959915 9.887096
v -13.515262 55.146461 14.551779
v 3.393840 64.695213 10.650624
v 3.393840 61.477268 21.345993
v 0.003535 51.239620 22.539005
v 7.858861 37.777020 20.460180
v 12.634985 36.691135 13.033671
v 7.858861 37.777020 20.460180
v 10.559793 36.691135 6.164895
v 0.000000 36.693470 -0.814235
v 0.000000 38.788174 24.444845
v -7.858861 37.777020 20.460180
v -10.559793 36.691135 6.164895
v -12.634985 36.691135 13.033671
v -8.527024 54.973652 18.649780
v -7.901284 53.257259 18.995754
v -7.777551 56.676037 18.694519
v -6.370521 52.559025 19.786127
v -6.197294 57.390617 19.359625
v -4.719559 53.257259 20.287191
v -4.599361 56.676037 19.985956
v -4.030185 54.973652 20.475092
v -3.998368 51.213932 20.958261
v -2.828200 48.477043 22.058817
v -2.828200 54.109619 21.524944
v 0.000000 47.423855 23.341307
v 0.000000 55.386990 22.583744
v 2.828200 48.477043 22.058817
v 2.828200 54.109619 21.524944
v 3.998368 51.213932 20.958261
v 4.030185 54.973652 20.475092
v 4.719559 53.257259 20.287191
v 4.599361 56.676037 19.985956
v 6.370521 52.559025 19.786127
v 6.197294 57.390617 19.359625
v 7.901284 53.257259 18.995754
v 7.777551 56.676037 18.694519
v 8.527024 54.973652 18.649780
v 2.517098 58.597931 21.656176
v 1.778231 60.382046 21.879866
v 1.778231 56.820820 21.930569
v 0.000000 61.126984 22.440582
v 0.000000 56.092228 22.515144
v -1.778231 60.382046 21.879866
v -1.778231 56.820820 21.930569
v -2.517098 58.597931 21.656176
v 0.000000 38.788174 24.444845
vn -0.0000 -0.1173 -0.9931
vn -0.5754 0.3783 -0.7251
vn -0.5510 0.3857 -0.7400
vn 0.6103 -0.5321 -0.5868
vn -0.0001 -0.9389 -0.3442
vn 0.9403 -0.2116 -0.2665
vn 0.9349 -0.3142 0.1650
vn -0.2826 -0.8400 0.4632
vn -0.6750 -0.0078 0.7378
vn -0.9349 -0.3142 0.1649
vn 0.5129 0.8523 -0.1026
vn 0.9068 0.4179 -0.0552
vn 0.5754 0.3783 -0.7251
vn -0.5129 0.8523 -0.1026
vn -0.5753 0.3783 -0.7252
vn -0.9068 0.4179 -0.0552
vn 0.5510 0.3857 -0.7400
vn 0.3929 0.5028 -0.7699
vn 0.4948 0.8639 -0.0942
vn -0.5255 0.4863 0.6981
vn -0.0000 0.6199 0.7847
vn -0.4701 0.8776 -0.0940
vn -0.0000 0.9806 -0.1961
vn 0.8753 -0.1971 -0.4416
vn -0.4948 0.8639 -0.0942
vn -0.6532 0.4643 0.5981
vn -0.4968 0.4101 0.7649
vn -0.3928 0.5028 -0.7700
vn 0.5511 0.3857 -0.7400
vn 0.5753 0.3783 -0.7252
vn -0.8753 -0.1971 -0.4416
vn -0.3928 0.5029 -0.7699
vn 0.3928 0.5029 -0.7699
vn 0.4968 0.4101 0.7649
vn 0.6532 0.4643 0.5981
vn 0.6750 -0.0079 0.7378
vn 0.9519 -0.1495 0.2675
vn -0.6128 -0.5265 -0.5893
vn -0.9403 -0.2116 -0.2664
vn -0.9519 -0.1494 0.2675
vn 0.4701 0.8776 -0.0940
vn 0.5255 0.4863 0.6981
vn -0.0000 0.0551 0.9985
vn 0.2826 -0.8400 0.4632
vn 0.9349 -0.3143 0.1649
vn 0.2827 -0.8400 0.4632
vn -0.0000 -0.9389 -0.3442
vn 0.0001 -0.3836 0.9235
vn -0.6129 -0.5265 -0.5892
vn -0.9349 -0.3142 0.1651
vn -0.2673 0.0943 0.9590
vn -0.3453 0.0942 0.9338
vn -0.3684 0.0941 0.9249
vn -0.4007 0.0943 0.9114
vn -0.4734 0.0947 0.8757
vn -0.5820 0.0708 0.8101
vn -0.4861 0.0784 0.8704
vn 0.0001 0.0946 0.9955
vn 0.4861 0.0784 0.8704
vn 0.5820 0.0708 0.8101
vn 0.4734 0.0947 0.8757
vn 0.4007 0.0943 0.9114
vn 0.3684 0.0941 0.9249
vn 0.3453 0.0942 0.9338
vn 0.2673 0.0943 0.9590
vn 0.3209 0.0078 0.9471
vn 0.3139 0.0078 0.9494
vn 0.3138 0.0079 0.9494
vn -0.0000 0.0079 1.0000
vn -0.3139 0.0079 0.9494
vn -0.3138 0.0079 0.9494
vn -0.3209 0.0078 0.9471
vn -0.0000 -0.3835 0.9235
vt 0.009979 0.651733
vt 0.070587 0.591705
vt 0.042969 0.588226
vt 0.050751 0.745728
vt 0.009979 0.745728
vt 0.082001 0.650970
vt 0.082001 0.745728
vt 0.148438 0.745728
vt 0.148438 0.650970
vt 0.148438 0.537231
vt 0.113251 0.564697
vt 0.148438 0.505859
vt 0.148407 0.537231
vt 0.179688 0.505859
vt 0.214844 0.505859
vt 0.179688 0.533325
vt 0.214844 0.541168
vt 0.244141 0.535126
vt 0.214844 0.521545
vt 0.244141 0.521545
vt 0.078125 0.619598
vt 0.070312 0.592133
vt 0.148407 0.568604
vt 0.179688 0.568604
vt 0.070282 0.592133
vt 0.023438 0.576447
vt 0.148438 0.568604
vt 0.113251 0.603912
vt 0.244141 0.636719
vt 0.066376 0.568604
vt 0.027344 0.552917
vt 0.105469 0.552917
vt 0.128876 0.505859
vt 0.009979 0.505859
vt 0.315613 0.051147
vt 0.331238 0.082397
vt 0.331238 0.015991
vt 0.370331 0.094116
vt 0.370331 0.004272
vt 0.244141 0.745728
s 1
usemtl npc03_05
f 146/101/145 147/102/146 148/103/147
f 146/101/145 149/104/148 150/105/149
f 149/104/148 151/106/150 152/107/151
f 153/108/152 154/109/153 155/107/154
f 156/110/155 157/111/156 158/112/157
f 159/113/158 160/112/159 161/111/160
f 162/114/161 163/115/162 164/116/163
f 165/117/164 166/118/165 167/119/166
f 167/119/166 166/118/165 168/120/167
f 169/121/168 170/122/157 157/111/156
f 171/116/169 172/123/170 173/124/171
f 173/124/171 172/123/170 154/109/153
f 174/114/147 171/116/169 175/115/172
f 176/103/173 177/102/174 146/101/145
f 146/101/145 177/102/174 169/121/168
f 178/121/175 161/111/160 179/125/146
f 147/102/146 146/101/145 178/121/175
f 148/103/147 180/126/176 146/101/145
f 146/101/145 180/126/176 181/126/177
f 146/101/145 181/126/177 176/103/173
f 164/116/163 182/124/178 183/127/179
f 183/127/179 182/124/178 184/109/180
f 183/127/179 184/109/180 185/128/181
f 186/104/182 155/107/154 187/106/183
f 187/106/183 155/107/154 154/109/153
f 187/106/183 154/109/153 188/128/184
f 188/128/184 154/109/153 172/123/170
f 189/119/185 168/120/167 190/117/186
f 190/117/186 168/120/167 166/118/165
f 190/117/186 166/118/165 191/129/187
f 191/129/187 166/118/165 165/117/164
f 192/108/188 152/107/151 184/109/180
f 184/109/180 152/107/151 151/106/150
f 184/109/180 151/106/150 185/128/181
f 193/130/189 194/131/190 195/132/148
f 195/132/148 194/131/190 196/133/191
f 194/131/190 197/134/192 196/133/191
f 196/133/191 197/134/192 198/131/152
f 196/133/191 198/131/152 199/132/193
f 199/132/193 198/131/152 200/130/194
f 201/135/195 202/136/196 203/137/196
f 203/137/196 202/136/196 204/138/197
f 203/137/196 204/138/197 205/139/197
f 205/139/197 204/138/197 206/136/198
f 205/139/197 206/136/198 207/137/198
f 207/137/198 206/136/198 208/135/199
f 209/135/200 210/136/201 211/137/201
f 211/137/201 210/136/201 212/138/202
f 211/137/201 212/138/202 213/139/202
f 213/139/202 212/138/202 214/136/203
f 213/139/202 214/136/203 215/137/203
f 215/137/203 214/136/203 216/135/204
f 217/135/205 218/136/206 219/137/206
f 219/137/206 218/136/206 220/138/207
f 219/137/206 220/138/207 221/139/207
f 221/139/207 220/138/207 222/136/208
f 221/139/207 222/136/208 223/137/208
f 223/137/208 222/136/208 224/135/209
f 225/135/210 226/137/211 227/136/212
f 227/136/212 226/137/211 228/139/213
f 227/136/212 228/139/213 229/138/213
f 229/138/213 228/139/213 230/137/214
f 229/138/213 230/137/214 231/136/215
f 231/136/215 230/137/214 232/135/216
f 174/114/147 160/112/159 171/116/169
f 171/116/169 160/112/159 159/113/158
f 171/116/169 159/113/158 172/123/170
f 172/123/170 159/113/158 161/111/160
f 172/123/170 161/111/160 188/128/184
f 188/128/184 161/111/160 178/121/175
f 188/128/184 178/121/175 187/106/183
f 187/106/183 178/121/175 146/101/145
f 187/106/183 146/101/145 186/104/182
f 186/104/182 146/101/145 150/105/149
f 149/104/148 146/101/145 151/106/150
f 151/106/150 146/101/145 169/121/168
f 151/106/150 169/121/168 185/128/181
f 185/128/181 169/121/168 157/111/156
f 185/128/181 157/111/156 183/127/179
f 183/127/179 157/111/156 156/110/155
f 183/127/179 156/110/155 164/116/163
f 164/116/163 156/110/155 158/112/157
f 164/116/163 158/112/157 162/114/161
f 153/108/152 233/140/217 154/109/153
f 154/109/153 233/140/217 191/129/187
f 154/109/153 191/129/187 173/124/171
f 173/124/171 191/129/187 165/117/164
f 173/124/171 165/117/164 171/116/169
f 171/116/169 165/117/164 167/119/166
f 171/116/169 167/119/166 175/115/172
f 175/115/172 167/119/166 168/120/167
f 175/115/172 168/120/167 163/115/162
f 163/115/162 168/120/167 189/119/185
f 163/115/162 189/119/185 164/116/163
f 164/116/163 189/119/185 190/117/186
f 164/116/163 190/117/186 182/124/178
f 182/124/178 190/117/186 191/129/187
f 182/124/178 191/129/187 184/109/180
f 184/109/180 191/129/187 233/140/217
f 184/109/180 233/140/217 192/108/188
