mtllib style1_helper_4.mtl
o npc_03-0001-58.008
v -7.392208 23.506430 12.935248
v -10.368889 19.721022 14.736698
v -2.782242 19.632282 15.547948
v -11.075939 14.490104 13.436315
v 1.385818 11.795248 15.363032
v -3.160514 3.131545 16.242880
v 5.557413 3.091846 16.054979
vn -0.2504 0.5478 0.7982
vn -0.2673 0.4559 0.8489
vn -0.1255 0.1491 0.9808
vn -0.3700 -0.0079 0.9290
vn -0.0862 0.0392 0.9955
vn -0.1809 0.0236 0.9832
vn 0.0157 0.0863 0.9961
vt 0.280334 0.107239
vt 0.293640 0.146698
vt 0.253906 0.161011
vt 0.303955 0.182800
vt 0.253906 0.204132
vt 0.303253 0.240082
vt 0.253906 0.240082
s 1
usemtl npc03_05
f 1/1/1 2/2/2 3/3/3
f 3/3/3 2/2/2 4/4/4
f 3/3/3 4/4/4 5/5/5
f 5/5/5 4/4/4 6/6/6
f 5/5/5 6/6/6 7/7/7
o npc_03-0001-59.008
v 2.782242 19.632282 15.547948
v 11.075939 14.490104 13.436315
v 10.368889 19.721022 14.736698
vn 0.1567 0.1253 0.9797
vn 0.4090 0.0157 0.9124
vn 0.2673 0.4559 0.8489
vt 0.253937 0.161011
vt 0.303925 0.182800
vt 0.293640 0.146698
s 1
usemtl npc03_05
f 8/8/8 9/9/9 10/10/10
o npc_03-0001-60.008
v 0.000000 -2.954065 16.690260
v 10.807260 -2.561746 13.510879
v 3.096879 2.961073 17.376244
v 11.881976 3.547216 13.940364
v 11.075939 14.490104 13.436315
v -11.075939 14.490104 13.436315
v -11.881976 3.547216 13.940364
v -3.160514 3.131545 16.242880
v -10.807260 -2.561746 13.510879
v 0.000000 -2.954065 16.690260
v -10.807260 -2.561746 13.510879
v 0.000000 -2.954065 16.690260
v -5.688218 3.091846 16.514292
v -1.452988 11.795248 16.051998
v 11.075939 14.490104 13.436315
v 2.782242 19.632282 15.547948
vn -0.0314 -0.1885 0.9816
vn 0.7240 -0.1968 0.6611
vn 0.1644 -0.0079 0.9864
vn 0.8185 -0.0079 0.5745
vn 0.4090 0.0157 0.9124
vn -0.3700 -0.0079 0.9290
vn -0.7953 -0.0000 0.6062
vn -0.1809 0.0236 0.9832
vn -0.7078 -0.1415 0.6921
vn -0.2823 -0.0706 0.9567
vn -0.2835 -0.2363 0.9294
vn -0.1565 -0.0626 0.9857
vn 0.1644 -0.0078 0.9864
vn 0.0867 0.0867 0.9925
vn 0.4089 0.0158 0.9124
vn 0.1417 0.1652 0.9760
vt 0.303223 0.213745
vt 0.326141 0.213745
vt 0.303223 0.240082
vt 0.318329 0.240082
vt 0.303925 0.182922
vt 0.303955 0.182800
vt 0.303253 0.240082
vt 0.303253 0.213745
vt 0.253937 0.175995
vt 0.253937 0.240082
vt 0.253937 0.204132
vt 0.303925 0.182800
vt 0.253937 0.161011
s 1
usemtl npc03_05
f 11/11/11 12/12/12 13/13/13
f 13/13/13 12/12/12 14/14/14
f 13/13/13 14/14/14 15/15/15
f 16/16/16 17/14/17 18/17/18
f 18/17/18 17/14/17 19/18/19
f 18/17/18 19/18/19 20/18/20
f 21/19/21 22/11/11 23/20/22
f 23/20/22 22/11/11 13/13/23
f 23/20/22 13/13/23 24/21/24
f 24/21/24 13/13/23 25/22/25
f 24/21/24 25/22/25 26/23/26
o npc_03-0001-62.008
v -3.439799 22.640059 13.946327
v -7.392208 23.506430 12.935248
v -2.782242 19.632282 15.547948
v 3.439799 22.640059 13.946327
v 2.782242 19.632282 15.547948
v 7.392208 23.506430 12.935248
vn -0.1259 0.4405 0.8889
vn -0.2504 0.5478 0.7983
vn -0.1255 0.1491 0.9808
vn 0.1259 0.4405 0.8889
vn 0.1568 0.1254 0.9796
vn 0.2504 0.5478 0.7983
vt 0.253906 0.107239
vt 0.280334 0.107239
vt 0.253906 0.161011
s 1
usemtl npc03_05
f 27/24/27 28/25/28 29/26/29
f 30/24/30 31/26/31 32/25/32
o npc_03-0001-64.012
v 13.720306 -5.838074 11.613987
v 10.807260 -2.561746 13.510879
v 11.931470 -6.239734 14.760561
v 0.000000 -2.954065 16.690260
v 0.000000 -6.664746 17.346418
vn 0.8832 0.3470 0.3155
vn 0.6508 0.4391 0.6195
vn 0.3925 0.4082 0.8242
vn -0.0000 0.2830 0.9591
vn -0.0000 0.3995 0.9167
vt 0.383057 0.297943
vt 0.352295 0.256348
vt 0.352295 0.297943
vt 0.255188 0.256348
vt 0.255188 0.297943
s 1
usemtl npc03_05
f 33/27/33 34/28/34 35/29/35
f 35/29/35 34/28/34 36/30/36
f 35/29/35 36/30/36 37/31/37
o npc_03-0001-66.012
v -4.931674 -4.343526 17.817657
v 0.000000 -4.798897 15.783570
v -4.146849 -1.492211 17.367294
v 4.931674 -4.343526 17.817657
v 0.000000 -4.798897 15.783570
v 4.115031 -7.491416 18.318724
v -4.115031 -7.491416 18.318724
v 4.143313 -1.492211 17.367294
v 0.000000 -6.664746 17.346418
v 0.000000 -2.954065 16.690260
v -10.807260 -2.561746 13.510879
vn 0.3852 0.1415 0.9119
vn 0.3832 0.0391 0.9228
vn -0.3852 0.1415 0.9119
vn -0.3865 0.2366 0.8914
vn 0.3865 0.2366 0.8914
vn -0.3832 0.0391 0.9228
vn -0.0000 0.3996 0.9167
vn -0.0000 0.2830 0.9591
vn -0.6508 0.4391 0.6194
vt 0.267639 0.126740
vt 0.325470 0.107697
vt 0.267700 0.107697
vt 0.267639 0.107697
vt 0.255188 0.297943
vt 0.255188 0.256348
vt 0.352295 0.256348
s 1
usemtl npc03_05
f 38/32/38 39/33/38 40/34/39
f 41/32/40 42/33/40 43/35/41
f 39/33/38 38/32/38 44/35/42
f 42/33/40 41/32/40 45/34/43
f 46/36/44 47/37/45 48/38/46
o npc_03-0001-67.012
v -14.904615 -1.046183 -0.465275
v -15.190970 -4.308500 -0.790372
v -13.720306 -5.838074 11.613987
v -10.807260 -2.561746 13.510879
v 10.807260 -2.561746 13.510879
v 13.720306 -5.838074 11.613987
v 14.904615 -1.046183 -0.465275
v 15.190970 -4.308500 -0.790372
v 0.000000 -4.448614 -11.354507
v 0.000000 -1.291383 -10.558170
vn -0.8858 0.2822 -0.3684
vn -0.9091 0.1176 -0.3997
vn -0.8832 0.3470 0.3154
vn -0.6508 0.4391 0.6194
vn 0.6508 0.4391 0.6194
vn 0.8832 0.3470 0.3154
vn 0.8858 0.2822 -0.3684
vn 0.9091 0.1176 -0.3997
vn -0.0000 0.1961 -0.9806
vn -0.0000 0.2425 -0.9701
vt 0.473022 0.256348
vt 0.473022 0.297943
vt 0.383057 0.297943
vt 0.352295 0.256348
vt 0.332642 0.297943
vt 0.332642 0.256348
s 1
usemtl npc03_05
f 49/39/47 50/40/48 51/41/49
f 49/39/47 51/41/49 52/42/50
f 53/42/51 54/41/52 55/39/53
f 55/39/53 54/41/52 56/40/54
f 55/39/53 56/40/54 57/43/55
f 50/40/48 49/39/47 57/43/55
f 57/43/55 49/39/47 58/44/56
f 57/43/55 58/44/56 55/39/53
o npc_03-0001-94.003
v -10.291114 22.931959 -0.510015
v 0.000000 24.370462 -6.179812
v -11.097151 17.161606 -1.458460
v 7.392208 23.506430 12.935248
v 10.368889 19.721022 14.736698
v 9.736079 26.516539 7.170010
v 12.458222 25.461014 7.247556
v 7.052824 26.058832 0.715806
v 10.291114 22.931959 -0.510015
v 0.000000 24.370462 -6.179812
v 10.291114 22.931959 -0.510015
v 11.097151 17.161606 -1.458460
v 0.000000 24.370462 -6.179812
v 0.000000 6.916951 -10.322551
v -11.097151 17.161606 -1.458460
v -8.601264 6.375177 -7.047729
v -13.677883 13.955335 0.223689
v -13.808688 4.910989 -0.873882
v -14.077367 4.665791 5.383473
vn -0.5175 0.5645 -0.6430
vn -0.0000 0.4250 -0.9052
vn -0.5105 0.2435 -0.8247
vn 0.2505 0.5478 0.7982
vn 0.2673 0.4559 0.8489
vn 0.4088 0.8413 0.3538
vn 0.4472 0.8944 0.0079
vn 0.4576 0.7889 -0.4102
vn 0.5175 0.5646 -0.6429
vn 0.5175 0.5645 -0.6430
vn 0.5105 0.2435 -0.8247
vn -0.0000 0.2203 -0.9754
vn -0.6040 0.0863 -0.7923
vn -0.9397 0.1175 -0.3211
vn -0.9312 0.0939 -0.3521
vn -0.9897 0.0236 0.1413
vt 0.375000 0.146698
vt 0.417999 0.107239
vt 0.375000 0.171509
vt 0.280334 0.107239
vt 0.293640 0.146698
vt 0.332031 0.107239
vt 0.332031 0.146698
vt 0.375000 0.107239
vt 0.417999 0.240082
vt 0.394867 0.240082
vt 0.357666 0.190765
vt 0.371704 0.240082
vt 0.338135 0.240082
s 1
usemtl npc03_05
f 59/45/57 60/46/58 61/47/59
f 62/48/60 63/49/61 64/50/62
f 64/50/62 63/49/61 65/51/63
f 64/50/62 65/51/63 66/52/64
f 66/52/64 65/51/63 67/45/65
f 66/52/64 67/45/65 68/46/58
f 69/45/66 70/47/67 71/46/58
f 71/46/58 70/47/67 72/53/68
f 71/46/58 72/53/68 73/47/59
f 73/47/59 72/53/68 74/54/69
f 73/47/59 74/54/69 75/55/70
f 75/55/70 74/54/69 76/56/71
f 75/55/70 76/56/71 77/57/72
o npc_03-0001-95.003
v -14.077367 4.665791 5.383473
v -10.807260 -2.561746 13.510879
v -11.881976 3.547216 13.940364
v -14.077367 4.665791 5.383473
v -13.808688 4.910989 -0.873882
v -14.904615 -1.046183 -0.465275
v -8.601264 6.375177 -7.047729
v 0.000000 -1.291383 -10.558170
v 0.000000 6.916951 -10.322551
v 8.601264 6.375177 -7.047729
vn -0.9897 0.0235 0.1414
vn -0.7078 -0.1415 0.6921
vn -0.7953 -0.0000 0.6063
vn -0.9897 0.0236 0.1414
vn -0.9312 0.0939 -0.3522
vn -0.9386 -0.0234 -0.3442
vn -0.6040 0.0863 -0.7923
vn -0.0000 -0.1260 -0.9920
vn -0.0000 0.2202 -0.9755
vn 0.6040 0.0863 -0.7923
vt 0.338226 0.240082
vt 0.303253 0.213745
vt 0.318329 0.240082
vt 0.371796 0.240082
vt 0.352722 0.213745
vt 0.394897 0.240082
vt 0.417999 0.213745
vt 0.417999 0.240082
s 1
usemtl npc03_05
f 78/58/73 79/59/74 80/60/75
f 81/58/76 82/61/77 83/62/78
f 83/62/78 82/61/77 84/63/79
f 83/62/78 84/63/79 85/64/80
f 85/64/80 84/63/79 86/65/81
f 85/64/80 86/65/81 87/63/82
o npc_03-0001-96.003
v 0.000000 6.916951 -10.322551
v 11.097151 17.161606 -1.458460
v 8.601264 6.375177 -7.047729
v 13.677883 13.955335 0.223689
v 13.808688 4.910989 -0.873882
vn -0.0000 0.2203 -0.9754
vn 0.5105 0.2435 -0.8247
vn 0.6040 0.0863 -0.7923
vn 0.9397 0.1174 -0.3211
vn 0.9312 0.0939 -0.3522
vt 0.417999 0.240082
vt 0.375000 0.171509
vt 0.394867 0.240082
vt 0.357666 0.190765
vt 0.371704 0.240082
s 1
usemtl npc03_05
f 88/66/83 89/67/84 90/68/85
f 90/68/85 89/67/84 91/69/86
f 90/68/85 91/69/86 92/70/87
o npc_03-0001-97.003
v 0.000000 -1.291383 -10.558170
v 8.601264 6.375177 -7.047729
v 14.904615 -1.046183 -0.465275
v 13.808688 4.910989 -0.873882
vn -0.0000 -0.1260 -0.9920
vn 0.6040 0.0862 -0.7923
vn 0.9386 -0.0235 -0.3441
vn 0.9312 0.0939 -0.3522
vt 0.417999 0.213745
vt 0.394897 0.240082
vt 0.352722 0.213745
vt 0.371796 0.240082
s 1
usemtl npc03_05
f 93/71/88 94/72/89 95/73/90
f 95/73/90 94/72/89 96/74/91
o npc_03-0001-98.009
v 14.904615 -1.046183 -0.465275
v 13.808688 4.910989 -0.873882
v 14.077367 4.665791 5.383473
v 13.677883 13.955335 0.223689
v 12.914269 12.421089 6.102264
v 10.807260 -2.561746 13.510879
v 14.077367 4.665791 5.383473
v 11.881976 3.547216 13.940364
v 11.075939 14.490104 13.436315
vn 0.9386 -0.0235 -0.3441
vn 0.9312 0.0939 -0.3521
vn 0.9898 0.0157 0.1414
vn 0.9397 0.1175 -0.3210
vn 0.9712 0.1096 0.2115
vn 0.7241 -0.1968 0.6611
vn 0.8185 -0.0079 0.5745
vn 0.9712 0.1097 0.2115
vn 0.4090 0.0158 0.9124
vt 0.352722 0.213745
vt 0.371429 0.240082
vt 0.338043 0.240082
vt 0.357666 0.190765
vt 0.329254 0.196075
vt 0.326141 0.213745
vt 0.318329 0.240082
vt 0.303925 0.182922
s 1
usemtl npc03_05
f 97/75/92 98/76/93 99/77/94
f 99/77/94 98/76/93 100/78/95
f 99/77/94 100/78/95 101/79/96
f 102/80/97 103/77/94 104/81/98
f 104/81/98 103/77/94 101/79/99
f 104/81/98 101/79/99 105/82/100
o npc_03-0001-99.003
v 0.000000 24.370462 -6.179812
v -10.291114 22.931959 -0.510015
v -7.052824 26.058832 0.715806
v -12.458222 25.461014 7.247556
v -9.736079 26.516539 7.170010
v -10.368889 19.721022 14.736698
v -7.392208 23.506430 12.935248
vn -0.0000 0.4250 -0.9052
vn -0.5175 0.5646 -0.6429
vn -0.4576 0.7889 -0.4102
vn -0.4472 0.8944 0.0079
vn -0.4088 0.8413 0.3538
vn -0.2673 0.4560 0.8489
vn -0.2504 0.5478 0.7982
vt 0.417999 0.107239
vt 0.375000 0.146698
vt 0.375000 0.107239
vt 0.332031 0.146698
vt 0.332031 0.107239
vt 0.293640 0.146698
vt 0.280334 0.107239
s 1
usemtl npc03_05
f 106/83/101 107/84/102 108/85/103
f 108/85/103 107/84/102 109/86/104
f 108/85/103 109/86/104 110/87/105
f 110/87/105 109/86/104 111/88/106
f 110/87/105 111/88/106 112/89/107
o npc_03-0001-100.009
v -13.677883 13.955335 0.223689
v -14.077367 4.665791 5.383473
v -12.772859 12.421089 6.102264
v -11.881976 3.547216 13.940364
v -11.075939 14.490104 13.436315
vn -0.9397 0.1175 -0.3211
vn -0.9897 0.0236 0.1414
vn -0.9699 0.1183 0.2129
vn -0.7953 -0.0000 0.6063
vn -0.3700 -0.0078 0.9290
vt 0.357666 0.190765
vt 0.338135 0.240082
vt 0.326141 0.213745
vt 0.318329 0.240082
vt 0.303955 0.182800
s 1
usemtl npc03_05
f 113/90/108 114/91/109 115/92/110
f 115/92/110 114/91/109 116/93/111
f 115/92/110 116/93/111 117/94/112
o npc_03-0001-101.009
v -10.807260 -2.561746 13.510879
v -14.077367 4.665791 5.383473
v -14.904615 -1.046183 -0.465275
v 14.077367 4.665791 5.383473
v 10.807260 -2.561746 13.510879
v 14.904615 -1.046183 -0.465275
vn -0.7078 -0.1416 0.6921
vn -0.9897 0.0235 0.1414
vn -0.9386 -0.0235 -0.3442
vn 0.9898 0.0157 0.1414
vn 0.7241 -0.1968 0.6611
vn 0.9386 -0.0235 -0.3442
vt 0.303253 0.213745
vt 0.338226 0.240082
vt 0.352722 0.213745
vt 0.338043 0.240082
vt 0.326141 0.213745
s 1
usemtl npc03_05
f 118/95/113 119/96/114 120/97/115
f 121/98/116 122/99/117 123/97/118
o npc_03-0001-61.007
v 7.392208 23.506430 12.935248
v 2.782242 19.632282 15.547948
v 10.368889 19.721022 14.736698
vn 0.2504 0.5478 0.7982
vn 0.1567 0.1254 0.9796
vn 0.2672 0.4559 0.8489
vt 0.280334 0.107239
vt 0.253906 0.161011
vt 0.293640 0.146698
s 1
usemtl npc03_05
f 124/100/119 125/101/120 126/102/121
o npc_03-0001-63.012
v 0.000000 -21.885775 25.807869
v -5.963967 -14.235561 20.662996
v -9.997688 -21.628901 24.438885
v 0.000000 -6.664746 17.346418
v -5.963967 -14.235561 20.662996
v 5.963967 -14.235561 20.662996
v 0.000000 -6.664746 17.346418
v 5.963967 -14.235561 20.662996
v 11.931470 -6.239734 14.760561
v 12.801141 -15.674064 18.709438
v 13.670813 -21.229574 21.411613
v 9.997688 -21.628901 24.438885
v 5.963967 -14.235561 20.662996
v 0.000000 -21.885775 25.807869
v -5.963967 -14.235561 20.662996
vn -0.0000 0.5180 0.8554
vn -0.1569 0.4942 0.8551
vn -0.3300 0.5108 0.7938
vn -0.0000 0.3995 0.9167
vn 0.1569 0.4942 0.8551
vn -0.0000 0.3996 0.9167
vn 0.3924 0.4082 0.8242
vn 0.4087 0.4637 0.7861
vn 0.5444 0.4339 0.7179
vn 0.4087 0.4638 0.7860
vn 0.3301 0.5108 0.7938
vt 0.374817 0.385773
vt 0.328125 0.330078
vt 0.299194 0.385773
vt 0.374817 0.301788
vt 0.421539 0.330078
vt 0.374847 0.301788
vt 0.487244 0.301636
vt 0.487244 0.339905
vt 0.487244 0.385773
vt 0.450439 0.385773
vt 0.374847 0.385773
s 1
usemtl npc03_05
f 127/103/122 128/104/123 129/105/124
f 130/106/125 131/104/123 132/107/126
f 133/108/127 134/107/126 135/109/128
f 135/109/128 134/107/126 136/110/129
f 137/111/130 136/110/131 138/112/132
f 138/112/132 136/110/131 139/107/126
f 138/112/132 139/107/126 140/113/122
f 140/113/122 139/107/126 141/104/123
o npc_03-0001-65.012
v 0.000000 -6.664746 17.346418
v -10.807260 -2.561746 13.510879
v -11.931470 -6.239734 14.760561
v -13.720306 -5.838074 11.613987
v -13.670813 -21.229574 21.411613
v -9.997688 -21.628901 24.438885
v -12.801141 -15.674064 18.709438
v -5.963967 -14.235561 20.662996
v -11.931470 -6.239734 14.760561
v 0.000000 -6.664746 17.346418
vn -0.0000 0.3996 0.9167
vn -0.6508 0.4391 0.6194
vn -0.3925 0.4082 0.8242
vn -0.8832 0.3470 0.3155
vn -0.5444 0.4339 0.7179
vn -0.3301 0.5109 0.7938
vn -0.4087 0.4638 0.7860
vn -0.1569 0.4942 0.8551
vn -0.3924 0.4082 0.8242
vt 0.255188 0.297943
vt 0.352295 0.256348
vt 0.352295 0.297943
vt 0.383057 0.297943
vt 0.253357 0.385773
vt 0.299194 0.385773
vt 0.253357 0.339905
vt 0.328125 0.330078
vt 0.253357 0.301636
vt 0.374817 0.301788
s 1
usemtl npc03_05
f 142/114/133 143/115/134 144/116/135
f 144/116/135 143/115/134 145/117/136
f 146/118/137 147/119/138 148/120/139
f 148/120/139 147/119/138 149/121/140
f 148/120/139 149/121/140 150/122/141
f 150/122/141 149/121/140 151/123/133
o npc_03-0001-56.002
v 0.003535 42.993923 2.547081
v 0.003535 44.275963 21.554770
v -4.125637 44.507153 18.888384
v -6.914950 44.327339 13.185780
v -6.678088 45.952660 7.933537
v -6.918485 43.944363 7.575633
v 0.003535 45.011562 2.842352
v 0.003535 51.680977 3.504473
v 6.321028 51.914501 9.293572
v 4.136243 44.507153 18.888384
v 0.003535 46.440723 21.003000
v 0.003535 44.275963 21.554770
v -5.416003 52.425919 16.293579
v 0.003535 52.617405 20.642115
v -6.310422 51.914501 9.293572
v 5.423074 52.425919 16.293579
v 0.003535 51.680977 3.504473
v -6.914950 44.327339 13.185780
v -6.918485 43.944363 7.575633
v 4.136243 44.507153 18.888384
v 6.925555 43.944363 7.575633
v 6.925555 44.327339 13.185780
v -6.791216 46.064751 12.458040
v -4.125637 44.507153 18.888384
v -4.617037 46.639217 18.318720
v 4.624107 46.639217 18.318720
v 6.925555 44.327339 13.185780
v 6.798286 46.064751 12.458040
v 6.925555 43.944363 7.575633
v 6.688694 45.952660 7.933537
v 0.003535 42.993923 2.547081
v 0.003535 52.617405 20.642115
vn -0.0000 -0.9414 -0.3373
vn -0.0000 -0.6750 0.7379
vn -0.4743 -0.7826 0.4032
vn -0.9021 -0.3844 0.1961
vn -0.8770 0.1566 -0.4542
vn -0.7302 -0.4947 -0.4712
vn -0.0001 0.1885 -0.9821
vn -0.0000 0.8019 -0.5975
vn 0.7367 0.5722 -0.3605
vn 0.4743 -0.7826 0.4032
vn -0.0000 0.1173 0.9931
vn -0.0000 -0.6750 0.7378
vn -0.8238 0.4237 0.3766
vn -0.0000 0.8308 0.5565
vn -0.7367 0.5721 -0.3605
vn 0.8238 0.4237 0.3766
vn -0.7303 -0.4947 -0.4711
vn 0.4743 -0.7826 0.4031
vn 0.7303 -0.4947 -0.4711
vn 0.9021 -0.3844 0.1961
vn -0.9842 0.0630 0.1653
vn -0.7315 0.0865 0.6764
vn 0.7314 0.0865 0.6764
vn 0.9842 0.0630 0.1654
vn 0.8770 0.1566 -0.4542
vn -0.0000 0.8309 0.5565
vt 0.128876 0.003357
vt 0.009979 0.003357
vt 0.027344 0.040344
vt 0.146362 0.243195
vt 0.093842 0.219025
vt 0.086548 0.243195
vt 0.020142 0.219025
vt 0.020142 0.149200
vt 0.118866 0.148468
vt 0.181549 0.243195
vt 0.244171 0.219025
vt 0.244171 0.243195
vt 0.174683 0.148438
vt 0.226227 0.095764
vt 0.073883 0.095795
vt 0.066376 0.056030
vt 0.105469 0.040344
vt 0.146362 0.219025
vt 0.181549 0.219025
vt 0.020142 0.243195
vt 0.244171 0.134186
s 1
usemtl npc03_05
f 152/124/142 153/125/143 154/126/144
f 155/127/145 156/128/146 157/129/147
f 158/130/148 159/131/149 160/132/150
f 161/133/151 162/134/152 163/135/153
f 164/136/154 165/137/155 166/132/156
f 167/136/157 160/132/150 165/137/155
f 165/137/155 160/132/150 168/138/149
f 165/137/155 168/138/149 166/132/156
f 169/139/145 170/140/158 154/126/144
f 154/126/144 170/140/158 152/124/142
f 153/125/143 152/124/142 171/126/159
f 171/126/159 152/124/142 172/140/160
f 171/126/159 172/140/160 173/139/161
f 156/128/146 155/127/145 174/141/162
f 174/141/162 155/127/145 175/133/144
f 174/141/162 175/133/144 176/142/163
f 159/131/149 158/130/148 166/132/156
f 162/134/152 161/133/151 177/142/164
f 177/142/164 161/133/151 178/127/161
f 177/142/164 178/127/161 179/141/165
f 179/141/165 178/127/161 180/129/160
f 179/141/165 180/129/160 181/128/166
f 182/143/142 157/129/147 158/130/148
f 158/130/148 157/129/147 156/128/146
f 158/130/148 156/128/146 166/132/156
f 166/132/156 156/128/146 174/141/162
f 166/132/156 174/141/162 164/136/154
f 164/136/154 174/141/162 176/142/163
f 164/136/154 176/142/163 183/144/167
f 175/133/144 163/135/153 176/142/163
f 176/142/163 163/135/153 162/134/152
f 176/142/163 162/134/152 183/144/167
f 183/144/167 162/134/152 177/142/164
f 183/144/167 177/142/164 167/136/157
f 167/136/157 177/142/164 179/141/165
f 167/136/157 179/141/165 160/132/150
f 160/132/150 179/141/165 181/128/166
f 160/132/150 181/128/166 158/130/148
f 158/130/148 181/128/166 180/129/160
f 158/130/148 180/129/160 182/143/142
