mtllib style1_chief_1.mtl
o npc_03-0001-73.003
v 12.101162 18.927042 15.005127
v 7.625535 22.831547 14.029839
v 5.214494 21.937155 14.190895
v 7.625535 22.831547 14.029839
v 12.101162 18.927042 15.005127
v 10.040111 27.712175 6.961232
v 12.847100 26.623959 7.038778
v 7.275545 26.792095 0.545802
v 12.274389 21.675606 -1.708994
v 0.000000 24.589973 -6.573507
v 13.674348 6.022559 -2.851302
v 0.000000 7.285917 -11.127835
vn 0.2910 0.3539 0.8888
vn 0.2285 0.4728 0.8511
vn 0.0314 0.3302 0.9434
vn 0.2285 0.4728 0.8510
vn 0.2911 0.3540 0.8888
vn 0.3922 0.8393 0.3764
vn 0.3993 0.9160 0.0392
vn 0.4386 0.7754 -0.4543
vn 0.5351 0.3935 -0.7476
vn -0.0000 0.3835 -0.9235
vn 0.7668 0.1018 -0.6338
vn -0.0000 0.1720 -0.9851
vt 0.122040 0.284332
vt 0.024414 0.252045
vt 0.009979 0.252350
vt 0.077820 0.252045
vt 0.133911 0.267609
vt 0.109070 0.252045
vt 0.133911 0.305420
vt 0.050568 0.252045
vt 0.133911 0.393066
vt 0.051544 0.393066
s 1
usemtl npc03_05
f 1/1/1 2/2/2 3/3/3
f 4/2/4 5/1/5 6/4/6
f 6/4/6 5/1/5 7/5/7
f 6/4/6 7/5/7 8/6/8
f 8/6/8 7/5/7 9/7/9
f 8/6/8 9/7/9 10/8/10
f 10/8/10 9/7/9 11/9/11
f 10/8/10 11/9/11 12/10/12
o npc_03-0001-74.003
v -5.543272 18.833633 15.673215
v -12.101162 18.927042 15.005127
v -6.642735 3.797085 16.764824
v -12.101162 18.927042 15.005127
v -5.543272 18.833633 15.673215
v -5.214494 21.937155 14.190895
v -5.214494 21.937155 14.190895
v -7.625535 22.831547 14.029839
v -12.101162 18.927042 15.005127
v -10.040111 27.712175 6.961232
v -12.847100 26.623959 7.038778
v -7.275545 26.792095 0.545802
v -12.270854 21.675606 -1.708994
v 0.000000 24.589973 -6.573507
v -13.674348 6.022559 -2.851302
v 0.000000 7.285917 -11.127835
v 0.000000 -5.686286 -12.347691
v 13.674348 6.022559 -2.851302
v 16.085388 -7.078083 -1.386878
v 14.968250 4.896978 5.520669
v 14.989461 -8.432515 13.931417
v 13.483445 3.939534 14.423534
v 6.642735 3.797085 16.764824
v 12.101162 18.927042 15.005127
v 5.543272 18.833633 15.673215
v 5.214494 21.937155 14.190895
vn -0.0945 0.2599 0.9610
vn -0.2524 0.3944 0.8836
vn -0.2517 0.0236 0.9675
vn -0.2524 0.3945 0.8836
vn -0.0945 0.2600 0.9610
vn -0.0315 0.3302 0.9434
vn -0.0314 0.3302 0.9434
vn -0.2285 0.4728 0.8510
vn -0.2525 0.3945 0.8835
vn -0.3922 0.8393 0.3764
vn -0.3993 0.9160 0.0392
vn -0.4386 0.7754 -0.4543
vn -0.5351 0.3935 -0.7476
vn -0.0000 0.3835 -0.9236
vn -0.7699 0.1100 -0.6286
vn -0.0001 0.1720 -0.9851
vn -0.0000 0.0472 -0.9989
vn 0.7668 0.1017 -0.6338
vn 0.9434 0.0786 -0.3223
vn 0.9979 0.0629 0.0157
vn 0.8847 0.0626 0.4619
vn 0.8181 0.0315 0.5743
vn 0.2517 0.0236 0.9675
vn 0.2910 0.3539 0.8889
vn 0.0946 0.2599 0.9610
vn 0.0315 0.3302 0.9434
vt 0.009979 0.284790
vt 0.122040 0.284332
vt 0.009979 0.393066
vt 0.009979 0.252350
vt 0.024414 0.252045
vt 0.077820 0.252045
vt 0.133911 0.267609
vt 0.109070 0.252045
vt 0.133911 0.305420
vt 0.050568 0.252045
vt 0.133911 0.393066
vt 0.051544 0.393066
vt 0.051544 0.493835
vt 0.161774 0.493835
vt 0.161774 0.393066
vt 0.009979 0.493835
vt 0.076843 0.393066
s 1
usemtl npc03_05
f 13/11/13 14/12/14 15/13/15
f 16/12/16 17/11/17 18/14/18
f 19/14/19 20/15/20 21/12/21
f 21/12/21 20/15/20 22/16/22
f 21/12/21 22/16/22 23/17/23
f 23/17/23 22/16/22 24/18/24
f 23/17/23 24/18/24 25/19/25
f 25/19/25 24/18/24 26/20/26
f 25/19/25 26/20/26 27/21/27
f 27/21/27 26/20/26 28/22/28
f 27/21/27 28/22/28 29/23/29
f 29/23/29 28/22/28 30/21/30
f 29/23/29 30/21/30 31/24/31
f 31/24/31 30/21/30 32/25/32
f 31/24/31 32/25/32 33/26/33
f 33/26/33 32/25/32 34/27/34
f 33/26/33 34/27/34 35/13/35
f 35/13/35 34/27/34 36/12/36
f 35/13/35 36/12/36 37/11/37
f 37/11/37 36/12/36 38/14/38
o npc_03-0001-75.003
v -12.101162 18.927042 15.005127
v -13.483445 3.939534 14.423534
v -6.642735 3.797085 16.764824
v -17.449995 24.970615 7.375805
v -26.864367 20.596729 2.260759
v -26.864367 25.306889 8.413726
v -17.449995 24.970615 7.375805
v -12.847100 26.623959 7.038778
v -12.270854 21.675606 -1.708994
v -13.483445 3.939534 14.423534
v -12.101162 18.927042 15.005127
v -14.918756 10.354411 8.443553
v -26.864367 18.814951 13.698778
v -26.864367 11.874646 8.855142
v -12.847100 26.623959 7.038778
v -17.449995 24.970615 7.375805
v -12.101162 18.927042 15.005127
v -26.864367 25.306889 8.413726
v -26.864367 18.814951 13.698778
v -26.864367 20.596729 2.260759
v -26.864367 11.874646 8.855142
v -12.270854 21.675606 -1.708994
v -14.130395 12.876459 1.067746
v -13.674348 6.022559 -2.851302
v -14.968250 4.896978 5.520669
v -16.085388 -7.078083 -1.386878
v -14.989461 -8.432515 13.931417
vn -0.2524 0.3944 0.8836
vn -0.8146 0.0235 0.5796
vn -0.2517 0.0236 0.9675
vn -0.1565 0.9862 -0.0548
vn -0.5517 0.4256 -0.7173
vn -0.3929 0.8724 0.2908
vn -0.3992 0.9160 0.0392
vn -0.5351 0.3934 -0.7476
vn -0.2525 0.3945 0.8835
vn -0.7706 -0.4953 0.4011
vn -0.4322 -0.1965 0.8801
vn -0.5891 -0.7227 -0.3614
vn -0.3993 0.9160 0.0391
vn -0.2524 0.3945 0.8835
vn -0.5517 0.4257 -0.7172
vn -0.5351 0.3935 -0.7476
vn -0.8788 -0.2197 -0.4237
vn -0.7700 0.1100 -0.6285
vn -0.9985 0.0550 -0.0000
vn -0.9434 0.0786 -0.3223
vn -0.8847 0.0627 0.4619
vt 0.122040 0.284332
vt 0.076843 0.393066
vt 0.009979 0.393066
vt 0.182129 0.255310
vt 0.247894 0.305420
vt 0.247894 0.255310
vt 0.133911 0.255310
vt 0.133911 0.305420
vt 0.160736 0.367584
vt 0.247894 0.333923
vt 0.247894 0.367615
vt 0.146942 0.348114
vt 0.133911 0.393066
vt 0.161774 0.393066
vt 0.161774 0.493835
vt 0.009979 0.493835
s 1
usemtl npc03_05
f 39/28/39 40/29/40 41/30/41
f 42/31/42 43/32/43 44/33/44
f 45/31/42 46/34/45 47/35/46
f 48/29/40 49/28/47 50/36/48
f 50/36/48 49/28/47 51/37/49
f 50/36/48 51/37/49 52/38/50
f 53/34/51 54/31/42 55/28/52
f 55/28/52 54/31/42 56/33/44
f 55/28/52 56/33/44 57/37/49
f 57/37/49 56/33/44 58/32/53
f 57/37/49 58/32/53 59/38/50
f 59/38/50 58/32/53 60/35/54
f 59/38/50 60/35/54 61/39/55
f 61/39/55 60/35/54 62/40/56
f 61/39/55 62/40/56 63/41/57
f 63/41/57 62/40/56 64/42/58
f 63/41/57 64/42/58 65/43/59
o npc_03-0001-76.003
v -26.864367 11.874646 8.855142
v -14.130395 12.876459 1.067746
v -14.918756 10.354411 8.443553
v -14.968250 4.896978 5.520669
v -13.483445 3.939534 14.423534
v -14.989461 -8.432515 13.931417
v -6.642735 3.797085 16.764824
vn -0.5892 -0.7227 -0.3614
vn -0.8788 -0.2197 -0.4237
vn -0.7706 -0.4954 0.4010
vn -0.9985 0.0550 -0.0000
vn -0.8146 0.0235 0.5796
vn -0.8847 0.0626 0.4619
vn -0.2517 0.0236 0.9675
vt 0.247498 0.367615
vt 0.146942 0.348114
vt 0.160736 0.367584
vt 0.161774 0.393066
vt 0.076843 0.393066
vt 0.009979 0.493835
vt 0.009979 0.393066
s 1
usemtl npc03_05
f 66/44/60 67/45/61 68/46/62
f 68/46/62 67/45/61 69/47/63
f 68/46/62 69/47/63 70/48/64
f 70/48/64 69/47/63 71/49/65
f 70/48/64 71/49/65 72/50/66
o npc_03-0001-77.003
v 26.864367 20.596729 2.260759
v 12.274389 21.675606 -1.708994
v 17.449995 24.970615 7.375805
v 12.847100 26.623959 7.038778
v 12.101162 18.927042 15.005127
v 14.607654 10.354411 8.440570
v 26.864367 11.874646 8.855142
v 26.864367 18.814951 13.698778
v 26.864367 20.596729 2.260759
v 26.864367 25.306889 8.413726
v 17.449995 24.970615 7.375805
v 12.101162 18.927042 15.005127
v 13.483445 3.939534 14.423534
v 14.968250 4.896978 5.520669
vn 0.5518 0.4256 -0.7172
vn 0.5351 0.3934 -0.7475
vn 0.1491 0.9808 0.1255
vn 0.3992 0.9160 0.0392
vn 0.2910 0.3540 0.8888
vn 0.7715 -0.4802 0.4173
vn 0.5892 -0.7227 -0.3614
vn 0.3298 0.0628 0.9420
vn 0.5517 0.4257 -0.7172
vn 0.5431 0.8343 0.0945
vn 0.1491 0.9808 0.1256
vn 0.2911 0.3539 0.8888
vn 0.8181 0.0314 0.5742
vn 0.9979 0.0628 0.0157
vt 0.247894 0.305420
vt 0.133911 0.305420
vt 0.182129 0.255310
vt 0.133911 0.255310
vt 0.122040 0.284332
vt 0.160736 0.367584
vt 0.247894 0.367615
vt 0.247894 0.333923
vt 0.247894 0.255310
vt 0.076843 0.393066
vt 0.161774 0.393066
s 1
usemtl npc03_05
f 73/51/67 74/52/68 75/53/69
f 75/53/69 74/52/68 76/54/70
f 75/53/69 76/54/70 77/55/71
f 78/56/72 79/57/73 80/58/74
f 80/58/74 79/57/73 81/51/75
f 80/58/74 81/51/75 82/59/76
f 82/59/76 81/51/75 83/53/77
f 82/59/76 83/53/77 80/58/74
f 80/58/74 83/53/77 84/55/78
f 80/58/74 84/55/78 78/56/72
f 78/56/72 84/55/78 85/60/79
f 78/56/72 85/60/79 86/61/80
o npc_03-0001-78.003
v 26.864367 11.874646 8.855142
v 14.607654 10.354411 8.440570
v 14.303623 12.876459 1.067746
v 14.968250 4.896978 5.520669
v 26.864367 20.596729 2.260759
v 26.864367 11.874646 8.855142
v 12.274389 21.675606 -1.708994
v 14.303623 12.876459 1.067746
v 13.674348 6.022559 -2.851302
v 14.968250 4.896978 5.520669
vn 0.5892 -0.7227 -0.3613
vn 0.7715 -0.4802 0.4173
vn 0.8817 -0.2204 -0.4172
vn 0.9979 0.0629 0.0157
vn 0.5517 0.4256 -0.7173
vn 0.5351 0.3935 -0.7476
vn 0.7668 0.1017 -0.6338
vn 0.9979 0.0628 0.0157
vt 0.247498 0.367615
vt 0.160736 0.367584
vt 0.146942 0.348114
vt 0.161774 0.393066
vt 0.247894 0.305420
vt 0.247894 0.367615
vt 0.133911 0.305420
vt 0.133911 0.393066
s 1
usemtl npc03_05
f 87/62/81 88/63/82 89/64/83
f 89/64/83 88/63/82 90/65/84
f 91/66/85 92/67/81 93/68/86
f 93/68/86 92/67/81 94/64/83
f 93/68/86 94/64/83 95/69/87
f 95/69/87 94/64/83 96/65/88
o npc_03-0001-79.003
v -13.674348 6.022559 -2.851302
v 0.000000 -5.686286 -12.347691
v -16.085388 -7.078083 -1.386878
vn -0.7699 0.1100 -0.6286
vn -0.0000 0.0472 -0.9989
vn -0.9434 0.0786 -0.3223
vt 0.133911 0.393066
vt 0.051544 0.493835
vt 0.161774 0.493835
s 1
usemtl npc03_05
f 97/70/89 98/71/90 99/72/91
o npc_03-0001-80.003
v -26.864367 20.596729 2.260759
v -17.449995 24.970615 7.375805
v -12.270854 21.675606 -1.708994
vn -0.5517 0.4256 -0.7173
vn -0.1565 0.9862 -0.0548
vn -0.5352 0.3934 -0.7475
vt 0.247894 0.305420
vt 0.182129 0.255310
vt 0.133911 0.305420
s 1
usemtl npc03_05
f 100/73/92 101/74/93 102/75/94
o npc_03-0001-98.005
v 14.904615 -1.046183 -0.465275
v 13.808688 4.910989 -0.873882
v 14.077367 4.665791 5.383473
v 13.677883 13.955335 0.223689
v 12.914269 12.421089 6.102264
v 10.807260 -2.561746 13.510879
v 14.077367 4.665791 5.383473
v 11.881976 3.547216 13.940364
v 11.075939 14.490104 13.436315
vn 0.9386 -0.0235 -0.3441
vn 0.9312 0.0939 -0.3521
vn 0.9898 0.0157 0.1414
vn 0.9397 0.1175 -0.3210
vn 0.9712 0.1096 0.2115
vn 0.7241 -0.1968 0.6611
vn 0.8185 -0.0079 0.5745
vn 0.9712 0.1097 0.2115
vn 0.4090 0.0158 0.9124
vt 0.352722 0.213745
vt 0.371429 0.240082
vt 0.338043 0.240082
vt 0.357666 0.190765
vt 0.329254 0.196075
vt 0.326141 0.213745
vt 0.318329 0.240082
vt 0.303925 0.182922
s 1
usemtl npc03_05
f 103/76/95 104/77/96 105/78/97
f 105/78/97 104/77/96 106/79/98
f 105/78/97 106/79/98 107/80/99
f 108/81/100 109/78/97 110/82/101
f 110/82/101 109/78/97 107/80/102
f 110/82/101 107/80/102 111/83/103
o npc_03-0001-67.008
v -14.904615 -1.046183 -0.465275
v -15.190970 -4.308500 -0.790372
v -13.720306 -5.838074 11.613987
v -10.807260 -2.561746 13.510879
v 10.807260 -2.561746 13.510879
v 13.720306 -5.838074 11.613987
v 14.904615 -1.046183 -0.465275
v 15.190970 -4.308500 -0.790372
v 0.000000 -4.448614 -11.354507
v 0.000000 -1.291383 -10.558170
vn -0.8858 0.2822 -0.3684
vn -0.9091 0.1176 -0.3997
vn -0.8832 0.3470 0.3154
vn -0.6508 0.4391 0.6194
vn 0.6508 0.4391 0.6194
vn 0.8832 0.3470 0.3154
vn 0.8858 0.2822 -0.3684
vn 0.9091 0.1176 -0.3997
vn -0.0000 0.1961 -0.9806
vn -0.0000 0.2425 -0.9701
vt 0.473022 0.256348
vt 0.473022 0.297943
vt 0.383057 0.297943
vt 0.352295 0.256348
vt 0.332642 0.297943
vt 0.332642 0.256348
s 1
usemtl npc03_05
f 112/84/104 113/85/105 114/86/106
f 112/84/104 114/86/106 115/87/107
f 116/87/108 117/86/109 118/84/110
f 118/84/110 117/86/109 119/85/111
f 118/84/110 119/85/111 120/88/112
f 113/85/105 112/84/104 120/88/112
f 120/88/112 112/84/104 121/89/113
f 120/88/112 121/89/113 118/84/110
o npc_03-0001-66.008
v -4.931674 -4.343526 17.817657
v 0.000000 -4.798897 15.783570
v -4.146849 -1.492211 17.367294
v 4.931674 -4.343526 17.817657
v 0.000000 -4.798897 15.783570
v 4.115031 -7.491416 18.318724
v -4.115031 -7.491416 18.318724
v 4.143313 -1.492211 17.367294
v 0.000000 -6.664746 17.346418
v 0.000000 -2.954065 16.690260
v -10.807260 -2.561746 13.510879
vn 0.3852 0.1415 0.9119
vn 0.3832 0.0391 0.9228
vn -0.3852 0.1415 0.9119
vn -0.3865 0.2366 0.8914
vn 0.3865 0.2366 0.8914
vn -0.3832 0.0391 0.9228
vn -0.0000 0.3996 0.9167
vn -0.0000 0.2830 0.9591
vn -0.6508 0.4391 0.6194
vt 0.267639 0.126740
vt 0.325470 0.107697
vt 0.267700 0.107697
vt 0.267639 0.107697
vt 0.255188 0.297943
vt 0.255188 0.256348
vt 0.352295 0.256348
s 1
usemtl npc03_05
f 122/90/114 123/91/114 124/92/115
f 125/90/116 126/91/116 127/93/117
f 123/91/114 122/90/114 128/93/118
f 126/91/116 125/90/116 129/92/119
f 130/94/120 131/95/121 132/96/122
o npc_03-0001-65.008
v 0.000000 -6.664746 17.346418
v -10.807260 -2.561746 13.510879
v -11.931470 -6.239734 14.760561
v -13.720306 -5.838074 11.613987
v -13.670813 -21.229574 21.411613
v -9.997688 -21.628901 24.438885
v -12.801141 -15.674064 18.709438
v -5.963967 -14.235561 20.662996
v -11.931470 -6.239734 14.760561
v 0.000000 -6.664746 17.346418
vn -0.0000 0.3996 0.9167
vn -0.6508 0.4391 0.6194
vn -0.3925 0.4082 0.8242
vn -0.8832 0.3470 0.3155
vn -0.5444 0.4339 0.7179
vn -0.3301 0.5109 0.7938
vn -0.4087 0.4638 0.7860
vn -0.1569 0.4942 0.8551
vn -0.3924 0.4082 0.8242
vt 0.255188 0.297943
vt 0.352295 0.256348
vt 0.352295 0.297943
vt 0.383057 0.297943
vt 0.253357 0.385773
vt 0.299194 0.385773
vt 0.253357 0.339905
vt 0.328125 0.330078
vt 0.253357 0.301636
vt 0.374817 0.301788
s 1
usemtl npc03_05
f 133/97/123 134/98/124 135/99/125
f 135/99/125 134/98/124 136/100/126
f 137/101/127 138/102/128 139/103/129
f 139/103/129 138/102/128 140/104/130
f 139/103/129 140/104/130 141/105/131
f 141/105/131 140/104/130 142/106/123
o npc_03-0001-64.008
v 13.720306 -5.838074 11.613987
v 10.807260 -2.561746 13.510879
v 11.931470 -6.239734 14.760561
v 0.000000 -2.954065 16.690260
v 0.000000 -6.664746 17.346418
vn 0.8832 0.3470 0.3155
vn 0.6508 0.4391 0.6195
vn 0.3925 0.4082 0.8242
vn -0.0000 0.2830 0.9591
vn -0.0000 0.3995 0.9167
vt 0.383057 0.297943
vt 0.352295 0.256348
vt 0.352295 0.297943
vt 0.255188 0.256348
vt 0.255188 0.297943
s 1
usemtl npc03_05
f 143/107/132 144/108/133 145/109/134
f 145/109/134 144/108/133 146/110/135
f 145/109/134 146/110/135 147/111/136
o npc_03-0001-63.008
v 0.000000 -21.885775 25.807869
v -5.963967 -14.235561 20.662996
v -9.997688 -21.628901 24.438885
v 0.000000 -6.664746 17.346418
v -5.963967 -14.235561 20.662996
v 5.963967 -14.235561 20.662996
v 0.000000 -6.664746 17.346418
v 5.963967 -14.235561 20.662996
v 11.931470 -6.239734 14.760561
v 12.801141 -15.674064 18.709438
v 13.670813 -21.229574 21.411613
v 9.997688 -21.628901 24.438885
v 5.963967 -14.235561 20.662996
v 0.000000 -21.885775 25.807869
v -5.963967 -14.235561 20.662996
vn -0.0000 0.5180 0.8554
vn -0.1569 0.4942 0.8551
vn -0.3300 0.5108 0.7938
vn -0.0000 0.3995 0.9167
vn 0.1569 0.4942 0.8551
vn -0.0000 0.3996 0.9167
vn 0.3924 0.4082 0.8242
vn 0.4087 0.4637 0.7861
vn 0.5444 0.4339 0.7179
vn 0.4087 0.4638 0.7860
vn 0.3301 0.5108 0.7938
vt 0.374817 0.385773
vt 0.328125 0.330078
vt 0.299194 0.385773
vt 0.374817 0.301788
vt 0.421539 0.330078
vt 0.374847 0.301788
vt 0.487244 0.301636
vt 0.487244 0.339905
vt 0.487244 0.385773
vt 0.450439 0.385773
vt 0.374847 0.385773
s 1
usemtl npc03_05
f 148/112/137 149/113/138 150/114/139
f 151/115/140 152/113/138 153/116/141
f 154/117/142 155/116/141 156/118/143
f 156/118/143 155/116/141 157/119/144
f 158/120/145 157/119/146 159/121/147
f 159/121/147 157/119/146 160/116/141
f 159/121/147 160/116/141 161/122/137
f 161/122/137 160/116/141 162/113/138
o npc_03-0001-101.005
v -10.807260 -2.561746 13.510879
v -14.077367 4.665791 5.383473
v -14.904615 -1.046183 -0.465275
v 14.077367 4.665791 5.383473
v 10.807260 -2.561746 13.510879
v 14.904615 -1.046183 -0.465275
vn -0.7078 -0.1416 0.6921
vn -0.9897 0.0235 0.1414
vn -0.9386 -0.0235 -0.3442
vn 0.9898 0.0157 0.1414
vn 0.7241 -0.1968 0.6611
vn 0.9386 -0.0235 -0.3442
vt 0.303253 0.213745
vt 0.338226 0.240082
vt 0.352722 0.213745
vt 0.338043 0.240082
vt 0.326141 0.213745
s 1
usemtl npc03_05
f 163/123/148 164/124/149 165/125/150
f 166/126/151 167/127/152 168/125/153
o npc_03-0001-100.005
v -13.677883 13.955335 0.223689
v -14.077367 4.665791 5.383473
v -12.772859 12.421089 6.102264
v -11.881976 3.547216 13.940364
v -11.075939 14.490104 13.436315
vn -0.9397 0.1175 -0.3211
vn -0.9897 0.0236 0.1414
vn -0.9699 0.1183 0.2129
vn -0.7953 -0.0000 0.6063
vn -0.3700 -0.0078 0.9290
vt 0.357666 0.190765
vt 0.338135 0.240082
vt 0.326141 0.213745
vt 0.318329 0.240082
vt 0.303955 0.182800
s 1
usemtl npc03_05
f 169/128/154 170/129/155 171/130/156
f 171/130/156 170/129/155 172/131/157
f 171/130/156 172/131/157 173/132/158
