mtllib style2_chief_1.mtl
o npc_03-0001-72.004
v 12.429940 4.046955 8.136353
v 9.580528 6.627384 10.140615
v 10.326466 2.722879 10.820633
v 0.000000 6.055253 15.628478
v 10.326466 2.722879 10.820633
v 9.580528 6.627384 10.140615
v 0.000000 6.055253 14.927583
v -9.195186 -5.212233 17.158518
v 0.000000 -6.431222 18.175562
v -6.158406 6.265423 12.642962
v -7.858861 -5.445755 18.282932
v 12.571350 -3.778401 12.502782
v 9.195186 -5.212233 17.158518
v 0.000000 -6.431222 18.876457
v -12.571350 -3.778401 12.502782
v -10.326466 2.722879 10.820633
v -9.584064 6.627384 10.140615
v 0.000000 10.627631 -9.105677
v -12.680943 7.066406 -2.770774
v -12.203684 9.380619 -2.257779
v -12.429940 4.046955 8.136353
v -9.584064 6.627384 10.140615
v -10.326466 2.722879 10.820633
v 12.203684 9.380619 -2.257779
v 12.680943 7.066406 -2.770774
v 0.000000 8.166299 -9.499372
vn 0.8587 0.3624 0.3624
vn 0.6744 0.3764 0.6352
vn 0.5976 0.3459 0.7233
vn 0.1417 0.3622 0.9213
vn 0.5975 0.3460 0.7234
vn -0.3234 0.3392 0.8834
vn -0.4239 0.4082 0.8085
vn -0.0707 0.2512 0.9654
vn -0.3776 0.4483 0.8102
vn -0.2120 0.3534 0.9111
vn 0.6845 0.3934 0.6137
vn 0.4576 0.3945 0.7969
vn 0.0472 0.2515 0.9667
vn -0.6845 0.3934 0.6137
vn -0.5737 0.3537 0.7388
vn -0.6623 0.3785 0.6466
vn -0.0000 0.2425 -0.9701
vn -0.7472 0.2360 -0.6213
vn -0.8874 0.4241 -0.1807
vn -0.8587 0.3624 0.3624
vn -0.6624 0.3785 0.6465
vn -0.5737 0.3536 0.7388
vn 0.8874 0.4241 -0.1807
vn 0.7472 0.2360 -0.6213
vn -0.0000 0.1568 -0.9876
vt 0.425751 0.498016
vt 0.402344 0.450958
vt 0.402344 0.498016
vt 0.300751 0.399994
vt 0.398438 0.435272
vt 0.398438 0.399994
vt 0.253876 0.399994
vt 0.339844 0.498016
vt 0.300751 0.498016
vt 0.253876 0.498016
vt 0.398438 0.498016
vt 0.352356 0.498016
vt 0.316376 0.498016
vt 0.496094 0.450958
vt 0.453125 0.498016
vt 0.453125 0.450958
vt 0.496094 0.498016
s 1
usemtl npc03_05
f 1/1/1 2/2/2 3/3/3
f 4/4/4 5/5/5 6/6/2
f 7/7/6 8/8/7 9/9/8
f 10/7/9 11/10/10 4/4/4
f 12/11/11 5/5/5 13/12/12
f 13/12/12 5/5/5 4/4/4
f 13/12/12 4/4/4 14/13/13
f 14/13/13 4/4/4 11/10/10
f 15/11/14 8/8/7 16/5/15
f 16/5/15 8/8/7 7/7/6
f 16/5/15 7/7/6 17/6/16
f 18/14/17 19/15/18 20/16/19
f 20/16/19 19/15/18 21/1/20
f 20/16/19 21/1/20 22/2/21
f 22/2/21 21/1/20 23/3/22
f 2/2/2 1/1/1 24/16/23
f 24/16/23 1/1/1 25/15/24
f 24/16/23 25/15/24 18/14/17
f 18/14/17 25/15/24 26/17/25
f 18/14/17 26/17/25 19/15/18
o npc_03-0001-41.004
v 1.898429 21.656925 15.565843
v 2.103474 20.423925 15.011092
v 5.454891 25.148092 12.311898
v 8.965395 21.916138 14.023873
v 7.689169 27.754210 8.628469
v 12.207219 24.669371 8.270565
v 6.183153 28.284307 1.992331
v 9.368413 23.186501 -2.785689
v 0.000000 25.995783 -6.782284
v 0.000000 19.721020 -9.302526
v -9.368413 23.186501 -2.785689
vn 0.2829 -0.0236 0.9589
vn 0.3066 0.3616 0.8805
vn 0.5977 0.2910 0.7471
vn 0.2757 0.6223 0.7326
vn 0.6889 0.6420 0.3366
vn 0.6214 0.7787 0.0865
vn 0.7026 0.5921 -0.3947
vn 0.5530 0.6162 -0.5609
vn -0.0000 0.6198 -0.7847
vn -0.0000 0.3700 -0.9290
vn -0.5530 0.6161 -0.5609
vt 0.308594 0.572540
vt 0.312500 0.596069
vt 0.359375 0.541168
vt 0.359375 0.596069
vt 0.402344 0.541168
vt 0.402344 0.596069
vt 0.445312 0.541168
vt 0.445312 0.596069
vt 0.492188 0.541168
vt 0.492188 0.596069
s 1
usemtl npc03_05_3
f 27/18/26 28/19/27 29/20/28
f 29/20/28 28/19/27 30/21/29
f 29/20/28 30/21/29 31/22/30
f 31/22/30 30/21/29 32/23/31
f 31/22/30 32/23/31 33/24/32
f 33/24/32 32/23/31 34/25/33
f 33/24/32 34/25/33 35/26/34
f 35/26/34 34/25/33 36/27/35
f 35/26/34 36/27/35 37/25/36
o npc_03-0001-42.004
v 6.183153 28.284307 1.992331
v 5.801346 30.946470 3.307628
v 7.689169 27.754210 8.628469
v 6.278605 29.134331 9.245853
v 5.454891 25.148092 12.311898
v 4.896322 26.883171 12.702610
v 1.898429 21.656925 15.565843
vn 0.7026 0.5921 -0.3947
vn 0.8479 0.4710 -0.2433
vn 0.6889 0.6419 0.3366
vn 0.7893 0.4262 0.4420
vn 0.5977 0.2910 0.7471
vn 0.5808 0.2432 0.7769
vn 0.2830 -0.0236 0.9588
vt 0.445312 0.541168
vt 0.445312 0.509796
vt 0.402344 0.541168
vt 0.402344 0.509796
vt 0.359375 0.541168
vt 0.359375 0.509796
vt 0.308594 0.572540
s 1
usemtl npc03_05_3
f 38/28/37 39/29/38 40/30/39
f 40/30/39 39/29/38 41/31/40
f 40/30/39 41/31/40 42/32/41
f 42/32/41 41/31/40 43/33/42
f 42/32/41 43/33/42 44/34/43
o npc_03-0001-43.004
v 0.000000 25.995783 -6.782284
v -9.368413 23.186501 -2.785689
v -6.183153 28.284307 1.992331
v -12.207219 24.669371 8.270565
v -7.689169 27.754210 8.628469
v -8.965395 21.916138 14.023873
v -5.454891 25.148092 12.311898
v -2.103474 20.423925 15.011092
v -1.898429 21.656925 15.565843
vn -0.0000 0.6199 -0.7847
vn -0.5530 0.6162 -0.5608
vn -0.7026 0.5921 -0.3947
vn -0.6214 0.7787 0.0865
vn -0.6889 0.6420 0.3366
vn -0.2757 0.6223 0.7326
vn -0.5977 0.2909 0.7471
vn -0.3066 0.3616 0.8805
vn -0.2829 -0.0236 0.9589
vt 0.492188 0.541168
vt 0.445312 0.596069
vt 0.445312 0.541168
vt 0.402344 0.596069
vt 0.402344 0.541168
vt 0.359375 0.596069
vt 0.359375 0.541168
vt 0.312500 0.596069
vt 0.308594 0.572540
s 1
usemtl npc03_05_3
f 45/35/44 46/36/45 47/37/46
f 47/37/46 46/36/45 48/38/47
f 47/37/46 48/38/47 49/39/48
f 49/39/48 48/38/47 50/40/49
f 49/39/48 50/40/49 51/41/50
f 51/41/50 50/40/49 52/42/51
f 51/41/50 52/42/51 53/43/52
o npc_03-0001-45.004
v 6.183153 28.284307 1.992331
v 0.000000 25.995783 -6.782284
v 0.000000 31.952953 -2.227955
v -6.183153 28.284307 1.992331
vn 0.7026 0.5921 -0.3948
vn -0.0000 0.6199 -0.7847
vn -0.0000 0.5745 -0.8185
vn -0.7026 0.5921 -0.3948
vt 0.445312 0.541168
vt 0.492188 0.541168
vt 0.492188 0.509796
s 1
usemtl npc03_05_3
f 54/44/53 55/45/54 56/46/55
f 56/46/55 55/45/54 57/44/56
o npc_03-0001-46.004
v -4.967027 17.579615 14.942494
v -2.393364 19.195595 16.567974
v -2.103474 20.423925 15.011092
v 1.997416 15.935611 15.861115
v 2.393364 19.195595 16.567974
v 0.989870 19.564560 15.950590
v 0.000000 31.952953 -2.227955
v -6.183153 28.284307 1.992331
v -5.801346 30.946470 3.307628
v 0.000000 23.086086 14.924598
v -1.898429 21.656925 15.565843
v -4.896322 26.883171 12.702610
v -3.966551 16.498404 16.878159
v 5.801346 30.946470 3.307628
v 6.183153 28.284307 1.992331
v 1.898429 21.656925 15.565843
v 4.896322 26.883171 12.702610
v 3.966551 16.498404 16.878159
v -4.892786 13.481285 15.363032
v -1.997416 15.935611 15.861115
v -0.989870 19.564560 15.950590
v 0.000000 20.916658 16.019188
v 2.103474 20.423925 15.011092
v 4.892786 13.481285 15.363032
v 4.967027 17.579615 14.942494
v 0.000000 19.109190 15.932695
vn -0.7667 0.3952 0.5059
vn -0.1018 0.4228 0.9005
vn -0.3066 0.3617 0.8805
vn -0.3843 -0.2588 0.8862
vn 0.1018 0.4228 0.9005
vn -0.0079 0.2518 0.9678
vn 0.0001 0.5745 -0.8185
vn -0.7026 0.5921 -0.3947
vn -0.8479 0.4710 -0.2434
vn -0.0000 0.1810 0.9835
vn -0.2830 -0.0236 0.9588
vn -0.5807 0.2433 0.7769
vn -0.2827 -0.0471 0.9581
vn 0.8479 0.4711 -0.2434
vn 0.7026 0.5921 -0.3947
vn -0.0001 0.5745 -0.8185
vn 0.2830 -0.0235 0.9588
vn 0.5807 0.2432 0.7769
vn 0.2827 -0.0471 0.9581
vn -0.4004 -0.3062 0.8636
vn 0.3844 -0.2589 0.8861
vn 0.0079 0.2518 0.9678
vn -0.0000 0.2351 0.9720
vn 0.3066 0.3617 0.8805
vn 0.4004 -0.3062 0.8636
vn 0.7667 0.3952 0.5059
vn -0.0000 -0.0472 0.9989
vt 0.324219 0.658813
vt 0.296875 0.619598
vt 0.312500 0.596069
vt 0.269501 0.658813
vt 0.281250 0.596069
vt 0.492188 0.509796
vt 0.445312 0.541168
vt 0.445312 0.509796
vt 0.273438 0.545074
vt 0.308594 0.572540
vt 0.359375 0.509796
vt 0.296875 0.658813
vt 0.296875 0.694092
vt 0.257812 0.564697
vt 0.257812 0.596069
s 1
usemtl npc03_05_3
f 58/47/57 59/48/58 60/49/59
f 61/50/60 62/48/61 63/51/62
f 64/52/63 65/53/64 66/54/65
f 60/49/59 67/55/66 68/56/67
f 68/56/67 67/55/66 69/57/68
f 59/48/58 58/47/57 70/58/69
f 71/54/70 72/53/71 64/52/72
f 67/55/66 73/56/73 74/57/74
f 62/48/61 61/50/60 75/58/75
f 58/47/57 76/59/76 70/58/69
f 70/58/69 76/59/76 77/50/77
f 70/58/69 77/50/77 59/48/58
f 59/48/58 77/50/77 78/51/78
f 59/48/58 78/51/78 60/49/59
f 60/49/59 78/51/78 79/60/79
f 60/49/59 79/60/79 67/55/66
f 67/55/66 79/60/79 80/49/80
f 67/55/66 80/49/80 73/56/73
f 61/50/60 81/59/81 75/58/75
f 75/58/75 81/59/81 82/47/82
f 75/58/75 82/47/82 62/48/61
f 62/48/61 82/47/82 80/49/80
f 62/48/61 80/49/80 63/51/62
f 63/51/62 80/49/80 79/60/79
f 63/51/62 79/60/79 83/61/83
f 83/61/83 79/60/79 78/51/78
o npc_03-0001-44.004
v -1.898429 21.656925 15.565843
v -4.896322 26.883171 12.702610
v -5.454891 25.148092 12.311898
v -6.278605 29.134331 9.245853
v -7.689169 27.754210 8.628469
v -5.801346 30.946470 3.307628
v -6.183153 28.284307 1.992331
vn -0.2830 -0.0236 0.9588
vn -0.5808 0.2432 0.7769
vn -0.5977 0.2909 0.7471
vn -0.7893 0.4262 0.4420
vn -0.6889 0.6419 0.3366
vn -0.8479 0.4710 -0.2433
vn -0.7026 0.5921 -0.3947
vt 0.308594 0.572540
vt 0.359375 0.509796
vt 0.359375 0.541168
vt 0.402344 0.509796
vt 0.402344 0.541168
vt 0.445312 0.509796
vt 0.445312 0.541168
s 1
usemtl npc03_05_3
f 84/62/84 85/63/85 86/64/86
f 86/64/86 85/63/85 87/65/87
f 86/64/86 87/65/87 88/66/88
f 88/66/88 87/65/87 89/67/89
f 88/66/88 89/67/89 90/68/90
