mtllib style1_helper_3.mtl
o npc_03-0001-58.006
v -7.392208 23.506430 12.935248
v -10.368889 19.721022 14.736698
v -2.782242 19.632282 15.547948
v -11.075939 14.490104 13.436315
v 1.385818 11.795248 15.363032
v -3.160514 3.131545 16.242880
v 5.557413 3.091846 16.054979
vn -0.2504 0.5478 0.7982
vn -0.2673 0.4559 0.8489
vn -0.1255 0.1491 0.9808
vn -0.3700 -0.0079 0.9290
vn -0.0862 0.0392 0.9955
vn -0.1809 0.0236 0.9832
vn 0.0157 0.0863 0.9961
vt 0.280334 0.107239
vt 0.293640 0.146698
vt 0.253906 0.161011
vt 0.303955 0.182800
vt 0.253906 0.204132
vt 0.303253 0.240082
vt 0.253906 0.240082
s 1
usemtl npc03_05
f 1/1/1 2/2/2 3/3/3
f 3/3/3 2/2/2 4/4/4
f 3/3/3 4/4/4 5/5/5
f 5/5/5 4/4/4 6/6/6
f 5/5/5 6/6/6 7/7/7
o npc_03-0001-59.006
v 2.782242 19.632282 15.547948
v 11.075939 14.490104 13.436315
v 10.368889 19.721022 14.736698
vn 0.1567 0.1253 0.9797
vn 0.4090 0.0157 0.9124
vn 0.2673 0.4559 0.8489
vt 0.253937 0.161011
vt 0.303925 0.182800
vt 0.293640 0.146698
s 1
usemtl npc03_05
f 8/8/8 9/9/9 10/10/10
o npc_03-0001-60.006
v 0.000000 -2.954065 16.690260
v 10.807260 -2.561746 13.510879
v 3.096879 2.961073 17.376244
v 11.881976 3.547216 13.940364
v 11.075939 14.490104 13.436315
v -11.075939 14.490104 13.436315
v -11.881976 3.547216 13.940364
v -3.160514 3.131545 16.242880
v -10.807260 -2.561746 13.510879
v 0.000000 -2.954065 16.690260
v -10.807260 -2.561746 13.510879
v 0.000000 -2.954065 16.690260
v -5.688218 3.091846 16.514292
v -1.452988 11.795248 16.051998
v 11.075939 14.490104 13.436315
v 2.782242 19.632282 15.547948
vn -0.0314 -0.1885 0.9816
vn 0.7240 -0.1968 0.6611
vn 0.1644 -0.0079 0.9864
vn 0.8185 -0.0079 0.5745
vn 0.4090 0.0157 0.9124
vn -0.3700 -0.0079 0.9290
vn -0.7953 -0.0000 0.6062
vn -0.1809 0.0236 0.9832
vn -0.7078 -0.1415 0.6921
vn -0.2823 -0.0706 0.9567
vn -0.2835 -0.2363 0.9294
vn -0.1565 -0.0626 0.9857
vn 0.1644 -0.0078 0.9864
vn 0.0867 0.0867 0.9925
vn 0.4089 0.0158 0.9124
vn 0.1417 0.1652 0.9760
vt 0.303223 0.213745
vt 0.326141 0.213745
vt 0.303223 0.240082
vt 0.318329 0.240082
vt 0.303925 0.182922
vt 0.303955 0.182800
vt 0.303253 0.240082
vt 0.303253 0.213745
vt 0.253937 0.175995
vt 0.253937 0.240082
vt 0.253937 0.204132
vt 0.303925 0.182800
vt 0.253937 0.161011
s 1
usemtl npc03_05
f 11/11/11 12/12/12 13/13/13
f 13/13/13 12/12/12 14/14/14
f 13/13/13 14/14/14 15/15/15
f 16/16/16 17/14/17 18/17/18
f 18/17/18 17/14/17 19/18/19
f 18/17/18 19/18/19 20/18/20
f 21/19/21 22/11/11 23/20/22
f 23/20/22 22/11/11 13/13/23
f 23/20/22 13/13/23 24/21/24
f 24/21/24 13/13/23 25/22/25
f 24/21/24 25/22/25 26/23/26
o npc_03-0001-62.006
v -3.439799 22.640059 13.946327
v -7.392208 23.506430 12.935248
v -2.782242 19.632282 15.547948
v 3.439799 22.640059 13.946327
v 2.782242 19.632282 15.547948
v 7.392208 23.506430 12.935248
vn -0.1259 0.4405 0.8889
vn -0.2504 0.5478 0.7983
vn -0.1255 0.1491 0.9808
vn 0.1259 0.4405 0.8889
vn 0.1568 0.1254 0.9796
vn 0.2504 0.5478 0.7983
vt 0.253906 0.107239
vt 0.280334 0.107239
vt 0.253906 0.161011
s 1
usemtl npc03_05
f 27/24/27 28/25/28 29/26/29
f 30/24/30 31/26/31 32/25/32
o npc_03-0001-64.010
v 13.720306 -5.838074 11.613987
v 10.807260 -2.561746 13.510879
v 11.931470 -6.239734 14.760561
v 0.000000 -2.954065 16.690260
v 0.000000 -6.664746 17.346418
vn 0.8832 0.3470 0.3155
vn 0.6508 0.4391 0.6195
vn 0.3925 0.4082 0.8242
vn -0.0000 0.2830 0.9591
vn -0.0000 0.3995 0.9167
vt 0.383057 0.297943
vt 0.352295 0.256348
vt 0.352295 0.297943
vt 0.255188 0.256348
vt 0.255188 0.297943
s 1
usemtl npc03_05
f 33/27/33 34/28/34 35/29/35
f 35/29/35 34/28/34 36/30/36
f 35/29/35 36/30/36 37/31/37
o npc_03-0001-66.010
v -4.931674 -4.343526 17.817657
v 0.000000 -4.798897 15.783570
v -4.146849 -1.492211 17.367294
v 4.931674 -4.343526 17.817657
v 0.000000 -4.798897 15.783570
v 4.115031 -7.491416 18.318724
v -4.115031 -7.491416 18.318724
v 4.143313 -1.492211 17.367294
v 0.000000 -6.664746 17.346418
v 0.000000 -2.954065 16.690260
v -10.807260 -2.561746 13.510879
vn 0.3852 0.1415 0.9119
vn 0.3832 0.0391 0.9228
vn -0.3852 0.1415 0.9119
vn -0.3865 0.2366 0.8914
vn 0.3865 0.2366 0.8914
vn -0.3832 0.0391 0.9228
vn -0.0000 0.3996 0.9167
vn -0.0000 0.2830 0.9591
vn -0.6508 0.4391 0.6194
vt 0.267639 0.126740
vt 0.325470 0.107697
vt 0.267700 0.107697
vt 0.267639 0.107697
vt 0.255188 0.297943
vt 0.255188 0.256348
vt 0.352295 0.256348
s 1
usemtl npc03_05
f 38/32/38 39/33/38 40/34/39
f 41/32/40 42/33/40 43/35/41
f 39/33/38 38/32/38 44/35/42
f 42/33/40 41/32/40 45/34/43
f 46/36/44 47/37/45 48/38/46
o npc_03-0001-67.010
v -14.904615 -1.046183 -0.465275
v -15.190970 -4.308500 -0.790372
v -13.720306 -5.838074 11.613987
v -10.807260 -2.561746 13.510879
v 10.807260 -2.561746 13.510879
v 13.720306 -5.838074 11.613987
v 14.904615 -1.046183 -0.465275
v 15.190970 -4.308500 -0.790372
v 0.000000 -4.448614 -11.354507
v 0.000000 -1.291383 -10.558170
vn -0.8858 0.2822 -0.3684
vn -0.9091 0.1176 -0.3997
vn -0.8832 0.3470 0.3154
vn -0.6508 0.4391 0.6194
vn 0.6508 0.4391 0.6194
vn 0.8832 0.3470 0.3154
vn 0.8858 0.2822 -0.3684
vn 0.9091 0.1176 -0.3997
vn -0.0000 0.1961 -0.9806
vn -0.0000 0.2425 -0.9701
vt 0.473022 0.256348
vt 0.473022 0.297943
vt 0.383057 0.297943
vt 0.352295 0.256348
vt 0.332642 0.297943
vt 0.332642 0.256348
s 1
usemtl npc03_05
f 49/39/47 50/40/48 51/41/49
f 49/39/47 51/41/49 52/42/50
f 53/42/51 54/41/52 55/39/53
f 55/39/53 54/41/52 56/40/54
f 55/39/53 56/40/54 57/43/55
f 50/40/48 49/39/47 57/43/55
f 57/43/55 49/39/47 58/44/56
f 57/43/55 58/44/56 55/39/53
o npc_03-0001-94.002
v -10.291114 22.931959 -0.510015
v 0.000000 24.370462 -6.179812
v -11.097151 17.161606 -1.458460
v 7.392208 23.506430 12.935248
v 10.368889 19.721022 14.736698
v 9.736079 26.516539 7.170010
v 12.458222 25.461014 7.247556
v 7.052824 26.058832 0.715806
v 10.291114 22.931959 -0.510015
v 0.000000 24.370462 -6.179812
v 10.291114 22.931959 -0.510015
v 11.097151 17.161606 -1.458460
v 0.000000 24.370462 -6.179812
v 0.000000 6.916951 -10.322551
v -11.097151 17.161606 -1.458460
v -8.601264 6.375177 -7.047729
v -13.677883 13.955335 0.223689
v -13.808688 4.910989 -0.873882
v -14.077367 4.665791 5.383473
vn -0.5175 0.5645 -0.6430
vn -0.0000 0.4250 -0.9052
vn -0.5105 0.2435 -0.8247
vn 0.2505 0.5478 0.7982
vn 0.2673 0.4559 0.8489
vn 0.4088 0.8413 0.3538
vn 0.4472 0.8944 0.0079
vn 0.4576 0.7889 -0.4102
vn 0.5175 0.5646 -0.6429
vn 0.5175 0.5645 -0.6430
vn 0.5105 0.2435 -0.8247
vn -0.0000 0.2203 -0.9754
vn -0.6040 0.0863 -0.7923
vn -0.9397 0.1175 -0.3211
vn -0.9312 0.0939 -0.3521
vn -0.9897 0.0236 0.1413
vt 0.375000 0.146698
vt 0.417999 0.107239
vt 0.375000 0.171509
vt 0.280334 0.107239
vt 0.293640 0.146698
vt 0.332031 0.107239
vt 0.332031 0.146698
vt 0.375000 0.107239
vt 0.417999 0.240082
vt 0.394867 0.240082
vt 0.357666 0.190765
vt 0.371704 0.240082
vt 0.338135 0.240082
s 1
usemtl npc03_05
f 59/45/57 60/46/58 61/47/59
f 62/48/60 63/49/61 64/50/62
f 64/50/62 63/49/61 65/51/63
f 64/50/62 65/51/63 66/52/64
f 66/52/64 65/51/63 67/45/65
f 66/52/64 67/45/65 68/46/58
f 69/45/66 70/47/67 71/46/58
f 71/46/58 70/47/67 72/53/68
f 71/46/58 72/53/68 73/47/59
f 73/47/59 72/53/68 74/54/69
f 73/47/59 74/54/69 75/55/70
f 75/55/70 74/54/69 76/56/71
f 75/55/70 76/56/71 77/57/72
o npc_03-0001-95.002
v -14.077367 4.665791 5.383473
v -10.807260 -2.561746 13.510879
v -11.881976 3.547216 13.940364
v -14.077367 4.665791 5.383473
v -13.808688 4.910989 -0.873882
v -14.904615 -1.046183 -0.465275
v -8.601264 6.375177 -7.047729
v 0.000000 -1.291383 -10.558170
v 0.000000 6.916951 -10.322551
v 8.601264 6.375177 -7.047729
vn -0.9897 0.0235 0.1414
vn -0.7078 -0.1415 0.6921
vn -0.7953 -0.0000 0.6063
vn -0.9897 0.0236 0.1414
vn -0.9312 0.0939 -0.3522
vn -0.9386 -0.0234 -0.3442
vn -0.6040 0.0863 -0.7923
vn -0.0000 -0.1260 -0.9920
vn -0.0000 0.2202 -0.9755
vn 0.6040 0.0863 -0.7923
vt 0.338226 0.240082
vt 0.303253 0.213745
vt 0.318329 0.240082
vt 0.371796 0.240082
vt 0.352722 0.213745
vt 0.394897 0.240082
vt 0.417999 0.213745
vt 0.417999 0.240082
s 1
usemtl npc03_05
f 78/58/73 79/59/74 80/60/75
f 81/58/76 82/61/77 83/62/78
f 83/62/78 82/61/77 84/63/79
f 83/62/78 84/63/79 85/64/80
f 85/64/80 84/63/79 86/65/81
f 85/64/80 86/65/81 87/63/82
o npc_03-0001-96.002
v 0.000000 6.916951 -10.322551
v 11.097151 17.161606 -1.458460
v 8.601264 6.375177 -7.047729
v 13.677883 13.955335 0.223689
v 13.808688 4.910989 -0.873882
vn -0.0000 0.2203 -0.9754
vn 0.5105 0.2435 -0.8247
vn 0.6040 0.0863 -0.7923
vn 0.9397 0.1174 -0.3211
vn 0.9312 0.0939 -0.3522
vt 0.417999 0.240082
vt 0.375000 0.171509
vt 0.394867 0.240082
vt 0.357666 0.190765
vt 0.371704 0.240082
s 1
usemtl npc03_05
f 88/66/83 89/67/84 90/68/85
f 90/68/85 89/67/84 91/69/86
f 90/68/85 91/69/86 92/70/87
o npc_03-0001-97.002
v 0.000000 -1.291383 -10.558170
v 8.601264 6.375177 -7.047729
v 14.904615 -1.046183 -0.465275
v 13.808688 4.910989 -0.873882
vn -0.0000 -0.1260 -0.9920
vn 0.6040 0.0862 -0.7923
vn 0.9386 -0.0235 -0.3441
vn 0.9312 0.0939 -0.3522
vt 0.417999 0.213745
vt 0.394897 0.240082
vt 0.352722 0.213745
vt 0.371796 0.240082
s 1
usemtl npc03_05
f 93/71/88 94/72/89 95/73/90
f 95/73/90 94/72/89 96/74/91
o npc_03-0001-98.007
v 14.904615 -1.046183 -0.465275
v 13.808688 4.910989 -0.873882
v 14.077367 4.665791 5.383473
v 13.677883 13.955335 0.223689
v 12.914269 12.421089 6.102264
v 10.807260 -2.561746 13.510879
v 14.077367 4.665791 5.383473
v 11.881976 3.547216 13.940364
v 11.075939 14.490104 13.436315
vn 0.9386 -0.0235 -0.3441
vn 0.9312 0.0939 -0.3521
vn 0.9898 0.0157 0.1414
vn 0.9397 0.1175 -0.3210
vn 0.9712 0.1096 0.2115
vn 0.7241 -0.1968 0.6611
vn 0.8185 -0.0079 0.5745
vn 0.9712 0.1097 0.2115
vn 0.4090 0.0158 0.9124
vt 0.352722 0.213745
vt 0.371429 0.240082
vt 0.338043 0.240082
vt 0.357666 0.190765
vt 0.329254 0.196075
vt 0.326141 0.213745
vt 0.318329 0.240082
vt 0.303925 0.182922
s 1
usemtl npc03_05
f 97/75/92 98/76/93 99/77/94
f 99/77/94 98/76/93 100/78/95
f 99/77/94 100/78/95 101/79/96
f 102/80/97 103/77/94 104/81/98
f 104/81/98 103/77/94 101/79/99
f 104/81/98 101/79/99 105/82/100
o npc_03-0001-99.002
v 0.000000 24.370462 -6.179812
v -10.291114 22.931959 -0.510015
v -7.052824 26.058832 0.715806
v -12.458222 25.461014 7.247556
v -9.736079 26.516539 7.170010
v -10.368889 19.721022 14.736698
v -7.392208 23.506430 12.935248
vn -0.0000 0.4250 -0.9052
vn -0.5175 0.5646 -0.6429
vn -0.4576 0.7889 -0.4102
vn -0.4472 0.8944 0.0079
vn -0.4088 0.8413 0.3538
vn -0.2673 0.4560 0.8489
vn -0.2504 0.5478 0.7982
vt 0.417999 0.107239
vt 0.375000 0.146698
vt 0.375000 0.107239
vt 0.332031 0.146698
vt 0.332031 0.107239
vt 0.293640 0.146698
vt 0.280334 0.107239
s 1
usemtl npc03_05
f 106/83/101 107/84/102 108/85/103
f 108/85/103 107/84/102 109/86/104
f 108/85/103 109/86/104 110/87/105
f 110/87/105 109/86/104 111/88/106
f 110/87/105 111/88/106 112/89/107
o npc_03-0001-100.007
v -13.677883 13.955335 0.223689
v -14.077367 4.665791 5.383473
v -12.772859 12.421089 6.102264
v -11.881976 3.547216 13.940364
v -11.075939 14.490104 13.436315
vn -0.9397 0.1175 -0.3211
vn -0.9897 0.0236 0.1414
vn -0.9699 0.1183 0.2129
vn -0.7953 -0.0000 0.6063
vn -0.3700 -0.0078 0.9290
vt 0.357666 0.190765
vt 0.338135 0.240082
vt 0.326141 0.213745
vt 0.318329 0.240082
vt 0.303955 0.182800
s 1
usemtl npc03_05
f 113/90/108 114/91/109 115/92/110
f 115/92/110 114/91/109 116/93/111
f 115/92/110 116/93/111 117/94/112
o npc_03-0001-101.007
v -10.807260 -2.561746 13.510879
v -14.077367 4.665791 5.383473
v -14.904615 -1.046183 -0.465275
v 14.077367 4.665791 5.383473
v 10.807260 -2.561746 13.510879
v 14.904615 -1.046183 -0.465275
vn -0.7078 -0.1416 0.6921
vn -0.9897 0.0235 0.1414
vn -0.9386 -0.0235 -0.3442
vn 0.9898 0.0157 0.1414
vn 0.7241 -0.1968 0.6611
vn 0.9386 -0.0235 -0.3442
vt 0.303253 0.213745
vt 0.338226 0.240082
vt 0.352722 0.213745
vt 0.338043 0.240082
vt 0.326141 0.213745
s 1
usemtl npc03_05
f 118/95/113 119/96/114 120/97/115
f 121/98/116 122/99/117 123/97/118
o npc_03-0001-61.005
v 7.392208 23.506430 12.935248
v 2.782242 19.632282 15.547948
v 10.368889 19.721022 14.736698
vn 0.2504 0.5478 0.7982
vn 0.1567 0.1254 0.9796
vn 0.2672 0.4559 0.8489
vt 0.280334 0.107239
vt 0.253906 0.161011
vt 0.293640 0.146698
s 1
usemtl npc03_05
f 124/100/119 125/101/120 126/102/121
o npc_03-0001-63.010
v 0.000000 -21.885775 25.807869
v -5.963967 -14.235561 20.662996
v -9.997688 -21.628901 24.438885
v 0.000000 -6.664746 17.346418
v -5.963967 -14.235561 20.662996
v 5.963967 -14.235561 20.662996
v 0.000000 -6.664746 17.346418
v 5.963967 -14.235561 20.662996
v 11.931470 -6.239734 14.760561
v 12.801141 -15.674064 18.709438
v 13.670813 -21.229574 21.411613
v 9.997688 -21.628901 24.438885
v 5.963967 -14.235561 20.662996
v 0.000000 -21.885775 25.807869
v -5.963967 -14.235561 20.662996
vn -0.0000 0.5180 0.8554
vn -0.1569 0.4942 0.8551
vn -0.3300 0.5108 0.7938
vn -0.0000 0.3995 0.9167
vn 0.1569 0.4942 0.8551
vn -0.0000 0.3996 0.9167
vn 0.3924 0.4082 0.8242
vn 0.4087 0.4637 0.7861
vn 0.5444 0.4339 0.7179
vn 0.4087 0.4638 0.7860
vn 0.3301 0.5108 0.7938
vt 0.374817 0.385773
vt 0.328125 0.330078
vt 0.299194 0.385773
vt 0.374817 0.301788
vt 0.421539 0.330078
vt 0.374847 0.301788
vt 0.487244 0.301636
vt 0.487244 0.339905
vt 0.487244 0.385773
vt 0.450439 0.385773
vt 0.374847 0.385773
s 1
usemtl npc03_05
f 127/103/122 128/104/123 129/105/124
f 130/106/125 131/104/123 132/107/126
f 133/108/127 134/107/126 135/109/128
f 135/109/128 134/107/126 136/110/129
f 137/111/130 136/110/131 138/112/132
f 138/112/132 136/110/131 139/107/126
f 138/112/132 139/107/126 140/113/122
f 140/113/122 139/107/126 141/104/123
o npc_03-0001-65.010
v 0.000000 -6.664746 17.346418
v -10.807260 -2.561746 13.510879
v -11.931470 -6.239734 14.760561
v -13.720306 -5.838074 11.613987
v -13.670813 -21.229574 21.411613
v -9.997688 -21.628901 24.438885
v -12.801141 -15.674064 18.709438
v -5.963967 -14.235561 20.662996
v -11.931470 -6.239734 14.760561
v 0.000000 -6.664746 17.346418
vn -0.0000 0.3996 0.9167
vn -0.6508 0.4391 0.6194
vn -0.3925 0.4082 0.8242
vn -0.8832 0.3470 0.3155
vn -0.5444 0.4339 0.7179
vn -0.3301 0.5109 0.7938
vn -0.4087 0.4638 0.7860
vn -0.1569 0.4942 0.8551
vn -0.3924 0.4082 0.8242
vt 0.255188 0.297943
vt 0.352295 0.256348
vt 0.352295 0.297943
vt 0.383057 0.297943
vt 0.253357 0.385773
vt 0.299194 0.385773
vt 0.253357 0.339905
vt 0.328125 0.330078
vt 0.253357 0.301636
vt 0.374817 0.301788
s 1
usemtl npc03_05
f 142/114/133 143/115/134 144/116/135
f 144/116/135 143/115/134 145/117/136
f 146/118/137 147/119/138 148/120/139
f 148/120/139 147/119/138 149/121/140
f 148/120/139 149/121/140 150/122/141
f 150/122/141 149/121/140 151/123/133
o npc_03-0001-55.002
v 9.541641 43.857956 18.175558
v 11.387041 42.758064 11.933115
v 0.003535 42.578251 10.919054
v 11.464817 39.290249 12.544535
v 0.003535 39.096424 11.443980
v 10.103745 38.136642 5.997873
v -10.096675 38.136642 5.997873
v -11.457746 39.290249 12.544535
v 0.003535 37.053097 -0.137200
v 0.003535 39.096424 11.443980
v 0.003535 39.096424 11.443980
v -9.145692 40.443851 19.091196
v -11.379971 42.758064 11.933115
v 0.003535 42.578251 10.919054
v -10.651709 41.704876 5.959100
v 0.003535 44.523499 21.948463
v 0.003535 42.578251 10.919054
v -9.534570 43.857956 18.175558
v 0.003535 39.096424 11.443980
v 0.003535 41.153763 23.114634
v 9.152763 40.443851 19.091196
v 0.003535 40.618992 -0.196850
v 0.003535 38.599018 -0.808270
v 9.417907 42.087852 18.971895
v 0.003535 42.814110 23.093758
v 10.658780 41.704876 5.959100
v 12.253177 40.903893 12.261194
v 10.489088 39.747952 5.696637
v -10.482017 39.747952 5.696637
v -12.242572 40.903893 12.261194
v -9.410836 42.087852 18.971895
v 0.003535 42.578251 10.919054
vn 0.5526 0.7341 0.3947
vn 0.5335 0.8397 -0.1013
vn -0.0000 0.9851 -0.1720
vn 0.5417 -0.8243 0.1649
vn -0.0000 -0.9851 0.1720
vn 0.5116 -0.7792 -0.3621
vn -0.5116 -0.7792 -0.3620
vn -0.5417 -0.8243 0.1649
vn -0.0000 -0.9095 -0.4156
vn -0.0000 -0.9851 0.1721
vn -0.5651 -0.6357 0.5259
vn -0.5335 0.8397 -0.1013
vn -0.0000 0.9851 -0.1721
vn -0.6208 0.5737 -0.5343
vn -0.0000 0.9290 0.3700
vn -0.5526 0.7341 0.3947
vn -0.0000 -0.6668 0.7453
vn 0.5651 -0.6357 0.5259
vn -0.0000 0.7708 -0.6371
vn -0.0000 -0.0863 -0.9963
vn 0.7156 0.0944 0.6921
vn -0.0000 0.3233 0.9463
vn 0.6208 0.5737 -0.5343
vn 0.9939 0.0078 0.1096
vn 0.8084 -0.1648 -0.5651
vn -0.8084 -0.1648 -0.5651
vn -0.9940 0.0078 0.1095
vn -0.7156 0.0944 0.6921
vt 0.076080 0.066406
vt 0.123138 0.066406
vt 0.099243 0.022186
vt 0.148499 0.022186
vt 0.175568 0.066406
vt 0.237122 0.066406
vt 0.208282 0.022186
vt 0.019562 0.066406
vt 0.043549 0.022186
vt 0.237122 0.088623
vt 0.076080 0.088623
vt 0.019562 0.088623
vt 0.123138 0.088623
vt 0.175568 0.088623
s 1
usemtl npc03_05
f 152/124/142 153/125/143 154/126/144
f 155/125/145 156/127/146 157/128/147
f 158/128/148 156/127/146 159/125/149
f 160/129/150 161/130/151 158/128/148
f 159/125/149 162/126/151 163/124/152
f 164/125/153 165/127/154 166/128/155
f 167/131/156 168/132/144 169/124/157
f 163/124/152 170/132/146 171/131/158
f 171/131/158 170/132/146 172/124/159
f 173/129/160 174/133/161 166/128/155
f 175/134/162 152/124/142 176/135/163
f 165/127/154 153/125/143 177/128/164
f 177/128/164 153/125/143 178/136/165
f 177/128/164 178/136/165 179/137/166
f 174/133/161 180/137/167 166/128/155
f 166/128/155 180/137/167 181/136/168
f 166/128/155 181/136/168 164/125/153
f 164/125/153 181/136/168 169/124/157
f 164/125/153 169/124/157 154/126/144
f 181/136/168 182/134/169 169/124/157
f 169/124/157 182/134/169 176/135/163
f 169/124/157 176/135/163 167/131/156
f 167/131/156 176/135/163 152/124/142
f 167/131/156 152/124/142 168/132/144
f 166/128/155 183/130/154 173/129/160
f 173/129/160 183/130/154 177/128/164
f 173/129/160 177/128/164 174/133/161
f 174/133/161 177/128/164 179/137/166
f 174/133/161 179/137/166 157/128/147
f 157/128/147 179/137/166 178/136/165
f 157/128/147 178/136/165 155/125/145
f 155/125/145 178/136/165 172/124/159
f 155/125/145 172/124/159 162/126/151
f 153/125/143 152/124/142 178/136/165
f 178/136/165 152/124/142 175/134/162
f 178/136/165 175/134/162 172/124/159
f 172/124/159 175/134/162 176/135/163
f 172/124/159 176/135/163 171/131/158
f 171/131/158 176/135/163 182/134/169
f 171/131/158 182/134/169 163/124/152
f 163/124/152 182/134/169 181/136/168
f 163/124/152 181/136/168 159/125/149
f 159/125/149 181/136/168 180/137/167
f 159/125/149 180/137/167 158/128/148
f 158/128/148 180/137/167 174/133/161
f 158/128/148 174/133/161 160/129/150
f 160/129/150 174/133/161 157/128/147
f 160/129/150 157/128/147 161/130/151
