mtllib style2_chief_5.mtl
o npc_03-0001-47.007
v 5.373580 18.786928 14.700909
v 10.368889 18.878002 14.736699
v 5.058943 21.797039 13.946327
v 9.736079 25.052349 8.267582
v 12.458222 23.994490 8.342146
v 10.291114 21.306641 -0.510015
v 10.368889 18.878002 14.736699
v 5.373580 18.786928 14.700909
v 11.075939 15.008525 13.158939
v 12.458222 23.994490 8.342146
v 9.736079 25.052349 8.267582
v 10.368889 18.878002 14.736699
v 7.392208 22.663410 12.935248
vn 0.1412 0.0550 0.9885
vn 0.1969 0.3937 0.8979
vn 0.0783 0.3917 0.9167
vn 0.4870 0.8561 0.1728
vn 0.3536 0.9193 0.1729
vn 0.5189 0.7077 -0.4796
vn 0.1970 0.3938 0.8978
vn 0.1412 0.0549 0.9885
vn 0.5422 0.1101 0.8330
vn 0.3536 0.9193 0.1728
vn 0.1969 0.3938 0.8979
vn 0.3304 0.6058 0.7238
vn 0.0784 0.3918 0.9167
vt 0.332001 0.662720
vt 0.375000 0.648407
vt 0.332001 0.605469
vt 0.410126 0.605469
vt 0.410126 0.648407
vt 0.453125 0.648407
vt 0.375000 0.690186
vt 0.355469 0.605469
s 1
usemtl npc03_05
f 1/1/1 2/2/2 3/3/3
f 4/4/4 5/5/5 6/6/6
f 7/2/7 8/1/8 9/7/9
f 10/5/10 11/4/4 12/2/11
f 12/2/11 11/4/4 13/8/12
f 12/2/11 13/8/12 3/3/13
o npc_03-0001-48.007
v -11.075939 15.008525 13.158939
v -5.373580 18.786928 14.700909
v -10.368889 18.878002 14.736699
v -5.058943 21.797039 13.946327
v -10.291114 21.306641 -0.510015
v -12.458222 23.994490 8.342146
v -9.736079 25.052349 8.267582
v -10.368889 18.878002 14.736699
v -7.392208 22.663410 12.935248
v -5.058943 21.797039 13.946327
vn -0.5423 0.1100 0.8330
vn -0.1412 0.0549 0.9885
vn -0.1969 0.3938 0.8978
vn -0.0783 0.3917 0.9167
vn -0.5189 0.7077 -0.4796
vn -0.3536 0.9193 0.1729
vn -0.4870 0.8562 0.1728
vn -0.1969 0.3938 0.8979
vn -0.3304 0.6058 0.7238
vn -0.0784 0.3918 0.9167
vt 0.375000 0.690186
vt 0.332001 0.662720
vt 0.375000 0.648407
vt 0.332001 0.605469
vt 0.453125 0.648407
vt 0.410126 0.648407
vt 0.410126 0.605469
vt 0.355469 0.605469
s 1
usemtl npc03_05
f 14/9/14 15/10/15 16/11/16
f 16/11/16 15/10/15 17/12/17
f 18/13/18 19/14/19 20/15/20
f 20/15/20 19/14/19 21/11/21
f 20/15/20 21/11/21 22/16/22
f 22/16/22 21/11/21 23/12/23
o npc_03-0001-49.007
v -9.736079 25.052349 8.267582
v -7.052824 24.433514 0.715806
v -10.291114 21.306641 -0.510015
v 0.000000 24.370462 -6.507891
v -11.097151 17.161606 -2.138478
v 0.000000 12.813407 -11.002569
v -13.257189 10.620627 -1.926718
v 13.257189 10.620627 -1.926718
v 0.000000 12.813407 -11.002569
v 11.097151 17.161606 -2.138478
v 0.000000 24.370462 -6.507891
v 10.291114 21.306641 -0.510015
v 7.052824 24.433514 0.715806
v 9.736079 25.052349 8.267582
vn -0.4870 0.8562 0.1728
vn -0.5597 0.7331 -0.3863
vn -0.5189 0.7076 -0.4796
vn -0.0000 0.5745 -0.8185
vn -0.6362 0.2906 -0.7147
vn -0.0000 0.2831 -0.9591
vn -0.8735 0.1889 -0.4486
vn 0.8736 0.1888 -0.4486
vn -0.0000 0.2830 -0.9591
vn 0.6362 0.2906 -0.7147
vn 0.5189 0.7076 -0.4796
vn 0.5597 0.7332 -0.3863
vn 0.4870 0.8562 0.1728
vt 0.410126 0.605469
vt 0.453125 0.605469
vt 0.453125 0.648407
vt 0.496094 0.605469
vt 0.453125 0.690186
vt 0.496094 0.748993
vt 0.429688 0.748993
s 1
usemtl npc03_05
f 24/17/24 25/18/25 26/19/26
f 26/19/26 25/18/25 27/20/27
f 26/19/26 27/20/27 28/21/28
f 28/21/28 27/20/27 29/22/29
f 28/21/28 29/22/29 30/23/30
f 31/23/31 32/22/32 33/21/33
f 33/21/33 32/22/32 34/20/27
f 33/21/33 34/20/27 35/19/34
f 35/19/34 34/20/27 36/18/35
f 35/19/34 36/18/35 37/17/36
o npc_03-0001-50.007
v -11.097151 17.161606 -2.138478
v -13.257189 10.620627 -1.926718
v -12.928410 13.955335 -0.527910
v -13.345570 10.064842 5.926294
v -12.772859 12.421089 6.102264
v -11.881976 9.289547 14.650206
v -11.075939 15.008525 13.158939
v -6.441226 8.817830 17.555195
v -5.373580 18.786928 14.700909
v 5.373580 18.786928 14.700909
v 6.441226 8.817830 17.555195
v 11.075939 15.008525 13.158939
v 11.881976 9.289547 14.650206
v 12.772859 12.421089 6.102264
v 13.345570 10.064842 5.926294
v 12.928410 13.955335 -0.527910
v 13.257189 10.620627 -1.926718
v 11.097151 17.161606 -2.138478
vn -0.6362 0.2906 -0.7147
vn -0.8736 0.1889 -0.4485
vn -0.9710 0.2036 -0.1253
vn -0.9805 0.1804 0.0784
vn -0.9685 0.2047 0.1417
vn -0.8643 0.2436 0.4401
vn -0.5423 0.1100 0.8330
vn -0.4257 0.2838 0.8592
vn -0.1412 0.0549 0.9885
vn 0.1412 0.0549 0.9885
vn 0.4257 0.2838 0.8592
vn 0.5423 0.1101 0.8330
vn 0.8643 0.2436 0.4401
vn 0.9685 0.2047 0.1417
vn 0.9805 0.1804 0.0784
vn 0.9710 0.2036 -0.1253
vn 0.8736 0.1889 -0.4485
vn 0.6362 0.2906 -0.7147
vt 0.453125 0.690186
vt 0.429688 0.748993
vt 0.429688 0.713715
vt 0.406250 0.748993
vt 0.398438 0.713715
vt 0.375000 0.748993
vt 0.375000 0.690186
vt 0.332001 0.748993
vt 0.332001 0.662720
s 1
usemtl npc03_05
f 38/24/37 39/25/38 40/26/39
f 40/26/39 39/25/38 41/27/40
f 40/26/39 41/27/40 42/28/41
f 42/28/41 41/27/40 43/29/42
f 42/28/41 43/29/42 44/30/43
f 44/30/43 43/29/42 45/31/44
f 44/30/43 45/31/44 46/32/45
f 47/32/46 48/31/47 49/30/48
f 49/30/48 48/31/47 50/29/49
f 49/30/48 50/29/49 51/28/50
f 51/28/50 50/29/49 52/27/51
f 51/28/50 52/27/51 53/26/52
f 53/26/52 52/27/51 54/25/53
f 53/26/52 54/25/53 55/24/54
o npc_03-0001-72.009
v 12.429940 4.046955 8.136353
v 9.580528 6.627384 10.140615
v 10.326466 2.722879 10.820633
v 0.000000 6.055253 15.628478
v 10.326466 2.722879 10.820633
v 9.580528 6.627384 10.140615
v 0.000000 6.055253 14.927583
v -9.195186 -5.212233 17.158518
v 0.000000 -6.431222 18.175562
v -6.158406 6.265423 12.642962
v -7.858861 -5.445755 18.282932
v 12.571350 -3.778401 12.502782
v 9.195186 -5.212233 17.158518
v 0.000000 -6.431222 18.876457
v -12.571350 -3.778401 12.502782
v -10.326466 2.722879 10.820633
v -9.584064 6.627384 10.140615
v 0.000000 10.627631 -9.105677
v -12.680943 7.066406 -2.770774
v -12.203684 9.380619 -2.257779
v -12.429940 4.046955 8.136353
v -9.584064 6.627384 10.140615
v -10.326466 2.722879 10.820633
v 12.203684 9.380619 -2.257779
v 12.680943 7.066406 -2.770774
v 0.000000 8.166299 -9.499372
vn 0.8587 0.3624 0.3624
vn 0.6744 0.3764 0.6352
vn 0.5976 0.3459 0.7233
vn 0.1417 0.3622 0.9213
vn 0.5975 0.3460 0.7234
vn -0.3234 0.3392 0.8834
vn -0.4239 0.4082 0.8085
vn -0.0707 0.2512 0.9654
vn -0.3776 0.4483 0.8102
vn -0.2120 0.3534 0.9111
vn 0.6845 0.3934 0.6137
vn 0.4576 0.3945 0.7969
vn 0.0472 0.2515 0.9667
vn -0.6845 0.3934 0.6137
vn -0.5737 0.3537 0.7388
vn -0.6623 0.3785 0.6466
vn -0.0000 0.2425 -0.9701
vn -0.7472 0.2360 -0.6213
vn -0.8874 0.4241 -0.1807
vn -0.8587 0.3624 0.3624
vn -0.6624 0.3785 0.6465
vn -0.5737 0.3536 0.7388
vn 0.8874 0.4241 -0.1807
vn 0.7472 0.2360 -0.6213
vn -0.0000 0.1568 -0.9876
vt 0.425751 0.498016
vt 0.402344 0.450958
vt 0.402344 0.498016
vt 0.300751 0.399994
vt 0.398438 0.435272
vt 0.398438 0.399994
vt 0.253876 0.399994
vt 0.339844 0.498016
vt 0.300751 0.498016
vt 0.253876 0.498016
vt 0.398438 0.498016
vt 0.352356 0.498016
vt 0.316376 0.498016
vt 0.496094 0.450958
vt 0.453125 0.498016
vt 0.453125 0.450958
vt 0.496094 0.498016
s 1
usemtl npc03_05
f 56/33/55 57/34/56 58/35/57
f 59/36/58 60/37/59 61/38/56
f 62/39/60 63/40/61 64/41/62
f 65/39/63 66/42/64 59/36/58
f 67/43/65 60/37/59 68/44/66
f 68/44/66 60/37/59 59/36/58
f 68/44/66 59/36/58 69/45/67
f 69/45/67 59/36/58 66/42/64
f 70/43/68 63/40/61 71/37/69
f 71/37/69 63/40/61 62/39/60
f 71/37/69 62/39/60 72/38/70
f 73/46/71 74/47/72 75/48/73
f 75/48/73 74/47/72 76/33/74
f 75/48/73 76/33/74 77/34/75
f 77/34/75 76/33/74 78/35/76
f 57/34/56 56/33/55 79/48/77
f 79/48/77 56/33/55 80/47/78
f 79/48/77 80/47/78 73/46/71
f 73/46/71 80/47/78 81/49/79
f 73/46/71 81/49/79 74/47/72
o npc_03-0001-41.009
v 1.898429 21.656925 15.565843
v 2.103474 20.423925 15.011092
v 5.454891 25.148092 12.311898
v 8.965395 21.916138 14.023873
v 7.689169 27.754210 8.628469
v 12.207219 24.669371 8.270565
v 6.183153 28.284307 1.992331
v 9.368413 23.186501 -2.785689
v 0.000000 25.995783 -6.782284
v 0.000000 19.721020 -9.302526
v -9.368413 23.186501 -2.785689
vn 0.2829 -0.0236 0.9589
vn 0.3066 0.3616 0.8805
vn 0.5977 0.2910 0.7471
vn 0.2757 0.6223 0.7326
vn 0.6889 0.6420 0.3366
vn 0.6214 0.7787 0.0865
vn 0.7026 0.5921 -0.3947
vn 0.5530 0.6162 -0.5609
vn -0.0000 0.6198 -0.7847
vn -0.0000 0.3700 -0.9290
vn -0.5530 0.6161 -0.5609
vt 0.308594 0.572540
vt 0.312500 0.596069
vt 0.359375 0.541168
vt 0.359375 0.596069
vt 0.402344 0.541168
vt 0.402344 0.596069
vt 0.445312 0.541168
vt 0.445312 0.596069
vt 0.492188 0.541168
vt 0.492188 0.596069
s 1
usemtl npc03_05_3
f 82/50/80 83/51/81 84/52/82
f 84/52/82 83/51/81 85/53/83
f 84/52/82 85/53/83 86/54/84
f 86/54/84 85/53/83 87/55/85
f 86/54/84 87/55/85 88/56/86
f 88/56/86 87/55/85 89/57/87
f 88/56/86 89/57/87 90/58/88
f 90/58/88 89/57/87 91/59/89
f 90/58/88 91/59/89 92/57/90
o npc_03-0001-42.009
v 6.183153 28.284307 1.992331
v 5.801346 30.946470 3.307628
v 7.689169 27.754210 8.628469
v 6.278605 29.134331 9.245853
v 5.454891 25.148092 12.311898
v 4.896322 26.883171 12.702610
v 1.898429 21.656925 15.565843
vn 0.7026 0.5921 -0.3947
vn 0.8479 0.4710 -0.2433
vn 0.6889 0.6419 0.3366
vn 0.7893 0.4262 0.4420
vn 0.5977 0.2910 0.7471
vn 0.5808 0.2432 0.7769
vn 0.2830 -0.0236 0.9588
vt 0.445312 0.541168
vt 0.445312 0.509796
vt 0.402344 0.541168
vt 0.402344 0.509796
vt 0.359375 0.541168
vt 0.359375 0.509796
vt 0.308594 0.572540
s 1
usemtl npc03_05_3
f 93/60/91 94/61/92 95/62/93
f 95/62/93 94/61/92 96/63/94
f 95/62/93 96/63/94 97/64/95
f 97/64/95 96/63/94 98/65/96
f 97/64/95 98/65/96 99/66/97
o npc_03-0001-43.009
v 0.000000 25.995783 -6.782284
v -9.368413 23.186501 -2.785689
v -6.183153 28.284307 1.992331
v -12.207219 24.669371 8.270565
v -7.689169 27.754210 8.628469
v -8.965395 21.916138 14.023873
v -5.454891 25.148092 12.311898
v -2.103474 20.423925 15.011092
v -1.898429 21.656925 15.565843
vn -0.0000 0.6199 -0.7847
vn -0.5530 0.6162 -0.5608
vn -0.7026 0.5921 -0.3947
vn -0.6214 0.7787 0.0865
vn -0.6889 0.6420 0.3366
vn -0.2757 0.6223 0.7326
vn -0.5977 0.2909 0.7471
vn -0.3066 0.3616 0.8805
vn -0.2829 -0.0236 0.9589
vt 0.492188 0.541168
vt 0.445312 0.596069
vt 0.445312 0.541168
vt 0.402344 0.596069
vt 0.402344 0.541168
vt 0.359375 0.596069
vt 0.359375 0.541168
vt 0.312500 0.596069
vt 0.308594 0.572540
s 1
usemtl npc03_05_3
f 100/67/98 101/68/99 102/69/100
f 102/69/100 101/68/99 103/70/101
f 102/69/100 103/70/101 104/71/102
f 104/71/102 103/70/101 105/72/103
f 104/71/102 105/72/103 106/73/104
f 106/73/104 105/72/103 107/74/105
f 106/73/104 107/74/105 108/75/106
o npc_03-0001-45.009
v 6.183153 28.284307 1.992331
v 0.000000 25.995783 -6.782284
v 0.000000 31.952953 -2.227955
v -6.183153 28.284307 1.992331
vn 0.7026 0.5921 -0.3948
vn -0.0000 0.6199 -0.7847
vn -0.0000 0.5745 -0.8185
vn -0.7026 0.5921 -0.3948
vt 0.445312 0.541168
vt 0.492188 0.541168
vt 0.492188 0.509796
s 1
usemtl npc03_05_3
f 109/76/107 110/77/108 111/78/109
f 111/78/109 110/77/108 112/76/110
o npc_03-0001-46.009
v -4.967027 17.579615 14.942494
v -2.393364 19.195595 16.567974
v -2.103474 20.423925 15.011092
v 1.997416 15.935611 15.861115
v 2.393364 19.195595 16.567974
v 0.989870 19.564560 15.950590
v 0.000000 31.952953 -2.227955
v -6.183153 28.284307 1.992331
v -5.801346 30.946470 3.307628
v 0.000000 23.086086 14.924598
v -1.898429 21.656925 15.565843
v -4.896322 26.883171 12.702610
v -3.966551 16.498404 16.878159
v 5.801346 30.946470 3.307628
v 6.183153 28.284307 1.992331
v 1.898429 21.656925 15.565843
v 4.896322 26.883171 12.702610
v 3.966551 16.498404 16.878159
v -4.892786 13.481285 15.363032
v -1.997416 15.935611 15.861115
v -0.989870 19.564560 15.950590
v 0.000000 20.916658 16.019188
v 2.103474 20.423925 15.011092
v 4.892786 13.481285 15.363032
v 4.967027 17.579615 14.942494
v 0.000000 19.109190 15.932695
vn -0.7667 0.3952 0.5059
vn -0.1018 0.4228 0.9005
vn -0.3066 0.3617 0.8805
vn -0.3843 -0.2588 0.8862
vn 0.1018 0.4228 0.9005
vn -0.0079 0.2518 0.9678
vn 0.0001 0.5745 -0.8185
vn -0.7026 0.5921 -0.3947
vn -0.8479 0.4710 -0.2434
vn -0.0000 0.1810 0.9835
vn -0.2830 -0.0236 0.9588
vn -0.5807 0.2433 0.7769
vn -0.2827 -0.0471 0.9581
vn 0.8479 0.4711 -0.2434
vn 0.7026 0.5921 -0.3947
vn -0.0001 0.5745 -0.8185
vn 0.2830 -0.0235 0.9588
vn 0.5807 0.2432 0.7769
vn 0.2827 -0.0471 0.9581
vn -0.4004 -0.3062 0.8636
vn 0.3844 -0.2589 0.8861
vn 0.0079 0.2518 0.9678
vn -0.0000 0.2351 0.9720
vn 0.3066 0.3617 0.8805
vn 0.4004 -0.3062 0.8636
vn 0.7667 0.3952 0.5059
vn -0.0000 -0.0472 0.9989
vt 0.324219 0.658813
vt 0.296875 0.619598
vt 0.312500 0.596069
vt 0.269501 0.658813
vt 0.281250 0.596069
vt 0.492188 0.509796
vt 0.445312 0.541168
vt 0.445312 0.509796
vt 0.273438 0.545074
vt 0.308594 0.572540
vt 0.359375 0.509796
vt 0.296875 0.658813
vt 0.296875 0.694092
vt 0.257812 0.564697
vt 0.257812 0.596069
s 1
usemtl npc03_05_3
f 113/79/111 114/80/112 115/81/113
f 116/82/114 117/80/115 118/83/116
f 119/84/117 120/85/118 121/86/119
f 115/81/113 122/87/120 123/88/121
f 123/88/121 122/87/120 124/89/122
f 114/80/112 113/79/111 125/90/123
f 126/86/124 127/85/125 119/84/126
f 122/87/120 128/88/127 129/89/128
f 117/80/115 116/82/114 130/90/129
f 113/79/111 131/91/130 125/90/123
f 125/90/123 131/91/130 132/82/131
f 125/90/123 132/82/131 114/80/112
f 114/80/112 132/82/131 133/83/132
f 114/80/112 133/83/132 115/81/113
f 115/81/113 133/83/132 134/92/133
f 115/81/113 134/92/133 122/87/120
f 122/87/120 134/92/133 135/81/134
f 122/87/120 135/81/134 128/88/127
f 116/82/114 136/91/135 130/90/129
f 130/90/129 136/91/135 137/79/136
f 130/90/129 137/79/136 117/80/115
f 117/80/115 137/79/136 135/81/134
f 117/80/115 135/81/134 118/83/116
f 118/83/116 135/81/134 134/92/133
f 118/83/116 134/92/133 138/93/137
f 138/93/137 134/92/133 133/83/132
o npc_03-0001-44.009
v -1.898429 21.656925 15.565843
v -4.896322 26.883171 12.702610
v -5.454891 25.148092 12.311898
v -6.278605 29.134331 9.245853
v -7.689169 27.754210 8.628469
v -5.801346 30.946470 3.307628
v -6.183153 28.284307 1.992331
vn -0.2830 -0.0236 0.9588
vn -0.5808 0.2432 0.7769
vn -0.5977 0.2909 0.7471
vn -0.7893 0.4262 0.4420
vn -0.6889 0.6419 0.3366
vn -0.8479 0.4710 -0.2433
vn -0.7026 0.5921 -0.3947
vt 0.308594 0.572540
vt 0.359375 0.509796
vt 0.359375 0.541168
vt 0.402344 0.509796
vt 0.402344 0.541168
vt 0.445312 0.509796
vt 0.445312 0.541168
s 1
usemtl npc03_05_3
f 139/94/138 140/95/139 141/96/140
f 141/96/140 140/95/139 142/97/141
f 141/96/140 142/97/141 143/98/142
f 143/98/142 142/97/141 144/99/143
f 143/98/142 144/99/143 145/100/144
o npc_03-0001-53.001
v 6.522537 66.768898 21.465292
v 6.695764 62.988163 21.888813
v 8.997212 62.215202 21.187918
v 8.756815 67.560539 20.591410
v 7.858861 37.777020 20.460180
v 10.559793 36.691135 6.164895
v 12.634985 36.691135 13.033671
v 0.102522 53.869087 -3.856420
v 15.127336 54.163326 8.020030
v 10.559793 36.691135 6.164895
v 12.634985 36.691135 13.033671
v 0.102522 55.917091 25.596104
v -7.858861 37.777020 20.460180
v 0.000000 38.788174 24.444845
v 11.956216 55.256214 20.227541
v 7.858861 37.777020 20.460180
v -11.751172 55.256214 20.227541
v -12.634985 36.691135 13.033671
v 5.730641 64.886703 22.154257
v 10.966346 66.768898 19.663841
v 11.136038 62.988163 20.084381
v 12.012780 64.886703 19.604191
v 16.131348 59.667465 7.354925
v 0.106058 59.195747 -4.265028
v 0.102522 53.869087 -3.856420
v 0.000000 36.693470 -0.814235
v -18.779249 64.690544 5.007670
v -19.023182 68.324165 9.156374
v -15.523284 67.537193 1.828288
v -15.523284 67.537193 1.828288
v -9.364878 68.405899 0.298248
v -4.627643 69.888771 -5.756296
v 0.106058 70.367493 -6.997030
v 4.839758 69.888771 -5.756296
v 9.576993 68.405899 0.298248
v -12.634985 36.691135 13.033671
v -10.559793 36.691135 6.164895
v -7.858861 37.777020 20.460180
v 0.000000 36.693470 -0.814235
v 0.000000 38.788174 24.444845
v 15.735399 67.537193 1.828288
v 19.235296 68.324165 9.156374
v 18.991365 64.690544 5.007670
v 18.991365 65.402794 13.874743
v 15.735399 71.404335 8.887945
v 9.576993 72.263695 8.729872
v 15.735399 68.716484 18.020464
v 9.576993 69.566505 19.356640
v 13.829899 60.694965 19.171724
v -9.364878 69.566505 19.356640
v -4.627643 72.403809 23.368149
v -9.364878 72.263695 8.729872
v -4.627643 75.965034 8.425653
v 0.106058 61.082615 25.032404
v 0.106058 73.036659 24.489582
v 4.839758 72.403809 23.368149
v 4.839758 75.965034 8.425653
v 0.106058 76.518486 8.366002
v -10.559793 36.691135 6.164895
v -14.922291 54.163326 8.020030
v -13.617784 60.694965 19.171724
v 15.735399 67.537193 1.828288
v 3.613026 68.896294 23.800615
v 2.584268 70.867226 24.113781
v 2.584268 66.930031 24.185362
v 0.098987 71.693901 24.898188
v 0.098987 66.124374 25.002577
v -2.386294 70.867226 24.113781
v -2.386294 66.930031 24.185362
v -3.415052 68.896294 23.800615
v -5.532667 64.886703 22.154257
v -6.324563 66.768898 21.465292
v -6.494255 62.988163 21.888813
v -8.555306 67.560539 20.591410
v -8.799238 62.215202 21.187918
v -10.768372 66.768898 19.663841
v -10.938064 62.988163 20.084381
v -11.814806 64.886703 19.604191
v 5.684682 60.729996 22.828312
v 4.047862 63.931595 23.615698
v 4.047862 57.703537 24.367300
v 0.098987 65.344414 25.098017
v 0.098987 56.535927 26.159801
v -3.849888 63.931595 23.615698
v -3.849888 57.703537 24.367300
v -5.486708 60.729996 22.828312
v -4.627643 69.888771 -5.756296
v -9.364878 68.405899 0.298248
v -15.523284 67.537193 1.828288
v -15.523284 68.716484 18.020464
v -18.779249 65.402794 13.874743
v -15.915697 59.667465 7.354925
v -15.523284 71.404335 8.887945
v 15.735399 67.537193 1.828288
v 9.576993 68.405899 0.298248
v 4.839758 69.888771 -5.756296
v -13.617784 60.694965 19.171724
v 0.106058 76.518486 8.366002
v 0.106058 70.367493 -6.997030
vn 0.3997 0.1176 0.9091
vn 0.3701 0.1181 0.9214
vn 0.3702 0.1181 0.9214
vn 0.3134 -0.7521 0.5798
vn 0.5349 -0.6843 -0.4956
vn 0.8569 -0.4797 0.1886
vn -0.0000 -0.1414 -0.9900
vn 0.9361 -0.1573 -0.3146
vn 0.8570 -0.4796 0.1887
vn -0.0000 -0.0236 0.9997
vn -0.3152 -0.7487 0.5831
vn -0.0000 -0.7303 0.6831
vn 0.7706 -0.1022 0.6291
vn 0.3134 -0.7521 0.5797
vn -0.7743 -0.0939 0.6258
vn -0.8602 -0.4735 0.1894
vn 0.4722 0.1181 0.8735
vn 0.3444 0.1174 0.9314
vn 0.3444 0.1174 0.9315
vn 0.2665 0.1176 0.9566
vn 0.8547 -0.4705 -0.2196
vn -0.0000 -0.2902 -0.9570
vn -0.0000 -0.1414 -0.9899
vn 0.5349 -0.6843 -0.4955
vn -0.0000 -0.9547 -0.2974
vn -0.8673 -0.2444 -0.4337
vn -0.8684 0.4928 -0.0548
vn -0.5565 0.4389 -0.7054
vn -0.5565 0.4390 -0.7054
vn -0.5339 0.4396 -0.7223
vn -0.5561 0.3369 -0.7598
vn -0.0000 0.4567 -0.8896
vn 0.5561 0.3369 -0.7598
vn 0.5339 0.4396 -0.7223
vn -0.8601 -0.4736 0.1895
vn -0.5357 -0.6774 -0.5041
vn -0.3152 -0.7486 0.5832
vn -0.0000 -0.9548 -0.2974
vn -0.0000 -0.7302 0.6832
vn 0.5565 0.4389 -0.7054
vn 0.8684 0.4928 -0.0548
vn 0.8673 -0.2444 -0.4336
vn 0.9462 -0.1813 0.2681
vn 0.4392 0.8942 -0.0863
vn 0.4237 0.9024 -0.0785
vn 0.6304 0.5123 0.5832
vn 0.4795 0.4481 0.7545
vn 0.6623 -0.1104 0.7411
vn -0.4795 0.4481 0.7545
vn -0.5029 0.5186 0.6915
vn -0.4237 0.9024 -0.0785
vn -0.4080 0.9102 -0.0706
vn -0.0000 0.0394 0.9992
vn -0.0000 0.6456 0.7637
vn 0.5029 0.5186 0.6915
vn 0.4080 0.9102 -0.0706
vn -0.0000 0.9969 -0.0784
vn -0.9372 -0.1496 -0.3150
vn -0.6623 -0.1104 0.7411
vn 0.5565 0.4390 -0.7054
vn 0.3209 0.0156 0.9470
vn 0.3138 0.0157 0.9493
vn 0.3138 0.0157 0.9494
vn -0.0000 0.0157 0.9999
vn -0.3138 0.0157 0.9493
vn -0.3209 0.0157 0.9470
vn -0.4722 0.1180 0.8736
vn -0.3997 0.1176 0.9091
vn -0.3702 0.1181 0.9214
vn -0.3444 0.1174 0.9315
vn -0.2666 0.1176 0.9566
vn 0.5809 0.0942 0.8085
vn 0.4851 0.1017 0.8685
vn -0.0000 0.1173 0.9931
vn -0.4851 0.1017 0.8685
vn -0.5809 0.0942 0.8085
vn -0.5561 0.3368 -0.7598
vn -0.5339 0.4397 -0.7223
vn -0.5565 0.4389 -0.7055
vn -0.6305 0.5123 0.5832
vn -0.9462 -0.1813 0.2681
vn -0.8547 -0.4705 -0.2196
vn -0.4392 0.8942 -0.0863
vn 0.5339 0.4397 -0.7223
vn 0.5562 0.3368 -0.7598
vn -0.6623 -0.1103 0.7411
vn -0.0000 0.9969 -0.0785
vn -0.0000 0.4566 -0.8897
vt 0.331238 0.015991
vt 0.331238 0.082397
vt 0.370331 0.094116
vt 0.370331 0.004272
vt 0.027344 0.552917
vt 0.105469 0.552917
vt 0.066376 0.568604
vt 0.009979 0.634338
vt 0.076172 0.633881
vt 0.050751 0.745728
vt 0.082001 0.745728
vt 0.244141 0.624969
vt 0.148438 0.745728
vt 0.244141 0.745728
vt 0.148438 0.633881
vt 0.315613 0.051147
vt 0.082001 0.650970
vt 0.009979 0.651733
vt 0.009979 0.745728
vt 0.078125 0.619598
vt 0.113251 0.564697
vt 0.070282 0.592133
vt 0.070587 0.591705
vt 0.042969 0.588226
vt 0.023438 0.576447
vt 0.009979 0.576447
vt 0.128876 0.505859
vt 0.009979 0.505859
vt 0.070312 0.592133
vt 0.113251 0.603912
vt 0.148438 0.537231
vt 0.179688 0.533325
vt 0.148438 0.568604
vt 0.179688 0.568604
vt 0.148438 0.650970
vt 0.214844 0.541168
vt 0.214844 0.521545
vt 0.244141 0.636719
vt 0.244141 0.535126
vt 0.244141 0.521545
vt 0.214844 0.505859
vt 0.179688 0.505859
vt 0.148438 0.505859
vt 0.148407 0.568604
vt 0.148407 0.537231
vt 0.244141 0.505859
s 1
usemtl npc03_05
f 146/101/145 147/102/145 148/103/146
f 148/103/146 149/104/147 146/101/145
f 150/105/148 151/106/149 152/107/150
f 153/108/151 154/109/152 155/110/149
f 154/109/152 156/111/153 155/110/149
f 157/112/154 158/113/155 159/114/156
f 160/115/157 161/113/158 156/111/153
f 158/113/155 162/115/159 163/111/160
f 147/102/145 146/101/145 164/116/161
f 149/104/147 148/103/146 165/101/162
f 165/101/162 148/103/146 166/102/163
f 165/101/162 166/102/163 167/116/164
f 161/113/158 157/112/154 159/114/156
f 168/117/165 154/109/152 169/118/166
f 170/108/167 155/110/168 171/119/169
f 172/120/170 173/121/171 174/122/172
f 172/120/170 175/123/173 169/118/166
f 169/118/166 175/123/173 176/124/174
f 169/118/166 176/124/174 177/125/175
f 177/125/175 178/126/176 169/118/166
f 169/118/166 178/126/176 179/125/177
f 169/118/166 179/125/177 180/124/178
f 181/107/179 182/106/180 183/105/181
f 183/105/181 182/106/180 184/127/182
f 151/106/149 150/105/148 184/127/182
f 184/127/182 150/105/148 185/128/183
f 184/127/182 185/128/183 183/105/181
f 186/129/184 187/121/185 188/120/186
f 188/120/186 187/121/185 189/130/187
f 190/131/188 191/132/189 192/133/190
f 192/133/190 191/132/189 193/134/191
f 192/133/190 193/134/191 194/135/192
f 195/134/193 196/136/194 197/132/195
f 197/132/195 196/136/194 198/137/196
f 195/134/193 199/138/197 196/136/194
f 196/136/194 199/138/197 200/139/198
f 196/136/194 200/139/198 198/137/196
f 201/136/199 202/137/200 203/140/201
f 204/110/180 163/111/160 205/109/202
f 205/109/202 163/111/160 162/115/159
f 205/109/202 162/115/159 206/135/203
f 189/130/187 168/117/165 188/120/186
f 188/120/186 168/117/165 169/118/166
f 188/120/186 169/118/166 207/123/204
f 207/123/204 169/118/166 180/124/178
f 208/116/205 209/101/206 210/102/207
f 210/102/207 209/101/206 211/104/208
f 210/102/207 211/104/208 212/103/208
f 212/103/208 211/104/208 213/101/209
f 212/103/208 213/101/209 214/102/209
f 214/102/209 213/101/209 215/116/210
f 216/116/211 217/101/212 218/102/212
f 218/102/212 217/101/212 219/104/213
f 218/102/212 219/104/213 220/103/213
f 220/103/213 219/104/213 221/101/214
f 220/103/213 221/101/214 222/102/214
f 222/102/214 221/101/214 223/116/215
f 224/116/216 225/101/217 226/102/217
f 226/102/217 225/101/217 227/104/218
f 226/102/217 227/104/218 228/103/218
f 228/103/218 227/104/218 229/101/219
f 228/103/218 229/101/219 230/102/219
f 230/102/219 229/101/219 231/116/220
f 199/138/197 201/136/199 200/139/198
f 200/139/198 201/136/199 203/140/201
f 200/139/198 203/140/201 198/137/196
f 198/137/196 203/140/201 232/141/221
f 198/137/196 232/141/221 197/132/195
f 197/132/195 232/141/221 233/142/222
f 197/132/195 233/142/222 234/143/223
f 235/144/224 236/130/225 206/135/203
f 206/135/203 236/130/225 237/117/226
f 206/135/203 237/117/226 205/109/202
f 205/109/202 237/117/226 153/108/151
f 205/109/202 153/108/151 204/110/180
f 204/110/180 153/108/151 171/119/169
f 154/109/152 153/108/151 169/118/166
f 169/118/166 153/108/151 237/117/226
f 169/118/166 237/117/226 172/120/170
f 172/120/170 237/117/226 236/130/225
f 172/120/170 236/130/225 173/121/171
f 173/121/171 236/130/225 235/144/224
f 173/121/171 235/144/224 238/145/227
f 156/111/153 154/109/152 160/115/157
f 160/115/157 154/109/152 168/117/165
f 160/115/157 168/117/165 194/135/192
f 194/135/192 168/117/165 189/130/187
f 194/135/192 189/130/187 192/133/190
f 192/133/190 189/130/187 187/121/185
f 192/133/190 187/121/185 190/131/188
f 190/131/188 187/121/185 239/143/184
f 190/131/188 239/143/184 191/132/189
f 191/132/189 239/143/184 240/142/228
f 191/132/189 240/142/228 241/141/229
f 158/113/155 157/112/154 162/115/159
f 162/115/159 157/112/154 199/138/197
f 162/115/159 199/138/197 242/135/230
f 242/135/230 199/138/197 195/134/193
f 242/135/230 195/134/193 235/144/224
f 235/144/224 195/134/193 197/132/195
f 235/144/224 197/132/195 238/145/227
f 238/145/227 197/132/195 234/143/223
f 238/145/227 234/143/223 173/121/171
f 161/113/158 160/115/157 157/112/154
f 157/112/154 160/115/157 194/135/192
f 157/112/154 194/135/192 199/138/197
f 199/138/197 194/135/192 193/134/191
f 199/138/197 193/134/191 201/136/199
f 201/136/199 193/134/191 191/132/189
f 201/136/199 191/132/189 202/137/200
f 202/137/200 191/132/189 241/141/229
f 202/137/200 241/141/229 243/140/231
f 243/140/231 241/141/229 244/146/232
f 243/140/231 244/146/232 232/141/221
