mtllib style1_helper_1.mtl
o npc_03-0001-67.006
v -14.904615 -1.046183 -0.465275
v -15.190970 -4.308500 -0.790372
v -13.720306 -5.838074 11.613987
v -10.807260 -2.561746 13.510879
v 10.807260 -2.561746 13.510879
v 13.720306 -5.838074 11.613987
v 14.904615 -1.046183 -0.465275
v 15.190970 -4.308500 -0.790372
v 0.000000 -4.448614 -11.354507
v 0.000000 -1.291383 -10.558170
vn -0.8858 0.2822 -0.3684
vn -0.9091 0.1176 -0.3997
vn -0.8832 0.3470 0.3154
vn -0.6508 0.4391 0.6194
vn 0.6508 0.4391 0.6194
vn 0.8832 0.3470 0.3154
vn 0.8858 0.2822 -0.3684
vn 0.9091 0.1176 -0.3997
vn -0.0000 0.1961 -0.9806
vn -0.0000 0.2425 -0.9701
vt 0.473022 0.256348
vt 0.473022 0.297943
vt 0.383057 0.297943
vt 0.352295 0.256348
vt 0.332642 0.297943
vt 0.332642 0.256348
s 1
usemtl npc03_05
f 1/1/1 2/2/2 3/3/3
f 1/1/1 3/3/3 4/4/4
f 5/4/5 6/3/6 7/1/7
f 7/1/7 6/3/6 8/2/8
f 7/1/7 8/2/8 9/5/9
f 2/2/2 1/1/1 9/5/9
f 9/5/9 1/1/1 10/6/10
f 9/5/9 10/6/10 7/1/7
o npc_03-0001-66.006
v -4.931674 -4.343526 17.817657
v 0.000000 -4.798897 15.783570
v -4.146849 -1.492211 17.367294
v 4.931674 -4.343526 17.817657
v 0.000000 -4.798897 15.783570
v 4.115031 -7.491416 18.318724
v -4.115031 -7.491416 18.318724
v 4.143313 -1.492211 17.367294
v 0.000000 -6.664746 17.346418
v 0.000000 -2.954065 16.690260
v -10.807260 -2.561746 13.510879
vn 0.3852 0.1415 0.9119
vn 0.3832 0.0391 0.9228
vn -0.3852 0.1415 0.9119
vn -0.3865 0.2366 0.8914
vn 0.3865 0.2366 0.8914
vn -0.3832 0.0391 0.9228
vn -0.0000 0.3996 0.9167
vn -0.0000 0.2830 0.9591
vn -0.6508 0.4391 0.6194
vt 0.267639 0.126740
vt 0.325470 0.107697
vt 0.267700 0.107697
vt 0.267639 0.107697
vt 0.255188 0.297943
vt 0.255188 0.256348
vt 0.352295 0.256348
s 1
usemtl npc03_05
f 11/7/11 12/8/11 13/9/12
f 14/7/13 15/8/13 16/10/14
f 12/8/11 11/7/11 17/10/15
f 15/8/13 14/7/13 18/9/16
f 19/11/17 20/12/18 21/13/19
o npc_03-0001-65.006
v 0.000000 -6.664746 17.346418
v -10.807260 -2.561746 13.510879
v -11.931470 -6.239734 14.760561
v -13.720306 -5.838074 11.613987
v -13.670813 -21.229574 21.411613
v -9.997688 -21.628901 24.438885
v -12.801141 -15.674064 18.709438
v -5.963967 -14.235561 20.662996
v -11.931470 -6.239734 14.760561
v 0.000000 -6.664746 17.346418
vn -0.0000 0.3996 0.9167
vn -0.6508 0.4391 0.6194
vn -0.3925 0.4082 0.8242
vn -0.8832 0.3470 0.3155
vn -0.5444 0.4339 0.7179
vn -0.3301 0.5109 0.7938
vn -0.4087 0.4638 0.7860
vn -0.1569 0.4942 0.8551
vn -0.3924 0.4082 0.8242
vt 0.255188 0.297943
vt 0.352295 0.256348
vt 0.352295 0.297943
vt 0.383057 0.297943
vt 0.253357 0.385773
vt 0.299194 0.385773
vt 0.253357 0.339905
vt 0.328125 0.330078
vt 0.253357 0.301636
vt 0.374817 0.301788
s 1
usemtl npc03_05
f 22/14/20 23/15/21 24/16/22
f 24/16/22 23/15/21 25/17/23
f 26/18/24 27/19/25 28/20/26
f 28/20/26 27/19/25 29/21/27
f 28/20/26 29/21/27 30/22/28
f 30/22/28 29/21/27 31/23/20
o npc_03-0001-64.006
v 13.720306 -5.838074 11.613987
v 10.807260 -2.561746 13.510879
v 11.931470 -6.239734 14.760561
v 0.000000 -2.954065 16.690260
v 0.000000 -6.664746 17.346418
vn 0.8832 0.3470 0.3155
vn 0.6508 0.4391 0.6195
vn 0.3925 0.4082 0.8242
vn -0.0000 0.2830 0.9591
vn -0.0000 0.3995 0.9167
vt 0.383057 0.297943
vt 0.352295 0.256348
vt 0.352295 0.297943
vt 0.255188 0.256348
vt 0.255188 0.297943
s 1
usemtl npc03_05
f 32/24/29 33/25/30 34/26/31
f 34/26/31 33/25/30 35/27/32
f 34/26/31 35/27/32 36/28/33
o npc_03-0001-63.006
v 0.000000 -21.885775 25.807869
v -5.963967 -14.235561 20.662996
v -9.997688 -21.628901 24.438885
v 0.000000 -6.664746 17.346418
v -5.963967 -14.235561 20.662996
v 5.963967 -14.235561 20.662996
v 0.000000 -6.664746 17.346418
v 5.963967 -14.235561 20.662996
v 11.931470 -6.239734 14.760561
v 12.801141 -15.674064 18.709438
v 13.670813 -21.229574 21.411613
v 9.997688 -21.628901 24.438885
v 5.963967 -14.235561 20.662996
v 0.000000 -21.885775 25.807869
v -5.963967 -14.235561 20.662996
vn -0.0000 0.5180 0.8554
vn -0.1569 0.4942 0.8551
vn -0.3300 0.5108 0.7938
vn -0.0000 0.3995 0.9167
vn 0.1569 0.4942 0.8551
vn -0.0000 0.3996 0.9167
vn 0.3924 0.4082 0.8242
vn 0.4087 0.4637 0.7861
vn 0.5444 0.4339 0.7179
vn 0.4087 0.4638 0.7860
vn 0.3301 0.5108 0.7938
vt 0.374817 0.385773
vt 0.328125 0.330078
vt 0.299194 0.385773
vt 0.374817 0.301788
vt 0.421539 0.330078
vt 0.374847 0.301788
vt 0.487244 0.301636
vt 0.487244 0.339905
vt 0.487244 0.385773
vt 0.450439 0.385773
vt 0.374847 0.385773
s 1
usemtl npc03_05
f 37/29/34 38/30/35 39/31/36
f 40/32/37 41/30/35 42/33/38
f 43/34/39 44/33/38 45/35/40
f 45/35/40 44/33/38 46/36/41
f 47/37/42 46/36/43 48/38/44
f 48/38/44 46/36/43 49/33/38
f 48/38/44 49/33/38 50/39/34
f 50/39/34 49/33/38 51/30/35
