mtllib face_11.mtl
o editpl_m-0000-101
v 0.986147 51.295818 10.881768
v 0.000000 50.383266 9.701160
v 1.888308 50.916660 8.742476
v -2.511423 45.579502 7.706829
v -1.991258 46.646294 8.046067
v -2.931348 46.482418 7.520024
v 5.727236 48.076176 2.662344
v 4.806110 49.984825 6.560592
v 3.806418 47.767704 7.315285
v 2.633337 48.612782 8.262013
v 1.991258 46.646294 8.046067
v 1.481929 47.931580 9.110109
v 0.000000 44.303856 3.787658
v 3.202267 45.361004 5.374007
v 1.947911 44.525566 7.181533
v 2.511423 45.579502 7.706829
v 0.000000 50.701374 10.807046
v -5.727236 48.076176 2.662344
v -6.000865 48.278606 1.073005
v -5.112249 46.575600 2.843917
v -4.199251 46.405300 0.298884
v -1.969584 50.842754 8.707357
v -1.270612 49.445007 9.616724
v 0.000000 49.396809 10.150988
v -1.444000 45.319233 8.371855
v -1.947911 44.525566 7.181533
v 0.000000 44.265297 7.588021
v 0.000000 45.261395 8.647579
v 1.444000 45.319233 8.371855
v 0.000000 46.636654 8.554176
v 0.000000 47.584553 9.295419
v 0.000000 47.803051 9.414975
v 2.931348 46.482418 7.520024
v 4.023153 46.556320 4.908489
v 5.112249 46.575600 2.843917
v 4.199251 46.405300 0.298884
v -2.633337 48.612782 8.262013
v -0.934672 48.635273 8.878470
v 0.000000 48.831280 9.706391
v 1.270612 49.445007 9.616724
v 1.969584 50.842754 8.707357
v -4.806110 49.984825 6.560592
v -5.984610 50.029812 3.219022
v -6.512903 50.248310 0.347454
v -7.163109 53.779636 -2.317882
v -4.199251 46.405300 0.298884
v 0.000000 51.517532 11.376429
v -0.986147 51.295818 10.881768
v -1.888308 50.916660 8.742476
v 4.199251 46.405300 0.298884
v 7.163109 53.779636 -2.317882
v 6.000865 48.278606 1.073005
v 6.512903 50.248310 0.347454
v 5.984610 50.029812 3.219022
v -3.202267 45.361004 5.374007
v -4.023153 46.556320 4.908489
v -3.806418 47.767704 7.315285
v 0.934672 48.635273 8.878470
v 0.000000 48.500320 9.173622
v -1.481929 47.931580 9.110109
vn 0.6764 -0.2517 0.6922
vn -0.0000 -0.2592 0.9658
vn 0.6610 -0.1259 0.7398
vn -0.7247 -0.3545 0.5908
vn -0.4315 -0.2354 0.8709
vn -0.7052 -0.2821 0.6504
vn 0.9189 -0.2906 0.2670
vn 0.8559 -0.2591 0.4476
vn 0.7205 -0.3133 0.6187
vn 0.5041 -0.1497 0.8506
vn 0.4315 -0.2354 0.8709
vn 0.3373 -0.0079 0.9414
vn -0.0000 -0.9948 -0.1019
vn 0.6913 -0.7070 0.1492
vn 0.4497 -0.8441 0.2919
vn 0.7247 -0.3545 0.5908
vn -0.0000 -0.8019 0.5975
vn -0.9189 -0.2906 0.2670
vn -0.9021 -0.4079 -0.1412
vn -0.7570 -0.6466 0.0947
vn -0.6504 -0.7053 -0.2821
vn -0.3994 0.0314 0.9162
vn -0.4612 -0.2189 0.8599
vn -0.0000 -0.1173 0.9931
vn -0.3458 -0.3458 0.8723
vn -0.4497 -0.8441 0.2919
vn -0.0000 -0.8897 0.4566
vn -0.0000 -0.3605 0.9327
vn 0.3458 -0.3457 0.8723
vn -0.0000 -0.1415 0.9899
vn -0.0000 -0.5565 0.8308
vn -0.0000 -0.0785 0.9969
vn 0.7052 -0.2821 0.6504
vn 0.8389 -0.4077 0.3606
vn 0.7570 -0.6466 0.0947
vn 0.6504 -0.7053 -0.2821
vn -0.5041 -0.1497 0.8506
vn -0.3530 -0.3216 0.8786
vn -0.0000 -0.7526 0.6585
vn 0.4612 -0.2189 0.8599
vn 0.3994 0.0314 0.9162
vn -0.8559 -0.2591 0.4476
vn -0.9328 -0.2587 0.2508
vn -0.9604 -0.2047 0.1889
vn 0.2362 -0.0789 -0.9685
vn -0.6504 -0.7052 -0.2821
vn -0.0000 -0.1019 0.9948
vn -0.6764 -0.2517 0.6922
vn -0.6610 -0.1259 0.7397
vn -0.2362 -0.0787 -0.9685
vn 0.9021 -0.4079 -0.1412
vn 0.9604 -0.2047 0.1889
vn 0.9328 -0.2587 0.2508
vn -0.6913 -0.7070 0.1493
vn -0.8389 -0.4077 0.3606
vn -0.7205 -0.3133 0.6187
vn 0.3530 -0.3216 0.8786
vn -0.0000 -0.0158 0.9999
vn -0.3373 -0.0078 0.9414
vt 0.544922 0.568054
vt 0.505707 0.629639
vt 0.601715 0.596558
vt 0.658020 0.890076
vt 0.640076 0.844788
vt 0.702393 0.846954
vt 0.880219 0.849457
vt 0.821442 0.643341
vt 0.740021 0.788391
vt 0.654510 0.745514
vt 0.575958 0.796661
vt 0.505707 0.987823
vt 0.703217 0.952972
vt 0.632629 0.963745
vt 0.505707 0.592682
vt 0.934753 0.877411
vt 0.844574 0.933228
vt 0.987427 0.988403
vt 0.606110 0.601257
vt 0.570618 0.716064
vt 0.505707 0.713715
vt 0.595520 0.907990
vt 0.505707 0.953766
vt 0.505707 0.910736
vt 0.505707 0.854065
vt 0.505707 0.808533
vt 0.505707 0.796478
vt 0.763397 0.890747
vt 0.562744 0.749329
vt 0.505707 0.730377
vt 0.943817 0.645599
vt 0.987427 0.636719
vt 0.987427 0.504822
vt 0.986786 0.987885
vt 0.505707 0.560089
vt 0.505707 0.751007
s 1
usemtl m_face65
f 1/1/1 2/2/2 3/3/3
f 4/4/4 5/5/5 6/6/6
f 7/7/7 8/8/8 9/9/9
f 9/9/9 10/10/10 11/5/11
f 11/5/11 10/10/10 12/11/12
f 13/12/13 14/13/14 15/14/15
f 15/14/15 14/13/14 16/4/16
f 2/2/2 1/1/1 17/15/17
f 18/7/18 19/16/19 20/17/20
f 20/17/20 19/16/19 21/18/21
f 20/17/20 21/18/21 13/12/13
f 22/19/22 23/20/23 2/2/2
f 2/2/2 23/20/23 24/21/24
f 5/5/5 4/4/4 25/22/25
f 25/22/25 4/4/4 26/14/26
f 25/22/25 26/14/26 27/23/27
f 28/24/28 29/22/29 30/25/30
f 30/25/30 29/22/29 11/5/11
f 30/25/30 11/5/11 31/26/31
f 31/26/31 11/5/11 12/11/12
f 31/26/31 12/11/12 32/27/32
f 33/6/33 16/4/16 34/28/34
f 34/28/34 16/4/16 14/13/14
f 34/28/34 14/13/14 35/17/35
f 35/17/35 14/13/14 13/12/13
f 35/17/35 13/12/13 36/18/36
f 37/10/37 38/29/38 23/20/23
f 23/20/23 38/29/38 39/30/39
f 23/20/23 39/30/39 24/21/24
f 24/21/24 39/30/39 40/20/40
f 24/21/24 40/20/40 2/2/2
f 2/2/2 40/20/40 41/19/41
f 2/2/2 41/19/41 3/3/3
f 42/8/42 43/31/43 18/7/18
f 18/7/18 43/31/43 44/32/44
f 18/7/18 44/32/44 19/16/19
f 19/16/19 44/32/44 45/33/45
f 19/16/19 45/33/45 46/34/46
f 1/1/1 47/35/47 17/15/17
f 17/15/17 47/35/47 48/1/48
f 17/15/17 48/1/48 2/2/2
f 2/2/2 48/1/48 49/3/49
f 2/2/2 49/3/49 22/19/22
f 50/34/36 51/33/50 52/16/51
f 52/16/51 51/33/50 53/32/52
f 52/16/51 53/32/52 7/7/7
f 7/7/7 53/32/52 54/31/53
f 7/7/7 54/31/53 8/8/8
f 13/12/13 55/13/54 20/17/20
f 20/17/20 55/13/54 56/28/55
f 20/17/20 56/28/55 18/7/18
f 18/7/18 56/28/55 57/9/56
f 18/7/18 57/9/56 42/8/42
f 10/10/10 58/29/57 12/11/12
f 12/11/12 58/29/57 59/36/58
f 12/11/12 59/36/58 32/27/32
f 32/27/32 59/36/58 60/11/59
f 32/27/32 60/11/59 31/26/31
f 31/26/31 60/11/59 5/5/5
f 31/26/31 5/5/5 30/25/30
f 30/25/30 5/5/5 25/22/25
f 30/25/30 25/22/25 28/24/28
f 28/24/28 25/22/25 27/23/27
f 28/24/28 27/23/27 29/22/29
f 36/18/36 52/16/51 35/17/35
f 35/17/35 52/16/51 7/7/7
f 35/17/35 7/7/7 34/28/34
f 34/28/34 7/7/7 9/9/9
f 34/28/34 9/9/9 33/6/33
f 33/6/33 9/9/9 11/5/11
f 33/6/33 11/5/11 16/4/16
f 16/4/16 11/5/11 29/22/29
f 16/4/16 29/22/29 15/14/15
f 15/14/15 29/22/29 27/23/27
f 15/14/15 27/23/27 13/12/13
f 13/12/13 27/23/27 26/14/26
f 13/12/13 26/14/26 55/13/54
f 55/13/54 26/14/26 4/4/4
f 55/13/54 4/4/4 56/28/55
f 56/28/55 4/4/4 6/6/6
f 56/28/55 6/6/6 57/9/56
f 57/9/56 6/6/6 5/5/5
f 57/9/56 5/5/5 37/10/37
f 37/10/37 5/5/5 60/11/59
f 37/10/37 60/11/59 38/29/38
f 38/29/38 60/11/59 59/36/58
f 38/29/38 59/36/58 39/30/39
f 39/30/39 59/36/58 58/29/57
f 39/30/39 58/29/57 40/20/40
f 40/20/40 58/29/57 10/10/10
o editpl_m-0000-102
v 7.390682 58.499855 -1.933811
v 6.927409 55.174175 0.347454
v 7.163109 53.779636 -2.317882
v -0.986147 51.295818 10.881768
v -0.680008 53.198044 10.023212
v -1.888308 50.916660 8.742476
v -7.824153 56.199192 -1.170151
v -7.163109 53.779636 -2.317882
v -8.590855 55.559761 -2.843925
v 2.633337 48.612782 8.262013
v 1.969584 50.842754 8.707357
v 1.270612 49.445007 9.616724
v 0.000000 56.115646 9.985851
v 1.760976 55.489071 9.354450
v 4.218215 56.208832 9.063034
v -2.151100 57.333458 9.305132
v -4.624594 57.728683 8.161139
v -4.218215 56.208832 9.063034
v -6.927409 55.174175 0.347454
v -7.390682 58.499855 -1.933811
v -7.163109 53.779636 -2.317882
v -3.194140 52.259785 8.489916
v -1.969584 50.842754 8.707357
v -1.815160 52.189095 8.821681
v 6.515612 52.632519 4.377214
v 5.984610 50.029812 3.219022
v 6.512903 50.248310 0.347454
v 7.824153 56.199192 -1.170151
v 8.574599 53.165913 -3.065850
v 8.590855 55.559761 -2.843925
v 7.255222 49.923775 -1.247862
v 6.512903 50.248310 0.347454
v 6.927409 55.174175 0.347454
v 6.927409 55.174175 0.347454
v 7.824153 56.199192 -1.170151
v 7.163109 53.779636 -2.317882
v 8.590855 55.559761 -2.843925
v 1.815160 52.189095 8.821681
v 3.194140 52.259785 8.489916
v 2.226958 54.374084 8.187291
v 6.466846 58.175320 3.896751
v 3.177885 54.968529 8.406974
v 4.307619 54.386936 7.738959
v 4.686906 52.304771 7.834603
v 8.574599 53.165913 -3.065850
v 7.255222 49.923775 -1.247862
v 6.512903 50.248310 0.347454
v 0.000000 54.676125 9.615977
v 0.633951 54.322670 9.228917
v 0.975310 54.875343 9.219203
v 1.346469 54.473694 8.287419
v 2.267595 55.309128 8.460027
v -6.193218 61.047935 3.615795
v -6.466846 58.175320 3.896751
v -6.512903 50.248310 0.347454
v -8.574599 53.165913 -3.065850
v -7.255222 49.923775 -1.247862
v -8.590855 55.559761 -2.843925
v -7.824153 56.199192 -1.170151
v -6.927409 55.174175 0.347454
v 0.000000 53.429398 10.442403
v -2.226958 54.374084 8.187291
v -1.346469 54.473694 8.287419
v -2.267595 55.309128 8.460027
v -6.927409 55.174175 0.347454
v -6.512903 50.248310 0.347454
v -7.255222 49.923775 -1.247862
v -8.574599 53.165913 -3.065850
v -1.270612 49.445007 9.616724
v -2.633337 48.612782 8.262013
v -3.836219 50.290081 8.011694
v -3.806418 47.767704 7.315285
v -4.806110 49.984825 6.560592
v 0.000000 62.905178 7.103820
v -3.717014 62.619202 6.400686
v -2.717322 59.820488 8.927039
v -5.272092 59.283878 7.053758
v 3.836219 50.290081 8.011694
v 3.806418 47.767704 7.315285
v 4.806110 49.984825 6.560592
v 0.000000 55.434444 9.578616
v -1.760976 55.489071 9.354450
v -0.975310 54.875343 9.219203
v 0.000000 57.265980 9.618965
v 2.151100 57.333458 9.305132
v 4.624594 57.728683 8.161139
v 5.201653 55.935707 7.845064
v 6.049630 54.926758 5.561558
v 0.000000 59.762650 9.333527
v 2.717322 59.820488 8.927039
v 3.717014 62.619202 6.400686
v 5.272092 59.283878 7.053758
v 6.193218 61.047935 3.615795
v -6.049630 54.926758 5.561558
v -5.201653 55.935707 7.845064
v -5.136632 54.907478 7.162105
v -4.250726 55.302704 8.053539
v -4.307619 54.386936 7.738959
v -3.177885 54.968529 8.406974
v -4.686906 52.304771 7.834603
v -5.716400 52.163387 6.311020
v -5.984610 50.029812 3.219022
v -6.515612 52.632519 4.377214
v -6.512903 50.248310 0.347454
v 1.888308 50.916660 8.742476
v 0.680008 53.198044 10.023212
v 0.986147 51.295818 10.881768
v 0.000000 51.517532 11.376429
v -0.633951 54.322670 9.228917
v 4.250726 55.302704 8.053539
v 5.136632 54.907478 7.162105
v 5.716400 52.163387 6.311020
vn 0.9899 -0.0000 0.1414
vn 0.9859 0.0313 0.1643
vn -0.2363 -0.0787 -0.9685
vn -0.6764 -0.2517 0.6922
vn -0.7452 0.3138 0.5883
vn -0.6610 -0.1259 0.7397
vn 0.8242 0.4082 -0.3925
vn 0.2362 -0.0787 -0.9685
vn 0.6187 0.2741 -0.7362
vn 0.5041 -0.1497 0.8506
vn 0.3994 0.0313 0.9162
vn 0.4612 -0.2188 0.8599
vn -0.0000 -0.0941 0.9956
vn 0.2666 -0.6116 0.7449
vn 0.4245 -0.3144 0.8491
vn -0.2285 0.1970 0.9534
vn -0.7004 0.1731 0.6925
vn -0.4245 -0.3144 0.8491
vn -0.9859 0.0313 0.1643
vn -0.9899 -0.0000 0.1414
vn 0.2363 -0.0787 -0.9685
vn -0.2994 0.0472 0.9530
vn -0.3994 0.0313 0.9162
vn -0.4942 0.1569 0.8551
vn 0.9712 -0.1096 0.2115
vn 0.9328 -0.2587 0.2508
vn 0.9604 -0.2047 0.1889
vn 0.8879 -0.0629 0.4557
vn 0.8917 -0.0782 0.4458
vn 0.9045 -0.0393 0.4247
vn -0.5188 -0.4559 -0.7232
vn 0.9604 -0.2047 0.1890
vn 0.9859 0.0313 0.1644
vn -0.8242 0.4082 -0.3925
vn -0.2362 -0.0787 -0.9685
vn -0.6187 0.2741 -0.7362
vn 0.4942 0.1569 0.8551
vn 0.2993 0.0473 0.9530
vn 0.1334 -0.0706 0.9885
vn 0.9605 0.0394 0.2756
vn 0.1813 -0.2050 0.9618
vn 0.4070 -0.1017 0.9078
vn 0.6443 -0.0629 0.7622
vn -0.4957 -0.0708 -0.8656
vn -0.5188 -0.4559 -0.7231
vn -0.0000 0.1019 0.9948
vn 0.7276 0.0861 0.6806
vn 0.4872 -0.4400 0.7543
vn 0.5266 -0.2043 0.8252
vn 0.2751 -0.5423 0.7938
vn -0.9235 0.2289 0.3078
vn -0.9605 0.0394 0.2756
vn -0.9604 -0.2047 0.1890
vn -0.8917 -0.0782 0.4458
vn 0.5188 -0.4559 -0.7231
vn -0.9045 -0.0393 0.4247
vn -0.8879 -0.0629 0.4557
vn -0.9859 0.0313 0.1644
vn -0.0000 0.5029 0.8644
vn -0.1334 -0.0706 0.9885
vn -0.5266 -0.2043 0.8252
vn -0.2751 -0.5423 0.7938
vn 0.5188 -0.4559 -0.7232
vn 0.4957 -0.0708 -0.8656
vn -0.4612 -0.2189 0.8599
vn -0.5041 -0.1497 0.8506
vn -0.5361 -0.1656 0.8278
vn -0.7205 -0.3132 0.6187
vn -0.8559 -0.2591 0.4476
vn -0.0000 0.6063 0.7952
vn -0.5426 0.5190 0.6605
vn -0.3609 0.3531 0.8632
vn -0.8075 0.2352 0.5409
vn 0.5361 -0.1656 0.8278
vn 0.7205 -0.3132 0.6187
vn 0.8559 -0.2591 0.4476
vn -0.0000 -0.2902 0.9570
vn -0.2666 -0.6116 0.7449
vn -0.4871 -0.4400 0.7544
vn -0.0000 0.2037 0.9790
vn 0.2285 0.1970 0.9534
vn 0.7004 0.1731 0.6925
vn 0.8086 -0.1884 0.5574
vn 0.9409 -0.0314 0.3372
vn -0.0000 0.2758 0.9612
vn 0.3609 0.3531 0.8632
vn 0.5426 0.5190 0.6605
vn 0.8075 0.2352 0.5409
vn 0.9235 0.2289 0.3078
vn -0.9409 -0.0314 0.3372
vn -0.8086 -0.1884 0.5574
vn -0.7290 -0.1568 0.6663
vn -0.4326 -0.3618 0.8258
vn -0.4070 -0.1017 0.9078
vn -0.1813 -0.2050 0.9618
vn -0.6443 -0.0629 0.7622
vn -0.8860 -0.1490 0.4391
vn -0.9328 -0.2587 0.2508
vn -0.9712 -0.1096 0.2115
vn -0.9604 -0.2047 0.1889
vn 0.6610 -0.1259 0.7397
vn 0.7452 0.3138 0.5883
vn 0.6764 -0.2517 0.6921
vn -0.0000 -0.1018 0.9948
vn -0.7276 0.0861 0.6806
vn 0.4326 -0.3618 0.8258
vn 0.7290 -0.1568 0.6663
vn 0.8860 -0.1490 0.4391
vt 0.987396 0.216431
vt 0.987488 0.357941
vt 0.987396 0.504211
vt 0.544922 0.568054
vt 0.539917 0.483276
vt 0.601715 0.596558
vt 0.099335 0.367096
vt 0.102783 0.403442
vt 0.093414 0.383026
vt 0.654510 0.745514
vt 0.606110 0.601257
vt 0.570618 0.716064
vt 0.505707 0.282837
vt 0.602600 0.317261
vt 0.756317 0.272858
vt 0.629791 0.209839
vt 0.790649 0.195892
vt 0.676117 0.530792
vt 0.602051 0.531830
vt 0.927917 0.510071
vt 0.943817 0.645599
vt 0.987396 0.636139
vt 0.032318 0.310669
vt 0.019165 0.545349
vt 0.013336 0.385742
vt 0.096313 0.636536
vt 0.121857 0.620270
vt 0.121857 0.372437
vt 0.118347 0.380188
vt 0.627472 0.410248
vt 0.919922 0.168243
vt 0.683868 0.370422
vt 0.749817 0.410309
vt 0.772614 0.512726
vt 0.094635 0.416870
vt 0.112915 0.436218
vt 0.118347 0.432770
vt 0.505707 0.386047
vt 0.540436 0.415253
vt 0.561859 0.374390
vt 0.574554 0.404572
vt 0.627167 0.344543
vt 0.921997 0.012299
vt 0.505707 0.470428
vt 0.722504 0.624268
vt 0.740021 0.788391
vt 0.821442 0.643341
vt 0.505707 0.012299
vt 0.697388 0.012299
vt 0.656982 0.090210
vt 0.806274 0.122559
vt 0.505707 0.319672
vt 0.505707 0.212952
vt 0.812256 0.292542
vt 0.901764 0.368866
vt 0.505707 0.092834
vt 0.811035 0.383087
vt 0.749573 0.349762
vt 0.859680 0.516235
vt 0.505707 0.560089
s 1
usemtl m_face65
f 61/37/60 62/38/61 63/39/62
f 64/40/63 65/41/64 66/42/65
f 67/43/66 68/44/67 69/45/68
f 70/46/69 71/47/70 72/48/71
f 73/49/72 74/50/73 75/51/74
f 76/52/75 77/53/76 78/51/77
f 79/38/78 80/37/79 81/39/80
f 82/54/81 83/47/82 84/55/83
f 85/56/84 86/57/85 87/58/86
f 88/59/87 89/60/88 90/61/89
f 91/62/90 89/60/88 92/63/91
f 92/63/91 89/60/88 88/59/87
f 92/63/91 88/59/87 93/64/92
f 94/65/61 95/43/93 96/44/94
f 96/44/94 95/43/93 97/45/95
f 98/55/96 99/54/97 100/66/98
f 62/38/61 61/37/60 101/67/99
f 102/68/100 100/66/98 103/69/101
f 103/69/101 100/66/98 99/54/97
f 103/69/101 99/54/97 104/70/102
f 97/45/95 105/71/103 96/44/94
f 96/44/94 105/71/103 106/72/104
f 96/44/94 106/72/104 107/73/91
f 108/74/105 109/75/106 110/76/107
f 110/76/107 109/75/106 111/77/108
f 110/76/107 111/77/108 112/78/109
f 113/79/110 80/37/79 114/67/111
f 115/63/112 116/60/113 117/62/114
f 118/61/115 116/60/113 119/59/116
f 119/59/116 116/60/113 115/63/112
f 119/59/116 115/63/112 120/64/117
f 65/41/64 64/40/63 121/80/118
f 122/66/119 123/77/120 124/78/121
f 68/44/67 67/43/66 125/65/78
f 126/73/112 127/72/122 68/44/67
f 68/44/67 127/72/122 128/71/123
f 68/44/67 128/71/123 69/45/68
f 129/48/124 83/47/82 130/46/125
f 130/46/125 83/47/82 131/81/126
f 130/46/125 131/81/126 132/82/127
f 132/82/127 131/81/126 133/83/128
f 134/84/129 135/85/130 136/86/131
f 136/86/131 135/85/130 137/87/132
f 136/86/131 137/87/132 77/53/76
f 71/47/70 70/46/69 138/81/133
f 138/81/133 70/46/69 139/82/134
f 138/81/133 139/82/134 140/83/135
f 74/50/73 73/49/72 141/88/136
f 141/88/136 73/49/72 142/50/137
f 141/88/136 142/50/137 143/76/138
f 144/89/139 73/49/72 145/52/140
f 145/52/140 73/49/72 75/51/74
f 145/52/140 75/51/74 146/53/141
f 146/53/141 75/51/74 147/90/142
f 146/53/141 147/90/142 101/67/99
f 101/67/99 147/90/142 148/91/143
f 101/67/99 148/91/143 62/38/61
f 62/38/61 148/91/143 85/56/84
f 62/38/61 85/56/84 87/58/86
f 77/53/76 76/52/75 136/86/131
f 136/86/131 76/52/75 149/92/144
f 136/86/131 149/92/144 134/84/129
f 134/84/129 149/92/144 150/86/145
f 134/84/129 150/86/145 151/85/146
f 151/85/146 150/86/145 152/87/147
f 151/85/146 152/87/147 153/79/148
f 80/37/79 79/38/78 114/67/111
f 114/67/111 79/38/78 154/91/149
f 114/67/111 154/91/149 155/90/150
f 155/90/150 154/91/149 156/93/151
f 155/90/150 156/93/151 157/94/152
f 157/94/152 156/93/151 158/69/153
f 157/94/152 158/69/153 159/68/154
f 83/47/82 82/54/81 131/81/126
f 131/81/126 82/54/81 160/70/155
f 131/81/126 160/70/155 133/83/128
f 133/83/128 160/70/155 161/95/156
f 133/83/128 161/95/156 162/57/157
f 162/57/157 161/95/156 163/56/158
f 162/57/157 163/56/158 164/58/159
f 140/83/135 104/70/102 138/81/133
f 138/81/133 104/70/102 99/54/97
f 138/81/133 99/54/97 71/47/70
f 71/47/70 99/54/97 98/55/96
f 71/47/70 98/55/96 165/42/160
f 165/42/160 98/55/96 166/41/161
f 165/42/160 166/41/161 167/40/162
f 167/40/162 166/41/161 121/80/118
f 167/40/162 121/80/118 168/96/163
f 168/96/163 121/80/118 64/40/63
f 123/77/120 143/76/138 124/78/121
f 124/78/121 143/76/138 142/50/137
f 124/78/121 142/50/137 78/51/77
f 78/51/77 142/50/137 73/49/72
f 78/51/77 73/49/72 76/52/75
f 76/52/75 73/49/72 144/89/139
f 76/52/75 144/89/139 149/92/144
f 149/92/144 144/89/139 145/52/140
f 149/92/144 145/52/140 150/86/145
f 150/86/145 145/52/140 146/53/141
f 150/86/145 146/53/141 152/87/147
f 152/87/147 146/53/141 101/67/99
f 152/87/147 101/67/99 153/79/148
f 153/79/148 101/67/99 61/37/60
f 158/69/153 122/66/119 159/68/154
f 159/68/154 122/66/119 124/78/121
f 159/68/154 124/78/121 157/94/152
f 157/94/152 124/78/121 78/51/77
f 157/94/152 78/51/77 155/90/150
f 155/90/150 78/51/77 77/53/76
f 155/90/150 77/53/76 114/67/111
f 114/67/111 77/53/76 137/87/132
f 114/67/111 137/87/132 113/79/110
f 113/79/110 137/87/132 135/85/130
f 83/47/82 66/42/65 84/55/83
f 84/55/83 66/42/65 65/41/64
f 84/55/83 65/41/64 169/75/164
f 169/75/164 65/41/64 121/80/118
f 169/75/164 121/80/118 108/74/105
f 108/74/105 121/80/118 166/41/161
f 108/74/105 166/41/161 109/75/106
f 109/75/106 166/41/161 98/55/96
f 109/75/106 98/55/96 111/77/108
f 111/77/108 98/55/96 100/66/98
f 111/77/108 100/66/98 112/78/109
f 112/78/109 100/66/98 102/68/100
f 112/78/109 102/68/100 170/94/165
f 170/94/165 102/68/100 103/69/101
f 170/94/165 103/69/101 171/93/166
f 171/93/166 103/69/101 104/70/102
f 171/93/166 104/70/102 172/95/167
f 172/95/167 104/70/102 140/83/135
f 172/95/167 140/83/135 86/57/85
f 86/57/85 85/56/84 172/95/167
f 172/95/167 85/56/84 148/91/143
f 172/95/167 148/91/143 171/93/166
f 171/93/166 148/91/143 147/90/142
f 171/93/166 147/90/142 170/94/165
f 170/94/165 147/90/142 75/51/74
f 170/94/165 75/51/74 112/78/109
f 112/78/109 75/51/74 74/50/73
f 112/78/109 74/50/73 110/76/107
f 110/76/107 74/50/73 141/88/136
f 110/76/107 141/88/136 108/74/105
f 108/74/105 141/88/136 143/76/138
f 108/74/105 143/76/138 169/75/164
f 169/75/164 143/76/138 123/77/120
f 169/75/164 123/77/120 84/55/83
f 84/55/83 123/77/120 122/66/119
f 84/55/83 122/66/119 82/54/81
f 82/54/81 122/66/119 158/69/153
f 82/54/81 158/69/153 160/70/155
f 160/70/155 158/69/153 156/93/151
f 160/70/155 156/93/151 161/95/156
f 161/95/156 156/93/151 154/91/149
f 161/95/156 154/91/149 163/56/158
f 163/56/158 154/91/149 79/38/78
f 163/56/158 79/38/78 164/58/159
