mtllib face_03.mtl
o editpl_m-0000-121
v 6.374734 50.248310 0.331015
v 4.277817 46.405300 0.283193
v 7.163109 53.779636 -2.334321
v -5.361495 47.607044 3.255636
v -5.540302 50.200111 4.395894
v -6.374734 50.248310 0.331015
v -4.665232 50.084435 6.591228
v -4.277817 48.198277 6.720497
v -1.823288 45.055748 7.716543
v 0.000000 45.364220 8.356163
v 0.000000 46.771606 8.486927
v 5.540302 50.200111 4.395894
v 5.361495 47.607044 3.255636
v 0.000000 51.546452 11.351770
v 0.000000 50.878101 11.005060
v 0.717936 51.334377 10.924360
v 4.277817 48.198277 6.720497
v 2.860909 47.555634 7.928753
v 3.389202 46.357101 6.384995
v 2.259468 46.565964 7.611185
v 1.823288 45.055748 7.716543
v 6.374734 50.248310 0.331015
v 7.163109 53.779636 -2.334321
v 7.209166 50.000893 -1.264301
v -0.717936 51.334377 10.924360
v -1.758267 51.019482 9.047342
v 0.000000 50.357559 9.752718
v 0.000000 47.645603 9.394800
v 0.000000 48.130798 9.375372
v -1.514440 47.780560 9.127295
v -2.259468 46.565964 7.611185
v -3.389202 46.357101 6.384995
v -3.714305 45.573078 4.257659
v 1.758267 51.019482 9.047342
v -7.209166 50.000893 -1.264301
v -7.163109 53.779636 -2.334321
v -6.374734 50.248310 0.331015
v 6.106524 48.352512 0.176340
v 3.714305 45.573078 4.257659
v 0.000000 44.303856 3.771219
v 1.980421 44.499863 6.615887
v 0.000000 44.194607 6.640546
v 1.514440 47.780560 9.127295
v 2.814853 48.378216 8.152172
v 1.018657 48.677048 8.930777
v 1.178499 49.380741 9.613735
v 0.000000 48.648129 9.524817
v 0.000000 49.306835 9.861065
v -1.178499 49.380741 9.613735
v -2.860909 47.555634 7.928753
v -2.814853 48.378216 8.152172
v -1.018657 48.677048 8.930777
v 0.000000 48.529240 9.107867
v -1.980421 44.499863 6.615887
v 0.000000 44.393826 7.795001
v -7.163109 53.779636 -2.334321
v -4.277817 46.405300 0.283193
v -6.074013 48.352512 0.176340
v 4.665232 50.084435 6.591228
vn 0.9791 -0.1802 0.0940
vn 0.6432 -0.6667 -0.3765
vn 0.8247 -0.4477 -0.3456
vn -0.8877 -0.4164 0.1964
vn -0.9260 -0.2589 0.2747
vn -0.9797 -0.1724 0.1018
vn -0.8247 -0.2435 0.5105
vn -0.8017 -0.2515 0.5423
vn -0.5504 -0.4168 0.7234
vn -0.0000 -0.3068 0.9518
vn -0.0000 -0.4315 0.9021
vn 0.9210 -0.2755 0.2755
vn 0.8906 -0.4098 0.1971
vn -0.0000 -0.1019 0.9948
vn -0.0000 -0.7226 0.6912
vn 0.6496 -0.2661 0.7122
vn 0.8017 -0.2515 0.5423
vn 0.6290 -0.3695 0.6840
vn 0.7456 -0.4552 0.4866
vn 0.4952 -0.4166 0.7624
vn 0.5504 -0.4168 0.7234
vn -0.8880 -0.1336 -0.4400
vn -0.7615 0.1256 -0.6359
vn -0.7545 -0.1886 -0.6287
vn -0.6496 -0.2661 0.7122
vn -0.5576 -0.0942 0.8247
vn -0.0000 -0.4314 0.9021
vn -0.0000 -0.3700 0.9290
vn -0.0000 0.3209 0.9471
vn -0.3852 -0.2201 0.8962
vn -0.4952 -0.4166 0.7624
vn -0.7456 -0.4552 0.4866
vn -0.6787 -0.7261 0.1105
vn 0.5577 -0.0942 0.8247
vn 0.7545 -0.1886 -0.6287
vn 0.7615 0.1256 -0.6359
vn 0.8880 -0.1336 -0.4400
vn 0.8216 -0.3912 -0.4147
vn 0.6787 -0.7261 0.1105
vn -0.0000 -0.9931 -0.1173
vn 0.3771 -0.9113 0.1650
vn -0.0000 -0.9980 0.0629
vn 0.3852 -0.2201 0.8962
vn 0.5733 -0.1727 0.8010
vn 0.3220 -0.2278 0.9189
vn 0.3628 -0.2445 0.8992
vn -0.0000 -0.7637 0.6456
vn -0.0000 -0.1810 0.9835
vn -0.3628 -0.2445 0.8992
vn -0.6290 -0.3695 0.6840
vn -0.5733 -0.1727 0.8010
vn -0.3220 -0.2278 0.9189
vn -0.0000 -0.3303 0.9439
vn -0.3771 -0.9113 0.1650
vn -0.0000 -0.8404 0.5420
vn -0.8247 -0.4477 -0.3456
vn -0.6413 -0.6648 -0.3831
vn -0.8163 -0.3925 -0.4239
vn 0.8247 -0.2435 0.5105
vt 0.025391 0.647461
vt 0.010895 0.986908
vt 0.011505 0.367188
vt 0.160156 0.831055
vt 0.120117 0.691406
vt 0.209961 0.703125
vt 0.268951 0.796875
vt 0.398438 0.945312
vt 0.492188 0.937500
vt 0.492188 0.875000
vt 0.492188 0.617188
vt 0.492188 0.659576
vt 0.447540 0.635040
vt 0.342896 0.842346
vt 0.277893 0.900665
vt 0.390625 0.875000
vt 0.847656 0.639648
vt 0.937500 0.500000
vt 0.914062 0.640625
vt 0.390625 0.638367
vt 0.492188 0.686371
vt 0.492188 0.843750
vt 0.492188 0.804688
vt 0.437500 0.828125
vt 0.171875 0.974609
vt 0.067383 0.815430
vt 0.491547 0.986786
vt 0.382812 0.976562
vt 0.492188 0.980011
vt 0.351562 0.796875
vt 0.431915 0.772308
vt 0.430786 0.745514
vt 0.493286 0.767853
vt 0.492188 0.745514
vt 0.493286 0.777893
vt 0.492188 0.968750
s 1
usemtl m_face75
f 1/1/1 2/2/2 3/3/3
f 4/4/4 5/5/5 6/1/6
f 7/6/7 5/5/5 8/7/8
f 9/8/9 10/9/10 11/10/11
f 12/5/12 13/4/13 1/1/1
f 14/11/14 15/12/15 16/13/16
f 17/7/17 18/14/18 19/15/19
f 19/15/19 18/14/18 20/16/20
f 19/15/19 20/16/20 21/8/21
f 22/17/22 23/18/23 24/19/24
f 25/13/25 26/20/26 27/21/27
f 28/22/28 29/23/29 30/24/30
f 11/10/11 31/16/31 9/8/9
f 9/8/9 31/16/31 32/15/32
f 9/8/9 32/15/32 33/25/33
f 33/25/33 32/15/32 4/4/4
f 34/20/34 16/13/16 27/21/27
f 27/21/27 16/13/16 15/12/15
f 27/21/27 15/12/15 25/13/25
f 25/13/25 15/12/15 14/11/14
f 35/19/35 36/18/36 37/17/37
f 2/2/2 1/1/1 38/26/38
f 38/26/38 1/1/1 13/4/13
f 38/26/38 13/4/13 2/2/2
f 2/2/2 13/4/13 39/25/39
f 2/2/2 39/25/39 40/27/40
f 40/27/40 39/25/39 41/28/41
f 40/27/40 41/28/41 42/29/42
f 43/24/43 44/30/44 45/31/45
f 45/31/45 44/30/44 46/32/46
f 45/31/45 46/32/46 47/33/47
f 47/33/47 46/32/46 48/34/48
f 47/33/47 48/34/48 49/32/49
f 8/7/8 50/14/50 51/30/51
f 51/30/51 50/14/50 30/24/30
f 51/30/51 30/24/30 52/31/52
f 52/31/52 30/24/30 29/23/29
f 52/31/52 29/23/29 53/35/53
f 33/25/33 54/28/54 9/8/9
f 9/8/9 54/28/54 55/36/55
f 9/8/9 55/36/55 10/9/10
f 10/9/10 55/36/55 21/8/21
f 10/9/10 21/8/21 11/10/11
f 11/10/11 21/8/21 20/16/20
f 11/10/11 20/16/20 43/24/43
f 43/24/43 20/16/20 18/14/18
f 43/24/43 18/14/18 44/30/44
f 44/30/44 18/14/18 17/7/17
f 5/5/5 4/4/4 8/7/8
f 8/7/8 4/4/4 32/15/32
f 8/7/8 32/15/32 50/14/50
f 50/14/50 32/15/32 31/16/31
f 50/14/50 31/16/31 30/24/30
f 30/24/30 31/16/31 11/10/11
f 30/24/30 11/10/11 28/22/28
f 28/22/28 11/10/11 43/24/43
f 28/22/28 43/24/43 29/23/29
f 29/23/29 43/24/43 45/31/45
f 29/23/29 45/31/45 53/35/53
f 53/35/53 45/31/45 47/33/47
f 53/35/53 47/33/47 52/31/52
f 52/31/52 47/33/47 49/32/49
f 52/31/52 49/32/49 51/30/51
f 56/3/56 57/2/57 6/1/6
f 6/1/6 57/2/57 58/26/58
f 6/1/6 58/26/58 4/4/4
f 4/4/4 58/26/58 57/2/57
f 4/4/4 57/2/57 33/25/33
f 33/25/33 57/2/57 40/27/40
f 33/25/33 40/27/40 54/28/54
f 54/28/54 40/27/40 42/29/42
f 54/28/54 42/29/42 55/36/55
f 55/36/55 42/29/42 41/28/41
f 55/36/55 41/28/41 21/8/21
f 21/8/21 41/28/41 39/25/39
f 21/8/21 39/25/39 19/15/19
f 19/15/19 39/25/39 13/4/13
f 19/15/19 13/4/13 17/7/17
f 17/7/17 13/4/13 12/5/12
f 17/7/17 12/5/12 59/6/59
o editpl_m-0000-122
v -1.758267 51.019482 9.047342
v -2.077952 52.590748 8.959170
v -4.052954 52.487923 8.317308
v -1.178499 49.380741 9.613735
v 0.000000 50.357559 9.752718
v -2.896129 59.637333 8.643095
v 0.000000 62.905178 7.103820
v -3.717014 62.619202 6.400686
v -3.275416 50.588909 8.279947
v -2.814853 48.378216 8.152172
v 4.936152 57.812225 7.244299
v 2.684811 57.767242 8.870997
v 5.114958 56.391983 7.552901
v -2.278432 55.717209 8.578088
v -1.118897 55.177387 9.338011
v -2.473494 56.215256 9.475499
v 0.000000 56.176697 10.387108
v -2.684811 57.767242 8.870997
v 7.163109 53.779636 -2.334321
v 6.756730 55.174175 0.331015
v 7.824153 56.199192 -1.186590
v 7.824153 56.199192 -1.186590
v 6.756730 55.174175 0.331015
v 6.374734 50.248310 0.331015
v 8.590855 55.559761 -2.860364
v 8.436430 53.165913 -3.082289
v 7.209166 50.000893 -1.264301
v 4.052954 52.487923 8.317308
v 2.077952 52.590748 8.959170
v 1.758267 51.019482 9.047342
v 0.750447 52.998825 10.399064
v 0.717936 51.334377 10.924360
v 0.000000 53.246243 10.801069
v 1.178499 49.380741 9.613735
v 2.814853 48.378216 8.152172
v 3.275416 50.588909 8.279947
v 8.590855 55.559761 -2.860364
v 8.436430 53.165913 -3.082289
v 7.209166 50.000893 -1.264301
v -8.436430 53.165913 -3.082289
v -7.163109 53.779636 -2.334321
v -7.209166 50.000893 -1.264301
v 7.163109 53.779636 -2.334321
v 7.390682 58.499855 -1.950250
v 6.756730 55.174175 0.331015
v -8.590855 55.559761 -2.860364
v -7.824153 56.199192 -1.186590
v -6.756730 55.174175 0.331015
v -5.114958 56.391983 7.552901
v -4.936152 57.812225 7.244299
v -6.342223 57.654778 4.693288
v -8.436430 53.165913 -3.082289
v -7.209166 50.000893 -1.264301
v -6.374734 50.248310 0.331015
v -8.590855 55.559761 -2.860364
v -7.824153 56.199192 -1.186590
v -6.756730 55.174175 0.331015
v 4.277817 48.198277 6.720497
v 4.665232 50.084435 6.591228
v 5.559266 51.912758 6.464948
v 5.540302 50.200111 4.395894
v 6.542704 52.744980 4.451189
v 6.374734 50.248310 0.331015
v 0.000000 55.093845 9.935787
v 1.118897 55.177387 9.338011
v 2.473494 56.215256 9.475499
v 2.278432 55.717209 8.578088
v 4.451206 55.710781 7.649292
v 3.199558 54.827145 8.501124
v 0.704390 54.627926 9.559188
v 1.438582 54.251980 8.602746
v 2.199866 54.033482 8.351680
v 4.459334 54.017414 7.602965
v 6.342223 57.654778 4.693288
v 6.193218 61.047935 3.615795
v 4.757345 59.136070 7.382535
v 3.763071 62.619202 6.400686
v 2.896129 59.637333 8.643095
v 0.000000 59.942589 9.402271
v -0.750447 52.998825 10.399064
v -0.717936 51.334377 10.924360
v 0.000000 51.546452 11.351770
v -6.756730 55.174175 0.331015
v -6.374734 50.248310 0.331015
v -6.409953 52.744980 4.451189
v -5.540302 50.200111 4.395894
v -5.559266 51.912758 6.464948
v -4.665232 50.084435 6.591228
v -4.277817 48.198277 6.720497
v -0.704390 54.627926 9.559188
v -1.438582 54.251980 8.602746
v -2.199866 54.033482 8.351680
v -4.459334 54.017414 7.602965
v -5.854568 53.442249 6.217618
v -5.437353 54.929970 6.613645
v -6.260948 55.170959 4.566261
v -3.199558 54.827145 8.501124
v -4.451206 55.710781 7.649292
v -4.757345 59.136070 7.382535
v -6.193218 61.047935 3.615795
v -7.390682 58.499855 -1.950250
v 0.000000 49.306835 9.861065
v 5.735364 53.442249 6.217618
v 6.260948 55.170959 4.566261
v 5.437353 54.929970 6.613645
v 0.000000 57.809013 9.614481
v -7.163109 53.779636 -2.334321
vn -0.5576 -0.0942 0.8247
vn -0.5125 0.1971 0.8358
vn -0.5267 0.0393 0.8491
vn -0.3628 -0.2445 0.8992
vn -0.0000 -0.4315 0.9021
vn -0.3693 0.2986 0.8800
vn -0.0000 0.5886 0.8084
vn -0.5502 0.4559 0.6996
vn -0.6284 -0.1571 0.7619
vn -0.5732 -0.1728 0.8010
vn 0.7471 0.1258 0.6527
vn 0.4548 0.1882 0.8705
vn 0.7522 -0.0314 0.6582
vn -0.3855 -0.3777 0.8418
vn -0.5493 -0.3924 0.7377
vn -0.4864 -0.4001 0.7767
vn -0.0000 -0.0316 0.9995
vn -0.4548 0.1882 0.8705
vn -0.7615 0.1256 -0.6359
vn -0.8556 0.3925 -0.3375
vn -0.8031 0.4173 -0.4252
vn 0.8731 -0.0866 0.4798
vn 0.9816 -0.0314 0.1885
vn 0.9791 -0.1801 0.0940
vn -0.6279 0.2904 -0.7221
vn -0.5264 -0.0550 -0.8485
vn -0.7544 -0.1886 -0.6287
vn 0.5358 0.0473 0.8430
vn 0.5125 0.1971 0.8358
vn 0.5576 -0.0942 0.8247
vn 0.7229 0.2279 0.6523
vn 0.6496 -0.2661 0.7122
vn -0.0000 0.3700 0.9290
vn 0.3628 -0.2445 0.8992
vn 0.5733 -0.1728 0.8009
vn 0.6284 -0.1571 0.7619
vn 0.8920 -0.0947 0.4420
vn 0.8863 -0.0863 0.4549
vn 0.8792 -0.0707 0.4711
vn 0.5264 -0.0550 -0.8485
vn 0.7615 0.1256 -0.6359
vn 0.7544 -0.1886 -0.6287
vn 0.9820 -0.0550 0.1807
vn 0.9863 -0.0156 0.1644
vn 0.6279 0.2904 -0.7221
vn 0.8031 0.4173 -0.4252
vn 0.8556 0.3925 -0.3375
vn -0.7522 -0.0314 0.6582
vn -0.7471 0.1258 0.6527
vn -0.9484 0.0470 0.3135
vn -0.8863 -0.0863 0.4549
vn -0.8792 -0.0707 0.4711
vn -0.9797 -0.1724 0.1019
vn -0.8920 -0.0947 0.4420
vn -0.8731 -0.0866 0.4798
vn -0.9813 -0.0392 0.1885
vn 0.8016 -0.2515 0.5423
vn 0.8247 -0.2435 0.5105
vn 0.8262 -0.2360 0.5115
vn 0.9210 -0.2755 0.2755
vn 0.9664 -0.1021 0.2357
vn 0.9791 -0.1802 0.0940
vn -0.0000 -0.0000 1.0000
vn 0.5494 -0.3924 0.7377
vn 0.4864 -0.4001 0.7767
vn 0.3855 -0.3777 0.8418
vn 0.5356 -0.2599 0.8035
vn 0.3150 -0.0866 0.9451
vn 0.6581 0.1567 0.7364
vn 0.6364 0.0471 0.7700
vn 0.2589 0.0392 0.9651
vn 0.5886 -0.0157 0.8083
vn 0.9484 0.0470 0.3135
vn 0.9046 0.2124 0.3697
vn 0.7456 0.1727 0.6436
vn 0.5491 0.4472 0.7060
vn 0.3693 0.2986 0.8800
vn -0.0000 0.3701 0.9290
vn -0.7229 0.2279 0.6523
vn -0.6496 -0.2661 0.7122
vn -0.0000 -0.1018 0.9948
vn -0.9813 -0.0393 0.1884
vn -0.9710 -0.1253 0.2036
vn -0.9260 -0.2590 0.2747
vn -0.8353 -0.2522 0.4886
vn -0.8247 -0.2435 0.5105
vn -0.8017 -0.2515 0.5423
vn -0.6581 0.1567 0.7364
vn -0.6364 0.0471 0.7700
vn -0.2589 0.0392 0.9651
vn -0.5801 -0.0081 0.8145
vn -0.8552 0.0235 0.5178
vn -0.7873 -0.0551 0.6141
vn -0.9611 0.0158 0.2757
vn -0.3150 -0.0866 0.9451
vn -0.5356 -0.2599 0.8035
vn -0.7421 0.1737 0.6474
vn -0.9030 0.2199 0.3691
vn -0.9863 -0.0156 0.1644
vn -0.0000 -0.1809 0.9835
vn 0.8458 0.0313 0.5325
vn 0.9567 0.0235 0.2901
vn 0.7928 -0.0785 0.6044
vn -0.0000 0.2037 0.9790
vn -0.9820 -0.0550 0.1807
vt 0.390625 0.638367
vt 0.382812 0.541290
vt 0.264313 0.574219
vt 0.430786 0.745514
vt 0.492188 0.686371
vt 0.357117 0.116058
vt 0.492188 0.039062
vt 0.273438 0.040161
vt 0.319183 0.684143
vt 0.351562 0.796875
vt 0.198090 0.231995
vt 0.368652 0.221436
vt 0.193054 0.305786
vt 0.340820 0.356445
vt 0.424805 0.377930
vt 0.380188 0.326813
vt 0.492188 0.335938
vt 0.937500 0.500000
vt 0.869141 0.409180
vt 0.958984 0.310547
vt 0.847656 0.639648
vt 0.994568 0.362366
vt 0.994781 0.520813
vt 0.914062 0.640625
vt 0.453125 0.502228
vt 0.447540 0.635040
vt 0.492188 0.492188
vt 0.012665 0.367188
vt 0.012665 0.203125
vt 0.041992 0.360352
vt 0.114929 0.236603
vt 0.268951 0.796875
vt 0.209961 0.703125
vt 0.182281 0.615875
vt 0.120117 0.691406
vt 0.102844 0.519531
vt 0.025391 0.647461
vt 0.492188 0.406250
vt 0.226562 0.349609
vt 0.304688 0.410583
vt 0.454224 0.443054
vt 0.403992 0.444183
vt 0.343750 0.466797
vt 0.225250 0.467438
vt 0.120117 0.102539
vt 0.203125 0.158203
vt 0.492188 0.117188
vt 0.492188 0.617188
vt 0.149719 0.490875
vt 0.157532 0.395813
vt 0.102844 0.381500
vt 0.492188 0.745514
vt 0.492188 0.218750
s 1
usemtl m_face75
f 60/37/60 61/38/61 62/39/62
f 60/37/60 63/40/63 64/41/64
f 65/42/65 66/43/66 67/44/67
f 68/45/68 69/46/69 63/40/63
f 70/47/70 71/48/71 72/49/72
f 73/50/73 74/51/74 75/52/75
f 75/52/75 74/51/74 76/53/76
f 75/52/75 76/53/76 77/48/77
f 78/54/78 79/55/79 80/56/80
f 81/56/81 82/55/82 83/57/83
f 80/56/80 84/58/84 78/54/78
f 78/54/78 84/58/84 85/59/85
f 78/54/78 85/59/85 86/60/86
f 87/39/87 88/38/88 89/37/89
f 89/37/89 88/38/88 90/61/90
f 89/37/89 90/61/90 91/62/91
f 91/62/91 90/61/90 92/63/92
f 93/40/93 94/46/94 95/45/95
f 96/58/96 81/56/81 97/59/97
f 97/59/97 81/56/81 83/57/83
f 97/59/97 83/57/83 98/60/98
f 99/59/99 100/54/100 101/60/101
f 102/64/102 103/65/103 104/66/82
f 99/59/99 105/58/104 100/54/100
f 100/54/100 105/58/104 106/56/105
f 100/54/100 106/56/105 107/55/106
f 108/49/107 109/47/108 110/67/109
f 111/59/110 112/60/111 113/57/112
f 114/58/113 111/59/110 115/56/114
f 115/56/114 111/59/110 113/57/112
f 115/56/114 113/57/112 116/55/115
f 94/46/94 117/68/116 95/45/95
f 95/45/95 117/68/116 118/69/117
f 95/45/95 118/69/117 119/70/118
f 119/70/118 118/69/117 120/71/119
f 119/70/118 120/71/119 121/72/120
f 121/72/120 120/71/119 122/73/121
f 121/72/120 122/73/121 104/66/82
f 74/51/74 123/74/122 76/53/76
f 76/53/76 123/74/122 124/51/123
f 76/53/76 124/51/123 125/52/124
f 125/52/124 124/51/123 126/50/125
f 125/52/124 126/50/125 127/75/126
f 127/75/126 126/50/125 128/76/127
f 123/74/122 129/77/128 124/51/123
f 124/51/123 129/77/128 130/78/129
f 124/51/123 130/78/129 126/50/125
f 126/50/125 130/78/129 131/79/130
f 126/50/125 131/79/130 128/76/127
f 128/76/127 131/79/130 132/80/131
f 128/76/127 132/80/131 127/75/126
f 133/67/132 134/81/133 135/82/134
f 135/82/134 134/81/133 136/44/135
f 135/82/134 136/44/135 137/42/136
f 137/42/136 136/44/135 66/43/66
f 137/42/136 66/43/66 138/83/137
f 61/38/61 60/37/60 139/61/138
f 139/61/138 60/37/60 140/62/139
f 139/61/138 140/62/139 92/63/92
f 92/63/92 140/62/139 141/84/140
f 92/63/92 141/84/140 91/62/91
f 142/66/141 143/73/112 144/72/142
f 144/72/142 143/73/112 145/71/143
f 144/72/142 145/71/143 146/70/144
f 146/70/144 145/71/143 147/69/145
f 146/70/144 147/69/145 68/45/68
f 68/45/68 147/69/145 148/68/146
f 68/45/68 148/68/146 69/46/69
f 92/63/92 149/77/147 139/61/138
f 139/61/138 149/77/147 150/78/148
f 139/61/138 150/78/148 61/38/61
f 61/38/61 150/78/148 151/79/149
f 61/38/61 151/79/149 62/39/62
f 62/39/62 151/79/149 152/80/150
f 62/39/62 152/80/150 153/85/151
f 153/85/151 152/80/150 154/86/152
f 153/85/151 154/86/152 155/87/153
f 156/76/154 73/50/73 157/75/155
f 157/75/155 73/50/73 75/52/75
f 157/75/155 75/52/75 108/49/107
f 108/49/107 75/52/75 77/48/77
f 108/49/107 77/48/77 109/47/108
f 109/47/108 77/48/77 158/82/156
f 109/47/108 158/82/156 110/67/109
f 110/67/109 158/82/156 159/81/157
f 110/67/109 159/81/157 160/65/158
f 63/40/63 60/37/60 68/45/68
f 68/45/68 60/37/60 62/39/62
f 68/45/68 62/39/62 146/70/144
f 146/70/144 62/39/62 153/85/151
f 146/70/144 153/85/151 144/72/142
f 144/72/142 153/85/151 155/87/153
f 144/72/142 155/87/153 142/66/141
f 63/40/63 161/88/159 64/41/64
f 64/41/64 161/88/159 93/40/93
f 64/41/64 93/40/93 89/37/89
f 89/37/89 93/40/93 95/45/95
f 89/37/89 95/45/95 87/39/87
f 87/39/87 95/45/95 119/70/118
f 87/39/87 119/70/118 162/85/160
f 162/85/160 119/70/118 121/72/120
f 162/85/160 121/72/120 163/87/161
f 163/87/161 121/72/120 104/66/82
f 163/87/161 104/66/82 133/67/132
f 133/67/132 104/66/82 103/65/103
f 133/67/132 103/65/103 134/81/133
f 132/80/131 164/86/162 127/75/126
f 127/75/126 164/86/162 72/49/72
f 127/75/126 72/49/72 125/52/124
f 125/52/124 72/49/72 71/48/71
f 125/52/124 71/48/71 76/53/76
f 76/53/76 71/48/71 165/89/163
f 76/53/76 165/89/163 77/48/77
f 77/48/77 165/89/163 65/42/65
f 77/48/77 65/42/65 158/82/156
f 158/82/156 65/42/65 67/44/67
f 158/82/156 67/44/67 159/81/157
f 66/43/66 65/42/65 138/83/137
f 138/83/137 65/42/65 165/89/163
f 138/83/137 165/89/163 137/42/136
f 137/42/136 165/89/163 71/48/71
f 137/42/136 71/48/71 135/82/134
f 135/82/134 71/48/71 70/47/70
f 135/82/134 70/47/70 133/67/132
f 133/67/132 70/47/70 72/49/72
f 133/67/132 72/49/72 163/87/161
f 163/87/161 72/49/72 164/86/162
f 163/87/161 164/86/162 162/85/160
f 162/85/160 164/86/162 132/80/131
f 162/85/160 132/80/131 87/39/87
f 87/39/87 132/80/131 131/79/130
f 87/39/87 131/79/130 88/38/88
f 88/38/88 131/79/130 130/78/129
f 88/38/88 130/78/129 90/61/90
f 90/61/90 130/78/129 129/77/128
f 90/61/90 129/77/128 92/63/92
f 92/63/92 129/77/128 123/74/122
f 92/63/92 123/74/122 149/77/147
f 149/77/147 123/74/122 74/51/74
f 149/77/147 74/51/74 150/78/148
f 150/78/148 74/51/74 73/50/73
f 150/78/148 73/50/73 151/79/149
f 151/79/149 73/50/73 156/76/154
f 151/79/149 156/76/154 152/80/150
f 152/80/150 156/76/154 157/75/155
f 152/80/150 157/75/155 154/86/152
f 154/86/152 157/75/155 108/49/107
f 154/86/152 108/49/107 155/87/153
f 155/87/153 108/49/107 110/67/109
f 155/87/153 110/67/109 142/66/141
f 142/66/141 110/67/109 160/65/158
f 142/66/141 160/65/158 166/64/164
