mtllib face_25.mtl
o editpl_m-0000-162
v 6.605015 52.886360 4.122412
v 5.919589 50.106930 3.996131
v 6.285330 50.248310 0.331015
v 7.824153 56.199192 -1.186590
v 7.163109 53.779636 -2.334321
v 6.756730 55.174175 0.331015
v -5.001172 50.219391 6.545648
v -5.494246 52.362610 6.716014
v -5.919589 50.106930 3.996131
v -4.039408 52.648582 8.164127
v -4.773600 53.789276 7.444554
v 0.690844 53.146633 10.239906
v 0.853396 54.441559 9.655581
v 0.000000 54.917118 9.967918
v 0.000000 62.905178 7.103820
v 2.717322 60.061478 8.886689
v 3.717014 62.619202 6.400686
v 7.824153 56.199192 -1.186590
v 6.756730 55.174175 0.331015
v 6.285330 50.248310 0.331015
v 5.494246 52.362610 6.716014
v 5.697435 53.933872 6.568812
v 4.773600 53.789276 7.444554
v 8.590855 55.559761 -2.860364
v 0.000000 53.329788 10.573166
v 0.891325 51.196209 10.637427
v 1.750139 51.305458 8.623668
v 7.390682 58.499855 -1.933811
v 6.193218 61.047935 3.615795
v 6.518321 58.175320 4.236736
v 5.063484 59.524872 7.294363
v 5.377750 56.626549 7.659754
v 8.436430 53.165913 -3.082289
v 7.184783 50.257950 -1.264301
v 6.285330 50.248310 0.331015
v 8.590855 55.559761 -2.860364
v 8.436430 53.165913 -3.082289
v 7.184783 50.257950 -1.264301
v -8.590855 55.559761 -2.860364
v -7.824153 56.199192 -1.186590
v -7.163109 53.779636 -2.334321
v -6.756730 55.174175 0.331015
v -3.467768 50.678883 8.140965
v -1.750139 51.305458 8.623668
v -0.891325 51.196209 10.637427
v 0.000000 50.752785 10.735313
v 0.000000 51.257259 11.175426
v -8.436430 53.165913 -3.082289
v -7.184783 50.257950 -1.264301
v -6.285330 50.248310 0.331015
v -2.178192 54.030270 8.424160
v -2.010222 52.793179 8.792541
v -1.484638 54.226276 8.695401
v -0.690844 53.146633 10.239906
v -0.853396 54.441559 9.655581
v -6.605015 52.886360 4.122412
v -5.697435 53.933872 6.568812
v -6.537285 55.248077 4.830777
v -5.710981 55.093845 6.396951
v -5.377750 56.626549 7.659754
v -6.285330 50.248310 0.331015
v -7.184783 50.257950 -1.264301
v -8.436430 53.165913 -3.082289
v -8.590855 55.559761 -2.860364
v -7.824153 56.199192 -1.186590
v -6.756730 55.174175 0.331015
v 6.756730 55.174175 0.331015
v 6.537285 55.248077 4.830777
v 5.710981 55.093845 6.396951
v 7.163109 53.779636 -2.334321
v 4.762763 55.646519 7.734476
v 3.310635 55.077778 8.734257
v -2.717322 60.061478 8.886689
v -5.063484 59.502380 7.294363
v -6.518321 58.175320 4.236736
v -6.756730 55.174175 0.331015
v -6.285330 50.248310 0.331015
v -3.310635 55.077778 8.734257
v -2.300106 55.633663 8.789551
v -1.248938 55.248077 9.500158
v 6.193218 61.047935 3.615795
v 2.470785 55.990334 9.516597
v 2.300106 55.633663 8.789551
v 2.178192 54.030270 8.424160
v 4.039408 52.648582 8.164127
v 5.001172 50.219391 6.545648
v -4.762763 55.646519 7.734476
v -2.470785 55.990334 9.516597
v 0.000000 56.022465 10.152481
v 0.000000 60.122532 9.503146
v -7.163109 53.779636 -2.334321
v -7.390682 58.499855 -1.933811
v -6.193218 61.047935 3.615795
v -3.717014 62.619202 6.400686
v 1.248938 55.248077 9.500158
v 1.484638 54.226276 8.695401
v 2.010222 52.793179 8.792541
v 3.467768 50.678883 8.140965
vn 0.9719 -0.1176 0.2038
vn 0.9252 -0.2979 0.2352
vn 0.9776 -0.2033 0.0547
vn -0.8031 0.4173 -0.4252
vn -0.7550 0.1180 -0.6450
vn -0.8556 0.3925 -0.3375
vn -0.7540 -0.2906 0.5891
vn -0.8246 -0.1335 0.5497
vn -0.9252 -0.2979 0.2352
vn -0.4816 -0.0079 0.8764
vn -0.6143 -0.0473 0.7876
vn 0.6864 0.1893 0.7022
vn 0.6449 0.0472 0.7628
vn -0.0000 0.1337 0.9910
vn -0.0000 0.6540 0.7565
vn 0.3765 0.3373 0.8628
vn 0.5358 0.5437 0.6461
vn 0.8725 -0.0943 0.4795
vn 0.9865 -0.0470 0.1566
vn 0.9776 -0.2033 0.0548
vn 0.8246 -0.1335 0.5497
vn 0.8368 -0.0000 0.5475
vn 0.6143 -0.0473 0.7876
vn -0.6279 0.2904 -0.7221
vn -0.0000 0.2902 0.9570
vn 0.6691 -0.3542 0.6534
vn 0.5401 -0.1409 0.8297
vn 0.9888 -0.0000 0.1491
vn 0.9111 0.2670 0.3141
vn 0.9685 0.0787 0.2362
vn 0.7840 0.2901 0.5488
vn 0.7699 -0.0471 0.6364
vn -0.5261 -0.0628 -0.8481
vn -0.7353 -0.1977 -0.6483
vn -0.8615 -0.1488 -0.4855
vn 0.8920 -0.0947 0.4420
vn 0.8814 -0.0866 0.4643
vn 0.8713 -0.0628 0.4867
vn 0.6279 0.2904 -0.7221
vn 0.8031 0.4173 -0.4252
vn 0.7551 0.1180 -0.6450
vn 0.8556 0.3925 -0.3375
vn -0.4247 -0.2673 0.8650
vn -0.5401 -0.1409 0.8297
vn -0.6691 -0.3542 0.6534
vn -0.0000 -0.8554 0.5180
vn -0.0000 -0.2352 0.9720
vn -0.8814 -0.0866 0.4643
vn -0.8713 -0.0628 0.4867
vn -0.9776 -0.2033 0.0548
vn -0.2756 -0.0315 0.9607
vn -0.5103 0.0784 0.8564
vn -0.6580 -0.0392 0.7520
vn -0.6864 0.1893 0.7022
vn -0.6449 0.0472 0.7628
vn -0.9719 -0.1176 0.2038
vn -0.8368 -0.0000 0.5475
vn -0.9568 -0.0157 0.2902
vn -0.8021 -0.0944 0.5898
vn -0.7699 -0.0471 0.6364
vn 0.8615 -0.1488 -0.4855
vn 0.7353 -0.1976 -0.6483
vn 0.5261 -0.0628 -0.8481
vn -0.8920 -0.0947 0.4420
vn -0.8725 -0.0943 0.4795
vn -0.9865 -0.0470 0.1566
vn 0.9568 -0.0157 0.2902
vn 0.8021 -0.0944 0.5897
vn 0.9815 -0.0628 0.1807
vn 0.5992 -0.2365 0.7648
vn 0.3150 -0.0866 0.9451
vn -0.3765 0.3373 0.8628
vn -0.7840 0.2901 0.5488
vn -0.9685 0.0787 0.2362
vn -0.9776 -0.2033 0.0547
vn -0.3150 -0.0866 0.9451
vn -0.3778 -0.4172 0.8265
vn -0.5116 -0.3621 0.7792
vn 0.9110 0.2671 0.3142
vn 0.4252 -0.4173 0.8032
vn 0.3779 -0.4172 0.8265
vn 0.2756 -0.0315 0.9607
vn 0.4816 -0.0079 0.8764
vn 0.7540 -0.2906 0.5891
vn -0.5992 -0.2365 0.7648
vn -0.4252 -0.4173 0.8032
vn -0.0000 -0.0628 0.9980
vn -0.0000 0.4156 0.9096
vn -0.9815 -0.0628 0.1807
vn -0.9888 -0.0000 0.1491
vn -0.9110 0.2670 0.3142
vn -0.5357 0.5437 0.6461
vn 0.5116 -0.3621 0.7792
vn 0.6580 -0.0392 0.7520
vn 0.5106 0.0785 0.8562
vn 0.4247 -0.2673 0.8650
vt 0.085938 0.554688
vt 0.117188 0.687500
vt 0.039062 0.695312
vt 0.953125 0.328125
vt 0.968750 0.476562
vt 0.882812 0.414062
vt 0.226562 0.671875
vt 0.179688 0.617188
vt 0.308014 0.532349
vt 0.210938 0.486969
vt 0.458313 0.508667
vt 0.453125 0.414062
vt 0.492188 0.382812
vt 0.492188 0.039062
vt 0.351562 0.148438
vt 0.301331 0.050201
vt 0.855469 0.645813
vt 0.147308 0.525665
vt 0.992188 0.343750
vt 0.492188 0.468750
vt 0.451385 0.628448
vt 0.390625 0.637146
vt 0.070312 0.164062
vt 0.135590 0.079224
vt 0.117950 0.229675
vt 0.239563 0.160156
vt 0.193573 0.293396
vt 0.992188 0.515625
vt 0.903625 0.643219
vt 0.318573 0.664886
vt 0.492188 0.648438
vt 0.492188 0.617188
vt 0.345459 0.480896
vt 0.379333 0.538177
vt 0.397552 0.460938
vt 0.124207 0.392181
vt 0.163269 0.395294
vt 0.055450 0.364838
vt 0.007812 0.343750
vt 0.211700 0.363281
vt 0.298584 0.398438
vt 0.348633 0.375977
vt 0.427063 0.380188
vt 0.135986 0.078979
vt 0.359375 0.325500
vt 0.492188 0.328125
vt 0.492188 0.125000
s 1
usemtl m_face95
f 1/1/1 2/2/2 3/3/3
f 4/4/4 5/5/5 6/6/6
f 7/7/7 8/8/8 9/2/9
f 8/8/8 10/9/10 11/10/11
f 12/11/12 13/12/13 14/13/14
f 15/14/15 16/15/16 17/16/17
f 18/4/18 19/6/19 20/17/20
f 2/2/2 1/1/1 21/8/21
f 21/8/21 1/1/1 22/18/22
f 21/8/21 22/18/22 23/10/23
f 5/5/5 4/4/4 24/19/24
f 14/13/14 25/20/25 12/11/12
f 12/11/12 25/20/25 26/21/26
f 12/11/12 26/21/26 27/22/27
f 28/23/28 29/24/29 30/25/30
f 30/25/30 29/24/29 31/26/31
f 30/25/30 31/26/31 32/27/32
f 24/19/24 33/28/33 5/5/5
f 5/5/5 33/28/33 34/29/34
f 5/5/5 34/29/34 35/17/35
f 36/19/36 18/4/18 37/28/37
f 37/28/37 18/4/18 20/17/20
f 37/28/37 20/17/20 38/29/38
f 39/19/39 40/4/40 41/5/41
f 41/5/41 40/4/40 42/6/42
f 8/8/8 7/7/7 10/9/10
f 10/9/10 7/7/7 43/30/43
f 10/9/10 43/30/43 44/22/44
f 45/21/45 46/31/46 47/32/47
f 48/28/48 49/29/49 50/17/50
f 51/33/51 52/34/52 53/35/53
f 53/35/53 52/34/52 54/11/54
f 53/35/53 54/11/54 55/12/55
f 56/1/56 57/18/57 58/36/58
f 58/36/58 57/18/57 59/37/59
f 58/36/58 59/37/59 60/27/60
f 61/17/61 62/29/62 41/5/41
f 41/5/41 62/29/62 63/28/63
f 41/5/41 63/28/63 39/19/39
f 64/19/64 48/28/48 65/4/65
f 65/4/65 48/28/48 50/17/50
f 65/4/65 50/17/50 66/6/66
f 3/3/3 67/38/19 1/1/1
f 1/1/1 67/38/19 68/36/67
f 1/1/1 68/36/67 22/18/22
f 22/18/22 68/36/67 69/37/68
f 22/18/22 69/37/68 23/10/23
f 70/39/69 28/23/28 67/38/19
f 67/38/19 28/23/28 30/25/30
f 67/38/19 30/25/30 68/36/67
f 68/36/67 30/25/30 32/27/32
f 68/36/67 32/27/32 69/37/68
f 69/37/68 32/27/32 71/40/70
f 69/37/68 71/40/70 23/10/23
f 23/10/23 71/40/70 72/41/71
f 73/15/72 74/26/73 60/27/60
f 60/27/60 74/26/73 75/25/74
f 60/27/60 75/25/74 58/36/58
f 58/36/58 75/25/74 76/38/66
f 58/36/58 76/38/66 56/1/56
f 56/1/56 76/38/66 77/3/75
f 78/41/76 51/33/51 79/42/77
f 79/42/77 51/33/51 53/35/53
f 79/42/77 53/35/53 80/43/78
f 80/43/78 53/35/53 55/12/55
f 80/43/78 55/12/55 14/13/14
f 14/13/14 55/12/55 54/11/54
f 14/13/14 54/11/54 25/20/25
f 81/44/79 17/16/17 31/26/31
f 31/26/31 17/16/17 16/15/16
f 31/26/31 16/15/16 32/27/32
f 32/27/32 16/15/16 82/45/80
f 32/27/32 82/45/80 71/40/70
f 71/40/70 82/45/80 83/42/81
f 71/40/70 83/42/81 72/41/71
f 72/41/71 83/42/81 84/33/82
f 72/41/71 84/33/82 23/10/23
f 23/10/23 84/33/82 85/9/83
f 23/10/23 85/9/83 21/8/21
f 21/8/21 85/9/83 86/7/84
f 21/8/21 86/7/84 2/2/2
f 77/3/75 9/2/9 56/1/56
f 56/1/56 9/2/9 8/8/8
f 56/1/56 8/8/8 57/18/57
f 57/18/57 8/8/8 11/10/11
f 57/18/57 11/10/11 59/37/59
f 59/37/59 11/10/11 87/40/85
f 59/37/59 87/40/85 60/27/60
f 60/27/60 87/40/85 88/45/86
f 60/27/60 88/45/86 73/15/72
f 73/15/72 88/45/86 89/46/87
f 73/15/72 89/46/87 90/47/88
f 91/39/89 76/38/66 92/23/90
f 92/23/90 76/38/66 75/25/74
f 92/23/90 75/25/74 93/24/91
f 93/24/91 75/25/74 74/26/73
f 93/24/91 74/26/73 94/16/92
f 94/16/92 74/26/73 73/15/72
f 94/16/92 73/15/72 15/14/15
f 15/14/15 73/15/72 90/47/88
f 15/14/15 90/47/88 16/15/16
f 16/15/16 90/47/88 89/46/87
f 16/15/16 89/46/87 82/45/80
f 82/45/80 89/46/87 95/43/93
f 82/45/80 95/43/93 83/42/81
f 83/42/81 95/43/93 96/35/94
f 83/42/81 96/35/94 84/33/82
f 84/33/82 96/35/94 97/34/95
f 84/33/82 97/34/95 85/9/83
f 46/31/46 26/21/26 47/32/47
f 47/32/47 26/21/26 25/20/25
f 47/32/47 25/20/25 45/21/45
f 45/21/45 25/20/25 54/11/54
f 45/21/45 54/11/54 44/22/44
f 44/22/44 54/11/54 52/34/52
f 44/22/44 52/34/52 10/9/10
f 10/9/10 52/34/52 51/33/51
f 10/9/10 51/33/51 11/10/11
f 11/10/11 51/33/51 78/41/76
f 11/10/11 78/41/76 87/40/85
f 87/40/85 78/41/76 79/42/77
f 87/40/85 79/42/77 88/45/86
f 88/45/86 79/42/77 80/43/78
f 88/45/86 80/43/78 89/46/87
f 89/46/87 80/43/78 14/13/14
f 89/46/87 14/13/14 95/43/93
f 95/43/93 14/13/14 13/12/13
f 95/43/93 13/12/13 96/35/94
f 96/35/94 13/12/13 12/11/12
f 96/35/94 12/11/12 97/34/95
f 97/34/95 12/11/12 27/22/27
f 97/34/95 27/22/27 85/9/83
f 85/9/83 27/22/27 98/30/96
f 85/9/83 98/30/96 86/7/84
o editpl_m-0000-161
v 4.453915 48.326805 5.987474
v 3.367528 48.612782 7.255507
v 2.256759 46.935482 7.372075
v 3.223941 46.263920 6.058461
v 0.000000 50.415398 9.248344
v 0.891325 51.196209 10.637427
v 0.000000 50.752785 10.735313
v -2.256759 46.935482 7.372075
v -3.367528 48.612782 7.255507
v -4.453915 48.326805 5.987474
v 2.690230 48.892330 7.676192
v 3.467768 50.678883 8.140965
v 1.750139 51.305458 8.623668
v 5.001172 50.219391 6.545648
v 5.919589 50.106930 3.996131
v 5.613450 47.751640 0.436373
v 6.285330 50.248310 0.331015
v 4.277817 46.405300 0.283193
v 7.163109 53.779636 -2.334321
v 1.731175 44.679802 6.135425
v 0.000000 44.358482 7.141931
v 0.000000 44.220310 5.761066
v 0.000000 45.258183 7.903347
v 1.717629 45.328873 7.428863
v 0.000000 44.303856 3.771219
v 3.538208 45.826923 3.898993
v 5.079739 47.979778 3.721901
v -7.163109 53.779636 -2.334321
v -4.277817 46.405300 0.283193
v -6.285330 50.248310 0.331015
v -5.613450 47.751640 0.436373
v -5.919589 50.106930 3.996131
v -3.223941 46.263920 6.058461
v -5.079739 47.979778 3.721901
v -3.538208 45.826923 3.898993
v -1.002402 48.908398 8.545958
v -1.219137 49.541401 9.436645
v -2.690230 48.892330 7.676192
v 0.000000 49.480350 9.678743
v 0.000000 48.799149 9.157184
v 0.000000 48.686687 8.664019
v -0.891325 51.196209 10.637427
v -1.750139 51.305458 8.623668
v 0.000000 47.462448 8.927040
v 0.000000 46.829445 7.966115
v 1.267903 48.018337 8.839615
v -1.717629 45.328873 7.428863
v -1.731175 44.679802 6.135425
v 1.219137 49.541401 9.436645
v 1.002402 48.908398 8.545958
v 0.000000 48.079388 9.098900
v -1.267903 48.018337 8.839615
v -3.467768 50.678883 8.140965
v -5.001172 50.219391 6.545648
vn 0.7706 -0.4010 0.4954
vn 0.5580 -0.3458 0.7544
vn 0.5433 -0.3307 0.7717
vn 0.7594 -0.5011 0.4149
vn -0.0000 -0.3930 0.9196
vn 0.6691 -0.3542 0.6534
vn -0.0000 -0.8554 0.5179
vn -0.5433 -0.3307 0.7717
vn -0.5580 -0.3458 0.7544
vn -0.7706 -0.4010 0.4954
vn 0.4955 -0.2438 0.8337
vn 0.4246 -0.2674 0.8650
vn 0.5401 -0.1409 0.8297
vn 0.7540 -0.2906 0.5891
vn 0.9251 -0.2980 0.2352
vn 0.8684 -0.4816 -0.1184
vn 0.9776 -0.2033 0.0547
vn 0.6505 -0.6506 -0.3919
vn 0.8474 -0.4394 -0.2982
vn 0.4697 -0.8688 0.1566
vn -0.0000 -0.8864 0.4629
vn -0.0000 -0.9997 0.0236
vn -0.0000 -0.3605 0.9327
vn 0.4795 -0.4480 0.7546
vn -0.0000 -0.9963 -0.0863
vn 0.6603 -0.7468 0.0786
vn 0.8495 -0.4719 0.2360
vn -0.8474 -0.4394 -0.2982
vn -0.6505 -0.6506 -0.3919
vn -0.9776 -0.2033 0.0547
vn -0.8684 -0.4816 -0.1184
vn -0.9251 -0.2980 0.2352
vn -0.7594 -0.5011 0.4149
vn -0.8495 -0.4719 0.2360
vn -0.6603 -0.7468 0.0786
vn -0.3446 -0.2898 0.8929
vn -0.3912 -0.2816 0.8762
vn -0.4955 -0.2438 0.8337
vn -0.0000 -0.1018 0.9948
vn -0.0000 -0.8497 0.5272
vn -0.0000 -0.3373 0.9414
vn -0.6690 -0.3542 0.6534
vn -0.5401 -0.1409 0.8297
vn -0.0000 -0.5798 0.8148
vn -0.0000 -0.4535 0.8913
vn 0.4084 -0.2435 0.8797
vn -0.4795 -0.4480 0.7546
vn -0.4696 -0.8689 0.1565
vn 0.3911 -0.2816 0.8762
vn 0.3446 -0.2898 0.8929
vn -0.0000 0.2425 0.9701
vn -0.4084 -0.2435 0.8797
vn -0.4246 -0.2674 0.8650
vn -0.7540 -0.2906 0.5891
vt 0.234375 0.823425
vt 0.306335 0.798248
vt 0.398438 0.890625
vt 0.281250 0.914062
vt 0.492188 0.687500
vt 0.451385 0.628448
vt 0.492188 0.648438
vt 0.351562 0.789062
vt 0.318573 0.664886
vt 0.390625 0.637146
vt 0.226562 0.671875
vt 0.117188 0.687500
vt 0.070312 0.828125
vt 0.039062 0.695312
vt 0.007812 0.992188
vt 0.007812 0.343750
vt 0.390625 0.960938
vt 0.492188 0.976562
vt 0.492188 0.984375
vt 0.492188 0.953125
vt 0.390625 0.929688
vt 0.492188 0.992188
vt 0.146851 0.937500
vt 0.167175 0.837494
vt 0.429688 0.789062
vt 0.437500 0.753235
vt 0.492188 0.750000
vt 0.492188 0.781250
vt 0.492188 0.796875
vt 0.492188 0.859375
vt 0.492188 0.890625
vt 0.437500 0.835938
vt 0.492188 0.831238
s 1
usemtl m_face95
f 99/48/97 100/49/98 101/50/99
f 101/50/99 102/51/100 99/48/97
f 103/52/101 104/53/102 105/54/103
f 106/50/104 107/49/105 108/48/106
f 109/55/107 110/56/108 111/57/109
f 100/49/98 99/48/97 112/58/110
f 113/59/111 114/60/112 115/61/113
f 115/61/113 114/60/112 116/62/114
f 115/61/113 116/62/114 117/63/115
f 118/64/116 119/65/117 120/66/118
f 121/67/119 119/65/117 122/68/120
f 122/68/120 119/65/117 118/64/116
f 122/68/120 118/64/116 102/51/100
f 123/69/121 116/62/114 124/70/122
f 124/70/122 116/62/114 114/60/112
f 124/70/122 114/60/112 125/71/123
f 125/71/123 114/60/112 113/59/111
f 126/63/124 127/62/125 128/61/126
f 128/61/126 127/62/125 129/60/127
f 128/61/126 129/60/127 130/59/128
f 106/50/104 108/48/106 131/51/129
f 131/51/129 108/48/106 132/71/130
f 131/51/129 132/71/130 133/70/131
f 134/72/132 135/73/133 136/55/134
f 137/74/135 135/73/133 138/75/136
f 138/75/136 135/73/133 134/72/132
f 138/75/136 134/72/132 139/76/137
f 105/54/103 140/53/138 103/52/101
f 103/52/101 140/53/138 141/57/139
f 142/77/140 143/78/141 144/79/142
f 144/79/142 143/78/141 101/50/99
f 144/79/142 101/50/99 109/55/107
f 109/55/107 101/50/99 100/49/98
f 109/55/107 100/49/98 110/56/108
f 110/56/108 100/49/98 112/58/110
f 102/51/100 101/50/99 122/68/120
f 122/68/120 101/50/99 143/78/141
f 122/68/120 143/78/141 121/67/119
f 121/67/119 143/78/141 145/68/143
f 121/67/119 145/68/143 119/65/117
f 119/65/117 145/68/143 146/64/144
f 119/65/117 146/64/144 120/66/118
f 120/66/118 146/64/144 123/69/121
f 120/66/118 123/69/121 118/64/116
f 118/64/116 123/69/121 124/70/122
f 118/64/116 124/70/122 102/51/100
f 102/51/100 124/70/122 125/71/123
f 102/51/100 125/71/123 99/48/97
f 99/48/97 125/71/123 113/59/111
f 99/48/97 113/59/111 112/58/110
f 104/53/102 103/52/101 111/57/109
f 111/57/109 103/52/101 147/73/145
f 111/57/109 147/73/145 109/55/107
f 109/55/107 147/73/145 148/72/146
f 109/55/107 148/72/146 144/79/142
f 144/79/142 148/72/146 149/80/147
f 144/79/142 149/80/147 142/77/140
f 142/77/140 149/80/147 150/79/148
f 142/77/140 150/79/148 143/78/141
f 143/78/141 150/79/148 106/50/104
f 143/78/141 106/50/104 145/68/143
f 145/68/143 106/50/104 131/51/129
f 145/68/143 131/51/129 146/64/144
f 146/64/144 131/51/129 133/70/131
f 146/64/144 133/70/131 123/69/121
f 107/49/105 106/50/104 136/55/134
f 136/55/134 106/50/104 150/79/148
f 136/55/134 150/79/148 134/72/132
f 134/72/132 150/79/148 149/80/147
f 134/72/132 149/80/147 139/76/137
f 139/76/137 149/80/147 148/72/146
f 139/76/137 148/72/146 138/75/136
f 138/75/136 148/72/146 147/73/145
f 138/75/136 147/73/145 137/74/135
f 137/74/135 147/73/145 103/52/101
f 137/74/135 103/52/101 135/73/133
f 135/73/133 103/52/101 141/57/139
f 135/73/133 141/57/139 136/55/134
f 136/55/134 141/57/139 151/56/149
f 136/55/134 151/56/149 107/49/105
f 107/49/105 151/56/149 152/58/150
f 107/49/105 152/58/150 108/48/106
f 108/48/106 152/58/150 130/59/128
f 108/48/106 130/59/128 132/71/130
f 132/71/130 130/59/128 129/60/127
f 132/71/130 129/60/127 133/70/131
f 133/70/131 129/60/127 127/62/125
f 133/70/131 127/62/125 123/69/121
