mtllib face_13.mtl
o editpl_m-0000-139
v -1.267903 48.815216 9.435149
v -2.519551 48.477825 8.525035
v -1.292286 47.928368 9.505388
v 6.198636 48.092239 0.915341
v 7.163109 53.779636 -2.317882
v 6.493938 50.248310 0.347454
v 2.608954 46.183590 7.809199
v 1.785359 45.277462 8.550440
v 2.999078 45.695179 6.999212
v 1.953329 46.668785 8.357657
v 0.000000 46.861580 9.070506
v 0.000000 45.977943 9.228169
v 3.887694 47.504223 7.395237
v 2.519551 48.477825 8.525035
v 2.793179 44.772987 6.341658
v 1.769104 44.364906 7.795749
v 0.000000 44.303856 3.787658
v 0.000000 44.265297 8.006464
v 4.586666 46.816593 5.019824
v 5.559266 48.313953 4.162762
v 5.857278 47.311428 1.732053
v -2.999078 45.695179 6.999212
v -2.608954 46.183590 7.809199
v -3.887694 47.504223 7.395237
v 0.000000 48.037617 9.838649
v 0.000000 48.818428 9.583846
v -1.538822 49.322903 9.663053
v 0.000000 48.972664 9.895437
v 0.000000 49.310051 10.168173
v -6.493938 50.248310 0.347454
v -7.163109 53.779636 -2.317882
v -6.198636 48.092239 0.915341
v -4.280527 46.405300 0.298884
v -3.809127 45.653408 4.596898
v -5.857278 47.311428 1.732053
v 0.000000 45.200344 9.095911
v 3.809127 45.653408 4.596898
v 4.280527 46.405300 0.298884
v 0.000000 50.473236 9.952227
v 1.538822 49.322903 9.663053
v 2.137554 51.099812 9.077978
v 3.660121 50.312576 8.161886
v 5.017427 50.013744 6.690609
v 5.971064 50.029812 3.879565
v -2.793179 44.772987 6.341658
v -1.769104 44.364906 7.795749
v -1.785359 45.277462 8.550440
v -1.953329 46.668785 8.357657
v 0.000000 47.806263 9.687710
v 1.292286 47.928368 9.505388
v 1.267903 48.815216 9.435149
v -4.586666 46.816593 5.019824
v -5.559266 48.313953 4.162762
v -5.971064 50.029812 3.879565
v -3.660121 50.312576 8.161886
v -2.137554 51.099812 9.077978
v -5.017427 50.013744 6.690609
vn -0.3133 -0.3994 0.8616
vn -0.5752 -0.1891 0.7958
vn -0.3604 -0.1724 0.9167
vn 0.9480 -0.3134 -0.0549
vn -0.2277 -0.0158 -0.9736
vn 0.9602 -0.1495 0.2361
vn 0.6741 -0.2430 0.6976
vn 0.5108 -0.3301 0.7938
vn 0.7839 -0.4468 0.4312
vn 0.4620 -0.2114 0.8613
vn -0.0000 -0.2037 0.9790
vn -0.0000 0.0236 0.9997
vn 0.7149 -0.3064 0.6285
vn 0.5752 -0.1891 0.7958
vn 0.6338 -0.7668 0.1017
vn 0.4572 -0.8120 0.3627
vn -0.0000 -0.9931 -0.1173
vn -0.0000 -0.8644 0.5029
vn 0.8195 -0.4886 0.2995
vn 0.9188 -0.2670 0.2906
vn 0.8173 -0.5736 0.0550
vn -0.7839 -0.4468 0.4312
vn -0.6741 -0.2430 0.6976
vn -0.7149 -0.3064 0.6285
vn -0.0000 -0.1337 0.9910
vn -0.0000 -0.2111 0.9775
vn -0.4092 -0.2361 0.8814
vn -0.0000 -0.6992 0.7149
vn -0.0000 -0.2518 0.9678
vn -0.9602 -0.1495 0.2361
vn 0.2277 -0.0157 -0.9736
vn -0.9480 -0.3134 -0.0549
vn -0.5812 -0.7539 -0.3063
vn -0.6530 -0.7553 0.0551
vn -0.8173 -0.5736 0.0550
vn -0.0000 -0.4936 0.8697
vn 0.6530 -0.7553 0.0551
vn 0.5812 -0.7539 -0.3063
vn -0.0000 -0.4567 0.8896
vn 0.4092 -0.2361 0.8814
vn 0.6198 -0.0157 0.7846
vn 0.5276 -0.1575 0.8348
vn 0.8205 -0.2525 0.5128
vn 0.9519 -0.2045 0.2281
vn -0.6338 -0.7668 0.1017
vn -0.4572 -0.8120 0.3627
vn -0.5108 -0.3301 0.7938
vn -0.4620 -0.2114 0.8613
vn -0.0000 -0.5745 0.8185
vn 0.3604 -0.1724 0.9167
vn 0.3133 -0.3994 0.8616
vn -0.8195 -0.4886 0.2995
vn -0.9188 -0.2670 0.2906
vn -0.9519 -0.2045 0.2281
vn -0.5276 -0.1575 0.8348
vn -0.6198 -0.0157 0.7846
vn -0.8205 -0.2525 0.5128
vt 0.581848 0.780212
vt 0.642120 0.780182
vt 0.584595 0.833038
vt 0.974945 0.893311
vt 0.987457 0.531281
vt 0.987457 0.682861
vt 0.669006 0.909637
vt 0.620026 0.950134
vt 0.719971 0.933960
vt 0.620972 0.873474
vt 0.499969 0.873077
vt 0.499969 0.913635
vt 0.747009 0.823883
vt 0.723877 0.967346
vt 0.615051 0.970856
vt 0.500000 0.988190
vt 0.499969 0.970856
vt 0.797272 0.926727
vt 0.870453 0.855835
vt 0.928070 0.970734
vt 0.499969 0.832886
vt 0.499969 0.780182
vt 0.585663 0.739136
vt 0.499969 0.762726
vt 0.499969 0.744568
vt 0.987457 0.987610
vt 0.788849 0.980988
vt 0.499969 0.948395
vt 0.499969 0.673584
vt 0.608246 0.642059
vt 0.712524 0.696472
vt 0.836273 0.711121
vt 0.935028 0.700134
vt 0.499969 0.840820
s 1
usemtl m_face84
f 1/1/1 2/2/2 3/3/3
f 4/4/4 5/5/5 6/6/6
f 7/7/7 8/8/8 9/9/9
f 10/10/10 11/11/11 12/12/12
f 10/10/10 13/13/13 14/2/14
f 15/14/15 16/15/16 17/16/17
f 17/16/17 16/15/16 18/17/18
f 13/13/13 19/18/19 20/19/20
f 20/19/20 19/18/19 21/20/21
f 20/19/20 21/20/21 4/4/4
f 22/9/22 23/7/23 24/13/24
f 25/21/25 26/22/26 3/3/3
f 3/3/3 26/22/26 1/1/1
f 2/2/2 1/1/1 27/23/27
f 27/23/27 1/1/1 28/24/28
f 27/23/27 28/24/28 29/25/29
f 30/6/30 31/5/31 32/4/32
f 32/4/32 31/5/31 33/26/33
f 17/16/17 34/27/34 33/26/33
f 33/26/33 34/27/34 35/20/35
f 33/26/33 35/20/35 32/4/32
f 36/28/36 18/17/18 8/8/8
f 8/8/8 18/17/18 16/15/16
f 8/8/8 16/15/16 9/9/9
f 9/9/9 16/15/16 15/14/15
f 9/9/9 15/14/15 37/27/37
f 37/27/37 15/14/15 17/16/17
f 37/27/37 17/16/17 38/26/38
f 39/29/39 40/23/40 41/30/41
f 41/30/41 40/23/40 14/2/14
f 41/30/41 14/2/14 42/31/42
f 42/31/42 14/2/14 13/13/13
f 42/31/42 13/13/13 43/32/43
f 43/32/43 13/13/13 20/19/20
f 43/32/43 20/19/20 44/33/44
f 44/33/44 20/19/20 4/4/4
f 44/33/44 4/4/4 6/6/6
f 45/14/45 46/15/46 22/9/22
f 22/9/22 46/15/46 47/8/47
f 22/9/22 47/8/47 23/7/23
f 23/7/23 47/8/47 48/10/48
f 23/7/23 48/10/48 24/13/24
f 47/8/47 12/12/12 48/10/48
f 48/10/48 12/12/12 11/11/11
f 48/10/48 11/11/11 49/34/49
f 49/34/49 11/11/11 10/10/10
f 49/34/49 10/10/10 50/3/50
f 50/3/50 10/10/10 14/2/14
f 50/3/50 14/2/14 51/1/51
f 51/1/51 14/2/14 40/23/40
f 34/27/34 52/18/52 35/20/35
f 35/20/35 52/18/52 53/19/53
f 35/20/35 53/19/53 32/4/32
f 32/4/32 53/19/53 54/33/54
f 32/4/32 54/33/54 30/6/30
f 55/31/55 2/2/2 56/30/56
f 56/30/56 2/2/2 27/23/27
f 56/30/56 27/23/27 39/29/39
f 39/29/39 27/23/27 29/25/29
f 39/29/39 29/25/29 40/23/40
f 40/23/40 29/25/29 28/24/28
f 40/23/40 28/24/28 51/1/51
f 51/1/51 28/24/28 26/22/26
f 51/1/51 26/22/26 50/3/50
f 50/3/50 26/22/26 25/21/25
f 50/3/50 25/21/25 49/34/49
f 49/34/49 25/21/25 3/3/3
f 49/34/49 3/3/3 48/10/48
f 48/10/48 3/3/3 2/2/2
f 48/10/48 2/2/2 24/13/24
f 24/13/24 2/2/2 55/31/55
f 24/13/24 55/31/55 57/32/57
f 5/5/5 4/4/4 38/26/38
f 38/26/38 4/4/4 21/20/21
f 38/26/38 21/20/21 37/27/37
f 37/27/37 21/20/21 19/18/19
f 37/27/37 19/18/19 9/9/9
f 9/9/9 19/18/19 13/13/13
f 9/9/9 13/13/13 7/7/7
f 7/7/7 13/13/13 10/10/10
f 7/7/7 10/10/10 8/8/8
f 8/8/8 10/10/10 12/12/12
f 8/8/8 12/12/12 36/28/36
f 36/28/36 12/12/12 47/8/47
f 36/28/36 47/8/47 18/17/18
f 18/17/18 47/8/47 46/15/46
f 18/17/18 46/15/46 17/16/17
f 17/16/17 46/15/46 45/14/45
f 17/16/17 45/14/45 34/27/34
f 34/27/34 45/14/45 22/9/22
f 34/27/34 22/9/22 52/18/52
f 52/18/52 22/9/22 24/13/24
f 52/18/52 24/13/24 53/19/53
f 53/19/53 24/13/24 57/32/57
f 53/19/53 57/32/57 54/33/54
o editpl_m-0000-140
v 3.717014 62.619202 6.400686
v 4.042118 59.373852 8.271727
v 6.193218 61.047935 3.615795
v 5.323566 54.923542 7.159863
v 5.792257 56.661896 5.741638
v 4.984917 56.359852 8.228388
v -7.818734 56.199192 -1.170151
v -7.163109 53.779636 -2.317882
v -8.756115 55.559761 -2.843925
v -4.042118 59.373852 8.271727
v -3.717014 62.619202 6.400686
v -6.193218 61.047935 3.615795
v 4.323874 52.163387 8.386799
v 3.660121 50.312576 8.161886
v 5.017427 50.013744 6.690609
v 7.230839 50.257950 -1.247862
v 8.601691 53.165913 -3.065850
v 6.493938 50.248310 0.347454
v 6.756730 55.174175 0.347454
v 7.818734 56.199192 -1.170151
v 8.756115 55.559761 -2.843925
v 1.492766 54.528316 8.634130
v 1.977712 54.329098 8.492904
v 1.991258 55.305916 8.640107
v 3.278125 54.910690 8.474971
v 6.756730 55.174175 0.347454
v 7.818734 56.199192 -1.170151
v 7.163109 53.779636 -2.317882
v 8.756115 55.559761 -2.843925
v 0.000000 50.473236 9.952227
v 2.137554 51.099812 9.077978
v 1.094514 51.433987 10.873549
v 0.872361 53.355492 9.985105
v 0.000000 53.557926 10.372164
v 6.220310 54.631142 4.915960
v 5.624287 52.015579 6.883391
v 6.515612 52.487923 4.295020
v 5.971064 50.029812 3.879565
v 8.601691 53.165913 -3.065850
v 7.230839 50.257950 -1.247862
v 6.493938 50.248310 0.347454
v 0.000000 62.905178 7.103820
v 5.350658 53.991711 6.980530
v -1.977712 54.329098 8.492904
v -3.278125 54.910690 8.474971
v -4.518936 54.406216 7.981058
v -6.493938 50.248310 0.347454
v -8.601691 53.165913 -3.065850
v -7.230839 50.257950 -1.247862
v -8.756115 55.559761 -2.843925
v -7.818734 56.199192 -1.170151
v -6.756730 55.174175 0.347454
v -1.094514 51.433987 10.873549
v 0.000000 50.704586 10.799574
v 0.000000 51.507893 11.368209
v -6.756730 55.174175 0.347454
v -6.220310 54.631142 4.915960
v -5.624287 52.015579 6.883391
v -5.350658 53.991711 6.980530
v -4.323874 52.163387 8.386799
v 0.000000 48.972664 9.895437
v -1.267903 48.815216 9.435149
v 0.000000 48.818428 9.583846
v -1.492766 54.528316 8.634130
v -0.755865 54.701832 9.166897
v -1.991258 55.305916 8.640107
v -6.493938 50.248310 0.347454
v -7.230839 50.257950 -1.247862
v -8.601691 53.165913 -3.065850
v -7.390682 58.499855 -1.933811
v -6.756730 55.174175 0.347454
v -7.163109 53.779636 -2.317882
v 0.755865 54.701832 9.166897
v 1.758267 55.540482 9.305881
v 0.000000 55.248077 9.413480
v 0.000000 56.070663 9.902910
v -1.758267 55.540482 9.305881
v -3.194140 56.228111 9.147470
v 3.194140 56.228111 9.147470
v 4.537900 55.232014 8.079691
v 4.518936 54.406216 7.981058
v 7.163109 53.779636 -2.317882
v 7.390682 58.499855 -1.933811
v 6.756730 55.174175 0.347454
v 6.466846 58.175320 3.896751
v 4.741090 57.596943 7.887656
v 6.493938 50.248310 0.347454
v -6.466846 58.175320 3.896751
v -6.515612 52.487923 4.295020
v -5.792257 56.661896 5.741638
v -4.984917 56.359852 8.228388
v -4.741090 57.596943 7.887656
v -1.931655 57.282043 9.222939
v 0.000000 57.237061 9.533782
v -5.323566 54.923542 7.159863
v -4.537900 55.232014 8.079691
v -1.538822 52.950626 9.070506
v -0.872361 53.355492 9.985105
v -6.493938 50.248310 0.347454
v -5.971064 50.029812 3.879565
v -5.017427 50.013744 6.690609
v -3.660121 50.312576 8.161886
v -2.668556 52.532909 8.788804
v -2.137554 51.099812 9.077978
v 0.000000 59.762650 9.333527
v 1.931655 57.282043 9.222939
v 1.538822 52.950626 9.070506
v 2.668556 52.532909 8.788804
vn 0.5256 0.4628 0.7138
vn 0.5825 0.2991 0.7558
vn 0.9437 0.1416 0.2988
vn 0.8495 -0.0944 0.5191
vn 0.9308 0.0868 0.3550
vn 0.7452 -0.0078 0.6668
vn 0.7838 0.4232 -0.4545
vn 0.2277 -0.0157 -0.9736
vn 0.5804 0.2902 -0.7608
vn -0.5825 0.2991 0.7558
vn -0.5256 0.4628 0.7138
vn -0.9437 0.1416 0.2988
vn 0.5508 -0.0315 0.8340
vn 0.5276 -0.1575 0.8347
vn 0.8205 -0.2525 0.5128
vn 0.8973 -0.1653 0.4093
vn 0.8762 -0.1095 0.4694
vn 0.9601 -0.1495 0.2361
vn 0.9873 0.0549 0.1489
vn 0.8533 -0.0705 0.5166
vn 0.8488 -0.1022 0.5187
vn 0.4409 -0.0000 0.8975
vn 0.2443 0.0315 0.9692
vn 0.3375 -0.3925 0.8556
vn 0.2043 -0.0943 0.9744
vn -0.7837 0.4232 -0.4546
vn -0.2277 -0.0157 -0.9736
vn -0.5804 0.2902 -0.7608
vn -0.0000 -0.4566 0.8897
vn 0.6198 -0.0157 0.7846
vn 0.6310 -0.2287 0.7413
vn 0.7042 0.3756 0.6025
vn -0.0000 0.4877 0.8730
vn 0.9536 0.0315 0.2995
vn 0.8882 -0.1022 0.4480
vn 0.9805 -0.0784 0.1804
vn 0.9519 -0.2046 0.2281
vn -0.4864 -0.0706 -0.8709
vn -0.7450 -0.2039 -0.6351
vn 0.9602 -0.1495 0.2361
vn -0.0000 0.5419 0.8404
vn 0.8344 0.0079 0.5511
vn -0.2443 0.0315 0.9692
vn -0.2043 -0.0943 0.9744
vn -0.5252 -0.0862 0.8466
vn -0.9601 -0.1495 0.2361
vn -0.8762 -0.1095 0.4694
vn -0.8973 -0.1653 0.4093
vn -0.8488 -0.1022 0.5187
vn -0.8533 -0.0705 0.5166
vn -0.9873 0.0549 0.1489
vn -0.6310 -0.2287 0.7413
vn -0.0000 -0.8084 0.5886
vn -0.0000 -0.0863 0.9963
vn -0.9873 0.0549 0.1488
vn -0.9536 0.0315 0.2995
vn -0.8882 -0.1022 0.4480
vn -0.8344 0.0079 0.5511
vn -0.5508 -0.0315 0.8340
vn -0.0000 -0.6992 0.7149
vn -0.3133 -0.3994 0.8616
vn -0.0000 -0.2111 0.9775
vn -0.4409 -0.0000 0.8975
vn -0.5885 0.0235 0.8082
vn -0.3375 -0.3925 0.8556
vn -0.9602 -0.1495 0.2361
vn 0.7450 -0.2039 -0.6351
vn 0.4864 -0.0706 -0.8709
vn -0.9780 -0.0469 0.2034
vn -0.9873 0.0548 0.1489
vn 0.5885 0.0235 0.8082
vn 0.3062 -0.5496 0.7773
vn -0.0000 -0.1414 0.9899
vn -0.0000 -0.0785 0.9969
vn -0.3062 -0.5496 0.7773
vn -0.3630 -0.1736 0.9155
vn 0.3630 -0.1736 0.9155
vn 0.4566 -0.2047 0.8658
vn 0.5252 -0.0862 0.8466
vn 0.9780 -0.0469 0.2034
vn 0.9873 0.0548 0.1489
vn 0.9498 0.0942 0.2983
vn 0.7002 0.2281 0.6765
vn 0.9602 -0.1495 0.2360
vn -0.9498 0.0942 0.2983
vn -0.9805 -0.0784 0.1804
vn -0.9308 0.0868 0.3550
vn -0.7452 -0.0078 0.6668
vn -0.7002 0.2281 0.6765
vn -0.2661 0.1800 0.9470
vn -0.0000 0.1886 0.9821
vn -0.8495 -0.0944 0.5191
vn -0.4566 -0.2047 0.8658
vn -0.5644 0.2587 0.7839
vn -0.7042 0.3756 0.6025
vn -0.9602 -0.1495 0.2360
vn -0.9519 -0.2046 0.2281
vn -0.8205 -0.2525 0.5128
vn -0.5276 -0.1575 0.8348
vn -0.3221 0.0864 0.9428
vn -0.6198 -0.0157 0.7846
vn -0.0000 0.2830 0.9591
vn 0.2661 0.1800 0.9470
vn 0.5644 0.2587 0.7839
vn 0.3221 0.0865 0.9428
vt 0.748016 0.013458
vt 0.742279 0.122009
vt 0.953552 0.026672
vt 0.839355 0.387390
vt 0.911987 0.252838
vt 0.812439 0.292419
vt 0.099365 0.367096
vt 0.102783 0.403442
vt 0.093414 0.383026
vt 0.751953 0.569061
vt 0.712524 0.696472
vt 0.836273 0.711121
vt 0.096344 0.636536
vt 0.018494 0.545349
vt 0.121887 0.620270
vt 0.121887 0.372437
vt 0.032349 0.310669
vt 0.012695 0.385742
vt 0.588959 0.427826
vt 0.621124 0.447845
vt 0.618195 0.377472
vt 0.687256 0.397308
vt 0.118347 0.380188
vt 0.499969 0.673584
vt 0.608246 0.642059
vt 0.544952 0.619812
vt 0.545349 0.511108
vt 0.500000 0.504822
vt 0.958099 0.396271
vt 0.863464 0.570465
vt 0.953430 0.551025
vt 0.935028 0.700134
vt 0.094666 0.416870
vt 0.112946 0.436218
vt 0.118347 0.432770
vt 0.499268 0.013458
vt 0.840759 0.455200
vt 0.771851 0.444031
vt 0.499969 0.639526
vt 0.499969 0.603241
vt 0.499969 0.762726
vt 0.581848 0.780212
vt 0.499969 0.780182
vt 0.549042 0.416718
vt 0.987000 0.233551
vt 0.987061 0.384094
vt 0.987000 0.531891
vt 0.595825 0.346375
vt 0.500000 0.384003
vt 0.499969 0.309845
vt 0.711365 0.295929
vt 0.771851 0.372131
vt 0.935577 0.197510
vt 0.783325 0.212372
vt 0.987000 0.683441
vt 0.604187 0.248260
vt 0.499969 0.256500
vt 0.587463 0.526947
vt 0.643311 0.550598
vt 0.499969 0.136078
s 1
usemtl m_face84
f 58/35/58 59/36/59 60/37/60
f 61/38/61 62/39/62 63/40/63
f 64/41/64 65/42/65 66/43/66
f 67/36/67 68/35/68 69/37/69
f 70/44/70 71/45/71 72/46/72
f 73/47/73 74/48/74 75/49/75
f 76/50/76 75/49/75 77/51/77
f 77/51/77 75/49/75 74/48/74
f 77/51/77 74/48/74 78/52/78
f 79/53/79 80/54/80 81/55/81
f 81/55/81 80/54/80 82/56/82
f 83/57/76 84/41/83 85/42/84
f 85/42/84 84/41/83 86/43/85
f 87/58/86 88/59/87 89/60/88
f 89/60/88 88/59/87 90/61/89
f 89/60/88 90/61/89 91/62/90
f 92/63/91 93/64/92 94/65/93
f 94/65/93 93/64/92 95/66/94
f 86/43/85 96/67/95 85/42/84
f 85/42/84 96/67/95 97/68/96
f 85/42/84 97/68/96 98/69/97
f 59/36/59 58/35/58 99/70/98
f 62/39/62 61/38/61 92/63/91
f 92/63/91 61/38/61 100/71/99
f 92/63/91 100/71/99 93/64/92
f 101/54/100 102/56/101 103/72/102
f 104/49/103 105/48/104 106/47/105
f 107/52/106 105/48/104 108/51/107
f 108/51/107 105/48/104 104/49/103
f 108/51/107 104/49/103 109/50/108
f 110/60/109 111/73/110 112/74/111
f 65/42/65 64/41/64 113/57/112
f 114/63/113 115/64/114 116/71/115
f 116/71/115 115/64/114 117/44/116
f 118/75/117 119/76/118 120/77/119
f 121/53/120 122/78/121 123/55/122
f 124/69/123 125/68/124 65/42/65
f 65/42/65 125/68/124 126/67/125
f 65/42/65 126/67/125 66/43/66
f 69/37/69 127/79/126 128/80/127
f 128/80/127 127/79/126 129/81/65
f 130/78/128 131/82/129 132/83/130
f 132/83/130 131/82/129 133/84/131
f 132/83/130 133/84/131 134/82/132
f 134/82/132 133/84/131 135/85/133
f 136/85/134 81/55/81 137/86/135
f 137/86/135 81/55/81 82/56/82
f 137/86/135 82/56/82 138/72/136
f 138/72/136 82/56/82 80/54/80
f 138/72/136 80/54/80 70/44/70
f 139/81/84 140/79/137 141/80/138
f 141/80/138 140/79/137 60/37/60
f 141/80/138 60/37/60 142/87/139
f 142/87/139 60/37/60 59/36/59
f 142/87/139 59/36/59 143/88/140
f 95/66/94 144/89/141 94/65/93
f 94/65/93 144/89/141 141/80/138
f 94/65/93 141/80/138 92/63/91
f 92/63/91 141/80/138 142/87/139
f 92/63/91 142/87/139 62/39/62
f 62/39/62 142/87/139 143/88/140
f 62/39/62 143/88/140 63/40/63
f 67/36/67 69/37/69 145/87/142
f 145/87/142 69/37/69 128/80/127
f 145/87/142 128/80/127 114/63/113
f 114/63/113 128/80/127 146/65/143
f 114/63/113 146/65/143 115/64/114
f 147/39/144 148/40/145 149/88/146
f 149/88/146 148/40/145 135/85/133
f 149/88/146 135/85/133 150/90/147
f 150/90/147 135/85/133 133/84/131
f 150/90/147 133/84/131 151/91/148
f 152/38/149 103/72/102 153/86/150
f 153/86/150 103/72/102 102/56/101
f 153/86/150 102/56/101 123/55/122
f 123/55/122 102/56/101 101/54/100
f 123/55/122 101/54/100 121/53/120
f 121/53/120 101/54/100 154/92/151
f 121/53/120 154/92/151 122/78/121
f 122/78/121 154/92/151 155/61/152
f 122/78/121 155/61/152 91/62/90
f 128/80/127 156/89/153 146/65/143
f 146/65/143 156/89/153 157/66/154
f 146/65/143 157/66/154 115/64/114
f 115/64/114 157/66/154 158/46/155
f 115/64/114 158/46/155 117/44/116
f 117/44/116 158/46/155 159/45/156
f 117/44/116 159/45/156 160/93/157
f 160/93/157 159/45/156 161/59/158
f 68/35/68 67/36/67 99/70/98
f 99/70/98 67/36/67 162/94/159
f 99/70/98 162/94/159 59/36/59
f 59/36/59 162/94/159 163/90/160
f 59/36/59 163/90/160 143/88/140
f 143/88/140 163/90/160 136/85/134
f 143/88/140 136/85/134 63/40/63
f 63/40/63 136/85/134 137/86/135
f 63/40/63 137/86/135 61/38/61
f 61/38/61 137/86/135 138/72/136
f 61/38/61 138/72/136 100/71/99
f 100/71/99 138/72/136 70/44/70
f 100/71/99 70/44/70 93/64/92
f 93/64/92 70/44/70 72/46/72
f 93/64/92 72/46/72 95/66/94
f 147/39/144 152/38/149 148/40/145
f 148/40/145 152/38/149 153/86/150
f 148/40/145 153/86/150 135/85/133
f 135/85/133 153/86/150 123/55/122
f 135/85/133 123/55/122 134/82/132
f 134/82/132 123/55/122 122/78/121
f 134/82/132 122/78/121 132/83/130
f 132/83/130 122/78/121 91/62/90
f 132/83/130 91/62/90 130/78/128
f 130/78/128 91/62/90 90/61/89
f 130/78/128 90/61/89 164/92/161
f 164/92/161 90/61/89 88/59/87
f 164/92/161 88/59/87 165/93/162
f 165/93/162 88/59/87 71/45/71
f 71/45/71 70/44/70 165/93/162
f 165/93/162 70/44/70 80/54/80
f 165/93/162 80/54/80 164/92/161
f 164/92/161 80/54/80 79/53/79
f 164/92/161 79/53/79 130/78/128
f 130/78/128 79/53/79 81/55/81
f 130/78/128 81/55/81 131/82/129
f 131/82/129 81/55/81 136/85/134
f 131/82/129 136/85/134 133/84/131
f 133/84/131 136/85/134 163/90/160
f 133/84/131 163/90/160 151/91/148
f 151/91/148 163/90/160 162/94/159
f 151/91/148 162/94/159 150/90/147
f 150/90/147 162/94/159 67/36/67
f 150/90/147 67/36/67 149/88/146
f 149/88/146 67/36/67 145/87/142
f 149/88/146 145/87/142 147/39/144
f 147/39/144 145/87/142 114/63/113
f 147/39/144 114/63/113 152/38/149
f 152/38/149 114/63/113 116/71/115
f 152/38/149 116/71/115 103/72/102
f 103/72/102 116/71/115 117/44/116
f 103/72/102 117/44/116 101/54/100
f 101/54/100 117/44/116 160/93/157
f 101/54/100 160/93/157 154/92/151
f 154/92/151 160/93/157 161/59/158
f 154/92/151 161/59/158 155/61/152
f 155/61/152 161/59/158 110/60/109
f 155/61/152 110/60/109 91/62/90
f 91/62/90 110/60/109 112/74/111
f 91/62/90 112/74/111 89/60/88
f 89/60/88 112/74/111 111/73/110
f 89/60/88 111/73/110 87/58/86
f 87/58/86 111/73/110 110/60/109
f 87/58/86 110/60/109 161/59/158
