mtllib face_31.mtl
o editpl_m-0000-115
v -1.918109 48.040829 9.018200
v -3.164339 48.847347 7.808450
v -2.771506 46.919415 7.524508
v 1.712211 48.975876 9.057803
v 3.164339 48.847347 7.808450
v 1.289576 49.441792 9.569649
v 1.918109 48.040829 9.018200
v 2.771506 46.919415 7.524508
v 0.000000 51.588223 11.389878
v 0.000000 50.916660 11.043915
v 0.810049 51.379364 10.993104
v 5.914171 46.887283 0.706867
v 6.474974 50.341492 0.331015
v 5.881660 47.430317 1.285215
v 6.474974 50.341492 0.331015
v 7.163109 53.779636 -2.317882
v 7.322952 50.492516 -1.264301
v 2.161937 45.068604 7.616416
v 3.884984 46.292839 5.326185
v 2.083370 44.564129 7.141931
v 3.112864 45.402779 4.680586
v -0.810049 51.379364 10.993104
v -1.546950 51.099812 9.210983
v 0.000000 50.315788 9.749729
v 0.000000 44.303856 3.787658
v 4.735671 46.559536 0.298884
v 7.163109 53.779636 -2.317882
v 6.474974 50.341492 0.331015
v -5.881660 47.430317 1.285215
v -6.474974 50.341492 0.331015
v -5.914171 46.887283 0.706867
v -1.712211 48.975876 9.057803
v -1.289576 49.441792 9.569649
v 0.000000 48.882690 9.234894
v 0.000000 49.367889 9.692193
v -6.474974 50.341492 0.331015
v -7.163109 53.779636 -2.317882
v -4.735671 46.559536 0.298884
v -7.322952 50.492516 -1.264301
v -7.163109 53.779636 -2.317882
v -6.474974 50.341492 0.331015
v 1.546950 51.099812 9.210983
v -3.112864 45.402779 4.680586
v -2.083370 44.564129 7.141931
v -3.884984 46.292839 5.326185
v -2.161937 45.068604 7.616416
v 0.000000 48.384644 9.456820
v 0.000000 44.393826 7.456511
v 0.000000 45.537731 8.540728
v 0.000000 47.099358 8.764145
v 0.000000 47.806263 9.492685
vn -0.4340 -0.2683 0.8600
vn -0.7149 -0.0000 0.6992
vn -0.6279 -0.2904 0.7221
vn 0.3779 -0.0945 0.9210
vn 0.7149 -0.0000 0.6992
vn 0.3462 -0.1338 0.9286
vn 0.4340 -0.2683 0.8600
vn 0.6279 -0.2904 0.7221
vn -0.0000 -0.1019 0.9948
vn -0.0000 -0.7149 0.6992
vn 0.6069 -0.3074 0.7330
vn 0.7838 -0.6192 -0.0471
vn 0.9437 -0.1573 0.2910
vn 0.9333 -0.1882 0.3059
vn -0.7636 0.1023 -0.6376
vn -0.5189 -0.4796 -0.7076
vn 0.5189 -0.4796 0.7076
vn 0.8464 -0.3919 0.3605
vn 0.4849 -0.8447 0.2268
vn 0.5420 -0.8404 -0.0000
vn -0.6069 -0.3074 0.7330
vn -0.7257 -0.2918 0.6231
vn -0.0000 -0.5029 0.8644
vn -0.0000 -0.9948 -0.1018
vn 0.3935 -0.7476 -0.5351
vn 0.8247 -0.3456 -0.4477
vn 0.9437 -0.1573 0.2909
vn -0.9333 -0.1882 0.3059
vn -0.9437 -0.1573 0.2910
vn -0.7838 -0.6192 -0.0471
vn -0.3779 -0.0945 0.9210
vn -0.3462 -0.1338 0.9286
vn -0.0000 -0.3768 0.9263
vn -0.0000 -0.3930 0.9195
vn -0.9437 -0.1573 0.2909
vn -0.8247 -0.3456 -0.4477
vn -0.3934 -0.7476 -0.5351
vn 0.5189 -0.4796 -0.7076
vn 0.7636 0.1023 -0.6376
vn 0.7256 -0.2918 0.6232
vn -0.5420 -0.8404 -0.0000
vn -0.4849 -0.8447 0.2268
vn -0.8464 -0.3919 0.3605
vn -0.5189 -0.4796 0.7076
vn -0.0000 0.1644 0.9864
vn 0.0001 -0.8554 0.5179
vn -0.0000 -0.3304 0.9439
vn -0.0000 -0.5565 0.8309
vn -0.0000 -0.3537 0.9354
vt 0.421997 0.828125
vt 0.343445 0.786407
vt 0.355408 0.875000
vt 0.415741 0.774567
vt 0.415283 0.745972
vt 0.492188 0.617188
vt 0.492188 0.659576
vt 0.447540 0.635040
vt 0.024872 0.971344
vt 0.046417 0.748840
vt 0.041351 0.937927
vt 0.896820 0.789856
vt 0.939789 0.723053
vt 0.928589 0.790314
vt 0.378174 0.945312
vt 0.175873 0.931976
vt 0.372681 0.967682
vt 0.208435 0.964905
vt 0.398926 0.645142
vt 0.492188 0.686371
vt 0.492188 0.988007
vt 0.012390 0.987274
vt 0.015045 0.559387
vt 0.053680 0.748840
vt 0.493286 0.777893
vt 0.492188 0.743103
vt 0.492188 0.804688
vt 0.492188 0.968750
vt 0.492188 0.937500
vt 0.492188 0.875000
vt 0.492188 0.843750
s 1
usemtl m_face72
f 1/1/1 2/2/2 3/3/3
f 4/4/4 5/2/5 6/5/6
f 7/1/7 8/3/8 5/2/5
f 9/6/9 10/7/10 11/8/11
f 12/9/12 13/10/13 14/11/14
f 15/12/13 16/13/15 17/14/16
f 8/3/8 18/15/17 19/16/18
f 19/16/18 18/15/17 20/17/19
f 19/16/18 20/17/19 21/18/20
f 22/8/21 23/19/22 24/20/23
f 25/21/24 26/22/25 12/9/12
f 12/9/12 26/22/25 27/23/26
f 12/9/12 27/23/26 28/24/27
f 29/11/28 30/10/29 31/9/30
f 2/2/2 32/4/31 33/5/32
f 33/5/32 32/4/31 34/25/33
f 33/5/32 34/25/33 35/26/34
f 35/26/34 34/25/33 6/5/6
f 36/24/35 37/23/36 31/9/30
f 31/9/30 37/23/36 38/22/37
f 31/9/30 38/22/37 25/21/24
f 39/14/38 40/13/39 41/12/29
f 42/19/40 11/8/11 24/20/23
f 24/20/23 11/8/11 10/7/10
f 24/20/23 10/7/10 22/8/21
f 22/8/21 10/7/10 9/6/9
f 43/18/41 44/17/42 45/16/43
f 45/16/43 44/17/42 46/15/44
f 45/16/43 46/15/44 3/3/3
f 2/2/2 1/1/1 32/4/31
f 32/4/31 1/1/1 47/27/45
f 32/4/31 47/27/45 34/25/33
f 34/25/33 47/27/45 4/4/4
f 34/25/33 4/4/4 6/5/6
f 14/11/14 19/16/18 12/9/12
f 12/9/12 19/16/18 21/18/20
f 12/9/12 21/18/20 25/21/24
f 25/21/24 21/18/20 20/17/19
f 25/21/24 20/17/19 48/28/46
f 48/28/46 20/17/19 18/15/17
f 48/28/46 18/15/17 49/29/47
f 49/29/47 18/15/17 8/3/8
f 49/29/47 8/3/8 50/30/48
f 50/30/48 8/3/8 7/1/7
f 50/30/48 7/1/7 51/31/49
f 5/2/5 4/4/4 7/1/7
f 7/1/7 4/4/4 47/27/45
f 7/1/7 47/27/45 51/31/49
f 51/31/49 47/27/45 1/1/1
f 51/31/49 1/1/1 50/30/48
f 50/30/48 1/1/1 3/3/3
f 50/30/48 3/3/3 49/29/47
f 49/29/47 3/3/3 46/15/44
f 49/29/47 46/15/44 48/28/46
f 48/28/46 46/15/44 44/17/42
f 48/28/46 44/17/42 25/21/24
f 25/21/24 44/17/42 43/18/41
f 25/21/24 43/18/41 31/9/30
f 31/9/30 43/18/41 45/16/43
f 31/9/30 45/16/43 29/11/28
o editpl_m-0000-116
v 0.810049 51.379364 10.993104
v 1.062004 53.333000 10.440161
v 0.000000 53.458317 10.821244
v 0.000000 59.942589 9.598043
v 2.896129 59.618053 8.837372
v 3.763071 62.619202 6.400686
v 1.546950 51.099812 9.210983
v 2.161937 53.284801 8.801506
v 0.000000 51.588223 11.389878
v 3.091190 53.291229 8.366624
v 2.424729 54.515465 8.218675
v 1.603843 54.846424 8.350185
v 3.164339 48.847347 7.808450
v 1.127025 49.669930 9.495674
v 1.289576 49.441792 9.569649
v 0.861524 54.991020 9.543496
v -4.757345 59.136070 7.579054
v -6.342223 58.416309 4.693288
v -4.803401 57.738323 7.643315
v 3.316054 51.029121 7.641820
v 6.474974 50.341492 0.331015
v 7.322952 50.492516 -1.264301
v 8.436430 53.165913 -3.082289
v 7.163109 53.779636 -2.317882
v 6.756730 55.174175 0.331015
v 7.824153 56.199192 -1.186590
v 3.884984 46.292839 5.326185
v 3.741397 48.956596 7.199466
v 2.771506 46.919415 7.524508
v 8.590855 55.559761 -2.860364
v 8.436430 53.165913 -3.082289
v 7.322952 50.492516 -1.264301
v 4.757345 59.136070 7.579054
v 2.847363 57.764027 9.040616
v 4.803401 57.738323 7.643315
v 6.756730 55.174175 0.331015
v 7.824153 56.199192 -1.186590
v 8.590855 55.559761 -2.860364
v 4.819656 54.515465 7.335460
v 5.477990 53.644684 6.514264
v 5.459026 54.843212 6.263198
v 6.396407 53.519367 4.068612
v 6.060467 55.109909 4.641730
v 6.342223 58.416309 4.693288
v 7.390682 58.499855 -1.933811
v 6.193218 61.047935 3.615795
v 6.756730 55.174175 0.331015
v 5.813931 51.633205 4.187420
v 6.474974 50.341492 0.331015
v 4.478298 49.551041 6.085360
v 5.467154 48.378216 2.745284
v 5.114958 56.337360 7.707576
v 2.356999 56.077087 9.749729
v 4.811529 55.537270 7.342932
v 2.397637 55.312344 8.315066
v 3.597810 54.929970 7.990025
v 2.920511 53.304081 8.427149
v 3.616774 51.096600 7.484904
v 4.280527 53.304081 7.966861
v 4.971371 51.960957 6.388731
v -1.289576 49.441792 9.569649
v -1.127025 49.669930 9.495674
v -3.164339 48.847347 7.808450
v -3.316054 51.029121 7.641820
v -4.478298 49.551041 6.085360
v -3.741397 48.956596 7.199466
v -3.884984 46.292839 5.326185
v -5.467154 48.378216 2.745284
v -6.474974 50.341492 0.331015
v -5.881660 47.430317 1.285215
v -4.819656 54.515465 7.335460
v -2.424729 54.515465 8.218675
v -3.597810 54.929970 7.990025
v -8.436430 53.165913 -3.082289
v -7.322952 50.492516 -1.264301
v -6.474974 50.341492 0.331015
v -1.127025 49.669930 9.495674
v 0.000000 50.315788 9.749729
v -1.546950 51.099812 9.210983
v 0.000000 57.831505 9.806518
v -2.896129 59.618053 8.837372
v -2.847363 57.764027 9.040616
v -8.436430 53.165913 -3.082289
v -7.163109 53.779636 -2.317882
v -7.322952 50.492516 -1.264301
v -8.590855 55.559761 -2.860364
v -7.824153 56.199192 -1.186590
v -6.756730 55.174175 0.331015
v -4.971371 51.960957 6.388731
v -3.616774 51.096600 7.484904
v -4.280527 53.304081 7.966861
v -3.091190 53.291229 8.366624
v 0.000000 49.367889 9.692193
v 0.000000 49.618519 9.704896
v 1.127025 49.669930 9.495674
v -8.590855 55.559761 -2.860364
v -7.824153 56.199192 -1.186590
v -6.756730 55.174175 0.331015
v -2.771506 46.919415 7.524508
v -2.161937 53.284801 8.801506
v -5.114958 56.337360 7.707576
v -2.356999 56.077087 9.749729
v 0.000000 56.369492 10.333309
v -6.396407 53.519367 4.068612
v -5.477990 53.644684 6.514264
v -5.813931 51.633205 4.187420
v -6.756730 55.174175 0.331015
v -0.810049 51.379364 10.993104
v -1.062004 53.333000 10.440161
v -7.163109 53.779636 -2.317882
v -7.390682 58.499855 -1.933811
v -6.193218 61.047935 3.615795
v -3.763071 62.619202 6.400686
v -6.060467 55.109909 4.641730
v -5.459026 54.843212 6.263198
v -4.811529 55.537270 7.342932
v -2.397637 55.312344 8.315066
v -1.603843 54.846424 8.350185
v 5.881660 47.430317 1.285215
v -0.861524 54.991020 9.543496
v 0.000000 55.164536 9.952973
v -2.920511 53.304081 8.427149
v 7.163109 53.779636 -2.317882
v 0.000000 62.905178 7.103820
vn 0.6069 -0.3074 0.7330
vn 0.7216 0.2353 0.6511
vn -0.0000 0.3700 0.9290
vn -0.0000 0.4566 0.8897
vn 0.4011 0.2517 0.8808
vn 0.4796 0.5189 0.7076
vn 0.7256 -0.2918 0.6231
vn 0.6359 0.1256 0.7615
vn -0.0000 -0.1018 0.9948
vn 0.3146 0.1022 0.9437
vn 0.2517 -0.0157 0.9677
vn 0.5565 0.0078 0.8308
vn 0.7149 -0.0000 0.6992
vn 0.3940 0.2285 0.8903
vn 0.3462 -0.1337 0.9286
vn 0.5886 -0.0157 0.8083
vn -0.7414 0.2051 0.6389
vn -0.9484 0.0470 0.3135
vn -0.7404 0.1182 0.6617
vn 0.6280 -0.1178 0.7693
vn 0.9437 -0.1573 0.2910
vn -0.5189 -0.4796 -0.7076
vn 0.8901 -0.0788 0.4490
vn -0.7635 0.1023 -0.6376
vn -0.8556 0.3924 -0.3375
vn -0.8032 0.4173 -0.4252
vn 0.8464 -0.3919 0.3605
vn 0.8040 -0.1497 0.5754
vn 0.6279 -0.2904 0.7221
vn -0.6293 0.2832 -0.7237
vn -0.5403 -0.0783 -0.8378
vn 0.7414 0.2051 0.6389
vn 0.4468 0.1724 0.8779
vn 0.7404 0.1182 0.6617
vn 0.9781 -0.0704 0.1957
vn 0.8737 -0.0787 0.4801
vn 0.8920 -0.0947 0.4420
vn 0.5969 0.0471 0.8010
vn 0.8617 -0.0783 0.5013
vn 0.9615 -0.1261 0.2443
vn 0.9638 -0.0078 0.2664
vn 0.9484 0.0470 0.3135
vn 0.9864 -0.0078 0.1644
vn 0.9032 0.2435 0.3534
vn 0.9781 -0.0704 0.1956
vn 0.9428 -0.2357 0.2357
vn 0.8424 -0.2283 0.4881
vn 0.9254 -0.1568 0.3451
vn 0.7706 -0.1022 0.6291
vn 0.4397 -0.4632 0.7695
vn 0.5665 -0.2911 0.7710
vn 0.3300 -0.3614 0.8721
vn 0.3461 -0.0630 0.9361
vn 0.4090 -0.0000 0.9125
vn 0.5127 -0.2997 0.8046
vn 0.6139 -0.1259 0.7793
vn 0.8213 -0.2737 0.5006
vn -0.3462 -0.1337 0.9286
vn -0.3940 0.2285 0.8903
vn -0.7149 -0.0000 0.6992
vn -0.6280 -0.1178 0.7693
vn -0.8424 -0.2283 0.4881
vn -0.8040 -0.1497 0.5754
vn -0.8464 -0.3919 0.3605
vn -0.9254 -0.1568 0.3451
vn -0.9437 -0.1573 0.2910
vn -0.9333 -0.1882 0.3059
vn -0.5969 0.0471 0.8010
vn -0.2517 -0.0157 0.9677
vn -0.3461 -0.0629 0.9361
vn -0.8901 -0.0788 0.4490
vn 0.5189 -0.4796 -0.7076
vn -0.3939 0.2285 0.8903
vn -0.0000 -0.5029 0.8643
vn -0.7256 -0.2918 0.6232
vn -0.0000 0.1810 0.9835
vn -0.4011 0.2517 0.8808
vn -0.4468 0.1724 0.8779
vn 0.5403 -0.0783 -0.8378
vn 0.7635 0.1023 -0.6376
vn 0.6293 0.2832 -0.7237
vn 0.8032 0.4173 -0.4252
vn 0.8556 0.3924 -0.3375
vn -0.8213 -0.2738 0.5006
vn -0.5127 -0.2997 0.8045
vn -0.6139 -0.1259 0.7793
vn -0.3146 0.1022 0.9437
vn -0.3462 -0.1338 0.9286
vn -0.0000 -0.3929 0.9196
vn -0.0000 0.0940 0.9956
vn 0.3462 -0.1338 0.9286
vn 0.3939 0.2285 0.8903
vn -0.8920 -0.0947 0.4420
vn -0.8737 -0.0787 0.4801
vn -0.9781 -0.0704 0.1957
vn -0.6279 -0.2904 0.7221
vn -0.6359 0.1256 0.7615
vn -0.7706 -0.1022 0.6291
vn -0.4397 -0.4632 0.7695
vn -0.0000 0.1173 0.9931
vn -0.9615 -0.1261 0.2443
vn -0.8772 -0.0470 0.4778
vn -0.9428 -0.2357 0.2357
vn -0.9781 -0.0704 0.1956
vn -0.6069 -0.3073 0.7330
vn -0.7216 0.2353 0.6511
vn -0.9820 -0.0550 0.1807
vn -0.9864 -0.0078 0.1644
vn -0.9032 0.2435 0.3534
vn -0.4796 0.5189 0.7076
vn -0.9591 -0.0000 0.2830
vn -0.8617 -0.0783 0.5013
vn -0.5665 -0.2911 0.7710
vn -0.3299 -0.3614 0.8721
vn -0.5565 0.0078 0.8308
vn 0.9333 -0.1882 0.3059
vn -0.5886 -0.0157 0.8083
vn -0.0000 -0.1644 0.9864
vn -0.4090 -0.0000 0.9125
vn 0.9820 -0.0550 0.1807
vn -0.0000 0.6456 0.7637
vt 0.447540 0.635040
vt 0.453125 0.502228
vt 0.492188 0.492188
vt 0.492188 0.117188
vt 0.357117 0.130554
vt 0.273438 0.040161
vt 0.398926 0.645142
vt 0.386200 0.545441
vt 0.492188 0.617188
vt 0.329926 0.543152
vt 0.355194 0.448242
vt 0.410797 0.432892
vt 0.343445 0.786407
vt 0.423004 0.728027
vt 0.415283 0.745972
vt 0.446594 0.419250
vt 0.203125 0.158203
vt 0.114929 0.248596
vt 0.198090 0.231995
vt 0.310913 0.679779
vt 0.868073 0.624207
vt 0.908447 0.653931
vt 0.988129 0.507477
vt 0.939789 0.723053
vt 0.907104 0.679596
vt 0.950073 0.632416
vt 0.175873 0.931976
vt 0.300446 0.788818
vt 0.355408 0.875000
vt 0.967102 0.657227
vt 0.967194 0.733002
vt 0.928589 0.790314
vt 0.368652 0.235931
vt 0.897186 0.407776
vt 0.946350 0.325958
vt 0.987946 0.336395
vt 0.225250 0.451752
vt 0.147308 0.502869
vt 0.143524 0.417664
vt 0.097626 0.525360
vt 0.087891 0.412872
vt 0.012512 0.203125
vt 0.120117 0.102539
vt 0.041992 0.409119
vt 0.111816 0.656921
vt 0.046417 0.748840
vt 0.214294 0.755646
vt 0.105194 0.887299
vt 0.182800 0.305786
vt 0.358093 0.312103
vt 0.226562 0.380157
vt 0.356934 0.383423
vt 0.298035 0.417145
vt 0.338196 0.547943
vt 0.294037 0.668884
vt 0.238770 0.528320
vt 0.172119 0.615906
vt 0.041351 0.937927
vt 0.415192 0.728027
vt 0.492188 0.686371
vt 0.492188 0.218750
vt 0.492188 0.743103
vt 0.492188 0.730438
vt 0.492188 0.311249
vt 0.012512 0.559387
vt 0.492188 0.406250
vt 0.492188 0.039062
s 1
usemtl m_face72
f 52/32/50 53/33/51 54/34/52
f 55/35/53 56/36/54 57/37/55
f 58/38/56 59/39/57 53/33/51
f 54/34/52 60/40/58 52/32/50
f 61/41/59 62/42/60 63/43/61
f 64/44/62 65/45/63 66/46/64
f 53/33/51 67/47/65 54/34/52
f 68/48/66 69/49/67 70/50/68
f 65/45/63 71/51/69 59/39/57
f 72/52/70 73/53/71 74/54/72
f 75/55/73 76/56/74 77/57/75
f 78/58/76 79/59/77 80/60/78
f 80/60/78 79/59/77 64/44/62
f 77/57/75 81/61/79 75/55/73
f 75/55/73 81/61/79 82/62/80
f 75/55/73 82/62/80 83/63/71
f 84/48/81 85/64/82 86/50/83
f 87/65/84 72/52/70 88/66/85
f 88/66/85 72/52/70 74/54/72
f 88/66/85 74/54/72 89/67/86
f 53/33/51 52/32/50 58/38/56
f 90/68/87 91/69/88 92/70/88
f 92/70/88 91/69/88 93/71/89
f 92/70/88 93/71/89 94/72/90
f 95/49/91 96/73/92 97/74/93
f 98/75/94 99/76/95 100/77/70
f 100/77/70 99/76/95 101/78/96
f 100/77/70 101/78/96 102/79/97
f 103/80/98 104/81/99 105/82/100
f 105/82/100 104/81/99 106/83/101
f 105/82/100 106/83/101 107/84/102
f 63/43/61 108/85/103 61/41/59
f 61/41/59 108/85/103 109/86/104
f 61/41/59 109/86/104 110/87/105
f 110/87/105 109/86/104 111/88/106
f 112/46/107 113/45/108 114/44/109
f 115/51/110 116/78/111 117/59/112
f 117/59/112 116/78/111 118/58/113
f 119/79/114 120/77/115 121/89/116
f 122/68/117 123/42/118 124/84/119
f 125/54/120 126/53/121 127/52/115
f 128/90/122 129/91/123 130/38/124
f 56/36/54 55/35/53 131/92/125
f 131/92/125 55/35/53 132/36/126
f 131/92/125 132/36/126 133/64/127
f 134/62/128 135/55/129 136/63/121
f 134/62/128 137/61/130 135/55/129
f 135/55/129 137/61/130 138/57/131
f 135/55/129 138/57/131 139/56/132
f 140/88/133 141/86/134 142/87/135
f 142/87/135 141/86/134 143/41/136
f 112/46/137 144/93/138 145/94/139
f 145/94/139 144/93/138 66/46/140
f 145/94/139 66/46/140 146/90/141
f 147/67/142 125/54/120 148/66/143
f 148/66/143 125/54/120 127/52/115
f 148/66/143 127/52/115 149/65/144
f 118/58/113 150/60/145 117/59/112
f 117/59/112 150/60/145 114/44/109
f 117/59/112 114/44/109 115/51/110
f 115/51/110 114/44/109 113/45/108
f 115/51/110 113/45/108 151/39/146
f 59/39/57 58/38/56 146/90/141
f 146/90/141 58/38/56 129/91/123
f 146/90/141 129/91/123 145/94/139
f 145/94/139 129/91/123 128/90/122
f 145/94/139 128/90/122 112/46/137
f 152/80/147 153/81/148 133/64/127
f 133/64/127 153/81/148 154/95/149
f 133/64/127 154/95/149 131/92/125
f 131/92/125 154/95/149 85/64/82
f 131/92/125 85/64/82 56/36/54
f 56/36/54 85/64/82 84/48/81
f 56/36/54 84/48/81 57/37/55
f 155/71/150 140/88/133 156/69/151
f 156/69/151 140/88/133 142/87/135
f 156/69/151 142/87/135 122/68/117
f 122/68/117 142/87/135 143/41/136
f 122/68/117 143/41/136 123/42/118
f 121/89/116 118/58/113 119/79/114
f 119/79/114 118/58/113 116/78/111
f 119/79/114 116/78/111 120/77/115
f 120/77/115 116/78/111 157/76/152
f 120/77/115 157/76/152 158/75/153
f 60/40/58 54/34/52 159/32/154
f 159/32/154 54/34/52 160/33/155
f 159/32/154 160/33/155 130/38/124
f 130/38/124 160/33/155 151/39/146
f 130/38/124 151/39/146 128/90/122
f 161/96/156 158/75/153 162/73/157
f 162/73/157 158/75/153 69/49/67
f 162/73/157 69/49/67 163/74/158
f 163/74/158 69/49/67 68/48/66
f 163/74/158 68/48/66 164/37/159
f 165/72/160 166/70/161 152/80/147
f 152/80/147 166/70/161 167/82/162
f 152/80/147 167/82/162 153/81/148
f 153/81/148 167/82/162 168/83/163
f 153/81/148 168/83/163 169/43/164
f 62/42/60 61/41/59 90/68/87
f 90/68/87 61/41/59 110/87/105
f 90/68/87 110/87/105 91/69/88
f 91/69/88 110/87/105 111/88/106
f 91/69/88 111/88/106 93/71/89
f 65/45/63 64/44/62 71/51/69
f 71/51/69 64/44/62 79/59/77
f 71/51/69 79/59/77 101/78/96
f 101/78/96 79/59/77 78/58/76
f 101/78/96 78/58/76 102/79/97
f 102/79/97 78/58/76 170/89/165
f 102/79/97 170/89/165 100/77/70
f 67/47/65 53/33/51 63/43/61
f 63/43/61 53/33/51 59/39/57
f 63/43/61 59/39/57 108/85/103
f 108/85/103 59/39/57 71/51/69
f 108/85/103 71/51/69 109/86/104
f 109/86/104 71/51/69 101/78/96
f 109/86/104 101/78/96 111/88/106
f 111/88/106 101/78/96 99/76/95
f 111/88/106 99/76/95 93/71/89
f 93/71/89 99/76/95 98/75/94
f 93/71/89 98/75/94 94/72/90
f 169/43/164 171/47/166 153/81/148
f 153/81/148 171/47/166 172/97/167
f 153/81/148 172/97/167 154/95/149
f 154/95/149 172/97/167 104/81/99
f 154/95/149 104/81/99 85/64/82
f 85/64/82 104/81/99 103/80/98
f 85/64/82 103/80/98 86/50/83
f 86/50/83 103/80/98 95/49/91
f 86/50/83 95/49/91 84/48/81
f 84/48/81 95/49/91 97/74/93
f 84/48/81 97/74/93 57/37/55
f 141/86/134 173/85/168 143/41/136
f 143/41/136 173/85/168 169/43/164
f 143/41/136 169/43/164 123/42/118
f 123/42/118 169/43/164 168/83/163
f 123/42/118 168/83/163 124/84/119
f 124/84/119 168/83/163 167/82/162
f 124/84/119 167/82/162 122/68/117
f 122/68/117 167/82/162 166/70/161
f 122/68/117 166/70/161 156/69/151
f 156/69/151 166/70/161 165/72/160
f 156/69/151 165/72/160 155/71/150
f 174/96/169 96/73/92 98/75/94
f 98/75/94 96/73/92 95/49/91
f 98/75/94 95/49/91 94/72/90
f 94/72/90 95/49/91 103/80/98
f 94/72/90 103/80/98 92/70/88
f 92/70/88 103/80/98 105/82/100
f 92/70/88 105/82/100 90/68/87
f 90/68/87 105/82/100 107/84/102
f 90/68/87 107/84/102 62/42/60
f 62/42/60 107/84/102 106/83/101
f 62/42/60 106/83/101 63/43/61
f 63/43/61 106/83/101 104/81/99
f 63/43/61 104/81/99 67/47/65
f 67/47/65 104/81/99 172/97/167
f 67/47/65 172/97/167 54/34/52
f 54/34/52 172/97/167 171/47/166
f 54/34/52 171/47/166 160/33/155
f 160/33/155 171/47/166 169/43/164
f 160/33/155 169/43/164 151/39/146
f 151/39/146 169/43/164 173/85/168
f 151/39/146 173/85/168 115/51/110
f 115/51/110 173/85/168 141/86/134
f 115/51/110 141/86/134 116/78/111
f 116/78/111 141/86/134 140/88/133
f 116/78/111 140/88/133 157/76/152
f 157/76/152 140/88/133 155/71/150
f 157/76/152 155/71/150 158/75/153
f 158/75/153 155/71/150 165/72/160
f 158/75/153 165/72/160 69/49/67
f 69/49/67 165/72/160 152/80/147
f 69/49/67 152/80/147 70/50/68
f 70/50/68 152/80/147 133/64/127
f 70/50/68 133/64/127 68/48/66
f 68/48/66 133/64/127 132/36/126
f 68/48/66 132/36/126 164/37/159
f 164/37/159 132/36/126 55/35/53
f 164/37/159 55/35/53 175/98/170
f 175/98/170 55/35/53 57/37/55
