mtllib face_14.mtl
o editpl_m-0000-141
v -2.305524 44.750492 7.416908
v -3.053262 45.049324 5.795439
v 0.000000 44.387402 2.829721
v 3.058680 45.049324 5.795439
v 2.310943 44.750492 7.416908
v -4.784437 47.083290 4.729903
v -3.047843 46.183590 6.699575
v -3.741397 47.812691 7.659754
v 1.251648 48.689899 9.181095
v 1.533404 49.310051 9.664546
v 0.000000 48.847347 9.702654
v 1.658027 50.797771 9.118328
v 2.543933 50.068371 8.655051
v 1.891017 51.427563 8.946467
v 5.006591 50.196899 6.254232
v 5.757037 48.375004 2.796095
v 5.778711 52.185883 6.316998
v 6.927409 55.174175 0.347454
v 6.572505 52.532909 4.153048
v 6.512903 50.248310 0.347454
v 0.000000 48.060108 9.680985
v 1.663445 48.063320 9.210237
v 0.000000 48.705963 9.353703
v 4.784437 47.083290 4.729903
v 5.020137 46.003651 2.415013
v 0.000000 50.852394 10.713644
v 0.000000 50.482876 9.837901
v 0.910289 51.360085 10.730083
v -5.778711 52.185883 6.316998
v -5.757037 48.375004 2.796095
v -5.006591 50.196899 6.254232
v 0.000000 51.973808 11.254631
v -0.907580 51.360085 10.730083
v 0.000000 51.462906 11.332342
v -1.530695 49.310051 9.664546
v 0.000000 49.287560 9.953721
v 3.050553 46.183590 6.699575
v 3.741397 47.812691 7.659754
v -6.512903 50.248310 0.347454
v -6.569796 52.532909 4.153048
v -6.927409 55.174175 0.347454
v -5.017427 46.003651 2.415013
v -1.901854 51.427563 8.946467
v -1.658027 50.797771 9.118328
v -2.543933 50.068371 8.655051
v 4.199251 46.405300 0.298884
v 7.163109 53.779636 -2.317882
v 5.776002 46.665573 0.567885
v -5.776002 46.665573 0.567885
v -7.163109 53.779636 -2.317882
v -4.199251 46.405300 0.298884
v 2.180901 46.922630 8.164127
v 0.000000 47.613472 9.425436
v -1.660736 48.063320 9.210237
v -1.251648 48.689899 9.181095
v 0.000000 46.671997 9.004004
v -2.178192 46.922630 8.164127
v 0.002709 45.573078 8.871745
v -1.457546 45.447762 8.526529
v 0.002709 44.798691 8.380075
v -1.492766 44.560913 7.775574
v 0.000000 44.368118 7.700851
v 2.741704 48.513172 8.318055
v 3.887694 50.193684 8.134986
v -3.884984 50.193684 8.134986
v -2.741704 48.513172 8.318055
v 1.465674 45.447762 8.526529
v 1.495475 44.560913 7.775574
vn -0.6123 -0.6908 0.3846
vn -0.6765 -0.7002 0.2281
vn -0.0000 -0.9910 -0.1337
vn 0.6766 -0.7002 0.2281
vn 0.6156 -0.6866 0.3867
vn -0.8516 -0.3785 0.3627
vn -0.7697 -0.3613 0.5262
vn -0.6907 -0.3140 0.6514
vn 0.2910 -0.4247 0.8573
vn 0.4005 -0.1963 0.8950
vn -0.0000 -0.7302 0.6832
vn 0.6036 -0.0940 0.7917
vn 0.4877 -0.0000 0.8730
vn 0.6585 -0.0000 0.7525
vn 0.8650 -0.2674 0.4246
vn 0.9279 -0.2752 0.2516
vn 0.8966 -0.1495 0.4168
vn 0.9803 -0.0236 0.1960
vn 0.9709 -0.0470 0.2349
vn 0.9603 -0.1810 0.2125
vn -0.0002 -0.0240 0.9997
vn 0.3920 -0.0706 0.9173
vn -0.0000 -0.1568 0.9876
vn 0.8516 -0.3785 0.3627
vn 0.7222 -0.6829 0.1099
vn -0.0000 -0.8308 0.5565
vn -0.0000 -0.4250 0.9052
vn 0.6692 -0.3228 0.6692
vn -0.8966 -0.1495 0.4168
vn -0.9279 -0.2752 0.2516
vn -0.8650 -0.2674 0.4246
vn -0.0000 0.3442 0.9389
vn -0.6692 -0.3229 0.6692
vn -0.0000 -0.3373 0.9414
vn -0.4004 -0.1963 0.8951
vn -0.0000 -0.2037 0.9790
vn 0.7697 -0.3613 0.5262
vn 0.6907 -0.3140 0.6514
vn -0.9603 -0.1810 0.2125
vn -0.9709 -0.0470 0.2349
vn -0.9803 -0.0235 0.1960
vn -0.7222 -0.6829 0.1099
vn -0.6585 -0.0000 0.7526
vn -0.6031 -0.1018 0.7911
vn -0.4877 -0.0000 0.8730
vn 0.2281 -0.7002 -0.6765
vn 0.7379 -0.3689 -0.5652
vn 0.7485 -0.6225 -0.2285
vn -0.7485 -0.6225 -0.2285
vn -0.7379 -0.3689 -0.5652
vn -0.2281 -0.7002 -0.6765
vn 0.4552 -0.3375 0.8240
vn -0.0000 -0.5029 0.8643
vn -0.3920 -0.0706 0.9173
vn -0.2910 -0.4247 0.8573
vn 0.0001 -0.2664 0.9639
vn -0.4552 -0.3375 0.8240
vn -0.0001 -0.1886 0.9821
vn -0.4722 -0.3463 0.8106
vn -0.0000 -0.6832 0.7303
vn -0.2272 -0.8772 0.4229
vn -0.0001 -0.9618 0.2737
vn 0.5244 -0.1018 0.8454
vn 0.5562 -0.1645 0.8146
vn -0.5562 -0.1645 0.8146
vn -0.5244 -0.1017 0.8454
vn 0.4722 -0.3463 0.8107
vn 0.2271 -0.8772 0.4229
vt 0.633331 0.974884
vt 0.699463 0.963928
vt 0.774841 0.988647
vt 0.801331 0.883728
vt 0.679504 0.917908
vt 0.725189 0.831879
vt 0.550385 0.802399
vt 0.567017 0.755951
vt 0.500244 0.790405
vt 0.584198 0.684021
vt 0.626923 0.745758
vt 0.594360 0.633026
vt 0.791321 0.738800
vt 0.887787 0.799927
vt 0.847687 0.575500
vt 0.975433 0.377716
vt 0.914154 0.550079
vt 0.967621 0.737885
vt 0.500244 0.850037
vt 0.578033 0.847931
vt 0.500244 0.802643
vt 0.840210 0.942871
vt 0.500244 0.663361
vt 0.500244 0.703186
vt 0.549377 0.643646
vt 0.500244 0.599335
vt 0.500244 0.627777
vt 0.500244 0.765259
vt 0.988007 0.988647
vt 0.988037 0.593323
vt 0.957031 0.957306
vt 0.618042 0.885986
vt 0.500244 0.868164
vt 0.500244 0.902771
vt 0.500244 0.935852
vt 0.569275 0.947235
vt 0.500244 0.968201
vt 0.560699 0.985443
vt 0.500244 0.987976
vt 0.658630 0.801300
vt 0.710175 0.699921
s 1
usemtl m_face85
f 1/1/1 2/2/2 3/3/3
f 4/2/4 5/1/5 3/3/3
f 6/4/6 7/5/7 8/6/8
f 9/7/9 10/8/10 11/9/11
f 12/10/12 13/11/13 14/12/14
f 15/13/15 16/14/16 17/15/17
f 18/16/18 19/17/19 20/18/20
f 21/19/21 22/20/22 23/21/23
f 23/21/23 22/20/22 9/7/9
f 23/21/23 9/7/9 11/9/11
f 24/4/24 4/2/4 25/22/25
f 25/22/25 4/2/4 3/3/3
f 26/23/26 27/24/27 28/25/28
f 2/2/2 1/1/1 7/5/7
f 29/15/29 30/14/30 31/13/31
f 32/26/32 33/25/33 34/27/34
f 27/24/27 35/8/35 36/28/36
f 5/1/5 4/2/4 37/5/37
f 37/5/37 4/2/4 24/4/24
f 37/5/37 24/4/24 38/6/38
f 39/18/39 40/17/40 41/16/41
f 7/5/7 6/4/6 2/2/2
f 2/2/2 6/4/6 42/22/42
f 2/2/2 42/22/42 3/3/3
f 33/25/33 43/12/43 44/10/44
f 44/10/44 43/12/43 45/11/45
f 46/29/46 47/30/47 48/31/48
f 48/31/48 47/30/47 20/18/20
f 48/31/48 20/18/20 16/14/16
f 16/14/16 20/18/20 19/17/19
f 16/14/16 19/17/19 17/15/17
f 29/15/29 40/17/40 30/14/30
f 30/14/30 40/17/40 39/18/39
f 30/14/30 39/18/39 49/31/49
f 49/31/49 39/18/39 50/30/50
f 49/31/49 50/30/50 51/29/51
f 52/32/52 22/20/22 53/33/53
f 53/33/53 22/20/22 21/19/21
f 53/33/53 21/19/21 54/20/54
f 54/20/54 21/19/21 23/21/23
f 54/20/54 23/21/23 55/7/55
f 55/7/55 23/21/23 11/9/11
f 56/34/56 57/32/57 58/35/58
f 58/35/58 57/32/57 59/36/59
f 58/35/58 59/36/59 60/37/60
f 60/37/60 59/36/59 61/38/61
f 60/37/60 61/38/61 62/39/62
f 12/10/12 10/8/10 13/11/13
f 13/11/13 10/8/10 63/40/63
f 13/11/13 63/40/63 64/41/64
f 64/41/64 63/40/63 38/6/38
f 64/41/64 38/6/38 15/13/15
f 15/13/15 38/6/38 24/4/24
f 15/13/15 24/4/24 16/14/16
f 16/14/16 24/4/24 25/22/25
f 16/14/16 25/22/25 48/31/48
f 48/31/48 25/22/25 3/3/3
f 48/31/48 3/3/3 46/29/46
f 51/29/51 3/3/3 49/31/49
f 49/31/49 3/3/3 42/22/42
f 49/31/49 42/22/42 30/14/30
f 30/14/30 42/22/42 6/4/6
f 30/14/30 6/4/6 31/13/31
f 31/13/31 6/4/6 8/6/8
f 31/13/31 8/6/8 65/41/65
f 65/41/65 8/6/8 66/40/66
f 65/41/65 66/40/66 45/11/45
f 45/11/45 66/40/66 35/8/35
f 45/11/45 35/8/35 44/10/44
f 44/10/44 35/8/35 27/24/27
f 44/10/44 27/24/27 33/25/33
f 33/25/33 27/24/27 26/23/26
f 33/25/33 26/23/26 34/27/34
f 34/27/34 26/23/26 28/25/28
f 34/27/34 28/25/28 32/26/32
f 10/8/10 9/7/9 63/40/63
f 63/40/63 9/7/9 22/20/22
f 63/40/63 22/20/22 38/6/38
f 38/6/38 22/20/22 52/32/52
f 38/6/38 52/32/52 37/5/37
f 37/5/37 52/32/52 67/36/67
f 37/5/37 67/36/67 5/1/5
f 5/1/5 67/36/67 68/38/68
f 5/1/5 68/38/68 3/3/3
f 14/12/14 28/25/28 12/10/12
f 12/10/12 28/25/28 27/24/27
f 12/10/12 27/24/27 10/8/10
f 10/8/10 27/24/27 36/28/36
f 10/8/10 36/28/36 11/9/11
f 11/9/11 36/28/36 35/8/35
f 11/9/11 35/8/35 55/7/55
f 55/7/55 35/8/35 66/40/66
f 55/7/55 66/40/66 54/20/54
f 54/20/54 66/40/66 8/6/8
f 54/20/54 8/6/8 57/32/57
f 57/32/57 8/6/8 7/5/7
f 57/32/57 7/5/7 59/36/59
f 59/36/59 7/5/7 1/1/1
f 59/36/59 1/1/1 61/38/61
f 61/38/61 1/1/1 3/3/3
f 61/38/61 3/3/3 62/39/62
f 62/39/62 3/3/3 68/38/68
f 62/39/62 68/38/68 60/37/60
f 60/37/60 68/38/68 67/36/67
f 60/37/60 67/36/67 58/35/58
f 58/35/58 67/36/67 52/32/52
f 58/35/58 52/32/52 56/34/56
f 56/34/56 52/32/52 53/33/53
f 56/34/56 53/33/53 57/32/57
f 57/32/57 53/33/53 54/20/54
o editpl_m-0000-142
v -6.193218 61.047935 3.615795
v -5.272092 59.283878 7.202455
v -3.717014 62.619202 6.400686
v -4.770891 52.147324 7.953411
v -5.778711 52.185883 6.316998
v -5.006591 50.196899 6.254232
v 6.927409 55.174175 0.347454
v 7.824153 56.199192 -1.170151
v 7.163109 53.779636 -2.317882
v 7.255222 49.923775 -1.247862
v 6.512903 50.248310 0.347454
v 8.574599 53.165913 -3.065850
v 8.590855 55.559761 -2.843925
v 7.824153 56.199192 -1.170151
v 4.846748 57.715832 7.745684
v 2.058988 57.837933 9.018199
v 4.066500 56.485168 9.010728
v 1.899145 56.478741 9.671271
v 2.175483 55.492283 8.433874
v 0.753156 55.418381 9.378361
v 8.590855 55.559761 -2.843925
v 8.574599 53.165913 -3.065850
v 5.881660 54.884983 5.573514
v 5.142050 54.775734 7.252518
v 5.469863 53.898525 6.548637
v 4.602921 54.203781 7.752409
v 4.770891 52.147324 7.953411
v 3.110155 52.462219 8.586308
v 7.255222 49.923775 -1.247862
v 6.512903 50.248310 0.347454
v 6.927409 55.174175 0.347454
v 5.778711 52.185883 6.316998
v 6.572505 52.532909 4.153048
v 6.927409 55.174175 0.347454
v 0.000000 55.402313 9.707138
v 0.000000 56.478741 10.096440
v -0.750447 55.418381 9.378361
v -6.512903 50.248310 0.347454
v -6.927409 55.174175 0.347454
v -7.824153 56.199192 -1.170151
v -7.163109 53.779636 -2.317882
v -7.824153 56.199192 -1.170151
v -6.927409 55.174175 0.347454
v -6.512903 50.248310 0.347454
v -7.255222 49.923775 -1.247862
v -3.884984 50.193684 8.134986
v -3.107446 52.462219 8.586308
v -4.600212 54.203781 7.752409
v -6.927409 55.174175 0.347454
v -7.390682 58.499855 -1.933811
v -7.163109 53.779636 -2.317882
v -6.466846 58.175320 3.896751
v -2.175483 55.492283 8.433874
v -3.283543 54.833572 8.329263
v -2.248631 54.216637 8.274716
v -8.574599 53.165913 -3.065850
v -8.590855 55.559761 -2.843925
v -7.255222 49.923775 -1.247862
v -8.574599 53.165913 -3.065850
v -8.590855 55.559761 -2.843925
v 6.466846 58.175320 3.896751
v 5.212489 56.167061 7.943696
v 4.600212 55.456936 7.898864
v 3.286252 54.833572 8.329263
v 2.251340 54.216637 8.274716
v 1.714920 52.773899 9.125800
v 1.891017 51.427563 8.946467
v 0.715227 52.099125 10.695711
v 0.910289 51.360085 10.730083
v 0.000000 51.973808 11.254631
v -1.552368 54.576515 8.471982
v -1.896436 56.478741 9.671271
v 0.000000 57.757603 9.533782
v 2.543933 50.068371 8.655051
v 3.887694 50.193684 8.134986
v 5.006591 50.196899 6.254232
v -5.878951 54.884983 5.573514
v -6.569796 52.532909 4.153048
v -5.469863 53.898525 6.548637
v 0.000000 62.905178 7.103820
v -2.749832 59.595562 8.460026
v -4.846748 57.715832 7.745684
v -5.212489 56.167061 7.943696
v -5.142050 54.775734 7.252518
v 1.552368 54.576515 8.471982
v 0.883197 54.155582 9.802782
v 0.000000 52.622879 10.751752
v -0.715227 52.099125 10.695711
v -0.907580 51.360085 10.730083
v -1.901854 51.427563 8.946467
v 0.000000 54.406216 10.328825
v -0.883197 54.155582 9.802782
v -1.712211 52.773899 9.125800
v 5.272092 59.283878 7.202455
v 2.749832 59.595562 8.460026
v 0.000000 59.701599 9.199027
v -2.058988 57.837933 9.018199
v -4.066500 56.485168 9.010728
v -4.597502 55.456936 7.898864
v 3.763071 62.619202 6.400686
v 6.193218 61.047935 3.615795
v 7.390682 58.499855 -1.933811
v -2.543933 50.068371 8.655051
v 7.163109 53.779636 -2.317882
vn -0.9252 0.2352 0.2979
vn -0.7708 0.2202 0.5978
vn -0.4957 0.4800 0.7238
vn -0.7131 -0.0705 0.6975
vn -0.8966 -0.1494 0.4169
vn -0.8650 -0.2674 0.4246
vn -0.8896 0.3700 -0.2677
vn -0.8242 0.4082 -0.3925
vn -0.7699 0.1100 -0.6286
vn -0.5188 -0.4559 -0.7231
vn 0.9602 -0.1810 0.2125
vn 0.8917 -0.0782 0.4458
vn 0.9045 -0.0393 0.4247
vn 0.8879 -0.0629 0.4558
vn 0.6697 0.2206 0.7091
vn 0.2986 0.3065 0.9038
vn 0.4391 -0.1489 0.8860
vn 0.2973 -0.1252 0.9466
vn 0.2761 -0.3786 0.8834
vn 0.5275 -0.1102 0.8424
vn -0.6187 0.2741 -0.7362
vn -0.4957 -0.0708 -0.8656
vn 0.9493 -0.0157 0.3138
vn 0.7790 -0.1888 0.5980
vn 0.8780 0.0235 0.4782
vn 0.5268 -0.0393 0.8491
vn 0.7131 -0.0705 0.6975
vn 0.3392 0.0631 0.9386
vn -0.5188 -0.4559 -0.7232
vn 0.9602 -0.1810 0.2126
vn 0.9803 -0.0235 0.1961
vn 0.8966 -0.1494 0.4169
vn 0.9709 -0.0469 0.2349
vn -0.0000 0.1096 0.9940
vn -0.0000 -0.1337 0.9910
vn -0.5275 -0.1102 0.8424
vn -0.9602 -0.1810 0.2126
vn -0.9803 -0.0235 0.1961
vn -0.8879 -0.0629 0.4557
vn 0.7699 0.1100 -0.6286
vn 0.8242 0.4082 -0.3925
vn 0.8896 0.3700 -0.2677
vn 0.5188 -0.4559 -0.7232
vn -0.5562 -0.1645 0.8146
vn -0.3390 0.0710 0.9381
vn -0.5268 -0.0393 0.8491
vn -0.9803 -0.0235 0.1960
vn -0.9899 -0.0000 0.1414
vn -0.9915 -0.0551 0.1180
vn -0.9634 0.0313 0.2663
vn -0.2761 -0.3786 0.8834
vn -0.1965 -0.1100 0.9743
vn -0.2587 0.0549 0.9644
vn 0.4957 -0.0708 -0.8656
vn 0.6187 0.2742 -0.7362
vn 0.5188 -0.4559 -0.7231
vn -0.8917 -0.0782 0.4458
vn -0.9045 -0.0393 0.4247
vn 0.9634 0.0313 0.2663
vn 0.8001 -0.1177 0.5883
vn 0.4257 -0.2838 0.8592
vn 0.1964 -0.1100 0.9743
vn 0.2587 0.0549 0.9644
vn 0.6371 0.1888 0.7473
vn 0.6585 -0.0000 0.7526
vn 0.6694 0.2677 0.6930
vn 0.6692 -0.3228 0.6693
vn -0.0000 0.3443 0.9389
vn -0.6127 0.0864 0.7856
vn -0.2973 -0.1251 0.9466
vn -0.0000 0.3304 0.9439
vn 0.4876 -0.0000 0.8731
vn 0.5562 -0.1645 0.8146
vn 0.8650 -0.2674 0.4247
vn -0.9493 -0.0157 0.3138
vn -0.9709 -0.0469 0.2349
vn -0.8780 0.0235 0.4782
vn -0.0000 0.5328 0.8462
vn -0.3383 0.3304 0.8811
vn -0.6697 0.2206 0.7091
vn -0.8001 -0.1177 0.5883
vn -0.7789 -0.1888 0.5980
vn 0.6127 0.0864 0.7856
vn 0.6657 0.2663 0.6971
vn -0.0000 0.4156 0.9096
vn -0.6694 0.2678 0.6930
vn -0.6693 -0.3228 0.6692
vn -0.6585 -0.0000 0.7526
vn -0.0000 0.3863 0.9224
vn -0.6657 0.2663 0.6971
vn -0.6371 0.1888 0.7473
vn 0.7708 0.2202 0.5978
vn 0.3383 0.3304 0.8811
vn -0.0000 0.3139 0.9495
vn -0.2986 0.3065 0.9038
vn -0.4391 -0.1489 0.8860
vn -0.4257 -0.2838 0.8592
vn 0.4975 0.4739 0.7266
vn 0.9268 0.2278 0.2985
vn 0.9899 -0.0000 0.1414
vn -0.4876 -0.0000 0.8731
vn 0.9915 -0.0551 0.1180
vt 0.779938 0.012451
vt 0.803436 0.136566
vt 0.654266 0.012451
vt 0.763794 0.578430
vt 0.847687 0.575500
vt 0.791321 0.738800
vt 0.032990 0.610321
vt 0.014496 0.586975
vt 0.032990 0.621338
vt 0.018372 0.654877
vt 0.032990 0.658783
vt 0.013123 0.541260
vt 0.013123 0.373413
vt 0.036835 0.373413
vt 0.736115 0.252258
vt 0.604340 0.260498
vt 0.741180 0.313873
vt 0.617798 0.332336
vt 0.636536 0.366974
vt 0.558746 0.392731
vt 0.012115 0.602661
vt 0.012115 0.626709
vt 0.925415 0.386566
vt 0.828979 0.417755
vt 0.833527 0.495056
vt 0.781647 0.461639
vt 0.675201 0.567688
vt 0.053650 0.654327
vt 0.129089 0.654327
vt 0.129089 0.479553
vt 0.914154 0.550079
vt 0.975433 0.377716
vt 0.500244 0.408875
vt 0.500244 0.341370
vt 0.710175 0.699921
vt 0.987183 0.012665
vt 0.991272 0.593933
vt 0.929474 0.177826
vt 0.713470 0.421997
vt 0.651245 0.461639
vt 0.839569 0.317383
vt 0.782043 0.377411
vt 0.597870 0.556213
vt 0.594360 0.633026
vt 0.549103 0.581848
vt 0.549377 0.643646
vt 0.500244 0.599335
vt 0.605347 0.445251
vt 0.500244 0.265411
vt 0.626923 0.745758
vt 0.500244 0.012451
vt 0.653961 0.120422
vt 0.549347 0.493622
vt 0.500244 0.567261
vt 0.500244 0.490997
vt 0.500244 0.120239
s 1
usemtl m_face85
f 69/42/69 70/43/70 71/44/71
f 72/45/72 73/46/73 74/47/74
f 75/48/75 76/49/76 77/50/77
f 77/50/77 78/51/78 79/52/79
f 80/53/80 81/54/81 82/55/82
f 83/56/83 84/57/84 85/58/85
f 85/58/85 84/57/84 86/59/86
f 85/58/85 86/59/86 87/60/87
f 87/60/87 86/59/86 88/61/88
f 76/49/76 89/62/89 77/50/77
f 77/50/77 89/62/89 90/63/90
f 77/50/77 90/63/90 78/51/78
f 91/64/91 92/65/92 93/66/93
f 93/66/93 92/65/92 94/67/94
f 93/66/93 94/67/94 95/45/95
f 95/45/95 94/67/94 96/68/96
f 97/69/97 80/53/80 98/70/98
f 98/70/98 80/53/80 82/55/82
f 98/70/98 82/55/82 99/71/99
f 95/45/95 100/46/100 93/66/93
f 93/66/93 100/46/100 101/72/101
f 93/66/93 101/72/101 91/64/91
f 91/64/91 101/72/101 102/73/99
f 103/74/102 104/75/103 105/61/104
f 106/70/105 107/71/106 108/55/107
f 109/50/108 110/49/109 111/48/110
f 112/52/105 113/51/111 109/50/108
f 74/47/74 114/76/112 72/45/72
f 72/45/72 114/76/112 115/68/113
f 72/45/72 115/68/113 116/67/114
f 117/73/115 118/77/116 119/78/117
f 70/43/70 69/42/69 120/79/118
f 121/60/119 122/80/120 123/81/121
f 113/51/111 124/63/122 109/50/108
f 109/50/108 124/63/122 125/62/123
f 109/50/108 125/62/123 110/49/109
f 126/69/124 106/70/105 127/53/125
f 127/53/125 106/70/105 108/55/107
f 127/53/125 108/55/107 128/54/126
f 129/79/127 83/56/83 130/82/128
f 130/82/128 83/56/83 85/58/85
f 130/82/128 85/58/85 131/83/129
f 131/83/129 85/58/85 87/60/87
f 131/83/129 87/60/87 132/80/130
f 94/67/94 133/81/131 96/68/96
f 96/68/96 133/81/131 134/84/132
f 96/68/96 134/84/132 135/85/133
f 135/85/133 134/84/132 136/86/134
f 135/85/133 136/86/134 137/87/135
f 137/87/135 136/86/134 138/88/136
f 123/81/121 139/89/137 121/60/119
f 121/60/119 139/89/137 105/61/104
f 121/60/119 105/61/104 140/59/138
f 140/59/138 105/61/104 104/75/103
f 140/59/138 104/75/103 141/90/139
f 135/85/133 142/91/140 96/68/96
f 96/68/96 142/91/140 143/76/141
f 96/68/96 143/76/141 95/45/95
f 95/45/95 143/76/141 144/47/142
f 95/45/95 144/47/142 100/46/100
f 69/42/69 118/77/116 120/79/118
f 120/79/118 118/77/116 117/73/115
f 120/79/118 117/73/115 145/64/143
f 145/64/143 117/73/115 146/72/144
f 145/64/143 146/72/144 147/66/145
f 147/66/145 146/72/144 73/46/73
f 148/92/146 71/44/71 149/93/147
f 149/93/147 71/44/71 70/43/70
f 149/93/147 70/43/70 150/56/148
f 150/56/148 70/43/70 120/79/118
f 150/56/148 120/79/118 151/82/149
f 151/82/149 120/79/118 145/64/143
f 151/82/149 145/64/143 152/65/150
f 152/65/150 145/64/143 147/66/145
f 133/81/131 153/89/151 134/84/132
f 134/84/132 153/89/151 154/94/152
f 134/84/132 154/94/152 136/86/134
f 136/86/134 154/94/152 155/95/153
f 136/86/134 155/95/153 138/88/136
f 138/88/136 155/95/153 156/86/154
f 138/88/136 156/86/154 157/87/155
f 157/87/155 156/86/154 158/85/156
f 84/57/84 141/90/139 86/59/86
f 86/59/86 141/90/139 104/75/103
f 86/59/86 104/75/103 88/61/88
f 88/61/88 104/75/103 103/74/102
f 88/61/88 103/74/102 159/96/157
f 159/96/157 103/74/102 105/61/104
f 159/96/157 105/61/104 160/94/158
f 160/94/158 105/61/104 139/89/137
f 160/94/158 139/89/137 161/84/159
f 161/84/159 139/89/137 123/81/121
f 129/79/127 162/43/160 83/56/83
f 83/56/83 162/43/160 163/93/161
f 83/56/83 163/93/161 84/57/84
f 84/57/84 163/93/161 164/97/162
f 84/57/84 164/97/162 141/90/139
f 141/90/139 164/97/162 165/57/163
f 141/90/139 165/57/163 140/59/138
f 140/59/138 165/57/163 166/58/164
f 140/59/138 166/58/164 121/60/119
f 121/60/119 166/58/164 167/83/165
f 121/60/119 167/83/165 122/80/120
f 122/80/120 167/83/165 116/67/114
f 122/80/120 116/67/114 123/81/121
f 123/81/121 116/67/114 115/68/113
f 123/81/121 115/68/113 161/84/159
f 73/46/73 72/45/72 147/66/145
f 147/66/145 72/45/72 116/67/114
f 147/66/145 116/67/114 152/65/150
f 152/65/150 116/67/114 167/83/165
f 152/65/150 167/83/165 151/82/149
f 151/82/149 167/83/165 166/58/164
f 151/82/149 166/58/164 150/56/148
f 150/56/148 166/58/164 165/57/163
f 150/56/148 165/57/163 149/93/147
f 149/93/147 165/57/163 164/97/162
f 149/93/147 164/97/162 148/92/146
f 148/92/146 164/97/162 163/93/161
f 148/92/146 163/93/161 168/44/166
f 168/44/166 163/93/161 162/43/160
f 168/44/166 162/43/160 169/42/167
f 169/42/167 162/43/160 129/79/127
f 169/42/167 129/79/127 170/77/168
f 114/76/112 171/91/169 115/68/113
f 115/68/113 171/91/169 158/85/156
f 115/68/113 158/85/156 161/84/159
f 161/84/159 158/85/156 156/86/154
f 161/84/159 156/86/154 160/94/158
f 160/94/158 156/86/154 155/95/153
f 160/94/158 155/95/153 159/96/157
f 159/96/157 155/95/153 154/94/152
f 159/96/157 154/94/152 88/61/88
f 88/61/88 154/94/152 153/89/151
f 88/61/88 153/89/151 87/60/87
f 87/60/87 153/89/151 133/81/131
f 87/60/87 133/81/131 132/80/130
f 132/80/130 133/81/131 94/67/94
f 132/80/130 94/67/94 131/83/129
f 131/83/129 94/67/94 92/65/92
f 131/83/129 92/65/92 130/82/128
f 130/82/128 92/65/92 91/64/91
f 130/82/128 91/64/91 129/79/127
f 129/79/127 91/64/91 102/73/99
f 129/79/127 102/73/99 170/77/168
f 170/77/168 102/73/99 172/78/170
