mtllib face_15.mtl
o editpl_m-0000-143
v 0.000000 50.685307 10.081495
v 1.200173 51.594650 10.680766
v 0.000000 51.058041 10.993104
v -1.460256 47.819118 9.499411
v -1.912691 46.614159 8.198501
v 0.000000 47.253590 9.612988
v 6.374734 50.248310 0.347454
v 4.199251 46.405300 0.298884
v 7.163109 53.779636 -2.317882
v 3.578845 46.463139 6.184741
v 3.316054 45.386711 5.773770
v 5.228745 46.877644 2.314885
v 2.077952 45.396351 8.300869
v 2.552061 46.318542 7.749421
v 1.912691 46.614159 8.198501
v 0.000000 48.802361 10.009015
v 1.362725 49.563896 10.186106
v 0.000000 49.467499 10.376647
v 2.197156 44.425957 7.377305
v 0.000000 44.303856 3.787658
v 2.050860 51.151226 9.066023
v -2.871746 48.259327 8.236609
v 0.000000 46.456711 8.988312
v -2.077952 45.396351 8.300869
v 0.000000 45.136082 8.996531
v -5.228745 46.877644 2.314885
v -4.199251 46.405300 0.298884
v -3.316054 45.386711 5.773770
v -5.101413 50.604977 6.308032
v -4.630013 48.840919 6.691356
v -4.245307 50.653175 7.599229
v -3.578845 46.463139 6.184741
v -5.182688 47.742001 4.253175
v -5.968355 50.392906 3.392377
v -6.006283 47.979778 0.747217
v -6.374734 50.248310 0.347454
v -7.163109 53.779636 -2.317882
v 0.000000 44.265297 8.293397
v -2.197156 44.425957 7.377305
v -1.362725 49.563896 10.186106
v -1.229974 48.654552 9.119823
v 0.000000 47.889809 9.766169
v 1.460256 47.819118 9.499411
v 6.006283 47.979778 0.747217
v 5.182688 47.742001 4.253175
v 4.630013 48.840919 6.691356
v 3.717014 47.417465 7.553648
v 3.744106 49.641010 7.916050
v 2.871746 48.259327 8.236609
v 1.229974 48.654552 9.119823
v 0.000000 48.497105 9.320826
v -2.552061 46.318542 7.749421
v -3.717014 47.417465 7.553648
v -3.744106 49.641010 7.916050
v -2.050860 51.151226 9.066023
v -1.200173 51.594650 10.680766
v 0.000000 51.610714 11.356254
v 5.968355 50.392906 3.392377
v 5.101413 50.604977 6.308032
v 4.245307 50.653175 7.599229
vn -0.0000 -0.3442 0.9389
vn 0.6307 -0.2759 0.7253
vn -0.0000 -0.7708 0.6371
vn -0.4235 -0.0863 0.9018
vn -0.4805 -0.2914 0.8271
vn -0.0000 -0.5179 0.8554
vn 0.9658 -0.2591 -0.0000
vn 0.6209 -0.6995 -0.3537
vn -0.4876 0.0079 -0.8730
vn 0.8341 -0.4092 0.3699
vn 0.6737 -0.7364 0.0627
vn 0.7942 -0.5976 0.1101
vn 0.5672 -0.2127 0.7956
vn 0.6898 -0.2430 0.6820
vn 0.4805 -0.2914 0.8271
vn -0.0000 -0.7526 0.6585
vn 0.4013 -0.2203 0.8891
vn -0.0000 -0.1260 0.9920
vn 0.5963 -0.7454 0.2981
vn -0.0000 -0.9931 -0.1173
vn 0.6285 0.0079 0.7778
vn -0.5423 -0.2515 0.8016
vn -0.0000 -0.1645 0.9864
vn -0.5672 -0.2127 0.7956
vn -0.0000 -0.3304 0.9438
vn -0.7942 -0.5976 0.1101
vn -0.6209 -0.6995 -0.3537
vn -0.6737 -0.7364 0.0627
vn -0.8705 -0.2509 0.4235
vn -0.8510 -0.2443 0.4649
vn -0.6536 -0.1575 0.7402
vn -0.8341 -0.4092 0.3699
vn -0.9031 -0.3299 0.2749
vn -0.9470 -0.2348 0.2192
vn -0.9147 -0.3864 -0.1183
vn -0.9658 -0.2592 -0.0000
vn 0.4877 0.0077 -0.8730
vn -0.0000 -0.8404 0.5419
vn -0.5963 -0.7454 0.2981
vn -0.4013 -0.2203 0.8891
vn -0.3213 -0.2038 0.9248
vn -0.0000 0.2902 0.9570
vn 0.4235 -0.0863 0.9018
vn 0.9147 -0.3864 -0.1183
vn 0.9031 -0.3299 0.2749
vn 0.8510 -0.2443 0.4649
vn 0.6614 -0.3386 0.6693
vn 0.6686 -0.0787 0.7394
vn 0.5423 -0.2515 0.8016
vn 0.3213 -0.2038 0.9248
vn -0.0000 -0.2444 0.9697
vn -0.6898 -0.2430 0.6820
vn -0.6614 -0.3386 0.6693
vn -0.6686 -0.0787 0.7394
vn -0.6285 0.0079 0.7778
vn -0.6307 -0.2759 0.7253
vn -0.0000 -0.1734 0.9849
vn 0.9470 -0.2348 0.2191
vn 0.8705 -0.2509 0.4235
vn 0.6536 -0.1575 0.7402
vt 0.497498 0.662628
vt 0.443817 0.594421
vt 0.497498 0.635620
vt 0.423767 0.806549
vt 0.394470 0.880585
vt 0.494293 0.835083
vt 0.012177 0.683441
vt 0.012177 0.987274
vt 0.012177 0.504211
vt 0.235657 0.909393
vt 0.298248 0.970734
vt 0.130829 0.940704
vt 0.412598 0.936554
vt 0.342865 0.900330
vt 0.493958 0.744812
vt 0.431580 0.699738
vt 0.497498 0.704987
vt 0.386414 0.969330
vt 0.489594 0.987274
vt 0.399506 0.601471
vt 0.358887 0.759216
vt 0.489594 0.888885
vt 0.489594 0.938843
vt 0.179138 0.671204
vt 0.253265 0.754669
vt 0.278351 0.652527
vt 0.145935 0.835938
vt 0.099182 0.681824
vt 0.066956 0.886261
vt 0.489594 0.969330
vt 0.448425 0.743713
vt 0.493774 0.807007
vt 0.301727 0.843750
vt 0.306458 0.717499
vt 0.493774 0.757782
vt 0.497498 0.593292
s 1
usemtl m_face86
f 1/1/1 2/2/2 3/3/3
f 4/4/4 5/5/5 6/6/6
f 7/7/7 8/8/8 9/9/9
f 10/10/10 11/11/11 12/12/12
f 12/12/12 11/11/11 8/8/8
f 13/13/13 14/14/14 15/5/15
f 16/15/16 17/16/17 18/17/18
f 10/10/10 19/18/19 11/11/11
f 11/11/11 19/18/19 20/19/20
f 11/11/11 20/19/20 8/8/8
f 2/2/2 1/1/1 21/20/21
f 5/5/5 4/4/4 22/21/22
f 23/22/23 24/13/24 25/23/25
f 26/12/26 27/8/27 28/11/28
f 28/11/28 27/8/27 20/19/20
f 29/24/29 30/25/30 31/26/31
f 32/10/32 30/25/30 33/27/33
f 33/27/33 30/25/30 29/24/29
f 33/27/33 29/24/29 34/28/34
f 26/12/26 35/29/35 27/8/27
f 27/8/27 35/29/35 36/7/36
f 27/8/27 36/7/36 37/9/37
f 15/5/15 23/22/23 13/13/13
f 13/13/13 23/22/23 25/23/25
f 13/13/13 25/23/25 38/30/38
f 38/30/38 25/23/25 24/13/24
f 38/30/38 24/13/24 39/18/39
f 39/18/39 24/13/24 32/10/32
f 40/16/40 22/21/22 41/31/41
f 41/31/41 22/21/22 4/4/4
f 41/31/41 4/4/4 42/32/42
f 42/32/42 4/4/4 6/6/6
f 42/32/42 6/6/6 43/4/43
f 8/8/8 44/29/44 12/12/12
f 12/12/12 44/29/44 45/27/45
f 12/12/12 45/27/45 10/10/10
f 10/10/10 45/27/45 46/25/46
f 10/10/10 46/25/46 47/33/47
f 47/33/47 46/25/46 48/34/48
f 47/33/47 48/34/48 49/21/49
f 49/21/49 48/34/48 17/16/17
f 49/21/49 17/16/17 50/31/50
f 50/31/50 17/16/17 16/15/16
f 50/31/50 16/15/16 51/35/51
f 52/14/52 5/5/5 53/33/53
f 53/33/53 5/5/5 22/21/22
f 53/33/53 22/21/22 54/34/54
f 54/34/54 22/21/22 40/16/40
f 54/34/54 40/16/40 55/20/55
f 55/20/55 40/16/40 1/1/1
f 55/20/55 1/1/1 56/2/56
f 56/2/56 1/1/1 3/3/3
f 56/2/56 3/3/3 57/36/57
f 57/36/57 3/3/3 2/2/2
f 55/20/55 31/26/31 54/34/54
f 54/34/54 31/26/31 30/25/30
f 54/34/54 30/25/30 53/33/53
f 53/33/53 30/25/30 32/10/32
f 53/33/53 32/10/32 52/14/52
f 52/14/52 32/10/32 24/13/24
f 52/14/52 24/13/24 5/5/5
f 5/5/5 24/13/24 23/22/23
f 5/5/5 23/22/23 6/6/6
f 6/6/6 23/22/23 15/5/15
f 6/6/6 15/5/15 43/4/43
f 8/8/8 7/7/7 44/29/44
f 44/29/44 7/7/7 58/28/58
f 44/29/44 58/28/58 45/27/45
f 45/27/45 58/28/58 59/24/59
f 45/27/45 59/24/59 46/25/46
f 46/25/46 59/24/59 60/26/60
f 46/25/46 60/26/60 48/34/48
f 48/34/48 60/26/60 21/20/21
f 48/34/48 21/20/21 17/16/17
f 17/16/17 21/20/21 1/1/1
f 17/16/17 1/1/1 18/17/18
f 18/17/18 1/1/1 40/16/40
f 18/17/18 40/16/40 16/15/16
f 16/15/16 40/16/40 41/31/41
f 16/15/16 41/31/41 51/35/51
f 51/35/51 41/31/41 42/32/42
f 51/35/51 42/32/42 50/31/50
f 50/31/50 42/32/42 43/4/43
f 50/31/50 43/4/43 49/21/49
f 49/21/49 43/4/43 15/5/15
f 49/21/49 15/5/15 47/33/47
f 47/33/47 15/5/15 14/14/14
f 47/33/47 14/14/14 10/10/10
f 10/10/10 14/14/14 13/13/13
f 10/10/10 13/13/13 19/18/19
f 19/18/19 13/13/13 38/30/38
f 19/18/19 38/30/38 20/19/20
f 20/19/20 38/30/38 39/18/39
f 20/19/20 39/18/39 28/11/28
f 28/11/28 39/18/39 32/10/32
f 28/11/28 32/10/32 26/12/26
f 26/12/26 32/10/32 33/27/33
f 26/12/26 33/27/33 35/29/35
f 35/29/35 33/27/33 34/28/34
f 35/29/35 34/28/34 36/7/36
o editpl_m-0000-144
v 0.978019 55.852161 9.755707
v 2.446402 56.215256 9.468027
v 2.151100 58.011448 9.225927
v -7.824153 56.199192 -1.170151
v -7.163109 53.779636 -2.317882
v -8.590855 55.559761 -2.843925
v -6.959920 55.174175 0.347454
v -7.390682 58.499855 -1.933811
v -7.163109 53.779636 -2.317882
v -3.153502 52.709637 8.525035
v -2.050860 51.151226 9.066023
v -1.777231 52.896004 9.187072
v 2.294687 55.392673 8.451807
v 0.642079 55.055286 9.140745
v 1.408781 54.521893 8.364382
v -0.815467 53.782848 10.162942
v -1.200173 51.594650 10.680766
v 4.101720 54.531528 7.972092
v 3.167048 55.084206 8.518311
v 2.281141 54.444775 8.381569
v 7.182074 50.257950 -1.247862
v 8.436430 53.165913 -3.065850
v 6.374734 50.248310 0.347454
v 6.959920 55.174175 0.347454
v 7.824153 56.199192 -1.170151
v 8.590855 55.559761 -2.843925
v 6.959920 55.174175 0.347454
v 7.824153 56.199192 -1.170151
v 7.163109 53.779636 -2.317882
v 8.590855 55.559761 -2.843925
v 6.466846 58.175320 3.896751
v 7.390682 58.499855 -1.933811
v 6.193218 61.047935 3.615795
v 8.436430 53.165913 -3.065850
v 7.182074 50.257950 -1.247862
v 6.374734 50.248310 0.347454
v 4.394313 57.988953 8.040089
v 4.871131 59.512020 7.470707
v 2.717322 59.820488 8.927039
v 3.717014 62.619202 6.400686
v 0.000000 62.905178 7.103820
v -2.281141 54.444775 8.381569
v -3.167048 55.084206 8.518311
v -4.101720 54.531528 7.972092
v -2.446402 56.215256 9.468027
v -4.394313 57.988953 8.040089
v -4.369930 56.828983 8.767882
v -6.374734 50.248310 0.347454
v -8.436430 53.165913 -3.065850
v -7.182074 50.257950 -1.247862
v -8.590855 55.559761 -2.843925
v -7.824153 56.199192 -1.170151
v -6.959920 55.174175 0.347454
v -6.959920 55.174175 0.347454
v -2.717322 59.820488 8.927039
v -2.151100 58.011448 9.225927
v 0.000000 59.762650 9.333527
v -6.193218 61.047935 3.615795
v -6.466846 58.175320 3.896751
v -6.374734 50.248310 0.347454
v -7.182074 50.257950 -1.247862
v -8.436430 53.165913 -3.065850
v 0.000000 52.298344 11.184393
v 0.000000 51.610714 11.356254
v 1.200173 51.594650 10.680766
v 5.968355 50.392906 3.392377
v 5.811221 52.494350 6.450004
v 5.101413 50.604977 6.308032
v 4.841330 52.439724 7.800231
v 4.245307 50.653175 7.599229
v 3.153502 52.709637 8.525035
v 2.050860 51.151226 9.066023
v 1.777231 52.896004 9.187072
v 0.815467 53.782848 10.162942
v 4.071919 55.389462 8.081933
v 4.898223 54.788589 7.306318
v 5.280219 56.311653 7.757639
v 5.911462 55.132401 5.561558
v 6.959920 55.174175 0.347454
v 7.163109 53.779636 -2.317882
v -2.151100 58.011448 9.225927
v -0.978019 55.852161 9.755707
v 0.000000 55.154896 9.336516
v -0.642079 55.055286 9.140745
v 0.000000 54.280899 10.182370
v -4.841330 52.439724 7.800231
v -5.673052 53.590057 6.805680
v -5.811221 52.494350 6.450004
v -6.515612 53.066303 4.377214
v -3.717014 62.619202 6.400686
v 4.369930 56.828983 8.767882
v -5.911462 55.132401 5.561558
v -5.280219 56.311653 7.757639
v -4.898223 54.788589 7.306318
v -4.071919 55.389462 8.081933
v -4.245307 50.653175 7.599229
v -5.101413 50.604977 6.308032
v -5.968355 50.392906 3.392377
v -6.374734 50.248310 0.347454
v 6.374734 50.248310 0.347454
v 6.515612 53.066303 4.377214
v 5.673052 53.590057 6.805680
v -4.871131 59.512020 7.470707
v -0.978019 55.852161 9.755707
v -2.294687 55.392673 8.451807
v -1.408781 54.521893 8.364382
vn 0.1255 -0.3137 0.9412
vn 0.3299 -0.2985 0.8956
vn 0.2040 0.1098 0.9728
vn 0.8267 0.4094 -0.3858
vn 0.4876 0.0079 -0.8730
vn 0.6279 0.2904 -0.7221
vn -0.9844 0.0315 0.1732
vn -0.9899 0.0079 0.1414
vn -0.4021 0.0394 0.9147
vn -0.6285 0.0079 0.7778
vn -0.5266 0.2594 0.8096
vn 0.1882 -0.3059 0.9333
vn 0.5041 -0.1496 0.8506
vn 0.4863 0.1804 0.8550
vn -0.6590 0.3766 0.6511
vn -0.6307 -0.2760 0.7253
vn 0.4783 -0.0157 0.8781
vn 0.2036 -0.0000 0.9790
vn 0.1335 0.0550 0.9895
vn -0.5264 -0.4478 -0.7228
vn 0.8889 -0.0944 0.4484
vn 0.9658 -0.2591 -0.0000
vn 0.9844 0.0315 0.1733
vn 0.8913 -0.1025 0.4417
vn 0.8920 -0.0947 0.4420
vn 0.9844 0.0315 0.1732
vn -0.8267 0.4094 -0.3858
vn -0.4877 0.0078 -0.8730
vn -0.6279 0.2904 -0.7221
vn 0.9559 0.0470 0.2899
vn 0.9899 0.0079 0.1414
vn 0.9166 0.2272 0.3290
vn -0.5261 -0.0628 -0.8481
vn 0.6379 0.2126 0.7402
vn 0.7856 0.2121 0.5813
vn 0.3545 0.3309 0.8745
vn 0.5263 0.5264 0.6677
vn -0.0000 0.6063 0.7952
vn -0.1335 0.0550 0.9895
vn -0.2036 -0.0000 0.9790
vn -0.4783 -0.0157 0.8781
vn -0.3299 -0.2985 0.8956
vn -0.6379 0.2126 0.7402
vn -0.5510 -0.0157 0.8344
vn -0.9658 -0.2592 -0.0000
vn -0.8889 -0.0944 0.4484
vn 0.5264 -0.4478 -0.7228
vn -0.8920 -0.0947 0.4420
vn -0.8913 -0.1025 0.4417
vn -0.9844 0.0315 0.1733
vn -0.3545 0.3309 0.8745
vn -0.2040 0.1098 0.9728
vn -0.0000 0.2758 0.9612
vn -0.9166 0.2272 0.3290
vn -0.9559 0.0470 0.2899
vn 0.5261 -0.0628 -0.8481
vn -0.0000 0.3442 0.9389
vn -0.0000 -0.1733 0.9849
vn 0.6307 -0.2760 0.7253
vn 0.9470 -0.2348 0.2191
vn 0.8906 -0.2128 0.4020
vn 0.8705 -0.2510 0.4235
vn 0.6610 -0.1259 0.7397
vn 0.6536 -0.1575 0.7403
vn 0.4021 0.0394 0.9147
vn 0.6285 0.0079 0.7778
vn 0.5266 0.2594 0.8096
vn 0.6590 0.3766 0.6511
vn 0.4578 -0.2526 0.8524
vn 0.7166 -0.0788 0.6930
vn 0.8091 -0.0864 0.5813
vn 0.9436 0.0236 0.3303
vn -0.4876 0.0079 -0.8730
vn -0.2039 0.1098 0.9728
vn -0.1255 -0.3137 0.9412
vn -0.0000 -0.1260 0.9920
vn -0.5041 -0.1496 0.8506
vn -0.0000 0.6063 0.7953
vn -0.6610 -0.1259 0.7397
vn -0.8247 0.0943 0.5576
vn -0.8906 -0.2128 0.4019
vn -0.9756 -0.0551 0.2124
vn -0.5264 0.5263 0.6678
vn 0.5510 -0.0157 0.8344
vn -0.9436 0.0236 0.3303
vn -0.8091 -0.0864 0.5813
vn -0.7166 -0.0788 0.6930
vn -0.4578 -0.2526 0.8524
vn -0.6536 -0.1575 0.7403
vn -0.8705 -0.2510 0.4235
vn -0.9470 -0.2348 0.2191
vn -0.9658 -0.2591 -0.0000
vn 0.9659 -0.2591 -0.0000
vn 0.9756 -0.0551 0.2124
vn 0.8247 0.0943 0.5576
vn -0.7856 0.2121 0.5813
vn -0.1255 -0.3138 0.9412
vn -0.1883 -0.3059 0.9333
vn -0.4863 0.1804 0.8550
vt 0.439331 0.334351
vt 0.383728 0.324829
vt 0.399658 0.205780
vt 0.902100 0.367096
vt 0.898682 0.403442
vt 0.908051 0.383026
vt 0.011658 0.387421
vt 0.011719 0.233948
vt 0.011719 0.504608
vt 0.322144 0.523743
vt 0.399506 0.601471
vt 0.386322 0.518677
vt 0.356506 0.384247
vt 0.450500 0.374237
vt 0.408020 0.413483
vt 0.443146 0.484375
vt 0.443817 0.594421
vt 0.268921 0.426544
vt 0.316040 0.394592
vt 0.359009 0.427917
vt 0.905121 0.636536
vt 0.979736 0.545349
vt 0.872345 0.620270
vt 0.872345 0.420105
vt 0.969116 0.315857
vt 0.985565 0.385742
vt 0.883118 0.380188
vt 0.099243 0.257263
vt 0.082092 0.085846
vt 0.906830 0.416870
vt 0.888550 0.436218
vt 0.883118 0.432770
vt 0.264252 0.199249
vt 0.199432 0.096405
vt 0.376251 0.100220
vt 0.252747 0.013153
vt 0.497498 0.013153
vt 0.277161 0.282959
vt 0.497498 0.093445
vt 0.492035 0.559540
vt 0.492035 0.593292
vt 0.099182 0.681824
vt 0.146912 0.548981
vt 0.179138 0.671204
vt 0.221375 0.557220
vt 0.278351 0.652527
vt 0.265228 0.383362
vt 0.204285 0.408295
vt 0.202789 0.326843
vt 0.134247 0.394501
vt 0.596100 0.205780
vt 0.551849 0.336121
vt 0.492035 0.357483
vt 0.492035 0.472870
vt 0.180267 0.481384
vt 0.101898 0.499847
vt 0.011719 0.683838
s 1
usemtl m_face86
f 61/37/61 62/38/62 63/39/63
f 64/40/64 65/41/65 66/42/66
f 67/43/67 68/44/68 69/45/65
f 70/46/69 71/47/70 72/48/71
f 73/49/72 74/50/73 75/51/74
f 76/52/75 71/47/70 77/53/76
f 78/54/77 79/55/78 80/56/79
f 81/57/80 82/58/81 83/59/82
f 84/60/83 83/59/82 85/61/84
f 85/61/84 83/59/82 82/58/81
f 85/61/84 82/58/81 86/62/85
f 87/63/86 88/40/87 89/41/88
f 89/41/88 88/40/87 90/42/89
f 91/64/90 92/44/91 93/65/92
f 90/42/89 94/66/93 89/41/88
f 89/41/88 94/66/93 95/67/80
f 89/41/88 95/67/80 96/68/82
f 97/69/94 98/70/95 99/71/96
f 99/71/96 98/70/95 100/72/97
f 99/71/96 100/72/97 101/73/98
f 102/56/99 103/55/100 104/54/101
f 62/38/62 61/37/61 74/50/73
f 105/38/102 106/69/103 107/74/104
f 108/59/105 109/58/106 110/57/107
f 111/62/108 109/58/106 112/61/109
f 112/61/109 109/58/106 108/59/105
f 112/61/109 108/59/105 113/60/110
f 65/41/65 64/40/64 114/63/67
f 115/71/111 116/39/112 117/75/113
f 118/65/114 68/44/68 119/64/115
f 120/68/105 121/67/107 65/41/65
f 65/41/65 121/67/107 122/66/116
f 65/41/65 122/66/116 66/42/66
f 76/52/75 77/53/76 123/76/117
f 123/76/117 77/53/76 124/77/118
f 123/76/117 124/77/118 125/53/119
f 126/78/120 127/79/121 128/80/122
f 128/80/122 127/79/121 129/81/123
f 128/80/122 129/81/123 130/82/124
f 130/82/124 129/81/123 131/46/125
f 130/82/124 131/46/125 132/47/126
f 132/47/126 131/46/125 133/48/127
f 132/47/126 133/48/127 134/52/128
f 135/83/129 136/84/130 137/85/131
f 137/85/131 136/84/130 138/86/132
f 137/85/131 138/86/132 91/64/90
f 91/64/90 138/86/132 139/43/86
f 91/64/90 139/43/86 92/44/91
f 92/44/91 139/43/86 140/45/133
f 117/75/113 141/87/134 63/39/63
f 63/39/63 141/87/134 142/88/135
f 63/39/63 142/88/135 61/37/61
f 61/37/61 142/88/135 143/89/136
f 61/37/61 143/89/136 74/50/73
f 144/50/137 76/52/75 145/90/138
f 145/90/138 76/52/75 123/76/117
f 145/90/138 123/76/117 134/52/128
f 134/52/128 123/76/117 125/53/119
f 134/52/128 125/53/119 132/47/126
f 72/48/71 102/56/99 70/46/69
f 70/46/69 102/56/99 104/54/101
f 70/46/69 104/54/101 146/81/139
f 146/81/139 104/54/101 147/91/140
f 146/81/139 147/91/140 148/79/141
f 148/79/141 147/91/140 149/92/142
f 150/72/143 115/71/111 101/73/98
f 101/73/98 115/71/111 117/75/113
f 101/73/98 117/75/113 99/71/96
f 99/71/96 117/75/113 63/39/63
f 99/71/96 63/39/63 97/69/94
f 97/69/94 63/39/63 62/38/62
f 97/69/94 62/38/62 151/74/144
f 68/44/68 67/43/67 119/64/115
f 119/64/115 67/43/67 152/86/145
f 119/64/115 152/86/145 153/85/146
f 153/85/146 152/86/145 154/84/147
f 153/85/146 154/84/147 155/83/148
f 71/47/70 70/46/69 156/82/149
f 156/82/149 70/46/69 146/81/139
f 156/82/149 146/81/139 157/80/150
f 157/80/150 146/81/139 148/79/141
f 157/80/150 148/79/141 158/78/151
f 158/78/151 148/79/141 149/92/142
f 158/78/151 149/92/142 159/93/152
f 160/93/153 139/43/86 161/92/154
f 161/92/154 139/43/86 138/86/132
f 161/92/154 138/86/132 162/91/155
f 162/91/155 138/86/132 136/84/130
f 162/91/155 136/84/130 78/54/77
f 78/54/77 136/84/130 135/83/129
f 78/54/77 135/83/129 79/55/78
f 79/55/78 135/83/129 73/49/72
f 79/55/78 73/49/72 80/56/79
f 80/56/79 73/49/72 75/51/74
f 74/50/73 73/49/72 62/38/62
f 62/38/62 73/49/72 135/83/129
f 62/38/62 135/83/129 151/74/144
f 151/74/144 135/83/129 137/85/131
f 151/74/144 137/85/131 97/69/94
f 97/69/94 137/85/131 91/64/90
f 97/69/94 91/64/90 98/70/95
f 98/70/95 91/64/90 93/65/92
f 98/70/95 93/65/92 100/72/97
f 150/72/143 163/70/156 115/71/111
f 115/71/111 163/70/156 106/69/103
f 115/71/111 106/69/103 116/39/112
f 116/39/112 106/69/103 105/38/102
f 116/39/112 105/38/102 164/37/157
f 164/37/157 105/38/102 144/50/137
f 164/37/157 144/50/137 143/89/136
f 143/89/136 144/50/137 145/90/138
f 143/89/136 145/90/138 74/50/73
f 74/50/73 145/90/138 134/52/128
f 74/50/73 134/52/128 75/51/74
f 75/51/74 134/52/128 133/48/127
f 75/51/74 133/48/127 80/56/79
f 80/56/79 133/48/127 131/46/125
f 80/56/79 131/46/125 78/54/77
f 78/54/77 131/46/125 129/81/123
f 78/54/77 129/81/123 162/91/155
f 162/91/155 129/81/123 127/79/121
f 162/91/155 127/79/121 161/92/154
f 161/92/154 127/79/121 126/78/120
f 161/92/154 126/78/120 160/93/153
f 150/72/143 118/65/114 163/70/156
f 163/70/156 118/65/114 119/64/115
f 163/70/156 119/64/115 106/69/103
f 106/69/103 119/64/115 153/85/146
f 106/69/103 153/85/146 107/74/104
f 107/74/104 153/85/146 155/83/148
f 107/74/104 155/83/148 105/38/102
f 105/38/102 155/83/148 165/49/158
f 105/38/102 165/49/158 144/50/137
f 144/50/137 165/49/158 166/51/159
f 144/50/137 166/51/159 76/52/75
f 71/47/70 76/52/75 72/48/71
f 72/48/71 76/52/75 166/51/159
f 72/48/71 166/51/159 102/56/99
f 102/56/99 166/51/159 165/49/158
f 102/56/99 165/49/158 103/55/100
f 103/55/100 165/49/158 155/83/148
f 103/55/100 155/83/148 104/54/101
f 104/54/101 155/83/148 154/84/147
f 104/54/101 154/84/147 147/91/140
f 147/91/140 154/84/147 152/86/145
f 147/91/140 152/86/145 149/92/142
f 149/92/142 152/86/145 67/43/67
f 149/92/142 67/43/67 159/93/152
