mtllib face_05.mtl
o editpl_m-0000-125
v -5.456317 47.831970 3.092742
v -6.025248 50.392906 3.392377
v -6.621270 50.248310 0.347454
v 1.988548 46.877644 8.347944
v 2.164646 45.396351 8.182061
v 2.660429 46.543468 7.829374
v 4.982208 46.565964 2.542787
v 3.643866 46.582027 5.857459
v 3.670958 45.717670 4.868139
v 0.000000 50.810623 9.707138
v 1.200173 51.771378 10.612769
v 0.000000 51.225128 10.828716
v 5.456317 47.831970 3.092742
v 5.068902 50.604977 6.659225
v 4.258853 48.648129 7.280166
v 3.698050 50.926300 7.848053
v 2.896129 48.709179 8.034858
v 6.621270 50.248310 0.347454
v 4.199251 46.405300 0.298884
v 7.163109 53.779636 -2.317882
v 0.000000 46.116112 9.145975
v -2.164646 45.396351 8.182061
v 0.000000 45.136082 8.884448
v -6.063176 47.886597 0.882463
v -4.199251 46.405300 0.298884
v -4.982208 46.565964 2.542787
v 0.000000 44.303856 3.787658
v -3.670958 45.717670 4.868139
v -4.258853 48.648129 7.280166
v -3.643866 46.582027 5.857459
v 0.000000 49.207226 9.170633
v -1.005111 49.258640 9.196786
v 0.000000 48.542091 9.692941
v -1.373561 48.506744 9.313354
v 0.000000 47.889809 9.580111
v -1.262484 50.097290 9.757949
v 0.000000 49.962334 10.026948
v -5.068902 50.604977 6.659225
v -3.698050 50.926300 7.848053
v -2.896129 48.709179 8.034858
v -3.538208 47.314644 7.605206
v -1.988548 46.877644 8.347944
v -2.660429 46.543468 7.829374
v 3.538208 47.314644 7.605206
v 6.063176 47.886597 0.882463
v 2.023768 44.425957 6.953630
v 6.025248 50.392906 3.392377
v 0.000000 49.207226 9.170633
v 0.000000 49.387169 9.793068
v 1.007820 49.258640 9.196786
v 1.262484 50.097290 9.757949
v 1.950620 51.668552 8.558661
v 0.000000 44.265297 7.869724
v -2.023768 44.425957 6.953630
v -1.950620 51.668552 8.558661
v -1.200173 51.771378 10.612769
v 0.000000 52.066994 11.397351
v -7.163109 53.779636 -2.317882
v 1.378980 48.506744 9.313354
v 0.000000 47.076862 8.986071
vn -0.9054 -0.3228 0.2756
vn -0.9327 -0.2665 0.2430
vn -0.9631 -0.2662 0.0391
vn 0.4392 -0.1882 0.8784
vn 0.5733 -0.4006 0.7147
vn 0.7017 -0.3312 0.6308
vn 0.7157 -0.6921 0.0944
vn 0.8316 -0.4472 0.3295
vn 0.6868 -0.7184 0.1105
vn -0.0000 -0.3373 0.9414
vn 0.6690 -0.3069 0.6769
vn -0.0000 -0.7847 0.6199
vn 0.9055 -0.3228 0.2756
vn 0.8188 -0.2440 0.5196
vn 0.7612 -0.2354 0.6043
vn 0.4614 -0.1408 0.8759
vn 0.5318 -0.0625 0.8446
vn 0.9631 -0.2662 0.0391
vn 0.6225 -0.6619 -0.4176
vn -0.5122 0.0079 -0.8588
vn -0.0000 -0.0472 0.9989
vn -0.5733 -0.4006 0.7147
vn -0.0000 -0.5328 0.8462
vn -0.8657 -0.4801 -0.1417
vn -0.6225 -0.6619 -0.4176
vn -0.7157 -0.6921 0.0944
vn -0.0000 -0.9940 -0.1096
vn -0.6868 -0.7184 0.1105
vn -0.7612 -0.2354 0.6043
vn -0.8316 -0.4472 0.3295
vn -0.0000 0.6199 0.7847
vn -0.3223 -0.1887 0.9276
vn -0.0004 0.2591 0.9658
vn -0.4409 -0.0157 0.8974
vn -0.0000 -0.3929 0.9196
vn -0.3938 -0.1024 0.9135
vn -0.0000 -0.0079 1.0000
vn -0.8188 -0.2440 0.5196
vn -0.4614 -0.1408 0.8759
vn -0.5261 -0.0628 0.8481
vn -0.6471 -0.3315 0.6865
vn -0.4392 -0.1882 0.8784
vn -0.7017 -0.3312 0.6308
vn 0.6471 -0.3315 0.6865
vn 0.8657 -0.4801 -0.1417
vn 0.5509 -0.8028 0.2282
vn 0.9327 -0.2665 0.2430
vn -0.0000 -0.9618 0.2737
vn -0.0000 -0.7072 0.7071
vn 0.3223 -0.1887 0.9276
vn 0.3938 -0.1023 0.9135
vn 0.6064 -0.1103 0.7875
vn -0.0000 -0.9052 0.4250
vn -0.5509 -0.8028 0.2282
vn -0.6064 -0.1102 0.7875
vn -0.6690 -0.3069 0.6769
vn -0.0000 -0.1491 0.9888
vn 0.5122 0.0079 -0.8589
vn 0.4408 -0.0157 0.8974
vn -0.0000 -0.2352 0.9720
vt 0.097595 0.894043
vt 0.071228 0.685852
vt 0.012695 0.683441
vt 0.389099 0.883789
vt 0.404053 0.949097
vt 0.332275 0.904755
vt 0.119629 0.970734
vt 0.257233 0.925720
vt 0.299042 0.970734
vt 0.502045 0.684143
vt 0.440399 0.613586
vt 0.502045 0.663269
vt 0.194702 0.684692
vt 0.282349 0.786530
vt 0.299591 0.685577
vt 0.351227 0.767822
vt 0.012695 0.987640
vt 0.012695 0.504211
vt 0.502045 0.912506
vt 0.502045 0.954346
vt 0.037811 0.970337
vt 0.502045 0.987640
vt 0.502045 0.764130
vt 0.435791 0.762268
vt 0.502045 0.795837
vt 0.419647 0.795380
vt 0.502045 0.829926
vt 0.421356 0.718140
vt 0.494904 0.726746
vt 0.327118 0.851044
vt 0.387238 0.972656
vt 0.498474 0.750977
vt 0.398895 0.635498
vt 0.502045 0.972656
vt 0.502045 0.624268
vt 0.502045 0.857880
s 1
usemtl m_face77
f 1/1/1 2/2/2 3/3/3
f 4/4/4 5/5/5 6/6/6
f 7/7/7 8/8/8 9/9/9
f 10/10/10 11/11/11 12/12/12
f 13/1/13 14/13/14 15/14/15
f 15/14/15 14/13/14 16/15/16
f 15/14/15 16/15/16 17/16/17
f 18/3/18 19/17/19 20/18/20
f 21/19/21 22/5/22 23/20/23
f 24/21/24 25/17/25 26/7/26
f 26/7/26 25/17/25 27/22/27
f 26/7/26 27/22/27 28/9/28
f 29/14/29 1/1/1 30/8/30
f 31/23/31 32/24/32 33/25/33
f 33/25/33 32/24/32 34/26/34
f 33/25/33 34/26/34 35/27/35
f 10/10/10 36/28/36 37/29/37
f 2/2/2 1/1/1 38/13/38
f 38/13/38 1/1/1 29/14/29
f 38/13/38 29/14/29 39/15/39
f 40/16/40 41/30/41 42/4/42
f 42/4/42 41/30/41 43/6/43
f 17/16/17 44/30/44 15/14/15
f 15/14/15 44/30/44 8/8/8
f 15/14/15 8/8/8 13/1/13
f 13/1/13 8/8/8 7/7/7
f 13/1/13 7/7/7 45/21/45
f 8/8/8 46/31/46 9/9/9
f 9/9/9 46/31/46 27/22/27
f 9/9/9 27/22/27 7/7/7
f 7/7/7 27/22/27 19/17/19
f 7/7/7 19/17/19 45/21/45
f 45/21/45 19/17/19 18/3/18
f 45/21/45 18/3/18 13/1/13
f 13/1/13 18/3/18 47/2/47
f 13/1/13 47/2/47 14/13/14
f 32/24/32 48/23/48 49/32/49
f 49/32/49 48/23/48 50/24/50
f 49/32/49 50/24/50 51/28/51
f 51/28/51 50/24/50 17/16/17
f 51/28/51 17/16/17 52/33/52
f 52/33/52 17/16/17 16/15/16
f 4/4/4 21/19/21 5/5/5
f 5/5/5 21/19/21 23/20/23
f 5/5/5 23/20/23 53/34/53
f 53/34/53 23/20/23 22/5/22
f 53/34/53 22/5/22 54/31/54
f 54/31/54 22/5/22 30/8/30
f 40/16/40 36/28/36 55/33/55
f 55/33/55 36/28/36 10/10/10
f 55/33/55 10/10/10 56/11/56
f 56/11/56 10/10/10 12/12/12
f 56/11/56 12/12/12 57/35/57
f 57/35/57 12/12/12 11/11/11
f 58/18/58 25/17/25 3/3/3
f 3/3/3 25/17/25 24/21/24
f 3/3/3 24/21/24 1/1/1
f 1/1/1 24/21/24 26/7/26
f 1/1/1 26/7/26 30/8/30
f 30/8/30 26/7/26 28/9/28
f 30/8/30 28/9/28 54/31/54
f 54/31/54 28/9/28 27/22/27
f 54/31/54 27/22/27 53/34/53
f 53/34/53 27/22/27 46/31/46
f 53/34/53 46/31/46 5/5/5
f 5/5/5 46/31/46 8/8/8
f 5/5/5 8/8/8 6/6/6
f 6/6/6 8/8/8 44/30/44
f 6/6/6 44/30/44 4/4/4
f 4/4/4 44/30/44 17/16/17
f 4/4/4 17/16/17 59/26/59
f 59/26/59 17/16/17 50/24/50
f 60/36/60 35/27/35 42/4/42
f 42/4/42 35/27/35 34/26/34
f 42/4/42 34/26/34 40/16/40
f 40/16/40 34/26/34 32/24/32
f 40/16/40 32/24/32 36/28/36
f 36/28/36 32/24/32 49/32/49
f 36/28/36 49/32/49 37/29/37
f 37/29/37 49/32/49 51/28/51
f 37/29/37 51/28/51 10/10/10
f 10/10/10 51/28/51 52/33/52
f 10/10/10 52/33/52 11/11/11
f 55/33/55 39/15/39 40/16/40
f 40/16/40 39/15/39 29/14/29
f 40/16/40 29/14/29 41/30/41
f 41/30/41 29/14/29 30/8/30
f 41/30/41 30/8/30 43/6/43
f 43/6/43 30/8/30 22/5/22
f 43/6/43 22/5/22 42/4/42
f 42/4/42 22/5/22 21/19/21
f 42/4/42 21/19/21 60/36/60
f 60/36/60 21/19/21 4/4/4
f 60/36/60 4/4/4 35/27/35
f 35/27/35 4/4/4 59/26/59
f 35/27/35 59/26/59 33/25/33
f 33/25/33 59/26/59 50/24/50
f 33/25/33 50/24/50 31/23/31
o editpl_m-0000-126
v 5.280219 56.282734 7.757639
v 6.466846 58.175320 3.896751
v 4.394313 57.988953 8.250057
v -4.871131 59.512020 7.470707
v -6.193218 61.047935 3.615795
v -6.466846 58.175320 3.896751
v -7.824153 56.199192 -1.170151
v -7.163109 53.779636 -2.317882
v -8.590855 55.559761 -2.843925
v -0.891325 53.953152 10.233181
v -1.200173 51.771378 10.612769
v 0.000000 54.168438 10.620241
v -2.446402 56.347000 9.819968
v -1.183918 55.614384 9.621207
v 0.000000 56.228111 10.165184
v 5.854568 52.610027 6.450004
v 5.068902 50.604977 6.659225
v 6.025248 50.392906 3.392377
v 7.182074 50.257950 -1.247862
v 8.436430 53.165913 -3.065850
v 6.621270 50.248310 0.347454
v 6.959920 55.174175 0.347454
v 7.824153 56.199192 -1.170151
v 8.590855 55.559761 -2.843925
v 6.959920 55.174175 0.347454
v 7.824153 56.199192 -1.170151
v 7.163109 53.779636 -2.317882
v 8.590855 55.559761 -2.843925
v 7.390682 58.499855 -1.933811
v 6.959920 55.174175 0.347454
v 7.163109 53.779636 -2.317882
v 3.316054 55.321983 8.489168
v 2.381382 55.823242 8.448071
v 2.367836 54.743603 8.372602
v 1.649899 54.878559 8.353921
v 1.777231 53.172340 9.187072
v 0.891325 53.953152 10.233181
v 8.436430 53.165913 -3.065850
v 7.182074 50.257950 -1.247862
v 6.621270 50.248310 0.347454
v -2.367836 54.743603 8.372602
v -2.381382 55.823242 8.448071
v -3.316054 55.321983 8.489168
v 4.375348 54.843212 7.927258
v 3.153502 52.982758 8.441346
v 4.887386 52.847805 7.729245
v 3.698050 50.926300 7.848053
v 1.950620 51.668552 8.558661
v 5.979191 55.132401 5.561558
v 5.255837 55.193455 6.850514
v 5.480700 53.982071 6.659225
v 6.515612 52.886360 4.377214
v 6.621270 50.248310 0.347454
v -3.717014 62.619202 6.400686
v -6.621270 50.248310 0.347454
v -8.436430 53.165913 -3.065850
v -7.182074 50.257950 -1.247862
v -4.369930 56.758289 8.912842
v -4.342838 55.820030 8.046814
v -8.590855 55.559761 -2.843925
v -7.824153 56.199192 -1.170151
v -6.959920 55.174175 0.347454
v 4.369930 56.758289 8.912842
v 2.446402 56.347000 9.819968
v 4.342838 55.820030 8.046814
v -1.649899 54.878559 8.353921
v -1.777231 53.172340 9.187072
v -6.959920 55.174175 0.347454
v -1.950620 51.668552 8.558661
v 0.000000 55.415165 9.974643
v 0.850687 55.039219 9.778872
v 1.183918 55.614384 9.621207
v -7.163109 53.779636 -2.317882
v -6.959920 55.174175 0.347454
v -7.390682 58.499855 -1.933811
v -6.621270 50.248310 0.347454
v -7.182074 50.257950 -1.247862
v -8.436430 53.165913 -3.065850
v -4.887386 52.847805 7.729245
v -3.153502 52.982758 8.441346
v -4.375348 54.843212 7.927258
v -4.394313 57.988953 8.250057
v -2.151100 58.011448 9.309615
v -2.717322 59.820488 8.927039
v 0.000000 59.762650 9.333527
v 0.000000 62.905178 7.103820
v 2.717322 59.820488 8.927039
v 3.717014 62.619202 6.400686
v 4.871131 59.512020 7.470707
v 6.193218 61.047935 3.615795
v -0.850687 55.039219 9.778872
v -5.979191 55.132401 5.561558
v -6.515612 52.886360 4.377214
v -5.480700 53.982071 6.659225
v -5.854568 52.610027 6.450004
v -5.255837 55.193455 6.850514
v -5.280219 56.282734 7.757639
v 2.151100 58.011448 9.309615
v -6.621270 50.248310 0.347454
v -6.025248 50.392906 3.392377
v -5.068902 50.604977 6.659225
v -3.698050 50.926300 7.848053
v 1.200173 51.771378 10.612769
v 0.000000 52.066994 11.397351
vn 0.8109 -0.1732 0.5590
vn 0.9555 0.0548 0.2898
vn 0.6465 0.2365 0.7253
vn -0.7804 0.2444 0.5755
vn -0.9166 0.2272 0.3290
vn -0.9555 0.0548 0.2898
vn 0.8267 0.4094 -0.3858
vn 0.5122 0.0079 -0.8588
vn 0.6279 0.2904 -0.7221
vn -0.7326 0.1891 0.6539
vn -0.6690 -0.3070 0.6769
vn -0.0000 0.3373 0.9414
vn -0.3461 -0.3225 0.8810
vn -0.4859 -0.4311 0.7603
vn -0.0000 -0.0393 0.9992
vn 0.8990 -0.1025 0.4258
vn 0.8188 -0.2441 0.5196
vn 0.9327 -0.2665 0.2430
vn -0.5275 -0.4803 -0.7008
vn 0.9119 -0.1179 0.3931
vn 0.9631 -0.2662 0.0392
vn 0.9824 0.0472 0.1808
vn 0.8948 -0.0785 0.4395
vn 0.8920 -0.0947 0.4420
vn -0.8267 0.4094 -0.3858
vn -0.5122 0.0079 -0.8588
vn -0.6279 0.2904 -0.7221
vn 0.9899 0.0079 0.1414
vn 0.9824 0.0471 0.1807
vn -0.5121 0.0079 -0.8589
vn 0.1956 -0.0704 0.9781
vn 0.2518 -0.4329 0.8656
vn 0.1491 0.0236 0.9885
vn 0.6285 -0.0000 0.7778
vn 0.5431 0.0944 0.8343
vn 0.7326 0.1891 0.6539
vn -0.5261 -0.0628 -0.8481
vn -0.5275 -0.4803 -0.7007
vn 0.9631 -0.2663 0.0391
vn -0.1491 0.0236 0.9885
vn -0.2518 -0.4329 0.8656
vn -0.1956 -0.0704 0.9781
vn 0.5413 -0.0471 0.8395
vn 0.3698 -0.0472 0.9279
vn 0.6393 -0.0710 0.7657
vn 0.4614 -0.1408 0.8759
vn 0.6064 -0.1103 0.7875
vn 0.9375 -0.0315 0.3466
vn 0.7764 -0.1804 0.6039
vn 0.8551 0.0942 0.5099
vn 0.9686 -0.0473 0.2441
vn -0.5263 0.5264 0.6677
vn -0.9631 -0.2662 0.0392
vn -0.9119 -0.1179 0.3931
vn 0.5276 -0.4803 -0.7007
vn -0.6040 -0.1411 0.7844
vn -0.4804 -0.4016 0.7797
vn -0.8920 -0.0947 0.4420
vn -0.8948 -0.0785 0.4395
vn -0.9824 0.0472 0.1808
vn 0.6040 -0.1411 0.7844
vn 0.3461 -0.3225 0.8810
vn 0.4804 -0.4017 0.7797
vn -0.6285 -0.0000 0.7778
vn -0.5431 0.0944 0.8343
vn -0.6064 -0.1103 0.7875
vn -0.0000 0.1018 0.9948
vn 0.6461 0.1024 0.7564
vn 0.4859 -0.4311 0.7603
vn 0.5121 0.0079 -0.8589
vn -0.9824 0.0471 0.1807
vn -0.9899 0.0079 0.1414
vn -0.9631 -0.2663 0.0391
vn 0.5275 -0.4803 -0.7007
vn 0.5261 -0.0628 -0.8481
vn -0.6393 -0.0710 0.7657
vn -0.3697 -0.0472 0.9279
vn -0.5413 -0.0471 0.8395
vn -0.6465 0.2366 0.7253
vn -0.2587 0.2195 0.9407
vn -0.3462 0.3619 0.8655
vn -0.0000 0.3304 0.9438
vn -0.0000 0.6063 0.7952
vn 0.3462 0.3619 0.8655
vn 0.5264 0.5263 0.6678
vn 0.7804 0.2444 0.5755
vn 0.9166 0.2272 0.3290
vn -0.6461 0.1024 0.7564
vn -0.9375 -0.0315 0.3466
vn -0.9686 -0.0473 0.2441
vn -0.8551 0.0942 0.5099
vn -0.8990 -0.1025 0.4258
vn -0.7764 -0.1804 0.6039
vn -0.8109 -0.1732 0.5590
vn 0.2587 0.2195 0.9407
vn -0.9327 -0.2665 0.2430
vn -0.8188 -0.2441 0.5196
vn -0.4614 -0.1408 0.8759
vn 0.6690 -0.3070 0.6769
vn -0.0000 -0.1491 0.9888
vt 0.188354 0.362640
vt 0.067139 0.257263
vt 0.255737 0.231445
vt 0.228516 0.138641
vt 0.082916 0.085846
vt 0.902924 0.367096
vt 0.899506 0.403442
vt 0.908875 0.383026
vt 0.445679 0.508148
vt 0.440399 0.613586
vt 0.494415 0.501038
vt 0.323395 0.334442
vt 0.434357 0.389984
vt 0.494415 0.334076
vt 0.155609 0.556244
vt 0.194702 0.684692
vt 0.071228 0.685852
vt 0.905945 0.636536
vt 0.980469 0.545349
vt 0.873169 0.620270
vt 0.873169 0.420105
vt 0.969940 0.315857
vt 0.986267 0.385742
vt 0.883942 0.380188
vt 0.012421 0.233551
vt 0.012360 0.408051
vt 0.012421 0.504211
vt 0.312500 0.404388
vt 0.362518 0.380707
vt 0.363281 0.443573
vt 0.400726 0.437103
vt 0.394043 0.531586
vt 0.907623 0.416870
vt 0.889343 0.436218
vt 0.883942 0.432770
vt 0.259491 0.438751
vt 0.340515 0.538727
vt 0.243622 0.557098
vt 0.299591 0.685577
vt 0.398895 0.635498
vt 0.151550 0.415466
vt 0.208130 0.420685
vt 0.218994 0.479095
vt 0.077942 0.550415
vt 0.012421 0.683441
vt 0.253540 0.055237
vt 0.243073 0.332062
vt 0.257263 0.380676
vt 0.494415 0.402069
vt 0.456512 0.420044
vt 0.372559 0.246429
vt 0.360291 0.158966
vt 0.494415 0.134430
vt 0.494415 0.055176
vt 0.494415 0.623016
s 1
usemtl m_face77
f 61/37/61 62/38/62 63/39/63
f 64/40/64 65/41/65 66/38/66
f 67/42/67 68/43/68 69/44/69
f 70/45/70 71/46/71 72/47/72
f 73/48/73 74/49/74 75/50/75
f 76/51/76 77/52/77 78/53/78
f 79/54/79 80/55/80 81/56/81
f 82/57/82 81/56/81 83/58/83
f 83/58/83 81/56/81 80/55/80
f 83/58/83 80/55/80 84/59/84
f 85/60/82 86/42/85 87/43/86
f 87/43/86 86/42/85 88/44/87
f 89/61/88 90/62/89 91/63/90
f 92/64/91 93/65/92 94/66/93
f 94/66/93 93/65/92 95/67/94
f 94/66/93 95/67/94 96/68/95
f 96/68/95 95/67/94 97/45/96
f 88/44/87 98/69/97 87/43/86
f 87/43/86 98/69/97 99/70/98
f 87/43/86 99/70/98 100/71/99
f 101/66/100 102/65/101 103/64/102
f 104/72/103 105/73/104 106/74/105
f 77/52/77 106/74/105 107/75/106
f 107/75/106 106/74/105 105/73/104
f 107/75/106 105/73/104 108/76/107
f 62/38/62 61/37/61 109/77/108
f 109/77/108 61/37/61 110/78/109
f 109/77/108 110/78/109 111/79/110
f 76/51/76 78/53/78 112/80/111
f 112/80/111 78/53/78 113/81/81
f 112/80/111 113/81/81 90/62/89
f 65/41/65 64/40/64 114/82/112
f 115/56/113 116/55/114 117/54/115
f 118/83/116 119/84/117 73/48/73
f 120/59/118 116/55/114 121/58/119
f 121/58/119 116/55/114 115/56/113
f 121/58/119 115/56/113 122/57/120
f 123/83/121 124/48/122 125/84/123
f 74/49/74 102/65/101 126/67/124
f 126/67/124 102/65/101 101/66/100
f 126/67/124 101/66/100 127/68/125
f 68/43/68 67/42/67 128/60/120
f 71/46/71 70/45/70 129/76/126
f 130/85/127 131/86/128 132/49/129
f 133/63/130 134/62/131 135/61/132
f 136/71/133 137/70/134 68/43/68
f 68/43/68 137/70/134 138/69/135
f 68/43/68 138/69/135 69/44/69
f 139/74/136 140/73/137 141/72/138
f 142/39/139 143/87/140 144/88/141
f 144/88/141 143/87/140 145/89/142
f 144/88/141 145/89/142 146/90/143
f 146/90/143 145/89/142 147/88/144
f 146/90/143 147/88/144 148/82/145
f 148/82/145 147/88/144 149/40/146
f 148/82/145 149/40/146 150/41/147
f 89/61/88 62/38/62 90/62/89
f 90/62/89 62/38/62 109/77/108
f 90/62/89 109/77/108 112/80/111
f 112/80/111 109/77/108 111/79/110
f 112/80/111 111/79/110 76/51/76
f 93/65/92 132/49/129 95/67/94
f 95/67/94 132/49/129 131/86/128
f 95/67/94 131/86/128 97/45/96
f 97/45/96 131/86/128 130/85/127
f 97/45/96 130/85/127 72/47/72
f 72/47/72 130/85/127 151/86/148
f 72/47/72 151/86/148 70/45/70
f 65/41/65 135/61/132 66/38/66
f 66/38/66 135/61/132 134/62/131
f 66/38/66 134/62/131 152/77/149
f 152/77/149 134/62/131 153/80/150
f 152/77/149 153/80/150 154/79/151
f 154/79/151 153/80/150 155/51/152
f 74/49/74 73/48/73 102/65/101
f 102/65/101 73/48/73 119/84/117
f 102/65/101 119/84/117 103/64/102
f 103/64/102 119/84/117 141/72/138
f 103/64/102 141/72/138 101/66/100
f 101/66/100 141/72/138 140/73/137
f 101/66/100 140/73/137 127/68/125
f 154/79/151 156/78/153 152/77/149
f 152/77/149 156/78/153 157/37/154
f 152/77/149 157/37/154 66/38/66
f 66/38/66 157/37/154 142/39/139
f 66/38/66 142/39/139 64/40/64
f 64/40/64 142/39/139 144/88/141
f 64/40/64 144/88/141 114/82/112
f 114/82/112 144/88/141 146/90/143
f 77/52/77 76/51/76 106/74/105
f 106/74/105 76/51/76 111/79/110
f 106/74/105 111/79/110 104/72/103
f 104/72/103 111/79/110 110/78/109
f 104/72/103 110/78/109 125/84/123
f 125/84/123 110/78/109 61/37/61
f 125/84/123 61/37/61 123/83/121
f 123/83/121 61/37/61 63/39/63
f 123/83/121 63/39/63 124/48/122
f 124/48/122 63/39/63 158/87/155
f 124/48/122 158/87/155 75/50/75
f 155/51/152 139/74/136 154/79/151
f 154/79/151 139/74/136 141/72/138
f 154/79/151 141/72/138 156/78/153
f 156/78/153 141/72/138 119/84/117
f 156/78/153 119/84/117 157/37/154
f 157/37/154 119/84/117 118/83/116
f 157/37/154 118/83/116 142/39/139
f 142/39/139 118/83/116 73/48/73
f 142/39/139 73/48/73 143/87/140
f 143/87/140 73/48/73 75/50/75
f 143/87/140 75/50/75 145/89/142
f 145/89/142 75/50/75 158/87/155
f 145/89/142 158/87/155 147/88/144
f 147/88/144 158/87/155 63/39/63
f 147/88/144 63/39/63 149/40/146
f 149/40/146 63/39/63 62/38/62
f 149/40/146 62/38/62 150/41/147
f 150/41/147 62/38/62 89/61/88
f 134/62/131 159/81/113 153/80/150
f 153/80/150 159/81/113 160/53/156
f 153/80/150 160/53/156 155/51/152
f 155/51/152 160/53/156 161/52/157
f 155/51/152 161/52/157 139/74/136
f 139/74/136 161/52/157 162/75/158
f 139/74/136 162/75/158 140/73/137
f 140/73/137 162/75/158 129/76/126
f 140/73/137 129/76/126 127/68/125
f 127/68/125 129/76/126 70/45/70
f 127/68/125 70/45/70 126/67/124
f 126/67/124 70/45/70 151/86/148
f 126/67/124 151/86/148 74/49/74
f 74/49/74 151/86/148 130/85/127
f 74/49/74 130/85/127 75/50/75
f 75/50/75 130/85/127 132/49/129
f 75/50/75 132/49/129 124/48/122
f 124/48/122 132/49/129 93/65/92
f 124/48/122 93/65/92 125/84/123
f 125/84/123 93/65/92 92/64/91
f 125/84/123 92/64/91 104/72/103
f 104/72/103 92/64/91 94/66/93
f 104/72/103 94/66/93 105/73/104
f 105/73/104 94/66/93 96/68/95
f 105/73/104 96/68/95 108/76/107
f 108/76/107 96/68/95 97/45/96
f 108/76/107 97/45/96 163/46/159
f 163/46/159 97/45/96 72/47/72
f 163/46/159 72/47/72 164/91/160
f 164/91/160 72/47/72 71/46/71
