mtllib face_29.mtl
o editpl_m-0000-111
v 3.852474 47.587765 7.174807
v 1.950620 46.386021 8.234366
v 2.795888 46.235001 7.342185
v 5.800385 48.018337 2.586126
v 6.000865 48.278606 1.073005
v 6.512903 50.248310 0.347454
v 5.112249 46.517765 2.843917
v 4.199251 46.405300 0.298884
v 0.000000 44.265297 7.662743
v 0.000000 44.303856 3.787658
v 1.796196 44.525566 7.256255
v 0.000000 46.868004 8.903129
v 1.327505 47.905872 9.423194
v 0.000000 47.909088 9.902910
v 1.487348 49.358250 9.738522
v 0.000000 50.383266 10.050859
v 0.000000 49.371101 10.112131
v 2.649592 48.606358 8.383810
v 0.000000 45.261395 8.576593
v 1.587588 45.524879 8.426402
v 2.422020 45.634129 7.546924
v 5.987319 50.029812 3.142806
v -1.950620 46.386021 8.234366
v -2.795888 46.235001 7.342185
v -2.422020 45.634129 7.546924
v 0.000000 48.834496 9.913371
v -1.487348 49.358250 9.738522
v -1.300413 48.783085 9.201269
v -2.649592 48.606358 8.383810
v -5.800385 48.018337 2.586126
v -4.993045 49.984825 6.439542
v -5.987319 50.029812 3.142806
v 3.887694 46.447075 5.842514
v 3.018042 45.277462 5.374007
v 0.000000 50.701374 10.807046
v -1.091805 51.295818 10.881768
v 1.920819 50.916660 9.062286
v 1.091805 51.295818 10.881768
v 0.000000 51.517532 11.376429
v -1.327505 47.905872 9.423194
v 0.000000 48.596718 9.496422
v 1.300413 48.783085 9.201269
v -3.852474 47.587765 7.174807
v -3.887694 46.447075 5.842514
v -6.512903 50.248310 0.347454
v -6.000865 48.278606 1.073005
v -5.112249 46.517765 2.843917
v -4.199251 46.405300 0.298884
v -1.920819 50.916660 9.062286
v 0.000000 45.894398 8.809726
v -1.587588 45.524879 8.426402
v -1.796196 44.525566 7.256255
v -3.018042 45.277462 5.374007
v 4.993045 49.984825 6.439542
vn 0.7452 -0.3138 0.5883
vn 0.5263 -0.2357 0.8170
vn 0.7227 -0.3613 0.5892
vn 0.9305 -0.2815 0.2346
vn 0.8915 -0.4223 -0.1642
vn 0.9618 -0.2050 0.1813
vn 0.7223 -0.6909 0.0314
vn 0.6429 -0.7057 -0.2979
vn -0.0000 -0.8644 0.5029
vn -0.0000 -0.9956 -0.0941
vn 0.5352 -0.7870 0.3069
vn -0.0000 -0.4783 0.8782
vn 0.3937 -0.1024 0.9135
vn -0.0000 -0.1173 0.9931
vn 0.4178 -0.2444 0.8751
vn -0.0000 -0.4566 0.8897
vn -0.0000 -0.1415 0.9899
vn 0.6047 -0.1728 0.7775
vn -0.0000 -0.5179 0.8554
vn 0.4004 -0.4161 0.8165
vn 0.7374 -0.3452 0.5805
vn 0.9428 -0.2357 0.2357
vn -0.5263 -0.2357 0.8170
vn -0.7227 -0.3613 0.5892
vn -0.7374 -0.3452 0.5805
vn -0.0000 -0.6832 0.7303
vn -0.4178 -0.2444 0.8750
vn -0.3619 -0.4169 0.8338
vn -0.6047 -0.1728 0.7775
vn -0.9305 -0.2815 0.2346
vn -0.8479 -0.2434 0.4710
vn -0.9428 -0.2357 0.2357
vn 0.7952 -0.4803 0.3701
vn 0.5736 -0.8173 0.0550
vn -0.0000 -0.7708 0.6370
vn -0.6298 -0.2361 0.7400
vn 0.6370 -0.0158 0.7707
vn 0.6298 -0.2361 0.7400
vn -0.0000 -0.0941 0.9956
vn -0.3937 -0.1024 0.9135
vn -0.0000 -0.0472 0.9989
vn 0.3619 -0.4169 0.8338
vn -0.7453 -0.3138 0.5883
vn -0.7952 -0.4803 0.3701
vn -0.9618 -0.2050 0.1813
vn -0.8915 -0.4223 -0.1642
vn -0.7223 -0.6909 0.0314
vn -0.6429 -0.7057 -0.2979
vn -0.6370 -0.0158 0.7707
vn -0.0000 -0.1096 0.9940
vn -0.4004 -0.4161 0.8164
vn -0.5352 -0.7870 0.3069
vn -0.5736 -0.8173 0.0550
vn 0.8479 -0.2434 0.4710
vt 0.259949 0.827972
vt 0.392700 0.908813
vt 0.297577 0.882690
vt 0.067688 0.898682
vt 0.019806 0.970337
vt 0.012268 0.683441
vt 0.102356 0.975708
vt 0.012268 0.988281
vt 0.495972 0.982147
vt 0.495972 0.988281
vt 0.367310 0.978210
vt 0.495972 0.877411
vt 0.423981 0.848419
vt 0.495972 0.848236
vt 0.425873 0.745880
vt 0.495972 0.681396
vt 0.495972 0.755646
vt 0.359528 0.793640
vt 0.495972 0.948395
vt 0.404449 0.952393
vt 0.335175 0.937408
vt 0.056152 0.707367
vt 0.495972 0.773834
vt 0.426453 0.793365
vt 0.178497 0.705139
vt 0.228821 0.926483
vt 0.296722 0.980988
vt 0.495972 0.651917
vt 0.455017 0.619812
vt 0.398224 0.648315
vt 0.495972 0.610199
vt 0.495972 0.797729
vt 0.495972 0.916290
s 1
usemtl m_face70
f 1/1/1 2/2/2 3/3/3
f 4/4/4 5/5/5 6/6/6
f 7/7/7 8/8/8 5/5/5
f 9/9/9 10/10/10 11/11/11
f 12/12/12 13/13/13 14/14/14
f 15/15/15 16/16/16 17/17/17
f 2/2/2 1/1/1 18/18/18
f 19/19/19 9/9/9 20/20/20
f 20/20/20 9/9/9 11/11/11
f 20/20/20 11/11/11 21/21/21
f 4/4/4 6/6/6 22/22/22
f 23/2/23 24/3/24 25/21/25
f 26/23/26 27/15/27 28/24/28
f 28/24/28 27/15/27 29/18/29
f 30/4/30 31/25/31 32/22/32
f 5/5/5 4/4/4 7/7/7
f 7/7/7 4/4/4 33/26/33
f 7/7/7 33/26/33 34/27/34
f 35/28/35 36/29/36 16/16/16
f 15/15/15 37/30/37 16/16/16
f 16/16/16 37/30/37 38/29/38
f 16/16/16 38/29/38 35/28/35
f 35/28/35 38/29/38 39/31/39
f 35/28/35 39/31/39 36/29/36
f 23/2/23 12/12/12 40/13/40
f 40/13/40 12/12/12 14/14/14
f 40/13/40 14/14/14 41/32/41
f 41/32/41 14/14/14 13/13/13
f 41/32/41 13/13/13 42/24/42
f 42/24/42 26/23/26 41/32/41
f 41/32/41 26/23/26 28/24/28
f 41/32/41 28/24/28 40/13/40
f 40/13/40 28/24/28 29/18/29
f 40/13/40 29/18/29 23/2/23
f 23/2/23 29/18/29 43/1/43
f 23/2/23 43/1/43 24/3/24
f 24/3/24 43/1/43 44/26/44
f 24/3/24 44/26/44 25/21/25
f 32/22/32 45/6/45 30/4/30
f 30/4/30 45/6/45 46/5/46
f 30/4/30 46/5/46 47/7/47
f 47/7/47 46/5/46 48/8/48
f 47/7/47 48/8/48 10/10/10
f 8/8/8 7/7/7 10/10/10
f 10/10/10 7/7/7 34/27/34
f 10/10/10 34/27/34 11/11/11
f 11/11/11 34/27/34 33/26/33
f 11/11/11 33/26/33 21/21/21
f 36/29/36 49/30/49 16/16/16
f 16/16/16 49/30/49 27/15/27
f 16/16/16 27/15/27 17/17/17
f 17/17/17 27/15/27 26/23/26
f 17/17/17 26/23/26 15/15/15
f 15/15/15 26/23/26 42/24/42
f 15/15/15 42/24/42 18/18/18
f 18/18/18 42/24/42 13/13/13
f 18/18/18 13/13/13 2/2/2
f 2/2/2 13/13/13 12/12/12
f 2/2/2 12/12/12 50/33/50
f 50/33/50 12/12/12 23/2/23
f 50/33/50 23/2/23 51/20/51
f 51/20/51 23/2/23 25/21/25
f 51/20/51 25/21/25 52/11/52
f 52/11/52 25/21/25 44/26/44
f 52/11/52 44/26/44 53/27/53
f 22/22/22 54/25/54 4/4/4
f 4/4/4 54/25/54 1/1/1
f 4/4/4 1/1/1 33/26/33
f 33/26/33 1/1/1 3/3/3
f 33/26/33 3/3/3 21/21/21
f 21/21/21 3/3/3 2/2/2
f 21/21/21 2/2/2 20/20/20
f 20/20/20 2/2/2 50/33/50
f 20/20/20 50/33/50 19/19/19
f 19/19/19 50/33/50 51/20/51
f 19/19/19 51/20/51 9/9/9
f 9/9/9 51/20/51 52/11/52
f 9/9/9 52/11/52 10/10/10
f 10/10/10 52/11/52 53/27/53
f 10/10/10 53/27/53 47/7/47
f 47/7/47 53/27/53 44/26/44
f 47/7/47 44/26/44 30/4/30
f 30/4/30 44/26/44 43/1/43
f 30/4/30 43/1/43 31/25/31
o editpl_m-0000-112
v 2.649592 48.606358 8.383810
v 1.920819 50.916660 9.062286
v 1.487348 49.358250 9.738522
v -7.824153 56.199192 -1.170151
v -7.163109 53.779636 -2.317882
v -8.590855 55.559761 -2.843925
v -5.044519 54.843212 7.044791
v -5.201653 56.240963 7.845064
v -6.101105 54.926758 5.561558
v 6.000865 48.278606 1.073005
v 7.163109 53.779636 -2.317882
v 6.512903 50.248310 0.347454
v 0.000000 53.429398 10.442403
v 0.812758 53.198044 10.023212
v 0.289884 54.570087 9.624943
v 6.101105 54.926758 5.561558
v 6.927409 55.174175 0.347454
v 6.466846 58.175320 3.896751
v 7.255222 49.923775 -1.247862
v 8.574599 53.165913 -3.065850
v 6.512903 50.248310 0.347454
v 6.927409 55.174175 0.347454
v 7.824153 56.199192 -1.170151
v 8.590855 55.559761 -2.843925
v 0.000000 57.265980 9.618965
v 2.151100 57.333458 9.305132
v 0.000000 59.762650 9.333527
v 2.262177 54.422279 8.359900
v 3.118282 54.904263 8.471982
v 2.256759 55.321983 8.619932
v 6.927409 55.174175 0.347454
v 7.824153 56.199192 -1.170151
v 7.163109 53.779636 -2.317882
v 8.590855 55.559761 -2.843925
v 8.574599 53.165913 -3.065850
v 7.255222 49.923775 -1.247862
v 6.512903 50.248310 0.347454
v 1.760976 55.775047 9.751225
v 0.975310 54.942822 9.219203
v 1.620098 54.486546 8.460027
v 3.836219 50.290081 7.801725
v 3.852474 47.587765 7.174807
v 4.993045 49.984825 6.439542
v -6.512903 50.248310 0.347454
v -8.574599 53.165913 -3.065850
v -7.255222 49.923775 -1.247862
v -8.590855 55.559761 -2.843925
v -7.824153 56.199192 -1.170151
v -6.927409 55.174175 0.347454
v -4.199251 46.405300 0.298884
v -6.000865 48.278606 1.073005
v -7.163109 53.779636 -2.317882
v -6.512903 50.248310 0.347454
v -2.262177 54.422279 8.359900
v -1.620098 54.486546 8.460027
v -2.256759 55.321983 8.619932
v -6.927409 55.174175 0.347454
v 1.091805 51.295818 10.881768
v 0.000000 51.517532 11.376429
v -1.091805 51.295818 10.881768
v -6.512903 50.248310 0.347454
v -7.255222 49.923775 -1.247862
v -8.574599 53.165913 -3.065850
v -4.307619 55.270573 8.065495
v -4.307619 54.383720 7.765112
v -3.118282 54.904263 8.471982
v -2.151100 57.333458 9.305132
v -2.717322 59.820488 8.927039
v -4.624594 57.593727 8.161139
v -5.272092 59.283878 7.053758
v -6.466846 58.175320 3.896751
v -1.487348 49.358250 9.738522
v -1.920819 50.916660 9.062286
v -2.649592 48.606358 8.383810
v -3.836219 50.290081 7.801725
v -3.852474 47.587765 7.174807
v -4.993045 49.984825 6.439542
v 4.199251 46.405300 0.298884
v -0.975310 54.942822 9.219203
v -1.760976 55.775047 9.751225
v -4.218215 56.318081 8.825418
v -0.812758 53.198044 10.023212
v -0.289884 54.570087 9.624943
v 0.289884 54.570087 9.624943
v 0.487655 54.878559 9.620461
v 5.044519 54.843212 7.044791
v 5.201653 56.240963 7.845064
v 4.624594 57.593727 8.161139
v 5.272092 59.283878 7.053758
v 2.717322 59.820488 8.927039
v 0.000000 62.905178 7.103820
v 3.763071 62.619202 6.400686
v 6.193218 61.047935 3.615795
v 7.390682 58.499855 -1.933811
v 7.163109 53.779636 -2.317882
v 6.512903 50.248310 0.347454
v 6.515612 52.632519 4.377214
v 5.987319 50.029812 3.142806
v 5.716400 52.163387 6.311020
v 4.686906 52.304771 7.834603
v 3.194140 52.565041 8.489916
v 1.815160 52.822098 8.841856
v 0.747738 54.467266 9.228917
v 0.487655 54.878559 9.620461
v 4.307619 54.383720 7.765112
v 4.307619 55.270573 8.065495
v 4.218215 56.318081 8.825418
v 0.000000 56.443394 9.985851
v -6.515612 52.632519 4.377214
v -5.987319 50.029812 3.142806
v -5.716400 52.163387 6.311020
v -4.686906 52.304771 7.834603
v -3.194140 52.565041 8.489916
v -1.815160 52.822098 8.841856
v -0.747738 54.467266 9.228917
v -0.487655 54.878559 9.620461
v 0.000000 55.434444 9.578616
v -3.717014 62.619202 6.400686
v -6.193218 61.047935 3.615795
v -7.390682 58.499855 -1.933811
v -6.927409 55.174175 0.347454
v -7.163109 53.779636 -2.317882
v -6.512903 50.248310 0.347454
vn 0.6047 -0.1727 0.7775
vn 0.6370 -0.0157 0.7707
vn 0.4178 -0.2444 0.8751
vn 0.8242 0.4082 -0.3925
vn 0.2362 -0.0787 -0.9685
vn 0.6187 0.2741 -0.7362
vn -0.7645 -0.1340 0.6305
vn -0.8022 -0.1337 0.5819
vn -0.9320 -0.0392 0.3603
vn 0.8915 -0.4223 -0.1642
vn -0.2362 -0.0787 -0.9685
vn 0.9618 -0.2050 0.1813
vn -0.0000 0.4876 0.8731
vn 0.7015 0.3468 0.6227
vn 0.3859 0.2441 0.8897
vn 0.9320 -0.0392 0.3603
vn 0.9859 0.0313 0.1643
vn 0.9598 0.0551 0.2753
vn 0.8913 -0.1172 0.4379
vn 0.8917 -0.0782 0.4458
vn 0.9618 -0.2049 0.1814
vn 0.9859 0.0313 0.1644
vn 0.8879 -0.0629 0.4557
vn 0.9045 -0.0393 0.4247
vn -0.0000 0.2591 0.9658
vn 0.2430 0.2038 0.9484
vn -0.0000 0.2758 0.9612
vn 0.1880 -0.0783 0.9790
vn 0.2353 -0.2431 0.9410
vn 0.2989 -0.4641 0.8338
vn -0.8242 0.4082 -0.3925
vn -0.6187 0.2741 -0.7362
vn -0.4957 -0.0708 -0.8656
vn -0.7545 -0.1886 -0.6287
vn 0.2839 -0.3781 0.8811
vn 0.5492 -0.5335 0.6433
vn 0.4468 -0.1254 0.8858
vn 0.5880 -0.1646 0.7919
vn 0.7452 -0.3138 0.5884
vn 0.8479 -0.2434 0.4711
vn -0.9618 -0.2050 0.1814
vn -0.8917 -0.0782 0.4458
vn -0.8913 -0.1172 0.4379
vn -0.9045 -0.0393 0.4247
vn -0.8879 -0.0629 0.4557
vn -0.9859 0.0313 0.1644
vn -0.6429 -0.7056 -0.2980
vn -0.8915 -0.4223 -0.1643
vn 0.2362 -0.0789 -0.9685
vn -0.9618 -0.2050 0.1813
vn -0.1880 -0.0783 0.9790
vn -0.4468 -0.1254 0.8858
vn -0.2989 -0.4641 0.8338
vn -0.9859 0.0313 0.1643
vn 0.6297 -0.2362 0.7400
vn -0.0000 -0.0941 0.9956
vn -0.6297 -0.2362 0.7400
vn -0.9618 -0.2049 0.1814
vn 0.7545 -0.1886 -0.6287
vn 0.4957 -0.0708 -0.8656
vn -0.5024 -0.3062 0.8086
vn -0.4787 -0.1099 0.8711
vn -0.2353 -0.2431 0.9410
vn -0.2430 0.2038 0.9484
vn -0.3609 0.3531 0.8632
vn -0.6854 0.1655 0.7091
vn -0.8075 0.2352 0.5409
vn -0.9598 0.0551 0.2753
vn -0.4178 -0.2444 0.8750
vn -0.6370 -0.0157 0.7707
vn -0.6047 -0.1727 0.7775
vn -0.5880 -0.1646 0.7919
vn -0.7452 -0.3138 0.5884
vn -0.8479 -0.2434 0.4711
vn 0.6429 -0.7056 -0.2980
vn -0.5492 -0.5335 0.6433
vn -0.2833 -0.3778 0.8815
vn -0.4866 -0.2119 0.8476
vn -0.7015 0.3468 0.6227
vn -0.3858 0.2441 0.8897
vn 0.3858 0.2441 0.8897
vn 0.2902 -0.2432 0.9256
vn 0.7645 -0.1340 0.6305
vn 0.8022 -0.1337 0.5820
vn 0.6854 0.1655 0.7091
vn 0.8075 0.2352 0.5409
vn 0.3610 0.3531 0.8631
vn -0.0000 0.6063 0.7952
vn 0.5503 0.5110 0.6604
vn 0.9247 0.2272 0.3056
vn 0.9899 -0.0000 0.1414
vn -0.2363 -0.0787 -0.9685
vn 0.9704 -0.1174 0.2113
vn 0.9428 -0.2357 0.2357
vn 0.8858 -0.1254 0.4468
vn 0.6527 -0.0629 0.7550
vn 0.3600 0.0548 0.9313
vn 0.5091 0.2271 0.8302
vn 0.6911 0.0157 0.7226
vn 0.2902 -0.2432 0.9255
vn 0.4787 -0.1099 0.8711
vn 0.5024 -0.3062 0.8086
vn 0.4866 -0.2119 0.8476
vn -0.0000 0.0863 0.9963
vn -0.9704 -0.1174 0.2113
vn -0.9428 -0.2357 0.2357
vn -0.8858 -0.1254 0.4468
vn -0.6527 -0.0629 0.7550
vn -0.3600 0.0548 0.9313
vn -0.5091 0.2271 0.8302
vn -0.6911 0.0157 0.7226
vn -0.2902 -0.2432 0.9256
vn -0.0000 -0.1414 0.9899
vn -0.5426 0.5190 0.6605
vn -0.9235 0.2289 0.3078
vn -0.9899 -0.0000 0.1414
vn 0.2363 -0.0787 -0.9685
vt 0.359528 0.793640
vt 0.398224 0.648315
vt 0.425873 0.745880
vt 0.900604 0.367096
vt 0.897186 0.403442
vt 0.906555 0.383026
vt 0.192230 0.411713
vt 0.152710 0.289185
vt 0.098175 0.410065
vt 0.019806 0.970337
vt 0.012268 0.504211
vt 0.012268 0.683441
vt 0.495972 0.502106
vt 0.460022 0.509003
vt 0.479492 0.421906
vt 0.011292 0.384094
vt 0.080048 0.186523
vt 0.903625 0.636536
vt 0.982422 0.545349
vt 0.878082 0.620270
vt 0.878082 0.372437
vt 0.967621 0.310669
vt 0.988251 0.385742
vt 0.495972 0.255188
vt 0.377808 0.241028
vt 0.495972 0.123535
vt 0.359436 0.444763
vt 0.309631 0.402039
vt 0.358185 0.378632
vt 0.881622 0.380188
vt 0.905304 0.416870
vt 0.887024 0.436218
vt 0.881622 0.432770
vt 0.374115 0.325775
vt 0.425476 0.389984
vt 0.408142 0.441132
vt 0.277435 0.678162
vt 0.259949 0.827972
vt 0.178497 0.705139
vt 0.012268 0.986389
vt 0.455017 0.619812
vt 0.495972 0.610199
vt 0.247620 0.377838
vt 0.248810 0.445374
vt 0.342957 0.132111
vt 0.211517 0.206238
vt 0.193695 0.128693
vt 0.232697 0.288513
vt 0.512482 0.421906
vt 0.523773 0.396088
vt 0.495972 0.012634
vt 0.302582 0.012634
vt 0.077942 0.012634
vt 0.011383 0.216431
vt 0.011383 0.504211
vt 0.011383 0.683441
vt 0.072021 0.564209
vt 0.056152 0.707367
vt 0.140289 0.574524
vt 0.227325 0.571045
vt 0.330444 0.543976
vt 0.395264 0.520477
vt 0.446045 0.425476
vt 0.468201 0.396088
vt 0.495972 0.304474
vt 0.495972 0.357666
s 1
usemtl m_face70
f 55/34/55 56/35/56 57/36/57
f 58/37/58 59/38/59 60/39/60
f 61/40/61 62/41/62 63/42/63
f 64/43/64 65/44/65 66/45/66
f 67/46/67 68/47/68 69/48/69
f 70/42/70 71/49/71 72/50/72
f 73/51/73 74/52/74 75/53/75
f 76/54/76 75/53/75 77/55/77
f 77/55/77 75/53/75 74/52/74
f 77/55/77 74/52/74 78/56/78
f 79/57/79 80/58/80 81/59/81
f 82/60/82 83/61/83 84/62/84
f 85/63/71 86/37/85 87/38/65
f 87/38/65 86/37/85 88/39/86
f 88/39/86 89/64/87 87/38/65
f 87/38/65 89/64/87 90/65/88
f 87/38/65 90/65/88 91/66/75
f 92/67/89 93/68/90 84/62/84
f 84/62/84 93/68/90 94/69/91
f 84/62/84 94/69/91 82/60/82
f 56/35/56 55/34/55 95/70/92
f 95/70/92 55/34/55 96/71/93
f 95/70/92 96/71/93 97/72/94
f 98/53/95 99/52/96 100/51/97
f 101/56/98 99/52/96 102/55/99
f 102/55/99 99/52/96 98/53/95
f 102/55/99 98/53/95 103/54/100
f 104/73/101 105/43/102 106/44/103
f 106/44/103 105/43/102 107/45/104
f 108/60/105 109/69/106 110/62/107
f 59/38/59 58/37/58 111/63/108
f 56/35/56 68/47/68 112/74/109
f 112/74/109 68/47/68 67/46/67
f 112/74/109 67/46/67 113/75/110
f 113/75/110 67/46/67 114/74/111
f 115/66/112 116/65/113 59/38/59
f 59/38/59 116/65/113 117/64/114
f 59/38/59 117/64/114 60/39/60
f 62/41/62 61/40/61 118/76/115
f 118/76/115 61/40/61 119/77/116
f 118/76/115 119/77/116 120/61/117
f 121/58/118 122/78/119 123/79/120
f 123/79/120 122/78/119 124/80/121
f 123/79/120 124/80/121 125/50/122
f 126/36/123 127/35/124 128/34/125
f 128/34/125 127/35/124 129/70/126
f 128/34/125 129/70/126 130/71/127
f 130/71/127 129/70/126 131/72/128
f 65/44/65 64/43/64 132/73/129
f 109/69/106 133/68/130 110/62/107
f 110/62/107 133/68/130 134/67/131
f 110/62/107 134/67/131 135/81/132
f 127/35/124 114/74/111 136/47/133
f 136/47/133 114/74/111 67/46/67
f 136/47/133 67/46/67 137/48/134
f 137/48/134 67/46/67 138/82/135
f 137/48/134 138/82/135 139/83/136
f 140/40/137 70/42/70 141/41/138
f 141/41/138 70/42/70 72/50/72
f 141/41/138 72/50/72 142/79/139
f 142/79/139 72/50/72 143/80/140
f 142/79/139 143/80/140 144/78/141
f 145/84/142 144/78/141 146/85/143
f 146/85/143 144/78/141 143/80/140
f 146/85/143 143/80/140 147/86/144
f 147/86/144 143/80/140 72/50/72
f 147/86/144 72/50/72 148/87/145
f 148/87/145 72/50/72 71/49/71
f 148/87/145 71/49/71 149/88/146
f 119/77/116 108/60/105 120/61/117
f 120/61/117 108/60/105 110/62/107
f 120/61/117 110/62/107 118/76/115
f 118/76/115 110/62/107 135/81/132
f 118/76/115 135/81/132 62/41/62
f 150/89/66 151/90/147 152/91/148
f 152/91/148 151/90/147 153/92/149
f 152/91/148 153/92/149 97/72/94
f 97/72/94 153/92/149 154/93/150
f 97/72/94 154/93/150 95/70/92
f 95/70/92 154/93/150 155/94/151
f 95/70/92 155/94/151 56/35/56
f 56/35/56 155/94/151 156/95/152
f 56/35/56 156/95/152 68/47/68
f 68/47/68 156/95/152 157/96/153
f 68/47/68 157/96/153 69/48/69
f 69/48/69 157/96/153 158/97/154
f 82/60/82 159/77/155 83/61/83
f 83/61/83 159/77/155 160/76/156
f 83/61/83 160/76/156 84/62/84
f 84/62/84 160/76/156 161/81/157
f 84/62/84 161/81/157 92/67/89
f 92/67/89 161/81/157 80/58/80
f 92/67/89 80/58/80 162/98/158
f 162/98/158 80/58/80 79/57/79
f 162/98/158 79/57/79 121/58/118
f 121/58/118 79/57/79 81/59/81
f 121/58/118 81/59/81 122/78/119
f 163/90/159 164/91/160 165/92/161
f 165/92/161 164/91/160 131/72/128
f 165/92/161 131/72/128 166/93/162
f 166/93/162 131/72/128 129/70/126
f 166/93/162 129/70/126 167/94/163
f 167/94/163 129/70/126 127/35/124
f 167/94/163 127/35/124 168/95/164
f 168/95/164 127/35/124 136/47/133
f 168/95/164 136/47/133 169/96/165
f 169/96/165 136/47/133 137/48/134
f 169/96/165 137/48/134 170/97/166
f 170/97/166 137/48/134 139/83/136
f 170/97/166 139/83/136 171/99/167
f 171/99/167 134/67/131 170/97/166
f 170/97/166 134/67/131 133/68/130
f 170/97/166 133/68/130 169/96/165
f 169/96/165 133/68/130 109/69/106
f 169/96/165 109/69/106 168/95/164
f 168/95/164 109/69/106 108/60/105
f 168/95/164 108/60/105 167/94/163
f 167/94/163 108/60/105 119/77/116
f 167/94/163 119/77/116 166/93/162
f 166/93/162 119/77/116 61/40/61
f 166/93/162 61/40/61 165/92/161
f 165/92/161 61/40/61 63/42/63
f 165/92/161 63/42/63 163/90/159
f 159/77/155 140/40/137 160/76/156
f 160/76/156 140/40/137 141/41/138
f 160/76/156 141/41/138 161/81/157
f 161/81/157 141/41/138 142/79/139
f 161/81/157 142/79/139 80/58/80
f 80/58/80 142/79/139 144/78/141
f 80/58/80 144/78/141 81/59/81
f 81/59/81 144/78/141 145/84/142
f 81/59/81 145/84/142 122/78/119
f 122/78/119 145/84/142 172/85/168
f 122/78/119 172/85/168 124/80/121
f 124/80/121 172/85/168 173/86/169
f 124/80/121 173/86/169 125/50/122
f 125/50/122 173/86/169 174/87/170
f 125/50/122 174/87/170 175/49/108
f 175/49/108 174/87/170 176/88/171
f 150/89/66 71/49/71 151/90/147
f 151/90/147 71/49/71 70/42/70
f 151/90/147 70/42/70 153/92/149
f 153/92/149 70/42/70 140/40/137
f 153/92/149 140/40/137 154/93/150
f 154/93/150 140/40/137 159/77/155
f 154/93/150 159/77/155 155/94/151
f 155/94/151 159/77/155 82/60/82
f 155/94/151 82/60/82 156/95/152
f 156/95/152 82/60/82 94/69/91
f 156/95/152 94/69/91 157/96/153
f 157/96/153 94/69/91 93/68/90
f 157/96/153 93/68/90 158/97/154
f 158/97/154 93/68/90 92/67/89
f 158/97/154 92/67/89 171/99/167
f 171/99/167 92/67/89 162/98/158
f 171/99/167 162/98/158 134/67/131
f 134/67/131 162/98/158 121/58/118
f 134/67/131 121/58/118 135/81/132
f 135/81/132 121/58/118 123/79/120
f 135/81/132 123/79/120 62/41/62
f 62/41/62 123/79/120 125/50/122
f 62/41/62 125/50/122 63/42/63
f 63/42/63 125/50/122 175/49/108
f 63/42/63 175/49/108 163/90/159
f 163/90/159 175/49/108 177/89/104
f 163/90/159 177/89/104 164/91/160
