mtllib face_17.mtl
o editpl_m-0000-147
v 5.754328 47.957287 2.264074
v 5.979191 50.036240 3.222758
v 4.873840 49.804886 5.909763
v -4.258853 46.405300 0.298884
v -6.014411 47.851250 0.768886
v -7.163109 53.779636 -2.317882
v -1.327505 47.436745 9.683974
v 0.000000 46.684853 9.148217
v 0.000000 47.385334 10.128571
v -6.447882 50.248310 0.347454
v -3.072226 50.617828 8.331505
v -4.052954 50.306149 7.457257
v -2.381382 48.153294 8.779090
v 5.104122 46.620586 2.015250
v 4.093592 46.167522 5.548109
v 3.600519 45.370644 5.374007
v 1.354597 49.534977 10.125581
v 0.000000 48.956596 10.089715
v 1.108060 48.567799 9.488949
v 0.000000 48.596718 9.562924
v 1.942492 44.519142 7.722521
v 2.904256 45.833347 7.351900
v 1.682410 45.502384 8.567626
v 1.877472 46.627014 8.387547
v -1.313959 48.098667 9.648855
v 0.000000 48.111519 10.082991
v -1.108060 48.567799 9.488949
v 6.447882 50.248310 0.347454
v 6.014411 47.851250 0.768886
v 7.163109 53.779636 -2.317882
v 0.000000 45.875118 9.042859
v -1.877472 46.627014 8.387547
v 0.000000 44.265297 7.898865
v 0.000000 44.795479 8.651315
v -1.942492 44.519142 7.722521
v -1.975003 50.923084 9.181095
v -1.698665 49.946266 9.549474
v -1.354597 49.534977 10.125581
v 1.313959 48.098667 9.648855
v 2.381382 48.153294 8.779090
v 1.698665 49.946266 9.549474
v -5.104122 46.620586 2.015250
v 0.000000 44.303856 3.787658
v -3.600519 45.370644 5.374007
v -1.682410 45.502384 8.567626
v -2.904256 45.833347 7.351900
v -4.093592 46.167522 5.548109
v 0.000000 51.906330 10.745774
v -0.931963 51.556091 10.338539
v 0.000000 51.109451 10.597077
v 0.000000 50.621044 9.827440
v 0.000000 50.049091 9.913371
v 0.000000 49.589600 10.440908
v -3.749525 47.443169 7.298846
v -4.873840 49.804886 5.909763
v -5.754328 47.957287 2.264074
v -5.979191 50.036240 3.222758
v 1.327505 47.436745 9.683974
v 3.749525 47.443169 7.298846
v 4.258853 46.405300 0.298884
v 1.975003 50.923084 9.181095
v 3.072226 50.617828 8.331505
v 4.052954 50.306149 7.457257
v 0.931963 51.556091 10.338539
vn 0.9290 -0.2913 0.2283
vn 0.9279 -0.2752 0.2516
vn 0.8621 -0.2664 0.4310
vn -0.5666 -0.7477 -0.3463
vn -0.8952 -0.4319 -0.1099
vn 0.2589 -0.0393 -0.9651
vn -0.4741 -0.4188 0.7744
vn -0.0000 -0.6371 0.7708
vn -0.0000 -0.4315 0.9021
vn -0.9600 -0.1731 0.2203
vn -0.6054 -0.0550 0.7940
vn -0.7355 -0.1643 0.6573
vn -0.6623 -0.1104 0.7411
vn 0.6992 -0.7149 0.0078
vn 0.8497 -0.4170 0.3226
vn 0.6054 -0.7940 0.0550
vn 0.3930 -0.0078 0.9195
vn -0.0000 -0.6456 0.7637
vn 0.2676 -0.2833 0.9209
vn 0.0628 0.0392 0.9973
vn 0.5099 -0.7531 0.4158
vn 0.7312 -0.2988 0.6133
vn 0.4640 -0.2516 0.8493
vn 0.5322 -0.2818 0.7983
vn -0.4569 0.2599 0.8507
vn -0.0235 0.4313 0.9019
vn -0.2989 -0.0708 0.9517
vn 0.9600 -0.1731 0.2203
vn 0.8952 -0.4319 -0.1099
vn -0.2589 -0.0392 -0.9651
vn -0.0000 -0.1260 0.9920
vn -0.5322 -0.2818 0.7983
vn -0.0000 -0.9548 0.2974
vn -0.0000 -0.6063 0.7953
vn -0.5099 -0.7531 0.4158
vn -0.5600 -0.0237 0.8282
vn -0.5023 0.2355 0.8320
vn -0.3930 -0.0078 0.9195
vn 0.3781 0.3465 0.8585
vn 0.6623 -0.1104 0.7411
vn 0.5023 0.2355 0.8320
vn -0.6992 -0.7149 0.0078
vn -0.0000 -0.9956 -0.0941
vn -0.6054 -0.7940 0.0550
vn -0.4640 -0.2516 0.8493
vn -0.7312 -0.2988 0.6133
vn -0.8497 -0.4170 0.3226
vn -0.0000 0.3303 0.9439
vn -0.5797 0.0157 0.8147
vn -0.0000 -0.5798 0.8148
vn -0.0000 -0.1568 0.9876
vn -0.0000 0.5886 0.8084
vn -0.0000 0.1721 0.9851
vn -0.7604 -0.2587 0.5957
vn -0.8621 -0.2664 0.4310
vn -0.9290 -0.2913 0.2283
vn -0.9279 -0.2752 0.2516
vn 0.4741 -0.4188 0.7745
vn 0.7604 -0.2587 0.5957
vn 0.5666 -0.7477 -0.3463
vn 0.5600 -0.0237 0.8282
vn 0.6054 -0.0550 0.7940
vn 0.7355 -0.1643 0.6573
vn 0.5797 0.0156 0.8147
vt 0.932281 0.856445
vt 0.943817 0.707367
vt 0.821472 0.705139
vt 0.987244 0.986725
vt 0.980286 0.970337
vt 0.987823 0.504211
vt 0.584595 0.833038
vt 0.500000 0.871918
vt 0.500000 0.832886
vt 0.987823 0.683441
vt 0.665070 0.661957
vt 0.721893 0.681854
vt 0.657806 0.781281
vt 0.897614 0.975708
vt 0.783325 0.926483
vt 0.703247 0.980988
vt 0.590851 0.730164
vt 0.500000 0.760223
vt 0.581848 0.773590
vt 0.500000 0.780182
vt 0.632660 0.978210
vt 0.692047 0.935394
vt 0.607727 0.944763
vt 0.633148 0.891266
vt 0.583221 0.804779
vt 0.500000 0.806549
vt 0.500000 0.913239
vt 0.499390 0.980591
vt 0.500000 0.948395
vt 0.608246 0.642059
vt 0.599548 0.686096
vt 0.499390 0.986725
vt 0.500000 0.616577
vt 0.544952 0.619812
vt 0.500000 0.645508
vt 0.500000 0.673584
vt 0.500000 0.704346
vt 0.500000 0.735138
vt 0.724365 0.829834
s 1
usemtl m_face88
f 1/1/1 2/2/2 3/3/3
f 4/4/4 5/5/5 6/6/6
f 7/7/7 8/8/8 9/9/9
f 5/5/5 10/10/10 6/6/6
f 11/11/11 12/12/12 13/13/13
f 14/14/14 15/15/15 16/16/16
f 17/17/17 18/18/18 19/19/19
f 19/19/19 18/18/18 20/20/20
f 21/21/21 22/22/22 23/23/23
f 23/23/23 22/22/22 24/24/24
f 25/25/25 26/26/26 27/19/27
f 2/2/2 1/1/1 28/10/28
f 28/10/28 1/1/1 29/5/29
f 28/10/28 29/5/29 30/6/30
f 31/27/31 8/8/8 32/24/32
f 33/28/33 34/29/34 35/21/35
f 36/30/36 11/11/11 37/31/37
f 37/31/37 11/11/11 13/13/13
f 37/31/37 13/13/13 38/17/38
f 20/20/20 39/25/39 19/19/19
f 19/19/19 39/25/39 40/13/40
f 19/19/19 40/13/40 17/17/17
f 17/17/17 40/13/40 41/31/41
f 5/5/5 4/4/4 42/14/42
f 42/14/42 4/4/4 43/32/43
f 42/14/42 43/32/43 44/16/44
f 34/29/34 45/23/45 35/21/35
f 35/21/35 45/23/45 46/22/46
f 35/21/35 46/22/46 47/15/47
f 48/33/48 49/34/49 50/35/50
f 50/35/50 49/34/49 36/30/36
f 50/35/50 36/30/36 51/36/51
f 51/36/51 36/30/36 37/31/37
f 51/36/51 37/31/37 52/37/52
f 52/37/52 37/31/37 38/17/38
f 52/37/52 38/17/38 53/38/53
f 8/8/8 7/7/7 32/24/32
f 32/24/32 7/7/7 13/13/13
f 32/24/32 13/13/13 54/39/54
f 54/39/54 13/13/13 12/12/12
f 54/39/54 12/12/12 55/3/55
f 34/29/34 31/27/31 45/23/45
f 45/23/45 31/27/31 32/24/32
f 45/23/45 32/24/32 46/22/46
f 46/22/46 32/24/32 54/39/54
f 46/22/46 54/39/54 47/15/47
f 47/15/47 54/39/54 55/3/55
f 47/15/47 55/3/55 56/1/56
f 56/1/56 55/3/55 57/2/57
f 56/1/56 57/2/57 10/10/10
f 18/18/18 27/19/27 20/20/20
f 20/20/20 27/19/27 26/26/26
f 20/20/20 26/26/26 39/25/39
f 39/25/39 26/26/26 58/7/58
f 39/25/39 58/7/58 40/13/40
f 40/13/40 58/7/58 24/24/24
f 40/13/40 24/24/24 59/39/59
f 59/39/59 24/24/24 22/22/22
f 59/39/59 22/22/22 15/15/15
f 15/15/15 22/22/22 21/21/21
f 15/15/15 21/21/21 16/16/16
f 16/16/16 21/21/21 43/32/43
f 16/16/16 43/32/43 14/14/14
f 14/14/14 43/32/43 60/4/60
f 61/30/61 41/31/41 62/11/62
f 62/11/62 41/31/41 40/13/40
f 62/11/62 40/13/40 63/12/63
f 63/12/63 40/13/40 59/39/59
f 63/12/63 59/39/59 3/3/3
f 3/3/3 59/39/59 15/15/15
f 3/3/3 15/15/15 1/1/1
f 1/1/1 15/15/15 14/14/14
f 1/1/1 14/14/14 29/5/29
f 29/5/29 14/14/14 60/4/60
f 29/5/29 60/4/60 30/6/30
f 10/10/10 5/5/5 56/1/56
f 56/1/56 5/5/5 42/14/42
f 56/1/56 42/14/42 47/15/47
f 47/15/47 42/14/42 44/16/44
f 47/15/47 44/16/44 35/21/35
f 35/21/35 44/16/44 43/32/43
f 35/21/35 43/32/43 33/28/33
f 33/28/33 43/32/43 21/21/21
f 33/28/33 21/21/21 34/29/34
f 34/29/34 21/21/21 23/23/23
f 34/29/34 23/23/23 31/27/31
f 31/27/31 23/23/23 24/24/24
f 31/27/31 24/24/24 8/8/8
f 8/8/8 24/24/24 58/7/58
f 8/8/8 58/7/58 9/9/9
f 9/9/9 58/7/58 26/26/26
f 9/9/9 26/26/26 7/7/7
f 7/7/7 26/26/26 25/25/25
f 7/7/7 25/25/25 13/13/13
f 13/13/13 25/25/25 27/19/27
f 13/13/13 27/19/27 38/17/38
f 38/17/38 27/19/27 18/18/18
f 38/17/38 18/18/18 53/38/53
f 53/38/53 18/18/18 17/17/17
f 53/38/53 17/17/17 52/37/52
f 52/37/52 17/17/17 41/31/41
f 52/37/52 41/31/41 51/36/51
f 51/36/51 41/31/41 61/30/61
f 51/36/51 61/30/61 50/35/50
f 50/35/50 61/30/61 64/34/64
f 50/35/50 64/34/64 48/33/48
o editpl_m-0000-148
v -7.824153 56.199192 -1.170151
v -7.163109 53.779636 -2.317882
v -8.590855 55.559761 -2.843925
v 4.369930 54.162010 7.801725
v 2.218830 54.023842 8.355416
v 2.971986 52.622879 8.504113
v 1.975003 50.923084 9.181095
v 3.072226 50.617828 8.331505
v -3.072226 50.617828 8.331505
v -1.975003 50.923084 9.181095
v -2.971986 52.622879 8.504113
v 0.000000 52.375462 10.393833
v -1.026785 52.198734 9.847615
v 0.000000 51.906330 10.745774
v 0.726064 54.210209 9.492685
v 0.000000 54.412640 9.879746
v 1.026785 52.198734 9.847615
v 7.255222 49.923775 -1.247862
v 8.574599 53.165913 -3.065850
v 6.447882 50.248310 0.347454
v 6.862389 55.174175 0.347454
v 7.824153 56.199192 -1.170151
v 8.590855 55.559761 -2.843925
v 0.000000 57.041054 9.526309
v 2.151100 57.285259 9.034638
v 0.000000 59.762650 9.240871
v 5.142050 54.502609 6.952883
v 4.621885 52.397953 7.732234
v 5.716400 52.025219 6.218365
v 3.226650 54.611862 8.365877
v 2.232376 55.090630 8.504113
v 6.862389 55.174175 0.347454
v 7.824153 56.199192 -1.170151
v 7.163109 53.779636 -2.317882
v 8.590855 55.559761 -2.843925
v 0.931963 51.556091 10.338539
v 1.842252 52.655010 8.688676
v 4.052954 50.306149 7.457257
v 4.873840 49.804886 5.909763
v 8.574599 53.165913 -3.065850
v 7.255222 49.923775 -1.247862
v 6.447882 50.248310 0.347454
v 6.466846 58.175320 3.896751
v 6.101105 55.016727 5.561558
v 6.862389 55.174175 0.347454
v 6.450591 52.487923 4.377214
v 6.447882 50.248310 0.347454
v 5.979191 50.036240 3.222758
v -6.447882 50.248310 0.347454
v -8.574599 53.165913 -3.065850
v -7.255222 49.923775 -1.247862
v -8.590855 55.559761 -2.843925
v -7.824153 56.199192 -1.170151
v -6.862389 55.174175 0.347454
v -5.142050 54.502609 6.952883
v -6.450591 52.487923 4.377214
v -5.716400 52.025219 6.218365
v -5.979191 50.036240 3.222758
v -4.052954 50.306149 7.457257
v -4.621885 52.397953 7.732234
v -4.873840 49.804886 5.909763
v -6.862389 55.174175 0.347454
v -6.447882 50.248310 0.347454
v -7.255222 49.923775 -1.247862
v -8.574599 53.165913 -3.065850
v -4.369930 54.162010 7.801725
v -2.232376 55.007088 8.504113
v -1.555077 54.390148 8.564638
v -0.853396 55.029579 9.126547
v -0.726064 54.210209 9.492685
v -2.151100 57.285259 9.034638
v -2.717322 59.820488 8.834383
v -4.624594 57.786522 8.105844
v -5.272092 59.283878 6.961102
v -6.466846 58.175320 3.896751
v 3.717014 62.619202 6.400686
v 5.272092 59.283878 6.961102
v 6.193218 61.047935 3.615795
v 7.390682 58.499855 -1.933811
v 7.163109 53.779636 -2.317882
v -3.226650 54.554024 8.365877
v -2.218830 54.023842 8.355416
v -1.842252 52.655010 8.688676
v -0.931963 51.556091 10.338539
v 5.201653 56.401623 7.762870
v 4.624594 57.786522 8.105844
v 2.717322 59.820488 8.834383
v 0.000000 62.905178 7.103820
v 4.388894 55.135616 7.907831
v 4.218215 56.507660 8.701379
v 1.760976 55.820030 9.424688
v 0.000000 56.446609 9.754960
v -7.163109 53.779636 -2.317882
v -6.862389 55.174175 0.347454
v -7.390682 58.499855 -1.933811
v -6.193218 61.047935 3.615795
v -3.717014 62.619202 6.400686
v -4.388894 55.052071 7.907831
v 1.555077 54.390148 8.564638
v 0.853396 55.029579 9.126547
v 0.000000 55.199879 9.485960
v -1.760976 55.820030 9.424688
v -4.218215 56.295586 8.701379
v -5.201653 56.189552 7.762870
v -6.101105 55.016727 5.561558
v -6.447882 50.248310 0.347454
vn 0.8164 0.4161 -0.4004
vn 0.2589 -0.0392 -0.9651
vn 0.6187 0.2741 -0.7362
vn 0.4871 -0.0471 0.8721
vn 0.2202 -0.0236 0.9752
vn 0.3381 0.1022 0.9356
vn 0.5600 -0.0236 0.8281
vn 0.6054 -0.0550 0.7940
vn -0.6054 -0.0550 0.7940
vn -0.5600 -0.0236 0.8281
vn -0.3381 0.1022 0.9356
vn -0.0000 0.4315 0.9021
vn -0.6206 0.3221 0.7149
vn -0.0000 0.3304 0.9438
vn 0.6451 0.2203 0.7316
vn -0.0000 0.3209 0.9471
vn 0.6206 0.3221 0.7149
vn 0.8808 -0.0944 0.4640
vn 0.8874 -0.0707 0.4555
vn 0.9599 -0.1731 0.2204
vn 0.9861 0.0235 0.1644
vn 0.8830 -0.0631 0.4651
vn 0.9045 -0.0393 0.4247
vn -0.0000 0.2277 0.9737
vn 0.2278 0.1728 0.9583
vn -0.0000 0.2426 0.9701
vn 0.8032 -0.0788 0.5905
vn 0.6654 -0.1253 0.7359
vn 0.8736 -0.1889 0.4486
vn 0.2522 -0.1103 0.9614
vn 0.2908 -0.3144 0.9037
vn 0.9861 0.0234 0.1644
vn -0.8165 0.4161 -0.4003
vn -0.2589 -0.0392 -0.9651
vn -0.6187 0.2741 -0.7362
vn 0.5797 0.0157 0.8147
vn 0.5108 0.2122 0.8331
vn 0.7355 -0.1644 0.6573
vn 0.8621 -0.2665 0.4310
vn -0.4957 -0.0708 -0.8656
vn -0.7389 -0.1965 -0.6445
vn 0.9599 -0.1731 0.2203
vn 0.9598 0.0551 0.2753
vn 0.9400 -0.0548 0.3368
vn 0.9861 0.0235 0.1643
vn 0.9603 -0.1023 0.2597
vn 0.9600 -0.1731 0.2203
vn 0.9279 -0.2752 0.2516
vn -0.9599 -0.1731 0.2204
vn -0.8874 -0.0707 0.4555
vn -0.8808 -0.0944 0.4640
vn -0.9045 -0.0393 0.4247
vn -0.8830 -0.0631 0.4651
vn -0.9861 0.0235 0.1644
vn -0.8021 -0.0944 0.5897
vn -0.9603 -0.1023 0.2597
vn -0.8736 -0.1889 0.4486
vn -0.9279 -0.2752 0.2516
vn -0.7355 -0.1644 0.6573
vn -0.6654 -0.1253 0.7359
vn -0.8621 -0.2665 0.4311
vn -0.9861 0.0234 0.1644
vn -0.9599 -0.1731 0.2203
vn 0.7389 -0.1965 -0.6445
vn 0.4957 -0.0708 -0.8656
vn -0.4867 -0.0628 0.8713
vn -0.2670 -0.3142 0.9110
vn -0.5029 -0.0000 0.8644
vn -0.4783 -0.1176 0.8703
vn -0.6451 0.2203 0.7316
vn -0.2355 0.1649 0.9578
vn -0.3545 0.3309 0.8745
vn -0.6679 0.1414 0.7307
vn -0.8032 0.2441 0.5434
vn -0.9602 0.0472 0.2754
vn 0.5496 0.5025 0.6674
vn 0.8032 0.2441 0.5434
vn 0.9212 0.2283 0.3149
vn 0.9888 -0.0000 0.1491
vn -0.2590 -0.0392 -0.9651
vn -0.2517 -0.1259 0.9596
vn -0.2201 -0.0393 0.9747
vn -0.5108 0.2122 0.8331
vn -0.5797 0.0157 0.8147
vn 0.8064 -0.0704 0.5872
vn 0.6619 0.1576 0.7328
vn 0.3545 0.3309 0.8745
vn -0.0000 0.5886 0.8084
vn 0.5106 -0.1807 0.8406
vn 0.4490 -0.1418 0.8822
vn 0.2756 -0.2992 0.9135
vn -0.0000 0.1096 0.9940
vn 0.2590 -0.0393 -0.9651
vn -0.9861 0.0235 0.1643
vn -0.9888 -0.0000 0.1491
vn -0.9212 0.2283 0.3149
vn -0.5496 0.5025 0.6674
vn -0.5117 -0.2047 0.8344
vn 0.5087 -0.0000 0.8609
vn 0.4876 -0.1180 0.8651
vn -0.0000 -0.1337 0.9910
vn -0.2597 -0.2911 0.9208
vn -0.4411 -0.1654 0.8821
vn -0.8085 -0.0942 0.5809
vn -0.9400 -0.0548 0.3368
vn -0.9600 -0.1731 0.2203
vt 0.099365 0.367096
vt 0.102783 0.403442
vt 0.093414 0.383026
vt 0.757446 0.483368
vt 0.632812 0.480896
vt 0.672028 0.555695
vt 0.608246 0.642059
vt 0.665070 0.661957
vt 0.500000 0.550903
vt 0.545135 0.555634
vt 0.500000 0.616577
vt 0.545349 0.452759
vt 0.500000 0.446472
vt 0.066528 0.624908
vt 0.015472 0.486450
vt 0.121887 0.620270
vt 0.121887 0.372437
vt 0.041077 0.315033
vt 0.013306 0.341370
vt 0.500000 0.270020
vt 0.597748 0.236145
vt 0.500000 0.134735
vt 0.816559 0.425385
vt 0.760101 0.573212
vt 0.859680 0.573151
vt 0.692474 0.417603
vt 0.632874 0.371063
vt 0.118347 0.380188
vt 0.544952 0.619812
vt 0.615906 0.518951
vt 0.721893 0.681854
vt 0.821472 0.705139
vt 0.094666 0.416870
vt 0.112946 0.436218
vt 0.118347 0.432770
vt 0.919922 0.207306
vt 0.901794 0.392365
vt 0.987701 0.384094
vt 0.927948 0.553680
vt 0.987640 0.683441
vt 0.943817 0.707367
vt 0.592712 0.444214
vt 0.553406 0.403015
vt 0.655212 0.132111
vt 0.802246 0.209686
vt 0.833496 0.145599
vt 0.697388 0.011993
vt 0.922028 0.011993
vt 0.987640 0.216431
vt 0.987640 0.504211
vt 0.829041 0.309113
vt 0.500000 0.011993
vt 0.760895 0.370636
vt 0.767273 0.306793
vt 0.594849 0.339813
vt 0.500000 0.320251
vt 0.500000 0.384521
s 1
usemtl m_face88
f 65/40/65 66/41/66 67/42/67
f 68/43/68 69/44/69 70/45/70
f 70/45/70 71/46/71 72/47/72
f 73/47/73 74/46/74 75/45/75
f 76/48/76 77/49/77 78/50/78
f 79/51/79 80/52/80 81/49/81
f 82/53/82 83/54/83 84/55/84
f 85/56/85 84/55/84 86/57/86
f 86/57/86 84/55/84 83/54/83
f 86/57/86 83/54/83 87/58/87
f 88/59/88 89/60/89 90/61/90
f 91/62/91 92/63/92 93/64/93
f 69/44/69 94/65/94 95/66/95
f 96/67/96 97/40/97 98/41/98
f 98/41/98 97/40/97 99/42/99
f 100/68/100 71/46/71 81/49/81
f 81/49/81 71/46/71 101/69/101
f 81/49/81 101/69/101 79/51/79
f 72/47/72 102/70/102 92/63/92
f 92/63/92 102/70/102 103/71/103
f 92/63/92 103/71/103 93/64/93
f 99/42/99 104/72/104 98/41/98
f 98/41/98 104/72/104 105/73/105
f 98/41/98 105/73/105 106/74/106
f 107/75/107 108/76/108 109/77/109
f 109/77/109 108/76/108 110/78/110
f 109/77/109 110/78/110 111/79/111
f 111/79/111 110/78/110 112/80/112
f 113/55/113 114/54/114 115/53/115
f 116/58/116 114/54/114 117/57/117
f 117/57/117 114/54/114 113/55/113
f 117/57/117 113/55/113 118/56/118
f 119/62/119 120/78/120 121/64/121
f 121/64/121 120/78/120 122/80/122
f 123/70/123 124/63/124 125/71/125
f 66/41/66 65/40/65 126/67/126
f 127/74/127 128/73/128 66/41/66
f 66/41/66 128/73/128 129/72/129
f 66/41/66 129/72/129 67/42/67
f 123/70/123 73/47/73 124/63/124
f 124/63/124 73/47/73 75/45/75
f 124/63/124 75/45/75 130/43/130
f 131/66/131 132/81/132 133/82/133
f 133/82/133 132/81/132 134/51/134
f 133/82/133 134/51/134 80/52/80
f 135/60/135 136/83/136 137/84/137
f 137/84/137 136/83/136 138/85/138
f 137/84/137 138/85/138 139/75/139
f 140/86/140 141/85/141 142/87/142
f 142/87/142 141/85/141 107/75/107
f 142/87/142 107/75/107 143/88/143
f 143/88/143 107/75/107 109/77/109
f 143/88/143 109/77/109 144/89/144
f 145/65/145 130/43/130 146/44/146
f 146/44/146 130/43/130 75/45/75
f 146/44/146 75/45/75 147/69/147
f 147/69/147 75/45/75 74/46/74
f 147/69/147 74/46/74 77/49/77
f 77/49/77 74/46/74 148/68/148
f 77/49/77 148/68/148 78/50/78
f 103/71/103 112/80/112 93/64/93
f 93/64/93 112/80/112 110/78/110
f 93/64/93 110/78/110 91/62/91
f 91/62/91 110/78/110 108/76/108
f 91/62/91 108/76/108 149/90/149
f 149/90/149 108/76/108 107/75/107
f 149/90/149 107/75/107 150/84/150
f 150/84/150 107/75/107 141/85/141
f 150/84/150 141/85/141 151/83/151
f 151/83/151 141/85/141 140/86/140
f 151/83/151 140/86/140 152/91/152
f 69/44/69 68/43/68 94/65/94
f 94/65/94 68/43/68 153/92/153
f 94/65/94 153/92/153 95/66/95
f 95/66/95 153/92/153 154/93/154
f 95/66/95 154/93/154 155/94/155
f 155/94/155 154/93/154 89/60/89
f 155/94/155 89/60/89 156/95/156
f 156/95/156 89/60/89 88/59/88
f 156/95/156 88/59/88 135/60/135
f 135/60/135 88/59/88 90/61/90
f 135/60/135 90/61/90 136/83/136
f 157/89/157 158/77/158 159/88/159
f 159/88/159 158/77/158 139/75/139
f 159/88/159 139/75/139 160/87/160
f 160/87/160 139/75/139 138/85/138
f 160/87/160 138/85/138 161/86/161
f 161/86/161 138/85/138 136/83/136
f 161/86/161 136/83/136 152/91/152
f 152/91/152 136/83/136 90/61/90
f 152/91/152 90/61/90 151/83/151
f 151/83/151 90/61/90 89/60/89
f 151/83/151 89/60/89 150/84/150
f 150/84/150 89/60/89 154/93/154
f 150/84/150 154/93/154 149/90/149
f 149/90/149 154/93/154 153/92/153
f 149/90/149 153/92/153 91/62/91
f 91/62/91 153/92/153 68/43/68
f 91/62/91 68/43/68 92/63/92
f 92/63/92 68/43/68 70/45/70
f 92/63/92 70/45/70 72/47/72
f 122/80/122 125/71/125 121/64/121
f 121/64/121 125/71/125 124/63/124
f 121/64/121 124/63/124 119/62/119
f 119/62/119 124/63/124 130/43/130
f 119/62/119 130/43/130 162/92/162
f 162/92/162 130/43/130 145/65/145
f 162/92/162 145/65/145 131/66/131
f 131/66/131 145/65/145 146/44/146
f 131/66/131 146/44/146 132/81/132
f 132/81/132 146/44/146 147/69/147
f 132/81/132 147/69/147 134/51/134
f 134/51/134 147/69/147 77/49/77
f 134/51/134 77/49/77 80/52/80
f 80/52/80 77/49/77 76/48/76
f 80/52/80 76/48/76 81/49/81
f 81/49/81 76/48/76 78/50/78
f 81/49/81 78/50/78 100/68/100
f 101/69/101 163/81/163 79/51/79
f 79/51/79 163/81/163 164/82/164
f 79/51/79 164/82/164 80/52/80
f 80/52/80 164/82/164 165/96/165
f 80/52/80 165/96/165 133/82/133
f 133/82/133 165/96/165 166/94/166
f 133/82/133 166/94/166 131/66/131
f 131/66/131 166/94/166 167/93/167
f 131/66/131 167/93/167 162/92/162
f 162/92/162 167/93/167 168/90/168
f 162/92/162 168/90/168 119/62/119
f 119/62/119 168/90/168 169/76/169
f 119/62/119 169/76/169 120/78/120
f 71/46/71 70/45/70 101/69/101
f 101/69/101 70/45/70 69/44/69
f 101/69/101 69/44/69 163/81/163
f 163/81/163 69/44/69 95/66/95
f 163/81/163 95/66/95 164/82/164
f 164/82/164 95/66/95 155/94/155
f 164/82/164 155/94/155 165/96/165
f 165/96/165 155/94/155 156/95/156
f 165/96/165 156/95/156 166/94/166
f 166/94/166 156/95/156 135/60/135
f 166/94/166 135/60/135 167/93/167
f 167/93/167 135/60/135 137/84/137
f 167/93/167 137/84/137 168/90/168
f 168/90/168 137/84/137 139/75/139
f 168/90/168 139/75/139 169/76/169
f 169/76/169 139/75/139 158/77/158
f 169/76/169 158/77/158 120/78/120
f 120/78/120 158/77/158 170/79/170
f 120/78/120 170/79/170 122/80/122
