mtllib face_01.mtl
o editpl_m-0000-117
v 1.162244 51.601074 11.213534
v 0.000000 50.572845 10.174898
v 2.007513 51.109451 9.033145
v 5.740782 47.713081 2.786381
v 6.060467 50.081223 3.142806
v 4.857585 50.200111 6.779528
v -4.199251 46.405300 0.298884
v -5.941263 48.140438 1.274007
v -7.163109 53.779636 -2.317882
v 2.860909 49.197590 8.433874
v 3.622193 47.841610 7.728498
v 3.600519 50.431465 8.313571
v -6.512903 50.248310 0.347454
v 1.265194 49.162243 9.547980
v 1.376271 48.381432 9.589824
v -0.138169 49.149387 9.723577
v -0.138169 48.442482 10.020224
v 0.000000 51.000202 11.139559
v 6.512903 50.248310 0.347454
v 5.941263 48.140438 1.274007
v 7.163109 53.779636 -2.317882
v 0.000000 46.145031 9.187819
v 0.000000 47.108997 9.191556
v -1.828706 47.137917 8.424907
v -5.740782 47.713081 2.786381
v -4.015026 46.617374 5.842514
v -3.622193 47.841610 7.625381
v -1.267903 49.142963 9.547980
v -0.138169 49.149387 9.723577
v -0.138169 49.348610 9.926073
v 1.265194 49.162243 9.547980
v 1.549659 49.682785 9.991829
v -0.138169 49.653866 10.105406
v -1.660736 49.759899 9.893943
v -2.099625 51.327953 9.007739
v -5.052647 46.386021 3.044173
v 0.000000 44.303856 3.787658
v -3.489442 45.438122 5.374007
v -2.866327 49.187946 8.312824
v -3.622193 47.841610 7.625381
v -1.828706 47.137917 8.424907
v 3.489442 45.438122 5.374007
v 5.052647 46.386021 3.044173
v 4.015026 46.617374 5.842514
v -2.825689 46.681637 7.718038
v -2.576444 45.749805 7.884668
v -1.742012 45.348152 8.451060
v 0.000000 45.271034 8.794783
v -4.857585 50.200111 6.779528
v -6.060467 50.081223 3.142806
v 1.828706 47.137917 8.424907
v -0.067730 47.915516 9.855835
v -1.378980 48.362152 9.589824
v -1.267903 49.142963 9.547980
v 2.091498 51.054829 9.017453
v 0.000000 51.826000 11.708194
v -1.162244 51.758522 11.213534
v -2.007513 51.356873 9.033145
v 4.199251 46.405300 0.298884
v 2.121299 44.628391 7.240564
v 2.576444 45.749805 7.884668
v 2.825689 46.681637 7.718038
v -2.121299 44.628391 7.240564
v 0.000000 44.265297 7.714302
v 1.742012 45.348152 8.451060
vn 0.6444 -0.1650 0.7467
vn -0.0235 -0.2591 0.9656
vn 0.6831 0.0079 0.7303
vn 0.9273 -0.2908 0.2357
vn 0.9503 -0.2121 0.2278
vn 0.8495 -0.2360 0.4719
vn -0.6444 -0.7073 -0.2908
vn -0.8784 -0.4392 -0.1882
vn 0.2359 -0.0944 -0.9672
vn 0.5592 -0.2048 0.8034
vn 0.6843 -0.2910 0.6686
vn 0.5351 -0.1338 0.8341
vn -0.9650 -0.2040 0.1647
vn 0.3547 0.0946 0.9302
vn 0.4001 -0.1099 0.9099
vn -0.0157 0.2277 0.9736
vn -0.0236 0.0393 0.9989
vn -0.0393 -0.7631 0.6451
vn 0.9650 -0.2040 0.1647
vn 0.8784 -0.4392 -0.1882
vn -0.2359 -0.0944 -0.9672
vn -0.0000 -0.1414 0.9899
vn -0.0000 -0.3443 0.9389
vn -0.4881 -0.2283 0.8424
vn -0.9273 -0.2908 0.2357
vn -0.8243 -0.4004 0.4003
vn -0.6838 -0.2751 0.6759
vn -0.2515 -0.6522 0.7151
vn -0.0000 -0.7149 0.6992
vn -0.0235 -0.6197 0.7845
vn 0.2044 -0.7077 0.6763
vn 0.3461 -0.2753 0.8969
vn 0.5592 -0.2047 0.8034
vn -0.0392 -0.2900 0.9562
vn -0.3932 -0.2359 0.8887
vn -0.4319 0.1100 0.8952
vn -0.7299 -0.6828 0.0314
vn -0.0000 -0.9948 -0.1019
vn -0.6280 -0.7693 0.1178
vn -0.5893 -0.1885 0.7856
vn -0.6837 -0.2751 0.6759
vn -0.4881 -0.2284 0.8424
vn 0.6280 -0.7693 0.1178
vn 0.7299 -0.6828 0.0314
vn 0.8191 -0.4096 0.4017
vn -0.6820 -0.2195 0.6977
vn -0.7211 -0.2587 0.6427
vn -0.4000 -0.4471 0.8001
vn -0.0000 -0.5798 0.8148
vn -0.8393 -0.2432 0.4863
vn -0.9503 -0.2121 0.2278
vn 0.4719 -0.2360 0.8495
vn -0.0078 -0.5236 0.8519
vn -0.4409 -0.1181 0.8897
vn -0.3909 0.1016 0.9148
vn 0.4182 0.1263 0.8995
vn -0.0000 0.0079 1.0000
vn -0.6748 -0.1098 0.7298
vn -0.6984 0.0471 0.7142
vn 0.6444 -0.7073 -0.2908
vn 0.5509 -0.7792 0.2991
vn 0.7211 -0.2586 0.6427
vn 0.6741 -0.2430 0.6976
vn -0.5509 -0.7792 0.2991
vn -0.0000 -0.9021 0.4314
vn 0.4000 -0.4471 0.8001
vt 0.411316 0.587189
vt 0.366364 0.640961
vt 0.474640 0.609436
vt 0.860443 0.866089
vt 0.846252 0.674774
vt 0.687866 0.672516
vt 0.987610 0.987183
vt 0.931305 0.867584
vt 0.987610 0.471619
vt 0.534943 0.740356
vt 0.591278 0.792358
vt 0.588928 0.645538
vt 0.955719 0.650848
vt 0.448242 0.743896
vt 0.450989 0.805664
vt 0.366364 0.747559
vt 0.366364 0.805511
vt 0.366364 0.612915
vt 0.366364 0.887665
vt 0.366364 0.853699
vt 0.499542 0.853699
vt 0.637512 0.893860
vt 0.284485 0.743896
vt 0.366364 0.727600
vt 0.457092 0.706024
vt 0.366364 0.708130
vt 0.275635 0.706024
vt 0.254028 0.613495
vt 0.764008 0.943115
vt 0.366364 0.987183
vt 0.569611 0.948364
vt 0.197784 0.746216
vt 0.141449 0.792358
vt 0.233185 0.853699
vt 0.568787 0.850067
vt 0.531189 0.904785
vt 0.474091 0.912170
vt 0.366364 0.915771
vt 0.366364 0.834290
vt 0.281738 0.805664
vt 0.477631 0.611908
vt 0.366364 0.583984
vt 0.321411 0.587189
vt 0.258118 0.609436
vt 0.499023 0.951355
vt 0.366364 0.954956
s 1
usemtl m_face73
f 1/1/1 2/2/2 3/3/3
f 4/4/4 5/5/5 6/6/6
f 7/7/7 8/8/8 9/9/9
f 10/10/10 11/11/11 12/12/12
f 8/8/8 13/13/13 9/9/9
f 4/4/4 6/6/6 11/11/11
f 10/10/10 14/14/14 15/15/15
f 15/15/15 14/14/14 16/16/16
f 15/15/15 16/16/16 17/17/17
f 2/2/2 1/1/1 18/18/18
f 5/5/5 4/4/4 19/13/19
f 19/13/19 4/4/4 20/8/20
f 19/13/19 20/8/20 21/9/21
f 22/19/22 23/20/23 24/21/24
f 25/4/25 26/22/26 27/11/27
f 28/23/28 29/16/29 30/24/30
f 30/24/30 29/16/29 31/14/31
f 30/24/30 31/14/31 32/25/32
f 32/25/32 31/14/31 10/10/33
f 33/26/34 2/2/2 34/27/35
f 34/27/35 2/2/2 35/28/36
f 8/8/8 7/7/7 36/29/37
f 36/29/37 7/7/7 37/30/38
f 36/29/37 37/30/38 38/31/39
f 39/32/40 40/33/41 41/34/42
f 42/31/43 43/29/44 44/22/45
f 45/35/46 46/36/47 24/21/24
f 24/21/24 46/36/47 47/37/48
f 24/21/24 47/37/48 22/19/22
f 22/19/22 47/37/48 48/38/49
f 27/11/27 49/6/50 25/4/25
f 25/4/25 49/6/50 50/5/51
f 25/4/25 50/5/51 13/13/13
f 11/11/11 10/10/10 51/21/52
f 51/21/52 10/10/10 15/15/15
f 51/21/52 15/15/15 52/39/53
f 52/39/53 15/15/15 17/17/17
f 52/39/53 17/17/17 53/40/54
f 53/40/54 17/17/17 16/16/16
f 53/40/54 16/16/16 54/23/55
f 39/32/40 28/23/28 34/27/35
f 34/27/35 28/23/28 30/24/30
f 34/27/35 30/24/30 33/26/34
f 33/26/34 30/24/30 32/25/32
f 33/26/34 32/25/32 2/2/2
f 2/2/2 32/25/32 55/41/56
f 2/2/2 55/41/56 3/3/3
f 1/1/1 56/42/57 18/18/18
f 18/18/18 56/42/57 57/43/58
f 18/18/18 57/43/58 2/2/2
f 2/2/2 57/43/58 58/44/59
f 2/2/2 58/44/59 35/28/36
f 59/7/60 43/29/44 37/30/38
f 37/30/38 43/29/44 42/31/43
f 37/30/38 42/31/43 60/45/61
f 60/45/61 42/31/43 44/22/45
f 60/45/61 44/22/45 61/36/62
f 61/36/62 44/22/45 62/35/63
f 24/21/24 27/11/27 45/35/46
f 45/35/46 27/11/27 26/22/26
f 45/35/46 26/22/26 46/36/47
f 46/36/47 26/22/26 63/45/64
f 46/36/47 63/45/64 47/37/48
f 47/37/48 63/45/64 64/46/65
f 47/37/48 64/46/65 48/38/49
f 48/38/49 64/46/65 65/37/66
f 48/38/49 65/37/66 22/19/22
f 22/19/22 65/37/66 51/21/52
f 22/19/22 51/21/52 23/20/23
f 23/20/23 51/21/52 52/39/53
f 23/20/23 52/39/53 41/34/42
f 41/34/42 52/39/53 53/40/54
f 41/34/42 53/40/54 39/32/40
f 39/32/40 53/40/54 54/23/55
f 13/13/13 8/8/8 25/4/25
f 25/4/25 8/8/8 36/29/37
f 25/4/25 36/29/37 26/22/26
f 26/22/26 36/29/37 38/31/39
f 26/22/26 38/31/39 63/45/64
f 63/45/64 38/31/39 37/30/38
f 63/45/64 37/30/38 64/46/65
f 64/46/65 37/30/38 60/45/61
f 64/46/65 60/45/61 65/37/66
f 65/37/66 60/45/61 61/36/62
f 65/37/66 61/36/62 51/21/52
f 51/21/52 61/36/62 62/35/63
f 51/21/52 62/35/63 11/11/11
f 11/11/11 62/35/63 44/22/45
f 11/11/11 44/22/45 4/4/4
f 4/4/4 44/22/45 43/29/44
f 4/4/4 43/29/44 20/8/20
f 20/8/20 43/29/44 59/7/60
f 20/8/20 59/7/60 21/9/21
o editpl_m-0000-118
v 5.272092 59.283878 7.053758
v 6.193218 61.047935 3.615795
v 3.763071 62.619202 6.400686
v 2.971986 52.523270 8.637865
v 2.058988 54.383720 8.520553
v 1.777231 52.786755 9.019695
v -7.824153 56.199192 -1.170151
v -7.163109 53.779636 -2.317882
v -8.590855 55.559761 -2.843925
v -2.151100 57.449135 9.444862
v 2.151100 57.449135 9.444862
v 0.000000 59.762650 9.333527
v -6.515612 52.908855 4.123906
v -6.512903 50.248310 0.347454
v -6.060467 50.081223 3.142806
v 2.717322 59.820488 8.927039
v 0.000000 62.905178 7.103820
v -3.245615 54.987808 8.619932
v -2.102335 55.299492 8.738740
v -4.502681 55.244865 8.064747
v 7.255222 49.923775 -1.247862
v 8.574599 53.165913 -3.065850
v 6.512903 50.248310 0.347454
v 6.927409 55.174175 0.347454
v 7.824153 56.199192 -1.170151
v 8.590855 55.559761 -2.843925
v 6.927409 55.174175 0.347454
v 7.824153 56.199192 -1.170151
v 7.163109 53.779636 -2.317882
v 8.590855 55.559761 -2.843925
v 7.390682 58.499855 -1.933811
v 6.927409 55.174175 0.347454
v 7.163109 53.779636 -2.317882
v 6.466846 58.175320 3.896751
v 4.540609 54.470478 7.912314
v 8.574599 53.165913 -3.065850
v 7.255222 49.923775 -1.247862
v 6.512903 50.248310 0.347454
v 4.475589 55.254505 8.064747
v 2.075243 55.293064 8.738740
v 3.245615 54.987808 8.619932
v 6.515612 52.908855 4.123906
v 6.512903 50.248310 0.347454
v 6.060467 50.081223 3.142806
v 4.218215 56.337360 9.107867
v 1.760976 56.170273 9.663053
v 0.000000 56.109222 9.890954
v -5.272092 59.283878 7.053758
v -4.749217 57.635498 8.169357
v -2.717322 59.820488 8.927039
v -6.512903 50.248310 0.347454
v -8.574599 53.165913 -3.065850
v -7.255222 49.923775 -1.247862
v -8.590855 55.559761 -2.843925
v -7.824153 56.199192 -1.170151
v -6.927409 55.174175 0.347454
v -4.502681 55.244865 8.064747
v -2.102335 55.299492 8.738740
v -4.218215 56.337360 9.107867
v -1.760976 56.170273 9.663053
v -6.927409 55.174175 0.347454
v -5.201653 56.147778 8.223158
v -6.157998 55.058498 5.276120
v -5.356077 54.759670 7.118766
v -5.943972 52.728916 6.095074
v -4.857585 50.200111 6.779528
v -6.512903 50.248310 0.347454
v -7.255222 49.923775 -1.247862
v -8.574599 53.165913 -3.065850
v -6.466846 58.175320 3.896751
v -4.749217 57.635498 8.169357
v -5.272092 59.283878 7.053758
v -1.660736 49.759899 9.893943
v -2.099625 51.327953 9.007739
v -2.866327 49.187946 8.312824
v -3.600519 50.566418 8.230630
v -3.622193 47.841610 7.625381
v -4.857585 50.200111 6.779528
v -1.322087 54.486546 8.626657
v -2.088789 54.393360 8.520553
v -4.567701 54.460838 7.912314
v 1.294995 54.509037 8.626657
v 0.728773 54.010990 9.898426
v 0.929254 52.600388 10.551497
v 0.000000 54.219849 10.207028
v 0.000000 52.738552 10.992357
v -0.929254 52.600388 10.551497
v -1.162244 51.758522 11.213534
v -2.007513 51.356873 9.033145
v 4.857585 50.200111 6.779528
v 5.943972 52.728916 6.095074
v 6.157998 55.058498 5.276120
v -7.163109 53.779636 -2.317882
v -6.927409 55.174175 0.347454
v -7.390682 58.499855 -1.933811
v -6.193218 61.047935 3.615795
v -3.717014 62.619202 6.400686
v 0.000000 51.826000 11.708194
v 1.162244 51.601074 11.213534
v 2.007513 51.109451 9.033145
v 2.091498 51.054829 9.017453
v -5.943972 52.728916 6.095074
v -4.732962 52.262997 7.853284
v -2.971986 52.523270 8.637865
v -1.777231 52.786755 9.019695
v -0.820886 55.010300 9.143733
v -1.322087 54.486546 8.626657
v -5.356077 54.759670 7.118766
v -5.201653 56.147778 8.223158
v 4.749217 57.635498 8.169357
v 5.201653 56.147778 8.223158
v 5.326276 54.737175 7.118766
v 4.732962 52.262997 7.853284
v 3.600519 50.431465 8.313571
v 3.622193 47.841610 7.728498
v -0.728773 54.010990 9.898426
v 0.000000 55.260929 9.480730
v 0.820886 55.010300 9.143733
v -2.088789 54.393360 8.520553
v -4.567701 54.460838 7.912314
v 1.549659 49.682785 9.991829
v 2.860909 49.197590 8.433874
v -3.717014 62.619202 6.400686
vn 0.8078 0.2510 0.5333
vn 0.9247 0.2272 0.3056
vn 0.5503 0.5110 0.6603
vn 0.3528 0.0705 0.9330
vn 0.1882 -0.0627 0.9801
vn 0.5438 0.2128 0.8118
vn 0.8242 0.4082 -0.3925
vn 0.2359 -0.0944 -0.9672
vn 0.6187 0.2741 -0.7362
vn -0.1805 0.1884 0.9654
vn 0.1805 0.1884 0.9654
vn -0.0000 0.3209 0.9471
vn -0.9812 -0.0863 0.1727
vn -0.9650 -0.2040 0.1647
vn -0.9503 -0.2121 0.2277
vn 0.3627 0.3785 0.8516
vn -0.0000 0.6063 0.7952
vn -0.2507 -0.0940 0.9635
vn -0.2354 -0.3609 0.9024
vn -0.4803 -0.2441 0.8425
vn -0.5188 -0.4559 -0.7232
vn 0.8917 -0.0782 0.4458
vn 0.9650 -0.2040 0.1648
vn 0.9859 0.0313 0.1644
vn 0.8879 -0.0629 0.4557
vn 0.9045 -0.0393 0.4247
vn 0.9859 0.0313 0.1643
vn -0.8242 0.4082 -0.3925
vn -0.2359 -0.0944 -0.9672
vn -0.6187 0.2741 -0.7362
vn 0.9899 -0.0000 0.1414
vn 0.9639 0.0627 0.2586
vn 0.4734 -0.0947 0.8758
vn -0.4957 -0.0708 -0.8656
vn -0.5188 -0.4559 -0.7231
vn 0.4794 -0.2515 0.8408
vn 0.2354 -0.3610 0.9024
vn 0.2507 -0.0940 0.9635
vn 0.9812 -0.0863 0.1727
vn 0.9650 -0.2040 0.1647
vn 0.9503 -0.2121 0.2277
vn 0.4157 -0.2039 0.8863
vn 0.2197 -0.3296 0.9182
vn -0.0000 -0.1885 0.9821
vn -0.8062 0.2583 0.5323
vn -0.6845 0.2282 0.6924
vn -0.3627 0.3785 0.8516
vn -0.9650 -0.2040 0.1648
vn -0.8917 -0.0782 0.4458
vn 0.5188 -0.4559 -0.7231
vn -0.9045 -0.0393 0.4247
vn -0.8879 -0.0629 0.4557
vn -0.9859 0.0313 0.1644
vn -0.4802 -0.2441 0.8425
vn -0.2354 -0.3610 0.9024
vn -0.4157 -0.2039 0.8863
vn -0.2197 -0.3296 0.9182
vn -0.9859 0.0313 0.1643
vn -0.8102 -0.1180 0.5742
vn -0.9612 -0.0000 0.2758
vn -0.7935 -0.1178 0.5970
vn -0.9119 -0.1179 0.3931
vn -0.8393 -0.2432 0.4863
vn 0.5188 -0.4559 -0.7232
vn 0.4957 -0.0708 -0.8656
vn -0.9639 0.0627 0.2586
vn -0.6845 0.2281 0.6924
vn -0.8062 0.2583 0.5322
vn -0.3932 -0.2359 0.8887
vn -0.4319 0.1099 0.8952
vn -0.5892 -0.1885 0.7857
vn -0.5248 -0.1488 0.8381
vn -0.6837 -0.2751 0.6759
vn -0.8393 -0.2431 0.4863
vn -0.5175 0.0392 0.8548
vn -0.1882 -0.0628 0.9801
vn -0.4734 -0.0947 0.8757
vn -0.7935 -0.1178 0.5971
vn 0.5268 0.0393 0.8491
vn 0.6530 0.4091 0.6373
vn 0.6770 0.3936 0.6219
vn -0.0000 0.5029 0.8644
vn 0.0079 0.5834 0.8121
vn -0.6728 0.4195 0.6094
vn -0.6748 -0.1099 0.7298
vn -0.6984 0.0471 0.7141
vn 0.8495 -0.2360 0.4720
vn 0.9119 -0.1179 0.3931
vn 0.9591 -0.0078 0.2830
vn -0.9899 -0.0000 0.1414
vn -0.9235 0.2289 0.3078
vn -0.5426 0.5190 0.6605
vn -0.0000 0.0078 1.0000
vn 0.6444 -0.1651 0.7466
vn 0.6831 0.0079 0.7303
vn 0.4182 0.1262 0.8995
vn -0.6677 -0.0943 0.7384
vn -0.3532 0.0549 0.9339
vn -0.5493 0.2119 0.8083
vn -0.4488 -0.2204 0.8660
vn -0.5176 0.0392 0.8547
vn -0.8101 -0.1180 0.5742
vn 0.6845 0.2282 0.6924
vn 0.8094 -0.1257 0.5737
vn 0.7861 -0.1258 0.6052
vn 0.6725 -0.0860 0.7351
vn 0.5351 -0.1338 0.8341
vn 0.6843 -0.2910 0.6686
vn -0.6530 0.4091 0.6373
vn -0.0000 0.2425 0.9702
vn 0.4573 -0.2286 0.8594
vn -0.1882 -0.0627 0.9801
vn -0.4734 -0.0946 0.8757
vn 0.3461 -0.2754 0.8969
vn 0.5592 -0.2047 0.8034
vn -0.5425 0.5190 0.6606
vt 0.699890 0.107788
vt 0.788391 0.012299
vt 0.563782 0.012299
vt 0.535919 0.516541
vt 0.482910 0.424866
vt 0.460602 0.521759
vt 0.090942 0.876038
vt 0.054596 0.879456
vt 0.075043 0.870087
vt 0.231140 0.198608
vt 0.501587 0.186798
vt 0.366364 0.083160
vt 0.825195 0.531616
vt 0.955719 0.650848
vt 0.846252 0.674774
vt 0.542114 0.080536
vt 0.366364 0.012299
vt 0.551147 0.377838
vt 0.485016 0.355896
vt 0.622650 0.352142
vt 0.021332 0.953064
vt 0.113434 0.876190
vt 0.022736 0.986542
vt 0.270538 0.986542
vt 0.339752 0.890015
vt 0.264709 0.862000
vt 0.077850 0.895020
vt 0.987061 0.183807
vt 0.955780 0.351501
vt 0.987061 0.471619
vt 0.850647 0.188446
vt 0.616669 0.427643
vt 0.041168 0.871307
vt 0.021820 0.889618
vt 0.025269 0.895020
vt 0.643341 0.277466
vt 0.459198 0.292542
vt 0.366364 0.285400
vt 0.032867 0.107788
vt 0.064087 0.198730
vt 0.190643 0.080536
vt 0.102966 0.353088
vt 0.248749 0.356293
vt 0.099060 0.287292
vt 0.273529 0.292542
vt 0.704498 0.289764
vt 0.799042 0.393005
vt 0.680573 0.386444
vt 0.726074 0.524872
vt 0.687866 0.672516
vt 0.668640 0.198730
vt 0.275635 0.706024
vt 0.254028 0.613495
vt 0.197784 0.746216
vt 0.143524 0.655487
vt 0.141449 0.792358
vt 0.044891 0.672516
vt 0.450134 0.421844
vt 0.411743 0.448090
vt 0.411530 0.531647
vt 0.366364 0.429199
vt 0.366364 0.527893
vt 0.321198 0.531647
vt 0.321411 0.587189
vt 0.258118 0.609436
vt 0.366364 0.583984
vt 0.411316 0.587189
vt 0.474640 0.609436
vt 0.477631 0.611908
vt 0.012665 0.524872
vt 0.074463 0.531555
vt 0.196808 0.516541
vt 0.272125 0.521759
vt 0.312439 0.370911
vt 0.284698 0.422668
vt 0.059387 0.386444
vt 0.038086 0.299438
vt 0.680450 0.198730
vt 0.701263 0.289764
vt 0.658264 0.531555
vt 0.588928 0.645538
vt 0.591278 0.792358
vt 0.321014 0.448090
vt 0.366364 0.343201
vt 0.420319 0.370911
vt 0.248138 0.426147
vt 0.106354 0.428711
vt 0.457092 0.706024
vt 0.534943 0.740356
vt 0.168976 0.012299
s 1
usemtl m_face73
f 66/47/67 67/48/68 68/49/69
f 69/50/70 70/51/71 71/52/72
f 72/53/73 73/54/74 74/55/75
f 75/56/76 76/57/77 77/58/78
f 78/59/79 79/60/80 80/61/81
f 81/62/82 68/49/69 82/63/83
f 83/64/84 84/65/85 85/66/86
f 86/67/87 87/68/88 88/69/89
f 89/70/90 88/69/89 90/71/91
f 90/71/91 88/69/89 87/68/88
f 90/71/91 87/68/88 91/72/92
f 92/73/93 93/53/94 94/54/95
f 94/54/95 93/53/94 95/55/96
f 96/74/97 97/75/93 98/76/95
f 67/48/68 66/47/67 99/77/98
f 70/51/71 69/50/70 100/78/99
f 95/55/96 101/79/100 94/54/95
f 94/54/95 101/79/100 102/80/101
f 94/54/95 102/80/101 103/81/89
f 104/66/102 105/65/103 106/64/104
f 97/75/93 107/59/105 108/60/106
f 108/60/106 107/59/105 109/61/107
f 110/82/108 76/57/77 111/83/109
f 111/83/109 76/57/77 112/84/110
f 113/85/111 114/86/112 115/87/113
f 116/69/114 117/68/115 118/67/116
f 119/72/117 117/68/115 120/71/118
f 120/71/118 117/68/115 116/69/114
f 120/71/118 116/69/114 121/70/119
f 122/88/120 123/89/121 124/90/122
f 124/90/122 123/89/121 125/91/123
f 124/90/122 125/91/123 75/56/76
f 73/54/74 72/53/73 126/73/124
f 127/92/125 128/93/126 129/94/127
f 129/94/127 128/93/126 130/95/128
f 128/93/126 78/59/79 130/95/128
f 130/95/128 78/59/79 80/61/81
f 130/95/128 80/61/81 131/96/129
f 132/81/114 133/80/130 73/54/74
f 73/54/74 133/80/130 134/79/131
f 73/54/74 134/79/131 74/55/75
f 135/77/132 136/97/133 137/47/134
f 138/98/135 139/99/136 140/100/137
f 140/100/137 139/99/136 141/101/138
f 140/100/137 141/101/138 142/102/139
f 142/102/139 141/101/138 143/103/140
f 144/104/141 84/65/85 145/51/142
f 145/51/142 84/65/85 83/64/84
f 145/51/142 83/64/84 146/78/143
f 146/78/143 83/64/84 85/66/86
f 146/78/143 85/66/86 129/94/144
f 70/51/71 147/104/145 71/52/72
f 71/52/72 147/104/145 148/105/146
f 71/52/72 148/105/146 149/106/147
f 149/106/147 148/105/146 150/107/148
f 149/106/147 150/107/148 151/108/149
f 151/108/149 150/107/148 152/109/150
f 151/108/149 152/109/150 153/110/151
f 153/110/151 152/109/150 154/111/152
f 155/96/153 109/61/107 156/95/154
f 156/95/154 109/61/107 107/59/105
f 156/95/154 107/59/105 157/93/155
f 157/93/155 107/59/105 97/75/93
f 157/93/155 97/75/93 99/77/98
f 99/77/98 97/75/93 96/74/97
f 99/77/98 96/74/97 67/48/68
f 158/76/74 159/75/124 160/74/156
f 160/74/156 159/75/124 135/77/132
f 160/74/156 135/77/132 161/48/157
f 161/48/157 135/77/132 137/47/134
f 161/48/157 137/47/134 162/49/158
f 153/110/151 163/112/159 151/108/149
f 151/108/149 163/112/159 164/113/160
f 151/108/149 164/113/160 149/106/147
f 149/106/147 164/113/160 165/114/161
f 149/106/147 165/114/161 71/52/72
f 71/52/72 165/114/161 166/115/162
f 71/52/72 166/115/162 69/50/70
f 167/116/128 143/103/140 168/117/163
f 168/117/163 143/103/140 141/101/138
f 168/117/163 141/101/138 169/118/164
f 169/118/164 141/101/138 139/99/136
f 169/118/164 139/99/136 170/119/165
f 76/57/77 75/56/76 112/84/110
f 112/84/110 75/56/76 125/91/123
f 112/84/110 125/91/123 171/120/166
f 171/120/166 125/91/123 123/89/121
f 171/120/166 123/89/121 172/121/167
f 173/122/144 122/88/120 174/123/168
f 174/123/168 122/88/120 124/90/122
f 174/123/168 124/90/122 114/86/112
f 114/86/112 124/90/122 75/56/76
f 114/86/112 75/56/76 115/87/113
f 115/87/113 75/56/76 77/58/78
f 79/60/80 78/59/79 159/75/124
f 159/75/124 78/59/79 128/93/126
f 159/75/124 128/93/126 135/77/132
f 135/77/132 128/93/126 127/92/125
f 135/77/132 127/92/125 136/97/133
f 68/49/69 81/62/82 66/47/67
f 66/47/67 81/62/82 175/124/169
f 66/47/67 175/124/169 99/77/98
f 99/77/98 175/124/169 176/125/170
f 99/77/98 176/125/170 157/93/155
f 157/93/155 176/125/170 177/94/171
f 157/93/155 177/94/171 156/95/154
f 156/95/154 177/94/171 178/126/172
f 156/95/154 178/126/172 155/96/153
f 155/96/153 178/126/172 179/127/173
f 155/96/153 179/127/173 180/128/174
f 139/99/136 154/111/152 170/119/165
f 170/119/165 154/111/152 152/109/150
f 170/119/165 152/109/150 181/129/175
f 181/129/175 152/109/150 150/107/148
f 181/129/175 150/107/148 182/130/176
f 182/130/176 150/107/148 148/105/146
f 182/130/176 148/105/146 183/131/177
f 183/131/177 148/105/146 147/104/145
f 183/131/177 147/104/145 105/65/103
f 105/65/103 147/104/145 70/51/71
f 105/65/103 70/51/71 106/64/104
f 106/64/104 70/51/71 100/78/99
f 106/64/104 100/78/99 104/66/102
f 104/66/102 110/82/108 105/65/103
f 105/65/103 110/82/108 111/83/109
f 105/65/103 111/83/109 183/131/177
f 183/131/177 111/83/109 112/84/110
f 183/131/177 112/84/110 182/130/176
f 182/130/176 112/84/110 171/120/166
f 182/130/176 171/120/166 181/129/175
f 181/129/175 171/120/166 172/121/167
f 181/129/175 172/121/167 170/119/165
f 170/119/165 172/121/167 184/132/178
f 170/119/165 184/132/178 169/118/164
f 169/118/164 184/132/178 185/133/179
f 169/118/164 185/133/179 168/117/163
f 168/117/163 185/133/179 173/122/144
f 168/117/163 173/122/144 167/116/128
f 186/134/180 187/135/181 166/115/162
f 166/115/162 187/135/181 179/127/173
f 166/115/162 179/127/173 69/50/70
f 69/50/70 179/127/173 178/126/172
f 69/50/70 178/126/172 100/78/99
f 100/78/99 178/126/172 177/94/171
f 100/78/99 177/94/171 104/66/102
f 104/66/102 177/94/171 176/125/170
f 104/66/102 176/125/170 110/82/108
f 110/82/108 176/125/170 175/124/169
f 110/82/108 175/124/169 76/57/77
f 76/57/77 175/124/169 81/62/82
f 76/57/77 81/62/82 77/58/78
f 77/58/78 81/62/82 82/63/83
f 77/58/78 82/63/83 115/87/113
f 115/87/113 82/63/83 188/136/182
f 115/87/113 188/136/182 113/85/111
