mtllib face_04.mtl
o editpl_m-0000-123
v 0.000000 44.303856 3.787658
v -3.708887 45.653408 4.596898
v -4.280527 46.405300 0.298884
v 2.804016 48.416775 7.956400
v 3.573427 50.582485 8.220169
v 2.023768 51.491825 9.077978
v 3.887694 47.504223 7.321263
v 4.741090 50.145489 6.864711
v 4.280527 46.405300 0.298884
v 3.708887 45.653408 4.596898
v 5.857278 47.497795 1.732053
v 0.000000 49.110832 9.547234
v 1.048458 49.152603 9.361176
v 0.000000 49.268280 9.858076
v 1.538822 49.624947 9.930557
v 0.000000 48.333233 9.985105
v 0.000000 47.745213 9.509124
v 1.292286 48.320377 9.713117
v 2.362417 46.961189 8.191028
v 7.163109 53.779636 -2.317882
v 6.493938 50.248310 0.347454
v 6.198636 48.278606 0.915341
v -1.048458 49.152603 9.361176
v -1.292286 48.320377 9.713117
v 0.000000 46.026142 9.330539
v 0.000000 47.157192 9.033145
v -2.362417 46.961189 8.191028
v -2.804016 48.416775 7.956400
v -3.887694 47.504223 7.321263
v -2.860909 44.772987 6.341658
v -7.163109 53.779636 -2.317882
v -6.493938 50.248310 0.347454
v 5.971064 50.029812 3.879565
v 5.559266 48.313953 4.162762
v 4.486425 46.816593 5.019824
v 2.841945 45.939384 7.383283
v 2.860909 44.772987 6.341658
v 1.993967 44.458092 7.884668
v 0.000000 49.689209 10.251863
v 0.000000 50.627468 9.952227
v -1.538822 49.624947 9.930557
v -2.023768 51.491825 9.077978
v -3.573427 50.582485 8.220169
v -4.741090 50.145489 6.864711
v -5.559266 48.313953 4.162762
v -5.971064 50.029812 3.879565
v -6.198636 48.278606 0.915341
v -5.857278 47.497795 1.732053
v -4.486425 46.816593 5.019824
v -2.841945 45.939384 7.383283
v -1.966875 45.367432 8.584813
v 0.000000 45.200344 9.152700
v 1.966875 45.367432 8.584813
v 0.000000 44.265297 8.117800
v -1.993967 44.458092 7.884668
vn -0.0000 -0.9931 -0.1173
vn -0.6111 -0.7912 -0.0235
vn -0.6533 -0.6691 -0.3542
vn 0.5718 -0.1488 0.8068
vn 0.4803 -0.1811 0.8582
vn 0.6393 -0.0710 0.7657
vn 0.7029 -0.2764 0.6554
vn 0.8109 -0.2362 0.5354
vn 0.6533 -0.6691 -0.3542
vn 0.6111 -0.7912 -0.0235
vn 0.8235 -0.5647 0.0549
vn -0.0000 -0.3067 0.9518
vn 0.3376 -0.4397 0.8323
vn -0.0000 -0.8148 0.5798
vn 0.3536 -0.3379 0.8722
vn -0.0000 -0.0940 0.9956
vn -0.0000 -0.6456 0.7637
vn 0.4628 -0.1176 0.8786
vn 0.5125 -0.1971 0.8358
vn -0.4472 0.0079 -0.8944
vn 0.9694 -0.2443 0.0236
vn 0.9355 -0.3302 -0.1258
vn -0.3376 -0.4397 0.8323
vn -0.4628 -0.1176 0.8786
vn -0.0000 0.0550 0.9985
vn -0.0000 -0.2203 0.9754
vn -0.5125 -0.1971 0.8358
vn -0.5718 -0.1488 0.8068
vn -0.7028 -0.2764 0.6554
vn -0.6928 -0.7086 0.1338
vn 0.4472 0.0079 -0.8944
vn -0.9694 -0.2443 0.0236
vn 0.9499 -0.1962 0.2434
vn 0.9135 -0.2756 0.2993
vn 0.8227 -0.4936 0.2820
vn 0.7969 -0.3314 0.5050
vn 0.6928 -0.7086 0.1338
vn 0.5101 -0.7770 0.3689
vn -0.0000 -0.4315 0.9021
vn -0.3536 -0.3379 0.8722
vn -0.6393 -0.0710 0.7657
vn -0.4803 -0.1811 0.8582
vn -0.8109 -0.2362 0.5354
vn -0.9135 -0.2756 0.2993
vn -0.9499 -0.1962 0.2434
vn -0.9355 -0.3302 -0.1258
vn -0.8235 -0.5647 0.0549
vn -0.8227 -0.4936 0.2820
vn -0.7969 -0.3314 0.5050
vn -0.5019 -0.3293 0.7998
vn -0.0000 -0.5029 0.8643
vn 0.5019 -0.3293 0.7998
vn -0.0000 -0.8498 0.5271
vn -0.5101 -0.7770 0.3689
vt 0.493439 0.986938
vt 0.212494 0.972931
vt 0.011322 0.986298
vt 0.347687 0.776764
vt 0.306671 0.640625
vt 0.393127 0.615692
vt 0.302673 0.830353
vt 0.219971 0.680237
vt 0.073273 0.970734
vt 0.493439 0.750732
vt 0.419495 0.747070
vt 0.493439 0.733307
vt 0.415710 0.711945
vt 0.493439 0.791138
vt 0.493439 0.832123
vt 0.416748 0.791290
vt 0.370178 0.859863
vt 0.011322 0.531250
vt 0.011322 0.682800
vt 0.026398 0.893311
vt 0.493439 0.913635
vt 0.493439 0.873077
vt 0.303406 0.975647
vt 0.089172 0.690979
vt 0.130920 0.855835
vt 0.204071 0.941559
vt 0.320740 0.922394
vt 0.398895 0.976044
vt 0.493439 0.715118
vt 0.493439 0.673584
vt 0.393951 0.935791
vt 0.493439 0.948395
vt 0.493439 0.960480
s 1
usemtl m_face76
f 1/1/1 2/2/2 3/3/3
f 4/4/4 5/5/5 6/6/6
f 5/5/5 7/7/7 8/8/8
f 1/1/1 9/3/9 10/2/10
f 10/2/10 9/3/9 11/9/11
f 12/10/12 13/11/13 14/12/14
f 14/12/14 13/11/13 15/13/15
f 16/14/16 17/15/17 18/16/18
f 18/16/18 17/15/17 19/17/19
f 18/16/18 19/17/19 4/4/4
f 20/18/20 21/19/21 9/3/9
f 9/3/9 21/19/21 22/20/22
f 9/3/9 22/20/22 11/9/11
f 12/10/12 23/11/23 24/16/24
f 25/21/25 26/22/26 27/17/27
f 28/4/28 29/7/29 27/17/27
f 2/2/2 1/1/1 30/23/30
f 31/18/31 3/3/3 32/19/32
f 33/24/33 8/8/8 34/25/34
f 34/25/34 8/8/8 7/7/7
f 34/25/34 7/7/7 35/26/35
f 35/26/35 7/7/7 36/27/36
f 35/26/35 36/27/36 37/23/37
f 37/23/37 36/27/36 38/28/38
f 6/6/6 15/13/15 4/4/4
f 4/4/4 15/13/15 13/11/13
f 4/4/4 13/11/13 18/16/18
f 18/16/18 13/11/13 12/10/12
f 18/16/18 12/10/12 16/14/16
f 16/14/16 12/10/12 24/16/24
f 16/14/16 24/16/24 17/15/17
f 38/28/38 1/1/1 37/23/37
f 37/23/37 1/1/1 10/2/10
f 37/23/37 10/2/10 35/26/35
f 35/26/35 10/2/10 11/9/11
f 35/26/35 11/9/11 34/25/34
f 34/25/34 11/9/11 22/20/22
f 34/25/34 22/20/22 33/24/33
f 33/24/33 22/20/22 21/19/21
f 39/29/26 40/30/39 41/13/40
f 41/13/40 40/30/39 42/6/41
f 41/13/40 42/6/41 28/4/28
f 28/4/28 42/6/41 43/5/42
f 28/4/28 43/5/42 29/7/29
f 29/7/29 43/5/42 44/8/43
f 29/7/29 44/8/43 45/25/44
f 45/25/44 44/8/43 46/24/45
f 45/25/44 46/24/45 47/20/46
f 47/20/46 48/9/47 45/25/44
f 45/25/44 48/9/47 49/26/48
f 45/25/44 49/26/48 29/7/29
f 29/7/29 49/26/48 50/27/49
f 29/7/29 50/27/49 27/17/27
f 27/17/27 50/27/49 51/31/50
f 27/17/27 51/31/50 25/21/25
f 25/21/25 51/31/50 52/32/51
f 5/5/5 4/4/4 7/7/7
f 7/7/7 4/4/4 19/17/19
f 7/7/7 19/17/19 36/27/36
f 36/27/36 19/17/19 53/31/52
f 36/27/36 53/31/52 38/28/38
f 38/28/38 53/31/52 54/33/53
f 38/28/38 54/33/53 1/1/1
f 1/1/1 54/33/53 55/28/54
f 1/1/1 55/28/54 30/23/30
f 46/24/45 32/19/32 47/20/46
f 47/20/46 32/19/32 3/3/3
f 47/20/46 3/3/3 48/9/47
f 48/9/47 3/3/3 2/2/2
f 48/9/47 2/2/2 49/26/48
f 49/26/48 2/2/2 30/23/30
f 49/26/48 30/23/30 50/27/49
f 50/27/49 30/23/30 55/28/54
f 50/27/49 55/28/54 51/31/50
f 51/31/50 55/28/54 54/33/53
f 51/31/50 54/33/53 52/32/51
f 52/32/51 54/33/53 53/31/52
f 52/32/51 53/31/52 25/21/25
f 25/21/25 53/31/52 19/17/19
f 25/21/25 19/17/19 26/22/26
f 26/22/26 19/17/19 17/15/17
f 26/22/26 17/15/17 27/17/27
f 27/17/27 17/15/17 24/16/24
f 27/17/27 24/16/24 28/4/28
f 28/4/28 24/16/24 23/11/23
f 28/4/28 23/11/23 41/13/40
f 41/13/40 23/11/23 14/12/14
f 41/13/40 14/12/14 39/29/26
f 39/29/26 14/12/14 15/13/15
f 39/29/26 15/13/15 40/30/39
f 40/30/39 15/13/15 6/6/6
o editpl_m-0000-124
v 5.971064 50.029812 3.879565
v 5.708272 52.696781 6.883391
v 4.741090 50.145489 6.864711
v -7.818734 56.199192 -1.170151
v -7.163109 53.779636 -2.317882
v -8.756115 55.559761 -2.843925
v -4.984917 56.652256 8.096878
v -5.792257 56.661896 5.741638
v -5.071611 55.129189 7.303329
v 0.000000 56.250603 10.014245
v 0.000000 55.431232 9.532289
v 1.758267 55.723633 9.305881
v 3.194140 56.183125 9.023431
v 2.237794 55.437656 8.640107
v 7.230839 50.257950 -1.247862
v 8.601691 53.165913 -3.065850
v 6.493938 50.248310 0.347454
v 6.756730 55.174175 0.347454
v 7.818734 56.199192 -1.170151
v 8.756115 55.559761 -2.843925
v 0.000000 51.578583 11.368209
v 0.000000 50.775276 10.799574
v 1.219137 51.504681 10.873549
v 6.756730 55.174175 0.347454
v 7.818734 56.199192 -1.170151
v 7.163109 53.779636 -2.317882
v 8.756115 55.559761 -2.843925
v 7.390682 58.499855 -1.933811
v 6.756730 55.174175 0.347454
v 7.163109 53.779636 -2.317882
v 8.601691 53.165913 -3.065850
v 7.230839 50.257950 -1.247862
v 6.493938 50.248310 0.347454
v 4.042118 59.373852 8.271727
v 3.717014 62.619202 6.400686
v 0.000000 62.905178 7.103820
v 3.180594 55.058498 8.656547
v 4.307619 55.473003 8.079691
v 6.515612 53.069515 4.295020
v 6.493938 50.248310 0.347454
v -6.193218 61.047935 3.615795
v -6.466846 58.175320 3.896751
v -4.042118 59.373852 8.271727
v -6.493938 50.248310 0.347454
v -8.601691 53.165913 -3.065850
v -7.230839 50.257950 -1.247862
v -8.756115 55.559761 -2.843925
v -7.818734 56.199192 -1.170151
v -6.756730 55.174175 0.347454
v -3.194140 56.183125 9.023431
v -4.307619 55.473003 8.079691
v -4.288654 54.554024 7.981058
v -6.756730 55.174175 0.347454
v 0.000000 49.268280 9.858076
v -1.048458 49.152603 9.361176
v 0.000000 49.110832 9.547234
v -7.163109 53.779636 -2.317882
v -6.756730 55.174175 0.347454
v -7.390682 58.499855 -1.933811
v -2.221539 54.444775 8.492904
v -1.695956 53.021317 9.345483
v -1.487348 54.608646 8.634130
v -0.755865 54.881771 9.166897
v -6.493938 50.248310 0.347454
v -7.230839 50.257950 -1.247862
v -8.601691 53.165913 -3.065850
v 2.023768 51.491825 9.077978
v 3.573427 50.582485 8.220169
v 2.668556 52.806030 8.788804
v 4.323874 52.664650 8.386799
v 4.288654 54.554024 7.981058
v 5.304602 53.991711 6.980530
v 5.071611 55.129189 7.303329
v 6.220310 54.631142 4.915960
v 5.792257 56.661896 5.741638
v 6.466846 58.175320 3.896751
v -6.220310 54.631142 4.915960
v -6.515612 53.069515 4.295020
v -5.304602 53.991711 6.980530
v -5.708272 52.696781 6.883391
v -4.323874 52.664650 8.386799
v 2.221539 54.444775 8.492904
v 1.487348 54.608646 8.634130
v 1.695956 53.021317 9.345483
v 0.755865 54.881771 9.166897
v 0.872361 53.670387 10.215248
v 0.000000 54.750031 10.142767
v 0.000000 53.872822 10.602308
v -0.872361 53.670387 10.215248
v -1.219137 51.504681 10.873549
v -2.023768 51.491825 9.077978
v 0.000000 50.627468 9.952227
v 6.193218 61.047935 3.615795
v 4.984917 56.652256 8.096878
v 4.741090 57.767242 7.887656
v 1.931655 57.282043 9.222939
v 0.000000 59.762650 9.333527
v -3.717014 62.619202 6.400686
v -4.741090 57.767242 7.887656
v -1.931655 57.282043 9.222939
v 0.000000 57.291683 9.604020
v -3.180594 55.058498 8.656547
v -2.237794 55.437656 8.640107
v -1.758267 55.723633 9.305881
v -2.668556 52.806030 8.788804
v -6.493938 50.248310 0.347454
v -5.971064 50.029812 3.879565
v -4.741090 50.145489 6.864711
v -3.573427 50.582485 8.220169
vn 0.9499 -0.1963 0.2434
vn 0.8737 -0.0787 0.4801
vn 0.8109 -0.2362 0.5354
vn 0.7838 0.4232 -0.4545
vn 0.4472 0.0079 -0.8944
vn 0.5804 0.2902 -0.7608
vn -0.7367 -0.0548 0.6740
vn -0.9276 0.0550 0.3695
vn -0.8128 -0.0868 0.5760
vn -0.0000 -0.0707 0.9975
vn -0.0000 -0.1414 0.9900
vn 0.3301 -0.5108 0.7938
vn 0.3770 -0.2043 0.9034
vn 0.2743 -0.3135 0.9091
vn 0.8973 -0.1653 0.4093
vn 0.8762 -0.1095 0.4694
vn 0.9694 -0.2443 0.0237
vn 0.9853 0.0469 0.1642
vn 0.8533 -0.0705 0.5166
vn 0.8488 -0.1022 0.5187
vn -0.0000 -0.1491 0.9888
vn -0.0000 -0.8345 0.5511
vn 0.6383 -0.2994 0.7092
vn -0.7837 0.4232 -0.4546
vn -0.4472 0.0078 -0.8944
vn -0.5804 0.2902 -0.7608
vn 0.9864 -0.0078 0.1644
vn -0.4472 0.0079 -0.8944
vn -0.4864 -0.0706 -0.8709
vn -0.7450 -0.2039 -0.6351
vn 0.5759 0.3077 0.7574
vn 0.5256 0.4628 0.7138
vn -0.0000 0.5419 0.8404
vn 0.2346 -0.0704 0.9696
vn 0.4877 -0.1652 0.8573
vn 0.9754 -0.0079 0.2203
vn -0.9034 0.2042 0.3771
vn -0.9517 0.0709 0.2988
vn -0.5759 0.3077 0.7574
vn -0.9694 -0.2443 0.0237
vn -0.8762 -0.1095 0.4694
vn -0.8973 -0.1653 0.4093
vn -0.8488 -0.1022 0.5187
vn -0.8533 -0.0705 0.5166
vn -0.9853 0.0469 0.1642
vn -0.3770 -0.2043 0.9034
vn -0.4877 -0.1652 0.8573
vn -0.5027 -0.0314 0.8639
vn -0.0000 -0.8148 0.5797
vn -0.3376 -0.4397 0.8323
vn -0.0000 -0.3067 0.9518
vn -0.9864 -0.0078 0.1644
vn -0.2351 0.0078 0.9719
vn -0.6031 0.2663 0.7519
vn -0.4487 -0.0866 0.8895
vn -0.6287 0.1886 0.7544
vn 0.7450 -0.2039 -0.6351
vn 0.4864 -0.0706 -0.8709
vn 0.6394 -0.0711 0.7656
vn 0.4803 -0.1811 0.8582
vn 0.3689 0.0785 0.9262
vn 0.5883 -0.0314 0.8080
vn 0.5027 -0.0314 0.8639
vn 0.8301 0.1018 0.5482
vn 0.8128 -0.0868 0.5760
vn 0.9490 0.0314 0.3137
vn 0.9276 0.0550 0.3695
vn 0.9517 0.0708 0.2988
vn -0.9490 0.0314 0.3137
vn -0.9754 -0.0079 0.2203
vn -0.8301 0.1018 0.5482
vn -0.8737 -0.0787 0.4801
vn -0.5883 -0.0314 0.8080
vn 0.2351 0.0078 0.9719
vn 0.4475 -0.0865 0.8901
vn 0.6031 0.2663 0.7519
vn 0.6287 0.1886 0.7545
vn 0.6845 0.3540 0.6373
vn -0.0000 0.6063 0.7953
vn -0.0000 0.3768 0.9263
vn -0.6845 0.3540 0.6373
vn -0.6383 -0.2994 0.7092
vn -0.6394 -0.0711 0.7656
vn -0.0001 -0.4315 0.9021
vn 0.9034 0.2042 0.3771
vn 0.7367 -0.0548 0.6740
vn 0.7011 0.1969 0.6853
vn 0.2902 0.1726 0.9413
vn -0.0000 0.2902 0.9570
vn -0.5256 0.4628 0.7138
vn -0.7011 0.1969 0.6853
vn -0.2903 0.1725 0.9413
vn -0.0000 0.2351 0.9720
vn -0.2346 -0.0704 0.9696
vn -0.2743 -0.3135 0.9091
vn -0.3301 -0.5108 0.7938
vn -0.3689 0.0785 0.9262
vn -0.9499 -0.1963 0.2434
vn -0.8109 -0.2362 0.5354
vn -0.4803 -0.1811 0.8582
vt 0.089172 0.690979
vt 0.180267 0.570465
vt 0.219971 0.680237
vt 0.902008 0.367096
vt 0.898560 0.403442
vt 0.907928 0.383026
vt 0.215118 0.316742
vt 0.132294 0.302277
vt 0.217529 0.397095
vt 0.496582 0.328613
vt 0.496582 0.390350
vt 0.393799 0.350586
vt 0.326752 0.325439
vt 0.366547 0.378571
vt 0.905029 0.636536
vt 0.981567 0.545349
vt 0.879486 0.620270
vt 0.879486 0.372437
vt 0.968994 0.310669
vt 0.987366 0.385742
vt 0.496582 0.605652
vt 0.496582 0.639282
vt 0.443970 0.604980
vt 0.882996 0.380188
vt 0.011993 0.233551
vt 0.011932 0.384094
vt 0.011993 0.531891
vt 0.906708 0.416870
vt 0.888428 0.436218
vt 0.882996 0.432770
vt 0.291656 0.131134
vt 0.251740 0.013214
vt 0.495697 0.013214
vt 0.323639 0.400452
vt 0.256958 0.379578
vt 0.065063 0.551025
vt 0.011993 0.683441
vt 0.047791 0.026672
vt 0.073181 0.227173
vt 0.256958 0.431488
vt 0.490784 0.733307
vt 0.419495 0.747070
vt 0.490784 0.750732
vt 0.369507 0.432434
vt 0.395630 0.528259
vt 0.400635 0.422272
vt 0.458832 0.422668
vt 0.393127 0.615692
vt 0.306671 0.640625
vt 0.331360 0.545227
vt 0.258728 0.561707
vt 0.202332 0.463989
vt 0.113068 0.413208
vt 0.447449 0.486755
vt 0.496582 0.431183
vt 0.496582 0.471985
vt 0.496582 0.673584
vt 0.229156 0.250153
vt 0.411285 0.261353
vt 0.496582 0.121277
vt 0.496582 0.267303
s 1
usemtl m_face76
f 56/34/55 57/35/56 58/36/57
f 59/37/58 60/38/59 61/39/60
f 62/40/61 63/41/62 64/42/63
f 65/43/64 66/44/65 67/45/66
f 68/46/67 67/45/66 69/47/68
f 70/48/69 71/49/70 72/50/71
f 73/51/72 72/50/71 74/52/73
f 74/52/73 72/50/71 71/49/70
f 74/52/73 71/49/70 75/53/74
f 76/54/75 77/55/76 78/56/77
f 79/57/72 80/37/78 81/38/79
f 81/38/79 80/37/78 82/39/80
f 83/58/81 84/59/72 85/60/82
f 82/39/80 86/61/83 81/38/79
f 81/38/79 86/61/83 87/62/84
f 81/38/79 87/62/84 88/63/71
f 89/64/85 90/65/86 91/66/87
f 92/67/88 93/68/89 69/47/68
f 69/47/68 93/68/89 68/46/67
f 57/35/56 56/34/55 94/69/90
f 94/69/90 56/34/55 95/70/71
f 94/69/90 95/70/71 84/59/72
f 96/71/91 97/72/92 98/64/93
f 99/50/94 100/49/95 101/48/96
f 102/53/97 100/49/95 103/52/98
f 103/52/98 100/49/95 99/50/94
f 103/52/98 99/50/94 104/51/99
f 105/46/100 62/40/61 106/68/101
f 106/68/101 62/40/61 64/42/63
f 106/68/101 64/42/63 107/73/102
f 60/38/59 59/37/58 108/57/99
f 109/74/103 110/75/104 111/76/105
f 112/60/59 113/59/99 114/58/106
f 115/77/107 116/78/108 117/79/109
f 117/79/109 116/78/108 118/80/110
f 119/63/94 120/62/111 60/38/59
f 60/38/59 120/62/111 121/61/112
f 60/38/59 121/61/112 61/39/60
f 122/81/113 123/82/114 124/83/115
f 124/83/115 123/82/114 125/84/116
f 124/83/115 125/84/116 126/73/117
f 126/73/117 125/84/116 127/85/118
f 126/73/117 127/85/118 128/42/119
f 128/42/119 127/85/118 129/86/120
f 128/42/119 129/86/120 130/41/121
f 130/41/121 129/86/120 131/72/122
f 96/71/91 114/58/106 97/72/92
f 97/72/92 114/58/106 113/59/99
f 97/72/92 113/59/99 132/86/123
f 132/86/123 113/59/99 133/69/124
f 132/86/123 133/69/124 134/85/125
f 134/85/125 133/69/124 135/35/126
f 134/85/125 135/35/126 136/84/127
f 137/77/128 138/79/129 139/78/130
f 139/78/130 138/79/129 140/80/131
f 139/78/130 140/80/131 141/87/132
f 141/87/132 140/80/131 142/88/133
f 141/87/132 142/88/133 143/89/134
f 143/89/134 142/88/133 144/87/135
f 143/89/134 144/87/135 145/56/136
f 145/56/136 144/87/135 146/81/137
f 145/56/136 146/81/137 147/90/138
f 123/82/114 58/36/57 125/84/116
f 125/84/116 58/36/57 57/35/56
f 125/84/116 57/35/56 127/85/118
f 127/85/118 57/35/56 94/69/90
f 127/85/118 94/69/90 129/86/120
f 129/86/120 94/69/90 84/59/72
f 129/86/120 84/59/72 131/72/122
f 131/72/122 84/59/72 83/58/81
f 131/72/122 83/58/81 148/71/139
f 93/68/89 149/40/140 68/46/67
f 68/46/67 149/40/140 150/91/141
f 68/46/67 150/91/141 151/92/142
f 151/92/142 150/91/141 89/64/85
f 151/92/142 89/64/85 152/93/143
f 152/93/143 89/64/85 91/66/87
f 152/93/143 91/66/87 98/64/93
f 98/64/93 91/66/87 153/65/144
f 98/64/93 153/65/144 96/71/91
f 63/41/62 62/40/61 154/91/145
f 154/91/145 62/40/61 105/46/100
f 154/91/145 105/46/100 155/92/146
f 155/92/146 105/46/100 65/43/64
f 155/92/146 65/43/64 156/94/147
f 157/67/148 115/77/107 158/47/149
f 158/47/149 115/77/107 117/79/109
f 158/47/149 117/79/109 159/45/150
f 159/45/150 117/79/109 118/80/110
f 159/45/150 118/80/110 66/44/65
f 126/73/117 137/77/128 124/83/115
f 124/83/115 137/77/128 139/78/130
f 124/83/115 139/78/130 122/81/113
f 122/81/113 139/78/130 141/87/132
f 122/81/113 141/87/132 78/56/77
f 78/56/77 141/87/132 143/89/134
f 78/56/77 143/89/134 76/54/75
f 76/54/75 143/89/134 145/56/136
f 76/54/75 145/56/136 77/55/76
f 77/55/76 145/56/136 147/90/138
f 77/55/76 147/90/138 78/56/77
f 78/56/77 147/90/138 122/81/113
f 66/44/65 65/43/64 159/45/150
f 159/45/150 65/43/64 105/46/100
f 159/45/150 105/46/100 158/47/149
f 158/47/149 105/46/100 106/68/101
f 158/47/149 106/68/101 157/67/148
f 157/67/148 106/68/101 107/73/102
f 157/67/148 107/73/102 115/77/107
f 115/77/107 107/73/102 160/83/151
f 115/77/107 160/83/151 116/78/108
f 67/45/66 68/46/67 65/43/64
f 65/43/64 68/46/67 151/92/142
f 65/43/64 151/92/142 156/94/147
f 156/94/147 151/92/142 152/93/143
f 156/94/147 152/93/143 155/92/146
f 155/92/146 152/93/143 98/64/93
f 155/92/146 98/64/93 154/91/145
f 154/91/145 98/64/93 97/72/92
f 154/91/145 97/72/92 63/41/62
f 63/41/62 97/72/92 132/86/123
f 63/41/62 132/86/123 64/42/63
f 64/42/63 132/86/123 134/85/125
f 64/42/63 134/85/125 107/73/102
f 107/73/102 134/85/125 136/84/127
f 107/73/102 136/84/127 160/83/151
f 113/59/99 161/70/94 133/69/124
f 133/69/124 161/70/94 162/34/152
f 133/69/124 162/34/152 135/35/126
f 135/35/126 162/34/152 163/36/153
f 135/35/126 163/36/153 136/84/127
f 136/84/127 163/36/153 164/82/154
f 136/84/127 164/82/154 160/83/151
f 160/83/151 164/82/154 146/81/137
f 160/83/151 146/81/137 116/78/108
f 116/78/108 146/81/137 144/87/135
f 116/78/108 144/87/135 118/80/110
f 118/80/110 144/87/135 142/88/133
f 118/80/110 142/88/133 66/44/65
f 66/44/65 142/88/133 140/80/131
f 66/44/65 140/80/131 67/45/66
f 67/45/66 140/80/131 138/79/129
f 67/45/66 138/79/129 69/47/68
f 69/47/68 138/79/129 137/77/128
f 69/47/68 137/77/128 92/67/88
f 92/67/88 137/77/128 126/73/117
f 92/67/88 126/73/117 93/68/89
f 93/68/89 126/73/117 128/42/119
f 93/68/89 128/42/119 149/40/140
f 149/40/140 128/42/119 130/41/121
f 149/40/140 130/41/121 150/91/141
f 150/91/141 130/41/121 131/72/122
f 150/91/141 131/72/122 89/64/85
f 89/64/85 131/72/122 148/71/139
f 89/64/85 148/71/139 90/65/86
