mtllib face_08.mtl
o editpl_m-0000-131
v 1.568623 49.695637 10.088967
v 1.278740 48.972664 9.284958
v 2.874455 48.432842 8.367372
v 1.303122 48.352512 9.697424
v 0.000000 53.268734 10.550003
v 1.070132 51.633205 10.950513
v 0.856105 53.130566 10.222720
v 0.000000 49.168671 10.003784
v 0.000000 48.966236 9.574881
v 0.000000 48.355724 9.996312
v 2.110462 44.708721 7.660501
v 3.838928 46.341038 5.904534
v 2.397637 46.610947 8.167863
v 3.754943 47.353199 7.571583
v 3.538208 45.598782 5.443498
v 0.000000 44.303856 3.787658
v 5.171852 46.498486 2.351499
v 4.258853 46.405300 0.298884
v 6.036084 47.777344 0.886947
v 4.345547 50.585697 7.549912
v 4.348257 48.673832 7.393743
v 5.421097 50.437889 5.778252
v 5.226035 47.725933 4.736627
v 5.984610 50.277229 3.249658
v -3.538208 45.598782 5.443498
v -2.110462 44.708721 7.660501
v -3.838928 46.341038 5.904534
v -1.070132 51.633205 10.950513
v 0.000000 51.032333 10.984138
v 0.000000 51.893478 11.471325
v 0.000000 49.602451 10.307157
v 0.000000 50.486088 10.289970
v -1.568623 49.695637 10.088967
v -2.874455 48.432842 8.367372
v -3.754943 47.353199 7.571583
v -2.397637 46.610947 8.167863
v -4.345547 50.585697 7.549912
v -5.421097 50.437889 5.778252
v -4.348257 48.673832 7.393743
v -5.226035 47.725933 4.736627
v -1.853089 45.688751 8.642349
v 0.000000 45.916893 9.072748
v -7.163109 53.779636 -2.317882
v -4.258853 46.405300 0.298884
v -6.447882 50.248310 0.347454
v -6.036084 47.777344 0.886947
v 0.000000 44.454876 7.833857
v 5.808512 47.430317 2.097445
v 6.447882 50.248310 0.347454
v 7.163109 53.779636 -2.317882
v -0.856105 53.130566 10.222720
v -5.984610 50.277229 3.249658
v -5.808512 47.430317 2.097445
v -5.171852 46.498486 2.351499
v 0.000000 44.985058 8.732016
v 1.853089 45.688751 8.642349
v -1.278740 48.972664 9.284958
v -1.303122 48.352512 9.697424
v 0.000000 47.414249 9.251333
vn 0.3697 -0.2438 0.8966
vn 0.3152 -0.3861 0.8669
vn 0.5499 -0.2357 0.8013
vn 0.3767 0.0235 0.9260
vn -0.0000 0.5180 0.8554
vn 0.6175 -0.1407 0.7739
vn 0.5974 0.3774 0.7076
vn -0.0000 -0.7708 0.6371
vn -0.0000 0.0940 0.9956
vn -0.0000 -0.0314 0.9995
vn 0.5508 -0.7318 0.4013
vn 0.7996 -0.4860 0.3527
vn 0.5643 -0.2821 0.7759
vn 0.6744 -0.3764 0.6352
vn 0.6376 -0.7635 0.1024
vn -0.0000 -0.9975 -0.0707
vn 0.6831 -0.7302 0.0157
vn 0.6295 -0.6453 -0.4328
vn 0.8351 -0.4805 -0.2679
vn 0.6694 -0.0630 0.7402
vn 0.7899 -0.2291 0.5688
vn 0.8919 -0.2210 0.3946
vn 0.9016 -0.3136 0.2979
vn 0.9590 -0.2043 0.1965
vn -0.6376 -0.7636 0.1023
vn -0.5508 -0.7318 0.4013
vn -0.7996 -0.4860 0.3528
vn -0.6175 -0.1407 0.7739
vn -0.0000 -0.6456 0.7637
vn -0.0000 0.0079 1.0000
vn -0.0000 -0.2902 0.9570
vn -0.0000 -0.3067 0.9518
vn -0.3697 -0.2438 0.8966
vn -0.5499 -0.2357 0.8013
vn -0.6744 -0.3764 0.6352
vn -0.5643 -0.2821 0.7759
vn -0.6694 -0.0630 0.7402
vn -0.8919 -0.2210 0.3946
vn -0.7899 -0.2291 0.5688
vn -0.9016 -0.3136 0.2979
vn -0.4383 -0.2582 0.8609
vn -0.0000 -0.0394 0.9992
vn 0.4629 -0.0001 -0.8864
vn -0.6295 -0.6453 -0.4328
vn -0.9712 -0.2350 0.0391
vn -0.8351 -0.4805 -0.2679
vn -0.0000 -0.9612 0.2758
vn 0.9205 -0.3462 0.1810
vn 0.9712 -0.2350 0.0391
vn -0.4628 -0.0000 -0.8865
vn -0.0000 -0.3068 0.9518
vn -0.5974 0.3774 0.7076
vn -0.9590 -0.2043 0.1965
vn -0.9205 -0.3462 0.1810
vn -0.6831 -0.7302 0.0157
vn -0.0000 -0.6501 0.7598
vn 0.4383 -0.2582 0.8609
vn -0.3153 -0.3861 0.8669
vn -0.3767 0.0235 0.9260
vn -0.0000 -0.4628 0.8864
vt 0.582794 0.702728
vt 0.581482 0.730865
vt 0.648346 0.756927
vt 0.584259 0.781219
vt 0.505676 0.524750
vt 0.537811 0.585907
vt 0.537018 0.524139
vt 0.505676 0.725403
vt 0.505676 0.735321
vt 0.505676 0.781036
vt 0.636932 0.968903
vt 0.734894 0.933441
vt 0.634674 0.892731
vt 0.692749 0.829254
vt 0.746399 0.977203
vt 0.505676 0.986572
vt 0.904816 0.935883
vt 0.987640 0.986572
vt 0.941772 0.900177
vt 0.718719 0.632507
vt 0.721588 0.763550
vt 0.773560 0.655212
vt 0.796936 0.813629
vt 0.849121 0.667511
vt 0.505676 0.625702
vt 0.505676 0.588165
vt 0.505676 0.696228
vt 0.505676 0.655670
vt 0.607361 0.933075
vt 0.505676 0.890991
vt 0.987640 0.504211
vt 0.957642 0.676697
vt 0.505676 0.980438
vt 0.870392 0.853760
vt 0.505676 0.948395
vt 0.505676 0.830902
s 1
usemtl m_face80
f 1/1/1 2/2/2 3/3/3
f 3/3/3 2/2/2 4/4/4
f 5/5/5 6/6/6 7/7/7
f 1/1/1 8/8/8 2/2/2
f 2/2/2 8/8/8 9/9/9
f 2/2/2 9/9/9 4/4/4
f 4/4/4 9/9/9 10/10/10
f 11/11/11 12/12/12 13/13/13
f 13/13/13 12/12/12 14/14/14
f 15/15/15 16/16/16 17/17/17
f 17/17/17 16/16/16 18/18/18
f 17/17/17 18/18/18 19/19/19
f 20/20/20 21/21/21 22/22/22
f 22/22/22 21/21/21 23/23/23
f 22/22/22 23/23/23 24/24/24
f 25/15/25 26/11/26 27/12/27
f 28/6/28 29/25/29 30/26/30
f 31/27/31 32/28/32 33/1/33
f 34/3/34 35/14/35 36/13/36
f 37/20/37 38/22/38 39/21/39
f 39/21/39 38/22/38 40/23/40
f 39/21/39 40/23/40 27/12/27
f 36/13/36 41/29/41 42/30/42
f 43/31/43 44/18/44 45/32/45
f 45/32/45 44/18/44 46/19/46
f 47/33/47 16/16/16 11/11/11
f 11/11/11 16/16/16 15/15/15
f 11/11/11 15/15/15 12/12/12
f 12/12/12 15/15/15 17/17/17
f 12/12/12 17/17/17 48/34/48
f 48/34/48 17/17/17 19/19/19
f 48/34/48 19/19/19 49/32/49
f 49/32/49 19/19/19 18/18/18
f 49/32/49 18/18/18 50/31/50
f 28/6/28 32/28/51 29/25/29
f 29/25/29 32/28/51 6/6/6
f 29/25/29 6/6/6 30/26/30
f 30/26/30 6/6/6 5/5/5
f 30/26/30 5/5/5 28/6/28
f 28/6/28 5/5/5 51/7/52
f 52/24/53 45/32/45 53/34/54
f 53/34/54 45/32/45 46/19/46
f 53/34/54 46/19/46 54/17/55
f 54/17/55 46/19/46 44/18/44
f 54/17/55 44/18/44 16/16/16
f 34/3/34 39/21/39 35/14/35
f 35/14/35 39/21/39 27/12/27
f 35/14/35 27/12/27 36/13/36
f 36/13/36 27/12/27 26/11/26
f 36/13/36 26/11/26 41/29/41
f 41/29/41 26/11/26 55/35/56
f 41/29/41 55/35/56 42/30/42
f 42/30/42 55/35/56 56/29/57
f 8/8/8 57/2/58 9/9/9
f 9/9/9 57/2/58 58/4/59
f 9/9/9 58/4/59 10/10/10
f 10/10/10 58/4/59 59/36/60
f 10/10/10 59/36/60 4/4/4
f 4/4/4 59/36/60 13/13/13
f 4/4/4 13/13/13 3/3/3
f 3/3/3 13/13/13 14/14/14
f 3/3/3 14/14/14 21/21/21
f 21/21/21 14/14/14 12/12/12
f 21/21/21 12/12/12 23/23/23
f 23/23/23 12/12/12 48/34/48
f 23/23/23 48/34/48 24/24/24
f 24/24/24 48/34/48 49/32/49
f 38/22/38 52/24/53 40/23/40
f 40/23/40 52/24/53 53/34/54
f 40/23/40 53/34/54 27/12/27
f 27/12/27 53/34/54 54/17/55
f 27/12/27 54/17/55 25/15/25
f 25/15/25 54/17/55 16/16/16
f 25/15/25 16/16/16 26/11/26
f 26/11/26 16/16/16 47/33/47
f 26/11/26 47/33/47 55/35/56
f 55/35/56 47/33/47 11/11/11
f 55/35/56 11/11/11 56/29/57
f 56/29/57 11/11/11 13/13/13
f 56/29/57 13/13/13 42/30/42
f 42/30/42 13/13/13 59/36/60
f 42/30/42 59/36/60 36/13/36
f 36/13/36 59/36/60 58/4/59
f 36/13/36 58/4/59 34/3/34
f 34/3/34 58/4/59 57/2/58
f 34/3/34 57/2/58 33/1/33
f 33/1/33 57/2/58 8/8/8
f 33/1/33 8/8/8 31/27/31
f 31/27/31 8/8/8 1/1/1
f 31/27/31 1/1/1 32/28/32
o editpl_m-0000-132
v 4.445788 57.985741 8.290407
v 5.272092 59.405983 7.053758
v 2.717322 59.820488 8.927039
v -7.824153 56.199192 -1.170151
v -7.163109 53.779636 -2.317882
v -8.590855 55.559761 -2.843925
v -6.862389 55.174175 0.347454
v -7.390682 58.499855 -1.933811
v -7.163109 53.779636 -2.317882
v 1.430454 54.701832 8.425655
v 0.839850 54.431919 9.218456
v 2.153809 53.053452 9.082461
v 4.147776 56.809704 9.073495
v 5.117668 56.587990 8.000486
v 4.445788 57.985741 8.290407
v -2.115881 57.561596 9.309615
v -4.445788 57.985741 8.290407
v -4.147776 56.809704 9.073495
v 7.255222 49.923775 -1.247862
v 8.574599 53.165913 -3.065850
v 6.447882 50.248310 0.347454
v 6.862389 55.174175 0.347454
v 7.824153 56.199192 -1.170151
v 8.590855 55.559761 -2.843925
v 6.862389 55.174175 0.347454
v 7.824153 56.199192 -1.170151
v 7.163109 53.779636 -2.317882
v 8.590855 55.559761 -2.843925
v 2.126717 51.160866 8.804495
v 0.856105 53.130566 10.222720
v 1.070132 51.633205 10.950513
v 6.030666 52.671078 6.178762
v 6.190509 54.602222 4.948837
v 5.087867 54.727535 6.988002
v 4.283236 55.344475 7.830120
v 5.421097 50.437889 5.778252
v 5.984610 50.277229 3.249658
v 6.030666 52.671078 6.178762
v 6.493938 52.966694 4.463891
v 6.190509 54.602222 4.948837
v 8.574599 53.165913 -3.065850
v 7.255222 49.923775 -1.247862
v 6.447882 50.248310 0.347454
v -4.348257 48.673832 7.393743
v -3.256451 49.933414 8.696897
v -4.345547 50.585697 7.549912
v -2.126717 51.160866 8.804495
v 6.466846 58.287785 3.896751
v -6.193218 61.047935 3.615795
v -6.466846 58.287785 3.896751
v 0.000000 59.762650 9.333527
v 2.115881 57.561596 9.309615
v 2.717322 59.820488 8.927039
v -6.447882 50.248310 0.347454
v -8.574599 53.165913 -3.065850
v -7.255222 49.923775 -1.247862
v -8.590855 55.559761 -2.843925
v -7.824153 56.199192 -1.170151
v -6.862389 55.174175 0.347454
v -0.856105 53.130566 10.222720
v 0.000000 53.268734 10.550003
v 0.000000 54.640781 9.707138
v -6.862389 55.174175 0.347454
v -1.070132 51.633205 10.950513
v -2.153809 53.053452 9.082461
v -0.839850 54.431919 9.218456
v -1.430454 54.701832 8.425655
v -1.143280 55.411953 9.225182
v 4.348257 48.673832 7.393743
v 4.345547 50.585697 7.549912
v 3.256451 49.933414 8.696897
v -6.447882 50.248310 0.347454
v -7.255222 49.923775 -1.247862
v -8.574599 53.165913 -3.065850
v 0.000000 62.905178 7.103820
v -3.717014 62.619202 6.400686
v -2.717322 59.820488 8.927039
v -5.272092 59.405983 7.053758
v 1.143280 55.411953 9.225182
v 2.072533 56.613697 9.865549
v 0.000000 55.746128 9.578616
v 0.000000 50.486088 10.289970
v 1.568623 49.695637 10.088967
v 2.874455 48.432842 8.367372
v 5.421097 50.437889 5.778252
v 5.150178 52.597172 7.577559
v 4.266981 54.669701 7.719531
v 3.218523 55.016727 8.309088
v 2.229667 55.328407 8.309835
v 2.216121 54.528316 8.199247
v 3.757652 52.706421 8.316560
v 2.126717 51.160866 8.804495
v 4.345547 50.585697 7.549912
v 2.153809 53.053452 9.082461
v 0.839850 54.431919 9.218456
v 1.143280 55.411953 9.225182
v 0.000000 55.746128 9.578616
v 5.117668 56.587990 8.000486
v 6.862389 55.174175 0.347454
v 6.447882 50.248310 0.347454
v -6.493938 52.966694 4.463891
v -6.190509 54.602222 4.948837
v -6.030666 52.671078 6.178762
v -5.087867 54.727535 6.988002
v -5.150178 52.597172 7.577559
v -4.266981 54.669701 7.719531
v -2.874455 48.432842 8.367372
v -1.568623 49.695637 10.088967
v -5.117668 56.587990 8.000486
v -4.283236 55.344475 7.830120
v -3.218523 55.016727 8.309088
v -3.757652 52.706421 8.316560
v -2.216121 54.528316 8.199247
v -2.229667 55.328407 8.309835
v -2.072533 56.613697 9.865549
v 2.115881 57.561596 9.309615
v 0.000000 59.762650 9.333527
v 3.717014 62.619202 6.400686
v 6.193218 61.047935 3.615795
v 7.390682 58.499855 -1.933811
v 7.163109 53.779636 -2.317882
v -6.447882 50.248310 0.347454
v -5.984610 50.277229 3.249658
v -5.421097 50.437889 5.778252
v 2.072533 56.613697 9.865549
vn 0.6752 0.2120 0.7065
vn 0.8048 0.2367 0.5444
vn 0.3521 0.3678 0.8607
vn 0.8164 0.4161 -0.4004
vn 0.4629 -0.0000 -0.8864
vn 0.6187 0.2741 -0.7362
vn -0.9856 0.0391 0.1643
vn -0.9888 -0.0000 0.1491
vn 0.5745 0.0079 0.8185
vn 0.6499 0.2427 0.7203
vn 0.5343 0.2908 0.7937
vn 0.4871 -0.1257 0.8642
vn 0.8045 -0.1104 0.5837
vn 0.6751 0.2120 0.7066
vn -0.1881 0.2822 0.9407
vn -0.6752 0.2120 0.7066
vn -0.4871 -0.1257 0.8642
vn -0.5177 -0.4471 -0.7295
vn 0.8874 -0.0707 0.4555
vn 0.9712 -0.2350 0.0392
vn 0.9856 0.0391 0.1643
vn 0.8830 -0.0631 0.4651
vn 0.9045 -0.0393 0.4247
vn 0.9856 0.0392 0.1643
vn -0.8165 0.4161 -0.4003
vn -0.4629 -0.0000 -0.8864
vn -0.6187 0.2741 -0.7362
vn 0.6135 0.0708 0.7865
vn 0.5975 0.3774 0.7075
vn 0.6175 -0.1407 0.7739
vn 0.9245 -0.0627 0.3761
vn 0.9515 0.0236 0.3067
vn 0.7592 -0.0391 0.6496
vn 0.4728 -0.2286 0.8510
vn 0.8919 -0.2210 0.3946
vn 0.9590 -0.2044 0.1965
vn 0.9245 -0.0627 0.3760
vn 0.9837 -0.0708 0.1653
vn -0.4957 -0.0708 -0.8656
vn 0.9712 -0.2350 0.0391
vn -0.7899 -0.2291 0.5688
vn -0.6368 0.0314 0.7704
vn -0.6694 -0.0630 0.7402
vn -0.6135 0.0708 0.7865
vn 0.9602 0.0472 0.2754
vn -0.9218 0.2364 0.3073
vn -0.9602 0.0472 0.2754
vn -0.0000 0.2902 0.9570
vn 0.1882 0.2822 0.9407
vn 0.3521 0.3677 0.8607
vn -0.9712 -0.2350 0.0392
vn -0.8874 -0.0707 0.4555
vn 0.5177 -0.4472 -0.7294
vn -0.9045 -0.0393 0.4247
vn -0.8830 -0.0631 0.4651
vn -0.5975 0.3774 0.7075
vn -0.0000 0.5179 0.8554
vn -0.0000 0.2830 0.9591
vn -0.9856 0.0392 0.1642
vn -0.6175 -0.1407 0.7739
vn -0.5344 0.2907 0.7937
vn -0.6498 0.2427 0.7203
vn -0.5745 0.0079 0.8185
vn -0.4651 -0.3705 0.8040
vn 0.7899 -0.2291 0.5688
vn 0.6694 -0.0630 0.7403
vn 0.6368 0.0314 0.7704
vn -0.9712 -0.2350 0.0391
vn 0.5177 -0.4471 -0.7295
vn 0.4957 -0.0708 -0.8656
vn -0.0000 0.6063 0.7952
vn -0.5404 0.5247 0.6578
vn -0.3521 0.3677 0.8607
vn -0.8048 0.2367 0.5444
vn 0.4651 -0.3705 0.8040
vn 0.1732 -0.1338 0.9758
vn -0.0000 -0.2444 0.9697
vn -0.0000 -0.3068 0.9518
vn 0.3697 -0.2438 0.8966
vn 0.5499 -0.2357 0.8013
vn 0.8918 -0.2210 0.3947
vn 0.7063 -0.0471 0.7063
vn 0.4715 -0.0550 0.8801
vn 0.2267 -0.0938 0.9694
vn 0.2756 -0.2993 0.9135
vn 0.2588 0.0471 0.9648
vn 0.4181 0.0473 0.9072
vn 0.6135 0.0707 0.7865
vn 0.6694 -0.0630 0.7402
vn 0.5344 0.2907 0.7937
vn 0.6498 0.2427 0.7203
vn 0.4651 -0.3704 0.8040
vn 0.8045 -0.1104 0.5836
vn 0.9856 0.0391 0.1642
vn -0.9837 -0.0708 0.1653
vn -0.9515 0.0236 0.3067
vn -0.9245 -0.0627 0.3761
vn -0.7592 -0.0391 0.6496
vn -0.7063 -0.0471 0.7063
vn -0.4715 -0.0550 0.8801
vn -0.5499 -0.2357 0.8013
vn -0.3697 -0.2438 0.8966
vn -0.8045 -0.1104 0.5836
vn -0.4728 -0.2286 0.8510
vn -0.2267 -0.0938 0.9694
vn -0.4181 0.0473 0.9072
vn -0.2588 0.0471 0.9648
vn -0.2756 -0.2993 0.9135
vn -0.1731 -0.1338 0.9758
vn 0.1881 0.2822 0.9407
vn 0.5404 0.5247 0.6578
vn 0.9218 0.2364 0.3073
vn 0.9888 -0.0000 0.1491
vn -0.9590 -0.2044 0.1965
vn -0.8919 -0.2210 0.3946
vn 0.1731 -0.1338 0.9758
vt 0.769135 0.240692
vt 0.785217 0.152954
vt 0.675354 0.132111
vt 0.099609 0.897064
vt 0.135956 0.893646
vt 0.115540 0.903015
vt 0.986603 0.401215
vt 0.986542 0.216431
vt 0.986542 0.504211
vt 0.084015 0.418243
vt 0.042755 0.449585
vt 0.125000 0.535004
vt 0.256409 0.313568
vt 0.305603 0.326996
vt 0.272858 0.240692
vt 0.614380 0.249817
vt 0.752686 0.313568
vt 0.369049 0.900085
vt 0.277863 0.986267
vt 0.352783 0.874542
vt 0.104950 0.874542
vt 0.043182 0.964081
vt 0.118256 0.987549
vt 0.112701 0.878082
vt 0.604340 0.606567
vt 0.537018 0.524139
vt 0.537811 0.585907
vt 0.325958 0.534241
vt 0.372009 0.424042
vt 0.283569 0.418396
vt 0.237579 0.384460
vt 0.773560 0.655212
vt 0.849121 0.667511
vt 0.822235 0.534241
vt 0.871948 0.515900
vt 0.868286 0.424042
vt 0.149384 0.901764
vt 0.168732 0.883484
vt 0.165283 0.878082
vt 0.721588 0.763550
vt 0.646179 0.700775
vt 0.718719 0.632507
vt 0.892426 0.204041
vt 0.921661 0.011627
vt 0.013855 0.133453
vt 0.124664 0.258087
vt 0.179077 0.132111
vt 0.503723 0.524750
vt 0.503723 0.443298
vt 0.621277 0.535004
vt 0.539032 0.449585
vt 0.580292 0.418243
vt 0.553955 0.379333
vt 0.503723 0.011627
vt 0.697021 0.011627
vt 0.057678 0.379333
vt 0.131927 0.323853
vt 0.013855 0.357025
vt 0.503723 0.655670
vt 0.582794 0.702728
vt 0.648346 0.756927
vt 0.277283 0.655212
vt 0.264740 0.535156
vt 0.234863 0.431671
vt 0.181915 0.411285
vt 0.128143 0.379639
vt 0.120575 0.429626
vt 0.196533 0.526276
vt 0.105530 0.613312
vt 0.222443 0.632507
vt 0.503723 0.358307
vt 0.801880 0.326996
vt 0.957642 0.676697
vt 0.779846 0.418396
vt 0.761017 0.535156
vt 0.731140 0.423431
vt 0.733856 0.383392
vt 0.678192 0.395508
vt 0.692810 0.526276
vt 0.622864 0.421387
vt 0.624420 0.371796
vt 0.628540 0.324280
vt 0.378296 0.257202
vt 0.503723 0.134735
vt 0.365479 0.327820
s 1
usemtl m_face80
f 60/37/61 61/38/62 62/39/63
f 63/40/64 64/41/65 65/42/66
f 66/43/67 67/44/68 68/45/65
f 69/46/69 70/47/70 71/48/71
f 72/49/72 73/50/73 74/51/74
f 75/52/75 76/37/76 77/53/77
f 78/54/78 79/55/79 80/56/80
f 81/57/81 80/56/80 82/58/82
f 82/58/82 80/56/80 79/55/79
f 82/58/82 79/55/79 83/59/83
f 84/60/84 85/40/85 86/41/86
f 86/41/86 85/40/85 87/42/87
f 88/61/88 89/62/89 90/63/90
f 91/64/91 92/65/92 93/66/93
f 93/66/93 92/65/92 73/50/73
f 93/66/93 73/50/73 94/67/94
f 95/68/95 96/69/96 97/70/97
f 97/70/97 96/69/96 98/71/98
f 97/70/97 98/71/98 99/72/92
f 87/42/87 100/73/99 86/41/86
f 86/41/86 100/73/99 101/74/78
f 86/41/86 101/74/78 102/75/100
f 103/76/101 104/77/102 105/78/103
f 105/78/103 104/77/102 106/61/104
f 61/38/62 60/37/61 107/79/105
f 108/80/106 67/44/68 109/79/107
f 110/81/108 111/82/109 112/83/110
f 113/56/111 114/55/112 115/54/113
f 116/59/114 114/55/112 117/58/115
f 117/58/115 114/55/112 113/56/111
f 117/58/115 113/56/111 118/57/67
f 119/62/116 120/84/117 121/85/118
f 121/85/118 120/84/117 89/62/89
f 64/41/65 63/40/64 122/60/119
f 123/63/120 119/62/116 106/61/104
f 124/86/121 125/87/122 126/88/123
f 126/88/123 125/87/122 127/89/124
f 128/76/125 129/78/126 130/77/127
f 130/77/127 129/78/126 88/61/88
f 131/75/128 132/74/129 64/41/65
f 64/41/65 132/74/129 133/73/130
f 64/41/65 133/73/130 65/42/66
f 134/90/131 135/91/132 136/39/133
f 136/39/133 135/91/132 137/38/134
f 136/39/133 137/38/134 76/37/76
f 138/92/135 139/93/136 140/94/137
f 90/63/90 141/95/138 88/61/88
f 88/61/88 141/95/138 142/96/139
f 88/61/88 142/96/139 130/77/127
f 130/77/127 142/96/139 143/97/140
f 130/77/127 143/97/140 128/76/125
f 144/98/141 91/64/91 145/99/142
f 145/99/142 91/64/91 93/66/93
f 145/99/142 93/66/93 146/100/143
f 146/100/143 93/66/93 94/67/94
f 146/100/143 94/67/94 147/101/144
f 148/102/145 69/46/69 149/103/146
f 149/103/146 69/46/69 71/48/71
f 149/103/146 71/48/71 150/104/147
f 150/104/147 71/48/71 151/105/148
f 150/104/147 151/105/148 152/106/149
f 88/61/88 153/86/150 89/62/89
f 89/62/89 153/86/150 154/87/151
f 89/62/89 154/87/151 121/85/118
f 121/85/118 154/87/151 155/89/152
f 121/85/118 155/89/152 156/107/137
f 60/37/61 157/108/153 107/79/105
f 107/79/105 157/108/153 99/72/92
f 107/79/105 99/72/92 158/43/154
f 158/43/154 99/72/92 98/71/98
f 158/43/154 98/71/98 159/109/80
f 159/109/80 98/71/98 96/69/96
f 66/43/67 160/71/155 161/72/156
f 161/72/156 160/71/155 162/70/157
f 161/72/156 162/70/157 163/110/158
f 163/110/158 162/70/157 164/111/159
f 163/110/158 164/111/159 165/112/160
f 103/76/101 166/97/161 104/77/102
f 104/77/102 166/97/161 167/96/162
f 104/77/102 167/96/162 106/61/104
f 106/61/104 167/96/162 141/95/138
f 106/61/104 141/95/138 123/63/120
f 67/44/68 66/43/67 109/79/107
f 109/79/107 66/43/67 161/72/156
f 109/79/107 161/72/156 168/108/163
f 168/108/163 161/72/156 163/110/158
f 168/108/163 163/110/158 169/113/164
f 169/113/164 163/110/158 165/112/160
f 169/113/164 165/112/160 170/114/165
f 171/115/166 124/86/121 172/116/167
f 172/116/167 124/86/121 126/88/123
f 172/116/167 126/88/123 173/117/168
f 173/117/168 126/88/123 127/89/124
f 173/117/168 127/89/124 77/53/77
f 77/53/77 127/89/124 174/118/169
f 77/53/77 174/118/169 75/52/75
f 75/52/75 174/118/169 175/119/170
f 75/52/75 175/119/170 176/120/108
f 70/47/70 69/46/69 138/92/135
f 138/92/135 69/46/69 148/102/145
f 138/92/135 148/102/145 139/93/136
f 139/93/136 148/102/145 72/49/72
f 139/93/136 72/49/72 111/82/109
f 111/82/109 72/49/72 74/51/74
f 111/82/109 74/51/74 112/83/110
f 73/50/73 72/49/72 94/67/94
f 94/67/94 72/49/72 148/102/145
f 94/67/94 148/102/145 147/101/144
f 147/101/144 148/102/145 149/103/146
f 147/101/144 149/103/146 146/100/143
f 146/100/143 149/103/146 150/104/147
f 146/100/143 150/104/147 145/99/142
f 145/99/142 150/104/147 152/106/149
f 145/99/142 152/106/149 144/98/141
f 76/37/76 75/52/75 136/39/133
f 136/39/133 75/52/75 176/120/108
f 136/39/133 176/120/108 134/90/131
f 134/90/131 176/120/108 62/39/63
f 134/90/131 62/39/63 177/91/171
f 177/91/171 62/39/63 61/38/62
f 177/91/171 61/38/62 178/80/172
f 178/80/172 61/38/62 107/79/105
f 178/80/172 107/79/105 179/44/173
f 179/44/173 107/79/105 158/43/154
f 179/44/173 158/43/154 180/45/86
f 164/111/159 171/115/166 165/112/160
f 165/112/160 171/115/166 172/116/167
f 165/112/160 172/116/167 170/114/165
f 170/114/165 172/116/167 173/117/168
f 170/114/165 173/117/168 169/113/164
f 169/113/164 173/117/168 77/53/77
f 169/113/164 77/53/77 168/108/163
f 168/108/163 77/53/77 76/37/76
f 168/108/163 76/37/76 109/79/107
f 109/79/107 76/37/76 137/38/134
f 109/79/107 137/38/134 108/80/106
f 108/80/106 137/38/134 135/91/132
f 66/43/67 181/109/111 160/71/155
f 160/71/155 181/109/111 182/69/174
f 160/71/155 182/69/174 162/70/157
f 162/70/157 182/69/174 183/68/175
f 162/70/157 183/68/175 164/111/159
f 164/111/159 183/68/175 105/78/103
f 164/111/159 105/78/103 171/115/166
f 171/115/166 105/78/103 106/61/104
f 171/115/166 106/61/104 124/86/121
f 124/86/121 106/61/104 119/62/116
f 124/86/121 119/62/116 125/87/122
f 125/87/122 119/62/116 121/85/118
f 125/87/122 121/85/118 127/89/124
f 127/89/124 121/85/118 156/107/137
f 127/89/124 156/107/137 174/118/169
f 174/118/169 156/107/137 184/121/176
f 174/118/169 184/121/176 175/119/170
