mtllib face_18.mtl
o editpl_m-0000-149
v 1.075550 51.366508 10.733072
v 0.000000 50.363987 9.934293
v 2.067115 51.135159 8.981587
v 4.955116 46.726624 2.822995
v 4.085465 46.485630 5.223068
v 3.437967 45.618061 5.249968
v -4.258853 46.405300 0.298884
v -6.014411 48.705963 0.981844
v -7.163109 53.779636 -2.317882
v 1.330214 49.557468 9.716105
v 2.067115 51.135159 8.981587
v 0.000000 50.363987 9.934293
v -1.067422 48.702751 9.154943
v 0.000000 48.625633 9.321572
v 0.000000 48.905186 10.017234
v -6.447882 50.248310 0.347454
v 2.665847 46.058273 7.466224
v 4.085465 46.485630 5.223068
v 3.838928 47.642391 7.404951
v 0.000000 49.425728 10.215248
v 4.955116 50.029812 6.730958
v 4.746508 48.034405 5.672147
v 5.979191 49.930202 3.144300
v 0.000000 50.781704 11.037937
v 6.447882 50.248310 0.347454
v 5.599904 47.796623 2.569687
v 4.085465 46.485630 5.223068
v 6.014411 48.705963 0.981844
v 4.746508 48.034405 5.672147
v 4.955116 50.029812 6.730958
v 3.868729 50.396118 8.061011
v 0.000000 47.099358 9.255069
v 1.400653 47.607044 9.191556
v 0.000000 47.542782 9.571144
v 1.067422 48.702751 9.154943
v 0.000000 48.625633 9.321572
v 0.000000 48.905186 10.017234
v -5.979191 49.930202 3.145794
v -4.746508 48.034405 5.672147
v -4.955116 50.029812 6.731706
v -3.838928 47.642391 7.404951
v -3.868729 50.396118 8.061011
v 0.000000 44.265297 7.385525
v 0.000000 44.795479 8.188787
v -1.685119 44.519142 7.327989
v 0.000000 49.425728 10.215248
v -1.330214 49.557468 9.716105
v -4.955116 46.726624 2.822995
v 0.000000 44.303856 3.780933
v -3.437967 45.618061 5.249968
v -1.649899 45.595570 8.341967
v -2.665847 46.058273 7.466224
v -4.085465 46.485630 5.223068
v 2.953022 48.686687 8.164875
v 1.996676 46.456711 8.164127
v 0.000000 46.546680 8.763398
v -1.996676 46.456711 8.164127
v -1.400653 47.607044 9.191556
v -2.953022 48.686687 8.164875
v 0.000000 51.585011 11.593870
v -1.075550 51.366508 10.733072
v -2.067115 51.135159 8.983081
v 1.685119 44.519142 7.327989
v 4.258853 46.405300 0.298884
v 7.163109 53.779636 -2.317882
v 0.000000 47.542782 9.571144
v 0.000000 47.099358 9.255069
v 0.000000 46.546680 8.763398
v 0.000000 45.399563 8.572857
v 1.996676 46.456711 8.164127
v 1.649899 45.595570 8.341967
v 2.665847 46.058273 7.466224
v -5.599904 47.796623 2.569687
vn 0.6936 -0.2206 0.6857
vn -0.0000 -0.3863 0.9224
vn 0.5970 -0.0393 0.8013
vn 0.7226 -0.6911 0.0157
vn 0.8007 -0.5103 0.3140
vn 0.6222 -0.7797 0.0709
vn -0.7077 -0.6763 -0.2044
vn -0.8890 -0.4327 -0.1495
vn 0.2194 -0.0862 -0.9718
vn 0.4474 -0.1648 0.8790
vn 0.5970 -0.0392 0.8013
vn -0.3454 -0.3062 0.8871
vn -0.0001 -0.4628 0.8864
vn -0.0000 -0.6912 0.7226
vn -0.9602 -0.2125 0.1810
vn 0.7071 -0.4243 0.5657
vn 0.8007 -0.5102 0.3140
vn 0.7057 -0.3293 0.6273
vn -0.0000 -0.0315 0.9995
vn 0.8440 -0.2524 0.4732
vn 0.8895 -0.3385 0.3070
vn 0.9503 -0.2278 0.2121
vn -0.0000 -0.7847 0.6199
vn 0.9602 -0.2125 0.1810
vn 0.9205 -0.3541 0.1652
vn 0.8890 -0.4327 -0.1495
vn 0.8440 -0.2524 0.4733
vn 0.5582 -0.1415 0.8176
vn -0.0000 -0.6112 0.7915
vn 0.3991 -0.2426 0.8842
vn -0.0000 -0.0785 0.9969
vn 0.3454 -0.3062 0.8871
vn 0.0001 -0.4628 0.8864
vn -0.9486 -0.2352 0.2117
vn -0.8895 -0.3385 0.3070
vn -0.8440 -0.2524 0.4733
vn -0.7057 -0.3293 0.6273
vn -0.5582 -0.1415 0.8176
vn -0.0000 -0.9591 0.2831
vn -0.0000 -0.6912 0.7227
vn -0.4939 -0.7839 0.3763
vn -0.0000 -0.0314 0.9995
vn -0.4474 -0.1648 0.8790
vn -0.7226 -0.6911 0.0157
vn -0.0000 -0.9969 -0.0785
vn -0.6222 -0.7797 0.0709
vn -0.4169 -0.3618 0.8338
vn -0.7071 -0.4243 0.5657
vn -0.8007 -0.5102 0.3140
vn 0.5263 -0.2356 0.8170
vn 0.4247 -0.2910 0.8573
vn -0.0000 -0.4315 0.9021
vn -0.4247 -0.2910 0.8573
vn -0.3991 -0.2426 0.8842
vn -0.5263 -0.2356 0.8170
vn -0.0000 -0.0000 1.0000
vn -0.6936 -0.2207 0.6858
vn -0.5970 -0.0393 0.8013
vn 0.4939 -0.7839 0.3763
vn 0.7077 -0.6763 -0.2044
vn -0.2194 -0.0862 -0.9718
vn -0.0000 -0.4314 0.9021
vn -0.0000 -0.1886 0.9821
vn 0.4247 -0.2909 0.8573
vn 0.4169 -0.3618 0.8338
vn -0.9205 -0.3540 0.1652
vt 0.455811 0.646271
vt 0.496246 0.700043
vt 0.392517 0.652496
vt 0.103119 0.975708
vt 0.217438 0.926483
vt 0.297516 0.980988
vt 0.012024 0.987213
vt 0.019562 0.970337
vt 0.012024 0.504211
vt 0.802521 0.789581
vt 0.770874 0.683197
vt 0.874603 0.730774
vt 0.431732 0.802368
vt 0.496246 0.808960
vt 0.496246 0.799591
vt 0.012024 0.683441
vt 0.687073 0.966095
vt 0.595795 0.957184
vt 0.634949 0.884399
vt 0.874603 0.791779
vt 0.203094 0.757996
vt 0.191101 0.855072
vt 0.056915 0.707367
vt 0.496246 0.671997
vt 0.068451 0.856445
vt 0.569458 0.885773
vt 0.581451 0.788696
vt 0.697052 0.777771
vt 0.874603 0.912476
vt 0.807770 0.892548
vt 0.874603 0.894318
vt 0.810089 0.833099
vt 0.874603 0.839661
vt 0.874603 0.830292
vt 0.256592 0.853699
vt 0.318695 0.747070
vt 0.496246 0.981079
vt 0.496246 0.967529
vt 0.368103 0.978210
vt 0.496246 0.761047
vt 0.424164 0.758850
vt 0.496246 0.987213
vt 0.429321 0.937073
vt 0.308716 0.935394
vt 0.741333 0.838226
vt 0.763977 0.933594
vt 0.874603 0.946899
vt 0.385620 0.902863
vt 0.429413 0.861816
vt 0.362946 0.807495
vt 0.496246 0.633057
vt 0.496246 0.863617
vt 0.496246 0.881775
vt 0.496246 0.908875
vt 0.496246 0.953491
s 1
usemtl m_face89
f 1/1/1 2/2/2 3/3/3
f 4/4/4 5/5/5 6/6/6
f 7/7/7 8/8/8 9/9/9
f 10/10/10 11/11/11 12/12/2
f 13/13/12 14/14/13 15/15/14
f 8/8/8 16/16/15 9/9/9
f 17/17/16 18/18/17 19/19/18
f 10/10/10 12/12/2 20/20/19
f 21/21/20 22/22/21 23/23/22
f 2/2/2 1/1/1 24/24/23
f 25/16/24 23/23/22 26/25/25
f 26/25/25 23/23/22 22/22/21
f 26/25/25 22/22/21 27/5/17
f 5/5/5 4/4/4 26/25/25
f 26/25/25 4/4/4 28/8/26
f 26/25/25 28/8/26 25/16/24
f 18/18/17 29/26/21 19/19/18
f 19/19/18 29/26/21 30/27/27
f 19/19/18 30/27/27 31/28/28
f 32/29/29 33/30/30 34/31/31
f 34/31/31 33/30/30 35/32/32
f 34/31/31 35/32/32 36/33/33
f 36/33/33 35/32/32 37/34/14
f 38/23/34 39/22/35 40/21/36
f 40/21/36 39/22/35 41/35/37
f 40/21/36 41/35/37 42/36/38
f 43/37/39 44/38/40 45/39/41
f 46/40/42 2/2/2 47/41/43
f 8/8/8 7/7/7 48/4/44
f 48/4/44 7/7/7 49/42/45
f 48/4/44 49/42/45 50/6/46
f 44/38/40 51/43/47 45/39/41
f 45/39/41 51/43/47 52/44/48
f 45/39/41 52/44/48 53/5/49
f 11/11/11 10/10/10 31/28/28
f 31/28/28 10/10/10 54/45/50
f 31/28/28 54/45/50 19/19/18
f 19/19/18 54/45/50 55/46/51
f 19/19/18 55/46/51 17/17/16
f 20/20/19 37/34/14 10/10/10
f 10/10/10 37/34/14 35/32/32
f 10/10/10 35/32/32 54/45/50
f 54/45/50 35/32/32 33/30/30
f 54/45/50 33/30/30 55/46/51
f 55/46/51 33/30/30 32/29/29
f 55/46/51 32/29/29 56/47/52
f 57/48/53 58/49/54 59/50/55
f 59/50/55 58/49/54 13/13/12
f 59/50/55 13/13/12 47/41/43
f 47/41/43 13/13/12 15/15/14
f 47/41/43 15/15/14 46/40/42
f 1/1/1 60/51/56 24/24/23
f 24/24/23 60/51/56 61/1/57
f 24/24/23 61/1/57 2/2/2
f 2/2/2 61/1/57 62/3/58
f 2/2/2 62/3/58 47/41/43
f 47/41/43 62/3/58 42/36/38
f 47/41/43 42/36/38 59/50/55
f 59/50/55 42/36/38 41/35/37
f 59/50/55 41/35/37 57/48/53
f 5/5/5 63/39/59 6/6/6
f 6/6/6 63/39/59 49/42/45
f 6/6/6 49/42/45 4/4/4
f 4/4/4 49/42/45 64/7/60
f 4/4/4 64/7/60 28/8/26
f 28/8/26 64/7/60 65/9/61
f 28/8/26 65/9/61 25/16/24
f 14/14/13 13/13/12 66/52/31
f 66/52/31 13/13/12 58/49/54
f 66/52/31 58/49/54 67/53/29
f 67/53/29 58/49/54 57/48/53
f 67/53/29 57/48/53 68/54/62
f 68/54/62 57/48/53 69/55/63
f 68/54/62 69/55/63 70/48/64
f 70/48/64 69/55/63 71/43/65
f 70/48/64 71/43/65 72/44/16
f 16/16/15 8/8/8 73/25/66
f 73/25/66 8/8/8 48/4/44
f 73/25/66 48/4/44 53/5/49
f 53/5/49 48/4/44 50/6/46
f 53/5/49 50/6/46 45/39/41
f 45/39/41 50/6/46 49/42/45
f 45/39/41 49/42/45 43/37/39
f 43/37/39 49/42/45 63/39/59
f 43/37/39 63/39/59 44/38/40
f 5/5/5 72/44/16 63/39/59
f 63/39/59 72/44/16 71/43/65
f 63/39/59 71/43/65 44/38/40
f 44/38/40 71/43/65 69/55/63
f 44/38/40 69/55/63 51/43/47
f 51/43/47 69/55/63 57/48/53
f 51/43/47 57/48/53 52/44/48
f 52/44/48 57/48/53 41/35/37
f 52/44/48 41/35/37 53/5/49
f 53/5/49 41/35/37 39/22/35
f 53/5/49 39/22/35 73/25/66
f 73/25/66 39/22/35 38/23/34
f 73/25/66 38/23/34 16/16/15
o editpl_m-0000-150
v -7.824153 56.199192 -1.170151
v -7.163109 53.779636 -2.317882
v -8.590855 55.559761 -2.843925
v 6.101105 55.016727 5.415850
v 5.873533 52.661438 6.504551
v 6.450591 53.165913 4.403367
v 3.868729 50.396118 8.061011
v 3.370237 52.523270 8.575846
v 2.067115 51.135159 8.981587
v 7.390682 58.499855 -1.933811
v 6.862389 55.174175 0.347454
v 7.163109 53.779636 -2.317882
v 7.255222 49.923775 -1.247862
v 8.574599 53.165913 -3.065850
v 6.447882 50.248310 0.347454
v 6.862389 55.174175 0.347454
v 7.824153 56.199192 -1.170151
v 8.590855 55.559761 -2.843925
v 5.155596 54.682552 7.018638
v 4.860294 52.465431 7.879436
v 6.862389 55.174175 0.347454
v 7.824153 56.199192 -1.170151
v 7.163109 53.779636 -2.317882
v 8.590855 55.559761 -2.843925
v 8.574599 53.165913 -3.065850
v 7.255222 49.923775 -1.247862
v 6.447882 50.248310 0.347454
v 4.380767 54.200569 7.693377
v 4.399731 55.338047 7.911567
v 6.466846 58.175320 3.896751
v 5.272092 59.283878 7.053758
v 4.589375 57.786522 7.894381
v 2.717322 59.820488 8.927039
v 2.151100 57.285259 9.352207
v -6.447882 50.248310 0.347454
v -8.574599 53.165913 -3.065850
v -7.255222 49.923775 -1.247862
v -8.590855 55.559761 -2.843925
v -7.824153 56.199192 -1.170151
v -6.862389 55.174175 0.347454
v -6.862389 55.174175 0.347454
v 0.000000 54.354801 9.843879
v 0.661043 54.152370 9.343989
v 0.926544 55.174175 9.150458
v 1.433164 54.351589 8.321792
v 2.115881 55.305916 8.531760
v -6.447882 50.248310 0.347454
v -7.255222 49.923775 -1.247862
v -8.574599 53.165913 -3.065850
v -3.180594 54.807865 8.404732
v -4.399731 55.338047 7.917545
v -4.380767 54.200569 7.700103
v -5.155596 54.682552 7.025362
v -2.102335 54.129879 8.189533
v -2.115881 55.305916 8.537738
v -2.752541 55.942135 9.455324
v 5.201653 56.340572 8.007211
v 4.218215 56.446609 8.811220
v 2.752541 55.942135 9.452336
v 4.955116 50.029812 6.730958
v 5.979191 49.930202 3.144300
v 0.000000 57.359161 9.771399
v 0.000000 59.762650 9.333527
v -2.151100 57.285259 9.355196
v -2.717322 59.820488 8.927039
v -4.589375 57.786522 7.894381
v -5.272092 59.283878 7.053758
v -6.466846 58.175320 3.896751
v 6.193218 61.047935 3.615795
v 3.717014 62.619202 6.400686
v 0.000000 62.905178 7.103820
v -3.717014 62.619202 6.400686
v -6.193218 61.047935 3.615795
v -7.390682 58.499855 -1.933811
v -6.862389 55.174175 0.347454
v -7.163109 53.779636 -2.317882
v -6.101105 55.016727 5.421828
v -5.201653 56.340572 8.012443
v -4.218215 56.446609 8.814956
v 3.180594 54.807865 8.398755
v 2.102335 54.129879 8.181314
v 1.909982 52.674290 9.087692
v 1.026785 52.336903 10.382626
v 0.000000 52.545761 10.827970
v -1.026785 52.336903 10.382626
v -1.075550 51.366508 10.733072
v -2.067115 51.135159 8.983081
v -0.661043 54.152370 9.347725
v -1.909982 52.674290 9.092922
v -3.370237 52.523270 8.583318
v -3.868729 50.396118 8.061011
v -4.860294 52.465431 7.886909
v -4.955116 50.029812 6.731706
v -5.873533 52.661438 6.513517
v -5.979191 49.930202 3.145794
v -6.450591 53.165913 4.408597
v -6.447882 50.248310 0.347454
v 6.447882 50.248310 0.347454
v 0.000000 56.475529 10.142767
v 0.000000 55.508350 9.669030
v -0.926544 55.174175 9.154195
v -1.433164 54.351589 8.329263
v 0.000000 51.585011 11.593870
v 1.075550 51.366508 10.733072
vn 0.8164 0.4161 -0.4004
vn 0.2194 -0.0862 -0.9718
vn 0.6187 0.2741 -0.7362
vn 0.9495 -0.0000 0.3139
vn 0.9059 -0.0709 0.4175
vn 0.9837 -0.0708 0.1653
vn 0.5582 -0.1415 0.8176
vn 0.3604 0.1253 0.9244
vn 0.5970 -0.0393 0.8013
vn 0.9888 -0.0000 0.1491
vn 0.9859 0.0313 0.1643
vn -0.2195 -0.0862 -0.9718
vn 0.8808 -0.0944 0.4640
vn 0.8874 -0.0707 0.4555
vn 0.9602 -0.2125 0.1811
vn 0.8830 -0.0631 0.4651
vn 0.9045 -0.0393 0.4247
vn 0.7402 -0.0630 0.6694
vn 0.6417 -0.0078 0.7669
vn 0.9859 0.0312 0.1644
vn -0.8165 0.4161 -0.4003
vn -0.2194 -0.0862 -0.9718
vn -0.6187 0.2741 -0.7362
vn -0.4957 -0.0708 -0.8656
vn -0.7389 -0.1965 -0.6445
vn 0.4409 -0.0078 0.8975
vn 0.4664 -0.3637 0.8063
vn 0.9602 0.0472 0.2754
vn 0.8074 0.1960 0.5565
vn 0.6763 0.2045 0.7077
vn 0.3765 0.3373 0.8628
vn 0.2913 0.2283 0.9290
vn -0.9602 -0.2125 0.1811
vn -0.8874 -0.0707 0.4555
vn -0.8808 -0.0944 0.4640
vn -0.9045 -0.0393 0.4247
vn -0.8830 -0.0631 0.4651
vn -0.9859 0.0313 0.1643
vn -0.9859 0.0312 0.1644
vn -0.0000 0.3139 0.9495
vn 0.7007 0.2677 0.6613
vn 0.5279 -0.3704 0.7643
vn 0.5328 0.0078 0.8462
vn 0.2285 -0.4728 0.8510
vn 0.7389 -0.1965 -0.6445
vn 0.4957 -0.0708 -0.8656
vn -0.2268 -0.1955 0.9541
vn -0.4635 -0.3613 0.8091
vn -0.4409 -0.0079 0.8975
vn -0.7402 -0.0630 0.6694
vn -0.2035 0.0313 0.9786
vn -0.2285 -0.4728 0.8510
vn -0.2998 -0.4733 0.8283
vn 0.7856 -0.0864 0.6127
vn 0.5179 -0.0000 0.8554
vn 0.2987 -0.4794 0.8252
vn 0.8440 -0.2524 0.4733
vn 0.9503 -0.2278 0.2121
vn -0.0000 0.2830 0.9591
vn -0.0000 0.3068 0.9518
vn -0.2913 0.2283 0.9290
vn -0.3765 0.3373 0.8628
vn -0.6763 0.2045 0.7077
vn -0.8074 0.1960 0.5565
vn -0.9598 0.0551 0.2754
vn 0.9235 0.2289 0.3078
vn 0.5426 0.5190 0.6605
vn -0.0000 0.6063 0.7952
vn -0.5426 0.5190 0.6605
vn -0.9235 0.2289 0.3078
vn -0.9888 -0.0000 0.1491
vn 0.2195 -0.0862 -0.9718
vn -0.9495 -0.0000 0.3139
vn -0.7855 -0.0864 0.6127
vn -0.5180 -0.0000 0.8554
vn 0.2268 -0.1955 0.9541
vn 0.2035 0.0313 0.9786
vn 0.5576 0.3298 0.7618
vn 0.6614 0.3386 0.6693
vn -0.0000 0.4877 0.8730
vn -0.6614 0.3386 0.6693
vn -0.6936 -0.2207 0.6857
vn -0.5970 -0.0393 0.8013
vn -0.7007 0.2677 0.6613
vn -0.5522 0.3313 0.7651
vn -0.3603 0.1253 0.9244
vn -0.5582 -0.1415 0.8176
vn -0.6417 -0.0078 0.7669
vn -0.8440 -0.2524 0.4733
vn -0.9059 -0.0709 0.4175
vn -0.9486 -0.2352 0.2117
vn -0.9837 -0.0708 0.1653
vn -0.9603 -0.2125 0.1810
vn 0.9603 -0.2125 0.1810
vn -0.0000 0.0472 0.9989
vn -0.0000 -0.3700 0.9290
vn -0.5279 -0.3703 0.7643
vn -0.5328 0.0078 0.8462
vn -0.0000 -0.0000 1.0000
vn 0.6936 -0.2207 0.6857
vt 0.905945 0.367096
vt 0.902527 0.403442
vt 0.911896 0.383026
vt 0.085999 0.392365
vt 0.148987 0.569977
vt 0.072815 0.534607
vt 0.318695 0.747070
vt 0.308716 0.572754
vt 0.392517 0.652496
vt 0.012024 0.217224
vt 0.011932 0.384888
vt 0.012024 0.505005
vt 0.913269 0.636536
vt 0.978333 0.515839
vt 0.862946 0.636475
vt 0.883423 0.372437
vt 0.960785 0.316772
vt 0.987457 0.385742
vt 0.185211 0.442322
vt 0.223877 0.588440
vt 0.886963 0.380188
vt 0.910645 0.416870
vt 0.892365 0.436218
vt 0.886963 0.432770
vt 0.232300 0.482574
vt 0.228851 0.398712
vt 0.080811 0.207306
vt 0.167236 0.145599
vt 0.212067 0.229370
vt 0.345520 0.132111
vt 0.384674 0.235260
vt 0.493835 0.477722
vt 0.455383 0.484009
vt 0.443481 0.409485
vt 0.402710 0.455963
vt 0.367310 0.419952
vt 0.308289 0.435028
vt 0.367920 0.466888
vt 0.368073 0.353027
vt 0.159454 0.327637
vt 0.254761 0.322937
vt 0.203094 0.757996
vt 0.056915 0.707367
vt 0.493835 0.265778
vt 0.493835 0.134735
vt 0.078735 0.011902
vt 0.303345 0.011902
vt 0.493835 0.011902
vt 0.382538 0.565796
vt 0.455597 0.600739
vt 0.493835 0.595978
vt 0.455811 0.646271
vt 0.012024 0.684235
vt 0.493835 0.336548
vt 0.493835 0.381531
vt 0.493835 0.633057
s 1
usemtl m_face89
f 74/56/67 75/57/68 76/58/69
f 77/59/70 78/60/71 79/61/72
f 80/62/73 81/63/74 82/64/75
f 83/65/76 84/66/77 85/67/78
f 86/68/79 87/69/80 88/70/81
f 89/71/77 88/70/81 90/72/82
f 90/72/82 88/70/81 87/69/80
f 90/72/82 87/69/80 91/73/83
f 92/74/84 93/75/85 78/60/71
f 94/76/86 95/56/87 96/57/88
f 96/57/88 95/56/87 97/58/89
f 97/58/89 98/77/90 96/57/88
f 96/57/88 98/77/90 99/78/91
f 96/57/88 99/78/91 100/79/81
f 81/63/74 93/75/85 101/80/92
f 101/80/92 93/75/85 92/74/84
f 101/80/92 92/74/84 102/81/93
f 103/82/94 104/83/95 105/84/96
f 105/84/96 104/83/95 106/85/97
f 105/84/96 106/85/97 107/86/98
f 108/70/99 109/69/100 110/68/101
f 111/73/102 109/69/100 112/72/103
f 112/72/103 109/69/100 108/70/99
f 112/72/103 108/70/99 113/71/104
f 75/57/68 74/56/67 114/76/105
f 115/87/106 116/88/107 117/89/108
f 117/89/108 116/88/107 118/90/109
f 117/89/108 118/90/109 119/91/110
f 120/79/99 121/78/111 75/57/68
f 75/57/68 121/78/111 122/77/112
f 75/57/68 122/77/112 76/58/69
f 123/92/113 124/81/114 125/80/115
f 125/80/115 124/81/114 126/74/116
f 125/80/115 127/93/117 123/92/113
f 123/92/113 127/93/117 128/91/118
f 123/92/113 128/91/118 124/81/114
f 124/81/114 128/91/118 129/94/119
f 78/60/71 77/59/70 92/74/84
f 92/74/84 77/59/70 130/95/120
f 92/74/84 130/95/120 102/81/93
f 102/81/93 130/95/120 131/96/121
f 102/81/93 131/96/121 132/94/122
f 81/63/74 80/62/73 93/75/85
f 93/75/85 80/62/73 133/97/123
f 93/75/85 133/97/123 78/60/71
f 78/60/71 133/97/123 134/98/124
f 78/60/71 134/98/124 79/61/72
f 135/99/125 136/100/126 137/86/127
f 137/86/127 136/100/126 138/85/128
f 137/86/127 138/85/128 139/84/129
f 139/84/129 138/85/128 140/83/130
f 139/84/129 140/83/130 141/82/131
f 84/66/77 83/65/76 103/82/94
f 103/82/94 83/65/76 142/101/132
f 103/82/94 142/101/132 104/83/95
f 104/83/95 142/101/132 143/102/133
f 104/83/95 143/102/133 106/85/97
f 136/100/126 144/103/134 138/85/128
f 138/85/128 144/103/134 145/102/135
f 138/85/128 145/102/135 140/83/130
f 140/83/130 145/102/135 146/101/136
f 140/83/130 146/101/136 141/82/131
f 141/82/131 146/101/136 147/65/137
f 141/82/131 147/65/137 148/66/104
f 148/66/104 147/65/137 149/67/138
f 148/66/104 150/59/139 141/82/131
f 141/82/131 150/59/139 151/95/140
f 141/82/131 151/95/140 139/84/129
f 139/84/129 151/95/140 152/96/141
f 139/84/129 152/96/141 137/86/127
f 153/92/142 119/91/110 154/93/143
f 154/93/143 119/91/110 118/90/109
f 154/93/143 118/90/109 155/104/144
f 155/104/144 118/90/109 116/88/107
f 155/104/144 116/88/107 156/105/145
f 156/105/145 116/88/107 115/87/106
f 156/105/145 115/87/106 157/106/146
f 157/106/146 115/87/106 158/105/147
f 157/106/146 158/105/147 159/107/148
f 159/107/148 158/105/147 160/64/149
f 115/87/106 161/88/150 158/105/147
f 158/105/147 161/88/150 162/104/151
f 158/105/147 162/104/151 160/64/149
f 160/64/149 162/104/151 163/63/152
f 160/64/149 163/63/152 164/62/153
f 164/62/153 163/63/152 165/75/154
f 164/62/153 165/75/154 166/97/155
f 166/97/155 165/75/154 167/60/156
f 166/97/155 167/60/156 168/98/157
f 168/98/157 167/60/156 169/61/158
f 168/98/157 169/61/158 170/108/159
f 134/98/124 171/108/160 79/61/72
f 79/61/72 171/108/160 84/66/77
f 79/61/72 84/66/77 77/59/70
f 77/59/70 84/66/77 103/82/94
f 77/59/70 103/82/94 130/95/120
f 130/95/120 103/82/94 105/84/96
f 130/95/120 105/84/96 131/96/121
f 131/96/121 105/84/96 107/86/98
f 131/96/121 107/86/98 132/94/122
f 132/94/122 107/86/98 172/109/161
f 132/94/122 172/109/161 173/110/162
f 173/110/162 172/109/161 129/94/119
f 173/110/162 129/94/119 174/89/163
f 174/89/163 129/94/119 128/91/118
f 174/89/163 128/91/118 175/90/164
f 175/90/164 128/91/118 127/93/117
f 150/59/139 126/74/116 151/95/140
f 151/95/140 126/74/116 124/81/114
f 151/95/140 124/81/114 152/96/141
f 152/96/141 124/81/114 129/94/119
f 152/96/141 129/94/119 137/86/127
f 137/86/127 129/94/119 172/109/161
f 137/86/127 172/109/161 135/99/125
f 135/99/125 172/109/161 107/86/98
f 135/99/125 107/86/98 136/100/126
f 136/100/126 107/86/98 106/85/97
f 136/100/126 106/85/97 144/103/134
f 144/103/134 106/85/97 143/102/133
f 159/107/148 176/111/165 157/106/146
f 157/106/146 176/111/165 177/107/166
f 157/106/146 177/107/166 156/105/145
f 156/105/145 177/107/166 82/64/75
f 156/105/145 82/64/75 155/104/144
f 155/104/144 82/64/75 81/63/74
f 155/104/144 81/63/74 154/93/143
f 154/93/143 81/63/74 101/80/92
f 154/93/143 101/80/92 153/92/142
f 153/92/142 101/80/92 102/81/93
f 153/92/142 102/81/93 119/91/110
f 119/91/110 102/81/93 132/94/122
f 119/91/110 132/94/122 117/89/108
f 117/89/108 132/94/122 173/110/162
f 117/89/108 173/110/162 115/87/106
f 115/87/106 173/110/162 174/89/163
f 115/87/106 174/89/163 161/88/150
f 161/88/150 174/89/163 175/90/164
f 161/88/150 175/90/164 162/104/151
f 162/104/151 175/90/164 127/93/117
f 162/104/151 127/93/117 163/63/152
f 163/63/152 127/93/117 125/80/115
f 163/63/152 125/80/115 165/75/154
f 165/75/154 125/80/115 126/74/116
f 165/75/154 126/74/116 167/60/156
f 167/60/156 126/74/116 150/59/139
f 167/60/156 150/59/139 169/61/158
f 169/61/158 150/59/139 148/66/104
f 169/61/158 148/66/104 170/108/159
