mtllib m_face019.mtl
o editpl_m-0000-151
v -4.678778 47.166836 5.335152
v -2.549352 45.531303 7.635096
v -3.126410 46.299267 7.248783
v 4.212797 49.040138 7.502090
v 4.835911 50.980923 7.954158
v 3.502988 49.078697 7.762123
v 0.000000 46.215721 8.673732
v 0.000000 46.813381 9.318583
v -2.045442 46.347462 7.792013
v -1.958747 44.307068 6.997716
v 0.000000 44.303856 3.787658
v 0.000000 44.059650 7.379547
v 2.549352 45.531303 7.635096
v 3.126410 46.299267 7.248783
v 2.045442 46.347462 7.792013
v -5.591777 50.829903 6.221354
v -5.897916 48.111519 2.692232
v -6.393698 52.092697 3.689771
v -6.447882 50.248310 0.347454
v -4.835911 50.980923 7.954158
v -4.212797 49.040138 7.502090
v -3.521952 49.297195 7.762123
v -2.581862 49.011223 8.356910
v -1.341051 48.696327 8.953939
v -1.341051 49.036926 9.031651
v 0.000000 48.860199 9.391811
v -3.703468 45.540943 4.700014
v -4.258853 46.848724 0.298884
v -2.581862 49.011223 8.356910
v -1.660736 49.923775 10.034420
v -1.341051 49.036926 9.031651
v 0.000000 49.175095 10.056837
v 0.000000 49.827377 10.465568
v 1.660736 49.878792 10.034420
v 1.901854 47.677734 9.213972
v 5.591777 50.331856 6.379765
v 1.958747 44.307068 6.997716
v 3.703468 45.540943 4.700014
v 4.678778 47.166836 5.335152
v 5.526756 46.646294 2.258844
v 5.897916 48.111519 2.692232
v -5.526756 46.646294 2.258844
v -6.309713 48.632061 0.538742
v -7.163109 53.779636 -2.317882
v 1.877472 45.283890 8.126019
v 2.581862 48.927677 8.348691
v 1.341051 48.908398 9.031651
v 1.341051 48.696327 8.953939
v 0.000000 48.509960 9.296166
v 6.447882 50.248310 0.347454
v 6.309713 48.632061 0.538742
v 7.163109 53.779636 -2.317882
v 4.258853 46.405300 0.298884
v 3.722433 47.282509 7.319768
v 6.393698 51.527172 3.760010
v 0.000000 48.860199 9.391811
v 1.341051 48.908398 9.031651
v 2.581862 48.927677 8.348691
v 1.341051 48.696327 8.953939
v 0.000000 48.509960 9.296166
v 0.000000 47.394974 9.611494
v -1.341051 48.696327 8.953939
v -1.901854 47.677734 9.213972
v -2.581862 49.011223 8.356910
v -3.722433 47.282509 7.319768
v -1.877472 45.283890 8.126019
v 0.000000 45.013977 8.468246
v 2.581862 48.927677 8.348691
vn -0.8262 -0.4249 0.3698
vn -0.6944 -0.2604 0.6708
vn -0.6504 -0.2821 0.7052
vn 0.6453 -0.3226 0.6925
vn 0.5412 -0.2040 0.8158
vn 0.5200 -0.2127 0.8273
vn -0.0000 -0.2426 0.9701
vn -0.0000 -0.6371 0.7708
vn -0.4872 -0.2357 0.8409
vn -0.4887 -0.8040 0.3389
vn -0.0000 -0.9876 -0.1568
vn -0.0000 -0.9495 0.3139
vn 0.6944 -0.2604 0.6708
vn 0.6504 -0.2821 0.7052
vn 0.4872 -0.2357 0.8409
vn -0.9032 -0.2435 0.3534
vn -0.9559 -0.2116 0.2037
vn -0.9835 -0.1023 0.1495
vn -0.9556 -0.0861 0.2819
vn -0.5583 -0.2123 0.8020
vn -0.6610 -0.3069 0.6847
vn -0.5091 -0.1958 0.8381
vn -0.4710 -0.1805 0.8635
vn -0.2899 0.0470 0.9559
vn -0.3463 -0.6059 0.7162
vn -0.0158 -0.5271 0.8497
vn -0.5363 -0.8439 -0.0158
vn -0.4496 -0.7808 -0.4338
vn -0.5092 -0.1958 0.8381
vn -0.4733 -0.2524 0.8440
vn -0.3463 -0.6060 0.7161
vn -0.0157 -0.7636 0.6455
vn -0.0000 -0.0550 0.9985
vn 0.4640 -0.2517 0.8493
vn 0.4487 -0.0866 0.8895
vn 0.8853 -0.2507 0.3917
vn 0.4887 -0.8040 0.3389
vn 0.5564 -0.8307 0.0157
vn 0.8209 -0.4341 0.3710
vn 0.8078 -0.5882 0.0392
vn 0.9555 -0.2272 0.1880
vn -0.7846 -0.6199 -0.0000
vn -0.9254 -0.3451 -0.1569
vn -0.8897 -0.3228 -0.3229
vn 0.4315 -0.2354 0.8709
vn 0.4805 -0.2127 0.8508
vn 0.3153 -0.6304 0.7093
vn 0.2974 0.0156 0.9546
vn -0.0000 -0.0000 1.0000
vn 0.9576 -0.0863 0.2747
vn 0.9379 -0.3232 -0.1261
vn 0.9113 -0.3064 -0.2750
vn 0.5349 -0.7708 -0.3461
vn 0.5812 -0.3063 0.7539
vn 0.9835 -0.1023 0.1495
vn -0.0157 -0.5271 0.8497
vn 0.3152 -0.6305 0.7093
vn 0.5200 -0.2128 0.8273
vn 0.2973 0.0157 0.9546
vn -0.0000 0.0471 0.9989
vn -0.2899 0.0471 0.9559
vn -0.4393 -0.0863 0.8942
vn -0.4710 -0.1806 0.8635
vn -0.5725 -0.3058 0.7607
vn -0.4315 -0.2354 0.8709
vn -0.0000 -0.5834 0.8122
vn 0.4806 -0.2127 0.8508
vt 0.812531 0.863037
vt 0.671539 0.903107
vt 0.707977 0.862762
vt 0.743591 0.709198
vt 0.754639 0.570587
vt 0.664368 0.692169
vt 0.500000 0.845551
vt 0.500000 0.829193
vt 0.617981 0.835968
vt 0.632660 0.949615
vt 0.500000 0.987457
vt 0.500000 0.958954
vt 0.831787 0.589233
vt 0.931244 0.804840
vt 0.934601 0.543213
vt 0.987579 0.609406
vt 0.295502 0.708984
vt 0.231262 0.727661
vt 0.231262 0.711304
vt 0.176025 0.711304
vt 0.750366 0.946228
vt 0.987579 0.987457
vt 0.604523 0.693604
vt 0.579865 0.641205
vt 0.560211 0.691254
vt 0.500000 0.670929
vt 0.500000 0.646179
vt 0.598022 0.741943
vt 0.927795 0.940948
vt 0.980042 0.769043
vt 0.987579 0.430176
vt 0.599884 0.918793
vt 0.176025 0.731140
vt 0.744415 0.822418
vt 0.500000 0.690948
vt 0.560211 0.692413
vt 0.500000 0.692108
vt 0.500000 0.748108
vt 0.604523 0.694702
vt 0.500000 0.927429
s 1
usemtl m_face090
f 1/1/1 2/2/2 3/3/3
f 4/4/4 5/5/5 6/6/6
f 7/7/7 8/8/8 9/9/9
f 10/10/10 11/11/11 12/12/12
f 13/2/13 14/3/14 15/9/15
f 2/2/2 1/1/1 10/10/10
f 1/1/1 16/13/16 17/14/17
f 17/14/17 16/13/16 18/15/18
f 17/14/17 18/15/18 19/16/19
f 20/5/20 21/4/21 22/6/22
f 23/17/23 24/18/24 25/19/25
f 25/19/25 24/18/24 26/20/26
f 27/21/27 28/22/28 11/11/11
f 22/6/29 29/23/23 30/24/30
f 29/23/23 31/25/31 30/24/30
f 30/24/30 31/25/31 32/26/32
f 30/24/30 32/26/32 33/27/33
f 33/27/33 32/26/32 34/24/34
f 35/28/35 8/8/8 15/9/15
f 5/5/5 4/4/4 36/13/36
f 37/10/37 38/21/38 39/1/39
f 39/1/39 38/21/38 40/29/40
f 39/1/39 40/29/40 41/14/41
f 27/21/27 42/29/42 28/22/28
f 28/22/28 42/29/42 43/30/43
f 28/22/28 43/30/43 44/31/44
f 8/8/8 7/7/7 15/9/15
f 15/9/15 7/7/7 45/32/45
f 15/9/15 45/32/45 13/2/13
f 46/17/46 47/19/47 48/18/48
f 48/18/48 47/19/47 26/20/26
f 48/18/48 26/20/26 49/33/49
f 49/33/49 26/20/26 24/18/24
f 50/16/50 51/30/51 52/31/52
f 52/31/52 51/30/51 53/22/53
f 6/6/6 54/34/54 4/4/4
f 4/4/4 54/34/54 39/1/39
f 4/4/4 39/1/39 36/13/36
f 36/13/36 39/1/39 41/14/41
f 36/13/36 41/14/41 55/15/55
f 31/25/31 56/35/56 32/26/32
f 32/26/32 56/35/56 57/25/57
f 32/26/32 57/25/57 34/24/34
f 34/24/34 57/25/57 58/23/46
f 34/24/34 58/23/46 6/6/58
f 59/36/59 60/37/49 61/38/60
f 61/38/60 60/37/49 62/36/61
f 61/38/60 62/36/61 63/28/62
f 63/28/62 62/36/61 64/39/63
f 63/28/62 64/39/63 22/6/22
f 21/4/21 65/34/64 22/6/22
f 22/6/22 65/34/64 9/9/9
f 22/6/22 9/9/9 63/28/62
f 63/28/62 9/9/9 8/8/8
f 63/28/62 8/8/8 61/38/60
f 61/38/60 8/8/8 35/28/35
f 61/38/60 35/28/35 59/36/59
f 11/11/11 10/10/10 27/21/27
f 27/21/27 10/10/10 1/1/1
f 27/21/27 1/1/1 42/29/42
f 42/29/42 1/1/1 17/14/17
f 42/29/42 17/14/17 43/30/43
f 43/30/43 17/14/17 19/16/19
f 43/30/43 19/16/19 44/31/44
f 9/9/9 66/32/65 7/7/7
f 7/7/7 66/32/65 67/40/66
f 7/7/7 67/40/66 45/32/45
f 45/32/45 67/40/66 37/10/37
f 45/32/45 37/10/37 13/2/13
f 13/2/13 37/10/37 39/1/39
f 13/2/13 39/1/39 14/3/14
f 14/3/14 39/1/39 54/34/54
f 14/3/14 54/34/54 15/9/15
f 15/9/15 54/34/54 6/6/6
f 15/9/15 6/6/6 35/28/35
f 35/28/35 6/6/6 68/39/67
f 35/28/35 68/39/67 59/36/59
f 20/5/20 16/13/16 21/4/21
f 21/4/21 16/13/16 1/1/1
f 21/4/21 1/1/1 65/34/64
f 65/34/64 1/1/1 3/3/3
f 65/34/64 3/3/3 9/9/9
f 9/9/9 3/3/3 2/2/2
f 9/9/9 2/2/2 66/32/65
f 66/32/65 2/2/2 10/10/10
f 66/32/65 10/10/10 67/40/66
f 67/40/66 10/10/10 12/12/12
f 67/40/66 12/12/12 37/10/37
f 37/10/37 12/12/12 11/11/11
f 37/10/37 11/11/11 38/21/38
f 38/21/38 11/11/11 53/22/53
f 38/21/38 53/22/53 40/29/40
f 40/29/40 53/22/53 51/30/51
f 40/29/40 51/30/51 41/14/41
f 41/14/41 51/30/51 50/16/50
f 41/14/41 50/16/50 55/15/55
o editpl_m-0000-152
v 2.717322 59.820488 8.927039
v 5.120377 59.582710 7.053758
v 3.717014 62.619202 6.400686
v 4.350966 54.409428 7.798737
v 3.470478 52.626091 8.600504
v 5.161015 52.500774 7.766606
v -5.161015 52.500774 7.766606
v -3.470478 52.626091 8.600504
v -4.350966 54.409428 7.798737
v -6.447882 50.248310 0.347454
v -7.255222 49.923775 -1.247862
v -7.163109 53.779636 -2.317882
v -7.824153 56.199192 -1.170151
v -6.862389 55.174175 0.347454
v -0.831723 53.175552 9.802782
v -0.834432 55.023151 9.050331
v -1.441291 54.775734 8.373349
v -2.077952 55.460152 8.534749
v -8.574599 53.165913 -3.065850
v -8.590855 55.559761 -2.843925
v -3.188721 55.003872 8.611712
v -2.072533 54.403004 8.436116
v -1.777231 52.896004 9.054814
v -2.356999 51.064468 8.873987
v 0.000000 50.598553 10.097934
v -1.145989 51.748882 10.745774
v 0.000000 51.067680 10.718127
v -8.590855 55.559761 -2.843925
v -8.574599 53.165913 -3.065850
v -7.824153 56.199192 -1.170151
v -6.862389 55.174175 0.347454
v -6.447882 50.248310 0.347454
v -7.255222 49.923775 -1.247862
v 6.862389 55.174175 0.347454
v 6.393698 51.527172 3.760010
v 6.447882 50.248310 0.347454
v 0.000000 62.905178 7.103820
v 0.000000 51.983448 11.212788
v 1.145989 51.748882 10.745774
v 0.000000 53.307293 10.153228
v 7.163109 53.779636 -2.317882
v 7.255222 49.923775 -1.247862
v 6.447882 50.248310 0.347454
v 7.390682 58.499855 -1.933811
v 7.163109 53.779636 -2.317882
v 2.356999 51.064468 8.873987
v 3.502988 49.078697 7.762123
v 4.835911 50.980923 7.954158
v 6.862389 55.174175 0.347454
v 7.824153 56.199192 -1.170151
v 8.590855 55.559761 -2.843925
v 8.574599 53.165913 -3.065850
v 5.263964 54.740391 6.990244
v 5.832895 52.240505 6.559098
v 6.206764 54.746815 5.007121
v 2.077952 55.460152 8.534749
v 1.441291 54.775734 8.373349
v 2.072533 54.403004 8.436116
v 1.777231 52.896004 9.054814
v 7.824153 56.199192 -1.170151
v 8.574599 53.165913 -3.065850
v 8.590855 55.559761 -2.843925
v 7.255222 49.923775 -1.247862
v 6.447882 50.248310 0.347454
v 6.862389 55.174175 0.347454
v -1.760976 56.134926 9.650350
v -4.218215 56.665108 9.132525
v -4.359093 55.479431 7.941456
v -5.201653 56.359852 8.115559
v -5.263964 54.740391 6.990244
v -6.206764 54.746815 5.007121
v -5.832895 52.471855 6.559098
v -4.835911 50.980923 7.954158
v -3.521952 49.297195 7.762123
v -1.660736 49.923775 10.034420
v 0.000000 49.827377 10.465568
v 1.660736 49.878792 10.034420
v 1.760976 56.134926 9.650350
v 2.151100 57.529465 9.206499
v 0.000000 57.041054 9.520332
v 0.000000 59.762650 9.333527
v -2.151100 57.529465 9.206499
v -2.717322 59.820488 8.927039
v -4.394313 57.879704 8.454795
v -5.120377 59.582710 7.053758
v -6.466846 58.175320 3.896751
v 3.188721 55.003872 8.611712
v 4.359093 55.479431 7.941456
v 5.201653 56.359852 8.115559
v 6.466846 58.175320 3.896751
v -7.163109 53.779636 -2.317882
v -6.862389 55.174175 0.347454
v -7.390682 58.499855 -1.933811
v -6.193218 61.047935 3.615795
v -3.717014 62.619202 6.400686
v 4.394313 57.879704 8.454795
v 4.218215 56.665108 9.132525
v 0.834432 55.023151 9.050331
v 0.831723 53.175552 9.802782
v 6.193218 61.047935 3.615795
v -6.393698 52.092697 3.689771
v -5.591777 50.829903 6.221354
v 0.000000 54.926758 9.409744
v 0.000000 56.009609 9.773641
v -6.447882 50.248310 0.347454
v 5.591777 50.331856 6.379765
vn 0.3393 0.3629 0.8679
vn 0.7955 0.2678 0.5435
vn 0.5426 0.5190 0.6605
vn 0.4875 -0.0236 0.8728
vn 0.3444 0.1174 0.9315
vn 0.7144 0.0393 0.6987
vn -0.7223 0.0314 0.6909
vn -0.3444 0.1174 0.9315
vn -0.4875 -0.0236 0.8728
vn 0.8956 -0.1335 -0.4243
vn 0.7389 -0.1965 -0.6445
vn 0.6610 0.1259 -0.7397
vn 0.8165 0.4161 -0.4003
vn -0.9863 0.0156 0.1644
vn -0.5813 0.4163 0.6991
vn -0.5484 -0.1880 0.8148
vn -0.4306 0.0626 0.9004
vn -0.2285 -0.3940 0.8903
vn 0.4957 -0.0708 -0.8656
vn 0.6187 0.2742 -0.7362
vn -0.2365 -0.0630 0.9696
vn -0.1095 0.0235 0.9937
vn -0.4953 0.3145 0.8098
vn -0.5326 -0.0313 0.8458
vn -0.0000 -0.1567 0.9876
vn -0.6063 -0.0000 0.7952
vn -0.0000 -0.6456 0.7637
vn -0.9045 -0.0393 0.4247
vn -0.8874 -0.0707 0.4555
vn -0.8830 -0.0631 0.4651
vn -0.9863 0.0157 0.1644
vn -0.9555 -0.0862 0.2820
vn -0.8808 -0.0944 0.4640
vn 0.9875 0.0156 0.1567
vn 0.9835 -0.1023 0.1495
vn 0.9577 -0.0863 0.2747
vn -0.0000 0.6063 0.7952
vn -0.0000 0.0629 0.9980
vn 0.6063 -0.0000 0.7953
vn -0.0000 0.5122 0.8589
vn -0.6610 0.1259 -0.7397
vn -0.7389 -0.1965 -0.6445
vn -0.8956 -0.1335 -0.4243
vn 0.9888 -0.0000 0.1491
vn 0.5326 -0.0313 0.8458
vn 0.5200 -0.2127 0.8273
vn 0.5412 -0.2039 0.8158
vn 0.9875 0.0157 0.1568
vn -0.8164 0.4161 -0.4004
vn -0.6187 0.2741 -0.7362
vn -0.4957 -0.0708 -0.8656
vn 0.7693 -0.0628 0.6358
vn 0.9290 -0.0079 0.3700
vn 0.9636 -0.0235 0.2664
vn 0.2285 -0.3940 0.8903
vn 0.4306 0.0626 0.9004
vn 0.1095 0.0235 0.9937
vn 0.4953 0.3145 0.8098
vn 0.8830 -0.0631 0.4651
vn 0.8874 -0.0707 0.4555
vn 0.9045 -0.0393 0.4247
vn 0.8808 -0.0944 0.4640
vn 0.9576 -0.0863 0.2748
vn -0.2442 -0.2758 0.9297
vn -0.4172 -0.2204 0.8817
vn -0.4652 -0.2681 0.8436
vn -0.7956 -0.1339 0.5908
vn -0.7693 -0.0628 0.6358
vn -0.9636 -0.0235 0.2663
vn -0.9323 -0.0313 0.3604
vn -0.5583 -0.2123 0.8020
vn -0.5091 -0.1958 0.8381
vn -0.4732 -0.2525 0.8440
vn -0.0000 -0.0550 0.9985
vn 0.4640 -0.2517 0.8493
vn 0.2442 -0.2758 0.9297
vn 0.1726 0.1962 0.9652
vn -0.0000 0.1961 0.9806
vn -0.0000 0.2518 0.9678
vn -0.1726 0.1962 0.9652
vn -0.3393 0.3629 0.8679
vn -0.6535 0.2441 0.7165
vn -0.7955 0.2678 0.5435
vn -0.9593 0.0629 0.2752
vn 0.2365 -0.0630 0.9696
vn 0.4652 -0.2681 0.8436
vn 0.7956 -0.1339 0.5908
vn 0.9593 0.0629 0.2752
vn 0.6610 0.1260 -0.7397
vn -0.9888 -0.0000 0.1491
vn -0.9189 0.2278 0.3220
vn -0.5426 0.5190 0.6605
vn 0.6535 0.2441 0.7165
vn 0.4172 -0.2204 0.8817
vn 0.5484 -0.1880 0.8148
vn 0.5813 0.4163 0.6991
vn 0.9189 0.2278 0.3220
vn -0.9835 -0.1023 0.1495
vn -0.9032 -0.2435 0.3534
vn -0.0000 -0.2277 0.9737
vn -0.0000 -0.0394 0.9992
vn -0.9556 -0.0862 0.2819
vn 0.8853 -0.2507 0.3917
vt 0.675720 0.059235
vt 0.833496 0.086487
vt 0.697388 0.011353
vt 0.754456 0.367432
vt 0.688324 0.484558
vt 0.779633 0.486084
vt 0.118347 0.385864
vt 0.112946 0.389313
vt 0.102783 0.356537
vt 0.099365 0.320160
vt 0.118347 0.333282
vt 0.545349 0.441376
vt 0.553925 0.308716
vt 0.588593 0.354065
vt 0.640869 0.285339
vt 0.094666 0.369965
vt 0.093414 0.336090
vt 0.696503 0.328674
vt 0.638916 0.371582
vt 0.608551 0.469940
vt 0.623199 0.565857
vt 0.500000 0.603363
vt 0.553070 0.527710
vt 0.500000 0.559540
vt 0.014282 0.338806
vt 0.020081 0.498444
vt 0.032349 0.263763
vt 0.121887 0.325531
vt 0.121887 0.573334
vt 0.096344 0.589630
vt 0.987579 0.310059
vt 0.934601 0.543213
vt 0.987518 0.609406
vt 0.500000 0.011353
vt 0.500000 0.511322
vt 0.500000 0.435089
vt 0.987518 0.142395
vt 0.987518 0.430176
vt 0.664368 0.692169
vt 0.754639 0.570587
vt 0.809967 0.331909
vt 0.859680 0.499115
vt 0.901794 0.351593
vt 0.604919 0.215607
vt 0.773529 0.185944
vt 0.759460 0.290649
vt 0.831573 0.252197
vt 0.579865 0.641205
vt 0.500000 0.646179
vt 0.614807 0.139435
vt 0.500000 0.174103
vt 0.500000 0.061859
vt 0.784058 0.122223
vt 0.919922 0.128052
vt 0.922028 0.011353
vt 0.831787 0.589233
vt 0.500000 0.300598
vt 0.500000 0.238831
s 1
usemtl m_face090
f 69/41/68 70/42/69 71/43/70
f 72/44/71 73/45/72 74/46/73
f 75/46/74 76/45/75 77/44/76
f 78/47/77 79/48/78 80/49/79
f 80/49/79 81/50/80 82/51/81
f 83/52/82 84/53/83 85/54/84
f 85/54/84 84/53/83 86/55/85
f 79/48/78 87/56/86 80/49/79
f 80/49/79 87/56/86 88/57/87
f 80/49/79 88/57/87 81/50/80
f 89/58/88 77/44/76 90/59/89
f 90/59/89 77/44/76 76/45/75
f 90/59/89 76/45/75 91/60/90
f 92/61/91 93/62/92 94/63/93
f 94/63/93 93/62/92 95/64/94
f 96/65/95 97/66/96 98/67/97
f 99/68/98 98/67/97 100/69/99
f 100/69/99 98/67/97 97/66/96
f 100/69/99 97/66/96 101/70/100
f 102/71/101 103/72/102 104/73/103
f 69/41/68 71/43/70 105/74/104
f 106/75/105 107/63/106 108/76/107
f 109/49/108 110/48/109 111/47/110
f 112/77/111 102/71/101 113/78/108
f 114/61/112 115/79/113 116/80/114
f 117/51/115 118/50/116 109/49/108
f 118/50/116 119/57/117 109/49/108
f 109/49/108 119/57/117 120/56/118
f 109/49/108 120/56/118 110/48/109
f 72/44/71 74/46/73 121/81/119
f 121/81/119 74/46/73 122/82/120
f 121/81/119 122/82/120 123/83/121
f 124/55/122 125/54/123 126/59/124
f 126/59/124 125/54/123 127/60/125
f 126/59/124 127/60/125 73/45/72
f 128/67/126 129/66/127 130/65/128
f 131/70/129 129/66/127 132/69/130
f 132/69/130 129/66/127 128/67/126
f 132/69/130 128/67/126 133/68/115
f 84/53/83 134/84/131 86/55/85
f 86/55/85 134/84/131 135/85/132
f 86/55/85 135/85/132 136/86/133
f 136/86/133 135/85/132 137/87/134
f 136/86/133 137/87/134 138/81/135
f 138/81/135 137/87/134 139/83/136
f 138/81/135 139/83/136 140/82/137
f 141/80/138 142/79/139 92/61/91
f 92/61/91 142/79/139 143/88/140
f 92/61/91 143/88/140 93/62/92
f 93/62/92 143/88/140 144/89/141
f 93/62/92 144/89/141 145/88/142
f 140/82/137 75/46/74 138/81/135
f 138/81/135 75/46/74 77/44/76
f 138/81/135 77/44/76 136/86/133
f 136/86/133 77/44/76 89/58/88
f 136/86/133 89/58/88 86/55/85
f 86/55/85 89/58/88 90/59/89
f 86/55/85 90/59/89 85/54/84
f 85/54/84 90/59/89 91/60/90
f 85/54/84 91/60/90 83/52/82
f 146/84/143 147/90/144 148/91/145
f 148/91/145 147/90/144 149/92/146
f 148/91/145 149/92/146 150/90/147
f 150/90/147 149/92/146 151/41/148
f 150/90/147 151/41/148 152/93/149
f 152/93/149 151/41/148 153/42/150
f 152/93/149 153/42/150 154/94/151
f 108/76/107 94/63/93 106/75/105
f 106/75/105 94/63/93 95/64/94
f 106/75/105 95/64/94 107/63/106
f 107/63/106 95/64/94 93/62/92
f 107/63/106 93/62/92 114/61/112
f 114/61/112 93/62/92 145/88/142
f 114/61/112 145/88/142 115/79/113
f 155/58/152 72/44/71 156/86/153
f 156/86/153 72/44/71 121/81/119
f 156/86/153 121/81/119 157/87/154
f 157/87/154 121/81/119 123/83/121
f 157/87/154 123/83/121 158/94/155
f 159/78/156 160/71/98 161/77/157
f 161/77/157 160/71/98 154/94/151
f 161/77/157 154/94/151 162/95/158
f 162/95/158 154/94/151 153/42/150
f 162/95/158 153/42/150 163/43/159
f 163/43/159 153/42/150 151/41/148
f 163/43/159 151/41/148 105/74/104
f 105/74/104 151/41/148 149/92/146
f 105/74/104 149/92/146 69/41/68
f 69/41/68 149/92/146 147/90/144
f 70/42/69 69/41/68 164/93/160
f 164/93/160 69/41/68 147/90/144
f 164/93/160 147/90/144 165/85/161
f 165/85/161 147/90/144 146/84/143
f 165/85/161 146/84/143 124/55/122
f 124/55/122 146/84/143 166/53/162
f 124/55/122 166/53/162 125/54/123
f 125/54/123 166/53/162 167/52/163
f 125/54/123 167/52/163 127/60/125
f 73/45/72 72/44/71 126/59/124
f 126/59/124 72/44/71 155/58/152
f 126/59/124 155/58/152 124/55/122
f 124/55/122 155/58/152 156/86/153
f 124/55/122 156/86/153 165/85/161
f 165/85/161 156/86/153 157/87/154
f 165/85/161 157/87/154 164/93/160
f 164/93/160 157/87/154 158/94/155
f 164/93/160 158/94/155 70/42/69
f 70/42/69 158/94/155 168/95/164
f 70/42/69 168/95/164 71/43/70
f 139/83/136 169/72/165 140/82/137
f 140/82/137 169/72/165 170/96/166
f 140/82/137 170/96/166 75/46/74
f 75/46/74 170/96/166 141/80/138
f 75/46/74 141/80/138 76/45/75
f 76/45/75 141/80/138 92/61/91
f 76/45/75 92/61/91 91/60/90
f 91/60/90 92/61/91 94/63/93
f 91/60/90 94/63/93 83/52/82
f 83/52/82 94/63/93 108/76/107
f 83/52/82 108/76/107 84/53/83
f 84/53/83 108/76/107 171/97/167
f 84/53/83 171/97/167 134/84/131
f 134/84/131 171/97/167 172/98/168
f 173/73/169 169/72/165 160/71/98
f 160/71/98 169/72/165 139/83/136
f 160/71/98 139/83/136 154/94/151
f 154/94/151 139/83/136 137/87/134
f 154/94/151 137/87/134 152/93/149
f 152/93/149 137/87/134 135/85/132
f 152/93/149 135/85/132 150/90/147
f 150/90/147 135/85/132 134/84/131
f 150/90/147 134/84/131 148/91/145
f 148/91/145 134/84/131 172/98/168
f 148/91/145 172/98/168 146/84/143
f 146/84/143 172/98/168 171/97/167
f 146/84/143 171/97/167 166/53/162
f 166/53/162 171/97/167 108/76/107
f 166/53/162 108/76/107 167/52/163
f 167/52/163 108/76/107 107/63/106
f 167/52/163 107/63/106 127/60/125
f 127/60/125 107/63/106 114/61/112
f 127/60/125 114/61/112 73/45/72
f 73/45/72 114/61/112 116/80/114
f 73/45/72 116/80/114 74/46/73
f 74/46/73 116/80/114 174/96/170
f 74/46/73 174/96/170 122/82/120
f 122/82/120 174/96/170 103/72/102
f 122/82/120 103/72/102 123/83/121
f 123/83/121 103/72/102 102/71/101
f 123/83/121 102/71/101 158/94/155
f 158/94/155 102/71/101 112/77/111
f 158/94/155 112/77/111 168/95/164
