mtllib m_face012.mtl
o editpl_m-0000-137
v 5.559266 48.313953 4.162762
v 5.857278 47.497795 1.732053
v 6.198636 48.278606 0.915341
v -2.841945 45.939384 7.383283
v -2.860909 44.772987 6.341658
v -1.993967 44.458092 7.884668
v 5.971064 50.029812 3.879565
v 6.493938 50.248310 0.347454
v 0.000000 44.265297 8.117800
v -1.966875 45.367432 8.584813
v -3.887694 47.504223 7.321263
v -3.573427 50.582485 8.220169
v -4.741090 50.145489 6.864711
v 7.163109 53.779636 -2.317882
v 0.000000 44.303856 3.787658
v 1.993967 44.458092 7.884668
v 2.362417 46.961189 8.191028
v 0.000000 47.157192 9.033145
v 0.000000 46.026142 9.330539
v 3.887694 47.504223 7.321263
v 2.804016 48.416775 7.956400
v 4.280527 46.405300 0.298884
v 3.708887 45.653408 4.596898
v 2.860909 44.772987 6.341658
v -2.804016 48.416775 7.956400
v -2.023768 51.491825 9.077978
v -1.048458 49.152603 9.361176
v 0.000000 49.268280 9.858076
v -1.538822 49.624947 9.930557
v -4.280527 46.405300 0.298884
v -6.198636 48.278606 0.915341
v -7.163109 53.779636 -2.317882
v -6.493938 50.248310 0.347454
v -3.708887 45.653408 4.596898
v -5.857278 47.497795 1.732053
v -2.362417 46.961189 8.191028
v 4.486425 46.816593 5.019824
v 2.841945 45.939384 7.383283
v 1.966875 45.367432 8.584813
v 0.000000 45.200344 9.152700
v 0.000000 48.333233 9.985105
v 0.000000 49.110832 9.547234
v -1.292286 48.320377 9.713117
v -4.486425 46.816593 5.019824
v -5.559266 48.313953 4.162762
v -5.971064 50.029812 3.879565
v 4.741090 50.145489 6.864711
v 3.573427 50.582485 8.220169
v 2.023768 51.491825 9.077978
v 1.538822 49.624947 9.930557
v 0.000000 50.627468 9.952227
v 0.000000 49.689209 10.251863
v 0.000000 47.745213 9.509124
v 1.292286 48.320377 9.713117
v 1.048458 49.152603 9.361176
vn 0.9135 -0.2756 0.2993
vn 0.8235 -0.5647 0.0549
vn 0.9484 -0.3135 -0.0471
vn -0.7969 -0.3314 0.5050
vn -0.6928 -0.7086 0.1338
vn -0.5101 -0.7770 0.3689
vn 0.9499 -0.1962 0.2434
vn 0.9602 -0.1495 0.2361
vn -0.0000 -0.8498 0.5271
vn -0.5019 -0.3293 0.7998
vn -0.7028 -0.2764 0.6554
vn -0.4803 -0.1811 0.8582
vn -0.8109 -0.2362 0.5354
vn -0.2202 -0.0235 -0.9752
vn -0.0000 -0.9931 -0.1173
vn 0.5101 -0.7770 0.3689
vn 0.5125 -0.1971 0.8358
vn -0.0000 -0.2203 0.9754
vn -0.0000 0.0550 0.9985
vn 0.7028 -0.2764 0.6554
vn 0.5718 -0.1488 0.8068
vn 0.6125 -0.7382 -0.2827
vn 0.6111 -0.7912 -0.0235
vn 0.6928 -0.7086 0.1338
vn -0.5718 -0.1488 0.8068
vn -0.6393 -0.0710 0.7657
vn -0.3376 -0.4397 0.8323
vn -0.0000 -0.8148 0.5798
vn -0.3536 -0.3379 0.8722
vn -0.6125 -0.7382 -0.2827
vn -0.9484 -0.3135 -0.0471
vn 0.2202 -0.0237 -0.9752
vn -0.9602 -0.1495 0.2361
vn -0.6111 -0.7912 -0.0235
vn -0.8235 -0.5647 0.0549
vn -0.5125 -0.1971 0.8358
vn 0.8227 -0.4936 0.2820
vn 0.7969 -0.3314 0.5050
vn 0.5019 -0.3293 0.7998
vn -0.0000 -0.5029 0.8643
vn -0.0000 -0.0940 0.9956
vn -0.0000 -0.3067 0.9518
vn -0.4628 -0.1176 0.8786
vn -0.8227 -0.4936 0.2820
vn -0.9135 -0.2756 0.2992
vn -0.9499 -0.1962 0.2434
vn 0.8109 -0.2362 0.5354
vn 0.4803 -0.1811 0.8582
vn 0.6393 -0.0710 0.7657
vn 0.3536 -0.3379 0.8722
vn -0.0000 -0.4315 0.9021
vn -0.0000 -0.6456 0.7637
vn 0.4628 -0.1176 0.8786
vn 0.3376 -0.4397 0.8323
vt 0.130920 0.855835
vt 0.073273 0.970734
vt 0.026398 0.893311
vt 0.320740 0.922394
vt 0.303406 0.984436
vt 0.398895 0.976044
vt 0.089172 0.690979
vt 0.012634 0.683441
vt 0.495117 0.960480
vt 0.393951 0.935791
vt 0.302673 0.830353
vt 0.306671 0.640625
vt 0.219971 0.680237
vt 0.012634 0.531891
vt 0.495117 0.986633
vt 0.370178 0.859863
vt 0.495117 0.873077
vt 0.495117 0.913635
vt 0.352753 0.776764
vt 0.012634 0.986633
vt 0.212494 0.981720
vt 0.393127 0.615692
vt 0.419495 0.747070
vt 0.495117 0.733307
vt 0.415710 0.711945
vt 0.204071 0.941559
vt 0.495117 0.948395
vt 0.495117 0.800598
vt 0.495117 0.750732
vt 0.416748 0.793488
vt 0.495117 0.673584
vt 0.495117 0.715118
vt 0.495117 0.832123
s 1
usemtl m_face083
f 1/1/1 2/2/2 3/3/3
f 4/4/4 5/5/5 6/6/6
f 7/7/7 3/3/3 8/8/8
f 6/6/6 9/9/9 10/10/10
f 11/11/11 12/12/12 13/13/13
f 3/3/3 14/14/14 8/8/8
f 9/9/9 15/15/15 16/6/16
f 17/16/17 18/17/18 19/18/19
f 17/16/17 20/11/20 21/19/21
f 22/20/22 23/21/23 15/15/15
f 15/15/15 23/21/23 24/5/24
f 15/15/15 24/5/24 16/6/16
f 12/12/12 25/19/25 26/22/26
f 27/23/27 28/24/28 29/25/29
f 30/20/30 31/3/31 32/14/32
f 32/14/32 31/3/31 33/8/33
f 15/15/15 34/21/34 30/20/30
f 30/20/30 34/21/34 35/2/35
f 30/20/30 35/2/35 31/3/31
f 6/6/6 10/10/10 4/4/4
f 4/4/4 10/10/10 36/16/36
f 4/4/4 36/16/36 11/11/11
f 2/2/2 1/1/1 37/26/37
f 37/26/37 1/1/1 20/11/20
f 37/26/37 20/11/20 38/4/38
f 38/4/38 20/11/20 17/16/17
f 38/4/38 17/16/17 39/10/39
f 39/10/39 17/16/17 19/18/19
f 39/10/39 19/18/19 40/27/40
f 41/28/41 42/29/42 43/30/43
f 43/30/43 42/29/42 27/23/27
f 43/30/43 27/23/27 25/19/25
f 25/19/25 27/23/27 29/25/29
f 25/19/25 29/25/29 26/22/26
f 5/5/5 4/4/4 44/26/44
f 44/26/44 4/4/4 11/11/11
f 44/26/44 11/11/11 45/1/45
f 45/1/45 11/11/11 13/13/13
f 45/1/45 13/13/13 46/7/46
f 3/3/3 7/7/7 1/1/1
f 1/1/1 7/7/7 47/13/47
f 1/1/1 47/13/47 20/11/20
f 20/11/20 47/13/47 48/12/48
f 20/11/20 48/12/48 21/19/21
f 21/19/21 48/12/48 49/22/49
f 21/19/21 49/22/49 50/25/50
f 50/25/50 49/22/49 51/31/51
f 50/25/50 51/31/51 52/32/18
f 9/9/9 6/6/6 15/15/15
f 15/15/15 6/6/6 5/5/5
f 15/15/15 5/5/5 34/21/34
f 34/21/34 5/5/5 44/26/44
f 34/21/34 44/26/44 35/2/35
f 35/2/35 44/26/44 45/1/45
f 35/2/35 45/1/45 31/3/31
f 31/3/31 45/1/45 46/7/46
f 31/3/31 46/7/46 33/8/33
f 12/12/12 11/11/11 25/19/25
f 25/19/25 11/11/11 36/16/36
f 25/19/25 36/16/36 43/30/43
f 43/30/43 36/16/36 53/33/52
f 43/30/43 53/33/52 41/28/41
f 41/28/41 53/33/52 54/30/53
f 41/28/41 54/30/53 42/29/42
f 42/29/42 54/30/53 55/23/54
f 42/29/42 55/23/54 28/24/28
f 14/14/14 3/3/3 22/20/22
f 22/20/22 3/3/3 2/2/2
f 22/20/22 2/2/2 23/21/23
f 23/21/23 2/2/2 37/26/37
f 23/21/23 37/26/37 24/5/24
f 24/5/24 37/26/37 38/4/38
f 24/5/24 38/4/38 16/6/16
f 16/6/16 38/4/38 39/10/39
f 16/6/16 39/10/39 9/9/9
f 9/9/9 39/10/39 40/27/40
f 9/9/9 40/27/40 10/10/10
f 10/10/10 40/27/40 19/18/19
f 10/10/10 19/18/19 36/16/36
f 36/16/36 19/18/19 18/17/18
f 36/16/36 18/17/18 53/33/52
f 53/33/52 18/17/18 17/16/17
f 53/33/52 17/16/17 54/30/53
f 54/30/53 17/16/17 21/19/21
f 54/30/53 21/19/21 55/23/54
f 55/23/54 21/19/21 50/25/50
f 55/23/54 50/25/50 28/24/28
f 28/24/28 50/25/50 52/32/18
f 28/24/28 52/32/18 29/25/29
f 29/25/29 52/32/18 51/31/51
f 29/25/29 51/31/51 26/22/26
o editpl_m-0000-138
v 5.971064 50.029812 3.879565
v 5.708272 52.696781 6.883391
v 4.741090 50.145489 6.864711
v -7.818734 56.199192 -1.170151
v -7.163109 53.779636 -2.317882
v -8.756115 55.559761 -2.843925
v -4.984917 56.652256 8.096878
v -5.792257 56.661896 5.741638
v -5.071611 55.077778 7.303329
v 0.000000 56.250603 10.014245
v 0.000000 55.431232 9.532289
v 1.758267 55.723633 9.305881
v 3.194140 56.183125 9.023431
v 2.245922 55.411953 8.640107
v 7.230839 50.257950 -1.247862
v 8.601691 53.165913 -3.065850
v 6.493938 50.248310 0.347454
v 6.756730 55.174175 0.347454
v 7.818734 56.199192 -1.170151
v 8.756115 55.559761 -2.843925
v 0.000000 51.578583 11.368209
v 0.000000 50.775276 10.799574
v 1.219137 51.504681 10.873549
v 6.756730 55.174175 0.347454
v 7.818734 56.199192 -1.170151
v 7.163109 53.779636 -2.317882
v 8.756115 55.559761 -2.843925
v 7.390682 58.499855 -1.933811
v 6.756730 55.174175 0.347454
v 7.163109 53.779636 -2.317882
v 8.601691 53.165913 -3.065850
v 7.230839 50.257950 -1.247862
v 6.493938 50.248310 0.347454
v 4.042118 59.373852 8.271727
v 3.717014 62.619202 6.400686
v 0.000000 62.905178 7.103820
v 3.180594 55.048859 8.656547
v 4.315746 55.405525 8.079691
v 6.515612 53.069515 4.295020
v 6.493938 50.248310 0.347454
v -6.193218 61.047935 3.615795
v -6.466846 58.175320 3.896751
v -4.042118 59.373852 8.271727
v -6.493938 50.248310 0.347454
v -8.601691 53.165913 -3.065850
v -7.230839 50.257950 -1.247862
v -8.756115 55.559761 -2.843925
v -7.818734 56.199192 -1.170151
v -6.756730 55.174175 0.347454
v -3.194140 56.183125 9.023431
v -4.315746 55.405525 8.079691
v -4.277817 54.566875 7.981058
v -6.756730 55.174175 0.347454
v 0.000000 49.268280 9.858076
v -1.048458 49.152603 9.361176
v 0.000000 49.110832 9.547234
v -7.163109 53.779636 -2.317882
v -6.756730 55.174175 0.347454
v -7.390682 58.499855 -1.933811
v -2.210702 54.505825 8.492904
v -1.695956 53.021317 9.345483
v -1.479220 54.669701 8.634130
v -0.755865 54.881771 9.166897
v -6.493938 50.248310 0.347454
v -7.230839 50.257950 -1.247862
v -8.601691 53.165913 -3.065850
v 2.023768 51.491825 9.077978
v 3.573427 50.582485 8.220169
v 2.668556 52.806030 8.788804
v 4.323874 52.664650 8.386799
v 4.277817 54.566875 7.981058
v 5.304602 53.991711 6.980530
v 5.071611 55.077778 7.303329
v 6.220310 54.631142 4.915960
v 5.792257 56.661896 5.741638
v 6.466846 58.175320 3.896751
v -6.220310 54.631142 4.915960
v -6.515612 53.069515 4.295020
v -5.304602 53.991711 6.980530
v -5.708272 52.696781 6.883391
v -4.323874 52.664650 8.386799
v 2.210702 54.505825 8.492904
v 1.479220 54.669701 8.634130
v 1.695956 53.021317 9.345483
v 0.755865 54.881771 9.166897
v 0.872361 53.670387 10.215248
v 0.000000 54.750031 10.142767
v 0.000000 53.872822 10.602308
v -0.872361 53.670387 10.215248
v -1.219137 51.504681 10.873549
v -2.023768 51.491825 9.077978
v 0.000000 50.627468 9.952227
v 6.193218 61.047935 3.615795
v 4.984917 56.652256 8.096878
v 4.741090 57.767242 7.887656
v 1.931655 57.282043 9.222939
v 0.000000 59.762650 9.333527
v -3.717014 62.619202 6.400686
v -4.741090 57.767242 7.887656
v -1.931655 57.282043 9.222939
v 0.000000 57.291683 9.604020
v -3.180594 55.048859 8.656547
v -2.245922 55.411953 8.640107
v -1.758267 55.723633 9.305881
v -2.668556 52.806030 8.788804
v -6.493938 50.248310 0.347454
v -5.971064 50.029812 3.879565
v -4.741090 50.145489 6.864711
v -3.573427 50.582485 8.220169
vn 0.9499 -0.1963 0.2434
vn 0.8737 -0.0787 0.4801
vn 0.8109 -0.2362 0.5354
vn 0.7838 0.4232 -0.4545
vn 0.2202 -0.0235 -0.9752
vn 0.5804 0.2902 -0.7608
vn -0.7372 -0.0392 0.6745
vn -0.9276 0.0550 0.3695
vn -0.8122 -0.0946 0.5756
vn -0.0000 -0.0707 0.9975
vn -0.0000 -0.1414 0.9900
vn 0.3231 -0.5121 0.7958
vn 0.3688 -0.1883 0.9102
vn 0.2597 -0.3148 0.9129
vn 0.8973 -0.1653 0.4093
vn 0.8762 -0.1095 0.4694
vn 0.9601 -0.1495 0.2361
vn 0.9853 0.0469 0.1642
vn 0.8533 -0.0705 0.5166
vn 0.8488 -0.1022 0.5187
vn -0.0000 -0.1491 0.9888
vn -0.0000 -0.8345 0.5511
vn 0.6383 -0.2994 0.7092
vn -0.7837 0.4232 -0.4546
vn -0.2202 -0.0236 -0.9752
vn -0.5804 0.2902 -0.7608
vn 0.9864 -0.0078 0.1644
vn -0.2203 -0.0235 -0.9752
vn -0.4864 -0.0706 -0.8709
vn -0.7450 -0.2039 -0.6351
vn 0.9602 -0.1495 0.2361
vn 0.5759 0.3077 0.7574
vn 0.5256 0.4628 0.7138
vn -0.0000 0.5419 0.8404
vn 0.2362 -0.0787 0.9685
vn 0.4883 -0.1575 0.8584
vn 0.9754 -0.0079 0.2203
vn -0.9034 0.2042 0.3771
vn -0.9517 0.0709 0.2988
vn -0.5759 0.3077 0.7574
vn -0.9601 -0.1495 0.2361
vn -0.8762 -0.1095 0.4694
vn -0.8973 -0.1653 0.4093
vn -0.8488 -0.1022 0.5187
vn -0.8533 -0.0705 0.5166
vn -0.9853 0.0469 0.1642
vn -0.3688 -0.1883 0.9102
vn -0.4883 -0.1575 0.8584
vn -0.4965 -0.0473 0.8668
vn -0.0000 -0.8148 0.5797
vn -0.3376 -0.4397 0.8323
vn -0.0000 -0.3067 0.9518
vn 0.2203 -0.0237 -0.9752
vn -0.9864 -0.0078 0.1644
vn -0.2351 -0.0000 0.9720
vn -0.5993 0.2602 0.7570
vn -0.4383 -0.1096 0.8922
vn -0.6296 0.1810 0.7555
vn -0.9602 -0.1495 0.2361
vn 0.7450 -0.2039 -0.6351
vn 0.4864 -0.0706 -0.8709
vn 0.6394 -0.0711 0.7656
vn 0.4803 -0.1811 0.8582
vn 0.3689 0.0785 0.9262
vn 0.5883 -0.0314 0.8080
vn 0.4965 -0.0473 0.8668
vn 0.8301 0.1018 0.5482
vn 0.8122 -0.0946 0.5756
vn 0.9487 0.0392 0.3136
vn 0.9276 0.0550 0.3695
vn 0.9517 0.0708 0.2988
vn -0.9487 0.0392 0.3136
vn -0.9754 -0.0079 0.2203
vn -0.8301 0.1018 0.5482
vn -0.8737 -0.0787 0.4801
vn -0.5883 -0.0314 0.8080
vn 0.2351 -0.0000 0.9720
vn 0.4383 -0.1096 0.8921
vn 0.5993 0.2602 0.7570
vn 0.6296 0.1810 0.7555
vn 0.6845 0.3540 0.6373
vn -0.0000 0.6063 0.7953
vn -0.0000 0.3768 0.9263
vn -0.6845 0.3540 0.6373
vn -0.6383 -0.2994 0.7092
vn -0.6394 -0.0711 0.7656
vn -0.0001 -0.4315 0.9021
vn 0.9034 0.2042 0.3771
vn 0.7372 -0.0392 0.6745
vn 0.7011 0.1969 0.6853
vn 0.2902 0.1726 0.9413
vn -0.0000 0.2902 0.9570
vn -0.5256 0.4628 0.7138
vn -0.7011 0.1969 0.6853
vn -0.2903 0.1725 0.9413
vn -0.0000 0.2351 0.9720
vn -0.2362 -0.0787 0.9685
vn -0.2597 -0.3148 0.9129
vn -0.3231 -0.5121 0.7958
vn -0.3689 0.0785 0.9262
vn -0.9499 -0.1963 0.2434
vn -0.8109 -0.2362 0.5354
vn -0.4803 -0.1811 0.8582
vt 0.089172 0.690979
vt 0.180267 0.570465
vt 0.219971 0.680237
vt 0.902008 0.367096
vt 0.898560 0.403442
vt 0.907928 0.383026
vt 0.215118 0.316742
vt 0.132294 0.302277
vt 0.217529 0.397095
vt 0.493622 0.328613
vt 0.493622 0.390350
vt 0.393799 0.350586
vt 0.326752 0.325439
vt 0.366547 0.378571
vt 0.905029 0.636536
vt 0.981445 0.545349
vt 0.879486 0.620270
vt 0.879486 0.372437
vt 0.968994 0.310669
vt 0.987244 0.385742
vt 0.493622 0.605652
vt 0.493622 0.639282
vt 0.443970 0.604980
vt 0.882996 0.380188
vt 0.012817 0.233551
vt 0.012756 0.384094
vt 0.012817 0.531891
vt 0.906708 0.416870
vt 0.888428 0.436218
vt 0.882996 0.432770
vt 0.291656 0.131134
vt 0.252625 0.011658
vt 0.493622 0.011658
vt 0.323639 0.400452
vt 0.256958 0.379578
vt 0.065063 0.551025
vt 0.012817 0.683441
vt 0.047791 0.026672
vt 0.073181 0.227173
vt 0.256958 0.431488
vt 0.493622 0.733307
vt 0.419495 0.747070
vt 0.493622 0.750732
vt 0.369507 0.432434
vt 0.395630 0.543060
vt 0.412994 0.422272
vt 0.458832 0.422668
vt 0.393127 0.615692
vt 0.306671 0.640625
vt 0.350220 0.555084
vt 0.261993 0.566650
vt 0.202332 0.463989
vt 0.113068 0.413208
vt 0.447449 0.486755
vt 0.493622 0.431183
vt 0.493622 0.471985
vt 0.493622 0.673584
vt 0.229156 0.250153
vt 0.411285 0.261353
vt 0.493622 0.121277
vt 0.493622 0.267303
s 1
usemtl m_face083
f 56/34/55 57/35/56 58/36/57
f 59/37/58 60/38/59 61/39/60
f 62/40/61 63/41/62 64/42/63
f 65/43/64 66/44/65 67/45/66
f 68/46/67 67/45/66 69/47/68
f 70/48/69 71/49/70 72/50/71
f 73/51/72 72/50/71 74/52/73
f 74/52/73 72/50/71 71/49/70
f 74/52/73 71/49/70 75/53/74
f 76/54/75 77/55/76 78/56/77
f 79/57/72 80/37/78 81/38/79
f 81/38/79 80/37/78 82/39/80
f 83/58/81 84/59/72 85/60/82
f 82/39/80 86/61/83 81/38/79
f 81/38/79 86/61/83 87/62/84
f 81/38/79 87/62/84 88/63/85
f 89/64/86 90/65/87 91/66/88
f 92/67/89 93/68/90 69/47/68
f 69/47/68 93/68/90 68/46/67
f 57/35/56 56/34/55 94/69/91
f 94/69/91 56/34/55 95/70/85
f 94/69/91 95/70/85 84/59/72
f 96/71/92 97/72/93 98/64/94
f 99/50/95 100/49/96 101/48/97
f 102/53/98 100/49/96 103/52/99
f 103/52/99 100/49/96 99/50/95
f 103/52/99 99/50/95 104/51/100
f 105/46/101 62/40/61 106/68/102
f 106/68/102 62/40/61 64/42/63
f 106/68/102 64/42/63 107/73/103
f 60/38/59 59/37/58 108/57/100
f 109/74/104 110/75/105 111/76/106
f 112/60/107 113/59/100 114/58/108
f 115/77/109 116/78/110 117/79/111
f 117/79/111 116/78/110 118/80/112
f 119/63/113 120/62/114 60/38/59
f 60/38/59 120/62/114 121/61/115
f 60/38/59 121/61/115 61/39/60
f 122/81/116 123/82/117 124/83/118
f 124/83/118 123/82/117 125/84/119
f 124/83/118 125/84/119 126/73/120
f 126/73/120 125/84/119 127/85/121
f 126/73/120 127/85/121 128/42/122
f 128/42/122 127/85/121 129/86/123
f 128/42/122 129/86/123 130/41/124
f 130/41/124 129/86/123 131/72/125
f 96/71/92 114/58/108 97/72/93
f 97/72/93 114/58/108 113/59/100
f 97/72/93 113/59/100 132/86/126
f 132/86/126 113/59/100 133/69/127
f 132/86/126 133/69/127 134/85/128
f 134/85/128 133/69/127 135/35/129
f 134/85/128 135/35/129 136/84/130
f 137/77/131 138/79/132 139/78/133
f 139/78/133 138/79/132 140/80/134
f 139/78/133 140/80/134 141/87/135
f 141/87/135 140/80/134 142/88/136
f 141/87/135 142/88/136 143/89/137
f 143/89/137 142/88/136 144/87/138
f 143/89/137 144/87/138 145/56/139
f 145/56/139 144/87/138 146/81/140
f 145/56/139 146/81/140 147/90/141
f 123/82/117 58/36/57 125/84/119
f 125/84/119 58/36/57 57/35/56
f 125/84/119 57/35/56 127/85/121
f 127/85/121 57/35/56 94/69/91
f 127/85/121 94/69/91 129/86/123
f 129/86/123 94/69/91 84/59/72
f 129/86/123 84/59/72 131/72/125
f 131/72/125 84/59/72 83/58/81
f 131/72/125 83/58/81 148/71/142
f 93/68/90 149/40/143 68/46/67
f 68/46/67 149/40/143 150/91/144
f 68/46/67 150/91/144 151/92/145
f 151/92/145 150/91/144 89/64/86
f 151/92/145 89/64/86 152/93/146
f 152/93/146 89/64/86 91/66/88
f 152/93/146 91/66/88 98/64/94
f 98/64/94 91/66/88 153/65/147
f 98/64/94 153/65/147 96/71/92
f 63/41/62 62/40/61 154/91/148
f 154/91/148 62/40/61 105/46/101
f 154/91/148 105/46/101 155/92/149
f 155/92/149 105/46/101 65/43/64
f 155/92/149 65/43/64 156/94/150
f 157/67/151 115/77/109 158/47/152
f 158/47/152 115/77/109 117/79/111
f 158/47/152 117/79/111 159/45/153
f 159/45/153 117/79/111 118/80/112
f 159/45/153 118/80/112 66/44/65
f 126/73/120 137/77/131 124/83/118
f 124/83/118 137/77/131 139/78/133
f 124/83/118 139/78/133 122/81/116
f 122/81/116 139/78/133 141/87/135
f 122/81/116 141/87/135 78/56/77
f 78/56/77 141/87/135 143/89/137
f 78/56/77 143/89/137 76/54/75
f 76/54/75 143/89/137 145/56/139
f 76/54/75 145/56/139 77/55/76
f 77/55/76 145/56/139 147/90/141
f 77/55/76 147/90/141 78/56/77
f 78/56/77 147/90/141 122/81/116
f 66/44/65 65/43/64 159/45/153
f 159/45/153 65/43/64 105/46/101
f 159/45/153 105/46/101 158/47/152
f 158/47/152 105/46/101 106/68/102
f 158/47/152 106/68/102 157/67/151
f 157/67/151 106/68/102 107/73/103
f 157/67/151 107/73/103 115/77/109
f 115/77/109 107/73/103 160/83/154
f 115/77/109 160/83/154 116/78/110
f 67/45/66 68/46/67 65/43/64
f 65/43/64 68/46/67 151/92/145
f 65/43/64 151/92/145 156/94/150
f 156/94/150 151/92/145 152/93/146
f 156/94/150 152/93/146 155/92/149
f 155/92/149 152/93/146 98/64/94
f 155/92/149 98/64/94 154/91/148
f 154/91/148 98/64/94 97/72/93
f 154/91/148 97/72/93 63/41/62
f 63/41/62 97/72/93 132/86/126
f 63/41/62 132/86/126 64/42/63
f 64/42/63 132/86/126 134/85/128
f 64/42/63 134/85/128 107/73/103
f 107/73/103 134/85/128 136/84/130
f 107/73/103 136/84/130 160/83/154
f 113/59/100 161/70/113 133/69/127
f 133/69/127 161/70/113 162/34/155
f 133/69/127 162/34/155 135/35/129
f 135/35/129 162/34/155 163/36/156
f 135/35/129 163/36/156 136/84/130
f 136/84/130 163/36/156 164/82/157
f 136/84/130 164/82/157 160/83/154
f 160/83/154 164/82/157 146/81/140
f 160/83/154 146/81/140 116/78/110
f 116/78/110 146/81/140 144/87/138
f 116/78/110 144/87/138 118/80/112
f 118/80/112 144/87/138 142/88/136
f 118/80/112 142/88/136 66/44/65
f 66/44/65 142/88/136 140/80/134
f 66/44/65 140/80/134 67/45/66
f 67/45/66 140/80/134 138/79/132
f 67/45/66 138/79/132 69/47/68
f 69/47/68 138/79/132 137/77/131
f 69/47/68 137/77/131 92/67/89
f 92/67/89 137/77/131 126/73/120
f 92/67/89 126/73/120 93/68/90
f 93/68/90 126/73/120 128/42/122
f 93/68/90 128/42/122 149/40/143
f 149/40/143 128/42/122 130/41/124
f 149/40/143 130/41/124 150/91/144
f 150/91/144 130/41/124 131/72/125
f 150/91/144 131/72/125 89/64/86
f 89/64/86 131/72/125 148/71/142
f 89/64/86 148/71/142 90/65/87
