mtllib m_face021.mtl
o editpl_m-0000-155
v 5.450899 48.098667 4.367500
v 5.813931 47.751640 0.436373
v 5.992737 50.553566 4.637247
v 6.285330 50.248310 0.331015
v 0.000000 46.723408 8.623668
v -1.788068 45.036469 7.572330
v 0.000000 45.058964 8.075955
v 3.540917 45.826923 4.058152
v -3.540917 45.826923 4.058152
v -5.450899 48.098667 4.367500
v -5.813931 47.751640 0.436373
v 4.277817 46.405300 0.283193
v 7.163109 53.779636 -2.334321
v 4.386185 47.803051 6.383501
v 5.093285 49.862724 6.325218
v 3.370237 50.666031 8.161886
v 0.000000 50.283657 9.593560
v 0.000000 49.364674 10.177887
v 1.140571 49.242573 9.715357
v -3.367528 46.090405 6.036792
v -2.191738 47.080078 8.119294
v 0.000000 50.977711 10.933327
v -0.853396 51.356873 10.867571
v -1.140571 49.242573 9.715357
v -1.750139 51.189781 8.677468
v -3.370237 50.666031 8.161886
v 3.367528 46.090405 6.036792
v 1.899145 44.670162 5.935170
v 0.000000 44.303856 3.771219
v 0.000000 44.059650 6.102547
v 0.000000 47.475304 9.491939
v -1.037621 48.005486 9.329044
v 0.000000 47.986202 9.590571
v 0.000000 48.416775 9.178853
v -1.080968 48.677048 9.024179
v -2.641464 48.593502 8.202983
v -4.386185 47.803051 6.383501
v 0.000000 48.725246 9.374625
v 1.080968 48.677048 9.024179
v 2.641464 48.622421 8.144700
v 1.037621 48.005486 9.329044
v 2.191738 47.112209 8.148437
v -4.277817 46.405300 0.283193
v -1.899145 44.670162 5.935170
v 0.000000 44.300644 7.435588
v 1.788068 45.036469 7.572330
v 1.750139 51.189781 8.677468
v 0.853396 51.356873 10.950513
v -7.163109 53.779636 -2.334321
v -6.285330 50.248310 0.331015
v -5.992737 50.553566 4.637247
v -5.093285 49.862724 6.325218
v 0.000000 48.416775 9.178853
vn 0.8679 -0.4182 0.2682
vn 0.8720 -0.4635 -0.1571
vn 0.9503 -0.2121 0.2278
vn 0.9820 -0.1807 0.0549
vn -0.0000 -0.4722 0.8815
vn -0.4638 -0.5817 0.6682
vn -0.0000 -0.4877 0.8730
vn 0.6527 -0.7550 0.0629
vn -0.6527 -0.7550 0.0629
vn -0.8679 -0.4182 0.2682
vn -0.8720 -0.4635 -0.1571
vn 0.6293 -0.6608 -0.4090
vn 0.8474 -0.4394 -0.2981
vn 0.7467 -0.3851 0.5423
vn 0.8094 -0.2436 0.5344
vn 0.5413 -0.1255 0.8314
vn -0.0000 -0.2902 0.9570
vn -0.0000 -0.1885 0.9821
vn 0.4005 -0.2278 0.8875
vn -0.7443 -0.5720 0.3447
vn -0.5275 -0.4172 0.7400
vn -0.0237 -0.7416 0.6705
vn -0.6440 -0.4005 0.6518
vn -0.3946 -0.2210 0.8919
vn -0.6056 -0.0471 0.7944
vn -0.5418 -0.1178 0.8322
vn 0.7443 -0.5720 0.3447
vn 0.4649 -0.8825 0.0709
vn -0.0000 -0.9920 -0.1260
vn -0.0000 -0.9995 0.0315
vn -0.0000 -0.5180 0.8554
vn -0.3929 -0.0079 0.9195
vn -0.0000 0.1886 0.9821
vn -0.0000 0.0079 1.0000
vn -0.2986 -0.2829 0.9115
vn -0.5881 -0.2274 0.7762
vn -0.7499 -0.3868 0.5367
vn -0.0000 -0.7071 0.7071
vn 0.3151 -0.2835 0.9057
vn 0.5978 -0.2202 0.7708
vn 0.3996 -0.0000 0.9167
vn 0.5349 -0.4090 0.7394
vn -0.6293 -0.6608 -0.4090
vn -0.4649 -0.8825 0.0709
vn -0.0000 -0.9095 0.4156
vn 0.4617 -0.5869 0.6651
vn 0.6058 -0.0393 0.7947
vn 0.6213 -0.4089 0.6684
vn -0.8474 -0.4394 -0.2982
vn -0.9820 -0.1807 0.0549
vn -0.9503 -0.2121 0.2278
vn -0.8094 -0.2436 0.5343
vt 0.138000 0.789062
vt 0.067688 0.826813
vt 0.118744 0.670288
vt 0.039062 0.648438
vt 0.492188 0.859375
vt 0.376099 0.928558
vt 0.492188 0.929688
vt 0.205353 0.935242
vt 0.012268 0.966492
vt 0.007812 0.367188
vt 0.240601 0.846863
vt 0.199982 0.695312
vt 0.312500 0.640625
vt 0.492188 0.687500
vt 0.492188 0.734375
vt 0.429688 0.734375
vt 0.266724 0.900665
vt 0.375000 0.850433
vt 0.493469 0.644531
vt 0.453125 0.625000
vt 0.398438 0.632812
vt 0.377228 0.964264
vt 0.492188 0.999847
vt 0.492188 0.976562
vt 0.492188 0.820312
vt 0.437500 0.789062
vt 0.492188 0.787628
vt 0.492188 0.770447
vt 0.445312 0.757812
vt 0.351562 0.757812
vt 0.492188 0.750000
vt 0.492188 0.953125
s 1
usemtl m_face092
f 1/1/1 2/2/2 3/3/3
f 2/2/2 4/4/4 3/3/3
f 5/5/5 6/6/6 7/7/7
f 2/2/2 1/1/1 8/8/8
f 9/8/9 10/1/10 11/2/11
f 12/9/12 13/10/13 4/4/4
f 14/11/14 15/12/15 16/13/16
f 17/14/17 18/15/18 19/16/19
f 20/17/20 6/6/6 21/18/21
f 17/14/17 22/19/22 23/20/23
f 24/16/24 25/21/25 26/13/26
f 3/3/3 15/12/15 1/1/1
f 1/1/1 15/12/15 14/11/14
f 1/1/1 14/11/14 8/8/8
f 8/8/8 14/11/14 27/17/27
f 8/8/8 27/17/27 28/22/28
f 4/4/4 2/2/2 12/9/12
f 12/9/12 2/2/2 8/8/8
f 12/9/12 8/8/8 29/23/29
f 29/23/29 8/8/8 28/22/28
f 29/23/29 28/22/28 30/24/30
f 6/6/6 5/5/5 21/18/21
f 21/18/21 5/5/5 31/25/31
f 21/18/21 31/25/31 32/26/32
f 32/26/32 31/25/31 33/27/33
f 32/26/32 33/27/33 34/28/34
f 34/28/34 35/29/35 32/26/32
f 32/26/32 35/29/35 36/30/36
f 32/26/32 36/30/36 21/18/21
f 21/18/21 36/30/36 37/11/37
f 21/18/21 37/11/37 20/17/20
f 23/20/23 25/21/25 17/14/17
f 17/14/17 25/21/25 24/16/24
f 17/14/17 24/16/24 18/15/18
f 18/15/18 24/16/24 38/31/38
f 18/15/18 38/31/38 19/16/19
f 19/16/19 38/31/38 39/29/39
f 19/16/19 39/29/39 40/30/40
f 40/30/40 39/29/39 41/26/41
f 40/30/40 41/26/41 42/18/42
f 11/2/11 43/9/43 9/8/9
f 9/8/9 43/9/43 29/23/29
f 9/8/9 29/23/29 44/22/44
f 44/22/44 29/23/29 30/24/30
f 44/22/44 30/24/30 45/32/45
f 45/32/45 30/24/30 28/22/28
f 45/32/45 28/22/28 46/6/46
f 46/6/46 28/22/28 27/17/27
f 46/6/46 27/17/27 42/18/42
f 42/18/42 27/17/27 14/11/14
f 42/18/42 14/11/14 40/30/40
f 40/30/40 14/11/14 16/13/16
f 40/30/40 16/13/16 19/16/19
f 19/16/19 16/13/16 47/21/47
f 19/16/19 47/21/47 17/14/17
f 17/14/17 47/21/47 48/20/48
f 17/14/17 48/20/48 22/19/22
f 49/10/49 43/9/43 50/4/50
f 50/4/50 43/9/43 11/2/11
f 50/4/50 11/2/11 51/3/51
f 51/3/51 11/2/11 10/1/10
f 51/3/51 10/1/10 52/12/52
f 52/12/52 10/1/10 37/11/37
f 52/12/52 37/11/37 26/13/26
f 26/13/26 37/11/37 36/30/36
f 26/13/26 36/30/36 24/16/24
f 24/16/24 36/30/36 35/29/35
f 24/16/24 35/29/35 38/31/38
f 38/31/38 35/29/35 53/28/34
f 38/31/38 53/28/34 39/29/39
f 39/29/39 53/28/34 33/27/33
f 39/29/39 33/27/33 41/26/41
f 41/26/41 33/27/33 31/25/31
f 41/26/41 31/25/31 42/18/42
f 42/18/42 31/25/31 5/5/5
f 42/18/42 5/5/5 46/6/46
f 46/6/46 5/5/5 7/7/7
f 46/6/46 7/7/7 45/32/45
f 45/32/45 7/7/7 6/6/6
f 45/32/45 6/6/6 44/22/44
f 44/22/44 6/6/6 20/17/20
f 44/22/44 20/17/20 9/8/9
f 9/8/9 20/17/20 37/11/37
f 9/8/9 37/11/37 10/1/10
o editpl_m-0000-156
v 7.824153 56.199192 -1.186590
v 7.163109 53.779636 -2.334321
v 6.756730 55.174175 0.331015
v 0.853396 51.356873 10.950513
v 0.717936 53.394051 10.314629
v 0.000000 51.636421 11.368957
v 6.269075 57.895771 3.896751
v 7.390682 58.499855 -1.933811
v 6.193218 61.047935 3.615795
v 6.225728 54.946037 4.898026
v 5.450899 54.573303 6.456729
v 5.556557 53.522579 6.416379
v 3.643866 52.757835 8.289660
v 5.499664 51.826000 6.634567
v -6.428918 52.947414 4.945849
v -6.756730 55.174175 0.331015
v -6.285330 50.248310 0.331015
v 4.388894 54.001350 7.618656
v 4.424114 55.485855 7.989278
v 3.429840 54.772522 8.564638
v 7.824153 56.199192 -1.186590
v 6.756730 55.174175 0.331015
v 6.285330 50.248310 0.331015
v 5.992737 50.553566 4.637247
v 6.428918 52.947414 4.945849
v 6.285330 50.248310 0.331015
v 6.756730 55.174175 0.331015
v 7.163109 53.779636 -2.334321
v 8.590855 55.559761 -2.860364
v 1.750139 51.189781 8.677468
v 0.533711 54.605434 9.593560
v 0.000000 54.827145 9.908140
v 0.000000 53.593269 10.592594
v 8.436430 53.165913 -3.082289
v 7.184783 50.257950 -1.264301
v 6.285330 50.248310 0.331015
v 8.590855 55.559761 -2.860364
v 8.436430 53.165913 -3.082289
v 7.184783 50.257950 -1.264301
v -8.590855 55.559761 -2.860364
v -7.824153 56.199192 -1.186590
v -7.163109 53.779636 -2.334321
v -6.756730 55.174175 0.331015
v -3.370237 50.666031 8.161886
v -1.750139 51.189781 8.677468
v -1.896436 52.822098 8.936007
v -8.436430 53.165913 -3.082289
v -7.184783 50.257950 -1.264301
v -6.285330 50.248310 0.331015
v 0.000000 53.593269 10.592594
v -0.533711 54.605434 9.593560
v -0.926544 55.235226 9.613735
v -6.285330 50.248310 0.331015
v -7.184783 50.257950 -1.264301
v -8.436430 53.165913 -3.082289
v -8.590855 55.559761 -2.860364
v -7.824153 56.199192 -1.186590
v -6.756730 55.174175 0.331015
v -2.755250 56.009609 9.538266
v 0.000000 55.694714 10.174898
v 0.926544 55.235226 9.613735
v 1.313959 54.409428 8.892667
v 1.896436 52.822098 8.936007
v 3.370237 50.666031 8.161886
v 2.232376 53.898525 8.531760
v 2.405764 55.450512 8.626657
v 2.755250 56.009609 9.538266
v 5.328985 56.356640 7.619404
v 5.220617 59.483101 6.973804
v 3.717014 62.619202 6.400686
v -5.992737 50.553566 4.637247
v -5.093285 49.862724 6.325218
v -5.499664 51.826000 6.634567
v -3.643866 52.757835 8.289660
v -2.232376 53.898525 8.531760
v -5.556557 53.586845 6.416379
v -4.388894 54.001350 7.618656
v -3.429840 54.772522 8.564638
v -6.225728 54.946037 4.898026
v -6.269075 57.895771 3.896751
v -5.328985 56.356640 7.619404
v -5.220617 59.483101 6.973804
v -2.717322 60.022923 8.757420
v 0.000000 59.961868 9.612988
v 2.717322 60.022923 8.757420
v 0.000000 62.905178 7.103820
v -5.450899 54.573303 6.456729
v -4.424114 55.485855 7.989278
v -2.405764 55.450512 8.626657
v -1.313959 54.409428 8.892667
v -0.717936 53.394051 10.314629
v -0.853396 51.356873 10.867571
v 0.000000 50.977711 10.933327
v -7.163109 53.779636 -2.334321
v -7.390682 58.499855 -1.933811
v -6.193218 61.047935 3.615795
v -3.717014 62.619202 6.400686
v 5.093285 49.862724 6.325218
vn -0.8031 0.4173 -0.4252
vn -0.7550 0.1180 -0.6450
vn -0.8556 0.3925 -0.3375
vn 0.6213 -0.4089 0.6685
vn 0.7083 0.2676 0.6532
vn -0.0314 -0.1413 0.9895
vn 0.9750 0.0315 0.2202
vn 0.9832 -0.0236 0.1809
vn 0.9313 0.1815 0.3157
vn 0.9492 0.0235 0.3138
vn 0.8058 -0.1252 0.5789
vn 0.8013 0.0393 0.5970
vn 0.5266 0.0472 0.8488
vn 0.7972 -0.1184 0.5920
vn -0.9631 -0.0392 0.2662
vn -0.9803 -0.0235 0.1960
vn -0.9820 -0.1807 0.0550
vn 0.6151 -0.1104 0.7807
vn 0.5664 -0.2911 0.7710
vn 0.3375 -0.1177 0.9339
vn 0.8725 -0.0943 0.4795
vn 0.9803 -0.0235 0.1961
vn 0.9820 -0.1807 0.0550
vn 0.9503 -0.2121 0.2278
vn 0.9631 -0.0392 0.2662
vn 0.9803 -0.0235 0.1960
vn 0.9815 -0.0628 0.1807
vn -0.6279 0.2904 -0.7221
vn 0.6058 -0.0394 0.7946
vn 0.5820 0.0708 0.8101
vn -0.0000 -0.0315 0.9995
vn -0.0078 0.4378 0.8990
vn -0.5261 -0.0628 -0.8481
vn -0.7353 -0.1977 -0.6483
vn -0.8615 -0.1488 -0.4855
vn 0.8920 -0.0947 0.4420
vn 0.8814 -0.0866 0.4643
vn 0.8713 -0.0628 0.4867
vn 0.6279 0.2904 -0.7221
vn 0.8031 0.4173 -0.4252
vn 0.7551 0.1180 -0.6450
vn 0.8556 0.3925 -0.3375
vn -0.5417 -0.1178 0.8323
vn -0.6056 -0.0472 0.7944
vn -0.5024 0.0471 0.8634
vn -0.8814 -0.0866 0.4643
vn -0.8713 -0.0628 0.4867
vn -0.5820 0.0708 0.8101
vn -0.4397 -0.4632 0.7695
vn 0.8615 -0.1488 -0.4855
vn 0.7353 -0.1976 -0.6483
vn 0.5261 -0.0628 -0.8481
vn -0.8920 -0.0947 0.4420
vn -0.8725 -0.0943 0.4795
vn -0.9803 -0.0235 0.1961
vn -0.4563 -0.3305 0.8262
vn -0.0000 -0.1259 0.9920
vn 0.4397 -0.4632 0.7695
vn 0.5974 0.0157 0.8018
vn 0.5024 0.0471 0.8634
vn 0.5412 -0.1255 0.8315
vn 0.3209 -0.0000 0.9471
vn 0.3303 -0.3775 0.8651
vn 0.4563 -0.3305 0.8262
vn 0.8247 -0.0942 0.5577
vn 0.7784 0.2359 0.5818
vn 0.5425 0.5190 0.6605
vn -0.9503 -0.2121 0.2278
vn -0.8094 -0.2436 0.5344
vn -0.7964 -0.1262 0.5914
vn -0.5266 0.0471 0.8488
vn -0.3209 -0.0000 0.9471
vn -0.8010 0.0471 0.5968
vn -0.6151 -0.1104 0.7807
vn -0.3375 -0.1177 0.9339
vn -0.9513 0.0315 0.3066
vn -0.9750 0.0315 0.2202
vn -0.8247 -0.0942 0.5577
vn -0.7784 0.2359 0.5818
vn -0.3613 0.3692 0.8562
vn -0.0000 0.4090 0.9125
vn 0.3613 0.3692 0.8562
vn -0.0000 0.6371 0.7707
vn -0.8030 -0.1260 0.5826
vn -0.5664 -0.2911 0.7710
vn -0.3303 -0.3775 0.8651
vn -0.5974 0.0157 0.8018
vn -0.7098 0.2603 0.6546
vn -0.6440 -0.4005 0.6518
vn -0.0237 -0.7415 0.6706
vn -0.9815 -0.0628 0.1807
vn -0.9832 -0.0236 0.1809
vn -0.9313 0.1815 0.3157
vn -0.5425 0.5190 0.6605
vn 0.8094 -0.2436 0.5344
vt 0.968750 0.312500
vt 0.913086 0.488312
vt 0.890625 0.382812
vt 0.453125 0.625000
vt 0.456238 0.526550
vt 0.492188 0.617188
vt 0.109375 0.234375
vt 0.054688 0.273438
vt 0.093750 0.078125
vt 0.125000 0.429688
vt 0.176544 0.439056
vt 0.164062 0.492188
vt 0.293976 0.534119
vt 0.189056 0.590607
vt 0.126556 0.540619
vt 0.070312 0.445312
vt 0.039062 0.648438
vt 0.257812 0.476562
vt 0.250000 0.389648
vt 0.312500 0.421875
vt 0.859375 0.648438
vt 0.118744 0.670288
vt 0.007812 0.367188
vt 0.998413 0.364044
vt 0.398438 0.632812
vt 0.468750 0.453125
vt 0.492188 0.437500
vt 0.492188 0.522339
vt 0.997101 0.518494
vt 0.914062 0.640625
vt 0.312500 0.640625
vt 0.408844 0.536438
vt 0.492157 0.522339
vt 0.453125 0.407806
vt 0.359375 0.351562
vt 0.492188 0.382812
vt 0.416656 0.454407
vt 0.367188 0.481232
vt 0.360657 0.389313
vt 0.192169 0.337494
vt 0.187500 0.187500
vt 0.273438 0.046875
vt 0.199982 0.695312
vt 0.360931 0.140625
vt 0.492188 0.156250
vt 0.492188 0.039062
vt 0.493469 0.644531
s 1
usemtl m_face092
f 54/33/53 55/34/54 56/35/55
f 57/36/56 58/37/57 59/38/58
f 60/39/59 61/40/60 62/41/61
f 63/42/62 64/43/63 65/44/64
f 65/44/64 66/45/65 67/46/66
f 68/47/67 69/48/68 70/49/69
f 71/50/70 72/51/71 73/52/72
f 74/33/73 75/35/74 76/53/75
f 67/46/66 77/54/76 78/47/77
f 78/47/77 77/54/76 79/49/75
f 78/47/77 79/49/75 80/48/78
f 80/48/78 81/55/79 61/40/60
f 55/34/54 54/33/53 82/56/80
f 58/37/57 57/36/56 83/57/81
f 84/58/82 85/59/83 58/37/57
f 58/37/57 85/59/83 86/60/84
f 58/37/57 86/60/84 59/38/58
f 82/56/80 87/61/85 55/34/54
f 55/34/54 87/61/85 88/62/86
f 55/34/54 88/62/86 89/53/87
f 90/56/88 74/33/73 91/61/89
f 91/61/89 74/33/73 76/53/75
f 91/61/89 76/53/75 92/62/90
f 93/56/91 94/33/92 95/34/93
f 95/34/93 94/33/92 96/35/94
f 97/63/95 98/57/96 99/64/97
f 100/61/98 101/62/99 102/53/69
f 103/65/84 85/59/83 104/58/100
f 104/58/100 85/59/83 105/66/101
f 106/53/102 107/62/103 95/34/93
f 95/34/93 107/62/103 108/61/104
f 95/34/93 108/61/104 93/56/91
f 109/56/105 100/61/98 110/33/106
f 110/33/106 100/61/98 102/53/69
f 110/33/106 102/53/69 111/35/107
f 112/67/108 105/66/101 113/68/109
f 113/68/109 105/66/101 85/59/83
f 113/68/109 85/59/83 114/66/110
f 114/66/110 85/59/83 84/58/82
f 114/66/110 84/58/82 115/69/111
f 115/69/111 84/58/82 58/37/57
f 115/69/111 58/37/57 116/64/112
f 116/64/112 58/37/57 83/57/81
f 116/64/112 83/57/81 117/63/113
f 61/40/60 60/39/59 80/48/78
f 80/48/78 60/39/59 63/42/62
f 80/48/78 63/42/62 78/47/77
f 78/47/77 63/42/62 65/44/64
f 78/47/77 65/44/64 67/46/66
f 66/45/65 71/50/70 118/70/114
f 118/70/114 71/50/70 73/52/72
f 118/70/114 73/52/72 119/71/115
f 119/71/115 73/52/72 72/51/71
f 119/71/115 72/51/71 120/67/116
f 64/43/63 63/42/62 121/72/117
f 121/72/117 63/42/62 60/39/59
f 121/72/117 60/39/59 122/73/118
f 122/73/118 60/39/59 62/41/61
f 122/73/118 62/41/61 123/74/119
f 124/54/120 125/75/121 126/46/122
f 126/46/122 125/75/121 97/63/95
f 126/46/122 97/63/95 127/45/123
f 127/45/123 97/63/95 99/64/97
f 127/45/123 99/64/97 128/70/124
f 70/49/69 124/54/120 68/47/67
f 68/47/67 124/54/120 126/46/122
f 68/47/67 126/46/122 129/44/125
f 129/44/125 126/46/122 127/45/123
f 129/44/125 127/45/123 130/50/126
f 130/50/126 127/45/123 128/70/124
f 130/50/126 128/70/124 131/52/127
f 69/48/68 132/42/128 133/39/129
f 133/39/129 132/42/128 134/72/130
f 133/39/129 134/72/130 135/73/131
f 135/73/131 134/72/130 112/67/108
f 135/73/131 112/67/108 136/76/132
f 136/76/132 112/67/108 113/68/109
f 136/76/132 113/68/109 137/77/133
f 66/45/65 65/44/64 71/50/70
f 71/50/70 65/44/64 64/43/63
f 71/50/70 64/43/63 72/51/71
f 72/51/71 64/43/63 121/72/117
f 72/51/71 121/72/117 120/67/116
f 120/67/116 121/72/117 122/73/118
f 120/67/116 122/73/118 138/76/134
f 138/76/134 122/73/118 123/74/119
f 138/76/134 123/74/119 139/78/135
f 132/42/128 140/43/136 134/72/130
f 134/72/130 140/43/136 141/51/137
f 134/72/130 141/51/137 112/67/108
f 112/67/108 141/51/137 142/71/138
f 112/67/108 142/71/138 105/66/101
f 105/66/101 142/71/138 143/69/139
f 105/66/101 143/69/139 104/58/100
f 104/58/100 143/69/139 144/37/140
f 104/58/100 144/37/140 103/65/84
f 103/65/84 144/37/140 145/36/141
f 103/65/84 145/36/141 59/38/58
f 59/38/58 145/36/141 146/79/142
f 59/38/58 146/79/142 57/36/56
f 69/48/68 68/47/67 132/42/128
f 132/42/128 68/47/67 129/44/125
f 132/42/128 129/44/125 140/43/136
f 140/43/136 129/44/125 130/50/126
f 140/43/136 130/50/126 141/51/137
f 141/51/137 130/50/126 131/52/127
f 141/51/137 131/52/127 142/71/138
f 142/71/138 131/52/127 128/70/124
f 142/71/138 128/70/124 143/69/139
f 143/69/139 128/70/124 99/64/97
f 143/69/139 99/64/97 144/37/140
f 144/37/140 99/64/97 98/57/96
f 144/37/140 98/57/96 145/36/141
f 147/55/143 69/48/68 148/40/144
f 148/40/144 69/48/68 133/39/129
f 148/40/144 133/39/129 149/41/145
f 149/41/145 133/39/129 135/73/131
f 149/41/145 135/73/131 150/74/146
f 150/74/146 135/73/131 136/76/132
f 150/74/146 136/76/132 139/78/135
f 139/78/135 136/76/132 137/77/133
f 139/78/135 137/77/133 138/76/134
f 138/76/134 137/77/133 113/68/109
f 138/76/134 113/68/109 120/67/116
f 120/67/116 113/68/109 114/66/110
f 120/67/116 114/66/110 119/71/115
f 119/71/115 114/66/110 115/69/111
f 119/71/115 115/69/111 118/70/114
f 118/70/114 115/69/111 116/64/112
f 118/70/114 116/64/112 66/45/65
f 66/45/65 116/64/112 117/63/113
f 66/45/65 117/63/113 67/46/66
f 67/46/66 117/63/113 151/75/147
f 67/46/66 151/75/147 77/54/76
