mtllib m_face006.mtl
o editpl_m-0000-127
v 0.000000 50.685307 10.081495
v 1.200173 51.748882 10.680766
v 0.000000 51.212276 10.993104
v -1.460256 47.819118 9.499411
v -1.912691 46.614159 8.198501
v 0.000000 47.253590 9.612988
v 6.374734 50.248310 0.347454
v 4.199251 46.405300 0.298884
v 7.163109 53.779636 -2.317882
v 3.578845 46.463139 6.184741
v 3.316054 45.386711 5.773770
v 5.228745 46.877644 2.314885
v 2.077952 45.396351 8.300869
v 2.552061 46.318542 7.749421
v 1.912691 46.614159 8.198501
v 0.000000 48.802361 10.009015
v 1.362725 49.563896 10.186106
v 0.000000 49.467499 10.376647
v 2.197156 44.425957 7.377305
v 0.000000 44.303856 3.787658
v 2.105044 51.151226 9.066023
v -2.757960 48.259327 8.236609
v 0.000000 46.456711 8.988312
v -2.077952 45.396351 8.300869
v 0.000000 45.136082 8.996531
v -5.228745 46.877644 2.314885
v -4.199251 46.405300 0.298884
v -3.316054 45.386711 5.773770
v -5.101413 50.604977 6.308032
v -4.630013 48.840919 6.691356
v -4.245307 50.653175 7.599229
v -3.578845 46.463139 6.184741
v -5.247709 47.742001 4.253175
v -5.968355 50.392906 3.392377
v -6.006283 47.979778 0.747217
v -6.374734 50.248310 0.347454
v -7.163109 53.779636 -2.317882
v 0.000000 44.265297 8.293397
v -2.197156 44.425957 7.377305
v -1.362725 49.563896 10.186106
v -1.229974 48.654552 9.119823
v 0.000000 47.889809 9.766169
v 1.460256 47.819118 9.499411
v 6.006283 47.979778 0.747217
v 5.247709 47.742001 4.253175
v 4.630013 48.840919 6.691356
v 3.717014 47.417465 7.553648
v 3.744106 49.641010 7.916050
v 2.757960 48.259327 8.236609
v 1.229974 48.654552 9.119823
v 0.000000 48.497105 9.320826
v -2.552061 46.318542 7.749421
v -3.717014 47.417465 7.553648
v -3.744106 49.641010 7.916050
v -2.105044 51.151226 9.066023
v -1.200173 51.748882 10.680766
v 0.000000 51.764950 11.356254
v 5.968355 50.392906 3.392377
v 5.101413 50.604977 6.308032
v 4.245307 50.653175 7.599229
vn -0.0000 -0.2902 0.9570
vn 0.6189 -0.2507 0.7443
vn -0.0000 -0.7227 0.6912
vn -0.4396 -0.0785 0.8948
vn -0.4876 -0.2831 0.8259
vn -0.0000 -0.5179 0.8554
vn 0.9658 -0.2591 -0.0000
vn 0.6209 -0.6995 -0.3537
vn -0.4876 0.0079 -0.8730
vn 0.8317 -0.4080 0.3766
vn 0.6737 -0.7364 0.0627
vn 0.7844 -0.6118 0.1020
vn 0.5672 -0.2127 0.7956
vn 0.6898 -0.2430 0.6820
vn 0.4876 -0.2831 0.8259
vn -0.0000 -0.7526 0.6585
vn 0.3998 -0.2352 0.8859
vn -0.0000 -0.1260 0.9920
vn 0.5963 -0.7454 0.2981
vn -0.0000 -0.9931 -0.1173
vn 0.6284 0.0157 0.7777
vn -0.5423 -0.2515 0.8017
vn -0.0000 -0.1645 0.9864
vn -0.5672 -0.2127 0.7956
vn -0.0000 -0.3304 0.9438
vn -0.7844 -0.6118 0.1020
vn -0.6209 -0.6995 -0.3537
vn -0.6737 -0.7364 0.0627
vn -0.8722 -0.2436 0.4243
vn -0.8479 -0.2434 0.4710
vn -0.6581 -0.1567 0.7364
vn -0.8317 -0.4080 0.3766
vn -0.9031 -0.3298 0.2749
vn -0.9503 -0.2278 0.2121
vn -0.9138 -0.3860 -0.1261
vn -0.9658 -0.2592 -0.0000
vn 0.4877 0.0077 -0.8730
vn -0.0000 -0.8404 0.5419
vn -0.5963 -0.7454 0.2981
vn -0.3998 -0.2352 0.8859
vn -0.3307 -0.2047 0.9213
vn -0.0000 0.2902 0.9570
vn 0.4395 -0.0785 0.8948
vn 0.9138 -0.3860 -0.1261
vn 0.9031 -0.3298 0.2749
vn 0.8479 -0.2434 0.4710
vn 0.6535 -0.3386 0.6770
vn 0.6595 -0.0942 0.7458
vn 0.5423 -0.2515 0.8017
vn 0.3307 -0.2047 0.9213
vn -0.0000 -0.2444 0.9697
vn -0.6898 -0.2430 0.6820
vn -0.6535 -0.3386 0.6770
vn -0.6595 -0.0942 0.7458
vn -0.6284 0.0157 0.7777
vn -0.6189 -0.2507 0.7444
vn -0.0000 -0.1734 0.9849
vn 0.9503 -0.2278 0.2121
vn 0.8722 -0.2436 0.4243
vn 0.6581 -0.1567 0.7364
vt 0.489166 0.662628
vt 0.443817 0.593567
vt 0.489166 0.627289
vt 0.418823 0.778900
vt 0.416351 0.847198
vt 0.489899 0.819641
vt 0.011932 0.683441
vt 0.011932 0.986511
vt 0.011932 0.504211
vt 0.235657 0.882660
vt 0.298248 0.970734
vt 0.130829 0.940704
vt 0.412598 0.936554
vt 0.342865 0.866913
vt 0.489258 0.723358
vt 0.426270 0.697601
vt 0.489166 0.699127
vt 0.386414 0.969330
vt 0.489594 0.986511
vt 0.393219 0.607178
vt 0.377686 0.751068
vt 0.489594 0.871063
vt 0.489594 0.938843
vt 0.179138 0.663147
vt 0.253265 0.754669
vt 0.245178 0.641174
vt 0.145935 0.835938
vt 0.099182 0.673737
vt 0.066956 0.886261
vt 0.489594 0.969330
vt 0.455109 0.733551
vt 0.489899 0.779266
vt 0.301727 0.810333
vt 0.302216 0.697845
vt 0.489899 0.736877
vt 0.489166 0.581726
s 1
usemtl m_face078
f 1/1/1 2/2/2 3/3/3
f 4/4/4 5/5/5 6/6/6
f 7/7/7 8/8/8 9/9/9
f 10/10/10 11/11/11 12/12/12
f 12/12/12 11/11/11 8/8/8
f 13/13/13 14/14/14 15/5/15
f 16/15/16 17/16/17 18/17/18
f 10/10/10 19/18/19 11/11/11
f 11/11/11 19/18/19 20/19/20
f 11/11/11 20/19/20 8/8/8
f 2/2/2 1/1/1 21/20/21
f 5/5/5 4/4/4 22/21/22
f 23/22/23 24/13/24 25/23/25
f 26/12/26 27/8/27 28/11/28
f 28/11/28 27/8/27 20/19/20
f 29/24/29 30/25/30 31/26/31
f 32/10/32 30/25/30 33/27/33
f 33/27/33 30/25/30 29/24/29
f 33/27/33 29/24/29 34/28/34
f 26/12/26 35/29/35 27/8/27
f 27/8/27 35/29/35 36/7/36
f 27/8/27 36/7/36 37/9/37
f 15/5/15 23/22/23 13/13/13
f 13/13/13 23/22/23 25/23/25
f 13/13/13 25/23/25 38/30/38
f 38/30/38 25/23/25 24/13/24
f 38/30/38 24/13/24 39/18/39
f 39/18/39 24/13/24 32/10/32
f 40/16/40 22/21/22 41/31/41
f 41/31/41 22/21/22 4/4/4
f 41/31/41 4/4/4 42/32/42
f 42/32/42 4/4/4 6/6/6
f 42/32/42 6/6/6 43/4/43
f 8/8/8 44/29/44 12/12/12
f 12/12/12 44/29/44 45/27/45
f 12/12/12 45/27/45 10/10/10
f 10/10/10 45/27/45 46/25/46
f 10/10/10 46/25/46 47/33/47
f 47/33/47 46/25/46 48/34/48
f 47/33/47 48/34/48 49/21/49
f 49/21/49 48/34/48 17/16/17
f 49/21/49 17/16/17 50/31/50
f 50/31/50 17/16/17 16/15/16
f 50/31/50 16/15/16 51/35/51
f 52/14/52 5/5/5 53/33/53
f 53/33/53 5/5/5 22/21/22
f 53/33/53 22/21/22 54/34/54
f 54/34/54 22/21/22 40/16/40
f 54/34/54 40/16/40 55/20/55
f 55/20/55 40/16/40 1/1/1
f 55/20/55 1/1/1 56/2/56
f 56/2/56 1/1/1 3/3/3
f 56/2/56 3/3/3 57/36/57
f 57/36/57 3/3/3 2/2/2
f 55/20/55 31/26/31 54/34/54
f 54/34/54 31/26/31 30/25/30
f 54/34/54 30/25/30 53/33/53
f 53/33/53 30/25/30 32/10/32
f 53/33/53 32/10/32 52/14/52
f 52/14/52 32/10/32 24/13/24
f 52/14/52 24/13/24 5/5/5
f 5/5/5 24/13/24 23/22/23
f 5/5/5 23/22/23 6/6/6
f 6/6/6 23/22/23 15/5/15
f 6/6/6 15/5/15 43/4/43
f 8/8/8 7/7/7 44/29/44
f 44/29/44 7/7/7 58/28/58
f 44/29/44 58/28/58 45/27/45
f 45/27/45 58/28/58 59/24/59
f 45/27/45 59/24/59 46/25/46
f 46/25/46 59/24/59 60/26/60
f 46/25/46 60/26/60 48/34/48
f 48/34/48 60/26/60 21/20/21
f 48/34/48 21/20/21 17/16/17
f 17/16/17 21/20/21 1/1/1
f 17/16/17 1/1/1 18/17/18
f 18/17/18 1/1/1 40/16/40
f 18/17/18 40/16/40 16/15/16
f 16/15/16 40/16/40 41/31/41
f 16/15/16 41/31/41 51/35/51
f 51/35/51 41/31/41 42/32/42
f 51/35/51 42/32/42 50/31/50
f 50/31/50 42/32/42 43/4/43
f 50/31/50 43/4/43 49/21/49
f 49/21/49 43/4/43 15/5/15
f 49/21/49 15/5/15 47/33/47
f 47/33/47 15/5/15 14/14/14
f 47/33/47 14/14/14 10/10/10
f 10/10/10 14/14/14 13/13/13
f 10/10/10 13/13/13 19/18/19
f 19/18/19 13/13/13 38/30/38
f 19/18/19 38/30/38 20/19/20
f 20/19/20 38/30/38 39/18/39
f 20/19/20 39/18/39 28/11/28
f 28/11/28 39/18/39 32/10/32
f 28/11/28 32/10/32 26/12/26
f 26/12/26 32/10/32 33/27/33
f 26/12/26 33/27/33 35/29/35
f 35/29/35 33/27/33 34/28/34
f 35/29/35 34/28/34 36/7/36
o editpl_m-0000-128
v 5.911462 55.132401 5.561558
v 6.515612 53.066303 4.377214
v 6.959920 55.174175 0.347454
v -7.824153 56.199192 -1.170151
v -7.163109 53.779636 -2.317882
v -8.590855 55.559761 -2.843925
v -0.978019 55.852161 9.755707
v -0.850687 55.055286 9.140745
v 0.000000 55.154896 9.336516
v -6.959920 55.174175 0.347454
v -7.390682 58.499855 -1.933811
v -7.163109 53.779636 -2.317882
v 4.369930 56.828983 8.767882
v 4.071919 55.389462 8.081933
v 5.280219 56.311653 7.757639
v -2.294687 55.392673 8.451807
v -2.281141 54.444775 8.381569
v -1.411490 54.521893 8.364382
v 7.182074 50.257950 -1.247862
v 8.436430 53.165913 -3.065850
v 6.374734 50.248310 0.347454
v 6.959920 55.174175 0.347454
v 7.824153 56.199192 -1.170151
v 8.590855 55.559761 -2.843925
v 4.394313 57.988953 8.040089
v 6.959920 55.174175 0.347454
v 7.824153 56.199192 -1.170151
v 7.163109 53.779636 -2.317882
v 8.590855 55.559761 -2.843925
v 3.717014 62.619202 6.400686
v 4.871131 59.512020 7.470707
v 6.193218 61.047935 3.615795
v 6.466846 58.175320 3.896751
v 7.390682 58.499855 -1.933811
v 8.436430 53.165913 -3.065850
v 7.182074 50.257950 -1.247862
v 6.374734 50.248310 0.347454
v 5.673052 53.590057 6.805680
v 4.898223 54.788589 7.306318
v 4.101720 54.531528 7.972092
v 0.000000 59.762650 9.333527
v -2.151100 58.011448 9.225927
v 2.151100 58.011448 9.225927
v -3.120992 55.084206 8.518311
v -4.101720 54.531528 7.972092
v -2.446402 56.215256 9.468027
v -4.394313 57.988953 8.040089
v -4.369930 56.828983 8.767882
v -6.374734 50.248310 0.347454
v -8.436430 53.165913 -3.065850
v -7.182074 50.257950 -1.247862
v -8.590855 55.559761 -2.843925
v -7.824153 56.199192 -1.170151
v -6.959920 55.174175 0.347454
v -1.200173 51.748882 10.680766
v 0.000000 51.764950 11.356254
v 0.000000 52.452579 11.184393
v 1.200173 51.748882 10.680766
v 0.891325 53.782848 10.162942
v 2.105044 51.151226 9.066023
v -6.959920 55.174175 0.347454
v -2.717322 59.820488 8.927039
v -2.151100 58.011448 9.225927
v -0.978019 55.852161 9.755707
v 0.978019 55.852161 9.755707
v 2.446402 56.215256 9.468027
v -6.193218 61.047935 3.615795
v -6.466846 58.175320 3.896751
v -6.374734 50.248310 0.347454
v -7.182074 50.257950 -1.247862
v -8.436430 53.165913 -3.065850
v 0.000000 54.280899 10.182370
v -0.891325 53.782848 10.162942
v -2.105044 51.151226 9.066023
v 1.411490 54.521893 8.364382
v 1.777231 52.896004 9.187072
v 2.281141 54.444775 8.381569
v 3.153502 52.709637 8.525035
v 4.841330 52.439724 7.800231
v 5.811221 52.494350 6.450004
v 2.717322 59.820488 8.927039
v 0.000000 62.905178 7.103820
v -4.871131 59.512020 7.470707
v 3.120992 55.084206 8.518311
v 2.294687 55.392673 8.451807
v 0.850687 55.055286 9.140745
v -1.777231 52.896004 9.187072
v -3.153502 52.709637 8.525035
v -4.245307 50.653175 7.599229
v -4.841330 52.439724 7.800231
v -5.101413 50.604977 6.308032
v -5.811221 52.494350 6.450004
v -5.968355 50.392906 3.392377
v -5.911462 55.132401 5.561558
v -5.280219 56.311653 7.757639
v -4.898223 54.788589 7.306318
v -4.071919 55.389462 8.081933
v 4.245307 50.653175 7.599229
v 5.101413 50.604977 6.308032
v 5.968355 50.392906 3.392377
v 6.374734 50.248310 0.347454
v -3.717014 62.619202 6.400686
v -5.673052 53.590057 6.805680
v -6.515612 53.066303 4.377214
v -6.374734 50.248310 0.347454
v 7.163109 53.779636 -2.317882
vn 0.9436 0.0236 0.3303
vn 0.9756 -0.0551 0.2124
vn 0.9844 0.0315 0.1732
vn 0.8267 0.4094 -0.3858
vn 0.4876 0.0079 -0.8730
vn 0.6279 0.2904 -0.7221
vn -0.1175 -0.2976 0.9474
vn -0.5103 -0.3139 0.8007
vn -0.0000 -0.1259 0.9920
vn -0.9844 0.0315 0.1732
vn -0.9899 0.0079 0.1414
vn 0.5510 -0.0157 0.8344
vn 0.4538 -0.2582 0.8529
vn 0.8091 -0.0864 0.5813
vn -0.2043 -0.3143 0.9271
vn -0.1335 0.0550 0.9895
vn -0.5289 0.1421 0.8367
vn -0.5264 -0.4478 -0.7228
vn 0.8889 -0.0944 0.4484
vn 0.9658 -0.2591 -0.0000
vn 0.9844 0.0315 0.1733
vn 0.8913 -0.1025 0.4417
vn 0.8920 -0.0947 0.4420
vn 0.6379 0.2126 0.7402
vn -0.8267 0.4094 -0.3858
vn -0.4877 0.0078 -0.8730
vn -0.6279 0.2904 -0.7221
vn 0.5263 0.5264 0.6677
vn 0.7856 0.2121 0.5813
vn 0.9166 0.2272 0.3290
vn 0.9559 0.0470 0.2899
vn 0.9899 0.0079 0.1414
vn -0.5261 -0.0628 -0.8481
vn 0.8247 0.0943 0.5576
vn 0.7166 -0.0788 0.6930
vn 0.4722 -0.0157 0.8814
vn -0.0000 0.2758 0.9612
vn -0.2039 0.1098 0.9728
vn 0.2040 0.1098 0.9728
vn -0.1961 -0.0078 0.9806
vn -0.4722 -0.0157 0.8814
vn -0.3385 -0.2834 0.8973
vn -0.6379 0.2126 0.7402
vn -0.5510 -0.0157 0.8344
vn -0.9658 -0.2592 -0.0000
vn -0.8889 -0.0944 0.4484
vn 0.5264 -0.4478 -0.7228
vn -0.8920 -0.0947 0.4420
vn -0.8913 -0.1025 0.4417
vn -0.9844 0.0315 0.1733
vn -0.6190 -0.2507 0.7443
vn -0.0000 -0.1733 0.9849
vn -0.0000 0.3537 0.9354
vn 0.6190 -0.2508 0.7443
vn 0.6764 0.3697 0.6371
vn 0.6284 0.0157 0.7777
vn -0.3545 0.3309 0.8745
vn -0.2040 0.1098 0.9728
vn -0.1174 -0.2975 0.9475
vn 0.1175 -0.2975 0.9475
vn 0.3385 -0.2834 0.8973
vn -0.9166 0.2272 0.3290
vn -0.9559 0.0470 0.2899
vn 0.5261 -0.0628 -0.8481
vn -0.0000 0.5745 0.8185
vn -0.6764 0.3697 0.6371
vn -0.6284 0.0157 0.7777
vn 0.5289 0.1421 0.8367
vn 0.5424 0.2751 0.7938
vn 0.1335 0.0550 0.9895
vn 0.4087 0.0393 0.9118
vn 0.6610 -0.1259 0.7397
vn 0.8906 -0.2128 0.4020
vn 0.3545 0.3309 0.8745
vn -0.0000 0.6063 0.7952
vn -0.7856 0.2121 0.5813
vn 0.1961 -0.0078 0.9806
vn 0.2043 -0.3143 0.9271
vn 0.5102 -0.3139 0.8007
vn -0.5424 0.2751 0.7938
vn -0.4088 0.0393 0.9118
vn -0.6581 -0.1567 0.7364
vn -0.6610 -0.1259 0.7397
vn -0.8721 -0.2436 0.4243
vn -0.8906 -0.2128 0.4020
vn -0.9503 -0.2278 0.2121
vn -0.9436 0.0236 0.3303
vn -0.8091 -0.0864 0.5813
vn -0.7166 -0.0788 0.6930
vn -0.4538 -0.2582 0.8529
vn 0.6581 -0.1567 0.7364
vn 0.8722 -0.2436 0.4243
vn 0.9503 -0.2278 0.2121
vn 0.9659 -0.2591 -0.0000
vn -0.5264 0.5263 0.6678
vn -0.8247 0.0943 0.5576
vn -0.9756 -0.0551 0.2124
vn -0.9658 -0.2591 -0.0000
vn -0.4876 0.0079 -0.8730
vt 0.155304 0.394501
vt 0.120544 0.503387
vt 0.012054 0.386719
vt 0.902100 0.367096
vt 0.898682 0.403442
vt 0.908051 0.383026
vt 0.435364 0.346954
vt 0.443970 0.401428
vt 0.494476 0.379791
vt 0.012115 0.233215
vt 0.012115 0.503876
vt 0.263916 0.290314
vt 0.265228 0.383362
vt 0.213959 0.326843
vt 0.356506 0.384247
vt 0.359009 0.427917
vt 0.399231 0.428741
vt 0.905121 0.636536
vt 0.981812 0.545349
vt 0.872345 0.620270
vt 0.872345 0.420105
vt 0.969116 0.315857
vt 0.987640 0.385742
vt 0.252930 0.224060
vt 0.883118 0.380188
vt 0.252747 0.012756
vt 0.199432 0.127960
vt 0.082092 0.085846
vt 0.066345 0.257263
vt 0.906830 0.416870
vt 0.888550 0.436218
vt 0.883118 0.432770
vt 0.193909 0.467743
vt 0.225677 0.408295
vt 0.268921 0.426544
vt 0.497498 0.125000
vt 0.592987 0.230560
vt 0.402344 0.230560
vt 0.316040 0.394592
vt 0.371338 0.332397
vt 0.443817 0.593567
vt 0.494476 0.581726
vt 0.494476 0.544037
vt 0.449585 0.490814
vt 0.393219 0.607178
vt 0.361206 0.131775
vt 0.555542 0.346954
vt 0.494476 0.472870
vt 0.395813 0.519012
vt 0.320068 0.525330
vt 0.238861 0.530365
vt 0.169281 0.526886
vt 0.497498 0.012756
vt 0.245178 0.641174
vt 0.179138 0.663147
vt 0.099182 0.673737
vt 0.012115 0.683105
s 1
usemtl m_face078
f 61/37/61 62/38/62 63/39/63
f 64/40/64 65/41/65 66/42/66
f 67/43/67 68/44/68 69/45/69
f 70/39/70 71/46/71 72/47/65
f 73/48/72 74/49/73 75/50/74
f 76/51/75 77/52/76 78/53/77
f 79/54/78 80/55/79 81/56/80
f 82/57/81 81/56/80 83/58/82
f 83/58/82 81/56/80 80/55/79
f 83/58/82 80/55/79 84/59/83
f 75/50/74 85/60/84 73/48/72
f 86/61/63 87/40/85 88/41/86
f 88/41/86 87/40/85 89/42/87
f 90/62/88 91/63/89 92/64/90
f 92/64/90 91/63/89 93/65/91
f 92/64/90 93/65/91 94/46/92
f 89/42/87 95/66/93 88/41/86
f 88/41/86 95/66/93 96/67/78
f 88/41/86 96/67/78 97/68/80
f 62/38/62 61/37/61 98/69/94
f 98/69/94 61/37/61 99/70/95
f 98/69/94 99/70/95 100/71/96
f 101/72/97 102/73/98 103/74/99
f 77/52/76 104/75/100 105/71/101
f 106/76/102 107/60/103 108/48/104
f 109/56/105 110/55/106 111/54/107
f 112/59/108 110/55/106 113/58/109
f 113/58/109 110/55/106 109/56/105
f 113/58/109 109/56/105 114/57/110
f 115/77/111 116/78/112 117/79/113
f 117/79/113 116/78/112 118/77/114
f 117/79/113 118/77/114 119/80/115
f 119/80/115 118/77/114 120/81/116
f 65/41/65 64/40/64 121/61/70
f 122/82/117 123/74/118 101/72/97
f 102/73/98 124/83/119 103/74/99
f 103/74/99 124/83/119 125/43/120
f 103/74/99 125/43/120 126/76/121
f 127/64/122 71/46/71 128/65/123
f 129/68/105 130/67/107 65/41/65
f 65/41/65 130/67/107 131/66/124
f 65/41/65 131/66/124 66/42/66
f 119/80/115 132/84/125 117/79/113
f 117/79/113 132/84/125 133/80/126
f 117/79/113 133/80/126 115/77/111
f 115/77/111 133/80/126 134/81/127
f 135/53/128 136/85/129 137/52/130
f 137/52/130 136/85/129 138/86/131
f 137/52/130 138/86/131 100/71/96
f 100/71/96 138/86/131 139/87/132
f 100/71/96 139/87/132 98/69/94
f 98/69/94 139/87/132 140/88/133
f 98/69/94 140/88/133 62/38/62
f 75/50/74 93/65/91 85/60/84
f 85/60/84 93/65/91 91/63/89
f 85/60/84 91/63/89 141/82/134
f 141/82/134 91/63/89 90/62/88
f 141/82/134 90/62/88 142/89/135
f 68/44/68 67/43/67 106/76/102
f 106/76/102 67/43/67 123/74/118
f 106/76/102 123/74/118 107/60/103
f 107/60/103 123/74/118 122/82/117
f 107/60/103 122/82/117 143/63/136
f 144/75/137 74/49/73 145/51/138
f 145/51/138 74/49/73 126/76/121
f 145/51/138 126/76/121 146/44/139
f 146/44/139 126/76/121 125/43/120
f 146/44/139 125/43/120 69/45/69
f 69/45/69 125/43/120 124/83/119
f 133/80/126 147/85/140 134/81/127
f 134/81/127 147/85/140 148/86/141
f 134/81/127 148/86/141 149/90/142
f 149/90/142 148/86/141 150/87/143
f 149/90/142 150/87/143 151/91/144
f 151/91/144 150/87/143 152/88/145
f 151/91/144 152/88/145 153/92/146
f 71/46/71 70/39/70 128/65/123
f 128/65/123 70/39/70 154/37/147
f 128/65/123 154/37/147 155/50/148
f 155/50/148 154/37/147 156/70/149
f 155/50/148 156/70/149 157/49/150
f 135/53/128 119/80/115 136/85/129
f 136/85/129 119/80/115 120/81/116
f 136/85/129 120/81/116 138/86/131
f 138/86/131 120/81/116 158/90/151
f 138/86/131 158/90/151 139/87/132
f 139/87/132 158/90/151 159/91/152
f 139/87/132 159/91/152 140/88/133
f 140/88/133 159/91/152 160/92/153
f 140/88/133 160/92/153 62/38/62
f 62/38/62 160/92/153 161/93/154
f 62/38/62 161/93/154 63/39/63
f 74/49/73 73/48/72 126/76/121
f 126/76/121 73/48/72 85/60/84
f 126/76/121 85/60/84 103/74/99
f 103/74/99 85/60/84 141/82/134
f 103/74/99 141/82/134 101/72/97
f 101/72/97 141/82/134 142/89/135
f 101/72/97 142/89/135 122/82/117
f 122/82/117 142/89/135 162/62/155
f 122/82/117 162/62/155 143/63/136
f 162/62/155 127/64/122 143/63/136
f 143/63/136 127/64/122 128/65/123
f 143/63/136 128/65/123 107/60/103
f 107/60/103 128/65/123 155/50/148
f 107/60/103 155/50/148 108/48/104
f 108/48/104 155/50/148 157/49/150
f 108/48/104 157/49/150 106/76/102
f 106/76/102 157/49/150 76/51/75
f 106/76/102 76/51/75 68/44/68
f 68/44/68 76/51/75 78/53/77
f 77/52/76 76/51/75 104/75/100
f 104/75/100 76/51/75 157/49/150
f 104/75/100 157/49/150 105/71/101
f 105/71/101 157/49/150 156/70/149
f 105/71/101 156/70/149 163/69/156
f 163/69/156 156/70/149 154/37/147
f 163/69/156 154/37/147 164/38/157
f 164/38/157 154/37/147 70/39/70
f 164/38/157 70/39/70 165/93/158
f 165/93/158 153/92/146 164/38/157
f 164/38/157 153/92/146 152/88/145
f 164/38/157 152/88/145 163/69/156
f 163/69/156 152/88/145 150/87/143
f 163/69/156 150/87/143 105/71/101
f 105/71/101 150/87/143 148/86/141
f 105/71/101 148/86/141 77/52/76
f 77/52/76 148/86/141 147/85/140
f 77/52/76 147/85/140 78/53/77
f 78/53/77 147/85/140 133/80/126
f 78/53/77 133/80/126 68/44/68
f 68/44/68 133/80/126 132/84/125
f 68/44/68 132/84/125 69/45/69
f 69/45/69 132/84/125 119/80/115
f 69/45/69 119/80/115 146/44/139
f 146/44/139 119/80/115 135/53/128
f 146/44/139 135/53/128 145/51/138
f 145/51/138 135/53/128 137/52/130
f 145/51/138 137/52/130 144/75/137
f 144/75/137 137/52/130 100/71/96
f 144/75/137 100/71/96 74/49/73
f 74/49/73 100/71/96 99/70/95
f 74/49/73 99/70/95 75/50/74
f 75/50/74 99/70/95 61/37/61
f 75/50/74 61/37/61 93/65/91
f 93/65/91 61/37/61 63/39/63
f 93/65/91 63/39/63 94/46/92
f 94/46/92 63/39/63 166/47/159
