mtllib m_face023.mtl
o editpl_m-0000-157
v 0.000000 48.689899 9.183336
v 0.000000 48.680260 8.599010
v 1.099933 48.799149 8.524288
v 0.000000 47.333920 8.871745
v -1.384398 48.037617 8.708851
v -2.370545 47.128277 7.407941
v 5.131214 49.644226 6.124963
v 5.534884 48.060108 3.627753
v 6.036084 50.553566 4.357786
v -4.529773 47.504223 5.863435
v -5.534884 48.060108 3.627753
v -3.646575 45.884758 4.058152
v -5.754328 47.854462 0.436373
v -4.277817 46.405300 0.283193
v 4.277817 46.405300 0.283193
v 7.163109 53.779636 -2.334321
v 6.285330 50.248310 0.331015
v 1.804323 44.650883 6.355108
v 0.000000 44.499863 7.495366
v 0.000000 44.239594 6.302802
v 0.000000 45.380283 8.196259
v 1.698665 45.515240 7.652282
v 2.863618 45.669476 6.196697
v 4.529773 47.504223 5.863435
v 2.771506 48.876266 7.529737
v 2.370545 47.128277 7.407941
v 5.754328 47.854462 0.436373
v 3.646575 45.884758 4.058152
v 0.000000 44.303856 3.771219
v -1.099933 48.799149 8.524288
v -1.175790 49.326115 9.479236
v -2.771506 48.876266 7.529737
v 0.000000 48.044041 9.190062
v 1.384398 48.037617 8.708851
v 1.809742 51.273327 8.499629
v 0.850687 51.221916 10.642658
v 0.000000 50.241882 9.433655
v 0.000000 50.807411 10.904932
v -0.850687 51.221916 10.642658
v 3.714305 50.685307 7.922028
v 1.175790 49.326115 9.479236
v 0.000000 49.184734 9.893943
v -2.863618 45.669476 6.196697
v 0.000000 48.680260 8.599010
v 0.000000 46.829445 8.227641
v -1.698665 45.515240 7.652282
v -1.804323 44.650883 6.355108
v -1.809742 51.273327 8.499629
v -3.714305 50.685307 7.922028
v -5.131214 49.644226 6.124963
v -6.036084 50.553566 4.357786
v -6.285330 50.248310 0.331015
v -7.163109 53.779636 -2.334321
vn -0.0000 -0.9354 0.3537
vn -0.0000 -0.9999 0.0157
vn 0.3868 -0.3316 0.8605
vn -0.0000 -0.6285 0.7778
vn -0.4791 -0.1021 0.8718
vn -0.5510 -0.3542 0.7556
vn 0.8283 -0.2998 0.4733
vn 0.8817 -0.4251 0.2047
vn 0.9508 -0.2515 0.1808
vn -0.7103 -0.4262 0.5603
vn -0.8817 -0.4251 0.2047
vn -0.6527 -0.7550 0.0629
vn -0.8730 -0.4561 -0.1731
vn -0.6440 -0.6519 -0.4005
vn 0.6440 -0.6518 -0.4005
vn 0.8474 -0.4394 -0.2981
vn 0.9795 -0.1959 0.0470
vn 0.4558 -0.8644 0.2122
vn -0.0000 -0.8404 0.5420
vn -0.0000 -0.9956 0.0940
vn -0.0000 -0.3373 0.9414
vn 0.4954 -0.4010 0.7706
vn 0.7160 -0.5350 0.4485
vn 0.7103 -0.4261 0.5603
vn 0.5499 -0.2357 0.8013
vn 0.5510 -0.3542 0.7556
vn 0.8729 -0.4561 -0.1731
vn 0.6527 -0.7550 0.0629
vn -0.0000 -0.9963 -0.0863
vn -0.3868 -0.3316 0.8605
vn -0.4722 -0.3463 0.8106
vn -0.5499 -0.2357 0.8013
vn -0.0000 0.2351 0.9720
vn 0.4791 -0.1021 0.8718
vn 0.6108 -0.1175 0.7830
vn 0.7299 -0.2511 0.6357
vn -0.0000 -0.7526 0.6585
vn -0.7299 -0.2511 0.6358
vn 0.4549 -0.2745 0.8471
vn 0.4722 -0.3462 0.8106
vn -0.0000 -0.2664 0.9638
vn -0.7160 -0.5350 0.4485
vn -0.0000 0.6832 0.7303
vn -0.0000 -0.2903 0.9569
vn -0.4954 -0.4010 0.7706
vn -0.4558 -0.8644 0.2122
vn -0.6108 -0.1175 0.7830
vn -0.4549 -0.2745 0.8471
vn -0.8283 -0.2998 0.4733
vn -0.9508 -0.2515 0.1808
vn -0.9795 -0.1959 0.0470
vn -0.8474 -0.4394 -0.2981
vt 0.493835 0.750000
vt 0.493835 0.761169
vt 0.437500 0.750000
vt 0.493835 0.843750
vt 0.421875 0.789062
vt 0.375000 0.843750
vt 0.210938 0.757812
vt 0.195312 0.867188
vt 0.140625 0.773438
vt 0.296875 0.828125
vt 0.195312 0.968750
vt 0.109375 0.898438
vt 0.007812 0.992188
vt 0.007812 0.554688
vt 0.054688 0.781250
vt 0.390625 0.960938
vt 0.493835 0.937500
vt 0.493835 0.960938
vt 0.493835 0.898438
vt 0.390625 0.906250
vt 0.312500 0.914062
vt 0.330353 0.737701
vt 0.493835 0.992188
vt 0.437500 0.718750
vt 0.493835 0.786133
vt 0.390625 0.585938
vt 0.453125 0.578125
vt 0.493835 0.640625
vt 0.493835 0.617767
vt 0.289062 0.648438
vt 0.493835 0.726562
vt 0.493835 0.875000
s 1
usemtl m_face093
f 1/1/1 2/2/2 3/3/3
f 4/4/4 5/5/5 6/6/6
f 7/7/7 8/8/8 9/9/9
f 10/10/10 11/8/11 12/11/12
f 12/11/12 11/8/11 13/12/13
f 12/11/12 13/12/13 14/13/14
f 15/13/15 16/14/16 17/15/17
f 18/16/18 19/17/19 20/18/20
f 21/19/21 19/17/19 22/20/22
f 22/20/22 19/17/19 18/16/18
f 22/20/22 18/16/18 23/21/23
f 24/10/24 25/22/25 26/6/26
f 17/15/17 27/12/27 15/13/15
f 15/13/15 27/12/27 28/11/28
f 15/13/15 28/11/28 29/23/29
f 2/2/2 1/1/1 30/3/30
f 30/3/30 1/1/1 31/24/31
f 30/3/30 31/24/31 32/22/32
f 5/5/5 4/4/4 33/25/33
f 33/25/33 4/4/4 34/5/34
f 33/25/33 34/5/34 3/3/3
f 35/26/35 36/27/36 37/28/21
f 37/28/21 36/27/36 38/29/37
f 37/28/21 38/29/37 39/27/38
f 8/8/8 7/7/7 24/10/24
f 24/10/24 7/7/7 40/30/39
f 24/10/24 40/30/39 25/22/25
f 25/22/25 40/30/39 35/26/35
f 25/22/25 35/26/35 41/24/40
f 41/24/40 35/26/35 37/28/21
f 41/24/40 37/28/21 42/31/41
f 12/11/12 43/21/42 10/10/10
f 10/10/10 43/21/42 6/6/6
f 10/10/10 6/6/6 32/22/32
f 32/22/32 6/6/6 5/5/5
f 32/22/32 5/5/5 30/3/30
f 30/3/30 5/5/5 33/25/33
f 30/3/30 33/25/33 44/2/43
f 44/2/43 33/25/33 3/3/3
f 17/15/17 9/9/9 27/12/27
f 27/12/27 9/9/9 8/8/8
f 27/12/27 8/8/8 28/11/28
f 28/11/28 8/8/8 24/10/24
f 28/11/28 24/10/24 23/21/23
f 23/21/23 24/10/24 26/6/26
f 23/21/23 26/6/26 22/20/22
f 22/20/22 26/6/26 45/32/44
f 22/20/22 45/32/44 21/19/21
f 21/19/21 45/32/44 46/20/45
f 21/19/21 46/20/45 19/17/19
f 19/17/19 46/20/45 47/16/46
f 19/17/19 47/16/46 20/18/20
f 20/18/20 47/16/46 29/23/29
f 20/18/20 29/23/29 18/16/18
f 18/16/18 29/23/29 28/11/28
f 18/16/18 28/11/28 23/21/23
f 31/24/31 48/26/47 32/22/32
f 32/22/32 48/26/47 49/30/48
f 32/22/32 49/30/48 10/10/10
f 10/10/10 49/30/48 50/7/49
f 10/10/10 50/7/49 11/8/11
f 11/8/11 50/7/49 51/9/50
f 11/8/11 51/9/50 13/12/13
f 13/12/13 51/9/50 52/15/51
f 13/12/13 52/15/51 14/13/14
f 14/13/14 52/15/51 53/14/52
f 14/13/14 29/23/29 12/11/12
f 12/11/12 29/23/29 47/16/46
f 12/11/12 47/16/46 43/21/42
f 43/21/42 47/16/46 46/20/45
f 43/21/42 46/20/45 6/6/6
f 6/6/6 46/20/45 45/32/44
f 6/6/6 45/32/44 4/4/4
f 4/4/4 45/32/44 26/6/26
f 4/4/4 26/6/26 34/5/34
f 34/5/34 26/6/26 25/22/25
f 34/5/34 25/22/25 3/3/3
f 3/3/3 25/22/25 41/24/40
f 3/3/3 41/24/40 1/1/1
f 1/1/1 41/24/40 42/31/41
f 1/1/1 42/31/41 31/24/31
f 31/24/31 42/31/41 37/28/21
f 31/24/31 37/28/21 48/26/47
f 48/26/47 37/28/21 39/27/38
o editpl_m-0000-158
v 7.824153 56.199192 -1.186590
v 7.163109 53.779636 -2.334321
v 6.756730 55.174175 0.331015
v -4.838621 55.469791 7.760628
v -4.800692 53.872822 7.540945
v -3.402748 54.913902 8.718565
v 7.824153 56.199192 -1.186590
v 6.756730 55.174175 0.331015
v 6.285330 50.248310 0.331015
v 5.369623 56.369492 7.879436
v 2.695648 55.784687 9.538266
v 4.838621 55.469791 7.760628
v 8.590855 55.559761 -2.860364
v 8.436430 53.165913 -3.082289
v 7.184783 50.257950 -1.264301
v 6.285330 50.248310 0.331015
v 8.590855 55.559761 -2.860364
v 8.436430 53.165913 -3.082289
v 7.184783 50.257950 -1.264301
v -7.390682 58.499855 -1.933811
v -7.163109 53.779636 -2.334321
v -6.756730 55.174175 0.331015
v -8.590855 55.559761 -2.860364
v -7.824153 56.199192 -1.186590
v -7.163109 53.779636 -2.334321
v -6.756730 55.174175 0.331015
v -0.850687 51.221916 10.642658
v 0.000000 50.807411 10.904932
v 0.000000 51.517532 11.300960
v -8.436430 53.165913 -3.082289
v -7.184783 50.257950 -1.264301
v -6.285330 50.248310 0.331015
v -2.695648 55.784687 9.538266
v -2.343453 55.588680 8.903876
v -2.327198 53.882462 8.391282
v -6.285330 50.248310 0.331015
v -7.184783 50.257950 -1.264301
v -8.436430 53.165913 -3.082289
v -8.590855 55.559761 -2.860364
v -7.824153 56.199192 -1.186590
v -6.756730 55.174175 0.331015
v 3.714305 50.685307 7.922028
v 5.131214 49.644226 6.124963
v 5.664925 51.286179 6.354359
v 6.036084 50.553566 4.357786
v 6.488520 52.587532 4.765768
v 6.285330 50.248310 0.331015
v 6.756730 55.174175 0.331015
v 0.000000 59.961868 9.533034
v 0.000000 56.028889 10.234675
v 2.717322 60.022923 8.837372
v 5.334403 59.483101 6.973804
v 6.258238 57.895771 3.896751
v -1.389817 54.190929 8.709599
v -0.715227 54.287327 9.553210
v -1.154117 55.007088 9.513608
v 0.000000 54.512253 10.073277
v 1.154117 55.007088 9.513608
v 2.343453 55.588680 8.903876
v 3.402748 54.913902 8.718565
v 6.225728 54.952461 4.598391
v 5.784129 54.602222 6.376776
v 5.995447 53.120926 6.376029
v 4.800692 53.872822 7.540945
v 4.101720 52.320835 8.046814
v 2.327198 53.882462 8.391282
v 1.625516 52.706421 8.872492
v 1.389817 54.190929 8.709599
v 0.604150 53.165913 10.138284
v 0.715227 54.287327 9.553210
v 0.000000 53.349068 10.584375
v -6.285330 50.248310 0.331015
v -6.488520 52.587532 4.765768
v -6.036084 50.553566 4.357786
v -5.664925 51.286179 6.354359
v -5.131214 49.644226 6.124963
v -3.714305 50.685307 7.922028
v 0.000000 62.905178 7.103820
v -3.717014 62.619202 6.400686
v -2.717322 60.022923 8.837372
v -5.334403 59.483101 6.973804
v -5.369623 56.369492 7.879436
v -5.784129 54.602222 6.376776
v 1.809742 51.273327 8.499629
v 0.850687 51.221916 10.642658
v -0.604150 53.165913 10.138284
v -1.809742 51.273327 8.499629
v -1.625516 52.706421 8.872492
v -4.101720 52.320835 8.046814
v -5.995447 53.120926 6.376029
v -6.225728 54.952461 4.598391
v -6.258238 57.895771 3.896751
v -6.193218 61.047935 3.615795
v 3.717014 62.619202 6.400686
v 6.193218 61.047935 3.615795
v 7.390682 58.499855 -1.933811
v 7.163109 53.779636 -2.334321
vn -0.8031 0.4173 -0.4252
vn -0.7550 0.1180 -0.6450
vn -0.8556 0.3925 -0.3375
vn -0.5745 -0.3148 0.7555
vn -0.5898 -0.0943 0.8020
vn -0.3385 -0.1496 0.9290
vn 0.8725 -0.0943 0.4795
vn 0.9803 -0.0235 0.1961
vn 0.9795 -0.1959 0.0470
vn 0.8319 -0.0785 0.5494
vn 0.4561 -0.3853 0.8022
vn 0.5745 -0.3148 0.7555
vn -0.6279 0.2904 -0.7221
vn -0.5261 -0.0628 -0.8481
vn -0.7353 -0.1977 -0.6483
vn -0.8615 -0.1488 -0.4855
vn 0.8920 -0.0947 0.4420
vn 0.8814 -0.0866 0.4643
vn 0.8713 -0.0628 0.4867
vn -0.9832 -0.0236 0.1809
vn -0.9815 -0.0628 0.1807
vn -0.9803 -0.0235 0.1960
vn 0.6279 0.2904 -0.7221
vn 0.8031 0.4173 -0.4252
vn 0.7551 0.1180 -0.6450
vn 0.8556 0.3925 -0.3375
vn -0.7299 -0.2511 0.6358
vn -0.0000 -0.7526 0.6585
vn -0.0000 -0.1018 0.9948
vn -0.8814 -0.0866 0.4643
vn -0.8713 -0.0628 0.4867
vn -0.9795 -0.1959 0.0470
vn -0.4561 -0.3853 0.8022
vn -0.3545 -0.5278 0.7719
vn -0.2598 -0.1023 0.9602
vn 0.8615 -0.1488 -0.4855
vn 0.7353 -0.1976 -0.6483
vn 0.5261 -0.0628 -0.8481
vn -0.8920 -0.0947 0.4420
vn -0.8725 -0.0943 0.4795
vn -0.9803 -0.0235 0.1961
vn 0.4550 -0.2745 0.8471
vn 0.8283 -0.2998 0.4733
vn 0.8188 -0.2441 0.5196
vn 0.9508 -0.2515 0.1807
vn 0.9798 -0.0862 0.1803
vn 0.9803 -0.0235 0.1960
vn -0.0000 0.4155 0.9096
vn -0.0000 -0.0472 0.9989
vn 0.3545 0.3702 0.8586
vn 0.7754 0.2506 0.5796
vn 0.9788 0.0235 0.2036
vn -0.6205 -0.1021 0.7776
vn -0.6826 0.0392 0.7297
vn -0.5285 -0.4654 0.7100
vn -0.0000 -0.0157 0.9999
vn 0.5285 -0.4654 0.7100
vn 0.3545 -0.5278 0.7719
vn 0.3385 -0.1496 0.9290
vn 0.9763 0.0709 0.2047
vn 0.8520 -0.0552 0.5206
vn 0.8554 -0.0000 0.5180
vn 0.5898 -0.0943 0.8020
vn 0.5119 -0.0315 0.8585
vn 0.2598 -0.1023 0.9602
vn 0.4876 0.0157 0.8729
vn 0.6205 -0.1021 0.7776
vn 0.7603 0.1960 0.6193
vn 0.6826 0.0392 0.7297
vn -0.0000 0.3768 0.9263
vn -0.9798 -0.0862 0.1803
vn -0.9508 -0.2515 0.1807
vn -0.8188 -0.2441 0.5196
vn -0.8283 -0.2998 0.4733
vn -0.4550 -0.2745 0.8471
vn -0.0000 0.6371 0.7708
vn -0.5409 0.5331 0.6506
vn -0.3545 0.3702 0.8586
vn -0.7754 0.2506 0.5796
vn -0.8319 -0.0785 0.5494
vn -0.8520 -0.0552 0.5206
vn 0.6108 -0.1175 0.7831
vn 0.7299 -0.2511 0.6357
vn -0.7603 0.1960 0.6193
vn -0.6108 -0.1175 0.7831
vn -0.4876 0.0157 0.8729
vn -0.5119 -0.0315 0.8585
vn -0.8554 -0.0000 0.5180
vn -0.9763 0.0709 0.2047
vn -0.9788 0.0235 0.2036
vn -0.9355 0.1886 0.2987
vn 0.5409 0.5331 0.6506
vn 0.9355 0.1886 0.2987
vn 0.9832 -0.0236 0.1809
vn 0.9815 -0.0628 0.1807
vt 0.948242 0.328125
vt 0.976562 0.460938
vt 0.880859 0.406250
vt 0.238281 0.337219
vt 0.220032 0.433594
vt 0.303558 0.380554
vt 0.858398 0.632812
vt 0.175201 0.274536
vt 0.349823 0.293396
vt 0.992188 0.330353
vt 0.996643 0.521179
vt 0.921875 0.632812
vt 0.040771 0.167511
vt 0.007812 0.554688
vt 0.054688 0.421875
vt 0.453125 0.578125
vt 0.493835 0.617767
vt 0.493835 0.582764
vt 0.360229 0.340271
vt 0.369141 0.433594
vt 0.289062 0.648438
vt 0.210938 0.757812
vt 0.179688 0.617188
vt 0.140625 0.773438
vt 0.101562 0.578125
vt 0.054688 0.781250
vt 0.500000 0.101562
vt 0.507812 0.289062
vt 0.359375 0.101562
vt 0.203125 0.109375
vt 0.090271 0.176208
vt 0.410156 0.414062
vt 0.454224 0.392853
vt 0.424103 0.333679
vt 0.493317 0.377655
vt 0.093750 0.398438
vt 0.158569 0.399994
vt 0.164062 0.484375
vt 0.273438 0.507812
vt 0.406250 0.484375
vt 0.468750 0.476562
vt 0.493408 0.468109
vt 0.500000 0.054688
vt 0.234375 0.054688
vt 0.390625 0.585938
vt 0.062500 0.054688
s 1
usemtl m_face093
f 54/33/53 55/34/54 56/35/55
f 57/36/56 58/37/57 59/38/58
f 60/33/59 61/35/60 62/39/61
f 63/40/62 64/41/63 65/36/64
f 55/34/54 54/33/53 66/42/65
f 66/42/65 67/43/66 55/34/54
f 55/34/54 67/43/66 68/44/67
f 55/34/54 68/44/67 69/39/68
f 70/42/69 60/33/59 71/43/70
f 71/43/70 60/33/59 62/39/61
f 71/43/70 62/39/61 72/44/71
f 73/45/72 74/46/73 75/47/74
f 76/42/75 77/33/76 78/34/77
f 78/34/77 77/33/76 79/35/78
f 80/48/79 81/49/80 82/50/81
f 83/43/82 84/44/83 85/39/84
f 86/41/85 57/36/56 87/51/86
f 87/51/86 57/36/56 59/38/58
f 87/51/86 59/38/58 88/52/87
f 88/52/87 59/38/58 58/37/57
f 89/39/88 90/44/89 78/34/77
f 78/34/77 90/44/89 91/43/90
f 78/34/77 91/43/90 76/42/75
f 92/42/91 83/43/82 93/33/92
f 93/33/92 83/43/82 85/39/84
f 93/33/92 85/39/84 94/35/93
f 95/53/94 96/54/95 97/55/96
f 97/55/96 96/54/95 98/56/97
f 97/55/96 98/56/97 99/57/98
f 99/57/98 98/56/97 100/58/61
f 99/57/98 100/58/61 101/47/99
f 102/59/100 103/60/101 104/61/102
f 104/61/102 103/60/101 64/41/63
f 104/61/102 64/41/63 105/62/103
f 105/62/103 64/41/63 63/40/62
f 105/62/103 63/40/62 106/63/104
f 107/64/105 108/65/106 109/66/107
f 109/66/107 108/65/106 110/67/108
f 109/66/107 110/67/108 103/60/101
f 103/60/101 110/67/108 111/66/109
f 103/60/101 111/66/109 64/41/63
f 64/41/63 111/66/109 112/51/110
f 64/41/63 112/51/110 65/36/64
f 65/36/64 112/51/110 113/38/111
f 114/68/112 115/69/113 116/70/114
f 116/70/114 115/69/113 117/37/115
f 116/70/114 117/37/115 118/71/116
f 118/71/116 117/37/115 119/52/117
f 118/71/116 119/52/117 120/72/118
f 120/72/118 119/52/117 121/64/119
f 120/72/118 121/64/119 122/73/120
f 122/73/120 121/64/119 123/65/121
f 122/73/120 123/65/121 124/74/122
f 75/47/74 125/58/84 126/57/123
f 126/57/123 125/58/84 127/56/124
f 126/57/123 127/56/124 128/55/125
f 128/55/125 127/56/124 129/54/126
f 128/55/125 129/54/126 130/53/127
f 131/75/128 132/76/129 133/61/130
f 133/61/130 132/76/129 134/62/131
f 133/61/130 134/62/131 86/41/85
f 86/41/85 134/62/131 135/40/132
f 86/41/85 135/40/132 57/36/56
f 57/36/56 135/40/132 136/69/133
f 57/36/56 136/69/133 58/37/57
f 101/47/99 114/68/112 99/57/98
f 99/57/98 114/68/112 116/70/114
f 99/57/98 116/70/114 97/55/96
f 97/55/96 116/70/114 118/71/116
f 97/55/96 118/71/116 95/53/94
f 95/53/94 118/71/116 120/72/118
f 95/53/94 120/72/118 137/77/134
f 137/77/134 120/72/118 122/73/120
f 137/77/134 122/73/120 138/48/135
f 138/48/135 122/73/120 124/74/122
f 81/49/80 138/48/135 82/50/81
f 82/50/81 138/48/135 124/74/122
f 82/50/81 124/74/122 80/48/79
f 80/48/79 124/74/122 139/73/136
f 80/48/79 139/73/136 140/77/137
f 140/77/137 139/73/136 141/72/138
f 140/77/137 141/72/138 130/53/127
f 130/53/127 141/72/138 142/71/139
f 130/53/127 142/71/139 128/55/125
f 128/55/125 142/71/139 143/70/140
f 128/55/125 143/70/140 126/57/123
f 126/57/123 143/70/140 144/68/141
f 126/57/123 144/68/141 75/47/74
f 75/47/74 144/68/141 145/63/142
f 75/47/74 145/63/142 73/45/72
f 73/45/72 145/63/142 146/78/143
f 88/52/87 107/64/105 87/51/86
f 87/51/86 107/64/105 109/66/107
f 87/51/86 109/66/107 86/41/85
f 86/41/85 109/66/107 103/60/101
f 86/41/85 103/60/101 133/61/130
f 133/61/130 103/60/101 102/59/100
f 133/61/130 102/59/100 131/75/128
f 131/75/128 102/59/100 104/61/102
f 131/75/128 104/61/102 147/76/144
f 147/76/144 104/61/102 105/62/103
f 147/76/144 105/62/103 148/78/145
f 148/78/145 105/62/103 106/63/104
f 148/78/145 106/63/104 149/45/146
f 132/76/129 146/78/143 134/62/131
f 134/62/131 146/78/143 145/63/142
f 134/62/131 145/63/142 135/40/132
f 135/40/132 145/63/142 144/68/141
f 135/40/132 144/68/141 136/69/133
f 136/69/133 144/68/141 143/70/140
f 136/69/133 143/70/140 58/37/57
f 58/37/57 143/70/140 142/71/139
f 58/37/57 142/71/139 88/52/87
f 88/52/87 142/71/139 141/72/138
f 88/52/87 141/72/138 107/64/105
f 107/64/105 141/72/138 139/73/136
f 107/64/105 139/73/136 108/65/106
f 108/65/106 139/73/136 124/74/122
f 108/65/106 124/74/122 110/67/108
f 110/67/108 124/74/122 123/65/121
f 110/67/108 123/65/121 111/66/109
f 111/66/109 123/65/121 121/64/119
f 111/66/109 121/64/119 112/51/110
f 112/51/110 121/64/119 119/52/117
f 112/51/110 119/52/117 113/38/111
f 113/38/111 119/52/117 117/37/115
f 113/38/111 117/37/115 65/36/64
f 65/36/64 117/37/115 115/69/113
f 65/36/64 115/69/113 63/40/62
f 63/40/62 115/69/113 114/68/112
f 63/40/62 114/68/112 106/63/104
f 106/63/104 114/68/112 101/47/99
f 106/63/104 101/47/99 149/45/146
f 149/45/146 101/47/99 150/46/147
