mtllib m_face022.mtl
o editpl_m-0000-103
v 1.316668 49.364674 9.627185
v 0.000000 50.193684 9.923084
v 0.000000 49.403233 10.111384
v -4.199251 46.405300 0.298884
v -6.000865 48.278606 1.073005
v -7.163109 53.779636 -2.317882
v 0.907580 48.734882 9.077231
v 2.801307 48.442482 8.258277
v 1.286867 45.319233 8.371855
v 2.332616 45.579502 7.877943
v 1.991258 46.646294 8.046067
v 1.872053 50.810623 8.835879
v 0.000000 44.303856 3.787658
v 3.118282 45.361004 5.374007
v 1.736593 44.525566 7.181533
v 1.793487 50.884525 8.870252
v 0.923835 51.389004 10.886252
v 0.000000 50.836330 11.044662
v 0.000000 46.675213 8.665512
v 0.000000 47.411037 9.239378
v -1.991258 46.646294 8.046067
v -5.112249 46.575600 2.843917
v -3.118282 45.361004 5.374007
v -6.512903 50.248310 0.347454
v -5.591777 47.957287 2.637684
v -5.984610 50.029812 3.219022
v 5.984610 50.029812 3.219022
v 5.591777 47.957287 2.637684
v 6.512903 50.248310 0.347454
v 6.000865 48.278606 1.073005
v 7.163109 53.779636 -2.317882
v 0.000000 48.895546 9.730302
v -1.316668 49.364674 9.627185
v -1.872053 50.810623 8.835879
v -4.134230 48.076176 6.837064
v -2.996369 46.575600 7.224124
v -2.801307 48.442482 8.258277
v -1.560496 48.172569 9.043606
v 0.000000 48.111519 9.490444
v 0.000000 44.265297 7.588021
v -1.736593 44.525566 7.181533
v 0.000000 51.681404 11.380164
v -0.923835 51.389004 10.886252
v -1.793487 50.884525 8.870252
v 0.000000 45.261395 8.647579
v -1.286867 45.319233 8.371855
v -2.332616 45.579502 7.877943
v -4.012316 46.537045 5.388204
v 2.996369 46.575600 7.224124
v 4.134230 48.076176 6.837064
v 4.012316 46.537045 5.388204
v 5.112249 46.575600 2.843917
v 4.199251 46.405300 0.298884
v -0.907580 48.734882 9.077231
v 0.000000 48.712391 9.372383
v 1.560496 48.172569 9.043606
vn 0.4162 -0.2591 0.8716
vn -0.0000 -0.2352 0.9720
vn -0.0000 -0.2036 0.9791
vn -0.6504 -0.7053 -0.2821
vn -0.9127 -0.3934 -0.1102
vn 0.2362 -0.0789 -0.9685
vn 0.3365 -0.3991 0.8530
vn 0.5557 -0.2035 0.8061
vn 0.3303 -0.3775 0.8651
vn 0.7063 -0.3688 0.6043
vn 0.4570 -0.2364 0.8575
vn 0.4337 0.0631 0.8989
vn -0.0000 -0.9956 -0.0941
vn 0.6359 -0.7615 0.1256
vn 0.4247 -0.8573 0.2910
vn 0.6990 -0.0236 0.7147
vn 0.7156 -0.0943 0.6921
vn -0.0000 -0.6417 0.7669
vn -0.0000 -0.1886 0.9821
vn -0.0000 -0.4783 0.8782
vn -0.4565 -0.2361 0.8578
vn -0.7541 -0.6520 0.0785
vn -0.6359 -0.7615 0.1256
vn -0.9575 -0.2041 0.2040
vn -0.9261 -0.2668 0.2668
vn -0.9428 -0.2357 0.2357
vn 0.9428 -0.2357 0.2357
vn 0.9261 -0.2668 0.2668
vn 0.9575 -0.2041 0.2040
vn 0.9127 -0.3934 -0.1102
vn -0.2362 -0.0787 -0.9685
vn -0.0000 -0.7708 0.6371
vn -0.4162 -0.2591 0.8716
vn -0.4337 0.0631 0.8989
vn -0.7876 -0.3308 0.5198
vn -0.7158 -0.2675 0.6450
vn -0.5557 -0.2035 0.8061
vn -0.3765 -0.0392 0.9256
vn -0.0000 -0.0707 0.9975
vn -0.0000 -0.8897 0.4566
vn -0.4247 -0.8573 0.2910
vn -0.0000 0.0863 0.9963
vn -0.7157 -0.0943 0.6921
vn -0.6990 -0.0236 0.7147
vn -0.0000 -0.3996 0.9167
vn -0.3303 -0.3775 0.8651
vn -0.7063 -0.3688 0.6043
vn -0.8290 -0.4185 0.3711
vn 0.7158 -0.2675 0.6450
vn 0.7876 -0.3308 0.5198
vn 0.8290 -0.4185 0.3711
vn 0.7541 -0.6520 0.0785
vn 0.6504 -0.7053 -0.2821
vn -0.3365 -0.3991 0.8530
vn -0.0000 -0.1734 0.9849
vn 0.3765 -0.0392 0.9256
vt 0.437347 0.758728
vt 0.499268 0.675140
vt 0.498718 0.763885
vt 0.011536 0.987732
vt 0.066284 0.877411
vt 0.011536 0.504211
vt 0.452423 0.788757
vt 0.355896 0.793427
vt 0.426758 0.965393
vt 0.347046 0.936188
vt 0.389832 0.900208
vt 0.391876 0.664856
vt 0.495331 0.987732
vt 0.298828 0.971222
vt 0.368408 0.979950
vt 0.401215 0.660126
vt 0.443359 0.619659
vt 0.499268 0.641968
vt 0.495331 0.896393
vt 0.498718 0.867462
vt 0.156464 0.933228
vt 0.011536 0.636139
vt 0.161346 0.777802
vt 0.094849 0.690247
vt 0.498718 0.779297
vt 0.285278 0.821808
vt 0.320190 0.911499
vt 0.416199 0.835419
vt 0.498718 0.837646
vt 0.495331 0.980072
vt 0.499268 0.599518
vt 0.495331 0.967133
vt 0.237640 0.890747
vt 0.498718 0.784973
s 1
usemtl m_face066
f 1/1/1 2/2/2 3/3/3
f 4/4/4 5/5/5 6/6/6
f 1/1/1 7/7/7 8/8/8
f 9/9/9 10/10/10 11/11/11
f 2/2/2 1/1/1 12/12/12
f 13/13/13 14/14/14 15/15/15
f 15/15/15 14/14/14 10/10/10
f 12/12/12 16/16/16 2/2/2
f 2/2/2 16/16/16 17/17/17
f 2/2/2 17/17/17 18/18/18
f 19/19/19 20/20/20 21/11/21
f 5/5/5 4/4/4 22/21/22
f 22/21/22 4/4/4 13/13/13
f 22/21/22 13/13/13 23/14/23
f 24/22/24 25/23/25 26/24/26
f 27/24/27 28/23/28 29/22/29
f 29/22/29 28/23/28 30/5/30
f 29/22/29 30/5/30 31/6/31
f 7/7/7 1/1/1 32/25/32
f 32/25/32 1/1/1 3/3/3
f 32/25/32 3/3/3 33/1/33
f 33/1/33 3/3/3 2/2/2
f 33/1/33 2/2/2 34/12/34
f 35/26/35 36/27/36 37/8/37
f 37/8/37 36/27/36 21/11/21
f 37/8/37 21/11/21 38/28/38
f 38/28/38 21/11/21 20/20/20
f 38/28/38 20/20/20 39/29/39
f 10/10/10 9/9/9 15/15/15
f 15/15/15 9/9/9 40/30/40
f 15/15/15 40/30/40 13/13/13
f 13/13/13 40/30/40 41/15/41
f 13/13/13 41/15/41 23/14/23
f 17/17/17 42/31/42 18/18/18
f 18/18/18 42/31/42 43/17/43
f 18/18/18 43/17/43 2/2/2
f 2/2/2 43/17/43 44/16/44
f 2/2/2 44/16/44 34/12/34
f 45/32/45 19/19/19 46/9/46
f 46/9/46 19/19/19 21/11/21
f 46/9/46 21/11/21 47/10/47
f 47/10/47 21/11/21 36/27/36
f 47/10/47 36/27/36 48/33/48
f 48/33/48 36/27/36 35/26/35
f 48/33/48 35/26/35 25/23/25
f 8/8/8 49/27/49 50/26/50
f 50/26/50 49/27/49 51/33/51
f 50/26/50 51/33/51 28/23/28
f 28/23/28 51/33/51 52/21/52
f 28/23/28 52/21/52 30/5/30
f 30/5/30 52/21/52 53/4/53
f 30/5/30 53/4/53 31/6/31
f 33/1/33 54/7/54 32/25/32
f 32/25/32 54/7/54 55/34/55
f 32/25/32 55/34/55 7/7/7
f 7/7/7 55/34/55 56/28/56
f 7/7/7 56/28/56 8/8/8
f 8/8/8 56/28/56 11/11/11
f 8/8/8 11/11/11 49/27/49
f 49/27/49 11/11/11 10/10/10
f 49/27/49 10/10/10 51/33/51
f 51/33/51 10/10/10 14/14/14
f 51/33/51 14/14/14 52/21/52
f 52/21/52 14/14/14 13/13/13
f 52/21/52 13/13/13 53/4/53
f 33/1/33 37/8/37 54/7/54
f 54/7/54 37/8/37 38/28/38
f 54/7/54 38/28/38 55/34/55
f 55/34/55 38/28/38 39/29/39
f 55/34/55 39/29/39 56/28/56
f 56/28/56 39/29/39 20/20/20
f 56/28/56 20/20/20 11/11/11
f 11/11/11 20/20/20 19/19/19
f 11/11/11 19/19/19 9/9/9
f 9/9/9 19/19/19 45/32/45
f 9/9/9 45/32/45 40/30/40
f 40/30/40 45/32/45 46/9/46
f 40/30/40 46/9/46 41/15/41
f 41/15/41 46/9/46 47/10/47
f 41/15/41 47/10/47 23/14/23
f 23/14/23 47/10/47 48/33/48
f 23/14/23 48/33/48 22/21/22
f 22/21/22 48/33/48 25/23/25
f 22/21/22 25/23/25 5/5/5
f 5/5/5 25/23/25 24/22/24
f 5/5/5 24/22/24 6/6/6
o editpl_m-0000-104
v 7.390682 58.499855 -1.933811
v 6.927409 55.174175 0.347454
v 7.163109 53.779636 -2.317882
v -5.272092 59.283878 7.053758
v -6.193218 61.047935 3.615795
v -6.466846 58.175320 3.896751
v -7.824153 56.199192 -1.170151
v -7.163109 53.779636 -2.317882
v -8.590855 55.559761 -2.843925
v 2.801307 48.442482 8.258277
v 1.872053 50.810623 8.835879
v 1.316668 49.364674 9.627185
v 3.985225 56.147778 9.063034
v 2.359708 55.280209 8.598263
v 4.107138 55.232014 8.224652
v -4.107138 55.232014 8.224652
v -4.928024 54.676125 7.235332
v -4.177577 53.991711 7.936225
v 7.824153 56.199192 -1.170151
v 8.574599 53.165913 -3.065850
v 8.590855 55.559761 -2.843925
v 7.255222 49.923775 -1.247862
v 6.512903 50.248310 0.347454
v 6.927409 55.174175 0.347454
v 6.927409 55.174175 0.347454
v 7.824153 56.199192 -1.170151
v 7.163109 53.779636 -2.317882
v 8.590855 55.559761 -2.843925
v 1.639062 52.442940 8.821681
v 3.194140 52.259785 8.489916
v 2.338035 53.956364 8.347944
v 4.995754 56.003185 8.117052
v 4.928024 54.676125 7.235332
v 5.957518 54.782162 5.561558
v 6.466846 58.175320 3.896751
v 3.183303 54.817509 8.548946
v 4.177577 53.991711 7.936225
v 4.686906 52.304771 7.834603
v 8.574599 53.165913 -3.065850
v 7.255222 49.923775 -1.247862
v 6.512903 50.248310 0.347454
v 0.804631 54.807865 9.223686
v 1.186627 54.393360 8.270980
v -3.717014 62.619202 6.400686
v -6.512903 50.248310 0.347454
v -8.574599 53.165913 -3.065850
v -7.255222 49.923775 -1.247862
v -8.590855 55.559761 -2.843925
v -7.824153 56.199192 -1.170151
v -6.927409 55.174175 0.347454
v -2.338035 53.956364 8.347944
v -1.186627 54.393360 8.270980
v -2.359708 55.280209 8.598263
v -6.927409 55.174175 0.347454
v -5.754328 52.417233 6.056966
v -4.686906 52.304771 7.834603
v -5.957518 54.782162 5.561558
v -0.804631 54.807865 9.223686
v 0.000000 54.740391 9.615977
v 0.000000 55.418381 9.578616
v 2.405764 55.611172 9.197534
v -7.163109 53.779636 -2.317882
v -6.927409 55.174175 0.347454
v -7.390682 58.499855 -1.933811
v -6.512903 50.248310 0.347454
v -7.255222 49.923775 -1.247862
v -8.574599 53.165913 -3.065850
v -3.183303 54.817509 8.548946
v -3.985225 56.147778 9.063034
v 0.000000 57.265980 9.618965
v 0.000000 56.099583 9.985851
v 2.151100 57.249912 9.305132
v 4.624594 57.728683 8.161139
v 6.385571 52.690357 4.377214
v 6.512903 50.248310 0.347454
v -6.385571 52.690357 4.377214
v -1.316668 49.364674 9.627185
v -1.872053 50.810623 8.835879
v -2.801307 48.442482 8.258277
v -3.825382 50.290081 8.006464
v -4.134230 48.076176 6.837064
v -5.033683 50.042664 6.388731
v -5.591777 47.957287 2.637684
v -5.984610 50.029812 3.219022
v 3.825382 50.290081 8.006464
v 4.134230 48.076176 6.837064
v 5.033683 50.042664 6.388731
v 5.591777 47.957287 2.637684
v 5.984610 50.029812 3.219022
v -2.405764 55.611172 9.197534
v 5.754328 52.417233 6.056966
v 1.793487 50.884525 8.870252
v 0.620405 52.976334 9.885723
v 0.923835 51.389004 10.886252
v 0.000000 53.204472 10.304914
v -4.995754 56.003185 8.117052
v -4.624594 57.728683 8.161139
v -2.151100 57.249912 9.305132
v -2.717322 59.820488 8.927039
v 0.000000 59.762650 9.333527
v 0.000000 62.905178 7.103820
v 2.717322 59.820488 8.927039
v 3.717014 62.619202 6.400686
v 5.272092 59.283878 7.053758
v 6.193218 61.047935 3.615795
v -1.639062 52.442940 8.821681
v -0.620405 52.976334 9.885723
v -6.512903 50.248310 0.347454
v -3.194140 52.259785 8.489916
v -1.793487 50.884525 8.870252
v -0.923835 51.389004 10.886252
v 0.000000 51.681404 11.380164
vn 0.9899 -0.0000 0.1414
vn 0.9830 0.0314 0.1809
vn -0.2363 -0.0787 -0.9685
vn -0.8075 0.2352 0.5409
vn -0.9235 0.2289 0.3078
vn -0.9608 0.0315 0.2756
vn 0.8242 0.4082 -0.3925
vn 0.2362 -0.0787 -0.9685
vn 0.6187 0.2741 -0.7362
vn 0.5557 -0.2035 0.8061
vn 0.4337 0.0631 0.8989
vn 0.4162 -0.2591 0.8716
vn 0.4023 -0.2918 0.8677
vn 0.2202 -0.5191 0.8258
vn 0.4568 -0.3072 0.8348
vn -0.4568 -0.3072 0.8348
vn -0.7328 -0.1576 0.6619
vn -0.4466 -0.0548 0.8931
vn 0.8879 -0.0629 0.4557
vn 0.8917 -0.0782 0.4458
vn 0.9045 -0.0393 0.4247
vn -0.5188 -0.4559 -0.7232
vn 0.9575 -0.2040 0.2041
vn 0.9830 0.0315 0.1809
vn -0.8242 0.4082 -0.3925
vn -0.2362 -0.0787 -0.9685
vn -0.6187 0.2741 -0.7362
vn 0.5262 0.1728 0.8326
vn 0.3064 0.0471 0.9507
vn 0.0863 -0.0157 0.9961
vn 0.7868 -0.1810 0.5901
vn 0.7328 -0.1576 0.6619
vn 0.9258 -0.0314 0.3766
vn 0.9608 0.0315 0.2756
vn 0.1959 -0.1332 0.9715
vn 0.4466 -0.0548 0.8931
vn 0.7066 -0.0393 0.7066
vn -0.4957 -0.0708 -0.8656
vn -0.5188 -0.4559 -0.7231
vn 0.6211 -0.1808 0.7626
vn 0.4251 -0.1181 0.8974
vn -0.5426 0.5190 0.6605
vn -0.9575 -0.2040 0.2041
vn -0.8917 -0.0782 0.4458
vn 0.5188 -0.4559 -0.7231
vn -0.9045 -0.0393 0.4247
vn -0.8879 -0.0629 0.4557
vn -0.9830 0.0315 0.1809
vn -0.0863 -0.0157 0.9961
vn -0.4251 -0.1181 0.8974
vn -0.2202 -0.5191 0.8258
vn -0.9830 0.0314 0.1809
vn -0.9101 -0.1334 0.3923
vn -0.7065 -0.0393 0.7066
vn -0.9258 -0.0314 0.3766
vn -0.6211 -0.1808 0.7626
vn -0.0000 0.1961 0.9806
vn -0.0000 -0.2737 0.9618
vn 0.2752 -0.6054 0.7469
vn 0.2363 -0.0787 -0.9685
vn -0.9899 -0.0000 0.1414
vn 0.5188 -0.4559 -0.7232
vn 0.4957 -0.0708 -0.8656
vn -0.1959 -0.1332 0.9715
vn -0.4023 -0.2918 0.8677
vn -0.0000 0.2037 0.9790
vn -0.0000 -0.1173 0.9931
vn 0.2349 0.1801 0.9552
vn 0.6825 0.1569 0.7138
vn 0.9711 -0.0940 0.2193
vn 0.9575 -0.2040 0.2040
vn -0.9711 -0.0940 0.2193
vn -0.4161 -0.2591 0.8716
vn -0.4337 0.0631 0.8989
vn -0.5557 -0.2035 0.8061
vn -0.5733 -0.1728 0.8010
vn -0.7876 -0.3308 0.5198
vn -0.8656 -0.2518 0.4328
vn -0.9261 -0.2668 0.2669
vn -0.9428 -0.2357 0.2357
vn 0.5733 -0.1728 0.8010
vn 0.7876 -0.3308 0.5198
vn 0.8656 -0.2518 0.4328
vn 0.9261 -0.2668 0.2669
vn 0.9428 -0.2357 0.2357
vn -0.2752 -0.6054 0.7469
vn 0.9101 -0.1334 0.3923
vn 0.6990 -0.0235 0.7147
vn 0.7221 0.2904 0.6279
vn 0.7156 -0.0944 0.6921
vn -0.0000 0.5180 0.8554
vn -0.7868 -0.1810 0.5901
vn -0.6825 0.1569 0.7138
vn -0.2349 0.1801 0.9552
vn -0.3609 0.3531 0.8632
vn -0.0000 0.2758 0.9612
vn -0.0000 0.6063 0.7952
vn 0.3609 0.3531 0.8632
vn 0.5426 0.5190 0.6605
vn 0.8075 0.2352 0.5409
vn 0.9235 0.2289 0.3078
vn -0.5262 0.1728 0.8326
vn -0.7221 0.2904 0.6279
vn -0.9575 -0.2040 0.2040
vn -0.3065 0.0471 0.9507
vn -0.6990 -0.0235 0.7147
vn -0.7156 -0.0944 0.6921
vn -0.0000 0.0863 0.9963
vt 0.011841 0.216431
vt 0.011780 0.377838
vt 0.005981 0.504211
vt 0.194763 0.122559
vt 0.079041 0.012085
vt 0.081116 0.168243
vt 0.901703 0.367096
vt 0.898254 0.403442
vt 0.907623 0.383026
vt 0.355896 0.793427
vt 0.391876 0.664856
vt 0.437347 0.758728
vt 0.255402 0.311432
vt 0.340607 0.383392
vt 0.254150 0.383942
vt 0.202789 0.424072
vt 0.253937 0.469849
vt 0.968719 0.310669
vt 0.980835 0.545898
vt 0.986664 0.386261
vt 0.904724 0.636536
vt 0.879181 0.620270
vt 0.879181 0.372437
vt 0.882690 0.380188
vt 0.399323 0.575317
vt 0.324921 0.583801
vt 0.355377 0.469818
vt 0.196625 0.322845
vt 0.099274 0.387939
vt 0.306396 0.404816
vt 0.228424 0.578308
vt 0.906403 0.416870
vt 0.888123 0.436218
vt 0.882690 0.432770
vt 0.440613 0.424133
vt 0.420868 0.441650
vt 0.303650 0.012085
vt 0.141357 0.569244
vt 0.495605 0.417236
vt 0.495605 0.362366
vt 0.354645 0.334717
vt 0.495331 0.245575
vt 0.495605 0.311920
vt 0.371246 0.236145
vt 0.244629 0.222198
vt 0.073120 0.510071
vt 0.011841 0.636139
vt 0.300812 0.687042
vt 0.285278 0.821808
vt 0.215149 0.642212
vt 0.161346 0.777802
vt 0.094849 0.690247
vt 0.401215 0.660126
vt 0.461121 0.533875
vt 0.443359 0.619659
vt 0.495605 0.508514
vt 0.344055 0.090210
vt 0.495331 0.092834
vt 0.495331 0.012085
vt 0.495605 0.599518
s 1
usemtl m_face066
f 57/35/57 58/36/58 59/37/59
f 60/38/60 61/39/61 62/40/62
f 63/41/63 64/42/64 65/43/65
f 66/44/66 67/45/67 68/46/68
f 69/47/69 70/48/70 71/49/71
f 72/49/72 73/50/73 74/51/74
f 75/52/75 76/53/76 77/54/77
f 78/55/78 76/53/76 79/56/79
f 79/56/79 76/53/76 75/52/75
f 79/56/79 75/52/75 80/57/80
f 81/58/58 82/41/81 83/42/82
f 83/42/82 82/41/81 84/43/83
f 85/59/84 86/60/85 87/61/86
f 69/47/69 71/49/71 88/62/87
f 88/62/87 71/49/71 89/50/88
f 88/62/87 89/50/88 90/63/89
f 58/36/58 57/35/57 91/40/90
f 92/64/91 87/61/86 93/51/92
f 93/51/92 87/61/86 86/60/85
f 93/51/92 86/60/85 94/65/93
f 84/43/83 95/66/94 83/42/82
f 83/42/82 95/66/94 96/67/95
f 83/42/82 96/67/95 97/68/79
f 70/48/70 98/69/96 99/70/97
f 61/39/61 60/38/60 100/71/98
f 101/56/99 102/53/100 103/55/101
f 104/54/102 102/53/100 105/52/103
f 105/52/103 102/53/100 101/56/99
f 105/52/103 101/56/99 106/57/104
f 107/61/105 108/70/106 109/48/107
f 64/42/64 63/41/63 110/58/108
f 111/72/109 112/65/110 113/63/111
f 114/69/112 115/73/113 116/74/114
f 116/74/114 115/73/113 98/69/96
f 116/74/114 98/69/96 117/75/115
f 117/75/115 98/69/96 70/48/70
f 118/37/116 119/36/108 120/35/117
f 121/68/99 122/67/118 64/42/64
f 64/42/64 122/67/118 123/66/119
f 64/42/64 123/66/119 65/43/65
f 74/51/74 124/64/120 72/49/72
f 74/51/74 107/61/105 124/64/120
f 124/64/120 107/61/105 109/48/107
f 124/64/120 109/48/107 72/49/72
f 72/49/72 109/48/107 125/47/121
f 126/76/122 127/77/123 128/78/124
f 128/78/124 127/77/123 69/47/69
f 128/78/124 69/47/69 129/79/125
f 129/79/125 69/47/69 88/62/87
f 129/79/125 88/62/87 91/40/90
f 91/40/90 88/62/87 90/63/89
f 91/40/90 90/63/89 58/36/58
f 58/36/58 90/63/89 130/80/126
f 58/36/58 130/80/126 131/81/127
f 61/39/61 120/35/117 62/40/62
f 62/40/62 120/35/117 119/36/108
f 62/40/62 119/36/108 113/63/111
f 113/63/111 119/36/108 132/80/128
f 113/63/111 132/80/128 111/72/109
f 133/46/129 134/45/130 135/44/131
f 135/44/131 134/45/130 136/82/132
f 135/44/131 136/82/132 137/83/133
f 137/83/133 136/82/132 138/84/134
f 137/83/133 138/84/134 139/85/135
f 139/85/135 138/84/134 140/86/136
f 67/45/67 66/44/66 141/82/137
f 141/82/137 66/44/66 142/83/138
f 141/82/137 142/83/138 143/84/139
f 143/84/139 142/83/138 144/85/140
f 143/84/139 144/85/140 145/86/141
f 70/48/70 69/47/69 117/75/115
f 117/75/115 69/47/69 127/77/123
f 117/75/115 127/77/123 116/74/114
f 116/74/114 127/77/123 146/75/142
f 116/74/114 146/75/142 114/69/112
f 145/86/141 147/72/143 143/84/139
f 143/84/139 147/72/143 94/65/93
f 143/84/139 94/65/93 141/82/137
f 141/82/137 94/65/93 86/60/85
f 141/82/137 86/60/85 67/45/67
f 67/45/67 86/60/85 85/59/84
f 67/45/67 85/59/84 148/87/144
f 148/87/144 85/59/84 149/88/145
f 148/87/144 149/88/145 150/89/146
f 150/89/146 149/88/145 151/90/147
f 73/50/73 72/49/72 152/62/148
f 152/62/148 72/49/72 125/47/121
f 152/62/148 125/47/121 153/79/149
f 153/79/149 125/47/121 154/78/150
f 153/79/149 154/78/150 155/91/151
f 155/91/151 154/78/150 156/92/152
f 155/91/151 156/92/152 157/93/153
f 157/93/153 156/92/152 158/91/154
f 157/93/153 158/91/154 159/71/155
f 159/71/155 158/91/154 160/38/156
f 159/71/155 160/38/156 161/39/157
f 162/59/158 163/88/159 114/69/112
f 114/69/112 163/88/159 151/90/147
f 114/69/112 151/90/147 115/73/113
f 115/73/113 151/90/147 149/88/145
f 115/73/113 149/88/145 98/69/96
f 98/69/96 149/88/145 85/59/84
f 98/69/96 85/59/84 99/70/97
f 99/70/97 85/59/84 87/61/86
f 99/70/97 87/61/86 70/48/70
f 70/48/70 87/61/86 92/64/91
f 70/48/70 92/64/91 71/49/71
f 71/49/71 92/64/91 93/51/92
f 71/49/71 93/51/92 89/50/88
f 89/50/88 93/51/92 94/65/93
f 89/50/88 94/65/93 90/63/89
f 90/63/89 94/65/93 147/72/143
f 90/63/89 147/72/143 130/80/126
f 130/80/126 147/72/143 145/86/141
f 130/80/126 145/86/141 131/81/127
f 119/36/108 164/81/160 132/80/128
f 132/80/128 164/81/160 140/86/136
f 132/80/128 140/86/136 111/72/109
f 111/72/109 140/86/136 138/84/134
f 111/72/109 138/84/134 112/65/110
f 112/65/110 138/84/134 136/82/132
f 112/65/110 136/82/132 165/60/161
f 165/60/161 136/82/132 134/45/130
f 165/60/161 134/45/130 162/59/158
f 162/59/158 134/45/130 166/87/162
f 162/59/158 166/87/162 163/88/159
f 163/88/159 166/87/162 167/89/163
f 163/88/159 167/89/163 151/90/147
f 151/90/147 167/89/163 168/94/164
f 151/90/147 168/94/164 150/89/146
f 57/35/57 161/39/157 91/40/90
f 91/40/90 161/39/157 160/38/156
f 91/40/90 160/38/156 129/79/125
f 129/79/125 160/38/156 158/91/154
f 129/79/125 158/91/154 128/78/124
f 128/78/124 158/91/154 156/92/152
f 128/78/124 156/92/152 126/76/122
f 126/76/122 156/92/152 154/78/150
f 126/76/122 154/78/150 127/77/123
f 127/77/123 154/78/150 125/47/121
f 127/77/123 125/47/121 146/75/142
f 146/75/142 125/47/121 109/48/107
f 146/75/142 109/48/107 114/69/112
f 114/69/112 109/48/107 108/70/106
f 114/69/112 108/70/106 162/59/158
f 162/59/158 108/70/106 107/61/105
f 162/59/158 107/61/105 165/60/161
f 165/60/161 107/61/105 74/51/74
f 165/60/161 74/51/74 112/65/110
f 112/65/110 74/51/74 73/50/73
f 112/65/110 73/50/73 113/63/111
f 113/63/111 73/50/73 152/62/148
f 113/63/111 152/62/148 62/40/62
f 62/40/62 152/62/148 153/79/149
f 62/40/62 153/79/149 60/38/60
f 60/38/60 153/79/149 155/91/151
f 60/38/60 155/91/151 100/71/98
f 100/71/98 155/91/151 157/93/153
