mtllib m_face007.mtl
o editpl_m-0000-130
v 6.206764 48.134010 1.073005
v 7.163109 53.779636 -2.317882
v 6.512903 50.248310 0.347454
v 3.836219 50.450745 7.998244
v 3.744106 47.433533 7.871964
v 5.133923 49.984825 6.686872
v -7.824153 56.199192 -1.170151
v -7.163109 53.779636 -2.317882
v -8.590855 55.559761 -2.843925
v -3.283543 52.722488 8.489916
v -4.686906 52.465431 7.834603
v -3.836219 50.450745 7.998244
v 2.151100 57.490906 9.305132
v 0.000000 56.604057 9.985851
v 1.760976 55.874657 9.862560
v -0.975310 55.344475 9.219203
v -1.760976 55.874657 9.862560
v -4.218215 56.555859 9.314100
v -5.716400 52.449364 6.311020
v -6.572505 52.748196 4.377214
v -6.098396 50.029812 3.142806
v -5.133923 49.984825 6.686872
v -3.744106 47.433533 7.871964
v 3.763071 62.619202 6.400686
v 5.272092 59.283878 7.053758
v 6.193218 61.047935 3.615795
v 6.466846 58.175320 3.896751
v 7.255222 49.923775 -1.247862
v 8.574599 53.165913 -3.065850
v 6.512903 50.248310 0.347454
v 6.927409 55.174175 0.347454
v 7.824153 56.199192 -1.170151
v 8.590855 55.559761 -2.843925
v -1.674282 49.737408 10.452865
v -2.562898 51.077320 9.181842
v -2.790470 48.484253 8.782079
v 6.927409 55.174175 0.347454
v 7.824153 56.199192 -1.170151
v 7.163109 53.779636 -2.317882
v 8.590855 55.559761 -2.843925
v 7.390682 58.499855 -1.933811
v 6.927409 55.174175 0.347454
v 7.163109 53.779636 -2.317882
v 5.716400 52.449364 6.311020
v 8.574599 53.165913 -3.065850
v 7.255222 49.923775 -1.247862
v 6.512903 50.248310 0.347454
v 0.975310 55.344475 9.219203
v 1.498184 54.724323 8.405480
v 2.232376 55.260929 8.555671
v 2.259468 54.544384 8.303858
v 3.237487 54.923542 8.337483
v 4.199251 46.405300 0.298884
v 6.572505 52.748196 4.377214
v 6.098396 50.029812 3.142806
v -6.512903 50.248310 0.347454
v -8.574599 53.165913 -3.065850
v -7.255222 49.923775 -1.247862
v -8.590855 55.559761 -2.843925
v -7.824153 56.199192 -1.170151
v -6.927409 55.174175 0.347454
v 2.790470 48.484253 8.782079
v 2.562898 51.077320 9.181842
v 1.674282 49.737408 10.452865
v 0.000000 52.336903 11.126110
v -1.067422 52.696781 9.971654
v -1.243520 51.376148 10.969940
v -1.904563 52.982758 8.841856
v 4.218215 56.555859 9.314100
v -6.927409 55.174175 0.347454
v 0.000000 57.426640 9.618965
v -2.151100 57.490906 9.305132
v -6.512903 50.248310 0.347454
v -7.255222 49.923775 -1.247862
v -8.574599 53.165913 -3.065850
v -4.372639 54.550812 7.728498
v -2.259468 54.544384 8.303858
v -3.237487 54.923542 8.337483
v -4.199251 46.405300 0.298884
v -6.206764 48.134010 1.073005
v -7.163109 53.779636 -2.317882
v -6.512903 50.248310 0.347454
v 6.101105 54.599007 5.561558
v -0.891325 54.486546 9.040617
v 0.000000 54.695404 9.427677
v 0.000000 52.912067 10.373658
v 0.891325 54.486546 9.040617
v 1.067422 52.696781 9.971654
v 1.904563 52.982758 8.841856
v 0.000000 59.762650 9.333527
v -2.717322 59.820488 8.927039
v -4.624594 57.754387 8.306098
v -5.272092 59.283878 7.053758
v -6.466846 58.175320 3.896751
v 0.000000 55.591892 9.578616
v -6.101105 54.599007 5.561558
v -5.188107 54.611862 7.031341
v -5.201653 56.314865 8.223158
v -4.359093 55.090630 8.019167
v -2.232376 55.260929 8.555671
v -1.498184 54.724323 8.405480
v 3.283543 52.722488 8.489916
v 4.372639 54.550812 7.728498
v 4.359093 55.090630 8.019167
v -6.927409 55.174175 0.347454
v 4.686906 52.465431 7.834603
v 5.188107 54.611862 7.031341
v 5.201653 56.314865 8.223158
v 4.624594 57.754387 8.306098
v 2.717322 59.820488 8.927039
v 0.000000 62.905178 7.103820
v -3.717014 62.619202 6.400686
v -6.193218 61.047935 3.615795
v -7.390682 58.499855 -1.933811
v -7.163109 53.779636 -2.317882
v 1.243520 51.376148 10.969940
vn 0.9028 -0.4004 -0.1570
vn -0.2590 -0.0314 -0.9654
vn 0.9685 -0.1417 0.2047
vn 0.6682 -0.0864 0.7389
vn 0.7398 -0.2754 0.6139
vn 0.8686 -0.1330 0.4774
vn 0.8242 0.4082 -0.3925
vn 0.2590 -0.0313 -0.9654
vn 0.6187 0.2741 -0.7362
vn -0.3993 0.1253 0.9082
vn -0.6454 -0.0236 0.7635
vn -0.6682 -0.0864 0.7389
vn 0.1890 0.2677 0.9448
vn -0.0000 0.1096 0.9940
vn 0.1331 -0.3600 0.9234
vn -0.3621 -0.5668 0.7400
vn -0.1331 -0.3600 0.9234
vn -0.4394 -0.2981 0.8474
vn -0.8651 -0.1180 0.4876
vn -0.9704 -0.1017 0.2191
vn -0.9595 -0.1652 0.2281
vn -0.8686 -0.1330 0.4774
vn -0.7398 -0.2754 0.6139
vn 0.5503 0.5110 0.6603
vn 0.8078 0.2510 0.5333
vn 0.9247 0.2272 0.3056
vn 0.9620 0.0626 0.2659
vn -0.5188 -0.4559 -0.7232
vn 0.8917 -0.0782 0.4458
vn 0.9688 -0.1399 0.2045
vn 0.9853 0.0469 0.1643
vn 0.8879 -0.0629 0.4557
vn 0.9045 -0.0393 0.4247
vn -0.4248 -0.0315 0.9047
vn -0.6278 0.0471 0.7769
vn -0.6611 -0.1652 0.7319
vn 0.9853 0.0469 0.1642
vn -0.8242 0.4082 -0.3925
vn -0.6187 0.2741 -0.7362
vn 0.9899 -0.0000 0.1414
vn 0.8651 -0.1180 0.4876
vn -0.4957 -0.0708 -0.8656
vn -0.5188 -0.4559 -0.7231
vn 0.9685 -0.1417 0.2048
vn 0.3621 -0.5668 0.7400
vn 0.4341 -0.1263 0.8919
vn 0.1958 -0.4542 0.8691
vn 0.1878 -0.0861 0.9784
vn 0.2203 -0.3226 0.9205
vn 0.5840 -0.7261 -0.3631
vn 0.9704 -0.1017 0.2191
vn 0.9595 -0.1652 0.2281
vn -0.9685 -0.1417 0.2047
vn -0.8917 -0.0782 0.4458
vn 0.5188 -0.4559 -0.7231
vn -0.9045 -0.0393 0.4247
vn -0.8879 -0.0629 0.4557
vn -0.9853 0.0469 0.1643
vn 0.6611 -0.1652 0.7319
vn 0.6278 0.0471 0.7769
vn 0.4248 -0.0315 0.9047
vn -0.0000 0.6150 0.7885
vn -0.5274 0.5431 0.6533
vn -0.5966 -0.0550 0.8007
vn -0.5188 0.3537 0.7783
vn 0.4394 -0.2981 0.8474
vn -0.9853 0.0469 0.1642
vn -0.0000 0.2664 0.9639
vn -0.1890 0.2677 0.9448
vn -0.9685 -0.1417 0.2048
vn 0.5188 -0.4559 -0.7232
vn 0.4957 -0.0708 -0.8656
vn -0.4411 -0.1654 0.8821
vn -0.1879 -0.0861 0.9784
vn -0.2203 -0.3226 0.9205
vn -0.5840 -0.7260 -0.3631
vn -0.9028 -0.4004 -0.1570
vn 0.2590 -0.0314 -0.9654
vn 0.9375 -0.0315 0.3466
vn -0.5734 0.2042 0.7934
vn -0.0000 0.0079 1.0000
vn -0.0000 0.5975 0.8019
vn 0.5734 0.2042 0.7934
vn 0.5274 0.5431 0.6533
vn 0.5188 0.3537 0.7783
vn -0.0000 0.2830 0.9591
vn -0.3545 0.3702 0.8587
vn -0.6773 0.2678 0.6852
vn -0.8062 0.2583 0.5323
vn -0.9620 0.0626 0.2659
vn -0.0000 -0.4689 0.8832
vn -0.9375 -0.0315 0.3466
vn -0.7421 -0.1737 0.6474
vn -0.8157 -0.1255 0.5647
vn -0.4239 -0.4082 0.8085
vn -0.1957 -0.4542 0.8691
vn -0.4341 -0.1263 0.8919
vn 0.3993 0.1253 0.9082
vn 0.4411 -0.1654 0.8821
vn 0.4239 -0.4082 0.8085
vn 0.6454 -0.0236 0.7635
vn 0.7421 -0.1737 0.6474
vn 0.8157 -0.1255 0.5647
vn 0.6773 0.2678 0.6852
vn 0.3545 0.3702 0.8587
vn -0.0000 0.6063 0.7952
vn -0.5426 0.5190 0.6605
vn -0.9235 0.2289 0.3078
vn -0.9899 -0.0000 0.1414
vn 0.5966 -0.0550 0.8007
vt 0.040558 0.895203
vt 0.012573 0.504211
vt 0.030518 0.683441
vt 0.283722 0.663818
vt 0.301086 0.798340
vt 0.211761 0.679199
vt 0.900604 0.367096
vt 0.897186 0.403442
vt 0.906555 0.383026
vt 0.330444 0.557037
vt 0.236237 0.555786
vt 0.364746 0.260315
vt 0.493530 0.303558
vt 0.412933 0.349182
vt 0.446045 0.382751
vt 0.242096 0.331116
vt 0.175201 0.552734
vt 0.137787 0.542419
vt 0.137207 0.687439
vt 0.302582 0.011261
vt 0.166473 0.159363
vt 0.077942 0.011261
vt 0.080048 0.221069
vt 0.903625 0.636536
vt 0.980865 0.544617
vt 0.878082 0.620270
vt 0.878082 0.372437
vt 0.967621 0.310669
vt 0.986664 0.384979
vt 0.452820 0.731384
vt 0.402954 0.648315
vt 0.376373 0.765533
vt 0.881622 0.380188
vt 0.012299 0.216431
vt 0.061188 0.384094
vt 0.012299 0.504211
vt 0.905304 0.416870
vt 0.887024 0.436218
vt 0.881622 0.432770
vt 0.424438 0.421112
vt 0.379150 0.387787
vt 0.386444 0.443634
vt 0.332947 0.409454
vt 0.012573 0.985992
vt 0.493530 0.575775
vt 0.448761 0.539124
vt 0.447876 0.619812
vt 0.406494 0.550995
vt 0.493530 0.259521
vt 0.266449 0.443573
vt 0.149994 0.425629
vt 0.449646 0.458435
vt 0.493530 0.452148
vt 0.493530 0.530792
vt 0.493530 0.134735
vt 0.324249 0.132111
vt 0.197723 0.247284
vt 0.493530 0.371735
vt 0.202423 0.443054
vt 0.185272 0.361938
vt 0.255035 0.402679
vt 0.493530 0.011261
s 1
usemtl m_face079
f 1/1/1 2/2/2 3/3/3
f 4/4/4 5/5/5 6/6/6
f 7/7/7 8/8/8 9/9/9
f 10/10/10 11/11/11 12/4/12
f 13/12/13 14/13/14 15/14/15
f 16/15/16 17/14/17 18/16/18
f 19/17/19 20/18/20 21/19/21
f 12/4/12 22/6/22 23/5/23
f 24/20/24 25/21/25 26/22/26
f 26/22/26 25/21/25 27/23/27
f 28/24/28 29/25/29 30/26/30
f 31/27/31 30/26/30 32/28/32
f 32/28/32 30/26/30 29/25/29
f 32/28/32 29/25/29 33/29/33
f 34/30/34 35/31/35 36/32/36
f 37/33/37 38/7/38 39/8/2
f 39/8/2 38/7/38 40/9/39
f 41/34/40 42/35/37 43/36/2
f 44/17/41 4/4/4 6/6/6
f 40/9/39 45/37/42 39/8/2
f 39/8/2 45/37/42 46/38/43
f 39/8/2 46/38/43 47/39/44
f 48/15/45 49/40/46 50/41/47
f 50/41/47 49/40/46 51/42/48
f 50/41/47 51/42/48 52/43/49
f 2/2/2 1/1/1 53/44/50
f 42/35/37 54/18/51 3/3/3
f 3/3/3 54/18/51 55/19/52
f 56/26/53 57/25/54 58/24/55
f 59/29/56 57/25/54 60/28/57
f 60/28/57 57/25/54 56/26/53
f 60/28/57 56/26/53 61/27/58
f 5/5/5 4/4/4 62/32/59
f 62/32/59 4/4/4 63/31/60
f 62/32/59 63/31/60 64/30/61
f 65/45/62 66/46/63 67/47/64
f 67/47/64 66/46/63 68/48/65
f 67/47/64 68/48/65 35/31/35
f 69/16/66 13/12/13 15/14/15
f 8/8/8 7/7/7 70/33/67
f 71/49/68 72/12/69 14/13/14
f 19/17/19 21/19/21 22/6/22
f 73/39/70 74/38/71 8/8/8
f 8/8/8 74/38/71 75/37/72
f 8/8/8 75/37/72 9/9/9
f 11/11/11 10/10/10 76/50/73
f 76/50/73 10/10/10 77/42/74
f 76/50/73 77/42/74 78/43/75
f 79/44/76 80/1/77 81/2/78
f 81/2/78 80/1/77 82/3/53
f 6/6/6 55/19/52 44/17/41
f 44/17/41 55/19/52 54/18/51
f 44/17/41 54/18/51 83/51/79
f 83/51/79 54/18/51 42/35/37
f 83/51/79 42/35/37 27/23/27
f 27/23/27 42/35/37 41/34/40
f 27/23/27 41/34/40 26/22/26
f 16/15/16 84/52/80 85/53/81
f 85/53/81 84/52/80 86/54/82
f 85/53/81 86/54/82 87/52/83
f 87/52/83 86/54/82 88/46/84
f 87/52/83 88/46/84 89/48/85
f 14/13/14 13/12/13 71/49/68
f 71/49/68 13/12/13 90/55/86
f 71/49/68 90/55/86 72/12/69
f 72/12/69 90/55/86 91/56/87
f 72/12/69 91/56/87 92/57/88
f 92/57/88 91/56/87 93/21/89
f 92/57/88 93/21/89 94/23/90
f 23/5/23 36/32/36 12/4/12
f 12/4/12 36/32/36 35/31/35
f 12/4/12 35/31/35 10/10/10
f 10/10/10 35/31/35 68/48/65
f 10/10/10 68/48/65 77/42/74
f 17/14/17 16/15/16 95/58/91
f 95/58/91 16/15/16 85/53/81
f 95/58/91 85/53/81 48/15/45
f 48/15/45 85/53/81 87/52/83
f 48/15/45 87/52/83 49/40/46
f 49/40/46 87/52/83 89/48/85
f 49/40/46 89/48/85 51/42/48
f 20/18/20 19/17/19 96/51/92
f 96/51/92 19/17/19 97/59/93
f 96/51/92 97/59/93 98/60/94
f 98/60/94 97/59/93 99/61/95
f 98/60/94 99/61/95 18/16/18
f 18/16/18 99/61/95 100/41/96
f 18/16/18 100/41/96 16/15/16
f 16/15/16 100/41/96 101/40/97
f 16/15/16 101/40/97 84/52/80
f 89/48/85 102/10/98 51/42/48
f 51/42/48 102/10/98 103/50/99
f 51/42/48 103/50/99 52/43/49
f 52/43/49 103/50/99 104/61/100
f 52/43/49 104/61/100 50/41/47
f 50/41/47 104/61/100 69/16/66
f 50/41/47 69/16/66 48/15/45
f 48/15/45 69/16/66 15/14/15
f 48/15/45 15/14/15 95/58/91
f 95/58/91 15/14/15 14/13/14
f 95/58/91 14/13/14 17/14/17
f 17/14/17 14/13/14 72/12/69
f 17/14/17 72/12/69 18/16/18
f 18/16/18 72/12/69 92/57/88
f 18/16/18 92/57/88 98/60/94
f 98/60/94 92/57/88 94/23/90
f 98/60/94 94/23/90 96/51/92
f 96/51/92 94/23/90 105/35/67
f 96/51/92 105/35/67 20/18/20
f 20/18/20 105/35/67 82/3/53
f 20/18/20 82/3/53 21/19/21
f 102/10/98 106/11/101 103/50/99
f 103/50/99 106/11/101 107/59/102
f 103/50/99 107/59/102 104/61/100
f 104/61/100 107/59/102 108/60/103
f 104/61/100 108/60/103 69/16/66
f 69/16/66 108/60/103 109/57/104
f 69/16/66 109/57/104 13/12/13
f 13/12/13 109/57/104 110/56/105
f 13/12/13 110/56/105 90/55/86
f 90/55/86 110/56/105 111/62/106
f 90/55/86 111/62/106 91/56/87
f 91/56/87 111/62/106 112/20/107
f 91/56/87 112/20/107 93/21/89
f 93/21/89 112/20/107 113/22/108
f 93/21/89 113/22/108 94/23/90
f 94/23/90 113/22/108 114/34/109
f 94/23/90 114/34/109 105/35/67
f 105/35/67 114/34/109 115/36/78
f 22/6/22 12/4/12 19/17/19
f 19/17/19 12/4/12 11/11/11
f 19/17/19 11/11/11 97/59/93
f 97/59/93 11/11/11 76/50/73
f 97/59/93 76/50/73 99/61/95
f 99/61/95 76/50/73 78/43/75
f 99/61/95 78/43/75 100/41/96
f 100/41/96 78/43/75 77/42/74
f 100/41/96 77/42/74 101/40/97
f 101/40/97 77/42/74 68/48/65
f 101/40/97 68/48/65 84/52/80
f 84/52/80 68/48/65 66/46/63
f 84/52/80 66/46/63 86/54/82
f 86/54/82 66/46/63 65/45/62
f 86/54/82 65/45/62 88/46/84
f 88/46/84 65/45/62 116/47/110
f 88/46/84 116/47/110 89/48/85
f 89/48/85 116/47/110 63/31/60
f 89/48/85 63/31/60 102/10/98
f 102/10/98 63/31/60 4/4/4
f 102/10/98 4/4/4 106/11/101
f 106/11/101 4/4/4 44/17/41
f 106/11/101 44/17/41 107/59/102
f 107/59/102 44/17/41 83/51/79
f 107/59/102 83/51/79 108/60/103
f 108/60/103 83/51/79 27/23/27
f 108/60/103 27/23/27 109/57/104
f 109/57/104 27/23/27 25/21/25
f 109/57/104 25/21/25 110/56/105
f 110/56/105 25/21/25 24/20/24
f 110/56/105 24/20/24 111/62/106
o editpl_m-0000-129
v 6.084850 47.902660 2.586126
v 6.206764 48.134010 1.073005
v 6.512903 50.248310 0.347454
v 0.000000 51.629993 11.393614
v 1.243520 51.376148 10.969940
v 0.000000 52.336903 11.126110
v 5.266673 46.402088 2.843917
v 4.199251 46.405300 0.298884
v 0.010837 44.265297 8.308341
v 0.000000 44.303856 3.787658
v 2.124008 44.525566 7.919040
v 1.674282 49.737408 10.452865
v 0.000000 50.543926 10.234675
v 0.000000 49.750259 10.842166
v 2.562898 51.077320 9.181842
v 0.000000 50.929512 11.094727
v 0.010837 45.261395 9.221444
v 1.877472 45.377071 8.918074
v 2.774215 45.634129 7.973587
v 6.098396 50.029812 3.142806
v -2.205284 46.678425 8.681204
v -2.988241 46.273560 7.783792
v -2.774215 45.634129 7.973587
v -1.243520 51.376148 10.969940
v 0.000000 47.738789 10.384867
v -1.468383 47.623112 9.887965
v 0.000000 47.317856 10.041145
v 0.000000 46.877644 9.338758
v -6.084850 47.902660 2.586126
v -5.133923 49.984825 6.686872
v -6.098396 50.029812 3.142806
v 4.218215 46.398872 5.842514
v 3.494860 45.229263 5.374007
v -1.674282 49.737408 10.452865
v 0.000000 49.052994 10.578397
v 1.346469 48.815216 9.983609
v 2.790470 48.484253 8.782079
v -1.346469 48.815216 9.983609
v 0.000000 48.696327 10.000795
v 1.468383 47.623112 9.887965
v 2.205284 46.678425 8.681204
v 3.744106 47.433533 7.871964
v 2.988241 46.273560 7.783792
v -2.790470 48.484253 8.782079
v -3.744106 47.433533 7.871964
v -4.218215 46.398872 5.842514
v -2.562898 51.077320 9.181842
v -6.512903 50.248310 0.347454
v -6.206764 48.134010 1.073005
v -5.266673 46.402088 2.843917
v -4.199251 46.405300 0.298884
v 0.010837 46.128963 9.370889
v -1.855798 45.377071 8.918074
v -2.102335 44.525566 7.919040
v -3.494860 45.229263 5.374007
v 5.133923 49.984825 6.686872
vn 0.9442 -0.2518 0.2124
vn 0.9028 -0.4004 -0.1570
vn 0.9685 -0.1417 0.2047
vn -0.0000 -0.0236 0.9997
vn 0.5966 -0.0549 0.8007
vn -0.0000 0.6150 0.7885
vn 0.6992 -0.7149 -0.0078
vn 0.5840 -0.7261 -0.3630
vn -0.0000 -0.8644 0.5029
vn -0.0000 -0.9931 -0.1173
vn 0.5414 -0.7768 0.3217
vn 0.4248 -0.0315 0.9047
vn -0.0000 -0.2111 0.9775
vn -0.0000 0.1414 0.9899
vn 0.6278 0.0471 0.7770
vn -0.0000 -0.6912 0.7226
vn -0.0000 -0.4409 0.8976
vn 0.4153 -0.3527 0.8385
vn 0.7850 -0.2355 0.5730
vn 0.9595 -0.1651 0.2281
vn -0.5036 -0.2990 0.8105
vn -0.7488 -0.2837 0.5990
vn -0.7804 -0.2444 0.5755
vn -0.5966 -0.0549 0.8007
vn -0.0000 -0.1567 0.9876
vn -0.3925 -0.2434 0.8870
vn -0.0000 -0.7378 0.6750
vn -0.0000 -0.4722 0.8815
vn -0.9442 -0.2518 0.2124
vn -0.8686 -0.1331 0.4773
vn -0.9595 -0.1651 0.2281
vn 0.8230 -0.4389 0.3606
vn 0.5826 -0.8109 0.0551
vn -0.4241 -0.0325 0.9050
vn -0.0000 -0.6025 0.7981
vn 0.3226 -0.4327 0.8418
vn 0.6611 -0.1653 0.7319
vn -0.3226 -0.4327 0.8418
vn -0.0000 -0.2278 0.9737
vn 0.3925 -0.2433 0.8870
vn 0.5107 -0.2907 0.8092
vn 0.7398 -0.2755 0.6139
vn 0.7488 -0.2837 0.5990
vn -0.6611 -0.1653 0.7319
vn -0.7398 -0.2755 0.6139
vn -0.8230 -0.4389 0.3605
vn -0.6278 0.0471 0.7770
vn -0.9685 -0.1417 0.2047
vn -0.9028 -0.4004 -0.1570
vn -0.6992 -0.7149 -0.0078
vn -0.5840 -0.7261 -0.3630
vn -0.0000 -0.0079 1.0000
vn -0.4077 -0.3606 0.8389
vn -0.5358 -0.7801 0.3231
vn -0.5823 -0.8105 0.0629
vn 0.8686 -0.1331 0.4773
vt 0.130646 0.816101
vt 0.040558 0.895203
vt 0.030518 0.683441
vt 0.494659 0.616180
vt 0.447876 0.619812
vt 0.494659 0.575775
vt 0.104248 0.953186
vt 0.012573 0.985992
vt 0.494659 0.979858
vt 0.494659 0.985992
vt 0.367310 0.978210
vt 0.452820 0.731384
vt 0.494659 0.684113
vt 0.494659 0.733185
vt 0.402954 0.648315
vt 0.494659 0.641418
vt 0.494659 0.933014
vt 0.392242 0.924347
vt 0.335175 0.914948
vt 0.137207 0.687439
vt 0.366821 0.851837
vt 0.297577 0.882690
vt 0.494659 0.800537
vt 0.440704 0.800659
vt 0.494659 0.812225
vt 0.494659 0.848663
vt 0.211761 0.679199
vt 0.228821 0.900024
vt 0.296722 0.980988
vt 0.494659 0.751099
vt 0.442871 0.764038
vt 0.376373 0.765533
vt 0.494659 0.766968
vt 0.301086 0.798340
vt 0.494659 0.898773
s 1
usemtl m_face079
f 117/63/111 118/64/112 119/65/113
f 120/66/114 121/67/115 122/68/116
f 123/69/117 124/70/118 118/64/112
f 125/71/119 126/72/120 127/73/121
f 128/74/122 129/75/123 130/76/124
f 128/74/122 131/77/125 129/75/123
f 129/75/123 131/77/125 121/67/115
f 129/75/123 121/67/115 132/78/126
f 133/79/127 125/71/119 134/80/128
f 134/80/128 125/71/119 127/73/121
f 134/80/128 127/73/121 135/81/129
f 117/63/111 119/65/113 136/82/130
f 137/83/131 138/84/132 139/81/133
f 140/67/134 120/66/114 122/68/116
f 141/85/135 142/86/136 143/87/137
f 143/87/137 142/86/136 137/83/131
f 143/87/137 137/83/131 144/88/138
f 145/63/139 146/89/140 147/82/141
f 118/64/112 117/63/111 123/69/117
f 123/69/117 117/63/111 148/90/142
f 123/69/117 148/90/142 149/91/143
f 129/75/123 150/74/144 130/76/124
f 130/76/124 150/74/144 151/92/145
f 130/76/124 151/92/145 128/74/122
f 128/74/122 151/92/145 152/93/146
f 128/74/122 152/93/146 153/94/147
f 150/74/144 154/93/148 151/92/145
f 151/92/145 154/93/148 155/95/149
f 151/92/145 155/95/149 152/93/146
f 152/93/146 155/95/149 156/86/150
f 152/93/146 156/86/150 153/94/147
f 153/94/147 156/86/150 157/83/151
f 153/94/147 157/83/151 158/96/152
f 158/96/152 157/83/151 159/84/153
f 142/86/136 160/94/154 137/83/131
f 137/83/131 160/94/154 161/96/155
f 137/83/131 161/96/155 138/84/132
f 138/84/132 161/96/155 162/90/156
f 138/84/132 162/90/156 139/81/133
f 121/67/115 120/66/114 132/78/126
f 132/78/126 120/66/114 140/67/134
f 132/78/126 140/67/134 129/75/123
f 129/75/123 140/67/134 163/77/157
f 129/75/123 163/77/157 150/74/144
f 147/82/141 164/65/158 145/63/139
f 145/63/139 164/65/158 165/64/159
f 145/63/139 165/64/159 166/69/160
f 166/69/160 165/64/159 167/70/161
f 166/69/160 167/70/161 126/72/120
f 124/70/118 123/69/117 126/72/120
f 126/72/120 123/69/117 149/91/143
f 126/72/120 149/91/143 127/73/121
f 127/73/121 149/91/143 148/90/142
f 127/73/121 148/90/142 135/81/129
f 150/74/144 160/94/154 154/93/148
f 154/93/148 160/94/154 142/86/136
f 154/93/148 142/86/136 155/95/149
f 155/95/149 142/86/136 141/85/135
f 155/95/149 141/85/135 156/86/150
f 156/86/150 141/85/135 143/87/137
f 156/86/150 143/87/137 157/83/151
f 157/83/151 143/87/137 144/88/138
f 157/83/151 144/88/138 168/97/162
f 168/97/162 144/88/138 137/83/131
f 168/97/162 137/83/131 169/80/163
f 169/80/163 137/83/131 139/81/133
f 169/80/163 139/81/133 170/73/164
f 170/73/164 139/81/133 162/90/156
f 170/73/164 162/90/156 171/91/165
f 136/82/130 172/89/166 117/63/111
f 117/63/111 172/89/166 158/96/152
f 117/63/111 158/96/152 148/90/142
f 148/90/142 158/96/152 159/84/153
f 148/90/142 159/84/153 135/81/129
f 135/81/129 159/84/153 157/83/151
f 135/81/129 157/83/151 134/80/128
f 134/80/128 157/83/151 168/97/162
f 134/80/128 168/97/162 133/79/127
f 133/79/127 168/97/162 169/80/163
f 133/79/127 169/80/163 125/71/119
f 125/71/119 169/80/163 170/73/164
f 125/71/119 170/73/164 126/72/120
f 126/72/120 170/73/164 171/91/165
f 126/72/120 171/91/165 166/69/160
f 166/69/160 171/91/165 162/90/156
f 166/69/160 162/90/156 145/63/139
f 145/63/139 162/90/156 161/96/155
f 145/63/139 161/96/155 146/89/140
