mtllib m_face020.mtl
o editpl_m-0000-153
v -1.197464 49.319691 9.476995
v -1.024075 48.670620 8.506354
v 0.000000 48.677048 9.116835
v 2.172774 46.816593 7.251771
v 3.161630 46.244640 5.938906
v 4.386185 48.008698 6.007649
v 5.943972 50.267590 4.096259
v 5.613450 47.751640 0.436373
v 6.285330 50.248310 0.331015
v 4.277817 46.405300 0.283193
v 7.163109 53.779636 -2.334321
v 1.731175 44.638031 6.054725
v 0.000000 44.438812 7.061978
v 0.000000 44.159260 5.761066
v 0.000000 45.258183 7.803221
v 1.717629 45.389923 7.268211
v 1.024075 48.670620 8.506354
v 0.000000 48.079388 9.119075
v 1.148698 48.060108 8.759663
v 0.000000 47.504223 8.906865
v 2.771506 48.313953 7.416160
v 0.000000 50.174404 9.248344
v 0.000000 49.242573 9.658568
v 1.197464 49.319691 9.476995
v 0.000000 44.303856 3.771219
v 3.538208 45.685539 4.058898
v 5.098703 47.941219 3.721901
v -5.613450 47.751640 0.436373
v -5.943972 50.267590 4.096259
v -6.285330 50.248310 0.331015
v -2.771506 48.313953 7.376557
v -2.172774 46.816593 7.251771
v -1.148698 48.060108 8.759663
v 0.000000 48.587074 8.624415
v 0.000000 50.572845 10.674788
v -0.850687 50.958431 10.473040
v 5.074321 50.016956 6.186235
v 3.115573 50.418610 8.100615
v 1.666154 50.884525 8.563890
v 0.850687 50.916660 10.473040
v -5.098703 47.941219 3.721901
v -4.386185 48.008698 6.007649
v -5.074321 50.016956 6.186235
v -3.115573 50.418610 8.100615
v -1.666154 50.884525 8.563890
v 0.000000 46.710556 7.926512
v -1.717629 45.389923 7.268211
v -1.731175 44.638031 6.054725
v 1.024075 48.670620 8.506354
v -3.161630 46.164310 5.938906
v -3.538208 45.685539 4.058898
v -4.277817 46.405300 0.283193
v -7.163109 53.779636 -2.334321
vn -0.3459 -0.2515 0.9039
vn -0.3700 -0.4803 0.7953
vn -0.0000 -0.8731 0.4876
vn 0.5173 -0.4076 0.7525
vn 0.7451 -0.5020 0.4392
vn 0.7572 -0.3944 0.5206
vn 0.9273 -0.2908 0.2357
vn 0.8718 -0.4713 -0.1335
vn 0.9776 -0.2034 0.0547
vn 0.6373 -0.6530 -0.4091
vn 0.8474 -0.4394 -0.2982
vn 0.4720 -0.8575 0.2045
vn -0.0000 -0.8609 0.5087
vn -0.0000 -0.9975 0.0707
vn -0.0000 -0.3996 0.9167
vn 0.4872 -0.4400 0.7543
vn 0.3609 -0.4786 0.8004
vn -0.0000 0.1260 0.9920
vn 0.4559 -0.0550 0.8883
vn -0.0000 -0.5975 0.8019
vn 0.5898 -0.3067 0.7471
vn -0.0078 -0.3605 0.9327
vn -0.0000 -0.1720 0.9851
vn 0.3459 -0.2515 0.9039
vn -0.0000 -0.9940 -0.1096
vn 0.6677 -0.7384 0.0943
vn 0.8495 -0.4719 0.2359
vn -0.8718 -0.4713 -0.1335
vn -0.9273 -0.2908 0.2357
vn -0.9776 -0.2034 0.0547
vn -0.5898 -0.3067 0.7471
vn -0.5190 -0.4010 0.7549
vn -0.4559 -0.0550 0.8883
vn -0.0000 -0.3863 0.9224
vn -0.0158 -0.8344 0.5510
vn -0.6924 -0.3383 0.6373
vn 0.7557 -0.2834 0.5904
vn 0.5658 -0.1572 0.8094
vn 0.5255 -0.0784 0.8471
vn 0.6905 -0.3452 0.6356
vn -0.8547 -0.4627 0.2353
vn -0.7564 -0.3861 0.5279
vn -0.7557 -0.2834 0.5904
vn -0.5687 -0.1659 0.8056
vn -0.5255 -0.0784 0.8472
vn -0.0000 -0.3443 0.9389
vn -0.4812 -0.4417 0.7572
vn -0.4627 -0.8627 0.2039
vn 0.3610 -0.4787 0.8004
vn -0.7416 -0.5049 0.4418
vn -0.6599 -0.7463 0.0864
vn -0.6373 -0.6531 -0.4091
vn -0.8474 -0.4394 -0.2981
vt 0.420135 0.756073
vt 0.429688 0.789062
vt 0.492188 0.781250
vt 0.382812 0.867188
vt 0.281250 0.898438
vt 0.231018 0.813599
vt 0.089264 0.677429
vt 0.093750 0.828125
vt 0.046875 0.664062
vt 0.007812 0.992188
vt 0.007812 0.343750
vt 0.359375 0.953125
vt 0.492188 0.976562
vt 0.492188 0.984375
vt 0.492188 0.953125
vt 0.359375 0.914062
vt 0.492188 0.835938
vt 0.421875 0.835938
vt 0.492188 0.867188
vt 0.347198 0.786438
vt 0.492188 0.695312
vt 0.492188 0.757812
vt 0.492188 0.992188
vt 0.140625 0.953125
vt 0.165161 0.860474
vt 0.492188 0.796875
vt 0.492188 0.648438
vt 0.460938 0.632812
vt 0.196411 0.718750
vt 0.318573 0.664886
vt 0.394165 0.629944
vt 0.492188 0.914062
s 1
usemtl m_face091
f 1/1/1 2/2/2 3/3/3
f 4/4/4 5/5/5 6/6/6
f 7/7/7 8/8/8 9/9/9
f 9/9/9 8/8/8 10/10/10
f 9/9/9 10/10/10 11/11/11
f 12/12/12 13/13/13 14/14/14
f 15/15/15 13/13/13 16/16/16
f 16/16/16 13/13/13 12/12/12
f 16/16/16 12/12/12 5/5/5
f 17/2/17 18/17/18 19/18/19
f 19/18/19 18/17/18 20/19/20
f 6/6/6 21/20/21 4/4/4
f 22/21/22 23/22/23 24/1/24
f 25/23/25 10/10/10 26/24/26
f 26/24/26 10/10/10 8/8/8
f 26/24/26 8/8/8 27/25/27
f 27/25/27 8/8/8 7/7/7
f 28/8/28 29/7/29 30/9/30
f 2/2/2 1/1/1 31/20/31
f 32/4/32 20/19/20 33/18/33
f 33/18/33 20/19/20 18/17/18
f 33/18/33 18/17/18 34/26/34
f 34/26/34 18/17/18 17/2/17
f 22/21/22 35/27/35 36/28/36
f 6/6/6 37/29/37 21/20/21
f 21/20/21 37/29/37 38/30/38
f 21/20/21 38/30/38 24/1/24
f 24/1/24 38/30/38 39/31/39
f 24/1/24 39/31/39 22/21/22
f 22/21/22 39/31/39 40/28/40
f 22/21/22 40/28/40 35/27/35
f 28/8/28 41/25/41 29/7/29
f 29/7/29 41/25/41 42/6/42
f 29/7/29 42/6/42 43/29/43
f 43/29/43 42/6/42 31/20/31
f 43/29/43 31/20/31 44/30/44
f 44/30/44 31/20/31 1/1/1
f 44/30/44 1/1/1 45/31/45
f 5/5/5 4/4/4 16/16/16
f 16/16/16 4/4/4 46/32/46
f 16/16/16 46/32/46 15/15/15
f 15/15/15 46/32/46 47/16/47
f 15/15/15 47/16/47 13/13/13
f 13/13/13 47/16/47 48/12/48
f 13/13/13 48/12/48 14/14/14
f 14/14/14 48/12/48 25/23/25
f 14/14/14 25/23/25 12/12/12
f 12/12/12 25/23/25 26/24/26
f 12/12/12 26/24/26 5/5/5
f 5/5/5 26/24/26 27/25/27
f 5/5/5 27/25/27 6/6/6
f 6/6/6 27/25/27 7/7/7
f 6/6/6 7/7/7 37/29/37
f 49/2/49 3/3/3 34/26/34
f 34/26/34 3/3/3 2/2/2
f 34/26/34 2/2/2 33/18/33
f 33/18/33 2/2/2 31/20/31
f 33/18/33 31/20/31 32/4/32
f 32/4/32 31/20/31 42/6/42
f 32/4/32 42/6/42 50/5/50
f 50/5/50 42/6/42 41/25/41
f 50/5/50 41/25/41 51/24/51
f 51/24/51 41/25/41 28/8/28
f 51/24/51 28/8/28 52/10/52
f 52/10/52 28/8/28 30/9/30
f 52/10/52 30/9/30 53/11/53
f 52/10/52 25/23/25 51/24/51
f 51/24/51 25/23/25 48/12/48
f 51/24/51 48/12/48 50/5/50
f 50/5/50 48/12/48 47/16/47
f 50/5/50 47/16/47 32/4/32
f 32/4/32 47/16/47 46/32/46
f 32/4/32 46/32/46 20/19/20
f 20/19/20 46/32/46 4/4/4
f 20/19/20 4/4/4 19/18/19
f 19/18/19 4/4/4 21/20/21
f 19/18/19 21/20/21 49/2/49
f 49/2/49 21/20/21 24/1/24
f 49/2/49 24/1/24 3/3/3
f 3/3/3 24/1/24 23/22/23
f 3/3/3 23/22/23 1/1/1
f 1/1/1 23/22/23 22/21/22
f 1/1/1 22/21/22 45/31/45
f 45/31/45 22/21/22 36/28/36
o editpl_m-0000-154
v 7.824153 56.199192 -1.186590
v 7.163109 53.779636 -2.334321
v 6.756730 55.174175 0.331015
v 7.390682 58.499855 -1.933811
v 6.756730 55.174175 0.331015
v 7.163109 53.779636 -2.334321
v -5.464445 51.761738 6.356601
v -5.943972 50.267590 4.096259
v -5.074321 50.016956 6.186235
v -6.466846 58.175320 3.896751
v -5.223326 56.408051 7.759881
v -5.272092 59.283878 7.053758
v 5.700144 53.573990 6.308779
v 3.641157 52.529694 8.364382
v 5.464445 51.761738 6.356601
v 0.677299 53.047024 10.016487
v 0.820886 54.441559 9.491191
v 0.000000 54.836784 9.948490
v 4.678778 53.590057 7.484157
v 4.624594 55.447296 7.854031
v 3.134538 54.679337 8.714082
v 7.824153 56.199192 -1.186590
v 6.756730 55.174175 0.331015
v 6.285330 50.248310 0.331015
v 8.590855 55.559761 -2.860364
v 0.000000 53.149845 10.452865
v 0.850687 50.916660 10.473040
v 1.666154 50.884525 8.563890
v 6.466846 58.175320 3.896751
v 6.193218 61.047935 3.615795
v 5.272092 59.283878 7.053758
v 8.436430 53.165913 -3.082289
v 7.184783 50.257950 -1.264301
v 6.285330 50.248310 0.331015
v 8.590855 55.559761 -2.860364
v 8.436430 53.165913 -3.082289
v 7.184783 50.257950 -1.264301
v 6.193218 61.047935 3.615795
v 3.717014 62.619202 6.400686
v -3.641157 52.529694 8.364382
v -3.115573 50.418610 8.100615
v -1.666154 50.884525 8.563890
v 0.000000 59.762650 9.642877
v -2.717322 59.820488 8.927039
v 0.000000 55.762192 10.272784
v -2.557479 55.787899 9.596549
v -8.590855 55.559761 -2.860364
v -7.824153 56.199192 -1.186590
v -7.163109 53.779636 -2.334321
v -6.756730 55.174175 0.331015
v -0.850687 50.958431 10.473040
v 0.000000 50.572845 10.674788
v 0.000000 51.115879 11.115648
v -8.436430 53.165913 -3.082289
v -7.184783 50.257950 -1.264301
v -6.285330 50.248310 0.331015
v -2.178192 53.670387 8.143952
v -1.842252 52.812458 8.972620
v -1.484638 54.065613 8.534749
v -0.677299 53.047024 10.016487
v -0.820886 54.441559 9.491191
v -6.285330 50.248310 0.331015
v -7.184783 50.257950 -1.264301
v -8.436430 53.165913 -3.082289
v -8.590855 55.559761 -2.860364
v -7.824153 56.199192 -1.186590
v -6.756730 55.174175 0.331015
v 5.223326 56.408051 7.759881
v 5.599904 54.811081 6.396951
v 6.407244 54.949249 4.830777
v 6.564377 52.764259 4.162762
v 5.943972 50.267590 4.096259
v 2.178192 53.670387 8.143952
v 2.300106 55.392673 8.881459
v 2.557479 55.768620 9.596549
v 6.285330 50.248310 0.331015
v -6.564377 52.764259 4.162762
v -5.700144 53.573990 6.308779
v -6.407244 54.949249 4.830777
v -5.599904 54.811081 6.396951
v -6.756730 55.174175 0.331015
v -6.285330 50.248310 0.331015
v -3.134538 54.679337 8.714082
v -2.300106 55.392673 8.881459
v -1.202882 55.106697 9.600286
v 2.717322 59.820488 8.927039
v 0.000000 62.905178 7.103820
v -4.624594 55.447296 7.854031
v -4.678778 53.590057 7.484157
v -7.163109 53.779636 -2.334321
v -7.390682 58.499855 -1.933811
v -6.193218 61.047935 3.615795
v -3.717014 62.619202 6.400686
v 1.202882 55.106697 9.600286
v 1.484638 54.065613 8.534749
v 1.842252 52.812458 8.972620
v 3.115573 50.418610 8.100615
v 5.074321 50.016956 6.186235
vn -0.8031 0.4173 -0.4252
vn -0.7550 0.1180 -0.6450
vn -0.8556 0.3925 -0.3375
vn 0.9864 -0.0079 0.1644
vn 0.9841 -0.0394 0.1732
vn 0.9815 -0.0628 0.1807
vn -0.8148 -0.1880 0.5484
vn -0.9273 -0.2908 0.2358
vn -0.7557 -0.2834 0.5904
vn -0.9726 0.0471 0.2275
vn -0.8096 -0.0786 0.5817
vn -0.7681 0.2351 0.5957
vn 0.8328 -0.0628 0.5500
vn 0.5028 0.0157 0.8642
vn 0.8148 -0.1880 0.5484
vn 0.6925 0.1731 0.7003
vn 0.6365 -0.1178 0.7622
vn -0.0000 -0.0472 0.9989
vn 0.5981 -0.1023 0.7948
vn 0.5955 -0.2821 0.7522
vn 0.2665 -0.2430 0.9327
vn 0.8725 -0.0943 0.4795
vn 0.9776 -0.2033 0.0548
vn -0.6279 0.2904 -0.7221
vn -0.0000 0.2830 0.9591
vn 0.6905 -0.3452 0.6356
vn 0.5255 -0.0784 0.8471
vn 0.9726 0.0471 0.2275
vn 0.9235 0.2289 0.3078
vn 0.7681 0.2351 0.5956
vn -0.5261 -0.0628 -0.8481
vn -0.7353 -0.1977 -0.6483
vn -0.8615 -0.1488 -0.4855
vn 0.8920 -0.0947 0.4420
vn 0.8814 -0.0866 0.4643
vn 0.8713 -0.0628 0.4867
vn 0.9235 0.2289 0.3079
vn 0.5426 0.5190 0.6605
vn -0.5028 0.0157 0.8642
vn -0.5687 -0.1659 0.8057
vn -0.5256 -0.0785 0.8471
vn -0.0000 0.4091 0.9125
vn -0.3610 0.3531 0.8631
vn -0.0000 -0.1260 0.9920
vn -0.4704 -0.3372 0.8155
vn 0.6279 0.2904 -0.7221
vn 0.8031 0.4173 -0.4252
vn 0.7551 0.1180 -0.6450
vn 0.8556 0.3925 -0.3375
vn -0.6924 -0.3383 0.6373
vn -0.0157 -0.8343 0.5510
vn -0.0000 -0.2202 0.9755
vn -0.8814 -0.0866 0.4643
vn -0.8713 -0.0628 0.4867
vn -0.9776 -0.2033 0.0548
vn -0.2974 0.0078 0.9547
vn -0.5447 0.2053 0.8131
vn -0.6603 -0.0786 0.7468
vn -0.6965 0.1722 0.6966
vn -0.6365 -0.1179 0.7622
vn 0.8615 -0.1488 -0.4855
vn 0.7353 -0.1976 -0.6483
vn 0.5261 -0.0628 -0.8481
vn -0.8920 -0.0947 0.4420
vn -0.8725 -0.0943 0.4795
vn -0.9841 -0.0393 0.1733
vn 0.8091 -0.0864 0.5813
vn 0.8208 -0.1105 0.5604
vn 0.9540 -0.0079 0.2996
vn 0.9691 -0.1103 0.2206
vn 0.9273 -0.2908 0.2358
vn 0.2974 0.0078 0.9547
vn 0.3231 -0.5358 0.7801
vn 0.4705 -0.3372 0.8155
vn 0.9776 -0.2033 0.0547
vn -0.9691 -0.1103 0.2206
vn -0.8328 -0.0628 0.5500
vn -0.9540 -0.0079 0.2996
vn -0.8208 -0.1105 0.5604
vn -0.9841 -0.0394 0.1732
vn -0.9776 -0.2033 0.0547
vn -0.2665 -0.2430 0.9327
vn -0.3231 -0.5358 0.7801
vn -0.4400 -0.5107 0.7386
vn 0.3610 0.3531 0.8631
vn -0.0000 0.6285 0.7778
vn -0.5955 -0.2821 0.7522
vn -0.5981 -0.1023 0.7948
vn -0.9815 -0.0628 0.1807
vn -0.9864 -0.0079 0.1644
vn -0.9235 0.2289 0.3078
vn -0.5426 0.5190 0.6605
vn 0.4336 -0.5125 0.7412
vn 0.6603 -0.0786 0.7468
vn 0.5447 0.2053 0.8131
vn 0.5658 -0.1572 0.8094
vn 0.7557 -0.2834 0.5904
vt 0.953125 0.328125
vt 0.968750 0.476562
vt 0.882812 0.414062
vt 0.049469 0.231750
vt 0.040161 0.389496
vt 0.007812 0.343750
vt 0.169617 0.622742
vt 0.089264 0.677429
vt 0.196411 0.718750
vt 0.100128 0.232239
vt 0.190338 0.278381
vt 0.239563 0.160156
vt 0.147308 0.525665
vt 0.308014 0.532349
vt 0.466125 0.493042
vt 0.453125 0.414062
vt 0.492188 0.382812
vt 0.210938 0.486969
vt 0.217438 0.372375
vt 0.306641 0.415039
vt 0.855469 0.645813
vt 0.992188 0.343750
vt 0.492188 0.468750
vt 0.460938 0.632812
vt 0.394165 0.629944
vt 0.135590 0.079224
vt 0.992188 0.515625
vt 0.903625 0.643219
vt 0.135986 0.078979
vt 0.301331 0.050201
vt 0.318573 0.664886
vt 0.492188 0.125000
vt 0.351562 0.148438
vt 0.492188 0.335938
vt 0.360352 0.322266
vt 0.492188 0.648438
vt 0.492188 0.617188
vt 0.348938 0.483063
vt 0.407104 0.519073
vt 0.402344 0.445862
vt 0.170135 0.404510
vt 0.097656 0.407227
vt 0.069183 0.536804
vt 0.346344 0.373688
vt 0.046875 0.664062
vt 0.429688 0.375000
vt 0.492188 0.039062
s 1
usemtl m_face091
f 54/33/54 55/34/55 56/35/56
f 57/36/57 58/37/58 59/38/59
f 60/39/60 61/40/61 62/41/62
f 63/42/63 64/43/64 65/44/65
f 66/45/66 67/46/67 68/39/68
f 69/47/69 70/48/70 71/49/71
f 72/50/72 73/51/73 74/52/74
f 75/33/75 76/35/58 77/53/76
f 55/34/55 54/33/54 78/54/77
f 71/49/71 79/55/78 69/47/69
f 69/47/69 79/55/78 80/56/79
f 69/47/69 80/56/79 81/57/80
f 58/37/58 57/36/57 82/42/81
f 82/42/81 57/36/57 83/58/82
f 82/42/81 83/58/82 84/44/83
f 78/54/77 85/59/84 55/34/55
f 55/34/55 85/59/84 86/60/85
f 55/34/55 86/60/85 87/53/86
f 88/54/87 75/33/75 89/59/88
f 89/59/88 75/33/75 77/53/76
f 89/59/88 77/53/76 90/60/89
f 91/61/90 92/62/91 84/44/83
f 93/46/92 94/63/93 95/57/94
f 96/64/95 97/65/96 98/66/97
f 98/66/97 97/65/96 99/67/98
f 100/54/99 101/33/100 102/34/101
f 102/34/101 101/33/100 103/35/102
f 104/56/103 105/68/104 106/69/105
f 107/59/106 108/60/107 109/53/108
f 110/70/109 111/71/110 112/72/111
f 112/72/111 111/71/110 113/47/112
f 112/72/111 113/47/112 114/48/113
f 115/53/114 116/60/115 102/34/101
f 102/34/101 116/60/115 117/59/116
f 102/34/101 117/59/116 100/54/99
f 118/54/117 107/59/106 119/33/118
f 119/33/118 107/59/106 109/53/108
f 119/33/118 109/53/108 120/35/119
f 121/43/120 122/73/121 123/74/122
f 123/74/122 122/73/121 66/45/66
f 123/74/122 66/45/66 124/75/123
f 124/75/123 66/45/66 68/39/68
f 124/75/123 68/39/68 125/40/124
f 67/46/67 72/50/72 126/70/125
f 126/70/125 72/50/72 74/52/74
f 126/70/125 74/52/74 127/76/126
f 127/76/126 74/52/74 73/51/73
f 127/76/126 73/51/73 128/67/127
f 125/40/124 129/77/128 124/75/123
f 124/75/123 129/77/128 58/37/58
f 124/75/123 58/37/58 123/74/122
f 123/74/122 58/37/58 82/42/81
f 123/74/122 82/42/81 121/43/120
f 121/43/120 82/42/81 84/44/83
f 61/40/61 60/39/60 130/75/129
f 130/75/129 60/39/60 131/45/130
f 130/75/129 131/45/130 132/74/131
f 132/74/131 131/45/130 133/73/132
f 132/74/131 133/73/132 64/43/64
f 64/43/64 63/42/63 132/74/131
f 132/74/131 63/42/63 134/37/133
f 132/74/131 134/37/133 130/75/129
f 130/75/129 134/37/133 135/77/134
f 130/75/129 135/77/134 61/40/61
f 136/52/135 110/70/109 137/76/136
f 137/76/136 110/70/109 112/72/111
f 137/76/136 112/72/111 138/78/137
f 138/78/137 112/72/111 114/48/113
f 138/78/137 114/48/113 71/49/71
f 71/49/71 114/48/113 113/47/112
f 71/49/71 113/47/112 79/55/78
f 67/46/67 66/45/66 72/50/72
f 72/50/72 66/45/66 122/73/121
f 72/50/72 122/73/121 73/51/73
f 73/51/73 122/73/121 121/43/120
f 73/51/73 121/43/120 128/67/127
f 128/67/127 121/43/120 84/44/83
f 128/67/127 84/44/83 139/65/138
f 139/65/138 84/44/83 92/62/91
f 139/65/138 92/62/91 140/79/139
f 97/65/96 65/44/65 99/67/98
f 99/67/98 65/44/65 64/43/64
f 99/67/98 64/43/64 141/51/140
f 141/51/140 64/43/64 133/73/132
f 141/51/140 133/73/132 142/50/141
f 142/50/141 133/73/132 131/45/130
f 142/50/141 131/45/130 93/46/92
f 93/46/92 131/45/130 60/39/60
f 93/46/92 60/39/60 94/63/93
f 94/63/93 60/39/60 62/41/62
f 143/38/142 134/37/133 144/36/143
f 144/36/143 134/37/133 63/42/63
f 144/36/143 63/42/63 145/58/144
f 145/58/144 63/42/63 65/44/65
f 145/58/144 65/44/65 146/62/145
f 146/62/145 65/44/65 97/65/96
f 146/62/145 97/65/96 140/79/139
f 140/79/139 97/65/96 96/64/95
f 140/79/139 96/64/95 139/65/138
f 139/65/138 96/64/95 98/66/97
f 139/65/138 98/66/97 128/67/127
f 128/67/127 98/66/97 147/78/146
f 128/67/127 147/78/146 127/76/126
f 127/76/126 147/78/146 148/72/147
f 127/76/126 148/72/147 126/70/125
f 126/70/125 148/72/147 149/71/148
f 126/70/125 149/71/148 67/46/67
f 105/68/104 80/56/79 106/69/105
f 106/69/105 80/56/79 79/55/78
f 106/69/105 79/55/78 104/56/103
f 104/56/103 79/55/78 113/47/112
f 104/56/103 113/47/112 95/57/94
f 95/57/94 113/47/112 111/71/110
f 95/57/94 111/71/110 93/46/92
f 93/46/92 111/71/110 110/70/109
f 93/46/92 110/70/109 142/50/141
f 142/50/141 110/70/109 136/52/135
f 142/50/141 136/52/135 141/51/140
f 141/51/140 136/52/135 137/76/136
f 141/51/140 137/76/136 99/67/98
f 99/67/98 137/76/136 138/78/137
f 99/67/98 138/78/137 98/66/97
f 98/66/97 138/78/137 71/49/71
f 98/66/97 71/49/71 147/78/146
f 147/78/146 71/49/71 70/48/70
f 147/78/146 70/48/70 148/72/147
f 148/72/147 70/48/70 69/47/69
f 148/72/147 69/47/69 149/71/148
f 149/71/148 69/47/69 81/57/80
f 149/71/148 81/57/80 67/46/67
f 67/46/67 81/57/80 150/63/149
f 67/46/67 150/63/149 68/39/68
f 68/39/68 150/63/149 151/41/150
f 68/39/68 151/41/150 125/40/124
