mtllib m_face016.mtl
o editpl_m-0000-145
v 5.375041 46.074341 2.263327
v 4.015026 46.617374 5.538394
v 3.811836 45.409203 4.481826
v 1.663445 50.270802 9.772893
v 1.110770 49.467499 9.482224
v 2.129427 49.387169 8.982334
v -1.110770 49.467499 9.482224
v -2.129427 49.387169 8.982334
v -1.609261 48.416775 9.695182
v 1.609261 48.416775 9.695182
v 0.000000 48.744522 10.110637
v 0.000000 48.272182 10.077759
v 2.142973 51.575371 8.843351
v 3.435258 49.653866 7.963872
v 3.698050 50.887741 8.058022
v 5.521338 47.751640 3.092742
v 6.621270 50.248310 0.347454
v 5.900625 50.392906 3.392377
v 2.473494 46.453499 8.199247
v 0.000000 47.234310 9.237884
v 0.000000 46.251064 9.385086
v 1.934365 44.425957 7.419150
v 1.907273 45.396351 8.544463
v 0.000000 44.265297 7.928754
v 0.000000 45.267822 9.124306
v 6.160707 47.108997 1.129793
v -2.473494 46.453499 8.199247
v -7.163109 53.779636 -2.317882
v -6.160707 47.108997 1.129793
v -6.621270 50.248310 0.347454
v -5.521338 47.751640 3.092742
v -4.199251 46.405300 0.298884
v 0.000000 44.303856 3.787658
v -5.375041 46.074341 2.263327
v -3.811836 45.409203 4.481826
v -4.015026 46.617374 5.538394
v -2.728158 44.541634 6.511277
v -1.934365 44.425957 7.419150
v -2.701067 45.611637 7.789024
v -1.907273 45.396351 8.544463
v 2.728158 44.541634 6.511277
v 2.701067 45.611637 7.789024
v -2.142973 51.575371 8.843351
v 0.000000 50.794556 9.811001
v -1.162244 51.626781 10.810782
v 0.000000 50.862034 10.736808
v 5.068902 50.717442 6.367809
v 4.302200 48.856987 7.156874
v 3.570718 47.433533 7.980311
v 1.162244 51.626781 10.810782
v 0.000000 51.703899 11.305442
v 2.129427 49.387169 8.982334
v 1.110770 49.467499 9.482224
v 0.000000 49.461071 9.676502
v -4.302200 48.856987 7.156874
v -3.570718 47.433533 7.980311
v -3.435258 49.512482 7.963872
v -2.129427 49.387169 8.982334
v -1.663445 50.270802 9.772893
v -1.110770 49.467499 9.482224
v 0.000000 50.277229 10.150240
v 0.000000 49.461071 9.676502
v -3.698050 50.746361 8.058022
v -5.068902 50.717442 6.367809
v -5.900625 50.392906 3.392377
v 4.199251 46.405300 0.298884
v 7.163109 53.779636 -2.317882
vn 0.6850 -0.7243 0.0787
vn 0.8516 -0.3627 0.3785
vn 0.6285 -0.7700 0.1100
vn 0.4314 -0.0000 0.9021
vn 0.2283 -0.4881 0.8424
vn 0.4876 -0.4246 0.7628
vn -0.2910 0.4089 0.8650
vn -0.5044 0.3152 0.8039
vn -0.4472 -0.0000 0.8944
vn 0.4472 0.0078 0.8944
vn -0.0000 0.2664 0.9639
vn -0.0000 -0.4250 0.9052
vn 0.6147 -0.0315 0.7881
vn 0.6285 -0.0079 0.7778
vn 0.5575 -0.1492 0.8167
vn 0.9182 -0.2197 0.3296
vn 0.9522 -0.1731 0.2518
vn 0.9280 -0.2674 0.2595
vn 0.5433 -0.2913 0.7874
vn -0.0000 -0.2830 0.9591
vn -0.0000 -0.0157 0.9999
vn 0.2901 -0.9094 0.2979
vn 0.4558 -0.4322 0.7781
vn -0.0000 -0.8944 0.4472
vn -0.0000 -0.5363 0.8440
vn 0.9064 -0.4099 -0.1025
vn -0.5433 -0.2913 0.7874
vn 0.3138 -0.0158 -0.9493
vn -0.9064 -0.4099 -0.1025
vn -0.9522 -0.1731 0.2518
vn -0.9182 -0.2197 0.3296
vn -0.4018 -0.7643 -0.5043
vn -0.0000 -0.9920 -0.1260
vn -0.6850 -0.7243 0.0787
vn -0.6285 -0.7700 0.1100
vn -0.8516 -0.3627 0.3785
vn -0.5514 -0.8192 0.1575
vn -0.2901 -0.9094 0.2979
vn -0.8032 -0.2913 0.5197
vn -0.4558 -0.4322 0.7781
vn 0.5514 -0.8192 0.1575
vn 0.8032 -0.2913 0.5197
vn -0.6147 -0.0315 0.7881
vn -0.0000 -0.3138 0.9495
vn -0.6355 -0.3295 0.6983
vn -0.0000 -0.8498 0.5271
vn 0.8462 -0.2507 0.4701
vn 0.8243 -0.1884 0.5338
vn 0.7414 -0.2682 0.6152
vn 0.6355 -0.3295 0.6983
vn -0.0000 -0.1733 0.9849
vn 0.4941 0.3215 0.8078
vn 0.2910 0.4089 0.8650
vn -0.0000 0.5182 0.8553
vn -0.8243 -0.1884 0.5339
vn -0.7414 -0.2682 0.6152
vn -0.6284 -0.0157 0.7777
vn -0.4799 -0.4327 0.7632
vn -0.4314 -0.0078 0.9021
vn -0.2283 -0.4882 0.8423
vn -0.0000 -0.1567 0.9876
vn -0.0000 -0.5029 0.8644
vn -0.5665 -0.1495 0.8104
vn -0.8494 -0.2516 0.4640
vn -0.9280 -0.2674 0.2595
vn 0.4018 -0.7643 -0.5043
vn -0.3138 -0.0156 -0.9494
vt 0.882660 0.970734
vt 0.686493 0.936829
vt 0.703247 0.970734
vt 0.590973 0.702850
vt 0.554993 0.733337
vt 0.622375 0.733337
vt 0.602539 0.789276
vt 0.500122 0.777466
vt 0.500122 0.797058
vt 0.612152 0.621338
vt 0.678284 0.733337
vt 0.731384 0.663910
vt 0.904694 0.894043
vt 0.986481 0.683441
vt 0.931061 0.679077
vt 0.641571 0.894287
vt 0.500122 0.854279
vt 0.500122 0.912506
vt 0.615051 0.967651
vt 0.606293 0.939636
vt 0.500122 0.967651
vt 0.500122 0.944885
vt 0.964478 0.970337
vt 0.986481 0.504211
vt 0.986481 0.987427
vt 0.500122 0.987427
vt 0.659149 0.969177
vt 0.646393 0.938232
vt 0.500122 0.668457
vt 0.566010 0.593201
vt 0.500122 0.623962
vt 0.820557 0.669769
vt 0.751007 0.827515
vt 0.688965 0.841522
vt 0.500122 0.582855
vt 0.500122 0.733337
vt 0.500122 0.702850
s 1
usemtl m_face087
f 1/1/1 2/2/2 3/3/3
f 4/4/4 5/5/5 6/6/6
f 7/5/7 8/6/8 9/7/9
f 10/7/10 11/8/11 12/9/12
f 13/10/13 14/11/14 15/12/15
f 16/13/16 17/14/17 18/15/18
f 19/16/19 20/17/20 21/18/21
f 22/19/22 23/20/23 24/21/24
f 24/21/24 23/20/23 25/22/25
f 2/2/2 1/1/1 16/13/16
f 16/13/16 1/1/1 26/23/26
f 16/13/16 26/23/26 17/14/17
f 27/16/27 12/9/12 9/7/9
f 9/7/9 12/9/12 11/8/11
f 9/7/9 11/8/11 7/5/7
f 28/24/28 29/23/29 30/14/30
f 30/14/30 29/23/29 31/13/31
f 32/25/32 33/26/33 34/1/34
f 34/1/34 33/26/33 35/3/35
f 34/1/34 35/3/35 36/2/36
f 37/27/37 38/19/38 39/28/39
f 39/28/39 38/19/38 40/20/40
f 39/28/39 40/20/40 27/16/27
f 24/21/24 33/26/33 22/19/22
f 22/19/22 33/26/33 41/27/41
f 22/19/22 41/27/41 23/20/23
f 23/20/23 41/27/41 42/28/42
f 43/10/43 44/29/44 45/30/45
f 45/30/45 44/29/44 46/31/46
f 18/15/18 47/32/47 16/13/16
f 16/13/16 47/32/47 48/33/48
f 16/13/16 48/33/48 2/2/2
f 2/2/2 48/33/48 49/34/49
f 2/2/2 49/34/49 19/16/19
f 6/6/6 14/11/14 4/4/4
f 4/4/4 14/11/14 13/10/13
f 4/4/4 13/10/13 44/29/44
f 44/29/44 13/10/13 50/30/50
f 44/29/44 50/30/50 46/31/46
f 46/31/46 50/30/50 51/35/51
f 46/31/46 51/35/51 45/30/45
f 14/11/14 52/6/52 10/7/10
f 10/7/10 52/6/52 53/5/53
f 10/7/10 53/5/53 11/8/11
f 11/8/11 53/5/53 54/36/54
f 11/8/11 54/36/54 7/5/7
f 28/24/28 32/25/32 29/23/29
f 29/23/29 32/25/32 34/1/34
f 29/23/29 34/1/34 31/13/31
f 31/13/31 34/1/34 36/2/36
f 31/13/31 36/2/36 55/33/55
f 55/33/55 36/2/36 56/34/56
f 55/33/55 56/34/56 57/11/57
f 57/11/57 58/6/58 59/4/59
f 59/4/59 58/6/58 60/5/60
f 59/4/59 60/5/60 61/37/61
f 61/37/61 60/5/60 62/36/62
f 61/37/61 62/36/62 5/5/5
f 40/20/40 21/18/21 27/16/27
f 27/16/27 21/18/21 20/17/20
f 27/16/27 20/17/20 12/9/12
f 12/9/12 20/17/20 19/16/19
f 12/9/12 19/16/19 10/7/10
f 10/7/10 19/16/19 49/34/49
f 10/7/10 49/34/49 14/11/14
f 14/11/14 49/34/49 48/33/48
f 14/11/14 48/33/48 15/12/15
f 15/12/15 48/33/48 47/32/47
f 5/5/5 4/4/4 61/37/61
f 61/37/61 4/4/4 44/29/44
f 61/37/61 44/29/44 59/4/59
f 59/4/59 44/29/44 43/10/43
f 59/4/59 43/10/43 57/11/57
f 57/11/57 43/10/43 63/12/63
f 57/11/57 63/12/63 55/33/55
f 55/33/55 63/12/63 64/32/64
f 55/33/55 64/32/64 31/13/31
f 31/13/31 64/32/64 65/15/65
f 31/13/31 65/15/65 30/14/30
f 8/6/8 57/11/57 9/7/9
f 9/7/9 57/11/57 56/34/56
f 9/7/9 56/34/56 27/16/27
f 27/16/27 56/34/56 36/2/36
f 27/16/27 36/2/36 39/28/39
f 39/28/39 36/2/36 35/3/35
f 39/28/39 35/3/35 37/27/37
f 37/27/37 35/3/35 33/26/33
f 37/27/37 33/26/33 38/19/38
f 38/19/38 33/26/33 24/21/24
f 38/19/38 24/21/24 40/20/40
f 40/20/40 24/21/24 25/22/25
f 40/20/40 25/22/25 21/18/21
f 21/18/21 25/22/25 23/20/23
f 21/18/21 23/20/23 19/16/19
f 19/16/19 23/20/23 42/28/42
f 19/16/19 42/28/42 2/2/2
f 2/2/2 42/28/42 41/27/41
f 2/2/2 41/27/41 3/3/3
f 3/3/3 41/27/41 33/26/33
f 3/3/3 33/26/33 1/1/1
f 1/1/1 33/26/33 66/25/66
f 1/1/1 66/25/66 26/23/26
f 26/23/26 66/25/66 67/24/67
f 26/23/26 67/24/67 17/14/17
o editpl_m-0000-146
v -7.824153 56.199192 -1.170151
v -7.163109 53.779636 -2.317882
v -8.590855 55.559761 -2.843925
v -6.515612 52.886360 4.377214
v -6.621270 50.248310 0.347454
v -5.900625 50.392906 3.392377
v 7.182074 50.257950 -1.247862
v 8.436430 53.165913 -3.065850
v 6.621270 50.248310 0.347454
v 6.959920 55.174175 0.347454
v 7.824153 56.199192 -1.170151
v 8.590855 55.559761 -2.843925
v 0.000000 55.611172 9.578616
v 0.000000 54.068829 10.683755
v 0.899452 55.514774 9.219203
v 6.959920 55.174175 0.347454
v 7.824153 56.199192 -1.170151
v 7.163109 53.779636 -2.317882
v 8.590855 55.559761 -2.843925
v 2.142973 51.575371 8.843351
v 0.891325 53.856754 10.296695
v 1.162244 51.626781 10.810782
v 8.436430 53.165913 -3.065850
v 7.182074 50.257950 -1.247862
v 6.621270 50.248310 0.347454
v -6.621270 50.248310 0.347454
v -8.436430 53.165913 -3.065850
v -7.182074 50.257950 -1.247862
v -8.590855 55.559761 -2.843925
v -7.824153 56.199192 -1.170151
v -6.959920 55.174175 0.347454
v -6.959920 55.174175 0.347454
v -1.162244 51.626781 10.810782
v 0.000000 51.703899 11.305442
v -0.899452 55.514774 9.219203
v -1.506312 54.701832 8.076703
v -0.891325 53.856754 10.296695
v -1.777231 53.079155 9.187072
v -2.142973 51.575371 8.843351
v -6.621270 50.248310 0.347454
v -7.182074 50.257950 -1.247862
v -8.436430 53.165913 -3.065850
v -6.466846 58.175320 3.896751
v -4.369930 58.149612 8.250057
v -4.871131 59.512020 7.470707
v -2.717322 59.820488 8.927039
v 1.506312 54.701832 8.076703
v 1.777231 53.079155 9.187072
v 2.278432 54.653633 8.036353
v 2.950312 53.194832 8.621427
v 4.586666 54.881771 7.392249
v 4.887386 52.847805 7.729245
v 5.480700 53.982071 6.659225
v 5.854568 52.610027 6.450004
v 6.515612 52.886360 4.377214
v 3.698050 50.887741 8.058022
v 5.068902 50.717442 6.367809
v 5.900625 50.392906 3.392377
v -5.854568 52.610027 6.450004
v -5.480700 53.982071 6.659225
v -5.979191 55.132401 5.561558
v -5.328985 55.016727 6.902071
v -5.280219 56.478741 7.757639
v -7.163109 53.779636 -2.317882
v -6.959920 55.174175 0.347454
v -7.390682 58.499855 -1.933811
v -6.193218 61.047935 3.615795
v -3.717014 62.619202 6.400686
v 0.000000 62.905178 7.103820
v 0.000000 56.620121 9.898426
v 1.587588 56.607269 9.676502
v 2.267595 55.746128 8.193269
v 4.369930 56.848263 8.912841
v 4.356384 55.437656 7.592504
v 5.280219 56.478741 7.757639
v 5.328985 55.016727 6.902071
v 5.979191 55.132401 5.561558
v 6.621270 50.248310 0.347454
v 6.959920 55.174175 0.347454
v 6.466846 58.175320 3.896751
v 4.369930 58.149612 8.250057
v 2.151100 58.011448 9.128788
v 0.000000 57.764027 9.336515
v -1.587588 56.607269 9.676502
v -2.267595 55.746128 8.193269
v -2.278432 54.653633 8.036353
v -2.950312 53.194832 8.621427
v -3.698050 50.746361 8.058022
v 4.871131 59.512020 7.470707
v 2.717322 59.820488 8.927039
v 0.000000 59.762650 9.333527
v -2.151100 58.011448 9.128788
v -4.369930 56.848263 8.912841
v -4.356384 55.437656 7.592504
v -4.586666 54.881771 7.392249
v -4.887386 52.847805 7.729245
v -5.068902 50.717442 6.367809
v 3.717014 62.619202 6.400686
v 6.193218 61.047935 3.615795
v 7.390682 58.499855 -1.933811
v 7.163109 53.779636 -2.317882
vn 0.8267 0.4094 -0.3858
vn 0.3139 -0.0157 -0.9493
vn 0.6279 0.2904 -0.7221
vn -0.9659 -0.0628 0.2513
vn -0.9522 -0.1731 0.2518
vn -0.9280 -0.2674 0.2595
vn -0.5275 -0.4803 -0.7008
vn 0.9119 -0.1179 0.3931
vn 0.9522 -0.1731 0.2519
vn 0.9824 0.0472 0.1808
vn 0.8948 -0.0785 0.4395
vn 0.8920 -0.0947 0.4420
vn -0.0000 0.1491 0.9888
vn -0.0000 0.4156 0.9096
vn 0.5577 -0.0943 0.8247
vn -0.8267 0.4094 -0.3858
vn -0.3139 -0.0157 -0.9493
vn -0.6279 0.2904 -0.7221
vn 0.6147 -0.0315 0.7881
vn 0.7557 0.2834 0.5904
vn 0.6355 -0.3296 0.6982
vn -0.5261 -0.0628 -0.8481
vn -0.5275 -0.4803 -0.7007
vn 0.9522 -0.1730 0.2518
vn -0.9522 -0.1731 0.2519
vn -0.9119 -0.1179 0.3931
vn 0.5276 -0.4803 -0.7007
vn -0.8920 -0.0947 0.4420
vn -0.8948 -0.0785 0.4395
vn -0.9824 0.0472 0.1808
vn -0.6355 -0.3296 0.6982
vn -0.0000 -0.1733 0.9849
vn -0.5577 -0.0943 0.8247
vn -0.6046 0.1335 0.7853
vn -0.7557 0.2834 0.5904
vn -0.5483 0.3133 0.7754
vn -0.6147 -0.0315 0.7881
vn -0.9522 -0.1730 0.2518
vn 0.5275 -0.4803 -0.7007
vn 0.5261 -0.0628 -0.8481
vn -0.9555 0.0548 0.2898
vn -0.6752 0.2120 0.7066
vn -0.7804 0.2444 0.5755
vn -0.3374 0.3374 0.8788
vn 0.6046 0.1335 0.7853
vn 0.5483 0.3133 0.7754
vn 0.2128 0.1734 0.9616
vn 0.3848 0.1492 0.9109
vn 0.4861 0.0784 0.8704
vn 0.6704 -0.0315 0.7414
vn 0.8319 0.0785 0.5493
vn 0.8917 -0.1408 0.4302
vn 0.9659 -0.0628 0.2513
vn 0.5575 -0.1492 0.8166
vn 0.8462 -0.2507 0.4701
vn 0.9280 -0.2674 0.2595
vn -0.8917 -0.1408 0.4302
vn -0.8319 0.0785 0.5493
vn -0.9470 -0.0157 0.3209
vn -0.6925 -0.1731 0.7003
vn -0.8172 -0.1100 0.5658
vn 0.3138 -0.0157 -0.9493
vn -0.9824 0.0471 0.1807
vn -0.9899 0.0079 0.1414
vn -0.9166 0.2272 0.3290
vn -0.5264 0.5263 0.6678
vn -0.0000 0.6063 0.7952
vn -0.0000 -0.1095 0.9940
vn 0.2582 -0.1487 0.9546
vn 0.3152 -0.5044 0.8039
vn 0.4488 -0.2204 0.8660
vn 0.3706 -0.3706 0.8516
vn 0.8172 -0.1100 0.5658
vn 0.6925 -0.1731 0.7003
vn 0.9470 -0.0157 0.3209
vn 0.9522 -0.1731 0.2518
vn 0.9824 0.0471 0.1807
vn 0.9555 0.0548 0.2898
vn 0.6752 0.2120 0.7066
vn 0.2047 0.1889 0.9604
vn -0.0000 0.2664 0.9639
vn -0.2582 -0.1487 0.9546
vn -0.3152 -0.5044 0.8039
vn -0.2128 0.1734 0.9616
vn -0.3848 0.1492 0.9109
vn -0.5665 -0.1495 0.8104
vn 0.7805 0.2444 0.5755
vn 0.3374 0.3374 0.8788
vn -0.0000 0.2203 0.9754
vn -0.2047 0.1889 0.9604
vn -0.4488 -0.2204 0.8660
vn -0.3706 -0.3706 0.8516
vn -0.4861 0.0784 0.8704
vn -0.6747 -0.0314 0.7374
vn -0.8493 -0.2517 0.4640
vn 0.5264 0.5263 0.6678
vn 0.9166 0.2272 0.3290
vn 0.9899 0.0079 0.1414
vn -0.3138 -0.0156 -0.9494
vt 0.099365 0.367096
vt 0.102783 0.403442
vt 0.093414 0.383026
vt 0.924347 0.520569
vt 0.988525 0.683441
vt 0.931061 0.679077
vt 0.096344 0.636536
vt 0.018585 0.544769
vt 0.129120 0.620270
vt 0.129120 0.420105
vt 0.032349 0.315857
vt 0.012787 0.385132
vt 0.502869 0.366852
vt 0.500122 0.487488
vt 0.561920 0.362122
vt 0.118347 0.380188
vt 0.612152 0.621338
vt 0.556580 0.491394
vt 0.566010 0.593201
vt 0.094666 0.416870
vt 0.112946 0.436218
vt 0.118347 0.432770
vt 0.500122 0.582855
vt 0.597870 0.429993
vt 0.612549 0.522278
vt 0.935150 0.257263
vt 0.782074 0.231445
vt 0.824493 0.155151
vt 0.650879 0.132263
vt 0.638000 0.426331
vt 0.686737 0.524811
vt 0.779144 0.422058
vt 0.803131 0.540863
vt 0.846497 0.454468
vt 0.864258 0.544037
vt 0.731384 0.663910
vt 0.820557 0.669769
vt 0.893585 0.385071
vt 0.861786 0.378662
vt 0.833771 0.317322
vt 0.988525 0.504211
vt 0.988617 0.384094
vt 0.988525 0.233551
vt 0.919373 0.085846
vt 0.748749 0.012695
vt 0.500122 0.012695
vt 0.500122 0.308228
vt 0.600555 0.303772
vt 0.641785 0.352753
vt 0.760376 0.292511
vt 0.767639 0.374603
vt 0.625702 0.242676
vt 0.500122 0.246613
vt 0.500122 0.135712
s 1
usemtl m_face087
f 68/38/68 69/39/69 70/40/70
f 71/41/71 72/42/72 73/43/73
f 74/44/74 75/45/75 76/46/76
f 77/47/77 76/46/76 78/48/78
f 78/48/78 76/46/76 75/45/75
f 78/48/78 75/45/75 79/49/79
f 80/50/80 81/51/81 82/52/82
f 83/53/77 84/38/83 85/39/84
f 85/39/84 84/38/83 86/40/85
f 87/54/86 88/55/87 89/56/88
f 86/40/85 90/57/89 85/39/84
f 85/39/84 90/57/89 91/58/90
f 85/39/84 91/58/90 92/59/91
f 93/46/92 94/45/93 95/44/94
f 96/49/95 94/45/93 97/48/96
f 97/48/96 94/45/93 93/46/92
f 97/48/96 93/46/92 98/47/97
f 69/39/69 68/38/68 99/53/97
f 81/51/81 100/56/98 101/60/99
f 102/52/100 103/61/101 104/55/102
f 104/55/102 103/61/101 105/62/103
f 104/55/102 105/62/103 106/54/104
f 107/59/105 108/58/106 69/39/69
f 69/39/69 108/58/106 109/57/107
f 69/39/69 109/57/107 70/40/70
f 110/63/108 111/64/109 112/65/110
f 112/65/110 111/64/109 113/66/111
f 114/61/112 115/62/113 116/67/114
f 116/67/114 115/62/113 117/68/115
f 116/67/114 117/68/115 118/69/116
f 118/69/116 117/68/115 119/70/117
f 118/69/116 119/70/117 120/71/118
f 120/71/118 119/70/117 121/72/119
f 120/71/118 121/72/119 122/41/120
f 114/61/112 88/55/87 115/62/113
f 115/62/113 88/55/87 87/54/86
f 115/62/113 87/54/86 117/68/115
f 117/68/115 87/54/86 123/73/121
f 117/68/115 123/73/121 119/70/117
f 119/70/117 123/73/121 124/74/122
f 119/70/117 124/74/122 121/72/119
f 121/72/119 124/74/122 125/43/123
f 121/72/119 125/43/123 122/41/120
f 73/43/73 126/72/124 71/41/71
f 71/41/71 126/72/124 127/71/125
f 71/41/71 127/71/125 128/75/126
f 128/75/126 127/71/125 129/76/127
f 128/75/126 129/76/127 130/77/128
f 131/78/129 132/79/130 133/80/131
f 133/80/131 132/79/130 110/63/108
f 133/80/131 110/63/108 134/81/132
f 134/81/132 110/63/108 112/65/110
f 134/81/132 112/65/110 135/82/133
f 135/82/133 112/65/110 113/66/111
f 135/82/133 113/66/111 136/83/134
f 72/42/72 71/41/71 132/79/130
f 132/79/130 71/41/71 128/75/126
f 132/79/130 128/75/126 110/63/108
f 110/63/108 128/75/126 130/77/128
f 110/63/108 130/77/128 111/64/109
f 106/54/104 100/56/98 104/55/102
f 104/55/102 100/56/98 81/51/81
f 104/55/102 81/51/81 102/52/100
f 102/52/100 81/51/81 80/50/80
f 102/52/100 80/50/80 137/84/135
f 137/84/135 80/50/80 82/52/82
f 137/84/135 82/52/82 138/85/136
f 138/85/136 82/52/82 139/86/137
f 138/85/136 139/86/137 140/87/138
f 140/87/138 139/86/137 141/88/139
f 140/87/138 141/88/139 142/77/140
f 142/77/140 141/88/139 143/76/141
f 142/77/140 143/76/141 144/75/142
f 101/60/99 89/56/88 81/51/81
f 81/51/81 89/56/88 88/55/87
f 81/51/81 88/55/87 82/52/82
f 82/52/82 88/55/87 114/61/112
f 82/52/82 114/61/112 139/86/137
f 139/86/137 114/61/112 116/67/114
f 139/86/137 116/67/114 141/88/139
f 141/88/139 116/67/114 118/69/116
f 141/88/139 118/69/116 143/76/141
f 143/76/141 118/69/116 120/71/118
f 143/76/141 120/71/118 144/75/142
f 144/75/142 120/71/118 122/41/120
f 125/43/123 145/42/143 122/41/120
f 122/41/120 145/42/143 146/79/144
f 122/41/120 146/79/144 144/75/142
f 144/75/142 146/79/144 147/63/145
f 144/75/142 147/63/145 142/77/140
f 142/77/140 147/63/145 148/64/146
f 142/77/140 148/64/146 140/87/138
f 140/87/138 148/64/146 149/89/147
f 140/87/138 149/89/147 138/85/136
f 138/85/136 149/89/147 150/90/148
f 138/85/136 150/90/148 137/84/135
f 137/84/135 150/90/148 151/85/149
f 137/84/135 151/85/149 102/52/100
f 102/52/100 151/85/149 152/86/150
f 102/52/100 152/86/150 103/61/101
f 103/61/101 152/86/150 153/67/151
f 103/61/101 153/67/151 105/62/103
f 105/62/103 153/67/151 154/68/152
f 105/62/103 154/68/152 106/54/104
f 106/54/104 154/68/152 155/73/153
f 147/63/145 156/65/154 148/64/146
f 148/64/146 156/65/154 157/66/155
f 148/64/146 157/66/155 149/89/147
f 149/89/147 157/66/155 158/91/156
f 149/89/147 158/91/156 150/90/148
f 150/90/148 158/91/156 159/89/157
f 150/90/148 159/89/157 151/85/149
f 151/85/149 159/89/157 160/87/158
f 151/85/149 160/87/158 152/86/150
f 152/86/150 160/87/158 161/88/159
f 152/86/150 161/88/159 153/67/151
f 153/67/151 161/88/159 162/69/160
f 153/67/151 162/69/160 154/68/152
f 154/68/152 162/69/160 163/70/161
f 154/68/152 163/70/161 155/73/153
f 155/73/153 163/70/161 164/74/162
f 73/43/73 164/74/162 126/72/124
f 126/72/124 164/74/162 163/70/161
f 126/72/124 163/70/161 127/71/125
f 127/71/125 163/70/161 162/69/160
f 127/71/125 162/69/160 129/76/127
f 129/76/127 162/69/160 161/88/159
f 129/76/127 161/88/159 130/77/128
f 130/77/128 161/88/159 160/87/158
f 130/77/128 160/87/158 111/64/109
f 111/64/109 160/87/158 159/89/157
f 111/64/109 159/89/157 113/66/111
f 113/66/111 159/89/157 158/91/156
f 113/66/111 158/91/156 136/83/134
f 136/83/134 158/91/156 157/66/155
f 136/83/134 157/66/155 165/82/163
f 165/82/163 157/66/155 156/65/154
f 165/82/163 156/65/154 166/81/164
f 166/81/164 156/65/154 147/63/145
f 166/81/164 147/63/145 167/80/165
f 167/80/165 147/63/145 146/79/144
f 167/80/165 146/79/144 168/78/166
