mtllib m_face009.mtl
o editpl_m-0000-134
v 0.000000 50.849182 10.515630
v 1.888308 51.523956 9.278980
v 0.975310 51.851707 11.281531
v 4.548737 57.969673 8.220915
v 5.272092 59.405983 7.053758
v 2.717322 59.820488 8.927039
v -7.824153 56.199192 -1.170151
v -7.163109 53.779636 -2.317882
v -8.590855 55.559761 -2.843925
v -5.881660 50.116570 3.249658
v -5.819349 52.211586 6.178762
v -6.342223 52.674290 4.463891
v 2.115881 57.468410 9.309615
v 0.000000 56.774357 9.979126
v 1.731175 55.977478 9.858076
v -1.888308 51.523956 9.278980
v -0.975310 51.851707 11.281531
v 1.747430 52.860657 8.774608
v 0.877779 54.396576 9.943259
v 0.929254 52.401169 10.827221
v 0.000000 54.599007 10.431194
v 0.000000 52.610027 11.295730
v 2.026477 51.450054 9.219203
v 3.045134 48.461761 8.367372
v 3.855183 50.585697 8.093142
v 1.568623 49.965546 9.870779
v 5.998156 54.602222 5.628061
v 6.862389 55.174175 0.347454
v 6.466846 58.287785 3.896751
v 7.255222 49.923775 -1.247862
v 8.574599 53.165913 -3.065850
v 6.447882 50.248310 0.347454
v 6.862389 55.174175 0.347454
v 7.824153 56.199192 -1.170151
v 8.590855 55.559761 -2.843925
v 6.862389 55.174175 0.347454
v 7.824153 56.199192 -1.170151
v 7.163109 53.779636 -2.317882
v 8.590855 55.559761 -2.843925
v 4.445788 54.467266 7.688148
v 3.267288 54.991020 8.357657
v 2.140263 54.409428 8.321044
v 8.574599 53.165913 -3.065850
v 7.255222 49.923775 -1.247862
v 6.447882 50.248310 0.347454
v -1.568623 49.965546 9.870779
v -2.026477 51.450054 9.219203
v 2.156519 55.579041 8.598263
v 0.959055 55.360542 9.225182
v 1.430454 54.599007 8.425655
v 5.117668 56.523727 8.139469
v 4.147776 56.632977 9.212479
v 2.213412 55.601532 9.228169
v -6.447882 50.248310 0.347454
v -8.574599 53.165913 -3.065850
v -7.255222 49.923775 -1.247862
v -8.590855 55.559761 -2.843925
v -7.824153 56.199192 -1.170151
v -6.862389 55.174175 0.347454
v -6.862389 55.174175 0.347454
v 0.000000 57.227421 9.618218
v -2.115881 57.468410 9.309615
v -5.269383 54.537956 6.920005
v -5.117668 56.523727 8.139469
v -5.998156 54.602222 5.628061
v -0.959055 55.360542 9.225182
v -0.877779 54.396576 9.943259
v -0.929254 52.401169 10.827221
v -4.743799 50.074795 6.754869
v -1.747430 52.860657 8.774608
v -1.430454 54.599007 8.425655
v -2.140263 54.409428 8.321044
v -2.156519 55.579041 8.598263
v -3.267288 54.991020 8.357657
v -6.447882 50.248310 0.347454
v -7.255222 49.923775 -1.247862
v -8.574599 53.165913 -3.065850
v 5.881660 50.116570 3.249658
v 5.819349 52.211586 6.178762
v 4.743799 50.074795 6.754869
v 4.857585 52.349754 7.709070
v 2.920511 52.606812 8.507849
v 4.464752 55.273785 8.007211
v 5.269383 54.537956 6.920005
v -4.857585 52.349754 7.709070
v -3.855183 50.585697 8.093142
v -4.147776 56.632977 9.212479
v -4.464752 55.273785 8.007211
v -4.445788 54.467266 7.688148
v -2.920511 52.606812 8.507849
v -3.045134 48.461761 8.367372
v -2.213412 55.601532 9.228169
v 0.000000 59.762650 9.333527
v -2.717322 59.820488 8.927039
v -4.548737 57.969673 8.220915
v -5.272092 59.405983 7.053758
v -6.466846 58.287785 3.896751
v 0.000000 62.905178 7.103820
v 3.717014 62.619202 6.400686
v 6.193218 61.047935 3.615795
v 7.390682 58.499855 -1.933811
v 7.163109 53.779636 -2.317882
v -7.163109 53.779636 -2.317882
v -6.862389 55.174175 0.347454
v -7.390682 58.499855 -1.933811
v -6.193218 61.047935 3.615795
v -3.717014 62.619202 6.400686
v 6.447882 50.248310 0.347454
v 6.342223 52.674290 4.463891
v 0.000000 55.781471 9.578616
v -1.731175 55.977478 9.858076
v -6.447882 50.248310 0.347454
vn -0.0000 -0.3605 0.9327
vn 0.7647 0.0868 0.6386
vn 0.6897 -0.1254 0.7132
vn 0.6766 0.2281 0.7002
vn 0.8032 0.2441 0.5434
vn 0.3531 0.3609 0.8632
vn 0.8164 0.4161 -0.4004
vn 0.4629 -0.0000 -0.8864
vn 0.6187 0.2741 -0.7362
vn -0.9517 -0.1966 0.2359
vn -0.9109 -0.1492 0.3848
vn -0.9654 -0.0942 0.2433
vn 0.1962 0.2983 0.9341
vn -0.0000 0.1961 0.9806
vn 0.1336 -0.3694 0.9196
vn -0.7646 0.0867 0.6386
vn -0.0000 -0.3606 0.9327
vn -0.6897 -0.1254 0.7132
vn 0.6125 0.2827 0.7382
vn 0.7806 0.3075 0.5441
vn 0.7189 0.3634 0.5925
vn -0.0000 0.4936 0.8697
vn -0.0000 0.5708 0.8211
vn 0.5171 0.1724 0.8384
vn 0.5651 -0.1648 0.8084
vn 0.6069 -0.1025 0.7882
vn 0.4014 -0.2990 0.8657
vn 0.9444 -0.0630 0.3227
vn 0.9846 0.0236 0.1733
vn 0.9602 0.0472 0.2755
vn -0.5177 -0.4471 -0.7295
vn 0.8874 -0.0707 0.4555
vn 0.9818 -0.1885 0.0235
vn 0.8830 -0.0631 0.4651
vn 0.9045 -0.0393 0.4247
vn -0.8165 0.4161 -0.4003
vn -0.4629 -0.0000 -0.8864
vn -0.6187 0.2741 -0.7362
vn 0.4500 -0.1263 0.8841
vn 0.2361 -0.2597 0.9364
vn 0.1958 -0.0548 0.9791
vn -0.4957 -0.0708 -0.8656
vn -0.4014 -0.2990 0.8657
vn -0.5171 0.1724 0.8384
vn 0.2902 -0.5805 0.7608
vn 0.5334 -0.3530 0.7687
vn 0.6063 -0.0079 0.7952
vn 0.8263 -0.0708 0.5587
vn 0.5038 -0.2755 0.8187
vn 0.3070 -0.8895 0.3385
vn -0.9818 -0.1885 0.0235
vn -0.8874 -0.0707 0.4555
vn 0.5177 -0.4472 -0.7294
vn -0.9045 -0.0393 0.4247
vn -0.8830 -0.0631 0.4651
vn -0.9846 0.0236 0.1733
vn -0.9846 0.0236 0.1732
vn -0.0000 0.3835 0.9235
vn -0.1962 0.2983 0.9341
vn -0.8072 -0.1097 0.5799
vn -0.8263 -0.0708 0.5587
vn -0.9444 -0.0630 0.3227
vn -0.5334 -0.3530 0.7687
vn -0.7806 0.3075 0.5441
vn -0.7189 0.3634 0.5925
vn -0.8414 -0.1966 0.5033
vn -0.6125 0.2827 0.7382
vn -0.6063 -0.0079 0.7952
vn -0.1958 -0.0548 0.9791
vn -0.2902 -0.5805 0.7608
vn -0.2361 -0.2597 0.9364
vn 0.5177 -0.4471 -0.7295
vn 0.4957 -0.0708 -0.8656
vn 0.9517 -0.1966 0.2359
vn 0.9109 -0.1492 0.3848
vn 0.8414 -0.1966 0.5033
vn 0.6697 -0.0552 0.7406
vn 0.3549 0.1499 0.9228
vn 0.4631 -0.3453 0.8163
vn 0.8072 -0.1097 0.5799
vn -0.6697 -0.0552 0.7406
vn -0.6069 -0.1025 0.7882
vn -0.5038 -0.2755 0.8187
vn -0.4631 -0.3453 0.8163
vn -0.4500 -0.1263 0.8841
vn -0.3549 0.1499 0.9228
vn -0.5651 -0.1648 0.8084
vn -0.3070 -0.8895 0.3385
vn -0.0000 0.2758 0.9612
vn -0.3531 0.3609 0.8632
vn -0.6766 0.2282 0.7002
vn -0.8032 0.2441 0.5434
vn -0.9602 0.0472 0.2755
vn -0.0000 0.6063 0.7952
vn 0.5404 0.5247 0.6578
vn 0.9218 0.2364 0.3073
vn 0.9888 -0.0000 0.1491
vn -0.9888 -0.0000 0.1491
vn -0.9218 0.2364 0.3073
vn -0.5404 0.5247 0.6578
vn 0.9818 -0.1885 0.0236
vn 0.9654 -0.0942 0.2433
vn -0.0000 -0.2277 0.9737
vn -0.1336 -0.3694 0.9196
vn -0.9818 -0.1885 0.0236
vt 0.500000 0.673584
vt 0.608246 0.642059
vt 0.544952 0.619812
vt 0.802246 0.245148
vt 0.833496 0.159363
vt 0.675720 0.132111
vt 0.099365 0.367096
vt 0.102783 0.403442
vt 0.093414 0.383026
vt 0.943817 0.707367
vt 0.859680 0.573151
vt 0.927948 0.553680
vt 0.635223 0.262939
vt 0.500000 0.305542
vt 0.592834 0.344849
vt 0.604706 0.543976
vt 0.545349 0.462067
vt 0.545135 0.586151
vt 0.500000 0.455780
vt 0.500000 0.581390
vt 0.613281 0.644257
vt 0.671539 0.781281
vt 0.731201 0.681854
vt 0.590851 0.730164
vt 0.901794 0.425629
vt 0.987701 0.384094
vt 0.919922 0.221069
vt 0.096344 0.636536
vt 0.018768 0.545349
vt 0.121887 0.620270
vt 0.121887 0.372437
vt 0.032349 0.310669
vt 0.012970 0.385742
vt 0.118347 0.380188
vt 0.768433 0.451721
vt 0.692474 0.404175
vt 0.622284 0.454376
vt 0.094666 0.416870
vt 0.112946 0.436218
vt 0.118347 0.432770
vt 0.631317 0.370087
vt 0.553925 0.382751
vt 0.592712 0.429565
vt 0.823822 0.326202
vt 0.767273 0.308197
vt 0.608215 0.357483
vt 0.500000 0.270020
vt 0.833405 0.444000
vt 0.821472 0.705139
vt 0.772644 0.573212
vt 0.663513 0.558594
vt 0.771881 0.384064
vt 0.500000 0.134735
vt 0.500000 0.012970
vt 0.697388 0.012970
vt 0.922028 0.012970
vt 0.987610 0.216431
vt 0.987610 0.504211
vt 0.987610 0.683441
vt 0.500000 0.349396
s 1
usemtl m_face081
f 1/1/1 2/2/2 3/3/3
f 4/4/4 5/5/5 6/6/6
f 7/7/7 8/8/8 9/9/9
f 10/10/10 11/11/11 12/12/12
f 13/13/13 14/14/14 15/15/15
f 16/2/16 1/1/17 17/3/18
f 18/16/19 19/17/20 20/18/21
f 20/18/21 19/17/20 21/19/22
f 20/18/21 21/19/22 22/20/23
f 23/21/24 24/22/25 25/23/26
f 2/2/2 1/1/1 23/21/24
f 23/21/24 1/1/1 26/24/27
f 23/21/24 26/24/27 24/22/25
f 27/25/28 28/26/29 29/27/30
f 30/28/31 31/29/32 32/30/33
f 33/31/29 32/30/33 34/32/34
f 34/32/34 32/30/33 31/29/32
f 34/32/34 31/29/32 35/33/35
f 36/34/29 37/7/36 38/8/37
f 38/8/37 37/7/36 39/9/38
f 40/35/39 41/36/40 42/37/41
f 39/9/38 43/38/42 38/8/37
f 38/8/37 43/38/42 44/39/31
f 38/8/37 44/39/31 45/40/33
f 46/24/43 1/1/17 47/21/44
f 48/41/45 49/42/46 50/43/47
f 5/5/5 4/4/4 29/27/30
f 29/27/30 4/4/4 51/44/48
f 29/27/30 51/44/48 27/25/28
f 13/13/13 15/15/15 52/45/49
f 52/45/49 15/15/15 53/46/50
f 54/30/51 55/29/52 56/28/53
f 57/33/54 55/29/52 58/32/55
f 58/32/55 55/29/52 54/30/51
f 58/32/55 54/30/51 59/31/56
f 8/8/8 7/7/7 60/34/57
f 61/47/58 62/13/59 14/14/14
f 63/48/60 64/44/61 65/25/62
f 66/42/63 67/17/64 21/19/22
f 21/19/22 67/17/64 68/18/65
f 21/19/22 68/18/65 22/20/23
f 11/11/11 10/10/10 69/49/66
f 70/16/67 71/43/68 72/37/69
f 72/37/69 71/43/68 73/41/70
f 72/37/69 73/41/70 74/36/71
f 75/40/51 76/39/72 8/8/8
f 8/8/8 76/39/72 77/38/73
f 8/8/8 77/38/73 9/9/9
f 78/10/74 79/11/75 80/49/76
f 80/49/76 79/11/75 81/50/77
f 80/49/76 81/50/77 25/23/26
f 25/23/26 81/50/77 82/51/78
f 25/23/26 82/51/78 23/21/24
f 23/21/24 82/51/78 18/16/19
f 23/21/24 18/16/19 2/2/2
f 2/2/2 18/16/19 20/18/21
f 2/2/2 20/18/21 3/3/3
f 50/43/47 42/37/41 48/41/45
f 48/41/45 42/37/41 41/36/40
f 48/41/45 41/36/40 83/52/79
f 83/52/79 41/36/40 40/35/39
f 83/52/79 40/35/39 84/48/80
f 65/25/62 12/12/12 63/48/60
f 63/48/60 12/12/12 11/11/11
f 63/48/60 11/11/11 85/50/81
f 85/50/81 11/11/11 69/49/66
f 85/50/81 69/49/66 86/23/82
f 87/45/83 64/44/61 88/52/84
f 88/52/84 64/44/61 63/48/60
f 88/52/84 63/48/60 89/35/85
f 89/35/85 63/48/60 85/50/81
f 89/35/85 85/50/81 90/51/86
f 90/51/86 85/50/81 86/23/82
f 90/51/86 86/23/82 47/21/44
f 47/21/44 86/23/82 91/22/87
f 47/21/44 91/22/87 46/24/43
f 92/46/88 73/41/70 66/42/63
f 66/42/63 73/41/70 71/43/68
f 66/42/63 71/43/68 67/17/64
f 67/17/64 71/43/68 70/16/67
f 67/17/64 70/16/67 68/18/65
f 68/18/65 70/16/67 16/2/16
f 68/18/65 16/2/16 17/3/18
f 14/14/14 13/13/13 61/47/58
f 61/47/58 13/13/13 93/53/89
f 61/47/58 93/53/89 62/13/59
f 62/13/59 93/53/89 94/6/90
f 62/13/59 94/6/90 95/4/91
f 95/4/91 94/6/90 96/5/92
f 95/4/91 96/5/92 97/27/93
f 98/54/94 6/6/6 99/55/95
f 99/55/95 6/6/6 5/5/5
f 99/55/95 5/5/5 100/56/96
f 100/56/96 5/5/5 29/27/30
f 100/56/96 29/27/30 101/57/97
f 101/57/97 29/27/30 28/26/29
f 101/57/97 28/26/29 102/58/37
f 103/58/8 104/26/56 105/57/98
f 105/57/98 104/26/56 97/27/93
f 105/57/98 97/27/93 106/56/99
f 106/56/99 97/27/93 96/5/92
f 106/56/99 96/5/92 107/55/100
f 107/55/100 96/5/92 94/6/90
f 107/55/100 94/6/90 98/54/94
f 98/54/94 94/6/90 93/53/89
f 98/54/94 93/53/89 6/6/6
f 6/6/6 93/53/89 13/13/13
f 6/6/6 13/13/13 4/4/4
f 4/4/4 13/13/13 52/45/49
f 4/4/4 52/45/49 51/44/48
f 108/59/101 28/26/29 109/12/102
f 109/12/102 28/26/29 27/25/28
f 109/12/102 27/25/28 84/48/80
f 84/48/80 27/25/28 51/44/48
f 84/48/80 51/44/48 83/52/79
f 83/52/79 51/44/48 52/45/49
f 83/52/79 52/45/49 48/41/45
f 48/41/45 52/45/49 53/46/50
f 48/41/45 53/46/50 49/42/46
f 49/42/46 53/46/50 15/15/15
f 49/42/46 15/15/15 110/60/103
f 110/60/103 15/15/15 14/14/14
f 110/60/103 14/14/14 111/15/104
f 111/15/104 14/14/14 62/13/59
f 111/15/104 62/13/59 87/45/83
f 87/45/83 62/13/59 95/4/91
f 87/45/83 95/4/91 64/44/61
f 64/44/61 95/4/91 97/27/93
f 64/44/61 97/27/93 65/25/62
f 65/25/62 97/27/93 104/26/56
f 65/25/62 104/26/56 12/12/12
f 12/12/12 104/26/56 112/59/105
f 12/12/12 112/59/105 10/10/10
f 1/1/17 16/2/16 47/21/44
f 47/21/44 16/2/16 70/16/67
f 47/21/44 70/16/67 90/51/86
f 90/51/86 70/16/67 72/37/69
f 90/51/86 72/37/69 89/35/85
f 89/35/85 72/37/69 74/36/71
f 89/35/85 74/36/71 88/52/84
f 88/52/84 74/36/71 73/41/70
f 88/52/84 73/41/70 87/45/83
f 87/45/83 73/41/70 92/46/88
f 87/45/83 92/46/88 111/15/104
f 111/15/104 92/46/88 66/42/63
f 111/15/104 66/42/63 110/60/103
f 110/60/103 66/42/63 21/19/22
f 110/60/103 21/19/22 49/42/46
f 49/42/46 21/19/22 19/17/20
f 49/42/46 19/17/20 50/43/47
f 50/43/47 19/17/20 18/16/19
f 50/43/47 18/16/19 42/37/41
f 42/37/41 18/16/19 82/51/78
f 42/37/41 82/51/78 40/35/39
f 40/35/39 82/51/78 81/50/77
f 40/35/39 81/50/77 84/48/80
f 84/48/80 81/50/77 79/11/75
f 84/48/80 79/11/75 109/12/102
f 109/12/102 79/11/75 78/10/74
f 109/12/102 78/10/74 108/59/101
o editpl_m-0000-133
v -1.278740 49.187946 9.284958
v -3.045134 48.461761 8.367372
v -1.303122 48.330021 9.407502
v 2.124008 46.537045 8.256783
v 1.652608 45.688751 8.789551
v 2.855491 46.022926 7.479674
v -1.909982 44.708721 7.844317
v 0.000000 44.985058 8.915832
v -1.652608 45.688751 8.789551
v 0.000000 52.610027 11.295730
v 0.975310 51.851707 11.281531
v 0.929254 52.401169 10.827221
v 1.568623 49.965546 9.870779
v 1.278740 49.187946 9.284958
v 3.045134 48.461761 8.367372
v 1.303122 48.330021 9.407502
v 3.844346 47.472088 7.654523
v -3.855183 50.585697 8.093142
v -4.743799 50.074795 6.754869
v 3.855183 50.585697 8.093142
v 4.743799 50.074795 6.754869
v 3.538208 45.560223 5.443498
v 0.000000 44.303856 3.787658
v 5.291056 46.318542 2.351499
v 4.258853 46.405300 0.298884
v 6.255529 47.597404 0.370617
v 0.000000 44.454876 8.017673
v 1.909982 44.708721 7.844317
v 6.025248 47.250378 2.097445
v 6.447882 50.248310 0.347454
v 5.881660 50.116570 3.249658
v -1.568623 49.965546 9.870779
v 0.000000 46.064701 9.257311
v 0.000000 47.227886 8.978599
v -2.124008 46.537045 8.256783
v -0.975310 51.851707 11.281531
v 0.000000 51.266899 11.315156
v 0.000000 51.993088 11.802344
v -3.538208 45.560223 5.443498
v -6.025248 47.250378 2.097445
v -6.447882 50.248310 0.347454
v -6.255529 47.597404 0.370617
v 0.000000 48.333233 9.825946
v 0.000000 49.117256 9.574881
v 0.000000 49.310051 10.003784
v 0.000000 49.872364 10.307157
v -2.855491 46.022926 7.479674
v -3.996061 46.302479 5.904534
v -5.291056 46.318542 2.351499
v -4.258853 46.405300 0.298884
v 0.000000 50.849182 10.515630
v -0.929254 52.401169 10.827221
v -3.844346 47.472088 7.654523
v -5.881660 50.116570 3.249658
v 3.996061 46.302479 5.904534
v 7.163109 53.779636 -2.317882
v -7.163109 53.779636 -2.317882
vn -0.2992 -0.4330 0.8503
vn -0.5651 -0.1648 0.8084
vn -0.3389 -0.1419 0.9301
vn 0.4620 -0.1331 0.8769
vn 0.5091 -0.1958 0.8381
vn 0.7142 -0.3532 0.6043
vn -0.5101 -0.7613 0.4003
vn -0.0000 -0.6285 0.7778
vn -0.5091 -0.1958 0.8381
vn -0.0000 0.5709 0.8210
vn 0.6896 -0.1254 0.7132
vn 0.7189 0.3635 0.5925
vn 0.4014 -0.2991 0.8657
vn 0.2992 -0.4330 0.8503
vn 0.5651 -0.1648 0.8084
vn 0.3389 -0.1419 0.9301
vn 0.7240 -0.3148 0.6138
vn -0.6069 -0.1025 0.7881
vn -0.8415 -0.1966 0.5033
vn 0.6069 -0.1025 0.7881
vn 0.8415 -0.1966 0.5033
vn 0.5747 -0.8109 0.1102
vn -0.0000 -0.9975 -0.0707
vn 0.6112 -0.7915 -0.0000
vn 0.4944 -0.6671 -0.5572
vn 0.7700 -0.5028 -0.3929
vn -0.0000 -0.9612 0.2758
vn 0.5101 -0.7613 0.4003
vn 0.9294 -0.2836 0.2363
vn 0.9818 -0.1885 0.0235
vn 0.9517 -0.1966 0.2360
vn -0.4013 -0.2991 0.8657
vn -0.0000 0.1018 0.9948
vn -0.0000 -0.3209 0.9471
vn -0.4620 -0.1331 0.8769
vn -0.6896 -0.1254 0.7132
vn -0.0000 -0.7378 0.6750
vn -0.0000 0.0236 0.9997
vn -0.5747 -0.8109 0.1102
vn -0.9294 -0.2836 0.2363
vn -0.9818 -0.1885 0.0235
vn -0.7700 -0.5028 -0.3929
vn -0.0000 -0.1720 0.9851
vn -0.0000 -0.1962 0.9806
vn -0.0000 -0.7149 0.6992
vn -0.0000 -0.3443 0.9389
vn -0.7142 -0.3532 0.6043
vn -0.7741 -0.5292 0.3475
vn -0.6112 -0.7915 -0.0000
vn -0.4944 -0.6671 -0.5572
vn -0.0000 -0.3605 0.9328
vn -0.7189 0.3635 0.5925
vn -0.7240 -0.3148 0.6138
vn -0.9517 -0.1966 0.2360
vn 0.7741 -0.5292 0.3475
vn -0.4628 -0.0000 -0.8865
vn 0.4629 -0.0001 -0.8864
vt 0.581848 0.776520
vt 0.671539 0.781281
vt 0.584595 0.833038
vt 0.633148 0.891266
vt 0.607727 0.944763
vt 0.683594 0.910034
vt 0.632660 0.978210
vt 0.502869 0.948395
vt 0.502869 0.581390
vt 0.544952 0.619812
vt 0.545135 0.586151
vt 0.590851 0.730164
vt 0.727936 0.827972
vt 0.731201 0.681854
vt 0.821472 0.705139
vt 0.703247 0.980988
vt 0.502869 0.986664
vt 0.897614 0.975708
vt 0.986206 0.986664
vt 0.978668 0.970337
vt 0.502869 0.980499
vt 0.932281 0.898682
vt 0.986206 0.683441
vt 0.943817 0.707367
vt 0.502869 0.913239
vt 0.502869 0.871918
vt 0.502869 0.645508
vt 0.502869 0.616577
vt 0.502869 0.832886
vt 0.502869 0.780182
vt 0.502869 0.760223
vt 0.502869 0.735138
vt 0.788666 0.926483
vt 0.502869 0.673584
vt 0.986206 0.504211
s 1
usemtl m_face081
f 113/61/106 114/62/107 115/63/108
f 116/64/109 117/65/110 118/66/111
f 119/67/112 120/68/113 121/65/114
f 122/69/115 123/70/116 124/71/117
f 125/72/118 126/61/119 127/62/120
f 127/62/120 126/61/119 128/63/121
f 116/64/109 118/66/111 129/73/122
f 130/74/123 131/75/124 114/62/107
f 132/74/125 127/62/120 133/75/126
f 134/76/127 135/77/128 136/78/129
f 136/78/129 135/77/128 137/79/130
f 136/78/129 137/79/130 138/80/131
f 139/81/132 140/67/133 120/68/113
f 141/82/134 142/83/135 143/84/136
f 114/62/107 113/61/106 144/72/137
f 117/65/110 116/64/109 145/85/138
f 145/85/138 116/64/109 146/86/139
f 145/85/138 146/86/139 147/64/140
f 148/70/141 149/87/142 150/88/143
f 119/67/112 151/76/144 135/77/128
f 152/82/145 153/83/146 154/80/147
f 155/89/148 128/63/121 156/90/149
f 156/90/149 128/63/121 126/61/119
f 156/90/149 126/61/119 157/91/150
f 157/91/150 126/61/119 125/72/118
f 157/91/150 125/72/118 158/92/151
f 121/65/114 159/66/152 119/67/112
f 119/67/112 159/66/152 160/93/153
f 119/67/112 160/93/153 151/76/144
f 151/76/144 160/93/153 161/78/154
f 151/76/144 161/78/154 135/77/128
f 135/77/128 161/78/154 162/79/155
f 148/70/141 163/94/156 149/87/142
f 149/87/142 163/94/156 123/70/116
f 149/87/142 123/70/116 150/88/143
f 150/88/143 123/70/116 122/69/115
f 150/88/143 122/69/115 148/70/141
f 148/70/141 122/69/115 164/71/157
f 146/86/139 115/63/108 147/64/140
f 147/64/140 115/63/108 114/62/107
f 147/64/140 114/62/107 165/73/158
f 165/73/158 114/62/107 131/75/124
f 165/73/158 131/75/124 152/82/145
f 152/82/145 131/75/124 166/84/159
f 152/82/145 166/84/159 153/83/146
f 120/68/113 119/67/112 139/81/132
f 139/81/132 119/67/112 135/77/128
f 139/81/132 135/77/128 140/67/133
f 140/67/133 135/77/128 134/76/127
f 140/67/133 134/76/127 167/93/160
f 167/93/160 134/76/127 136/78/129
f 167/93/160 136/78/129 141/82/134
f 141/82/134 136/78/129 138/80/131
f 141/82/134 138/80/131 142/83/135
f 142/83/135 138/80/131 137/79/130
f 142/83/135 137/79/130 168/95/161
f 125/72/118 163/94/156 158/92/151
f 158/92/151 163/94/156 144/72/137
f 158/92/151 144/72/137 157/91/150
f 157/91/150 144/72/137 113/61/106
f 157/91/150 113/61/106 156/90/149
f 156/90/149 113/61/106 115/63/108
f 156/90/149 115/63/108 155/89/148
f 155/89/148 115/63/108 146/86/139
f 155/89/148 146/86/139 128/63/121
f 128/63/121 146/86/139 116/64/109
f 128/63/121 116/64/109 127/62/120
f 127/62/120 116/64/109 129/73/122
f 127/62/120 129/73/122 133/75/126
f 143/84/136 133/75/126 141/82/134
f 141/82/134 133/75/126 129/73/122
f 141/82/134 129/73/122 167/93/160
f 167/93/160 129/73/122 118/66/111
f 167/93/160 118/66/111 140/67/133
f 140/67/133 118/66/111 117/65/110
f 140/67/133 117/65/110 120/68/113
f 120/68/113 117/65/110 145/85/138
f 120/68/113 145/85/138 121/65/114
f 121/65/114 145/85/138 147/64/140
f 121/65/114 147/64/140 159/66/152
f 159/66/152 147/64/140 165/73/158
f 159/66/152 165/73/158 160/93/153
f 160/93/153 165/73/158 152/82/145
f 160/93/153 152/82/145 161/78/154
f 161/78/154 152/82/145 154/80/147
f 161/78/154 154/80/147 162/79/155
f 162/79/155 154/80/147 153/83/146
f 162/79/155 153/83/146 169/95/162
