mtllib m_face028.mtl
o editpl_m-0000-109
v 1.327505 47.709869 8.998774
v 1.300413 48.587074 8.928535
v 0.000000 48.513172 9.223686
v 2.023768 50.874889 8.880713
v 0.000000 50.383266 9.901415
v 1.593006 49.374313 9.509872
v 1.901854 50.916660 8.907612
v 1.162244 51.405067 11.101451
v 0.000000 50.810623 11.026730
v -5.800385 47.857677 2.586126
v -3.887694 46.244640 5.842514
v -3.852474 47.433533 7.174807
v 2.652301 48.365364 8.223158
v 2.045442 46.386021 8.234366
v 3.852474 47.433533 7.174807
v 6.000865 48.117947 1.073005
v 6.512903 50.248310 0.347454
v 5.800385 47.857677 2.586126
v -2.928639 46.090405 7.342185
v -2.538515 45.634129 7.546924
v -2.045442 46.386021 8.234366
v -1.663445 45.524879 8.563890
v -2.652301 48.365364 8.223158
v -1.300413 48.587074 8.928535
v -1.593006 49.374313 9.509872
v 0.000000 48.712391 9.659316
v 0.000000 49.284344 9.953721
v -6.000865 48.117947 1.073005
v -4.199251 46.405300 0.298884
v -5.112249 46.357101 2.843917
v 0.000000 44.303856 3.787658
v -3.164339 45.071815 5.374007
v 3.164339 45.071815 5.374007
v 5.112249 46.357101 2.843917
v 3.887694 46.244640 5.842514
v 5.987319 50.029812 3.142806
v 4.993045 49.984825 6.439542
v 3.852474 50.290081 8.068483
v 0.000000 51.626781 11.596111
v -1.162244 51.405067 11.101451
v -1.901854 50.916660 8.907612
v -2.023768 50.874889 8.880713
v 0.000000 47.713081 9.478488
v -1.327505 47.709869 8.998774
v 0.000000 46.880856 8.813462
v 0.000000 46.128963 8.921062
v 0.000000 45.261395 8.904623
v 4.199251 46.405300 0.298884
v 1.882890 44.525566 7.602219
v 2.538515 45.634129 7.546924
v 2.928639 46.090405 7.342185
v -3.852474 50.290081 8.068483
v -4.993045 49.984825 6.439542
v -5.987319 50.029812 3.142806
v -6.512903 50.248310 0.347454
v -7.163109 53.779636 -2.317882
v -1.882890 44.525566 7.602219
v 0.000000 44.265297 7.990773
v 1.663445 45.524879 8.563890
v 7.163109 53.779636 -2.317882
vn 0.3535 -0.1257 0.9269
vn 0.3225 -0.4483 0.8337
vn -0.0000 -0.2203 0.9754
vn 0.4069 0.1017 0.9078
vn -0.0000 -0.2831 0.9591
vn 0.4235 -0.2509 0.8705
vn 0.6456 -0.0000 0.7637
vn 0.6428 -0.2351 0.7290
vn -0.0000 -0.7847 0.6199
vn -0.9345 -0.2670 0.2356
vn -0.8040 -0.4651 0.3705
vn -0.7418 -0.2999 0.5998
vn 0.5255 -0.1804 0.8314
vn 0.5111 -0.1337 0.8491
vn 0.7418 -0.2999 0.5998
vn 0.8725 -0.4402 -0.2122
vn 0.9648 -0.2588 0.0470
vn 0.9345 -0.2670 0.2356
vn -0.7147 -0.3770 0.5891
vn -0.7483 -0.3308 0.5750
vn -0.5111 -0.1337 0.8491
vn -0.4497 -0.2919 0.8441
vn -0.5255 -0.1804 0.8314
vn -0.3225 -0.4483 0.8337
vn -0.4235 -0.2509 0.8705
vn -0.0000 -0.7071 0.7071
vn -0.0000 -0.2111 0.9775
vn -0.8725 -0.4402 -0.2122
vn -0.6617 -0.6381 -0.3938
vn -0.7149 -0.6992 0.0079
vn -0.0000 -0.9940 -0.1096
vn -0.5678 -0.8201 0.0710
vn 0.5678 -0.8201 0.0710
vn 0.7149 -0.6992 0.0079
vn 0.8040 -0.4651 0.3705
vn 0.9445 -0.2282 0.2361
vn 0.8673 -0.2444 0.4337
vn 0.5514 -0.1575 0.8192
vn -0.0000 -0.0472 0.9989
vn -0.6428 -0.2351 0.7290
vn -0.6456 -0.0000 0.7637
vn -0.4069 0.1017 0.9078
vn -0.0000 -0.1810 0.9835
vn -0.3535 -0.1257 0.9269
vn -0.0000 -0.3233 0.9463
vn -0.0000 0.1173 0.9931
vn -0.0000 -0.3700 0.9290
vn 0.6617 -0.6381 -0.3938
vn 0.5423 -0.7546 0.3694
vn 0.7483 -0.3308 0.5750
vn 0.7147 -0.3770 0.5891
vn -0.5514 -0.1575 0.8192
vn -0.8673 -0.2444 0.4337
vn -0.9445 -0.2282 0.2361
vn -0.9648 -0.2589 0.0470
vn 0.4783 -0.0001 -0.8782
vn -0.5423 -0.7546 0.3694
vn -0.0000 -0.8498 0.5271
vn 0.4497 -0.2919 0.8441
vn -0.4783 -0.0000 -0.8782
vt 0.584595 0.826630
vt 0.581848 0.776520
vt 0.500000 0.780182
vt 0.612122 0.645325
vt 0.500000 0.673584
vt 0.594788 0.730164
vt 0.608246 0.642059
vt 0.544952 0.619812
vt 0.500000 0.645508
vt 0.932281 0.898682
vt 0.771149 0.926483
vt 0.740021 0.827972
vt 0.656372 0.778809
vt 0.633148 0.891266
vt 0.978424 0.970337
vt 0.985962 0.683441
vt 0.702393 0.882690
vt 0.664795 0.937408
vt 0.607727 0.944763
vt 0.500000 0.760223
vt 0.500000 0.735138
vt 0.985962 0.987793
vt 0.897614 0.975708
vt 0.500000 0.987793
vt 0.703247 0.980988
vt 0.943817 0.707367
vt 0.821472 0.705139
vt 0.722534 0.678162
vt 0.500000 0.616577
vt 0.500000 0.826477
vt 0.500000 0.871918
vt 0.500000 0.913239
vt 0.500000 0.948395
vt 0.632660 0.978210
vt 0.985962 0.504211
vt 0.500000 0.981659
s 1
usemtl m_face069
f 1/1/1 2/2/2 3/3/3
f 4/4/4 5/5/5 6/6/6
f 4/4/4 7/7/7 5/5/5
f 5/5/5 7/7/7 8/8/8
f 5/5/5 8/8/8 9/9/9
f 10/10/10 11/11/11 12/12/12
f 2/2/2 1/1/1 13/13/13
f 13/13/13 1/1/1 14/14/14
f 13/13/13 14/14/14 15/12/15
f 16/15/16 17/16/17 18/10/18
f 19/17/19 20/18/20 21/14/21
f 21/14/21 20/18/20 22/19/22
f 23/13/23 24/2/24 25/6/25
f 25/6/25 24/2/24 26/20/26
f 25/6/25 26/20/26 27/21/27
f 28/15/28 29/22/29 30/23/30
f 30/23/30 29/22/29 31/24/31
f 30/23/30 31/24/31 32/25/32
f 33/25/33 34/23/34 35/11/35
f 17/16/17 36/26/36 18/10/18
f 18/10/18 36/26/36 37/27/37
f 18/10/18 37/27/37 15/12/15
f 15/12/15 37/27/37 38/28/38
f 15/12/15 38/28/38 13/13/13
f 8/8/8 39/29/39 9/9/9
f 9/9/9 39/29/39 40/8/40
f 9/9/9 40/8/40 5/5/5
f 5/5/5 40/8/40 41/7/41
f 5/5/5 41/7/41 42/4/42
f 43/30/43 44/1/44 45/31/45
f 45/31/45 44/1/44 21/14/21
f 45/31/45 21/14/21 46/32/46
f 46/32/46 21/14/21 22/19/22
f 46/32/46 22/19/22 47/33/47
f 48/22/48 34/23/34 31/24/31
f 31/24/31 34/23/34 33/25/33
f 31/24/31 33/25/33 49/34/49
f 49/34/49 33/25/33 35/11/35
f 49/34/49 35/11/35 50/18/50
f 50/18/50 35/11/35 51/17/51
f 26/20/26 6/6/6 27/21/27
f 27/21/27 6/6/6 5/5/5
f 27/21/27 5/5/5 25/6/25
f 25/6/25 5/5/5 42/4/42
f 25/6/25 42/4/42 23/13/23
f 23/13/23 42/4/42 52/28/52
f 23/13/23 52/28/52 12/12/12
f 12/12/12 52/28/52 53/27/53
f 12/12/12 53/27/53 10/10/10
f 10/10/10 53/27/53 54/26/54
f 10/10/10 54/26/54 55/16/55
f 56/35/56 29/22/29 55/16/55
f 55/16/55 29/22/29 28/15/28
f 55/16/55 28/15/28 10/10/10
f 10/10/10 28/15/28 30/23/30
f 10/10/10 30/23/30 11/11/11
f 11/11/11 30/23/30 32/25/32
f 11/11/11 32/25/32 57/34/57
f 57/34/57 32/25/32 31/24/31
f 57/34/57 31/24/31 58/36/58
f 58/36/58 31/24/31 49/34/49
f 58/36/58 49/34/49 59/19/59
f 59/19/59 49/34/49 50/18/50
f 59/19/59 50/18/50 14/14/14
f 14/14/14 50/18/50 51/17/51
f 14/14/14 51/17/51 15/12/15
f 15/12/15 51/17/51 35/11/35
f 15/12/15 35/11/35 18/10/18
f 18/10/18 35/11/35 34/23/34
f 18/10/18 34/23/34 16/15/16
f 16/15/16 34/23/34 48/22/48
f 16/15/16 48/22/48 17/16/17
f 17/16/17 48/22/48 60/35/60
f 38/28/38 4/4/4 13/13/13
f 13/13/13 4/4/4 6/6/6
f 13/13/13 6/6/6 2/2/2
f 2/2/2 6/6/6 26/20/26
f 2/2/2 26/20/26 3/3/3
f 3/3/3 26/20/26 24/2/24
f 3/3/3 24/2/24 44/1/44
f 44/1/44 24/2/24 23/13/23
f 44/1/44 23/13/23 21/14/21
f 21/14/21 23/13/23 12/12/12
f 21/14/21 12/12/12 19/17/19
f 19/17/19 12/12/12 11/11/11
f 19/17/19 11/11/11 20/18/20
f 20/18/20 11/11/11 57/34/57
f 20/18/20 57/34/57 22/19/22
f 22/19/22 57/34/57 58/36/58
f 22/19/22 58/36/58 47/33/47
f 47/33/47 58/36/58 59/19/59
f 47/33/47 59/19/59 46/32/46
f 46/32/46 59/19/59 14/14/14
f 46/32/46 14/14/14 45/31/45
f 45/31/45 14/14/14 1/1/1
f 45/31/45 1/1/1 43/30/43
f 43/30/43 1/1/1 3/3/3
f 43/30/43 3/3/3 44/1/44
o editpl_m-0000-110
v 5.272092 59.283878 7.053758
v 6.193218 61.047935 3.615795
v 3.763071 62.619202 6.400686
v -7.824153 56.199192 -1.170151
v -7.163109 53.779636 -2.317882
v -8.590855 55.559761 -2.843925
v 2.191738 55.463364 8.581824
v 2.178192 54.165222 8.299375
v 3.321472 54.811081 8.337483
v 0.000000 57.265980 9.618965
v 2.151100 57.333458 9.305132
v 0.000000 59.762650 9.333527
v 0.000000 54.428707 9.852846
v 0.000000 51.626781 11.596111
v 1.162244 51.405067 11.101451
v 7.255222 49.923775 -1.247862
v 8.574599 53.165913 -3.065850
v 6.512903 50.248310 0.347454
v 6.927409 55.174175 0.347454
v 7.824153 56.199192 -1.170151
v 8.590855 55.559761 -2.843925
v 6.466846 58.175320 3.896751
v 6.927409 55.174175 0.347454
v 7.824153 56.199192 -1.170151
v 7.163109 53.779636 -2.317882
v 8.590855 55.559761 -2.843925
v 7.390682 58.499855 -1.933811
v 6.927409 55.174175 0.347454
v 7.163109 53.779636 -2.317882
v 2.251340 55.431232 9.222192
v 0.975310 55.183815 9.219203
v 1.454837 54.374084 8.406227
v 1.777231 52.822098 8.761157
v 0.891325 54.219849 9.465786
v 1.901854 50.916660 8.907612
v 8.574599 53.165913 -3.065850
v 7.255222 49.923775 -1.247862
v 6.512903 50.248310 0.347454
v 6.515612 52.632519 4.377214
v 6.512903 50.248310 0.347454
v 5.987319 50.029812 3.142806
v -2.178192 54.165222 8.299375
v -3.321472 54.811081 8.337483
v -4.518936 54.251980 7.656017
v -6.512903 50.248310 0.347454
v -8.574599 53.165913 -3.065850
v -7.255222 49.923775 -1.247862
v -8.590855 55.559761 -2.843925
v -7.824153 56.199192 -1.170151
v -6.927409 55.174175 0.347454
v -6.927409 55.174175 0.347454
v -6.512903 50.248310 0.347454
v -7.255222 49.923775 -1.247862
v -8.574599 53.165913 -3.065850
v -1.454837 54.374084 8.406227
v -0.975310 55.183815 9.219203
v -2.191738 55.463364 8.581824
v 4.993045 49.984825 6.439542
v 5.716400 52.163387 6.311020
v 6.101105 54.599007 5.561558
v -2.151100 57.333458 9.305132
v -2.717322 59.820488 8.927039
v -4.624594 57.593727 8.306098
v -5.272092 59.283878 7.053758
v -6.466846 58.175320 3.896751
v -6.927409 55.174175 0.347454
v -6.101105 54.599007 5.561558
v -5.201653 56.154205 8.223158
v -4.218215 56.231323 9.314100
v 0.000000 56.443394 9.985851
v -1.760976 55.713997 9.862560
v -2.251340 55.431232 9.222192
v -5.358786 54.329098 6.875172
v -4.540609 55.145256 7.981058
v 3.852474 50.290081 8.068483
v 4.938861 52.304771 7.676940
v 5.358786 54.329098 6.875172
v 5.201653 56.154205 8.223158
v 4.624594 57.593727 8.306098
v 2.717322 59.820488 8.927039
v 0.000000 62.905178 7.103820
v -1.162244 51.405067 11.101451
v -0.891325 54.219849 9.465786
v -1.901854 50.916660 8.907612
v -1.777231 52.822098 8.761157
v -2.023768 50.874889 8.880713
v -2.971986 52.565041 8.489916
v -3.852474 50.290081 8.068483
v -4.938861 52.304771 7.676940
v -4.993045 49.984825 6.439542
v -5.716400 52.163387 6.311020
v -5.987319 50.029812 3.142806
v -6.515612 52.632519 4.377214
v -6.512903 50.248310 0.347454
v 4.218215 56.231323 9.314100
v 1.760976 55.713997 9.862560
v 0.000000 55.434444 9.578616
v 2.023768 50.874889 8.880713
v 2.971986 52.565041 8.489916
v 4.518936 54.251980 7.656017
v 4.540609 55.145256 7.981058
v -3.717014 62.619202 6.400686
v -6.193218 61.047935 3.615795
v -7.390682 58.499855 -1.933811
v -7.163109 53.779636 -2.317882
vn 0.8078 0.2510 0.5333
vn 0.9247 0.2272 0.3056
vn 0.5503 0.5110 0.6603
vn 0.8242 0.4082 -0.3925
vn 0.4783 -0.0000 -0.8782
vn 0.6187 0.2741 -0.7362
vn 0.2755 -0.6139 0.7398
vn 0.1961 -0.0235 0.9803
vn 0.2431 -0.2353 0.9410
vn -0.0000 0.2591 0.9658
vn 0.1969 0.2600 0.9453
vn -0.0000 0.2758 0.9612
vn -0.0000 0.3863 0.9224
vn -0.0000 -0.0472 0.9989
vn 0.6428 -0.2352 0.7290
vn 0.8913 -0.1172 0.4379
vn 0.8917 -0.0782 0.4458
vn 0.9648 -0.2588 0.0470
vn 0.9856 0.0391 0.1643
vn 0.8879 -0.0629 0.4557
vn 0.9045 -0.0393 0.4247
vn 0.9614 0.0630 0.2679
vn -0.8242 0.4082 -0.3925
vn -0.4783 -0.0000 -0.8782
vn -0.6187 0.2741 -0.7362
vn 0.9899 -0.0000 0.1414
vn 0.2670 -0.9345 0.2356
vn 0.4720 -0.4799 0.7395
vn 0.5655 -0.0157 0.8246
vn 0.4399 0.1807 0.8797
vn 0.7435 0.2348 0.6261
vn 0.6456 -0.0000 0.7637
vn -0.4957 -0.0708 -0.8656
vn -0.7545 -0.1886 -0.6287
vn 0.9648 -0.2589 0.0470
vn 0.9704 -0.1174 0.2113
vn 0.9648 -0.2588 0.0471
vn 0.9445 -0.2283 0.2361
vn -0.1961 -0.0235 0.9803
vn -0.2431 -0.2353 0.9410
vn -0.4543 -0.1018 0.8850
vn -0.9648 -0.2588 0.0471
vn -0.8917 -0.0782 0.4458
vn -0.8913 -0.1172 0.4379
vn -0.9045 -0.0393 0.4247
vn -0.8879 -0.0629 0.4557
vn -0.9856 0.0391 0.1643
vn -0.9648 -0.2589 0.0470
vn 0.7545 -0.1886 -0.6287
vn 0.4957 -0.0708 -0.8656
vn -0.5655 -0.0157 0.8246
vn -0.4720 -0.4799 0.7395
vn -0.2754 -0.6139 0.7398
vn 0.8673 -0.2445 0.4336
vn 0.9021 -0.1412 0.4079
vn 0.9460 -0.0237 0.3232
vn -0.1970 0.2599 0.9453
vn -0.3531 0.3610 0.8632
vn -0.6741 0.2430 0.6976
vn -0.8078 0.2510 0.5333
vn -0.9614 0.0630 0.2679
vn -0.9856 0.0391 0.1642
vn -0.9460 -0.0237 0.3232
vn -0.8201 -0.1183 0.5599
vn -0.4789 -0.3768 0.7929
vn -0.0000 0.1095 0.9940
vn -0.1413 -0.4396 0.8870
vn -0.2670 -0.9345 0.2356
vn -0.7707 -0.1415 0.6213
vn -0.4330 -0.4094 0.8030
vn 0.5514 -0.1576 0.8192
vn 0.6824 -0.0471 0.7295
vn 0.7707 -0.1415 0.6213
vn 0.8201 -0.1183 0.5599
vn 0.6741 0.2430 0.6976
vn 0.3531 0.3610 0.8632
vn -0.0000 0.6063 0.7952
vn -0.6428 -0.2352 0.7290
vn -0.7435 0.2348 0.6261
vn -0.6456 -0.0000 0.7637
vn -0.4399 0.1806 0.8797
vn -0.4069 0.1017 0.9078
vn -0.3216 0.1020 0.9414
vn -0.5514 -0.1576 0.8192
vn -0.6824 -0.0471 0.7295
vn -0.8673 -0.2445 0.4336
vn -0.9021 -0.1412 0.4079
vn -0.9445 -0.2283 0.2361
vn -0.9704 -0.1174 0.2113
vn 0.4789 -0.3768 0.7929
vn 0.1413 -0.4396 0.8870
vn -0.0000 -0.3537 0.9354
vn 0.4069 0.1017 0.9078
vn 0.3216 0.1020 0.9414
vn 0.4543 -0.1018 0.8850
vn 0.4330 -0.4094 0.8030
vn -0.5426 0.5190 0.6605
vn -0.9235 0.2289 0.3078
vn -0.9899 -0.0000 0.1414
vt 0.833496 0.159363
vt 0.922028 0.012115
vt 0.697388 0.012115
vt 0.099365 0.367096
vt 0.102783 0.403442
vt 0.093414 0.383026
vt 0.623596 0.370087
vt 0.614563 0.454376
vt 0.692474 0.404175
vt 0.500000 0.270020
vt 0.635223 0.262939
vt 0.500000 0.134735
vt 0.500000 0.439667
vt 0.500000 0.616577
vt 0.544952 0.619812
vt 0.086182 0.636536
vt 0.011780 0.488342
vt 0.121887 0.620270
vt 0.121887 0.372437
vt 0.032349 0.310669
vt 0.012054 0.385742
vt 0.919922 0.221069
vt 0.118347 0.380188
vt 0.987610 0.216431
vt 0.987671 0.384094
vt 0.987610 0.504211
vt 0.608215 0.357483
vt 0.553925 0.382751
vt 0.584991 0.429565
vt 0.604706 0.520477
vt 0.545349 0.445953
vt 0.608246 0.642059
vt 0.094666 0.416870
vt 0.112946 0.436218
vt 0.118347 0.432770
vt 0.927948 0.564209
vt 0.987610 0.683441
vt 0.943817 0.707367
vt 0.768433 0.451721
vt 0.821472 0.705139
vt 0.859680 0.574524
vt 0.901794 0.425629
vt 0.675720 0.132111
vt 0.802246 0.257782
vt 0.823822 0.335419
vt 0.767273 0.326569
vt 0.500000 0.335419
vt 0.592834 0.344849
vt 0.833405 0.440186
vt 0.771881 0.384064
vt 0.722534 0.678162
vt 0.772644 0.571045
vt 0.500000 0.012115
vt 0.612122 0.645325
vt 0.669525 0.543976
vt 0.500000 0.375824
s 1
usemtl m_face069
f 61/37/61 62/38/62 63/39/63
f 64/40/64 65/41/65 66/42/66
f 67/43/67 68/44/68 69/45/69
f 70/46/70 71/47/71 72/48/72
f 73/49/73 74/50/74 75/51/75
f 76/52/76 77/53/77 78/54/78
f 79/55/79 78/54/78 80/56/80
f 80/56/80 78/54/78 77/53/77
f 80/56/80 77/53/77 81/57/81
f 62/38/62 61/37/61 82/58/82
f 83/59/79 84/40/83 85/41/84
f 85/41/84 84/40/83 86/42/85
f 87/60/86 88/61/79 89/62/84
f 67/43/67 90/63/87 91/64/88
f 68/44/68 92/65/89 93/66/90
f 93/66/90 92/65/89 94/67/91
f 93/66/90 94/67/91 95/68/92
f 95/68/92 94/67/91 75/51/75
f 86/42/85 96/69/93 85/41/84
f 85/41/84 96/69/93 97/70/94
f 85/41/84 97/70/94 98/71/95
f 88/61/79 99/72/96 100/73/97
f 100/73/97 99/72/96 101/74/98
f 102/44/99 103/45/100 104/75/101
f 105/54/102 106/53/103 107/52/104
f 108/57/105 106/53/103 109/56/106
f 109/56/106 106/53/103 105/54/102
f 109/56/106 105/54/102 110/55/107
f 65/41/65 64/40/64 111/59/107
f 112/71/108 113/70/109 65/41/65
f 65/41/65 113/70/109 114/69/110
f 65/41/65 114/69/110 66/42/66
f 115/65/111 116/64/112 117/43/113
f 118/76/114 101/74/98 119/77/115
f 119/77/115 101/74/98 99/72/96
f 119/77/115 99/72/96 120/78/116
f 120/78/116 99/72/96 88/61/79
f 120/78/116 88/61/79 82/58/82
f 82/58/82 88/61/79 87/60/86
f 82/58/82 87/60/86 62/38/62
f 68/44/68 67/43/67 92/65/89
f 92/65/89 67/43/67 91/64/88
f 92/65/89 91/64/88 94/67/91
f 94/67/91 91/64/88 73/49/73
f 94/67/91 73/49/73 75/51/75
f 70/46/70 72/48/72 121/47/117
f 121/47/117 72/48/72 122/79/118
f 121/47/117 122/79/118 123/80/119
f 123/80/119 122/79/118 124/37/120
f 123/80/119 124/37/120 125/58/121
f 126/61/122 127/78/123 125/58/121
f 125/58/121 127/78/123 128/81/124
f 125/58/121 128/81/124 123/80/119
f 123/80/119 128/81/124 129/82/125
f 123/80/119 129/82/125 121/47/117
f 71/47/71 70/46/70 130/83/126
f 130/83/126 70/46/70 121/47/117
f 130/83/126 121/47/117 131/84/127
f 131/84/127 121/47/117 129/82/125
f 131/84/127 129/82/125 132/63/128
f 133/85/129 104/75/101 134/86/130
f 134/86/130 104/75/101 103/45/100
f 134/86/130 103/45/100 117/43/113
f 117/43/113 103/45/100 102/44/99
f 117/43/113 102/44/99 115/65/111
f 135/87/131 118/76/114 136/88/132
f 136/88/132 118/76/114 119/77/115
f 136/88/132 119/77/115 137/85/133
f 137/85/133 119/77/115 120/78/116
f 137/85/133 120/78/116 138/81/134
f 138/81/134 120/78/116 82/58/82
f 138/81/134 82/58/82 139/80/135
f 139/80/135 82/58/82 61/37/61
f 139/80/135 61/37/61 140/79/136
f 140/79/136 61/37/61 63/39/63
f 140/79/136 63/39/63 141/89/137
f 74/50/74 73/49/73 142/51/138
f 142/51/138 73/49/73 143/67/139
f 142/51/138 143/67/139 144/68/140
f 144/68/140 143/67/139 145/66/141
f 144/68/140 145/66/141 146/90/142
f 146/90/142 145/66/141 147/91/143
f 146/90/142 147/91/143 148/87/144
f 148/87/144 147/91/143 149/88/145
f 148/87/144 149/88/145 150/76/146
f 150/76/146 149/88/145 151/77/147
f 150/76/146 151/77/147 152/74/148
f 152/74/148 151/77/147 153/72/149
f 152/74/148 153/72/149 154/73/102
f 155/82/150 71/47/71 156/84/151
f 156/84/151 71/47/71 130/83/126
f 156/84/151 130/83/126 157/92/152
f 157/92/152 130/83/126 131/84/127
f 157/92/152 131/84/127 116/64/112
f 116/64/112 131/84/127 132/63/128
f 116/64/112 132/63/128 117/43/113
f 117/43/113 132/63/128 129/82/125
f 117/43/113 129/82/125 134/86/130
f 134/86/130 129/82/125 128/81/124
f 134/86/130 128/81/124 133/85/129
f 133/85/129 128/81/124 127/78/123
f 158/90/153 135/87/131 159/91/154
f 159/91/154 135/87/131 136/88/132
f 159/91/154 136/88/132 160/75/155
f 160/75/155 136/88/132 137/85/133
f 160/75/155 137/85/133 161/86/156
f 161/86/156 137/85/133 138/81/134
f 161/86/156 138/81/134 155/82/150
f 155/82/150 138/81/134 139/80/135
f 155/82/150 139/80/135 71/47/71
f 71/47/71 139/80/135 140/79/136
f 71/47/71 140/79/136 72/48/72
f 72/48/72 140/79/136 141/89/137
f 72/48/72 141/89/137 122/79/118
f 122/79/118 141/89/137 162/39/157
f 122/79/118 162/39/157 124/37/120
f 124/37/120 162/39/157 163/38/158
f 124/37/120 163/38/158 125/58/121
f 125/58/121 163/38/158 164/60/159
f 125/58/121 164/60/159 126/61/122
f 126/61/122 164/60/159 165/62/65
f 95/68/92 158/90/153 93/66/90
f 93/66/90 158/90/153 159/91/154
f 93/66/90 159/91/154 68/44/68
f 68/44/68 159/91/154 160/75/155
f 68/44/68 160/75/155 69/45/69
f 69/45/69 160/75/155 161/86/156
f 69/45/69 161/86/156 67/43/67
f 67/43/67 161/86/156 155/82/150
f 67/43/67 155/82/150 90/63/87
f 90/63/87 155/82/150 156/84/151
f 90/63/87 156/84/151 91/64/88
f 91/64/88 156/84/151 157/92/152
f 91/64/88 157/92/152 73/49/73
f 73/49/73 157/92/152 116/64/112
f 73/49/73 116/64/112 143/67/139
f 143/67/139 116/64/112 115/65/111
f 143/67/139 115/65/111 145/66/141
f 145/66/141 115/65/111 102/44/99
f 145/66/141 102/44/99 147/91/143
f 147/91/143 102/44/99 104/75/101
f 147/91/143 104/75/101 149/88/145
f 149/88/145 104/75/101 133/85/129
f 149/88/145 133/85/129 151/77/147
f 151/77/147 133/85/129 127/78/123
f 151/77/147 127/78/123 153/72/149
f 153/72/149 127/78/123 126/61/122
f 153/72/149 126/61/122 154/73/102
