mtllib m_face024.mtl
o editpl_m-0000-159
v 4.453915 48.326805 5.987474
v 3.367528 48.574223 7.255507
v 2.256759 46.935482 7.372075
v 3.223941 46.263920 6.058461
v 0.000000 50.415398 9.248344
v 0.891325 51.196209 10.637427
v 0.000000 50.752785 10.735313
v -2.256759 46.935482 7.372075
v -3.367528 48.574223 7.255507
v -4.453915 48.326805 5.987474
v 2.636046 48.593502 7.696367
v 3.467768 50.678883 8.140965
v 1.750139 51.305458 8.623668
v 5.001172 50.219391 6.545648
v 5.919589 50.106930 3.996131
v 5.613450 47.751640 0.436373
v 6.285330 50.248310 0.331015
v 4.277817 46.405300 0.283193
v 7.163109 53.779636 -2.334321
v 1.731175 44.679802 6.135425
v 0.000000 44.438812 7.141931
v 0.000000 44.220310 5.761066
v 0.000000 45.338512 7.903347
v 1.717629 45.409203 7.428863
v 0.000000 44.303856 3.771219
v 3.538208 45.826923 3.898993
v 5.079739 47.979778 3.721901
v -7.163109 53.779636 -2.334321
v -4.277817 46.405300 0.283193
v -6.285330 50.248310 0.331015
v -5.613450 47.751640 0.436373
v -5.919589 50.106930 3.996131
v -3.223941 46.263920 6.058461
v -5.079739 47.979778 3.721901
v -3.538208 45.826923 3.898993
v -1.002402 48.750950 8.545958
v -1.143280 49.441792 9.436645
v -2.636046 48.593502 7.696367
v 0.000000 49.380741 9.678743
v 0.000000 48.718819 9.157184
v 0.000000 48.548519 8.664019
v -0.891325 51.196209 10.637427
v -1.750139 51.305458 8.623668
v 0.000000 47.404613 8.927040
v 0.000000 46.790886 7.966115
v 1.257066 47.838394 8.839615
v -1.717629 45.409203 7.428863
v -1.731175 44.679802 6.135425
v 1.143280 49.441792 9.436645
v 1.002402 48.750950 8.545958
v 0.000000 47.960499 9.098900
v -1.257066 47.838394 8.839615
v -3.467768 50.678883 8.140965
v -5.001172 50.219391 6.545648
vn 0.7767 -0.4001 0.4864
vn 0.5891 -0.3456 0.7305
vn 0.5510 -0.3542 0.7556
vn 0.7561 -0.5041 0.4175
vn -0.0000 -0.4090 0.9125
vn 0.6770 -0.3385 0.6535
vn -0.0000 -0.8554 0.5179
vn -0.5510 -0.3542 0.7556
vn -0.5891 -0.3456 0.7305
vn -0.7767 -0.4001 0.4864
vn 0.5105 -0.2435 0.8247
vn 0.4475 -0.2591 0.8559
vn 0.5345 -0.1415 0.8332
vn 0.7540 -0.2906 0.5891
vn 0.9251 -0.2980 0.2352
vn 0.8684 -0.4816 -0.1184
vn 0.9780 -0.2034 0.0469
vn 0.6505 -0.6506 -0.3919
vn 0.8474 -0.4394 -0.2982
vn 0.4649 -0.8666 0.1812
vn -0.0000 -0.8730 0.4876
vn -0.0000 -0.9985 0.0551
vn -0.0000 -0.3605 0.9327
vn 0.4722 -0.4407 0.7634
vn -0.0000 -0.9963 -0.0863
vn 0.6603 -0.7468 0.0786
vn 0.8495 -0.4719 0.2360
vn -0.8474 -0.4394 -0.2982
vn -0.6505 -0.6506 -0.3919
vn -0.9780 -0.2035 0.0469
vn -0.8684 -0.4816 -0.1184
vn -0.9251 -0.2980 0.2352
vn -0.7561 -0.5041 0.4174
vn -0.8495 -0.4719 0.2360
vn -0.6603 -0.7468 0.0786
vn -0.3313 -0.2603 0.9069
vn -0.3778 -0.2833 0.8815
vn -0.5105 -0.2435 0.8247
vn -0.0000 -0.1337 0.9910
vn -0.0000 -0.8148 0.5798
vn -0.0000 -0.2757 0.9612
vn -0.6770 -0.3385 0.6535
vn -0.5345 -0.1415 0.8332
vn -0.0000 -0.5975 0.8019
vn -0.0000 -0.4783 0.8782
vn 0.4013 -0.2754 0.8735
vn -0.4722 -0.4407 0.7634
vn -0.4649 -0.8666 0.1812
vn 0.3778 -0.2833 0.8815
vn 0.3312 -0.2603 0.9069
vn -0.0000 0.2351 0.9720
vn -0.4013 -0.2754 0.8735
vn -0.4475 -0.2591 0.8559
vn -0.7540 -0.2906 0.5891
vt 0.218750 0.820312
vt 0.306335 0.798248
vt 0.398438 0.890625
vt 0.281250 0.914062
vt 0.493286 0.678558
vt 0.451385 0.628448
vt 0.492188 0.648438
vt 0.348938 0.788177
vt 0.318573 0.664886
vt 0.385406 0.631500
vt 0.226562 0.671875
vt 0.117188 0.687500
vt 0.093750 0.828125
vt 0.039062 0.695312
vt 0.007812 0.992188
vt 0.007812 0.343750
vt 0.390625 0.960938
vt 0.492188 0.976562
vt 0.492188 0.984375
vt 0.492188 0.953125
vt 0.390625 0.929688
vt 0.492188 0.992188
vt 0.140625 0.953125
vt 0.165161 0.860474
vt 0.429688 0.789062
vt 0.440826 0.750000
vt 0.492188 0.750000
vt 0.492188 0.781250
vt 0.492188 0.796875
vt 0.492188 0.867188
vt 0.492188 0.890625
vt 0.432281 0.848083
vt 0.492188 0.839050
s 1
usemtl m_face094
f 1/1/1 2/2/2 3/3/3
f 3/3/3 4/4/4 1/1/1
f 5/5/5 6/6/6 7/7/7
f 8/3/8 9/2/9 10/1/10
f 11/8/11 12/9/12 13/10/13
f 2/2/2 1/1/1 14/11/14
f 15/12/15 16/13/16 17/14/17
f 17/14/17 16/13/16 18/15/18
f 17/14/17 18/15/18 19/16/19
f 20/17/20 21/18/21 22/19/22
f 23/20/23 21/18/21 24/21/24
f 24/21/24 21/18/21 20/17/20
f 24/21/24 20/17/20 4/4/4
f 25/22/25 18/15/18 26/23/26
f 26/23/26 18/15/18 16/13/16
f 26/23/26 16/13/16 27/24/27
f 27/24/27 16/13/16 15/12/15
f 28/16/28 29/15/29 30/14/30
f 30/14/30 29/15/29 31/13/31
f 30/14/30 31/13/31 32/12/32
f 8/3/8 10/1/10 33/4/33
f 33/4/33 10/1/10 34/24/34
f 33/4/33 34/24/34 35/23/35
f 36/25/36 37/26/37 38/8/38
f 39/27/39 37/26/37 40/28/40
f 40/28/40 37/26/37 36/25/36
f 40/28/40 36/25/36 41/29/41
f 7/7/7 42/6/42 5/5/5
f 5/5/5 42/6/42 43/10/43
f 44/30/44 45/31/45 46/32/46
f 46/32/46 45/31/45 3/3/3
f 46/32/46 3/3/3 11/8/11
f 11/8/11 3/3/3 2/2/2
f 11/8/11 2/2/2 12/9/12
f 12/9/12 2/2/2 14/11/14
f 4/4/4 3/3/3 24/21/24
f 24/21/24 3/3/3 45/31/45
f 24/21/24 45/31/45 23/20/23
f 23/20/23 45/31/45 47/21/47
f 23/20/23 47/21/47 21/18/21
f 21/18/21 47/21/47 48/17/48
f 21/18/21 48/17/48 22/19/22
f 22/19/22 48/17/48 25/22/25
f 22/19/22 25/22/25 20/17/20
f 20/17/20 25/22/25 26/23/26
f 20/17/20 26/23/26 4/4/4
f 4/4/4 26/23/26 27/24/27
f 4/4/4 27/24/27 1/1/1
f 1/1/1 27/24/27 15/12/15
f 1/1/1 15/12/15 14/11/14
f 6/6/6 5/5/5 13/10/13
f 13/10/13 5/5/5 49/26/49
f 13/10/13 49/26/49 11/8/11
f 11/8/11 49/26/49 50/25/50
f 11/8/11 50/25/50 46/32/46
f 46/32/46 50/25/50 51/33/51
f 46/32/46 51/33/51 44/30/44
f 44/30/44 51/33/51 52/32/52
f 44/30/44 52/32/52 45/31/45
f 45/31/45 52/32/52 8/3/8
f 45/31/45 8/3/8 47/21/47
f 47/21/47 8/3/8 33/4/33
f 47/21/47 33/4/33 48/17/48
f 48/17/48 33/4/33 35/23/35
f 48/17/48 35/23/35 25/22/25
f 9/2/9 8/3/8 38/8/38
f 38/8/38 8/3/8 52/32/52
f 38/8/38 52/32/52 36/25/36
f 36/25/36 52/32/52 51/33/51
f 36/25/36 51/33/51 41/29/41
f 41/29/41 51/33/51 50/25/50
f 41/29/41 50/25/50 40/28/40
f 40/28/40 50/25/50 49/26/49
f 40/28/40 49/26/49 39/27/39
f 39/27/39 49/26/49 5/5/5
f 39/27/39 5/5/5 37/26/37
f 37/26/37 5/5/5 43/10/43
f 37/26/37 43/10/43 38/8/38
f 38/8/38 43/10/43 53/9/53
f 38/8/38 53/9/53 9/2/9
f 9/2/9 53/9/53 54/11/54
f 9/2/9 54/11/54 10/1/10
f 10/1/10 54/11/54 32/12/32
f 10/1/10 32/12/32 34/24/34
f 34/24/34 32/12/32 31/13/31
f 34/24/34 31/13/31 35/23/35
f 35/23/35 31/13/31 29/15/29
f 35/23/35 29/15/29 25/22/25
o editpl_m-0000-160
v 6.605015 52.825310 4.122412
v 5.919589 50.106930 3.996131
v 6.285330 50.248310 0.331015
v 7.824153 56.199192 -1.186590
v 7.163109 53.779636 -2.334321
v 6.756730 55.174175 0.331015
v -5.001172 50.219391 6.545648
v -5.494246 52.282276 6.716014
v -5.919589 50.106930 3.996131
v -4.039408 52.568253 8.164127
v -4.773600 53.827835 7.444554
v 0.690844 53.066303 10.180128
v 0.853396 54.361229 9.655581
v 0.000000 54.836784 9.967918
v 0.000000 62.905178 7.103820
v 2.717322 60.061478 8.886689
v 3.717014 62.619202 6.400686
v 7.824153 56.199192 -1.186590
v 6.756730 55.174175 0.331015
v 6.285330 50.248310 0.331015
v 5.494246 52.282276 6.716014
v 5.697435 53.615765 6.568812
v 4.773600 53.827835 7.444554
v 8.590855 55.559761 -2.860364
v 0.000000 53.249454 10.513390
v 0.891325 51.196209 10.637427
v 1.750139 51.305458 8.623668
v 7.390682 58.499855 -1.933811
v 6.193218 61.047935 3.615795
v 6.518321 58.175320 4.236736
v 5.063484 59.524872 7.294363
v 5.377750 56.546219 7.659754
v 8.436430 53.165913 -3.082289
v 7.184783 50.257950 -1.264301
v 6.285330 50.248310 0.331015
v 8.590855 55.559761 -2.860364
v 8.436430 53.165913 -3.082289
v 7.184783 50.257950 -1.264301
v -8.590855 55.559761 -2.860364
v -7.824153 56.199192 -1.186590
v -7.163109 53.779636 -2.334321
v -6.756730 55.174175 0.331015
v -3.467768 50.678883 8.140965
v -1.750139 51.305458 8.623668
v -0.891325 51.196209 10.637427
v 0.000000 50.752785 10.735313
v 0.000000 51.257259 11.175426
v -8.436430 53.165913 -3.082289
v -7.184783 50.257950 -1.264301
v -6.285330 50.248310 0.331015
v -2.178192 53.930656 8.424160
v -2.010222 52.712849 8.792541
v -1.484638 54.065613 8.695401
v -0.690844 53.066303 10.180128
v -0.853396 54.361229 9.655581
v -6.605015 52.825310 4.122412
v -5.697435 53.615765 6.568812
v -6.537285 55.190239 4.830777
v -5.710981 54.913902 6.396951
v -5.377750 56.546219 7.659754
v -6.285330 50.248310 0.331015
v -7.184783 50.257950 -1.264301
v -8.436430 53.165913 -3.082289
v -8.590855 55.559761 -2.860364
v -7.824153 56.199192 -1.186590
v -6.756730 55.174175 0.331015
v 6.756730 55.174175 0.331015
v 6.537285 55.190239 4.830777
v 5.710981 54.791801 6.396951
v 7.163109 53.779636 -2.334321
v 4.762763 55.447296 7.734476
v 3.310635 54.859280 8.734257
v -2.717322 60.061478 8.886689
v -5.063484 59.502380 7.294363
v -6.518321 58.175320 4.236736
v -6.756730 55.174175 0.331015
v -6.285330 50.248310 0.331015
v -3.310635 54.859280 8.734257
v -2.300106 55.411953 8.789551
v -1.248938 55.167747 9.500158
v 6.193218 61.047935 3.615795
v 2.470785 56.109222 9.516597
v 2.300106 55.411953 8.789551
v 2.178192 53.930656 8.424160
v 4.039408 52.568253 8.164127
v 5.001172 50.219391 6.545648
v -4.762763 55.447296 7.734476
v -2.470785 56.109222 9.516597
v 0.000000 55.964626 10.152481
v 0.000000 60.122532 9.503146
v -7.163109 53.779636 -2.334321
v -7.390682 58.499855 -1.933811
v -6.193218 61.047935 3.615795
v -3.717014 62.619202 6.400686
v 1.248938 55.167747 9.500158
v 1.484638 54.065613 8.695401
v 2.010222 52.712849 8.792541
v 3.467768 50.678883 8.140965
vn 0.9710 -0.1253 0.2036
vn 0.9252 -0.2979 0.2352
vn 0.9780 -0.2034 0.0469
vn -0.8031 0.4173 -0.4252
vn -0.7550 0.1180 -0.6450
vn -0.8556 0.3925 -0.3375
vn -0.7540 -0.2906 0.5891
vn -0.8237 -0.1412 0.5491
vn -0.9252 -0.2979 0.2352
vn -0.4782 -0.0157 0.8781
vn -0.6138 -0.0630 0.7869
vn 0.6836 0.1807 0.7072
vn 0.6414 0.0313 0.7666
vn -0.0000 0.1173 0.9931
vn -0.0000 0.6540 0.7565
vn 0.3765 0.3373 0.8628
vn 0.5358 0.5437 0.6461
vn 0.8725 -0.0943 0.4795
vn 0.9865 -0.0470 0.1566
vn 0.8237 -0.1412 0.5491
vn 0.8404 -0.0079 0.5419
vn 0.6138 -0.0630 0.7869
vn -0.6279 0.2904 -0.7221
vn -0.0000 0.3068 0.9518
vn 0.6771 -0.3385 0.6534
vn 0.5345 -0.1415 0.8332
vn 0.9888 -0.0000 0.1491
vn 0.9111 0.2670 0.3141
vn 0.9691 0.0709 0.2364
vn 0.7840 0.2901 0.5488
vn 0.7666 -0.0313 0.6414
vn -0.5261 -0.0628 -0.8481
vn -0.7353 -0.1977 -0.6483
vn -0.8615 -0.1488 -0.4855
vn 0.8920 -0.0947 0.4420
vn 0.8814 -0.0866 0.4643
vn 0.8713 -0.0628 0.4867
vn 0.6279 0.2904 -0.7221
vn 0.8031 0.4173 -0.4252
vn 0.7551 0.1180 -0.6450
vn 0.8556 0.3925 -0.3375
vn -0.4476 -0.2591 0.8559
vn -0.5345 -0.1415 0.8332
vn -0.6771 -0.3385 0.6535
vn -0.0000 -0.8554 0.5180
vn -0.0000 -0.2127 0.9771
vn -0.8814 -0.0866 0.4643
vn -0.8713 -0.0628 0.4867
vn -0.9780 -0.2034 0.0470
vn -0.2754 -0.0551 0.9598
vn -0.5014 0.0783 0.8617
vn -0.6449 -0.0472 0.7628
vn -0.6836 0.1807 0.7072
vn -0.6453 0.0315 0.7633
vn -0.9710 -0.1253 0.2036
vn -0.8404 -0.0079 0.5419
vn -0.9569 -0.0078 0.2902
vn -0.8085 -0.0942 0.5809
vn -0.7702 -0.0393 0.6366
vn 0.8615 -0.1488 -0.4855
vn 0.7353 -0.1976 -0.6483
vn 0.5261 -0.0628 -0.8481
vn -0.8920 -0.0947 0.4420
vn -0.8725 -0.0943 0.4795
vn -0.9865 -0.0470 0.1566
vn 0.9569 -0.0078 0.2902
vn 0.8027 -0.0865 0.5901
vn 0.9815 -0.0628 0.1807
vn 0.5892 -0.1886 0.7856
vn 0.3140 -0.1177 0.9421
vn -0.3765 0.3373 0.8628
vn -0.7840 0.2901 0.5488
vn -0.9691 0.0709 0.2364
vn -0.9780 -0.2034 0.0469
vn -0.3140 -0.1177 0.9421
vn -0.3697 -0.3383 0.8653
vn -0.4941 -0.3215 0.8078
vn 0.9110 0.2671 0.3142
vn 0.4245 -0.3144 0.8491
vn 0.3697 -0.3383 0.8653
vn 0.2754 -0.0551 0.9598
vn 0.4782 -0.0157 0.8781
vn 0.7540 -0.2906 0.5891
vn -0.5980 -0.1888 0.7789
vn -0.4245 -0.3144 0.8491
vn -0.0000 -0.0472 0.9989
vn -0.0000 0.4156 0.9096
vn -0.9815 -0.0628 0.1807
vn -0.9888 -0.0000 0.1491
vn -0.9110 0.2670 0.3142
vn -0.5357 0.5437 0.6461
vn 0.4941 -0.3215 0.8078
vn 0.6449 -0.0472 0.7628
vn 0.5013 0.0783 0.8617
vn 0.4476 -0.2591 0.8559
vt 0.085938 0.554688
vt 0.117188 0.687500
vt 0.039062 0.695312
vt 0.953125 0.328125
vt 0.968750 0.476562
vt 0.882812 0.414062
vt 0.226562 0.671875
vt 0.204407 0.571594
vt 0.311188 0.550781
vt 0.218750 0.482788
vt 0.449219 0.510406
vt 0.446869 0.435913
vt 0.492188 0.398438
vt 0.492188 0.039062
vt 0.351562 0.148438
vt 0.301331 0.050201
vt 0.855469 0.645813
vt 0.174469 0.502594
vt 0.992188 0.343750
vt 0.492188 0.468750
vt 0.451385 0.628448
vt 0.385406 0.631500
vt 0.058594 0.175781
vt 0.135590 0.079224
vt 0.118744 0.206238
vt 0.239563 0.160156
vt 0.196869 0.293732
vt 0.992188 0.515625
vt 0.903625 0.643219
vt 0.318573 0.664886
vt 0.492188 0.648438
vt 0.492188 0.617188
vt 0.345459 0.480896
vt 0.381500 0.524719
vt 0.397552 0.460938
vt 0.105469 0.384094
vt 0.163269 0.395294
vt 0.055450 0.364838
vt 0.007812 0.343750
vt 0.212036 0.375000
vt 0.301331 0.406250
vt 0.346680 0.371094
vt 0.424988 0.387482
vt 0.135986 0.078979
vt 0.349304 0.315826
vt 0.492188 0.343750
vt 0.492188 0.125000
s 1
usemtl m_face094
f 55/34/55 56/35/56 57/36/57
f 58/37/58 59/38/59 60/39/60
f 61/40/61 62/41/62 63/35/63
f 62/41/62 64/42/64 65/43/65
f 66/44/66 67/45/67 68/46/68
f 69/47/69 70/48/70 71/49/71
f 72/37/72 73/39/73 74/50/57
f 56/35/56 55/34/55 75/41/74
f 75/41/74 55/34/55 76/51/75
f 75/41/74 76/51/75 77/43/76
f 59/38/59 58/37/58 78/52/77
f 68/46/68 79/53/78 66/44/66
f 66/44/66 79/53/78 80/54/79
f 66/44/66 80/54/79 81/55/80
f 82/56/81 83/57/82 84/58/83
f 84/58/83 83/57/82 85/59/84
f 84/58/83 85/59/84 86/60/85
f 78/52/77 87/61/86 59/38/59
f 59/38/59 87/61/86 88/62/87
f 59/38/59 88/62/87 89/50/88
f 90/52/89 72/37/72 91/61/90
f 91/61/90 72/37/72 74/50/57
f 91/61/90 74/50/57 92/62/91
f 93/52/92 94/37/93 95/38/94
f 95/38/94 94/37/93 96/39/95
f 62/41/62 61/40/61 64/42/64
f 64/42/64 61/40/61 97/63/96
f 64/42/64 97/63/96 98/55/97
f 99/54/98 100/64/99 101/65/100
f 102/61/101 103/62/102 104/50/103
f 105/66/104 106/67/105 107/68/106
f 107/68/106 106/67/105 108/44/107
f 107/68/106 108/44/107 109/45/108
f 110/34/109 111/51/110 112/69/111
f 112/69/111 111/51/110 113/70/112
f 112/69/111 113/70/112 114/60/113
f 115/50/114 116/62/115 95/38/94
f 95/38/94 116/62/115 117/61/116
f 95/38/94 117/61/116 93/52/92
f 118/52/117 102/61/101 119/37/118
f 119/37/118 102/61/101 104/50/103
f 119/37/118 104/50/103 120/39/119
f 57/36/57 121/71/73 55/34/55
f 55/34/55 121/71/73 122/69/120
f 55/34/55 122/69/120 76/51/75
f 76/51/75 122/69/120 123/70/121
f 76/51/75 123/70/121 77/43/76
f 124/72/122 82/56/81 121/71/73
f 121/71/73 82/56/81 84/58/83
f 121/71/73 84/58/83 122/69/120
f 122/69/120 84/58/83 86/60/85
f 122/69/120 86/60/85 123/70/121
f 123/70/121 86/60/85 125/73/123
f 123/70/121 125/73/123 77/43/76
f 77/43/76 125/73/123 126/74/124
f 127/48/125 128/59/126 114/60/113
f 114/60/113 128/59/126 129/58/127
f 114/60/113 129/58/127 112/69/111
f 112/69/111 129/58/127 130/71/119
f 112/69/111 130/71/119 110/34/109
f 110/34/109 130/71/119 131/36/128
f 132/74/129 105/66/104 133/75/130
f 133/75/130 105/66/104 107/68/106
f 133/75/130 107/68/106 134/76/131
f 134/76/131 107/68/106 109/45/108
f 134/76/131 109/45/108 68/46/68
f 68/46/68 109/45/108 108/44/107
f 68/46/68 108/44/107 79/53/78
f 135/77/132 71/49/71 85/59/84
f 85/59/84 71/49/71 70/48/70
f 85/59/84 70/48/70 86/60/85
f 86/60/85 70/48/70 136/78/133
f 86/60/85 136/78/133 125/73/123
f 125/73/123 136/78/133 137/75/134
f 125/73/123 137/75/134 126/74/124
f 126/74/124 137/75/134 138/66/135
f 126/74/124 138/66/135 77/43/76
f 77/43/76 138/66/135 139/42/136
f 77/43/76 139/42/136 75/41/74
f 75/41/74 139/42/136 140/40/137
f 75/41/74 140/40/137 56/35/56
f 131/36/128 63/35/63 110/34/109
f 110/34/109 63/35/63 62/41/62
f 110/34/109 62/41/62 111/51/110
f 111/51/110 62/41/62 65/43/65
f 111/51/110 65/43/65 113/70/112
f 113/70/112 65/43/65 141/73/138
f 113/70/112 141/73/138 114/60/113
f 114/60/113 141/73/138 142/78/139
f 114/60/113 142/78/139 127/48/125
f 127/48/125 142/78/139 143/79/140
f 127/48/125 143/79/140 144/80/141
f 145/72/142 130/71/119 146/56/143
f 146/56/143 130/71/119 129/58/127
f 146/56/143 129/58/127 147/57/144
f 147/57/144 129/58/127 128/59/126
f 147/57/144 128/59/126 148/49/145
f 148/49/145 128/59/126 127/48/125
f 148/49/145 127/48/125 69/47/69
f 69/47/69 127/48/125 144/80/141
f 69/47/69 144/80/141 70/48/70
f 70/48/70 144/80/141 143/79/140
f 70/48/70 143/79/140 136/78/133
f 136/78/133 143/79/140 149/76/146
f 136/78/133 149/76/146 137/75/134
f 137/75/134 149/76/146 150/68/147
f 137/75/134 150/68/147 138/66/135
f 138/66/135 150/68/147 151/67/148
f 138/66/135 151/67/148 139/42/136
f 100/64/99 80/54/79 101/65/100
f 101/65/100 80/54/79 79/53/78
f 101/65/100 79/53/78 99/54/98
f 99/54/98 79/53/78 108/44/107
f 99/54/98 108/44/107 98/55/97
f 98/55/97 108/44/107 106/67/105
f 98/55/97 106/67/105 64/42/64
f 64/42/64 106/67/105 105/66/104
f 64/42/64 105/66/104 65/43/65
f 65/43/65 105/66/104 132/74/129
f 65/43/65 132/74/129 141/73/138
f 141/73/138 132/74/129 133/75/130
f 141/73/138 133/75/130 142/78/139
f 142/78/139 133/75/130 134/76/131
f 142/78/139 134/76/131 143/79/140
f 143/79/140 134/76/131 68/46/68
f 143/79/140 68/46/68 149/76/146
f 149/76/146 68/46/68 67/45/67
f 149/76/146 67/45/67 150/68/147
f 150/68/147 67/45/67 66/44/66
f 150/68/147 66/44/66 151/67/148
f 151/67/148 66/44/66 81/55/80
f 151/67/148 81/55/80 139/42/136
f 139/42/136 81/55/80 152/63/149
f 139/42/136 152/63/149 140/40/137
