mtllib m_face000.mtl
o editpl_m-0000-99
v 0.000000 50.383266 9.867043
v 1.487348 49.326115 9.599538
v 1.983130 50.862034 8.968137
v 3.852474 47.433533 7.174807
v 2.045442 46.386021 8.234366
v 2.928639 46.090405 7.342185
v 5.800385 47.857677 2.586126
v 6.000865 48.117947 1.073005
v 6.512903 50.248310 0.347454
v 5.112249 46.357101 2.843917
v 4.199251 46.405300 0.298884
v 0.000000 44.265297 7.990773
v 0.000000 44.303856 3.787658
v 1.882890 44.525566 7.602219
v 0.000000 46.880856 8.903129
v 1.327505 47.764492 9.087692
v 0.000000 47.767704 9.567409
v 0.000000 49.335754 10.042640
v 2.695648 48.439266 8.223158
v 0.000000 45.261395 8.904623
v 1.663445 45.524879 8.563890
v 2.538515 45.634129 7.546924
v 5.987319 50.029812 3.142806
v -2.045442 46.386021 8.234366
v -2.928639 46.090405 7.342185
v -2.538515 45.634129 7.546924
v 0.000000 48.860199 9.806519
v -1.487348 49.326115 9.599538
v -1.300413 48.638489 9.017453
v -2.695648 48.439266 8.223158
v -5.800385 47.857677 2.586126
v -4.993045 49.984825 6.439542
v -5.987319 50.029812 3.142806
v 3.887694 46.244640 5.842514
v 3.164339 45.071815 5.374007
v 0.000000 50.810623 11.026730
v -1.162244 51.405067 11.101451
v -1.901854 50.916660 8.996531
v 1.901854 50.916660 8.996531
v 1.162244 51.405067 11.101451
v 0.000000 51.626781 11.596111
v -1.327505 47.764492 9.087692
v 0.000000 48.529240 9.312605
v 1.300413 48.638489 9.017453
v -3.852474 47.433533 7.174807
v -3.887694 46.244640 5.842514
v -6.512903 50.248310 0.347454
v -6.000865 48.117947 1.073005
v -5.112249 46.357101 2.843917
v -4.199251 46.405300 0.298884
v -1.983130 50.862034 8.968137
v 0.000000 46.128963 8.921062
v -1.663445 45.524879 8.563890
v -1.882890 44.525566 7.602219
v -3.164339 45.071815 5.374007
v 4.993045 49.984825 6.439542
vn -0.0000 -0.3233 0.9463
vn 0.4149 -0.2427 0.8769
vn 0.4404 0.0472 0.8966
vn 0.7418 -0.2999 0.5998
vn 0.5185 -0.1571 0.8405
vn 0.7147 -0.3770 0.5891
vn 0.9345 -0.2670 0.2356
vn 0.8944 -0.4158 -0.1647
vn 0.9625 -0.1956 0.1878
vn 0.7149 -0.6992 0.0079
vn 0.6126 -0.7147 -0.3377
vn -0.0000 -0.8498 0.5271
vn -0.0000 -0.9940 -0.1096
vn 0.5423 -0.7546 0.3694
vn -0.0000 -0.3606 0.9327
vn 0.3698 -0.1259 0.9205
vn -0.0000 -0.1568 0.9876
vn -0.0000 -0.1414 0.9899
vn 0.5429 -0.1888 0.8183
vn -0.0000 -0.3700 0.9290
vn 0.4497 -0.2919 0.8441
vn 0.7483 -0.3308 0.5750
vn 0.9445 -0.2282 0.2361
vn -0.5185 -0.1571 0.8405
vn -0.7147 -0.3770 0.5891
vn -0.7483 -0.3308 0.5750
vn -0.0000 -0.6750 0.7378
vn -0.4149 -0.2427 0.8769
vn -0.3306 -0.4408 0.8345
vn -0.5429 -0.1888 0.8183
vn -0.9345 -0.2670 0.2356
vn -0.8578 -0.2361 0.4565
vn -0.9445 -0.2282 0.2361
vn 0.8040 -0.4651 0.3705
vn 0.5678 -0.8201 0.0710
vn -0.0000 -0.7847 0.6199
vn -0.6896 -0.1645 0.7053
vn -0.6352 -0.1725 0.7529
vn 0.6352 -0.1725 0.7529
vn 0.6896 -0.1645 0.7052
vn -0.0000 -0.0472 0.9989
vn -0.3698 -0.1259 0.9205
vn -0.0000 -0.1720 0.9851
vn 0.3306 -0.4408 0.8345
vn -0.7418 -0.2999 0.5998
vn -0.8040 -0.4651 0.3705
vn -0.9625 -0.1956 0.1878
vn -0.8944 -0.4158 -0.1647
vn -0.7149 -0.6992 0.0079
vn -0.6126 -0.7147 -0.3377
vn -0.4404 0.0472 0.8966
vn -0.0000 0.0785 0.9969
vn -0.4497 -0.2919 0.8441
vn -0.5423 -0.7546 0.3694
vn -0.5678 -0.8201 0.0710
vn 0.8578 -0.2361 0.4565
vt 0.500000 0.673584
vt 0.582489 0.737366
vt 0.611267 0.650940
vt 0.740021 0.827972
vt 0.633148 0.891266
vt 0.702393 0.882690
vt 0.932281 0.898682
vt 0.980927 0.970337
vt 0.988464 0.683441
vt 0.897614 0.975708
vt 0.988464 0.988342
vt 0.500000 0.982208
vt 0.500000 0.988342
vt 0.632660 0.978210
vt 0.500000 0.871918
vt 0.584595 0.822571
vt 0.500000 0.822418
vt 0.500000 0.737183
vt 0.656372 0.776764
vt 0.500000 0.948395
vt 0.607727 0.944763
vt 0.664795 0.937408
vt 0.943817 0.707367
vt 0.500000 0.760223
vt 0.581848 0.776520
vt 0.821472 0.705139
vt 0.771149 0.926483
vt 0.703247 0.980988
vt 0.500000 0.645508
vt 0.544952 0.619812
vt 0.608246 0.648315
vt 0.500000 0.616577
vt 0.500000 0.780182
vt 0.500000 0.913239
s 1
usemtl m_face064
f 1/1/1 2/2/2 3/3/3
f 4/4/4 5/5/5 6/6/6
f 7/7/7 8/8/8 9/9/9
f 10/10/10 11/11/11 8/8/8
f 12/12/12 13/13/13 14/14/14
f 15/15/15 16/16/16 17/17/17
f 2/2/2 1/1/1 18/18/18
f 5/5/5 4/4/4 19/19/19
f 20/20/20 12/12/12 21/21/21
f 21/21/21 12/12/12 14/14/14
f 21/21/21 14/14/14 22/22/22
f 7/7/7 9/9/9 23/23/23
f 24/5/24 25/6/25 26/22/26
f 27/24/27 28/2/28 29/25/29
f 29/25/29 28/2/28 30/19/30
f 31/7/31 32/26/32 33/23/33
f 8/8/8 7/7/7 10/10/10
f 10/10/10 7/7/7 34/27/34
f 10/10/10 34/27/34 35/28/35
f 36/29/36 37/30/37 1/1/1
f 1/1/1 37/30/37 38/31/38
f 3/3/3 39/31/39 1/1/1
f 1/1/1 39/31/39 40/30/40
f 1/1/1 40/30/40 36/29/36
f 36/29/36 40/30/40 41/32/41
f 36/29/36 41/32/41 37/30/37
f 24/5/24 15/15/15 42/16/42
f 42/16/42 15/15/15 17/17/17
f 42/16/42 17/17/17 43/33/43
f 43/33/43 17/17/17 16/16/16
f 43/33/43 16/16/16 44/25/44
f 44/25/44 27/24/27 43/33/43
f 43/33/43 27/24/27 29/25/29
f 43/33/43 29/25/29 42/16/42
f 42/16/42 29/25/29 30/19/30
f 42/16/42 30/19/30 24/5/24
f 24/5/24 30/19/30 45/4/45
f 24/5/24 45/4/45 25/6/25
f 25/6/25 45/4/45 46/27/46
f 25/6/25 46/27/46 26/22/26
f 33/23/33 47/9/47 31/7/31
f 31/7/31 47/9/47 48/8/48
f 31/7/31 48/8/48 49/10/49
f 49/10/49 48/8/48 50/11/50
f 49/10/49 50/11/50 13/13/13
f 11/11/11 10/10/10 13/13/13
f 13/13/13 10/10/10 35/28/35
f 13/13/13 35/28/35 14/14/14
f 14/14/14 35/28/35 34/27/34
f 14/14/14 34/27/34 22/22/22
f 38/31/38 51/3/51 1/1/1
f 1/1/1 51/3/51 28/2/28
f 1/1/1 28/2/28 18/18/18
f 18/18/18 28/2/28 27/24/27
f 18/18/18 27/24/27 2/2/2
f 2/2/2 27/24/27 44/25/44
f 2/2/2 44/25/44 19/19/19
f 19/19/19 44/25/44 16/16/16
f 19/19/19 16/16/16 5/5/5
f 5/5/5 16/16/16 15/15/15
f 5/5/5 15/15/15 52/34/52
f 52/34/52 15/15/15 24/5/24
f 52/34/52 24/5/24 53/21/53
f 53/21/53 24/5/24 26/22/26
f 53/21/53 26/22/26 54/14/54
f 54/14/54 26/22/26 46/27/46
f 54/14/54 46/27/46 55/28/55
f 23/23/23 56/26/56 7/7/7
f 7/7/7 56/26/56 4/4/4
f 7/7/7 4/4/4 34/27/34
f 34/27/34 4/4/4 6/6/6
f 34/27/34 6/6/6 22/22/22
f 22/22/22 6/6/6 5/5/5
f 22/22/22 5/5/5 21/21/21
f 21/21/21 5/5/5 52/34/52
f 21/21/21 52/34/52 20/20/20
f 20/20/20 52/34/52 53/21/53
f 20/20/20 53/21/53 12/12/12
f 12/12/12 53/21/53 54/14/54
f 12/12/12 54/14/54 13/13/13
f 13/13/13 54/14/54 55/28/55
f 13/13/13 55/28/55 49/10/49
f 49/10/49 55/28/55 46/27/46
f 49/10/49 46/27/46 31/7/31
f 31/7/31 46/27/46 45/4/45
f 31/7/31 45/4/45 32/26/32
o editpl_m-0000-100
v 5.272092 59.283878 7.053758
v 6.193218 61.047935 3.615795
v 3.763071 62.619202 6.400686
v -7.824153 56.199192 -1.170151
v -7.163109 53.779636 -2.317882
v -8.590855 55.559761 -2.843925
v 6.000865 48.117947 1.073005
v 7.163109 53.779636 -2.317882
v 6.512903 50.248310 0.347454
v 0.000000 57.265980 9.618965
v 2.151100 57.333458 9.305132
v 0.000000 59.762650 9.333527
v -1.815160 52.822098 8.841856
v -1.901854 50.916660 8.996531
v -1.162244 51.405067 11.101451
v 1.815160 52.822098 8.841856
v 1.162244 51.405067 11.101451
v 1.901854 50.916660 8.996531
v 7.255222 49.923775 -1.247862
v 8.574599 53.165913 -3.065850
v 6.512903 50.248310 0.347454
v 6.927409 55.174175 0.347454
v 7.824153 56.199192 -1.170151
v 8.590855 55.559761 -2.843925
v 6.466846 58.175320 3.896751
v 6.927409 55.174175 0.347454
v 7.824153 56.199192 -1.170151
v 7.163109 53.779636 -2.317882
v 8.590855 55.559761 -2.843925
v 7.390682 58.499855 -1.933811
v 6.927409 55.174175 0.347454
v 7.163109 53.779636 -2.317882
v 2.191738 55.402313 8.581824
v 2.251340 55.431232 9.222192
v 0.975310 55.183815 9.219203
v 2.178192 54.165222 8.299375
v 1.408781 54.502609 8.406227
v 0.891325 54.219849 9.465786
v 8.574599 53.165913 -3.065850
v 7.255222 49.923775 -1.247862
v 6.512903 50.248310 0.347454
v 6.515612 52.632519 4.377214
v 6.512903 50.248310 0.347454
v 5.987319 50.029812 3.142806
v -2.178192 54.165222 8.299375
v -3.286252 54.811081 8.337483
v -4.518936 54.251980 7.656017
v -6.512903 50.248310 0.347454
v -8.574599 53.165913 -3.065850
v -7.255222 49.923775 -1.247862
v -8.590855 55.559761 -2.843925
v -7.824153 56.199192 -1.170151
v -6.927409 55.174175 0.347454
v -4.199251 46.405300 0.298884
v -6.000865 48.117947 1.073005
v -7.163109 53.779636 -2.317882
v -6.512903 50.248310 0.347454
v -6.927409 55.174175 0.347454
v 0.000000 51.626781 11.596111
v 0.000000 54.428707 9.852846
v -0.891325 54.219849 9.465786
v -6.512903 50.248310 0.347454
v -7.255222 49.923775 -1.247862
v -8.574599 53.165913 -3.065850
v -1.408781 54.502609 8.406227
v -0.975310 55.183815 9.219203
v -2.191738 55.402313 8.581824
v -1.487348 49.326115 9.599538
v -1.983130 50.862034 8.968137
v -2.695648 48.439266 8.223158
v -3.836219 50.290081 7.998244
v -3.852474 47.433533 7.174807
v -4.993045 49.984825 6.439542
v 4.199251 46.405300 0.298884
v 4.993045 49.984825 6.439542
v 5.716400 52.163387 6.311020
v 6.101105 54.599007 5.561558
v 3.286252 54.811081 8.337483
v -2.151100 57.333458 9.305132
v -2.717322 59.820488 8.927039
v -4.624594 57.593727 8.306098
v -5.272092 59.283878 7.053758
v -6.466846 58.175320 3.896751
v -6.927409 55.174175 0.347454
v -6.101105 54.599007 5.561558
v -5.201653 56.154205 8.223158
v -4.218215 56.231323 9.314100
v 0.000000 56.443394 9.985851
v -1.760976 55.713997 9.862560
v -2.251340 55.431232 9.222192
v -5.358786 54.454414 6.875172
v -4.540609 55.187027 7.981058
v 2.695648 48.439266 8.223158
v 3.852474 47.433533 7.174807
v 3.836219 50.290081 7.998244
v 4.686906 52.304771 7.834603
v 5.358786 54.454414 6.875172
v 5.201653 56.154205 8.223158
v 4.624594 57.593727 8.306098
v 2.717322 59.820488 8.927039
v 0.000000 62.905178 7.103820
v -3.194140 52.565041 8.489916
v -4.686906 52.304771 7.834603
v -5.716400 52.163387 6.311020
v -5.987319 50.029812 3.142806
v -6.515612 52.632519 4.377214
v -6.512903 50.248310 0.347454
v 4.218215 56.231323 9.314100
v 1.760976 55.713997 9.862560
v 0.000000 55.434444 9.578616
v 1.487348 49.326115 9.599538
v 1.983130 50.862034 8.968137
v 3.194140 52.565041 8.489916
v 4.518936 54.251980 7.656017
v 4.540609 55.187027 7.981058
v -3.717014 62.619202 6.400686
v -6.193218 61.047935 3.615795
v -7.390682 58.499855 -1.933811
v -7.163109 53.779636 -2.317882
vn 0.8078 0.2510 0.5333
vn 0.9247 0.2272 0.3056
vn 0.5503 0.5110 0.6603
vn 0.8242 0.4082 -0.3925
vn 0.2438 -0.0707 -0.9672
vn 0.6187 0.2741 -0.7362
vn 0.8944 -0.4158 -0.1648
vn -0.2438 -0.0708 -0.9673
vn 0.9625 -0.1956 0.1878
vn -0.0000 0.2591 0.9658
vn 0.1969 0.2600 0.9453
vn -0.0000 0.2758 0.9612
vn -0.5881 0.2274 0.7762
vn -0.6352 -0.1725 0.7528
vn -0.6896 -0.1646 0.7052
vn 0.5881 0.2274 0.7762
vn 0.6896 -0.1646 0.7053
vn 0.6352 -0.1725 0.7528
vn 0.8913 -0.1172 0.4379
vn 0.8917 -0.0782 0.4458
vn 0.9856 0.0391 0.1643
vn 0.8879 -0.0629 0.4557
vn 0.9045 -0.0393 0.4247
vn 0.9614 0.0630 0.2679
vn -0.8242 0.4082 -0.3925
vn -0.2438 -0.0708 -0.9672
vn -0.6187 0.2741 -0.7362
vn 0.9899 -0.0000 0.1414
vn 0.2596 -0.6213 0.7393
vn 0.2603 -0.9228 0.2840
vn 0.4641 -0.4877 0.7394
vn 0.2036 -0.0078 0.9790
vn 0.5744 -0.0236 0.8183
vn 0.7163 0.2834 0.6376
vn -0.4957 -0.0708 -0.8656
vn -0.7545 -0.1886 -0.6287
vn 0.9625 -0.1956 0.1879
vn 0.9704 -0.1174 0.2113
vn 0.9445 -0.2283 0.2361
vn -0.2036 -0.0078 0.9790
vn -0.2431 -0.2352 0.9410
vn -0.4640 -0.0944 0.8808
vn -0.9625 -0.1956 0.1878
vn -0.8917 -0.0782 0.4458
vn -0.8913 -0.1172 0.4379
vn -0.9045 -0.0393 0.4247
vn -0.8879 -0.0629 0.4557
vn -0.9856 0.0391 0.1643
vn -0.6126 -0.7146 -0.3377
vn -0.8944 -0.4158 -0.1648
vn 0.2437 -0.0707 -0.9673
vn -0.9625 -0.1957 0.1878
vn -0.0000 -0.0472 0.9989
vn -0.0000 0.3863 0.9224
vn -0.7163 0.2834 0.6376
vn -0.9625 -0.1956 0.1879
vn 0.7545 -0.1886 -0.6287
vn 0.4957 -0.0708 -0.8656
vn -0.5743 -0.0236 0.8183
vn -0.4641 -0.4877 0.7394
vn -0.2595 -0.6214 0.7393
vn -0.4149 -0.2427 0.8769
vn -0.4404 0.0472 0.8966
vn -0.5429 -0.1888 0.8183
vn -0.5651 -0.1648 0.8084
vn -0.7418 -0.2999 0.5998
vn -0.8578 -0.2361 0.4565
vn 0.6126 -0.7146 -0.3377
vn 0.8578 -0.2361 0.4565
vn 0.8901 -0.1418 0.4332
vn 0.9436 -0.0236 0.3303
vn 0.2431 -0.2352 0.9410
vn -0.1970 0.2599 0.9453
vn -0.3531 0.3610 0.8632
vn -0.6741 0.2430 0.6976
vn -0.8078 0.2510 0.5333
vn -0.9614 0.0630 0.2679
vn -0.9856 0.0391 0.1642
vn -0.9436 -0.0236 0.3303
vn -0.8185 -0.1337 0.5588
vn -0.4803 -0.3700 0.7952
vn -0.0000 0.1095 0.9940
vn -0.1413 -0.4396 0.8870
vn -0.2603 -0.9228 0.2839
vn -0.7619 -0.1571 0.6284
vn -0.4407 -0.4171 0.7948
vn 0.5429 -0.1888 0.8183
vn 0.7418 -0.2999 0.5998
vn 0.5651 -0.1648 0.8084
vn 0.6658 -0.0548 0.7441
vn 0.7619 -0.1571 0.6284
vn 0.8185 -0.1338 0.5588
vn 0.6741 0.2430 0.6976
vn 0.3531 0.3610 0.8632
vn -0.0000 0.6063 0.7952
vn -0.3450 0.1019 0.9330
vn -0.6658 -0.0548 0.7441
vn -0.8901 -0.1418 0.4332
vn -0.9445 -0.2283 0.2361
vn -0.9704 -0.1174 0.2113
vn 0.4803 -0.3700 0.7953
vn 0.1413 -0.4396 0.8870
vn -0.0000 -0.3537 0.9354
vn 0.4149 -0.2427 0.8769
vn 0.4404 0.0472 0.8966
vn 0.3450 0.1019 0.9330
vn 0.4640 -0.0944 0.8808
vn 0.4407 -0.4171 0.7948
vn -0.5426 0.5190 0.6605
vn -0.9235 0.2289 0.3078
vn -0.9899 -0.0000 0.1414
vn 0.2438 -0.0708 -0.9672
vt 0.833496 0.159363
vt 0.922028 0.011536
vt 0.697388 0.011536
vt 0.099365 0.367096
vt 0.102783 0.403442
vt 0.093414 0.383026
vt 0.973083 0.970337
vt 0.980621 0.504211
vt 0.980621 0.683441
vt 0.500000 0.270020
vt 0.635223 0.262939
vt 0.500000 0.134735
vt 0.604706 0.532166
vt 0.608246 0.648315
vt 0.544952 0.619812
vt 0.072784 0.627380
vt 0.016235 0.490295
vt 0.121887 0.620270
vt 0.121887 0.372437
vt 0.032349 0.310669
vt 0.013062 0.385742
vt 0.919922 0.221069
vt 0.118347 0.380188
vt 0.987244 0.216431
vt 0.987335 0.384094
vt 0.987244 0.504211
vt 0.625366 0.366760
vt 0.608215 0.357483
vt 0.553925 0.382751
vt 0.620667 0.450470
vt 0.583862 0.441833
vt 0.545349 0.445953
vt 0.094666 0.416870
vt 0.112946 0.436218
vt 0.118347 0.432770
vt 0.927948 0.564209
vt 0.987244 0.683441
vt 0.943817 0.707367
vt 0.692474 0.404175
vt 0.760376 0.451843
vt 0.980621 0.988342
vt 0.500000 0.616577
vt 0.500000 0.439667
vt 0.582489 0.737366
vt 0.611267 0.650940
vt 0.656372 0.776764
vt 0.722534 0.678162
vt 0.740021 0.827972
vt 0.821472 0.705139
vt 0.859680 0.574524
vt 0.901794 0.425629
vt 0.675720 0.132111
vt 0.802246 0.257782
vt 0.823822 0.335419
vt 0.767273 0.328674
vt 0.500000 0.312805
vt 0.592834 0.344147
vt 0.825836 0.444885
vt 0.770660 0.389343
vt 0.772644 0.571045
vt 0.500000 0.011536
vt 0.684082 0.553467
vt 0.500000 0.355316
s 1
usemtl m_face064
f 57/35/57 58/36/58 59/37/59
f 60/38/60 61/39/61 62/40/62
f 63/41/63 64/42/64 65/43/65
f 66/44/66 67/45/67 68/46/68
f 69/47/69 70/48/70 71/49/71
f 72/47/72 73/49/73 74/48/74
f 75/50/75 76/51/76 77/52/65
f 78/53/77 77/52/65 79/54/78
f 79/54/78 77/52/65 76/51/76
f 79/54/78 76/51/76 80/55/79
f 58/36/58 57/35/57 81/56/80
f 82/57/77 83/38/81 84/39/82
f 84/39/82 83/38/81 85/40/83
f 86/58/84 87/59/77 88/60/82
f 89/61/85 90/62/86 91/63/87
f 92/64/88 93/65/89 72/47/72
f 72/47/72 93/65/89 94/66/90
f 72/47/72 94/66/90 73/49/73
f 85/40/83 95/67/91 84/39/82
f 84/39/82 95/67/91 96/68/92
f 84/39/82 96/68/92 97/69/93
f 87/59/77 98/70/94 99/71/65
f 99/71/65 98/70/94 100/72/95
f 101/64/96 102/73/97 103/74/98
f 104/52/99 105/51/100 106/50/101
f 107/55/102 105/51/100 108/54/103
f 108/54/103 105/51/100 104/52/99
f 108/54/103 104/52/99 109/53/104
f 110/75/105 111/41/106 112/42/107
f 112/42/107 111/41/106 113/43/108
f 61/39/61 60/38/60 114/57/104
f 115/76/109 116/77/110 71/49/71
f 71/49/71 116/77/110 117/66/111
f 71/49/71 117/66/111 69/47/69
f 118/69/112 119/68/113 61/39/61
f 61/39/61 119/68/113 120/67/114
f 61/39/61 120/67/114 62/40/62
f 121/65/115 122/63/116 123/61/117
f 124/78/118 125/79/119 126/80/120
f 126/80/120 125/79/119 127/81/121
f 126/80/120 127/81/121 128/82/122
f 128/82/122 127/81/121 129/83/123
f 64/42/64 63/41/63 130/75/124
f 131/83/125 100/72/95 132/84/126
f 132/84/126 100/72/95 98/70/94
f 132/84/126 98/70/94 133/85/127
f 133/85/127 98/70/94 87/59/77
f 133/85/127 87/59/77 81/56/80
f 81/56/80 87/59/77 86/58/84
f 81/56/80 86/58/84 58/36/58
f 115/76/109 73/49/73 116/77/110
f 116/77/110 73/49/73 94/66/90
f 116/77/110 94/66/90 91/63/87
f 91/63/87 94/66/90 93/65/89
f 91/63/87 93/65/89 89/61/85
f 89/61/85 93/65/89 92/64/88
f 89/61/85 92/64/88 134/73/128
f 66/44/66 68/46/68 135/45/129
f 135/45/129 68/46/68 136/86/130
f 135/45/129 136/86/130 137/87/131
f 137/87/131 136/86/130 138/35/132
f 137/87/131 138/35/132 139/56/133
f 140/59/134 141/85/135 139/56/133
f 139/56/133 141/85/135 142/88/136
f 139/56/133 142/88/136 137/87/131
f 137/87/131 142/88/136 143/89/137
f 137/87/131 143/89/137 135/45/129
f 67/45/67 66/44/66 144/90/138
f 144/90/138 66/44/66 135/45/129
f 144/90/138 135/45/129 145/91/139
f 145/91/139 135/45/129 143/89/137
f 145/91/139 143/89/137 146/62/140
f 147/92/141 103/74/98 148/93/142
f 148/93/142 103/74/98 102/73/97
f 148/93/142 102/73/97 123/61/117
f 123/61/117 102/73/97 101/64/96
f 123/61/117 101/64/96 121/65/115
f 149/80/143 150/82/144 151/81/145
f 151/81/145 150/82/144 131/83/125
f 151/81/145 131/83/125 152/94/146
f 152/94/146 131/83/125 132/84/126
f 152/94/146 132/84/126 153/92/147
f 153/92/147 132/84/126 133/85/127
f 153/92/147 133/85/127 154/88/148
f 154/88/148 133/85/127 81/56/80
f 154/88/148 81/56/80 155/87/149
f 155/87/149 81/56/80 57/35/57
f 155/87/149 57/35/57 156/86/150
f 156/86/150 57/35/57 59/37/59
f 156/86/150 59/37/59 157/95/151
f 70/48/70 69/47/69 125/79/119
f 125/79/119 69/47/69 158/96/152
f 125/79/119 158/96/152 127/81/121
f 127/81/121 158/96/152 159/94/153
f 127/81/121 159/94/153 129/83/123
f 129/83/123 159/94/153 160/84/154
f 129/83/123 160/84/154 161/72/155
f 161/72/155 160/84/154 162/70/156
f 161/72/155 162/70/156 163/71/99
f 164/89/157 67/45/67 165/91/158
f 165/91/158 67/45/67 144/90/138
f 165/91/158 144/90/138 166/97/159
f 166/97/159 144/90/138 145/91/139
f 166/97/159 145/91/139 122/63/116
f 122/63/116 145/91/139 146/62/140
f 122/63/116 146/62/140 123/61/117
f 123/61/117 146/62/140 143/89/137
f 123/61/117 143/89/137 148/93/142
f 148/93/142 143/89/137 142/88/136
f 148/93/142 142/88/136 147/92/141
f 147/92/141 142/88/136 141/85/135
f 167/78/160 149/80/143 168/79/161
f 168/79/161 149/80/143 151/81/145
f 168/79/161 151/81/145 169/96/162
f 169/96/162 151/81/145 152/94/146
f 169/96/162 152/94/146 170/74/163
f 170/74/163 152/94/146 153/92/147
f 170/74/163 153/92/147 171/93/164
f 171/93/164 153/92/147 154/88/148
f 171/93/164 154/88/148 164/89/157
f 164/89/157 154/88/148 155/87/149
f 164/89/157 155/87/149 67/45/67
f 67/45/67 155/87/149 156/86/150
f 67/45/67 156/86/150 68/46/68
f 68/46/68 156/86/150 157/95/151
f 68/46/68 157/95/151 136/86/130
f 136/86/130 157/95/151 172/37/165
f 136/86/130 172/37/165 138/35/132
f 138/35/132 172/37/165 173/36/166
f 138/35/132 173/36/166 139/56/133
f 139/56/133 173/36/166 174/58/167
f 139/56/133 174/58/167 140/59/134
f 140/59/134 174/58/167 175/60/168
f 74/48/74 168/79/161 72/47/72
f 72/47/72 168/79/161 169/96/162
f 72/47/72 169/96/162 92/64/88
f 92/64/88 169/96/162 170/74/163
f 92/64/88 170/74/163 134/73/128
f 134/73/128 170/74/163 171/93/164
f 134/73/128 171/93/164 89/61/85
f 89/61/85 171/93/164 164/89/157
f 89/61/85 164/89/157 90/62/86
f 90/62/86 164/89/157 165/91/158
f 90/62/86 165/91/158 91/63/87
f 91/63/87 165/91/158 166/97/159
f 91/63/87 166/97/159 116/77/110
f 116/77/110 166/97/159 122/63/116
f 116/77/110 122/63/116 117/66/111
f 117/66/111 122/63/116 121/65/115
f 117/66/111 121/65/115 69/47/69
f 69/47/69 121/65/115 101/64/96
f 69/47/69 101/64/96 158/96/152
f 158/96/152 101/64/96 103/74/98
f 158/96/152 103/74/98 159/94/153
f 159/94/153 103/74/98 147/92/141
f 159/94/153 147/92/141 160/84/154
f 160/84/154 147/92/141 141/85/135
f 160/84/154 141/85/135 162/70/156
f 162/70/156 141/85/135 140/59/134
f 162/70/156 140/59/134 163/71/99
