mtllib m_face002.mtl
o editpl_m-0000-119
v 0.000000 50.685307 10.205534
v 1.200173 51.626781 10.520114
v 0.000000 51.093388 10.832452
v -1.536113 47.571697 9.621207
v -2.107753 46.652718 8.189533
v 0.000000 46.855152 9.580857
v 6.621270 50.248310 0.347454
v 4.199251 46.405300 0.298884
v 7.163109 53.779636 -2.317882
v 3.708887 46.463139 6.184741
v 3.735979 45.598782 5.196167
v 5.337112 46.884071 2.542787
v 2.183610 45.396351 7.656765
v 2.855491 46.543468 7.671710
v 2.107753 46.652718 8.189533
v 0.000000 48.802361 10.130813
v 1.433164 49.798458 10.307157
v 0.000000 49.705276 10.498445
v 2.161937 44.425957 7.056747
v 0.000000 44.303856 3.787658
v 2.164646 51.151226 9.069759
v -2.898838 48.259327 8.358405
v 0.000000 46.122540 8.764145
v -2.183610 45.396351 7.656765
v 0.000000 45.136082 8.675973
v -5.337112 46.884071 2.542787
v -4.199251 46.405300 0.298884
v -3.735979 45.598782 5.196167
v -5.239581 50.604977 6.308032
v -4.472879 49.062634 6.691356
v -4.386185 50.653175 7.304824
v -3.708887 46.463139 6.184741
v -5.361495 47.742001 4.253175
v -6.076722 50.392906 3.392377
v -6.252820 48.217556 1.182099
v -6.621270 50.248310 0.347454
v -7.163109 53.779636 -2.317882
v 0.000000 44.265297 7.972840
v -2.161937 44.425957 7.056747
v -1.433164 49.798458 10.307157
v -1.294995 48.709179 9.241619
v 0.000000 47.420677 9.887965
v 1.536113 47.571697 9.621207
v 6.252820 48.217556 1.182099
v 5.361495 47.742001 4.253175
v 4.472879 49.062634 6.397698
v 3.437967 47.536354 7.709817
v 3.744106 49.641010 8.149183
v 2.898838 48.259327 8.358405
v 1.294995 48.709179 9.241619
v 0.000000 48.497105 9.442622
v -2.855491 46.543468 7.671710
v -3.437967 47.536354 7.709817
v -3.744106 49.641010 8.149183
v -2.164646 51.151226 9.069759
v -1.200173 51.626781 10.520114
v 0.000000 51.642845 11.195601
v 6.076722 50.392906 3.392377
v 5.239581 50.604977 6.013627
v 4.386185 50.653175 7.304824
vn -0.0000 -0.2203 0.9754
vn 0.6277 -0.1962 0.7533
vn -0.0000 -0.7071 0.7071
vn -0.4402 -0.2122 0.8725
vn -0.4789 -0.4632 0.7458
vn -0.0000 -0.6750 0.7378
vn 0.9636 -0.2664 0.0235
vn 0.6308 -0.7017 -0.3311
vn -0.5122 0.0079 -0.8588
vn 0.8111 -0.4016 0.4252
vn 0.6443 -0.7622 0.0629
vn 0.7881 -0.6069 0.1024
vn 0.5280 -0.3861 0.7564
vn 0.6539 -0.3939 0.6460
vn 0.4789 -0.4632 0.7458
vn -0.0000 -0.7072 0.7070
vn 0.4008 -0.1493 0.9039
vn -0.0000 -0.0472 0.9989
vn 0.5666 -0.7477 0.3463
vn -0.0000 -0.9930 -0.1182
vn 0.6423 0.1488 0.7519
vn -0.5664 -0.2911 0.7710
vn -0.0000 -0.4250 0.9052
vn -0.5279 -0.3861 0.7564
vn -0.0000 -0.3768 0.9263
vn -0.7881 -0.6069 0.1024
vn -0.6308 -0.7018 -0.3312
vn -0.6443 -0.7622 0.0629
vn -0.8183 -0.2911 0.4957
vn -0.8321 -0.2512 0.4945
vn -0.6749 -0.1098 0.7297
vn -0.8086 -0.4161 0.4161
vn -0.8852 -0.3290 0.3290
vn -0.9487 -0.2195 0.2274
vn -0.9182 -0.3924 -0.0550
vn -0.9636 -0.2664 0.0235
vn 0.5122 0.0079 -0.8589
vn -0.0000 -0.8122 0.5834
vn -0.5666 -0.7477 0.3463
vn -0.4009 -0.1493 0.9039
vn -0.3138 -0.2432 0.9178
vn -0.0000 0.0862 0.9963
vn 0.4402 -0.2122 0.8725
vn 0.9182 -0.3924 -0.0550
vn 0.8832 -0.3155 0.3470
vn 0.8493 -0.2517 0.4640
vn 0.7149 -0.3221 0.6206
vn 0.7468 -0.0786 0.6604
vn 0.5664 -0.2911 0.7710
vn 0.3138 -0.2432 0.9178
vn -0.0000 -0.3605 0.9327
vn -0.6539 -0.3939 0.6460
vn -0.6983 -0.3295 0.6355
vn -0.7324 -0.0708 0.6772
vn -0.6423 0.1488 0.7519
vn -0.6277 -0.1962 0.7533
vn -0.0000 -0.1734 0.9849
vn 0.9444 -0.2204 0.2440
vn 0.8358 -0.2917 0.4652
vn 0.7086 -0.1338 0.6928
vt 0.501648 0.662628
vt 0.570496 0.593567
vt 0.501648 0.627289
vt 0.580322 0.826874
vt 0.610870 0.883789
vt 0.504883 0.851288
vt 0.988129 0.683441
vt 0.988129 0.987732
vt 0.988129 0.504211
vt 0.768585 0.925720
vt 0.700928 0.970734
vt 0.880341 0.970734
vt 0.595917 0.949097
vt 0.667694 0.904755
vt 0.504730 0.754852
vt 0.570190 0.706940
vt 0.501648 0.715393
vt 0.612732 0.972656
vt 0.501648 0.987732
vt 0.619110 0.607178
vt 0.634949 0.761200
vt 0.501648 0.898010
vt 0.501648 0.954346
vt 0.840393 0.663147
vt 0.771912 0.723053
vt 0.753998 0.641174
vt 0.902374 0.880371
vt 0.928741 0.673737
vt 0.962158 0.970337
vt 0.501648 0.972656
vt 0.544067 0.750763
vt 0.504883 0.827332
vt 0.691010 0.824799
vt 0.696960 0.704163
vt 0.504883 0.761414
vt 0.501648 0.596954
s 1
usemtl m_face074
f 1/1/1 2/2/2 3/3/3
f 4/4/4 5/5/5 6/6/6
f 7/7/7 8/8/8 9/9/9
f 10/10/10 11/11/11 12/12/12
f 12/12/12 11/11/11 8/8/8
f 13/13/13 14/14/14 15/5/15
f 16/15/16 17/16/17 18/17/18
f 10/10/10 19/18/19 11/11/11
f 11/11/11 19/18/19 20/19/20
f 11/11/11 20/19/20 8/8/8
f 2/2/2 1/1/1 21/20/21
f 5/5/5 4/4/4 22/21/22
f 23/22/23 24/13/24 25/23/25
f 26/12/26 27/8/27 28/11/28
f 28/11/28 27/8/27 20/19/20
f 29/24/29 30/25/30 31/26/31
f 32/10/32 30/25/30 33/27/33
f 33/27/33 30/25/30 29/24/29
f 33/27/33 29/24/29 34/28/34
f 26/12/26 35/29/35 27/8/27
f 27/8/27 35/29/35 36/7/36
f 27/8/27 36/7/36 37/9/37
f 15/5/15 23/22/23 13/13/13
f 13/13/13 23/22/23 25/23/25
f 13/13/13 25/23/25 38/30/38
f 38/30/38 25/23/25 24/13/24
f 38/30/38 24/13/24 39/18/39
f 39/18/39 24/13/24 32/10/32
f 40/16/40 22/21/22 41/31/41
f 41/31/41 22/21/22 4/4/4
f 41/31/41 4/4/4 42/32/42
f 42/32/42 4/4/4 6/6/6
f 42/32/42 6/6/6 43/4/43
f 8/8/8 44/29/44 12/12/12
f 12/12/12 44/29/44 45/27/45
f 12/12/12 45/27/45 10/10/10
f 10/10/10 45/27/45 46/25/46
f 10/10/10 46/25/46 47/33/47
f 47/33/47 46/25/46 48/34/48
f 47/33/47 48/34/48 49/21/49
f 49/21/49 48/34/48 17/16/17
f 49/21/49 17/16/17 50/31/50
f 50/31/50 17/16/17 16/15/16
f 50/31/50 16/15/16 51/35/51
f 52/14/52 5/5/5 53/33/53
f 53/33/53 5/5/5 22/21/22
f 53/33/53 22/21/22 54/34/54
f 54/34/54 22/21/22 40/16/40
f 54/34/54 40/16/40 55/20/55
f 55/20/55 40/16/40 1/1/1
f 55/20/55 1/1/1 56/2/56
f 56/2/56 1/1/1 3/3/3
f 56/2/56 3/3/3 57/36/57
f 57/36/57 3/3/3 2/2/2
f 55/20/55 31/26/31 54/34/54
f 54/34/54 31/26/31 30/25/30
f 54/34/54 30/25/30 53/33/53
f 53/33/53 30/25/30 32/10/32
f 53/33/53 32/10/32 52/14/52
f 52/14/52 32/10/32 24/13/24
f 52/14/52 24/13/24 5/5/5
f 5/5/5 24/13/24 23/22/23
f 5/5/5 23/22/23 6/6/6
f 6/6/6 23/22/23 15/5/15
f 6/6/6 15/5/15 43/4/43
f 8/8/8 7/7/7 44/29/44
f 44/29/44 7/7/7 58/28/58
f 44/29/44 58/28/58 45/27/45
f 45/27/45 58/28/58 59/24/59
f 45/27/45 59/24/59 46/25/46
f 46/25/46 59/24/59 60/26/60
f 46/25/46 60/26/60 48/34/48
f 48/34/48 60/26/60 21/20/21
f 48/34/48 21/20/21 17/16/17
f 17/16/17 21/20/21 1/1/1
f 17/16/17 1/1/1 18/17/18
f 18/17/18 1/1/1 40/16/40
f 18/17/18 40/16/40 16/15/16
f 16/15/16 40/16/40 41/31/41
f 16/15/16 41/31/41 51/35/51
f 51/35/51 41/31/41 42/32/42
f 51/35/51 42/32/42 50/31/50
f 50/31/50 42/32/42 43/4/43
f 50/31/50 43/4/43 49/21/49
f 49/21/49 43/4/43 15/5/15
f 49/21/49 15/5/15 47/33/47
f 47/33/47 15/5/15 14/14/14
f 47/33/47 14/14/14 10/10/10
f 10/10/10 14/14/14 13/13/13
f 10/10/10 13/13/13 19/18/19
f 19/18/19 13/13/13 38/30/38
f 19/18/19 38/30/38 20/19/20
f 20/19/20 38/30/38 39/18/39
f 20/19/20 39/18/39 28/11/28
f 28/11/28 39/18/39 32/10/32
f 28/11/28 32/10/32 26/12/26
f 26/12/26 32/10/32 33/27/33
f 26/12/26 33/27/33 35/29/35
f 35/29/35 33/27/33 34/28/34
f 35/29/35 34/28/34 36/7/36
o editpl_m-0000-120
v 5.979191 55.132401 5.561558
v 6.515612 52.886360 4.377214
v 6.959920 55.174175 0.347454
v -7.824153 56.199192 -1.170151
v -7.163109 53.779636 -2.317882
v -8.590855 55.559761 -2.843925
v -1.221847 56.359852 9.755707
v -0.850687 55.055286 9.140745
v 0.000000 55.154896 9.336516
v -6.959920 55.174175 0.347454
v -7.390682 58.499855 -1.933811
v -7.163109 53.779636 -2.317882
v 4.369930 56.739010 8.767882
v 4.150485 55.321983 8.081933
v 5.280219 56.311653 7.757639
v -2.346162 55.321983 8.451807
v -2.332616 54.406216 8.381569
v -1.387107 54.521893 8.364382
v 7.182074 50.257950 -1.247862
v 8.436430 53.165913 -3.065850
v 6.621270 50.248310 0.347454
v 6.959920 55.174175 0.347454
v 7.824153 56.199192 -1.170151
v 8.590855 55.559761 -2.843925
v 4.394313 57.988953 8.040089
v 6.959920 55.174175 0.347454
v 7.824153 56.199192 -1.170151
v 7.163109 53.779636 -2.317882
v 8.590855 55.559761 -2.843925
v 3.717014 62.619202 6.400686
v 4.871131 59.512020 7.470707
v 6.193218 61.047935 3.615795
v 6.466846 58.175320 3.896751
v 7.390682 58.499855 -1.933811
v 8.436430 53.165913 -3.065850
v 7.182074 50.257950 -1.247862
v 6.621270 50.248310 0.347454
v 5.765165 53.410118 6.512023
v 4.987626 54.788589 7.306318
v 4.180287 54.492973 7.972092
v 0.000000 59.762650 9.333527
v -2.151100 58.011448 9.225927
v 2.151100 58.011448 9.225927
v -3.153502 54.949249 8.518311
v -4.180287 54.492973 7.972092
v -2.446402 56.446609 9.468027
v -4.394313 57.988953 8.040089
v -4.369930 56.739010 8.767882
v -6.621270 50.248310 0.347454
v -8.436430 53.165913 -3.065850
v -7.182074 50.257950 -1.247862
v -8.590855 55.559761 -2.843925
v -7.824153 56.199192 -1.170151
v -6.959920 55.174175 0.347454
v -1.200173 51.626781 10.520114
v 0.000000 51.642845 11.195601
v 0.000000 52.333691 11.023740
v 1.200173 51.626781 10.520114
v 0.891325 53.249454 9.823704
v 2.164646 51.151226 9.069759
v -6.959920 55.174175 0.347454
v -2.717322 59.820488 8.927039
v -2.151100 58.011448 9.225927
v -1.221847 56.359852 9.755707
v 1.221847 56.359852 9.755707
v 2.446402 56.446609 9.468027
v -6.193218 61.047935 3.615795
v -6.466846 58.175320 3.896751
v -6.621270 50.248310 0.347454
v -7.182074 50.257950 -1.247862
v -8.436430 53.165913 -3.065850
v 0.000000 53.747505 9.843132
v -0.891325 53.249454 9.823704
v -2.164646 51.151226 9.069759
v 1.387107 54.521893 8.364382
v 1.777231 52.896004 8.892667
v 2.332616 54.406216 8.381569
v 3.153502 52.709637 8.231378
v 4.968662 52.439724 7.576812
v 5.935844 52.314411 6.156346
v 2.717322 59.820488 8.927039
v 0.000000 62.905178 7.103820
v -4.871131 59.512020 7.470707
v 3.153502 54.949249 8.518311
v 2.346162 55.321983 8.451807
v 0.850687 55.055286 9.140745
v -1.777231 52.896004 8.892667
v -3.153502 52.709637 8.231378
v -4.386185 50.653175 7.304824
v -4.968662 52.439724 7.576812
v -5.239581 50.604977 6.308032
v -5.935844 52.314411 6.450004
v -6.076722 50.392906 3.392377
v -5.979191 55.132401 5.561558
v -5.280219 56.311653 7.757639
v -4.987626 54.788589 7.306318
v -4.150485 55.321983 8.081933
v 4.386185 50.653175 7.304824
v 5.239581 50.604977 6.013627
v 6.076722 50.392906 3.392377
v 6.621270 50.248310 0.347454
v -3.717014 62.619202 6.400686
v -5.765165 53.410118 6.805680
v -6.515612 52.886360 4.377214
v -6.621270 50.248310 0.347454
v 7.163109 53.779636 -2.317882
vn 0.9463 -0.0000 0.3233
vn 0.9740 -0.0550 0.2199
vn 0.9824 0.0471 0.1807
vn 0.8267 0.4094 -0.3858
vn 0.5122 0.0079 -0.8588
vn 0.6279 0.2904 -0.7221
vn -0.1254 -0.1568 0.9796
vn -0.4394 -0.2981 0.8474
vn -0.0000 -0.1173 0.9931
vn -0.9824 0.0471 0.1807
vn -0.9899 0.0079 0.1414
vn 0.5121 0.0079 -0.8589
vn 0.5510 -0.0157 0.8344
vn 0.4472 -0.2354 0.8629
vn 0.8132 -0.0625 0.5786
vn -0.1891 -0.2916 0.9377
vn -0.1259 -0.0315 0.9915
vn -0.4811 0.0473 0.8754
vn -0.5275 -0.4803 -0.7008
vn 0.9119 -0.1179 0.3931
vn 0.9636 -0.2663 0.0235
vn 0.9824 0.0472 0.1808
vn 0.8948 -0.0785 0.4395
vn 0.8920 -0.0947 0.4420
vn 0.6425 0.2115 0.7365
vn -0.8267 0.4094 -0.3858
vn -0.5122 0.0079 -0.8588
vn -0.6279 0.2904 -0.7221
vn 0.5263 0.5264 0.6677
vn 0.7856 0.2121 0.5813
vn 0.9166 0.2272 0.3290
vn 0.9555 0.0548 0.2898
vn 0.9899 0.0079 0.1414
vn -0.5261 -0.0628 -0.8481
vn -0.5275 -0.4803 -0.7007
vn 0.9636 -0.2664 0.0235
vn 0.8431 0.0473 0.5357
vn 0.7291 -0.1176 0.6742
vn 0.4795 -0.0943 0.8725
vn -0.0000 0.2758 0.9612
vn -0.2201 0.1258 0.9673
vn 0.2202 0.1258 0.9673
vn -0.1883 -0.0471 0.9810
vn -0.4550 -0.0863 0.8863
vn -0.3302 -0.2123 0.9197
vn -0.6425 0.2115 0.7365
vn -0.5510 -0.0157 0.8344
vn -0.9636 -0.2664 0.0235
vn -0.9119 -0.1179 0.3931
vn 0.5276 -0.4803 -0.7007
vn -0.8920 -0.0947 0.4420
vn -0.8948 -0.0785 0.4395
vn -0.9824 0.0472 0.1808
vn -0.6278 -0.1962 0.7533
vn -0.0000 -0.1733 0.9849
vn -0.0000 0.4722 0.8815
vn 0.6278 -0.1962 0.7533
vn 0.6451 0.3698 0.6687
vn 0.6423 0.1488 0.7519
vn -0.3545 0.3309 0.8745
vn -0.2202 0.1258 0.9673
vn -0.1254 -0.1567 0.9797
vn 0.1254 -0.1567 0.9796
vn 0.3302 -0.2123 0.9197
vn -0.9166 0.2272 0.3290
vn -0.9555 0.0548 0.2898
vn 0.5275 -0.4803 -0.7007
vn 0.5261 -0.0628 -0.8481
vn -0.0000 0.4970 0.8678
vn -0.6451 0.3697 0.6687
vn -0.6423 0.1488 0.7519
vn 0.4811 0.0473 0.8754
vn 0.5027 0.2592 0.8247
vn 0.1259 -0.0315 0.9915
vn 0.3996 0.0078 0.9167
vn 0.6536 -0.1575 0.7402
vn 0.8937 -0.2038 0.3998
vn 0.3545 0.3309 0.8745
vn -0.0000 0.6063 0.7952
vn -0.7856 0.2121 0.5813
vn 0.1883 -0.0471 0.9810
vn 0.1891 -0.2916 0.9377
vn 0.4394 -0.2981 0.8474
vn -0.5027 0.2592 0.8247
vn -0.3996 0.0078 0.9167
vn -0.6748 -0.1099 0.7298
vn -0.5917 -0.1657 0.7889
vn -0.8183 -0.2912 0.4957
vn -0.8817 -0.2047 0.4251
vn -0.9487 -0.2196 0.2274
vn -0.9468 0.0235 0.3208
vn -0.8132 -0.0625 0.5786
vn -0.7248 -0.0709 0.6853
vn -0.4472 -0.2354 0.8629
vn 0.7086 -0.1339 0.6928
vn 0.8358 -0.2918 0.4652
vn 0.9444 -0.2204 0.2440
vn -0.5264 0.5263 0.6678
vn -0.8196 0.0788 0.5674
vn -0.9795 -0.0470 0.1959
vn -0.9636 -0.2663 0.0235
vn -0.5121 0.0079 -0.8589
vt 0.878418 0.394501
vt 0.922028 0.508514
vt 0.988434 0.387054
vt 0.097046 0.367096
vt 0.100464 0.403442
vt 0.091095 0.383026
vt 0.566681 0.343658
vt 0.543457 0.420044
vt 0.501648 0.403351
vt 0.988373 0.233551
vt 0.988373 0.504211
vt 0.756897 0.311127
vt 0.738525 0.374390
vt 0.819611 0.337677
vt 0.641937 0.379425
vt 0.641266 0.433044
vt 0.581421 0.431458
vt 0.094025 0.636536
vt 0.017822 0.545349
vt 0.126801 0.620270
vt 0.126801 0.420105
vt 0.030029 0.315857
vt 0.012024 0.385742
vt 0.780334 0.231445
vt 0.116028 0.380188
vt 0.746429 0.012329
vt 0.806366 0.112671
vt 0.917053 0.085846
vt 0.932831 0.257263
vt 0.092346 0.416870
vt 0.110626 0.436218
vt 0.116028 0.432770
vt 0.834320 0.470886
vt 0.783905 0.404541
vt 0.736481 0.427490
vt 0.501648 0.109741
vt 0.377808 0.230347
vt 0.624664 0.230347
vt 0.688141 0.403198
vt 0.676575 0.324371
vt 0.570496 0.593567
vt 0.501648 0.596954
vt 0.501648 0.554626
vt 0.553528 0.515137
vt 0.619110 0.607178
vt 0.671112 0.116516
vt 0.436646 0.343658
vt 0.501648 0.472809
vt 0.610443 0.531586
vt 0.684265 0.543243
vt 0.790283 0.543182
vt 0.863068 0.537109
vt 0.501648 0.012329
vt 0.753998 0.641174
vt 0.840393 0.663147
vt 0.928741 0.673737
vt 0.988373 0.683441
s 1
usemtl m_face074
f 61/37/61 62/38/62 63/39/63
f 64/40/64 65/41/65 66/42/66
f 67/43/67 68/44/68 69/45/69
f 70/39/70 71/46/71 72/47/72
f 73/48/73 74/49/74 75/50/75
f 76/51/76 77/52/77 78/53/78
f 79/54/79 80/55/80 81/56/81
f 82/57/82 81/56/81 83/58/83
f 83/58/83 81/56/81 80/55/80
f 83/58/83 80/55/80 84/59/84
f 75/50/75 85/60/85 73/48/73
f 86/61/82 87/40/86 88/41/87
f 88/41/87 87/40/86 89/42/88
f 90/62/89 91/63/90 92/64/91
f 92/64/91 91/63/90 93/65/92
f 92/64/91 93/65/92 94/46/93
f 89/42/88 95/66/94 88/41/87
f 88/41/87 95/66/94 96/67/95
f 88/41/87 96/67/95 97/68/96
f 62/38/62 61/37/61 98/69/97
f 98/69/97 61/37/61 99/70/98
f 98/69/97 99/70/98 100/71/99
f 101/72/100 102/73/101 103/74/102
f 77/52/77 104/75/103 105/71/104
f 106/76/105 107/60/106 108/48/107
f 109/56/108 110/55/109 111/54/110
f 112/59/111 110/55/109 113/58/112
f 113/58/112 110/55/109 109/56/108
f 113/58/112 109/56/108 114/57/113
f 115/77/114 116/78/115 117/79/116
f 117/79/116 116/78/115 118/77/117
f 117/79/116 118/77/117 119/80/118
f 119/80/118 118/77/117 120/81/119
f 65/41/65 64/40/64 121/61/113
f 122/82/120 123/74/121 101/72/100
f 102/73/101 124/83/122 103/74/102
f 103/74/102 124/83/122 125/43/123
f 103/74/102 125/43/123 126/76/124
f 127/64/125 71/46/71 128/65/126
f 129/68/108 130/67/127 65/41/65
f 65/41/65 130/67/127 131/66/128
f 65/41/65 131/66/128 66/42/66
f 119/80/118 132/84/129 117/79/116
f 117/79/116 132/84/129 133/80/130
f 117/79/116 133/80/130 115/77/114
f 115/77/114 133/80/130 134/81/131
f 135/53/132 136/85/133 137/52/134
f 137/52/134 136/85/133 138/86/135
f 137/52/134 138/86/135 100/71/99
f 100/71/99 138/86/135 139/87/136
f 100/71/99 139/87/136 98/69/97
f 98/69/97 139/87/136 140/88/137
f 98/69/97 140/88/137 62/38/62
f 75/50/75 93/65/92 85/60/85
f 85/60/85 93/65/92 91/63/90
f 85/60/85 91/63/90 141/82/138
f 141/82/138 91/63/90 90/62/89
f 141/82/138 90/62/89 142/89/139
f 68/44/68 67/43/67 106/76/105
f 106/76/105 67/43/67 123/74/121
f 106/76/105 123/74/121 107/60/106
f 107/60/106 123/74/121 122/82/120
f 107/60/106 122/82/120 143/63/140
f 144/75/141 74/49/74 145/51/142
f 145/51/142 74/49/74 126/76/124
f 145/51/142 126/76/124 146/44/143
f 146/44/143 126/76/124 125/43/123
f 146/44/143 125/43/123 69/45/69
f 69/45/69 125/43/123 124/83/122
f 133/80/130 147/85/144 134/81/131
f 134/81/131 147/85/144 148/86/145
f 134/81/131 148/86/145 149/90/146
f 149/90/146 148/86/145 150/87/147
f 149/90/146 150/87/147 151/91/148
f 151/91/148 150/87/147 152/88/149
f 151/91/148 152/88/149 153/92/150
f 71/46/71 70/39/70 128/65/126
f 128/65/126 70/39/70 154/37/151
f 128/65/126 154/37/151 155/50/152
f 155/50/152 154/37/151 156/70/153
f 155/50/152 156/70/153 157/49/154
f 135/53/132 119/80/118 136/85/133
f 136/85/133 119/80/118 120/81/119
f 136/85/133 120/81/119 138/86/135
f 138/86/135 120/81/119 158/90/155
f 138/86/135 158/90/155 139/87/136
f 139/87/136 158/90/155 159/91/156
f 139/87/136 159/91/156 140/88/137
f 140/88/137 159/91/156 160/92/157
f 140/88/137 160/92/157 62/38/62
f 62/38/62 160/92/157 161/93/81
f 62/38/62 161/93/81 63/39/63
f 74/49/74 73/48/73 126/76/124
f 126/76/124 73/48/73 85/60/85
f 126/76/124 85/60/85 103/74/102
f 103/74/102 85/60/85 141/82/138
f 103/74/102 141/82/138 101/72/100
f 101/72/100 141/82/138 142/89/139
f 101/72/100 142/89/139 122/82/120
f 122/82/120 142/89/139 162/62/158
f 122/82/120 162/62/158 143/63/140
f 162/62/158 127/64/125 143/63/140
f 143/63/140 127/64/125 128/65/126
f 143/63/140 128/65/126 107/60/106
f 107/60/106 128/65/126 155/50/152
f 107/60/106 155/50/152 108/48/107
f 108/48/107 155/50/152 157/49/154
f 108/48/107 157/49/154 106/76/105
f 106/76/105 157/49/154 76/51/76
f 106/76/105 76/51/76 68/44/68
f 68/44/68 76/51/76 78/53/78
f 77/52/77 76/51/76 104/75/103
f 104/75/103 76/51/76 157/49/154
f 104/75/103 157/49/154 105/71/104
f 105/71/104 157/49/154 156/70/153
f 105/71/104 156/70/153 163/69/159
f 163/69/159 156/70/153 154/37/151
f 163/69/159 154/37/151 164/38/160
f 164/38/160 154/37/151 70/39/70
f 164/38/160 70/39/70 165/93/161
f 165/93/161 153/92/150 164/38/160
f 164/38/160 153/92/150 152/88/149
f 164/38/160 152/88/149 163/69/159
f 163/69/159 152/88/149 150/87/147
f 163/69/159 150/87/147 105/71/104
f 105/71/104 150/87/147 148/86/145
f 105/71/104 148/86/145 77/52/77
f 77/52/77 148/86/145 147/85/144
f 77/52/77 147/85/144 78/53/78
f 78/53/78 147/85/144 133/80/130
f 78/53/78 133/80/130 68/44/68
f 68/44/68 133/80/130 132/84/129
f 68/44/68 132/84/129 69/45/69
f 69/45/69 132/84/129 119/80/118
f 69/45/69 119/80/118 146/44/143
f 146/44/143 119/80/118 135/53/132
f 146/44/143 135/53/132 145/51/142
f 145/51/142 135/53/132 137/52/134
f 145/51/142 137/52/134 144/75/141
f 144/75/141 137/52/134 100/71/99
f 144/75/141 100/71/99 74/49/74
f 74/49/74 100/71/99 99/70/98
f 74/49/74 99/70/98 75/50/75
f 75/50/75 99/70/98 61/37/61
f 75/50/75 61/37/61 93/65/92
f 93/65/92 61/37/61 63/39/63
f 93/65/92 63/39/63 94/46/93
f 94/46/93 63/39/63 166/47/162
