mtllib cookware5.mtl
o npc_03-0001-54
v -53.916103 18.317543 -25.464876
v -47.888500 21.208559 -35.593559
v -53.916103 18.317543 -36.079716
v -40.262966 18.324554 59.480675
v -42.546738 20.183397 59.480675
v -42.235634 16.486729 59.480675
v -44.293152 18.324554 59.480675
v -29.809231 18.317543 -25.464876
v -35.836830 15.428864 -35.593559
v -29.809231 18.317543 -36.079716
v -41.864433 21.885775 -35.384785
v -41.864433 21.885775 -25.464876
v -35.836830 21.208559 -35.593559
v -29.809231 18.317543 -36.079716
v -45.703716 21.773682 -49.712875
v -45.703716 14.861402 -49.712875
v -46.619347 21.773682 -47.383518
v -46.619347 14.861402 -47.383518
v -41.864433 14.749311 -35.384785
v -41.864433 14.749312 -25.464876
v -47.888500 15.428864 -35.593559
v -53.916103 18.317543 -36.079716
v -41.867970 23.847366 -47.383518
v -37.120129 21.773682 -47.383518
v -41.970490 23.847366 -49.712875
v -38.233730 21.773682 -49.712875
v -47.930923 21.666262 -41.731617
v -47.930923 14.968822 -41.731617
v -48.259701 22.385511 -47.383518
v -48.259701 14.251906 -47.383518
v -49.885918 21.633568 -49.712875
v -49.885918 15.003850 -49.712875
v -41.970490 12.787716 -49.712875
v -38.233730 14.861402 -49.712875
v -41.867970 12.787716 -47.383518
v -37.120129 14.861402 -47.383518
v -35.794411 14.968822 -41.731617
v -53.916103 18.317543 -36.079716
v -56.514511 18.317541 -41.731617
v -47.888500 15.428864 -35.593559
v -27.214357 18.317541 -41.731617
v -35.836830 21.208559 -35.593559
v -29.809231 18.317543 -36.079716
v -41.864433 21.885775 -35.384785
v -35.794411 21.666262 -41.731617
v -47.888500 21.208559 -35.593559
v -56.514511 18.317541 -41.731617
v -53.916103 18.317543 -36.079716
v -41.906857 16.865034 15.664267
v -41.864433 16.239187 -22.574802
v -40.453869 18.322218 15.664267
v -39.785706 18.317543 -22.574802
v -41.945744 19.828442 15.664266
v -41.864433 20.395899 -22.574802
v -43.547215 18.322218 15.664267
v -43.943161 18.317543 -22.574802
v -42.546738 20.183397 59.480675
v -44.293152 18.324554 59.480675
v -42.235634 16.486729 59.480675
v -40.262966 18.324554 59.480675
v -39.785706 18.317543 -22.574802
v -41.864433 16.239187 -22.574802
v -43.943161 18.317543 -22.574802
v -41.864433 20.395899 -22.574802
v -41.864433 14.749311 -35.384785
v -56.532188 18.317541 -47.383518
v -55.199398 18.317541 -49.712875
v -34.051533 21.633568 -49.712875
v -34.055065 15.003850 -49.712875
v -35.472702 22.385511 -47.383518
v -35.472702 14.251906 -47.383518
v -27.200216 18.317541 -47.383518
v -28.741585 18.317541 -49.712875
v -27.214357 18.317541 -41.731617
v -35.836830 15.428864 -35.593559
v -29.809231 18.317543 -36.079716
vn -0.7526 -0.0000 0.6585
vn -0.2917 0.9539 0.0710
vn -0.4326 0.8966 0.0944
vn 0.8084 0.0078 0.5886
vn -0.0157 0.5886 0.8083
vn 0.0079 -0.5975 0.8019
vn -0.8146 -0.0236 0.5796
vn 0.7526 -0.0000 0.6585
vn 0.2917 -0.9539 0.0709
vn 0.4326 -0.8966 0.0944
vn -0.0000 0.9969 0.0785
vn -0.0000 0.9439 0.3303
vn 0.2917 0.9539 0.0709
vn 0.4326 0.8966 0.0944
vn -0.6293 0.4091 -0.6608
vn -0.6293 -0.4091 -0.6608
vn -0.8165 0.5339 -0.2199
vn -0.8165 -0.5339 -0.2198
vn -0.0000 -0.9969 0.0785
vn -0.0000 -0.9439 0.3304
vn -0.2917 -0.9539 0.0709
vn -0.4326 -0.8966 0.0944
vn -0.0000 1.0000 -0.0000
vn 0.8078 0.5333 -0.2510
vn -0.0000 0.6286 -0.7778
vn 0.5985 0.4017 -0.6931
vn -0.2830 0.9590 0.0157
vn -0.2830 -0.9590 0.0157
vn 0.2040 0.9650 -0.1648
vn 0.2040 -0.9650 -0.1647
vn -0.0473 0.6782 -0.7334
vn -0.0473 -0.6782 -0.7334
vn -0.0000 -0.6285 -0.7778
vn 0.5986 -0.4017 -0.6931
vn -0.0000 -1.0000 -0.0000
vn 0.8078 -0.5333 -0.2510
vn 0.2830 -0.9590 0.0157
vn -0.4004 -0.9107 0.1021
vn -0.2917 -0.9539 0.0710
vn 0.4004 0.9106 0.1020
vn 0.2917 0.9539 0.0710
vn 0.2829 0.9590 0.0157
vn -0.4004 0.9107 0.1021
vn 0.0158 -0.9999 -0.0000
vn -0.0000 -0.9702 0.2425
vn 0.9999 0.0079 0.0079
vn 0.8308 -0.0000 0.5565
vn -0.0079 1.0000 -0.0000
vn -0.0000 0.9697 0.2443
vn -0.9999 -0.0158 -0.0000
vn -0.8308 -0.0000 0.5565
vn -0.8146 -0.0235 0.5796
vn 0.0078 -0.5974 0.8019
vn -0.0000 -0.9701 0.2426
vn -0.0000 0.9697 0.2445
vn -0.9821 -0.0000 -0.1886
vn -0.5420 -0.0000 -0.8404
vn 0.0315 0.6704 -0.7414
vn 0.0315 -0.6704 -0.7413
vn -0.2118 0.9647 -0.1568
vn -0.2118 -0.9647 -0.1568
vn 0.9701 -0.0000 -0.2425
vn 0.5180 -0.0000 -0.8554
vn 0.4004 -0.9106 0.1020
vn 0.2917 -0.9539 0.0710
vt 0.161713 0.438080
vt 0.136719 0.497223
vt 0.161713 0.497223
vt 0.106781 0.054810
vt 0.106781 0.010590
vt 0.065460 0.054810
vt 0.065460 0.010590
vt 0.055023 0.438080
vt 0.083801 0.497223
vt 0.055023 0.497223
vt 0.110260 0.497223
vt 0.110260 0.438080
vt 0.834259 0.513977
vt 0.846313 0.522034
vt 0.786407 0.522034
vt 0.786407 0.513977
vt 0.861969 0.547424
vt 0.865875 0.527893
vt 0.883850 0.517181
vt 0.861908 0.547424
vt 0.919830 0.566956
vt 0.950684 0.547424
vt 0.861481 0.566956
vt 0.861420 0.566956
vt 0.919769 0.566956
vt 0.786407 0.566956
vt 0.125214 0.303986
vt 0.125214 0.068207
vt 0.089661 0.304016
vt 0.089661 0.068207
vt 0.055145 0.303986
vt 0.055145 0.068207
vt 0.089661 0.303955
vt 0.101135 0.421967
vt 0.110260 0.421967
vt 0.119385 0.421967
vt 0.950684 0.527893
vt 0.933746 0.517181
vt 0.865723 0.527893
s 1
usemtl npc03_05
f 1/1/1 2/2/2 3/3/3
f 4/4/4 5/5/5 6/6/6
f 6/6/6 5/5/5 7/7/7
f 8/8/8 9/9/9 10/10/10
f 11/11/11 12/12/12 13/9/13
f 13/9/13 12/12/12 8/8/8
f 13/9/13 8/8/8 14/10/14
f 15/13/15 16/13/16 17/14/17
f 17/14/17 16/13/16 18/14/18
f 19/11/19 20/12/20 21/2/21
f 21/2/21 20/12/20 1/1/1
f 21/2/21 1/1/1 22/3/22
f 23/15/23 24/14/24 25/16/25
f 25/16/25 24/14/24 26/13/26
f 27/17/27 28/17/28 29/18/29
f 29/18/29 28/17/28 30/18/30
f 29/18/29 30/18/30 31/19/31
f 31/19/31 30/18/30 32/19/32
f 33/16/33 34/13/34 35/15/35
f 35/15/35 34/13/34 36/14/36
f 35/15/35 36/14/36 37/20/37
f 38/21/22 39/22/38 40/23/39
f 41/22/40 42/24/41 43/25/14
f 27/17/27 44/26/11 23/15/23
f 23/15/23 44/26/11 45/20/42
f 23/15/23 45/20/42 24/14/24
f 46/23/2 47/22/43 48/21/3
f 49/27/44 50/28/45 51/29/46
f 51/29/46 50/28/45 52/30/47
f 51/29/46 52/30/47 53/31/48
f 53/31/48 52/30/47 54/32/49
f 53/31/48 54/32/49 55/33/50
f 55/33/50 54/32/49 56/30/51
f 55/33/50 56/30/51 49/27/44
f 49/27/44 56/30/51 50/28/45
f 57/32/5 53/31/48 58/30/52
f 58/30/52 53/31/48 55/33/50
f 58/30/52 55/33/50 59/28/53
f 59/28/53 55/33/50 49/27/44
f 59/28/53 49/27/44 60/30/4
f 60/30/4 49/27/44 51/29/46
f 60/30/4 51/29/46 57/32/5
f 57/32/5 51/29/46 53/31/48
f 61/34/47 62/35/54 20/12/20
f 20/12/20 62/35/54 63/36/51
f 20/12/20 63/36/51 1/1/1
f 1/1/1 63/36/51 12/12/12
f 1/1/1 12/12/12 2/2/2
f 2/2/2 12/12/12 11/11/11
f 63/36/51 64/35/55 12/12/12
f 12/12/12 64/35/55 61/34/47
f 12/12/12 61/34/47 8/8/8
f 8/8/8 61/34/47 20/12/20
f 8/8/8 20/12/20 9/9/9
f 9/9/9 20/12/20 19/11/19
f 65/26/19 40/23/39 28/17/28
f 28/17/28 40/23/39 39/22/38
f 28/17/28 39/22/38 30/18/30
f 30/18/30 39/22/38 66/37/56
f 30/18/30 66/37/56 32/19/32
f 32/19/32 66/37/56 67/38/57
f 32/19/32 67/38/57 31/19/31
f 31/19/31 67/38/57 66/37/56
f 31/19/31 66/37/56 29/18/29
f 29/18/29 66/37/56 47/22/43
f 29/18/29 47/22/43 27/17/27
f 27/17/27 47/22/43 46/23/2
f 27/17/27 46/23/2 44/26/11
f 68/19/58 69/19/59 70/39/60
f 70/39/60 69/19/59 71/39/61
f 70/39/60 71/39/61 45/20/42
f 45/20/42 71/39/61 37/20/37
f 45/20/42 37/20/37 24/14/24
f 24/14/24 37/20/37 36/14/36
f 24/14/24 36/14/36 26/13/26
f 26/13/26 36/14/36 34/13/34
f 26/13/26 34/13/34 25/16/25
f 25/16/25 34/13/34 33/16/33
f 44/26/11 42/24/41 45/20/42
f 45/20/42 42/24/41 41/22/40
f 45/20/42 41/22/40 70/39/60
f 70/39/60 41/22/40 72/37/62
f 70/39/60 72/37/62 68/19/58
f 68/19/58 72/37/62 73/38/63
f 68/19/58 73/38/63 69/19/59
f 69/19/59 73/38/63 72/37/62
f 69/19/59 72/37/62 71/39/61
f 71/39/61 72/37/62 74/22/64
f 71/39/61 74/22/64 37/20/37
f 35/15/35 18/14/18 33/16/33
f 33/16/33 18/14/18 16/13/16
f 33/16/33 16/13/16 25/16/25
f 25/16/25 16/13/16 15/13/15
f 25/16/25 15/13/15 23/15/23
f 23/15/23 15/13/15 17/14/17
f 23/15/23 17/14/17 27/17/27
f 27/17/27 17/14/17 18/14/18
f 27/17/27 18/14/18 28/17/28
f 28/17/28 18/14/18 35/15/35
f 28/17/28 35/15/35 65/26/19
f 65/26/19 35/15/35 37/20/37
f 65/26/19 37/20/37 75/24/65
f 75/24/65 37/20/37 74/22/64
f 75/24/65 74/22/64 76/25/10
