mtllib cookware1.mtl
o npc_03-0001-37
v -42.783600 16.661869 16.997459
v -42.783600 18.581429 16.997459
v -49.960155 16.661871 37.970638
v -49.960155 18.581430 37.970638
v -39.658440 16.661867 7.864941
v -39.658440 18.581427 7.864941
v -43.373985 17.222324 17.060093
v -39.658440 16.661867 7.864941
v -41.984631 17.621647 7.068604
v -39.658440 18.581427 7.864941
v -43.373985 17.222324 17.060093
v -45.275951 17.621649 16.409901
v -41.984631 17.621647 7.068604
v -45.275951 17.621649 16.409901
v -43.373985 18.020973 17.060093
v -49.960155 18.581430 37.970638
v -60.194706 17.621649 34.469147
v -49.960155 16.661871 37.970638
v -53.018150 17.621649 13.495965
v -49.960155 16.661871 37.970638
v -60.194706 17.621649 34.469147
v -42.783600 16.661869 16.997459
v -53.018150 17.621649 13.495965
vn 0.4632 -0.8400 -0.2827
vn 0.7139 0.6903 -0.1177
vn 0.6225 -0.4176 0.6619
vn 0.3227 0.5903 0.7399
vn 0.3290 -0.8852 -0.3290
vn 0.6437 0.7536 -0.1334
vn 0.8084 -0.4709 0.3532
vn 0.3290 -0.8851 -0.3290
vn -0.2902 -0.0000 -0.9570
vn 0.6437 0.7535 -0.1335
vn 0.8084 -0.4709 0.3531
vn -0.2678 -0.9609 -0.0709
vn -0.2903 -0.0000 -0.9569
vn -0.2678 0.9609 -0.0709
vn 0.5743 0.7710 0.2753
vn 0.3227 0.5903 0.7398
vn -0.6199 -0.0000 0.7847
vn 0.6224 -0.4177 0.6619
vn 0.1491 -0.0000 -0.9888
vn 0.6225 -0.4177 0.6618
vn -0.6199 -0.0000 0.7846
vn 0.4632 -0.8400 -0.2826
vt 0.246094 0.807831
vt 0.230469 0.807831
vt 0.246094 0.989990
vt 0.230469 0.989990
vt 0.125000 0.760773
vt 0.125000 0.752930
vt 0.226562 0.760773
vt 0.144501 0.756836
vt 0.226562 0.752930
vt 0.226562 0.799988
vt 0.125000 0.799988
vt 0.236328 0.753876
vt 0.125000 0.989990
vt 0.125000 0.807831
s 1
usemtl npc03_05
f 1/1/1 2/2/2 3/3/3
f 2/2/2 4/4/4 3/3/3
f 5/5/5 6/6/6 7/7/7
f 8/6/8 9/8/9 10/5/10
f 11/9/11 12/10/12 8/6/5
f 8/6/5 12/10/12 13/11/9
f 13/11/13 14/10/14 6/6/6
f 6/6/6 14/10/14 15/9/15
f 6/6/6 15/9/15 7/7/7
f 16/2/16 17/12/17 18/1/18
f 2/2/2 1/1/1 19/12/19
f 20/4/20 21/13/21 22/2/22
f 4/4/4 2/2/2 21/13/21
f 21/13/21 2/2/2 23/14/19
f 21/13/21 23/14/19 22/2/22
