mtllib cookware3.mtl
o npc_03-0001-39
v -47.888500 15.179001 59.543308
v -42.104832 12.414087 59.725243
v -42.104832 13.906300 64.401855
v -42.235634 20.388897 50.154289
v -43.511860 21.266945 50.097622
v -42.235634 17.091549 -0.381765
v -43.511860 17.969597 -0.438433
v -46.926910 16.325600 64.246765
v -42.104832 17.983612 67.891418
v -44.317898 19.279665 67.807907
v -42.104832 22.453243 68.303009
v -45.233528 22.408875 67.602112
v -44.317898 25.538082 67.399300
v -49.136444 22.163675 63.865002
v -46.926910 28.004086 63.483231
v -50.281864 21.853088 59.107861
v -42.104832 13.285128 54.890556
v -46.926910 15.704427 54.732479
v -42.104832 16.874376 50.899925
v -44.317898 18.170429 50.816414
v -42.104832 21.255268 49.912704
v -47.888500 28.529510 58.672405
v -46.926910 27.382914 53.971931
v -49.136444 21.544836 54.350716
v -44.317898 24.428846 50.407806
v -45.233528 21.299639 50.613602
v -42.104832 26.834135 67.315788
v -42.104832 30.423384 63.325157
v -42.235634 22.144991 50.040955
v -42.235634 18.847643 -0.495102
v -42.235634 22.144991 50.040955
v -42.235634 20.388897 50.154289
v -42.104832 31.292088 58.493454
v -42.104832 29.802212 53.813858
v -42.104832 25.724899 50.324291
vn -0.6495 -0.7589 0.0470
vn -0.4308 -0.9008 0.0548
vn -0.4080 -0.8003 0.4394
vn -0.5649 -0.8238 0.0471
vn -1.0000 -0.0000 -0.0000
vn 0.3140 -0.6515 -0.6907
vn -0.7520 -0.0392 -0.6580
vn -0.6606 -0.5269 0.5348
vn -0.2746 -0.4394 0.8553
vn -0.4330 -0.2205 0.8740
vn -0.1488 0.0627 0.9869
vn -0.4715 0.0550 0.8801
vn -0.4316 0.3296 0.8397
vn -0.8181 0.0315 0.5742
vn -0.6607 0.5900 0.4641
vn -1.0000 -0.0001 -0.0000
vn -0.4094 -0.8503 -0.3307
vn -0.6607 -0.5900 -0.4641
vn -0.2756 -0.5512 -0.7875
vn -0.4316 -0.3296 -0.8397
vn -0.1488 -0.0627 -0.9869
vn -0.6494 0.7590 -0.0469
vn -0.6606 0.5269 -0.5348
vn -0.8181 -0.0315 -0.5742
vn -0.4331 0.2205 -0.8740
vn -0.4715 -0.0550 -0.8801
vn -0.2756 0.5512 0.7875
vn -0.4094 0.8503 0.3307
vn -0.5649 0.8238 -0.0471
vn 0.3152 0.5516 -0.7722
vn 1.0000 -0.0000 -0.0000
vn -0.4308 0.9008 -0.0548
vn -0.4080 0.8003 -0.4394
vn -0.2746 0.4394 -0.8553
vt 0.308594 0.874481
vt 0.257812 0.874481
vt 0.265625 0.937225
vt 0.078125 0.756836
vt 0.093750 0.756836
vt 0.078125 0.989990
vt 0.093750 0.989990
vt 0.312500 0.937225
vt 0.296875 0.988220
vt 0.328125 0.980377
vt 0.375000 0.989990
vt 0.375000 0.980377
vt 0.421875 0.980377
vt 0.375000 0.937225
vt 0.437500 0.937225
vt 0.375000 0.874481
vt 0.265625 0.815674
vt 0.312500 0.815674
vt 0.296875 0.764679
vt 0.332001 0.772522
vt 0.375000 0.760773
vt 0.441376 0.874481
vt 0.437500 0.815674
vt 0.375000 0.815674
vt 0.417969 0.772522
vt 0.375000 0.772522
vt 0.453125 0.988220
vt 0.484375 0.937225
vt 0.113251 0.756836
vt 0.113251 0.989990
vt 0.492188 0.874481
vt 0.484375 0.815674
vt 0.453125 0.764679
s 1
usemtl npc03_05
f 1/1/1 2/2/2 3/3/3
f 4/4/4 5/5/5 6/6/6
f 6/6/6 5/5/5 7/7/7
f 8/8/8 9/9/9 10/10/10
f 10/10/10 9/9/9 11/11/11
f 12/12/12 13/13/13 14/14/14
f 14/14/14 13/13/13 15/15/15
f 14/14/14 15/15/15 16/16/16
f 2/2/2 1/1/1 17/17/17
f 17/17/17 1/1/1 18/18/18
f 17/17/17 18/18/18 19/19/19
f 19/19/19 18/18/18 20/20/20
f 19/19/19 20/20/20 21/21/21
f 15/15/15 22/22/22 16/16/16
f 16/16/16 22/22/22 23/23/23
f 16/16/16 23/23/23 24/24/24
f 24/24/24 23/23/23 25/25/25
f 24/24/24 25/25/25 26/26/26
f 16/16/16 8/8/8 14/14/14
f 14/14/14 8/8/8 10/10/10
f 14/14/14 10/10/10 12/12/12
f 12/12/12 10/10/10 11/11/11
f 12/12/12 11/11/11 13/13/13
f 13/13/13 11/11/11 27/27/27
f 13/13/13 27/27/27 15/15/15
f 15/15/15 27/27/27 28/28/28
f 15/15/15 28/28/28 22/22/22
f 5/5/5 29/29/29 7/7/7
f 7/7/7 29/29/29 30/30/30
f 7/7/7 30/30/30 6/6/6
f 6/6/6 30/30/30 31/29/31
f 6/6/6 31/29/31 32/4/31
f 28/28/28 33/31/32 22/22/22
f 22/22/22 33/31/32 34/32/33
f 22/22/22 34/32/33 23/23/23
f 23/23/23 34/32/33 35/33/34
f 23/23/23 35/33/34 25/25/25
f 25/25/25 35/33/34 21/21/21
f 25/25/25 21/21/21 26/26/26
f 26/26/26 21/21/21 20/20/20
f 26/26/26 20/20/20 24/24/24
f 24/24/24 20/20/20 18/18/18
f 24/24/24 18/18/18 16/16/16
f 16/16/16 18/18/18 1/1/1
f 16/16/16 1/1/1 8/8/8
f 8/8/8 1/1/1 3/3/3
f 8/8/8 3/3/3 9/9/9
