mtllib cookware2.mtl
o npc_03-0001-38
v -44.646675 18.091026 -29.902887
v -43.430550 17.128912 -29.935696
v -42.811882 18.791599 20.698784
v -41.595757 17.831820 20.668959
v -38.788765 22.513952 -29.428665
v -40.627094 21.981520 -33.144901
v -38.983204 26.091524 -29.428665
v -41.634644 18.793930 -31.048182
v -40.662449 19.078829 -29.348135
v -43.603779 17.640326 -29.228834
v -47.489017 29.996029 -31.558193
v -45.275951 30.668575 -30.925898
v -46.810249 27.371229 -34.648102
v -43.851246 18.121384 -31.680477
v -44.770409 20.722830 -34.716698
v -41.090214 25.482029 -33.890537
v -40.825069 29.162352 -29.360067
v -48.779385 19.478153 -32.813839
v -50.412670 22.621372 -33.511753
v -45.827450 24.043528 -35.581631
v -42.663399 28.629921 -33.076305
v -50.819221 26.126553 -32.745243
v -49.645519 29.328154 -30.749928
v -47.542046 30.493433 -29.094622
v -44.303757 30.953474 -29.225853
v -46.007748 17.453508 -30.872211
v -42.967430 18.607113 -29.971485
v -41.129101 19.307686 20.630186
v -42.967430 18.607113 -29.971485
v -44.646675 18.091026 -29.902887
v -46.842068 17.182621 -29.097605
v -48.779385 19.478153 -32.813839
v -50.320751 18.973743 -28.963390
v -52.162617 22.044571 -28.894791
v -52.357056 25.619808 -28.894791
v -50.483376 29.054932 -28.975321
vn -0.6196 -0.7843 0.0315
vn 0.2902 -0.9570 -0.0000
vn -0.6437 0.1335 0.7535
vn 0.2442 -0.7089 0.6617
vn 0.8863 -0.2196 -0.4078
vn 0.6848 -0.3227 -0.6533
vn 0.8541 0.2664 -0.4467
vn 0.5334 -0.7687 -0.3530
vn 0.6548 -0.7178 -0.2367
vn 0.2820 -0.9478 -0.1488
vn -0.2755 0.8501 -0.4487
vn 0.0078 0.9414 -0.3373
vn -0.1809 0.4955 -0.8495
vn 0.2426 -0.8531 -0.4618
vn 0.1178 -0.5028 -0.8563
vn 0.6277 0.1962 -0.7533
vn 0.6036 0.6898 -0.3998
vn -0.4324 -0.6682 -0.6054
vn -0.6884 -0.2034 -0.6962
vn -0.0394 -0.0001 -0.9992
vn 0.3852 0.6603 -0.6446
vn -0.7383 0.3142 -0.5969
vn -0.5571 0.7689 -0.3138
vn -0.2898 0.9478 -0.1332
vn 0.1336 0.9663 -0.2200
vn -0.0314 -0.9434 -0.3302
vn 0.9538 -0.2994 -0.0237
vn 0.5112 0.4876 0.7077
vn -0.2902 0.9570 -0.0000
vn -0.1495 -0.9674 -0.2045
vn -0.4324 -0.6683 -0.6053
vn -0.6356 -0.6905 -0.3453
vn -0.8870 -0.2669 -0.3768
vn -0.9158 0.2192 -0.3366
vn -0.6703 0.7176 -0.1892
vt 0.078247 0.756836
vt 0.093750 0.756836
vt 0.078125 0.989990
vt 0.093750 0.989990
vt 0.484375 0.815674
vt 0.437500 0.815674
vt 0.492188 0.874481
vt 0.417969 0.772522
vt 0.453125 0.764679
vt 0.375000 0.760773
vt 0.375000 0.980377
vt 0.421875 0.980377
vt 0.375000 0.937225
vt 0.375000 0.772522
vt 0.375000 0.815674
vt 0.441376 0.874481
vt 0.484375 0.937225
vt 0.312500 0.815674
vt 0.308594 0.874481
vt 0.375000 0.874481
vt 0.437500 0.937225
vt 0.312500 0.937225
vt 0.328125 0.980377
vt 0.375000 0.989990
vt 0.453125 0.988220
vt 0.332001 0.772522
vt 0.113251 0.756836
vt 0.113251 0.989990
vt 0.296875 0.764679
vt 0.265625 0.815674
vt 0.257812 0.874481
vt 0.265625 0.937225
vt 0.296875 0.988220
s 1
usemtl npc03_05
f 1/1/1 2/2/2 3/3/3
f 3/3/3 2/2/2 4/4/4
f 5/5/5 6/6/6 7/7/7
f 8/8/8 9/9/9 10/10/10
f 11/11/11 12/12/12 13/13/13
f 14/14/14 15/15/15 6/6/6
f 6/6/6 15/15/15 16/16/16
f 6/6/6 16/16/16 7/7/7
f 7/7/7 16/16/16 17/17/17
f 18/18/18 19/19/19 20/20/20
f 20/20/20 19/19/19 13/13/13
f 20/20/20 13/13/13 21/21/21
f 21/21/21 13/13/13 12/12/12
f 19/19/19 22/22/22 13/13/13
f 13/13/13 22/22/22 23/23/23
f 13/13/13 23/23/23 11/11/11
f 11/11/11 23/23/23 24/24/24
f 11/11/11 24/24/24 12/12/12
f 24/24/24 25/25/25 12/12/12
f 12/12/12 25/25/25 17/17/17
f 12/12/12 17/17/17 21/21/21
f 21/21/21 17/17/17 16/16/16
f 21/21/21 16/16/16 20/20/20
f 20/20/20 16/16/16 15/15/15
f 20/20/20 15/15/15 18/18/18
f 18/18/18 15/15/15 14/14/14
f 18/18/18 14/14/14 26/26/26
f 2/2/2 27/27/27 4/4/4
f 4/4/4 27/27/27 28/28/28
f 4/4/4 28/28/28 3/3/3
f 3/3/3 28/28/28 29/27/29
f 3/3/3 29/27/29 30/1/29
f 5/5/5 9/9/9 6/6/6
f 6/6/6 9/9/9 8/8/8
f 6/6/6 8/8/8 14/14/14
f 14/14/14 8/8/8 10/10/10
f 14/14/14 10/10/10 26/26/26
f 26/26/26 10/10/10 31/29/30
f 26/26/26 31/29/30 32/18/31
f 32/18/31 31/29/30 33/30/32
f 32/18/31 33/30/32 19/19/19
f 19/19/19 33/30/32 34/31/33
f 19/19/19 34/31/33 22/22/22
f 22/22/22 34/31/33 35/32/34
f 22/22/22 35/32/34 23/23/23
f 23/23/23 35/32/34 36/33/35
f 23/23/23 36/33/35 24/24/24
