mtllib cookware4.mtl
o npc_03-0001-40
v 92.407906 6.309794 24.743101
v 80.419876 1.931236 9.454633
v 67.700043 -2.344570 9.448668
v 110.547279 16.477385 1.580742
v 111.282608 16.047703 0.044737
v 114.216866 21.951162 3.760973
v 48.107685 12.899811 1.580742
v 48.779385 13.492960 0.071580
v 43.840637 17.806129 3.760973
v 103.367180 1.419821 9.403930
v 109.889717 12.105833 1.091606
v 110.059410 9.137757 9.603758
v 49.288460 8.161630 18.268021
v 56.086746 14.060424 33.070335
v 48.956146 13.943661 22.413740
v 56.698345 3.376745 25.408207
v 66.741989 14.476095 40.192627
v 114.216866 21.951162 3.760973
v 114.390091 23.873058 2.663401
v 114.411308 23.473736 17.322556
v 109.843765 16.461039 19.550508
v 111.310890 15.515271 19.523664
v 114.216866 21.951162 3.760973
v 115.818336 22.929625 2.636558
v 114.234543 21.612556 16.123577
v 115.839546 22.527967 17.295713
v 110.575562 16.029022 18.014503
v 47.460735 11.855965 19.523666
v 48.811199 12.960529 19.550508
v 42.164928 18.189110 17.295713
v 43.840637 17.806129 3.760973
v 43.458832 19.697666 2.663402
v 43.861851 17.469858 16.123577
v 43.480042 19.296009 17.322556
v 48.132435 12.449113 18.014505
v 43.840637 17.806129 3.760973
v 42.140182 18.590767 2.636559
v 49.433407 5.662934 9.603759
v 46.439049 14.142155 9.842361
v 49.260178 8.631011 1.091606
v 48.917259 14.630217 -2.729020
v 56.012505 15.328450 -13.385614
v 92.351341 7.281250 33.604210
v 101.567741 4.903985 21.122307
v 92.952339 9.714558 9.597793
v 103.271729 3.084840 9.448668
v 114.390091 23.873058 2.663401
v 114.216866 21.951162 3.760973
v 114.234543 21.612556 16.123577
v 109.811943 16.993469 0.071580
v 115.818336 22.929625 2.636558
v 42.140182 18.590767 2.636559
v 43.840637 17.806129 3.760973
v 43.861851 17.469858 16.123577
v 47.428917 12.386061 0.044737
v 43.458832 19.697666 2.663402
v 103.052544 6.905275 -6.319991
v 93.001831 -4.072640 9.269716
v 92.591743 3.089508 -11.276961
v 80.543610 -6.508286 9.221996
v 80.098167 1.244677 -13.015778
v 112.063896 17.904209 9.842361
v 109.585686 17.418484 22.413740
v 109.917999 11.636453 18.268021
v 102.490440 16.720249 33.070335
v 103.102036 6.036572 25.408207
v 91.856407 15.914596 40.192627
v 92.655373 1.956925 30.183245
v 79.302734 15.127624 42.694973
v 80.168869 0.018684 31.859428
v 56.963490 -1.237671 9.403930
v 56.648849 4.243113 -6.319991
v 66.646538 16.134104 -20.507906
v 67.887413 -5.513477 9.269716
v 67.477325 1.651007 -11.276961
v 79.200211 16.921076 -23.010252
v 103.271729 3.084840 9.448668
v 101.528854 5.536831 -2.102686
v 92.952339 9.714558 9.597793
v 92.358414 10.875167 -5.607165
v 80.419876 1.931236 9.454633
v 80.172409 9.231164 -6.943339
v 67.700043 -2.344570 9.448668
v 56.871571 0.425013 9.460598
v 58.370518 0.761286 17.095884
v 67.236923 2.715875 31.325554
v 79.847160 6.253749 36.073750
v 92.266495 8.717413 -14.399675
v 79.758781 7.809009 -16.770788
v 67.155617 4.152038 -12.010664
v 58.335163 1.557599 0.709843
v 56.871571 0.425013 9.460598
v 67.540955 0.518423 30.183245
v 91.760956 17.572605 -20.507906
v 102.416199 17.988276 -13.385614
v 109.546799 18.105040 -2.729020
vn -0.1413 0.9892 -0.0392
vn -0.3697 0.9046 0.2124
vn -0.0627 0.9955 0.0705
vn -0.4335 -0.6935 0.5754
vn 0.1969 -0.8979 -0.3938
vn 0.6064 -0.7639 0.2205
vn 0.5036 -0.6452 0.5745
vn 0.9267 -0.0706 -0.3692
vn 0.9069 0.3312 0.2603
vn 0.6706 -0.7416 -0.0158
vn 0.8740 -0.3701 -0.3150
vn 0.8944 -0.4472 -0.0078
vn -0.8240 -0.4865 0.2903
vn -0.6675 -0.4555 0.5890
vn -0.8829 -0.3075 0.3548
vn -0.5342 -0.7070 0.4635
vn -0.3457 -0.5580 0.7544
vn -0.9390 0.2270 0.2583
vn -0.5663 0.7943 -0.2201
vn -0.5667 0.7792 0.2677
vn -0.9115 -0.1964 0.3615
vn 0.1961 -0.9178 0.3452
vn 0.6064 -0.7640 0.2205
vn 0.9495 -0.1883 -0.2511
vn 0.6044 -0.7534 -0.2590
vn 0.9484 -0.2038 0.2430
vn -0.4326 -0.6607 -0.6135
vn -0.0864 -0.9344 0.3455
vn 0.9275 -0.0943 0.3616
vn -0.9178 -0.3138 0.2432
vn 0.9070 0.3312 0.2602
vn 0.4705 0.8547 -0.2195
vn 0.9057 0.3465 -0.2441
vn 0.4713 0.8406 0.2671
vn 0.5042 -0.6067 -0.6146
vn -0.5109 -0.8330 0.2122
vn -0.9186 -0.2983 -0.2590
vn -0.8344 -0.5510 -0.0079
vn -0.9658 -0.2591 -0.0000
vn -0.8243 -0.4710 -0.3140
vn -0.8841 -0.2842 -0.3710
vn -0.6705 -0.4260 -0.6074
vn -0.0000 0.9948 -0.1018
vn 0.2996 0.9539 0.0158
vn 0.1417 0.9846 0.1024
vn 0.5419 0.8403 0.0157
vn -0.5662 0.7943 -0.2202
vn -0.9391 0.2269 0.2582
vn -0.9410 0.2353 -0.2431
vn -0.9115 -0.1807 -0.3694
vn 0.9495 -0.1884 -0.2511
vn -0.9186 -0.2984 -0.2591
vn -0.5108 -0.8331 0.2121
vn -0.5118 -0.8189 -0.2598
vn -0.0868 -0.9149 -0.3944
vn 0.4704 0.8547 -0.2195
vn 0.6067 -0.6146 -0.5043
vn 0.3767 -0.9260 -0.0235
vn 0.2982 -0.7453 -0.5963
vn 0.0550 -0.9982 -0.0236
vn 0.0392 -0.7841 -0.6194
vn 0.9888 -0.1491 -0.0000
vn 0.9126 -0.2046 0.3541
vn 0.8751 -0.3863 0.2917
vn 0.7147 -0.3770 0.5891
vn 0.6112 -0.6425 0.4623
vn 0.4092 -0.5116 0.7555
vn 0.3049 -0.7739 0.5550
vn 0.0313 -0.5795 0.8144
vn 0.0393 -0.8179 0.5741
vn -0.5797 -0.8147 -0.0157
vn -0.5328 -0.6817 -0.5014
vn -0.3537 -0.5188 -0.7783
vn -0.2663 -0.9636 -0.0235
vn -0.2127 -0.7721 -0.5988
vn 0.0237 -0.5362 -0.8438
vn 0.5271 0.8497 -0.0157
vn 0.0315 0.9995 -0.0079
vn -0.2741 0.9475 0.1644
vn -0.0627 0.9955 0.0706
vn 0.2443 0.9692 0.0315
vn 0.1891 0.9692 -0.1576
vn -0.0784 0.9724 -0.2196
vn -0.1419 0.9773 -0.1576
vn 0.2747 0.9342 -0.2277
vn -0.1494 0.9749 -0.1651
vn -0.2195 0.9642 0.1490
vn 0.1883 0.9572 0.2197
vn -0.2123 -0.8020 0.5583
vn 0.4097 -0.4728 -0.7801
vn 0.7161 -0.3463 -0.6060
vn 0.9115 -0.1807 -0.3693
vt 0.035126 0.945068
vt 0.066376 0.874481
vt 0.066376 0.815674
vt 0.093750 0.756836
vt 0.113251 0.756836
vt 0.093750 0.882324
vt 0.078125 0.756836
vt 0.460938 0.878418
vt 0.484375 0.848999
vt 0.484375 0.878418
vt 0.265625 0.905853
vt 0.292969 0.964691
vt 0.261719 0.933319
vt 0.292969 0.925476
vt 0.332001 0.984314
vt 0.078125 0.882324
vt 0.093750 0.989990
vt 0.113251 0.989990
vt 0.113251 0.882324
vt 0.078125 0.989990
vt 0.265625 0.878418
vt 0.253876 0.878418
vt 0.265625 0.848999
vt 0.261719 0.819580
vt 0.292969 0.788208
vt 0.009979 0.937592
vt 0.019501 0.989990
vt 0.066376 0.937225
vt 0.066376 0.989990
vt 0.460938 0.833313
vt 0.421875 0.878418
vt 0.421875 0.819580
vt 0.375000 0.878418
vt 0.375000 0.815674
vt 0.496094 0.878418
vt 0.488251 0.937225
vt 0.484375 0.907837
vt 0.460938 0.964691
vt 0.460938 0.927429
vt 0.420502 0.983307
vt 0.421875 0.937225
vt 0.375000 0.989990
vt 0.375000 0.941162
vt 0.292969 0.878418
vt 0.292969 0.831360
vt 0.332001 0.768616
vt 0.332001 0.878418
vt 0.332001 0.819580
vt 0.375000 0.760315
vt 0.066376 0.756836
vt 0.019501 0.756836
vt 0.042969 0.823517
vt 0.066376 0.878418
vt 0.031250 0.878418
vt 0.009979 0.815674
vt 0.009979 0.873962
vt 0.009979 0.815338
vt 0.009979 0.878937
vt 0.009979 0.937225
vt 0.332001 0.937225
vt 0.421875 0.768616
vt 0.460938 0.792145
vt 0.488251 0.819580
s 1
usemtl npc03_05
f 1/1/1 2/2/2 3/3/3
f 4/4/4 5/5/5 6/6/6
f 7/4/7 8/7/8 9/6/9
f 10/8/10 11/9/11 12/10/12
f 13/11/13 14/12/14 15/13/15
f 16/14/16 17/15/17 14/12/14
f 4/4/4 18/6/18 19/16/19
f 20/16/20 21/7/21 22/5/22
f 23/17/23 24/18/24 25/6/25
f 25/6/25 24/18/24 26/19/26
f 25/6/25 26/19/26 27/4/27
f 28/5/28 29/7/29 30/19/30
f 31/17/31 32/20/32 33/6/33
f 33/6/33 32/20/32 34/16/34
f 33/6/33 34/16/34 35/4/35
f 7/4/7 36/6/36 37/19/37
f 38/21/38 39/22/39 40/23/40
f 40/23/40 39/22/39 41/24/41
f 40/23/40 41/24/41 42/25/42
f 1/1/1 43/26/43 44/27/44
f 2/2/2 1/1/1 45/28/45
f 45/28/45 1/1/1 44/27/44
f 45/28/45 44/27/44 46/29/46
f 47/20/47 48/17/48 20/16/20
f 20/16/20 48/17/48 49/6/49
f 20/16/20 49/6/49 21/7/21
f 21/7/21 49/6/49 27/4/27
f 21/7/21 27/4/27 22/5/22
f 22/5/22 27/4/27 26/19/26
f 22/5/22 26/19/26 20/16/20
f 20/16/20 26/19/26 24/18/24
f 20/16/20 24/18/24 47/20/47
f 5/5/5 4/4/4 50/7/50
f 50/7/50 4/4/4 19/16/19
f 50/7/50 19/16/19 5/5/5
f 5/5/5 19/16/19 51/19/51
f 5/5/5 51/19/51 6/6/6
f 52/18/52 53/17/53 30/19/30
f 30/19/30 53/17/53 54/6/54
f 30/19/30 54/6/54 28/5/28
f 28/5/28 54/6/54 35/4/35
f 28/5/28 35/4/35 29/7/29
f 29/7/29 35/4/35 34/16/34
f 29/7/29 34/16/34 30/19/30
f 30/19/30 34/16/34 32/20/32
f 30/19/30 32/20/32 52/18/52
f 8/7/8 7/4/7 55/5/55
f 55/5/55 7/4/7 37/19/37
f 55/5/55 37/19/37 8/7/8
f 8/7/8 37/19/37 56/16/56
f 8/7/8 56/16/56 9/6/9
f 11/9/11 10/8/10 57/30/57
f 57/30/57 10/8/10 58/31/58
f 57/30/57 58/31/58 59/32/59
f 59/32/59 58/31/58 60/33/60
f 59/32/59 60/33/60 61/34/61
f 62/35/62 63/36/63 64/37/64
f 64/37/64 63/36/63 65/38/65
f 64/37/64 65/38/65 66/39/66
f 66/39/66 65/38/65 67/40/67
f 66/39/66 67/40/67 68/41/68
f 68/41/68 67/40/67 69/42/69
f 68/41/68 69/42/69 70/43/70
f 15/13/15 39/22/39 13/11/13
f 13/11/13 39/22/39 38/21/38
f 13/11/13 38/21/38 71/44/71
f 71/44/71 38/21/38 40/23/40
f 71/44/71 40/23/40 72/45/72
f 72/45/72 40/23/40 42/25/42
f 72/45/72 42/25/42 73/46/73
f 14/12/14 13/11/13 16/14/16
f 16/14/16 13/11/13 71/44/71
f 16/14/16 71/44/71 74/47/74
f 74/47/74 71/44/71 72/45/72
f 74/47/74 72/45/72 75/48/75
f 75/48/75 72/45/72 73/46/73
f 75/48/75 73/46/73 76/49/76
f 77/50/46 78/51/77 79/3/45
f 79/3/45 78/51/77 80/52/78
f 79/3/45 80/52/78 81/53/2
f 81/53/2 80/52/78 82/54/79
f 81/53/2 82/54/79 83/28/80
f 84/50/81 85/51/82 3/3/3
f 3/3/3 85/51/82 86/55/83
f 3/3/3 86/55/83 1/1/1
f 1/1/1 86/55/83 87/56/84
f 1/1/1 87/56/84 43/26/43
f 78/51/77 88/57/85 80/52/78
f 80/52/78 88/57/85 89/58/86
f 80/52/78 89/58/86 82/54/79
f 82/54/79 89/58/86 90/59/87
f 82/54/79 90/59/87 83/28/80
f 83/28/80 90/59/87 91/27/88
f 83/28/80 91/27/88 92/29/81
f 17/15/17 16/14/16 93/60/89
f 93/60/89 16/14/16 74/47/74
f 93/60/89 74/47/74 60/33/60
f 60/33/60 74/47/74 75/48/75
f 60/33/60 75/48/75 61/34/61
f 61/34/61 75/48/75 76/49/76
f 61/34/61 76/49/76 59/32/59
f 59/32/59 76/49/76 94/61/90
f 59/32/59 94/61/90 57/30/57
f 57/30/57 94/61/90 95/62/91
f 57/30/57 95/62/91 11/9/11
f 95/62/91 96/63/92 11/9/11
f 11/9/11 96/63/92 62/35/62
f 11/9/11 62/35/62 12/10/12
f 12/10/12 62/35/62 64/37/64
f 12/10/12 64/37/64 10/8/10
f 10/8/10 64/37/64 66/39/66
f 10/8/10 66/39/66 58/31/58
f 58/31/58 66/39/66 68/41/68
f 58/31/58 68/41/68 60/33/60
f 60/33/60 68/41/68 70/43/70
f 60/33/60 70/43/70 93/60/89
f 93/60/89 70/43/70 69/42/69
f 93/60/89 69/42/69 17/15/17
