mtllib boulder4.mtl
o em29-0001-1
v 19.369492 111.381691 -72.321167
v -9.510384 93.780510 -55.698540
v 4.025624 113.738396 -59.732380
v -88.089584 65.251511 -1.514425
v -64.605759 60.820141 -36.030460
v -76.648987 54.620056 1.780201
v 26.016666 114.096924 -32.998856
v 37.154430 91.280411 -38.015545
v 41.360535 111.740219 -45.587643
v -70.084404 93.335953 -10.769830
v -53.501644 83.741829 -33.032078
v -73.021027 88.871124 -30.028156
v -9.510384 93.780510 -55.698540
v -5.356282 95.477539 -31.118982
v 37.154430 91.280411 -38.015545
v 33.000328 88.436104 -62.592335
v 41.360535 111.740219 -45.587643
v 38.038479 110.382599 -65.250183
v 38.038479 110.382599 -65.250183
v 24.383167 120.755920 -56.047382
v 7.350741 115.096016 -40.072609
v 9.583800 85.859505 -69.214806
v 38.038479 110.382599 -65.250183
v 33.000328 88.436104 -62.592335
v 48.870342 60.542889 48.339611
v 34.869370 86.227600 46.700600
v 75.339737 88.785080 70.690453
v 62.176926 102.241714 67.393059
v 15.983196 78.937599 68.852104
v 29.237778 51.713619 69.718674
v 48.044415 96.729996 83.320770
v 61.207230 79.200523 86.620926
v 48.044415 96.729996 83.320770
v 61.207230 79.200523 86.620926
v 61.066517 98.015900 87.769897
v 34.869370 86.227600 46.700600
v 15.983196 78.937599 68.852104
v 62.176926 102.241714 67.393059
v 48.044415 96.729996 83.320770
v 29.237778 51.713619 69.718674
v 48.870342 60.542889 48.339611
v 61.207230 79.200523 86.620926
v 75.339737 88.785080 70.690453
v 60.350712 83.670120 -10.952557
v 81.503593 75.672630 -10.919333
v 81.974678 104.885231 -17.212343
v 94.574638 96.892517 -14.236108
v 58.750862 79.329582 -33.087448
v 60.350712 83.670120 -10.952557
v 79.083939 100.549469 -32.633400
v 81.974678 104.885231 -17.212343
v 81.503593 75.672630 -10.919333
v 76.009659 71.982216 -30.396378
v 100.233757 92.551979 -32.597408
v -36.224499 136.440186 42.971306
v -25.931015 135.613190 16.661377
v -50.672085 156.637085 21.772196
v 61.207230 79.200523 86.620926
v 75.339737 88.785080 70.690453
v 61.066517 98.015900 87.769897
v 75.339737 88.785080 70.690453
v 62.176926 102.241714 67.393059
v 61.066517 98.015900 87.769897
v 23.954910 134.977402 32.323299
v 12.125816 126.009514 53.347992
v 30.595966 140.073242 48.854561
v -52.100632 132.266968 6.525561
v -62.397175 133.093964 32.835491
v -50.672085 156.637085 21.772196
v 42.400589 91.294746 28.605083
v 10.345487 101.553337 17.455965
v 43.033798 128.562210 40.393745
v 23.954910 134.977402 32.323299
v 43.033798 128.562210 40.393745
v 23.954910 134.977402 32.323299
v 30.595966 140.073242 48.854561
v -3.783964 92.590218 48.572170
v 28.791166 81.910965 60.845337
v 12.125816 126.009514 53.347992
v 35.603523 122.118324 61.900173
v 12.125816 126.009514 53.347992
v 35.603523 122.118324 61.900173
v 30.595966 140.073242 48.854561
v 10.345487 101.553337 17.455965
v -3.783964 92.590218 48.572170
v 23.954910 134.977402 32.323299
v 28.791166 81.910965 60.845337
v 42.400589 91.294746 28.605083
v 35.603523 122.118324 61.900173
v 43.033798 128.562210 40.393745
v 35.603523 122.118324 61.900173
v 43.033798 128.562210 40.393745
v 30.595966 140.073242 48.854561
v -83.485817 72.594093 -35.030998
v -85.838173 83.043900 -16.938251
v -73.021027 88.871124 -30.028156
v -53.501644 83.741829 -33.032078
v -64.605759 60.820141 -36.030460
v -73.021027 88.871124 -30.028156
v -88.089584 65.251511 -1.514425
v -77.618683 81.528534 3.485651
v 81.974678 104.885231 -17.212343
v 94.574638 96.892517 -14.236108
v 94.436981 104.808746 -25.634401
v 62.176926 102.241714 67.393059
v 48.044415 96.729996 83.320770
v 61.066517 98.015900 87.769897
v 76.009659 71.982216 -30.396378
v 58.750862 79.329582 -33.087448
v 100.233757 92.551979 -32.597408
v 79.083939 100.549469 -32.633400
v 100.233757 92.551979 -32.597408
v 79.083939 100.549469 -32.633400
v 94.436981 104.808746 -25.634401
v 94.574638 96.892517 -14.236108
v 100.233757 92.551979 -32.597408
v -62.397175 133.093964 32.835491
v -36.224499 136.440186 42.971306
v -50.672085 156.637085 21.772196
v -43.933140 104.923470 17.810345
v -54.229683 100.506447 43.760357
v -52.100632 132.266968 6.525561
v -62.397175 133.093964 32.835491
v -28.057009 101.773239 54.361294
v -17.760466 106.190262 28.411283
v -36.224499 136.440186 42.971306
v -25.931015 135.613190 16.661377
v 17.974594 94.229874 -22.278866
v 7.350741 115.096016 -40.072609
v -5.356282 95.477539 -31.118982
v 7.350741 115.096016 -40.072609
v 38.038479 110.382599 -65.250183
v -25.931015 135.613190 16.661377
v -52.100632 132.266968 6.525561
v -50.672085 156.637085 21.772196
v -17.760466 106.190262 28.411283
v -43.933140 104.923470 17.810345
v -25.931015 135.613190 16.661377
v -52.100632 132.266968 6.525561
v -54.229683 100.506447 43.760357
v -28.057009 101.773239 54.361294
v -62.397175 133.093964 32.835491
v -36.224499 136.440186 42.971306
v 79.083939 100.549469 -32.633400
v 81.974678 104.885231 -17.212343
v -54.144032 89.722023 -9.786980
v -63.562645 74.965141 8.031679
v -88.089584 65.251511 -1.514425
v -76.648987 54.620056 1.780201
vn -0.0707 0.5109 -0.8567
vn -0.5658 0.1572 -0.8094
vn -0.5648 0.7531 -0.3373
vn -0.9415 -0.1412 0.3060
vn -0.5567 -0.7841 -0.2744
vn 0.1884 0.7615 0.6202
vn 0.6430 0.1411 0.7528
vn 0.5888 0.7379 0.3298
vn -0.2203 0.9600 0.1731
vn 0.2203 0.9444 -0.2440
vn -0.2998 0.7889 -0.5364
vn -0.8149 0.5720 0.0940
vn -0.6061 0.6219 0.4959
vn 0.9605 -0.2440 -0.1338
vn 0.9605 -0.2441 -0.1338
vn 0.9605 -0.2441 -0.1339
vn 0.3996 0.8462 -0.3526
vn 0.0942 0.9895 -0.1100
vn -0.4105 0.8525 0.3236
vn -0.1414 -0.0236 -0.9897
vn 0.3072 -0.2048 -0.9294
vn 0.4881 0.2283 -0.8424
vn -0.3604 -0.1253 0.9244
vn -0.3383 -0.0944 0.9363
vn -0.3134 -0.0548 0.9480
vn -0.4487 0.8895 -0.0866
vn 0.0235 0.9937 0.1096
vn -0.3136 0.9484 0.0470
vn 0.6133 -0.7706 0.1730
vn 0.7636 -0.4487 0.4644
vn 0.8969 -0.0393 0.4405
vn 0.0078 0.2036 0.9790
vn 0.0079 0.2036 0.9790
vn -0.1658 0.9002 0.4027
vn 0.7230 0.2279 0.6522
vn -0.7131 0.6975 -0.0705
vn -0.1969 0.6933 -0.6933
vn -0.1658 0.9002 0.4028
vn 0.7455 -0.6514 0.1412
vn 0.7455 -0.6513 0.1413
vn 0.7229 0.2279 0.6523
vn 0.9620 -0.1892 0.1971
vn 0.7773 0.5496 0.3062
vn 0.6592 0.7142 0.2354
vn 0.8968 -0.0394 0.4406
vn 0.5510 0.7085 0.4408
vn 0.8969 -0.0394 0.4406
vn 0.0234 0.9937 0.1096
vn 0.5511 0.7085 0.4408
vn -0.7535 0.6437 -0.1334
vn -0.6514 0.5886 0.4787
vn -0.4639 0.7548 0.4638
vn -0.9253 -0.0470 -0.3764
vn -0.8944 0.2746 -0.3530
vn 0.4084 0.2435 -0.8797
vn 0.8602 0.4735 -0.1894
vn 0.4565 0.5587 -0.6925
vn 0.4564 0.5587 -0.6925
vn 0.6750 0.7378 -0.0000
vn -0.3373 0.0235 0.9411
vn -0.3372 0.0235 0.9411
vn -0.6514 0.5887 0.4787
vn -0.2835 0.2914 0.9136
vn -0.4639 0.7548 0.4639
vn -0.8490 0.4559 -0.2672
vn -0.8489 0.4559 -0.2673
vn -0.7536 0.6437 -0.1335
vn -0.6514 0.5887 0.4788
vn 0.9359 -0.1416 0.3225
vn 0.8994 0.1955 0.3910
vn 0.8602 0.4735 -0.1895
vn 0.8994 0.1956 0.3910
vn -0.7778 -0.0000 -0.6285
vn -0.8148 0.5798 -0.0000
vn -0.2998 0.7889 -0.5365
vn -0.0079 0.2036 -0.9790
vn -0.0078 0.2036 -0.9790
vn -0.9415 -0.1412 0.3059
vn -0.4901 0.5455 0.6799
vn 0.4543 0.8850 -0.1019
vn -0.3135 0.9484 0.0471
vn 0.5511 0.7085 0.4409
vn 0.0314 -0.0785 -0.9964
vn 0.0314 -0.0784 -0.9964
vn 0.1335 0.2514 -0.9586
vn -0.1969 0.6933 -0.6932
vn 0.1336 0.2515 -0.9586
vn -0.1970 0.6932 -0.6933
vn 0.4543 0.8850 -0.1018
vn 0.7229 0.2279 0.6522
vn 0.9619 -0.1892 0.1971
vn 0.4542 0.8851 -0.1018
vn -0.3763 0.3763 0.8466
vn -0.3620 0.5351 0.7633
vn -0.8562 -0.3692 -0.3614
vn -0.9253 -0.0471 -0.3764
vn 0.8655 0.3462 0.3619
vn 0.2119 0.3925 0.8950
vn -0.6061 0.6218 0.4959
vn -0.4104 0.8525 0.3237
vn 0.0943 0.9895 -0.1099
vn 0.3996 0.8462 -0.3525
vn 0.3368 0.1332 -0.9321
vn 0.2518 0.5037 -0.8264
vn 0.3757 -0.2505 -0.8923
vn 0.3757 -0.2505 -0.8922
vn 0.3368 0.1331 -0.9321
vn -0.3771 0.2043 0.9034
vn -0.3771 0.2042 0.9034
vn -0.3763 0.3763 0.8467
vn -0.3763 0.3762 0.8467
vn 0.1887 0.9513 0.2437
vn -0.1178 0.3769 0.9187
vn -0.9415 -0.1413 0.3059
vn -0.3365 -0.0704 0.9390
vt 0.139007 0.208097
vt 0.388735 0.962236
vt 0.388735 0.208097
vt 0.501560 0.170945
vt 0.139007 0.962236
vt 0.501560 0.962236
vt -0.006014 0.208097
vt 0.267883 0.025167
vt 0.002011 0.208097
vt 0.002011 0.962236
vt 0.502206 0.744192
vt 0.502442 0.850330
vt 0.878817 0.742216
vt 0.879051 0.848354
vt 0.502678 0.744710
vt 0.502912 0.854047
vt 0.879287 0.742734
vt 0.879521 0.852023
vt 0.877780 0.742734
vt 0.878016 0.852023
vt 0.992199 0.844261
vt 0.503148 0.975003
vt 0.879757 0.972980
vt 0.497973 0.582304
vt 0.498113 0.660966
vt 0.864655 0.581082
vt 0.864843 0.659695
vt 0.495620 0.650945
vt 0.499667 0.571248
vt 0.856939 0.650945
vt 0.854963 0.571248
vt 0.498255 0.736430
vt 0.864937 0.735160
vt 0.941724 0.467746
vt 0.942383 0.547632
vt 1.004862 0.459655
vt 0.878251 0.972980
vt -0.000869 0.211118
vt 0.122862 0.211118
vt 0.207553 0.054908
vt 0.745211 0.193054
vt 0.745420 0.369370
vt 0.949745 0.191222
vt 0.940360 0.464312
vt 0.941066 0.384474
vt 1.007166 0.459325
vt 0.503717 0.005168
vt 0.503926 0.201797
vt 0.746413 -0.003575
vt 0.746571 0.193054
vt 0.745053 -0.003575
vt 0.504084 0.378061
vt 0.504240 0.199703
vt 0.746729 0.369370
vt 0.746938 0.191012
vt 0.745576 0.191012
vt 0.946604 0.188918
vt 0.504449 0.008728
vt 0.747094 -0.000016
vt 0.745734 -0.000016
vt 0.863243 0.581082
vt 0.863385 0.659695
vt 0.935413 0.652121
vt 0.877592 0.848354
vt 0.995586 0.840968
vt 0.505735 0.657955
vt 0.497831 0.585221
vt 0.872417 0.656685
vt 0.864513 0.583951
vt 0.870959 0.656685
vt 0.863103 0.583951
vt 0.938848 0.650193
vt 0.863525 0.735206
vt 0.499531 0.466100
vt 0.500237 0.386261
vt 0.941630 0.464312
vt 0.942289 0.384474
vt 0.500897 0.469533
vt 0.501556 0.549419
vt 0.942995 0.467699
vt 0.943653 0.547632
vt 0.939702 0.547444
vt 0.498873 0.549231
vt 0.940972 0.547444
vt 0.856939 0.652780
s 1
usemtl boulder04
f 1/1/1 2/2/2 3/3/3
f 4/4/4 5/5/5 6/6/5
f 7/1/6 8/2/7 9/3/8
f 10/3/9 11/6/10 12/4/11
f 13/2/12 14/6/13 3/3/3
f 15/2/14 16/6/15 17/3/16
f 17/3/16 16/6/15 18/4/15
f 19/7/17 1/1/1 20/8/18
f 20/8/18 1/1/1 3/3/3
f 20/8/18 3/3/3 21/4/19
f 21/4/19 3/3/3 14/6/13
f 2/2/2 1/1/1 22/5/20
f 22/5/20 1/1/1 23/9/21
f 22/5/20 23/9/21 24/10/21
f 25/11/22 26/12/22 27/13/22
f 27/13/22 26/12/22 28/14/22
f 29/15/23 30/16/23 31/17/24
f 31/17/24 30/16/23 32/18/24
f 33/19/24 34/20/24 35/21/25
f 36/12/26 37/15/26 38/14/27
f 38/14/27 37/15/26 39/17/28
f 40/16/29 41/22/29 42/18/30
f 42/18/30 41/22/29 43/23/31
f 44/24/32 45/25/33 46/26/34
f 46/26/34 45/25/33 47/27/35
f 48/28/36 49/29/36 50/30/37
f 50/30/37 49/29/36 51/31/38
f 52/25/39 53/32/40 47/27/41
f 47/27/41 53/32/40 54/33/42
f 55/34/43 56/35/43 57/36/44
f 58/20/30 59/37/45 60/21/46
f 61/38/47 62/39/48 63/40/49
f 64/41/50 65/42/51 66/43/52
f 67/44/53 68/45/53 69/46/54
f 70/47/55 71/48/55 72/49/56
f 72/49/56 71/48/55 73/50/57
f 74/51/56 75/41/58 76/43/59
f 77/52/60 78/53/61 79/54/62
f 79/54/62 78/53/61 80/55/63
f 81/42/51 82/56/63 83/57/64
f 84/48/65 85/52/66 86/50/67
f 86/50/67 85/52/66 79/54/68
f 87/53/69 88/58/69 89/55/70
f 89/55/70 88/58/69 90/59/71
f 91/56/72 92/60/56 93/57/59
f 5/5/5 4/4/4 94/1/73
f 94/1/73 4/4/4 95/8/74
f 94/1/73 95/8/74 96/7/75
f 97/10/76 98/5/77 99/9/11
f 99/9/11 98/5/77 94/1/73
f 100/7/78 101/1/79 95/8/74
f 95/8/74 101/1/79 10/3/9
f 95/8/74 10/3/9 12/4/11
f 102/61/34 103/62/35 104/63/80
f 105/64/27 106/19/81 107/65/82
f 108/66/83 109/67/84 110/68/85
f 110/68/85 109/67/84 111/69/86
f 112/70/87 113/71/88 114/72/89
f 115/62/90 116/73/91 104/63/92
f 117/45/93 118/34/93 119/36/94
f 120/74/95 121/75/95 122/76/96
f 122/76/96 121/75/95 123/77/96
f 124/78/97 125/79/97 126/80/43
f 126/80/43 125/79/97 127/81/43
f 8/2/7 7/1/6 128/5/98
f 128/5/98 7/1/6 129/9/19
f 128/5/98 129/9/19 130/10/99
f 131/7/100 7/1/6 20/8/101
f 20/8/101 7/1/6 9/3/8
f 20/8/101 9/3/8 132/4/102
f 133/82/103 134/44/103 135/46/104
f 136/83/105 137/74/106 138/84/107
f 138/84/107 137/74/106 139/76/107
f 140/75/108 141/78/109 142/77/110
f 142/77/110 141/78/109 143/80/111
f 144/31/37 145/85/34 114/72/89
f 11/6/10 10/3/9 146/2/112
f 146/2/112 10/3/9 101/1/79
f 146/2/112 101/1/79 147/5/113
f 147/5/113 101/1/79 148/9/114
f 147/5/113 148/9/114 149/10/115
