mtllib f_hair019.mtl
o editpl_f-0000-1925
v -5.356955 47.374752 -15.092173
v -2.677155 45.254021 -14.999929
v -7.862158 45.318188 -12.273782
v 8.756307 49.880486 -5.770147
v 7.547354 50.409866 -7.169340
v 8.309232 53.531609 -6.293594
v 7.650525 50.900745 -5.860166
v 7.751051 51.831173 -2.400526
v 8.079082 49.594940 -1.685926
v -10.600157 54.298409 -1.389195
v -10.084302 60.667019 1.295833
v -10.346198 57.137814 -3.149577
v -7.629362 50.900745 -5.860166
v -7.751051 51.831173 -2.400526
v -8.436212 55.832008 -5.256702
v -0.105816 62.178158 -11.945933
v 4.256464 64.427223 -8.317368
v 4.698248 61.112980 -10.602309
v -4.909881 61.112980 -10.602309
v -9.391205 59.319504 -7.638331
v -7.827768 63.147083 -6.810374
v -9.856797 56.274761 -2.228266
v -8.327750 55.533630 -0.613471
v -7.766923 55.722923 1.452534
v 5.994499 45.783401 -3.003989
v 8.079082 49.594940 -1.685926
v -7.396566 50.259071 -9.568749
v -7.626717 49.951069 -5.851276
v -9.163700 55.315460 -4.416519
v 10.743009 52.671764 -1.171370
v 8.187543 52.229012 5.475630
v 10.597512 49.947861 -1.944871
v -3.793518 64.988686 6.927056
v -6.584425 63.795174 5.163339
v -5.859583 61.218857 6.820366
v 9.285389 33.777691 -14.643185
v 8.745725 38.660828 -13.921917
v 10.348843 36.363636 -11.700323
v 9.409723 40.733433 -10.332248
v 0.000000 40.463928 -18.308426
v 5.571233 39.235123 -16.037933
v 5.957463 33.723148 -17.492691
v -5.571233 39.235123 -16.037933
v -4.155939 45.289310 -12.128195
v 4.155939 45.289310 -12.128195
v 7.192869 44.676514 -9.479842
v 8.385949 43.999550 -6.903725
v -7.192869 44.676514 -9.479842
v -8.385949 43.999550 -6.903725
v -8.745725 38.660828 -13.921917
v -9.409723 40.733433 -10.332248
v 0.526437 47.172623 -14.867679
v -2.470813 49.822735 -16.989252
v -0.010582 54.779663 -15.446693
v 2.177172 55.334709 -14.495376
v -0.137561 52.472847 -16.116840
v 2.320024 52.479263 -14.684306
v -5.227330 49.755360 -12.781671
v 1.756552 49.055935 -14.843230
v -2.470813 49.822735 -16.989252
v -2.899369 52.543430 -13.831899
v -8.634618 48.584305 -3.357399
v -10.436142 44.965267 -5.833493
v -10.142501 43.450916 -4.094226
v -10.174246 43.560001 -6.941511
v -9.338297 37.993484 -11.373586
v -8.669008 54.147614 -5.488976
v -8.309232 53.531609 -6.293594
v -8.756307 49.880486 -5.770147
v -7.547354 50.409866 -7.169340
v -7.875385 44.785599 -7.932838
v 8.669008 54.147614 -5.488976
v 7.875385 44.785599 -7.932838
v 10.174246 43.560001 -6.941511
v 8.936194 40.884224 -10.181104
v 10.436142 44.965267 -5.833493
v -8.216643 58.007278 2.587225
v -9.150473 58.158073 -0.116696
v -7.692852 52.944477 1.573671
v 5.735249 43.184624 1.134688
v 8.187543 47.878464 -0.919093
v 6.946846 47.993965 3.049548
v 7.960038 52.944477 1.573671
v -8.798633 52.925228 -1.210267
v -7.928293 47.878464 -0.919093
v -6.679660 47.993965 3.049548
v -5.444253 43.184624 1.134688
v 9.057883 52.925228 -1.210267
v 9.415014 58.158073 -0.116696
v 7.957393 58.010490 2.588336
v 8.608164 54.712288 -1.721489
v -8.436212 55.832008 -5.256702
v -7.751051 51.831173 -2.400526
v -8.608164 54.718704 -1.721489
v 0.026454 58.831833 10.962378
v 4.698248 55.575336 9.973274
v 0.904730 59.374046 11.570288
v -3.269727 61.594234 8.322915
v -2.566048 62.033779 9.873252
v 0.904730 59.374046 11.570288
v 8.256324 55.629879 -5.324494
v -5.923073 36.617096 8.988617
v -4.735284 39.751671 3.900845
v -8.216643 41.291687 5.657893
v -5.166485 43.200665 -0.836852
v 8.608164 54.712288 -1.721489
v 7.751051 51.831173 -2.400526
v 8.256324 55.629879 -5.324494
v -3.843780 64.857147 6.791471
v -4.621531 62.373867 9.134202
v -3.417870 61.895821 8.380705
v -5.571233 59.329128 9.883254
v -4.703539 59.223251 9.557629
v -5.907200 56.178513 9.217555
v -6.584425 63.795174 5.163339
v -8.303941 62.447662 3.278485
v -8.875350 60.038177 5.944620
v -9.441468 55.437378 5.017753
v -8.571128 56.220219 8.116204
v -4.597722 59.136627 -12.430484
v -0.105816 58.138824 -14.811001
v -1.767134 56.396679 -14.657634
v -8.079082 49.594940 -1.685926
v 4.637403 48.119091 -6.396950
v 4.650630 46.553410 -6.659228
v -0.105816 46.017612 -9.513182
v 7.552645 55.722923 1.452534
v 8.116117 55.533630 -0.613471
v 9.642519 56.274761 -2.228266
v 7.169061 52.864269 -3.985315
v 6.550035 51.619419 -7.791697
v -0.105816 59.839256 -13.249551
v 4.383444 59.139835 -12.429373
v -0.105816 65.100983 -9.262018
v -4.470743 64.427223 -8.317368
v -4.068640 66.114822 -4.414298
v -7.383339 52.864269 -3.985315
v -6.764313 51.619419 -7.791697
v -4.851682 48.119091 -6.396950
v -3.825263 62.033779 7.810581
v -1.968185 62.569580 8.016181
v 8.706044 54.397865 -8.155109
v 9.176927 59.319504 -7.638331
v 10.216573 60.243511 -2.489434
v 7.613490 62.944958 -6.810374
v 7.716660 63.904259 -3.436307
v 3.854362 66.114822 -4.414298
v -5.486580 60.208221 -23.831850
v -5.240557 57.413731 -25.046558
v -2.521076 58.879955 -22.005898
v -0.158725 52.581928 -27.520430
v 3.518395 59.316292 -28.037209
v 3.605694 53.839607 -26.405743
v 4.793483 57.339939 -25.003214
v -0.132270 55.225628 -17.779423
v -1.965540 56.294010 -17.651617
v -4.063350 56.954937 -20.685610
v 4.539523 60.038177 -20.853424
v -0.044972 63.095753 -20.063253
v 1.917922 59.008289 -17.259310
v -0.084653 59.957970 -16.973692
v -4.105676 62.694706 -24.420866
v -4.711475 60.147263 -20.981230
v -1.928504 58.963375 -17.122614
v -2.230080 58.190159 -17.173737
v -5.684986 55.989216 -22.953880
v -0.105816 54.311241 -19.256411
v -0.140207 52.049343 -21.470224
v 3.568658 56.813766 -20.672274
v 5.068605 55.934673 -22.911650
v 2.245953 58.835037 -22.058130
v -0.031745 63.650799 -24.950983
v 3.899334 62.550327 -24.408642
v 0.063490 60.102341 -29.559761
v 5.177067 60.115177 -23.792952
v 6.605588 30.274153 -15.550048
v 0.000000 26.401651 -16.965910
v 0.000000 31.599207 -19.467566
v -6.605588 30.274153 -15.550048
v -5.957463 33.723148 -17.492691
v -9.285389 33.777691 -14.643185
v -10.512859 36.363636 -11.700323
v -4.722057 54.455620 -12.600520
v 0.000000 56.082260 -15.139961
v 0.000000 50.894329 -14.597621
v 4.722057 54.455620 -12.600520
v 4.412544 50.583118 -12.853908
v 8.192834 54.150822 -8.069535
v 7.396566 50.259071 -9.568749
v 9.163700 55.315460 -4.416519
v 7.626717 49.951069 -5.851276
v -8.192834 54.150822 -8.069535
v -4.412544 50.583118 -12.853908
v 0.000000 46.293530 -14.494265
v -2.121619 55.045956 -14.417582
v -8.303941 54.189323 -3.824168
v -8.936194 40.884224 -10.181104
v 8.303941 54.189323 -3.824168
v 8.634618 48.584305 -3.357399
v 10.142501 43.450916 -4.094226
v 9.338297 37.993484 -11.373586
v -9.155763 47.333042 -5.819046
v -10.721846 43.967464 -3.409633
v -8.698108 46.620785 0.268943
v -11.539278 40.797600 1.355847
v -10.467887 39.507835 4.872167
v 7.473283 55.238461 8.600754
v 5.372827 59.162292 10.605633
v 1.470848 63.281837 10.055514
v -8.608164 54.718704 -1.721489
v -5.994499 45.783401 -3.003989
v -8.079082 49.594940 -1.685926
v -8.698108 46.620785 0.268943
v 9.914996 52.739140 -10.157766
v 10.896443 58.093906 -1.628136
v 9.475858 58.148449 5.804591
v 8.888577 62.762081 3.989751
v 6.047407 62.515038 8.709666
v 4.838455 65.408981 4.974409
v 0.000000 66.701958 5.397835
v -6.417764 62.364243 8.458500
v -7.573808 59.701298 9.103085
v -7.621426 56.085468 8.747452
v -7.700788 53.489899 6.182451
v 5.952172 36.617096 8.988617
v 10.486405 39.507835 4.872167
v 8.216643 41.291687 5.657893
v 11.539278 40.797600 1.355847
v 8.698108 46.620785 0.268943
v 10.721846 43.967464 -3.409633
v 9.155763 47.333042 -5.819046
v -9.613419 52.325260 -8.859707
v -8.499702 50.024864 -1.196931
v -7.597617 51.706047 3.576329
v 8.698108 46.620785 0.268943
v 5.166485 43.200665 -0.836852
v 4.745865 39.751671 3.900845
v -0.105816 48.189674 -9.119763
v -4.790837 54.558285 -12.785005
v -8.920322 54.397865 -8.155109
v -10.428206 60.243511 -2.489434
v -10.084302 60.667019 1.295833
v -7.930939 63.904259 -3.436307
v -0.105816 66.692329 1.483651
v 0.000000 66.701958 5.397835
v 3.618921 66.063492 1.363625
v 4.838455 65.408981 4.974409
v 6.642624 64.221886 1.265826
v 8.888577 62.762081 3.989751
v 10.113402 60.160095 0.999101
v 1.917922 59.008289 -17.259310
v 2.272407 58.254326 -17.243752
v 1.994639 56.457638 -17.518255
v -1.928504 58.963375 -17.122614
v -3.793518 64.988686 6.927056
v -6.846321 64.706352 1.318059
v -3.833199 66.063492 1.363625
v -0.105816 66.794998 -4.937745
v 4.579204 54.561493 -12.783893
v -4.862263 46.553410 -6.659228
v -3.981342 53.926231 -26.424635
v -3.801454 59.431789 -28.040543
v -0.103171 54.198948 -14.962144
v 1.555501 56.396679 -14.657634
v -7.965329 58.860706 4.409842
vn -0.6585 -0.0000 -0.7526
vn -0.1336 -0.4557 -0.8800
vn -0.7216 -0.0549 -0.6902
vn 0.9101 0.1334 -0.3922
vn 0.7693 0.0628 -0.6358
vn 0.8342 0.0236 -0.5509
vn 0.9920 0.1260 -0.0079
vn 0.9840 -0.1180 0.1338
vn 0.9452 0.3229 0.0473
vn -0.9893 -0.1178 0.0864
vn -0.9654 0.1883 0.1805
vn -0.9967 0.0393 -0.0706
vn -0.9931 0.1173 -0.0078
vn -0.9798 -0.1332 0.1489
vn -0.9772 -0.2049 -0.0551
vn -0.0000 0.6063 -0.7953
vn 0.3766 0.7219 -0.5806
vn 0.4890 0.5284 -0.6940
vn -0.4863 0.5255 -0.6981
vn -0.8096 0.2593 -0.5266
vn -0.6749 0.6200 -0.4002
vn -0.8508 -0.5120 0.1182
vn -0.6459 -0.7089 0.2836
vn -0.6128 -0.7542 0.2357
vn -0.3609 0.2040 0.9100
vn -0.7290 0.2743 0.6271
vn 0.9839 -0.1181 0.1338
vn -0.8979 -0.0787 -0.4332
vn -0.9844 -0.0315 -0.1733
vn -0.9723 -0.1803 -0.1490
vn 0.9784 -0.1017 0.1800
vn 0.7866 -0.3461 0.5113
vn 0.9883 -0.0863 0.1255
vn -0.5183 0.6125 0.5968
vn -0.7476 0.4328 0.5037
vn -0.6465 0.2365 0.7253
vn 0.7416 0.0158 -0.6706
vn 0.7157 0.4089 -0.5662
vn 0.8875 0.2278 -0.4006
vn 0.7447 0.5095 -0.4311
vn -0.0000 0.3930 -0.9196
vn 0.4878 0.4092 -0.7711
vn 0.5120 0.0236 -0.8586
vn -0.4878 0.4092 -0.7711
vn -0.5968 0.2748 -0.7539
vn 0.5968 0.2749 -0.7538
vn 0.8659 0.2362 -0.4409
vn 0.8001 0.4471 -0.4000
vn -0.8659 0.2362 -0.4409
vn -0.8001 0.4471 -0.4000
vn -0.7125 0.4071 -0.5715
vn -0.7290 0.5252 -0.4390
vn 0.3368 -0.3212 -0.8851
vn 0.2825 -0.2511 -0.9258
vn -0.0627 0.1488 -0.9869
vn 0.4327 0.1495 -0.8890
vn -0.0314 0.2276 -0.9732
vn 0.4628 -0.0078 -0.8864
vn -0.7636 0.4566 -0.4566
vn 0.4238 -0.1413 -0.8947
vn 0.3368 -0.3211 -0.8851
vn -0.1017 0.0548 -0.9933
vn -0.6213 0.4089 -0.6684
vn -0.9549 0.1894 0.2288
vn -0.9486 0.2352 -0.2117
vn -0.9922 -0.0394 0.1181
vn -0.8740 0.2205 -0.4331
vn -0.9476 0.0940 -0.3054
vn -0.9865 0.0470 -0.1566
vn -0.8342 0.0236 -0.5509
vn -0.9101 0.1334 -0.3923
vn -0.7693 0.0628 -0.6358
vn -0.6338 0.3365 -0.6964
vn 0.9865 0.0470 -0.1566
vn 0.6338 0.3365 -0.6964
vn 0.8740 0.2205 -0.4331
vn 0.6607 0.4326 -0.6135
vn 0.9486 0.2352 -0.2117
vn -0.9361 -0.1574 0.3146
vn -0.9290 -0.1496 0.3385
vn -0.9321 -0.1332 0.3368
vn 0.8953 -0.3377 0.2906
vn 0.9286 -0.1967 0.3148
vn 0.9306 -0.2208 0.2918
vn 0.9214 -0.1181 0.3702
vn -0.9223 -0.1340 0.3626
vn -0.9262 -0.1962 0.3218
vn -0.9285 -0.2203 0.2990
vn -0.8929 -0.3446 0.2898
vn 0.9223 -0.1340 0.3626
vn 0.9027 -0.1099 0.4160
vn 0.8814 -0.0866 0.4643
vn 0.9602 -0.2597 -0.1023
vn -0.9772 -0.2049 -0.0552
vn -0.9798 -0.1333 0.1489
vn -0.9623 -0.2603 -0.0789
vn -0.5246 -0.3994 0.7518
vn 0.1736 -0.4342 0.8839
vn -0.1018 -0.0391 0.9940
vn -0.8630 -0.2197 0.4550
vn -0.5247 -0.3993 0.7518
vn -0.5965 0.1256 0.7927
vn -0.1017 -0.0391 0.9940
vn 0.9796 -0.1881 -0.0705
vn 0.0157 0.5886 0.8083
vn 0.5489 0.6743 0.4940
vn -0.0236 0.7147 0.6990
vn 0.6697 0.5594 0.4885
vn 0.9796 -0.1881 -0.0706
vn -0.0630 0.7477 0.6611
vn 0.1643 0.4380 0.8838
vn 0.5115 0.2361 0.8262
vn 0.0472 0.0157 0.9988
vn 0.3468 -0.0000 0.9379
vn -0.0315 -0.3928 0.9191
vn -0.7075 0.6289 0.3223
vn -0.8013 0.5185 0.2985
vn -0.9074 0.2972 0.2973
vn -0.9230 -0.2682 0.2761
vn -0.8179 -0.2123 0.5348
vn -0.5041 0.3544 -0.7876
vn -0.0000 0.5180 -0.8554
vn -0.5106 -0.1807 -0.8406
vn -0.9452 0.3229 0.0473
vn 0.6613 -0.3228 -0.6771
vn 0.4954 0.1416 -0.8571
vn -0.0000 0.1720 -0.9851
vn 0.6128 -0.7543 0.2357
vn 0.6458 -0.7089 0.2835
vn 0.8516 -0.5125 0.1104
vn 0.7948 -0.5902 0.1416
vn 0.7802 -0.5910 -0.2049
vn -0.0000 0.5835 -0.8121
vn 0.5041 0.3544 -0.7876
vn -0.0000 0.8643 -0.5029
vn -0.3698 0.7240 -0.5823
vn -0.3625 0.9142 -0.1812
vn -0.7948 -0.5902 0.1416
vn -0.7802 -0.5910 -0.2049
vn -0.6613 -0.3228 -0.6771
vn -0.3469 0.2681 0.8988
vn -0.1806 0.2826 0.9421
vn 0.8887 -0.2360 -0.3932
vn 0.8112 0.2678 -0.5198
vn 0.9728 0.2040 -0.1098
vn 0.6782 0.6151 -0.4022
vn 0.7066 0.7066 -0.0393
vn 0.3860 0.9061 -0.1733
vn -0.9595 -0.1652 0.2280
vn -0.9978 0.0471 -0.0472
vn -0.9289 0.0157 0.3700
vn -0.0000 -0.7708 -0.6371
vn 0.7186 0.1500 -0.6791
vn 0.7535 -0.5494 -0.3611
vn 0.9998 0.0157 -0.0157
vn -0.0000 -0.9353 0.3537
vn -0.7285 -0.5327 0.4308
vn -0.8462 -0.1567 0.5093
vn 0.9173 0.0705 0.3920
vn 0.0078 0.8609 0.5087
vn 0.7534 0.2590 0.6044
vn -0.0000 0.6992 0.7149
vn -0.6575 0.7515 -0.0548
vn -0.9024 0.0784 0.4237
vn -0.7485 0.2679 0.6066
vn -0.9429 -0.1100 0.3143
vn -0.9628 -0.0470 0.2661
vn -0.0000 -0.8404 0.5420
vn -0.0000 -0.9096 0.4156
vn 0.8717 -0.1806 0.4555
vn 0.9567 -0.0706 0.2823
vn 0.9372 -0.0394 0.3465
vn 0.0236 0.9588 -0.2829
vn 0.6818 0.7288 -0.0627
vn 0.0157 0.2902 -0.9568
vn 0.9590 -0.2044 0.1964
vn 0.4877 -0.3618 -0.7945
vn -0.0000 -0.4315 -0.9021
vn -0.0000 -0.2425 -0.9701
vn -0.4877 -0.3618 -0.7945
vn -0.5120 0.0236 -0.8586
vn -0.7302 0.0157 -0.6831
vn -0.8676 0.2501 -0.4299
vn -0.5509 -0.0236 -0.8342
vn -0.0000 -0.1019 -0.9948
vn -0.0000 -0.0236 -0.9997
vn 0.5509 -0.0236 -0.8342
vn 0.5973 -0.0236 -0.8017
vn 0.8589 -0.0079 -0.5121
vn 0.8979 -0.0787 -0.4332
vn 0.9723 -0.1803 -0.1490
vn 0.9844 -0.0315 -0.1732
vn -0.8589 -0.0079 -0.5121
vn -0.5973 -0.0236 -0.8017
vn -0.0000 0.1173 -0.9931
vn -0.5508 0.1180 -0.8262
vn -0.9913 0.0394 0.1259
vn -0.6607 0.4326 -0.6135
vn 0.9913 0.0393 0.1259
vn 0.9549 0.1894 0.2288
vn 0.9922 -0.0394 0.1181
vn 0.9476 0.0940 -0.3054
vn -0.9125 0.4090 0.0079
vn -0.9030 0.4083 0.1335
vn -0.8511 0.4256 0.3074
vn -0.7707 0.5190 0.3696
vn -0.6055 0.4875 0.6291
vn 0.7158 -0.2675 0.6451
vn 0.1737 -0.4341 0.8840
vn 0.4791 0.1021 0.8718
vn 0.1022 0.5662 0.8179
vn 0.3614 0.1964 0.9115
vn 0.7290 0.2743 0.6271
vn 0.7210 0.4780 0.5016
vn 0.9958 -0.0314 -0.0862
vn 0.9945 0.0470 0.0940
vn 0.8973 0.0865 0.4329
vn 0.7879 0.5909 0.1734
vn 0.5427 0.5820 0.6056
vn 0.4472 0.8709 0.2040
vn 0.0472 0.9530 0.2993
vn -0.5770 0.6007 0.5533
vn -0.6444 0.1650 0.7466
vn -0.3848 -0.3455 0.8559
vn -0.3298 -0.6596 0.6754
vn -0.0157 0.5886 0.8083
vn 0.6055 0.4875 0.6290
vn 0.0236 0.7147 0.6990
vn 0.7676 0.5247 0.3681
vn 0.8511 0.4256 0.3073
vn 0.9030 0.4083 0.1335
vn 0.9125 0.4090 0.0079
vn -0.9735 -0.2198 -0.0628
vn -0.8654 -0.4642 0.1888
vn -0.7856 -0.5185 0.3377
vn -0.7210 0.4781 0.5016
vn -0.6697 0.5594 0.4885
vn -0.5489 0.6743 0.4940
vn -0.0862 -0.4549 -0.8864
vn -0.5494 -0.3924 -0.7377
vn -0.8887 -0.2360 -0.3932
vn -0.9744 0.2043 -0.0943
vn -0.8977 0.3859 0.2126
vn -0.7138 0.6982 -0.0549
vn -0.0000 1.0000 -0.0000
vn 0.0473 0.9530 0.2993
vn 0.3067 0.9517 0.0157
vn 0.6025 0.7981 -0.0078
vn 0.7879 0.5909 0.1733
vn 0.8896 0.4566 -0.0157
vn 0.7534 0.2590 0.6043
vn 0.9663 -0.1335 0.2199
vn 0.7684 -0.5175 0.3764
vn -0.7485 0.2679 0.6067
vn -0.5182 0.6126 0.5968
vn -0.5747 0.8109 0.1102
vn -0.2752 0.9593 0.0629
vn -0.0000 0.9940 -0.1096
vn 0.5822 -0.3855 -0.7159
vn -0.4954 0.1415 -0.8571
vn -0.7377 -0.5494 -0.3924
vn -0.6925 0.1731 -0.7004
vn -0.2051 -0.6389 -0.7415
vn 0.4807 -0.0630 -0.8746
vn -0.7985 0.1331 0.5871
vt 0.322327 0.573151
vt 0.197388 0.479706
vt 0.174316 0.554810
vt 0.193176 0.025330
vt 0.130737 0.049805
vt 0.124512 0.009979
vt 0.310944 0.027435
vt 0.150482 0.009979
vt 0.145508 0.009979
vt 0.118896 0.454529
vt 0.041351 0.180664
vt 0.042786 0.467468
vt 0.332611 0.009979
vt 0.781799 0.013092
vt 0.855377 0.181030
vt 0.739807 0.130890
vt 0.702637 0.221466
vt 0.816498 0.256042
vt 0.668091 0.322876
vt 0.610504 0.360016
vt 0.638275 0.437775
vt 0.015411 0.029388
vt 0.799286 0.902771
vt 0.812927 0.989990
vt 0.989990 0.989990
vt 0.122040 0.445862
vt 0.205078 0.415527
vt 0.146088 0.512360
vt 0.930176 0.545319
vt 0.811310 0.470154
vt 0.785797 0.571228
vt 0.021301 0.949127
vt 0.360321 0.911469
vt 0.020386 0.989990
vt 0.307831 0.989990
vt 0.423981 0.676331
vt 0.402374 0.830597
vt 0.180023 0.851105
vt 0.638336 0.838989
vt 0.630554 0.939941
vt 0.593079 0.989990
vt 0.355927 0.486176
vt 0.464935 0.570160
vt 0.615784 0.571869
vt 0.610229 0.509918
vt 0.565399 0.552734
vt 0.551544 0.488373
vt 0.196381 0.629639
vt 0.469879 0.483063
vt 0.457886 0.643036
vt 0.319458 0.054901
vt 0.209381 0.212341
vt 0.318451 0.334412
vt 0.168396 0.268127
vt 0.209534 0.504272
vt 0.186768 0.009979
vt 0.136169 0.184723
vt 0.151398 0.443848
vt 0.335297 0.047516
vt 0.152740 0.016235
vt 0.345795 0.237457
vt 0.208221 0.419617
vt 0.198364 0.363220
vt 0.318390 0.343903
vt 0.177185 0.210358
vt 0.009979 0.009979
vt 0.831299 0.928741
vt 0.667267 0.829742
vt 0.828857 0.702881
vt 0.323242 0.278381
vt 0.275024 0.366455
vt 0.267273 0.256805
vt 0.340759 0.059906
vt 0.263733 0.076508
vt 0.261383 0.276398
vt 0.082916 0.658600
vt 0.009979 0.540771
vt 0.174042 0.350830
vt 0.009979 0.099182
vt 0.287811 0.009979
vt 0.286255 0.058563
vt 0.298431 0.184601
vt 0.331818 0.171112
vt 0.339508 0.281891
vt 0.109528 0.009979
vt 0.075439 0.093719
vt 0.151489 0.191925
vt 0.169312 0.312927
vt 0.222076 0.279938
vt 0.633698 0.095459
vt 0.545990 0.021423
vt 0.512543 0.070312
vt 0.448547 0.246124
vt 0.404907 0.248810
vt 0.394989 0.010864
vt 0.544861 0.323914
vt 0.540985 0.232849
vt 0.634796 0.009979
vt 0.910461 0.096344
vt 0.930298 0.293030
vt 0.818298 0.601685
vt 0.866119 0.619995
vt 0.616455 0.207855
vt 0.741394 0.330383
vt 0.864746 0.337189
vt 0.170807 0.077118
vt 0.177429 0.099579
vt 0.312256 0.009979
vt 0.048279 0.110596
vt 0.122620 0.176025
vt 0.103180 0.073578
vt 0.179138 0.099579
vt 0.038696 0.033234
vt 0.119080 0.039917
vt 0.181763 0.030151
vt 0.170929 0.031158
vt 0.046600 0.095795
vt 0.116180 0.009979
vt 0.036560 0.019623
vt 0.110809 0.142120
vt 0.250763 0.009979
vt 0.194336 0.045471
vt 0.030334 0.057526
vt 0.035400 0.067780
vt 0.041046 0.225037
vt 0.043488 0.163849
vt 0.009979 0.893097
vt 0.009979 0.711945
vt 0.165680 0.695312
vt 0.989990 0.819794
vt 0.989990 0.683563
vt 0.807892 0.691071
vt 0.790314 0.808380
vt 0.989990 0.925140
vt 0.623779 0.683167
vt 0.610504 0.644562
vt 0.289429 0.009979
vt 0.339905 0.062286
vt 0.349121 0.129272
vt 0.118042 0.063690
vt 0.343475 0.200562
vt 0.325348 0.326477
vt 0.202362 0.386261
vt 0.173370 0.312500
vt 0.175232 0.090576
vt 0.078674 0.662628
vt 0.043701 0.441864
vt 0.125061 0.373291
vt 0.039398 0.135590
vt 0.132507 0.211914
vt 0.056152 0.040863
vt 0.224579 0.041351
vt 0.238220 0.206207
vt 0.278534 0.401611
vt 0.206512 0.428284
vt 0.240784 0.381989
vt 0.427734 0.009979
vt 0.532867 0.123199
vt 0.744141 0.411407
vt 0.989990 0.426819
vt 0.989990 0.552795
vt 0.934204 0.440155
vt 0.867279 0.431244
vt 0.114502 0.009979
vt 0.989990 0.262238
vt 0.103973 0.074188
vt 0.122955 0.176392
vt 0.483978 0.053772
vt 0.725739 0.508636
s 1
usemtl f_hair0122
f 1/1/1 2/2/2 3/3/3
f 4/4/4 5/5/5 6/6/6
f 7/7/7 8/8/8 9/9/9
f 10/10/10 11/11/11 12/12/12
f 13/7/13 14/8/14 15/13/15
f 16/14/16 17/15/17 18/16/18
f 19/16/19 20/17/20 21/18/21
f 22/19/22 23/20/23 24/21/24
f 25/22/25 26/9/26 8/8/27
f 27/23/28 28/24/29 29/25/30
f 30/26/31 31/27/32 32/28/33
f 33/29/34 34/30/35 35/31/36
f 36/32/37 37/33/38 38/34/39
f 38/34/39 37/33/38 39/35/40
f 40/36/41 41/37/42 42/38/43
f 40/36/41 43/37/44 44/39/45
f 45/39/46 46/40/47 37/33/38
f 37/33/38 46/40/47 47/41/48
f 37/33/38 47/41/48 39/35/40
f 28/24/29 48/40/49 49/41/50
f 49/41/50 48/40/49 50/33/51
f 49/41/50 50/33/51 51/35/52
f 52/42/53 2/2/2 53/43/54
f 54/44/55 55/45/56 56/46/57
f 56/46/57 55/45/56 57/47/58
f 3/3/3 58/48/59 1/1/1
f 59/49/60 52/42/61 60/43/62
f 2/2/2 1/1/1 60/43/62
f 60/43/62 1/1/1 58/48/59
f 60/43/62 58/48/59 61/50/63
f 62/51/64 63/52/65 64/53/66
f 64/53/66 63/52/65 65/54/67
f 64/53/66 65/54/67 66/55/68
f 67/56/69 68/6/70 69/4/71
f 69/4/71 68/6/70 70/5/72
f 69/4/71 70/5/72 71/57/73
f 72/56/74 4/4/4 6/6/6
f 73/57/75 74/54/76 75/58/77
f 5/5/5 4/4/4 73/57/75
f 73/57/75 4/4/4 76/52/78
f 73/57/75 76/52/78 74/54/76
f 77/59/79 78/60/80 79/61/81
f 80/62/82 81/63/83 82/64/84
f 82/64/84 81/63/83 83/61/85
f 78/60/80 84/65/86 79/61/81
f 79/61/81 84/65/86 85/63/87
f 79/61/81 85/63/87 86/64/88
f 86/64/88 85/63/87 87/62/89
f 81/63/83 88/65/90 83/61/85
f 83/61/85 88/65/90 89/60/91
f 83/61/85 89/60/91 90/59/92
f 25/22/25 8/8/27 91/66/93
f 92/67/94 93/68/95 94/69/96
f 95/70/97 96/71/98 97/72/99
f 98/73/100 95/70/101 99/74/102
f 99/74/102 95/70/101 100/75/103
f 8/8/8 7/7/7 101/13/104
f 102/76/105 103/77/106 104/78/107
f 104/78/107 103/77/106 105/79/108
f 106/69/93 107/68/27 108/67/109
f 109/80/110 110/81/111 111/73/112
f 111/73/112 110/81/111 112/82/113
f 111/73/112 112/82/113 113/83/114
f 113/83/114 112/82/113 114/84/115
f 115/85/116 116/86/117 117/87/118
f 117/87/118 116/86/117 11/11/11
f 11/11/11 10/10/10 117/87/118
f 117/87/118 10/10/10 118/88/119
f 117/87/118 118/88/119 119/89/120
f 120/90/121 121/91/122 122/92/123
f 14/8/14 13/7/13 123/9/124
f 124/93/125 125/94/126 126/95/127
f 127/21/128 128/20/129 129/19/130
f 129/19/130 128/20/129 130/96/131
f 129/19/130 130/96/131 131/97/132
f 131/97/132 130/96/131 124/93/125
f 132/98/133 16/14/16 133/90/134
f 133/90/134 16/14/16 18/16/18
f 17/15/17 16/14/16 134/99/135
f 134/99/135 16/14/16 135/15/136
f 134/99/135 135/15/136 136/100/137
f 20/17/20 19/16/19 120/90/121
f 23/20/23 22/19/22 137/96/138
f 137/96/138 22/19/22 138/97/139
f 137/96/138 138/97/139 139/93/140
f 35/31/36 140/101/141 33/29/34
f 33/29/34 140/101/141 141/102/142
f 142/103/143 143/17/144 144/104/145
f 144/104/145 143/17/144 145/18/146
f 144/104/145 145/18/146 146/105/147
f 146/105/147 145/18/146 147/100/148
f 148/106/149 149/107/150 150/108/151
f 151/109/152 152/110/153 153/111/154
f 153/111/154 152/110/153 154/112/155
f 155/113/156 156/114/157 157/115/158
f 158/116/159 159/117/160 160/118/161
f 160/118/161 159/117/160 161/119/162
f 162/120/163 163/116/164 159/117/160
f 159/117/160 163/116/164 164/118/165
f 159/117/160 164/118/165 161/119/162
f 156/114/157 165/121/166 157/115/158
f 157/115/158 165/121/166 150/108/151
f 157/115/158 150/108/151 166/122/167
f 166/122/167 150/108/151 149/107/150
f 167/123/168 168/124/169 169/115/170
f 169/115/170 168/124/169 170/122/171
f 169/115/170 170/122/171 171/108/172
f 172/125/173 173/120/174 174/126/175
f 175/106/176 154/112/155 173/120/174
f 173/120/174 154/112/155 152/110/153
f 173/120/174 152/110/153 174/126/175
f 174/126/175 152/110/153 151/109/152
f 176/127/177 177/128/178 178/129/179
f 178/129/179 177/128/178 179/127/180
f 178/129/179 179/127/180 180/38/181
f 180/38/181 179/127/180 181/32/182
f 180/38/181 181/32/182 50/33/51
f 50/33/51 181/32/182 182/34/183
f 50/33/51 182/34/183 51/35/52
f 183/130/184 184/131/185 185/132/186
f 185/132/186 184/131/185 186/130/187
f 185/132/186 186/130/187 187/133/188
f 187/133/188 186/130/187 188/134/189
f 187/133/188 188/134/189 189/23/190
f 189/23/190 188/134/189 190/25/191
f 189/23/190 190/25/191 191/24/192
f 192/134/193 183/130/184 193/133/194
f 193/133/194 183/130/184 185/132/186
f 193/133/194 185/132/186 194/135/195
f 194/135/195 185/132/186 187/133/188
f 194/135/195 187/133/188 45/39/46
f 45/39/46 187/133/188 189/23/190
f 45/39/46 189/23/190 46/40/47
f 46/40/47 189/23/190 191/24/192
f 46/40/47 191/24/192 47/41/48
f 195/136/196 54/44/55 61/50/63
f 61/50/63 54/44/55 56/46/57
f 61/50/63 56/46/57 60/43/62
f 60/43/62 56/46/57 57/47/58
f 60/43/62 57/47/58 59/49/60
f 196/137/197 67/56/69 62/51/64
f 62/51/64 67/56/69 69/4/71
f 62/51/64 69/4/71 63/52/65
f 63/52/65 69/4/71 71/57/73
f 63/52/65 71/57/73 65/54/67
f 65/54/67 71/57/73 197/58/198
f 65/54/67 197/58/198 66/55/68
f 72/56/74 198/137/199 4/4/4
f 4/4/4 198/137/199 199/51/200
f 4/4/4 199/51/200 76/52/78
f 76/52/78 199/51/200 200/53/201
f 76/52/78 200/53/201 74/54/76
f 74/54/76 200/53/201 201/55/202
f 74/54/76 201/55/202 75/58/77
f 13/7/13 202/138/203 123/9/124
f 123/9/124 202/138/203 203/139/204
f 123/9/124 203/139/204 204/140/205
f 204/140/205 203/139/204 205/141/206
f 204/140/205 205/141/206 104/78/107
f 104/78/107 205/141/206 206/142/207
f 104/78/107 206/142/207 102/76/105
f 31/27/32 207/143/208 96/71/209
f 96/71/209 207/143/208 208/144/210
f 96/71/209 208/144/210 100/75/103
f 100/75/103 208/144/210 209/145/211
f 100/75/103 209/145/211 99/74/102
f 210/66/96 14/8/95 211/22/212
f 211/22/212 14/8/95 212/9/213
f 211/22/212 212/9/213 105/79/108
f 105/79/108 212/9/213 213/140/214
f 105/79/108 213/140/214 104/78/107
f 32/28/33 214/146/215 30/26/31
f 30/26/31 214/146/215 215/147/216
f 30/26/31 215/147/216 216/148/217
f 216/148/217 215/147/216 217/149/218
f 216/148/217 217/149/218 218/150/219
f 218/150/219 217/149/218 219/151/220
f 218/150/219 219/151/220 220/85/221
f 109/80/110 221/152/222 110/81/111
f 110/81/111 221/152/222 222/153/223
f 110/81/111 222/153/223 112/82/113
f 112/82/113 222/153/223 223/72/224
f 112/82/113 223/72/224 114/84/115
f 109/80/110 115/85/116 221/152/222
f 221/152/222 115/85/116 117/87/118
f 221/152/222 117/87/118 222/153/223
f 222/153/223 117/87/118 119/89/120
f 222/153/223 119/89/120 223/72/224
f 223/72/224 119/89/120 224/154/225
f 223/72/224 224/154/225 114/84/115
f 225/76/226 226/142/227 227/78/228
f 227/78/228 226/142/227 228/141/229
f 227/78/228 228/141/229 229/140/230
f 229/140/230 228/141/229 230/139/231
f 229/140/230 230/139/231 9/9/9
f 9/9/9 230/139/231 231/138/232
f 9/9/9 231/138/232 7/7/7
f 12/12/12 232/146/233 10/10/10
f 10/10/10 232/146/233 233/155/234
f 10/10/10 233/155/234 118/88/119
f 118/88/119 233/155/234 234/156/235
f 118/88/119 234/156/235 119/89/120
f 26/9/26 25/22/25 235/140/236
f 235/140/236 25/22/25 236/79/237
f 235/140/236 236/79/237 227/78/228
f 227/78/228 236/79/237 237/77/238
f 227/78/228 237/77/238 225/76/226
f 238/157/239 139/93/140 239/158/240
f 239/158/240 139/93/140 138/97/139
f 239/158/240 138/97/139 240/103/241
f 240/103/241 138/97/139 22/19/22
f 240/103/241 22/19/22 241/104/242
f 241/104/242 22/19/22 242/159/243
f 241/104/242 242/159/243 243/105/244
f 244/160/245 245/161/246 246/162/247
f 246/162/247 245/161/246 247/29/220
f 246/162/247 247/29/220 248/163/248
f 248/163/248 247/29/220 249/30/249
f 248/163/248 249/30/249 250/159/250
f 158/116/159 251/164/251 171/108/172
f 171/108/172 251/164/251 252/121/252
f 171/108/172 252/121/252 169/115/170
f 169/115/170 252/121/252 253/114/253
f 169/115/170 253/114/253 167/123/168
f 165/121/166 254/164/254 150/108/151
f 150/108/151 254/164/254 163/116/164
f 150/108/151 163/116/164 148/106/149
f 148/106/149 163/116/164 162/120/163
f 148/106/149 162/120/163 149/107/150
f 28/24/29 27/23/28 48/40/49
f 48/40/49 27/23/28 44/39/45
f 48/40/49 44/39/45 50/33/51
f 50/33/51 44/39/45 43/37/44
f 50/33/51 43/37/44 180/38/181
f 180/38/181 43/37/44 40/36/41
f 180/38/181 40/36/41 178/129/179
f 178/129/179 40/36/41 42/38/43
f 178/129/179 42/38/43 176/127/177
f 29/25/30 192/134/193 27/23/28
f 27/23/28 192/134/193 193/133/194
f 27/23/28 193/133/194 44/39/45
f 44/39/45 193/133/194 194/135/195
f 44/39/45 194/135/195 40/36/41
f 40/36/41 194/135/195 45/39/46
f 40/36/41 45/39/46 41/37/42
f 41/37/42 45/39/46 37/33/38
f 41/37/42 37/33/38 42/38/43
f 42/38/43 37/33/38 36/32/37
f 42/38/43 36/32/37 176/127/177
f 31/27/32 30/26/31 207/143/208
f 207/143/208 30/26/31 216/148/217
f 207/143/208 216/148/217 208/144/210
f 208/144/210 216/148/217 218/150/219
f 208/144/210 218/150/219 209/145/211
f 209/145/211 218/150/219 220/85/221
f 209/145/211 220/85/221 99/74/102
f 99/74/102 220/85/221 255/80/255
f 99/74/102 255/80/255 98/73/100
f 34/30/35 33/29/34 256/163/256
f 256/163/256 33/29/34 257/162/257
f 256/163/256 257/162/257 136/100/137
f 136/100/137 257/162/257 258/165/258
f 136/100/137 258/165/258 134/99/135
f 134/99/135 258/165/258 147/100/148
f 134/99/135 147/100/148 17/15/17
f 17/15/17 147/100/148 145/18/146
f 17/15/17 145/18/146 18/16/18
f 18/16/18 145/18/146 143/17/144
f 18/16/18 143/17/144 133/90/134
f 133/90/134 143/17/144 142/103/143
f 133/90/134 142/103/143 259/158/259
f 33/29/34 245/161/246 257/162/257
f 257/162/257 245/161/246 244/160/245
f 257/162/257 244/160/245 258/165/258
f 258/165/258 244/160/245 246/162/247
f 258/165/258 246/162/247 147/100/148
f 147/100/148 246/162/247 248/163/248
f 147/100/148 248/163/248 146/105/147
f 146/105/147 248/163/248 250/159/250
f 146/105/147 250/159/250 144/104/145
f 144/104/145 250/159/250 129/19/130
f 144/104/145 129/19/130 142/103/143
f 142/103/143 129/19/130 131/97/132
f 142/103/143 131/97/132 259/158/259
f 259/158/259 131/97/132 124/93/125
f 259/158/259 124/93/125 238/157/239
f 238/157/239 124/93/125 126/95/127
f 238/157/239 126/95/127 139/93/140
f 139/93/140 126/95/127 260/94/260
f 253/114/253 155/113/156 167/123/168
f 167/123/168 155/113/156 157/115/158
f 167/123/168 157/115/158 168/124/169
f 168/124/169 157/115/158 166/122/167
f 168/124/169 166/122/167 261/166/261
f 261/166/261 166/122/167 149/107/150
f 261/166/261 149/107/150 262/167/262
f 262/167/262 149/107/150 162/120/163
f 262/167/262 162/120/163 172/125/173
f 172/125/173 162/120/163 159/117/160
f 172/125/173 159/117/160 173/120/174
f 173/120/174 159/117/160 158/116/159
f 173/120/174 158/116/159 175/106/176
f 175/106/176 158/116/159 171/108/172
f 175/106/176 171/108/172 154/112/155
f 154/112/155 171/108/172 170/122/171
f 154/112/155 170/122/171 153/111/154
f 153/111/154 170/122/171 168/124/169
f 153/111/154 168/124/169 151/109/152
f 151/109/152 168/124/169 261/166/261
f 151/109/152 261/166/261 174/126/175
f 174/126/175 261/166/261 262/167/262
f 174/126/175 262/167/262 172/125/173
f 243/105/244 21/18/21 241/104/242
f 241/104/242 21/18/21 20/17/20
f 241/104/242 20/17/20 240/103/241
f 240/103/241 20/17/20 120/90/121
f 240/103/241 120/90/121 239/158/240
f 239/158/240 120/90/121 122/92/123
f 239/158/240 122/92/123 238/157/239
f 238/157/239 122/92/123 263/168/263
f 238/157/239 263/168/263 259/158/259
f 259/158/259 263/168/263 264/92/264
f 259/158/259 264/92/264 133/90/134
f 133/90/134 264/92/264 121/91/122
f 133/90/134 121/91/122 132/98/133
f 132/98/133 121/91/122 120/90/121
f 132/98/133 120/90/121 16/14/16
f 16/14/16 120/90/121 19/16/19
f 16/14/16 19/16/19 135/15/136
f 135/15/136 19/16/19 21/18/21
f 135/15/136 21/18/21 136/100/137
f 136/100/137 21/18/21 243/105/244
f 136/100/137 243/105/244 256/163/256
f 256/163/256 243/105/244 242/159/243
f 256/163/256 242/159/243 34/30/35
f 34/30/35 242/159/243 265/169/265
f 34/30/35 265/169/265 35/31/36
o editpl_f-0000-1926
v -0.076717 59.649963 -15.777878
v 1.991994 57.843655 -14.085288
v 1.732743 58.494953 -16.216862
v 2.600438 55.360378 -14.283108
v 2.253889 56.361389 -16.424685
v -0.079362 54.654537 -16.782539
v -0.079362 53.692024 -15.676744
v -2.396741 56.348553 -16.548044
v -2.761808 55.360378 -14.283108
v -1.894113 58.494953 -16.216862
v -2.372933 57.827614 -14.060838
v -0.082008 59.325920 -13.896358
v -0.079362 54.587162 -18.415117
v -3.267081 56.576347 -18.541811
v -3.169201 59.159084 -18.060595
v -0.066135 60.747227 -17.381559
v 3.010476 59.159084 -18.060595
v 3.105711 56.576347 -18.541811
vn -0.0000 0.9096 0.4156
vn 0.8271 0.5593 0.0551
vn 0.8129 0.4894 0.3157
vn 0.9256 -0.2432 -0.2902
vn 0.9289 -0.3700 0.0157
vn -0.0000 -0.9720 -0.2352
vn -0.0000 -0.8247 -0.5656
vn -0.9224 -0.3863 0.0079
vn -0.9088 -0.2664 -0.3212
vn -0.8195 0.4886 0.2994
vn -0.8308 0.5565 0.0078
vn 0.0079 0.9848 0.1733
vn -0.0000 -0.9940 0.1095
vn -0.8185 -0.4643 0.3384
vn -0.7422 0.3790 0.5527
vn -0.0000 0.7847 0.6199
vn 0.7432 0.3874 0.5455
vn 0.8262 -0.4564 0.3305
vt 0.450043 0.445953
vt 0.556305 0.350586
vt 0.452087 0.350586
vt 0.556305 0.445953
vt 0.447998 0.445953
vt 0.450836 0.350586
vt 0.351013 0.350586
vt 0.351013 0.445953
s 1
usemtl f_hair0122
f 266/170/266 267/171/267 268/172/268
f 268/172/268 267/171/267 269/173/269
f 268/172/268 269/173/269 270/174/270
f 271/175/271 272/171/272 273/174/273
f 273/174/273 272/171/272 274/173/274
f 273/174/273 274/173/274 275/172/275
f 275/172/275 274/173/274 276/171/276
f 275/172/275 276/171/276 266/170/266
f 266/170/266 276/171/276 277/173/277
f 266/170/266 277/173/277 267/171/267
f 269/173/269 272/171/272 270/174/270
f 270/174/270 272/171/272 271/175/271
f 270/174/270 271/175/271 278/176/278
f 278/176/278 271/175/271 273/174/273
f 278/176/278 273/174/273 279/177/279
f 279/177/279 273/174/273 275/172/275
f 279/177/279 275/172/275 280/176/280
f 280/176/280 275/172/275 266/170/266
f 280/176/280 266/170/266 281/177/281
f 281/177/281 266/170/266 268/172/268
f 281/177/281 268/172/268 282/176/282
f 282/176/282 268/172/268 270/174/270
f 282/176/282 270/174/270 283/177/283
f 283/177/283 270/174/270 278/176/278
