mtllib f_hair016.mtl
o editpl_f-0000-1920
v -11.327645 39.373081 -4.682132
v -10.578994 44.817680 -4.974417
v -11.824982 44.792015 -7.270473
v -5.946881 62.624123 6.955951
v -4.222074 61.937531 9.238669
v -4.782901 64.427223 6.960396
v -6.600298 56.804142 8.450721
v -6.563262 56.409512 9.652094
v -5.893973 58.985832 9.160875
v -2.862333 64.914894 -8.524079
v -0.002645 61.292648 -12.028173
v -4.949562 61.173939 -10.813466
v -9.695427 45.257229 -6.354717
v -10.647775 38.510033 -7.719458
v -8.534092 38.301491 -4.717695
v -6.608234 56.958145 6.272470
v -8.385949 55.305836 3.967525
v -7.145252 54.917622 5.897943
v 11.327645 39.373081 -4.682132
v 8.227225 44.843349 -3.052889
v 9.153118 40.191216 -3.005100
v 9.584320 53.323063 -3.417413
v 6.576489 53.188313 -1.694817
v -9.174281 31.461250 -5.417846
v -8.534092 38.301491 -4.717695
v -13.081552 31.451624 -9.703222
v -12.359355 22.339859 -13.857458
v -12.700613 23.594334 -9.923270
v 9.124019 55.880135 3.901955
v 6.573843 38.115402 6.712567
v 8.049982 39.401958 3.707469
v 9.695427 45.257229 -6.354717
v 10.647775 38.510033 -7.719458
v 8.600227 45.359898 -9.677663
v 9.190154 20.292921 -17.874998
v 9.213962 31.345747 -17.818319
v 12.359355 22.339859 -13.857458
v 10.578994 44.817680 -4.974417
v 9.441468 32.686848 -0.726827
v 10.787981 37.265186 -5.011092
v 11.824982 44.792015 -7.270473
v 10.708619 30.976786 -5.461189
v 13.081552 31.451624 -9.703222
v 10.787981 37.265186 -5.011092
v 12.735003 38.169945 -8.387381
v 0.000000 18.233149 -19.938780
v -9.190154 20.292921 -17.874998
v 0.000000 31.243078 -19.922110
v -9.213962 31.345747 -17.818319
v 0.000000 38.195614 -18.585154
v -9.153118 40.191216 -3.005100
v 7.121443 31.753208 -15.115510
v 6.901874 22.596529 -15.268876
v 0.000000 31.669790 -18.042812
v 0.000000 21.232973 -18.192844
v -7.121443 31.753208 -15.115510
v -5.893973 58.985832 9.160875
v -8.600227 45.359898 -9.677663
v -8.703398 50.098656 -4.414297
v 5.452190 45.395187 -12.815011
v 0.000000 45.709610 -15.059943
v 0.000000 50.955288 -12.412701
v -5.452190 45.395187 -12.815011
v -4.200911 50.746746 -11.754781
v -7.616135 50.650494 -8.534081
v -8.407112 54.436367 4.349830
v -9.065820 58.251118 0.278946
v -9.589611 53.136978 0.300061
v -10.020812 55.992428 -1.559232
v -7.079117 54.375408 6.494740
v -7.764278 55.758217 2.271601
v -8.465311 60.301262 0.923529
v -7.954747 54.972164 -1.474769
v -10.787981 37.265186 -5.011092
v -9.441468 32.686848 -0.726827
v 6.177032 60.105553 8.278461
v 5.547424 59.386879 10.398921
v 7.512964 57.663986 5.696790
v 6.981237 52.812935 6.605876
v 7.576454 54.882332 6.633660
v 5.547424 54.776455 9.309797
v 6.007726 57.542068 9.904370
v 4.610949 57.086479 10.315570
v -2.015802 67.407799 -0.763504
v -2.280343 66.426033 4.348718
v 1.891468 67.398170 -0.597913
v 1.891468 66.323364 4.759918
v 4.708830 65.441071 3.937517
v 0.000000 64.712769 -9.228677
v -9.491730 38.599869 -11.119086
v -8.600227 45.359898 -9.677663
v -6.288139 38.593449 -14.158635
v 5.975981 52.366970 8.539630
v 5.200876 54.776455 9.741002
v 3.468132 54.599995 10.735662
v 2.439068 56.464054 11.611408
v 1.380904 58.947330 11.601405
v -1.751261 58.985832 10.590075
v -0.894149 61.193188 11.530278
v -2.581920 61.382484 9.640979
v -0.216924 64.433640 8.973056
v -2.417905 64.263596 7.966171
v 2.208917 63.317127 9.853248
v 2.087228 64.090347 8.908598
v -5.933654 52.877102 7.725008
v -4.013087 57.391273 10.121083
v -3.357025 59.457462 9.612084
v -11.116012 52.524181 -5.710134
v -9.584320 53.323063 -3.417413
v -11.012841 56.800934 -5.011093
v -9.153118 56.762432 -2.156028
v -9.954677 60.679852 -3.784161
v -8.637263 57.769859 3.098447
v -7.978556 60.230679 4.239805
v -8.465311 60.301262 0.923529
v -6.888647 62.954582 4.003087
v -7.925648 57.769859 3.798599
v -6.285494 58.995457 6.695896
v -7.507673 60.230679 3.734140
v -10.676874 25.002806 -5.621224
v -8.465311 60.301262 0.923529
v -7.994429 63.714966 -2.586123
v -4.761738 65.441071 3.937517
v -5.005115 66.262405 -1.500331
v 9.949386 60.679852 -3.784161
v 9.153118 56.762432 -2.156028
v 11.012841 56.800934 -5.011093
v -2.280343 66.426033 4.348718
v -2.417905 64.263596 7.966171
v -2.581920 61.382484 9.640979
v 7.901839 55.742172 1.961533
v 7.954747 54.972164 -1.474769
v 8.642554 60.240303 0.383412
v 8.642554 60.240303 0.383412
v 8.669008 59.486340 4.089774
v 8.989103 56.175304 0.195594
v -5.893973 58.985832 9.160875
v -4.222074 61.937531 9.238669
v -2.939050 60.978230 9.829909
v -2.581920 61.382484 9.640979
v -4.827873 47.368336 -5.770146
v -4.767029 51.779839 -9.093091
v 0.039681 47.442127 -8.588537
v -5.960108 47.564045 -1.426981
v -7.425665 52.277138 -1.690371
v -6.790767 52.155216 -5.186687
v -5.875455 45.616566 -1.717043
v 9.491730 38.599869 -11.119086
v 10.383234 31.897587 -12.103744
v 11.655676 31.769253 -8.594093
v 10.219218 23.764376 -12.540504
v 11.568377 24.935431 -8.818584
v 7.893903 45.369522 -4.020877
v 8.534092 38.301491 -4.717695
v 9.174281 31.461250 -5.417846
v 8.769534 26.023067 -5.588994
v 11.116012 52.524181 -5.710134
v -6.901874 22.596529 -15.268876
v -10.219218 23.764376 -12.540504
v -10.383234 31.897587 -12.103744
v -11.568377 24.935431 -8.818584
v -11.655676 31.769253 -8.594093
v -8.769534 26.023067 -5.588994
v 9.989068 55.514378 2.870620
v 3.724737 59.736591 10.802342
v 0.600508 60.638142 11.369132
v 2.330606 61.565361 10.502277
v 3.428451 62.476536 10.169983
v 3.949597 63.323544 8.845251
v 8.642554 60.240303 0.383412
v 7.147897 63.025166 4.047541
v 8.116117 63.689301 -2.573898
v 4.941626 66.162949 -1.090242
v 0.000000 45.501064 -16.915901
v -8.740434 38.166737 -16.434687
v -12.584215 31.454830 -13.424030
v 7.370112 50.223782 -2.141581
v 8.703398 50.098656 -4.414297
v 9.518185 54.019279 -3.688583
v 7.616135 50.650494 -8.534081
v 6.743150 54.170074 -10.006623
v 4.200911 50.746746 -11.754781
v 0.000000 53.720901 -12.298232
v -10.708619 30.976786 -5.461189
v -12.735003 38.169945 -8.387381
v -12.113332 38.157112 -12.273781
v -11.126594 44.949226 -11.093526
v -7.912421 45.234772 -14.735428
v -7.256359 51.876091 -12.750553
v -1.269797 66.782166 -5.188910
v 2.862333 64.914894 -8.524079
v 5.261720 61.173939 -10.813466
v 6.497127 57.407314 -12.098189
v 0.796268 55.559296 11.210210
v 2.103101 54.564701 11.322457
v 0.523791 56.528221 11.975932
v 1.529047 56.579556 11.765886
v -0.185179 58.860706 12.088178
v 1.066100 58.607246 11.862574
v 7.954747 54.972164 -1.474769
v -8.227225 44.843349 -3.052889
v -6.576489 53.188313 -1.694817
v -7.954747 54.972164 -1.474769
v -10.787981 37.265186 -5.011092
v -10.354134 52.030090 -9.449835
v -9.877960 57.224438 -9.015297
v -6.497127 57.407314 -12.098189
v -8.518220 61.199608 -7.760580
v -6.780185 38.554951 6.299144
v -8.018237 39.838295 4.044209
v -7.983847 56.197762 0.103352
v -7.835704 58.251118 0.260053
v -7.997074 60.301262 0.416752
v 6.044761 47.564045 -1.426981
v 5.960108 45.616566 -1.717043
v 4.912526 47.368336 -5.770146
v 4.923108 45.177021 -6.041317
v 0.039681 45.193062 -8.994181
v -4.841100 45.177021 -6.041317
v 0.039681 51.722088 -12.043732
v 4.851682 52.058968 -9.093091
v 6.875420 52.155216 -5.186687
v 7.510319 52.277138 -1.690371
v 0.000000 38.410572 -16.738087
v 6.288139 38.593449 -14.158635
v 0.000000 51.908173 -14.994374
v 0.000000 57.336731 -14.081954
v -5.624141 65.364067 -6.067990
v -7.893903 45.369522 -4.020877
v -7.370112 50.223782 -2.141581
v -9.523475 54.019279 -3.688583
v -6.610879 54.170074 -10.006623
v -0.505273 56.849060 11.099074
v 6.740504 55.986008 6.762577
v 12.700613 23.594334 -9.923270
v 12.584215 31.454830 -13.424030
v 12.113332 38.157112 -12.273781
v 8.740434 38.166737 -16.434687
v 11.126594 44.949226 -11.093526
v 7.912421 45.234772 -14.735428
v 10.354134 52.030090 -9.449835
v 7.256359 51.876091 -12.750553
v 9.877960 57.224438 -9.015297
v 8.727207 61.199608 -7.760580
v 5.624141 65.364067 -6.067990
v 2.613665 66.634583 -5.238921
v 8.740434 38.166737 -16.434687
v 9.213962 31.345747 -17.818319
v -6.841030 56.903603 7.506072
v 10.676874 25.002806 -5.621224
vn -0.9195 0.0078 0.3929
vn -0.7696 0.0550 0.6361
vn -0.9764 0.0394 0.2126
vn -0.7911 0.3916 0.4699
vn -0.3545 0.3703 0.8586
vn -0.5352 0.7004 0.4722
vn -0.9759 0.1968 0.0944
vn -0.7879 -0.0394 0.6146
vn -0.6989 0.2356 0.6754
vn -0.2274 0.7449 -0.6273
vn -0.0000 0.5271 -0.8498
vn -0.3794 0.5295 -0.7587
vn -0.9654 0.0707 0.2511
vn -0.9815 0.1099 0.1570
vn -0.8018 0.0157 0.5974
vn -0.8481 0.1099 0.5183
vn -0.9398 0.1175 0.3210
vn -0.9115 0.0471 0.4086
vn 0.9195 0.0078 0.3930
vn 0.5887 -0.0000 0.8084
vn 0.6418 0.1878 0.7435
vn 0.7254 -0.1183 0.6781
vn 0.4886 -0.2521 0.8353
vn -0.7847 -0.0078 0.6199
vn -0.9835 -0.0079 0.1809
vn -0.9290 -0.0079 -0.3701
vn -0.9830 -0.0315 0.1808
vn 0.9567 0.0235 0.2902
vn 0.8400 -0.0314 0.5417
vn 0.9648 -0.0471 0.2589
vn 0.9654 0.0706 0.2511
vn 0.9815 0.1099 0.1570
vn 0.8576 0.2518 -0.4485
vn 0.5328 -0.0000 -0.8462
vn 0.5340 0.0942 -0.8402
vn 0.9290 -0.0079 -0.3700
vn 0.7696 0.0550 0.6361
vn 0.9052 -0.0000 0.4250
vn 0.9710 -0.1253 0.2036
vn 0.9764 0.0394 0.2126
vn 0.8808 -0.0393 0.4719
vn 0.9835 -0.0079 0.1810
vn 0.9815 0.0628 0.1806
vn -0.0000 -0.0000 -1.0000
vn -0.5328 -0.0000 -0.8463
vn -0.0000 0.1018 -0.9948
vn -0.5340 0.0942 -0.8402
vn -0.0000 0.2202 -0.9754
vn -0.6418 0.1878 0.7435
vn 0.5284 0.0946 -0.8437
vn 0.5271 0.0079 -0.8497
vn -0.0000 0.0941 -0.9956
vn -0.0000 0.0079 -1.0000
vn -0.5283 0.0946 -0.8437
vn -0.6989 0.2356 0.6753
vn -0.8576 0.2518 -0.4484
vn -0.9988 0.0157 0.0472
vn 0.5027 0.2828 -0.8169
vn -0.0000 0.3443 -0.9389
vn -0.0000 0.2351 -0.9720
vn -0.5027 0.2828 -0.8169
vn -0.4074 0.1489 -0.9010
vn -0.8454 0.1018 -0.5244
vn -0.9598 0.0551 0.2753
vn -0.9740 0.1257 0.1885
vn -0.9542 0.0946 0.2839
vn -0.9674 -0.1102 0.2281
vn -0.9896 -0.1257 0.0707
vn -0.9596 0.1258 0.2516
vn -0.7793 -0.2834 0.5589
vn -0.9710 -0.1253 0.2036
vn -0.9052 -0.0000 0.4250
vn 0.8546 0.2509 0.4547
vn 0.6298 0.1417 0.7637
vn 0.9056 0.1575 0.3938
vn 0.8109 -0.2362 0.5354
vn 0.8506 -0.0788 0.5198
vn 0.6559 -0.2529 0.7112
vn 0.7314 -0.0865 0.6764
vn 0.3918 -0.0784 0.9167
vn -0.1734 0.9849 -0.0000
vn -0.2052 0.9316 0.3000
vn 0.1642 0.9853 0.0469
vn 0.1726 0.9255 0.3372
vn 0.5049 0.8205 0.2682
vn -0.0000 0.7778 -0.6285
vn -0.8265 0.1968 -0.5274
vn -0.8576 0.2518 -0.4485
vn -0.5322 0.2035 -0.8218
vn 0.5037 -0.2518 0.8264
vn 0.5028 -0.1650 0.8485
vn 0.5105 -0.1413 0.8482
vn 0.5023 0.0471 0.8634
vn 0.3528 0.1411 0.9250
vn -0.7021 -0.1183 0.7021
vn -0.3614 0.3300 0.8721
vn -0.3937 0.4330 0.8109
vn -0.0866 0.7084 0.7005
vn -0.2356 0.6753 0.6989
vn 0.0708 0.5820 0.8101
vn 0.2682 0.8205 0.5049
vn -0.4870 -0.4790 0.7303
vn -0.1644 0.0235 0.9861
vn -0.2832 0.1181 0.9518
vn -0.9805 0.0157 0.1961
vn -0.7254 -0.1183 0.6781
vn -0.9829 0.0629 0.1730
vn -0.8358 -0.1183 0.5362
vn -0.9488 0.3058 0.0784
vn -0.9488 0.0784 0.3058
vn -0.9297 0.2442 0.2758
vn -0.9596 0.1259 0.2517
vn -0.8424 0.4881 0.2283
vn -0.9646 0.1333 0.2274
vn -0.8857 0.0941 0.4546
vn -0.9776 0.0782 0.1955
vn -0.8890 -0.0393 0.4563
vn -0.7944 0.6056 0.0472
vn -0.5970 0.7778 0.1964
vn -0.4566 0.8896 0.0079
vn 0.9527 0.2913 0.0866
vn 0.8322 -0.1178 0.5417
vn 0.9829 0.0629 0.1730
vn -0.2053 0.9316 0.3000
vn -0.3936 0.4330 0.8109
vn 0.9889 -0.1412 0.0471
vn 0.7793 -0.2834 0.5589
vn 0.9711 0.0939 0.2193
vn 0.9711 0.0940 0.2193
vn 0.9413 0.1726 0.2902
vn 0.9988 0.0472 -0.0157
vn -0.2832 0.1180 0.9518
vn -0.3545 0.3702 0.8587
vn -0.2505 0.2348 0.9392
vn -0.8483 -0.1885 -0.4949
vn -0.5924 -0.4897 -0.6397
vn -0.0000 -0.3863 -0.9224
vn -0.9520 -0.2203 -0.2124
vn -0.9415 -0.2982 -0.1569
vn -0.9110 -0.3142 -0.2671
vn -0.9701 0.0078 -0.2425
vn 0.8265 0.1968 -0.5274
vn 0.8283 0.0947 -0.5522
vn 0.9856 0.0391 0.1643
vn 0.8247 -0.0000 -0.5655
vn 0.9848 -0.0234 0.1719
vn 0.7933 -0.0707 0.6048
vn 0.8018 0.0157 0.5974
vn 0.7847 -0.0078 0.6199
vn 0.7699 -0.0472 0.6364
vn 0.9805 0.0157 0.1961
vn -0.5271 0.0079 -0.8498
vn -0.8247 -0.0000 -0.5656
vn -0.8283 0.0946 -0.5522
vn -0.9848 -0.0234 0.1719
vn -0.9856 0.0391 0.1643
vn -0.7699 -0.0471 0.6364
vn 0.8439 -0.0158 0.5363
vn 0.2435 0.0864 0.9660
vn 0.2197 0.4237 0.8788
vn 0.0706 0.3528 0.9330
vn 0.3459 0.4874 0.8018
vn 0.5916 0.6469 0.4812
vn 0.8247 0.5027 0.2592
vn 0.7876 0.6143 0.0473
vn 0.4783 0.8782 0.0078
vn -0.0000 0.2664 -0.9639
vn -0.5257 0.2119 -0.8239
vn -0.9210 0.0551 -0.3857
vn 0.8263 -0.1495 0.5430
vn 0.9988 0.0157 0.0472
vn 0.9901 -0.1257 -0.0629
vn 0.8495 0.0944 -0.5191
vn 0.6776 0.0630 -0.7327
vn 0.4079 0.1412 -0.9020
vn -0.0000 0.1491 -0.9888
vn -0.8808 -0.0393 0.4719
vn -0.9815 0.0629 0.1806
vn -0.9017 0.1646 -0.3999
vn -0.8848 0.1957 -0.4228
vn -0.5176 0.2588 -0.8156
vn -0.5502 0.2044 -0.8096
vn -0.0940 0.9476 -0.3054
vn 0.1964 0.7778 -0.5971
vn 0.3771 0.5263 -0.7621
vn 0.4338 0.3155 -0.8440
vn -0.5718 -0.6031 0.5561
vn -0.1736 -0.4341 0.8840
vn -0.4007 -0.3457 0.8485
vn 0.1956 -0.0704 0.9781
vn -0.2757 -0.0000 0.9612
vn 0.2047 0.1417 0.9685
vn -0.5886 -0.0000 0.8084
vn -0.4886 -0.2521 0.8353
vn -0.9710 -0.1253 0.2037
vn -0.9030 0.1335 -0.4083
vn -0.8319 0.2668 -0.4866
vn -0.4327 0.3226 -0.8418
vn -0.7096 0.5361 -0.4573
vn -0.9695 -0.0158 0.2444
vn -0.9954 0.0784 0.0548
vn -0.9981 0.0471 0.0393
vn -0.9863 -0.0861 0.1409
vn 0.9520 -0.2203 -0.2124
vn 0.9701 0.0078 -0.2425
vn 0.8462 -0.1802 -0.5015
vn 0.8026 0.0866 -0.5902
vn -0.8027 0.0863 -0.5902
vn 0.0079 -0.6285 -0.7778
vn 0.5990 -0.4729 -0.6462
vn 0.9091 -0.3135 -0.2743
vn 0.9415 -0.2982 -0.1570
vn -0.0000 0.2037 -0.9790
vn 0.5322 0.2035 -0.8218
vn -0.0000 0.2036 -0.9790
vn -0.0000 0.3139 -0.9495
vn -0.4965 0.8118 -0.3074
vn -0.7933 -0.0707 0.6048
vn -0.8263 -0.1495 0.5430
vn -0.9910 -0.1180 -0.0630
vn -0.6729 0.0783 -0.7356
vn -0.6608 -0.4090 0.6293
vn 0.8247 -0.0079 0.5655
vn 0.9830 -0.0315 0.1809
vn 0.9210 0.0551 -0.3857
vn 0.9017 0.1647 -0.3999
vn 0.5257 0.2118 -0.8238
vn 0.8848 0.1958 -0.4228
vn 0.5176 0.2588 -0.8156
vn 0.9030 0.1335 -0.4083
vn 0.5502 0.2044 -0.8096
vn 0.8376 0.2505 -0.4854
vn 0.7258 0.5206 -0.4496
vn 0.5106 0.8092 -0.2907
vn 0.2124 0.9442 -0.2518
vn 0.5257 0.2119 -0.8239
vn 0.5328 -0.0000 -0.8463
vn -0.9161 0.0861 0.3915
vn 0.8890 -0.0393 0.4563
vt 0.424500 0.614349
vt 0.404510 0.580139
vt 0.340363 0.578888
vt 0.571930 0.166992
vt 0.674805 0.067902
vt 0.539551 0.090729
vt 0.671204 0.472076
vt 0.714264 0.471924
vt 0.648560 0.368073
vt 0.136383 0.137299
vt 0.015289 0.258331
vt 0.144806 0.250488
vt 0.438538 0.856995
vt 0.447021 0.891388
vt 0.529053 0.889252
vt 0.650604 0.298218
vt 0.543915 0.359436
vt 0.645844 0.365417
vt 0.461487 0.581390
vt 0.490936 0.616882
vt 0.403137 0.542114
vt 0.461487 0.545044
vt 0.533966 0.924683
vt 0.346191 0.653290
vt 0.284363 0.690460
vt 0.349121 0.690460
vt 0.525970 0.359436
vt 0.632111 0.690460
vt 0.504211 0.690460
vt 0.283478 0.846802
vt 0.178711 0.690460
vt 0.174713 0.649353
vt 0.479950 0.694550
vt 0.406464 0.653442
vt 0.469116 0.652283
vt 0.439667 0.616821
vt 0.343292 0.616089
vt 0.021851 0.690460
vt 0.019836 0.646729
vt 0.017853 0.602966
vt 0.142517 0.925751
vt 0.147095 0.989990
vt 0.020416 0.925751
vt 0.023682 0.989990
vt 0.655334 0.259735
vt 0.458527 0.786499
vt 0.133423 0.856995
vt 0.013916 0.856995
vt 0.013916 0.786499
vt 0.136078 0.786499
vt 0.284760 0.786499
vt 0.648315 0.613586
vt 0.483521 0.569916
vt 0.607483 0.689636
vt 0.483887 0.690125
vt 0.696136 0.570099
vt 0.935242 0.675293
vt 0.944153 0.524261
vt 0.921478 0.733063
vt 0.655334 0.231018
vt 0.708984 0.248108
vt 0.753571 0.570099
vt 0.723541 0.495422
vt 0.778809 0.493042
vt 0.724976 0.368195
vt 0.774200 0.368134
vt 0.320557 0.009979
vt 0.523376 0.009979
vt 0.340851 0.061584
vt 0.529480 0.064789
vt 0.507690 0.134155
vt 0.062134 0.130707
vt 0.282928 0.884583
vt 0.137970 0.891388
vt 0.878967 0.632233
vt 0.802368 0.496857
vt 0.878967 0.505554
vt 0.871490 0.372894
vt 0.860748 0.266602
vt 0.962189 0.124207
vt 0.887177 0.135223
vt 0.863403 0.029388
vt 0.674805 0.057709
vt 0.670074 0.009979
vt 0.707520 0.122070
vt 0.669586 0.094971
vt 0.773468 0.489471
vt 0.774200 0.364532
vt 0.337463 0.541687
vt 0.343170 0.381927
vt 0.420074 0.386627
vt 0.349579 0.244781
vt 0.549744 0.407959
vt 0.535736 0.265747
vt 0.472717 0.264008
vt 0.501801 0.164490
vt 0.534363 0.298859
vt 0.524811 0.238281
vt 0.440430 0.691437
vt 0.472717 0.235321
vt 0.357788 0.175171
vt 0.463776 0.095764
vt 0.360504 0.108521
vt 0.461426 0.009979
vt 0.542847 0.009979
vt 0.710693 0.009979
vt 0.939026 0.524261
vt 0.531555 0.240417
vt 0.484711 0.386688
vt 0.653900 0.364502
vt 0.672180 0.118195
vt 0.726135 0.141663
vt 0.742004 0.023590
vt 0.701813 0.928558
vt 0.817841 0.813324
vt 0.989990 0.928558
vt 0.568665 0.928558
vt 0.568665 0.813324
vt 0.701813 0.813324
vt 0.568665 0.989990
vt 0.282379 0.922333
vt 0.455505 0.925751
vt 0.281860 0.989990
vt 0.463989 0.989990
vt 0.524139 0.853851
vt 0.538879 0.989990
vt 0.696594 0.570099
vt 0.762634 0.265198
vt 0.833618 0.129730
vt 0.745422 0.149139
vt 0.704895 0.140686
vt 0.664368 0.132233
vt 0.524078 0.176544
vt 0.355286 0.127716
vt 0.015839 0.559204
vt 0.170715 0.608246
vt 0.286621 0.653168
vt 0.521118 0.788116
vt 0.463989 0.720856
vt 0.242798 0.720856
vt 0.021729 0.720856
vt 0.288879 0.615845
vt 0.291138 0.578552
vt 0.166748 0.567139
vt 0.162750 0.526031
vt 0.184448 0.034119
vt 0.151489 0.369293
vt 0.978455 0.339966
vt 0.959412 0.425781
vt 0.962799 0.278809
vt 0.907867 0.292725
vt 0.924988 0.207031
vt 0.870758 0.211212
vt 0.461487 0.443237
vt 0.293365 0.541229
vt 0.261414 0.374298
vt 0.269165 0.242004
vt 0.489075 0.310577
vt 0.701813 0.989990
vt 0.989990 0.989990
vt 0.989990 0.813324
vt 0.017151 0.891388
vt 0.013824 0.515472
vt 0.013824 0.372620
vt 0.239014 0.128693
vt 0.989990 0.248444
vt 0.247803 0.108154
vt 0.655365 0.368500
s 1
usemtl f_hair0119
f 1/1/1 2/2/2 3/3/3
f 4/4/4 5/5/5 6/6/6
f 7/7/7 8/8/8 9/9/9
f 10/10/10 11/11/11 12/12/12
f 13/13/13 14/14/14 15/15/15
f 16/16/16 17/17/17 18/18/18
f 19/1/19 20/19/20 21/20/21
f 22/21/22 23/22/23 20/19/20
f 14/14/14 24/23/24 25/15/15
f 26/24/25 27/25/26 28/26/27
f 29/27/28 30/28/29 31/29/30
f 32/13/31 33/14/32 34/30/33
f 35/31/34 36/32/35 37/25/36
f 20/19/20 38/2/37 22/21/22
f 21/20/21 39/33/38 19/1/19
f 19/1/19 39/33/38 40/34/39
f 19/1/19 40/34/39 41/3/40
f 42/35/41 43/24/42 44/36/39
f 44/36/39 43/24/42 45/37/43
f 44/36/39 45/37/43 41/3/40
f 46/38/44 47/31/45 48/39/46
f 48/39/46 47/31/45 49/32/47
f 48/39/46 49/32/47 50/40/48
f 2/2/2 1/1/1 51/20/49
f 52/41/50 53/42/51 54/43/52
f 54/43/52 53/42/51 55/44/53
f 54/43/52 55/44/53 56/41/54
f 5/5/5 4/4/4 57/45/55
f 58/30/56 13/13/13 59/46/57
f 60/47/58 61/48/59 62/49/60
f 62/49/60 61/48/59 63/47/61
f 62/49/60 63/47/61 64/50/62
f 64/50/62 63/47/61 65/51/63
f 66/52/64 67/53/65 68/54/66
f 68/54/66 67/53/65 69/55/66
f 8/8/8 7/7/7 70/56/67
f 71/57/68 72/58/69 73/59/70
f 3/3/3 74/34/71 1/1/1
f 1/1/1 74/34/71 75/33/72
f 1/1/1 75/33/72 51/20/49
f 76/60/73 77/61/74 78/18/75
f 79/62/76 80/63/77 81/64/78
f 81/64/78 80/63/77 82/65/79
f 81/64/78 82/65/79 83/66/80
f 84/67/81 85/68/82 86/69/83
f 86/69/83 85/68/82 87/70/84
f 86/69/83 87/70/84 88/71/85
f 11/11/11 10/10/10 89/72/86
f 14/14/14 13/13/13 90/73/87
f 90/73/87 13/13/13 91/30/88
f 90/73/87 91/30/88 92/74/89
f 93/75/90 94/76/91 95/77/92
f 95/77/92 94/76/91 83/66/80
f 95/77/92 83/66/80 96/78/93
f 96/78/93 83/66/80 97/79/94
f 98/80/95 99/81/96 100/82/97
f 100/82/97 99/81/96 101/83/98
f 100/82/97 101/83/98 102/84/99
f 101/83/98 103/85/100 104/86/101
f 70/56/67 105/62/102 8/8/8
f 8/8/8 105/62/102 106/87/103
f 8/8/8 106/87/103 9/9/9
f 9/9/9 106/87/103 107/88/104
f 108/89/105 109/21/106 110/90/107
f 110/90/107 109/21/106 111/91/108
f 110/90/107 111/91/108 112/92/109
f 66/52/64 113/93/110 67/53/65
f 67/53/65 113/93/110 114/94/111
f 67/53/65 114/94/111 115/95/112
f 115/95/112 114/94/111 116/96/113
f 17/17/17 16/16/16 117/97/114
f 117/97/114 16/16/16 118/60/115
f 117/97/114 118/60/115 119/98/116
f 26/24/25 28/26/27 120/99/117
f 121/100/112 116/96/113 122/101/118
f 122/101/118 116/96/113 123/102/119
f 122/101/118 123/102/119 124/103/120
f 125/92/121 126/91/122 127/90/123
f 127/90/123 126/91/122 22/21/22
f 128/104/124 6/6/6 129/105/99
f 129/105/99 6/6/6 5/5/5
f 129/105/99 5/5/5 130/106/125
f 131/57/126 132/59/127 133/107/128
f 134/100/129 135/108/130 136/109/131
f 136/109/131 135/108/130 29/27/28
f 136/109/131 29/27/28 31/29/30
f 137/110/55 107/88/132 138/111/133
f 138/111/133 107/88/132 139/112/134
f 138/111/133 139/112/134 140/113/125
f 141/114/135 142/115/136 143/116/137
f 144/117/138 145/118/139 146/119/140
f 147/120/141 144/117/138 141/114/135
f 141/114/135 144/117/138 146/119/140
f 141/114/135 146/119/140 142/115/136
f 60/47/58 34/30/33 148/73/142
f 148/73/142 34/30/33 33/14/32
f 148/73/142 33/14/32 149/121/143
f 149/121/143 33/14/32 150/122/144
f 149/121/143 150/122/144 151/123/145
f 151/123/145 150/122/144 152/124/146
f 32/13/31 153/125/147 33/14/32
f 33/14/32 153/125/147 154/15/148
f 33/14/32 154/15/148 150/122/144
f 150/122/144 154/15/148 155/23/149
f 150/122/144 155/23/149 152/124/146
f 152/124/146 155/23/149 156/126/150
f 20/19/20 19/1/19 38/2/37
f 38/2/37 19/1/19 41/3/40
f 38/2/37 41/3/40 22/21/22
f 22/21/22 41/3/40 157/89/151
f 22/21/22 157/89/151 127/90/123
f 55/44/53 158/42/152 56/41/54
f 56/41/54 158/42/152 159/123/153
f 56/41/54 159/123/153 160/121/154
f 160/121/154 159/123/153 161/124/155
f 160/121/154 161/124/155 162/122/156
f 162/122/156 161/124/155 163/126/157
f 162/122/156 163/126/157 24/23/24
f 79/62/76 164/127/158 80/63/77
f 80/63/77 164/127/158 78/18/75
f 80/63/77 78/18/75 82/65/79
f 82/65/79 78/18/75 77/61/74
f 82/65/79 77/61/74 83/66/80
f 83/66/80 77/61/74 165/128/159
f 83/66/80 165/128/159 97/79/94
f 166/129/160 97/79/94 167/130/161
f 167/130/161 97/79/94 165/128/159
f 167/130/161 165/128/159 168/131/162
f 168/131/162 165/128/159 77/61/74
f 168/131/162 77/61/74 169/132/163
f 169/132/163 77/61/74 76/60/73
f 135/108/130 170/100/129 171/133/164
f 171/133/164 170/100/129 172/101/165
f 171/133/164 172/101/165 88/71/85
f 88/71/85 172/101/165 173/134/166
f 88/71/85 173/134/166 86/69/83
f 174/135/167 50/40/48 175/136/168
f 175/136/168 50/40/48 49/32/47
f 175/136/168 49/32/47 176/137/169
f 176/137/169 49/32/47 47/31/45
f 176/137/169 47/31/45 27/25/26
f 177/138/170 178/46/171 179/139/172
f 179/139/172 178/46/171 180/51/173
f 179/139/172 180/51/173 181/140/174
f 181/140/174 180/51/173 182/50/175
f 181/140/174 182/50/175 183/141/176
f 120/99/117 184/35/177 26/24/25
f 26/24/25 184/35/177 185/37/178
f 26/24/25 185/37/178 186/142/179
f 186/142/179 185/37/178 187/143/180
f 186/142/179 187/143/180 188/144/181
f 188/144/181 187/143/180 189/145/182
f 10/10/10 190/146/183 89/72/86
f 89/72/86 190/146/183 191/10/184
f 89/72/86 191/10/184 11/11/11
f 11/11/11 191/10/184 192/12/185
f 11/11/11 192/12/185 193/147/186
f 194/148/187 195/149/188 196/150/189
f 196/150/189 195/149/188 197/151/190
f 196/150/189 197/151/190 198/152/191
f 198/152/191 197/151/190 199/153/192
f 198/152/191 199/153/192 166/129/160
f 23/22/23 22/21/22 200/154/127
f 200/154/127 22/21/22 126/91/122
f 200/154/127 126/91/122 170/100/129
f 170/100/129 126/91/122 125/92/121
f 170/100/129 125/92/121 172/101/165
f 201/19/193 202/22/194 109/21/106
f 109/21/106 202/22/194 203/154/70
f 109/21/106 203/154/70 111/91/108
f 111/91/108 203/154/70 121/100/112
f 111/91/108 121/100/112 112/92/109
f 112/92/109 121/100/112 122/101/118
f 184/35/177 204/36/195 185/37/178
f 185/37/178 204/36/195 3/3/3
f 185/37/178 3/3/3 187/143/180
f 187/143/180 3/3/3 205/155/196
f 187/143/180 205/155/196 189/145/182
f 189/145/182 205/155/196 206/156/197
f 189/145/182 206/156/197 207/147/198
f 207/147/198 206/156/197 208/157/199
f 209/28/200 18/18/18 210/29/200
f 210/29/200 18/18/18 17/17/17
f 210/29/200 17/17/17 211/109/201
f 211/109/201 17/17/17 117/97/114
f 211/109/201 117/97/114 212/158/202
f 212/158/202 117/97/114 119/98/116
f 212/158/202 119/98/116 213/100/203
f 214/117/204 215/120/205 216/114/206
f 216/114/206 215/120/205 217/159/207
f 216/114/206 217/159/207 143/116/137
f 143/116/137 217/159/207 218/160/176
f 143/116/137 218/160/176 141/114/135
f 141/114/135 218/160/176 219/159/208
f 141/114/135 219/159/208 147/120/141
f 142/115/136 220/161/209 143/116/137
f 143/116/137 220/161/209 221/115/210
f 143/116/137 221/115/210 216/114/206
f 216/114/206 221/115/210 222/119/211
f 216/114/206 222/119/211 214/117/204
f 214/117/204 222/119/211 223/118/212
f 24/23/24 14/14/14 162/122/156
f 162/122/156 14/14/14 90/73/87
f 162/122/156 90/73/87 160/121/154
f 160/121/154 90/73/87 92/74/89
f 160/121/154 92/74/89 56/41/54
f 56/41/54 92/74/89 224/162/213
f 56/41/54 224/162/213 54/43/52
f 54/43/52 224/162/213 225/74/214
f 54/43/52 225/74/214 52/41/50
f 59/46/57 65/51/63 91/30/88
f 91/30/88 65/51/63 63/47/61
f 91/30/88 63/47/61 92/74/89
f 92/74/89 63/47/61 61/48/59
f 92/74/89 61/48/59 224/162/213
f 224/162/213 61/48/59 60/47/58
f 224/162/213 60/47/58 225/74/214
f 225/74/214 60/47/58 148/73/142
f 225/74/214 148/73/142 52/41/50
f 52/41/50 148/73/142 149/121/143
f 52/41/50 149/121/143 53/42/51
f 53/42/51 149/121/143 151/123/145
f 27/25/26 26/24/25 176/137/169
f 176/137/169 26/24/25 186/142/179
f 176/137/169 186/142/179 175/136/168
f 175/136/168 186/142/179 188/144/181
f 175/136/168 188/144/181 174/135/167
f 174/135/167 188/144/181 189/145/182
f 174/135/167 189/145/182 226/163/215
f 226/163/215 189/145/182 207/147/198
f 226/163/215 207/147/198 227/164/216
f 51/20/49 201/19/193 2/2/2
f 2/2/2 201/19/193 109/21/106
f 2/2/2 109/21/106 3/3/3
f 3/3/3 109/21/106 108/89/105
f 3/3/3 108/89/105 205/155/196
f 205/155/196 108/89/105 110/90/107
f 205/155/196 110/90/107 206/156/197
f 206/156/197 110/90/107 112/92/109
f 206/156/197 112/92/109 208/157/199
f 208/157/199 112/92/109 122/101/118
f 208/157/199 122/101/118 228/165/217
f 228/165/217 122/101/118 124/103/120
f 15/15/15 229/125/218 13/13/13
f 13/13/13 229/125/218 230/138/219
f 13/13/13 230/138/219 59/46/57
f 59/46/57 230/138/219 231/139/220
f 59/46/57 231/139/220 65/51/63
f 65/51/63 231/139/220 232/140/221
f 65/51/63 232/140/221 64/50/62
f 64/50/62 232/140/221 183/141/176
f 64/50/62 183/141/176 62/49/60
f 62/49/60 183/141/176 182/50/175
f 62/49/60 182/50/175 60/47/58
f 60/47/58 182/50/175 180/51/173
f 60/47/58 180/51/173 34/30/33
f 34/30/33 180/51/173 178/46/171
f 34/30/33 178/46/171 32/13/31
f 32/13/31 178/46/171 177/138/170
f 32/13/31 177/138/170 153/125/147
f 169/132/163 104/86/101 168/131/162
f 168/131/162 104/86/101 103/85/100
f 168/131/162 103/85/100 167/130/161
f 167/130/161 103/85/100 101/83/98
f 167/130/161 101/83/98 166/129/160
f 166/129/160 101/83/98 99/81/96
f 166/129/160 99/81/96 198/152/191
f 198/152/191 99/81/96 98/80/95
f 198/152/191 98/80/95 196/150/189
f 196/150/189 98/80/95 233/166/222
f 196/150/189 233/166/222 194/148/187
f 30/28/29 29/27/28 234/18/223
f 234/18/223 29/27/28 135/108/130
f 234/18/223 135/108/130 76/60/73
f 76/60/73 135/108/130 171/133/164
f 76/60/73 171/133/164 169/132/163
f 169/132/163 171/133/164 88/71/85
f 169/132/163 88/71/85 104/86/101
f 104/86/101 88/71/85 87/70/84
f 104/86/101 87/70/84 101/83/98
f 101/83/98 87/70/84 85/68/82
f 101/83/98 85/68/82 102/84/99
f 235/26/224 37/25/36 236/137/225
f 236/137/225 37/25/36 36/32/35
f 236/137/225 36/32/35 237/142/226
f 237/142/226 36/32/35 238/136/227
f 237/142/226 238/136/227 239/143/228
f 239/143/228 238/136/227 240/144/229
f 239/143/228 240/144/229 241/155/230
f 241/155/230 240/144/229 242/145/231
f 241/155/230 242/145/231 243/156/232
f 243/156/232 242/145/231 193/147/186
f 243/156/232 193/147/186 244/157/233
f 244/157/233 193/147/186 192/12/185
f 244/157/233 192/12/185 245/165/234
f 245/165/234 192/12/185 191/10/184
f 245/165/234 191/10/184 246/167/235
f 246/167/235 191/10/184 190/146/183
f 124/103/120 190/146/183 228/165/217
f 228/165/217 190/146/183 10/10/10
f 228/165/217 10/10/10 208/157/199
f 208/157/199 10/10/10 12/12/12
f 208/157/199 12/12/12 207/147/198
f 207/147/198 12/12/12 11/11/11
f 207/147/198 11/11/11 227/164/216
f 227/164/216 11/11/11 193/147/186
f 227/164/216 193/147/186 226/163/215
f 226/163/215 193/147/186 242/145/231
f 226/163/215 242/145/231 174/135/167
f 174/135/167 242/145/231 240/144/229
f 174/135/167 240/144/229 50/40/48
f 50/40/48 240/144/229 247/136/236
f 50/40/48 247/136/236 48/39/46
f 48/39/46 247/136/236 248/32/35
f 48/39/46 248/32/35 46/38/44
f 46/38/44 248/32/35 35/31/237
f 66/52/64 249/168/238 113/93/110
f 113/93/110 249/168/238 57/45/55
f 113/93/110 57/45/55 114/94/111
f 114/94/111 57/45/55 4/4/4
f 114/94/111 4/4/4 116/96/113
f 116/96/113 4/4/4 6/6/6
f 116/96/113 6/6/6 123/102/119
f 123/102/119 6/6/6 128/104/124
f 123/102/119 128/104/124 124/103/120
f 124/103/120 128/104/124 84/67/81
f 124/103/120 84/67/81 190/146/183
f 190/146/183 84/67/81 86/69/83
f 190/146/183 86/69/83 246/167/235
f 246/167/235 86/69/83 173/134/166
f 246/167/235 173/134/166 245/165/234
f 245/165/234 173/134/166 172/101/165
f 245/165/234 172/101/165 244/157/233
f 244/157/233 172/101/165 125/92/121
f 244/157/233 125/92/121 243/156/232
f 243/156/232 125/92/121 127/90/123
f 243/156/232 127/90/123 241/155/230
f 241/155/230 127/90/123 157/89/151
f 241/155/230 157/89/151 239/143/228
f 239/143/228 157/89/151 41/3/40
f 239/143/228 41/3/40 237/142/226
f 237/142/226 41/3/40 45/37/43
f 237/142/226 45/37/43 236/137/225
f 236/137/225 45/37/43 43/24/42
f 236/137/225 43/24/42 235/26/224
f 235/26/224 43/24/42 42/35/41
f 235/26/224 42/35/41 250/99/239
