mtllib f_hair002.mtl
o editpl_f-0000-1900
v 7.616135 50.650494 -8.534081
v 4.655921 46.062531 -10.406710
v 4.200911 50.746746 -11.754781
v -4.708830 65.441071 3.937517
v -4.941626 66.162949 -1.090242
v -8.116117 63.689301 -2.573898
v 4.044832 62.989876 -10.114425
v 7.446829 63.326752 -7.070430
v 4.949562 61.173939 -10.813466
v 7.764278 55.758217 2.271601
v 8.224579 56.480099 -0.872416
v 8.465311 60.301262 0.923529
v -4.200911 62.989876 -10.114425
v 0.000000 64.712769 -9.228677
v 0.000000 63.153500 -10.785682
v -8.285424 48.218552 4.346496
v -7.608199 48.244221 1.962645
v -6.962719 44.682930 3.707469
v -6.875420 52.155216 -5.186687
v -6.044761 47.564045 -1.426981
v -7.510319 52.277138 -1.690371
v 7.433602 61.549316 4.128670
v 6.888647 62.954582 4.003087
v 6.803994 61.241314 6.841482
v -7.147897 63.025166 4.047541
v -3.949597 63.323544 8.845251
v -2.208917 63.317127 9.853248
v -2.087228 64.090347 8.908598
v 0.216924 64.433640 8.973056
v 0.002645 61.295856 -12.028173
v -8.727207 61.199608 -7.760580
v -5.261720 61.173939 -10.813466
v -6.497127 57.407314 -12.098189
v 4.222074 61.937531 9.238669
v 5.946881 62.624123 6.955951
v 4.782901 64.427223 6.960396
v 6.756377 58.995457 8.202889
v 5.640014 60.804977 8.720779
v 7.182288 46.559826 -8.020636
v 8.703398 50.098656 -4.414297
v 8.277487 46.659286 -4.697691
v 0.000000 50.955288 -12.412701
v 0.000000 46.194073 -11.673652
v -4.655921 46.062531 -10.406710
v -8.669008 59.486340 4.089774
v -8.073791 61.674442 4.184238
v -8.642554 60.240303 0.383412
v -3.428451 62.476536 10.169983
v -4.690312 61.225273 10.578961
v -2.330606 61.565361 10.502277
v 6.899229 54.917622 7.356039
v 6.888647 57.288605 7.779464
v 6.428346 55.854465 8.678549
v 6.756377 58.995457 8.202889
v 2.015802 67.407799 -0.763504
v -1.891468 67.398170 -0.597913
v 2.280343 66.426033 4.348718
v 7.716660 47.904133 4.856607
v 6.489190 47.487045 6.491407
v 6.108251 43.659462 6.299144
v -1.894113 56.579556 11.765886
v -0.888858 56.528221 11.897026
v -1.431167 58.607246 11.862574
v -5.975981 52.366970 8.539630
v -3.833199 54.599995 10.735662
v -5.200876 54.776455 9.741002
v -4.610949 57.086479 10.315570
v -0.177242 58.860706 12.009272
v 1.386195 58.985832 10.590075
v 0.529082 61.193188 11.530278
v 2.216853 61.382484 9.640979
v 2.417905 64.263596 7.966171
v -1.891468 66.323364 4.759918
v 5.624141 65.364067 -6.067990
v 2.862333 64.914894 -8.524079
v 1.269797 66.782166 -5.188910
v 7.256359 51.876091 -12.337129
v 3.658602 46.027237 -12.549397
v 0.000000 51.908173 -14.579839
v 0.000000 45.764153 -13.167310
v 7.954747 54.972164 -1.474769
v -8.536738 47.175831 -1.314734
v -9.584320 53.323063 -3.417413
v -9.917641 47.134125 -3.771935
v 8.536738 47.175831 -1.314734
v 9.584320 53.323063 -3.417413
v 6.576489 53.188313 -1.694817
v -9.877960 57.224438 -9.015297
v -11.012841 56.800934 -5.011093
v -9.949386 60.679852 -3.784161
v 5.005115 66.262405 -1.500331
v 4.761738 65.441071 3.937517
v 7.994429 63.714966 -2.586123
v 8.465311 60.301262 0.923529
v -2.468167 54.564701 11.322457
v -1.161335 55.559296 11.210210
v 0.140207 56.849060 11.099074
v 2.216853 61.382484 9.640979
v 2.417905 64.263596 7.966171
v 2.280343 66.426033 4.348718
v 6.793412 45.215519 4.044209
v 7.912421 48.725475 2.627234
v 8.232515 52.460014 1.280274
v -7.954747 54.972164 -1.474769
v -7.901839 55.742172 1.961533
v -8.645199 56.467262 -1.079127
v -8.642554 60.240303 0.383412
v 6.497127 57.407314 -12.098189
v 0.000000 57.336731 -14.081954
v -11.116012 52.524181 -5.295599
v -10.354134 52.030090 -9.035301
v -7.256359 51.876091 -12.337129
v -8.642554 60.240303 0.383412
v -8.989103 56.175304 0.195594
v 5.640014 60.804977 8.720779
v 4.237947 59.457462 9.612084
v 4.222074 61.937531 9.238669
v 2.939050 60.978230 9.829909
v 2.216853 61.382484 9.640979
v -2.862333 64.914894 -8.524079
v -7.550000 63.326752 -7.070430
v -5.624141 65.364067 -6.067990
v 7.425665 52.277138 -1.690371
v 5.960108 47.564045 -1.426981
v 6.790767 52.155216 -5.186687
v 4.827873 47.368336 -5.770146
v 4.767029 51.779839 -9.093091
v -0.039681 47.442127 -8.588537
v -4.912526 47.368336 -5.770146
v -5.960108 45.616566 -1.717043
v 0.000000 40.845722 -9.938829
v 4.928399 41.699150 -8.050641
v 6.983882 42.725826 -5.916844
v 7.073826 43.669086 -3.559665
v 4.991888 58.007278 9.109753
v 5.383409 56.287598 8.780793
v 5.367537 52.549847 8.588530
v -2.804134 56.464054 11.611408
v -1.745970 58.947330 11.601405
v -3.724737 59.736591 10.802342
v -1.402067 59.791134 11.525833
v -3.121584 60.689476 10.756777
v -6.177032 60.105553 8.278461
v -5.547424 59.386879 10.398921
v -7.512964 57.663986 5.696790
v -6.007726 57.542068 9.904370
v -7.864803 54.988209 5.283366
v -6.997109 54.882332 7.462729
v 6.841030 51.202332 6.799251
v 8.325105 51.606586 4.558764
v 6.925683 54.917622 7.356039
v 8.549965 55.305836 4.473190
v 6.938910 56.958145 7.779464
v 8.396531 57.769859 4.304265
v 7.978556 60.230679 4.239805
v 0.000000 53.720901 -12.298232
v -4.200911 50.746746 -11.754781
v -6.743150 54.170074 -10.006623
v -7.616135 50.650494 -8.534081
v -9.518185 54.019279 -3.688583
v -8.703398 50.098656 -4.414297
v -8.129344 50.223782 -2.141581
v -6.576489 53.188313 -1.694817
v -7.954747 54.972164 -1.474769
v -9.153118 56.762432 -2.156028
v -8.645199 56.467262 -1.079127
v 8.518220 61.199608 -7.760580
v 9.954677 60.679852 -3.784161
v 9.153118 56.762432 -2.156028
v 8.224579 56.480099 -0.872416
v 7.954747 54.972164 -1.474769
v 11.116012 52.524181 -5.295599
v 9.917641 47.134125 -3.771935
v 10.354134 52.030090 -9.035301
v 9.650455 47.300961 -7.791697
v 7.176997 46.556618 -11.113530
v -8.499702 52.209763 0.740157
v -8.957358 52.116718 4.056433
v -9.124019 55.880135 3.901955
v 5.875455 45.616566 -1.717043
v 4.841100 45.177021 -6.041317
v -0.039681 45.193062 -8.994181
v -4.923108 45.177021 -6.041317
v -4.851682 52.058968 -9.093091
v -0.039681 51.722088 -12.043732
v -6.076506 42.366489 -1.777056
v -6.737859 46.527740 -2.351626
v -7.073826 43.669086 -3.559665
v -8.277487 46.659286 -4.697691
v -6.983882 42.725826 -5.916844
v -7.182288 46.559826 -8.020636
v -4.928399 41.699150 -8.050641
v -6.981237 52.812935 6.605876
v -5.547424 54.776455 9.309797
v -0.965575 60.638142 11.369132
v -3.658602 46.027237 -12.549397
v -7.176997 46.556618 -11.113530
v -9.650455 47.300961 -7.791697
v 8.306587 58.251118 0.766829
v 8.145217 56.197762 0.610129
v 6.076506 42.366489 -1.777056
v 6.737859 46.527740 -2.351626
v 8.129344 50.223782 -2.141581
v 9.523475 54.019279 -3.688583
v 6.610879 54.170074 -10.006623
v -5.256429 61.761070 8.592973
v -7.150543 55.986008 7.582755
v -7.243132 51.799091 6.982625
v -6.923038 48.462387 6.660332
v -6.034180 43.126873 6.712567
v -2.613665 66.634583 -5.238921
v 9.877960 57.224438 -9.015297
v 11.012841 56.800934 -5.011093
vn 0.8396 -0.1020 -0.5335
vn 0.4569 -0.2599 -0.8507
vn 0.4087 -0.0393 -0.9118
vn -0.5049 0.8205 0.2682
vn -0.4783 0.8782 0.0078
vn -0.7881 0.6147 0.0315
vn 0.3307 0.6142 -0.7165
vn 0.6673 0.6280 -0.4004
vn 0.3926 0.4790 -0.7852
vn 0.9810 -0.1648 0.1020
vn 0.9178 -0.2432 0.3137
vn 0.9630 0.1174 0.2427
vn -0.3293 0.6273 -0.7057
vn -0.0000 0.8019 -0.5975
vn -0.0000 0.6063 -0.7952
vn -0.9667 -0.2436 0.0786
vn -0.9208 -0.2912 -0.2597
vn -0.9410 -0.3293 -0.0784
vn -0.9091 -0.3135 -0.2743
vn -0.9520 -0.2203 -0.2124
vn -0.9415 -0.2982 -0.1569
vn 0.9048 0.3777 0.1967
vn 0.8441 0.4812 0.2366
vn 0.8444 0.3709 0.3867
vn -0.7839 0.5644 0.2587
vn -0.5556 0.6808 0.4773
vn -0.0708 0.5820 0.8101
vn -0.2682 0.8204 0.5049
vn 0.0944 0.7000 0.7079
vn -0.0000 0.4566 -0.8896
vn -0.7572 0.4811 -0.4417
vn -0.3940 0.4729 -0.7881
vn -0.4414 0.2838 -0.8513
vn 0.3619 0.4169 0.8338
vn 0.7486 0.4728 0.4649
vn 0.5352 0.7004 0.4722
vn 0.7315 0.0865 0.6764
vn 0.6141 0.2520 0.7479
vn 0.8508 -0.2127 -0.4805
vn 0.9852 -0.1564 -0.0703
vn 0.9663 -0.2200 0.1335
vn -0.0000 -0.1260 -0.9920
vn -0.0000 -0.2275 -0.9738
vn -0.4569 -0.2599 -0.8507
vn -0.9565 0.1490 0.2509
vn -0.8697 0.3996 0.2899
vn -0.9712 0.1645 0.1723
vn -0.2128 0.5438 0.8118
vn -0.4623 0.3836 0.7995
vn -0.0314 0.3766 0.9258
vn 0.8857 -0.1724 0.4311
vn 0.9185 -0.0471 0.3925
vn 0.6611 -0.0629 0.7477
vn 0.7314 0.0865 0.6764
vn 0.1734 0.9849 -0.0000
vn -0.1642 0.9853 0.0469
vn 0.2053 0.9316 0.3000
vn 0.9619 -0.1892 0.1972
vn 0.8179 -0.1022 0.5662
vn 0.9166 -0.2272 0.3290
vn -0.1254 -0.0941 0.9876
vn 0.4001 -0.3295 0.8552
vn -0.1492 0.1178 0.9818
vn -0.5920 -0.1973 0.7814
vn -0.5948 -0.0939 0.7983
vn -0.5971 -0.1178 0.7935
vn -0.4306 -0.0626 0.9004
vn 0.2902 -0.0078 0.9569
vn 0.6823 -0.1176 0.7215
vn 0.3616 0.3066 0.8805
vn 0.3938 0.4174 0.8190
vn 0.2355 0.6673 0.7066
vn -0.1726 0.9255 0.3372
vn 0.4703 0.8388 -0.2744
vn 0.2044 0.8096 -0.5503
vn 0.0940 0.9476 -0.3054
vn 0.5820 -0.0708 -0.8101
vn 0.2915 -0.1891 -0.9377
vn -0.0000 -0.0471 -0.9989
vn -0.0000 -0.2202 -0.9754
vn 0.7723 -0.3152 0.5516
vn -0.7061 0.1177 0.6982
vn -0.7208 -0.0705 0.6895
vn -0.9664 -0.1021 0.2357
vn 0.7061 0.1177 0.6982
vn 0.7208 -0.0705 0.6895
vn 0.4964 -0.1261 0.8589
vn -0.8424 0.2283 -0.4881
vn -0.9796 0.0706 0.1881
vn -0.9527 0.2913 0.0866
vn 0.4566 0.8896 0.0079
vn 0.5970 0.7778 0.1964
vn 0.7977 0.6022 0.0313
vn 0.1958 -0.4228 0.8848
vn 0.5562 -0.5797 0.5954
vn 0.6367 -0.3851 0.6681
vn 0.3937 0.4174 0.8190
vn 0.9463 -0.3233 0.0079
vn 0.9819 -0.1885 0.0157
vn 0.9970 -0.0706 -0.0314
vn -0.7649 -0.4100 0.4968
vn -0.9496 -0.2668 0.1648
vn -0.9238 -0.2896 0.2505
vn -0.9712 0.1644 0.1723
vn 0.4330 0.2992 -0.8503
vn -0.0000 0.2830 -0.9591
vn -0.9659 -0.0628 0.2513
vn -0.9318 -0.0874 -0.3523
vn -0.5820 -0.0708 -0.8101
vn -0.9989 -0.0000 -0.0472
vn 0.6141 0.2519 0.7480
vn 0.4334 0.0709 0.8984
vn 0.3618 0.4169 0.8338
vn 0.1811 0.3228 0.9290
vn -0.1732 0.8267 -0.5354
vn -0.6506 0.6505 -0.3919
vn -0.4805 0.8351 -0.2679
vn 0.9415 -0.2982 -0.1569
vn 0.9520 -0.2203 -0.2124
vn 0.9110 -0.3142 -0.2671
vn 0.8483 -0.1885 -0.4948
vn 0.5924 -0.4897 -0.6397
vn -0.0000 -0.3863 -0.9224
vn -0.8462 -0.1802 -0.5015
vn -0.9701 0.0078 -0.2425
vn -0.0000 -0.3768 -0.9263
vn 0.6226 -0.3625 -0.6935
vn 0.9129 -0.3148 -0.2597
vn 0.9102 -0.1883 0.3688
vn 0.4809 -0.0552 0.8750
vn 0.2351 0.0079 0.9719
vn 0.5107 -0.1807 0.8406
vn -0.5580 0.0865 0.8253
vn -0.4017 0.1339 0.9059
vn -0.2350 0.0313 0.9715
vn -0.2683 0.2999 0.9155
vn -0.1566 0.2506 0.9553
vn -0.8650 0.2673 0.4246
vn -0.6607 0.0708 0.7473
vn -0.9364 0.1180 0.3305
vn -0.7723 -0.0788 0.6304
vn -0.9351 -0.0235 0.3536
vn -0.8606 -0.1658 0.4816
vn 0.8408 -0.0865 0.5344
vn 0.9646 -0.1020 0.2431
vn 0.8645 -0.0864 0.4951
vn 0.9806 -0.0078 0.1961
vn 0.9052 -0.0000 0.4250
vn 0.9842 0.0630 0.1653
vn 0.9575 0.2041 0.2040
vn -0.0000 0.1491 -0.9888
vn -0.4086 -0.0471 -0.9115
vn -0.6776 0.0630 -0.7327
vn -0.8389 -0.1098 -0.5331
vn -0.9838 -0.1102 -0.1417
vn -0.9852 -0.1564 -0.0704
vn -0.9112 -0.2357 0.3378
vn -0.4964 -0.1261 0.8589
vn -0.8699 -0.1489 0.4702
vn -0.9238 -0.2897 0.2505
vn 0.7392 0.4954 -0.4561
vn 0.9488 0.3058 0.0784
vn 0.8347 -0.1575 0.5276
vn 0.9178 -0.2432 0.3138
vn 0.7722 -0.3152 0.5516
vn 0.9659 -0.0628 0.2513
vn 0.9664 -0.1021 0.2357
vn 0.9318 -0.0874 -0.3523
vn 0.8709 -0.2040 -0.4472
vn 0.6211 -0.1808 -0.7626
vn -0.9639 -0.1959 -0.1802
vn -0.9736 -0.1021 0.2041
vn -0.9590 0.0157 0.2830
vn 0.9701 0.0078 -0.2425
vn 0.8026 0.0866 -0.5902
vn -0.8026 0.0866 -0.5902
vn -0.5990 -0.4729 -0.6462
vn -0.0079 -0.6285 -0.7778
vn -0.8948 -0.0785 0.4396
vn -0.8495 -0.1809 0.4956
vn -0.9102 -0.1883 0.3688
vn -0.9663 -0.2200 0.1335
vn -0.9129 -0.3148 -0.2597
vn -0.8508 -0.2127 -0.4805
vn -0.6226 -0.3625 -0.6935
vn -0.8543 -0.2038 0.4781
vn -0.6510 -0.2588 0.7136
vn -0.2129 0.4495 0.8675
vn -0.2915 -0.1891 -0.9377
vn -0.6211 -0.1808 -0.7626
vn -0.8709 -0.2040 -0.4472
vn 0.9995 -0.0000 0.0315
vn 0.9975 -0.0000 -0.0707
vn 0.8948 -0.0785 0.4396
vn 0.8495 -0.1809 0.4956
vn 0.9112 -0.2357 0.3378
vn 0.9835 -0.1023 -0.1495
vn 0.6729 0.0783 -0.7356
vn -0.7690 0.4787 0.4237
vn -0.8772 0.0470 0.4778
vn -0.8713 -0.0628 0.4867
vn -0.8563 -0.1179 0.5028
vn -0.9148 -0.2524 0.3154
vn -0.2124 0.9442 -0.2518
vn 0.8337 0.2438 -0.4955
vn 0.9796 0.0705 0.1881
vt 0.284760 0.786499
vt 0.133423 0.889587
vt 0.136078 0.786499
vt 0.507690 0.134155
vt 0.355286 0.127716
vt 0.357788 0.175171
vt 0.140594 0.193878
vt 0.254089 0.185364
vt 0.144806 0.250488
vt 0.935242 0.675293
vt 0.924591 0.676910
vt 0.944153 0.524261
vt 0.062134 0.130707
vt 0.035950 0.194519
vt 0.522339 0.579163
vt 0.464203 0.570770
vt 0.475433 0.690460
vt 0.701813 0.813324
vt 0.568665 0.928558
vt 0.568665 0.813324
vt 0.513306 0.201385
vt 0.501801 0.164490
vt 0.596100 0.198395
vt 0.524078 0.176544
vt 0.664368 0.132233
vt 0.707520 0.122070
vt 0.669586 0.094971
vt 0.674805 0.057709
vt 0.013916 0.258331
vt 0.269165 0.242004
vt 0.151489 0.369293
vt 0.674805 0.067902
vt 0.571930 0.166992
vt 0.539551 0.090729
vt 0.655334 0.231018
vt 0.665070 0.149475
vt 0.283478 0.879395
vt 0.458527 0.786499
vt 0.438538 0.889587
vt 0.011658 0.786499
vt 0.011658 0.889587
vt 0.531555 0.240417
vt 0.527802 0.208466
vt 0.464661 0.234436
vt 0.704895 0.140686
vt 0.706940 0.194397
vt 0.745422 0.149139
vt 0.672089 0.497803
vt 0.658966 0.431610
vt 0.725464 0.495422
vt 0.645844 0.365417
vt 0.320557 0.013885
vt 0.340851 0.061584
vt 0.523376 0.013885
vt 0.551819 0.579163
vt 0.645844 0.568085
vt 0.645844 0.690460
vt 0.907867 0.292725
vt 0.962799 0.278809
vt 0.870758 0.211212
vt 0.878967 0.632233
vt 0.878967 0.505554
vt 0.802368 0.496857
vt 0.774200 0.368134
vt 0.924988 0.207031
vt 0.962189 0.124207
vt 0.887177 0.135223
vt 0.863403 0.029388
vt 0.670074 0.013885
vt 0.529480 0.064789
vt 0.239014 0.128693
vt 0.136383 0.137299
vt 0.184448 0.034119
vt 0.162750 0.526031
vt 0.099548 0.690460
vt 0.012451 0.515472
vt 0.020508 0.690460
vt 0.921478 0.733063
vt 0.439911 0.690460
vt 0.381531 0.542114
vt 0.349121 0.690460
vt 0.439911 0.545044
vt 0.261414 0.374298
vt 0.343170 0.381927
vt 0.349579 0.244781
vt 0.360504 0.108521
vt 0.463776 0.095764
vt 0.963959 0.431458
vt 0.978455 0.339966
vt 0.987457 0.248444
vt 0.710693 0.013885
vt 0.542847 0.014038
vt 0.461426 0.013245
vt 0.456238 0.478729
vt 0.939026 0.524261
vt 0.012451 0.372620
vt 0.337463 0.541687
vt 0.293365 0.541229
vt 0.455933 0.386688
vt 0.659027 0.241791
vt 0.672180 0.118195
vt 0.726135 0.141663
vt 0.742004 0.023590
vt 0.701813 0.928558
vt 0.817841 0.813324
vt 0.988007 0.928558
vt 0.568665 0.988770
vt 0.018188 0.988342
vt 0.147095 0.988342
vt 0.281860 0.988342
vt 0.463989 0.988342
vt 0.776520 0.430573
vt 0.778809 0.493042
vt 0.773254 0.576355
vt 0.871490 0.372894
vt 0.860748 0.266602
vt 0.762634 0.265198
vt 0.847198 0.198181
vt 0.754028 0.207184
vt 0.708984 0.248108
vt 0.724976 0.368195
vt 0.645844 0.466766
vt 0.546600 0.469299
vt 0.543915 0.359436
vt 0.650604 0.298218
vt 0.534363 0.298859
vt 0.524811 0.238281
vt 0.016235 0.720856
vt 0.242798 0.720856
vt 0.463989 0.720856
vt 0.533539 0.788116
vt 0.439911 0.443237
vt 0.398499 0.386627
vt 0.443024 0.387085
vt 0.284363 0.690460
vt 0.178711 0.690460
vt 0.529236 0.469299
vt 0.525970 0.359436
vt 0.701813 0.988098
vt 0.988007 0.988098
vt 0.988007 0.813324
vt 0.551270 0.988342
vt 0.536530 0.886414
vt 0.833618 0.129730
vt 0.460297 0.310577
vt 0.659851 0.181641
vt 0.247803 0.108154
s 1
usemtl f_hair0106
f 1/1/1 2/2/2 3/3/3
f 4/4/4 5/5/5 6/6/6
f 7/7/7 8/8/8 9/9/9
f 10/10/10 11/11/11 12/12/12
f 13/7/13 14/13/14 15/14/15
f 16/15/16 17/16/17 18/17/18
f 19/18/19 20/19/20 21/20/21
f 22/21/22 23/22/23 24/23/24
f 25/24/25 4/4/4 6/6/6
f 26/25/26 27/26/27 28/27/28
f 28/27/28 27/26/27 29/28/29
f 13/7/13 15/14/15 30/29/30
f 31/30/31 32/9/32 33/31/33
f 34/32/34 35/33/35 36/34/36
f 37/35/37 24/23/24 38/36/38
f 2/2/2 1/1/1 39/37/39
f 39/37/39 1/1/1 40/38/40
f 39/37/39 40/38/40 41/39/41
f 42/40/42 43/41/43 44/2/44
f 45/42/45 46/43/46 47/44/47
f 48/45/48 49/46/49 50/47/50
f 51/48/51 52/49/52 53/50/53
f 53/50/53 52/49/52 54/51/54
f 55/52/55 56/53/56 57/54/57
f 58/55/58 59/56/59 60/57/60
f 61/58/61 62/59/62 63/60/63
f 64/61/64 65/62/65 66/63/66
f 66/63/66 65/62/65 67/64/67
f 68/65/68 69/66/69 70/67/70
f 70/67/70 69/66/69 71/68/71
f 70/67/70 71/68/71 29/28/29
f 29/28/29 71/68/71 72/69/72
f 5/5/5 4/4/4 56/53/56
f 56/53/56 4/4/4 73/70/73
f 56/53/56 73/70/73 57/54/57
f 8/8/8 7/7/7 74/71/74
f 74/71/74 7/7/7 75/72/75
f 74/71/74 75/72/75 76/73/76
f 77/74/77 78/75/78 79/76/79
f 79/76/79 78/75/78 80/77/80
f 11/11/11 10/10/10 81/78/81
f 82/79/82 83/80/83 84/81/84
f 85/79/85 86/80/86 87/82/87
f 88/83/88 89/84/89 90/85/90
f 91/86/91 92/87/92 93/6/93
f 93/6/93 92/87/92 23/22/23
f 93/6/93 23/22/23 94/44/12
f 61/58/61 95/88/94 62/59/62
f 62/59/62 95/88/94 96/89/95
f 62/59/62 96/89/95 97/90/96
f 98/91/97 34/32/34 99/92/72
f 99/92/72 34/32/34 36/34/36
f 99/92/72 36/34/36 100/93/57
f 60/57/60 101/17/98 58/55/58
f 58/55/58 101/17/98 102/16/99
f 58/55/58 102/16/99 103/94/100
f 104/78/101 105/10/102 106/11/103
f 106/11/103 105/10/102 107/95/104
f 108/31/105 109/96/106 30/29/30
f 110/97/107 89/84/89 111/98/108
f 111/98/108 89/84/89 88/83/88
f 111/98/108 88/83/88 112/74/109
f 45/42/45 113/44/47 114/99/110
f 54/51/54 115/100/111 116/64/112
f 116/64/112 115/100/111 117/101/113
f 116/64/112 117/101/113 118/102/114
f 118/102/114 117/101/113 119/103/97
f 14/13/14 13/7/13 120/72/115
f 120/72/115 13/7/13 121/8/116
f 120/72/115 121/8/116 122/71/117
f 123/20/118 124/19/119 125/18/120
f 125/18/120 124/19/119 126/104/121
f 125/18/120 126/104/121 127/105/122
f 127/105/122 126/104/121 128/106/123
f 129/104/124 130/107/125 20/19/20
f 131/108/126 2/2/2 132/109/127
f 132/109/127 2/2/2 39/37/39
f 132/109/127 39/37/39 133/110/128
f 133/110/128 39/37/39 41/39/41
f 133/110/128 41/39/41 134/111/129
f 116/64/112 135/112/130 54/51/54
f 54/51/54 135/112/130 136/113/131
f 54/51/54 136/113/131 53/50/53
f 53/50/53 136/113/131 137/114/132
f 53/50/53 137/114/132 51/48/51
f 65/62/65 138/115/133 67/64/67
f 67/64/67 138/115/133 139/116/134
f 67/64/67 139/116/134 140/117/135
f 140/117/135 139/116/134 141/118/136
f 140/117/135 141/118/136 142/119/137
f 49/46/49 143/35/138 144/120/139
f 144/120/139 143/35/138 145/51/140
f 144/120/139 145/51/140 146/121/141
f 146/121/141 145/51/140 147/48/142
f 146/121/141 147/48/142 148/50/143
f 149/122/144 150/123/145 151/51/146
f 151/51/146 150/123/145 152/124/147
f 151/51/146 152/124/147 153/125/148
f 153/125/148 152/124/147 154/126/149
f 153/125/148 154/126/149 37/35/37
f 37/35/37 154/126/149 155/127/150
f 37/35/37 155/127/150 24/23/24
f 24/23/24 155/127/150 22/21/22
f 156/128/151 157/3/152 158/129/153
f 158/129/153 157/3/152 159/1/154
f 158/129/153 159/1/154 160/130/155
f 160/130/155 159/1/154 161/38/156
f 160/130/155 161/38/156 162/131/157
f 82/79/82 163/82/158 83/80/83
f 83/80/83 163/82/158 164/132/101
f 83/80/83 164/132/101 165/133/159
f 165/133/159 164/132/101 166/134/160
f 165/133/159 166/134/160 47/44/47
f 167/30/161 93/6/93 168/85/162
f 168/85/162 93/6/93 94/44/12
f 168/85/162 94/44/12 169/133/163
f 169/133/163 94/44/12 170/134/164
f 169/133/163 170/134/164 171/132/165
f 172/97/166 173/81/167 174/98/168
f 174/98/168 173/81/167 175/135/169
f 174/98/168 175/135/169 77/74/77
f 77/74/77 175/135/169 176/136/170
f 77/74/77 176/136/170 78/75/78
f 17/16/17 16/15/16 177/94/171
f 177/94/171 16/15/16 178/137/172
f 177/94/171 178/137/172 114/99/110
f 114/99/110 178/137/172 179/138/173
f 114/99/110 179/138/173 45/42/45
f 76/73/76 91/86/91 74/71/74
f 74/71/74 91/86/91 93/6/93
f 74/71/74 93/6/93 8/8/8
f 8/8/8 93/6/93 167/30/161
f 8/8/8 167/30/161 9/9/9
f 124/19/119 180/107/174 126/104/121
f 126/104/121 180/107/174 181/139/175
f 126/104/121 181/139/175 128/106/123
f 128/106/123 181/139/175 182/140/151
f 128/106/123 182/140/151 129/104/124
f 129/104/124 182/140/151 183/139/176
f 129/104/124 183/139/176 130/107/125
f 20/19/20 19/18/19 129/104/124
f 129/104/124 19/18/19 184/105/177
f 129/104/124 184/105/177 128/106/123
f 128/106/123 184/105/177 185/141/178
f 128/106/123 185/141/178 127/105/122
f 186/142/179 187/143/180 188/111/181
f 188/111/181 187/143/180 189/39/182
f 188/111/181 189/39/182 190/110/183
f 190/110/183 189/39/182 191/37/184
f 190/110/183 191/37/184 192/109/185
f 192/109/185 191/37/184 44/2/44
f 192/109/185 44/2/44 131/108/126
f 131/108/126 44/2/44 43/41/43
f 131/108/126 43/41/43 2/2/2
f 2/2/2 43/41/43 42/40/42
f 2/2/2 42/40/42 3/3/3
f 147/48/142 193/114/186 148/50/143
f 148/50/143 193/114/186 194/113/187
f 148/50/143 194/113/187 146/121/141
f 146/121/141 194/113/187 67/64/67
f 146/121/141 67/64/67 144/120/139
f 144/120/139 67/64/67 140/117/135
f 144/120/139 140/117/135 49/46/49
f 49/46/49 140/117/135 142/119/137
f 49/46/49 142/119/137 50/47/50
f 50/47/50 142/119/137 141/118/136
f 50/47/50 141/118/136 195/144/188
f 196/75/189 197/136/190 112/74/109
f 112/74/109 197/136/190 198/135/191
f 112/74/109 198/135/191 111/98/108
f 111/98/108 198/135/191 84/81/84
f 111/98/108 84/81/84 110/97/107
f 110/97/107 84/81/84 83/80/83
f 110/97/107 83/80/83 89/84/89
f 89/84/89 83/80/83 165/133/159
f 89/84/89 165/133/159 90/85/90
f 90/85/90 165/133/159 47/44/47
f 23/22/23 22/21/22 94/44/12
f 94/44/12 22/21/22 155/127/150
f 94/44/12 155/127/150 199/145/192
f 199/145/192 155/127/150 154/126/149
f 199/145/192 154/126/149 200/99/193
f 200/99/193 154/126/149 152/124/147
f 200/99/193 152/124/147 103/94/100
f 103/94/100 152/124/147 150/123/145
f 103/94/100 150/123/145 58/55/58
f 58/55/58 150/123/145 149/122/144
f 58/55/58 149/122/144 59/56/59
f 46/43/46 25/24/25 47/44/47
f 47/44/47 25/24/25 6/6/6
f 47/44/47 6/6/6 90/85/90
f 90/85/90 6/6/6 31/30/31
f 90/85/90 31/30/31 88/83/88
f 88/83/88 31/30/31 33/31/33
f 88/83/88 33/31/33 112/74/109
f 112/74/109 33/31/33 79/76/79
f 112/74/109 79/76/79 196/75/189
f 196/75/189 79/76/79 80/77/80
f 201/142/194 134/111/129 202/143/195
f 202/143/195 134/111/129 41/39/41
f 202/143/195 41/39/41 203/131/196
f 203/131/196 41/39/41 40/38/40
f 203/131/196 40/38/40 204/130/197
f 204/130/197 40/38/40 1/1/1
f 204/130/197 1/1/1 205/129/198
f 205/129/198 1/1/1 3/3/3
f 205/129/198 3/3/3 156/128/151
f 156/128/151 3/3/3 42/40/42
f 156/128/151 42/40/42 157/3/152
f 157/3/152 42/40/42 44/2/44
f 157/3/152 44/2/44 159/1/154
f 159/1/154 44/2/44 191/37/184
f 159/1/154 191/37/184 161/38/156
f 161/38/156 191/37/184 189/39/182
f 161/38/156 189/39/182 162/131/157
f 162/131/157 189/39/182 187/143/180
f 97/90/96 69/66/69 62/59/62
f 62/59/62 69/66/69 68/65/68
f 62/59/62 68/65/68 63/60/63
f 63/60/63 68/65/68 70/67/70
f 63/60/63 70/67/70 195/144/188
f 195/144/188 70/67/70 29/28/29
f 195/144/188 29/28/29 50/47/50
f 50/47/50 29/28/29 27/26/27
f 50/47/50 27/26/27 48/45/48
f 48/45/48 27/26/27 26/25/26
f 48/45/48 26/25/26 49/46/49
f 49/46/49 26/25/26 206/146/199
f 49/46/49 206/146/199 143/35/138
f 72/69/72 57/54/57 29/28/29
f 29/28/29 57/54/57 73/70/73
f 29/28/29 73/70/73 28/27/28
f 28/27/28 73/70/73 4/4/4
f 28/27/28 4/4/4 26/25/26
f 26/25/26 4/4/4 25/24/25
f 26/25/26 25/24/25 206/146/199
f 206/146/199 25/24/25 46/43/46
f 206/146/199 46/43/46 143/35/138
f 143/35/138 46/43/46 45/42/45
f 143/35/138 45/42/45 207/51/200
f 207/51/200 45/42/45 179/138/173
f 207/51/200 179/138/173 208/122/201
f 208/122/201 179/138/173 178/137/172
f 208/122/201 178/137/172 209/56/202
f 209/56/202 178/137/172 16/15/16
f 209/56/202 16/15/16 210/57/203
f 210/57/203 16/15/16 18/17/18
f 122/71/117 211/147/204 120/72/115
f 120/72/115 211/147/204 76/73/76
f 120/72/115 76/73/76 14/13/14
f 14/13/14 76/73/76 75/72/75
f 14/13/14 75/72/75 15/14/15
f 15/14/15 75/72/75 7/7/7
f 15/14/15 7/7/7 30/29/30
f 30/29/30 7/7/7 9/9/9
f 30/29/30 9/9/9 108/31/105
f 108/31/105 9/9/9 167/30/161
f 108/31/105 167/30/161 212/83/205
f 212/83/205 167/30/161 168/85/162
f 212/83/205 168/85/162 213/84/206
f 213/84/206 168/85/162 169/133/163
f 213/84/206 169/133/163 86/80/86
f 86/80/86 169/133/163 171/132/165
f 86/80/86 171/132/165 87/82/87
f 85/79/85 173/81/167 86/80/86
f 86/80/86 173/81/167 172/97/166
f 86/80/86 172/97/166 213/84/206
f 213/84/206 172/97/166 174/98/168
f 213/84/206 174/98/168 212/83/205
f 212/83/205 174/98/168 77/74/77
f 212/83/205 77/74/77 108/31/105
f 108/31/105 77/74/77 79/76/79
f 108/31/105 79/76/79 109/96/106
f 109/96/106 79/76/79 33/31/33
f 109/96/106 33/31/33 30/29/30
f 30/29/30 33/31/33 32/9/32
f 30/29/30 32/9/32 13/7/13
f 13/7/13 32/9/32 31/30/31
f 13/7/13 31/30/31 121/8/116
f 121/8/116 31/30/31 6/6/6
f 121/8/116 6/6/6 122/71/117
f 122/71/117 6/6/6 5/5/5
f 122/71/117 5/5/5 211/147/204
f 211/147/204 5/5/5 56/53/56
f 211/147/204 56/53/56 76/73/76
f 76/73/76 56/53/56 55/52/55
f 76/73/76 55/52/55 91/86/91
f 91/86/91 55/52/55 100/93/57
f 91/86/91 100/93/57 92/87/92
f 92/87/92 100/93/57 36/34/36
f 92/87/92 36/34/36 23/22/23
f 23/22/23 36/34/36 35/33/35
f 23/22/23 35/33/35 24/23/24
f 24/23/24 35/33/35 34/32/34
f 24/23/24 34/32/34 38/36/38
