mtllib f_hair018.mtl
o editpl_f-0000-1923
v -8.676944 51.728504 5.414506
v -7.700788 51.109291 2.380513
v -7.473283 49.062351 5.857936
v -7.624071 52.094257 -7.114883
v -7.613490 52.386223 -2.946200
v -8.359495 55.620255 -0.204493
v 8.359495 55.620255 -0.204493
v 7.870094 53.621441 1.724815
v 7.452120 51.574505 1.046890
v -22.411913 53.069603 -16.812546
v -24.565275 55.238461 -16.970358
v -27.599562 47.278500 -20.262184
v 16.816870 53.069603 -22.392649
v 16.615820 55.248085 -24.973209
v 20.287647 47.278496 -27.574884
v 7.219323 56.143219 7.301583
v 8.557901 57.769859 4.972188
v 6.756377 58.995457 8.202889
v 3.253854 59.402920 10.042177
v 3.346443 62.126823 10.498943
v 2.216853 61.382484 9.640979
v -8.203416 62.611286 -0.617917
v -9.875315 58.328117 -2.785054
v -8.486475 58.405117 2.406074
v -33.258091 6.865903 -35.148750
v -35.361195 6.875529 -33.151649
v -34.607250 -2.297194 -34.550842
v -35.361195 6.875529 -33.151649
v -35.292412 15.307117 -32.125870
v -36.522530 6.551483 -36.367905
v 6.756377 58.995457 8.202889
v 5.142677 60.051010 10.580072
v 6.121478 58.212616 10.085520
v 0.000000 64.433640 8.973056
v 0.000000 65.476357 4.300930
v -1.166626 65.790779 4.158677
v 5.706149 60.885185 8.576303
v 7.700788 61.574986 6.264690
v 4.391380 62.284035 8.993060
v 7.433602 62.524662 2.969529
v 8.801279 58.405117 1.873737
v -6.991818 48.619598 8.604088
v -7.420375 52.251469 7.414941
v -8.827733 55.305836 4.578769
v 2.550175 64.709557 7.845033
v 4.782901 64.427223 6.960396
v 1.166626 65.790779 4.158677
v 4.486615 64.982269 3.801932
v -8.253679 54.041737 1.595898
v -8.801279 58.405117 1.873737
v -7.870094 53.621441 1.610346
v -7.452120 51.574505 1.046890
v -9.782726 61.481941 -5.588997
v -8.758952 58.770870 -8.949728
v -4.486615 64.982269 3.801932
v -1.166626 65.790779 4.158677
v -1.494657 66.586456 -1.749274
v 0.000000 65.476357 4.300930
v 0.000000 66.281662 -1.749274
v -4.753801 48.064548 -5.598999
v -4.642694 51.542419 -10.075527
v 0.000000 47.856007 -8.321812
v -5.740539 65.203651 -1.358078
v -7.428311 62.537495 2.932855
v -6.280203 64.815437 -5.950187
v 0.000000 65.251778 -7.391611
v -4.547460 61.536484 -10.300021
v 0.000000 61.016727 -12.051513
v 9.875315 58.328117 -2.785054
v 8.758952 58.770870 -8.949728
v 9.848861 61.299065 -5.669015
v 1.494657 66.586456 -1.749274
v 1.166626 65.790779 4.158677
v 4.486615 64.982269 3.801932
v 7.613490 52.386223 -2.946200
v 5.859583 47.833549 -1.302509
v 4.753801 48.064548 -5.598999
v 4.576559 46.078571 -5.860165
v -0.537018 62.017738 10.651199
v -1.825333 61.677654 10.334463
v -0.870340 60.615685 11.257998
v -2.296216 59.624298 10.725659
v -1.386195 58.045780 11.320233
v -2.399387 57.644733 10.647864
v 7.624071 52.094257 -7.114883
v 4.642694 51.542419 -10.075527
v 0.000000 55.655548 -12.519391
v 4.597722 61.398525 -10.361145
v 7.624071 52.094257 -7.114883
v -18.065504 60.022137 -11.574742
v -20.642134 62.803787 -13.328457
v -24.565275 55.238461 -16.970358
v -34.607250 -2.297194 -34.550842
v -36.522530 6.551483 -36.367905
v -11.507533 60.166512 -18.350658
v -16.816870 53.069603 -22.392649
v -16.615820 55.248085 -24.973209
v -20.287647 47.278496 -27.574884
v -13.359320 69.008774 -13.360685
v -8.327750 63.945969 -11.797012
v -12.928118 62.794163 -20.989010
v -16.615820 55.248085 -24.973209
v -10.867344 67.905090 -10.889038
v -9.552575 65.829277 -16.342445
v -13.359320 69.140312 -13.381802
v -14.158233 64.132050 -23.836296
v -20.620970 66.060280 -20.621153
v -11.187438 63.971634 -8.566311
v -8.997039 65.476357 -8.998627
v -16.245462 65.880615 -9.703225
v 8.015592 63.971634 -11.738111
v 8.997039 65.476357 -8.998627
v 9.631937 64.635765 -16.466917
v 2.216853 61.382484 9.640979
v 0.383584 59.293835 10.680094
v 0.843886 58.886372 10.464491
v -0.870340 56.191345 11.042397
v 18.065504 60.022137 -11.574742
v 22.411913 53.069603 -16.812546
v 24.565275 55.238461 -16.970358
v 27.599562 47.278500 -20.262184
v 16.615820 55.248085 -24.973209
v 11.507533 60.166512 -18.350658
v 12.928118 62.794163 -20.989010
v -8.327750 63.945969 -11.797012
v -11.499597 63.820843 -8.743016
v -13.634442 58.774078 -13.634079
v -18.065504 60.022137 -11.574742
v -22.411913 53.069603 -16.812546
v 13.359320 69.008774 -13.360685
v 11.499597 63.820843 -8.743016
v 20.642134 62.803787 -13.328457
v 24.565275 55.238461 -16.970358
v 22.411913 53.069603 -16.812546
v 18.065504 60.022137 -11.574742
v 13.634442 58.774078 -13.634079
v 11.499597 63.820843 -8.743016
v 8.327750 63.945969 -11.797012
v 10.867344 67.905090 -10.889038
v 16.269272 64.687103 -9.847701
v 13.359320 69.140312 -13.381802
v 23.798107 63.339588 -14.191978
v 20.620970 66.060280 -20.621153
v -2.550175 64.709557 7.845033
v -4.782901 64.427223 6.960396
v -4.391380 62.284035 8.993060
v -6.534162 63.127834 6.559198
v -5.706149 60.885185 8.576303
v -7.711370 61.558945 6.261356
v -6.756377 58.995457 8.202889
v -8.557901 57.769859 4.972188
v -7.219323 56.143219 7.301583
v -1.767134 63.637966 7.915048
v -3.521040 62.752457 8.561856
v -3.497232 62.627331 10.368916
v -5.108286 61.671234 8.527404
v -4.690312 61.225273 10.578961
v -6.177032 60.105553 8.278461
v -5.547424 59.386879 10.398921
v -7.512964 57.663986 5.696790
v -6.007726 57.542068 9.904370
v 8.827733 55.305836 4.578769
v 7.420375 52.251469 7.414941
v 8.676944 51.728504 5.414506
v 6.991818 48.619598 8.604088
v 7.473283 49.062351 5.857936
v 7.700788 51.109291 2.380513
v 8.253679 54.041737 1.595898
v -6.597652 55.953926 8.446276
v -4.894008 56.900394 10.365582
v -3.301471 59.110958 10.956821
v -1.825333 61.677654 10.334463
v 0.000000 64.433640 8.973056
v 4.100385 57.776279 9.659872
v 6.433637 55.116543 9.248673
v 5.706149 60.885185 8.576303
v 4.391380 62.284035 8.993060
v 0.000000 64.433640 8.973056
v 6.473318 64.289261 -6.184682
v 5.610914 65.245354 -1.374748
v 8.203416 62.611286 -0.617917
v 8.568482 58.405117 2.236037
v 0.000000 45.539566 -8.714120
v -4.576559 46.078571 -5.860165
v -5.859583 47.833549 -1.302509
v -8.015592 63.971634 -11.738111
v -23.798107 63.339588 -14.191978
v -25.223984 60.772892 -25.225487
v -1.129590 56.441597 10.974604
v 0.000000 64.433640 8.973056
v 11.187438 63.971634 -8.566311
v 14.158233 64.132050 -23.836296
v 25.223984 60.772892 -25.225487
v -4.486615 64.982269 3.801932
v -7.428311 62.537495 2.932855
v 7.433602 62.524662 2.969529
v -35.292412 15.307117 -32.125870
v -32.207867 15.332784 -35.192093
v -34.411491 23.947250 -29.888720
v -29.980431 23.982544 -34.273003
v -32.652294 33.591602 -26.968084
v -26.866781 33.578770 -32.513737
v -30.107409 40.778347 -23.549566
v -23.657900 40.765511 -30.158779
v -27.599562 47.278500 -20.262184
v -20.287647 47.278496 -27.574884
v -16.816870 53.069603 -22.392649
v -11.507533 60.166512 -18.350658
v -36.416714 15.907083 -36.416801
v -34.411491 23.947250 -29.888720
v -35.078133 25.346100 -35.078739
v -32.652294 33.591602 -26.968084
v -33.276611 35.635330 -33.222778
v -30.107409 40.778347 -23.549566
v -30.660299 44.657261 -30.663334
v -27.599562 47.278500 -20.262184
v -27.549297 52.168049 -27.552658
v -23.980640 58.992249 -23.962988
v -18.893517 65.832489 -18.835209
v -11.499597 63.820843 -8.743016
v -16.615820 55.248085 -24.973209
v -20.287647 47.278496 -27.574884
v -23.657900 40.765511 -30.158779
v -26.866781 33.578770 -32.513737
v -29.980431 23.982544 -34.273003
v -32.207867 15.332784 -35.192093
v -33.258091 6.865903 -35.148750
v 34.607250 -2.297194 -34.550842
v 33.258091 6.865903 -35.148750
v 36.522530 6.551483 -36.367905
v 32.207867 15.332784 -35.192093
v 36.416714 15.907083 -36.416801
v 29.980431 23.982544 -34.273003
v 35.078133 25.346100 -35.078739
v 26.932919 33.578770 -32.452610
v 33.276611 35.635330 -33.222778
v 23.657900 40.765511 -30.158779
v 30.660299 44.657261 -30.663334
v 20.287647 47.278496 -27.574884
v 27.549297 52.168049 -27.552658
v 16.615820 55.248085 -24.973209
v 23.980640 58.992249 -23.962988
v 18.893517 65.832489 -18.835209
v 8.327750 63.945969 -11.797012
v 27.599562 47.278500 -20.262184
v 30.107409 40.778347 -23.549566
v 32.588802 33.591602 -27.029209
v 34.411491 23.947250 -29.888720
v 35.292412 15.307117 -32.125870
v 35.361195 6.875529 -33.151649
v 11.507533 60.166512 -18.350658
v 16.816870 53.069603 -22.392649
v 20.287647 47.278496 -27.574884
v 27.599562 47.278500 -20.262184
v 23.657900 40.765511 -30.158779
v 30.107409 40.778347 -23.549566
v 26.932919 33.578770 -32.452610
v 32.588802 33.591602 -27.029209
v 29.980431 23.982544 -34.273003
v 34.411491 23.947250 -29.888720
v 32.207867 15.332784 -35.192093
v 35.292412 15.307117 -32.125870
v 33.258091 6.865903 -35.148750
v 35.361195 6.875529 -33.151649
v 34.607250 -2.297194 -34.550842
vn -0.9804 -0.1728 0.0942
vn -0.9145 -0.3390 -0.2208
vn -0.9086 -0.4151 -0.0470
vn -0.8863 -0.4157 -0.2039
vn -0.9064 -0.4177 -0.0630
vn -0.9622 -0.2524 0.1025
vn 0.9597 -0.2674 0.0865
vn 0.9704 -0.2191 0.1017
vn 0.9788 -0.2036 0.0235
vn 0.1415 -0.6679 0.7307
vn -0.8059 0.0783 0.5868
vn -0.3945 -0.3235 0.8601
vn -0.7453 -0.6589 0.1020
vn -0.6059 0.0315 -0.7949
vn -0.8191 -0.4096 -0.4016
vn 0.8696 0.0157 0.4936
vn 0.9361 0.0629 0.3461
vn 0.8658 0.1653 0.4723
vn -0.3077 -0.1972 0.9308
vn -0.0627 0.2586 0.9639
vn 0.1176 0.1020 0.9878
vn -0.8483 0.4948 0.1885
vn -0.9924 -0.0945 0.0788
vn -0.9790 0.0078 0.2036
vn 0.9859 -0.1330 0.1017
vn -0.2200 -0.1336 0.9663
vn 0.3296 -0.8476 0.4159
vn -0.2200 -0.1335 0.9663
vn -0.2514 -0.1335 0.9586
vn -0.9484 -0.0470 0.3135
vn 0.8658 0.1653 0.4722
vn 0.5664 0.2911 0.7710
vn 0.4954 -0.0786 0.8651
vn -0.0235 0.7845 0.6197
vn -0.0000 0.9876 0.1568
vn -0.0393 0.9827 0.1808
vn 0.7318 0.4013 0.5509
vn 0.8266 0.4172 0.3778
vn 0.5372 0.5924 0.6004
vn 0.8391 0.5254 0.1411
vn 0.9930 0.1173 0.0156
vn -0.9313 -0.1722 0.3209
vn -0.8567 0.0708 0.5109
vn -0.9737 0.0078 0.2277
vn 0.2277 0.8244 0.5182
vn 0.4637 0.8016 0.3773
vn 0.0393 0.9827 0.1808
vn 0.5105 0.8482 0.1414
vn -0.9734 -0.1413 -0.1806
vn -0.9930 0.1173 0.0157
vn -0.9829 -0.1730 0.0629
vn -0.9786 -0.2036 0.0313
vn -0.9290 0.3228 0.1811
vn -0.7015 -0.3862 -0.5990
vn -0.4964 0.8589 0.1261
vn -0.0472 0.9989 -0.0000
vn -0.0000 0.9876 0.1567
vn -0.0000 0.9997 -0.0236
vn -0.7782 -0.4402 -0.4480
vn -0.4560 -0.4717 -0.7547
vn -0.0000 -0.2974 -0.9548
vn -0.5551 0.8288 0.0704
vn -0.8337 0.5427 0.1023
vn -0.2118 0.9728 -0.0941
vn 0.0079 0.8896 -0.4566
vn -0.0940 0.3913 -0.9155
vn -0.0000 0.4472 -0.8944
vn 0.9936 -0.0939 0.0626
vn 0.7015 -0.3862 -0.5990
vn 0.9291 0.3307 0.1653
vn 0.0550 0.9985 -0.0079
vn 0.9064 -0.4177 -0.0630
vn 0.9365 -0.2440 -0.2518
vn 0.7782 -0.4402 -0.4480
vn 0.7060 0.0549 -0.7060
vn 0.0314 0.4781 0.8778
vn -0.1409 0.3365 0.9311
vn -0.0000 0.2036 0.9790
vn -0.4871 0.1257 0.8642
vn -0.1411 -0.0705 0.9875
vn -0.5115 -0.1259 0.8500
vn 0.8863 -0.4157 -0.2040
vn 0.4560 -0.4717 -0.7547
vn -0.0000 -0.1096 -0.9940
vn 0.1021 0.4004 -0.9107
vn 0.8863 -0.4157 -0.2039
vn -0.2669 -0.3768 0.8870
vn -0.7285 0.4308 0.5326
vn -0.8059 0.0782 0.5869
vn 0.3297 -0.8475 0.4159
vn -0.6983 -0.1177 -0.7061
vn 0.8785 -0.4157 -0.2353
vn 0.7453 -0.6589 0.1020
vn 0.6059 0.0315 -0.7949
vn 0.8191 -0.4095 -0.4016
vn -0.0706 0.9970 -0.0314
vn 0.9549 -0.2818 -0.0939
vn 0.5252 0.4390 -0.7290
vn 0.6060 0.0315 -0.7948
vn 0.3531 0.8631 0.3610
vn 0.6654 0.7281 -0.1644
vn -0.0236 0.9997 -0.0000
vn 0.1020 0.8396 -0.5336
vn -0.3600 0.8843 -0.2974
vn -0.0629 0.3693 0.9272
vn 0.4809 0.6938 0.5361
vn -0.2045 0.6843 0.7000
vn -0.6928 0.7086 -0.1339
vn -0.4157 0.7686 0.4863
vn -0.6911 0.6833 -0.2356
vn 0.1176 0.1019 0.9878
vn 0.4155 -0.0235 0.9093
vn 0.4220 -0.0000 0.9066
vn 0.3859 -0.0473 0.9213
vn 0.2669 -0.3768 0.8870
vn -0.1415 -0.6679 0.7307
vn 0.8059 0.0783 0.5868
vn 0.3945 -0.3235 0.8601
vn -0.6060 0.0315 -0.7948
vn -0.8785 -0.4157 -0.2354
vn -0.5252 0.4390 -0.7290
vn 0.9549 -0.2817 -0.0939
vn -0.0868 -0.2601 0.9617
vn 0.4628 -0.7608 0.4549
vn 0.0706 0.9970 -0.0314
vn 0.0867 -0.2602 0.9617
vn 0.7285 0.4308 0.5326
vn 0.8059 0.0782 0.5869
vn -0.8785 -0.4157 -0.2353
vn -0.4628 -0.7608 0.4549
vn 0.0868 -0.2601 0.9617
vn -0.9549 -0.2818 -0.0939
vn -0.3452 0.8630 0.3688
vn 0.2669 0.6201 0.7378
vn -0.0000 0.9992 0.0394
vn 0.5734 0.7934 0.2042
vn 0.3600 0.8843 -0.2974
vn -0.2277 0.8244 0.5182
vn -0.4160 0.8241 0.3846
vn -0.4566 0.5275 0.7164
vn -0.6920 0.6055 0.3932
vn -0.6596 0.3298 0.6754
vn -0.8805 0.3066 0.3616
vn -0.8253 0.0865 0.5581
vn -0.9361 0.0629 0.3461
vn -0.8696 0.0157 0.4936
vn -0.4306 0.9004 0.0626
vn -0.4960 0.8660 0.0630
vn -0.3928 0.7699 0.5029
vn -0.7066 0.6752 0.2120
vn -0.5012 0.3681 0.7831
vn -0.8788 0.3452 0.3295
vn -0.6845 0.0866 0.7239
vn -0.9372 0.1103 0.3308
vn -0.7775 -0.1021 0.6205
vn 0.9737 0.0078 0.2277
vn 0.8567 0.0708 0.5109
vn 0.9805 -0.1726 0.0941
vn 0.9313 -0.1722 0.3209
vn 0.9086 -0.4151 -0.0470
vn 0.9145 -0.3390 -0.2208
vn 0.9734 -0.1413 -0.1805
vn -0.8021 -0.2123 0.5583
vn -0.4237 -0.2197 0.8788
vn -0.1413 0.0471 0.9889
vn -0.1408 0.3364 0.9311
vn -0.0236 0.7845 0.6197
vn -0.1408 -0.2895 0.9468
vn 0.5263 -0.1728 0.8326
vn 0.7318 0.4013 0.5508
vn 0.5372 0.5925 0.6003
vn 0.1731 0.9834 -0.0551
vn 0.5508 0.8341 0.0315
vn 0.8483 0.4948 0.1885
vn 0.9741 0.0786 0.2121
vn -0.0000 0.1644 -0.9864
vn -0.7060 0.0549 -0.7060
vn -0.9365 -0.2440 -0.2518
vn 0.8080 0.5883 -0.0314
vn -0.5731 0.8086 0.1334
vn -0.4713 0.7776 -0.4163
vn -0.0236 -0.2127 0.9768
vn 0.1489 0.4702 0.8699
vn -0.1656 0.8278 -0.5361
vn 0.4713 0.7776 -0.4163
vn -0.8337 0.5427 0.1022
vn 0.8391 0.5254 0.1412
vn -0.2514 -0.1336 0.9586
vn 0.9513 -0.1887 -0.2437
vn -0.3152 -0.1892 0.9300
vn 0.9269 -0.2277 -0.2984
vn -0.3609 -0.2354 0.9024
vn 0.8826 -0.2994 -0.3625
vn -0.3710 -0.2842 0.8841
vn 0.8736 -0.3069 -0.3777
vn 0.8191 -0.4096 -0.4017
vn 0.7452 -0.6590 0.1020
vn -0.2515 -0.1336 0.9586
vn -0.6921 0.0944 -0.7156
vn -0.3153 -0.1892 0.9300
vn -0.6831 0.2120 -0.6989
vn -0.3610 -0.2354 0.9024
vn -0.6614 0.3386 -0.6693
vn -0.3710 -0.2841 0.8841
vn -0.6353 0.4392 -0.6353
vn -0.6150 0.5125 -0.5993
vn -0.5592 0.6458 -0.5198
vn -0.4011 0.8416 -0.3618
vn -0.0867 -0.2602 0.9617
vn 0.8191 -0.4095 -0.4017
vn 0.8736 -0.3069 -0.3778
vn 0.9268 -0.2277 -0.2985
vn 0.9513 -0.1886 -0.2438
vn -0.3296 -0.8475 0.4160
vn -0.9859 -0.1330 0.1017
vn 0.6983 -0.1177 -0.7061
vn -0.9513 -0.1887 -0.2438
vn 0.6921 0.0944 -0.7157
vn -0.9285 -0.2203 -0.2991
vn 0.6820 0.2195 -0.6976
vn -0.8826 -0.2994 -0.3625
vn 0.6658 0.3368 -0.6658
vn -0.8735 -0.3069 -0.3778
vn 0.6353 0.4392 -0.6353
vn -0.8191 -0.4095 -0.4017
vn 0.6150 0.5125 -0.5993
vn 0.5592 0.6458 -0.5198
vn 0.4011 0.8416 -0.3618
vn 0.8059 0.0783 0.5869
vn 0.3702 -0.2914 0.8821
vn 0.3610 -0.2354 0.9024
vn 0.3153 -0.1891 0.9300
vn 0.2515 -0.1336 0.9586
vn 0.2200 -0.1335 0.9663
vn -0.7452 -0.6589 0.1020
vn 0.3945 -0.3236 0.8600
vn -0.8736 -0.3069 -0.3777
vn 0.3701 -0.2914 0.8821
vn 0.3609 -0.2354 0.9024
vn -0.9285 -0.2203 -0.2990
vn 0.3152 -0.1892 0.9300
vn -0.9513 -0.1887 -0.2437
vn 0.2514 -0.1336 0.9586
vn 0.2200 -0.1336 0.9663
vn -0.3296 -0.8476 0.4159
vt 0.686584 0.453674
vt 0.766907 0.479065
vt 0.684204 0.515961
vt 0.273834 0.877594
vt 0.425201 0.862488
vt 0.531647 0.785126
vt 0.599823 0.828125
vt 0.598907 0.914825
vt 0.898499 0.777313
vt 0.898651 0.697510
vt 0.857727 0.726715
vt 0.581360 0.301605
vt 0.689484 0.297119
vt 0.582123 0.228546
vt 0.173798 0.170105
vt 0.122498 0.091034
vt 0.172729 0.093994
vt 0.450897 0.622375
vt 0.456116 0.718750
vt 0.565613 0.693970
vt 0.656891 0.760590
vt 0.656891 0.989990
vt 0.607300 0.874725
vt 0.656891 0.755188
vt 0.715118 0.753174
vt 0.656891 0.569000
vt 0.013458 0.277771
vt 0.095154 0.198212
vt 0.095825 0.282471
vt 0.587097 0.009979
vt 0.779388 0.009979
vt 0.775757 0.036652
vt 0.584625 0.150299
vt 0.674744 0.197235
vt 0.585632 0.107239
vt 0.776947 0.189728
vt 0.774017 0.304871
vt 0.581696 0.515961
vt 0.581696 0.443085
vt 0.694153 0.391602
vt 0.634644 0.037415
vt 0.665924 0.084991
vt 0.774170 0.098785
vt 0.773315 0.410431
vt 0.321838 0.631653
vt 0.213684 0.690643
vt 0.543335 0.494293
vt 0.539459 0.408844
vt 0.334229 0.422150
vt 0.556366 0.371552
vt 0.338928 0.370270
vt 0.262115 0.924469
vt 0.135803 0.835907
vt 0.073303 0.929657
vt 0.377991 0.506500
vt 0.557892 0.623993
vt 0.227570 0.555786
vt 0.167053 0.414032
vt 0.172577 0.570801
vt 0.034241 0.476532
vt 0.450012 0.989990
vt 0.262360 0.989990
vt 0.297272 0.079926
vt 0.380737 0.089600
vt 0.295380 0.117981
vt 0.377289 0.189606
vt 0.302368 0.232971
vt 0.371613 0.234772
vt 0.275360 0.877594
vt 0.137360 0.835907
vt 0.009979 0.666016
vt 0.940369 0.754852
vt 0.940033 0.645905
vt 0.898865 0.697510
vt 0.607025 0.660278
vt 0.980988 0.503693
vt 0.980988 0.755188
vt 0.899109 0.697510
vt 0.807037 0.059875
vt 0.913971 0.084900
vt 0.806366 0.140411
vt 0.983032 0.183929
vt 0.806091 0.231873
vt 0.859100 0.013031
vt 0.807068 0.011292
vt 0.189606 0.097168
vt 0.235443 0.174347
vt 0.223938 0.206421
vt 0.286163 0.318787
vt 0.980988 0.813019
vt 0.980988 0.940430
vt 0.940460 0.880341
vt 0.940033 0.989990
vt 0.898865 0.970001
vt 0.670898 0.138794
vt 0.506622 0.058350
vt 0.548309 0.094116
vt 0.504913 0.094635
vt 0.565948 0.133820
vt 0.498444 0.140320
vt 0.559204 0.188385
vt 0.483551 0.225861
vt 0.573425 0.315277
vt 0.457642 0.317535
vt 0.448883 0.348999
vt 0.386475 0.317444
vt 0.395660 0.175598
vt 0.402557 0.090424
vt 0.430878 0.012634
vt 0.174591 0.283661
vt 0.128174 0.350220
vt 0.012329 0.189453
vt 0.029633 0.118103
vt 0.174469 0.010040
vt 0.073303 0.989990
vt 0.806702 0.300964
vt 0.287201 0.316223
vt 0.297821 0.011322
vt 0.715118 0.989990
vt 0.715118 0.760590
vt 0.751862 0.989990
vt 0.751862 0.760590
vt 0.784210 0.989990
vt 0.784210 0.760590
vt 0.816559 0.989990
vt 0.816559 0.760590
vt 0.857727 0.989990
vt 0.857727 0.760590
vt 0.898865 0.777863
vt 0.940033 0.760559
vt 0.715118 0.569000
vt 0.751862 0.751160
vt 0.751862 0.569000
vt 0.784210 0.747131
vt 0.784210 0.569000
vt 0.816559 0.740112
vt 0.816559 0.555389
vt 0.857727 0.727051
vt 0.857727 0.544220
vt 0.898865 0.534790
vt 0.940033 0.523224
s 1
usemtl f_hair0121
f 1/1/1 2/2/2 3/3/3
f 4/4/4 5/5/5 6/6/6
f 7/6/7 8/7/8 9/8/9
f 10/9/10 11/10/11 12/11/12
f 13/9/13 14/10/14 15/11/15
f 16/12/16 17/13/17 18/14/18
f 19/15/19 20/16/20 21/17/21
f 22/18/22 23/19/23 24/20/24
f 25/21/25 26/22/26 27/23/27
f 28/24/28 29/25/29 30/26/30
f 31/27/31 32/28/32 33/29/33
f 34/30/34 35/31/35 36/32/36
f 37/33/37 38/34/38 39/35/39
f 40/36/40 38/34/38 41/37/41
f 3/3/3 42/38/42 1/1/1
f 1/1/1 42/38/42 43/39/43
f 1/1/1 43/39/43 44/40/44
f 45/41/45 46/42/46 47/32/47
f 47/32/47 46/42/46 48/43/48
f 2/2/2 1/1/1 49/44/49
f 49/44/49 1/1/1 44/40/44
f 49/44/49 44/40/44 50/37/50
f 51/7/51 6/6/6 52/8/52
f 53/45/53 54/46/54 23/19/23
f 55/47/55 56/48/36 57/49/56
f 57/49/56 56/48/36 58/50/57
f 57/49/56 58/50/57 59/51/58
f 5/5/5 4/4/4 60/52/59
f 60/52/59 4/4/4 61/53/60
f 60/52/59 61/53/60 62/54/61
f 57/49/56 63/55/62 55/47/55
f 55/47/55 63/55/62 22/18/22
f 55/47/55 22/18/22 64/56/63
f 64/56/63 22/18/22 24/20/24
f 65/57/64 66/58/65 67/59/66
f 67/59/66 66/58/65 68/60/67
f 69/19/68 70/46/69 71/45/70
f 72/49/71 73/48/47 74/47/48
f 75/5/72 76/61/73 77/52/74
f 77/52/74 76/61/73 78/62/75
f 77/52/74 78/62/75 62/54/61
f 79/63/76 80/64/77 81/65/78
f 81/65/78 80/64/77 82/66/79
f 81/65/78 82/66/79 83/67/80
f 83/67/80 82/66/79 84/68/81
f 85/69/82 86/70/83 70/46/69
f 70/46/69 86/70/83 87/71/84
f 70/46/69 87/71/84 88/59/85
f 8/7/8 7/6/7 69/19/68
f 69/19/68 7/6/7 89/4/86
f 69/19/68 89/4/86 70/46/69
f 11/10/11 10/9/10 90/72/87
f 91/73/88 92/74/89 90/72/87
f 93/75/90 28/24/28 94/26/91
f 95/72/92 96/9/93 97/10/94
f 97/10/94 96/9/93 98/11/95
f 99/76/96 100/77/97 101/73/98
f 101/73/98 100/77/97 95/72/92
f 101/73/98 95/72/92 102/78/99
f 103/79/100 104/80/101 105/81/102
f 105/81/102 104/80/101 106/82/103
f 105/81/102 106/82/103 107/83/104
f 108/84/105 109/85/106 110/80/107
f 111/84/108 112/85/109 113/80/110
f 114/86/111 115/87/112 116/88/113
f 116/88/113 115/87/112 117/89/114
f 118/72/115 119/9/116 120/10/117
f 120/10/117 119/9/116 121/11/118
f 122/78/119 123/72/120 124/73/121
f 125/90/122 126/91/123 127/92/124
f 127/92/124 126/91/123 128/93/87
f 127/92/124 128/93/87 129/94/10
f 130/76/125 131/77/126 132/73/127
f 132/73/127 131/77/126 118/72/115
f 132/73/127 118/72/115 133/74/128
f 14/10/14 13/9/13 123/72/129
f 134/94/116 135/93/115 136/92/130
f 136/92/130 135/93/115 137/91/131
f 136/92/130 137/91/131 138/90/132
f 139/79/133 140/80/134 141/81/135
f 141/81/135 140/80/134 142/82/136
f 141/81/135 142/82/136 143/83/137
f 144/41/138 145/42/139 146/35/140
f 146/35/140 145/42/139 147/95/141
f 146/35/140 147/95/141 148/33/142
f 148/33/142 147/95/141 149/34/143
f 148/33/142 149/34/143 150/14/144
f 150/14/144 149/34/143 151/13/145
f 150/14/144 151/13/145 152/12/146
f 153/96/147 154/97/148 155/98/149
f 155/98/149 154/97/148 156/99/150
f 155/98/149 156/99/150 157/100/151
f 157/100/151 156/99/150 158/101/152
f 157/100/151 158/101/152 159/102/153
f 159/102/153 158/101/152 160/103/154
f 159/102/153 160/103/154 161/104/155
f 17/13/17 16/12/16 162/40/156
f 162/40/156 16/12/16 163/39/157
f 162/40/156 163/39/157 164/1/158
f 164/1/158 163/39/157 165/38/159
f 164/1/158 165/38/159 166/3/160
f 166/3/160 167/2/161 164/1/158
f 164/1/158 167/2/161 168/44/162
f 164/1/158 168/44/162 162/40/156
f 162/40/156 168/44/162 41/37/41
f 162/40/156 41/37/41 17/13/17
f 17/13/17 41/37/41 38/34/38
f 17/13/17 38/34/38 18/14/18
f 18/14/18 38/34/38 37/33/37
f 160/103/154 169/105/163 161/104/155
f 161/104/155 169/105/163 170/106/164
f 161/104/155 170/106/164 159/102/153
f 159/102/153 170/106/164 171/107/165
f 159/102/153 171/107/165 157/100/151
f 157/100/151 171/107/165 172/108/166
f 157/100/151 172/108/166 155/98/149
f 155/98/149 172/108/166 173/109/167
f 155/98/149 173/109/167 153/96/147
f 40/36/40 48/43/48 38/34/38
f 38/34/38 48/43/48 46/42/46
f 38/34/38 46/42/46 39/35/39
f 39/35/39 46/42/46 45/41/45
f 39/35/39 45/41/45 34/30/34
f 34/30/34 45/41/45 47/32/47
f 34/30/34 47/32/47 35/31/35
f 20/16/20 19/15/19 32/28/32
f 32/28/32 19/15/19 174/110/168
f 32/28/32 174/110/168 33/29/33
f 33/29/33 174/110/168 175/111/169
f 33/29/33 175/111/169 31/27/31
f 31/27/31 176/112/170 32/28/32
f 32/28/32 176/112/170 177/113/171
f 32/28/32 177/113/171 20/16/20
f 20/16/20 177/113/171 178/114/34
f 20/16/20 178/114/34 21/17/21
f 179/57/172 180/55/173 71/45/70
f 71/45/70 180/55/173 181/18/174
f 71/45/70 181/18/174 69/19/68
f 69/19/68 181/18/174 182/20/175
f 69/19/68 182/20/175 8/7/8
f 78/62/75 183/115/176 62/54/61
f 62/54/61 183/115/176 184/62/177
f 62/54/61 184/62/177 60/52/59
f 60/52/59 184/62/177 185/61/178
f 60/52/59 185/61/178 5/5/5
f 186/84/179 104/80/101 109/85/106
f 109/85/106 104/80/101 103/79/100
f 109/85/106 103/79/100 110/80/107
f 110/80/107 103/79/100 105/81/102
f 110/80/107 105/81/102 187/82/180
f 187/82/180 105/81/102 107/83/104
f 187/82/180 107/83/104 188/116/181
f 188/116/181 107/83/104 106/82/103
f 84/68/81 189/117/182 83/67/80
f 83/67/80 189/117/182 115/87/112
f 83/67/80 115/87/112 81/65/78
f 81/65/78 115/87/112 114/86/111
f 81/65/78 114/86/111 79/63/76
f 79/63/76 114/86/111 190/118/34
f 79/63/76 190/118/34 80/64/77
f 191/84/183 140/80/134 112/85/109
f 112/85/109 140/80/134 139/79/133
f 112/85/109 139/79/133 113/80/110
f 113/80/110 139/79/133 141/81/135
f 113/80/110 141/81/135 192/82/184
f 192/82/184 141/81/135 143/83/137
f 192/82/184 143/83/137 193/116/185
f 193/116/185 143/83/137 142/82/136
f 146/35/140 34/30/34 144/41/138
f 144/41/138 34/30/34 36/32/36
f 144/41/138 36/32/36 145/42/139
f 145/42/139 36/32/36 194/43/55
f 145/42/139 194/43/55 147/95/141
f 147/95/141 194/43/55 195/36/186
f 147/95/141 195/36/186 149/34/143
f 149/34/143 195/36/186 50/37/50
f 149/34/143 50/37/50 151/13/145
f 151/13/145 50/37/50 44/40/44
f 151/13/145 44/40/44 152/12/146
f 152/12/146 44/40/44 43/39/43
f 23/19/23 22/18/22 53/45/53
f 53/45/53 22/18/22 63/55/62
f 53/45/53 63/55/62 65/57/64
f 65/57/64 63/55/62 57/49/56
f 65/57/64 57/49/56 66/58/65
f 66/58/65 57/49/56 59/51/58
f 66/58/65 59/51/58 72/49/71
f 72/49/71 59/51/58 58/50/57
f 72/49/71 58/50/57 73/48/47
f 54/46/54 67/59/66 87/71/84
f 87/71/84 67/59/66 68/60/67
f 87/71/84 68/60/67 88/59/85
f 88/59/85 68/60/67 66/58/65
f 88/59/85 66/58/65 179/57/172
f 179/57/172 66/58/65 72/49/71
f 179/57/172 72/49/71 180/55/173
f 180/55/173 72/49/71 74/47/48
f 180/55/173 74/47/48 181/18/174
f 181/18/174 74/47/48 196/56/187
f 181/18/174 196/56/187 182/20/175
f 51/7/51 24/20/24 6/6/6
f 6/6/6 24/20/24 23/19/23
f 6/6/6 23/19/23 4/4/4
f 4/4/4 23/19/23 54/46/54
f 4/4/4 54/46/54 61/53/60
f 61/53/60 54/46/54 87/71/84
f 61/53/60 87/71/84 62/54/61
f 62/54/61 87/71/84 86/70/83
f 62/54/61 86/70/83 77/52/74
f 77/52/74 86/70/83 89/4/86
f 77/52/74 89/4/86 75/5/72
f 75/5/72 89/4/86 7/6/7
f 26/22/26 25/21/25 197/119/188
f 197/119/188 25/21/25 198/120/189
f 197/119/188 198/120/189 199/121/190
f 199/121/190 198/120/189 200/122/191
f 199/121/190 200/122/191 201/123/192
f 201/123/192 200/122/191 202/124/193
f 201/123/192 202/124/193 203/125/194
f 203/125/194 202/124/193 204/126/195
f 203/125/194 204/126/195 205/127/12
f 205/127/12 204/126/195 206/128/196
f 205/127/12 206/128/196 129/94/10
f 129/94/10 206/128/196 207/129/197
f 129/94/10 207/129/197 127/92/124
f 127/92/124 207/129/197 208/130/92
f 127/92/124 208/130/92 125/90/122
f 94/26/91 29/25/198 209/131/199
f 209/131/199 29/25/198 210/132/200
f 209/131/199 210/132/200 211/133/201
f 211/133/201 210/132/200 212/134/202
f 211/133/201 212/134/202 213/135/203
f 213/135/203 212/134/202 214/136/204
f 213/135/203 214/136/204 215/137/205
f 215/137/205 214/136/204 216/138/12
f 215/137/205 216/138/12 217/139/206
f 217/139/206 216/138/12 11/10/89
f 217/139/206 11/10/89 218/140/207
f 218/140/207 11/10/89 91/73/88
f 218/140/207 91/73/88 219/141/208
f 90/72/87 220/77/209 91/73/88
f 91/73/88 220/77/209 99/76/96
f 91/73/88 99/76/96 219/141/208
f 219/141/208 99/76/96 101/73/98
f 219/141/208 101/73/98 218/140/207
f 218/140/207 101/73/98 221/74/99
f 218/140/207 221/74/99 217/139/206
f 217/139/206 221/74/99 222/138/210
f 217/139/206 222/138/210 215/137/205
f 215/137/205 222/138/210 223/136/211
f 215/137/205 223/136/211 213/135/203
f 213/135/203 223/136/211 224/134/193
f 213/135/203 224/134/193 211/133/201
f 211/133/201 224/134/193 225/132/212
f 211/133/201 225/132/212 209/131/199
f 209/131/199 225/132/212 226/25/213
f 209/131/199 226/25/213 94/26/91
f 94/26/91 226/25/213 227/24/25
f 94/26/91 227/24/25 93/75/90
f 228/75/214 229/24/215 230/26/216
f 230/26/216 229/24/215 231/25/217
f 230/26/216 231/25/217 232/131/218
f 232/131/218 231/25/217 233/132/219
f 232/131/218 233/132/219 234/133/220
f 234/133/220 233/132/219 235/134/221
f 234/133/220 235/134/221 236/135/222
f 236/135/222 235/134/221 237/136/223
f 236/135/222 237/136/223 238/137/224
f 238/137/224 237/136/223 239/138/225
f 238/137/224 239/138/225 240/139/226
f 240/139/226 239/138/225 241/74/119
f 240/139/226 241/74/119 242/140/227
f 242/140/227 241/74/119 124/73/121
f 242/140/227 124/73/121 243/141/228
f 123/72/120 244/77/132 124/73/121
f 124/73/121 244/77/132 130/76/125
f 124/73/121 130/76/125 243/141/228
f 243/141/228 130/76/125 132/73/127
f 243/141/228 132/73/127 242/140/227
f 242/140/227 132/73/127 120/10/229
f 242/140/227 120/10/229 240/139/226
f 240/139/226 120/10/229 245/138/118
f 240/139/226 245/138/118 238/137/224
f 238/137/224 245/138/118 246/136/230
f 238/137/224 246/136/230 236/135/222
f 236/135/222 246/136/230 247/134/231
f 236/135/222 247/134/231 234/133/220
f 234/133/220 247/134/231 248/132/232
f 234/133/220 248/132/232 232/131/218
f 232/131/218 248/132/232 249/25/233
f 232/131/218 249/25/233 230/26/216
f 230/26/216 249/25/233 250/24/234
f 230/26/216 250/24/234 228/75/214
f 138/90/132 251/130/129 136/92/130
f 136/92/130 251/130/129 252/129/235
f 136/92/130 252/129/235 134/94/116
f 134/94/116 252/129/235 253/128/15
f 134/94/116 253/128/15 254/127/236
f 254/127/236 253/128/15 255/126/237
f 254/127/236 255/126/237 256/125/238
f 256/125/238 255/126/237 257/124/221
f 256/125/238 257/124/221 258/123/239
f 258/123/239 257/124/221 259/122/240
f 258/123/239 259/122/240 260/121/241
f 260/121/241 259/122/240 261/120/242
f 260/121/241 261/120/242 262/119/243
f 262/119/243 261/120/242 263/21/215
f 262/119/243 263/21/215 264/22/244
f 264/22/244 263/21/215 265/23/245
o editpl_f-0000-1924
v -10.602803 62.604870 -7.200459
v -8.970585 66.390747 -8.944171
v -12.139786 63.990887 -8.346263
v 8.758952 58.770870 -8.949728
v 6.642624 62.611286 -11.153540
v 9.957323 60.105553 -9.958836
v -7.793377 64.000511 -12.691651
v -6.642624 62.611286 -11.153540
v -11.369971 60.529057 -11.370254
v -9.957323 60.105553 -9.958836
v -7.819831 64.683891 -7.820593
v 9.848861 61.299065 -5.669015
v 10.602803 62.604870 -7.200459
v 6.473318 64.289261 -6.184682
v 7.819831 64.683891 -7.820593
v 4.597722 61.398525 -10.361145
v -6.280203 64.815437 -5.950187
v -4.547460 61.536484 -10.300021
v -8.758952 58.770870 -8.949728
v -9.782726 61.481941 -5.588997
v 8.970585 66.390747 -8.944171
v 12.139786 63.990887 -8.346263
v 11.369971 60.529057 -11.370254
v 7.793377 64.000511 -12.691651
vn -0.7451 0.0235 0.6666
vn 0.2424 0.9071 0.3440
vn -0.8938 0.2666 0.3606
vn 0.7015 -0.3862 -0.5990
vn -0.6905 0.0471 -0.7218
vn 0.3621 -0.8974 -0.2519
vn 0.3072 0.2915 -0.9059
vn 0.6575 0.0548 -0.7515
vn -0.5099 -0.7530 -0.4158
vn -0.3621 -0.8974 -0.2519
vn 0.2047 0.9369 0.2834
vn 0.9291 0.3307 0.1654
vn 0.7225 0.0157 0.6911
vn 0.1731 0.9834 -0.0550
vn -0.2833 0.8815 0.3778
vn 0.1021 0.4004 -0.9106
vn -0.2118 0.9728 -0.0941
vn -0.0939 0.3912 -0.9155
vn -0.7015 -0.3862 -0.5990
vn -0.9290 0.3228 0.1811
vn -0.2424 0.9071 0.3440
vn 0.8938 0.2666 0.3606
vn 0.5099 -0.7530 -0.4158
vn -0.3072 0.2915 -0.9059
vt 0.895264 0.402008
vt 0.799469 0.481049
vt 0.895264 0.481049
vt 0.989990 0.324280
vt 0.989990 0.402008
vt 0.989990 0.481049
vt 0.799469 0.402008
vt 0.895264 0.324280
vt 0.799469 0.324280
s 1
usemtl f_hair0121
f 266/142/246 267/143/247 268/144/248
f 269/145/249 270/142/250 271/146/251
f 272/144/252 273/142/253 274/147/254
f 274/147/254 273/142/253 275/146/255
f 267/143/247 266/142/246 276/148/256
f 277/149/257 278/142/258 279/150/259
f 279/150/259 278/142/258 280/148/260
f 270/142/250 269/145/249 281/149/261
f 282/150/262 283/149/263 273/142/253
f 273/142/253 283/149/263 284/145/264
f 273/142/253 284/145/264 275/146/255
f 275/146/255 284/145/264 266/142/246
f 275/146/255 266/142/246 274/147/254
f 274/147/254 266/142/246 268/144/248
f 274/147/254 268/144/248 272/144/252
f 272/144/252 268/144/248 267/143/247
f 272/144/252 267/143/247 273/142/253
f 273/142/253 267/143/247 276/148/256
f 273/142/253 276/148/256 282/150/262
f 282/150/262 276/148/256 266/142/246
f 282/150/262 266/142/246 285/149/265
f 285/149/265 266/142/246 284/145/264
f 281/149/261 279/150/259 270/142/250
f 270/142/250 279/150/259 280/148/260
f 270/142/250 280/148/260 286/143/266
f 286/143/266 280/148/260 278/142/258
f 286/143/266 278/142/258 287/144/267
f 287/144/267 278/142/258 288/147/268
f 287/144/267 288/147/268 286/143/266
f 286/143/266 288/147/268 289/144/269
f 286/143/266 289/144/269 270/142/250
f 270/142/250 289/144/269 288/147/268
f 270/142/250 288/147/268 271/146/251
f 271/146/251 288/147/268 278/142/258
f 271/146/251 278/142/258 269/145/249
f 269/145/249 278/142/258 277/149/257
