mtllib f_hair010.mtl
o editpl_f-0000-1912
v -0.896794 61.687279 -5.865724
v 0.912666 62.136448 -6.374724
v -0.896794 64.619728 -6.061322
v -0.018518 52.800098 2.979532
v -0.023809 59.127003 5.951289
v -5.716731 52.838600 2.825054
v -0.018518 53.271729 2.757262
v -0.023809 59.207211 5.313373
v -5.544779 53.310230 2.667242
v -0.018518 53.727318 2.543882
v -0.023809 58.616871 5.986853
v -5.378118 53.762611 2.516098
v -13.846075 76.731316 -6.011312
v -7.502382 80.151428 -6.291373
v -5.311983 79.634888 -11.441381
v -0.023809 81.213402 -6.379170
v -18.081375 71.039665 -5.563436
v -9.795953 75.489677 -16.145737
v -0.023809 79.458427 -13.578512
v 19.695076 64.504227 -5.026653
v 15.110581 62.402744 -19.656498
v 18.033758 71.039665 -5.563436
v 12.187403 54.266323 3.468528
v 9.877960 48.805683 -1.854852
v 16.454449 51.776630 -3.275160
v 8.245742 45.664692 -10.235561
v 13.076261 49.110477 -15.507818
v 13.917501 66.910500 8.138431
v 12.742939 72.586098 6.762576
v 18.033758 71.039665 -5.563436
v 9.359460 77.793282 3.401844
v 13.375192 59.435005 7.817250
v -0.023809 62.701122 13.844115
v -8.303941 45.664692 -10.235561
v -9.944096 48.805683 -1.854852
v -16.507357 51.776630 -3.275160
v -12.242957 54.266323 3.468528
v -13.425455 59.435005 7.817250
v -13.425455 76.371979 -5.981306
v -7.277522 79.683006 -6.253587
v -5.153258 79.179298 -11.246895
v -0.023809 80.703270 -6.336939
v -17.536423 70.847168 -5.547877
v -9.499667 75.152794 -15.827889
v -0.023809 79.009254 -13.318456
v 19.097214 64.504227 -5.026653
v 14.652925 62.444450 -19.248631
v 17.486158 70.847168 -5.547877
v 11.817046 54.628868 3.178464
v 9.576384 49.277313 -1.854852
v 15.957112 52.135967 -3.304055
v 7.997074 46.145947 -10.117758
v 12.679449 49.492275 -15.248873
v 13.496881 66.868790 7.730564
v 12.356709 72.358307 6.401386
v 9.076401 77.408279 3.142899
v 12.967799 59.617882 7.432722
v -0.023809 62.832664 13.290661
v -8.052628 46.145947 -10.117758
v -9.642519 49.277313 -1.854852
v -16.010019 52.135967 -3.304055
v -11.872599 54.628868 3.178464
v -13.018062 59.617882 7.432722
v -13.023353 76.025475 -5.952411
v -7.057953 79.230629 -6.215801
v -4.997179 78.736542 -11.059075
v -0.023809 80.212387 -6.296930
v -17.007339 70.657875 -5.532318
v -9.216608 74.828751 -15.521156
v -0.023809 78.572914 -13.068400
v 18.520514 64.504227 -5.026653
v 14.211142 62.482952 -18.855213
v 16.959723 70.657875 -5.532318
v 11.459915 54.975372 2.899515
v 9.288034 49.729694 -1.854852
v 15.475648 52.482471 -3.332951
v 7.753696 46.611160 -10.004400
v 12.295865 49.861237 -14.998818
v 13.089488 66.830292 7.338256
v 11.983707 72.143349 6.052421
v 8.801279 77.039314 2.892845
v 12.578924 59.794342 7.062642
v -0.023809 62.960999 12.756101
v -7.811895 46.611160 -10.004400
v -9.354169 49.729694 -1.854852
v -15.528556 52.482471 -3.332951
v -11.518114 54.975372 2.899515
v -12.626541 59.794342 7.062642
v -19.742695 64.504227 -5.026653
v -13.470427 69.316772 -18.619608
v -0.023809 74.864044 -20.795635
v 5.264366 79.634888 -11.441381
v 7.454765 80.151428 -6.291373
v 9.748335 75.489677 -16.145737
v -0.023809 68.591682 -24.479771
v -15.163489 62.402744 -19.656498
v 5.264366 80.619850 -1.156924
v 13.795812 76.731316 -6.011312
v 13.420164 69.316772 -18.619608
v -0.023809 61.539688 -25.931194
v -14.861912 54.577538 -18.567371
v -0.023809 48.205719 -20.891211
v -0.023809 45.173813 -13.754104
v -0.023809 48.298759 -1.854852
v 5.679695 52.838600 2.825054
v -0.023809 67.648422 14.696522
v -0.023809 73.093025 12.932804
v -0.023809 78.168663 7.872816
v 9.359460 77.793282 3.401844
v -0.023809 80.793106 0.977984
v -19.147476 64.504227 -5.026653
v -13.063034 69.153145 -18.227301
v -0.023809 74.536789 -20.357763
v 5.102996 79.179298 -11.246895
v 7.227260 79.683006 -6.253587
v 9.452049 75.152794 -15.827889
v -0.023809 68.440887 -23.930761
v -14.705833 62.444450 -19.248631
v 5.102996 80.135391 -1.274727
v 13.377838 76.371979 -5.981306
v 13.012771 69.153145 -18.227301
v -0.023809 61.597439 -25.355515
v -14.412193 54.814957 -18.213963
v -19.147476 64.504227 -5.026653
v -0.023809 48.597137 -20.512239
v -0.023809 45.661484 -13.571842
v -0.023809 48.812099 -1.854852
v 5.507743 53.310230 2.667242
v -0.023809 67.590675 14.119730
v -0.023809 72.852394 12.414914
v -0.023809 77.777237 7.493845
v -0.023809 80.305435 0.795722
v -18.570778 64.504227 -5.026653
v -12.671513 68.992729 -17.848330
v -0.023809 74.222366 -19.935450
v 4.949562 78.736542 -11.059075
v 7.010336 79.230629 -6.215801
v 9.166345 74.828751 -15.521156
v -0.023809 68.293304 -23.400646
v -14.264050 62.482952 -18.855213
v 4.949562 79.670174 -1.388085
v 12.973090 76.025475 -5.952411
v 12.618605 68.992729 -17.848330
v -0.023809 61.655193 -24.799837
v -13.980991 55.042747 -17.872776
v -18.570778 64.504227 -5.026653
v -0.023809 48.975727 -20.147717
v -0.023809 46.133114 -13.396249
v -0.023809 49.302979 -1.854852
v 5.341082 53.762611 2.516098
v -0.023809 67.536133 13.564054
v -0.023809 72.624603 11.915917
v -0.023809 77.398651 7.129321
v 8.801279 77.039314 2.892845
v -0.023809 79.833801 0.620129
v 18.925262 57.590195 -4.186469
v 14.809004 54.577538 -18.567371
v -0.023809 53.608608 -24.766497
v -0.023809 80.793106 0.977984
v -5.311983 80.619850 -1.156924
v -9.407077 77.793282 3.401844
v -12.793202 72.586098 6.762576
v -13.967764 66.910500 8.138431
v -18.975525 57.590195 -4.186469
v -13.137105 49.110477 -15.507818
v 18.351208 57.782696 -4.208696
v 14.359285 54.814957 -18.213963
v -0.023809 53.862068 -24.257498
v -0.023809 80.305435 0.795722
v -5.153258 80.135391 -1.274727
v -9.124019 77.408279 3.142899
v -12.406972 72.358307 6.401386
v -13.544498 66.868790 7.730564
v -18.401470 57.782696 -4.208696
v -12.740294 49.492275 -15.248873
v 17.798317 57.968781 -4.229812
v 13.925437 55.042747 -17.872776
v -0.023809 54.109116 -23.766279
v -0.023809 79.833801 0.620129
v -4.997179 79.670174 -1.388085
v -8.848896 77.039314 2.892845
v -12.033969 72.143349 6.052421
v -13.137105 66.830292 7.338256
v -17.848579 57.968781 -4.229812
v -12.356709 49.861237 -14.998818
v -17.536423 70.847168 -5.547877
v -13.023353 76.025475 -5.952411
vn 0.2513 0.0628 0.9659
vn -0.0000 -0.5886 0.8084
vn -0.0000 -0.6286 0.7778
vn -0.0314 -0.6196 0.7843
vn -0.0000 -0.5655 0.8247
vn -0.0000 -0.6112 0.7914
vn -0.0314 -0.5972 0.8015
vn -0.0000 -0.6418 0.7669
vn -0.0000 -0.6624 0.7491
vn -0.0391 -0.6497 0.7592
vn -0.6443 0.7622 -0.0629
vn -0.3127 0.9459 -0.0860
vn -0.2198 0.9263 -0.3062
vn -0.0000 0.9963 -0.0863
vn -0.8943 0.4472 -0.0157
vn -0.4647 0.7168 -0.5199
vn -0.0000 0.9196 -0.3930
vn 0.9986 0.0472 -0.0236
vn 0.7327 0.0630 -0.6776
vn 0.8943 0.4472 -0.0157
vn 0.2042 -0.6518 0.7304
vn 0.2202 -0.8259 0.5191
vn 0.6828 -0.6670 0.2982
vn 0.2673 -0.9590 0.0943
vn 0.5891 -0.7305 -0.3456
vn 0.7689 0.0706 0.6355
vn 0.6524 0.4952 0.5738
vn 0.4622 0.8068 0.3682
vn 0.4954 -0.4561 0.7392
vn -0.0000 -0.6285 0.7778
vn -0.2673 -0.9590 0.0943
vn -0.2202 -0.8259 0.5191
vn -0.6827 -0.6670 0.2982
vn -0.2042 -0.6518 0.7304
vn -0.4955 -0.4561 0.7392
vn -0.3057 0.9482 -0.0862
vn -0.8943 0.4471 -0.0157
vn -0.0000 0.9195 -0.3930
vn 0.8943 0.4471 -0.0157
vn 0.2041 -0.6435 0.7377
vn 0.2193 -0.8225 0.5248
vn 0.2671 -0.9583 0.1021
vn 0.5907 -0.7324 -0.3387
vn 0.6524 0.4951 0.5738
vn 0.4621 0.8068 0.3682
vn 0.4895 -0.4579 0.7421
vn -0.2671 -0.9583 0.1021
vn -0.2193 -0.8225 0.5248
vn -0.6828 -0.6670 0.2982
vn -0.2041 -0.6435 0.7377
vn -0.4895 -0.4579 0.7421
vn -0.3056 0.9482 -0.0862
vn -0.2198 0.9263 -0.3061
vn 0.9988 0.0472 -0.0157
vn 0.2280 -0.6604 0.7154
vn 0.2198 -0.8165 0.5338
vn 0.6769 -0.6690 0.3069
vn 0.5958 -0.7290 -0.3371
vn 0.4622 0.8068 0.3681
vn 0.5020 -0.4392 0.7451
vn -0.2198 -0.8165 0.5339
vn -0.6811 -0.6655 0.3053
vn -0.2280 -0.6604 0.7154
vn -0.5020 -0.4392 0.7451
vn -0.9986 0.0472 -0.0236
vn -0.6419 0.4071 -0.6498
vn -0.0000 0.7071 -0.7071
vn 0.2198 0.9263 -0.3062
vn 0.3127 0.9460 -0.0860
vn 0.4647 0.7168 -0.5199
vn -0.0000 0.3768 -0.9263
vn -0.7327 0.0631 -0.6776
vn 0.2202 0.9673 0.1258
vn 0.6443 0.7622 -0.0629
vn 0.6419 0.4070 -0.6498
vn -0.0000 0.0315 -0.9995
vn -0.7324 -0.3386 -0.5907
vn -0.0000 -0.7226 -0.6912
vn 0.0001 -0.9835 -0.1810
vn -0.0000 -0.8676 0.4972
vn 0.0314 -0.6196 0.7843
vn -0.0000 0.0157 0.9999
vn -0.0000 0.5272 0.8498
vn -0.0000 0.8368 0.5475
vn -0.0000 0.9774 0.2112
vn -0.9988 0.0472 -0.0158
vn -0.6420 0.4071 -0.6498
vn 0.3057 0.9482 -0.0862
vn -0.0000 0.0393 -0.9992
vn -0.9988 0.0472 -0.0157
vn -0.0000 -0.7227 -0.6912
vn -0.0000 -0.8609 0.5087
vn 0.0314 -0.5972 0.8015
vn -0.0000 0.0158 0.9999
vn -0.0000 0.5271 0.8498
vn -0.0000 0.8404 0.5420
vn -0.0000 0.9775 0.2111
vn 0.2198 0.9263 -0.3061
vn 0.6419 0.4071 -0.6498
vn -0.7360 -0.3367 -0.5873
vn 0.0001 -0.9849 -0.1733
vn -0.0000 -0.8554 0.5179
vn 0.0391 -0.6496 0.7592
vn -0.0000 0.8404 0.5419
vn -0.0000 0.9775 0.2112
vn 0.9648 -0.2353 0.1176
vn 0.7324 -0.3387 -0.5907
vn -0.0000 -0.3768 -0.9263
vn -0.2202 0.9673 0.1258
vn -0.4621 0.8068 0.3681
vn -0.6524 0.4952 0.5738
vn -0.7688 0.0706 0.6355
vn -0.9648 -0.2353 0.1176
vn -0.5891 -0.7304 -0.3456
vn 0.9648 -0.2353 0.1177
vn 0.7324 -0.3386 -0.5907
vn -0.0000 -0.3701 -0.9290
vn -0.4621 0.8068 0.3682
vn -0.7689 0.0706 0.6355
vn -0.5907 -0.7324 -0.3387
vn 0.9639 -0.2351 0.1254
vn 0.7360 -0.3367 -0.5873
vn -0.0000 -0.3700 -0.9290
vn -0.6524 0.4951 0.5738
vn -0.9639 -0.2351 0.1254
vn -0.5958 -0.7290 -0.3371
vn 0.4621 0.8068 0.3681
vn -0.6443 0.7622 -0.0628
vt 0.000000 0.000000
vt 0.696075 0.988220
vt 0.773438 0.847076
vt 0.551849 0.926392
vt 0.180450 0.988220
vt 0.101562 0.847076
vt 0.323120 0.926392
vt 0.987457 0.011566
vt 0.846222 0.011566
vt 0.987457 0.162384
vt 0.437500 0.218750
vt 0.437500 0.102936
vt 0.304688 0.101562
vt 0.437500 0.012512
vt 0.437500 0.351562
vt 0.250000 0.213898
vt 0.183594 0.012512
vt 0.437500 0.500000
vt 0.206573 0.500000
vt 0.621429 0.804688
vt 0.437500 0.926392
vt 0.437500 0.796875
vt 0.253540 0.804688
vt 0.668396 0.500000
vt 0.660156 0.351562
vt 0.625000 0.213898
vt 0.659485 0.656250
vt 0.828125 0.667969
vt 0.570312 0.101562
vt 0.691406 0.012512
vt 0.214844 0.351562
vt 0.215485 0.656250
vt 0.046875 0.667969
vt 0.846222 0.316956
vt 0.987457 0.316956
vt 0.846222 0.162384
vt 0.078125 0.144531
vt 0.046875 0.316406
vt 0.026550 0.500000
vt 0.438263 0.988220
vt 0.848419 0.500000
vt 0.828125 0.316406
vt 0.796875 0.144531
vt 0.437500 0.656250
s 1
usemtl f_hair0114
f 1/1/1 2/1/1 3/1/1
f 4/2/2 5/3/3 6/4/4
f 7/5/5 8/6/6 9/7/7
f 10/8/8 11/9/9 12/10/10
f 13/11/11 14/12/12 15/13/13
f 15/13/13 14/12/12 16/14/14
f 17/15/15 13/11/11 18/16/16
f 18/16/16 13/11/11 15/13/13
f 18/16/16 15/13/13 19/17/17
f 19/17/17 15/13/13 16/14/14
f 20/18/18 21/19/19 22/15/20
f 23/20/21 24/21/22 25/22/23
f 25/22/23 24/21/22 26/7/24
f 25/22/23 26/7/24 27/23/25
f 28/24/26 20/18/18 29/25/27
f 29/25/27 20/18/18 30/15/20
f 29/25/27 30/15/20 31/26/28
f 5/3/3 32/27/29 33/28/30
f 34/7/31 35/21/32 36/22/33
f 36/22/33 35/21/32 37/20/34
f 36/22/33 37/20/34 38/27/35
f 39/11/11 40/12/36 41/29/13
f 41/29/13 40/12/36 42/14/14
f 43/15/37 39/11/11 44/26/16
f 44/26/16 39/11/11 41/29/13
f 44/26/16 41/29/13 45/30/38
f 45/30/38 41/29/13 42/14/14
f 46/18/18 47/24/19 48/15/39
f 49/23/40 50/21/41 51/22/23
f 51/22/23 50/21/41 52/4/42
f 51/22/23 52/4/42 53/20/43
f 54/19/26 46/18/18 55/31/44
f 55/31/44 46/18/18 48/15/39
f 55/31/44 48/15/39 56/16/45
f 8/6/6 57/32/46 58/33/30
f 59/4/47 60/21/48 61/22/49
f 61/22/49 60/21/48 62/23/50
f 61/22/49 62/23/50 63/32/51
f 64/34/11 65/35/52 66/10/53
f 66/10/53 65/35/52 67/36/14
f 68/35/37 64/34/11 69/36/16
f 69/36/16 64/34/11 66/10/53
f 69/36/16 66/10/53 70/8/17
f 70/8/17 66/10/53 67/36/14
f 71/34/54 72/36/19 73/35/39
f 74/36/55 75/35/56 76/34/57
f 76/34/57 75/35/56 77/10/42
f 76/34/57 77/10/42 78/36/58
f 79/36/26 71/34/54 80/10/27
f 80/10/27 71/34/54 73/35/39
f 80/10/27 73/35/39 81/36/59
f 11/9/9 82/10/60 83/8/5
f 84/10/47 85/35/61 86/34/62
f 86/34/62 85/35/61 87/36/63
f 86/34/62 87/36/63 88/10/64
f 89/18/65 17/15/15 90/31/66
f 90/31/66 17/15/15 18/16/16
f 90/31/66 18/16/16 91/37/67
f 91/37/67 18/16/16 19/17/17
f 91/37/67 19/17/17 92/13/68
f 92/13/68 19/17/17 16/14/14
f 16/14/14 93/12/69 92/13/68
f 92/13/68 93/12/69 94/16/70
f 92/13/68 94/16/70 91/37/67
f 91/37/67 94/16/70 95/38/71
f 91/37/67 95/38/71 90/31/66
f 90/31/66 95/38/71 96/19/72
f 90/31/66 96/19/72 89/18/65
f 16/14/14 97/29/73 93/12/69
f 93/12/69 97/29/73 98/11/74
f 93/12/69 98/11/74 94/16/70
f 94/16/70 98/11/74 99/31/75
f 94/16/70 99/31/75 95/38/71
f 95/38/71 99/31/75 100/39/76
f 95/38/71 100/39/76 96/19/72
f 96/19/72 100/39/76 101/32/77
f 96/19/72 101/32/77 89/18/65
f 102/6/78 27/23/25 103/5/79
f 103/5/79 27/23/25 26/7/24
f 103/5/79 26/7/24 104/40/80
f 104/40/80 26/7/24 24/21/22
f 104/40/80 24/21/22 105/4/81
f 105/4/81 24/21/22 23/20/21
f 106/41/82 28/24/26 107/42/83
f 107/42/83 28/24/26 29/25/27
f 107/42/83 29/25/27 108/43/84
f 108/43/84 29/25/27 109/26/45
f 108/43/84 109/26/45 110/30/85
f 111/18/86 43/15/37 112/25/87
f 112/25/87 43/15/37 44/26/16
f 112/25/87 44/26/16 113/43/67
f 113/43/67 44/26/16 45/30/38
f 113/43/67 45/30/38 114/29/68
f 114/29/68 45/30/38 42/14/14
f 42/14/14 115/12/88 114/29/68
f 114/29/68 115/12/88 116/26/70
f 114/29/68 116/26/70 113/43/67
f 113/43/67 116/26/70 117/42/71
f 113/43/67 117/42/71 112/25/87
f 112/25/87 117/42/71 118/24/72
f 112/25/87 118/24/72 111/18/86
f 42/14/14 119/13/73 115/12/88
f 115/12/88 119/13/73 120/11/74
f 115/12/88 120/11/74 116/26/70
f 116/26/70 120/11/74 121/25/75
f 116/26/70 121/25/75 117/42/71
f 117/42/71 121/25/75 122/41/89
f 117/42/71 122/41/89 118/24/72
f 118/24/72 122/41/89 123/27/77
f 118/24/72 123/27/77 124/18/90
f 125/3/91 53/20/43 126/2/79
f 126/2/79 53/20/43 52/4/42
f 126/2/79 52/4/42 127/40/92
f 127/40/92 52/4/42 50/21/41
f 127/40/92 50/21/41 128/7/93
f 128/7/93 50/21/41 49/23/40
f 129/39/94 54/19/26 130/38/95
f 130/38/95 54/19/26 55/31/44
f 130/38/95 55/31/44 131/37/96
f 131/37/96 55/31/44 56/16/45
f 131/37/96 56/16/45 132/17/97
f 133/34/86 68/35/37 134/10/66
f 134/10/66 68/35/37 69/36/16
f 134/10/66 69/36/16 135/9/67
f 135/9/67 69/36/16 70/8/17
f 135/9/67 70/8/17 136/10/98
f 136/10/98 70/8/17 67/36/14
f 67/36/14 137/35/88 136/10/98
f 136/10/98 137/35/88 138/36/70
f 136/10/98 138/36/70 135/9/67
f 135/9/67 138/36/70 139/8/71
f 135/9/67 139/8/71 134/10/66
f 134/10/66 139/8/71 140/36/72
f 134/10/66 140/36/72 133/34/86
f 67/36/14 141/10/73 137/35/88
f 137/35/88 141/10/73 142/34/74
f 137/35/88 142/34/74 138/36/70
f 138/36/70 142/34/74 143/10/99
f 138/36/70 143/10/99 139/8/71
f 139/8/71 143/10/99 144/9/89
f 139/8/71 144/9/89 140/36/72
f 140/36/72 144/9/89 145/10/100
f 140/36/72 145/10/100 146/34/90
f 147/9/91 78/36/58 148/8/101
f 148/8/101 78/36/58 77/10/42
f 148/8/101 77/10/42 149/36/102
f 149/36/102 77/10/42 75/35/56
f 149/36/102 75/35/56 150/10/103
f 150/10/103 75/35/56 74/36/55
f 151/9/94 79/36/26 152/8/83
f 152/8/83 79/36/26 80/10/27
f 152/8/83 80/10/27 153/9/104
f 153/9/104 80/10/27 154/36/45
f 153/9/104 154/36/45 155/8/105
f 6/4/4 104/40/80 4/2/2
f 4/2/2 104/40/80 105/4/81
f 4/2/2 105/4/81 5/3/3
f 5/3/3 105/4/81 23/20/21
f 5/3/3 23/20/21 32/27/29
f 32/27/29 23/20/21 25/22/23
f 32/27/29 25/22/23 156/44/106
f 156/44/106 25/22/23 27/23/25
f 156/44/106 27/23/25 157/32/107
f 157/32/107 27/23/25 102/6/78
f 157/32/107 102/6/78 158/33/108
f 159/30/97 160/29/109 108/43/84
f 108/43/84 160/29/109 161/26/110
f 108/43/84 161/26/110 107/42/83
f 107/42/83 161/26/110 162/25/111
f 107/42/83 162/25/111 106/41/82
f 106/41/82 162/25/111 163/24/112
f 106/41/82 163/24/112 38/27/35
f 38/27/35 163/24/112 164/44/113
f 38/27/35 164/44/113 36/22/33
f 36/22/33 164/44/113 165/23/114
f 36/22/33 165/23/114 34/7/31
f 9/7/7 127/40/92 7/5/5
f 7/5/5 127/40/92 128/7/93
f 7/5/5 128/7/93 8/6/6
f 8/6/6 128/7/93 49/23/40
f 8/6/6 49/23/40 57/32/46
f 57/32/46 49/23/40 51/22/23
f 57/32/46 51/22/23 166/44/115
f 166/44/115 51/22/23 53/20/43
f 166/44/115 53/20/43 167/27/116
f 167/27/116 53/20/43 125/3/91
f 167/27/116 125/3/91 168/28/117
f 169/17/85 170/13/109 131/37/96
f 131/37/96 170/13/109 171/16/118
f 131/37/96 171/16/118 130/38/95
f 130/38/95 171/16/118 172/31/111
f 130/38/95 172/31/111 129/39/94
f 129/39/94 172/31/111 173/19/119
f 129/39/94 173/19/119 63/32/51
f 63/32/51 173/19/119 174/44/113
f 63/32/51 174/44/113 61/22/49
f 61/22/49 174/44/113 175/20/120
f 61/22/49 175/20/120 59/4/47
f 12/10/10 149/36/102 10/8/8
f 10/8/8 149/36/102 150/10/103
f 10/8/8 150/10/103 11/9/9
f 11/9/9 150/10/103 74/36/55
f 11/9/9 74/36/55 82/10/60
f 82/10/60 74/36/55 76/34/57
f 82/10/60 76/34/57 176/35/121
f 176/35/121 76/34/57 78/36/58
f 176/35/121 78/36/58 177/10/122
f 177/10/122 78/36/58 147/9/91
f 177/10/122 147/9/91 178/8/123
f 179/8/105 180/10/109 153/9/104
f 153/9/104 180/10/109 181/36/118
f 153/9/104 181/36/118 152/8/83
f 152/8/83 181/36/118 182/10/124
f 152/8/83 182/10/124 151/9/94
f 151/9/94 182/10/124 183/36/112
f 151/9/94 183/36/112 88/10/64
f 88/10/64 183/36/112 184/35/125
f 88/10/64 184/35/125 86/34/62
f 86/34/62 184/35/125 185/36/126
f 86/34/62 185/36/126 84/10/47
f 158/33/108 21/19/19 157/32/107
f 157/32/107 21/19/19 20/18/18
f 157/32/107 20/18/18 156/44/106
f 156/44/106 20/18/18 28/24/26
f 156/44/106 28/24/26 32/27/29
f 32/27/29 28/24/26 106/41/82
f 32/27/29 106/41/82 33/28/30
f 33/28/30 106/41/82 38/27/35
f 33/28/30 38/27/35 5/3/3
f 5/3/3 38/27/35 37/20/34
f 5/3/3 37/20/34 6/4/4
f 6/4/4 37/20/34 35/21/32
f 6/4/4 35/21/32 104/40/80
f 104/40/80 35/21/32 34/7/31
f 104/40/80 34/7/31 103/5/79
f 103/5/79 34/7/31 165/23/114
f 103/5/79 165/23/114 102/6/78
f 102/6/78 165/23/114 101/32/77
f 102/6/78 101/32/77 158/33/108
f 158/33/108 101/32/77 100/39/76
f 158/33/108 100/39/76 21/19/19
f 21/19/19 100/39/76 99/31/75
f 21/19/19 99/31/75 22/15/20
f 22/15/20 99/31/75 98/11/74
f 22/15/20 98/11/74 31/26/127
f 31/26/127 98/11/74 97/29/73
f 31/26/127 97/29/73 110/30/97
f 110/30/97 97/29/73 16/14/14
f 110/30/97 16/14/14 160/29/109
f 160/29/109 16/14/14 14/12/12
f 160/29/109 14/12/12 161/26/110
f 161/26/110 14/12/12 13/11/11
f 161/26/110 13/11/11 162/25/111
f 162/25/111 13/11/11 17/15/15
f 162/25/111 17/15/15 163/24/112
f 163/24/112 17/15/15 89/18/65
f 163/24/112 89/18/65 164/44/113
f 164/44/113 89/18/65 101/32/77
f 164/44/113 101/32/77 165/23/114
f 168/28/117 47/24/19 167/27/116
f 167/27/116 47/24/19 46/18/18
f 167/27/116 46/18/18 166/44/115
f 166/44/115 46/18/18 54/19/26
f 166/44/115 54/19/26 57/32/46
f 57/32/46 54/19/26 129/39/94
f 57/32/46 129/39/94 58/33/30
f 58/33/30 129/39/94 63/32/51
f 58/33/30 63/32/51 8/6/6
f 8/6/6 63/32/51 62/23/50
f 8/6/6 62/23/50 9/7/7
f 9/7/7 62/23/50 60/21/48
f 9/7/7 60/21/48 127/40/92
f 127/40/92 60/21/48 59/4/47
f 127/40/92 59/4/47 126/2/79
f 126/2/79 59/4/47 175/20/120
f 126/2/79 175/20/120 125/3/91
f 125/3/91 175/20/120 123/27/77
f 125/3/91 123/27/77 168/28/117
f 168/28/117 123/27/77 122/41/89
f 168/28/117 122/41/89 47/24/19
f 47/24/19 122/41/89 121/25/75
f 47/24/19 121/25/75 48/15/39
f 48/15/39 121/25/75 120/11/74
f 48/15/39 120/11/74 56/16/45
f 56/16/45 120/11/74 119/13/73
f 56/16/45 119/13/73 132/17/97
f 132/17/97 119/13/73 42/14/14
f 132/17/97 42/14/14 170/13/109
f 170/13/109 42/14/14 40/12/36
f 170/13/109 40/12/36 171/16/118
f 171/16/118 40/12/36 39/11/11
f 171/16/118 39/11/11 172/31/111
f 172/31/111 39/11/11 186/15/15
f 172/31/111 186/15/15 173/19/119
f 173/19/119 186/15/15 124/18/90
f 173/19/119 124/18/90 174/44/113
f 174/44/113 124/18/90 123/27/77
f 174/44/113 123/27/77 175/20/120
f 178/8/123 72/36/19 177/10/122
f 177/10/122 72/36/19 71/34/54
f 177/10/122 71/34/54 176/35/121
f 176/35/121 71/34/54 79/36/26
f 176/35/121 79/36/26 82/10/60
f 82/10/60 79/36/26 151/9/94
f 82/10/60 151/9/94 83/8/5
f 83/8/5 151/9/94 88/10/64
f 83/8/5 88/10/64 11/9/9
f 11/9/9 88/10/64 87/36/63
f 11/9/9 87/36/63 12/10/10
f 12/10/10 87/36/63 85/35/61
f 12/10/10 85/35/61 149/36/102
f 149/36/102 85/35/61 84/10/47
f 149/36/102 84/10/47 148/8/101
f 148/8/101 84/10/47 185/36/126
f 148/8/101 185/36/126 147/9/91
f 147/9/91 185/36/126 145/10/100
f 147/9/91 145/10/100 178/8/123
f 178/8/123 145/10/100 144/9/89
f 178/8/123 144/9/89 72/36/19
f 72/36/19 144/9/89 143/10/99
f 72/36/19 143/10/99 73/35/39
f 73/35/39 143/10/99 142/34/74
f 73/35/39 142/34/74 81/36/59
f 81/36/59 142/34/74 141/10/73
f 81/36/59 141/10/73 155/8/97
f 155/8/97 141/10/73 67/36/14
f 155/8/97 67/36/14 180/10/109
f 180/10/109 67/36/14 65/35/52
f 180/10/109 65/35/52 181/36/118
f 181/36/118 65/35/52 187/34/128
f 181/36/118 187/34/128 182/10/124
f 182/10/124 187/34/128 68/35/15
f 182/10/124 68/35/15 183/36/112
f 183/36/112 68/35/15 146/34/90
f 183/36/112 146/34/90 184/35/125
f 184/35/125 146/34/90 145/10/100
f 184/35/125 145/10/100 185/36/126
