mtllib f_hair020.mtl
o editpl_f-0000-1886
v 0.000000 64.584435 -17.397120
v 4.542169 67.212090 -14.788774
v 3.629502 67.350044 -12.205991
v 8.018237 63.493587 -1.539228
v 7.057953 63.477547 2.949525
v 8.795988 60.500183 2.127125
v -6.457445 63.060459 5.781251
v -7.057953 63.477547 2.949525
v -8.803924 60.326931 2.488314
v 9.385914 53.233231 3.099558
v 7.457410 57.465065 5.525640
v 7.893903 53.441772 4.086440
v 4.756447 45.924568 -5.860165
v 4.745865 47.762962 -5.598999
v 5.846356 47.827129 -1.222492
v 7.272232 59.791134 -15.410020
v 6.272267 61.372856 -14.596510
v 7.296040 61.404942 -15.189973
v 0.000000 65.838905 4.536536
v 3.983987 63.554546 7.643878
v 3.788227 65.152313 4.197574
v 7.348949 64.645393 -5.863501
v 5.436317 63.548130 -8.275137
v 4.068640 65.826073 -5.086666
v 0.000000 65.838905 4.536536
v 0.000000 66.737251 0.696813
v -4.068640 65.970451 0.023333
v 7.341012 61.408150 -14.029720
v 7.655816 59.820007 -13.501828
v 7.296040 61.404942 -15.189973
v 4.542169 67.212090 -14.788774
v 4.894008 69.182022 -13.914140
v 6.764313 66.724411 -16.156849
v 4.894008 69.182022 -13.914140
v 0.000000 70.199074 -8.187341
v 4.396671 69.602318 -11.833689
v 8.473248 56.319679 -6.961517
v 9.682200 57.278980 0.204485
v 8.171671 55.504753 -0.070019
v 8.512929 55.825592 1.718147
v 7.774860 53.230022 2.178247
v 4.068640 65.970451 0.023333
v 3.788227 65.152313 4.197574
v -5.756412 56.364597 -11.740333
v -8.002365 59.374046 -7.241578
v -3.978696 61.013519 -11.177990
v -7.497091 62.457287 -6.243584
v -5.436317 63.548130 -8.275137
v -4.068640 65.826073 -5.086666
v -4.634758 67.141502 -16.870338
v -5.145322 69.037643 -13.372910
v 0.000000 73.667320 -8.414057
v -5.304047 74.655495 -9.682110
v -8.965294 72.059929 -15.757874
v -2.735354 67.773552 -17.132618
v -5.991853 72.136932 -16.352448
v -7.010336 65.925529 -22.476000
v -6.893938 78.685204 -9.420941
v -2.867624 71.915550 -12.467159
v 0.351840 64.882812 -9.200892
v 4.894008 69.182022 -13.914140
v 7.161124 66.698746 -13.845236
v 6.764313 66.724411 -16.156849
v 7.367466 62.646580 -14.139744
v 7.198160 62.643372 -15.297773
v 5.915136 59.900215 -14.268661
v 7.655816 59.820007 -13.501828
v 7.341012 61.408150 -14.029720
v 5.253784 64.658226 -15.233315
v 3.629502 67.350044 -12.205991
v 5.195585 66.506248 -15.467811
v 8.962649 60.326931 2.818385
v 7.026209 61.254147 4.977743
v 8.795988 60.500183 2.127125
v -8.803924 60.326931 2.488314
v -8.904450 60.885185 1.673692
v -7.026209 61.254147 4.977743
v -7.057953 63.477547 2.949525
v -8.904450 60.885185 1.673692
v -8.803924 60.326931 2.488314
v 8.962649 60.326931 2.818385
v 8.795988 60.500183 2.127125
v 7.057953 63.477547 2.949525
v 5.304047 55.617046 10.749000
v 7.666398 55.116543 7.237123
v 7.613490 60.221054 6.606986
v 9.494376 54.824581 2.910629
v 8.962649 60.326931 2.818385
v 9.108146 49.347897 3.569661
v 7.708724 49.556442 4.556542
v 9.280098 44.423054 4.577658
v 7.391275 44.111843 6.053535
v 7.436247 49.344688 2.648349
v 7.121443 45.321396 2.520545
v 7.042081 39.251163 5.272254
v 7.708724 49.556442 4.556542
v 7.436247 49.344688 2.648349
v 7.391275 44.111843 6.053535
v 7.121443 45.321396 2.520545
v 7.042081 39.251163 5.272254
v 7.026209 61.254147 4.977743
v 9.608129 57.256523 1.932638
v 4.068640 65.826073 -5.086666
v 0.000000 66.766121 -3.687473
v 0.000000 56.508972 -13.550727
v 0.000000 59.236084 -12.602744
v 5.756412 56.348553 -11.740333
v 9.602838 60.131222 -3.174027
v 8.002365 59.374046 -7.241578
v 7.967974 62.457287 -6.244695
v 3.978696 61.013519 -11.177990
v 5.436317 63.548130 -8.275137
v -3.788227 65.152313 4.197574
v -3.983987 63.554546 7.643878
v -8.280133 55.504753 -0.070019
v -7.880676 52.841808 3.377397
v -9.174281 57.278980 0.346738
v -7.026209 61.254147 4.977743
v -7.423020 57.413731 5.985741
v -7.967974 56.034134 4.647673
v 7.774860 53.230022 2.178247
v 8.512929 55.825592 1.718147
v 0.000000 47.920174 -8.824143
v -3.629502 67.350044 -12.205991
v 0.000000 70.199074 -8.187341
v 0.000000 64.369476 -15.111067
v 3.629502 67.350044 -12.205991
v -4.647985 71.431091 -16.434689
v -9.835634 75.172043 -19.428673
v -4.753801 70.035446 -22.025904
v 0.000000 68.941399 -13.308453
v 0.000000 67.510468 -19.786528
v 0.000000 65.591858 -25.928974
v 0.000000 65.662445 -21.985895
v 7.010336 65.925529 -22.476000
v 2.735354 67.773552 -17.132618
v 5.991853 72.136932 -16.352448
v 2.867624 71.915550 -12.467159
v 6.893938 78.685204 -9.420941
v 0.000000 77.802902 -9.532077
v 7.198160 62.643372 -15.297773
v 6.155869 62.556744 -14.735429
v 6.155869 62.556744 -14.735429
v 5.253784 64.658226 -15.233315
v 4.396671 69.602318 -11.833689
v 0.000000 64.369476 -15.111067
v -3.629502 67.350044 -12.205991
v 6.856902 57.262939 -13.861906
v 7.272232 59.791134 -15.410020
v -0.066135 52.139175 -12.851686
v 5.113577 52.501720 -11.250227
v 6.846321 52.668556 -6.992635
v 7.274877 52.838600 -2.937309
v 9.608129 57.256523 1.932638
v 10.433496 58.915249 1.102458
v 8.795988 60.500183 2.127125
v 9.708654 63.118210 -3.397410
v 8.018237 63.493587 -1.539228
v 0.000000 64.138474 -22.549351
v 4.634758 67.141502 -16.870338
v 8.965294 72.059929 -15.757874
v 5.886037 74.655495 -9.616540
v 0.000000 78.457413 -7.836153
v 0.000000 64.083931 8.777458
v -4.790837 60.606056 9.699882
v -7.613490 60.221054 6.606986
v -9.071110 54.824581 2.910629
v 7.967974 62.457287 -6.244695
v 9.602838 60.131222 -3.174027
v 9.682200 57.278980 0.204485
v 8.512929 55.825592 1.718147
v -5.304047 55.617046 10.749000
v 0.000000 56.002052 13.076171
v 0.000000 60.711933 11.520276
v 4.790837 60.606056 9.699882
v 6.457445 63.060459 5.781251
v 7.057953 63.477547 2.949525
v 0.000000 45.183437 -9.045302
v -4.756447 45.924568 -5.860165
v -4.745865 47.762962 -5.598999
v -5.846356 47.827129 -1.222492
v -6.846321 52.668556 -6.992635
v -7.274877 52.838600 -2.937309
v -8.473248 56.319679 -6.961517
v 9.682200 57.278980 0.204485
v -9.118728 60.131222 -3.174027
v -7.370112 63.493587 -1.539228
v -3.788227 65.152313 4.197574
v 4.753801 70.035446 -22.025904
v 9.835634 75.172043 -19.428673
v 4.647985 71.431091 -16.434689
v 4.753801 77.549446 -14.773215
v 0.000000 75.521759 -11.524733
v 0.000000 81.040146 -9.973284
v -4.753801 77.549446 -14.773215
v -4.991888 52.498512 -11.250227
v -7.666398 55.116543 7.237123
vn -0.0000 -0.9999 0.0158
vn -0.3293 -0.0784 -0.9410
vn 0.8634 -0.5023 -0.0471
vn 0.5761 0.7970 0.1815
vn 0.7139 0.6825 0.1569
vn 0.8106 0.4407 0.3856
vn -0.6845 0.6137 0.3934
vn -0.7252 0.6621 0.1892
vn -0.8953 0.3377 0.2906
vn 0.9761 -0.1575 0.1496
vn 0.7708 0.0079 0.6370
vn 0.0471 -0.0550 0.9974
vn 0.8169 0.0628 -0.5734
vn 0.8088 -0.3298 -0.4869
vn 0.9552 -0.2349 -0.1801
vn 0.0551 -0.1730 -0.9834
vn -0.9728 0.1098 -0.2040
vn 0.8106 0.0630 -0.5823
vn -0.0000 0.9518 0.3068
vn 0.3530 0.7845 0.5099
vn 0.3684 0.8858 0.2822
vn 0.5590 0.7637 -0.3228
vn 0.8120 0.3627 -0.4573
vn 0.5041 0.8585 0.0945
vn -0.0000 0.9931 0.1173
vn -0.3686 0.9256 0.0863
vn 0.2200 0.1808 0.9586
vn 0.5901 0.1416 0.7948
vn 0.8105 0.0629 -0.5823
vn -0.3293 -0.0785 -0.9409
vn 0.9793 -0.1645 0.1176
vn 0.2829 0.2986 -0.9115
vn 0.9794 -0.1645 0.1175
vn -0.0551 0.9526 0.2992
vn 0.6673 -0.4004 0.6280
vn 0.9383 -0.2523 -0.2366
vn 0.8792 -0.4711 -0.0707
vn 0.8721 -0.4871 -0.0471
vn 0.8288 -0.5004 -0.2502
vn 0.6613 -0.2677 -0.7007
vn 0.3450 0.9330 0.1019
vn -0.6582 0.0313 -0.7522
vn -0.8563 0.2278 -0.4635
vn -0.7135 0.0628 -0.6978
vn -0.8018 0.4874 -0.3459
vn -0.9207 0.2912 -0.2597
vn -0.6390 0.7652 0.0789
vn -0.5344 -0.8094 0.2436
vn -0.6704 -0.5127 0.5363
vn -0.0236 -0.2127 0.9768
vn -0.4313 -0.3686 0.8235
vn -0.7110 -0.5530 0.4345
vn -0.4310 -0.8306 0.3526
vn -0.6208 -0.5736 0.5344
vn -0.3301 -0.7781 0.5344
vn -0.3700 -0.5511 0.7479
vn -0.4547 -0.3920 0.7997
vn 0.0157 -0.7302 0.6831
vn 0.9793 -0.1646 0.1175
vn 0.6597 0.1414 0.7381
vn 0.2829 0.2985 -0.9115
vn 0.7624 0.0565 0.6446
vn 0.0862 -0.1803 -0.9798
vn -0.9885 -0.0235 0.1491
vn 0.5902 0.1416 0.7948
vn 0.2201 0.1807 0.9586
vn -0.8557 -0.4788 -0.1962
vn 0.8634 -0.5024 -0.0472
vn -0.7238 -0.0865 -0.6845
vn -0.5103 -0.8557 -0.0863
vn 0.8000 -0.4471 -0.4000
vn -0.7251 0.6621 0.1891
vn -0.9410 0.2353 0.2431
vn 0.8950 0.3925 0.2119
vn 0.6048 0.2042 0.7697
vn 0.8797 0.0628 0.4713
vn 0.8493 0.2202 0.4797
vn 0.9294 0.0709 0.3623
vn 0.8950 0.3925 0.2120
vn 0.9999 -0.0000 -0.0158
vn -0.4070 0.1957 0.8922
vn 0.9851 -0.1720 -0.0000
vn -0.4012 0.0787 0.9126
vn 0.5422 -0.1100 -0.8330
vn 0.5891 -0.2199 -0.7776
vn 0.9195 -0.3930 0.0079
vn -0.9916 0.0787 0.1023
vn -0.4013 0.0787 0.9126
vn -0.9927 0.0630 0.1024
vn -0.9941 0.0548 0.0939
vn 0.8106 0.4407 0.3857
vn 0.8561 0.1728 0.4870
vn 0.9781 -0.1721 0.1174
vn 0.5040 0.8585 0.0945
vn -0.0000 0.9702 0.2425
vn -0.0000 -0.0000 -1.0000
vn -0.0000 -0.0078 -1.0000
vn 0.6582 0.0313 -0.7522
vn 0.9484 -0.0470 -0.3135
vn 0.8406 0.1807 -0.5106
vn 0.7855 0.2121 -0.5813
vn 0.6978 0.0628 -0.7135
vn -0.3684 0.8858 0.2822
vn -0.3530 0.7845 0.5099
vn -0.9155 -0.3946 -0.0789
vn -0.9638 -0.2664 0.0079
vn -0.9880 -0.1333 0.0784
vn -0.8613 0.2114 0.4620
vn -0.9319 0.0862 0.3524
vn -0.9638 -0.0078 0.2664
vn 0.8288 -0.5005 -0.2502
vn -0.0000 -0.5236 -0.8519
vn 0.1101 0.7629 -0.6371
vn -0.0000 0.7637 -0.6455
vn -0.0000 0.7637 -0.6456
vn -0.1101 0.7629 -0.6371
vn -0.6505 -0.5487 0.5251
vn -0.6776 -0.5200 0.5200
vn -0.5750 -0.7878 0.2205
vn -0.0000 -0.7378 0.6750
vn -0.0000 -0.9678 0.2518
vn -0.0000 -0.9548 0.2973
vn -0.0000 -0.9263 0.3768
vn 0.3301 -0.7781 0.5344
vn 0.4414 -0.8276 0.3468
vn 0.6208 -0.5736 0.5344
vn 0.4652 -0.3864 0.7964
vn 0.3700 -0.5511 0.7479
vn -0.0000 -0.4315 0.9021
vn -0.4413 -0.2600 -0.8589
vn -0.4497 0.0552 0.8915
vn -0.8557 -0.4789 -0.1962
vn 0.8634 -0.5024 -0.0471
vn -0.0000 0.1644 -0.9864
vn -0.8267 0.1732 -0.5353
vn -0.1259 -0.9915 0.0315
vn 0.0551 -0.1731 -0.9834
vn -0.0000 -0.4472 -0.8944
vn 0.5499 -0.4320 -0.7148
vn 0.8956 -0.3614 -0.2593
vn 0.9403 -0.3370 -0.0470
vn 0.9780 -0.1722 0.1174
vn 0.9846 -0.0236 0.1733
vn 0.8851 0.4621 -0.0548
vn -0.0000 -0.9963 0.0862
vn 0.5108 -0.7938 0.3301
vn 0.6695 -0.6144 0.4175
vn 0.4153 -0.3526 0.8385
vn -0.0156 -0.1173 0.9930
vn -0.0000 0.7491 0.6624
vn -0.5043 0.4570 0.7328
vn -0.8660 0.2205 0.4488
vn -0.9555 0.0548 0.2898
vn 0.8793 -0.4710 -0.0707
vn -0.6048 0.2042 0.7697
vn -0.0000 0.3137 0.9495
vn -0.0000 0.3996 0.9167
vn 0.5043 0.4570 0.7327
vn 0.6706 0.6233 0.4023
vn -0.0000 0.1018 -0.9948
vn -0.8169 0.0628 -0.5734
vn -0.8030 -0.3306 -0.4959
vn -0.9552 -0.2349 -0.1801
vn -0.8931 -0.3682 -0.2585
vn -0.9365 -0.3463 -0.0551
vn -0.9536 -0.2128 -0.2128
vn -0.9665 0.2279 -0.1179
vn -0.7336 0.6784 -0.0394
vn 0.5751 -0.7878 0.2205
vn 0.6776 -0.5200 0.5200
vn 0.6505 -0.5487 0.5251
vn 0.6075 -0.2130 0.7653
vn -0.0000 -0.2665 0.9638
vn -0.0000 -0.2664 0.9639
vn -0.6075 -0.2130 0.7653
vn -0.5480 -0.4384 -0.7124
vn -0.9004 0.0626 0.4306
vt 0.054688 0.656250
vt 0.164062 0.757812
vt 0.195312 0.867188
vt 0.742188 0.543518
vt 0.857941 0.548279
vt 0.812500 0.608643
vt 0.093292 0.109894
vt 0.024994 0.064056
vt 0.016998 0.194672
vt 0.929688 0.531250
vt 0.898438 0.460938
vt 0.898438 0.531250
vt 0.500000 0.988068
vt 0.507812 0.937500
vt 0.693359 0.987732
vt 0.987213 0.732422
vt 0.906616 0.618286
vt 0.987213 0.619141
vt 0.308014 0.011932
vt 0.430023 0.109375
vt 0.492188 0.023438
vt 0.044739 0.931793
vt 0.011719 0.986603
vt 0.011993 0.870728
vt 0.882812 0.375000
vt 0.750000 0.375000
vt 0.754456 0.450867
vt 0.781250 0.968750
vt 0.781250 0.987671
vt 0.882812 0.987671
vt 0.203125 0.656250
vt 0.324982 0.868744
vt 0.236328 0.763672
vt 0.600250 0.717438
vt 0.789612 0.711487
vt 0.757812 0.765625
vt 0.823090 0.742737
vt 0.790161 0.799103
vt 0.882812 0.476562
vt 0.507812 0.718750
vt 0.592438 0.648438
vt 0.481750 0.605469
vt 0.605469 0.563782
vt 0.541656 0.514313
vt 0.601562 0.445312
vt 0.125000 0.437500
vt 0.348419 0.656250
vt 0.305969 0.442688
vt 0.210938 0.414062
vt 0.014008 0.429688
vt 0.781250 0.898438
vt 0.882812 0.945312
vt 0.882812 0.898438
vt 0.976562 0.945312
vt 0.976562 0.898438
vt 0.906250 0.718750
vt 0.987518 0.734375
vt 0.987518 0.617188
vt 0.781250 0.945312
vt 0.835938 0.968750
vt 0.887756 0.605103
vt 0.890625 0.648438
vt 0.955200 0.422913
vt 0.976562 0.421875
vt 0.976562 0.382812
vt 0.444244 0.357452
vt 0.535797 0.357452
vt 0.535797 0.194672
vt 0.604462 0.357452
vt 0.604462 0.194672
vt 0.945679 0.618286
vt 0.954407 0.733063
vt 0.953125 0.875000
vt 0.926147 0.618286
vt 0.931641 0.721344
vt 0.898438 0.421875
vt 0.976562 0.460938
vt 0.617188 0.377228
vt 0.389313 0.727844
vt 0.393219 0.664062
vt 0.679688 0.629456
vt 0.117188 0.023438
vt 0.187134 0.109375
vt 0.800323 0.808136
vt 0.789062 0.710938
vt 0.890625 0.710938
vt 0.833130 0.752594
vt 0.976562 0.531250
vt 0.987915 0.500000
vt 0.395813 0.917969
vt 0.156250 0.804688
vt 0.148438 0.851562
vt 0.106750 0.799469
vt 0.104675 0.848419
vt 0.221680 0.406250
vt 0.195312 0.873260
vt 0.421875 0.414062
vt 0.976562 0.987671
vt 0.718750 0.945312
vt 0.070312 0.867188
vt 0.388000 0.815094
vt 0.493469 0.848938
vt 0.584625 0.821594
vt 0.705719 0.830078
vt 0.371704 0.934601
vt 0.328125 0.933594
vt 0.322418 0.877106
vt 0.166901 0.933929
vt 0.182526 0.879242
vt 0.306915 0.109894
vt 0.184143 0.195740
vt 0.093292 0.194672
vt 0.016998 0.357452
vt 0.075409 0.986053
vt 0.185455 0.986053
vt 0.326874 0.988037
vt 0.367188 0.986389
vt 0.177216 0.357452
vt 0.306915 0.357452
vt 0.306915 0.194672
vt 0.437042 0.194702
vt 0.536438 0.110016
vt 0.596863 0.057800
vt 0.391907 0.987610
vt 0.093292 0.357452
s 1
usemtl f_hair098
f 1/1/1 2/2/2 3/3/3
f 4/4/4 5/5/5 6/6/6
f 7/7/7 8/8/8 9/9/9
f 10/10/10 11/11/11 12/12/12
f 13/13/13 14/14/14 15/15/15
f 16/16/16 17/17/17 18/18/18
f 19/19/19 20/20/20 21/21/21
f 22/22/22 23/23/23 24/24/24
f 25/25/19 26/26/25 27/27/26
f 28/18/27 29/16/28 30/17/29
f 31/28/30 32/29/31 33/30/32
f 2/2/2 1/1/1 34/31/33
f 35/32/34 3/3/3 36/33/35
f 37/34/36 38/35/37 39/36/38
f 39/36/38 38/35/37 40/37/39
f 39/36/38 40/37/39 41/38/40
f 42/27/41 43/39/21 5/5/5
f 44/40/42 45/41/43 46/42/44
f 46/42/44 45/41/43 47/43/45
f 46/42/44 47/43/45 48/44/46
f 48/44/46 47/43/45 49/45/47
f 50/46/48 1/1/1 51/31/49
f 52/47/50 53/48/51 51/31/49
f 51/31/49 53/48/51 54/49/52
f 51/31/49 54/49/52 50/46/48
f 55/1/53 56/46/54 57/50/55
f 58/49/56 56/46/54 59/31/57
f 59/31/57 56/46/54 55/1/53
f 59/31/57 55/1/53 60/3/58
f 61/51/59 62/52/60 63/53/61
f 63/53/61 62/52/60 64/54/62
f 63/53/61 64/54/62 65/55/63
f 66/56/64 67/57/65 17/17/17
f 17/17/17 67/57/65 68/58/66
f 69/52/67 70/59/68 71/60/69
f 72/61/70 73/62/70 74/6/70
f 75/61/71 76/6/71 77/62/71
f 78/5/72 79/6/73 80/61/9
f 81/63/74 82/64/6 83/65/5
f 84/66/75 85/67/76 86/68/77
f 86/68/77 85/67/76 87/69/78
f 86/68/77 87/69/78 88/70/79
f 89/71/80 90/18/81 91/72/82
f 91/72/82 90/18/81 92/16/83
f 93/17/84 89/71/80 94/56/85
f 94/56/85 89/71/80 91/72/82
f 94/56/85 91/72/82 95/73/86
f 95/73/86 91/72/82 92/16/83
f 96/74/81 97/18/87 98/75/88
f 98/75/88 97/18/87 99/16/89
f 98/75/88 99/16/89 100/73/90
f 82/64/91 101/76/92 102/77/93
f 102/77/93 101/76/92 11/11/11
f 5/5/5 4/4/4 42/27/41
f 42/27/41 4/4/4 103/45/94
f 42/27/41 103/45/94 104/78/95
f 105/79/96 106/80/97 107/40/98
f 108/81/99 109/41/100 110/43/101
f 110/43/101 109/41/100 111/42/102
f 110/43/101 111/42/102 112/44/23
f 8/8/8 7/7/7 113/82/103
f 113/82/103 7/7/7 114/83/104
f 113/82/103 114/83/104 19/19/19
f 115/36/105 116/84/106 117/85/107
f 118/62/108 79/6/73 119/86/109
f 119/86/109 79/6/73 117/85/107
f 119/86/109 117/85/107 120/87/110
f 120/87/110 117/85/107 116/84/106
f 11/11/11 10/10/10 102/77/93
f 102/77/93 10/10/10 121/88/40
f 102/77/93 121/88/40 122/89/111
f 14/14/14 13/13/13 123/90/112
f 124/91/113 125/92/114 126/93/115
f 126/93/115 125/92/114 127/94/116
f 128/31/117 129/95/118 130/46/119
f 131/96/120 128/31/117 132/1/121
f 132/1/121 128/31/117 130/46/119
f 132/1/121 130/46/119 133/50/122
f 134/46/123 135/49/124 136/31/125
f 136/31/125 135/49/124 137/48/126
f 136/31/125 137/48/126 138/47/127
f 138/47/127 137/48/126 139/97/128
f 138/47/127 139/97/128 140/48/129
f 57/50/55 134/46/123 55/1/53
f 55/1/53 134/46/123 136/31/125
f 55/1/53 136/31/125 60/3/58
f 60/3/58 136/31/125 138/47/127
f 60/3/58 138/47/127 59/31/57
f 59/31/57 138/47/127 140/48/129
f 59/31/57 140/48/129 58/49/56
f 70/59/68 31/28/30 71/60/69
f 71/60/69 31/28/30 33/30/32
f 71/60/69 33/30/32 69/52/67
f 69/52/67 33/30/32 141/98/63
f 69/52/67 141/98/63 142/54/130
f 143/98/131 64/54/62 144/30/132
f 144/30/132 64/54/62 62/52/60
f 144/30/132 62/52/60 70/59/133
f 70/59/133 62/52/60 61/51/59
f 70/59/133 61/51/59 145/99/35
f 3/3/3 146/100/134 1/1/1
f 1/1/1 146/100/134 147/3/135
f 1/1/1 147/3/135 51/31/49
f 51/31/49 147/3/135 35/32/34
f 51/31/49 35/32/34 52/47/50
f 52/47/50 35/32/34 36/33/35
f 17/17/17 16/16/16 66/56/64
f 66/56/64 16/16/16 148/73/136
f 66/56/64 148/73/136 29/16/28
f 29/16/28 148/73/136 149/56/137
f 29/16/28 149/56/137 30/17/29
f 150/101/138 105/79/96 151/102/139
f 151/102/139 105/79/96 107/40/98
f 151/102/139 107/40/98 152/103/140
f 152/103/140 107/40/98 37/34/36
f 152/103/140 37/34/36 153/104/141
f 153/104/141 37/34/36 39/36/38
f 154/105/142 155/106/143 156/107/6
f 156/107/6 155/106/143 157/108/144
f 156/107/6 157/108/144 158/109/4
f 158/109/4 157/108/144 22/22/22
f 158/109/4 22/22/22 24/24/24
f 50/46/48 159/50/145 1/1/1
f 1/1/1 159/50/145 160/46/146
f 1/1/1 160/46/146 34/31/33
f 34/31/33 160/46/146 161/49/147
f 34/31/33 161/49/147 36/33/35
f 36/33/35 161/49/147 162/48/148
f 36/33/35 162/48/148 52/47/50
f 52/47/50 162/48/148 163/97/149
f 52/47/50 163/97/149 53/48/51
f 20/20/20 19/19/19 164/110/150
f 164/110/150 19/19/19 114/83/104
f 164/110/150 114/83/104 165/111/151
f 165/111/151 114/83/104 7/7/7
f 165/111/151 7/7/7 166/112/152
f 166/112/152 7/7/7 9/9/9
f 166/112/152 9/9/9 167/113/153
f 23/23/23 22/22/22 168/114/101
f 168/114/101 22/22/22 157/108/144
f 168/114/101 157/108/144 169/115/99
f 169/115/99 157/108/144 155/106/143
f 169/115/99 155/106/143 170/116/154
f 170/116/154 155/106/143 154/105/142
f 170/116/154 154/105/142 171/117/39
f 172/118/155 173/119/156 174/120/157
f 174/120/157 173/119/156 84/66/75
f 174/120/157 84/66/75 175/121/158
f 175/121/158 84/66/75 86/68/77
f 175/121/158 86/68/77 176/122/159
f 176/122/159 86/68/77 88/70/79
f 176/122/159 88/70/79 177/123/5
f 178/124/160 179/13/161 180/14/162
f 180/14/162 179/13/161 181/15/163
f 180/14/162 181/15/163 182/103/164
f 182/103/164 181/15/163 183/104/165
f 182/103/164 183/104/165 184/34/166
f 106/80/97 111/42/102 107/40/98
f 107/40/98 111/42/102 109/41/100
f 107/40/98 109/41/100 37/34/36
f 37/34/36 109/41/100 108/81/99
f 37/34/36 108/81/99 185/85/154
f 183/104/165 115/36/105 184/34/166
f 184/34/166 115/36/105 117/85/107
f 184/34/166 117/85/107 186/81/167
f 186/81/167 117/85/107 79/6/73
f 186/81/167 79/6/73 187/4/168
f 187/4/168 79/6/73 78/5/72
f 187/4/168 78/5/72 27/27/26
f 27/27/26 78/5/72 188/39/103
f 27/27/26 188/39/103 25/25/19
f 189/46/169 190/95/170 191/31/171
f 191/31/171 190/95/170 192/48/172
f 191/31/171 192/48/172 193/47/173
f 193/47/173 192/48/172 194/97/174
f 193/47/173 194/97/174 195/48/175
f 133/50/122 189/46/169 132/1/121
f 132/1/121 189/46/169 191/31/171
f 132/1/121 191/31/171 131/96/120
f 131/96/120 191/31/171 193/47/173
f 131/96/120 193/47/173 128/31/117
f 128/31/117 193/47/173 195/48/175
f 128/31/117 195/48/175 129/95/118
f 153/104/141 15/15/15 152/103/140
f 152/103/140 15/15/15 14/14/14
f 152/103/140 14/14/14 151/102/139
f 151/102/139 14/14/14 123/90/112
f 151/102/139 123/90/112 150/101/138
f 150/101/138 123/90/112 196/102/176
f 150/101/138 196/102/176 105/79/96
f 105/79/96 196/102/176 44/40/42
f 105/79/96 44/40/42 106/80/97
f 106/80/97 44/40/42 46/42/44
f 167/113/153 197/125/177 166/112/152
f 166/112/152 197/125/177 172/118/155
f 166/112/152 172/118/155 165/111/151
f 165/111/151 172/118/155 174/120/157
f 165/111/151 174/120/157 164/110/150
f 164/110/150 174/120/157 175/121/158
f 164/110/150 175/121/158 20/20/20
f 20/20/20 175/121/158 176/122/159
f 20/20/20 176/122/159 21/21/21
f 21/21/21 176/122/159 177/123/5
f 13/13/13 178/124/160 123/90/112
f 123/90/112 178/124/160 180/14/162
f 123/90/112 180/14/162 196/102/176
f 196/102/176 180/14/162 182/103/164
f 196/102/176 182/103/164 44/40/42
f 44/40/42 182/103/164 184/34/166
f 44/40/42 184/34/166 45/41/43
f 45/41/43 184/34/166 186/81/167
f 45/41/43 186/81/167 47/43/45
f 47/43/45 186/81/167 187/4/168
f 47/43/45 187/4/168 49/45/47
f 49/45/47 187/4/168 27/27/26
f 49/45/47 27/27/26 104/78/95
f 104/78/95 27/27/26 26/26/25
f 104/78/95 26/26/25 42/27/41
f 42/27/41 26/26/25 25/25/19
f 42/27/41 25/25/19 43/39/21
o editpl_f-0000-1887
v 7.296040 61.404942 -15.189973
v 7.367466 62.646580 -14.139744
v 7.341012 61.408150 -14.029720
v 7.198160 62.643372 -15.297773
v 6.272267 61.372856 -14.596510
v 6.155869 62.556744 -14.735429
v 7.367466 62.646580 -14.139744
v 6.155869 62.556744 -14.735429
v 7.341012 61.408150 -14.029720
v 6.272267 61.372856 -14.596510
v 3.719446 64.626144 -14.427585
v 5.245848 67.311546 -11.894812
v 5.436317 63.548130 -8.275137
v 4.068640 65.826073 -5.086666
v -3.629502 67.350044 -12.205991
v 0.000000 64.369476 -15.111067
v -3.719446 64.626144 -14.427585
v 3.629502 67.350044 -12.205991
v 0.000000 70.199074 -8.187341
v 3.849071 69.666489 -8.640773
v -3.978696 61.013519 -11.177990
v 0.000000 63.317127 -15.584503
v 0.000000 59.236084 -12.602744
v 3.978696 61.013519 -11.177990
v 7.893903 53.441772 4.086440
v 7.774860 53.230022 2.178247
v 7.708724 49.556442 4.556542
v 7.436247 49.344688 2.648349
v 7.774860 53.230022 2.178247
v 9.385914 53.233231 3.099558
v 7.436247 49.344688 2.648349
v 9.108146 49.347897 3.569661
v 9.385914 53.233231 3.099558
v 7.893903 53.441772 4.086440
v 9.108146 49.347897 3.569661
v 7.708724 49.556442 4.556542
v -5.245848 67.311546 -11.894812
v -3.849071 69.666489 -8.640773
v 0.000000 70.661079 -7.198236
v -5.436317 63.548130 -8.275137
v -4.068640 65.826073 -5.086666
v 0.000000 66.766121 -3.687473
vn 0.8105 0.0629 -0.5823
vn 0.7625 0.0551 0.6446
vn 0.2200 0.1807 0.9586
vn 0.0863 -0.1803 -0.9798
vn -0.9728 0.1098 -0.2039
vn -0.4413 -0.2600 -0.8589
vn 0.7625 0.0550 0.6446
vn -0.4497 0.0552 0.8915
vn 0.2201 0.1807 0.9586
vn 0.4488 0.2204 -0.8660
vn 0.7171 0.5122 -0.4728
vn 0.8120 0.3627 -0.4573
vn 0.5041 0.8585 0.0945
vn -0.8267 0.1732 -0.5354
vn -0.0000 0.1644 -0.9864
vn -0.4488 0.2204 -0.8660
vn 0.8634 -0.5024 -0.0471
vn -0.0551 0.9526 0.2992
vn 0.4935 0.8694 -0.0235
vn -0.7135 0.0627 -0.6978
vn -0.0000 -0.0863 -0.9963
vn -0.0000 -0.0079 -1.0000
vn 0.6978 0.0627 -0.7135
vn 0.0471 -0.0550 0.9974
vn -0.9938 0.0704 0.0861
vn -0.4070 0.1956 0.8922
vn -0.9916 0.0787 0.1023
vn 0.6613 -0.2677 -0.7007
vn 0.9761 -0.1575 0.1495
vn 0.5422 -0.1100 -0.8330
vn 0.9999 -0.0000 -0.0158
vn 0.9999 -0.0000 -0.0157
vn -0.4070 0.1956 0.8923
vn -0.7170 0.5122 -0.4728
vn -0.4935 0.8694 -0.0235
vn -0.0000 0.9876 0.1568
vn -0.9208 0.2911 -0.2597
vn -0.6389 0.7652 0.0789
vn -0.0000 0.9701 0.2425
vt 0.898438 0.796875
vt 0.835938 0.859375
vt 0.898438 0.859375
vt 0.835938 0.796875
vt 0.835205 0.858612
vt 0.836670 0.835205
vt 0.897675 0.860077
vt 0.899139 0.836670
vt 0.722198 0.021149
vt 0.811554 0.021149
vt 0.811554 0.350708
vt 0.900696 0.350708
vt 0.811554 0.011536
vt 0.649475 0.011536
vt 0.989532 0.011536
vt 0.900696 0.021149
vt 0.722198 0.350708
vt 0.649902 0.021088
vt 0.649475 0.350708
vt 0.975952 0.531921
vt 0.899017 0.531921
vt 0.975952 0.609619
vt 0.899017 0.609619
vt 0.987885 0.530792
vt 0.921875 0.531250
vt 0.987885 0.609894
vt 0.921875 0.610321
vt 0.976562 0.531250
vt 0.898438 0.531250
vt 0.976562 0.610321
vt 0.898438 0.610321
vt 0.989594 0.021088
vt 0.989532 0.350708
s 1
usemtl f_hair098
f 198/126/178 199/127/179 200/128/180
f 199/127/179 198/126/178 201/129/181
f 201/129/181 198/126/178 202/128/182
f 201/129/181 202/128/182 203/127/183
f 204/130/184 205/131/185 206/132/186
f 206/132/186 205/131/185 207/133/182
f 208/134/187 209/135/188 210/136/189
f 210/136/189 209/135/188 211/137/190
f 212/138/191 213/139/192 214/134/193
f 215/138/194 216/140/195 217/141/196
f 218/142/197 219/143/198 220/144/199
f 220/144/199 219/143/198 208/134/187
f 220/144/199 208/134/187 221/142/200
f 221/142/200 208/134/187 210/136/189
f 222/145/201 223/146/202 224/147/203
f 224/147/203 223/146/202 225/148/204
f 226/149/205 227/150/206 228/151/207
f 228/151/207 227/150/206 229/152/208
f 230/153/206 231/154/201 232/155/209
f 232/155/209 231/154/201 233/156/210
f 214/134/193 234/135/211 212/138/191
f 212/138/191 234/135/211 235/141/212
f 212/138/191 235/141/212 216/140/195
f 216/140/195 235/141/212 236/157/213
f 216/140/195 236/157/213 217/141/196
f 237/136/214 238/137/215 235/141/212
f 235/141/212 238/137/215 239/158/216
f 235/141/212 239/158/216 236/157/213
f 236/157/213 239/158/216 211/137/190
f 236/157/213 211/137/190 217/141/196
f 217/141/196 211/137/190 209/135/188
f 217/141/196 209/135/188 215/138/194
f 215/138/194 209/135/188 208/134/187
f 215/138/194 208/134/187 213/139/192
f 213/139/192 208/134/187 219/143/198
f 213/139/192 219/143/198 214/134/193
f 214/134/193 219/143/198 218/142/197
f 214/134/193 218/142/197 234/135/211
f 234/135/211 218/142/197 237/136/214
f 234/135/211 237/136/214 235/141/212
