mtllib f_hair017.mtl
o editpl_f-0000-1921
v -3.039576 63.852924 8.304022
v -2.465522 61.838070 10.684539
v -1.105781 62.399536 10.844574
v -6.965364 50.210949 6.220237
v -7.430956 50.871872 5.530087
v -6.526226 52.912392 6.987070
v -1.105781 62.399536 10.844574
v -1.298896 62.075489 9.394259
v -0.320095 61.651985 9.776565
v -10.121338 50.528576 1.801499
v -9.602838 53.579735 1.021329
v -10.134565 50.182072 -2.748379
v 0.000000 62.559956 9.170877
v -0.320095 61.651985 9.776565
v 0.000000 60.885185 9.689879
v -5.314628 58.032948 9.144204
v -6.264330 58.052197 8.451832
v -3.526331 61.610275 8.490729
v 13.692641 24.261671 -14.111958
v 12.047196 19.766748 -17.990578
v 14.697897 20.004168 -13.462928
v -8.933549 60.282013 -5.438965
v -5.663822 61.026356 -8.740793
v -5.602978 57.407314 -9.594312
v -12.523370 25.204931 -17.903893
v -15.909495 24.993179 -18.642942
v -14.631762 27.203745 -17.121500
v -8.094954 48.318012 -5.545654
v -8.915031 50.961704 -5.087776
v -6.753731 53.380814 -6.729244
v 7.814541 50.778828 6.179117
v 8.044691 51.568089 5.739021
v 7.515609 52.905975 6.644773
v 9.319779 34.188362 -16.523592
v 14.010091 29.350142 -17.187071
v 12.031324 29.131973 -16.894785
v 8.920322 60.282013 -5.438965
v 5.650595 61.026356 -8.740793
v 5.023633 64.347015 -6.963741
v 8.782761 57.076855 -5.912400
v 8.163735 55.681213 -0.201159
v 8.272197 52.899559 -1.879301
v -5.423090 49.116894 -3.418525
v -3.555431 50.005611 -6.861495
v -3.719446 47.750130 -6.804816
v -7.536773 58.642536 5.578986
v -5.817256 63.137459 5.177787
v -8.113472 58.639328 4.016424
v 10.134565 50.182072 -2.748379
v 8.565837 47.076374 -1.938203
v 8.094954 48.318012 -5.545654
v -8.795988 57.076855 -5.912400
v -4.743220 53.095268 -8.830812
v 7.671689 63.137459 1.645908
v 5.256429 63.990887 5.246691
v 5.817256 63.137459 5.177787
v -8.248388 52.033298 5.480076
v -7.793377 53.072811 6.260245
v -8.536738 53.242855 4.806596
v -6.571198 58.270367 8.038409
v -4.624176 60.724766 8.404044
v -2.309443 61.064854 9.034181
v -3.526331 61.610275 8.490729
v -8.565837 47.076374 -1.938203
v -8.338332 48.609974 2.239372
v -8.941485 49.258064 2.091562
v -7.814541 50.778828 6.179117
v -3.462841 61.003895 10.447822
v -8.338332 48.609974 2.239372
v -2.465522 61.838070 10.684539
v -5.343728 63.291462 6.803696
v -5.256429 63.990887 5.246691
v -2.708900 65.402565 5.570094
v -5.314628 58.032948 9.144204
v -3.462841 61.003895 10.447822
v -8.997039 50.650494 3.931962
v 0.000000 64.523476 7.820583
v -5.904555 52.193718 7.935054
v 8.536738 53.242855 4.806596
v 6.571198 58.270367 8.038409
v 7.793377 53.072811 6.260245
v 5.817256 63.137459 5.177787
v 5.343728 63.291462 6.803696
v 8.113472 58.639328 4.016424
v 7.536773 58.642536 5.578986
v 9.602838 53.579735 1.021329
v 3.526331 61.610275 8.490729
v 2.309443 61.064854 9.034181
v 4.624176 60.724766 8.404044
v 8.338332 48.609974 2.239372
v 6.965364 50.210949 6.220237
v 7.430956 50.871872 5.530087
v 6.526226 52.912392 6.987070
v 6.989173 52.729515 7.596091
v 5.952172 58.032948 9.612084
v 2.465522 61.838070 10.684539
v 1.105781 62.399536 10.844574
v 1.298896 62.075489 9.394259
v 0.320095 61.651985 9.776565
v 1.105781 62.399536 10.844574
v 2.465522 61.838070 10.684539
v 3.039576 63.852924 8.304022
v 3.462841 61.003895 10.447822
v 3.462841 61.003895 10.447822
v 5.314628 58.032948 9.144204
v 8.941485 49.258064 2.091562
v 10.121338 50.528576 1.801499
v 8.997039 50.650494 3.931962
v 8.248388 52.033298 5.480076
v 5.904555 52.193718 7.935054
v 5.314628 58.032948 9.144204
v 6.264330 58.052197 8.451832
v 3.526331 61.610275 8.490729
v 8.915031 50.961704 -5.087776
v 6.753731 53.380814 -6.729244
v 12.634477 29.109514 -15.008819
v 8.311878 50.676163 -8.146219
v 6.034180 48.972519 -8.417389
v 10.534022 45.972694 -11.082412
v 8.153153 44.079758 -9.976615
v 9.695427 39.896046 -12.083740
v 14.605308 29.462435 -14.832114
v 14.060353 35.811794 -13.879685
v 12.634477 29.109514 -15.008819
v 12.523370 25.204931 -17.903893
v 13.264085 26.972742 -15.031046
v 12.750875 26.988785 -16.909231
v 15.864523 24.938637 -18.589598
v 16.970304 25.589935 -14.865455
v 12.565697 25.143972 -17.866106
v 13.703223 24.223171 -14.160857
v 9.695427 39.896046 -12.083740
v 8.153153 44.079758 -9.976615
v 6.941555 44.480804 -14.399799
v 6.034180 48.972519 -8.417389
v 4.878136 50.194904 -10.646762
v 12.803784 35.561543 -17.202629
v 12.343482 40.723804 -12.669423
v 11.266801 40.633972 -15.015488
v 16.991467 21.155972 -19.360876
v 15.909495 24.993179 -18.642942
v 14.631762 27.203745 -17.121500
v -4.878136 50.194904 -10.646762
v -9.340942 46.518116 -14.300890
v -7.044726 52.052551 -10.837914
v -12.634477 29.109514 -15.008819
v -14.060353 35.811794 -13.879685
v -14.605308 29.462435 -14.832114
v -7.592326 52.947685 -5.581217
v -6.034180 48.972519 -8.417389
v -8.311878 50.676163 -8.146219
v -8.153153 44.079758 -9.976615
v -10.534022 45.972694 -11.082412
v -9.695427 39.896046 -12.083740
v -14.010091 29.350142 -17.187071
v -9.319779 34.188362 -16.523592
v -12.031324 29.131973 -16.894785
v 4.764383 66.101990 1.185808
v 2.708900 65.402565 5.570094
v -0.005291 67.090172 1.080230
v 0.000000 64.995102 6.079094
v 5.409863 49.116894 -3.418525
v 7.579099 52.947685 -5.581217
v -7.772214 52.273930 1.712590
v -8.137281 55.678005 3.147347
v -8.875350 56.242680 -0.793510
v -7.692852 56.813766 4.336493
v -5.036860 64.347015 -6.963741
v -7.097635 63.686089 -4.568776
v -4.378153 65.915909 -4.373178
v 9.010266 59.887383 0.946867
v 7.084408 63.686089 -4.568776
v 4.364926 65.915909 -4.373178
v -13.703223 24.223171 -14.160857
v -16.970304 25.589935 -14.865455
v -12.565697 25.143972 -17.866106
v -15.864523 24.938637 -18.589598
v -9.695427 39.896046 -12.083740
v -10.811790 34.971203 -12.644973
v -12.634477 29.109514 -15.008819
v -12.750875 26.988785 -16.909231
v -13.264085 26.972742 -15.031046
v -13.692641 24.261671 -14.111958
v -12.047196 19.766748 -17.990578
v -16.991467 21.155972 -19.360876
v -8.354204 55.755009 2.318278
v -8.676944 55.222420 0.313397
v -7.674334 51.818340 1.975981
v -8.055273 51.125332 1.096901
v -6.674369 48.523346 2.068223
v -14.697897 20.004168 -13.462928
v 6.674369 48.523346 2.068223
v 8.055273 51.125332 1.096901
v 7.674334 51.818340 1.975981
v 8.676944 55.222420 0.313397
v 8.354204 55.755009 2.318278
v 0.000000 60.885185 9.689879
v 5.314628 58.032948 9.144204
v 5.904555 52.193718 7.935054
v 6.965364 50.210949 6.220237
v 8.338332 48.609974 2.239372
v 8.626681 50.688995 4.638782
v 5.256429 63.990887 5.246691
v 2.708900 65.402565 5.570094
v 0.320095 61.651985 9.776565
v -2.700963 65.402565 5.570094
v -4.772319 66.101990 1.185808
v -5.256429 63.990887 5.246691
v -7.676979 63.137459 1.647020
v -5.817256 63.137459 5.177787
v -9.015557 59.887383 0.945756
v -8.113472 58.639328 4.016424
v 15.216397 27.335287 -14.868789
v 17.023212 25.657310 -14.838782
v 13.692641 24.261671 -14.111958
v 18.800928 22.785822 -14.694306
v 19.726822 20.742092 -14.251987
v 12.803784 35.561543 -17.202629
v 7.732533 39.912090 -15.247761
v 9.340942 46.518116 -14.300890
v 15.909495 24.993179 -18.642942
v 10.811790 34.971203 -12.644973
v 7.044726 52.052551 -10.837914
v 8.113472 58.639328 4.016424
v 7.684916 56.813766 4.336493
v 8.124054 55.678005 3.147347
v 7.758987 52.273930 1.712590
v 5.589751 57.407314 -9.594312
v 4.729993 53.095268 -8.830812
v 3.542204 50.005611 -6.861495
v 3.706219 47.750130 -6.804816
v -8.285424 52.899559 -1.879301
v -12.803784 35.561543 -17.202629
v -7.732533 39.912090 -15.247761
v -6.941555 44.480804 -14.399799
v -8.153153 44.079758 -9.976615
v -11.266801 40.633972 -15.015488
v -12.343482 40.723804 -12.669423
v -12.803784 35.561543 -17.202629
v -19.726822 20.742092 -14.251987
v -18.800928 22.785822 -14.694306
v -13.692641 24.261671 -14.111958
v -17.023212 25.657310 -14.838782
v -15.216397 27.335287 -14.868789
v 10.811790 34.971203 -12.644973
v -6.034180 48.972519 -8.417389
v -15.909495 24.993179 -18.642942
v -10.811790 34.971203 -12.644973
v -5.952172 58.032948 9.612084
v -7.515609 52.905975 6.644773
v -6.989173 52.729515 7.596091
v -8.044691 51.568089 5.739021
v -8.626681 50.688995 4.638782
v 0.000000 64.995102 6.079094
v -5.314628 58.032948 9.144204
v -5.904555 52.193718 7.935054
v -6.965364 50.210949 6.220237
v -0.005291 66.310532 -5.237810
v -0.005291 64.590851 -7.943954
v -0.005291 62.534286 -9.935496
v -0.005291 57.801945 -11.630310
v -0.005291 53.111313 -11.262451
v -0.005291 49.225979 -8.648550
v -0.005291 47.323418 -9.126431
vn -0.3711 0.7343 0.5685
vn -0.4792 0.6127 0.6284
vn 0.3532 0.6043 0.7142
vn 0.8651 0.0786 -0.4954
vn 0.8736 0.1181 -0.4722
vn 0.7870 0.0629 -0.6138
vn -0.0550 -0.9740 0.2199
vn -0.1812 -0.7483 0.6381
vn 0.1181 -0.2204 0.9682
vn -0.9407 -0.2195 0.2587
vn -0.9625 0.1487 0.2269
vn -0.9480 -0.2507 -0.1959
vn -0.0000 0.3443 0.9389
vn -0.0000 -0.0000 1.0000
vn 0.7706 -0.1730 -0.6134
vn 0.5841 -0.1026 -0.8052
vn 0.5578 -0.7934 0.2435
vn -0.5086 0.1174 0.8530
vn -0.9017 0.0314 -0.4312
vn -0.2277 0.1256 0.9656
vn -0.8593 0.2838 -0.4256
vn -0.4808 0.3311 -0.8119
vn -0.5743 -0.0236 -0.8183
vn 0.8507 0.2599 -0.4569
vn -0.3606 0.4390 -0.8230
vn -0.4386 0.4543 -0.7754
vn -0.7935 -0.2435 -0.5578
vn -0.7298 -0.1099 -0.6748
vn -0.5742 -0.0315 -0.8181
vn 0.6833 -0.3849 0.6205
vn 0.8782 0.0078 0.4783
vn 0.8942 0.0235 0.4471
vn -0.8980 -0.3072 -0.3151
vn 0.5191 0.0944 -0.8495
vn -0.6381 -0.2600 -0.7247
vn 0.8592 0.2838 -0.4257
vn 0.4808 0.3311 -0.8119
vn 0.4557 0.6601 -0.5972
vn 0.9415 -0.1569 -0.2982
vn 0.9969 -0.0471 0.0628
vn 0.9511 -0.2987 -0.0786
vn -0.8243 -0.4004 -0.4004
vn -0.6390 -0.2761 -0.7179
vn -0.7299 0.0314 -0.6828
vn -0.9203 0.1966 0.3382
vn -0.8645 0.4480 0.2279
vn -0.9240 0.2193 0.3132
vn 0.9480 -0.2507 -0.1959
vn 0.8263 -0.5587 0.0708
vn 0.7935 -0.2435 -0.5578
vn -0.9335 -0.1412 -0.3295
vn -0.5676 -0.4178 -0.7095
vn 0.8010 0.5732 0.1728
vn 0.6533 0.6691 0.3542
vn 0.8362 0.3550 0.4181
vn -0.8971 0.0315 0.4407
vn -0.8887 0.0472 0.4561
vn -0.9167 0.0783 0.3918
vn -0.8973 0.1653 0.4093
vn -0.2906 0.2670 0.9188
vn -0.3302 0.0315 0.9434
vn -0.8263 -0.5587 0.0708
vn -0.6604 -0.6446 0.3852
vn -0.7253 -0.5992 0.3390
vn -0.6833 -0.3849 0.6205
vn -0.4476 0.3062 0.8402
vn 0.8950 0.2120 -0.3925
vn 0.4249 -0.9049 -0.0236
vn -0.7370 0.5331 0.4155
vn -0.6773 0.6852 0.2678
vn -0.2448 0.8924 0.3791
vn 0.7734 -0.5998 -0.2052
vn -0.8736 -0.1888 0.4486
vn -0.0000 0.8554 0.5179
vn 0.8439 0.0158 -0.5363
vn 0.9167 0.0783 0.3918
vn 0.8973 0.1653 0.4093
vn 0.8887 0.0472 0.4561
vn 0.8645 0.4480 0.2279
vn 0.7370 0.5331 0.4155
vn 0.9240 0.2192 0.3132
vn 0.9203 0.1967 0.3382
vn 0.9625 0.1487 0.2269
vn -0.5578 -0.7935 0.2435
vn 0.3302 0.0315 0.9434
vn 0.2906 0.2670 0.9188
vn -0.8950 0.2119 -0.3925
vn -0.8651 0.0786 -0.4954
vn -0.8736 0.1181 -0.4722
vn -0.7870 0.0629 -0.6138
vn 0.5042 -0.2205 0.8350
vn 0.4555 -0.0707 0.8874
vn -0.4249 -0.9049 -0.0236
vn 0.0550 -0.9740 0.2199
vn 0.1812 -0.7483 0.6381
vn -0.1181 -0.2204 0.9682
vn -0.3531 0.6043 0.7142
vn 0.4792 0.6127 0.6284
vn 0.3711 0.7343 0.5685
vn 0.4476 0.3063 0.8402
vn -0.7734 -0.5998 -0.2052
vn -0.7706 -0.1730 -0.6134
vn 0.7253 -0.5992 0.3390
vn 0.9407 -0.2195 0.2587
vn 0.8736 -0.1888 0.4486
vn 0.8971 0.0315 0.4407
vn -0.8439 0.0158 -0.5363
vn -0.5841 -0.1026 -0.8052
vn 0.7298 -0.1099 -0.6748
vn 0.5742 -0.0315 -0.8181
vn -0.5185 -0.2985 0.8013
vn 0.8878 0.2121 0.4085
vn -0.3316 -0.6710 0.6631
vn 0.7975 0.0632 0.6001
vn -0.3223 -0.5031 0.8019
vn -0.3292 -0.3056 0.8934
vn 0.8995 0.1499 0.4104
vn 0.7951 0.0236 0.6061
vn -0.8507 0.2599 -0.4569
vn -0.6197 -0.0235 0.7845
vn -0.9456 -0.0394 -0.3231
vn -0.0158 -0.9847 0.1733
vn 0.1487 -0.9864 -0.0704
vn 0.3072 -0.8980 -0.3151
vn -0.3291 -0.3056 0.8934
vn -0.9458 -0.1576 -0.2838
vn -0.3315 -0.6711 0.6632
vn -0.8015 0.0314 -0.5972
vn 0.4505 0.3083 -0.8379
vn 0.9518 0.2832 0.1180
vn 0.4953 0.3695 -0.7862
vn 0.5839 0.2919 -0.7575
vn 0.3606 0.4389 -0.8230
vn 0.4386 0.4543 -0.7754
vn 0.8015 0.0314 -0.5972
vn -0.4323 0.4558 -0.7781
vn -0.2749 0.7068 -0.6518
vn 0.5185 -0.2986 0.8013
vn -0.7950 0.0236 0.6061
vn -0.8995 0.1499 0.4104
vn -0.7690 -0.4786 -0.4237
vn 0.3316 -0.6711 0.6631
vn -0.8878 0.2121 0.4085
vn 0.3223 -0.5031 0.8019
vn -0.7975 0.0632 0.6001
vn 0.3292 -0.3057 0.8934
vn -0.5191 0.0945 -0.8495
vn 0.8980 -0.3072 -0.3151
vn 0.6381 -0.2600 -0.7247
vn 0.4729 0.8669 0.1576
vn 0.2042 0.9188 0.3377
vn -0.0000 0.9931 0.1173
vn -0.0000 0.9235 0.3835
vn 0.8243 -0.4004 -0.4004
vn 0.7690 -0.4786 -0.4237
vn -0.9737 -0.1649 0.1571
vn -0.9835 -0.0000 0.1810
vn -0.9927 -0.0630 0.1024
vn -0.9740 -0.0550 0.2199
vn -0.4557 0.6601 -0.5972
vn -0.7785 0.6055 -0.1651
vn -0.3932 0.8887 -0.2359
vn 0.9823 0.1022 0.1572
vn 0.7785 0.6055 -0.1651
vn 0.3932 0.8887 -0.2359
vn -0.3072 -0.8980 -0.3151
vn -0.1487 -0.9864 -0.0704
vn 0.0157 -0.9847 0.1733
vn 0.3291 -0.3056 0.8935
vn 0.3213 -0.3135 0.8936
vn 0.5185 -0.2985 0.8013
vn 0.9456 -0.0394 -0.3230
vn 0.6197 -0.0236 0.7845
vn 0.5086 0.1174 0.8530
vn 0.9017 0.0314 -0.4312
vn -0.5839 0.2919 -0.7575
vn -0.9624 -0.1800 0.2034
vn -0.9421 -0.1178 0.3140
vn -0.9056 -0.1575 0.3937
vn -0.8624 -0.1412 0.4861
vn -0.8151 -0.2273 0.5329
vn 0.2276 0.1255 0.9656
vn 0.8151 -0.2273 0.5329
vn 0.8624 -0.1412 0.4861
vn 0.9056 -0.1575 0.3937
vn 0.9421 -0.1178 0.3140
vn 0.9624 -0.1800 0.2034
vn -0.0001 -0.0000 1.0000
vn -0.2436 -0.4243 0.8721
vn 0.3941 -0.3468 0.8512
vn 0.4476 -0.6204 0.6440
vn 0.6604 -0.6446 0.3852
vn 0.8392 -0.2981 0.4549
vn 0.6773 0.6852 0.2678
vn 0.2448 0.8924 0.3791
vn 0.0001 -0.0000 1.0000
vn -0.2042 0.9188 0.3377
vn -0.4729 0.8669 0.1576
vn -0.6533 0.6691 0.3542
vn -0.8010 0.5732 0.1728
vn -0.8362 0.3550 0.4181
vn -0.9786 0.1331 0.1566
vn -0.9489 0.0784 0.3058
vn 0.4570 0.2837 0.8430
vn -0.6197 -0.0236 0.7844
vn 0.6082 0.5845 0.5371
vn -0.5087 0.1173 0.8529
vn 0.7782 0.4402 0.4480
vn -0.2276 0.1256 0.9656
vn 0.7865 0.4483 0.4248
vn 0.4506 0.3083 -0.8378
vn -0.5641 0.0705 -0.8227
vn 0.4323 0.4558 -0.7781
vn 0.3605 0.4389 -0.8230
vn -0.3213 -0.3135 0.8936
vn 0.2749 0.7068 -0.6518
vn 0.9494 0.0706 0.3060
vn 0.9918 -0.0236 0.1259
vn 0.9931 0.1173 0.0078
vn 0.9939 -0.1096 0.0079
vn 0.5743 -0.0236 -0.8183
vn 0.5676 -0.4178 -0.7095
vn 0.6390 -0.2762 -0.7179
vn 0.7299 0.0314 -0.6828
vn -0.9330 -0.3372 -0.1255
vn -0.4506 0.3082 -0.8378
vn 0.5641 0.0705 -0.8227
vn 0.9458 -0.1577 -0.2838
vn -0.4953 0.3695 -0.7862
vn -0.9518 0.2832 0.1180
vn -0.4505 0.3082 -0.8379
vn -0.5191 0.0944 -0.8495
vn -0.7865 0.4483 0.4248
vn 0.2276 0.1256 0.9656
vn -0.7782 0.4402 0.4480
vn 0.5087 0.1174 0.8529
vn -0.6082 0.5845 0.5371
vn 0.6198 -0.0235 0.7844
vn -0.4570 0.2837 0.8430
vn -0.3214 -0.3136 0.8935
vn 0.3315 -0.6710 0.6632
vn -0.3605 0.4389 -0.8230
vn -0.5839 0.2920 -0.7575
vn 0.3214 -0.3135 0.8935
vn -0.4555 -0.0707 0.8874
vn -0.8942 0.0235 0.4471
vn -0.5042 -0.2206 0.8350
vn -0.8782 0.0078 0.4783
vn -0.8392 -0.2981 0.4549
vn -0.0000 0.9658 0.2591
vn 0.2436 -0.4243 0.8721
vn -0.3941 -0.3468 0.8512
vn -0.4476 -0.6204 0.6440
vn -0.0000 0.9414 -0.3373
vn -0.0000 0.8084 -0.5887
vn 0.0001 0.5272 -0.8498
vn 0.0001 0.1644 -0.9864
vn 0.0001 -0.3068 -0.9518
vn -0.0000 -0.3537 -0.9354
vn -0.0000 0.1337 -0.9910
vt 0.388947 0.914795
vt 0.385101 0.858582
vt 0.369415 0.858582
vt 0.975739 0.801178
vt 0.959167 0.765717
vt 0.925781 0.765717
vt 0.734619 0.601562
vt 0.748444 0.631409
vt 0.722015 0.675354
vt 0.746918 0.904999
vt 0.694641 0.986053
vt 0.806732 0.928436
vt 0.341766 0.885712
vt 0.349396 0.866150
vt 0.345703 0.858582
vt 0.894867 0.838654
vt 0.891296 0.788300
vt 0.856812 0.810852
vt 0.598816 0.764374
vt 0.692993 0.833557
vt 0.693176 0.765045
vt 0.362701 0.415680
vt 0.202850 0.397003
vt 0.216339 0.518341
vt 0.580505 0.839233
vt 0.508453 0.764099
vt 0.912445 0.891541
vt 0.880798 0.954681
vt 0.989532 0.944672
vt 0.677429 0.867584
vt 0.665009 0.884888
vt 0.617004 0.885651
vt 0.904205 0.437805
vt 0.818634 0.534271
vt 0.904205 0.534271
vt 0.238190 0.263763
vt 0.363861 0.549713
vt 0.513214 0.555817
vt 0.468170 0.680359
vt 0.384094 0.769562
vt 0.235077 0.783234
vt 0.232910 0.856262
vt 0.550446 0.961273
vt 0.450592 0.985535
vt 0.564331 0.991394
vt 0.851410 0.864319
vt 0.225708 0.645355
vt 0.521515 0.287689
vt 0.635101 0.254333
vt 0.636017 0.304871
vt 0.657684 0.895111
vt 0.621521 0.893188
vt 0.638611 0.921661
vt 0.527985 0.904999
vt 0.989990 0.719330
vt 0.855072 0.719330
vt 0.928711 0.601898
vt 0.766693 0.865021
vt 0.760010 0.878540
vt 0.407928 0.858582
vt 0.989990 0.765717
vt 0.845337 0.560760
vt 0.437225 0.954346
vt 0.429718 0.989990
vt 0.383179 0.989990
vt 0.989990 0.560760
vt 0.713104 0.886780
vt 0.331879 0.934692
vt 0.958923 0.836639
vt 0.605835 0.867004
vt 0.513611 0.868988
vt 0.989990 0.481537
vt 0.728729 0.022247
vt 0.650330 0.058502
vt 0.734741 0.154785
vt 0.659119 0.197906
vt 0.665680 0.321747
vt 0.734741 0.534271
vt 0.734741 0.400452
vt 0.650330 0.534271
vt 0.508240 0.818420
vt 0.308563 0.592987
vt 0.356323 0.632721
vt 0.259430 0.635590
vt 0.989990 0.271240
vt 0.989990 0.138611
vt 0.904205 0.175232
vt 0.989990 0.010193
vt 0.854065 0.009979
vt 0.818634 0.415405
vt 0.734741 0.301178
vt 0.818634 0.338684
vt 0.806366 0.150482
vt 0.795380 0.057953
vt 0.359283 0.686859
vt 0.503784 0.136230
vt 0.635468 0.137817
vt 0.372040 0.017090
vt 0.633942 0.015961
vt 0.580444 0.661224
vt 0.619720 0.565613
vt 0.632019 0.473419
vt 0.366058 0.268738
vt 0.324860 0.157196
vt 0.522552 0.409515
vt 0.989990 0.325348
vt 0.242706 0.989990
vt 0.241882 0.896942
vt 0.012482 0.989990
vt 0.085571 0.896820
vt 0.011749 0.895630
vt 0.715485 0.719330
vt 0.507812 0.858582
vt 0.605865 0.858582
vt 0.694885 0.858582
vt 0.701874 0.880737
vt 0.635803 0.418213
vt 0.508759 0.709656
vt 0.574432 0.682312
vt 0.643005 0.682495
vt 0.693176 0.682526
vt 0.904205 0.324738
vt 0.650330 0.391266
vt 0.331879 0.966400
vt 0.209259 0.081177
vt 0.085266 0.199005
vt 0.012024 0.267700
vt 0.012482 0.485504
vt 0.010956 0.632416
vt 0.010986 0.781250
vt 0.011780 0.856262
s 1
usemtl f_hair0120
f 1/1/1 2/2/2 3/3/3
f 4/4/4 5/5/5 6/6/6
f 7/7/7 8/8/8 9/9/9
f 10/10/10 11/11/11 12/12/12
f 13/13/13 14/14/9 15/15/14
f 16/16/15 17/17/16 18/18/17
f 19/19/18 20/20/19 21/21/20
f 22/22/21 23/23/22 24/24/23
f 25/25/24 26/19/25 27/26/26
f 28/27/27 29/28/28 30/29/29
f 31/30/30 32/31/31 33/32/32
f 34/33/33 35/34/34 36/35/35
f 37/22/36 38/23/37 39/36/38
f 40/37/39 41/38/40 42/39/41
f 43/40/42 44/41/43 45/42/44
f 46/43/45 47/44/46 48/45/47
f 49/12/48 50/46/49 51/27/50
f 52/37/51 24/24/23 53/47/52
f 54/48/53 55/49/54 56/50/55
f 57/51/56 58/52/57 59/53/58
f 58/52/57 60/54/59 59/53/58
f 59/53/58 60/54/59 46/43/45
f 59/53/58 46/43/45 11/11/11
f 11/11/11 46/43/45 48/45/47
f 61/55/60 62/56/61 63/57/17
f 64/46/62 65/58/63 66/59/64
f 66/59/64 65/58/63 67/30/65
f 2/2/2 1/1/1 68/60/66
f 5/5/5 4/4/4 69/61/67
f 8/8/8 7/7/7 70/62/68
f 47/44/46 71/63/69 72/64/70
f 72/64/70 71/63/69 73/65/71
f 74/55/15 63/57/17 75/66/72
f 11/11/11 10/10/10 59/53/58
f 59/53/58 10/10/10 76/67/73
f 59/53/58 76/67/73 57/51/56
f 14/14/9 13/13/13 3/3/3
f 3/3/3 13/13/13 77/68/74
f 3/3/3 77/68/74 1/1/1
f 17/17/16 16/16/15 6/6/6
f 6/6/6 16/16/15 78/69/75
f 6/6/6 78/69/75 4/4/4
f 79/53/76 80/54/77 81/52/78
f 82/44/79 83/63/80 84/45/81
f 84/45/81 83/63/80 85/43/82
f 84/45/81 85/43/82 86/11/83
f 87/57/84 88/56/85 89/55/86
f 90/61/87 91/4/88 92/5/89
f 92/5/89 91/4/88 93/6/90
f 31/30/30 33/32/32 94/70/91
f 94/70/91 33/32/32 80/54/77
f 94/70/91 80/54/77 95/71/92
f 96/62/93 97/7/94 98/8/95
f 98/8/95 97/7/94 99/9/96
f 100/3/97 101/2/98 102/1/99
f 102/1/99 101/2/98 103/60/100
f 102/1/99 103/60/100 83/63/80
f 104/66/101 87/57/84 105/55/102
f 106/59/103 107/10/104 108/67/105
f 108/67/105 107/10/104 79/53/76
f 108/67/105 79/53/76 109/51/106
f 109/51/106 79/53/76 81/52/78
f 91/4/88 110/69/107 93/6/90
f 93/6/90 110/69/107 111/16/102
f 93/6/90 111/16/102 112/17/108
f 112/17/108 111/16/102 113/18/84
f 49/12/48 51/27/50 114/28/109
f 114/28/109 51/27/50 115/29/110
f 36/35/35 116/72/111 34/33/33
f 117/73/112 118/74/113 119/75/114
f 119/75/114 118/74/113 120/76/115
f 119/75/114 120/76/115 121/77/116
f 122/78/117 123/79/118 124/80/111
f 20/20/19 19/19/18 125/25/119
f 125/25/119 19/19/18 126/26/120
f 125/25/119 126/26/120 127/81/121
f 128/82/122 129/83/123 130/84/123
f 130/84/123 129/83/123 131/82/124
f 132/85/125 133/86/115 134/87/126
f 134/87/126 133/86/115 135/88/127
f 134/87/126 135/88/127 136/89/128
f 122/78/117 35/34/34 123/79/118
f 123/79/118 35/34/34 137/90/129
f 123/79/118 137/90/129 138/91/130
f 138/91/130 137/90/129 139/92/131
f 140/21/132 20/20/19 141/19/133
f 141/19/133 20/20/19 125/25/119
f 141/19/133 125/25/119 142/26/134
f 142/26/134 125/25/119 127/81/121
f 143/89/135 144/93/136 145/94/137
f 146/80/138 147/79/139 148/78/140
f 44/41/43 149/95/141 53/47/52
f 53/47/52 149/95/141 52/37/51
f 150/74/142 151/73/143 152/76/144
f 152/76/144 151/73/143 153/75/145
f 152/76/144 153/75/145 154/77/146
f 155/34/147 156/33/148 157/35/149
f 55/49/54 158/96/150 159/97/151
f 159/97/151 158/96/150 160/98/152
f 159/97/151 160/98/152 161/99/153
f 162/40/154 163/95/155 42/39/41
f 42/39/41 163/95/155 40/37/39
f 164/100/156 165/101/157 166/38/158
f 166/38/158 165/101/157 167/102/159
f 23/23/22 22/22/21 168/36/160
f 168/36/160 22/22/21 169/103/161
f 168/36/160 169/103/161 170/104/162
f 56/50/55 171/105/163 54/48/53
f 54/48/53 171/105/163 172/103/164
f 54/48/53 172/103/164 173/104/165
f 174/82/166 175/83/167 176/84/167
f 176/84/167 175/83/167 177/82/168
f 178/85/169 179/106/170 156/33/148
f 156/33/148 179/106/170 180/72/171
f 156/33/148 180/72/171 157/35/149
f 27/26/26 181/81/172 25/25/24
f 25/25/24 181/81/172 182/26/173
f 25/25/24 182/26/173 183/19/174
f 184/20/175 185/21/176 26/19/25
f 186/107/177 187/108/178 188/109/179
f 188/109/179 187/108/178 189/110/180
f 188/109/179 189/110/180 190/111/181
f 26/19/25 25/25/24 184/20/175
f 184/20/175 25/25/24 183/19/174
f 184/20/175 183/19/174 191/21/182
f 192/111/183 193/110/184 194/109/185
f 194/109/185 193/110/184 195/108/186
f 194/109/185 195/108/186 196/107/187
f 197/112/188 9/9/9 62/56/61
f 62/56/61 9/9/9 8/8/8
f 62/56/61 8/8/8 63/57/17
f 63/57/17 8/8/8 70/62/68
f 63/57/17 70/62/68 75/66/72
f 29/28/28 28/27/27 12/12/12
f 12/12/12 28/27/27 64/46/62
f 12/12/12 64/46/62 10/10/10
f 10/10/10 64/46/62 66/59/64
f 10/10/10 66/59/64 76/67/73
f 95/71/92 198/113/189 94/70/91
f 94/70/91 198/113/189 199/114/190
f 94/70/91 199/114/190 31/30/30
f 31/30/30 199/114/190 200/115/191
f 31/30/30 200/115/191 201/58/192
f 32/31/31 31/30/30 202/116/193
f 202/116/193 31/30/30 201/58/192
f 202/116/193 201/58/192 106/59/103
f 106/59/103 201/58/192 50/46/49
f 106/59/103 50/46/49 107/10/104
f 82/44/79 203/64/194 83/63/80
f 83/63/80 203/64/194 204/65/195
f 83/63/80 204/65/195 102/1/99
f 102/1/99 204/65/195 77/68/74
f 102/1/99 77/68/74 100/3/97
f 100/3/97 77/68/74 13/13/13
f 100/3/97 13/13/13 205/14/96
f 205/14/96 13/13/13 15/15/14
f 104/66/101 96/62/93 87/57/84
f 87/57/84 96/62/93 98/8/95
f 87/57/84 98/8/95 88/56/85
f 88/56/85 98/8/95 99/9/96
f 88/56/85 99/9/96 197/112/196
f 206/97/197 207/96/198 208/49/199
f 208/49/199 207/96/198 209/48/200
f 208/49/199 209/48/200 210/50/201
f 210/50/201 209/48/200 211/105/202
f 210/50/201 211/105/202 212/117/203
f 213/118/204 126/26/205 214/119/206
f 214/119/206 126/26/205 215/19/207
f 214/119/206 215/19/207 216/120/208
f 216/120/208 215/19/207 21/21/209
f 216/120/208 21/21/209 217/121/210
f 35/34/34 34/33/33 218/90/211
f 218/90/211 34/33/33 219/122/212
f 218/90/211 219/122/212 139/92/131
f 139/92/131 219/122/212 220/93/213
f 139/92/131 220/93/213 138/91/130
f 217/121/210 140/21/132 216/120/208
f 216/120/208 140/21/132 221/19/214
f 216/120/208 221/19/214 214/119/206
f 214/119/206 221/19/214 142/26/134
f 214/119/206 142/26/134 213/118/204
f 116/72/111 222/106/215 34/33/33
f 34/33/33 222/106/215 132/85/125
f 34/33/33 132/85/125 219/122/212
f 219/122/212 132/85/125 134/87/126
f 219/122/212 134/87/126 220/93/213
f 220/93/213 134/87/126 136/89/128
f 220/93/213 136/89/128 223/94/216
f 56/50/55 224/117/217 171/105/163
f 171/105/163 224/117/217 225/102/218
f 171/105/163 225/102/218 41/38/40
f 41/38/40 225/102/218 226/101/219
f 41/38/40 226/101/219 227/100/220
f 38/23/37 37/22/36 228/24/221
f 228/24/221 37/22/36 40/37/39
f 228/24/221 40/37/39 229/47/222
f 229/47/222 40/37/39 163/95/155
f 229/47/222 163/95/155 230/41/223
f 230/41/223 163/95/155 162/40/154
f 230/41/223 162/40/154 231/42/224
f 41/38/40 40/37/39 171/105/163
f 171/105/163 40/37/39 37/22/36
f 171/105/163 37/22/36 172/103/164
f 172/103/164 37/22/36 39/36/38
f 172/103/164 39/36/38 173/104/165
f 44/41/43 43/40/42 149/95/141
f 149/95/141 43/40/42 232/39/225
f 149/95/141 232/39/225 52/37/51
f 52/37/51 232/39/225 166/38/158
f 52/37/51 166/38/158 211/105/202
f 211/105/202 166/38/158 167/102/159
f 211/105/202 167/102/159 212/117/203
f 155/34/147 233/90/226 156/33/148
f 156/33/148 233/90/226 234/122/227
f 156/33/148 234/122/227 178/85/169
f 178/85/169 234/122/227 235/87/228
f 178/85/169 235/87/228 236/86/144
f 144/93/136 237/92/229 238/91/230
f 238/91/230 237/92/229 239/90/231
f 238/91/230 239/90/231 147/79/139
f 147/79/139 239/90/231 155/34/232
f 147/79/139 155/34/232 148/78/140
f 240/121/233 191/21/234 241/120/235
f 241/120/235 191/21/234 242/19/236
f 241/120/235 242/19/236 243/119/237
f 243/119/237 242/19/236 182/26/238
f 243/119/237 182/26/238 244/118/239
f 223/94/216 117/73/112 220/93/213
f 220/93/213 117/73/112 119/75/114
f 220/93/213 119/75/114 138/91/130
f 138/91/130 119/75/114 121/77/116
f 138/91/130 121/77/116 123/79/118
f 123/79/118 121/77/116 245/123/240
f 123/79/118 245/123/240 124/80/111
f 233/90/226 237/92/229 234/122/227
f 234/122/227 237/92/229 144/93/136
f 234/122/227 144/93/136 235/87/228
f 235/87/228 144/93/136 143/89/135
f 235/87/228 143/89/135 236/86/144
f 236/86/144 143/89/135 246/88/241
f 244/118/239 27/26/26 243/119/237
f 243/119/237 27/26/26 247/19/242
f 243/119/237 247/19/242 241/120/235
f 241/120/235 247/19/242 185/21/243
f 241/120/235 185/21/243 240/121/233
f 146/80/138 248/123/244 147/79/139
f 147/79/139 248/123/244 154/77/146
f 147/79/139 154/77/146 238/91/230
f 238/91/230 154/77/146 153/75/145
f 238/91/230 153/75/145 144/93/136
f 144/93/136 153/75/145 151/73/143
f 144/93/136 151/73/143 145/94/137
f 47/44/46 46/43/45 71/63/69
f 71/63/69 46/43/45 60/54/59
f 71/63/69 60/54/59 249/71/245
f 249/71/245 60/54/59 250/32/246
f 249/71/245 250/32/246 251/70/247
f 251/70/247 250/32/246 252/31/248
f 251/70/247 252/31/248 67/30/65
f 67/30/65 252/31/248 253/116/249
f 67/30/65 253/116/249 66/59/64
f 50/46/49 49/12/48 107/10/104
f 107/10/104 49/12/48 86/11/83
f 107/10/104 86/11/83 79/53/76
f 79/53/76 86/11/83 85/43/82
f 79/53/76 85/43/82 80/54/77
f 80/54/77 85/43/82 83/63/80
f 80/54/77 83/63/80 95/71/92
f 95/71/92 83/63/80 103/60/100
f 95/71/92 103/60/100 198/113/189
f 204/65/195 254/124/250 77/68/74
f 77/68/74 254/124/250 73/65/71
f 77/68/74 73/65/71 1/1/1
f 1/1/1 73/65/71 71/63/69
f 1/1/1 71/63/69 68/60/66
f 68/60/66 71/63/69 249/71/245
f 68/60/66 249/71/245 255/113/251
f 255/113/251 249/71/245 251/70/247
f 255/113/251 251/70/247 256/114/252
f 256/114/252 251/70/247 67/30/65
f 256/114/252 67/30/65 257/115/253
f 257/115/253 67/30/65 65/58/63
f 24/24/23 52/37/51 22/22/21
f 22/22/21 52/37/51 211/105/202
f 22/22/21 211/105/202 169/103/161
f 169/103/161 211/105/202 209/48/200
f 169/103/161 209/48/200 170/104/162
f 170/104/162 209/48/200 207/96/198
f 170/104/162 207/96/198 160/98/152
f 160/98/152 207/96/198 206/97/197
f 160/98/152 206/97/197 161/99/153
f 258/125/254 173/104/165 259/126/255
f 259/126/255 173/104/165 39/36/38
f 259/126/255 39/36/38 260/127/256
f 260/127/256 39/36/38 38/23/37
f 260/127/256 38/23/37 261/128/257
f 261/128/257 38/23/37 228/24/221
f 261/128/257 228/24/221 262/129/258
f 262/129/258 228/24/221 229/47/222
f 262/129/258 229/47/222 263/130/259
f 263/130/259 229/47/222 230/41/223
f 263/130/259 230/41/223 264/131/260
f 264/131/260 230/41/223 231/42/224
f 55/49/54 54/48/53 158/96/150
f 158/96/150 54/48/53 173/104/165
f 158/96/150 173/104/165 160/98/152
f 160/98/152 173/104/165 258/125/254
f 160/98/152 258/125/254 170/104/162
f 170/104/162 258/125/254 259/126/255
f 170/104/162 259/126/255 168/36/160
f 168/36/160 259/126/255 260/127/256
f 168/36/160 260/127/256 23/23/22
f 23/23/22 260/127/256 261/128/257
f 23/23/22 261/128/257 24/24/23
f 24/24/23 261/128/257 262/129/258
f 24/24/23 262/129/258 53/47/52
f 53/47/52 262/129/258 263/130/259
f 53/47/52 263/130/259 44/41/43
f 44/41/43 263/130/259 264/131/260
f 44/41/43 264/131/260 45/42/44
o editpl_f-0000-1922
v 15.216397 27.335287 -14.868789
v 14.605308 29.462435 -14.832114
v 12.634477 29.109514 -15.008819
v 13.264085 26.972742 -15.031046
v 5.124159 50.066570 -7.238244
v 6.034180 48.972519 -8.417389
v 8.311878 50.676163 -8.146219
v 6.240522 53.011852 -9.776573
v 7.044726 52.052551 -10.837914
v 4.878136 50.194904 -10.646762
v -6.240522 53.011852 -9.776573
v -7.044726 52.052551 -10.837914
v -8.311878 50.676163 -8.146219
v -5.367537 54.481285 -8.358487
v -3.621566 52.524181 -8.770799
v 14.631762 27.203745 -17.121500
v -7.658461 51.728504 -7.423840
v 4.386090 51.507130 -9.806580
v 3.621566 52.524181 -8.770799
v 4.483970 51.244041 -6.363609
v 7.658461 51.728504 -7.423840
v 6.658497 53.143394 -6.219133
v 5.367537 54.481285 -8.358487
v -6.658497 53.143394 -6.219133
v -5.124159 50.066570 -7.238244
v -4.483970 51.244041 -6.363609
v -4.878136 50.194904 -10.646762
v -6.034180 48.972519 -8.417389
v -4.386090 51.507130 -9.806580
v -14.631762 27.203745 -17.121500
v -15.216397 27.335287 -14.868789
v -14.605308 29.462435 -14.832114
v -12.634477 29.109514 -15.008819
v 12.750875 26.988785 -16.909231
v 12.031324 29.131973 -16.894785
v 14.010091 29.350142 -17.187071
v -14.010091 29.350142 -17.187071
v -12.031324 29.131973 -16.894785
v -12.750875 26.988785 -16.909231
v -13.264085 26.972742 -15.031046
vn 0.4570 0.2836 0.8430
vn 0.8995 0.1500 0.4103
vn -0.5185 -0.2985 0.8013
vn -0.6197 -0.0236 0.7845
vn -0.3688 -0.7063 0.6042
vn -0.3316 -0.6711 0.6631
vn 0.8877 0.2121 0.4086
vn 0.2605 0.7500 -0.6079
vn 0.2749 0.7068 -0.6518
vn -0.8015 0.0314 -0.5971
vn -0.2605 0.7500 -0.6079
vn -0.2749 0.7068 -0.6518
vn -0.8877 0.2121 0.4086
vn -0.2752 0.7469 -0.6054
vn 0.8461 -0.0157 -0.5328
vn 0.4386 0.4542 -0.7754
vn -0.8367 0.1421 0.5289
vn -0.8345 -0.0000 -0.5511
vn -0.8461 -0.0157 -0.5328
vn -0.3850 -0.6757 0.6286
vn 0.8367 0.1421 0.5289
vn 0.8381 0.1175 0.5327
vn 0.2752 0.7469 -0.6054
vn -0.8381 0.1175 0.5327
vn 0.3688 -0.7063 0.6042
vn 0.3850 -0.6757 0.6286
vn 0.8015 0.0314 -0.5971
vn 0.3316 -0.6711 0.6631
vn 0.8345 -0.0000 -0.5511
vn -0.4386 0.4542 -0.7754
vn -0.4570 0.2836 0.8430
vn -0.8995 0.1499 0.4103
vn 0.5185 -0.2985 0.8013
vn -0.9455 -0.0394 -0.3231
vn -0.6381 -0.2600 -0.7247
vn 0.5191 0.0944 -0.8495
vn -0.5191 0.0944 -0.8495
vn 0.6381 -0.2600 -0.7247
vn 0.9456 -0.0394 -0.3231
vn 0.6197 -0.0236 0.7845
vt 0.068115 0.133270
vt 0.068115 0.009979
vt 0.009979 0.009979
vt 0.009979 0.133270
vt 0.117462 0.133270
vt 0.117462 0.009979
s 1
usemtl f_hair0120
f 265/132/261 266/133/262 267/134/263
f 267/134/263 268/135/264 265/132/261
f 269/136/265 270/137/266 271/133/267
f 272/135/268 273/134/269 274/133/270
f 275/135/271 276/134/272 277/133/273
f 275/135/271 278/134/274 279/133/275
f 266/133/262 265/132/261 280/136/276
f 281/132/277 275/135/271 277/133/273
f 282/132/278 269/136/265 283/133/279
f 283/133/279 269/136/265 284/137/280
f 285/132/281 272/135/268 286/133/282
f 286/133/282 272/135/268 287/134/283
f 288/133/284 289/136/285 290/137/286
f 291/133/287 289/136/285 292/137/288
f 293/132/289 275/135/271 279/133/275
f 294/136/290 295/132/291 296/133/292
f 296/133/292 295/132/291 297/134/293
f 268/135/264 267/134/263 298/132/294
f 298/132/294 267/134/263 299/133/295
f 298/132/294 299/133/295 280/136/276
f 280/136/276 299/133/295 300/137/296
f 280/136/276 300/137/296 266/133/262
f 270/137/266 269/136/265 274/133/270
f 274/133/270 269/136/265 282/132/278
f 274/133/270 282/132/278 272/135/268
f 272/135/268 282/132/278 283/133/279
f 272/135/268 283/133/279 287/134/283
f 273/134/269 272/135/268 271/133/267
f 271/133/267 272/135/268 285/132/281
f 271/133/267 285/132/281 269/136/265
f 269/136/265 285/132/281 286/133/282
f 269/136/265 286/133/282 284/137/280
f 276/134/272 275/135/271 291/133/287
f 291/133/287 275/135/271 293/132/289
f 291/133/287 293/132/289 289/136/285
f 289/136/285 293/132/289 279/133/275
f 289/136/285 279/133/275 290/137/286
f 278/134/274 275/135/271 288/133/284
f 288/133/284 275/135/271 281/132/277
f 288/133/284 281/132/277 289/136/285
f 289/136/285 281/132/277 277/133/273
f 289/136/285 277/133/273 292/137/288
f 296/133/292 301/137/297 294/136/290
f 294/136/290 301/137/297 302/133/298
f 294/136/290 302/133/298 303/132/299
f 303/132/299 302/133/298 297/134/293
f 303/132/299 297/134/293 304/135/300
f 304/135/300 297/134/293 295/132/291
