mtllib f_hair003.mtl
o editpl_f-0000-1901
v -7.986492 54.770039 -3.489651
v -7.991783 55.690838 -0.580130
v -7.626717 58.228657 -1.938203
v 5.404572 49.983154 -11.040181
v 10.245672 50.778828 -7.137111
v 6.438928 43.547169 -12.479382
v -1.603118 69.127480 8.032852
v -1.018483 69.230148 8.115092
v -0.883567 71.350883 6.173559
v 9.748335 56.922852 -6.382502
v 5.666468 55.986008 -11.341358
v 5.502452 61.106564 -10.014402
v 3.642729 62.421993 9.528732
v 3.880816 64.138474 6.739237
v 0.000000 64.651810 7.588311
v -3.642729 62.421993 9.528732
v -1.253924 59.553715 10.892363
v 0.000000 62.842289 9.599859
v 4.216783 61.023148 8.446275
v 3.486650 63.429420 7.442724
v 0.000000 63.756676 8.261790
v -5.722021 61.164314 8.237341
v -5.317274 62.855122 5.987963
v -6.507708 61.283024 5.595655
v -8.592291 51.369167 -2.841733
v -4.158584 34.339153 -14.061948
v -4.219429 40.980476 -11.949265
v 0.000000 34.133820 -14.602065
v 0.000000 40.768723 -12.376026
v 4.158584 34.339153 -14.061948
v 8.245742 46.595119 -6.615885
v 9.478503 47.644253 -5.530095
v 10.147792 41.936569 -7.907277
v 4.219429 40.980476 -11.949265
v 0.000000 45.520313 -9.143102
v 4.915171 45.520313 -8.545194
v 4.539523 49.736111 -7.200458
v 6.356920 50.413074 -5.992417
v -5.830483 26.793074 -15.153295
v -11.676839 27.457207 -12.209322
v -4.849036 34.868538 -14.325337
v -10.912316 35.166916 -10.959051
v -10.147792 41.936569 -7.907277
v -3.600403 26.356735 -15.153295
v 0.000000 26.116108 -15.693412
v 3.600403 26.356735 -15.153295
v 7.626717 58.228657 -1.938203
v 8.150508 58.985832 2.727254
v 7.991783 55.690838 -0.580130
v 7.785441 55.463043 2.800605
v 7.756342 53.201145 2.583891
v -4.216783 61.023148 8.446275
v 0.000000 60.827435 9.791012
v -11.385844 44.208092 -6.670341
v -10.245672 50.778828 -7.137111
v -9.846215 44.304344 -9.216451
v 5.722021 61.164314 8.237341
v 5.317274 62.855122 5.987963
v -5.317274 62.855122 5.987963
v -6.150578 63.554546 4.632113
v -7.028854 61.129021 4.525423
v -8.150508 62.787746 0.455650
v 5.317274 62.855122 5.987963
v 6.150578 63.554546 4.632113
v 3.880816 64.138474 6.739237
v 4.616240 65.562988 4.008644
v 0.000000 64.651810 7.588311
v 0.000000 66.211075 4.468744
v 8.150508 62.787746 0.455650
v 8.340977 62.065865 -5.577884
v 5.079187 65.976868 -0.236723
v 4.904590 65.235733 -4.963306
v 0.000000 66.987503 -0.017787
v 0.000000 66.069908 -5.723471
v -7.756342 53.201145 2.583891
v -7.785441 55.463043 2.800605
v -7.991783 55.690838 -0.580130
v -8.150508 58.985832 2.727254
v -7.626717 58.228657 -1.938203
v -7.216678 58.989040 5.376719
v 7.028854 61.129021 4.525423
v 8.150508 58.985832 2.727254
v 9.846215 44.256218 -9.721004
v 11.385844 44.208092 -6.670341
v 12.137140 37.951778 -10.923488
v 8.393885 56.775269 0.112243
v 8.870059 52.816143 -2.322731
v -0.650771 66.323364 8.621869
v -1.394131 66.307327 8.404044
v 0.201051 64.241135 7.559416
v -9.748335 56.922852 -6.382502
v -5.666468 55.986008 -11.341358
v -8.340977 62.065865 -5.577884
v -5.502452 61.106564 -10.014402
v 10.340907 48.157593 -4.449860
v 5.666468 55.411713 -10.960164
v 8.928258 56.181721 -6.808150
v 5.002470 50.820538 -9.014185
v -6.438928 43.547169 -12.479382
v -7.264295 37.634148 -14.891017
v -12.137140 37.951778 -10.923488
v -8.854187 29.253891 -17.244862
v -13.023353 29.863482 -14.300888
v -5.002470 50.820538 -9.014185
v -2.372933 47.233582 -6.927064
v -4.745865 47.644253 -5.598999
v 13.023353 29.863482 -14.300888
v 8.854187 29.253891 -17.244862
v 7.991783 55.690838 -0.580130
v 7.568518 52.386223 -3.186252
v 7.626717 58.228657 -1.938203
v -7.118798 51.635464 -5.757922
v -8.928258 56.181721 -6.808150
v -5.666468 55.411713 -10.960164
v 7.118798 51.635464 -5.757922
v 4.745865 47.644253 -5.598999
v 2.372933 47.233582 -6.927064
v -7.626717 58.228657 -1.938203
v -7.568518 52.386223 -3.186252
v -7.991783 55.690838 -0.580130
v -8.245742 46.595119 -6.615885
v -6.356920 50.413074 -5.992417
v -4.915171 45.520313 -8.545194
v -4.539523 49.736111 -7.200458
v 0.000000 48.504097 -9.312028
v 4.174457 59.418961 10.433373
v 6.155869 59.030750 8.476281
v 4.097740 56.172092 10.712324
v 6.055343 56.300430 8.928603
v 7.338367 56.412724 5.508971
v 7.216678 58.989040 5.376719
v 6.507708 61.283024 5.595655
v -7.338367 56.412724 5.508971
v -6.055343 56.300430 8.928603
v -6.155869 59.030750 8.476281
v -4.097740 56.172092 10.712324
v -4.174457 59.418961 10.433373
v -1.441748 56.030926 11.161310
v 5.317274 62.855122 5.987963
v 6.327820 60.692684 5.807924
v 7.028854 61.129021 4.525423
v 7.245778 58.000862 5.045537
v 7.674334 57.076855 3.617449
v -10.340907 48.157593 -4.449860
v -8.870059 52.816143 -2.322731
v -8.393885 56.775269 0.112243
v -8.150508 58.985832 2.727254
v -3.486650 63.429420 7.442724
v -5.317274 62.855122 5.987963
v -6.327820 60.692684 5.807924
v -7.028854 61.129021 4.525423
v -7.245778 58.000862 5.045537
v -7.674334 57.076855 3.617449
v -5.404572 49.983154 -11.040181
v 7.264295 37.634148 -14.891017
v 0.000000 64.058258 -9.390935
v -4.904590 65.235733 -4.963306
v -5.079187 65.976868 -0.236723
v -4.616240 65.562988 4.008644
v -3.880816 64.138474 6.739237
v 0.000000 47.249626 -7.935061
v 0.000000 49.588524 -10.388927
v 0.000000 52.437553 -11.661427
v 0.000000 55.251293 -12.269337
v 0.000000 45.539566 -8.714120
v 4.756447 46.078571 -5.860165
v 5.846356 48.642056 -2.102683
v -7.470637 52.168053 -5.041099
v -9.478503 47.644253 -5.530095
v 7.626717 58.228657 -1.938203
v 7.991783 55.690838 -0.580130
v 7.986492 54.770039 -3.489651
v 8.592291 51.369167 -2.841733
v 7.470637 52.168053 -5.041099
v 10.912316 35.166916 -10.959051
v 4.849036 34.868538 -14.325337
v 11.676839 27.457207 -12.209322
v 5.830483 26.793074 -15.153295
v 0.000000 64.058258 -9.390935
v 0.000000 60.400723 -11.885921
v 0.000000 55.251293 -13.129524
v 0.000000 49.242020 -12.989492
v 0.000000 42.635994 -14.770991
v 6.071216 37.634148 -14.891017
v 0.425911 37.492981 -16.337997
v 6.822512 28.480675 -17.244862
v 1.235406 27.726707 -18.438454
v -3.880816 64.138474 6.739237
v 1.253924 59.553715 10.892363
v 1.441748 56.030926 11.161310
v -1.235406 27.726707 -18.438454
v -6.822512 28.480675 -17.244862
v -0.425911 37.492981 -16.337997
v -6.071216 37.634148 -14.891017
v -4.756447 46.078571 -5.860165
v -5.846356 48.642056 -2.102683
vn -0.9777 0.1183 -0.1734
vn -0.9889 0.1412 -0.0471
vn -0.9922 0.1181 -0.0394
vn 0.4398 0.0707 -0.8953
vn 0.9017 0.1646 -0.3998
vn 0.4475 0.3063 -0.8402
vn -0.2283 0.3150 0.9212
vn -0.1971 0.4258 0.8831
vn -0.2119 0.6671 0.7142
vn 0.9723 0.1490 -0.1803
vn 0.5178 0.1177 -0.8473
vn 0.5103 0.4788 -0.7144
vn 0.3219 0.5731 0.7537
vn 0.5356 0.6774 0.5041
vn -0.0000 0.8404 0.5420
vn -0.3219 0.5731 0.7536
vn -0.1256 0.2590 0.9577
vn -0.0000 0.5798 0.8148
vn 0.4936 0.4230 0.7599
vn 0.4476 0.4555 0.7696
vn -0.0000 0.4567 0.8896
vn -0.7921 0.4156 0.4470
vn -0.7497 0.4183 0.5129
vn -0.8735 0.4014 0.2754
vn -0.9019 0.2117 -0.3765
vn -0.1095 0.2189 -0.9696
vn -0.2681 0.4652 -0.8437
vn -0.0000 0.2203 -0.9754
vn -0.0000 0.4409 -0.8976
vn 0.1095 0.2189 -0.9696
vn 0.3945 0.3629 -0.8442
vn 0.5175 0.3764 -0.7684
vn 0.4161 0.4161 -0.8086
vn 0.2681 0.4652 -0.8437
vn -0.0000 0.3768 -0.9263
vn 0.3144 0.4087 -0.8568
vn 0.3387 0.1891 -0.9217
vn 0.4964 0.3467 -0.7959
vn -0.4332 0.1418 -0.8901
vn -0.4474 0.1648 -0.8790
vn -0.4480 0.2279 -0.8645
vn -0.4637 0.3223 -0.8253
vn -0.4161 0.4161 -0.8086
vn -0.1259 0.1260 -0.9840
vn -0.0000 0.1260 -0.9920
vn 0.1260 0.1260 -0.9840
vn 0.9999 0.0079 -0.0079
vn 0.9803 0.0235 0.1961
vn 0.9989 -0.0000 -0.0472
vn 0.9875 -0.0705 0.1411
vn 0.9984 -0.0157 0.0551
vn -0.4936 0.4230 0.7599
vn -0.0000 0.4628 0.8865
vn -0.9256 0.2432 -0.2902
vn -0.9039 0.1493 -0.4009
vn -0.7382 0.2827 -0.6125
vn 0.7921 0.4156 0.4470
vn 0.7497 0.4183 0.5129
vn -0.7497 0.4182 0.5129
vn -0.7547 0.4560 0.4717
vn -0.8578 0.2204 0.4643
vn -0.9114 0.3771 0.1650
vn 0.7497 0.4182 0.5129
vn 0.7547 0.4560 0.4717
vn 0.5357 0.6776 0.5039
vn 0.4552 0.8240 0.3375
vn -0.0000 0.8404 0.5419
vn -0.0000 0.9701 0.2425
vn 0.9114 0.3771 0.1650
vn 0.7792 0.5667 -0.2676
vn 0.4566 0.8896 0.0079
vn 0.3688 0.8630 -0.3452
vn -0.0000 0.9989 -0.0472
vn -0.0000 0.9471 -0.3209
vn -0.9984 -0.0157 0.0551
vn -0.9875 -0.0705 0.1411
vn -0.9989 -0.0000 -0.0472
vn -0.9803 0.0235 0.1961
vn -0.9999 0.0079 -0.0079
vn -0.9346 0.1806 0.3063
vn 0.8578 0.2204 0.4643
vn 0.7310 0.2830 -0.6209
vn 0.9392 0.2348 -0.2505
vn 0.6143 0.3623 -0.7010
vn 0.9875 0.0157 0.1568
vn 0.9735 0.0864 0.2120
vn -0.2361 -0.0866 0.9679
vn -0.2664 -0.2116 0.9403
vn -0.2277 -0.5182 0.8244
vn -0.9723 0.1490 -0.1803
vn -0.5178 0.1177 -0.8473
vn -0.7793 0.5667 -0.2676
vn -0.5103 0.4788 -0.7144
vn 0.9678 0.1966 0.1573
vn 0.4564 -0.3305 -0.8261
vn 0.9276 -0.3223 -0.1887
vn 0.5662 -0.5033 -0.6527
vn -0.4733 0.2998 -0.8283
vn -0.5753 0.3468 -0.7408
vn -0.6141 0.3779 -0.6929
vn -0.5437 0.3467 -0.7643
vn -0.4969 0.3786 -0.7809
vn -0.5662 -0.5033 -0.6527
vn -0.4565 -0.2361 -0.8578
vn -0.7906 -0.3287 -0.5166
vn 0.4969 0.3786 -0.7809
vn 0.5437 0.3467 -0.7643
vn 0.9771 -0.2128 -0.0000
vn -0.8709 -0.4472 -0.2040
vn -0.9276 -0.3223 -0.1887
vn -0.4564 -0.3305 -0.8261
vn 0.8709 -0.4472 -0.2040
vn 0.7906 -0.3287 -0.5166
vn 0.4565 -0.2361 -0.8578
vn -0.9771 -0.2128 -0.0000
vn -0.3945 0.3629 -0.8442
vn -0.4964 0.3467 -0.7958
vn -0.3144 0.4087 -0.8568
vn -0.3387 0.1891 -0.9217
vn -0.0000 -0.0550 -0.9985
vn 0.4399 0.1807 0.8797
vn 0.8389 0.1098 0.5331
vn 0.5350 0.0708 0.8419
vn 0.8267 0.0630 0.5591
vn 0.9407 0.0392 0.3371
vn 0.9346 0.1806 0.3063
vn 0.8735 0.4014 0.2754
vn -0.9407 0.0392 0.3371
vn -0.8267 0.0630 0.5591
vn -0.8389 0.1098 0.5331
vn -0.5350 0.0708 0.8419
vn -0.4399 0.1807 0.8797
vn -0.1575 0.0787 0.9844
vn 0.8001 0.2588 0.5412
vn 0.9064 0.0630 0.4177
vn 0.9434 -0.0786 0.3223
vn -0.9678 0.1966 0.1573
vn -0.9735 0.0864 0.2120
vn -0.9875 0.0157 0.1568
vn -0.4476 0.4555 0.7696
vn -0.8001 0.2588 0.5412
vn -0.9064 0.0630 0.4177
vn -0.9434 -0.0786 0.3223
vn -0.4398 0.0707 -0.8953
vn 0.5753 0.3468 -0.7408
vn -0.0000 0.7598 -0.6501
vn -0.3688 0.8630 -0.3452
vn -0.4566 0.8896 0.0079
vn -0.4552 0.8240 0.3375
vn -0.5356 0.6774 0.5041
vn -0.0000 -0.1961 -0.9806
vn -0.0000 -0.6199 -0.7847
vn -0.0000 -0.3468 -0.9379
vn -0.0000 -0.2112 -0.9774
vn -0.0000 0.3304 -0.9438
vn 0.6752 0.1492 -0.7224
vn 0.9415 -0.2982 -0.1569
vn -0.8185 0.2282 -0.5273
vn -0.5175 0.3764 -0.7684
vn 0.9922 0.1181 -0.0394
vn 0.9889 0.1412 -0.0471
vn 0.9777 0.1183 -0.1734
vn 0.9019 0.2118 -0.3764
vn 0.8185 0.2282 -0.5273
vn 0.4637 0.3223 -0.8253
vn 0.4480 0.2279 -0.8645
vn 0.4474 0.1648 -0.8790
vn 0.4332 0.1418 -0.8901
vn -0.0000 0.7598 -0.6502
vn -0.0000 0.3537 -0.9354
vn -0.0000 0.0472 -0.9989
vn -0.0000 0.1644 -0.9864
vn -0.0000 0.3068 -0.9518
vn 0.2444 0.2995 -0.9223
vn 0.2120 0.2591 -0.9423
vn 0.2042 0.2356 -0.9502
vn 0.1731 0.2203 -0.9599
vn 0.1256 0.2590 0.9577
vn 0.1575 0.0787 0.9844
vn -0.1731 0.2203 -0.9599
vn -0.2042 0.2356 -0.9502
vn -0.2120 0.2591 -0.9423
vn -0.2444 0.2995 -0.9223
vn -0.6752 0.1492 -0.7224
vn -0.9412 -0.2984 -0.1582
vt 0.915833 0.625702
vt 0.987946 0.616180
vt 0.933380 0.617615
vt 0.128876 0.644501
vt 0.276611 0.644501
vt 0.179749 0.785126
vt 0.511719 0.191376
vt 0.511719 0.121094
vt 0.378876 0.152344
vt 0.250214 0.527344
vt 0.128876 0.527344
vt 0.128876 0.402344
vt 0.746094 0.339844
vt 0.661560 0.441284
vt 0.660034 0.235138
vt 0.823395 0.206726
vt 0.738251 0.206238
vt 0.554108 0.857025
vt 0.439606 0.897797
vt 0.437286 0.986115
vt 0.757080 0.456116
vt 0.661163 0.542053
vt 0.685364 0.571625
vt 0.987946 0.649994
vt 0.773651 0.870880
vt 0.787781 0.775818
vt 0.602509 0.870880
vt 0.602509 0.775818
vt 0.938782 0.699005
vt 0.987946 0.683777
vt 0.987946 0.775818
vt 0.602509 0.714600
vt 0.819458 0.714600
vt 0.807251 0.649963
vt 0.863159 0.649963
vt 0.799866 0.986969
vt 0.987946 0.986969
vt 0.799866 0.870880
vt 0.987946 0.870880
vt 0.773651 0.986969
vt 0.602509 0.986969
vt 0.449951 0.503418
vt 0.444031 0.602814
vt 0.480743 0.481567
vt 0.579773 0.522095
vt 0.618591 0.459473
vt 0.580261 0.986115
vt 0.344269 0.783356
vt 0.300751 0.785126
vt 0.572540 0.351532
vt 0.508606 0.350372
vt 0.502075 0.410950
vt 0.385132 0.386932
vt 0.613922 0.300751
vt 0.487061 0.300751
vt 0.661194 0.199219
vt 0.497803 0.199219
vt 0.256775 0.395752
vt 0.370819 0.300751
vt 0.222626 0.300751
vt 0.372803 0.199219
vt 0.214844 0.199219
vt 0.792145 0.590118
vt 0.458099 0.455872
vt 0.364288 0.886719
vt 0.392395 0.507904
vt 0.357025 0.609039
vt 0.683594 0.121094
vt 0.683594 0.191376
vt 0.824341 0.160126
vt 0.343781 0.702454
vt 0.119141 0.011932
vt 0.249176 0.011932
vt 0.115753 0.070557
vt 0.168335 0.886719
vt 0.168335 0.987183
vt 0.393768 0.987183
vt 0.086975 0.146851
vt 0.197205 0.152008
vt 0.441925 0.080566
vt 0.371033 0.112000
vt 0.438507 0.011932
vt 0.241150 0.097687
vt 0.602509 0.649963
vt 0.824219 0.324219
vt 0.824219 0.471313
vt 0.987122 0.309082
vt 0.987122 0.465332
vt 0.987122 0.590118
vt 0.987122 0.206726
vt 0.443817 0.809479
vt 0.572876 0.746613
vt 0.456238 0.707886
vt 0.581238 0.641602
vt 0.566406 0.584930
vt 0.089081 0.245514
vt 0.012573 0.139984
vt 0.012573 0.092804
vt 0.012573 0.045837
vt 0.012573 0.011932
vt 0.012573 0.190308
vt 0.180969 0.190308
vt 0.371033 0.190308
vt 0.898254 0.633789
vt 0.089844 0.246094
vt 0.011017 0.402344
vt 0.011017 0.527344
vt 0.011017 0.644501
vt 0.011017 0.785126
vt 0.011017 0.886719
vt 0.011017 0.987183
s 1
usemtl f_hair0107
f 1/1/1 2/2/2 3/3/3
f 4/4/4 5/5/5 6/6/6
f 7/7/7 8/8/8 9/9/9
f 10/10/10 11/11/11 12/12/12
f 13/13/13 14/14/14 15/15/15
f 16/13/16 17/16/17 18/17/18
f 19/18/19 20/19/20 21/20/21
f 22/21/22 23/22/23 24/23/24
f 2/2/2 1/1/1 25/24/25
f 26/25/26 27/26/27 28/27/28
f 28/27/28 27/26/27 29/28/29
f 28/27/28 29/28/29 30/25/30
f 31/29/31 32/30/32 33/31/33
f 34/26/34 35/32/35 36/33/36
f 36/33/36 35/32/35 37/34/37
f 36/33/36 37/34/37 38/35/38
f 39/36/39 40/37/40 41/38/41
f 41/38/41 40/37/40 42/39/42
f 41/38/41 42/39/42 27/26/27
f 27/26/27 42/39/42 43/31/43
f 44/40/44 26/25/26 45/41/45
f 45/41/45 26/25/26 28/27/28
f 45/41/45 28/27/28 46/40/46
f 46/40/46 28/27/28 30/25/30
f 47/42/47 48/43/48 49/44/49
f 49/44/49 48/43/48 50/45/50
f 49/44/49 50/45/50 51/46/51
f 52/18/52 53/47/53 21/20/21
f 21/20/21 53/47/53 19/18/19
f 54/48/54 55/5/55 56/49/56
f 57/21/57 58/22/58 14/14/14
f 59/50/59 60/51/60 61/52/61
f 61/52/61 60/51/60 62/53/62
f 5/5/5 4/4/4 11/11/11
f 63/50/63 64/51/64 65/54/65
f 65/54/65 64/51/64 66/55/66
f 65/54/65 66/55/66 67/56/67
f 67/56/67 66/55/66 68/57/68
f 69/53/69 70/58/70 71/59/71
f 71/59/71 70/58/70 72/60/72
f 71/59/71 72/60/72 73/61/73
f 73/61/73 72/60/72 74/62/74
f 75/46/75 76/45/76 77/44/77
f 77/44/77 76/45/76 78/43/78
f 77/44/77 78/43/78 79/42/79
f 22/21/22 24/23/24 80/63/80
f 81/52/81 82/64/48 69/53/69
f 83/49/82 84/48/83 85/65/84
f 10/10/10 86/66/85 87/67/86
f 8/8/8 7/7/7 88/68/87
f 88/68/87 7/7/7 89/69/88
f 88/68/87 89/69/88 90/70/89
f 55/5/55 91/10/90 92/11/91
f 62/53/62 93/58/92 91/10/90
f 91/10/90 93/58/92 94/12/93
f 91/10/90 94/12/93 92/11/91
f 11/11/11 10/10/10 5/5/5
f 5/5/5 10/10/10 87/67/86
f 5/5/5 87/67/86 95/71/94
f 96/72/95 97/73/96 98/74/97
f 99/6/98 100/75/99 101/65/100
f 101/65/100 100/75/99 102/76/101
f 101/65/100 102/76/101 103/77/102
f 104/74/103 105/78/104 106/79/105
f 107/77/106 108/76/107 85/65/84
f 109/80/49 110/81/108 111/82/47
f 106/79/105 112/83/109 104/74/103
f 104/74/103 112/83/109 113/73/110
f 104/74/103 113/73/110 114/72/111
f 97/73/96 115/83/112 98/74/97
f 98/74/97 115/83/112 116/79/113
f 98/74/97 116/79/113 117/78/114
f 118/82/79 119/81/115 120/80/77
f 121/29/116 122/35/117 123/33/118
f 123/33/118 122/35/117 124/34/119
f 123/33/118 124/34/119 35/32/35
f 35/32/35 124/34/119 125/84/120
f 35/32/35 125/84/120 37/34/37
f 14/14/14 13/13/13 57/21/57
f 57/21/57 13/13/13 126/85/121
f 57/21/57 126/85/121 127/86/122
f 127/86/122 126/85/121 128/87/123
f 127/86/122 128/87/123 129/88/124
f 129/88/124 130/89/125 127/86/122
f 127/86/122 130/89/125 131/63/126
f 127/86/122 131/63/126 57/21/57
f 57/21/57 131/63/126 132/23/127
f 57/21/57 132/23/127 58/22/58
f 133/89/128 134/88/129 135/86/130
f 135/86/130 134/88/129 136/87/131
f 135/86/130 136/87/131 137/85/132
f 137/85/132 136/87/131 138/90/133
f 137/85/132 138/90/133 17/16/17
f 17/16/17 16/13/16 137/85/132
f 137/85/132 16/13/16 22/21/22
f 137/85/132 22/21/22 135/86/130
f 135/86/130 22/21/22 80/63/80
f 135/86/130 80/63/80 133/89/128
f 20/19/20 19/18/19 139/91/63
f 139/91/63 19/18/19 140/92/134
f 139/91/63 140/92/134 141/93/81
f 141/93/81 140/92/134 142/94/135
f 141/93/81 142/94/135 48/43/48
f 48/43/48 142/94/135 143/95/136
f 48/43/48 143/95/136 50/45/50
f 54/48/54 144/71/137 55/5/55
f 55/5/55 144/71/137 145/67/138
f 55/5/55 145/67/138 91/10/90
f 91/10/90 145/67/138 146/66/139
f 91/10/90 146/66/139 62/53/62
f 62/53/62 146/66/139 147/64/78
f 62/53/62 147/64/78 61/52/61
f 21/20/21 148/19/140 52/18/52
f 52/18/52 148/19/140 149/91/59
f 52/18/52 149/91/59 150/92/141
f 150/92/141 149/91/59 151/93/61
f 150/92/141 151/93/61 152/94/142
f 152/94/142 151/93/61 78/43/78
f 152/94/142 78/43/78 153/95/143
f 153/95/143 78/43/78 76/45/76
f 92/11/91 154/4/144 55/5/55
f 55/5/55 154/4/144 99/6/98
f 55/5/55 99/6/98 56/49/56
f 56/49/56 99/6/98 101/65/100
f 56/49/56 101/65/100 54/48/54
f 73/61/73 68/57/68 71/59/71
f 71/59/71 68/57/68 66/55/66
f 71/59/71 66/55/66 69/53/69
f 69/53/69 66/55/66 64/51/64
f 69/53/69 64/51/64 81/52/81
f 81/52/81 64/51/64 63/50/63
f 95/71/94 84/48/83 5/5/5
f 5/5/5 84/48/83 83/49/82
f 5/5/5 83/49/82 6/6/6
f 6/6/6 83/49/82 85/65/84
f 6/6/6 85/65/84 155/75/145
f 155/75/145 85/65/84 108/76/107
f 156/96/146 94/12/93 157/60/147
f 157/60/147 94/12/93 93/58/92
f 157/60/147 93/58/92 158/59/148
f 158/59/148 93/58/92 62/53/62
f 158/59/148 62/53/62 159/55/149
f 159/55/149 62/53/62 60/51/60
f 159/55/149 60/51/60 160/54/150
f 160/54/150 60/51/60 59/50/59
f 161/97/151 105/78/104 162/98/152
f 162/98/152 105/78/104 104/74/103
f 162/98/152 104/74/103 163/99/153
f 163/99/153 104/74/103 114/72/111
f 163/99/153 114/72/111 164/100/154
f 165/101/155 117/78/114 166/102/156
f 166/102/156 117/78/114 116/79/113
f 166/102/156 116/79/113 167/103/157
f 167/103/157 116/79/113 115/83/112
f 167/103/157 115/83/112 110/81/108
f 110/81/108 115/83/112 97/73/96
f 110/81/108 97/73/96 111/82/47
f 1/1/1 168/104/158 25/24/25
f 25/24/25 168/104/158 122/35/117
f 25/24/25 122/35/117 169/30/159
f 169/30/159 122/35/117 121/29/116
f 169/30/159 121/29/116 43/31/43
f 43/31/43 121/29/116 123/33/118
f 43/31/43 123/33/118 27/26/27
f 27/26/27 123/33/118 35/32/35
f 27/26/27 35/32/35 29/28/29
f 29/28/29 35/32/35 34/26/34
f 29/28/29 34/26/34 30/25/30
f 170/3/160 171/2/161 172/1/162
f 172/1/162 171/2/161 173/24/163
f 172/1/162 173/24/163 174/104/164
f 174/104/164 173/24/163 32/30/32
f 174/104/164 32/30/32 38/35/38
f 38/35/38 32/30/32 31/29/31
f 38/35/38 31/29/31 36/33/36
f 36/33/36 31/29/31 33/31/33
f 36/33/36 33/31/33 34/26/34
f 34/26/34 33/31/33 175/39/165
f 34/26/34 175/39/165 176/38/166
f 176/38/166 175/39/165 177/37/167
f 176/38/166 177/37/167 178/36/168
f 179/105/169 12/12/12 180/106/170
f 180/106/170 12/12/12 11/11/11
f 180/106/170 11/11/11 181/107/171
f 181/107/171 11/11/11 4/4/4
f 181/107/171 4/4/4 182/108/172
f 182/108/172 4/4/4 6/6/6
f 182/108/172 6/6/6 183/109/173
f 183/109/173 6/6/6 184/75/174
f 183/109/173 184/75/174 185/110/175
f 185/110/175 184/75/174 186/76/176
f 185/110/175 186/76/176 187/111/177
f 23/22/23 22/21/22 188/14/150
f 188/14/150 22/21/22 16/13/16
f 188/14/150 16/13/16 15/15/15
f 15/15/15 16/13/16 18/17/18
f 15/15/15 18/17/18 13/13/13
f 13/13/13 18/17/18 189/16/178
f 13/13/13 189/16/178 126/85/121
f 126/85/121 189/16/178 190/90/179
f 126/85/121 190/90/179 128/87/123
f 160/54/150 67/56/67 159/55/149
f 159/55/149 67/56/67 68/57/68
f 159/55/149 68/57/68 158/59/148
f 158/59/148 68/57/68 73/61/73
f 158/59/148 73/61/73 157/60/147
f 157/60/147 73/61/73 74/62/74
f 157/60/147 74/62/74 156/96/146
f 156/96/146 74/62/74 72/60/72
f 156/96/146 72/60/72 12/12/12
f 12/12/12 72/60/72 70/58/70
f 12/12/12 70/58/70 10/10/10
f 10/10/10 70/58/70 69/53/69
f 10/10/10 69/53/69 86/66/85
f 86/66/85 69/53/69 82/64/48
f 191/111/180 192/76/181 193/110/182
f 193/110/182 192/76/181 194/75/183
f 193/110/182 194/75/183 183/109/173
f 183/109/173 194/75/183 99/6/98
f 183/109/173 99/6/98 182/108/172
f 182/108/172 99/6/98 154/4/144
f 182/108/172 154/4/144 181/107/171
f 181/107/171 154/4/144 92/11/91
f 181/107/171 92/11/91 180/106/170
f 180/106/170 92/11/91 94/12/93
f 180/106/170 94/12/93 179/105/169
f 164/100/154 96/72/95 163/99/153
f 163/99/153 96/72/95 98/74/97
f 163/99/153 98/74/97 162/98/152
f 162/98/152 98/74/97 117/78/114
f 162/98/152 117/78/114 161/97/151
f 161/97/151 117/78/114 165/101/155
f 161/97/151 165/101/155 105/78/104
f 105/78/104 165/101/155 195/102/184
f 105/78/104 195/102/184 106/79/105
f 106/79/105 195/102/184 196/103/185
f 106/79/105 196/103/185 112/83/109
f 112/83/109 196/103/185 119/81/115
f 112/83/109 119/81/115 113/73/110
f 113/73/110 119/81/115 118/82/79
o editpl_f-0000-1902
v -7.589681 57.362400 4.303153
v -8.735143 56.476891 2.661686
v -7.512964 56.242680 4.507642
v -8.150508 58.222240 2.969530
v -9.018202 58.000862 -0.431209
v -8.515574 56.557098 0.831288
v -8.184898 55.312252 1.525883
v -7.597617 54.744370 3.510759
v -7.674334 55.716507 3.650789
v 8.150508 58.222240 2.969530
v 7.589681 57.362400 4.303153
v 8.735143 56.476891 2.661686
v 7.512964 56.242680 4.507642
v 8.184898 55.312252 1.525883
v 8.515574 56.557098 0.831288
v 9.018202 58.000862 -0.431209
v 7.674334 55.716507 3.650789
v 7.597617 54.744370 3.510759
vn -0.8451 0.1185 0.5213
vn -0.9333 -0.1882 0.3059
vn -0.8244 -0.2277 0.5182
vn -0.9049 0.2361 0.3541
vn -0.9958 -0.0784 0.0471
vn -0.9206 -0.3698 -0.1259
vn -0.9095 -0.4156 -0.0079
vn -0.8412 -0.3538 0.4088
vn -0.7603 -0.3214 0.5644
vn 0.9049 0.2361 0.3541
vn 0.8451 0.1185 0.5213
vn 0.9333 -0.1882 0.3059
vn 0.8244 -0.2277 0.5182
vn 0.9095 -0.4156 -0.0079
vn 0.9205 -0.3698 -0.1259
vn 0.9958 -0.0784 0.0471
vn 0.7603 -0.3214 0.5644
vn 0.8412 -0.3538 0.4088
vt 0.836517 0.106781
vt 0.907684 0.112610
vt 0.846558 0.149139
vt 0.870117 0.056183
vt 0.987732 0.012207
vt 0.984344 0.092926
vt 0.974792 0.146362
vt 0.914795 0.184509
vt 0.884674 0.154449
s 1
usemtl f_hair0107
f 197/112/186 198/113/187 199/114/188
f 198/113/187 197/112/186 200/115/189
f 200/115/189 201/116/190 198/113/187
f 198/113/187 201/116/190 202/117/191
f 198/113/187 202/117/191 203/118/192
f 203/118/192 204/119/193 198/113/187
f 198/113/187 204/119/193 205/120/194
f 198/113/187 205/120/194 199/114/188
f 206/115/195 207/112/196 208/113/197
f 208/113/197 207/112/196 209/114/198
f 210/118/199 211/117/200 208/113/197
f 208/113/197 211/117/200 212/116/201
f 208/113/197 212/116/201 206/115/195
f 209/114/198 213/120/202 208/113/197
f 208/113/197 213/120/202 214/119/203
f 208/113/197 214/119/203 210/118/199
