mtllib f_hair023.mtl
o editpl_f-0000-1891
v 4.647985 64.019760 3.185132
v 4.354345 63.464714 6.945949
v 6.261685 63.044418 2.447193
v 10.131920 55.668381 -4.103118
v 9.957323 58.292824 -3.969756
v 9.266871 55.822384 -1.421424
v 9.851506 59.168709 -1.262501
v 9.139891 59.845676 -4.629900
v 9.457340 59.948341 -3.402966
v 8.880641 56.079052 -6.010199
v 8.867414 51.606586 -7.860601
v 6.079152 56.852268 -10.482283
v -5.092414 65.043228 -6.692570
v -5.304047 65.604691 -3.646353
v -0.042327 66.868790 -3.616346
v -0.042327 55.684422 -14.744319
v -0.042327 48.038883 -22.928320
v -3.203591 49.379982 -16.769203
v 4.936335 65.421814 2.493870
v 4.647985 64.019760 3.185132
v 6.261685 63.044418 2.447193
v 8.711335 60.208221 -9.116431
v 8.587000 61.116188 -4.028658
v 9.139891 59.845676 -4.629900
v 8.859478 61.215649 -2.815061
v 8.587000 61.116188 -4.028658
v 8.036755 62.389912 -3.427416
v -4.404607 54.439575 10.754555
v -3.335862 57.599819 11.328012
v -6.692887 56.611641 8.292910
v 4.243237 61.161106 9.373143
v 3.335862 57.599819 11.328012
v 6.727277 56.611641 8.292910
v 4.404607 54.439575 10.754555
v -7.859513 59.823215 4.659898
v -7.851576 56.133595 5.234467
v -8.049982 54.285576 5.810148
v -6.116188 50.342491 8.619647
v 8.348913 62.762081 0.642357
v 7.629362 61.629528 1.710367
v 9.288034 60.516224 -0.619028
v 8.401822 59.537670 0.423420
v 0.000000 47.714836 -8.321812
v -4.756447 46.078571 -5.860165
v -4.745865 47.644253 -5.598999
v -5.846356 47.833549 -2.119353
v -6.158514 50.323242 -2.378299
v 0.000000 58.142033 12.469371
v 0.000000 61.366440 11.013499
v -4.243237 61.161106 9.373143
v -8.539383 60.727978 -6.732579
v -6.383374 56.069427 -10.939048
v -10.192764 55.620255 -6.744803
v -9.957323 58.292824 -3.969756
v -9.139891 59.845676 -4.629900
v -12.317028 59.499172 -7.626106
v -0.042327 65.386528 4.290927
v 11.872599 58.450035 -8.579647
v -11.872599 58.450035 -8.579647
v -10.131920 55.668381 -4.103118
v -9.266871 55.822384 -1.421424
v -8.026173 54.940083 -0.172264
v -8.375368 56.974186 2.587225
v -9.139891 59.845676 -4.629900
v -6.407183 49.636650 -5.999085
v -8.542028 52.421513 -7.527195
v -4.814646 52.261093 -11.175766
v -10.192764 55.620255 -6.744803
v -14.779905 48.164009 -12.282673
v -8.258970 52.610806 -2.786165
v 14.695252 48.164009 -12.282673
v 10.108111 55.620255 -6.744803
v 8.258970 52.610806 -2.786165
v 8.026173 54.940083 -0.172264
v 12.317028 59.499172 -7.626106
v 13.499526 54.593578 -12.140420
v 8.375368 56.974186 2.587225
v 6.407183 49.636650 -5.999085
v 10.600157 43.383541 -10.006622
v -0.042327 50.602367 -14.926580
v 5.386054 50.239822 -12.274894
v 3.118938 43.556793 -16.321329
v 5.481289 46.072155 -12.052623
v 6.116188 50.342491 8.619647
v 8.049982 54.285576 5.810148
v 7.851576 56.133595 5.234467
v -0.042327 65.604691 -8.254021
v 5.015697 65.043228 -6.692570
v 4.819937 62.813416 -10.554521
v 7.203451 62.797375 -7.771694
v 6.732568 60.545097 7.104872
v 7.859513 59.823215 4.659898
v 7.629362 61.629528 1.710367
v 8.862123 58.286407 -0.348969
v 8.036755 62.389912 -3.427416
v 5.224684 65.604691 -3.646353
v 4.743220 65.460320 -1.090242
v 4.727347 52.261093 -11.175766
v 8.454730 52.421513 -7.527195
v 6.407183 49.636650 -5.999085
v 8.258970 52.610806 -2.786165
v -14.779905 48.164009 -12.282673
v -8.917677 50.117905 -13.125078
v -6.182323 46.392990 6.378050
v -8.049982 54.657745 6.202455
v -9.560511 53.704861 3.644121
v -9.266871 55.822384 -1.421424
v -8.512929 52.527390 0.045561
v -7.158479 47.159790 5.586767
v -8.862123 58.286407 -0.348969
v -9.851506 59.168709 -1.262501
v -9.457340 59.948341 -3.402966
v -7.277522 62.797375 -7.771694
v -8.862123 58.286407 -0.348969
v -9.208672 58.697079 2.362731
v -8.258970 52.610806 -2.786165
v -8.952067 51.606586 -7.860601
v -5.102996 61.645569 -10.225560
v -0.042327 61.645569 -12.067072
v 5.015697 61.645569 -10.225560
v 6.296075 56.069427 -10.939048
v 8.452084 60.727978 -6.732579
v 10.108111 55.620255 -6.744803
v 7.158479 47.159790 5.586767
v 8.512929 52.527390 0.045561
v 9.560511 53.704861 3.644121
v 9.266871 55.822384 -1.421424
v 9.208672 58.697079 2.362731
v 8.862123 58.286407 -0.348969
v 8.401822 59.537670 0.423420
v 8.049982 54.657745 6.202455
v 6.182323 46.392990 6.378050
v -0.042327 40.820057 -21.192387
v -3.203591 43.556793 -16.321329
v -5.470708 50.239822 -12.274894
v -5.565942 46.072155 -12.052623
v -8.952067 51.606586 -7.860601
v -10.684810 43.383541 -10.006622
v -6.407183 49.636650 -5.999085
v 6.158514 50.323242 -2.378299
v 5.846356 47.833549 -2.119353
v 4.745865 47.644253 -5.598999
v 4.756447 46.078571 -5.860165
v 0.000000 45.539566 -8.714120
v 3.505168 54.150822 -18.278421
v -0.042327 53.570107 -22.469332
v -0.042327 60.615685 -13.550728
v -3.592467 54.150822 -18.278421
v -5.081832 60.734394 -12.125973
v -8.380658 54.933666 -12.417147
v -8.798633 60.208221 -9.116431
v -13.581534 54.593578 -12.140420
v -0.042327 64.032593 8.525181
v -4.436352 63.464714 6.945949
v -4.729993 64.019760 3.185132
v -6.343693 63.044418 2.447193
v -0.042327 54.612827 -12.961710
v 8.867414 51.606586 -7.860601
v 8.258970 52.610806 -2.786165
v -8.626681 61.116188 -4.028658
v -8.116117 62.389912 -3.427416
v -0.298931 54.946499 12.313784
v -6.658497 60.545097 7.104872
v 3.118938 49.379982 -16.769203
v 8.833023 50.117905 -13.125078
v 14.695252 48.164009 -12.282673
v -4.909881 62.813416 -10.554521
v -0.042327 62.900040 -11.782566
v 4.997179 60.734394 -12.125973
v 8.296005 54.933666 -12.417147
v -0.042327 65.386528 4.290927
v -0.042327 66.717995 3.866391
v -4.729993 64.019760 3.185132
v -5.015697 65.421814 2.493870
v -6.343693 63.044418 2.447193
v -8.430921 62.762081 0.642357
v -7.711370 61.629528 1.710367
v -9.319779 60.516224 -0.619028
v -8.430921 59.537670 0.423420
v -8.626681 61.116188 -4.028658
v -8.885932 61.215649 -2.815061
v -8.116117 62.389912 -3.427416
v -7.933584 63.333172 -1.645918
v -4.822582 65.460320 -1.090242
v -5.063314 66.101990 0.244493
v -0.042327 66.608910 -0.110029
v -0.042327 67.452713 1.332507
v 4.743220 65.460320 -1.090242
v 4.983952 66.101990 0.244493
v 7.859513 63.333172 -1.645918
v -8.258970 52.610806 -2.786165
v -8.965294 56.079052 -6.010199
v -6.163805 56.852268 -10.482283
v -0.042327 58.510994 -12.323793
v 0.298931 54.946499 12.313784
v -7.711370 61.629528 1.710367
v -8.430921 59.537670 0.423420
v -4.822582 65.460320 -1.090242
v -0.042327 66.608910 -0.110029
vn 0.4799 0.6766 0.5585
vn 0.4877 0.7945 0.3619
vn 0.7142 0.5180 0.4708
vn 0.9382 0.0391 0.3440
vn 0.9482 0.0863 0.3056
vn 0.9989 0.0079 0.0473
vn 0.9736 -0.0157 0.2277
vn 0.9591 0.2830 -0.0000
vn 0.9415 0.3060 -0.1412
vn 0.9796 0.0705 -0.1881
vn 0.9685 -0.1417 -0.2047
vn 0.6905 0.1883 -0.6984
vn -0.3785 0.8673 -0.3233
vn -0.5508 0.8341 -0.0315
vn -0.0000 0.9975 -0.0707
vn -0.0000 0.5180 -0.8554
vn -0.0000 0.7303 -0.6832
vn -0.5370 0.4896 -0.6870
vn 0.5561 0.5718 0.6031
vn 0.4799 0.6766 0.5586
vn 0.7141 0.5179 0.4709
vn 0.7926 0.5179 -0.3217
vn 0.8822 0.4490 -0.1417
vn 0.8731 0.4641 -0.1494
vn 0.8822 0.4490 -0.1418
vn 0.7609 0.6276 -0.1648
vn -0.6840 0.0944 0.7233
vn -0.5263 0.1728 0.8326
vn -0.8322 0.1178 0.5418
vn 0.4955 0.4561 0.7392
vn 0.5263 0.1728 0.8326
vn 0.8358 0.1183 0.5362
vn 0.6759 0.0943 0.7309
vn -0.8830 0.3075 0.3547
vn -0.9355 0.1258 0.3302
vn -0.9029 0.0706 0.4240
vn -0.8545 -0.0470 0.5174
vn 0.8385 0.4153 0.3527
vn 0.8589 0.3073 0.4098
vn 0.9278 0.2123 0.3067
vn 0.9240 0.1488 0.3524
vn -0.0000 -0.2974 -0.9548
vn -0.6897 0.1254 -0.7132
vn -0.8040 -0.3704 -0.4651
vn -0.9531 -0.0395 -0.3000
vn -0.8263 -0.5587 0.0708
vn -0.0000 0.2664 0.9639
vn -0.0000 0.5565 0.8309
vn -0.4972 0.4499 0.7419
vn -0.7277 0.2425 -0.6416
vn -0.5806 0.3766 -0.7218
vn -0.9449 0.3228 -0.0551
vn -0.9482 0.0863 0.3056
vn -0.9612 0.2758 -0.0000
vn -0.5981 0.5588 0.5745
vn 0.0548 0.7903 0.6103
vn 0.9228 0.0391 0.3832
vn -0.9228 0.0391 0.3832
vn -0.9382 0.0391 0.3440
vn -0.9989 0.0079 0.0473
vn -0.9704 -0.1174 0.2113
vn -0.9803 -0.1961 0.0235
vn -0.9612 0.2757 -0.0000
vn -0.7706 -0.6369 0.0236
vn -0.5271 -0.6845 -0.5036
vn -0.3937 -0.6694 -0.6300
vn -0.8149 0.5720 -0.0941
vn -0.9118 -0.0393 0.4087
vn 0.8116 0.5752 -0.1025
vn 0.9444 0.3227 -0.0629
vn 0.9163 -0.0313 0.3994
vn 0.9719 -0.1176 0.2038
vn 0.5981 0.5588 0.5745
vn 0.6305 0.7093 -0.3152
vn 0.9803 -0.1961 0.0235
vn 0.7707 -0.6370 0.0157
vn 0.9766 0.2126 -0.0315
vn -0.0000 0.3930 -0.9195
vn 0.6760 0.1415 -0.7232
vn 0.6773 0.2678 -0.6852
vn 0.7452 0.1020 -0.6590
vn 0.8576 -0.0551 0.5114
vn 0.9073 0.0704 0.4146
vn 0.9397 0.1175 0.3211
vn -0.0000 0.8864 -0.4628
vn 0.3785 0.8673 -0.3233
vn 0.4013 0.7004 -0.5902
vn 0.6930 0.6694 -0.2678
vn 0.7922 0.4236 0.4393
vn 0.8849 0.3133 0.3446
vn 0.8589 0.3073 0.4097
vn 0.9820 -0.0079 0.1885
vn 0.7609 0.6276 -0.1647
vn 0.5508 0.8341 -0.0315
vn 0.3363 0.9229 -0.1877
vn 0.3918 -0.6661 -0.6347
vn 0.5335 -0.6747 -0.5100
vn 0.9116 -0.3693 0.1808
vn -0.8149 0.5719 -0.0940
vn -0.4799 0.5586 -0.6766
vn -0.8171 -0.1729 0.5500
vn -0.8609 -0.0000 0.5087
vn -0.9790 -0.0784 0.1880
vn -0.9989 0.0079 0.0471
vn -0.9279 -0.3381 -0.1573
vn -0.9159 -0.3758 -0.1409
vn -0.9819 -0.0158 0.1886
vn -0.9753 -0.0158 0.2202
vn -0.9459 0.2917 -0.1419
vn -0.6930 0.6694 -0.2678
vn -0.9819 -0.0157 0.1885
vn -0.9515 0.3067 0.0236
vn -0.9088 -0.3683 0.1959
vn -0.9705 -0.1408 -0.1957
vn -0.5795 0.2741 -0.7675
vn -0.0000 0.3304 -0.9439
vn 0.5795 0.2741 -0.7675
vn 0.5806 0.3766 -0.7218
vn 0.7277 0.2426 -0.6416
vn 0.9444 0.3226 -0.0629
vn 0.9159 -0.3758 -0.1409
vn 0.9279 -0.3381 -0.1573
vn 0.9790 -0.0784 0.1880
vn 0.9989 0.0079 0.0471
vn 0.9494 0.3138 0.0157
vn 0.9240 0.1487 0.3524
vn 0.8609 -0.0000 0.5087
vn 0.8171 -0.1729 0.5500
vn -0.0000 0.5420 -0.8404
vn -0.6773 0.2678 -0.6852
vn -0.6760 0.1415 -0.7232
vn -0.7452 0.1020 -0.6590
vn -0.9768 0.2126 -0.0236
vn 0.8324 -0.5497 0.0707
vn 0.9533 -0.0394 -0.2994
vn 0.8040 -0.3704 -0.4651
vn 0.6897 0.1254 -0.7132
vn -0.0000 0.1734 -0.9849
vn 0.4790 0.5967 -0.6438
vn 0.0001 0.7847 -0.6199
vn -0.0000 0.6831 -0.7303
vn -0.4790 0.5967 -0.6438
vn -0.4251 0.5431 -0.7241
vn -0.4788 0.4632 -0.7458
vn -0.7946 0.5192 -0.3147
vn -0.6305 0.7093 -0.3153
vn -0.0000 0.8084 0.5886
vn -0.4953 0.7862 0.3695
vn -0.4560 0.6053 0.6525
vn -0.7144 0.5103 0.4788
vn -0.0000 -0.5565 -0.8308
vn 0.9685 -0.1417 -0.2048
vn 0.9115 -0.3694 0.1807
vn -0.8966 0.4247 -0.1258
vn -0.8038 0.5831 -0.1182
vn -0.3209 -0.0078 0.9471
vn -0.7949 0.4171 0.4407
vn 0.5370 0.4896 -0.6870
vn 0.4799 0.5586 -0.6766
vn 0.8116 0.5752 -0.1024
vn -0.4014 0.7004 -0.5902
vn -0.0000 0.6750 -0.7378
vn 0.4251 0.5431 -0.7241
vn 0.4789 0.4632 -0.7458
vn -0.0000 0.7226 0.6912
vn -0.4559 0.6053 0.6525
vn -0.5095 0.6427 0.5722
vn -0.7144 0.5102 0.4789
vn -0.8078 0.4470 0.3843
vn -0.8630 0.2981 0.4080
vn -0.9393 0.2426 0.2426
vn -0.9286 0.1337 0.3463
vn -0.8965 0.4247 -0.1259
vn -0.8770 0.4542 -0.1566
vn -0.8037 0.5831 -0.1182
vn -0.7544 0.6287 -0.1886
vn -0.3998 0.9017 -0.1647
vn -0.4322 0.8880 -0.1572
vn -0.0236 0.9609 -0.2757
vn -0.0313 0.9926 -0.1172
vn 0.4393 0.8942 -0.0863
vn 0.7546 0.6524 -0.0708
vn -0.9089 -0.3682 0.1959
vn -0.9810 0.0706 -0.1805
vn -0.6905 0.1883 -0.6984
vn -0.0000 0.2665 -0.9638
vn 0.3209 -0.0078 0.9471
vn -0.8630 0.2981 0.4079
vn -0.9286 0.1337 0.3462
vn -0.3999 0.9017 -0.1646
vn -0.0236 0.9610 -0.2757
vt 0.507812 0.117188
vt 0.554688 0.187500
vt 0.421875 0.117188
vt 0.154297 0.305969
vt 0.078125 0.253235
vt 0.143738 0.159363
vt 0.058594 0.145508
vt 0.012329 0.283203
vt 0.020416 0.152344
vt 0.988281 0.500000
vt 0.890625 0.500000
vt 0.988281 0.343750
vt 0.203125 0.632812
vt 0.232788 0.564056
vt 0.018738 0.543732
vt 0.906250 0.552063
vt 0.727844 0.598938
vt 0.721069 0.691406
vt 0.695312 0.031250
vt 0.670746 0.013519
vt 0.741058 0.013519
vt 0.312500 0.765625
vt 0.453125 0.625000
vt 0.453125 0.750000
vt 0.921875 0.078125
vt 0.921875 0.101562
vt 0.851562 0.101562
vt 0.539062 0.439056
vt 0.600769 0.354675
vt 0.465393 0.381683
vt 0.585144 0.281250
vt 0.398438 0.218750
vt 0.392853 0.359375
vt 0.392944 0.416382
vt 0.464050 0.451538
vt 0.843750 0.031250
vt 0.808014 0.013519
vt 0.929688 0.031250
vt 0.910583 0.013397
vt 0.630554 0.745514
vt 0.721069 0.623413
vt 0.674103 0.613831
vt 0.728790 0.455353
vt 0.610931 0.457031
vt 0.721863 0.389038
vt 0.725769 0.299988
vt 0.988281 0.986328
vt 0.887482 0.778107
vt 0.878906 0.987122
vt 0.035156 0.364258
vt 0.703125 0.117188
vt 0.089172 0.457031
vt 0.632812 0.773438
vt 0.554688 0.640625
vt 0.593750 0.562500
vt 0.523438 0.562500
vt 0.523438 0.648438
vt 0.463165 0.900665
vt 0.489838 0.975769
vt 0.617188 0.890625
vt 0.371643 0.982117
vt 0.830719 0.562500
vt 0.742188 0.492188
vt 0.898438 0.114258
vt 0.867188 0.335938
vt 0.742188 0.242188
vt 0.765625 0.343750
vt 0.014038 0.621857
vt 0.187500 0.726562
vt 0.281250 0.679688
vt 0.491058 0.265625
vt 0.345032 0.117188
vt 0.116211 0.124023
vt 0.382812 0.546875
vt 0.242188 0.468750
vt 0.988281 0.554688
vt 0.703125 0.971863
vt 0.696869 0.846863
vt 0.328125 0.468750
vt 0.390625 0.390625
vt 0.289062 0.390625
vt 0.156250 0.179688
vt 0.156250 0.390625
vt 0.234375 0.453125
vt 0.203125 0.117188
vt 0.304688 0.195312
vt 0.471069 0.460144
vt 0.988281 0.812500
vt 0.988281 0.565094
vt 0.248260 0.109375
vt 0.740234 0.146484
vt 0.689056 0.724213
vt 0.136139 0.981018
vt 0.028107 0.987244
vt 0.010925 0.818726
vt 0.187500 0.835938
vt 0.270813 0.979156
vt 0.722076 0.189728
vt 0.524536 0.746643
vt 0.689056 0.452332
vt 0.010925 0.720306
vt 0.475433 0.013519
vt 0.492188 0.031250
vt 0.328125 0.013519
vt 0.320312 0.031250
vt 0.267853 0.014648
vt 0.164062 0.031250
vt 0.178558 0.013519
vt 0.071167 0.032104
vt 0.064209 0.014282
vt 0.070312 0.101562
vt 0.062500 0.078125
vt 0.148438 0.101562
vt 0.148438 0.078125
vt 0.304688 0.101562
vt 0.304688 0.078125
vt 0.481873 0.101746
vt 0.492188 0.078125
vt 0.679688 0.101562
vt 0.671875 0.078125
vt 0.828125 0.078125
vt 0.988281 0.125000
vt 0.045288 0.467163
s 1
usemtl f_hair0101
f 1/1/1 2/2/2 3/3/3
f 4/4/4 5/5/5 6/6/6
f 7/7/7 8/8/8 9/9/9
f 10/10/10 11/11/11 12/12/12
f 13/13/13 14/14/14 15/15/15
f 16/16/16 17/17/17 18/18/18
f 19/19/19 20/20/20 21/21/21
f 22/22/22 23/23/23 24/24/8
f 25/25/24 26/26/25 27/27/26
f 28/28/27 29/29/28 30/30/29
f 31/31/30 32/29/31 33/30/32
f 33/30/32 32/29/31 34/28/33
f 35/32/34 36/33/35 30/30/29
f 30/30/29 36/33/35 37/34/36
f 30/30/29 37/34/36 38/35/37
f 19/19/19 21/21/21 39/36/38
f 39/36/38 21/21/21 40/37/39
f 39/36/38 40/37/39 41/38/40
f 41/38/40 40/37/39 42/39/41
f 43/40/42 44/41/43 45/42/44
f 45/42/44 44/41/43 46/43/45
f 45/42/44 46/43/45 47/44/46
f 48/45/47 49/46/48 50/31/49
f 51/47/50 52/48/51 53/49/52
f 54/5/53 55/8/54 56/50/55
f 2/2/2 1/1/1 57/51/56
f 5/5/5 4/4/4 58/52/57
f 59/52/58 60/4/59 54/5/53
f 54/5/53 60/4/59 61/6/60
f 62/53/61 63/54/62 64/24/63
f 65/55/64 66/56/65 67/57/66
f 68/58/52 69/59/67 70/60/68
f 71/59/69 72/58/70 73/60/71
f 73/60/71 72/58/70 74/53/72
f 75/50/73 8/8/8 5/5/5
f 76/61/74 22/22/22 72/58/70
f 72/58/70 22/22/22 24/24/8
f 72/58/70 24/24/8 74/53/72
f 74/53/72 24/24/8 77/54/75
f 78/62/76 79/63/77 11/11/11
f 80/64/78 81/65/79 82/66/80
f 82/66/80 81/65/79 83/67/81
f 84/35/82 85/34/83 33/30/32
f 33/30/32 85/34/83 86/33/84
f 87/68/85 88/13/86 89/69/87
f 89/69/87 88/13/86 90/70/88
f 89/69/87 90/70/88 22/22/22
f 2/2/2 91/71/89 3/3/3
f 3/3/3 91/71/89 92/32/90
f 3/3/3 92/32/90 93/72/91
f 8/8/8 7/7/7 5/5/5
f 5/5/5 7/7/7 94/73/92
f 5/5/5 94/73/92 6/6/6
f 95/74/93 96/14/94 97/75/95
f 97/75/95 96/14/94 15/15/15
f 98/57/96 99/56/97 100/55/76
f 11/11/11 10/10/10 101/76/98
f 102/77/99 53/49/52 103/78/100
f 103/78/100 53/49/52 52/48/51
f 103/78/100 52/48/51 18/18/18
f 18/18/18 52/48/51 16/16/16
f 104/79/101 105/80/102 106/81/103
f 107/82/104 108/83/105 106/81/103
f 106/81/103 108/83/105 109/84/106
f 61/6/60 110/73/107 54/5/53
f 54/5/53 110/73/107 111/7/108
f 54/5/53 111/7/108 55/8/54
f 55/8/54 111/7/108 112/9/109
f 14/14/14 13/13/13 113/70/110
f 114/85/111 107/82/104 115/86/112
f 115/86/112 107/82/104 106/81/103
f 115/86/112 106/81/103 35/32/34
f 35/32/34 106/81/103 105/80/102
f 116/87/113 117/56/114 47/44/46
f 47/44/46 117/56/114 65/55/64
f 47/44/46 65/55/64 45/42/44
f 45/42/44 65/55/64 67/57/66
f 45/42/44 67/57/66 43/40/42
f 51/47/50 118/88/115 52/48/51
f 52/48/51 118/88/115 119/89/116
f 52/48/51 119/89/116 16/16/16
f 16/16/16 119/89/116 120/88/117
f 16/16/16 120/88/117 121/48/118
f 121/48/118 120/88/117 122/47/119
f 121/48/118 122/47/119 123/49/120
f 124/84/121 125/83/122 126/81/123
f 126/81/123 125/83/122 127/82/124
f 126/81/123 127/82/124 128/86/125
f 128/86/125 127/82/124 129/85/92
f 128/86/125 129/85/92 130/90/126
f 130/90/126 93/72/91 128/86/125
f 128/86/125 93/72/91 92/32/90
f 128/86/125 92/32/90 126/81/123
f 126/81/123 92/32/90 131/80/127
f 126/81/123 131/80/127 132/79/128
f 82/66/80 133/91/129 80/64/78
f 80/64/78 133/91/129 134/66/130
f 80/64/78 134/66/130 135/65/131
f 135/65/131 134/66/130 136/67/132
f 135/65/131 136/67/132 137/11/114
f 137/11/114 136/67/132 138/63/133
f 137/11/114 138/63/133 139/62/64
f 140/44/134 141/43/135 142/42/136
f 142/42/136 141/43/135 143/41/137
f 142/42/136 143/41/137 43/40/42
f 43/40/42 143/41/137 144/92/138
f 43/40/42 144/92/138 44/41/43
f 145/93/139 146/94/140 147/95/141
f 147/95/141 146/94/140 148/93/142
f 147/95/141 148/93/142 149/96/143
f 149/96/143 148/93/142 150/97/144
f 149/96/143 150/97/144 151/22/145
f 151/22/145 150/97/144 152/61/146
f 151/22/145 152/61/146 68/58/52
f 86/33/84 92/32/90 33/30/32
f 33/30/32 92/32/90 91/71/89
f 33/30/32 91/71/89 31/31/30
f 31/31/30 91/71/89 2/2/2
f 31/31/30 2/2/2 153/98/147
f 153/98/147 2/2/2 57/51/56
f 153/98/147 57/51/56 154/2/148
f 154/2/148 57/51/56 155/1/149
f 154/2/148 155/1/149 156/3/150
f 67/57/66 157/99/151 43/40/42
f 43/40/42 157/99/151 98/57/96
f 43/40/42 98/57/96 142/42/136
f 142/42/136 98/57/96 100/55/76
f 142/42/136 100/55/76 140/44/134
f 140/44/134 100/55/76 158/56/152
f 140/44/134 158/56/152 159/87/153
f 70/60/68 62/53/61 68/58/52
f 68/58/52 62/53/61 64/24/63
f 68/58/52 64/24/63 151/22/145
f 151/22/145 64/24/63 160/23/154
f 151/22/145 160/23/154 161/74/155
f 162/100/156 48/45/47 29/29/28
f 29/29/28 48/45/47 50/31/49
f 29/29/28 50/31/49 30/30/29
f 30/30/29 50/31/49 163/71/157
f 30/30/29 163/71/157 35/32/34
f 17/17/17 16/16/16 164/18/158
f 164/18/158 16/16/16 121/48/118
f 164/18/158 121/48/118 165/78/159
f 165/78/159 121/48/118 123/49/120
f 165/78/159 123/49/120 166/77/160
f 167/69/161 87/68/85 168/101/162
f 168/101/162 87/68/85 89/69/87
f 168/101/162 89/69/87 169/96/163
f 169/96/163 89/69/87 22/22/22
f 169/96/163 22/22/22 170/97/164
f 170/97/164 22/22/22 76/61/74
f 20/20/20 19/19/19 171/102/56
f 171/102/56 19/19/19 172/103/165
f 171/102/56 172/103/165 173/104/166
f 173/104/166 172/103/165 174/105/167
f 173/104/166 174/105/167 175/106/168
f 175/106/168 174/105/167 176/107/169
f 175/106/168 176/107/169 177/108/170
f 177/108/170 176/107/169 178/109/171
f 177/108/170 178/109/171 179/110/172
f 180/111/173 181/112/174 182/113/175
f 182/113/175 181/112/174 183/114/176
f 182/113/175 183/114/176 184/115/177
f 184/115/177 183/114/176 185/116/178
f 184/115/177 185/116/178 186/117/179
f 186/117/179 185/116/178 187/118/180
f 186/117/179 187/118/180 188/119/95
f 188/119/95 187/118/180 189/120/181
f 188/119/95 189/120/181 27/27/26
f 27/27/26 189/120/181 190/121/182
f 27/27/26 190/121/182 25/25/24
f 191/76/183 192/10/184 137/11/114
f 137/11/114 192/10/184 193/12/185
f 137/11/114 193/12/185 135/65/131
f 135/65/131 193/12/185 194/122/186
f 135/65/131 194/122/186 80/64/78
f 80/64/78 194/122/186 12/12/12
f 80/64/78 12/12/12 81/65/79
f 81/65/79 12/12/12 11/11/11
f 81/65/79 11/11/11 83/67/81
f 83/67/81 11/11/11 79/63/77
f 23/23/23 22/22/22 95/74/93
f 95/74/93 22/22/22 90/70/88
f 95/74/93 90/70/88 96/14/94
f 96/14/94 90/70/88 88/13/86
f 96/14/94 88/13/86 15/15/15
f 15/15/15 88/13/86 87/68/85
f 15/15/15 87/68/85 13/13/13
f 13/13/13 87/68/85 167/69/161
f 13/13/13 167/69/161 113/70/110
f 41/38/40 25/25/24 39/36/38
f 39/36/38 25/25/24 190/121/182
f 39/36/38 190/121/182 19/19/19
f 19/19/19 190/121/182 189/120/181
f 19/19/19 189/120/181 172/103/165
f 172/103/165 189/120/181 187/118/180
f 172/103/165 187/118/180 174/105/167
f 174/105/167 187/118/180 185/116/178
f 174/105/167 185/116/178 176/107/169
f 176/107/169 185/116/178 183/114/176
f 176/107/169 183/114/176 178/109/171
f 178/109/171 183/114/176 181/112/174
f 195/100/187 32/29/31 48/45/47
f 48/45/47 32/29/31 31/31/30
f 48/45/47 31/31/30 49/46/48
f 49/46/48 31/31/30 153/98/147
f 49/46/48 153/98/147 50/31/49
f 50/31/49 153/98/147 154/2/148
f 50/31/49 154/2/148 163/71/157
f 163/71/157 154/2/148 156/3/150
f 163/71/157 156/3/150 35/32/34
f 35/32/34 156/3/150 196/72/188
f 35/32/34 196/72/188 115/86/112
f 115/86/112 196/72/188 197/90/189
f 115/86/112 197/90/189 114/85/111
f 170/97/164 145/93/139 169/96/163
f 169/96/163 145/93/139 147/95/141
f 169/96/163 147/95/141 168/101/162
f 168/101/162 147/95/141 149/96/143
f 168/101/162 149/96/143 167/69/161
f 167/69/161 149/96/143 151/22/145
f 167/69/161 151/22/145 113/70/110
f 113/70/110 151/22/145 161/74/155
f 113/70/110 161/74/155 14/14/14
f 14/14/14 161/74/155 198/75/190
f 14/14/14 198/75/190 15/15/15
f 15/15/15 198/75/190 199/123/191
f 15/15/15 199/123/191 97/75/95
o editpl_f-0000-1892
v 9.851506 59.168709 -1.262501
v 8.401822 59.537670 0.423420
v 8.862123 58.286407 -0.348969
v 9.288034 60.516224 -0.619028
v 9.457340 59.948341 -3.402966
v 8.859478 61.215649 -2.815061
v 9.139891 59.845676 -4.629900
v 8.587000 61.116188 -4.028658
v -8.626681 61.116188 -4.028658
v -9.139891 59.845676 -4.629900
v -8.885932 61.215649 -2.815061
v -9.457340 59.948341 -3.402966
v -9.319779 60.516224 -0.619028
v -9.851506 59.168709 -1.262501
v -8.430921 59.537670 0.423420
v -8.862123 58.286407 -0.348969
vn 0.9736 -0.0157 0.2277
vn 0.9240 0.1488 0.3524
vn 0.9820 -0.0079 0.1886
vn 0.9278 0.2123 0.3067
vn 0.9415 0.3060 -0.1412
vn 0.8731 0.4641 -0.1494
vn 0.9591 0.2830 -0.0000
vn 0.8822 0.4490 -0.1418
vn -0.8965 0.4247 -0.1259
vn -0.9612 0.2758 -0.0000
vn -0.8770 0.4542 -0.1566
vn -0.9459 0.2917 -0.1419
vn -0.9393 0.2426 0.2427
vn -0.9753 -0.0157 0.2203
vn -0.9285 0.1338 0.3463
vn -0.9819 -0.0157 0.1885
vt 0.691193 0.843750
vt 0.640625 0.781250
vt 0.691193 0.781250
vt 0.640625 0.843750
vt 0.691193 0.929688
vt 0.640625 0.929688
vt 0.691193 0.984375
vt 0.640625 0.984375
s 1
usemtl f_hair0101
f 200/124/192 201/125/193 202/126/194
f 201/125/193 200/124/192 203/127/195
f 203/127/195 200/124/192 204/128/196
f 203/127/195 204/128/196 205/129/197
f 205/129/197 204/128/196 206/130/198
f 205/129/197 206/130/198 207/131/199
f 208/131/200 209/130/201 210/129/202
f 210/129/202 209/130/201 211/128/203
f 210/129/202 211/128/203 212/127/204
f 212/127/204 211/128/203 213/124/205
f 212/127/204 213/124/205 214/125/206
f 214/125/206 213/124/205 215/126/207
