mtllib f_hair006.mtl
o editpl_f-0000-1906
v -9.997004 46.129906 -7.098212
v -8.094954 43.752506 -5.607888
v -8.565837 45.632607 -1.938203
v -8.068500 46.072155 -6.406951
v -8.565837 45.632607 -1.938203
v -8.094954 43.752506 -5.607888
v 7.814541 50.778828 6.179117
v 8.044691 51.568089 5.739021
v 7.515609 52.905975 6.644773
v 5.952172 58.032948 9.612084
v 3.462841 61.003895 10.447822
v 5.314628 58.032948 9.144204
v 0.264541 46.893497 -17.104832
v 0.375648 38.869370 -16.713636
v -5.314628 47.069958 -13.664083
v 8.536738 53.242855 4.806596
v 6.571198 58.270367 8.038409
v 7.793377 53.072811 6.260245
v 8.248388 52.033298 5.480076
v 8.997039 50.650494 3.931962
v 10.121338 50.528576 1.801499
v 8.941485 49.258064 2.091562
v 6.989173 52.729515 7.596091
v -4.473388 40.425426 -12.164869
v -2.338542 40.659637 -14.280884
v -3.187719 35.548710 -14.848784
v -1.650736 26.452986 -15.543380
v 0.000000 26.452986 -14.161968
v -2.026384 28.243256 -15.611172
v 1.637509 26.452986 -15.543380
v 0.000000 26.452986 -16.977024
v 2.534303 29.706270 -15.608950
v -0.119043 31.624874 -12.926145
v 0.206342 28.804720 -13.961925
v 0.000000 26.452986 -14.161968
v 0.375648 38.869370 -16.713636
v 3.203591 41.041435 -14.179750
v 0.171952 36.046005 -17.610497
v 2.423195 17.366890 -15.542267
v 0.190470 16.555174 -15.493368
v 1.859723 18.435276 -18.268415
v 0.002645 38.439449 -11.210217
v -0.029100 35.397915 -12.479382
v -0.119043 31.624874 -12.926145
v -8.748370 44.435886 -10.360033
v -9.433531 50.631245 -9.105316
v -7.645234 55.867298 6.139108
v -7.536773 58.642536 5.578986
v -8.555255 53.281357 4.575435
v -9.602838 53.579735 1.021329
v -10.044621 50.807705 1.554778
v 3.526331 61.610275 8.490729
v 2.309443 61.064854 9.034181
v 4.624176 60.724766 8.404044
v 1.105781 62.399536 10.844574
v 2.465522 61.838070 10.684539
v 3.039576 63.852924 8.304022
v 5.343728 63.291462 6.803696
v -1.105781 62.399536 10.844574
v -0.320095 61.651985 9.776565
v 0.000000 62.559956 9.170877
v 0.000000 60.885185 9.689879
v -4.473388 40.425426 -12.164869
v -6.415119 42.469158 -9.560970
v -4.933689 42.555782 -13.228433
v 0.007936 63.108585 -11.338024
v -4.856972 62.515038 -8.800806
v 0.007936 65.081734 -8.236238
v -10.110756 52.017258 -4.577665
v -9.457340 58.639328 0.372299
v -9.449404 57.747402 -5.372283
v 0.000000 52.501720 -14.344232
v -5.856937 51.738132 -12.233774
v 0.000000 58.238281 -12.968379
v -6.407183 57.747402 -10.502287
v -4.621531 60.724766 8.404044
v -2.309443 61.064854 9.034181
v -3.526331 61.610275 8.490729
v 4.872845 62.515038 -8.800806
v 7.346303 62.306492 -5.193356
v 6.407183 57.747402 -10.502287
v 5.169131 64.690308 3.690797
v 3.912561 65.768318 -0.236723
v 2.708900 65.402565 5.570094
v 0.833304 66.580040 1.342509
v 0.000000 64.523476 7.820583
v 0.007936 66.304115 1.232485
v -3.039576 63.852924 8.304022
v -2.465522 61.838070 10.684539
v -3.462841 61.003895 10.447822
v 3.462841 61.003895 10.447822
v 5.314628 58.032948 9.144204
v -3.462841 61.003895 10.447822
v -5.314628 58.032948 9.144204
v 0.320095 61.651985 9.776565
v 1.298896 62.075489 9.394259
v 1.105781 62.399536 10.844574
v 2.465522 61.838070 10.684539
v 7.317204 62.649788 0.041115
v 4.222074 65.444275 -4.463197
v 0.007936 65.081734 -8.236238
v -2.465522 61.838070 10.684539
v -1.298896 62.075489 9.394259
v -1.105781 62.399536 10.844574
v -0.320095 61.651985 9.776565
v -3.896689 65.768318 -0.236723
v -1.005256 66.519081 -3.925302
v -4.206202 65.444275 -4.463197
v 9.645164 50.631245 -9.105316
v 8.748370 44.435886 -10.360033
v 5.314628 47.069958 -13.664083
v 4.933689 42.555782 -13.228433
v 6.526226 52.912392 6.987070
v 7.430956 50.871872 5.530087
v 6.965364 50.210949 6.220237
v 8.338332 48.609974 2.239372
v -8.338332 48.609974 2.239372
v 8.338332 48.609974 2.239372
v 8.068500 46.072155 -6.406951
v 8.565837 45.632607 -1.938203
v -6.632042 52.912392 6.987070
v -6.317239 58.052197 8.451832
v -5.314628 58.032948 9.144204
v -3.526331 61.610275 8.490729
v -8.338332 48.609974 2.239372
v -7.486510 50.871872 5.530087
v -6.968010 50.210949 6.220237
v -5.904555 52.193718 7.935054
v 7.012981 50.178864 -2.946200
v 5.859583 47.259251 -1.302509
v 4.753801 47.503086 -5.598999
v 4.576559 45.398396 -5.860165
v 0.000000 47.281708 -8.321812
v 0.000000 46.755535 -7.695009
v -5.534197 43.723629 -9.103092
v -6.415119 42.469158 -9.560970
v 5.904555 52.193718 7.935054
v 5.314628 58.032948 9.144204
v 6.264330 58.052197 8.451832
v 3.526331 61.610275 8.490729
v 7.536773 58.642536 5.578986
v 9.457340 58.639328 0.372299
v 9.602838 53.579735 1.021329
v 10.110756 52.017258 -4.577665
v 10.134565 47.801464 -3.145132
v 9.997004 46.129906 -7.098212
v 5.904555 52.193718 7.935054
v 6.965364 50.210949 6.220237
v 8.338332 48.609974 2.239372
v 8.626681 50.688995 4.638782
v 8.565837 45.632607 -1.938203
v -0.089944 31.952127 -17.390448
v -2.970795 31.631290 -15.164410
v 0.224860 29.475267 -18.040588
v 0.224860 29.475267 -18.040588
v 2.584565 33.094307 -15.162187
v 3.169201 36.873764 -14.788772
v 4.780256 40.425426 -12.164869
v -1.634863 17.459932 -15.501147
v 2.320024 17.828896 -13.386243
v 0.724842 20.751719 -13.725207
v 3.740610 19.436287 -15.877897
v 2.293570 21.585894 -15.905681
v 0.298931 21.021219 -18.185064
v 0.000000 24.072378 -17.113722
v -2.163945 21.621185 -15.806770
v -1.587246 24.072378 -15.783432
v 0.000000 24.072378 -14.384239
v -0.029100 35.397915 -12.479382
v 0.002645 38.439449 -11.210217
v 0.206342 28.804720 -13.961925
v 1.298896 62.075489 9.394259
v 0.000000 60.885185 9.689879
v -5.153258 64.690308 3.690797
v -7.301331 62.649788 0.041115
v -7.327785 62.306492 -5.193356
v 5.796093 51.738132 -12.233774
v -10.134565 47.801464 -3.145132
v -10.118693 48.420677 -1.693705
v 0.002645 38.439449 -11.210217
v 4.780256 40.425426 -12.164869
v 6.415119 42.469158 -9.560970
v 10.110756 52.017258 -4.577665
v 9.449404 57.747402 -5.372283
v -4.473388 40.425426 -12.164869
v 0.002645 38.439449 -11.210217
v -0.002645 42.735451 -10.634536
v 4.780256 40.425426 -12.164869
v 5.526261 43.723629 -9.103092
v 6.415119 42.469158 -9.560970
v 8.094954 43.752506 -5.607888
v 0.000000 44.827309 -8.714120
v -4.576559 45.398396 -5.860165
v -4.753801 47.503086 -5.598999
v -5.859583 47.259251 -1.302509
v -7.012981 50.178864 -2.946200
v 1.589891 24.072378 -15.794545
v -8.338332 48.609974 2.239372
v -6.968010 50.210949 6.220237
v -7.814541 50.778828 6.179117
v -5.904555 52.193718 7.935054
v -6.989173 52.729515 7.596091
v -5.314628 58.032948 9.144204
v -5.952172 58.032948 9.612084
v -5.335792 63.291462 6.803696
v -2.693027 65.402565 5.570094
v -0.817432 66.580040 1.342509
v 0.007936 66.268829 -4.056442
v 1.021128 66.519081 -3.925302
v 8.094954 43.752506 -5.607888
v -10.118693 48.420677 -1.693705
v -10.121338 50.586327 1.988206
v -8.536738 52.938061 4.997749
v 0.320095 61.651985 9.776565
vn -0.9262 -0.3768 -0.0157
vn -0.7911 -0.6109 0.0314
vn -0.8295 -0.5056 0.2370
vn 0.8736 -0.1889 0.4486
vn 0.9910 -0.0865 0.1022
vn 0.8947 -0.1412 0.4238
vn 0.6833 -0.3849 0.6205
vn 0.8782 0.0078 0.4783
vn 0.8942 0.0235 0.4471
vn 0.4555 -0.0707 0.8874
vn 0.4476 0.3063 0.8402
vn -0.2436 -0.4243 0.8721
vn 0.0079 0.2202 -0.9754
vn 0.0236 -0.5509 -0.8342
vn -0.6025 -0.0000 -0.7981
vn 0.9167 0.0783 0.3918
vn 0.8973 0.1653 0.4093
vn 0.8887 0.0472 0.4561
vn 0.8971 0.0315 0.4407
vn 0.8736 -0.1888 0.4486
vn 0.9205 -0.2203 0.3226
vn 0.7071 -0.5657 0.4243
vn 0.5042 -0.2205 0.8350
vn -0.8225 -0.3525 0.4465
vn -0.6236 0.2210 -0.7499
vn -0.9975 -0.0707 0.0078
vn -0.9724 -0.0784 -0.2196
vn 0.0001 -0.1173 0.9931
vn -0.9438 -0.2595 0.2045
vn 0.9711 -0.0940 -0.2192
vn 0.0078 -0.1644 -0.9864
vn 0.9590 -0.2044 0.1965
vn 0.0393 -0.2201 0.9747
vn 0.0393 -0.2126 0.9764
vn -0.0000 -0.1173 0.9931
vn 0.0156 0.2973 -0.9546
vn 0.6810 0.1331 -0.7201
vn 0.0235 0.1095 -0.9937
vn 0.6151 -0.7807 -0.1104
vn -0.0000 -0.9992 -0.0393
vn 0.2282 -0.5509 -0.8028
vn -0.0079 -0.3835 0.9235
vn 0.0157 -0.4155 0.9095
vn 0.0394 -0.2201 0.9747
vn -0.8152 -0.3685 -0.4468
vn -0.8725 0.0943 -0.4795
vn -0.9029 0.0707 0.4240
vn -0.9220 0.1734 0.3463
vn -0.9392 0.1409 0.3130
vn -0.9704 0.1174 0.2113
vn -0.9910 0.1023 0.0865
vn -0.5578 -0.7935 0.2435
vn 0.3302 0.0315 0.9434
vn 0.2906 0.2670 0.9188
vn -0.3531 0.6043 0.7142
vn 0.4792 0.6127 0.6284
vn 0.3711 0.7343 0.5685
vn 0.7549 0.5190 0.4010
vn 0.3532 0.6043 0.7142
vn 0.1181 -0.2204 0.9682
vn -0.0000 0.3443 0.9389
vn -0.0000 -0.0000 1.0000
vn -0.6949 -0.6159 -0.3711
vn -0.7373 -0.6589 -0.1490
vn -0.7159 -0.3855 -0.5822
vn -0.0000 0.5745 -0.8185
vn -0.5274 0.6533 -0.5432
vn -0.0000 0.9052 -0.4251
vn -0.9950 0.0783 -0.0627
vn -0.9518 0.2832 0.1180
vn -0.9294 0.2835 -0.2363
vn -0.0000 0.3373 -0.9414
vn -0.5017 0.2116 -0.8388
vn -0.0000 0.2591 -0.9658
vn -0.6469 0.3156 -0.6942
vn -0.2906 0.2671 0.9188
vn -0.3302 0.0315 0.9434
vn 0.5588 -0.7950 0.2361
vn 0.5252 0.6505 -0.5487
vn 0.8051 0.5367 -0.2526
vn 0.6289 0.3223 -0.7075
vn 0.6105 0.7748 0.1644
vn 0.4407 0.8971 0.0315
vn 0.2828 0.9115 0.2986
vn -0.0158 0.9909 0.1337
vn -0.0000 0.8815 0.4723
vn -0.0000 0.9931 0.1173
vn -0.3711 0.7343 0.5685
vn -0.4792 0.6127 0.6284
vn -0.4539 0.3052 0.8372
vn -0.7734 -0.5998 -0.2052
vn -0.7706 -0.1730 -0.6134
vn 0.7734 -0.5998 -0.2052
vn 0.7538 -0.1649 -0.6360
vn -0.1181 -0.2204 0.9682
vn 0.1812 -0.7484 0.6381
vn 0.0550 -0.9740 0.2199
vn -0.4249 -0.9049 -0.0236
vn 0.7838 0.6192 0.0470
vn 0.5032 0.8335 -0.2280
vn -0.0000 0.9052 -0.4250
vn 0.4249 -0.9049 -0.0236
vn -0.1812 -0.7483 0.6381
vn -0.0550 -0.9740 0.2199
vn -0.4407 0.8971 0.0315
vn -0.0627 0.9880 -0.1411
vn -0.5033 0.8335 -0.2280
vn 0.8337 0.1022 -0.5426
vn 0.8106 -0.3856 -0.4407
vn 0.6370 0.0158 -0.7707
vn 0.7443 -0.3447 -0.5720
vn -0.7870 0.0629 -0.6138
vn -0.8736 0.1181 -0.4722
vn -0.8651 0.0786 -0.4954
vn -0.8950 0.2119 -0.3925
vn 0.9766 -0.1969 0.0867
vn -0.9766 -0.1969 0.0866
vn -0.8736 -0.1889 0.4486
vn -0.9910 -0.0865 0.1022
vn 0.7608 0.0863 -0.6432
vn 0.5662 -0.1022 -0.8179
vn 0.7538 -0.1649 -0.6361
vn 0.5589 -0.7949 0.2361
vn 0.8763 0.2582 -0.4068
vn 0.8584 0.1575 -0.4883
vn 0.8465 0.1254 -0.5173
vn 0.8112 0.0473 -0.5828
vn 0.8479 -0.4710 -0.2433
vn 0.9298 -0.2679 -0.2522
vn 0.8485 -0.1650 -0.5028
vn 0.7063 0.0471 -0.7063
vn -0.0000 0.1096 -0.9940
vn -0.0000 -0.6285 0.7778
vn 0.4017 -0.5278 0.7483
vn 0.5264 -0.5893 0.6129
vn -0.8439 0.0158 -0.5363
vn -0.5841 -0.1026 -0.8052
vn 0.9192 0.1886 0.3457
vn 0.9518 0.2832 0.1180
vn 0.9802 0.1098 0.1647
vn 0.9989 0.0472 -0.0000
vn 0.9825 -0.1651 0.0865
vn 0.9263 -0.3768 -0.0079
vn 0.3941 -0.3468 0.8512
vn 0.4476 -0.6204 0.6440
vn 0.6463 -0.6226 0.4413
vn 0.8392 -0.2981 0.4549
vn 0.7919 -0.5331 0.2979
vn -0.0079 0.1018 -0.9948
vn -0.9267 -0.0707 -0.3691
vn -0.0000 -0.0236 -0.9997
vn 0.0079 -0.1643 -0.9864
vn 0.9353 -0.0079 -0.3537
vn 0.9832 -0.1809 -0.0236
vn 0.8329 -0.4321 0.3457
vn -0.8360 -0.5442 0.0710
vn 0.3160 -0.5371 0.7821
vn 0.0784 0.2196 0.9724
vn 0.9869 0.1488 -0.0627
vn 0.9094 0.4156 -0.0157
vn 0.0078 0.1961 -0.9806
vn -0.0000 0.1734 -0.9849
vn -0.9945 0.0939 0.0470
vn -0.9740 0.0550 0.2199
vn 0.0313 0.1018 0.9943
vn 0.0156 -0.4155 0.9094
vn -0.0078 -0.3835 0.9235
vn 0.0394 -0.2126 0.9763
vn 0.1812 -0.7483 0.6381
vn 0.0001 -0.0000 1.0000
vn -0.6105 0.7748 0.1644
vn -0.7838 0.6192 0.0470
vn -0.8051 0.5367 -0.2526
vn 0.4941 0.2274 -0.8391
vn -0.0001 -0.0000 1.0000
vn -0.9776 -0.1955 0.0782
vn -0.8825 -0.4019 0.2443
vn -0.0000 -0.9969 -0.0785
vn 0.7412 -0.5598 -0.3706
vn 0.7557 -0.6376 -0.1496
vn 0.9364 0.2597 -0.2361
vn 0.0787 -0.4801 0.8737
vn -0.0078 -0.1337 0.9910
vn -0.0000 -0.4783 0.8782
vn -0.0939 -0.4855 0.8692
vn -0.4090 -0.5349 0.7393
vn -0.5347 -0.5976 0.5976
vn -0.8947 -0.1412 0.4238
vn -0.0000 0.1567 -0.9876
vn -0.7063 0.0471 -0.7063
vn -0.8485 -0.1650 -0.5028
vn -0.9298 -0.2679 -0.2522
vn -0.8479 -0.4710 -0.2433
vn 0.9724 0.0784 0.2196
vn -0.6867 -0.5999 0.4105
vn -0.4476 -0.6204 0.6440
vn -0.6749 -0.4002 0.6199
vn -0.3941 -0.3467 0.8512
vn -0.5821 -0.1730 0.7945
vn 0.2436 -0.4243 0.8721
vn -0.5883 -0.0314 0.8080
vn -0.7318 0.5508 0.4013
vn -0.2829 0.9115 0.2986
vn 0.0157 0.9909 0.1337
vn -0.0000 0.9900 -0.1414
vn 0.0627 0.9880 -0.1411
vn 0.7911 -0.6109 0.0313
vn -0.7976 -0.4186 0.4343
vn -0.8643 0.0078 0.5029
vt 0.517029 0.766907
vt 0.580170 0.798584
vt 0.607391 0.737549
vt 0.539856 0.050568
vt 0.604919 0.088013
vt 0.604919 0.141388
vt 0.604126 0.563568
vt 0.586823 0.551147
vt 0.586060 0.503143
vt 0.602722 0.399750
vt 0.613129 0.294067
vt 0.613129 0.393921
vt 0.036530 0.800201
vt 0.082428 0.886719
vt 0.185944 0.779388
vt 0.550049 0.524750
vt 0.566711 0.414124
vt 0.578522 0.507660
vt 0.576599 0.543823
vt 0.584930 0.599243
vt 0.566711 0.633057
vt 0.593170 0.646149
vt 0.604706 0.491943
vt 0.924072 0.200409
vt 0.857727 0.203552
vt 0.907867 0.370605
vt 0.907867 0.723236
vt 0.987549 0.677673
vt 0.907867 0.633179
vt 0.738403 0.723236
vt 0.822266 0.723236
vt 0.738403 0.595825
vt 0.669342 0.517120
vt 0.653992 0.586639
vt 0.653992 0.723236
vt 0.799042 0.253326
vt 0.732391 0.217621
vt 0.810028 0.345856
vt 0.781036 0.970337
vt 0.851135 0.986481
vt 0.804718 0.935730
vt 0.987549 0.206329
vt 0.987549 0.334717
vt 0.987549 0.467377
vt 0.451599 0.822479
vt 0.284698 0.673401
vt 0.553314 0.471466
vt 0.510437 0.436584
vt 0.539703 0.522491
vt 0.485657 0.580780
vt 0.554840 0.625397
vt 0.220764 0.064209
vt 0.147156 0.181641
vt 0.283905 0.181641
vt 0.613129 0.255554
vt 0.613129 0.271240
vt 0.556915 0.275085
vt 0.517365 0.323364
vt 0.605560 0.235535
vt 0.585999 0.227905
vt 0.613129 0.231842
vt 0.367096 0.986023
vt 0.527039 0.877350
vt 0.304047 0.886719
vt 0.029510 0.402344
vt 0.151306 0.402344
vt 0.097961 0.246094
vt 0.387451 0.632050
vt 0.410095 0.482849
vt 0.282501 0.517181
vt 0.011902 0.659576
vt 0.148590 0.670746
vt 0.011902 0.527344
vt 0.158142 0.525604
vt 0.276855 0.400146
vt 0.437012 0.308319
vt 0.367523 0.283478
vt 0.476929 0.269318
vt 0.413330 0.233154
vt 0.537018 0.218018
vt 0.417114 0.218018
vt 0.283905 0.023102
vt 0.014069 0.137695
vt 0.040527 0.093719
vt 0.026672 0.063904
vt 0.137390 0.023102
vt 0.387634 0.378937
vt 0.260559 0.299683
vt 0.097198 0.245514
vt 0.237915 0.235992
vt 0.547119 0.012787
vt 0.580505 0.012787
vt 0.597076 0.044403
vt 0.604919 0.012787
vt 0.512634 0.031525
vt 0.516205 0.081879
vt 0.478149 0.054108
vt 0.580261 0.079865
vt 0.852356 0.011414
vt 0.853119 0.180511
vt 0.739716 0.094635
vt 0.739868 0.180511
vt 0.621979 0.101654
vt 0.300018 0.013550
vt 0.518494 0.115509
vt 0.604919 0.182739
vt 0.543274 0.692871
vt 0.613129 0.492004
vt 0.613129 0.581024
vt 0.606689 0.652832
vt 0.590973 0.588013
vt 0.822266 0.534058
vt 0.907867 0.520111
vt 0.822266 0.610748
vt 0.738403 0.496552
vt 0.738403 0.350159
vt 0.703796 0.199524
vt 0.945801 0.958313
vt 0.785431 0.955353
vt 0.837646 0.875427
vt 0.725861 0.903320
vt 0.748260 0.834961
vt 0.855560 0.866760
vt 0.844513 0.750214
vt 0.935364 0.833771
vt 0.911133 0.752411
vt 0.844513 0.771576
vt 0.662750 0.393280
vt 0.653992 0.253876
vt 0.987549 0.521484
vt 0.012146 0.180878
vt 0.546753 0.672516
vt 0.013458 0.986023
vt 0.484100 0.182739
vt 0.333893 0.182739
vt 0.300018 0.113434
vt 0.621979 0.180511
vt 0.777771 0.753052
vt 0.234100 0.218018
vt 0.550293 0.674927
s 1
usemtl f_hair0110
f 1/1/1 2/2/2 3/3/3
f 4/4/4 5/5/5 6/6/6
f 7/7/7 8/8/8 9/9/9
f 10/10/10 11/11/11 12/12/12
f 13/13/13 14/14/14 15/15/15
f 16/16/16 17/17/17 18/18/18
f 18/18/18 19/19/19 16/16/16
f 16/16/16 19/19/19 20/20/20
f 16/16/16 20/20/20 21/21/21
f 21/21/21 20/20/20 22/22/22
f 7/7/7 9/9/9 23/23/23
f 23/23/23 9/9/9 17/17/17
f 23/23/23 17/17/17 10/10/10
f 24/24/24 25/25/25 26/26/26
f 27/27/27 28/28/28 29/29/29
f 30/30/30 31/31/31 32/32/32
f 33/33/33 34/34/34 32/32/32
f 32/32/32 34/34/34 35/35/35
f 32/32/32 35/35/35 30/30/30
f 36/36/36 37/37/37 38/38/38
f 39/39/39 40/40/40 41/41/41
f 42/42/42 24/24/24 43/43/43
f 43/43/43 24/24/24 26/26/26
f 43/43/43 26/26/26 44/44/44
f 45/45/45 1/1/1 46/46/46
f 47/47/47 48/48/48 49/49/49
f 49/49/49 48/48/48 50/50/50
f 49/49/49 50/50/50 51/51/51
f 52/52/52 53/53/53 54/54/54
f 55/55/55 56/56/56 57/57/57
f 57/57/57 56/56/56 11/11/11
f 57/57/57 11/11/11 58/58/58
f 59/55/59 60/59/60 61/60/61
f 61/60/61 60/59/60 62/61/62
f 63/62/63 64/63/64 65/64/65
f 66/65/66 67/66/67 68/67/68
f 69/68/69 70/69/70 71/70/71
f 72/71/72 73/72/73 74/73/74
f 74/73/74 73/72/73 75/74/75
f 76/54/76 77/53/77 78/52/78
f 79/66/79 80/75/80 81/74/81
f 82/76/82 83/77/83 84/78/84
f 84/78/84 83/77/83 85/79/85
f 84/78/84 85/79/85 86/80/86
f 86/80/86 85/79/85 87/81/87
f 61/60/61 86/80/86 59/55/59
f 59/55/59 86/80/86 88/57/88
f 59/55/59 88/57/88 89/56/89
f 89/56/89 88/57/88 90/11/90
f 91/82/91 52/52/52 92/54/92
f 93/82/93 94/54/94 78/52/78
f 95/83/95 96/84/96 97/85/97
f 97/85/97 96/84/96 98/86/98
f 2/2/2 1/1/1 64/63/64
f 64/63/64 1/1/1 45/45/45
f 64/63/64 45/45/45 65/64/65
f 99/87/99 80/75/80 100/88/100
f 100/88/100 80/75/80 79/66/79
f 100/88/100 79/66/79 101/89/101
f 102/86/102 103/84/103 104/85/104
f 104/85/104 103/84/103 105/83/60
f 106/77/105 107/90/106 108/88/107
f 108/88/107 107/90/106 101/89/101
f 108/88/107 101/89/101 67/66/67
f 109/46/108 110/45/109 111/15/110
f 111/15/110 110/45/109 112/64/111
f 111/15/110 112/64/111 14/14/14
f 113/91/112 114/92/113 115/93/114
f 115/93/114 114/92/113 116/94/115
f 5/5/5 4/4/4 117/94/116
f 118/94/117 119/4/118 120/5/119
f 121/91/120 122/95/121 123/96/122
f 123/96/122 122/95/121 124/97/123
f 125/94/124 126/92/125 127/93/126
f 127/93/126 126/92/125 121/91/120
f 127/93/126 121/91/120 128/98/127
f 128/98/127 121/91/120 123/96/122
f 129/99/128 130/100/129 131/101/130
f 131/101/130 130/100/129 132/102/131
f 131/101/130 132/102/131 133/103/132
f 134/104/133 4/4/4 135/105/134
f 135/105/134 4/4/4 6/6/6
f 135/105/134 6/6/6 136/106/135
f 115/93/114 137/98/136 113/91/112
f 113/91/112 137/98/136 138/96/92
f 113/91/112 138/96/92 139/95/137
f 139/95/137 138/96/92 140/97/52
f 58/58/58 141/48/138 142/69/139
f 142/69/139 141/48/138 143/50/140
f 142/69/139 143/50/140 144/68/141
f 144/68/141 143/50/140 145/107/142
f 144/68/141 145/107/142 146/1/143
f 10/10/10 12/12/12 23/23/23
f 23/23/23 12/12/12 147/108/144
f 23/23/23 147/108/144 7/7/7
f 7/7/7 147/108/144 148/109/145
f 7/7/7 148/109/145 149/110/146
f 8/8/8 7/7/7 150/111/147
f 150/111/147 7/7/7 149/110/146
f 150/111/147 149/110/146 22/22/22
f 22/22/22 149/110/146 151/3/148
f 22/22/22 151/3/148 21/21/21
f 38/38/38 152/112/149 153/113/150
f 153/113/150 152/112/149 154/114/151
f 153/113/150 154/114/151 29/29/29
f 29/29/29 154/114/151 31/31/152
f 29/29/29 31/31/152 27/27/27
f 155/114/151 152/112/149 156/115/153
f 156/115/153 152/112/149 38/38/38
f 156/115/153 38/38/38 157/116/154
f 157/116/154 38/38/38 37/37/37
f 157/116/154 37/37/37 158/117/155
f 159/118/156 160/119/157 161/120/158
f 161/120/158 160/119/157 162/121/159
f 161/120/158 162/121/159 163/122/160
f 163/122/160 162/121/159 164/123/161
f 163/122/160 164/123/161 165/124/162
f 165/124/162 164/123/161 166/125/163
f 165/124/162 166/125/163 167/126/164
f 167/126/164 166/125/163 168/127/165
f 31/31/31 155/114/151 32/32/32
f 32/32/32 155/114/151 156/115/153
f 32/32/32 156/115/153 33/33/33
f 33/33/33 156/115/153 157/116/154
f 33/33/33 157/116/154 169/128/166
f 169/128/166 157/116/154 158/117/155
f 169/128/166 158/117/155 170/129/167
f 28/28/28 171/130/168 29/29/29
f 29/29/29 171/130/168 44/44/44
f 29/29/29 44/44/44 153/113/150
f 153/113/150 44/44/44 26/26/26
f 153/113/150 26/26/26 38/38/38
f 38/38/38 26/26/26 25/25/25
f 38/38/38 25/25/25 36/36/36
f 91/82/91 98/86/98 52/52/52
f 52/52/52 98/86/98 172/84/169
f 52/52/52 172/84/169 53/53/53
f 53/53/53 172/84/169 95/83/95
f 53/53/53 95/83/95 173/131/170
f 174/76/171 106/77/105 175/87/172
f 175/87/172 106/77/105 108/88/107
f 175/87/172 108/88/107 176/75/173
f 176/75/173 108/88/107 67/66/67
f 176/75/173 67/66/67 75/74/75
f 75/74/75 67/66/67 66/65/66
f 75/74/75 66/65/66 74/73/74
f 68/67/68 79/66/79 66/65/66
f 66/65/66 79/66/79 81/74/81
f 66/65/66 81/74/81 74/73/74
f 74/73/74 81/74/81 177/72/174
f 74/73/74 177/72/174 72/71/72
f 72/71/72 177/72/174 13/13/13
f 72/71/72 13/13/13 73/72/73
f 73/72/73 13/13/13 15/15/15
f 173/131/175 105/83/60 77/53/77
f 77/53/77 105/83/60 103/84/103
f 77/53/77 103/84/103 78/52/78
f 78/52/78 103/84/103 102/86/102
f 78/52/78 102/86/102 93/82/93
f 48/48/48 70/69/70 50/50/50
f 50/50/50 70/69/70 69/68/69
f 50/50/50 69/68/69 51/51/51
f 51/51/51 69/68/69 178/107/176
f 51/51/51 178/107/176 179/132/177
f 180/133/178 14/14/14 181/62/179
f 181/62/179 14/14/14 112/64/111
f 181/62/179 112/64/111 182/63/180
f 182/63/180 112/64/111 110/45/109
f 182/63/180 110/45/109 146/1/143
f 146/1/143 110/45/109 109/46/108
f 146/1/143 109/46/108 183/68/141
f 183/68/141 109/46/108 184/70/181
f 183/68/141 184/70/181 142/69/139
f 185/134/182 186/135/183 187/136/184
f 187/136/184 186/135/183 188/134/185
f 187/136/184 188/134/185 189/105/186
f 189/105/186 188/134/185 190/106/187
f 189/105/186 190/106/187 191/6/188
f 132/102/131 192/137/189 133/103/132
f 133/103/132 192/137/189 193/102/190
f 133/103/132 193/102/190 194/101/191
f 194/101/191 193/102/190 195/100/192
f 194/101/191 195/100/192 196/99/193
f 136/106/135 185/134/182 135/105/134
f 135/105/134 185/134/182 187/136/184
f 135/105/134 187/136/184 134/104/133
f 134/104/133 187/136/184 189/105/186
f 134/104/133 189/105/186 119/4/118
f 119/4/118 189/105/186 191/6/188
f 119/4/118 191/6/188 120/5/119
f 165/124/162 197/138/194 163/122/160
f 163/122/160 197/138/194 168/127/165
f 163/122/160 168/127/165 161/120/158
f 161/120/158 168/127/165 166/125/163
f 161/120/158 166/125/163 159/118/156
f 159/118/156 166/125/163 164/123/161
f 159/118/156 164/123/161 41/41/41
f 41/41/41 164/123/161 162/121/159
f 41/41/41 162/121/159 39/39/39
f 39/39/39 162/121/159 160/119/157
f 39/39/39 160/119/157 40/40/40
f 40/40/40 160/119/157 159/118/156
f 40/40/40 159/118/156 41/41/41
f 198/110/195 199/109/196 200/7/197
f 200/7/197 199/109/196 201/108/198
f 200/7/197 201/108/198 202/23/199
f 202/23/199 201/108/198 203/12/200
f 202/23/199 203/12/200 204/10/201
f 204/10/201 203/12/200 90/11/90
f 204/10/201 90/11/90 205/58/202
f 205/58/202 90/11/90 88/57/88
f 205/58/202 88/57/88 206/78/203
f 206/78/203 88/57/88 86/80/86
f 206/78/203 86/80/86 207/79/204
f 207/79/204 86/80/86 87/81/87
f 207/79/204 87/81/87 208/139/205
f 208/139/205 87/81/87 85/79/85
f 208/139/205 85/79/85 209/90/206
f 209/90/206 85/79/85 83/77/83
f 11/11/11 10/10/10 58/58/58
f 58/58/58 10/10/10 17/17/17
f 58/58/58 17/17/17 141/48/138
f 141/48/138 17/17/17 16/16/16
f 141/48/138 16/16/16 143/50/140
f 143/50/140 16/16/16 21/21/21
f 143/50/140 21/21/21 145/107/142
f 145/107/142 21/21/21 151/3/148
f 145/107/142 151/3/148 146/1/143
f 146/1/143 151/3/148 210/2/207
f 146/1/143 210/2/207 182/63/180
f 71/70/71 46/46/46 69/68/69
f 69/68/69 46/46/46 1/1/1
f 69/68/69 1/1/1 178/107/176
f 178/107/176 1/1/1 3/3/3
f 178/107/176 3/3/3 211/140/177
f 211/140/177 3/3/3 198/110/195
f 211/140/177 198/110/195 212/21/208
f 212/21/208 198/110/195 200/7/197
f 212/21/208 200/7/197 213/16/209
f 213/16/209 200/7/197 202/23/199
f 213/16/209 202/23/199 47/47/47
f 47/47/47 202/23/199 204/10/201
f 47/47/47 204/10/201 48/48/48
f 48/48/48 204/10/201 205/58/202
f 48/48/48 205/58/202 70/69/70
f 14/14/14 13/13/13 111/15/110
f 111/15/110 13/13/13 177/72/174
f 111/15/110 177/72/174 109/46/108
f 109/46/108 177/72/174 81/74/81
f 109/46/108 81/74/81 184/70/181
f 184/70/181 81/74/81 80/75/80
f 184/70/181 80/75/80 142/69/139
f 142/69/139 80/75/80 99/87/99
f 142/69/139 99/87/99 58/58/58
f 180/133/178 63/62/63 14/14/14
f 14/14/14 63/62/63 65/64/65
f 14/14/14 65/64/65 15/15/15
f 15/15/15 65/64/65 45/45/45
f 15/15/15 45/45/45 73/72/73
f 73/72/73 45/45/45 46/46/46
f 73/72/73 46/46/46 75/74/75
f 75/74/75 46/46/46 71/70/71
f 75/74/75 71/70/71 176/75/173
f 176/75/173 71/70/71 70/69/70
f 176/75/173 70/69/70 175/87/172
f 175/87/172 70/69/70 205/58/202
f 175/87/172 205/58/202 174/76/171
f 174/76/171 205/58/202 206/78/203
f 174/76/171 206/78/203 106/77/105
f 106/77/105 206/78/203 207/79/204
f 106/77/105 207/79/204 107/90/106
f 107/90/106 207/79/204 208/139/205
f 107/90/106 208/139/205 101/89/101
f 101/89/101 208/139/205 209/90/206
f 101/89/101 209/90/206 100/88/100
f 100/88/100 209/90/206 83/77/83
f 100/88/100 83/77/83 99/87/99
f 99/87/99 83/77/83 82/76/82
f 99/87/99 82/76/82 58/58/58
f 58/58/58 82/76/82 84/78/84
f 58/58/58 84/78/84 57/57/57
f 57/57/57 84/78/84 86/80/86
f 57/57/57 86/80/86 55/55/55
f 55/55/55 86/80/86 61/60/61
f 55/55/55 61/60/61 214/59/95
f 214/59/95 61/60/61 62/61/62
o editpl_f-0000-1907
v 1.589891 24.072378 -15.794545
v 1.637509 26.452986 -15.543380
v 0.000000 26.452986 -14.161968
v 0.000000 24.072378 -14.384239
v 0.000000 24.072378 -17.113722
v -1.587246 24.072378 -15.783432
v -1.650736 26.452986 -15.543380
v 0.000000 26.452986 -16.977024
vn 0.9724 0.0784 0.2196
vn 0.9711 -0.0940 -0.2192
vn -0.0000 -0.1173 0.9931
vn 0.0313 0.1017 0.9943
vn -0.0000 0.1733 -0.9849
vn -0.9740 0.0550 0.2199
vn -0.9724 -0.0784 -0.2196
vn 0.0078 -0.1644 -0.9864
vt 0.932678 0.179352
vt 0.932678 0.011780
vt 0.872437 0.011780
vt 0.872437 0.179352
vt 0.986908 0.179352
vt 0.986908 0.011780
s 1
usemtl f_hair0110
f 215/141/210 216/142/211 217/143/212
f 217/143/212 218/144/213 215/141/210
f 216/142/211 215/141/210 219/145/214
f 218/144/213 217/143/212 220/141/215
f 220/141/215 217/143/212 221/142/216
f 220/141/215 221/142/216 219/145/214
f 219/145/214 221/142/216 222/146/217
f 219/145/214 222/146/217 216/142/211
