mtllib f_hair009.mtl
o editpl_f-0000-1911
v 8.068500 62.351410 0.517885
v 9.446759 56.788101 -0.817960
v 9.102855 58.924873 -3.341841
v -8.174316 58.806164 0.989100
v -7.764278 55.463043 3.866392
v -6.949492 58.000862 5.321152
v 5.296110 59.069248 -10.900152
v 7.703433 59.040375 -8.968620
v 7.655816 53.265312 -9.161995
v -5.711440 63.066875 5.318929
v -3.021058 62.572788 9.586523
v -2.941696 64.812225 6.553641
v 0.047617 54.721912 -11.765894
v 2.015802 47.230373 -13.466264
v 2.592502 54.131573 -9.986619
v 2.510494 55.068417 -10.334472
v 4.952207 46.466782 -14.520937
v 4.346408 55.889759 -11.432487
v 10.909670 47.073166 -9.609870
v 7.565872 55.437378 -6.559207
v 8.830378 46.139530 -8.814142
v 8.309232 46.826118 -7.759467
v 5.073896 54.121948 -6.810373
v 6.256394 47.063541 -10.086639
v 13.330220 47.294540 -2.640578
v 9.504958 55.199959 -1.306955
v 11.168920 46.287113 -2.221598
v 10.713910 46.694576 -1.664810
v 7.502382 53.666359 -2.158251
v 9.377978 46.107445 -4.415407
v 5.986562 58.895996 8.078417
v 6.198195 56.056595 8.589641
v 7.925648 54.770039 4.170902
v 8.174316 58.806164 0.989100
v 7.050017 60.615685 4.115334
v 6.949492 58.000862 5.321152
v 8.174316 58.806164 0.989100
v 5.264366 55.668381 -9.170886
v 5.515680 55.068417 -7.114883
v 6.629397 56.476891 -7.971736
v 7.743115 55.148624 0.346738
v 7.758987 55.463043 3.866392
v 7.825122 52.954102 2.816164
v 0.000000 59.743008 11.533613
v 3.232691 59.579380 10.789006
v 0.000000 62.864746 10.257780
v 4.621531 66.451706 -2.970651
v 0.000000 67.471962 -2.872852
v 0.000000 66.971458 2.985088
v 8.978521 58.886372 -6.099107
v 8.460021 55.806339 -3.238486
v 6.692887 61.716152 -7.097103
v 8.978521 58.886372 -6.099107
v 10.965224 52.723099 -3.416302
v 8.460021 55.806339 -3.238486
v 9.446759 56.788101 -0.817960
v 8.153153 62.572788 -3.983093
v 4.486615 65.935158 2.342726
v 2.449650 53.570107 -14.313114
v 2.402032 58.989040 -12.641641
v 0.000000 59.072456 -12.573849
v 8.470602 52.386223 -3.186252
v 8.460021 55.806339 -3.238486
v 7.565872 55.437378 -6.559207
v 5.515680 55.068417 -7.114883
v 10.909670 47.073166 -9.609870
v 9.012911 47.592918 -10.494507
v 10.613384 47.823921 -11.888143
v 10.613384 47.823921 -11.888143
v 8.370077 47.358707 -12.467157
v 8.830378 46.139530 -8.814142
v 10.909670 47.073166 -9.609870
v 8.370077 47.358707 -12.467157
v 7.261650 46.319199 -10.580081
v 7.261650 46.319199 -10.580081
v 8.830378 46.139530 -8.814142
v 0.666643 55.495129 -11.622530
v 2.412614 56.646935 -11.708104
v 1.362386 56.576347 -13.516274
v 5.647950 61.651985 7.115986
v 3.021058 62.572788 9.387591
v 0.000000 65.665649 7.250460
v 0.666643 55.495129 -11.622530
v 2.510494 55.068417 -10.334472
v 3.634793 56.820183 -13.399583
v 4.346408 55.889759 -11.432487
v 1.362386 56.576347 -13.516274
v 3.634793 56.820183 -13.399583
v 4.346408 55.889759 -11.432487
v 2.510494 55.068417 -10.334472
v 5.634723 47.734089 -16.483585
v 3.655956 47.811089 -15.745647
v 3.700928 48.205719 -17.788313
v 3.700928 48.205719 -17.788313
v 1.833269 47.246418 -16.645844
v 4.952207 46.466782 -14.520937
v 5.634723 47.734089 -16.483585
v 1.833269 47.246418 -16.645844
v 2.595147 46.155571 -14.610957
v 2.595147 46.155571 -14.610957
v 4.952207 46.466782 -14.520937
v 8.584355 56.261929 -8.271802
v 7.565872 55.437378 -6.559207
v 5.264366 55.668381 -9.170886
v 7.161124 56.406303 -9.886597
v 7.161124 56.406303 -9.886597
v 8.584355 56.261929 -8.271802
v 10.139856 45.837944 -4.310940
v 11.729747 47.336250 -4.063108
v 11.168920 46.287113 -2.221598
v 11.668903 46.563034 -6.021312
v 10.139856 45.837944 -4.310940
v 11.168920 46.287113 -2.221598
v 13.330220 47.294540 -2.640578
v 13.637088 47.454960 -5.011093
v 11.668903 46.563034 -6.021312
v 13.330220 47.294540 -2.640578
v 13.637088 47.454960 -5.011093
v 9.504958 55.199959 -1.306955
v 8.909740 55.787090 -3.259601
v 7.571163 54.420326 -2.339401
v 7.885967 54.542244 -4.643235
v 7.571163 54.420326 -2.339401
v 11.015487 55.806339 -2.970650
v 9.504958 55.199959 -1.306955
v 7.885967 54.542244 -4.643235
v 10.012876 55.398876 -5.033320
v 10.012876 55.398876 -5.033320
v 11.015487 55.806339 -2.970650
v -7.050017 60.615685 4.115334
v -4.486615 65.935158 2.342726
v -4.621531 66.451706 -2.970651
v -8.068500 62.351410 0.517885
v -3.232691 59.579380 10.789006
v -3.462841 56.496140 11.306898
v 0.000000 56.489723 12.073731
v -2.402032 58.989040 -12.641641
v -4.645340 62.694706 -9.716560
v 0.000000 62.697914 -10.925713
v 0.000000 65.383316 -8.841926
v 4.645340 62.694706 -9.716560
v -6.629397 56.476891 -7.971736
v -5.515680 55.068417 -7.114883
v -5.264366 55.668381 -9.170886
v -7.825122 52.954102 2.816164
v -7.743115 55.148624 0.346738
v -8.174316 58.806164 0.989100
v -7.050017 60.615685 4.115334
v -5.711440 63.066875 5.318929
v -7.930939 54.770039 4.170902
v -6.198195 56.056595 8.589641
v -5.986562 58.895996 8.078417
v -5.647950 61.651985 7.115986
v -9.446759 56.788101 -0.817960
v -8.460021 55.806339 -3.238486
v -10.965224 52.723099 -3.416302
v -8.978521 58.886372 -6.099107
v -4.685021 52.251469 -10.593417
v 0.000000 52.437553 -11.661427
v 0.000000 47.714836 -8.321812
v -9.446759 56.788101 -0.817960
v -9.102855 58.924873 -3.341841
v -10.965224 52.723099 -3.416302
v -8.460021 55.806339 -3.238486
v -8.470602 52.386223 -3.186252
v -5.515680 55.068417 -7.114883
v -7.565872 55.437378 -6.559207
v -10.613384 47.823921 -11.888143
v -9.012911 47.592918 -10.494507
v -10.909670 47.073166 -9.609870
v -8.370077 47.358707 -12.467157
v -10.613384 47.823921 -11.888143
v -5.296110 59.069248 -10.900152
v -7.655816 53.265312 -9.161995
v -7.703433 59.040375 -8.968620
v -10.909670 47.073166 -9.609870
v -8.830378 46.139530 -8.814142
v -7.261650 46.319199 -10.580081
v -8.370077 47.358707 -12.467157
v -8.830378 46.139530 -8.814142
v -7.261650 46.319199 -10.580081
v -1.362386 56.576347 -13.516274
v -2.412614 56.646935 -11.708104
v -0.666643 55.495129 -11.622530
v -2.510494 55.068417 -10.334472
v -0.666643 55.495129 -11.622530
v -4.346408 55.889759 -11.432487
v -3.634793 56.820183 -13.399583
v -3.634793 56.820183 -13.399583
v -1.362386 56.576347 -13.516274
v -2.510494 55.068417 -10.334472
v -4.346408 55.889759 -11.432487
v -3.700928 48.205719 -17.788313
v -3.655956 47.811089 -15.745647
v -5.634723 47.734089 -16.483585
v -1.833269 47.246418 -16.645844
v -3.700928 48.205719 -17.788313
v -5.634723 47.734089 -16.483585
v -4.952207 46.466782 -14.520937
v -2.595147 46.155571 -14.610957
v -1.833269 47.246418 -16.645844
v -4.952207 46.466782 -14.520937
v -2.595147 46.155571 -14.610957
v -7.565872 55.437378 -6.559207
v -8.584355 56.261929 -8.271802
v -7.161124 56.406303 -9.886597
v -5.264366 55.668381 -9.170886
v -8.584355 56.261929 -8.271802
v -7.161124 56.406303 -9.886597
v -11.168920 46.287113 -2.221598
v -11.729747 47.336250 -4.063108
v -10.139856 45.837944 -4.310940
v -10.139856 45.837944 -4.310940
v -11.668903 46.563034 -6.021312
v -13.330220 47.294540 -2.640578
v -11.168920 46.287113 -2.221598
v -11.668903 46.563034 -6.021312
v -13.637088 47.454960 -5.011093
v -13.637088 47.454960 -5.011093
v -13.330220 47.294540 -2.640578
v -7.571163 54.420326 -2.339401
v -8.909740 55.787090 -3.259601
v -9.504958 55.199959 -1.306955
v -7.571163 54.420326 -2.339401
v -7.885967 54.542244 -4.643235
v -9.504958 55.199959 -1.306955
v -11.015487 55.806339 -2.970650
v -10.012876 55.398876 -5.033320
v -7.885967 54.542244 -4.643235
v -11.015487 55.806339 -2.970650
v -10.012876 55.398876 -5.033320
v 0.000000 62.085114 -10.454499
v 5.129450 57.253315 -10.907930
v 6.658497 52.158428 -6.992635
v 8.470602 52.386223 -3.186252
v 5.846356 47.833549 -1.402531
v 10.965224 52.723099 -3.416302
v 7.261650 62.640163 -7.468295
v 4.013087 65.880615 -7.330487
v 0.000000 66.711578 -7.081544
v 7.605553 57.795528 4.140896
v 7.050017 60.615685 4.115334
v 5.711440 63.066875 5.318929
v 2.941696 64.812225 6.553641
v 4.753801 47.060329 -5.504533
v 4.685021 52.251469 -10.593417
v 0.000000 57.198772 -12.751665
v -5.129450 57.253315 -10.907930
v -6.692887 61.716152 -7.097103
v 0.000000 65.383316 -8.841926
v -4.013087 65.880615 -7.330487
v -7.261650 62.640163 -7.468295
v -8.153153 62.572788 -3.983093
v 4.764383 45.494648 -5.766812
v 0.000000 45.539566 -8.714120
v -4.753801 47.060329 -5.504533
v -6.658497 52.158428 -6.992635
v -8.460021 55.806339 -3.238486
v -4.764383 45.494648 -5.766812
v -5.846356 47.833549 -1.402531
v -8.470602 52.386223 -3.186252
v -8.460021 55.806339 -3.238486
v -7.050017 60.615685 4.115334
v -7.605553 57.795528 4.140896
v -2.941696 64.812225 6.553641
v 0.000000 65.665649 7.250460
v 2.941696 64.812225 6.553641
v 5.711440 63.066875 5.318929
v 7.050017 60.615685 4.115334
v 1.050228 48.651680 -16.123508
v 1.005256 56.217010 -14.380907
v 3.542204 49.909363 -17.602718
v 4.145357 56.550682 -14.218649
v 6.044761 49.267689 -15.859006
v 5.126804 55.264126 -11.503614
v 5.102996 47.612171 -13.302895
v 2.592502 54.131573 -9.986619
v 2.015802 47.230373 -13.466264
v 2.595147 46.155571 -14.610957
v 0.666643 55.495129 -11.622530
v 1.833269 47.246418 -16.645844
v 1.362386 56.576347 -13.516274
v 3.700928 48.205719 -17.788313
v 3.634793 56.820183 -13.399583
v 5.634723 47.734089 -16.483585
v 4.346408 55.889759 -11.432487
v 4.952207 46.466782 -14.520937
v 8.584355 56.261929 -8.271802
v 10.613384 47.823921 -11.888143
v 7.161124 56.406303 -9.886597
v 8.370077 47.358707 -12.467157
v 5.264366 55.668381 -9.170886
v 7.261650 46.319199 -10.580081
v 5.515680 55.068417 -7.114883
v 8.830378 46.139530 -8.814142
v 7.565872 55.437378 -6.559207
v 8.081727 54.660954 -5.995751
v 11.041941 48.048508 -8.790803
v 9.571093 55.870506 -8.506297
v 10.679520 49.039894 -11.754781
v 7.486510 56.079052 -10.873478
v 7.724597 48.433514 -12.556066
v 4.706184 55.001041 -9.824361
v 6.256394 47.063541 -10.086639
v 5.073896 54.121948 -6.810373
v 11.015487 55.806339 -2.970650
v 13.637088 47.454960 -5.011093
v 10.012876 55.398876 -5.033320
v 11.668903 46.563034 -6.021312
v 7.885967 54.542244 -4.643235
v 10.139856 45.837944 -4.310940
v 7.571163 54.420326 -2.339401
v 11.168920 46.287113 -2.221598
v 9.504958 55.199959 -1.306955
v 9.817116 54.596786 -0.922427
v 13.557725 48.016426 -2.201594
v 11.623931 55.325085 -2.913971
v 13.975700 48.244221 -5.282263
v 10.425560 54.840622 -5.381173
v 11.393780 47.066750 -6.650337
v 7.878030 53.813946 -4.914405
v 9.377978 46.107445 -4.415407
v 7.502382 53.666359 -2.158251
v -2.449650 53.570107 -14.313114
v -8.978521 58.886372 -6.099107
v -2.015802 47.230373 -13.466264
v -2.592502 54.131573 -9.986619
v -5.102996 47.612171 -13.302895
v -5.126804 55.264126 -11.503614
v -6.044761 49.267689 -15.859006
v -4.145357 56.550682 -14.218649
v -3.542204 49.909363 -17.602718
v -1.005256 56.217010 -14.380907
v -1.050228 48.651680 -16.123508
v -0.047617 54.721912 -11.765894
v -2.015802 47.230373 -13.466264
v -2.592502 54.131573 -9.986619
v 3.462841 56.496140 11.306898
v -4.952207 46.466782 -14.520937
v -4.346408 55.889759 -11.432487
v -5.634723 47.734089 -16.483585
v -3.634793 56.820183 -13.399583
v -3.700928 48.205719 -17.788313
v -1.362386 56.576347 -13.516274
v -1.833269 47.246418 -16.645844
v -0.666643 55.495129 -11.622530
v -2.595147 46.155571 -14.610957
v -2.510494 55.068417 -10.334472
v -4.952207 46.466782 -14.520937
v -4.346408 55.889759 -11.432487
v -7.565872 55.437378 -6.559207
v -8.830378 46.139530 -8.814142
v -5.515680 55.068417 -7.114883
v -7.261650 46.319199 -10.580081
v -5.264366 55.668381 -9.170886
v -8.370077 47.358707 -12.467157
v -7.161124 56.406303 -9.886597
v -10.613384 47.823921 -11.888143
v -8.584355 56.261929 -8.271802
v -10.909670 47.073166 -9.609870
v -7.565872 55.437378 -6.559207
v -8.830378 46.139530 -8.814142
v -5.073896 54.121948 -6.810373
v -6.256394 47.063541 -10.086639
v -4.706184 55.001041 -9.824361
v -7.724597 48.433514 -12.556066
v -7.486510 56.079052 -10.873478
v -10.679520 49.039894 -11.754781
v -9.571093 55.870506 -8.506297
v -11.041941 48.048508 -8.790803
v -8.081727 54.660954 -5.995751
v -8.309232 46.826118 -7.759467
v -5.073896 54.121948 -6.810373
v -6.256394 47.063541 -10.086639
v -9.504958 55.199959 -1.306955
v -11.168920 46.287113 -2.221598
v -7.571163 54.420326 -2.339401
v -10.139856 45.837944 -4.310940
v -7.885967 54.542244 -4.643235
v -11.668903 46.563034 -6.021312
v -10.012876 55.398876 -5.033320
v -13.637088 47.454960 -5.011093
v -11.015487 55.806339 -2.970650
v -13.330220 47.294540 -2.640578
v -9.504958 55.199959 -1.306955
v -11.168920 46.287113 -2.221598
v -7.502382 53.666359 -2.158251
v -9.377978 46.107445 -4.415407
v -7.878030 53.813946 -4.914405
v -11.393780 47.066750 -6.650337
v -10.425560 54.840622 -5.381173
v -13.975700 48.244221 -5.282263
v -11.623931 55.325085 -2.913971
v -13.557725 48.016426 -2.201594
v -9.817116 54.596786 -0.922427
v -10.713910 46.694576 -1.664810
v -7.502382 53.666359 -2.158251
v -9.377978 46.107445 -4.415407
vn 0.8989 0.3785 0.2208
vn 0.9519 0.2045 0.2281
vn 0.9657 0.2591 0.0157
vn -0.9269 -0.1021 0.3613
vn -0.9955 0.0078 0.0941
vn -0.9505 0.1100 0.2906
vn 0.5523 0.2446 -0.7969
vn 0.7558 0.2047 -0.6220
vn 0.7914 0.0078 -0.6112
vn -0.7476 0.5351 0.3935
vn -0.4872 0.5894 0.6444
vn -0.4407 0.7948 0.4171
vn -0.9502 -0.2042 0.2356
vn -0.5832 -0.4098 0.7014
vn -0.0000 -0.3674 0.9301
vn -0.0471 0.0628 0.9969
vn 0.5434 -0.8032 0.2441
vn 0.7619 0.4085 0.5027
vn 0.8136 -0.5554 0.1721
vn 0.2289 0.3078 0.9235
vn 0.0393 -0.8724 0.4872
vn -0.1958 -0.3054 0.9319
vn -0.7294 -0.3059 0.6118
vn -0.9608 -0.2756 0.0315
vn 0.7456 -0.4866 0.4552
vn -0.0157 0.4628 0.8863
vn -0.0000 -0.7708 0.6371
vn -0.3932 -0.2045 0.8964
vn -0.8494 -0.2516 0.4640
vn -0.9509 -0.2751 -0.1415
vn 0.8516 0.1892 0.4889
vn 0.8416 0.1494 0.5191
vn 0.9348 0.1100 0.3378
vn 0.9269 -0.1021 0.3613
vn 0.9262 0.1962 0.3218
vn 0.9505 0.1100 0.2906
vn 0.9268 -0.1020 0.3613
vn -0.8647 0.3851 -0.3223
vn -0.7397 0.1259 0.6610
vn -0.2426 0.9234 0.2973
vn 0.9948 -0.0548 0.0862
vn 0.9955 0.0078 0.0941
vn 0.9997 0.0236 -0.0000
vn -0.0000 0.2665 0.9638
vn 0.4560 0.2909 0.8411
vn 0.0157 0.5179 0.8553
vn 0.5270 0.8495 -0.0236
vn -0.0000 0.9969 -0.0785
vn -0.0000 0.9790 0.2036
vn 0.8307 0.0158 -0.5565
vn 0.6657 -0.6736 -0.3211
vn 0.4408 -0.0236 -0.8973
vn 0.8307 0.0157 -0.5565
vn 0.7999 -0.5959 -0.0706
vn -0.5685 -0.6553 0.4974
vn 0.9268 -0.1021 0.3613
vn 0.8906 0.4492 -0.0709
vn 0.5423 0.8017 0.2515
vn 0.2437 0.2830 -0.9276
vn 0.2357 0.3771 -0.8957
vn -0.0000 0.3537 -0.9354
vn 0.9590 -0.2044 -0.1965
vn -0.2426 0.9234 0.2974
vn -0.7398 0.1259 0.6610
vn 0.8135 -0.5555 0.1721
vn 0.2755 -0.9055 -0.3228
vn 0.6829 -0.3454 -0.6437
vn 0.2756 -0.9055 -0.3228
vn -0.1020 -0.4944 -0.8632
vn 0.0392 -0.8724 0.4872
vn 0.2756 -0.9054 -0.3229
vn 0.8136 -0.5554 0.1720
vn 0.2756 -0.9054 -0.3228
vn -0.5330 -0.8231 -0.1959
vn -0.5330 -0.8231 -0.1960
vn 0.0394 -0.8724 0.4872
vn -0.8817 0.2204 0.4172
vn -0.1181 0.8818 0.4566
vn -0.5797 0.6815 -0.4466
vn 0.7862 0.3695 0.4953
vn 0.4874 0.5975 0.6368
vn -0.0000 0.8462 0.5329
vn -0.0471 0.0627 0.9969
vn 0.4548 0.7997 -0.3920
vn 0.7619 0.4084 0.5027
vn 0.7619 -0.4085 -0.5026
vn 0.1252 -0.8609 -0.4931
vn 0.0782 -0.2893 -0.9540
vn 0.0783 -0.2893 -0.9540
vn 0.1253 -0.8609 -0.4931
vn -0.5904 -0.5668 -0.5746
vn 0.5433 -0.8032 0.2441
vn 0.7619 -0.4084 -0.5027
vn -0.5904 -0.5668 -0.5747
vn -0.3546 -0.9141 0.1969
vn 0.5433 -0.8033 0.2441
vn 0.7222 0.6829 0.1099
vn -0.8647 0.3852 -0.3223
vn 0.0392 0.7372 -0.6746
vn 0.0393 0.7372 -0.6745
vn -0.4476 -0.8874 -0.1100
vn 0.4156 -0.9096 -0.0000
vn 0.1416 -0.6213 -0.7707
vn -0.4476 -0.8875 -0.1099
vn -0.0001 -0.7708 0.6370
vn 0.8578 -0.3935 -0.3305
vn 0.7456 -0.4867 0.4553
vn 0.8578 -0.3936 -0.3306
vn -0.0157 0.4627 0.8864
vn -0.3701 0.9290 -0.0000
vn -0.8990 0.1734 0.4021
vn -0.7608 0.2744 -0.5882
vn -0.8990 0.1734 0.4022
vn 0.6527 0.7470 0.1259
vn -0.3700 0.9290 -0.0000
vn -0.7607 0.2744 -0.5882
vn 0.1492 0.6205 -0.7699
vn 0.1493 0.6205 -0.7698
vn 0.6527 0.7471 0.1258
vn -0.9262 0.1962 0.3218
vn -0.5423 0.8017 0.2515
vn -0.5270 0.8495 -0.0236
vn -0.8989 0.3785 0.2208
vn -0.4487 0.2755 0.8501
vn -0.5635 0.1800 0.8062
vn -0.0000 0.1719 0.9851
vn -0.2357 0.3771 -0.8957
vn -0.4166 0.4952 -0.7624
vn -0.0000 0.5180 -0.8554
vn -0.0000 0.6831 -0.7303
vn 0.4166 0.4952 -0.7624
vn 0.2426 0.9234 0.2974
vn 0.7397 0.1259 0.6610
vn 0.8647 0.3851 -0.3223
vn -0.9997 0.0236 -0.0079
vn -0.9948 -0.0548 0.0862
vn -0.9268 -0.1021 0.3613
vn -0.7476 0.5351 0.3934
vn -0.9348 0.1100 0.3378
vn -0.8415 0.1494 0.5191
vn -0.8516 0.1892 0.4889
vn -0.7945 0.3619 0.4877
vn -0.9268 -0.1021 0.3614
vn 0.5685 -0.6553 0.4974
vn -0.6657 -0.6736 -0.3211
vn -0.7999 -0.5959 -0.0706
vn -0.8307 0.0157 -0.5565
vn -0.4953 -0.3695 -0.7862
vn -0.0000 -0.4091 -0.9125
vn -0.0000 -0.4220 -0.9066
vn -0.9519 0.2046 0.2281
vn -0.9657 0.2591 0.0157
vn -0.7999 -0.5960 -0.0706
vn -0.8307 0.0157 -0.5564
vn -0.9590 -0.2044 -0.1965
vn 0.7398 0.1259 0.6610
vn -0.2289 0.3078 0.9235
vn -0.6829 -0.3454 -0.6437
vn -0.2755 -0.9055 -0.3228
vn -0.8135 -0.5555 0.1721
vn 0.1020 -0.4944 -0.8632
vn -0.2756 -0.9055 -0.3228
vn -0.6830 -0.3454 -0.6436
vn -0.5523 0.2446 -0.7969
vn -0.7914 0.0078 -0.6112
vn -0.7558 0.2047 -0.6220
vn -0.8136 -0.5554 0.1720
vn -0.2756 -0.9054 -0.3229
vn -0.0392 -0.8724 0.4872
vn 0.5330 -0.8231 -0.1959
vn -0.0394 -0.8724 0.4872
vn -0.2756 -0.9054 -0.3228
vn 0.5330 -0.8231 -0.1960
vn 0.5797 0.6815 -0.4466
vn 0.1181 0.8818 0.4566
vn 0.8817 0.2204 0.4172
vn 0.1181 0.8818 0.4567
vn 0.0471 0.0627 0.9969
vn -0.7619 0.4084 0.5027
vn -0.4548 0.7997 -0.3920
vn 0.0471 0.0628 0.9969
vn -0.0782 -0.2894 -0.9540
vn -0.1252 -0.8609 -0.4931
vn -0.7619 -0.4085 -0.5026
vn 0.5904 -0.5668 -0.5746
vn -0.0783 -0.2893 -0.9540
vn -0.7619 -0.4085 -0.5027
vn -0.5433 -0.8032 0.2441
vn 0.3546 -0.9141 0.1969
vn -0.1253 -0.8609 -0.4931
vn 0.5904 -0.5667 -0.5747
vn -0.5433 -0.8033 0.2441
vn 0.3546 -0.9140 0.1969
vn 0.2425 0.9234 0.2974
vn -0.7222 0.6829 0.1099
vn -0.0392 0.7372 -0.6746
vn 0.8647 0.3852 -0.3223
vn -0.0393 0.7372 -0.6745
vn -0.4156 -0.9096 -0.0000
vn 0.4476 -0.8874 -0.1100
vn 0.4476 -0.8875 -0.1099
vn -0.1416 -0.6213 -0.7707
vn -0.7456 -0.4866 0.4552
vn 0.0001 -0.7708 0.6370
vn -0.1415 -0.6213 -0.7707
vn -0.8578 -0.3935 -0.3305
vn -0.8578 -0.3936 -0.3306
vn -0.7456 -0.4867 0.4553
vn 0.8990 0.1734 0.4021
vn 0.3700 0.9290 -0.0000
vn 0.0157 0.4627 0.8864
vn 0.3701 0.9290 -0.0000
vn 0.8990 0.1734 0.4022
vn 0.7608 0.2744 -0.5882
vn -0.6527 0.7470 0.1259
vn -0.1492 0.6205 -0.7699
vn 0.7607 0.2744 -0.5882
vn -0.6527 0.7471 0.1258
vn -0.1493 0.6205 -0.7698
vn -0.0000 0.4877 -0.8730
vn 0.6352 0.1725 -0.7528
vn 0.8800 -0.2986 -0.3693
vn 0.9590 -0.2044 -0.1966
vn 0.9129 -0.3148 -0.2597
vn 0.7999 -0.5960 -0.0706
vn 0.8308 0.0157 -0.5564
vn 0.7613 0.5101 -0.4003
vn 0.3525 0.8225 -0.4465
vn -0.0000 0.9167 -0.3996
vn 0.9301 0.1419 0.3389
vn 0.7452 0.5334 0.4001
vn 0.4393 0.7922 0.4236
vn 0.7892 -0.2841 -0.5445
vn 0.4953 -0.3695 -0.7862
vn -0.0000 0.0315 -0.9995
vn -0.6352 0.1725 -0.7528
vn -0.4408 -0.0236 -0.8973
vn -0.0000 0.6832 -0.7302
vn -0.3525 0.8225 -0.4465
vn -0.7613 0.5101 -0.4003
vn -0.8906 0.4492 -0.0709
vn 0.7948 0.1023 -0.5981
vn -0.0000 0.1720 -0.9851
vn -0.7892 -0.2841 -0.5445
vn -0.8800 -0.2985 -0.3693
vn -0.7948 0.1023 -0.5981
vn -0.9129 -0.3148 -0.2597
vn -0.9590 -0.2044 -0.1966
vn -0.9301 0.1419 0.3389
vn -0.4407 0.7949 0.4171
vn -0.0000 0.8462 0.5328
vn 0.4392 0.7923 0.4235
vn -0.9352 -0.0157 -0.3537
vn -0.5808 0.2669 -0.7691
vn 0.0078 0.3605 -0.9327
vn 0.5832 0.4098 -0.7014
vn 0.9484 0.2038 -0.2430
vn 0.9388 0.0078 0.3442
vn 0.5830 -0.2758 0.7642
vn -0.3545 -0.9141 0.1970
vn -0.5797 0.6816 -0.4465
vn 0.4547 0.7997 -0.3920
vn 0.7619 -0.4085 -0.5027
vn 0.7222 0.6829 0.1098
vn 0.6830 -0.3454 -0.6436
vn 0.0392 0.7372 -0.6745
vn 0.0394 -0.8724 0.4873
vn 0.2289 0.3079 0.9235
vn 0.3909 -0.1017 0.9148
vn 0.8488 0.0472 0.5266
vn 0.9613 0.2736 -0.0313
vn 0.7295 0.3059 -0.6118
vn 0.1962 0.2983 -0.9341
vn -0.3846 0.0942 -0.9183
vn -0.8450 -0.0548 -0.5320
vn -0.7295 -0.3059 0.6118
vn 0.8578 -0.3936 -0.3305
vn 0.1415 -0.6213 -0.7707
vn -0.7607 0.2745 -0.5882
vn -0.8990 0.1735 0.4022
vn 0.1733 0.0158 0.9847
vn 0.7013 0.1655 0.6934
vn 0.9250 0.3528 0.1411
vn 0.8185 0.3384 -0.4643
vn 0.3616 0.2830 -0.8883
vn -0.1958 0.0548 -0.9791
vn -0.7195 -0.0938 -0.6882
vn -0.9510 -0.2751 -0.1415
vn -0.8493 -0.2517 0.4640
vn -0.2437 0.2830 -0.9276
vn -0.8308 0.0156 -0.5564
vn 0.5832 -0.4098 0.7014
vn -0.5830 -0.2758 0.7642
vn -0.9388 0.0078 0.3442
vn -0.9484 0.2038 -0.2430
vn -0.5832 0.4098 -0.7014
vn -0.0078 0.3605 -0.9327
vn 0.5808 0.2669 -0.7691
vn 0.9352 -0.0157 -0.3537
vn 0.9502 -0.2042 0.2356
vn 0.5635 0.1800 0.8062
vn -0.5434 -0.8032 0.2440
vn -0.7618 0.4085 0.5027
vn -0.4547 0.7997 -0.3920
vn 0.5797 0.6816 -0.4465
vn -0.7619 0.4085 0.5026
vn -0.2289 0.3079 0.9235
vn -0.0394 -0.8724 0.4873
vn -0.0392 0.7372 -0.6745
vn -0.8136 -0.5554 0.1721
vn -0.0393 -0.8724 0.4872
vn 0.7295 -0.3059 0.6118
vn 0.9607 -0.2757 0.0315
vn 0.8450 -0.0548 -0.5320
vn 0.3846 0.0942 -0.9183
vn -0.1962 0.2983 -0.9341
vn -0.7295 0.3059 -0.6118
vn -0.9613 0.2736 -0.0313
vn -0.8488 0.0472 0.5266
vn -0.3909 -0.1017 0.9148
vn 0.1958 -0.3054 0.9319
vn 0.7294 -0.3059 0.6118
vn 0.9608 -0.2756 0.0315
vn 0.0156 0.4628 0.8863
vn 0.8990 0.1735 0.4022
vn 0.7607 0.2745 -0.5882
vn -0.8578 -0.3936 -0.3305
vn 0.0157 0.4629 0.8863
vn 0.8493 -0.2517 0.4640
vn 0.9510 -0.2751 -0.1415
vn 0.7195 -0.0938 -0.6882
vn 0.1958 0.0548 -0.9791
vn -0.3616 0.2830 -0.8883
vn -0.8185 0.3384 -0.4643
vn -0.9250 0.3528 0.1411
vn -0.7013 0.1655 0.6934
vn -0.1733 0.0158 0.9847
vn 0.3932 -0.2045 0.8964
vt 0.508759 0.552856
vt 0.561005 0.837860
vt 0.489563 0.783356
vt 0.241302 0.059265
vt 0.138184 0.188751
vt 0.252258 0.177338
vt 0.152069 0.780853
vt 0.269745 0.813568
vt 0.298279 0.986908
vt 0.622559 0.218994
vt 0.728119 0.103699
vt 0.622986 0.102844
vt 0.623688 0.582520
vt 0.987030 0.642517
vt 0.623688 0.642517
vt 0.987030 0.398468
vt 0.623688 0.340332
vt 0.987549 0.340332
vt 0.865204 0.215515
vt 0.988068 0.215240
vt 0.988068 0.307770
vt 0.338531 0.117798
vt 0.586273 0.748413
vt 0.468933 0.157318
vt 0.442657 0.112061
vt 0.525665 0.099365
vt 0.113037 0.097107
vt 0.036957 0.204315
vt 0.864319 0.011749
vt 0.865204 0.106689
vt 0.728119 0.011749
vt 0.391144 0.364136
vt 0.347107 0.211792
vt 0.500641 0.211792
vt 0.625671 0.655090
vt 0.624359 0.712921
vt 0.727783 0.655487
vt 0.386841 0.807495
vt 0.561768 0.986237
vt 0.516632 0.865692
vt 0.405762 0.552460
vt 0.519226 0.345245
vt 0.019775 0.861359
vt 0.061127 0.725067
vt 0.012054 0.649261
vt 0.012787 0.025238
vt 0.119934 0.011932
vt 0.720825 0.209412
vt 0.622986 0.011749
vt 0.988068 0.105194
vt 0.988068 0.011749
vt 0.163116 0.516815
vt 0.059998 0.483337
vt 0.150848 0.288666
vt 0.609772 0.549103
vt 0.602753 0.467560
vt 0.853516 0.812195
vt 0.988281 0.812195
vt 0.988281 0.916748
vt 0.562042 0.984253
vt 0.988281 0.655334
vt 0.854034 0.715515
vt 0.754883 0.813934
vt 0.652191 0.812195
vt 0.655304 0.916748
vt 0.279541 0.541260
vt 0.261200 0.331543
vt 0.214844 0.211792
vt 0.842529 0.294342
vt 0.709290 0.272400
vt 0.760956 0.916748
vt 0.988281 0.714203
vt 0.150085 0.288055
vt 0.768311 0.988251
vt 0.988281 0.988251
vt 0.611176 0.364136
vt 0.612091 0.211792
vt 0.987030 0.582520
vt 0.623688 0.521881
vt 0.987030 0.521881
vt 0.623688 0.458679
vt 0.987030 0.458679
vt 0.623688 0.398468
s 1
usemtl f_hair0113
f 1/1/1 2/2/2 3/3/3
f 4/4/4 5/5/5 6/6/6
f 7/7/7 8/8/8 9/9/9
f 10/10/10 11/11/11 12/12/12
f 13/13/13 14/14/14 15/15/15
f 16/13/16 17/14/17 18/15/18
f 19/16/19 20/17/20 21/18/21
f 22/16/22 23/17/23 24/18/24
f 25/16/25 26/17/26 27/18/27
f 28/16/28 29/17/29 30/18/30
f 31/19/31 32/20/32 33/21/33
f 34/4/34 35/22/35 36/6/36
f 2/2/2 1/1/1 37/23/37
f 38/24/38 39/25/39 40/26/40
f 41/27/41 42/5/42 43/28/43
f 44/29/44 45/30/45 46/31/46
f 47/32/47 48/33/48 49/34/49
f 50/35/50 51/36/51 52/37/52
f 53/38/53 54/39/54 55/40/51
f 55/40/51 54/39/54 56/2/55
f 55/40/51 56/2/55 37/23/56
f 3/3/3 57/41/57 1/1/1
f 1/1/1 57/41/57 47/32/47
f 1/1/1 47/32/47 58/42/58
f 58/42/58 47/32/47 49/34/49
f 7/7/7 59/43/59 60/44/60
f 60/44/60 59/43/59 61/45/61
f 62/46/62 63/47/51 41/27/41
f 41/27/41 63/47/51 34/4/34
f 41/27/41 34/4/34 42/5/42
f 42/5/42 34/4/34 36/6/36
f 64/25/20 40/26/63 65/24/64
f 66/24/65 67/26/66 68/25/67
f 69/24/67 67/26/68 70/25/69
f 71/24/70 67/26/71 72/25/72
f 73/24/69 67/26/73 74/25/74
f 75/24/75 67/26/73 76/25/76
f 77/25/77 78/26/78 79/24/79
f 31/19/31 80/48/80 45/30/45
f 45/30/45 80/48/80 81/11/81
f 45/30/45 81/11/81 46/31/46
f 46/31/46 81/11/81 82/49/82
f 83/24/77 84/25/83 78/26/78
f 85/25/84 78/26/78 86/24/85
f 87/25/79 78/26/78 88/24/84
f 89/25/85 78/26/78 90/24/16
f 91/24/86 92/26/87 93/25/88
f 94/24/89 92/26/90 95/25/91
f 96/24/92 92/26/87 97/25/93
f 98/24/94 92/26/87 99/25/95
f 100/24/95 92/26/87 101/25/96
f 102/25/97 40/26/63 103/24/20
f 104/25/98 40/26/63 105/24/99
f 106/25/100 40/26/63 107/24/97
f 108/24/101 109/26/102 110/25/27
f 111/24/103 109/26/102 112/25/104
f 113/24/105 109/26/102 114/25/25
f 115/24/106 109/26/102 116/25/103
f 117/24/107 109/26/102 118/25/108
f 119/25/109 120/26/110 121/24/111
f 122/24/112 123/25/113 120/26/110
f 124/25/114 120/26/115 125/24/109
f 126/25/116 120/26/115 127/24/117
f 128/25/118 120/26/115 129/24/119
f 6/6/6 130/22/120 4/4/4
f 131/42/121 132/32/122 133/1/123
f 134/30/124 135/50/125 136/51/126
f 137/44/127 138/52/128 139/53/129
f 139/53/129 138/52/128 140/54/130
f 139/53/129 140/54/130 141/52/131
f 142/26/132 143/25/133 144/24/134
f 145/28/135 5/5/5 146/27/136
f 147/23/137 148/55/120 133/1/123
f 133/1/123 148/55/120 149/56/138
f 133/1/123 149/56/138 131/42/121
f 150/21/139 151/20/140 152/19/141
f 11/11/11 153/48/142 134/30/124
f 134/30/124 153/48/142 152/19/141
f 134/30/124 152/19/141 135/50/125
f 135/50/125 152/19/141 151/20/140
f 147/23/143 154/2/144 155/40/145
f 155/40/145 154/2/144 156/39/146
f 155/40/145 156/39/146 157/38/147
f 158/57/148 159/58/149 160/59/150
f 161/2/151 162/3/152 163/60/153
f 163/60/153 162/3/152 157/38/154
f 5/5/5 4/4/4 146/27/136
f 146/27/136 4/4/4 164/47/145
f 146/27/136 164/47/145 165/46/155
f 166/24/156 142/26/132 167/25/157
f 168/25/158 169/26/159 170/24/160
f 171/25/161 169/26/162 172/24/163
f 173/7/164 174/9/165 175/8/166
f 175/8/166 174/9/165 157/38/154
f 176/25/167 169/26/168 177/24/169
f 178/25/170 169/26/162 179/24/161
f 180/25/171 169/26/172 181/24/173
f 182/24/174 183/26/175 184/25/176
f 183/26/177 185/25/178 186/24/176
f 187/24/179 183/26/175 188/25/180
f 189/24/180 183/26/175 190/25/174
f 191/24/181 183/26/177 192/25/179
f 193/25/182 194/26/183 195/24/184
f 196/25/185 194/26/183 197/24/186
f 198/25/187 194/26/183 199/24/188
f 200/25/189 194/26/190 201/24/191
f 202/25/192 194/26/183 203/24/193
f 204/24/157 142/26/194 205/25/195
f 206/24/196 142/26/132 207/25/197
f 208/24/195 142/26/132 209/25/198
f 210/25/27 211/26/199 212/24/200
f 213/25/201 211/26/199 214/24/202
f 215/25/203 211/26/199 216/24/204
f 217/25/205 211/26/199 218/24/206
f 219/25/207 211/26/199 220/24/208
f 221/24/209 222/26/210 223/25/211
f 222/26/212 224/25/213 225/24/214
f 226/24/211 222/26/210 227/25/215
f 228/24/216 222/26/210 229/25/217
f 230/24/218 222/26/210 231/25/219
f 232/61/220 52/37/52 233/62/221
f 233/62/221 52/37/52 51/36/51
f 233/62/221 51/36/51 234/63/222
f 234/63/222 51/36/51 235/64/223
f 234/63/222 235/64/223 236/65/224
f 2/2/2 237/60/225 3/3/3
f 3/3/3 237/60/225 53/38/226
f 3/3/3 53/38/226 57/41/57
f 57/41/57 53/38/226 238/66/227
f 57/41/57 238/66/227 47/32/47
f 47/32/47 238/66/227 239/67/228
f 47/32/47 239/67/228 48/33/48
f 48/33/48 239/67/228 240/68/229
f 8/8/8 7/7/7 141/52/131
f 141/52/131 7/7/7 60/44/60
f 141/52/131 60/44/60 139/53/129
f 139/53/129 60/44/60 61/45/61
f 139/53/129 61/45/61 137/44/127
f 33/21/33 241/69/230 31/19/31
f 31/19/31 241/69/230 242/70/35
f 31/19/31 242/70/35 80/48/80
f 80/48/80 242/70/35 243/10/231
f 80/48/80 243/10/231 81/11/81
f 81/11/81 243/10/231 244/12/232
f 81/11/81 244/12/232 82/49/82
f 236/65/224 245/71/233 234/63/222
f 234/63/222 245/71/233 246/57/234
f 234/63/222 246/57/234 233/62/221
f 233/62/221 246/57/234 247/72/235
f 233/62/221 247/72/235 232/61/220
f 232/61/220 247/72/235 248/62/236
f 232/61/220 248/62/236 249/37/237
f 250/73/238 138/52/128 251/67/239
f 251/67/239 138/52/128 252/66/240
f 251/67/239 252/66/240 132/32/122
f 132/32/122 252/66/240 253/41/241
f 132/32/122 253/41/241 133/1/123
f 254/74/242 255/75/243 160/59/150
f 160/59/150 255/75/243 256/71/244
f 160/59/150 256/71/244 158/57/148
f 158/57/148 256/71/244 257/63/245
f 158/57/148 257/63/245 258/36/145
f 255/75/243 259/74/246 256/71/244
f 256/71/244 259/74/246 260/65/247
f 256/71/244 260/65/247 257/63/245
f 257/63/245 260/65/247 261/64/248
f 257/63/245 261/64/248 262/36/145
f 11/11/11 10/10/10 153/48/142
f 153/48/142 10/10/10 263/70/120
f 153/48/142 263/70/120 152/19/141
f 152/19/141 263/70/120 264/69/249
f 152/19/141 264/69/249 150/21/139
f 265/76/250 266/77/251 49/34/49
f 49/34/49 266/77/251 267/76/252
f 49/34/49 267/76/252 58/42/58
f 58/42/58 267/76/252 268/56/231
f 58/42/58 268/56/231 1/1/1
f 1/1/1 268/56/231 269/55/35
f 1/1/1 269/55/35 37/23/37
f 14/14/14 13/13/13 270/78/253
f 270/78/253 13/13/13 271/79/254
f 270/78/253 271/79/254 272/80/255
f 272/80/255 271/79/254 273/81/256
f 272/80/255 273/81/256 274/82/257
f 274/82/257 273/81/256 275/83/258
f 274/82/257 275/83/258 276/16/259
f 276/16/259 275/83/258 277/17/15
f 276/16/259 277/17/15 278/18/14
f 17/14/17 16/13/16 279/78/260
f 279/78/260 16/13/16 280/79/77
f 279/78/260 280/79/77 281/80/91
f 281/80/91 280/79/77 282/81/261
f 281/80/91 282/81/261 283/82/88
f 283/82/88 282/81/261 284/83/262
f 283/82/88 284/83/262 285/16/263
f 285/16/263 284/83/262 286/17/85
f 285/16/263 286/17/85 287/18/17
f 20/17/20 19/16/19 288/83/264
f 288/83/264 19/16/19 289/82/265
f 288/83/264 289/82/265 290/81/266
f 290/81/266 289/82/265 291/80/69
f 290/81/266 291/80/69 292/79/98
f 292/79/98 291/80/69 293/78/75
f 292/79/98 293/78/75 294/13/39
f 294/13/39 293/78/75 295/14/267
f 294/13/39 295/14/267 296/15/268
f 23/17/23 22/16/22 297/83/269
f 297/83/269 22/16/22 298/82/270
f 297/83/269 298/82/270 299/81/271
f 299/81/271 298/82/270 300/80/272
f 299/81/271 300/80/272 301/79/273
f 301/79/273 300/80/272 302/78/274
f 301/79/273 302/78/274 303/13/275
f 303/13/275 302/78/274 304/14/24
f 303/13/275 304/14/24 305/15/276
f 26/17/26 25/16/25 306/83/119
f 306/83/119 25/16/25 307/82/277
f 306/83/119 307/82/277 308/81/118
f 308/81/118 307/82/277 309/80/278
f 308/81/118 309/80/278 310/79/279
f 310/79/279 309/80/278 311/78/104
f 310/79/279 311/78/104 312/13/280
f 312/13/280 311/78/104 313/14/27
f 312/13/280 313/14/27 314/15/26
f 29/17/29 28/16/28 315/83/281
f 315/83/281 28/16/28 316/82/282
f 315/83/281 316/82/282 317/81/283
f 317/81/283 316/82/282 318/80/284
f 317/81/283 318/80/284 319/79/285
f 319/79/285 318/80/284 320/78/286
f 319/79/285 320/78/286 321/13/287
f 321/13/287 320/78/286 322/14/288
f 321/13/287 322/14/288 323/15/289
f 61/45/61 324/43/290 137/44/127
f 137/44/127 324/43/290 173/7/164
f 137/44/127 173/7/164 138/52/128
f 138/52/128 173/7/164 175/8/166
f 138/52/128 175/8/166 252/66/240
f 252/66/240 175/8/166 157/38/154
f 252/66/240 157/38/154 253/41/241
f 253/41/241 157/38/154 162/3/152
f 253/41/241 162/3/152 133/1/123
f 133/1/123 162/3/152 161/2/151
f 133/1/123 161/2/151 147/23/137
f 236/65/224 254/74/242 245/71/233
f 245/71/233 254/74/242 160/59/150
f 245/71/233 160/59/150 246/57/234
f 246/57/234 160/59/150 159/58/149
f 246/57/234 159/58/149 247/72/235
f 247/72/235 159/58/149 158/57/148
f 247/72/235 158/57/148 248/62/236
f 248/62/236 158/57/148 258/36/145
f 248/62/236 258/36/145 249/37/237
f 249/37/237 258/36/145 325/35/291
f 326/18/292 327/17/15 328/16/293
f 328/16/293 327/17/15 329/83/294
f 328/16/293 329/83/294 330/82/295
f 330/82/295 329/83/294 331/81/296
f 330/82/295 331/81/296 332/80/297
f 332/80/297 331/81/296 333/79/298
f 332/80/297 333/79/298 334/78/299
f 334/78/299 333/79/298 335/13/300
f 334/78/299 335/13/300 336/14/292
f 336/14/292 335/13/300 337/15/15
f 32/20/32 31/19/31 338/50/301
f 338/50/301 31/19/31 45/30/45
f 338/50/301 45/30/45 136/51/126
f 136/51/126 45/30/45 44/29/44
f 136/51/126 44/29/44 134/30/124
f 134/30/124 44/29/44 46/31/46
f 134/30/124 46/31/46 11/11/11
f 11/11/11 46/31/46 82/49/82
f 11/11/11 82/49/82 12/12/12
f 339/18/302 340/17/303 341/16/187
f 341/16/187 340/17/303 342/83/304
f 341/16/187 342/83/304 343/82/182
f 343/82/182 342/83/304 344/81/305
f 343/82/182 344/81/305 345/80/185
f 345/80/185 344/81/305 346/79/176
f 345/80/185 346/79/176 347/78/193
f 347/78/193 346/79/176 348/13/181
f 347/78/193 348/13/181 349/14/188
f 349/14/188 348/13/181 350/15/306
f 351/15/307 352/14/308 353/13/133
f 353/13/133 352/14/308 354/78/173
f 353/13/133 354/78/173 355/79/197
f 355/79/197 354/78/173 356/80/161
f 355/79/197 356/80/161 357/81/309
f 357/81/309 356/80/161 358/82/158
f 357/81/309 358/82/158 359/83/195
f 359/83/195 358/82/158 360/16/310
f 359/83/195 360/16/310 361/17/307
f 361/17/307 360/16/310 362/18/311
f 363/15/312 364/14/313 365/13/314
f 365/13/314 364/14/313 366/78/315
f 365/13/314 366/78/315 367/79/316
f 367/79/316 366/78/315 368/80/317
f 367/79/316 368/80/317 369/81/318
f 369/81/318 368/80/317 370/82/319
f 369/81/318 370/82/319 371/83/320
f 371/83/320 370/82/319 372/16/321
f 371/83/320 372/16/321 373/17/322
f 373/17/322 372/16/321 374/18/323
f 375/15/324 376/14/27 377/13/325
f 377/13/325 376/14/27 378/78/200
f 377/13/325 378/78/200 379/79/326
f 379/79/326 378/78/200 380/80/202
f 379/79/326 380/80/202 381/81/219
f 381/81/219 380/80/202 382/82/327
f 381/81/219 382/82/327 383/83/218
f 383/83/218 382/82/327 384/16/203
f 383/83/218 384/16/203 385/17/328
f 385/17/328 384/16/203 386/18/27
f 387/15/329 388/14/330 389/13/331
f 389/13/331 388/14/330 390/78/332
f 389/13/331 390/78/332 391/79/333
f 391/79/333 390/78/332 392/80/334
f 391/79/333 392/80/334 393/81/335
f 393/81/335 392/80/334 394/82/336
f 393/81/335 394/82/336 395/83/337
f 395/83/337 394/82/336 396/16/338
f 395/83/337 396/16/338 397/17/329
f 397/17/329 396/16/338 398/18/330
f 149/56/138 265/76/250 131/42/121
f 131/42/121 265/76/250 49/34/49
f 131/42/121 49/34/49 132/32/122
f 132/32/122 49/34/49 48/33/48
f 132/32/122 48/33/48 251/67/239
f 251/67/239 48/33/48 240/68/229
f 251/67/239 240/68/229 250/73/238
f 250/73/238 240/68/229 239/67/228
f 250/73/238 239/67/228 141/52/131
f 141/52/131 239/67/228 238/66/227
f 141/52/131 238/66/227 8/8/8
f 8/8/8 238/66/227 53/38/226
f 8/8/8 53/38/226 9/9/9
