mtllib f_hair011.mtl
o editpl_f-0000-1885
v 0.000000 64.035805 -11.022400
v -4.608304 63.047626 -9.897711
v -4.571268 64.805809 -7.217129
v 6.901874 63.416588 2.883955
v 6.288139 61.283024 6.168002
v 8.399176 58.421162 2.772821
v 7.745760 48.808891 -6.101330
v 0.000000 58.607246 -10.707888
v 8.296005 57.445816 -3.843061
v -7.370112 41.728024 5.181123
v -8.512929 39.235123 3.661904
v -6.206131 34.130611 7.950614
v 9.991713 39.992298 -12.391584
v 5.296110 49.960693 -12.459378
v 9.145182 48.693390 -9.414271
v -6.803994 61.440231 -8.596318
v 0.000000 66.243156 -7.512749
v -4.436352 65.896652 -1.633693
v 0.000000 35.298458 -17.679399
v 0.000000 28.278547 -15.776764
v -5.018342 32.728554 -14.124183
v -5.005115 61.193188 -6.361387
v 0.000000 59.489548 -11.569186
v -4.767029 53.756195 -7.939507
v -5.296110 49.960693 -12.459378
v -5.571233 41.740856 -14.426471
v -9.991713 39.992298 -12.391584
v 10.155728 53.624653 -4.040882
v 8.949421 53.983990 -7.746132
v 10.306517 57.898197 -2.419419
v 7.491801 56.701473 4.302042
v 7.753696 53.236439 2.212699
v 8.285424 55.504753 -0.334521
v -10.306517 57.898197 -2.419419
v -7.724597 62.948166 -1.221382
v -8.018237 62.200615 -5.596777
v -4.039541 63.692509 7.003739
v -6.901874 63.416588 2.883955
v -6.288139 61.283024 6.168002
v -8.399176 58.421162 2.775043
v 10.594866 45.209103 -8.768576
v 0.000000 49.466606 -15.044384
v 0.000000 43.216705 -16.434687
v 5.571233 41.740856 -14.426471
v 4.436352 65.896652 -1.633693
v 0.000000 67.016373 -2.011553
v 0.000000 66.275246 3.620782
v 0.000000 60.301262 -12.921701
v 4.608304 63.047626 -9.897711
v 5.092414 59.563339 -11.036848
v 4.571268 64.805809 -7.217129
v 8.018237 62.200615 -5.596777
v 6.803994 61.440231 -8.596318
v 8.531447 58.042572 -7.508302
v 4.039541 63.692509 7.003739
v 4.388735 64.934143 3.554101
v 0.000000 64.334183 8.294021
v 9.256289 45.882858 -4.869950
v 10.848826 42.206074 -7.499410
v 0.000000 48.972519 -11.720329
v 4.761738 42.257404 -9.867702
v 0.000000 36.052422 -13.232879
v -4.761738 42.257404 -9.867702
v -7.745760 48.808891 -6.101330
v -8.296005 57.445816 -3.843061
v -8.949421 42.526909 -2.192702
v -7.536773 47.252834 0.280057
v -9.256289 45.882858 -4.869950
v -8.285424 55.504753 -0.334521
v -7.753696 53.236439 2.212699
v -7.491801 56.701473 4.302042
v 0.000000 46.354488 -13.308452
v 0.000000 54.587162 -12.256001
v 4.843745 47.538380 -9.039746
v 4.767029 53.756195 -7.939507
v 5.293465 41.859570 -11.175765
v -0.042327 35.603252 -17.144838
v -0.002645 47.554420 -13.746325
v -0.042327 35.606461 -17.147062
v -5.293465 41.859570 -11.175765
v 2.698318 38.025570 -13.386245
v 0.013227 34.294239 -16.506922
v -2.698318 38.978455 -13.388468
v 5.595042 36.549721 -15.308885
v -5.595042 36.549721 -15.308885
v -10.343552 37.464104 -11.260228
v 6.269621 34.130611 7.950614
v 8.512929 39.235123 3.661904
v 7.367466 41.728024 5.181123
v 8.949421 42.526909 -2.192702
v 7.536773 47.252834 0.280057
v 8.510283 50.980957 -2.051561
v -5.092414 59.563339 -11.036848
v 0.000000 55.495129 -14.050835
v 5.341082 55.113335 -11.474720
v -8.531447 58.042572 -7.508302
v -8.949421 53.983990 -7.746132
v -10.155728 53.624653 -4.040882
v -9.145182 48.693390 -9.414271
v -10.594866 45.209103 -8.768576
v 5.473353 60.330139 7.607204
v 6.436282 58.109947 7.165998
v 9.084337 56.367805 -2.001550
v 7.433602 53.528400 -2.454982
v -5.341082 55.113335 -11.474720
v -10.848826 42.206074 -7.499410
v -0.002645 59.114166 -12.239330
v 5.941590 59.264961 -6.192461
v -0.002645 54.436367 -12.731660
v 6.407183 56.075844 -6.969296
v 6.568553 49.174644 -8.226235
v -6.568553 49.174644 -8.226235
v -6.407183 56.075844 -6.969296
v -5.941590 59.264961 -6.192461
v 5.005115 61.193188 -6.361387
v -4.843745 46.803661 -9.039746
v -4.388735 64.934143 3.554101
v 7.724597 62.948166 -1.221382
v -6.206131 34.130611 7.950614
v -5.386054 36.511219 6.620325
v -4.621531 41.022182 0.931310
v -7.536773 47.252834 0.280057
v -5.185003 43.832714 -1.860407
v -8.510283 50.977749 -2.051561
v -7.433602 53.534817 -2.454982
v -9.084337 56.367805 -2.001550
v -6.436282 58.109947 7.165998
v -5.473353 60.330139 7.607204
v -3.761773 60.981438 8.561856
v 0.000000 61.703320 9.662095
v 0.000000 59.566547 10.102190
v 3.761773 60.981438 8.561856
v 5.185003 43.832714 -1.860407
v 7.536773 47.252834 0.280057
v 4.621531 41.022182 0.931310
v 5.386054 36.511219 6.620325
v 6.269621 34.130611 7.950614
v 5.018342 32.728554 -14.124183
v 10.343552 37.464104 -11.260228
vn -0.0000 0.7378 -0.6750
vn -0.4803 0.5275 -0.7008
vn -0.5255 0.7844 -0.3294
vn 0.7604 0.5957 0.2587
vn 0.8098 0.3145 0.4953
vn 0.9436 0.0236 0.3302
vn 0.6040 0.1412 -0.7844
vn -0.0000 0.1491 -0.9888
vn 0.6423 0.1488 -0.7519
vn -0.2441 0.5196 0.8188
vn -0.9060 0.1733 0.3861
vn -0.3228 0.2756 0.9055
vn 0.7769 0.1099 -0.6200
vn 0.5403 0.2114 -0.8145
vn 0.8094 0.2436 -0.5344
vn -0.7370 0.4155 -0.5331
vn -0.0000 0.9569 -0.2903
vn -0.4315 0.9021 0.0078
vn -0.0000 -0.1491 -0.9888
vn -0.0000 -0.2592 -0.9658
vn -0.5254 -0.2901 -0.7999
vn -0.6935 0.1261 -0.7093
vn -0.0000 0.1568 -0.9876
vn -0.6787 0.1105 -0.7261
vn -0.5403 0.2114 -0.8145
vn -0.4234 0.1882 -0.8862
vn -0.7769 0.1099 -0.6200
vn 0.9437 -0.0157 0.3303
vn 0.8491 0.1337 -0.5110
vn 0.9950 0.0783 0.0627
vn 0.9434 -0.1965 0.2673
vn 0.9844 -0.0315 0.1732
vn 0.9333 -0.3059 0.1882
vn -0.9950 0.0783 0.0627
vn -0.8115 0.5830 0.0394
vn -0.8247 0.5027 -0.2592
vn -0.5120 0.5751 0.6381
vn -0.7604 0.5958 0.2587
vn -0.8098 0.3145 0.4953
vn -0.9436 0.0236 0.3302
vn 0.9437 0.1573 -0.2910
vn -0.0000 0.1886 -0.9821
vn -0.0000 0.1961 -0.9806
vn 0.4234 0.1882 -0.8862
vn 0.4315 0.9021 0.0078
vn -0.0000 1.0000 -0.0000
vn -0.0000 0.9737 0.2278
vn -0.0000 0.3468 -0.9379
vn 0.4803 0.5275 -0.7008
vn 0.5583 0.2123 -0.8020
vn 0.5255 0.7844 -0.3294
vn 0.8247 0.5027 -0.2592
vn 0.7370 0.4155 -0.5331
vn 0.8349 0.1811 -0.5198
vn 0.5120 0.5751 0.6381
vn 0.3845 0.8788 0.2825
vn -0.0000 0.8185 0.5745
vn 0.8915 -0.0552 0.4497
vn 0.9980 -0.0000 0.0628
vn 0.5345 0.1415 -0.8332
vn -0.0000 0.1096 -0.9940
vn -0.5345 0.1415 -0.8332
vn -0.6040 0.1412 -0.7844
vn -0.6423 0.1488 -0.7519
vn -0.9499 0.1963 0.2434
vn -0.9576 0.0863 0.2748
vn -0.8915 -0.0552 0.4497
vn -0.9333 -0.3059 0.1882
vn -0.9844 -0.0315 0.1733
vn -0.9434 -0.1965 0.2673
vn -0.0000 0.2277 -0.9737
vn -0.0000 0.1414 -0.9899
vn 0.6369 0.1572 -0.7548
vn 0.6748 0.1099 -0.7298
vn 0.5988 0.2127 -0.7721
vn 0.6038 0.2117 -0.7685
vn -0.0001 0.2202 -0.9754
vn -0.6064 0.2205 -0.7639
vn -0.6038 0.2117 -0.7685
vn 0.6134 0.2045 -0.7628
vn 0.0315 0.2517 -0.9673
vn -0.5927 0.2213 -0.7744
vn 0.5050 -0.0710 -0.8602
vn -0.5051 -0.0710 -0.8602
vn -0.8073 -0.1724 -0.5643
vn 0.3298 0.2749 0.9032
vn 0.9048 0.1809 0.3855
vn 0.2440 0.5196 0.8188
vn 0.9499 0.1962 0.2434
vn 0.9576 0.0864 0.2747
vn 0.3844 0.1961 0.9021
vn -0.5583 0.2123 -0.8020
vn -0.0000 0.1720 -0.9851
vn 0.5914 0.1262 -0.7964
vn -0.8349 0.1811 -0.5198
vn -0.8491 0.1337 -0.5110
vn -0.9437 -0.0157 0.3303
vn -0.8094 0.2436 -0.5344
vn -0.9437 0.1573 -0.2910
vn 0.6711 0.3316 0.6631
vn 0.8782 0.0863 0.4705
vn 0.8005 -0.4159 0.4316
vn 0.5099 -0.1491 0.8472
vn -0.5914 0.1262 -0.7964
vn -0.9980 -0.0000 0.0628
vn -0.0000 0.1019 -0.9948
vn 0.6602 0.1729 -0.7309
vn -0.0002 0.1961 -0.9806
vn 0.6219 0.1732 -0.7637
vn 0.6039 0.1804 -0.7764
vn -0.6039 0.1804 -0.7764
vn -0.6220 0.1732 -0.7637
vn -0.6602 0.1729 -0.7309
vn 0.6935 0.1261 -0.7093
vn -0.6519 0.1728 -0.7383
vn -0.3845 0.8788 0.2825
vn 0.8115 0.5830 0.0394
vn -0.3228 0.2756 0.9054
vn 0.5947 0.4148 0.6887
vn -0.2440 0.5197 0.8188
vn 0.8188 0.4251 0.3858
vn 0.8453 0.4187 0.3318
vn 0.7227 0.3614 0.5891
vn -0.3844 0.1961 0.9021
vn -0.5099 -0.1490 0.8472
vn -0.8004 -0.4159 0.4316
vn -0.8782 0.0863 0.4705
vn -0.6711 0.3316 0.6631
vn -0.4018 0.3387 0.8508
vn -0.0000 0.3768 0.9263
vn -0.0000 0.1961 0.9806
vn 0.4018 0.3387 0.8508
vn -0.7227 0.3614 0.5891
vn -0.8453 0.4187 0.3318
vn -0.8188 0.4251 0.3858
vn 0.2441 0.5196 0.8188
vn -0.5896 0.4167 0.6919
vn 0.3299 0.2749 0.9031
vn 0.5254 -0.2901 -0.7999
vn 0.8073 -0.1724 -0.5643
vt 0.125000 0.139313
vt 0.228119 0.248413
vt 0.306244 0.184357
vt 0.708313 0.197906
vt 0.875000 0.243469
vt 0.782532 0.346344
vt 0.984375 0.632812
vt 0.789062 0.570312
vt 0.984375 0.570312
vt 0.638000 0.838531
vt 0.507812 0.898438
vt 0.572266 0.985046
vt 0.320312 0.878113
vt 0.205353 0.581451
vt 0.342621 0.630554
vt 0.299988 0.281250
vt 0.180969 0.088531
vt 0.483063 0.122375
vt 0.013306 0.804688
vt 0.038269 0.985077
vt 0.188263 0.986633
vt 0.976562 0.757812
vt 0.804688 0.757812
vt 0.976562 0.804688
vt 0.191406 0.729156
vt 0.483246 0.501099
vt 0.352844 0.498688
vt 0.528992 0.357117
vt 0.950500 0.410156
vt 0.953125 0.562500
vt 0.782806 0.500000
vt 0.540344 0.222656
vt 0.386719 0.265625
vt 0.845032 0.123688
vt 0.398438 0.750000
vt 0.017181 0.534363
vt 0.015625 0.662750
vt 0.305969 0.041656
vt 0.558594 0.022125
vt 0.079681 0.204681
vt 0.214050 0.335938
vt 0.344849 0.385040
vt 0.708313 0.118469
vt 0.709625 0.020813
vt 0.518951 0.595978
vt 0.470978 0.875000
vt 0.789062 0.632812
vt 0.937500 0.710938
vt 0.828125 0.750000
vt 0.512268 0.773438
vt 0.640625 0.695312
vt 0.804688 0.851562
vt 0.804688 0.804688
vt 0.976562 0.851562
vt 0.960938 0.937500
vt 0.820312 0.968750
vt 0.806641 0.851562
vt 0.179688 0.851562
vt 0.366058 0.979889
vt 0.639038 0.584351
vt 0.037476 0.362488
vt 0.208679 0.454224
vt 0.953125 0.242188
vt 0.954681 0.354675
vt 0.563599 0.415161
vt 0.676544 0.510925
vt 0.676331 0.986420
vt 0.742188 0.867188
vt 0.781250 0.781250
vt 0.781250 0.679688
vt 0.953125 0.148438
vt 0.914062 0.028625
vt 0.985657 0.027344
s 1
usemtl f_hair097
f 1/1/1 2/2/2 3/3/3
f 4/4/4 5/5/5 6/6/6
f 7/7/7 8/8/8 9/9/9
f 10/10/10 11/11/11 12/12/12
f 13/13/13 14/14/14 15/15/15
f 2/2/2 16/16/16 3/3/3
f 17/17/17 3/3/3 18/18/18
f 19/19/19 20/20/20 21/21/21
f 22/22/22 23/23/23 24/24/24
f 25/14/25 26/25/26 27/13/27
f 28/26/28 29/27/29 30/28/30
f 31/29/31 32/30/32 33/31/33
f 34/28/34 35/32/35 36/33/36
f 37/34/37 38/4/38 39/5/39
f 39/5/39 38/4/38 40/6/40
f 13/13/13 15/15/15 41/35/41
f 42/36/42 14/14/14 43/37/43
f 43/37/43 14/14/14 44/25/44
f 45/18/45 46/38/46 47/39/47
f 2/2/2 1/1/1 48/40/48
f 48/40/48 1/1/1 49/2/49
f 48/40/48 49/2/49 50/41/50
f 51/3/51 52/33/52 53/16/53
f 53/16/53 52/33/52 54/42/54
f 5/5/5 4/4/4 55/34/55
f 55/34/55 4/4/4 56/43/56
f 55/34/55 56/43/56 57/44/57
f 28/26/28 58/45/58 59/46/59
f 8/8/8 7/7/7 60/47/8
f 60/47/8 7/7/7 61/48/60
f 60/47/8 61/48/60 62/49/61
f 62/49/61 63/48/62 60/47/8
f 60/47/8 63/48/62 64/7/63
f 60/47/8 64/7/63 8/8/8
f 8/8/8 64/7/63 65/9/64
f 11/11/11 10/10/10 66/50/65
f 66/50/65 10/10/10 67/51/66
f 66/50/65 67/51/66 68/45/67
f 69/31/68 70/30/69 71/29/70
f 72/52/71 73/53/72 74/54/73
f 74/54/73 73/53/72 75/24/74
f 76/55/75 77/56/76 78/57/77
f 78/57/77 79/56/78 80/55/79
f 74/54/73 81/55/80 72/52/71
f 72/52/71 81/55/80 82/56/81
f 72/52/71 82/56/81 83/55/82
f 14/14/14 13/13/13 44/25/44
f 44/25/44 13/13/13 84/58/83
f 44/25/44 84/58/83 43/37/43
f 43/37/43 84/58/83 19/19/19
f 43/37/43 19/19/19 85/58/84
f 85/58/84 19/19/19 21/21/21
f 85/58/84 21/21/21 86/59/85
f 87/12/86 88/11/87 89/10/88
f 89/10/88 88/11/87 90/50/89
f 89/10/88 90/50/89 91/51/90
f 91/51/90 90/50/89 58/45/58
f 91/51/90 58/45/58 92/60/91
f 92/60/91 58/45/58 28/26/28
f 16/16/16 2/2/2 93/41/92
f 93/41/92 2/2/2 48/40/48
f 93/41/92 48/40/48 94/61/93
f 94/61/93 48/40/48 50/41/50
f 94/61/93 50/41/50 95/62/94
f 3/3/3 17/17/17 1/1/1
f 1/1/1 17/17/17 51/3/51
f 1/1/1 51/3/51 49/2/49
f 49/2/49 51/3/51 53/16/53
f 49/2/49 53/16/53 50/41/50
f 50/41/50 53/16/53 54/42/54
f 50/41/50 54/42/54 95/62/94
f 36/33/36 96/42/95 34/28/34
f 34/28/34 96/42/95 97/27/96
f 34/28/34 97/27/96 98/26/97
f 98/26/97 97/27/96 99/15/98
f 98/26/97 99/15/98 100/35/99
f 55/34/55 101/63/100 5/5/5
f 5/5/5 101/63/100 102/64/101
f 5/5/5 102/64/101 6/6/6
f 6/6/6 102/64/101 31/29/31
f 6/6/6 31/29/31 103/65/102
f 103/65/102 31/29/31 33/31/33
f 103/65/102 33/31/33 104/66/103
f 105/62/104 42/36/42 25/14/25
f 25/14/25 42/36/42 43/37/43
f 25/14/25 43/37/43 26/25/26
f 26/25/26 43/37/43 85/58/84
f 26/25/26 85/58/84 27/13/27
f 27/13/27 85/58/84 86/59/85
f 27/13/27 86/59/85 106/46/105
f 107/23/106 108/22/107 109/53/108
f 109/53/108 108/22/107 110/24/109
f 109/53/108 110/24/109 78/57/77
f 78/57/77 110/24/109 111/54/110
f 78/57/77 111/54/110 76/55/75
f 80/55/79 112/54/111 78/57/77
f 78/57/77 112/54/111 113/24/112
f 78/57/77 113/24/112 109/53/108
f 109/53/108 113/24/112 114/22/113
f 109/53/108 114/22/113 107/23/106
f 115/22/114 75/24/74 23/23/23
f 23/23/23 75/24/74 73/53/72
f 23/23/23 73/53/72 24/24/24
f 24/24/24 73/53/72 72/52/71
f 24/24/24 72/52/71 116/54/115
f 116/54/115 72/52/71 83/55/82
f 117/43/116 47/39/47 18/18/18
f 18/18/18 47/39/47 46/38/46
f 18/18/18 46/38/46 17/17/17
f 17/17/17 46/38/46 45/18/45
f 17/17/17 45/18/45 51/3/51
f 51/3/51 45/18/45 118/32/117
f 51/3/51 118/32/117 52/33/52
f 52/33/52 118/32/117 30/28/30
f 52/33/52 30/28/30 54/42/54
f 54/42/54 30/28/30 29/27/29
f 54/42/54 29/27/29 95/62/94
f 119/67/118 120/68/119 10/10/120
f 10/10/120 120/68/119 121/69/121
f 10/10/120 121/69/121 122/51/122
f 122/51/122 121/69/121 123/70/123
f 122/51/122 123/70/123 124/60/124
f 124/60/124 123/70/123 125/66/125
f 124/60/124 125/66/125 98/26/97
f 98/26/97 125/66/125 126/65/126
f 98/26/97 126/65/126 34/28/34
f 34/28/34 126/65/126 40/6/40
f 34/28/34 40/6/40 35/32/35
f 35/32/35 40/6/40 38/4/38
f 125/66/125 69/31/68 126/65/126
f 126/65/126 69/31/68 71/29/70
f 126/65/126 71/29/70 40/6/40
f 40/6/40 71/29/70 127/64/127
f 40/6/40 127/64/127 39/5/39
f 39/5/39 127/64/127 128/63/128
f 39/5/39 128/63/128 37/34/37
f 37/34/37 128/63/128 129/71/129
f 37/34/37 129/71/129 130/72/130
f 130/72/130 129/71/129 131/73/131
f 130/72/130 131/73/131 132/71/132
f 67/51/66 124/60/124 68/45/67
f 68/45/67 124/60/124 98/26/97
f 68/45/67 98/26/97 106/46/105
f 106/46/105 98/26/97 100/35/99
f 106/46/105 100/35/99 27/13/27
f 27/13/27 100/35/99 99/15/98
f 27/13/27 99/15/98 25/14/25
f 25/14/25 99/15/98 97/27/96
f 25/14/25 97/27/96 105/62/104
f 105/62/104 97/27/96 96/42/95
f 117/43/116 57/44/57 47/39/47
f 47/39/47 57/44/57 56/43/56
f 47/39/47 56/43/56 45/18/45
f 45/18/45 56/43/56 4/4/4
f 45/18/45 4/4/4 118/32/117
f 118/32/117 4/4/4 6/6/6
f 118/32/117 6/6/6 30/28/30
f 30/28/30 6/6/6 103/65/102
f 30/28/30 103/65/102 28/26/28
f 28/26/28 103/65/102 104/66/103
f 28/26/28 104/66/103 92/60/91
f 92/60/91 104/66/103 133/70/133
f 92/60/91 133/70/133 134/51/134
f 134/51/134 133/70/133 135/69/135
f 134/51/134 135/69/135 89/10/136
f 89/10/136 135/69/135 136/68/137
f 89/10/136 136/68/137 137/67/138
f 20/20/20 19/19/19 138/21/139
f 138/21/139 19/19/19 84/58/83
f 138/21/139 84/58/83 139/59/140
f 139/59/140 84/58/83 13/13/13
f 139/59/140 13/13/13 59/46/59
f 59/46/59 13/13/13 41/35/41
f 59/46/59 41/35/41 28/26/28
f 28/26/28 41/35/41 15/15/15
f 28/26/28 15/15/15 29/27/29
f 29/27/29 15/15/15 14/14/14
f 29/27/29 14/14/14 95/62/94
f 95/62/94 14/14/14 42/36/42
f 95/62/94 42/36/42 94/61/93
f 94/61/93 42/36/42 105/62/104
f 94/61/93 105/62/104 93/41/92
f 93/41/92 105/62/104 96/42/95
f 93/41/92 96/42/95 16/16/16
f 16/16/16 96/42/95 36/33/36
f 16/16/16 36/33/36 3/3/3
f 3/3/3 36/33/36 35/32/35
f 3/3/3 35/32/35 18/18/18
f 18/18/18 35/32/35 38/4/38
f 18/18/18 38/4/38 117/43/116
f 117/43/116 38/4/38 37/34/37
f 117/43/116 37/34/37 57/44/57
f 57/44/57 37/34/37 130/72/130
f 57/44/57 130/72/130 55/34/55
f 55/34/55 130/72/130 132/71/132
f 55/34/55 132/71/132 101/63/100
