mtllib f_hair001.mtl
o editpl_f-0000-1898
v -6.613525 52.460014 -7.271584
v -9.356815 45.286102 -9.392045
v -7.809250 50.919998 -5.064438
v 8.052628 56.553890 6.695896
v 7.616135 53.698444 8.117316
v 7.925648 51.670753 6.564756
v 7.087053 60.875561 -6.828156
v 4.671794 64.398346 -6.664787
v 7.946811 60.612476 -4.626566
v 4.142712 52.107094 -18.497356
v 1.870305 63.192001 -9.410939
v 4.399317 60.740810 -9.104206
v 4.536878 54.077030 -9.459838
v 4.589786 48.026051 -10.182217
v 0.000000 47.750130 -11.540290
v 8.052628 56.553890 6.695896
v 8.079082 60.689476 3.895287
v 6.261685 61.119396 7.686110
v -9.290679 52.071800 6.667000
v -8.113472 52.071800 8.332918
v -7.134670 57.256523 9.157541
v -7.486510 63.705341 1.720369
v -3.497232 66.762917 -2.535000
v -8.203416 63.734215 -4.412075
v 7.388630 48.382179 7.227122
v -1.870305 63.192001 -9.410939
v -4.142712 52.107094 -18.497356
v -4.399317 60.660599 -9.104206
v 0.000000 54.141197 -11.077967
v -4.166520 59.717339 10.126640
v -3.330571 57.753819 11.202429
v -1.193080 60.099136 11.626966
v -1.058164 63.657215 -10.188886
v 1.679835 57.461857 -18.585154
v -3.798809 60.987854 -10.742339
v 9.594901 51.577713 1.188032
v 7.862158 55.148624 0.346738
v 8.147862 59.855301 0.494547
v -8.436212 59.685257 -1.588127
v -7.946811 60.612476 -4.626566
v -9.848861 55.941093 -6.104664
v 7.862158 55.148624 0.346738
v 8.338332 56.213802 -1.206933
v -8.338332 56.213802 -1.206933
v -7.862158 55.148624 0.346738
v -9.110791 59.855301 0.834621
v 6.613525 52.460014 -7.271584
v 4.769674 56.646935 -10.079972
v 8.251033 54.888748 -5.128896
v -2.827943 52.809727 -11.769228
v -4.769674 56.646935 -10.079972
v 0.000000 58.196575 -11.393592
v -4.785546 51.914593 -9.769905
v 4.785546 51.914593 -9.769905
v 4.073931 44.689346 -14.228652
v 2.827943 52.809727 -11.769228
v 0.000000 52.004425 -11.683654
v 0.000000 54.118740 -11.263563
v 7.076471 56.842644 8.930826
v 5.862228 59.579380 9.148650
v 4.399317 60.740810 -9.104206
v 5.568588 62.251949 -7.900611
v 10.724491 51.202332 -13.645191
v 0.039681 61.074478 -10.328916
v 5.814611 61.292648 -8.111768
v 7.087053 60.875561 -6.828156
v 9.848861 55.941093 -6.104664
v 7.946811 60.612476 -4.626566
v 8.436212 59.685257 -1.588127
v 0.000000 57.712112 -12.428261
v 1.777715 62.938541 -9.043080
v 5.018342 56.377430 -11.503614
v 4.399317 60.740810 -9.104206
v 1.679835 57.461857 -18.585154
v 4.838455 64.908478 -6.372501
v 4.938980 60.987854 -10.742339
v 7.491801 48.481640 -5.659012
v 6.161160 51.962715 -2.464984
v 6.391310 49.116894 -2.690589
v 7.809250 50.919998 -5.064438
v 8.735143 55.078041 -18.405115
v 6.727277 62.598454 -9.608760
v 7.899194 59.531254 -8.993070
v 7.655816 63.432629 -4.672131
v 10.034040 59.030750 -6.920397
v 7.473283 55.183918 -2.469430
v 6.161160 51.962715 -2.464984
v 7.809250 50.919998 -5.064438
v 10.647775 45.395187 3.360727
v 9.256289 56.091885 3.061772
v 8.147862 59.855301 0.494547
v 1.978767 63.281837 9.343136
v 1.777715 61.433819 10.043289
v 3.838490 59.714130 10.275561
v 3.145392 58.709911 10.986827
v 4.653276 54.943291 10.325573
v 8.809215 52.020466 5.442290
v 9.922932 46.104237 3.620783
v 10.454660 53.265312 -0.645700
v 11.023423 55.764633 -2.303838
v 12.518079 49.187477 -2.640578
v 12.105395 53.278149 -4.305384
v 2.039611 67.026001 -2.048228
v 2.039611 65.553360 -7.470517
v -3.436387 65.688110 -6.372501
v -5.568588 62.251949 -7.900611
v -3.272372 65.258186 -6.164678
v -4.399317 60.660599 -9.104206
v 1.679835 65.219688 -7.271585
v -3.272372 65.258186 -6.164678
v -8.462666 59.024334 -9.322031
v -11.332936 58.758038 -6.722576
v -10.724491 51.202332 -13.645191
v -7.087053 60.875561 -6.828156
v -7.946811 60.612476 -4.626566
v -7.087053 60.875561 -6.828156
v -5.814611 61.292648 -8.111768
v -5.018342 56.377430 -11.503614
v -9.200735 45.725651 6.605876
v -3.534268 52.642891 12.189312
v 0.005291 59.204002 11.980376
v -4.536878 54.077030 -9.459838
v -7.491801 48.481640 -5.659012
v -7.809250 50.919998 -5.064438
v -2.425841 53.958321 -13.013943
v -9.875315 51.898548 0.707928
v -12.272056 45.106438 2.617232
v -10.409688 56.098301 3.325163
v -9.110791 59.855301 0.834621
v -8.338332 56.213802 -1.206933
v -8.695462 51.789467 -4.317609
v -8.092309 45.793026 -6.659228
v -4.589786 48.026051 -10.182217
v -4.894008 43.864796 -10.960163
v -7.319849 52.828976 -10.462277
v -12.150367 45.417648 -10.373369
v -10.372652 52.107094 -7.650555
v -9.359460 48.805683 -6.695904
v -6.478609 46.652870 -3.578559
v -6.391310 49.116894 -2.690589
v -6.161160 51.962715 -2.464984
v -3.293535 66.207870 2.995090
v -6.846321 62.912872 5.282254
v -2.843816 64.533096 7.310473
v -8.475893 57.702484 6.451398
v -10.306517 50.984165 5.272253
v -12.026033 45.841152 2.949526
v -12.306447 53.278149 -4.305384
v -14.264050 46.906330 -1.720378
v -11.782655 55.764633 -2.303838
v -10.274772 53.265312 -0.465661
v -9.110791 59.855301 0.834621
v 9.359460 48.805683 -6.695904
v 10.372652 52.107094 -7.650555
v 8.695462 51.789467 -4.317609
v 8.338332 56.213802 -1.206933
v 8.147862 59.855301 0.494547
v 7.319849 52.828976 -10.462277
v 10.827662 46.357700 -9.693222
v 4.896654 65.983284 -2.535000
v 6.999754 63.406963 1.720369
v 4.692957 65.425026 2.995090
v 4.362281 63.910675 6.550307
v 9.825052 59.483128 -2.223822
v 11.430816 55.860882 -5.234475
v 12.682095 52.508141 -10.077750
v 6.200841 52.918812 8.988616
v 5.372827 55.501545 9.864362
v 4.605659 57.619068 10.239998
v 4.671794 64.398346 -6.664787
v -4.399317 60.660599 -9.104206
v -1.777715 62.938541 -9.043080
v 0.039681 61.026356 -9.916604
v -8.674299 55.078041 -17.905006
v -5.608269 62.598454 -9.608760
v 9.356815 45.286102 -9.392045
v -6.161160 51.962715 -2.464984
v -7.473283 55.183918 -2.469430
v -8.251033 54.888748 -5.128896
v -4.073931 44.689346 -14.228652
v 7.460056 47.172623 -16.435799
v 2.640119 53.720901 -12.947262
v 0.000000 48.218552 -18.987463
v 6.478609 46.652870 -3.578559
v 8.092309 45.793026 -6.659228
v 4.894008 43.864796 -10.960163
v 0.000000 41.811443 -13.178422
v -16.041765 51.709255 -9.037524
v -11.430816 55.860882 -4.774375
v -10.605448 59.483128 -2.223822
v -7.460056 47.172623 -16.435799
v 1.777715 61.433819 10.043289
v -2.327961 63.025166 8.904152
v -6.079152 61.141853 7.927273
v -8.475893 57.702484 6.451398
v -7.862158 55.148624 0.346738
v -8.430921 60.991062 4.255364
v -4.838455 55.501545 10.644531
v -6.171741 52.469639 9.712108
v -7.867449 52.145592 8.616313
v -7.465347 45.889278 7.652771
v 4.394026 62.287243 8.384039
v 2.158654 64.767311 7.231567
v 2.259180 66.284866 3.505201
v 2.039611 67.026001 -2.048228
v 2.039611 65.553360 -7.470517
v 1.978767 63.281837 9.343136
v 2.259180 66.284866 3.505201
vn -0.8434 0.1340 -0.5203
vn -0.8085 0.4239 -0.4082
vn -0.9977 -0.0236 -0.0629
vn 0.9345 0.1335 0.3299
vn 0.8419 -0.0708 0.5350
vn 0.9618 -0.0552 0.2680
vn 0.7876 0.4804 -0.3859
vn 0.5428 0.5899 -0.5978
vn 0.8654 0.4642 -0.1888
vn 0.1889 0.6455 -0.7400
vn 0.1651 0.6528 -0.7393
vn 0.3778 0.5352 -0.7555
vn 0.6857 0.0631 -0.7251
vn 0.6202 0.1884 -0.7615
vn -0.0000 0.1885 -0.9821
vn 0.9345 0.1335 0.3298
vn 0.9007 0.3838 0.2036
vn 0.7634 0.4407 0.4722
vn -0.8388 0.0627 0.5409
vn -0.8184 0.0157 0.5744
vn -0.6816 0.1645 0.7130
vn -0.7615 0.6202 0.1884
vn -0.3369 0.9403 -0.0470
vn -0.7299 0.6593 -0.1805
vn 0.8030 -0.1260 0.5826
vn -0.1968 0.6611 -0.7241
vn -0.2040 0.6435 -0.7377
vn -0.3846 0.5651 -0.7299
vn -0.0000 0.0940 -0.9956
vn -0.4933 0.3446 0.7987
vn -0.5182 0.2277 0.8244
vn -0.1724 0.4623 0.8698
vn -0.2590 0.7535 -0.6043
vn 0.1417 0.7637 -0.6298
vn -0.1646 0.6896 -0.7053
vn 0.8882 0.1021 -0.4480
vn 0.9089 -0.0392 -0.4152
vn 0.9842 0.1496 0.0944
vn -0.9940 0.1096 -0.0000
vn -0.8474 0.5021 -0.1726
vn -0.9462 0.2366 -0.2208
vn 0.9842 0.1496 0.0945
vn 0.9089 -0.0392 -0.4153
vn 0.9686 -0.0473 0.2441
vn -0.9879 -0.1098 0.1098
vn -0.8040 -0.1497 -0.5755
vn -0.9899 0.1414 0.0078
vn 0.8434 0.1340 -0.5203
vn 0.6909 0.0314 -0.7223
vn 0.9596 -0.1259 -0.2517
vn -0.2595 0.1652 -0.9515
vn -0.6909 0.0314 -0.7223
vn -0.0000 0.1018 -0.9948
vn -0.7538 0.1649 -0.6360
vn 0.7538 0.1649 -0.6360
vn 0.3599 0.3207 -0.8761
vn 0.2595 0.1651 -0.9515
vn -0.0000 0.2352 -0.9720
vn -0.0000 0.0785 -0.9969
vn 0.7314 0.0865 0.6764
vn 0.5655 0.2749 0.7776
vn 0.3777 0.5352 -0.7556
vn 0.4952 0.5738 -0.6524
vn 0.5036 0.5744 -0.6453
vn -0.0548 0.6103 -0.7903
vn 0.6141 0.3779 -0.6928
vn 0.9462 0.2366 -0.2208
vn 0.9830 0.1258 0.1337
vn -0.0000 0.4876 -0.8730
vn 0.1415 0.5345 -0.8332
vn 0.4697 0.4227 -0.7750
vn 0.3777 0.4879 -0.7869
vn 0.1418 0.7637 -0.6298
vn 0.3766 0.8317 -0.4080
vn 0.0473 0.7409 -0.6700
vn 0.9994 0.0315 0.0157
vn 0.8751 -0.1340 0.4651
vn 0.9351 -0.0236 0.3536
vn 0.9977 -0.0236 -0.0628
vn 0.4808 0.7172 -0.5044
vn 0.4947 0.7303 -0.4712
vn 0.8192 0.4569 -0.3466
vn 0.7860 0.6052 -0.1258
vn 0.8189 0.5118 -0.2598
vn 0.8709 -0.2040 0.4472
vn 0.8750 -0.1340 0.4651
vn 0.9977 -0.0235 -0.0628
vn 0.9861 0.1174 -0.1174
vn 0.8882 0.1022 -0.4480
vn 0.2045 0.6134 0.7628
vn 0.1102 0.4880 0.8659
vn 0.4252 0.3307 0.8425
vn 0.4570 0.2836 0.8430
vn 0.6285 0.1100 0.7700
vn 0.9494 0.0706 0.3060
vn 0.9466 0.0782 0.3129
vn 0.8232 0.1725 0.5409
vn 0.9049 0.2361 0.3541
vn 0.8977 0.1811 0.4016
vn 0.9480 0.2507 0.1959
vn 0.1487 0.9788 -0.1409
vn 0.1254 0.8858 -0.4468
vn -0.2114 0.8613 -0.4620
vn -0.4792 0.6285 -0.6127
vn -0.4943 0.6983 -0.5178
vn -0.3845 0.5651 -0.7299
vn -0.0000 0.7071 -0.7071
vn -0.4942 0.6983 -0.5178
vn -0.6614 0.5826 -0.4724
vn -0.8271 0.5593 -0.0552
vn -0.4952 0.5738 -0.6524
vn -0.7760 0.5330 -0.3371
vn -0.8474 0.5022 -0.1726
vn -0.7761 0.5330 -0.3371
vn -0.6073 0.3865 -0.6941
vn -0.4726 0.4253 -0.7719
vn -0.8184 -0.0157 0.5744
vn -0.1809 0.1259 0.9754
vn -0.0000 0.3606 0.9327
vn -0.6857 0.0631 -0.7251
vn -0.9994 0.0315 0.0157
vn -0.9977 -0.0236 -0.0628
vn -0.2992 0.4330 -0.8503
vn -0.7485 0.1103 -0.6539
vn -0.8698 0.1724 -0.4623
vn -0.9735 0.2119 0.0863
vn -0.9899 0.1414 0.0079
vn -0.9127 -0.1102 0.3934
vn -0.9358 0.2202 -0.2753
vn -0.6202 0.1884 -0.7615
vn -0.4558 0.2122 -0.8644
vn -0.7288 0.3762 -0.5721
vn -0.9678 0.2518 0.0079
vn -0.9901 0.1257 0.0628
vn -0.8402 -0.0942 0.5340
vn -0.9121 -0.0315 0.4089
vn -0.9351 -0.0236 0.3536
vn -0.8751 -0.1340 0.4651
vn -0.3458 0.9039 0.2515
vn -0.6551 0.6393 0.4026
vn -0.2911 0.7710 0.5664
vn -0.8507 0.2599 0.4569
vn -0.8947 0.1413 0.4238
vn -0.9138 0.1260 0.3860
vn -0.9549 0.2818 -0.0939
vn -0.8799 0.2671 0.3929
vn -0.9317 0.2447 0.2685
vn -0.6868 0.1105 0.7184
vn 0.8727 -0.1258 0.4718
vn 0.9968 0.0785 0.0157
vn 0.9127 -0.1102 0.3934
vn 0.9686 -0.0472 0.2441
vn 0.7394 0.3382 -0.5821
vn 0.9895 0.1099 -0.0942
vn 0.5359 0.8433 -0.0394
vn 0.8252 0.5266 0.2043
vn 0.5564 0.7993 0.2272
vn 0.5972 0.6757 0.4322
vn 0.9112 0.3378 0.2356
vn 0.9249 0.3762 0.0549
vn 0.8252 0.4794 -0.2986
vn 0.5647 -0.1255 0.8157
vn 0.5178 0.0235 0.8552
vn 0.5417 0.1178 0.8322
vn 0.5427 0.5900 -0.5978
vn -0.3695 0.4953 -0.7862
vn -0.1492 0.5339 -0.8323
vn -0.0078 0.6062 -0.7952
vn -0.3389 0.7564 -0.5594
vn -0.3694 0.7310 -0.5738
vn 0.8085 0.4239 -0.4082
vn -0.8750 -0.1341 0.4651
vn -0.8709 -0.2040 0.4472
vn -0.9596 -0.1258 -0.2517
vn -0.3599 0.3207 -0.8761
vn 0.4728 0.5122 -0.7170
vn 0.2819 0.4228 -0.8613
vn -0.0000 0.5655 -0.8247
vn 0.9121 -0.0315 0.4089
vn 0.9358 0.2202 -0.2753
vn 0.4558 0.2122 -0.8644
vn -0.0000 0.2662 -0.9639
vn -0.8238 0.5649 -0.0471
vn -0.9344 0.3455 0.0864
vn -0.9268 0.3613 0.1021
vn -0.4936 0.5092 -0.7051
vn 0.1102 0.4880 0.8658
vn -0.2595 0.5820 0.7707
vn -0.6456 0.4645 0.6062
vn -0.8040 -0.1498 -0.5754
vn -0.8730 0.3854 0.2988
vn -0.5270 0.1180 0.8416
vn -0.5353 -0.0629 0.8423
vn -0.5252 -0.0862 0.8466
vn -0.5127 -0.1578 0.8440
vn 0.5212 0.5370 0.6633
vn 0.1963 0.8557 0.4789
vn 0.1732 0.9522 0.2518
vn 0.1488 0.9788 -0.1409
vn 0.1255 0.8858 -0.4468
vn 0.2044 0.6134 0.7629
vn 0.1962 0.8557 0.4789
vn 0.1731 0.9522 0.2518
vt 0.750000 0.896851
vt 0.737488 0.740601
vt 0.793732 0.865601
vt 0.816406 0.378906
vt 0.933594 0.339844
vt 0.910156 0.417969
vt 0.425781 0.839844
vt 0.277344 0.964844
vt 0.425781 0.964844
vt 0.589844 0.667969
vt 0.589844 0.839844
vt 0.667969 0.839844
vt 0.777344 0.675781
vt 0.878113 0.681244
vt 0.878906 0.832031
vt 0.755188 0.402344
vt 0.636719 0.355469
vt 0.744781 0.270813
vt 0.871094 0.410156
vt 0.917969 0.378906
vt 0.871094 0.308594
vt 0.532349 0.263367
vt 0.373871 0.159576
vt 0.328125 0.266602
vt 0.987457 0.433594
vt 0.795288 0.831238
vt 0.878906 0.199219
vt 0.957031 0.191406
vt 0.886719 0.082031
vt 0.204224 0.081451
vt 0.017181 0.017670
vt 0.094513 0.209351
vt 0.582031 0.605469
vt 0.542969 0.519531
vt 0.542969 0.371094
vt 0.433594 0.988251
vt 0.363281 0.988251
vt 0.355469 0.871094
vt 0.546875 0.576538
vt 0.510925 0.590607
vt 0.512695 0.590820
vt 0.548828 0.574219
vt 0.531250 0.375977
vt 0.654663 0.985901
vt 0.777344 0.988251
vt 0.592163 0.806244
vt 0.519531 0.988251
vt 0.654663 0.784363
vt 0.589844 0.644531
vt 0.507812 0.812500
vt 0.514038 0.903107
vt 0.925781 0.316406
vt 0.863281 0.214844
vt 0.277344 0.839844
vt 0.355469 0.902344
vt 0.348938 0.598938
vt 0.527344 0.855469
vt 0.222656 0.988251
vt 0.308594 0.988251
vt 0.012604 0.800781
vt 0.074219 0.988251
vt 0.160156 0.839844
vt 0.152344 0.988251
vt 0.014038 0.046082
vt 0.281250 0.100250
vt 0.151550 0.140625
vt 0.878906 0.542969
vt 0.777344 0.449219
vt 0.878113 0.440613
vt 0.777344 0.542969
vt 0.054688 0.356750
vt 0.236603 0.157349
vt 0.130188 0.363281
vt 0.315094 0.256500
vt 0.223419 0.399994
vt 0.854736 0.988251
vt 0.854736 0.886719
vt 0.636719 0.683594
vt 0.636719 0.472656
vt 0.527344 0.378906
vt 0.761719 0.012207
vt 0.863281 0.012207
vt 0.894531 0.097656
vt 0.894531 0.012207
vt 0.988281 0.012207
vt 0.761719 0.621094
vt 0.710938 0.715607
vt 0.519531 0.527344
vt 0.454681 0.484375
vt 0.470306 0.712494
vt 0.367188 0.539062
vt 0.386719 0.012207
vt 0.256683 0.017242
vt 0.289062 0.140625
vt 0.527344 0.941406
vt 0.667969 0.941406
vt 0.121643 0.387268
vt 0.259369 0.360931
vt 0.957031 0.425781
vt 0.878906 0.012207
vt 0.082031 0.683594
vt 0.637482 0.684357
vt 0.628113 0.474976
vt 0.488281 0.988251
vt 0.485931 0.879669
vt 0.448425 0.776550
vt 0.987976 0.542969
vt 0.987213 0.685913
vt 0.253906 0.660156
vt 0.352661 0.612701
vt 0.355469 0.769531
vt 0.421875 0.672974
vt 0.987976 0.449219
vt 0.537933 0.170746
vt 0.641907 0.220032
vt 0.688782 0.158844
vt 0.726562 0.410919
vt 0.774994 0.642181
vt 0.712494 0.712494
vt 0.343750 0.565613
vt 0.473419 0.707794
vt 0.429688 0.518738
vt 0.507812 0.524994
vt 0.531250 0.371857
vt 0.359375 0.149719
vt 0.532806 0.259369
vt 0.535156 0.160156
vt 0.683594 0.167969
vt 0.433594 0.402344
vt 0.325500 0.488281
vt 0.096863 0.582794
vt 0.987457 0.339844
vt 0.987457 0.277344
vt 0.949219 0.160156
vt 0.012604 0.988251
vt 0.042511 0.366302
vt 0.180786 0.234375
vt 0.178558 0.649536
vt 0.027344 0.636719
vt 0.987976 0.832031
vt 0.206055 0.492188
vt 0.314056 0.493744
vt 0.416290 0.414062
vt 0.824219 0.012207
vt 0.759369 0.103119
vt 0.748413 0.274994
vt 0.792969 0.378906
vt 0.621857 0.295288
vt 0.972656 0.269531
vt 0.925781 0.371094
vt 0.987457 0.410156
vt 0.753906 0.128906
vt 0.675781 0.012207
vt 0.536438 0.020020
vt 0.367188 0.013519
vt 0.255463 0.019257
vt 0.769531 0.012207
vt 0.527344 0.012207
s 1
usemtl f_hair0105
f 1/1/1 2/2/2 3/3/3
f 4/4/4 5/5/5 6/6/6
f 7/7/7 8/8/8 9/9/9
f 10/10/10 11/11/11 12/12/12
f 13/13/13 14/14/14 15/15/15
f 16/16/16 17/17/17 18/18/18
f 19/19/19 20/20/20 21/21/21
f 22/22/22 23/23/23 24/24/24
f 5/5/5 25/25/25 6/6/6
f 26/11/26 27/10/27 28/12/28
f 15/15/15 29/26/29 13/13/13
f 30/27/30 31/28/31 32/29/32
f 33/30/33 34/31/34 35/32/35
f 36/33/36 37/34/37 38/35/38
f 39/36/39 40/37/40 41/38/41
f 38/35/42 42/39/43 43/40/44
f 44/41/45 45/42/46 46/43/47
f 47/1/48 48/44/49 49/45/50
f 50/46/51 51/44/52 52/47/53
f 2/2/2 1/1/1 53/48/54
f 54/48/55 55/49/56 56/46/57
f 56/46/57 55/49/56 57/50/58
f 56/46/57 57/50/58 58/51/59
f 5/5/5 4/4/4 59/52/60
f 59/52/60 4/4/4 18/18/18
f 59/52/60 18/18/18 60/53/61
f 61/54/62 8/8/8 62/55/63
f 8/8/8 7/7/7 62/55/63
f 62/55/63 7/7/7 63/56/64
f 62/55/63 63/56/64 61/54/62
f 11/11/11 10/10/10 64/57/65
f 65/58/66 66/59/7 67/38/67
f 67/38/67 66/59/7 68/37/9
f 67/38/67 68/37/9 69/36/68
f 70/60/69 71/61/70 72/62/71
f 72/62/71 71/61/70 73/63/72
f 74/64/73 75/65/74 76/66/75
f 77/67/76 78/68/77 79/69/78
f 14/14/14 13/13/13 77/67/76
f 77/67/76 13/13/13 80/70/79
f 77/67/76 80/70/79 78/68/77
f 81/71/80 82/72/81 83/73/82
f 83/73/82 82/72/81 84/74/83
f 83/73/82 84/74/83 85/75/84
f 86/76/85 87/77/86 49/45/50
f 49/45/50 87/77/86 88/3/87
f 49/45/50 88/3/87 47/1/48
f 89/78/88 36/33/89 90/79/42
f 90/79/42 36/33/89 91/80/42
f 90/79/42 91/80/42 17/17/17
f 92/81/90 93/82/91 94/83/92
f 94/83/92 93/82/91 95/84/93
f 94/83/92 95/84/93 96/85/94
f 17/17/17 16/16/16 90/79/42
f 90/79/42 16/16/16 97/86/95
f 90/79/42 97/86/95 98/87/96
f 91/80/42 99/88/97 100/89/98
f 100/89/98 99/88/97 101/90/99
f 100/89/98 101/90/99 102/91/100
f 103/92/101 104/93/102 105/94/103
f 106/55/104 107/8/105 108/54/106
f 109/95/107 26/11/26 110/96/108
f 110/96/108 26/11/26 28/12/28
f 24/24/24 111/97/109 112/98/110
f 108/54/106 113/56/111 106/55/104
f 106/55/104 113/56/111 114/7/112
f 106/55/104 114/7/112 107/8/105
f 107/8/105 114/7/112 115/9/113
f 40/37/40 116/59/114 41/38/41
f 41/38/41 116/59/114 117/58/115
f 41/38/41 117/58/115 118/62/116
f 20/20/20 19/19/19 119/99/117
f 32/29/32 120/85/118 121/100/119
f 122/13/120 123/67/121 124/70/122
f 125/101/123 118/62/116 70/60/69
f 126/33/124 127/102/125 128/103/126
f 129/104/127 39/36/39 130/105/45
f 130/105/45 39/36/39 41/38/41
f 130/105/45 41/38/41 131/106/128
f 132/107/129 133/14/130 134/108/131
f 134/108/131 133/14/130 15/15/15
f 135/109/132 136/110/133 137/111/134
f 137/111/134 136/110/133 138/112/135
f 139/113/136 140/69/137 123/67/121
f 123/67/121 140/69/137 141/68/138
f 123/67/121 141/68/138 124/70/122
f 23/23/23 22/22/22 142/114/139
f 142/114/139 22/22/22 143/115/140
f 142/114/139 143/115/140 144/116/141
f 145/117/142 128/103/126 146/118/143
f 146/118/143 128/103/126 147/119/144
f 148/120/145 149/121/146 150/122/147
f 150/122/147 149/121/146 151/123/148
f 150/122/147 151/123/148 152/124/127
f 153/112/149 154/111/150 155/106/151
f 155/106/151 154/111/150 67/38/67
f 155/106/151 67/38/67 156/105/152
f 156/105/152 67/38/67 69/36/68
f 156/105/152 69/36/68 157/104/42
f 73/63/72 65/58/66 72/62/71
f 72/62/71 65/58/66 67/38/67
f 72/62/71 67/38/67 158/109/153
f 158/109/153 67/38/67 154/111/150
f 158/109/153 154/111/150 159/110/154
f 159/110/154 154/111/150 153/112/149
f 81/71/80 76/66/75 82/72/81
f 82/72/81 76/66/75 75/65/74
f 82/72/81 75/65/74 84/74/83
f 84/74/83 75/65/74 160/125/155
f 84/74/83 160/125/155 161/126/156
f 161/126/156 160/125/155 162/127/157
f 161/126/156 162/127/157 163/128/158
f 161/126/156 164/129/159 84/74/83
f 84/74/83 164/129/159 165/130/160
f 84/74/83 165/130/160 85/75/84
f 85/75/84 165/130/160 166/131/161
f 85/75/84 166/131/161 83/73/82
f 25/25/25 5/5/5 167/132/162
f 167/132/162 5/5/5 59/52/60
f 167/132/162 59/52/60 168/133/163
f 168/133/163 59/52/60 60/53/61
f 168/133/163 60/53/61 169/134/164
f 27/10/27 26/11/26 64/57/65
f 64/57/65 26/11/26 109/95/107
f 64/57/65 109/95/107 11/11/11
f 11/11/11 109/95/107 170/96/165
f 11/11/11 170/96/165 12/12/12
f 117/58/115 171/63/166 118/62/116
f 118/62/116 171/63/166 172/61/167
f 118/62/116 172/61/167 70/60/69
f 70/60/69 172/61/167 173/135/168
f 70/60/69 173/135/168 71/61/70
f 174/136/169 175/137/170 35/32/35
f 35/32/35 175/137/170 105/94/103
f 35/32/35 105/94/103 33/30/33
f 33/30/33 105/94/103 104/93/102
f 33/30/33 104/93/102 34/31/34
f 88/3/87 176/2/171 47/1/48
f 47/1/48 176/2/171 54/48/55
f 47/1/48 54/48/55 48/44/49
f 48/44/49 54/48/55 56/46/57
f 48/44/49 56/46/57 52/47/53
f 52/47/53 56/46/57 58/51/59
f 52/47/53 58/51/59 50/46/51
f 50/46/51 58/51/59 57/50/58
f 177/77/172 178/76/173 3/3/3
f 3/3/3 178/76/173 179/45/174
f 3/3/3 179/45/174 1/1/1
f 1/1/1 179/45/174 51/44/52
f 1/1/1 51/44/52 53/48/54
f 53/48/54 51/44/52 50/46/51
f 53/48/54 50/46/51 180/49/175
f 180/49/175 50/46/51 57/50/58
f 158/109/153 181/138/176 72/62/71
f 72/62/71 181/138/176 182/101/177
f 72/62/71 182/101/177 70/60/69
f 70/60/69 182/101/177 183/139/178
f 70/60/69 183/139/178 125/101/123
f 79/69/78 184/113/179 77/67/76
f 77/67/76 184/113/179 185/107/180
f 77/67/76 185/107/180 14/14/14
f 14/14/14 185/107/180 186/108/181
f 14/14/14 186/108/181 15/15/15
f 15/15/15 186/108/181 187/140/182
f 15/15/15 187/140/182 134/108/131
f 111/97/109 188/141/183 112/98/110
f 112/98/110 188/141/183 189/142/184
f 112/98/110 189/142/184 24/24/24
f 24/24/24 189/142/184 190/143/185
f 24/24/24 190/143/185 22/22/22
f 29/26/29 15/15/15 122/13/120
f 122/13/120 15/15/15 133/14/130
f 122/13/120 133/14/130 123/67/121
f 123/67/121 133/14/130 132/107/129
f 123/67/121 132/107/129 139/113/136
f 138/112/135 131/106/128 137/111/134
f 137/111/134 131/106/128 41/38/41
f 137/111/134 41/38/41 135/109/132
f 135/109/132 41/38/41 118/62/116
f 135/109/132 118/62/116 191/138/186
f 191/138/186 118/62/116 125/101/123
f 121/100/119 192/144/187 32/29/32
f 32/29/32 192/144/187 193/145/188
f 32/29/32 193/145/188 30/27/30
f 30/27/30 193/145/188 194/146/189
f 30/27/30 194/146/189 21/21/21
f 21/21/21 194/146/189 195/147/142
f 21/21/21 195/147/142 19/19/19
f 196/34/190 126/33/124 152/124/127
f 152/124/127 126/33/124 128/103/126
f 152/124/127 128/103/126 197/148/191
f 197/148/191 128/103/126 145/117/142
f 197/148/191 145/117/142 194/146/189
f 31/28/31 30/27/30 198/149/192
f 198/149/192 30/27/30 21/21/21
f 198/149/192 21/21/21 199/132/193
f 199/132/193 21/21/21 200/150/194
f 199/132/193 200/150/194 201/151/195
f 94/83/92 202/152/196 92/81/90
f 92/81/90 202/152/196 163/128/158
f 92/81/90 163/128/158 203/153/197
f 203/153/197 163/128/158 162/127/157
f 203/153/197 162/127/157 204/154/198
f 204/154/198 162/127/157 160/125/155
f 204/154/198 160/125/155 205/155/199
f 205/155/199 160/125/155 75/65/74
f 205/155/199 75/65/74 206/156/200
f 206/156/200 75/65/74 74/64/73
f 102/91/100 165/130/160 100/89/98
f 100/89/98 165/130/160 164/129/159
f 100/89/98 164/129/159 91/80/42
f 91/80/42 164/129/159 161/126/156
f 91/80/42 161/126/156 17/17/17
f 17/17/17 161/126/156 163/128/158
f 17/17/17 163/128/158 18/18/18
f 18/18/18 163/128/158 202/152/196
f 18/18/18 202/152/196 60/53/61
f 60/53/61 202/152/196 94/83/92
f 60/53/61 94/83/92 169/134/164
f 207/157/201 203/153/202 144/116/141
f 144/116/141 203/153/202 208/158/203
f 144/116/141 208/158/203 142/114/139
f 142/114/139 208/158/203 103/92/101
f 142/114/139 103/92/101 23/23/23
f 23/23/23 103/92/101 105/94/103
f 23/23/23 105/94/103 24/24/24
f 24/24/24 105/94/103 175/137/170
f 24/24/24 175/137/170 111/97/109
f 111/97/109 175/137/170 174/136/169
f 192/144/187 207/157/201 193/145/188
f 193/145/188 207/157/201 144/116/141
f 193/145/188 144/116/141 194/146/189
f 194/146/189 144/116/141 143/115/140
f 194/146/189 143/115/140 197/148/191
f 197/148/191 143/115/140 22/22/22
f 197/148/191 22/22/22 152/124/127
f 152/124/127 22/22/22 190/143/185
f 152/124/127 190/143/185 150/122/147
f 150/122/147 190/143/185 189/142/184
f 150/122/147 189/142/184 148/120/145
o editpl_f-0000-1899
v 6.830448 45.619774 0.807950
v 7.811895 44.557804 -0.970214
v 7.174351 51.013039 -0.977994
v 7.613490 45.793026 -2.748379
v -6.830448 45.619774 0.807950
v -7.174351 51.013039 -0.977994
v -7.811895 44.557804 -0.970214
v -7.613490 45.793026 -2.748379
vn 0.8942 0.0862 0.4392
vn 0.9744 0.0943 0.2043
vn 0.9948 0.0940 -0.0392
vn -0.8942 0.0862 0.4392
vn -0.9744 0.0943 0.2043
vn -0.9948 0.0940 -0.0392
vt 0.988434 0.968323
vt 0.935364 0.989471
vt 0.935547 0.848633
vt 0.878906 0.967957
s 1
usemtl f_hair0105
f 209/159/204 210/160/205 211/161/205
f 211/161/205 210/160/205 212/162/206
f 213/159/207 214/161/208 215/160/208
f 215/160/208 214/161/208 216/162/209
