mtllib f_hair012.mtl
o editpl_f-0000-1913
v -5.893973 44.269051 8.371815
v -7.195515 44.025215 7.320477
v -4.923108 41.606106 9.205331
v -9.243062 55.588169 5.924617
v -6.978591 51.962715 7.577198
v -6.462736 53.448189 7.486067
v -4.756447 46.078571 -5.860165
v 0.000000 47.714836 -8.831923
v 0.000000 45.539566 -9.225342
v 8.288069 46.691368 7.686111
v 7.822477 49.055935 6.814810
v 6.319884 48.125507 7.905047
v 7.502382 41.519482 8.572971
v 9.888542 41.172977 6.787027
v 9.581674 43.816673 5.118886
v -8.288069 46.691368 7.686111
v -5.698213 46.255032 8.768568
v -6.319884 48.125507 7.905047
v -10.092239 52.309219 6.011302
v -7.994429 50.281532 6.172448
v -8.211352 63.637966 4.624333
v -6.515644 62.874374 7.398269
v -4.444289 66.214287 7.360483
v -5.251139 64.151306 -9.090869
v 0.000000 64.776932 -9.834364
v -5.475998 60.577183 -11.735888
v -7.899194 45.517105 -16.184631
v -12.475753 41.557980 -12.973934
v -13.946601 44.654057 -11.089080
v -5.219394 66.358658 0.693479
v -2.677155 68.335014 4.896615
v -1.923213 67.308334 1.503655
v -4.444289 66.214287 7.360483
v -2.182463 66.868790 6.817032
v -2.367642 67.812050 7.294914
v -9.579029 49.399231 5.510082
v -7.822477 49.055935 6.814810
v -11.097494 49.235603 3.185133
v -11.422880 46.101028 4.725468
v -10.301226 58.886372 -2.062675
v -7.274877 52.389427 -3.186252
v -8.367431 55.572128 -0.448990
v -4.171811 64.231514 7.516073
v -3.711510 64.253967 7.171553
v -5.912491 63.076500 5.592321
v -7.594972 48.327637 -14.061949
v -13.520690 47.406834 -10.156656
v -7.938875 51.690006 -14.746542
v 0.000000 67.475174 1.456978
v 0.000000 67.317963 -4.573221
v -4.769674 67.061295 -4.763262
v -4.745865 47.644253 -5.598999
v -5.846356 47.833549 -1.402531
v -7.547354 56.168884 3.211805
v -8.737789 59.752632 1.548109
v -7.814541 55.305836 3.205137
v -7.904485 52.017258 1.647021
v -8.671653 63.939552 1.343620
v -5.801384 67.269836 4.508753
v 0.000000 64.757683 8.611866
v -3.724737 65.826073 6.528080
v 12.475753 41.557980 -12.973934
v 11.933444 43.890465 -4.289824
v 9.176927 41.192226 -7.801698
v 13.946601 44.654057 -11.089080
v 8.420340 45.680733 -16.209082
v 13.520690 47.406834 -10.156656
v 12.319674 38.891827 -13.688533
v 7.452120 38.667240 -16.313549
v 6.129415 42.369698 -15.525599
v 1.923213 67.308334 1.503655
v 2.677155 68.335014 4.896615
v 5.219394 66.358658 0.693479
v 2.367642 67.812050 7.294914
v 2.182463 66.868790 6.817032
v 4.444289 66.214287 7.360483
v -6.380729 56.598808 -11.894811
v 0.000000 56.884354 -13.271778
v 0.000000 61.180355 -13.126191
v 5.475998 60.577183 -11.735888
v 5.698213 46.255032 8.768568
v 5.893973 44.269051 8.371815
v 7.195515 44.025215 7.320477
v 4.923108 41.606106 9.205331
v 7.994429 50.281532 6.172448
v 9.579029 49.399231 5.510082
v 11.422880 46.101028 4.725468
v 11.097494 49.235603 3.185133
v 10.092239 52.309219 6.011302
v 9.243062 55.588169 5.924617
v 6.978591 51.962715 7.577198
v 6.462736 53.448189 7.486067
v 5.912491 63.076500 5.592321
v 3.711510 64.253967 7.171553
v 4.171811 64.231514 7.516073
v 4.769674 67.061295 -4.763262
v 5.251139 64.151306 -9.090869
v 6.658497 51.978760 -6.992635
v 7.274877 52.389427 -3.186252
v 4.745865 47.644253 -5.598999
v 5.846356 47.833549 -1.402531
v 4.756447 46.078571 -5.860165
v 7.801314 63.371670 -0.721273
v 10.301226 58.886372 -2.062675
v 11.026068 59.820007 -6.533646
v 12.520725 55.305836 -6.615886
v 7.904485 52.017258 1.647021
v 10.301226 58.886372 -2.062675
v 7.814541 55.305836 3.205137
v 8.737789 59.752632 1.548109
v 7.547354 56.168884 3.211805
v 4.444289 66.214287 7.360483
v 5.801384 67.269836 4.508753
v 8.211352 63.637966 4.624333
v 8.671653 63.939552 1.343620
v 3.724737 65.826073 6.528080
v 0.000000 64.757683 8.611866
v -4.759092 36.100548 9.555408
v -3.870235 36.299465 10.987940
v -6.333111 37.361439 9.265344
v -4.849036 38.320740 11.103521
v -7.491801 38.914288 8.008404
v -7.502382 41.519482 8.572971
v -9.888542 41.172977 6.787027
v -9.581674 43.816673 5.118886
v -12.063069 52.479263 3.470750
v -11.356744 55.719715 3.146235
v -9.547284 59.941925 4.622112
v -7.526191 58.973000 7.801691
v -3.650666 39.292873 9.818797
v -7.801314 63.371670 -0.721273
v -10.301226 58.886372 -2.062675
v -10.653065 59.983635 1.011326
v -12.380518 56.454430 0.073345
v -12.840819 52.556263 0.128913
v -12.190049 49.341480 0.086682
v 9.079047 38.680077 -9.647655
v 7.073826 33.334934 -13.884130
v 3.521040 32.157467 -14.509823
v 0.000000 31.977795 -15.035493
v 7.491801 38.914288 8.008404
v 4.849036 38.320740 11.103521
v 6.333111 37.361439 9.265344
v 3.870235 36.299465 10.987940
v 4.759092 36.100548 9.555408
v 6.515644 62.874374 7.398269
v 7.526191 58.973000 7.801691
v 9.547284 59.941925 4.622112
v 11.356744 55.719715 3.146235
v 12.063069 52.479263 3.470750
v -6.658497 51.978760 -6.992635
v -9.042011 56.890770 -7.440510
v -4.774965 51.869675 -10.593417
v -4.576559 56.175304 -11.719216
v 0.000000 51.712463 -12.187097
v 0.000000 56.284386 -13.096183
v 4.576559 56.175304 -11.719216
v 4.774965 51.869675 -10.593417
v 9.042011 56.890770 -7.440510
v 3.650666 39.292873 9.818797
v 10.301226 58.886372 -2.062675
v 7.801314 63.371670 -0.721273
v 12.190049 49.341480 0.086682
v 12.840819 52.556263 0.128913
v 12.380518 56.454430 0.073345
v 10.653065 59.983635 1.011326
v 8.367431 55.572128 -0.448990
v -12.520725 55.305836 -6.615886
v -11.026068 59.820007 -6.533646
v -8.470602 63.718174 -5.794598
v 0.000000 67.475174 1.456978
v 1.923213 67.308334 1.503655
v -10.642484 43.264832 1.970425
v -10.489050 40.749474 3.614116
v -5.806675 38.667240 5.225577
v -3.851717 36.662014 8.073975
v -3.854362 34.278194 9.923265
v -3.230045 36.209633 9.566520
v -12.981026 45.594109 0.897970
v -7.251068 42.841328 -0.966880
v -7.380693 40.274635 1.972648
v -11.182147 54.978580 -2.703925
v -9.758917 52.161636 -2.329399
v -8.941485 49.460190 -2.309395
v -7.851576 45.873234 -2.454982
v -7.124089 55.110126 6.624769
v -7.153188 57.339939 6.335817
v -6.632042 58.658581 6.950395
v -6.515644 62.874374 7.398269
v 0.000000 66.872002 6.142441
v 0.000000 67.475174 1.456978
v 3.230045 36.209633 9.566520
v 3.854362 34.278194 9.923265
v 3.851717 36.662014 8.073975
v 5.806675 38.667240 5.225577
v 10.489050 40.749474 3.614116
v 10.642484 43.264832 1.970425
v 11.600122 55.755009 -2.826174
v 14.684670 50.117905 -8.713009
v 8.187543 51.690006 -14.730983
v 7.682270 48.411053 -14.068617
v -0.335967 44.285095 -18.369551
v 0.513210 41.301311 -16.412460
v -6.454800 41.962234 -15.485590
v -0.338612 37.842693 -17.638279
v -7.761632 38.676868 -16.272429
v 7.380693 40.274635 1.972648
v 7.251068 42.841328 -0.966880
v 12.981026 45.594109 0.897970
v 6.380729 56.598808 -11.894811
v -0.515855 50.525368 -16.622505
v 0.603153 47.098831 -16.180187
v -11.933444 43.890465 -4.289824
v -9.176927 41.192226 -7.801698
v -12.319674 38.891827 -13.688533
v -9.079047 38.680077 -9.647655
v -11.073686 46.729870 -4.425409
v -11.319709 49.970322 -2.431644
v -14.684670 50.117905 -8.713009
v -11.600122 55.755009 -2.826174
v -10.301226 58.886372 -2.062675
v -7.801314 63.371670 -0.721273
v -5.219394 66.358658 0.693479
v -1.923213 67.308334 1.503655
v 11.319709 49.970322 -2.431644
v 11.073686 46.729870 -4.425409
v -3.521040 32.157467 -14.509823
v -7.073826 33.334934 -13.884130
v 7.851576 45.873234 -2.454982
v 8.941485 49.460190 -2.309395
v 9.758917 52.161636 -2.329399
v 11.182147 54.978580 -2.703925
v 5.219394 66.358658 0.693479
v 8.470602 63.718174 -5.794598
v 0.000000 67.475174 1.456978
v 0.000000 66.872002 6.142441
v 6.515644 62.874374 7.398269
v 6.632042 58.658581 6.950395
v 7.153188 57.339939 6.335817
v 7.124089 55.110126 6.624769
vn -0.6194 -0.0392 0.7841
vn -0.5742 -0.0315 0.8181
vn -0.1728 0.3927 0.9033
vn -0.4734 0.0947 0.8757
vn -0.4313 -0.0235 0.9019
vn -0.2914 0.2835 0.9136
vn -0.7366 0.1175 -0.6660
vn -0.0000 -0.3304 -0.9438
vn -0.0000 0.1733 -0.9849
vn 0.5178 0.1177 0.8474
vn 0.4651 0.3705 0.8040
vn 0.3458 0.3458 0.8723
vn 0.5345 0.2673 0.8018
vn 0.8730 -0.0000 0.4876
vn 0.8007 0.0549 0.5966
vn -0.5178 0.1177 0.8474
vn -0.4627 -0.0235 0.8862
vn -0.3457 0.3458 0.8723
vn -0.6144 -0.0473 0.7876
vn -0.4389 -0.0941 0.8936
vn -0.8084 0.4316 0.4002
vn -0.7551 0.3303 0.5663
vn -0.6533 0.5432 0.5274
vn -0.4019 0.6857 -0.6069
vn -0.0000 0.7708 -0.6371
vn -0.4952 0.4166 -0.7624
vn -0.4255 0.2600 -0.8668
vn -0.8353 -0.2364 -0.4964
vn -0.9548 -0.0000 -0.2973
vn -0.4159 0.8476 -0.3296
vn -0.0000 0.9975 -0.0706
vn -0.1332 0.9402 -0.3134
vn 0.5204 -0.5756 0.6308
vn -0.1571 -0.3613 0.9191
vn -0.0940 0.6427 0.7603
vn -0.6686 0.0786 0.7394
vn -0.4651 0.3705 0.8040
vn -0.8976 -0.0000 0.4409
vn -0.8301 -0.1018 0.5482
vn -0.9290 -0.3700 -0.0000
vn -0.9064 -0.4177 -0.0631
vn -0.6780 -0.5992 -0.4258
vn -0.1881 0.9640 -0.1881
vn -0.4483 0.8102 0.3776
vn 0.6370 0.0157 0.7707
vn -0.3938 0.1969 -0.8979
vn -0.9287 0.1102 -0.3541
vn -0.4565 0.2047 -0.8658
vn -0.0629 0.9980 -0.0079
vn -0.0000 0.9720 -0.2351
vn -0.2818 0.9393 -0.1957
vn -0.8345 -0.3306 -0.4408
vn -0.9572 -0.1570 -0.2432
vn -0.8018 0.0079 0.5975
vn -0.8673 0.0315 0.4967
vn -0.8440 -0.0000 0.5363
vn -0.8084 -0.4709 -0.3532
vn -0.8165 0.5652 -0.1178
vn -0.5925 0.7900 0.1580
vn -0.3223 0.5502 0.7703
vn -0.1575 -0.0788 0.9844
vn 0.8319 -0.2668 -0.4866
vn 0.9014 -0.2900 0.3214
vn 0.7235 -0.5112 0.4640
vn 0.9618 -0.0000 -0.2737
vn 0.4552 0.0785 -0.8869
vn 0.9348 0.1099 -0.3378
vn 0.9091 -0.4154 -0.0314
vn 0.2897 -0.0626 -0.9551
vn 0.2662 -0.0392 -0.9631
vn 0.1332 0.9402 -0.3134
vn 0.4159 0.8476 -0.3296
vn 0.0940 0.6427 0.7603
vn 0.1571 -0.3613 0.9191
vn -0.5204 -0.5756 0.6308
vn -0.4089 0.2910 -0.8650
vn 0.0158 0.2757 -0.9611
vn -0.0469 0.3206 -0.9461
vn 0.4712 0.3691 -0.8011
vn 0.4627 -0.0235 0.8862
vn 0.6194 -0.0392 0.7841
vn 0.5742 -0.0314 0.8181
vn 0.1728 0.3927 0.9033
vn 0.4389 -0.0941 0.8936
vn 0.6686 0.0786 0.7394
vn 0.8301 -0.1018 0.5482
vn 0.8976 -0.0000 0.4409
vn 0.6144 -0.0473 0.7876
vn 0.4734 0.0947 0.8757
vn 0.4313 -0.0235 0.9019
vn 0.2914 0.2835 0.9136
vn -0.6370 0.0157 0.7707
vn 0.4483 0.8102 0.3776
vn 0.1881 0.9640 -0.1881
vn 0.2818 0.9393 -0.1957
vn 0.4019 0.6857 -0.6069
vn 0.8576 -0.4485 -0.2518
vn 0.9064 -0.4177 -0.0631
vn 0.8345 -0.3306 -0.4409
vn 0.9572 -0.1570 -0.2432
vn 0.7366 0.1175 -0.6660
vn 0.8384 0.5171 0.1724
vn 0.9126 0.3540 0.2046
vn 0.8812 0.4485 -0.1495
vn 0.8669 0.3862 -0.3152
vn 0.8084 -0.4709 -0.3532
vn 0.9290 -0.3700 -0.0000
vn 0.8440 -0.0000 0.5363
vn 0.8673 0.0315 0.4967
vn 0.8018 0.0079 0.5975
vn 0.6533 0.5432 0.5274
vn 0.5925 0.7900 0.1580
vn 0.8084 0.4316 0.4002
vn 0.8165 0.5652 -0.1178
vn 0.1575 -0.0788 0.9844
vn 0.3223 0.5502 0.7703
vn -0.7702 -0.6366 -0.0393
vn 0.1017 -0.3286 0.9390
vn -0.7171 -0.6855 0.1261
vn -0.2895 0.1409 0.9468
vn -0.7643 -0.5279 0.3703
vn -0.5345 0.2673 0.8018
vn -0.8730 -0.0000 0.4877
vn -0.8007 0.0549 0.5966
vn -0.9034 -0.0628 0.4242
vn -0.8495 0.2360 0.4719
vn -0.8589 0.2600 0.4413
vn -0.0235 -0.2424 0.9699
vn 0.6874 0.2766 0.6716
vn -0.6462 0.6226 -0.4413
vn -0.8181 0.4405 -0.3697
vn -0.9097 0.4078 0.0784
vn -0.9605 0.2755 -0.0394
vn -0.9373 -0.1102 -0.3308
vn -0.9772 -0.0552 -0.2049
vn 0.6776 -0.5279 0.5121
vn 0.5968 -0.6125 -0.5183
vn 0.2201 -0.3852 -0.8962
vn -0.0000 -0.3768 -0.9263
vn 0.7643 -0.5279 0.3703
vn 0.2895 0.1408 0.9468
vn 0.7171 -0.6855 0.1261
vn -0.1017 -0.3286 0.9390
vn 0.7702 -0.6366 -0.0393
vn 0.7551 0.3303 0.5663
vn 0.0235 -0.2424 0.9699
vn 0.8589 0.2600 0.4413
vn 0.8495 0.2360 0.4719
vn 0.9034 -0.0628 0.4242
vn -0.8576 -0.4485 -0.2518
vn -0.8651 -0.3775 -0.3303
vn -0.5817 -0.4638 -0.6682
vn -0.4393 -0.1878 -0.8785
vn -0.0000 -0.3700 -0.9290
vn -0.0000 -0.1885 -0.9821
vn 0.4392 -0.1882 -0.8784
vn 0.5817 -0.4638 -0.6682
vn 0.8651 -0.3775 -0.3303
vn -0.6874 0.2766 0.6716
vn 0.8181 0.4405 -0.3697
vn 0.6462 0.6226 -0.4413
vn 0.9772 -0.0552 -0.2049
vn 0.9373 -0.1102 -0.3308
vn 0.9605 0.2755 -0.0394
vn 0.9097 0.4078 0.0784
vn 0.6780 -0.5992 -0.4258
vn -0.8647 0.3852 -0.3223
vn -0.8812 0.4485 -0.1495
vn -0.7390 0.6367 -0.2201
vn 0.0629 0.9980 -0.0079
vn 0.1883 0.9810 0.0471
vn -0.9166 -0.3996 0.0078
vn -0.6685 -0.6999 -0.2516
vn -0.4237 -0.8631 -0.2746
vn -0.5243 -0.6887 -0.5008
vn -0.4965 -0.8118 0.3074
vn 0.9111 -0.0550 0.4084
vn -0.8091 -0.3613 -0.4634
vn -0.5099 -0.5883 -0.6276
vn -0.3681 -0.8068 -0.4621
vn -0.8185 -0.0079 -0.5745
vn -0.6054 -0.2280 -0.7626
vn -0.5742 -0.1180 -0.8102
vn -0.5095 -0.2979 -0.8073
vn -0.2513 0.2514 0.9347
vn 0.2049 -0.3703 0.9060
vn 0.7471 -0.2360 0.6214
vn 0.8629 -0.2354 0.4471
vn 0.4734 0.8364 0.2762
vn 0.1802 0.9791 -0.0940
vn -0.9111 -0.0550 0.4084
vn 0.4965 -0.8118 0.3074
vn 0.5243 -0.6887 -0.5008
vn 0.4237 -0.8631 -0.2746
vn 0.6685 -0.6999 -0.2516
vn 0.9166 -0.3996 0.0078
vn 0.9354 0.2122 0.2830
vn 0.9998 0.0079 0.0157
vn 0.5191 0.2202 -0.8259
vn 0.3302 0.2437 -0.9119
vn -0.0157 0.1018 -0.9947
vn 0.0860 -0.0860 -0.9926
vn -0.2590 -0.0314 -0.9654
vn -0.0236 0.0236 -0.9994
vn -0.3214 -0.1097 -0.9406
vn 0.3681 -0.8068 -0.4621
vn 0.5099 -0.5883 -0.6276
vn 0.8091 -0.3613 -0.4634
vn 0.3788 0.3788 -0.8444
vn 0.0707 0.1729 -0.9824
vn -0.0628 0.2513 -0.9659
vn -0.9014 -0.2900 0.3214
vn -0.7235 -0.5112 0.4640
vn -0.9093 -0.4154 -0.0236
vn -0.6776 -0.5279 0.5121
vn -0.8951 -0.1962 0.4004
vn -0.8698 -0.1724 0.4623
vn -0.9998 0.0079 0.0157
vn -0.9354 0.2122 0.2830
vn -0.9126 0.3540 0.2046
vn -0.8384 0.5171 0.1724
vn -0.6036 0.7917 0.0941
vn -0.1883 0.9810 0.0471
vn 0.8698 -0.1724 0.4623
vn 0.8951 -0.1962 0.4004
vn -0.2201 -0.3852 -0.8962
vn -0.5987 -0.6223 -0.5042
vn 0.5095 -0.2979 -0.8073
vn 0.5742 -0.1180 -0.8102
vn 0.6054 -0.2280 -0.7626
vn 0.8185 -0.0079 -0.5745
vn 0.6036 0.7917 0.0941
vn 0.7390 0.6367 -0.2201
vn -0.1802 0.9791 -0.0940
vn -0.4734 0.8364 0.2762
vn -0.8629 -0.2353 0.4471
vn -0.7471 -0.2360 0.6214
vn -0.2049 -0.3703 0.9060
vn 0.2513 0.2514 0.9347
vt 0.695312 0.681671
vt 0.789062 0.681671
vt 0.695312 0.759796
vt 0.789062 0.351562
vt 0.695312 0.442078
vt 0.695312 0.398438
vt 0.226562 0.773438
vt 0.156250 0.987671
vt 0.226562 0.987671
vt 0.781250 0.593750
vt 0.695312 0.517609
vt 0.695312 0.595734
vt 0.789062 0.759796
vt 0.851562 0.759796
vt 0.851562 0.681671
vt 0.695312 0.637939
vt 0.781250 0.445312
vt 0.695312 0.486359
vt 0.851562 0.171875
vt 0.789062 0.171875
vt 0.789062 0.109375
vt 0.531250 0.179688
vt 0.687500 0.179688
vt 0.539062 0.312500
vt 0.539062 0.742188
vt 0.390625 0.828125
vt 0.398438 0.742188
vt 0.988007 0.109375
vt 0.890625 0.054688
vt 0.988007 0.054688
vt 0.765625 0.078125
vt 0.789062 0.054688
vt 0.789062 0.517609
vt 0.851562 0.517609
vt 0.851562 0.593750
vt 0.013214 0.625671
vt 0.054688 0.664062
vt 0.054688 0.625000
vt 0.695312 0.109375
vt 0.671875 0.109375
vt 0.695312 0.171875
vt 0.539062 0.656250
vt 0.421875 0.656250
vt 0.500000 0.546875
vt 0.617096 0.011993
vt 0.656250 0.085938
vt 0.515625 0.085938
vt 0.156250 0.773438
vt 0.156250 0.664062
vt 0.039062 0.523438
vt 0.013214 0.539734
vt 0.070312 0.546875
vt 0.125000 0.585938
vt 0.914062 0.171875
vt 0.890625 0.109375
vt 0.695221 0.011993
vt 0.726562 0.109375
vt 0.234375 0.742188
vt 0.234375 0.828125
vt 0.375000 0.890625
vt 0.546875 0.890625
vt 0.546875 0.828125
vt 0.507812 0.398438
vt 0.687500 0.398438
vt 0.687500 0.312500
vt 0.054688 0.773438
vt 0.234375 0.093750
vt 0.234375 0.312500
vt 0.359375 0.312500
vt 0.359375 0.398438
vt 0.859375 0.953125
vt 0.789062 0.953125
vt 0.867188 0.885925
vt 0.789062 0.885925
vt 0.851562 0.823425
vt 0.851562 0.442078
vt 0.851562 0.351562
vt 0.851562 0.265625
vt 0.789062 0.265625
vt 0.695312 0.884796
vt 0.988007 0.171875
vt 0.988007 0.265625
vt 0.914062 0.265625
vt 0.914062 0.351562
vt 0.914062 0.442078
vt 0.914062 0.517609
vt 0.234375 0.890625
vt 0.414062 0.987579
vt 0.562500 0.987579
vt 0.679688 0.987579
vt 0.013214 0.774109
vt 0.054688 0.859375
vt 0.013214 0.899109
vt 0.054688 0.987671
vt 0.013214 0.986664
vt 0.390625 0.179688
vt 0.499908 0.011993
vt 0.914062 0.681671
vt 0.914062 0.759796
vt 0.960938 0.828125
vt 0.937500 0.953125
vt 0.851562 0.987579
vt 0.695312 0.987579
vt 0.914062 0.593750
vt 0.988007 0.681671
vt 0.976562 0.757812
vt 0.988007 0.351562
vt 0.988007 0.442078
vt 0.988007 0.517609
vt 0.988007 0.595734
vt 0.695312 0.351562
vt 0.695312 0.315918
vt 0.695312 0.265625
vt 0.843658 0.011993
vt 0.987915 0.011993
vt 0.234375 0.398438
vt 0.390625 0.546875
vt 0.687500 0.742188
vt 0.687500 0.828125
vt 0.687500 0.890625
vt 0.687500 0.546875
vt 0.687500 0.656250
vt 0.234375 0.656250
vt 0.234375 0.546875
vt 0.390533 0.011993
s 1
usemtl f_hair0115
f 1/1/1 2/2/2 3/3/3
f 4/4/4 5/5/5 6/6/6
f 7/7/7 8/8/8 9/9/9
f 10/10/10 11/11/11 12/12/12
f 13/13/13 14/14/14 15/15/15
f 16/10/16 17/16/17 18/12/18
f 19/17/19 20/18/20 5/5/5
f 21/19/21 22/20/22 23/21/23
f 24/22/24 25/23/25 26/24/26
f 27/25/27 28/26/28 29/27/29
f 30/28/30 31/29/31 32/30/32
f 33/21/33 34/31/34 35/32/35
f 2/2/2 1/1/1 17/16/17
f 36/33/36 37/11/37 20/18/20
f 38/34/38 39/35/39 36/33/36
f 36/33/36 39/35/39 16/10/16
f 36/33/36 16/10/16 37/11/37
f 37/11/37 16/10/16 18/12/18
f 5/5/5 4/4/4 19/17/19
f 40/36/40 41/37/41 42/38/42
f 43/39/43 44/40/44 45/41/45
f 46/42/46 47/43/47 48/44/48
f 49/45/49 50/46/50 51/47/51
f 8/8/8 7/7/7 52/48/52
f 52/48/52 7/7/7 53/49/53
f 52/48/52 53/49/53 41/37/41
f 54/50/54 55/51/55 56/52/56
f 56/52/56 55/51/55 40/36/40
f 56/52/56 40/36/40 57/53/57
f 57/53/57 40/36/40 42/38/42
f 58/54/58 21/19/21 59/55/59
f 59/55/59 21/19/21 23/21/23
f 59/55/59 23/21/23 35/32/35
f 43/39/43 60/56/60 44/40/44
f 44/40/44 60/56/60 61/57/61
f 44/40/44 61/57/61 45/41/45
f 62/26/62 63/58/63 64/59/64
f 65/27/65 66/25/66 67/43/67
f 64/59/64 68/60/68 62/26/62
f 62/26/62 68/60/68 69/61/69
f 62/26/62 69/61/69 70/62/70
f 71/30/71 72/29/31 73/28/72
f 74/32/73 75/31/74 76/21/75
f 48/44/48 77/63/76 78/64/77
f 78/64/77 77/63/76 79/65/78
f 78/64/77 79/65/78 80/24/79
f 81/16/80 82/1/81 83/2/82
f 83/2/82 82/1/81 84/3/83
f 85/18/84 11/11/11 86/33/85
f 11/11/11 10/10/10 86/33/85
f 86/33/85 10/10/10 87/35/86
f 86/33/85 87/35/86 88/34/87
f 89/17/88 90/4/89 91/5/90
f 91/5/90 90/4/89 92/6/91
f 93/41/92 94/40/93 95/39/94
f 96/47/95 97/22/96 25/23/25
f 98/66/97 99/37/98 100/48/99
f 100/48/99 99/37/98 101/49/100
f 100/48/99 101/49/100 102/7/101
f 103/67/102 104/68/103 105/69/104
f 105/69/104 104/68/103 106/70/105
f 107/53/106 108/36/107 109/52/108
f 109/52/108 108/36/107 110/51/109
f 109/52/108 110/51/109 111/50/110
f 74/32/73 112/21/111 113/55/112
f 113/55/112 112/21/111 114/19/113
f 113/55/112 114/19/113 115/54/114
f 93/41/92 116/57/115 94/40/93
f 94/40/93 116/57/115 117/56/116
f 94/40/93 117/56/116 95/39/94
f 118/71/117 119/72/118 120/73/119
f 120/73/119 119/72/118 121/74/120
f 120/73/119 121/74/120 122/75/121
f 122/75/121 121/74/120 123/13/122
f 122/75/121 123/13/122 124/14/123
f 124/14/123 123/13/122 125/15/124
f 126/76/125 19/17/19 127/77/126
f 127/77/126 19/17/19 4/4/4
f 127/77/126 4/4/4 128/78/127
f 128/78/127 4/4/4 129/79/128
f 128/78/127 129/79/128 22/20/22
f 119/72/118 130/80/129 121/74/120
f 121/74/120 130/80/129 3/3/3
f 121/74/120 3/3/3 123/13/122
f 123/13/122 3/3/3 2/2/2
f 123/13/122 2/2/2 125/15/124
f 35/32/35 31/29/31 59/55/59
f 59/55/59 31/29/31 30/28/30
f 59/55/59 30/28/30 58/54/58
f 58/54/58 30/28/30 131/81/130
f 58/54/58 131/81/130 132/82/131
f 128/78/127 133/83/132 127/77/126
f 127/77/126 133/83/132 134/84/133
f 127/77/126 134/84/133 126/76/125
f 126/76/125 134/84/133 135/85/134
f 126/76/125 135/85/134 136/86/135
f 64/59/64 137/87/136 68/60/68
f 68/60/68 137/87/136 138/88/137
f 68/60/68 138/88/137 69/61/69
f 69/61/69 138/88/137 139/89/138
f 69/61/69 139/89/138 140/90/139
f 14/14/14 13/13/13 141/75/140
f 141/75/140 13/13/13 142/74/141
f 141/75/140 142/74/141 143/73/142
f 143/73/142 142/74/141 144/72/143
f 143/73/142 144/72/143 145/71/144
f 146/20/145 147/79/146 148/78/147
f 148/78/147 147/79/146 90/4/89
f 148/78/147 90/4/89 149/77/148
f 149/77/148 90/4/89 89/17/88
f 149/77/148 89/17/88 150/76/149
f 151/66/150 152/91/151 153/92/152
f 153/92/152 152/91/151 154/93/153
f 153/92/152 154/93/153 155/94/154
f 155/94/154 154/93/153 156/95/155
f 155/94/154 156/95/155 157/93/156
f 40/36/40 152/91/151 41/37/41
f 41/37/41 152/91/151 151/66/150
f 41/37/41 151/66/150 52/48/52
f 52/48/52 151/66/150 153/92/152
f 52/48/52 153/92/152 8/8/8
f 8/8/8 153/92/152 155/94/154
f 8/8/8 155/94/154 158/92/157
f 158/92/157 155/94/154 157/93/156
f 158/92/157 157/93/156 159/91/158
f 15/15/15 83/2/82 13/13/13
f 13/13/13 83/2/82 84/3/83
f 13/13/13 84/3/83 142/74/141
f 142/74/141 84/3/83 160/80/159
f 142/74/141 160/80/159 144/72/143
f 161/82/160 162/81/161 115/54/114
f 115/54/114 162/81/161 73/28/72
f 115/54/114 73/28/72 113/55/112
f 113/55/112 73/28/72 72/29/31
f 113/55/112 72/29/31 74/32/73
f 163/86/162 164/85/163 150/76/149
f 150/76/149 164/85/163 165/84/164
f 150/76/149 165/84/164 149/77/148
f 149/77/148 165/84/164 166/83/165
f 149/77/148 166/83/165 148/78/147
f 107/53/106 167/38/166 108/36/107
f 108/36/107 167/38/166 99/37/98
f 108/36/107 99/37/98 159/91/158
f 159/91/158 99/37/98 98/66/97
f 159/91/158 98/66/97 158/92/157
f 158/92/157 98/66/97 100/48/99
f 158/92/157 100/48/99 8/8/8
f 8/8/8 100/48/99 102/7/101
f 8/8/8 102/7/101 9/9/9
f 168/70/167 169/69/168 26/24/26
f 26/24/26 169/69/168 170/96/169
f 26/24/26 170/96/169 24/22/24
f 24/22/24 170/96/169 51/47/51
f 24/22/24 51/47/51 25/23/25
f 25/23/25 51/47/51 50/46/50
f 25/23/25 50/46/50 96/47/95
f 96/47/95 50/46/50 171/45/170
f 96/47/95 171/45/170 172/97/171
f 17/16/17 16/10/16 2/2/2
f 2/2/2 16/10/16 39/35/39
f 2/2/2 39/35/39 125/15/124
f 125/15/124 39/35/39 173/98/172
f 125/15/124 173/98/172 124/14/123
f 124/14/123 173/98/172 174/99/173
f 124/14/123 174/99/173 122/75/121
f 122/75/121 174/99/173 175/100/174
f 122/75/121 175/100/174 120/73/119
f 120/73/119 175/100/174 176/101/175
f 120/73/119 176/101/175 118/71/117
f 118/71/117 176/101/175 177/102/176
f 118/71/117 177/102/176 119/72/118
f 119/72/118 177/102/176 178/103/177
f 119/72/118 178/103/177 130/80/129
f 20/18/20 19/17/19 36/33/36
f 36/33/36 19/17/19 126/76/125
f 36/33/36 126/76/125 38/34/38
f 38/34/38 126/76/125 136/86/135
f 38/34/38 136/86/135 39/35/39
f 39/35/39 136/86/135 179/104/178
f 39/35/39 179/104/178 173/98/172
f 173/98/172 179/104/178 180/105/179
f 173/98/172 180/105/179 174/99/173
f 174/99/173 180/105/179 181/106/180
f 174/99/173 181/106/180 175/100/174
f 22/20/22 21/19/21 128/78/127
f 128/78/127 21/19/21 58/54/58
f 128/78/127 58/54/58 133/83/132
f 133/83/132 58/54/58 132/82/131
f 133/83/132 132/82/131 134/84/133
f 134/84/133 132/82/131 182/107/181
f 134/84/133 182/107/181 135/85/134
f 135/85/134 182/107/181 183/108/182
f 135/85/134 183/108/182 136/86/135
f 136/86/135 183/108/182 184/109/183
f 136/86/135 184/109/183 179/104/178
f 179/104/178 184/109/183 185/110/184
f 179/104/178 185/110/184 180/105/179
f 6/6/6 186/111/185 4/4/4
f 4/4/4 186/111/185 187/112/186
f 4/4/4 187/112/186 129/79/128
f 129/79/128 187/112/186 188/113/187
f 129/79/128 188/113/187 189/20/188
f 189/20/188 188/113/187 45/41/45
f 189/20/188 45/41/45 33/21/33
f 33/21/33 45/41/45 61/57/61
f 33/21/33 61/57/61 34/31/34
f 34/31/34 61/57/61 60/56/60
f 34/31/34 60/56/60 35/32/35
f 35/32/35 60/56/60 190/114/189
f 35/32/35 190/114/189 31/29/31
f 31/29/31 190/114/189 191/115/190
f 31/29/31 191/115/190 32/30/32
f 160/80/159 192/103/191 144/72/143
f 144/72/143 192/103/191 193/102/192
f 144/72/143 193/102/192 145/71/144
f 145/71/144 193/102/192 194/101/193
f 145/71/144 194/101/193 143/73/142
f 143/73/142 194/101/193 195/100/194
f 143/73/142 195/100/194 141/75/140
f 141/75/140 195/100/194 196/99/195
f 141/75/140 196/99/195 14/14/14
f 14/14/14 196/99/195 197/98/196
f 14/14/14 197/98/196 15/15/15
f 15/15/15 197/98/196 87/35/86
f 15/15/15 87/35/86 83/2/82
f 83/2/82 87/35/86 10/10/10
f 83/2/82 10/10/10 81/16/80
f 81/16/80 10/10/10 12/12/12
f 104/68/103 198/116/197 106/70/105
f 106/70/105 198/116/197 199/117/198
f 106/70/105 199/117/198 200/44/199
f 200/44/199 199/117/198 67/43/67
f 200/44/199 67/43/67 201/42/200
f 201/42/200 67/43/67 66/25/66
f 201/42/200 66/25/66 202/118/201
f 202/118/201 66/25/66 203/119/202
f 202/118/201 203/119/202 204/62/203
f 204/62/203 203/119/202 205/120/204
f 204/62/203 205/120/204 206/61/205
f 195/100/194 207/106/206 196/99/195
f 196/99/195 207/106/206 208/105/207
f 196/99/195 208/105/207 197/98/196
f 197/98/196 208/105/207 209/104/208
f 197/98/196 209/104/208 87/35/86
f 87/35/86 209/104/208 163/86/162
f 87/35/86 163/86/162 88/34/87
f 88/34/87 163/86/162 150/76/149
f 88/34/87 150/76/149 86/33/85
f 86/33/85 150/76/149 89/17/88
f 86/33/85 89/17/88 85/18/84
f 85/18/84 89/17/88 91/5/90
f 80/24/79 210/63/209 78/64/77
f 78/64/77 210/63/209 211/121/210
f 78/64/77 211/121/210 48/44/48
f 48/44/48 211/121/210 212/122/211
f 48/44/48 212/122/211 46/42/46
f 46/42/46 212/122/211 27/25/27
f 46/42/46 27/25/27 47/43/47
f 47/43/47 27/25/27 29/27/29
f 47/43/47 29/27/29 213/58/212
f 213/58/212 29/27/29 28/26/28
f 213/58/212 28/26/28 214/59/213
f 214/59/213 28/26/28 215/60/214
f 214/59/213 215/60/214 216/87/215
f 217/123/216 218/124/217 219/117/218
f 219/117/218 218/124/217 220/116/219
f 219/117/218 220/116/219 168/70/167
f 168/70/167 220/116/219 221/68/220
f 168/70/167 221/68/220 169/69/168
f 169/69/168 221/68/220 222/67/221
f 169/69/168 222/67/221 170/96/169
f 170/96/169 222/67/221 223/125/222
f 170/96/169 223/125/222 51/47/51
f 51/47/51 223/125/222 224/97/223
f 51/47/51 224/97/223 49/45/49
f 198/116/197 225/124/224 199/117/198
f 199/117/198 225/124/224 226/123/225
f 199/117/198 226/123/225 67/43/67
f 67/43/67 226/123/225 63/58/63
f 67/43/67 63/58/63 65/27/65
f 65/27/65 63/58/63 62/26/62
f 65/27/65 62/26/62 66/25/66
f 66/25/66 62/26/62 70/62/70
f 66/25/66 70/62/70 203/119/202
f 203/119/202 70/62/70 69/61/69
f 203/119/202 69/61/69 205/120/204
f 205/120/204 69/61/69 140/90/139
f 205/120/204 140/90/139 206/61/205
f 206/61/205 140/90/139 227/89/226
f 206/61/205 227/89/226 228/88/227
f 208/105/207 229/110/228 209/104/208
f 209/104/208 229/110/228 230/109/229
f 209/104/208 230/109/229 163/86/162
f 163/86/162 230/109/229 231/108/230
f 163/86/162 231/108/230 164/85/163
f 164/85/163 231/108/230 232/107/231
f 164/85/163 232/107/231 165/84/164
f 165/84/164 232/107/231 161/82/160
f 165/84/164 161/82/160 166/83/165
f 166/83/165 161/82/160 115/54/114
f 166/83/165 115/54/114 148/78/147
f 148/78/147 115/54/114 114/19/113
f 148/78/147 114/19/113 146/20/145
f 146/20/145 114/19/113 112/21/111
f 233/125/232 103/67/102 234/96/233
f 234/96/233 103/67/102 105/69/104
f 234/96/233 105/69/104 80/24/79
f 80/24/79 105/69/104 106/70/105
f 80/24/79 106/70/105 210/63/209
f 210/63/209 106/70/105 200/44/199
f 210/63/209 200/44/199 211/121/210
f 211/121/210 200/44/199 201/42/200
f 211/121/210 201/42/200 212/122/211
f 212/122/211 201/42/200 202/118/201
f 212/122/211 202/118/201 27/25/27
f 27/25/27 202/118/201 204/62/203
f 27/25/27 204/62/203 28/26/28
f 28/26/28 204/62/203 206/61/205
f 28/26/28 206/61/205 215/60/214
f 215/60/214 206/61/205 228/88/227
f 215/60/214 228/88/227 216/87/215
f 213/58/212 217/123/216 47/43/47
f 47/43/47 217/123/216 219/117/218
f 47/43/47 219/117/218 48/44/48
f 48/44/48 219/117/218 168/70/167
f 48/44/48 168/70/167 77/63/76
f 77/63/76 168/70/167 26/24/26
f 77/63/76 26/24/26 79/65/78
f 79/65/78 26/24/26 25/23/25
f 79/65/78 25/23/25 80/24/79
f 80/24/79 25/23/25 97/22/96
f 80/24/79 97/22/96 234/96/233
f 234/96/233 97/22/96 96/47/95
f 234/96/233 96/47/95 233/125/232
f 233/125/232 96/47/95 172/97/171
f 71/30/71 235/115/234 72/29/31
f 72/29/31 235/115/234 236/114/235
f 72/29/31 236/114/235 74/32/73
f 74/32/73 236/114/235 117/56/116
f 74/32/73 117/56/116 75/31/74
f 75/31/74 117/56/116 116/57/115
f 75/31/74 116/57/115 76/21/75
f 76/21/75 116/57/115 93/41/92
f 76/21/75 93/41/92 237/20/236
f 237/20/236 93/41/92 238/113/237
f 237/20/236 238/113/237 147/79/146
f 147/79/146 238/113/237 239/112/238
f 147/79/146 239/112/238 90/4/89
f 90/4/89 239/112/238 240/111/239
f 90/4/89 240/111/239 92/6/91
o editpl_f-0000-1914
v 0.000000 60.314095 10.280007
v 0.000000 64.757683 8.611866
v -4.166520 59.839256 9.249784
v -7.547354 56.168884 3.211805
v -6.639979 58.456451 6.902606
v -8.737789 59.752632 1.548109
v 4.166520 59.839256 9.249784
v 8.737789 59.752632 1.548109
v 6.639979 58.456451 6.902606
v 7.547354 56.168884 3.211805
v -4.171811 64.231514 7.516073
v -5.912491 63.076500 5.592321
v -7.232550 61.982449 4.224246
v 7.232550 61.982449 4.224246
v 5.912491 63.076500 5.592321
v 4.171811 64.231514 7.516073
vn -0.0000 0.3468 0.9379
vn -0.0000 0.3537 0.9354
vn -0.5428 0.3146 0.7787
vn -0.8019 0.0078 0.5974
vn -0.8657 0.1417 0.4801
vn -0.8674 0.0315 0.4967
vn 0.5428 0.3146 0.7787
vn 0.8674 0.0315 0.4967
vn 0.8657 0.1417 0.4801
vn 0.8019 0.0078 0.5974
vn -0.5597 0.2996 0.7726
vn -0.7774 0.2591 0.5732
vn -0.8561 0.2121 0.4712
vn 0.8561 0.2121 0.4712
vn 0.7774 0.2591 0.5732
vn 0.5597 0.2996 0.7726
vt 0.011047 0.011139
vt 0.214478 0.011139
vt 0.011047 0.212860
vt 0.011047 0.484375
vt 0.011047 0.402374
vt 0.214478 0.484375
vt 0.214478 0.212891
vt 0.214478 0.359406
vt 0.214478 0.433441
s 1
usemtl f_hair0115
f 241/126/240 242/127/241 243/128/242
f 244/129/243 245/130/244 246/131/245
f 242/127/241 241/126/240 247/128/246
f 248/131/247 249/130/248 250/129/249
f 242/127/241 251/132/250 243/128/242
f 243/128/242 251/132/250 252/133/251
f 243/128/242 252/133/251 245/130/244
f 245/130/244 252/133/251 253/134/252
f 245/130/244 253/134/252 246/131/245
f 248/131/247 254/134/253 249/130/248
f 249/130/248 254/134/253 255/133/254
f 249/130/248 255/133/254 247/128/246
f 247/128/246 255/133/254 256/132/255
f 247/128/246 256/132/255 242/127/241
