mtllib f_hair026.mtl
o editpl_f-0000-1896
v -6.362211 61.639153 5.811258
v -5.811965 59.925884 7.417163
v -4.142712 61.132229 8.527404
v -8.494411 53.249271 -2.832842
v -9.166345 58.514202 -0.509004
v -8.743080 55.703674 -6.933733
v -3.044867 51.767006 -18.850767
v -1.962894 43.771755 -18.546257
v 0.000000 43.746086 -16.755867
v 3.359670 34.913452 -18.692953
v 0.000000 40.727013 -20.591145
v 1.962894 40.730225 -18.460682
v -3.997214 63.483963 7.659437
v -1.997284 62.065865 9.159763
v 0.000000 63.913883 8.686327
v 0.000000 62.190990 9.753226
v 5.811965 59.925884 7.417163
v 6.507708 57.160271 7.147105
v 8.047337 59.441422 3.522984
v 0.000000 61.292648 -16.217974
v 0.000000 57.227646 -16.052382
v 4.248528 57.570942 -19.253077
v 2.573984 68.713600 -15.916797
v 3.296181 66.977875 -18.830765
v 0.000000 68.938187 -21.034576
v 0.000000 62.325745 -22.265953
v -3.296181 66.977875 -18.830765
v -3.862298 62.014530 -19.432005
v 0.000000 35.157288 -21.945883
v -3.359670 34.913452 -18.692953
v 0.000000 34.371239 -15.518930
v 0.000000 40.704556 -16.755867
v -1.962894 40.730225 -18.460682
v 0.000000 45.539566 -8.474068
v 0.000000 47.714836 -8.321812
v 4.521005 46.078571 -5.621225
v 4.878136 48.128719 -5.598999
v 6.023598 47.833549 -1.602574
v 8.494411 53.249271 -2.832842
v 3.470778 62.925709 8.689661
v 1.970830 62.097950 9.223110
v 3.822617 61.132229 8.527404
v 0.000000 59.903423 10.099968
v -8.047337 59.441422 3.522984
v 7.473283 56.120762 3.858612
v 7.719306 53.018269 2.211588
v 9.166345 58.514202 -0.509004
v 8.200770 55.572128 -0.448990
v 5.105641 56.919643 -11.085747
v 8.364786 60.137634 -6.961518
v 8.743080 55.703674 -6.933733
v -4.248528 65.899864 -1.316958
v 0.000000 66.904083 -1.316958
v -4.375508 64.959808 -5.966857
v 0.000000 66.329788 -5.526762
v -8.200770 55.572128 -0.448990
v -7.079117 51.898548 -6.526978
v -4.878136 48.128719 -5.598999
v -6.023598 47.833549 -1.602574
v -4.521005 46.078571 -5.621225
v 0.000000 56.040550 -13.096183
v 0.000000 61.340775 -12.158203
v 4.875490 60.859520 -9.959947
v 3.790872 63.426212 7.419385
v 4.118903 65.181190 3.828605
v 0.000000 66.223907 4.268700
v -4.118903 65.181190 3.828605
v 0.000000 52.007633 -12.187097
v 4.441643 52.642891 -10.593417
v 7.079117 51.898548 -6.526978
v 3.198300 45.671108 10.813457
v 3.544849 53.374397 10.946819
v 3.719446 45.526733 10.239999
v 4.081867 53.332687 10.580073
v 4.327890 45.613358 10.740108
v 4.724702 53.425732 10.937929
v 3.761773 45.610149 11.288005
v 4.097740 53.560482 11.538059
v -4.248528 57.570942 -19.253077
v 0.000000 57.750610 -22.771618
v 3.862298 62.014530 -19.432005
v 0.000000 65.113815 -16.123510
v 2.021093 67.340424 -13.474044
v 0.000000 65.575821 -14.826560
v -2.021093 67.340424 -13.474044
v -2.573984 68.713600 -15.916797
v 0.000000 69.294319 -11.918151
v 0.000000 71.023628 -15.987925
v 4.052768 61.209232 8.617423
v 3.544849 53.374397 10.946819
v 3.809390 61.334358 9.262009
v 4.285564 61.716152 9.616529
v 4.798773 61.266983 9.029736
v 3.470778 62.925709 8.689661
v 3.790872 63.426212 7.419385
v 4.446934 61.584610 8.019516
v 3.822617 61.132229 8.527404
v -7.719306 53.018269 2.211588
v -7.510319 56.120762 3.858612
v -6.507708 57.160271 7.147105
v 4.375508 64.959808 -5.966857
v 4.248528 65.899864 -1.316958
v 7.486510 63.535297 -1.205823
v 7.050017 63.288254 2.755038
v 6.362211 61.639153 5.811258
v 7.163770 63.252960 -5.696799
v 2.809425 64.247559 -10.011068
v 0.000000 66.589661 -7.936174
v -8.364786 59.759048 -6.961517
v -5.105641 56.537849 -11.085746
v -4.441643 52.264301 -10.593417
v 0.000000 51.702839 -22.089249
v 0.000000 52.103886 -16.069052
v 3.044867 51.767006 -18.850767
v 1.962894 43.771755 -18.546257
v 0.000000 43.768547 -20.591145
v 0.000000 30.569321 -20.481119
v -2.193045 31.278372 -18.115049
v 0.000000 30.152235 -16.498032
v 2.193045 31.278372 -18.115049
v -2.809425 64.247559 -10.011068
v 4.446934 61.584610 8.019516
v -7.050017 63.288254 2.755038
v -7.486510 63.535297 -1.205823
v -7.163770 62.874374 -5.696799
v -4.875490 60.859520 -9.959947
vn -0.7906 0.3288 0.5166
vn -0.8136 0.2347 0.5320
vn -0.5500 0.2829 0.7858
vn -0.9280 -0.3696 -0.0472
vn -0.9961 0.0157 0.0863
vn -0.9254 -0.1568 -0.3450
vn -0.9881 -0.1490 0.0392
vn -0.9915 -0.1259 0.0315
vn -0.0000 -0.0785 0.9969
vn 0.9948 -0.0548 -0.0861
vn -0.0000 0.2591 -0.9658
vn 0.9086 0.2115 0.3602
vn -0.4875 0.6290 0.6055
vn -0.3135 0.3214 0.8936
vn 0.0157 0.6911 0.7225
vn -0.0078 0.3443 0.9388
vn 0.7616 0.2120 0.6124
vn 0.9166 0.0157 0.3995
vn 0.9359 0.1415 0.3225
vn -0.0000 0.0393 0.9992
vn -0.0000 0.0157 0.9999
vn 0.9795 -0.0470 0.1959
vn 0.9348 0.3378 0.1100
vn 0.9723 0.1490 -0.1803
vn -0.0000 0.7598 -0.6502
vn -0.0000 0.1644 -0.9864
vn -0.9723 0.1490 -0.1803
vn -0.9962 0.0863 -0.0079
vn -0.0000 -0.0394 -0.9992
vn -0.9948 -0.0548 -0.0861
vn -0.0000 0.0472 0.9989
vn -0.0000 0.1885 0.9821
vn -0.9086 0.2115 0.3602
vn -0.0000 0.0629 -0.9980
vn 0.0078 -0.3996 -0.9167
vn 0.6978 -0.0627 -0.7135
vn 0.7569 -0.4336 -0.4889
vn 0.9093 -0.3058 -0.2822
vn 0.9280 -0.3696 -0.0472
vn -0.0787 0.4490 0.8901
vn 0.2752 0.2202 0.9358
vn 0.2283 -0.3778 0.8973
vn -0.0000 0.1095 0.9940
vn -0.9359 0.1416 0.3225
vn 0.9444 -0.1181 0.3069
vn 0.9744 -0.2043 0.0943
vn 0.9954 0.0157 0.0941
vn 0.9435 -0.3066 0.1258
vn 0.6063 -0.0000 -0.7953
vn 0.8541 0.2664 -0.4467
vn 0.9254 -0.1568 -0.3451
vn -0.4472 0.8944 0.0078
vn -0.0000 1.0000 -0.0079
vn -0.4468 0.8779 -0.1724
vn -0.9435 -0.3066 0.1258
vn -0.8086 -0.4161 -0.4161
vn -0.7606 -0.4391 -0.4783
vn -0.9093 -0.3058 -0.2822
vn -0.6978 -0.0627 -0.7135
vn -0.0000 -0.0707 -0.9975
vn -0.0000 0.0863 -0.9963
vn 0.5735 0.3378 -0.7463
vn 0.6040 0.6982 0.3844
vn 0.3917 0.8853 0.2507
vn 0.0078 0.9389 0.3442
vn -0.3940 0.8903 0.2285
vn 0.0157 -0.4566 -0.8895
vn 0.5187 -0.4165 -0.7466
vn 0.8004 -0.4159 -0.4316
vn -0.9992 0.0393 0.0079
vn -0.9991 0.0393 0.0157
vn -0.0550 0.0393 -0.9977
vn -0.1255 -0.0863 -0.9883
vn 0.9967 -0.0392 -0.0706
vn 0.9919 -0.0472 -0.1181
vn 0.0236 -0.0393 0.9989
vn 0.0078 0.0941 0.9955
vn -0.9795 -0.0470 0.1959
vn -0.0000 0.0078 -1.0000
vn 0.9962 0.0863 -0.0079
vn -0.0000 -0.6668 0.7452
vn 0.8897 -0.3857 0.2441
vn -0.0000 -0.9439 0.3304
vn -0.8897 -0.3857 0.2441
vn -0.9348 0.3378 0.1100
vn -0.0000 0.8462 0.5328
vn -0.0000 1.0000 0.0002
vn -0.3761 -0.6189 -0.6895
vn -0.9605 -0.0394 0.2756
vn 0.2197 0.5100 0.8317
vn 0.9869 -0.0391 -0.1566
vn -0.0788 0.4490 0.8901
vn 0.6040 0.6981 0.3844
vn 0.9091 0.0862 0.4076
vn 0.2282 -0.3779 0.8973
vn -0.9735 -0.2119 0.0864
vn -0.9452 -0.1103 0.3072
vn -0.9164 0.0235 0.3995
vn 0.4228 0.8926 -0.1566
vn 0.4472 0.8944 0.0078
vn 0.8018 0.5974 0.0157
vn 0.7469 0.6054 0.2752
vn 0.7770 0.3689 0.5101
vn 0.7555 0.5745 -0.3148
vn 0.7237 0.5035 -0.4720
vn -0.0000 0.9997 0.0236
vn -0.8559 0.2591 -0.4476
vn -0.6112 -0.0000 -0.7915
vn -0.5200 -0.4255 -0.7406
vn -0.0000 -0.1886 -0.9821
vn -0.0000 -0.0629 0.9980
vn 0.9881 -0.1490 0.0392
vn 0.9915 -0.1259 0.0315
vn -0.0000 -0.1809 -0.9835
vn -0.0000 -0.7266 -0.6871
vn -0.8013 -0.5970 0.0393
vn -0.0000 -0.6371 0.7708
vn 0.8013 -0.5970 0.0393
vn -0.7331 0.4887 -0.4730
vn 0.9091 0.0862 0.4075
vn 0.2283 -0.3779 0.8973
vn -0.7571 0.5993 0.2602
vn -0.8148 0.5797 -0.0000
vn -0.7768 0.5414 -0.3217
vn -0.5888 0.3297 -0.7380
vt 0.796875 0.218750
vt 0.929688 0.234375
vt 0.937500 0.132812
vt 0.460938 0.531250
vt 0.523438 0.390625
vt 0.312500 0.500000
vt 0.148438 0.859375
vt 0.012726 0.867188
vt 0.012726 0.968750
vt 0.765625 0.851562
vt 0.656250 0.742188
vt 0.656250 0.851562
vt 0.804688 0.117188
vt 0.867188 0.070312
vt 0.793518 0.012268
vt 0.861603 0.017853
vt 0.929688 0.343750
vt 0.687500 0.320312
vt 0.367188 0.987549
vt 0.289062 0.984375
vt 0.273438 0.867188
vt 0.585938 0.867188
vt 0.523438 0.875000
vt 0.531891 0.738922
vt 0.371735 0.736969
vt 0.375000 0.859375
vt 0.773438 0.734375
vt 0.750000 0.968750
vt 0.664062 0.976562
vt 0.156250 0.718750
vt 0.111969 0.671875
vt 0.304688 0.726562
vt 0.296875 0.656250
vt 0.507812 0.679688
vt 0.820312 0.109375
vt 0.857452 0.080170
vt 0.929688 0.023438
vt 0.671875 0.421875
vt 0.632812 0.523438
vt 0.546875 0.460938
vt 0.132812 0.468750
vt 0.281250 0.406250
vt 0.492188 0.117188
vt 0.493286 0.012756
vt 0.295563 0.144531
vt 0.303558 0.011658
vt 0.304688 0.570312
vt 0.032532 0.531250
vt 0.014160 0.361969
vt 0.140625 0.328125
vt 0.635925 0.110931
vt 0.642853 0.012756
vt 0.062500 0.597656
vt 0.156250 0.570312
vt 0.970856 0.736633
vt 0.970856 0.406799
vt 0.978546 0.744446
vt 0.978546 0.414612
vt 0.986237 0.752258
vt 0.986237 0.422424
vt 0.287750 0.739563
vt 0.531250 0.987549
vt 0.640625 0.890625
vt 0.640625 0.987549
vt 0.640625 0.742188
vt 0.585938 0.742188
vt 0.978546 0.108398
vt 0.970856 0.100586
vt 0.986237 0.116211
vt 0.970856 0.014130
vt 0.978546 0.014130
vt 0.986237 0.014130
vt 0.492188 0.231750
vt 0.648438 0.210938
vt 0.316406 0.256500
vt 0.046875 0.189056
vt 0.085938 0.031250
vt 0.140625 0.750000
vt 0.148438 0.976562
vt 0.012726 0.773438
vt 0.898438 0.734375
vt 0.857635 0.859375
vt 0.898438 0.953125
vt 0.851562 0.164062
s 1
usemtl f_hair0104
f 1/1/1 2/2/2 3/3/3
f 4/4/4 5/5/5 6/6/6
f 7/7/7 8/8/8 9/9/9
f 10/10/10 11/11/11 12/12/12
f 13/13/13 14/14/14 15/15/15
f 15/15/15 14/14/14 16/16/16
f 17/2/17 18/17/18 19/18/19
f 20/19/20 21/20/21 22/21/22
f 23/22/23 24/23/24 25/24/25
f 25/24/25 24/23/24 26/25/26
f 25/24/25 26/25/26 27/23/27
f 27/23/27 26/25/26 28/26/28
f 11/11/11 29/27/29 30/10/30
f 10/10/10 12/12/12 31/28/31
f 31/28/31 12/12/12 32/29/32
f 31/28/31 32/29/32 33/12/33
f 34/30/34 35/31/35 36/32/36
f 36/32/36 35/31/35 37/33/37
f 36/32/36 37/33/37 38/34/38
f 38/34/38 37/33/37 39/4/39
f 40/35/40 41/36/41 42/3/42
f 42/3/42 41/36/41 43/37/43
f 2/2/2 1/1/1 44/18/44
f 45/38/45 46/39/46 47/5/47
f 47/5/47 46/39/46 48/40/48
f 47/5/47 48/40/48 39/4/39
f 49/41/49 50/42/50 51/6/51
f 52/43/52 53/44/53 54/45/54
f 54/45/54 53/44/53 55/46/53
f 5/5/5 4/4/4 56/40/55
f 6/6/6 57/47/56 4/4/4
f 4/4/4 57/47/56 58/33/57
f 4/4/4 58/33/57 59/34/58
f 59/34/58 58/33/57 60/32/59
f 61/48/60 62/49/61 49/41/49
f 49/41/49 62/49/61 63/50/62
f 49/41/49 63/50/62 50/42/50
f 64/13/63 65/51/64 66/52/65
f 66/52/65 65/51/64 53/44/53
f 66/52/65 53/44/53 67/51/66
f 67/51/66 53/44/53 52/43/52
f 68/53/67 61/48/60 69/54/68
f 69/54/68 61/48/60 49/41/49
f 69/54/68 49/41/49 70/47/69
f 70/47/69 49/41/49 51/6/51
f 71/55/70 72/56/71 73/57/72
f 73/57/72 72/56/71 74/58/73
f 73/57/72 74/58/73 75/59/74
f 75/59/74 74/58/73 76/60/75
f 75/59/74 76/60/75 77/57/76
f 77/57/76 76/60/75 78/58/77
f 77/57/76 78/58/77 71/55/70
f 71/55/70 78/58/77 72/56/71
f 79/21/78 28/26/28 80/61/79
f 80/61/79 28/26/28 26/25/26
f 80/61/79 26/25/26 81/26/80
f 81/26/80 26/25/26 24/23/24
f 81/26/80 24/23/24 82/62/81
f 82/62/81 24/23/24 23/22/23
f 82/62/81 23/22/23 83/63/82
f 83/63/82 84/64/83 82/62/81
f 82/62/81 84/64/83 85/63/84
f 82/62/81 85/63/84 86/22/85
f 86/22/85 85/63/84 87/65/86
f 86/22/85 87/65/86 88/66/87
f 89/67/88 90/56/71 91/68/89
f 91/68/89 90/56/71 78/58/77
f 91/68/89 78/58/77 92/67/90
f 92/67/90 78/58/77 76/60/75
f 92/67/90 76/60/75 93/69/91
f 93/69/91 76/60/75 74/58/73
f 93/69/91 74/58/73 89/67/88
f 89/67/88 74/58/73 90/56/71
f 94/70/92 92/67/90 95/71/93
f 95/71/93 92/67/90 93/69/91
f 95/71/93 93/69/91 96/72/94
f 96/72/94 93/69/91 89/67/88
f 96/72/94 89/67/88 97/71/95
f 97/71/95 89/67/88 91/68/89
f 97/71/95 91/68/89 94/70/92
f 94/70/92 91/68/89 92/67/90
f 56/40/55 98/39/96 5/5/5
f 5/5/5 98/39/96 99/38/97
f 5/5/5 99/38/97 44/18/44
f 44/18/44 99/38/97 100/17/98
f 44/18/44 100/17/98 2/2/2
f 101/45/99 102/43/100 103/73/101
f 103/73/101 102/43/100 104/74/102
f 103/73/101 104/74/102 19/18/19
f 19/18/19 104/74/102 105/1/103
f 19/18/19 105/1/103 17/2/17
f 18/17/18 45/38/45 19/18/19
f 19/18/19 45/38/45 47/5/47
f 19/18/19 47/5/47 103/73/101
f 103/73/101 47/5/47 106/75/104
f 103/73/101 106/75/104 101/45/99
f 101/45/99 106/75/104 107/76/105
f 101/45/99 107/76/105 108/77/106
f 5/5/5 109/42/107 6/6/6
f 6/6/6 109/42/107 110/41/108
f 6/6/6 110/41/108 57/47/56
f 57/47/56 110/41/108 111/54/109
f 57/47/56 111/54/109 58/33/57
f 58/33/57 111/54/109 35/31/35
f 58/33/57 35/31/35 60/32/59
f 60/32/59 35/31/35 34/30/34
f 82/62/81 20/19/20 81/26/80
f 81/26/80 20/19/20 22/21/22
f 81/26/80 22/21/22 80/61/79
f 80/61/79 22/21/22 112/78/110
f 80/61/79 112/78/110 79/21/78
f 79/21/78 112/78/110 7/7/7
f 79/21/78 7/7/7 113/79/111
f 113/79/111 7/7/7 9/9/9
f 113/79/111 9/9/9 114/7/112
f 114/7/112 9/9/9 115/8/113
f 114/7/112 115/8/113 116/80/114
f 8/8/8 7/7/7 116/80/114
f 116/80/114 7/7/7 112/78/110
f 116/80/114 112/78/110 114/7/112
f 114/7/112 112/78/110 22/21/22
f 114/7/112 22/21/22 113/79/111
f 113/79/111 22/21/22 21/20/21
f 113/79/111 21/20/21 79/21/78
f 79/21/78 21/20/21 20/19/20
f 79/21/78 20/19/20 28/26/28
f 28/26/28 20/19/20 82/62/81
f 28/26/28 82/62/81 27/23/27
f 27/23/27 82/62/81 86/22/85
f 27/23/27 86/22/85 25/24/25
f 25/24/25 86/22/85 88/66/87
f 25/24/25 88/66/87 23/22/23
f 23/22/23 88/66/87 87/65/86
f 23/22/23 87/65/86 83/63/82
f 11/11/11 10/10/10 29/27/29
f 29/27/29 10/10/10 117/81/115
f 29/27/29 117/81/115 30/10/30
f 30/10/30 117/81/115 118/82/116
f 30/10/30 118/82/116 119/83/117
f 119/83/117 118/82/116 117/81/115
f 119/83/117 117/81/115 120/82/118
f 120/82/118 117/81/115 10/10/10
f 120/82/118 10/10/10 119/83/117
f 119/83/117 10/10/10 31/28/31
f 119/83/117 31/28/31 30/10/30
f 30/10/30 31/28/31 33/12/33
f 30/10/30 33/12/33 11/11/11
f 121/76/119 54/45/54 108/77/106
f 108/77/106 54/45/54 55/46/53
f 108/77/106 55/46/53 101/45/99
f 101/45/99 55/46/53 53/44/53
f 101/45/99 53/44/53 102/43/100
f 102/43/100 53/44/53 65/51/64
f 102/43/100 65/51/64 104/74/102
f 104/74/102 65/51/64 64/13/63
f 104/74/102 64/13/63 105/1/103
f 105/1/103 64/13/63 122/84/120
f 105/1/103 122/84/120 17/2/17
f 17/2/17 122/84/120 42/3/121
f 40/35/40 15/15/15 41/36/41
f 41/36/41 15/15/15 16/16/16
f 41/36/41 16/16/16 43/37/43
f 43/37/43 16/16/16 14/14/14
f 43/37/43 14/14/14 3/3/3
f 3/3/3 14/14/14 13/13/13
f 3/3/3 13/13/13 1/1/1
f 1/1/1 13/13/13 123/74/122
f 1/1/1 123/74/122 44/18/44
f 44/18/44 123/74/122 124/73/123
f 44/18/44 124/73/123 5/5/5
f 5/5/5 124/73/123 125/75/124
f 5/5/5 125/75/124 109/42/107
f 109/42/107 125/75/124 126/50/125
f 109/42/107 126/50/125 110/41/108
f 62/49/61 107/76/105 63/50/62
f 63/50/62 107/76/105 106/75/104
f 63/50/62 106/75/104 50/42/50
f 50/42/50 106/75/104 47/5/47
f 50/42/50 47/5/47 51/6/51
f 51/6/51 47/5/47 39/4/39
f 51/6/51 39/4/39 70/47/69
f 70/47/69 39/4/39 37/33/37
f 70/47/69 37/33/37 69/54/68
f 69/54/68 37/33/37 35/31/35
f 69/54/68 35/31/35 68/53/67
f 68/53/67 35/31/35 111/54/109
f 68/53/67 111/54/109 61/48/60
f 61/48/60 111/54/109 110/41/108
f 61/48/60 110/41/108 62/49/61
f 62/49/61 110/41/108 126/50/125
f 62/49/61 126/50/125 121/76/119
f 121/76/119 126/50/125 125/75/124
f 121/76/119 125/75/124 54/45/54
f 54/45/54 125/75/124 124/73/123
f 54/45/54 124/73/123 52/43/52
f 52/43/52 124/73/123 123/74/122
f 52/43/52 123/74/122 67/51/66
f 67/51/66 123/74/122 13/13/13
f 67/51/66 13/13/13 66/52/65
f 66/52/65 13/13/13 15/15/15
f 66/52/65 15/15/15 64/13/63
f 64/13/63 15/15/15 40/35/40
o editpl_f-0000-1897
v -2.354415 44.172802 -18.552925
v 0.000000 40.438259 -15.872341
v 0.000000 44.172802 -15.872341
v 8.629327 65.710571 -12.002613
v 1.968185 66.692329 -11.802569
v 2.113682 65.049644 -11.253562
v 2.113682 65.049644 -11.253562
v 1.968185 65.392944 -12.950597
v -1.968185 66.692329 -11.802569
v -1.968185 65.392944 -12.950597
v -8.629327 65.710571 -12.002613
v -2.113682 65.049644 -11.253562
v -1.968185 66.692329 -11.802569
v -1.968185 65.392944 -12.950597
v -2.113682 65.049644 -11.253562
v 1.968185 65.392944 -12.950597
v 1.968185 66.692329 -11.802569
v 2.809425 67.500839 -13.690758
v 0.000000 64.597267 -15.837891
v 0.000000 69.846153 -11.616975
v -2.809425 67.500839 -13.690758
v 0.000000 44.172802 -21.233507
v 2.354415 44.172802 -18.552925
v 0.000000 40.438259 -15.872341
v -2.354415 40.438259 -18.552925
v 0.000000 40.438259 -21.233507
v 2.354415 44.172802 -18.552925
v 2.354415 40.438259 -18.552925
v 4.235301 42.902287 10.573406
v 3.383479 39.491795 9.278680
v 3.626857 42.866997 10.171096
v 2.288280 39.482166 10.402258
v 3.015767 42.854160 10.657869
v 3.208882 37.781734 10.304460
v 4.663858 39.485374 10.340022
v 3.584530 39.379501 11.636971
v 3.655956 42.834911 11.132416
v -2.275052 65.611115 -11.851469
v -2.809425 64.247559 -10.011068
v 0.000000 67.773552 -10.171103
v 0.000000 66.589661 -7.936174
v 2.275052 65.611115 -11.851469
v 2.809425 64.247559 -10.011068
v 0.000000 63.413380 -13.604072
v 0.000000 61.340775 -12.158203
v -2.809425 67.500839 -13.690758
v 0.000000 64.597267 -15.837891
v 2.809425 67.500839 -13.690758
v 0.000000 69.846153 -11.616975
v -2.354415 40.438259 -18.552925
v 4.327890 45.613358 10.740108
v 3.719446 45.526733 10.239999
v 3.198300 45.671108 10.813457
v 3.761773 45.610149 11.288005
v 4.327890 45.613358 10.740108
vn -0.8835 0.3910 0.2580
vn -0.0000 -0.3537 0.9353
vn -0.0000 0.6025 0.7981
vn 0.9990 0.0314 -0.0315
vn 0.1487 0.9709 0.1879
vn 0.0708 0.3225 0.9439
vn 0.9990 0.0315 -0.0314
vn 0.0708 -0.9763 -0.2047
vn 0.1489 -0.3056 -0.9404
vn -0.1487 0.9709 0.1879
vn -0.1489 -0.3056 -0.9404
vn -0.9990 0.0313 -0.0315
vn -0.0708 0.3225 0.9439
vn -0.1488 0.9709 0.1879
vn -0.9990 0.0314 -0.0315
vn -0.1488 -0.3056 -0.9404
vn -0.0708 -0.9763 -0.2047
vn -0.9990 0.0315 -0.0314
vn 0.9110 0.2670 -0.3142
vn -0.0001 -0.3139 -0.9495
vn 0.0001 0.9702 0.2425
vn -0.9110 0.2671 -0.3141
vn -0.0000 0.3537 -0.9353
vn 0.8835 0.3910 0.2580
vn -0.0000 -0.3537 0.9354
vn -0.8835 -0.3910 -0.2580
vn -0.0000 -0.6025 -0.7981
vn 0.8835 0.3909 0.2580
vn 0.8835 -0.3910 -0.2580
vn 0.9960 0.0549 -0.0706
vn -0.0548 -0.1489 -0.9873
vn -0.0471 0.1413 -0.9889
vn -0.9899 -0.1414 0.0079
vn -0.9895 0.1414 0.0314
vn -0.0551 -0.9924 -0.1103
vn 0.9483 -0.2978 -0.1097
vn 0.0314 -0.2901 0.9565
vn 0.0550 0.0236 0.9982
vn -0.9999 0.0157 -0.0000
vn -0.7331 0.4887 -0.4729
vn -0.0000 0.7565 0.6540
vn -0.0000 0.9997 0.0237
vn 0.9999 0.0158 -0.0000
vn 0.7237 0.5035 -0.4720
vn -0.0000 -0.7452 -0.6668
vn -0.0000 0.0863 -0.9963
vn -0.9110 0.2670 -0.3142
vn -0.0000 -0.3139 -0.9495
vn -0.0000 0.9701 0.2425
vn -0.8835 -0.3909 -0.2580
vn 0.9967 -0.0393 -0.0706
vn -0.0550 0.0393 -0.9977
vn -0.9992 0.0393 0.0079
vn 0.0236 -0.0393 0.9989
vn 0.9967 -0.0392 -0.0707
vt 0.893738 0.531250
vt 0.949310 0.703125
vt 0.949310 0.531250
vt 0.687500 0.554688
vt 0.710938 0.703125
vt 0.687500 0.703125
vt 0.664062 0.703125
vt 0.703125 0.703125
vt 0.812500 0.718750
vt 0.726562 0.710938
vt 0.812500 0.710938
vt 0.831665 0.531250
vt 0.892944 0.531250
vt 0.892944 0.703125
vt 0.831665 0.703125
vt 0.893738 0.703125
vt 0.929688 0.820312
vt 0.960938 0.953125
vt 0.960938 0.828125
vt 0.988281 0.953125
vt 0.988281 0.835938
vt 0.968750 0.984375
vt 0.929688 0.953125
vt 0.726562 0.609375
vt 0.726562 0.515625
vt 0.812500 0.609375
vt 0.812500 0.515625
vt 0.929688 0.765625
vt 0.960938 0.765625
vt 0.988281 0.765625
s 1
usemtl f_hair0104
f 127/85/126 128/86/127 129/87/128
f 130/88/129 131/89/130 132/90/131
f 130/88/132 133/91/133 134/92/134
f 135/90/135 136/89/136 137/88/137
f 138/90/138 139/89/139 137/88/140
f 140/92/141 141/91/142 137/88/143
f 130/88/132 142/89/134 143/90/130
f 144/93/144 145/94/145 146/94/146
f 146/94/146 145/94/145 147/95/147
f 127/85/126 129/87/128 148/96/148
f 148/96/148 129/87/128 149/97/149
f 150/86/150 151/98/151 152/99/152
f 148/96/148 153/85/153 154/100/154
f 155/101/155 156/102/156 157/103/157
f 157/103/157 156/102/156 158/104/158
f 157/103/157 158/104/158 159/105/159
f 160/106/160 161/107/161 162/102/162
f 162/102/162 161/107/161 163/103/163
f 164/108/164 165/109/165 166/110/166
f 166/110/166 165/109/165 167/111/167
f 166/110/166 167/111/167 168/108/168
f 168/108/168 167/111/167 169/109/169
f 168/108/168 169/109/169 170/110/170
f 170/110/170 169/109/169 171/111/171
f 170/110/170 171/111/171 164/108/164
f 164/108/164 171/111/171 165/109/165
f 164/108/164 172/94/172 170/110/170
f 170/110/170 172/94/172 173/95/173
f 170/110/170 173/95/173 168/108/168
f 168/108/168 173/95/173 174/94/144
f 168/108/168 174/94/144 166/110/166
f 166/110/166 174/94/144 175/95/174
f 166/110/166 175/95/174 164/108/164
f 164/108/164 175/95/174 172/94/172
f 128/86/127 127/85/126 176/100/175
f 176/100/175 127/85/126 148/96/148
f 176/100/175 148/96/148 152/99/152
f 152/99/152 148/96/148 154/100/154
f 152/99/152 154/100/154 150/86/150
f 150/86/150 154/100/154 153/85/153
f 150/86/150 153/85/153 129/87/128
f 177/112/176 155/101/155 178/113/177
f 178/113/177 155/101/155 157/103/157
f 178/113/177 157/103/157 179/114/178
f 179/114/178 157/103/157 159/105/159
f 179/114/178 159/105/159 180/113/179
f 181/112/180 163/103/163 155/101/155
f 155/101/155 163/103/163 161/107/161
f 155/101/155 161/107/161 156/102/156
f 156/102/156 161/107/161 160/106/160
f 156/102/156 160/106/160 158/104/158
f 158/104/158 160/106/160 162/102/162
f 158/104/158 162/102/162 159/105/159
f 159/105/159 162/102/162 163/103/163
f 159/105/159 163/103/163 180/113/179
f 180/113/179 163/103/163 181/112/180
