mtllib f_hair025.mtl
o editpl_f-0000-1895
v -22.255833 65.749069 -23.927427
v -16.877714 65.479568 -19.229740
v -17.734829 67.433464 -25.583344
v -15.536492 63.843300 -15.541160
v -16.427996 63.159920 -19.606489
v -14.528591 60.683060 -16.067940
v -8.470602 51.741341 3.947521
v -7.811895 51.228001 3.943075
v -7.740469 54.567909 1.603678
v 10.563121 60.881977 -16.713636
v 8.483829 58.568745 -15.088840
v 6.087088 62.181366 -16.634729
v 12.652995 68.023804 -18.420675
v 8.920322 68.399185 -15.171080
v 12.049842 68.033424 -10.954608
v 4.642694 51.542419 -10.075527
v 0.000000 51.818340 -11.480277
v 0.000000 55.655548 -12.519391
v 18.197775 66.573624 -26.461311
v 22.393394 65.553360 -24.980989
v 12.454590 64.600471 -16.698078
v -18.197775 66.573624 -26.461311
v -15.824842 62.928913 -27.747145
v -12.454590 64.600471 -16.698078
v -22.496565 61.007103 -22.651592
v 7.825122 53.598984 2.176024
v 7.991783 55.690838 -0.580130
v 8.486475 58.405117 2.406074
v -22.393394 65.553360 -24.980989
v -12.454590 64.600471 -16.698078
v -22.634127 61.379272 -24.230825
v -18.861773 58.905621 -25.678917
v -12.454590 64.600471 -16.698078
v -15.824842 62.928913 -27.747145
v 12.454590 64.600471 -16.698078
v 15.824842 62.928913 -27.747145
v 18.861773 58.905621 -25.678917
v 12.454590 64.600471 -16.698078
v 22.634127 61.379272 -24.230825
v 8.317169 51.696423 3.452969
v 9.412368 49.553234 2.526101
v 9.137246 48.898727 1.731483
v 8.806569 47.746922 2.815053
v 6.005080 46.075363 6.017971
v -8.806569 47.746922 2.815053
v -6.005080 46.075363 6.017971
v -8.671653 48.510513 2.980644
v 12.454590 64.600471 -16.698078
v 22.496565 61.007103 -22.651592
v 22.255833 65.749069 -23.927427
v 16.877714 65.479568 -19.229740
v 17.734829 67.433464 -25.583344
v 10.830308 64.725601 -19.885437
v 7.740469 54.567909 1.603678
v 7.811895 51.228001 3.943075
v 8.470602 51.741341 3.947521
v 8.671653 48.510513 2.980644
v 15.824842 62.928913 -27.747145
v 12.454590 64.600471 -16.698078
v 14.496846 62.454075 -27.212584
v 13.570952 63.467922 -21.992563
v 14.319603 66.089157 -20.526690
v 1.494657 66.586456 -1.749274
v 0.000000 66.281662 -1.749274
v 0.000000 65.335190 4.300930
v 1.166626 65.649612 4.158677
v 4.486615 64.841103 4.193128
v 5.007761 65.614319 -1.529226
v 8.092309 62.511829 0.228934
v -12.454590 64.600471 -16.698078
v -9.359460 56.387054 -8.031749
v -5.729958 56.140011 -11.805902
v -4.642694 51.542419 -10.075527
v -10.563121 60.881977 -16.713636
v -10.830308 64.725601 -19.885437
v -6.087088 62.181366 -16.634729
v -9.137246 48.898727 1.731483
v -9.412368 49.553234 2.526101
v -8.317169 51.696423 3.452969
v -7.740469 54.567909 1.603678
v -16.427996 63.159920 -19.606489
v -14.970374 61.857323 -20.444447
v -12.454590 64.600471 -16.698078
v -14.319603 66.089157 -20.526690
v -13.570952 63.467922 -21.992563
v -14.496846 62.454075 -27.212584
v -16.877714 65.479568 -19.229740
v -14.901594 66.993919 -16.297991
v -14.319603 66.089157 -20.526690
v -2.301507 61.668026 -12.396031
v 0.000000 61.016727 -12.051513
v -3.923143 65.319145 -7.298258
v 0.000000 65.251778 -7.391611
v -1.166626 65.649612 4.158677
v -1.494657 66.586456 -1.749274
v -4.486615 64.841103 4.193128
v -5.007761 65.614319 -1.529226
v -8.092309 62.511829 0.228934
v -8.486475 58.405117 2.406074
v -7.991783 55.690838 -0.580130
v -7.825122 53.598984 2.176024
v -12.049842 68.033424 -10.954608
v -8.920322 68.399185 -15.171080
v -12.652995 68.023804 -18.420675
v 14.319603 66.089157 -20.526690
v 14.901594 66.993919 -16.297991
v 16.877714 65.479568 -19.229740
v 15.536492 63.843300 -15.541160
v 16.427996 63.159920 -19.606489
v 14.528591 60.683060 -16.067940
v 14.970374 61.857323 -20.444447
v 16.427996 63.159920 -19.606489
v 14.970374 61.857323 -20.444447
v 18.544323 57.994446 -24.224157
v 13.570952 63.467922 -21.992563
v 14.496846 62.454075 -27.212584
v 3.923143 65.319145 -7.298258
v 2.301507 61.668026 -12.396031
v 5.729958 56.140011 -11.805902
v 9.359460 56.387054 -8.031749
v 12.949281 60.464890 -12.451600
v 12.422845 58.863914 -11.246894
v 13.412228 63.451881 -11.910371
v 12.764102 61.959988 -9.399825
v 10.608093 67.545753 -10.352255
v 7.259005 67.263420 -13.896358
v 6.005080 46.075363 6.017971
v 7.740469 54.567909 1.603678
v 5.386054 67.221710 -11.261341
v 9.113437 67.016373 -7.521640
v -3.314699 61.023148 8.631871
v 0.000000 59.941925 9.974385
v 0.000000 63.705341 8.689661
v 3.314699 61.023148 8.631871
v 4.039541 63.150291 7.607204
v 5.703504 60.092720 7.124877
v 6.830448 61.895821 4.733246
v 6.362211 57.596607 7.352705
v 7.232550 56.383846 4.626557
v -14.496846 62.454075 -27.212584
v -13.570952 63.467922 -21.992563
v -18.544323 57.994446 -24.224157
v -14.970374 61.857323 -20.444447
v -16.427996 63.159920 -19.606489
v 0.000000 47.856007 -8.321812
v -7.259005 67.263420 -13.896358
v -10.608093 67.545753 -10.352255
v -12.764102 61.959988 -9.399825
v -13.412228 63.451881 -11.910371
v -12.422845 58.863914 -11.246894
v -12.949281 60.464890 -12.451600
v -8.483829 58.568745 -15.088840
v -7.232550 56.383846 4.626557
v -6.362211 57.596607 7.352705
v -6.830448 61.895821 4.733246
v -5.703504 60.092720 7.124877
v -4.039541 63.150291 7.607204
v -6.005080 46.075363 6.017971
v -9.113437 67.016373 -7.521640
v -5.386054 67.221710 -11.261341
v 13.570952 63.467922 -21.992563
v 14.970374 61.857323 -20.444447
v 9.359460 56.387054 -8.031749
v 9.526121 59.759048 -4.563218
v 7.206096 63.346004 -3.791940
v 3.923143 65.319145 -7.298258
v 2.301507 61.668026 -12.396031
v 5.729958 56.140011 -11.805902
v 9.362105 58.228657 -1.938203
v 7.624071 52.094257 -7.114883
v 7.613490 52.386223 -2.946200
v 4.753801 48.064548 -5.598999
v 5.859583 47.833549 -1.302509
v 4.576559 46.078571 -5.860165
v -14.970374 61.857323 -20.444447
v -13.570952 63.467922 -21.992563
v -9.526121 59.759048 -4.563218
v -9.359460 56.387054 -8.031749
v -5.729958 56.140011 -11.805902
v -2.301507 61.668026 -12.396031
v -3.923143 65.319145 -7.298258
v -7.206096 63.346004 -3.791940
v -4.576559 46.078571 -5.860165
v -5.859583 47.833549 -1.302509
v -4.753801 48.064548 -5.598999
v -7.613490 52.386223 -2.946200
v -7.624071 52.094257 -7.114883
v -9.362105 58.228657 -1.938203
v 0.000000 45.539566 -8.714120
v -9.526121 59.759048 -4.563218
v -7.206096 63.346004 -3.791940
v 7.206096 63.346004 -3.791940
v 9.526121 59.759048 -4.563218
vn -0.4812 0.6469 0.5916
vn -0.6605 0.5426 0.5190
vn 0.3929 0.9195 -0.0078
vn -0.9162 -0.0313 0.3994
vn -0.7239 -0.4956 0.4799
vn -0.6735 -0.7284 0.1253
vn -0.7558 0.2048 0.6220
vn 0.1179 0.1415 0.9829
vn 0.4076 0.5173 0.7525
vn -0.1255 -0.8157 -0.5647
vn 0.2510 -0.7687 -0.5883
vn -0.6232 -0.0395 -0.7810
vn 0.0549 0.9182 -0.3924
vn -0.4710 0.8479 -0.2434
vn 0.5828 0.6773 0.4490
vn 0.4400 -0.5108 -0.7386
vn -0.0000 -0.4535 -0.8913
vn -0.0000 -0.1414 -0.9899
vn 0.3605 -0.9325 0.0235
vn -0.4411 -0.6616 -0.6064
vn 0.3689 -0.2512 -0.8949
vn -0.3604 -0.9325 0.0235
vn -0.9588 0.0236 0.2829
vn -0.3689 -0.2511 -0.8949
vn -0.3605 -0.3369 0.8698
vn 0.9747 -0.1415 0.1729
vn 0.9629 -0.2583 0.0783
vn 0.9634 -0.0313 0.2663
vn 0.4411 -0.6616 -0.6064
vn -0.3689 -0.2512 -0.8949
vn 0.4941 0.3216 -0.8078
vn -0.3298 0.8874 -0.3221
vn -0.3690 -0.2511 -0.8949
vn -0.9588 0.0235 0.2829
vn 0.9588 0.0236 0.2829
vn 0.3604 -0.9325 0.0235
vn 0.3299 0.8874 -0.3220
vn -0.4941 0.3215 -0.8078
vn 0.8161 0.3845 -0.4315
vn 0.9799 0.1411 0.1411
vn 0.5687 -0.1659 -0.8056
vn 0.8418 -0.4327 0.3227
vn -0.4883 -0.5198 -0.7010
vn -0.8418 -0.4327 0.3227
vn -0.7565 -0.0079 0.6540
vn -0.5731 -0.1334 0.8086
vn 0.3605 -0.3369 0.8698
vn 0.4812 0.6469 0.5916
vn 0.6605 0.5425 0.5190
vn -0.3929 0.9195 -0.0078
vn -0.5365 0.1972 -0.8205
vn -0.4076 0.5173 0.7525
vn -0.1179 0.1415 0.9829
vn 0.7558 0.2048 0.6220
vn 0.5731 -0.1334 0.8086
vn 0.9589 0.0235 0.2829
vn 0.3690 -0.2512 -0.8948
vn 0.3298 0.8874 -0.3220
vn -0.9862 -0.0548 -0.1565
vn -0.8427 -0.1891 -0.5041
vn -0.1018 0.8850 -0.4543
vn 0.0158 0.9998 0.0079
vn -0.0000 1.0000 -0.0079
vn -0.0000 0.9771 0.2128
vn 0.0392 0.9487 0.3136
vn 0.4785 0.8315 0.2824
vn 0.5179 0.8554 0.0079
vn 0.8614 0.4856 0.1488
vn -0.3689 -0.2513 -0.8949
vn 0.4411 -0.6616 -0.6065
vn -0.3605 -0.9325 0.0235
vn -0.7943 -0.5662 -0.2202
vn -0.0630 -0.5353 -0.8423
vn -0.4400 -0.5108 -0.7386
vn 0.1255 -0.8157 -0.5647
vn 0.5365 0.1972 -0.8205
vn 0.6232 -0.0395 -0.7810
vn -0.5687 -0.1659 -0.8057
vn -0.9799 0.1411 0.1411
vn -0.8161 0.3845 -0.4315
vn -0.9570 -0.0000 -0.2902
vn -0.7238 -0.4957 0.4800
vn 0.0079 -0.9920 0.1259
vn -0.6736 -0.7284 0.1253
vn 0.4941 0.3215 -0.8078
vn -0.3299 0.8874 -0.3220
vn 0.1018 0.8850 -0.4542
vn 0.8427 -0.1891 -0.5041
vn 0.9861 -0.0548 -0.1566
vn -0.6926 0.7161 0.0866
vn 0.1018 0.8850 -0.4543
vn 0.5331 0.2979 -0.7919
vn -0.0000 0.6063 -0.7953
vn 0.1174 0.9861 -0.1174
vn -0.0000 0.9290 -0.3701
vn -0.0392 0.9487 0.3136
vn -0.0157 0.9998 0.0079
vn -0.4785 0.8315 0.2824
vn -0.5179 0.8554 0.0079
vn -0.8614 0.4856 0.1488
vn -0.9634 -0.0313 0.2663
vn -0.9629 -0.2583 0.0783
vn -0.9747 -0.1415 0.1729
vn -0.5828 0.6774 0.4489
vn 0.4710 0.8479 -0.2434
vn -0.0549 0.9182 -0.3924
vn 0.6926 0.7161 0.0866
vn 0.6605 0.5426 0.5190
vn 0.9162 -0.0313 0.3994
vn 0.7239 -0.4957 0.4799
vn 0.6736 -0.7284 0.1253
vn -0.0079 -0.9920 0.1260
vn -0.5364 -0.7889 0.2998
vn -0.8427 -0.1889 -0.5041
vn -0.9861 -0.0547 -0.1566
vn -0.1174 0.9861 -0.1174
vn -0.5331 0.2979 -0.7918
vn 0.0630 -0.5353 -0.8423
vn 0.7943 -0.5662 -0.2202
vn 0.7304 -0.6754 -0.1021
vn 0.8634 -0.5024 0.0471
vn 0.9338 -0.0941 0.3453
vn 0.8176 0.1415 0.5581
vn 0.0626 0.9078 0.4148
vn -0.5475 0.8055 -0.2268
vn 0.7564 -0.0079 0.6540
vn 0.9570 -0.0000 -0.2902
vn -0.5260 0.8400 -0.1334
vn 0.2203 0.8104 0.5429
vn -0.3778 0.2833 0.8815
vn -0.0000 0.3209 0.9471
vn -0.0000 0.6831 0.7303
vn 0.3778 0.2833 0.8815
vn 0.4954 0.5820 0.6449
vn 0.7076 0.2516 0.6604
vn 0.8185 0.3778 0.4329
vn 0.8869 0.0785 0.4552
vn 0.9136 -0.1496 0.3781
vn 0.8428 -0.1889 -0.5041
vn 0.5364 -0.7889 0.2998
vn 0.0079 -0.9920 0.1260
vn -0.0000 -0.3443 -0.9389
vn 0.5474 0.8055 -0.2268
vn -0.0626 0.9078 0.4148
vn -0.8176 0.1415 0.5581
vn -0.9338 -0.0941 0.3453
vn -0.8634 -0.5024 0.0471
vn -0.7304 -0.6754 -0.1021
vn -0.2510 -0.7687 -0.5883
vn -0.9136 -0.1496 0.3781
vn -0.8869 0.0785 0.4552
vn -0.8185 0.3778 0.4329
vn -0.7076 0.2516 0.6604
vn -0.4954 0.5820 0.6449
vn 0.4883 -0.5198 -0.7010
vn -0.2203 0.8104 0.5429
vn 0.5260 0.8400 -0.1334
vn -0.8427 -0.1890 -0.5041
vn 0.7943 -0.5663 -0.2202
vn 0.9565 0.0314 0.2901
vn 0.6692 0.6693 0.3228
vn 0.9799 -0.1411 0.1411
vn 0.8880 -0.4401 -0.1336
vn 0.9206 -0.3855 -0.0629
vn 0.7782 -0.4402 -0.4480
vn 0.9365 -0.2440 -0.2518
vn 0.7060 0.0549 -0.7060
vn 0.0078 -0.9920 0.1260
vn 0.8427 -0.1890 -0.5041
vn -0.9565 0.0314 0.2901
vn -0.7943 -0.5663 -0.2202
vn -0.0629 -0.5353 -0.8423
vn 0.5331 0.2979 -0.7918
vn -0.6692 0.6693 0.3228
vn -0.7060 0.0549 -0.7060
vn -0.9365 -0.2440 -0.2518
vn -0.7782 -0.4402 -0.4480
vn -0.9206 -0.3855 -0.0629
vn -0.8880 -0.4401 -0.1336
vn -0.9799 -0.1411 0.1411
vn -0.0000 0.1644 -0.9864
vn -0.6693 0.6693 0.3228
vn 0.6693 0.6693 0.3228
vt 0.019653 0.604156
vt 0.179688 0.609375
vt 0.013794 0.507812
vt 0.226562 0.218750
vt 0.015625 0.343750
vt 0.250000 0.343750
vt 0.945312 0.718750
vt 0.972656 0.716797
vt 0.943359 0.600586
vt 0.330566 0.233215
vt 0.570312 0.234375
vt 0.553375 0.106750
vt 0.195312 0.012787
vt 0.476562 0.012787
vt 0.476562 0.164062
vt 0.343750 0.835938
vt 0.218750 0.812500
vt 0.213867 0.666016
vt 0.148438 0.555969
vt 0.013794 0.375000
vt 0.135406 0.435760
vt 0.013794 0.710938
vt 0.804688 0.828125
vt 0.739563 0.785156
vt 0.713531 0.691406
vt 0.152771 0.684875
vt 0.013794 0.859375
vt 0.131927 0.943573
vt 0.013794 0.985657
vt 0.125000 0.782104
vt 0.906250 0.718750
vt 0.920898 0.852539
vt 0.878906 0.886719
vt 0.916992 0.888672
vt 0.949219 0.973419
vt 0.987091 0.830078
vt 0.265625 0.101562
vt 0.179688 0.375000
vt 0.179688 0.507812
vt 0.542175 0.431244
vt 0.546875 0.359375
vt 0.764313 0.360657
vt 0.747375 0.408844
vt 0.725250 0.523438
vt 0.585938 0.506500
vt 0.658844 0.622375
vt 0.449219 0.752594
vt 0.328125 0.726562
vt 0.015625 0.328125
vt 0.015625 0.210938
vt 0.015625 0.148438
vt 0.205719 0.126282
vt 0.015625 0.012787
vt 0.385406 0.555969
vt 0.242188 0.476562
vt 0.429688 0.515625
vt 0.375000 0.414062
vt 0.179688 0.710938
vt 0.180389 0.859344
vt 0.179688 0.987152
vt 0.507812 0.343750
vt 0.664062 0.351562
vt 0.484375 0.257812
vt 0.656250 0.257812
vt 0.556396 0.133667
vt 0.539062 0.012787
vt 0.742188 0.012787
vt 0.726562 0.125000
vt 0.951172 0.542969
vt 0.976562 0.437500
vt 0.880554 0.412933
vt 0.835938 0.539062
vt 0.912109 0.631836
vt 0.775391 0.624023
vt 0.867188 0.710938
vt 0.820312 0.750000
vt 0.281250 0.929688
vt 0.015625 0.132812
vt 0.986816 0.343750
vt 0.986816 0.242188
vt 0.986816 0.125000
vt 0.986816 0.012787
vt 0.986816 0.101562
vt 0.986816 0.250000
vt 0.664062 0.718750
vt 0.481750 0.877594
vt 0.640625 0.862488
vt 0.470032 0.924469
vt 0.671875 0.984161
vt 0.470306 0.987274
vt 0.281250 0.984161
vt 0.532532 0.658844
vt 0.535919 0.578125
s 1
usemtl f_hair0103
f 1/1/1 2/2/2 3/3/3
f 4/4/4 5/5/5 6/6/6
f 7/7/7 8/8/8 9/9/9
f 10/10/10 11/11/11 12/12/12
f 13/13/13 14/14/14 15/15/15
f 16/16/16 17/17/17 18/18/18
f 19/3/19 20/1/20 21/19/21
f 22/3/22 23/20/23 24/21/24
f 2/2/2 1/1/1 25/22/25
f 26/23/26 27/24/27 28/25/28
f 29/1/29 30/26/30 31/22/31
f 32/27/32 33/28/33 34/29/34
f 35/21/21 36/20/35 19/3/36
f 37/27/37 38/30/21 39/22/38
f 40/31/39 41/32/40 42/33/41
f 42/33/41 41/32/40 43/34/42
f 42/33/41 43/34/42 44/35/43
f 45/34/44 46/35/45 47/36/46
f 39/22/38 48/26/21 20/1/20
f 49/22/47 50/1/48 51/2/49
f 51/2/49 50/1/48 52/3/50
f 12/12/12 53/37/51 10/10/10
f 54/9/52 55/8/53 56/7/54
f 56/7/54 55/8/53 57/36/55
f 58/29/56 59/28/57 37/27/58
f 60/20/59 61/38/60 52/3/50
f 52/3/50 61/38/60 62/39/61
f 52/3/50 62/39/61 51/2/49
f 63/40/62 64/41/63 65/42/64
f 65/42/64 66/43/65 63/40/62
f 63/40/62 66/43/65 67/44/66
f 63/40/62 67/44/66 68/45/67
f 68/45/67 67/44/66 69/46/68
f 70/19/69 29/1/70 22/3/71
f 71/47/72 72/48/73 73/16/74
f 74/10/75 75/37/76 76/12/77
f 77/33/78 78/32/79 79/31/80
f 79/31/80 78/32/79 7/7/7
f 79/31/80 7/7/7 80/9/81
f 81/49/82 82/50/83 6/6/84
f 31/22/85 83/30/33 32/27/86
f 2/2/2 84/39/87 3/3/3
f 3/3/3 84/39/87 85/38/88
f 3/3/3 85/38/88 86/20/89
f 5/5/5 4/4/4 87/51/2
f 87/51/2 4/4/4 88/52/90
f 87/51/2 88/52/90 89/53/91
f 18/18/18 90/54/92 91/55/93
f 91/55/93 90/54/92 92/56/94
f 91/55/93 92/56/94 93/57/95
f 94/43/96 95/40/97 96/44/98
f 96/44/98 95/40/97 97/45/99
f 96/44/98 97/45/99 98/46/100
f 99/25/101 100/24/102 101/23/103
f 102/15/104 103/14/105 104/13/106
f 105/53/61 106/52/107 107/51/108
f 107/51/108 106/52/107 108/4/109
f 107/51/108 108/4/109 109/5/110
f 109/5/110 108/4/109 110/6/111
f 109/5/110 110/6/111 111/49/112
f 51/2/49 112/58/110 49/22/47
f 49/22/47 112/58/110 113/59/112
f 49/22/47 113/59/112 114/27/113
f 114/27/113 113/59/112 115/60/114
f 114/27/113 115/60/114 116/29/115
f 93/57/95 117/56/116 91/55/93
f 91/55/93 117/56/116 118/54/117
f 91/55/93 118/54/117 18/18/18
f 18/18/18 118/54/117 119/48/118
f 18/18/18 119/48/118 16/16/16
f 16/16/16 119/48/118 120/47/119
f 11/11/11 121/61/120 122/62/121
f 122/62/121 121/61/120 123/63/122
f 122/62/121 123/63/122 124/64/123
f 124/64/123 123/63/122 15/15/15
f 124/64/123 15/15/15 125/65/124
f 125/65/124 15/15/15 14/14/14
f 125/65/124 14/14/14 126/66/125
f 127/35/126 43/34/42 57/36/55
f 57/36/55 43/34/42 41/32/40
f 57/36/55 41/32/40 56/7/54
f 56/7/54 41/32/40 40/31/39
f 56/7/54 40/31/39 128/9/127
f 13/13/13 53/37/51 14/14/14
f 14/14/14 53/37/51 12/12/12
f 14/14/14 12/12/12 126/66/125
f 126/66/125 12/12/12 129/67/128
f 126/66/125 129/67/128 125/65/124
f 125/65/124 129/67/128 130/68/129
f 125/65/124 130/68/129 124/64/123
f 131/69/130 132/70/131 133/71/132
f 133/71/132 132/70/131 134/69/133
f 133/71/132 134/69/133 135/72/134
f 135/72/134 134/69/133 136/73/135
f 135/72/134 136/73/135 137/74/136
f 137/74/136 136/73/135 138/75/137
f 137/74/136 138/75/137 28/25/28
f 28/25/28 138/75/137 139/76/138
f 28/25/28 139/76/138 26/23/26
f 140/29/89 141/60/139 142/27/140
f 142/27/140 141/60/139 143/59/141
f 142/27/140 143/59/141 25/22/25
f 25/22/25 143/59/141 144/58/5
f 25/22/25 144/58/5 2/2/2
f 16/16/16 145/77/142 17/17/17
f 17/17/17 145/77/142 73/16/74
f 17/17/17 73/16/74 18/18/18
f 18/18/18 73/16/74 72/48/73
f 18/18/18 72/48/73 90/54/92
f 146/66/143 103/14/105 147/65/144
f 147/65/144 103/14/105 102/15/104
f 147/65/144 102/15/104 148/64/145
f 148/64/145 102/15/104 149/63/146
f 148/64/145 149/63/146 150/62/147
f 150/62/147 149/63/146 151/61/148
f 150/62/147 151/61/148 152/11/149
f 101/23/103 153/76/150 99/25/101
f 99/25/101 153/76/150 154/75/151
f 99/25/101 154/75/151 155/74/152
f 155/74/152 154/75/151 156/73/153
f 155/74/152 156/73/153 157/72/154
f 8/8/8 7/7/7 47/36/46
f 47/36/46 7/7/7 78/32/79
f 47/36/46 78/32/79 45/34/44
f 45/34/44 78/32/79 77/33/78
f 45/34/44 77/33/78 158/35/155
f 148/64/145 159/68/156 147/65/144
f 147/65/144 159/68/156 160/67/157
f 147/65/144 160/67/157 146/66/143
f 146/66/143 160/67/157 76/12/77
f 146/66/143 76/12/77 103/14/105
f 103/14/105 76/12/77 75/37/76
f 103/14/105 75/37/76 104/13/106
f 11/11/11 10/10/10 121/61/120
f 121/61/120 10/10/10 110/6/111
f 121/61/120 110/6/111 123/63/122
f 123/63/122 110/6/111 108/4/109
f 123/63/122 108/4/109 15/15/15
f 15/15/15 108/4/109 106/52/107
f 15/15/15 106/52/107 13/13/13
f 13/13/13 106/52/107 105/53/61
f 13/13/13 105/53/61 53/37/51
f 53/37/51 105/53/61 161/78/158
f 53/37/51 161/78/158 10/10/10
f 10/10/10 161/78/158 162/5/112
f 10/10/10 162/5/112 110/6/111
f 163/79/159 122/62/121 164/80/160
f 164/80/160 122/62/121 124/64/123
f 164/80/160 124/64/123 165/81/161
f 165/81/161 124/64/123 130/68/129
f 165/81/161 130/68/129 166/82/116
f 166/82/116 130/68/129 129/67/128
f 166/82/116 129/67/128 167/83/117
f 167/83/117 129/67/128 12/12/12
f 167/83/117 12/12/12 168/84/118
f 168/84/118 12/12/12 11/11/11
f 168/84/118 11/11/11 163/79/159
f 163/79/159 11/11/11 122/62/121
f 65/42/64 133/71/132 66/43/65
f 66/43/65 133/71/132 135/72/134
f 66/43/65 135/72/134 67/44/66
f 67/44/66 135/72/134 137/74/136
f 67/44/66 137/74/136 69/46/68
f 69/46/68 137/74/136 28/25/28
f 69/46/68 28/25/28 169/85/162
f 169/85/162 28/25/28 27/24/27
f 169/85/162 27/24/27 170/86/163
f 170/86/163 27/24/27 171/87/164
f 170/86/163 171/87/164 172/88/165
f 172/88/165 171/87/164 173/89/166
f 172/88/165 173/89/166 174/90/167
f 6/6/6 175/5/168 74/10/75
f 74/10/75 175/5/168 176/78/169
f 74/10/75 176/78/169 75/37/76
f 75/37/76 176/78/169 89/53/91
f 75/37/76 89/53/91 104/13/106
f 104/13/106 89/53/91 88/52/90
f 104/13/106 88/52/90 102/15/104
f 102/15/104 88/52/90 4/4/4
f 102/15/104 4/4/4 149/63/146
f 149/63/146 4/4/4 6/6/6
f 149/63/146 6/6/6 151/61/148
f 151/61/148 6/6/6 74/10/75
f 151/61/148 74/10/75 152/11/149
f 152/11/149 74/10/75 76/12/77
f 177/80/170 150/62/147 178/79/171
f 178/79/171 150/62/147 152/11/149
f 178/79/171 152/11/149 179/84/172
f 179/84/172 152/11/149 76/12/77
f 179/84/172 76/12/77 180/83/173
f 180/83/173 76/12/77 160/67/157
f 180/83/173 160/67/157 181/82/94
f 181/82/94 160/67/157 159/68/156
f 181/82/94 159/68/156 182/81/174
f 182/81/174 159/68/156 148/64/145
f 182/81/174 148/64/145 177/80/170
f 177/80/170 148/64/145 150/62/147
f 183/90/175 184/89/176 185/88/177
f 185/88/177 184/89/176 186/87/178
f 185/88/177 186/87/178 187/86/179
f 187/86/179 186/87/178 100/24/102
f 187/86/179 100/24/102 188/85/180
f 188/85/180 100/24/102 99/25/101
f 188/85/180 99/25/101 98/46/100
f 98/46/100 99/25/101 155/74/152
f 98/46/100 155/74/152 96/44/98
f 96/44/98 155/74/152 157/72/154
f 96/44/98 157/72/154 94/43/96
f 189/91/181 183/90/175 145/77/142
f 145/77/142 183/90/175 185/88/177
f 145/77/142 185/88/177 73/16/74
f 73/16/74 185/88/177 187/86/179
f 73/16/74 187/86/179 71/47/72
f 71/47/72 187/86/179 188/85/180
f 71/47/72 188/85/180 190/92/170
f 190/92/170 188/85/180 98/46/100
f 190/92/170 98/46/100 191/93/182
f 191/93/182 98/46/100 97/45/99
f 191/93/182 97/45/99 92/56/94
f 92/56/94 97/45/99 95/40/97
f 92/56/94 95/40/97 93/57/95
f 156/73/153 131/69/130 157/72/154
f 157/72/154 131/69/130 133/71/132
f 157/72/154 133/71/132 94/43/96
f 94/43/96 133/71/132 65/42/64
f 94/43/96 65/42/64 95/40/97
f 95/40/97 65/42/64 64/41/63
f 95/40/97 64/41/63 93/57/95
f 93/57/95 64/41/63 63/40/62
f 93/57/95 63/40/62 117/56/116
f 117/56/116 63/40/62 68/45/67
f 117/56/116 68/45/67 192/93/183
f 192/93/183 68/45/67 69/46/68
f 192/93/183 69/46/68 193/92/160
f 193/92/160 69/46/68 169/85/162
f 193/92/160 169/85/162 120/47/119
f 120/47/119 169/85/162 170/86/163
f 120/47/119 170/86/163 16/16/16
f 16/16/16 170/86/163 172/88/165
f 16/16/16 172/88/165 145/77/142
f 145/77/142 172/88/165 174/90/167
f 145/77/142 174/90/167 189/91/181
