mtllib f_hair013.mtl
o editpl_f-0000-1915
v -0.552891 58.504578 -2.124911
v 0.584636 58.735580 -2.500548
v -0.552891 60.224262 -2.444981
v 0.000000 53.910194 4.475413
v -0.002645 57.866112 6.099099
v -3.595112 53.919819 4.367612
v 0.000000 54.173283 4.293151
v -0.002645 57.866112 5.659004
v -3.486650 54.189323 4.229804
v 0.000000 54.426743 4.118669
v -0.002645 57.567734 6.155778
v -3.380834 54.445992 4.098664
v -8.721916 67.378922 -3.181808
v -4.722057 69.377731 -3.591897
v -3.338507 68.691139 -7.071542
v -0.002645 69.996948 -3.718591
v -11.393780 64.051842 -2.513885
v -6.169096 65.899864 -10.016625
v -0.002645 68.431267 -8.518523
v 12.433426 60.233887 -1.731492
v 9.541993 57.914238 -11.576964
v 11.385844 64.051842 -2.513885
v 7.698143 54.811749 4.715465
v 6.240522 51.195915 1.431418
v 10.391170 52.848225 0.273389
v 5.214103 48.725475 -4.084225
v 8.258970 50.371365 -7.900610
v 8.790697 62.620914 7.095981
v 8.049982 65.870987 5.794588
v 5.915136 68.697563 3.170684
v 8.446794 58.183743 7.352705
v -0.002645 60.554726 11.255774
v -5.224684 48.725475 -4.084225
v -6.261685 51.195915 1.431418
v -10.401751 52.848225 0.273389
v -7.711370 54.811749 4.715465
v -8.457375 58.183743 7.352705
v -8.457375 67.167168 -3.139576
v -4.579204 69.101814 -3.535218
v -3.237982 68.437683 -6.910396
v -0.002645 69.698570 -3.657466
v -11.049877 63.936344 -2.491658
v -5.981272 65.723404 -9.778797
v -0.002645 68.184219 -8.312922
v 12.057778 60.233887 -1.731492
v 9.253644 57.968781 -11.302461
v 11.041941 63.936344 -2.491658
v 7.465347 55.004250 4.494306
v 6.052698 51.475044 1.401412
v 10.076366 53.056770 0.230046
v 5.055378 49.017433 -4.035325
v 8.010301 50.615204 -7.748354
v 8.523510 62.566368 6.820366
v 7.806604 65.710571 5.563426
v 5.735249 68.450516 3.018429
v 8.192834 58.263950 7.079312
v -0.002645 60.593224 10.870135
v -5.068605 49.017433 -4.035325
v -6.071216 51.475044 1.401412
v -10.086948 53.056770 0.230046
v -7.478574 55.004250 4.494306
v -8.200770 58.263950 7.079312
v -8.203416 66.965042 -3.097345
v -4.441643 68.838730 -3.481873
v -3.140101 68.190636 -6.753695
v -0.002645 69.413025 -3.598565
v -10.716555 63.827259 -2.468319
v -5.801384 65.556572 -9.548747
v -0.002645 67.946800 -8.113990
v 11.695357 60.233887 -1.731492
v 8.975876 58.020115 -11.036848
v 10.708619 63.827259 -2.468319
v 7.240487 55.190334 4.282038
v 5.870164 51.741341 1.372516
v 9.772144 53.258896 0.188926
v 4.901944 49.299770 -3.987537
v 7.766923 50.852619 -7.601656
v 8.266906 62.515038 6.554753
v 7.571163 65.556572 5.338933
v 5.563297 68.216309 2.871730
v 7.944166 58.340950 6.814810
v -0.002645 60.628517 10.496721
v -4.915171 49.299770 -3.987537
v -5.888682 51.741341 1.372516
v -9.782726 53.258896 0.188926
v -7.253714 55.190334 4.282038
v -7.952102 58.340950 6.814810
v -12.444008 60.233887 -1.731492
v -8.486475 62.072281 -11.311352
v -0.002645 65.187607 -13.148417
v 3.330571 68.691139 -7.071542
v 4.714120 69.377731 -3.591897
v 6.161160 65.899864 -10.016625
v -0.002645 61.212440 -15.262211
v -9.555220 57.914238 -11.576964
v 3.330571 70.029030 -0.118920
v 8.713980 67.378922 -3.181808
v 8.475893 62.072281 -11.311352
v -0.002645 56.942101 -15.803439
v -9.362105 53.374397 -10.336695
v -0.002645 49.440941 -11.515840
v -0.002645 48.176842 -6.453629
v -0.002645 50.897537 1.463647
v 3.595112 53.919819 4.367612
v -0.002645 63.541714 11.522499
v -0.002645 66.624954 9.972162
v -0.002645 69.249397 6.196897
v -0.002645 70.292122 1.326950
v -12.065714 60.233887 -1.731492
v -8.229870 62.004906 -11.032402
v -0.002645 65.027191 -12.829460
v 3.230045 68.437683 -6.910396
v 4.571268 69.101814 -3.535218
v 5.973335 65.723404 -9.778797
v -0.002645 61.164314 -14.877683
v -9.264225 57.968781 -11.302461
v 3.230045 69.737068 -0.167819
v 8.449439 67.167168 -3.139576
v 8.219288 62.004906 -11.032402
v -0.002645 57.019104 -15.413355
v -9.079047 53.541233 -10.109979
v -0.002645 49.700817 -11.282455
v -0.002645 48.478432 -6.360275
v -0.002645 51.199123 1.430307
v 3.484005 54.189323 4.229804
v -0.002645 63.464714 11.132414
v -0.002645 66.445290 9.634312
v -0.002645 68.989525 5.963513
v -0.002645 69.990532 1.233596
v -11.703293 60.233887 -1.731492
v -7.981201 61.937531 -10.764565
v -0.002645 64.873184 -12.521615
v 3.132165 68.190636 -6.753695
v 4.433707 68.838730 -3.481873
v 5.793448 65.556572 -9.548747
v -0.002645 61.116188 -14.507602
v -8.986457 58.020115 -11.036848
v 3.132165 69.454735 -0.215607
v 8.195480 66.965042 -3.097345
v 7.970620 61.937531 -10.764565
v -0.002645 57.092896 -15.038829
v -8.806569 53.698444 -9.892154
v -0.002645 49.951069 -11.056850
v -0.002645 48.767181 -6.270255
v -0.002645 51.491085 1.399189
v 3.380834 54.445992 4.098664
v -0.002645 63.390923 10.756777
v -0.002645 66.272034 9.308685
v -0.002645 68.739265 5.739020
v -0.002645 69.698570 1.143577
v 11.949316 56.210594 -0.717938
v 9.351524 53.374397 -10.336695
v -0.002645 52.344513 -14.503156
v -0.002645 70.292122 1.326950
v -3.338507 70.029030 -0.118920
v -5.923073 68.697563 3.170684
v -8.057918 65.870987 5.794588
v -8.798633 62.620914 7.095981
v -11.957252 56.210594 -0.717938
v -8.274842 50.371365 -7.900610
v 11.586895 56.322887 -0.745722
v 9.068465 53.541233 -10.109979
v -0.002645 52.533806 -14.171973
v -3.237982 69.737068 -0.167819
v -5.743185 68.450516 3.018429
v -7.814541 65.710571 5.563426
v -8.534092 62.566368 6.820366
v -11.594831 56.322887 -0.745722
v -8.023528 50.615204 -7.748354
v 11.237701 56.431973 -0.771283
v 8.795988 53.698444 -9.892154
v -0.002645 52.713474 -13.853014
v -0.002645 69.698570 1.143577
v -3.140101 69.454735 -0.215607
v -5.571233 68.216309 2.871730
v -7.579099 65.556572 5.338933
v -8.274842 62.515038 6.554753
v -11.245637 56.431973 -0.771283
v -7.782796 50.852619 -7.601656
v -8.721916 67.378922 -3.181808
vn 0.2758 0.1734 0.9455
vn -0.0000 -0.5511 0.8345
vn -0.0000 -0.5886 0.8084
vn -0.0314 -0.5883 0.8080
vn -0.0000 -0.5328 0.8462
vn -0.0000 -0.5745 0.8185
vn -0.0314 -0.5652 0.8243
vn -0.0000 -0.6112 0.7915
vn -0.0000 -0.6285 0.7778
vn -0.0392 -0.6194 0.7841
vn -0.6213 0.7707 -0.1416
vn -0.2992 0.9369 -0.1811
vn -0.2124 0.9046 -0.3697
vn -0.0000 0.9835 -0.1810
vn -0.8830 0.4651 -0.0631
vn -0.4564 0.6925 -0.5587
vn -0.0000 0.8944 -0.4472
vn 0.9986 0.0472 -0.0236
vn 0.7491 -0.0000 -0.6624
vn 0.8830 0.4651 -0.0631
vn 0.2047 -0.6220 0.7558
vn 0.2123 -0.8020 0.5583
vn 0.6693 -0.6614 0.3386
vn 0.2511 -0.9495 0.1883
vn 0.5793 -0.7828 -0.2270
vn 0.7881 0.1419 0.5990
vn 0.6544 0.5834 0.4810
vn 0.4494 0.8593 0.2444
vn 0.5116 -0.4092 0.7555
vn 0.0001 -0.5745 0.8185
vn -0.2511 -0.9495 0.1883
vn -0.2123 -0.8020 0.5583
vn -0.6693 -0.6614 0.3386
vn -0.2047 -0.6220 0.7558
vn -0.5116 -0.4092 0.7555
vn -0.2898 0.9400 -0.1802
vn -0.0000 0.9820 -0.1887
vn 0.7526 -0.0000 -0.6585
vn 0.8830 0.4652 -0.0631
vn 0.2045 -0.6134 0.7628
vn 0.2127 -0.7957 0.5672
vn 0.6675 -0.6596 0.3455
vn 0.5829 -0.7798 -0.2285
vn 0.6589 0.5804 0.4785
vn 0.4463 0.8613 0.2428
vn 0.5057 -0.4109 0.7586
vn -0.2127 -0.7956 0.5672
vn -0.6675 -0.6596 0.3455
vn -0.2045 -0.6134 0.7628
vn -0.5057 -0.4109 0.7586
vn -0.2124 0.9045 -0.3697
vn -0.0000 0.9820 -0.1886
vn 0.2276 -0.6357 0.7377
vn 0.2131 -0.7891 0.5761
vn 0.6691 -0.6533 0.3542
vn 0.5829 -0.7798 -0.2284
vn 0.4472 0.8629 0.2354
vn 0.5206 -0.3944 0.7572
vn 0.0001 -0.5179 0.8554
vn -0.2131 -0.7892 0.5760
vn -0.6691 -0.6533 0.3542
vn -0.2276 -0.6356 0.7377
vn -0.5206 -0.3944 0.7572
vn -0.9986 0.0472 -0.0236
vn -0.6530 0.3698 -0.6609
vn -0.0000 0.6750 -0.7378
vn 0.2124 0.9046 -0.3697
vn 0.2992 0.9369 -0.1811
vn 0.4564 0.6925 -0.5587
vn -0.0000 0.3233 -0.9463
vn -0.7492 -0.0000 -0.6624
vn 0.2037 0.9790 0.0079
vn 0.6213 0.7707 -0.1415
vn 0.6530 0.3698 -0.6609
vn -0.0000 -0.0629 -0.9980
vn -0.7406 -0.4255 -0.5200
vn -0.0000 -0.8309 -0.5565
vn 0.0001 -0.9989 -0.0472
vn -0.0000 -0.8404 0.5419
vn 0.0314 -0.5883 0.8080
vn -0.0000 0.1260 0.9920
vn -0.0000 0.6624 0.7491
vn -0.0000 0.9167 0.3996
vn -0.0000 0.9969 0.0785
vn 0.2898 0.9400 -0.1802
vn -0.7526 -0.0000 -0.6585
vn 0.2036 0.9790 0.0078
vn -0.0000 -0.0550 -0.9985
vn -0.7442 -0.4230 -0.5170
vn -0.0000 -0.8284 -0.5601
vn -0.0000 -0.8345 0.5511
vn 0.0314 -0.5652 0.8243
vn -0.0000 0.6624 0.7492
vn 0.2124 0.9045 -0.3697
vn -0.0000 0.3303 -0.9439
vn 0.2037 0.9790 -0.0000
vn 0.6213 0.7707 -0.1416
vn -0.0000 -0.0551 -0.9985
vn -0.0000 -0.8284 -0.5602
vn -0.0000 -0.8284 0.5601
vn 0.0392 -0.6194 0.7841
vn -0.0000 0.9195 0.3930
vn 0.9613 -0.2364 0.1418
vn 0.7406 -0.4255 -0.5200
vn -0.0000 -0.5180 -0.8554
vn -0.2036 0.9790 0.0078
vn -0.4494 0.8593 0.2444
vn -0.6544 0.5834 0.4810
vn -0.7881 0.1419 0.5990
vn -0.9613 -0.2364 0.1418
vn -0.5793 -0.7828 -0.2271
vn 0.7442 -0.4230 -0.5170
vn -0.0000 -0.5121 -0.8589
vn -0.4463 0.8613 0.2428
vn -0.6589 0.5805 0.4785
vn -0.5829 -0.7798 -0.2284
vn -0.0000 -0.5087 -0.8609
vn -0.0001 0.9969 0.0785
vn -0.2037 0.9790 -0.0000
vn -0.4472 0.8629 0.2354
vn -0.6213 0.7707 -0.1415
vt 0.000000 0.000000
vt 0.695312 0.987274
vt 0.773438 0.847076
vt 0.551849 0.926392
vt 0.179688 0.987274
vt 0.101562 0.847076
vt 0.323120 0.926392
vt 0.988617 0.010925
vt 0.846222 0.010925
vt 0.988617 0.162384
vt 0.437500 0.218750
vt 0.437500 0.102936
vt 0.304688 0.101562
vt 0.437500 0.012482
vt 0.437500 0.351562
vt 0.250000 0.213898
vt 0.183594 0.012482
vt 0.437500 0.500000
vt 0.206573 0.500000
vt 0.621429 0.804688
vt 0.437500 0.926392
vt 0.437500 0.796875
vt 0.253540 0.804688
vt 0.668396 0.500000
vt 0.660156 0.351562
vt 0.625000 0.213898
vt 0.659485 0.656250
vt 0.828125 0.667969
vt 0.570312 0.101562
vt 0.691406 0.012482
vt 0.214844 0.351562
vt 0.215485 0.656250
vt 0.046875 0.667969
vt 0.846222 0.316956
vt 0.988617 0.316956
vt 0.846222 0.162384
vt 0.078125 0.144531
vt 0.046875 0.316406
vt 0.026550 0.500000
vt 0.437500 0.987274
vt 0.848419 0.500000
vt 0.828125 0.316406
vt 0.796875 0.144531
vt 0.437500 0.656250
s 1
usemtl f_hair0116
f 1/1/1 2/1/1 3/1/1
f 4/2/2 5/3/3 6/4/4
f 7/5/5 8/6/6 9/7/7
f 10/8/8 11/9/9 12/10/10
f 13/11/11 14/12/12 15/13/13
f 15/13/13 14/12/12 16/14/14
f 17/15/15 13/11/11 18/16/16
f 18/16/16 13/11/11 15/13/13
f 18/16/16 15/13/13 19/17/17
f 19/17/17 15/13/13 16/14/14
f 20/18/18 21/19/19 22/15/20
f 23/20/21 24/21/22 25/22/23
f 25/22/23 24/21/22 26/7/24
f 25/22/23 26/7/24 27/23/25
f 28/24/26 20/18/18 29/25/27
f 29/25/27 20/18/18 22/15/20
f 29/25/27 22/15/20 30/26/28
f 5/3/3 31/27/29 32/28/30
f 33/7/31 34/21/32 35/22/33
f 35/22/33 34/21/32 36/20/34
f 35/22/33 36/20/34 37/27/35
f 38/11/11 39/12/36 40/29/13
f 40/29/13 39/12/36 41/14/37
f 42/15/15 38/11/11 43/26/16
f 43/26/16 38/11/11 40/29/13
f 43/26/16 40/29/13 44/30/17
f 44/30/17 40/29/13 41/14/37
f 45/18/18 46/24/38 47/15/39
f 48/23/40 49/21/41 50/22/42
f 50/22/42 49/21/41 51/4/24
f 50/22/42 51/4/24 52/20/43
f 53/19/26 45/18/18 54/31/44
f 54/31/44 45/18/18 47/15/39
f 54/31/44 47/15/39 55/16/45
f 8/6/6 56/32/46 57/33/6
f 58/4/31 59/21/47 60/22/48
f 60/22/48 59/21/47 61/23/49
f 60/22/48 61/23/49 62/32/50
f 63/34/11 64/35/36 65/10/51
f 65/10/51 64/35/36 66/36/52
f 67/35/15 63/34/11 68/36/16
f 68/36/16 63/34/11 65/10/51
f 68/36/16 65/10/51 69/8/17
f 69/8/17 65/10/51 66/36/52
f 70/34/18 71/36/38 72/35/20
f 73/36/53 74/35/54 75/34/55
f 75/34/55 74/35/54 76/10/24
f 75/34/55 76/10/24 77/36/56
f 78/36/26 70/34/18 79/10/44
f 79/10/44 70/34/18 72/35/20
f 79/10/44 72/35/20 80/36/57
f 11/9/9 81/10/58 82/8/59
f 83/10/31 84/35/60 85/34/61
f 85/34/61 84/35/60 86/36/62
f 85/34/61 86/36/62 87/10/63
f 88/18/64 17/15/15 89/31/65
f 89/31/65 17/15/15 18/16/16
f 89/31/65 18/16/16 90/37/66
f 90/37/66 18/16/16 19/17/17
f 90/37/66 19/17/17 91/13/67
f 91/13/67 19/17/17 16/14/14
f 16/14/14 92/12/68 91/13/67
f 91/13/67 92/12/68 93/16/69
f 91/13/67 93/16/69 90/37/66
f 90/37/66 93/16/69 94/38/70
f 90/37/66 94/38/70 89/31/65
f 89/31/65 94/38/70 95/19/71
f 89/31/65 95/19/71 88/18/64
f 16/14/14 96/29/72 92/12/68
f 92/12/68 96/29/72 97/11/73
f 92/12/68 97/11/73 93/16/69
f 93/16/69 97/11/73 98/31/74
f 93/16/69 98/31/74 94/38/70
f 94/38/70 98/31/74 99/39/75
f 94/38/70 99/39/75 95/19/71
f 95/19/71 99/39/75 100/32/76
f 95/19/71 100/32/76 88/18/64
f 101/6/77 27/23/25 102/5/78
f 102/5/78 27/23/25 26/7/24
f 102/5/78 26/7/24 103/40/79
f 103/40/79 26/7/24 24/21/22
f 103/40/79 24/21/22 104/4/80
f 104/4/80 24/21/22 23/20/21
f 105/41/81 28/24/26 106/42/82
f 106/42/82 28/24/26 29/25/27
f 106/42/82 29/25/27 107/43/83
f 107/43/83 29/25/27 30/26/28
f 107/43/83 30/26/28 108/30/84
f 109/18/64 42/15/15 110/25/65
f 110/25/65 42/15/15 43/26/16
f 110/25/65 43/26/16 111/43/66
f 111/43/66 43/26/16 44/30/17
f 111/43/66 44/30/17 112/29/67
f 112/29/67 44/30/17 41/14/37
f 41/14/37 113/12/85 112/29/67
f 112/29/67 113/12/85 114/26/69
f 112/29/67 114/26/69 111/43/66
f 111/43/66 114/26/69 115/42/70
f 111/43/66 115/42/70 110/25/65
f 110/25/65 115/42/70 116/24/86
f 110/25/65 116/24/86 109/18/64
f 41/14/37 117/13/87 113/12/85
f 113/12/85 117/13/87 118/11/73
f 113/12/85 118/11/73 114/26/69
f 114/26/69 118/11/73 119/25/74
f 114/26/69 119/25/74 115/42/70
f 115/42/70 119/25/74 120/41/88
f 115/42/70 120/41/88 116/24/86
f 116/24/86 120/41/88 121/27/89
f 116/24/86 121/27/89 109/18/64
f 122/3/90 52/20/43 123/2/78
f 123/2/78 52/20/43 51/4/24
f 123/2/78 51/4/24 124/40/91
f 124/40/91 51/4/24 49/21/41
f 124/40/91 49/21/41 125/7/92
f 125/7/92 49/21/41 48/23/40
f 126/39/81 53/19/26 127/38/93
f 127/38/93 53/19/26 54/31/44
f 127/38/93 54/31/44 128/37/83
f 128/37/83 54/31/44 55/16/45
f 128/37/83 55/16/45 129/17/84
f 130/34/64 67/35/15 131/10/65
f 131/10/65 67/35/15 68/36/16
f 131/10/65 68/36/16 132/9/66
f 132/9/66 68/36/16 69/8/17
f 132/9/66 69/8/17 133/10/94
f 133/10/94 69/8/17 66/36/52
f 66/36/52 134/35/85 133/10/94
f 133/10/94 134/35/85 135/36/69
f 133/10/94 135/36/69 132/9/66
f 132/9/66 135/36/69 136/8/95
f 132/9/66 136/8/95 131/10/65
f 131/10/65 136/8/95 137/36/86
f 131/10/65 137/36/86 130/34/64
f 66/36/52 138/10/96 134/35/85
f 134/35/85 138/10/96 139/34/97
f 134/35/85 139/34/97 135/36/69
f 135/36/69 139/34/97 140/10/74
f 135/36/69 140/10/74 136/8/95
f 136/8/95 140/10/74 141/9/98
f 136/8/95 141/9/98 137/36/86
f 137/36/86 141/9/98 142/10/89
f 137/36/86 142/10/89 130/34/64
f 143/9/99 77/36/56 144/8/78
f 144/8/78 77/36/56 76/10/24
f 144/8/78 76/10/24 145/36/100
f 145/36/100 76/10/24 74/35/54
f 145/36/100 74/35/54 146/10/101
f 146/10/101 74/35/54 73/36/53
f 147/9/81 78/36/26 148/8/93
f 148/8/93 78/36/26 79/10/44
f 148/8/93 79/10/44 149/9/102
f 149/9/102 79/10/44 80/36/57
f 149/9/102 80/36/57 150/8/84
f 6/4/4 103/40/79 4/2/2
f 4/2/2 103/40/79 104/4/80
f 4/2/2 104/4/80 5/3/3
f 5/3/3 104/4/80 23/20/21
f 5/3/3 23/20/21 31/27/29
f 31/27/29 23/20/21 25/22/23
f 31/27/29 25/22/23 151/44/103
f 151/44/103 25/22/23 27/23/25
f 151/44/103 27/23/25 152/32/104
f 152/32/104 27/23/25 101/6/77
f 152/32/104 101/6/77 153/33/105
f 154/30/84 155/29/106 107/43/83
f 107/43/83 155/29/106 156/26/107
f 107/43/83 156/26/107 106/42/82
f 106/42/82 156/26/107 157/25/108
f 106/42/82 157/25/108 105/41/81
f 105/41/81 157/25/108 158/24/109
f 105/41/81 158/24/109 37/27/35
f 37/27/35 158/24/109 159/44/110
f 37/27/35 159/44/110 35/22/33
f 35/22/33 159/44/110 160/23/111
f 35/22/33 160/23/111 33/7/31
f 9/7/7 124/40/91 7/5/5
f 7/5/5 124/40/91 125/7/92
f 7/5/5 125/7/92 8/6/6
f 8/6/6 125/7/92 48/23/40
f 8/6/6 48/23/40 56/32/46
f 56/32/46 48/23/40 50/22/42
f 56/32/46 50/22/42 161/44/103
f 161/44/103 50/22/42 52/20/43
f 161/44/103 52/20/43 162/27/112
f 162/27/112 52/20/43 122/3/90
f 162/27/112 122/3/90 163/28/113
f 129/17/84 164/13/106 128/37/83
f 128/37/83 164/13/106 165/16/114
f 128/37/83 165/16/114 127/38/93
f 127/38/93 165/16/114 166/31/115
f 127/38/93 166/31/115 126/39/81
f 126/39/81 166/31/115 167/19/109
f 126/39/81 167/19/109 62/32/50
f 62/32/50 167/19/109 168/44/110
f 62/32/50 168/44/110 60/22/48
f 60/22/48 168/44/110 169/20/116
f 60/22/48 169/20/116 58/4/31
f 12/10/10 145/36/100 10/8/8
f 10/8/8 145/36/100 146/10/101
f 10/8/8 146/10/101 11/9/9
f 11/9/9 146/10/101 73/36/53
f 11/9/9 73/36/53 81/10/58
f 81/10/58 73/36/53 75/34/55
f 81/10/58 75/34/55 170/35/103
f 170/35/103 75/34/55 77/36/56
f 170/35/103 77/36/56 171/10/112
f 171/10/112 77/36/56 143/9/99
f 171/10/112 143/9/99 172/8/117
f 173/8/118 174/10/119 149/9/102
f 149/9/102 174/10/119 175/36/120
f 149/9/102 175/36/120 148/8/93
f 148/8/93 175/36/120 176/10/115
f 148/8/93 176/10/115 147/9/81
f 147/9/81 176/10/115 177/36/109
f 147/9/81 177/36/109 87/10/63
f 87/10/63 177/36/109 178/35/110
f 87/10/63 178/35/110 85/34/61
f 85/34/61 178/35/110 179/36/116
f 85/34/61 179/36/116 83/10/31
f 153/33/105 21/19/19 152/32/104
f 152/32/104 21/19/19 20/18/18
f 152/32/104 20/18/18 151/44/103
f 151/44/103 20/18/18 28/24/26
f 151/44/103 28/24/26 31/27/29
f 31/27/29 28/24/26 105/41/81
f 31/27/29 105/41/81 32/28/30
f 32/28/30 105/41/81 37/27/35
f 32/28/30 37/27/35 5/3/3
f 5/3/3 37/27/35 36/20/34
f 5/3/3 36/20/34 6/4/4
f 6/4/4 36/20/34 34/21/32
f 6/4/4 34/21/32 103/40/79
f 103/40/79 34/21/32 33/7/31
f 103/40/79 33/7/31 102/5/78
f 102/5/78 33/7/31 160/23/111
f 102/5/78 160/23/111 101/6/77
f 101/6/77 160/23/111 100/32/76
f 101/6/77 100/32/76 153/33/105
f 153/33/105 100/32/76 99/39/75
f 153/33/105 99/39/75 21/19/19
f 21/19/19 99/39/75 98/31/74
f 21/19/19 98/31/74 22/15/20
f 22/15/20 98/31/74 97/11/73
f 22/15/20 97/11/73 30/26/28
f 30/26/28 97/11/73 96/29/72
f 30/26/28 96/29/72 108/30/84
f 108/30/84 96/29/72 16/14/14
f 108/30/84 16/14/14 155/29/106
f 155/29/106 16/14/14 14/12/12
f 155/29/106 14/12/12 156/26/107
f 156/26/107 14/12/12 180/11/121
f 156/26/107 180/11/121 157/25/108
f 157/25/108 180/11/121 17/15/15
f 157/25/108 17/15/15 158/24/109
f 158/24/109 17/15/15 88/18/64
f 158/24/109 88/18/64 159/44/110
f 159/44/110 88/18/64 100/32/76
f 159/44/110 100/32/76 160/23/111
f 163/28/113 46/24/38 162/27/112
f 162/27/112 46/24/38 45/18/18
f 162/27/112 45/18/18 161/44/103
f 161/44/103 45/18/18 53/19/26
f 161/44/103 53/19/26 56/32/46
f 56/32/46 53/19/26 126/39/81
f 56/32/46 126/39/81 57/33/6
f 57/33/6 126/39/81 62/32/50
f 57/33/6 62/32/50 8/6/6
f 8/6/6 62/32/50 61/23/49
f 8/6/6 61/23/49 9/7/7
f 9/7/7 61/23/49 59/21/47
f 9/7/7 59/21/47 124/40/91
f 124/40/91 59/21/47 58/4/31
f 124/40/91 58/4/31 123/2/78
f 123/2/78 58/4/31 169/20/116
f 123/2/78 169/20/116 122/3/90
f 122/3/90 169/20/116 121/27/89
f 122/3/90 121/27/89 163/28/113
f 163/28/113 121/27/89 120/41/88
f 163/28/113 120/41/88 46/24/38
f 46/24/38 120/41/88 119/25/74
f 46/24/38 119/25/74 47/15/39
f 47/15/39 119/25/74 118/11/73
f 47/15/39 118/11/73 55/16/45
f 55/16/45 118/11/73 117/13/87
f 55/16/45 117/13/87 129/17/84
f 129/17/84 117/13/87 41/14/37
f 129/17/84 41/14/37 164/13/106
f 164/13/106 41/14/37 39/12/36
f 164/13/106 39/12/36 165/16/114
f 165/16/114 39/12/36 38/11/11
f 165/16/114 38/11/11 166/31/115
f 166/31/115 38/11/11 42/15/15
f 166/31/115 42/15/15 167/19/109
f 167/19/109 42/15/15 109/18/64
f 167/19/109 109/18/64 168/44/110
f 168/44/110 109/18/64 121/27/89
f 168/44/110 121/27/89 169/20/116
f 172/8/117 71/36/38 171/10/112
f 171/10/112 71/36/38 70/34/18
f 171/10/112 70/34/18 170/35/103
f 170/35/103 70/34/18 78/36/26
f 170/35/103 78/36/26 81/10/58
f 81/10/58 78/36/26 147/9/81
f 81/10/58 147/9/81 82/8/59
f 82/8/59 147/9/81 87/10/63
f 82/8/59 87/10/63 11/9/9
f 11/9/9 87/10/63 86/36/62
f 11/9/9 86/36/62 12/10/10
f 12/10/10 86/36/62 84/35/60
f 12/10/10 84/35/60 145/36/100
f 145/36/100 84/35/60 83/10/31
f 145/36/100 83/10/31 144/8/78
f 144/8/78 83/10/31 179/36/116
f 144/8/78 179/36/116 143/9/99
f 143/9/99 179/36/116 142/10/89
f 143/9/99 142/10/89 172/8/117
f 172/8/117 142/10/89 141/9/98
f 172/8/117 141/9/98 71/36/38
f 71/36/38 141/9/98 140/10/74
f 71/36/38 140/10/74 72/35/20
f 72/35/20 140/10/74 139/34/97
f 72/35/20 139/34/97 80/36/57
f 80/36/57 139/34/97 138/10/96
f 80/36/57 138/10/96 150/8/84
f 150/8/84 138/10/96 66/36/52
f 150/8/84 66/36/52 174/10/119
f 174/10/119 66/36/52 64/35/36
f 174/10/119 64/35/36 175/36/120
f 175/36/120 64/35/36 63/34/11
f 175/36/120 63/34/11 176/10/115
f 176/10/115 63/34/11 67/35/15
f 176/10/115 67/35/15 177/36/109
f 177/36/109 67/35/15 130/34/64
f 177/36/109 130/34/64 178/35/110
f 178/35/110 130/34/64 142/10/89
f 178/35/110 142/10/89 179/36/116
