mtllib f_hair022.mtl
o editpl_f-0000-1889
v 9.362105 41.323772 -9.103092
v 10.187473 41.384731 -12.182650
v 12.026033 48.545807 -13.045061
v 11.684775 54.648121 -9.163106
v 12.510143 54.721912 -13.772997
v 10.351489 62.328953 -13.298450
v 6.129415 62.604870 -17.059267
v 2.547530 55.491920 -17.357109
v 3.812036 61.757862 -12.432707
v 12.676804 57.108936 -14.626516
v 9.975840 63.926720 -16.553602
v 11.309127 62.633747 -13.342905
v 9.243062 61.360023 0.351182
v 9.782726 59.242500 3.022874
v 10.827662 57.461857 0.108909
v 0.000000 66.294495 -4.053108
v -3.727382 65.293480 2.240482
v 0.000000 66.304115 2.110454
v -0.066135 52.280346 -12.240442
v 0.000000 57.208397 -12.937261
v 5.028924 57.028728 -11.406928
v 7.772214 56.544266 -6.628111
v 5.647950 58.831833 -10.635650
v 7.224614 61.327942 -8.103988
v 6.547389 48.513721 -17.544928
v 2.923178 47.900925 -15.897902
v 4.026314 54.616035 -16.410236
v 5.703504 64.420807 -15.583391
v 4.409898 62.999500 -13.267333
v -4.640049 45.209103 9.739890
v -2.243308 52.184093 11.147974
v -4.354345 52.309219 10.523395
v -1.457621 58.799747 10.967935
v 18.843254 62.117199 -18.023920
v 16.242817 66.387535 -19.185286
v 10.811790 65.473152 -12.738329
v 5.618850 65.935158 -15.937913
v 7.602908 67.032417 -13.724099
v 11.483724 69.900696 -21.441332
v 8.227225 66.005737 -14.307559
v 7.317204 57.750610 4.921065
v 7.748405 52.970142 3.640787
v 9.134600 52.784058 2.543882
v 6.079152 59.297043 7.508294
v 6.928328 60.352596 6.084651
v 4.759092 62.139656 7.386045
v 7.341012 34.457867 -11.974828
v 9.243062 61.360023 0.351182
v 7.094989 62.219868 3.925292
v 9.592256 57.763443 2.404963
v 7.465347 60.590015 6.529192
v 6.727277 60.920479 -16.119062
v 9.594901 62.967415 -16.062384
v 10.869989 54.757202 -17.448240
v 10.023458 61.597443 -11.380256
v 11.076331 47.936214 -7.967291
v 5.626787 61.578194 -15.330003
v 6.735213 54.693035 -18.023920
v 6.841030 56.217010 -18.118385
v 13.094779 56.826599 -10.117758
v 15.716380 45.157768 -6.419176
v 11.975770 58.225449 -19.734293
v 14.391030 52.553055 -18.116163
v 13.139751 52.784058 -21.401321
v 7.782796 62.017738 -10.217781
v 7.642589 61.934322 -9.708782
v 9.983777 64.446472 -12.572737
v 5.938945 64.330971 -11.131312
v 7.782796 62.017738 -10.217781
v 9.983777 64.446472 -12.572737
v -1.037001 44.047672 -17.104832
v 1.216889 53.518776 -15.538936
v 8.528801 66.387535 -23.378420
v 6.896583 61.722569 -24.705374
v 3.830553 61.873363 -16.352446
v 5.465417 56.893974 -25.647800
v 5.613560 63.698925 -10.005513
v 7.425665 61.956779 -9.387601
v 11.142466 61.786736 -10.719001
v 21.396074 55.774258 -17.247086
v 9.592256 57.763443 2.404963
v 8.280133 55.366795 -0.274508
v 9.295970 59.348377 -1.565901
v 7.576454 39.896046 4.100888
v 6.946846 43.627377 2.211589
v 8.690171 43.543961 3.710803
v 7.409793 48.821724 1.874848
v 8.737789 48.988560 3.031766
v 7.576454 39.896046 4.100888
v 7.348949 44.066925 4.715466
v 6.946846 43.627377 2.211589
v 7.277522 49.036686 3.914180
v 7.409793 48.821724 1.874848
v 7.348949 44.066925 4.715466
v 7.748405 52.970142 3.640787
v 7.317204 57.750610 4.921065
v 8.147862 52.533806 1.369182
v 8.280133 55.366795 -0.274508
v 7.478574 62.162117 -5.924626
v 4.362281 64.071098 -7.042647
v 3.960179 65.476357 -3.528550
v 7.094989 63.676464 3.125119
v 6.751086 63.862553 1.095789
v 3.989278 65.864571 1.853731
v 7.581745 63.400547 -2.579454
v 6.751086 63.862553 1.095789
v 9.243062 61.360023 0.351182
v -8.608164 57.266148 3.266261
v -8.251033 55.363586 -0.266729
v -7.602908 52.973351 2.877288
v 8.147862 52.533806 1.369182
v 8.280133 55.366795 -0.274508
v 9.592256 57.763443 2.404963
v -6.658497 52.973351 -6.992635
v -7.555290 52.681393 -2.933975
v -4.888717 48.141552 -5.899064
v -5.846356 47.827129 -1.222492
v -4.756447 45.924568 -5.860165
v -7.597617 62.540703 -2.397193
v -3.962824 65.370483 -3.528550
v -7.497091 62.030575 -5.925737
v -4.364926 63.955593 -7.402725
v -7.846286 62.062656 2.005986
v -7.822477 61.706528 2.529434
v -3.727382 65.293480 2.240482
v -4.073931 64.568390 5.381164
v 0.000000 66.304115 2.110454
v -3.962824 65.370483 -3.528550
v 0.000000 64.754478 -7.947288
v -5.028924 57.044769 -11.406928
v -5.113577 52.642891 -10.638983
v -8.227225 56.544266 -6.628111
v 7.465347 60.590015 6.529192
v -0.277768 56.489723 11.300229
v 1.100490 58.533455 10.836794
v 1.989348 62.508621 9.633201
v 3.695638 61.510818 9.019733
v -7.602908 52.973351 2.877288
v -7.602908 58.658581 5.079988
v -8.608164 57.266148 3.266261
v 9.801243 48.552223 -16.304657
v 6.777540 41.278854 -15.410018
v 8.967939 41.391148 -14.231985
v 14.070935 46.174824 -22.243727
v 9.343588 51.850426 -20.885654
v 3.394061 61.979240 -12.288231
v 7.317204 57.750610 4.921065
v 5.349019 63.737423 5.766804
v 4.013087 63.881802 7.512739
v 6.658497 52.973351 -6.992635
v 4.991888 52.639683 -10.638983
v 4.888717 48.141552 -5.899064
v 0.000000 47.971508 -8.841925
v 4.756447 45.924568 -5.860165
v 0.000000 45.183437 -8.894158
v 4.732638 63.198418 -8.899716
v 3.960179 65.476357 -3.528550
v 3.989278 65.864571 1.853731
v 2.460231 61.141853 -11.233557
v 0.000000 62.139656 -11.106863
v -4.804064 61.000687 -9.804358
v -6.716696 59.880966 -8.728568
v 3.494586 40.941975 -14.240876
v 10.869989 54.757202 -17.448240
v 10.351489 62.328953 -13.298450
v 7.642589 61.934322 -9.708782
v 11.510178 56.303638 -7.875049
v -7.121443 49.392815 7.587200
v -5.716731 40.730225 8.250679
v -7.147897 52.334888 8.579638
v -5.983917 58.764454 9.594302
v -0.783041 63.134251 9.320910
v 3.105711 60.644558 9.219776
v -0.492046 65.075310 6.830368
v -4.600368 62.964207 7.472730
v -8.269551 58.709911 5.771250
v -8.925613 58.571953 2.156019
v -9.258934 52.062176 5.483410
v -8.621391 52.142384 1.870402
v -8.065855 44.541763 5.275588
v -7.766923 45.408024 2.817276
v -6.407183 37.441647 5.168898
v 3.989278 65.864571 1.853731
v 7.200806 52.838600 -2.937309
v 5.846356 47.827129 -1.222492
v -7.822477 61.706528 2.529434
v -7.846286 62.062656 2.005986
v -8.938840 59.069248 -1.567011
v -6.788122 44.050884 6.629215
v 9.737754 56.544266 3.853056
v 10.557831 51.596962 0.444537
v -3.727382 65.293480 2.240482
vn 0.9369 -0.2834 0.2047
vn 0.9263 -0.3062 -0.2198
vn 0.9758 -0.1889 -0.1102
vn 0.9824 0.0471 0.1808
vn 0.9925 0.0866 -0.0867
vn 0.9644 0.2588 -0.0548
vn -0.3858 0.4251 -0.8188
vn -0.6900 0.2823 -0.6665
vn -0.8944 0.2746 -0.3531
vn 0.9491 0.2981 -0.1020
vn 0.5508 0.5980 -0.5823
vn 0.8803 0.4244 0.2122
vn 0.8782 0.4783 -0.0000
vn 0.8957 0.3221 0.3064
vn 0.9636 0.1410 0.2272
vn -0.0315 0.9915 -0.1259
vn -0.4396 0.8870 0.1413
vn -0.1017 0.9859 0.1330
vn -0.0000 -0.3139 -0.9495
vn -0.0630 0.1653 -0.9842
vn 0.5029 -0.0000 -0.8643
vn 0.9372 -0.1103 -0.3308
vn 0.6354 -0.2745 -0.7217
vn 0.9586 0.2593 -0.1179
vn -0.1096 -0.1723 -0.9789
vn -0.3931 -0.1179 -0.9119
vn -0.4713 0.0628 -0.8797
vn -0.7290 0.5252 -0.4390
vn -0.7706 0.6290 -0.1022
vn -0.2820 -0.0862 0.9555
vn -0.2518 -0.0000 0.9678
vn -0.4024 -0.0158 0.9153
vn -0.1255 0.1961 0.9725
vn 0.6216 0.4327 0.6530
vn 0.5094 0.6818 0.5251
vn 0.3765 0.6432 0.6667
vn -0.7869 0.6138 -0.0629
vn -0.2279 0.8801 0.4165
vn -0.1645 0.9634 0.2115
vn -0.0863 0.9812 -0.1727
vn 0.5744 -0.2518 0.7789
vn 0.5875 -0.0627 0.8068
vn 0.9540 -0.1340 0.2680
vn 0.7362 0.1880 0.6501
vn 0.3079 -0.3080 0.9002
vn 0.6682 0.0865 0.7389
vn 0.6140 -0.4959 -0.6140
vn 0.8750 0.3863 0.2917
vn 0.9945 -0.0235 0.1018
vn 0.6628 0.1026 0.7418
vn -0.2426 0.2426 -0.9393
vn 0.5656 0.2749 -0.7775
vn 0.6058 -0.0393 -0.7946
vn 0.9434 0.2673 0.1966
vn 0.9737 -0.1649 0.1570
vn -0.4863 0.2431 -0.8393
vn -0.2194 0.0862 -0.9718
vn -0.2207 0.2049 -0.9536
vn 0.8338 0.4169 0.3618
vn 0.9169 0.2900 0.2743
vn 0.4391 0.4783 -0.7605
vn 0.9294 0.2835 -0.2363
vn 0.4784 0.2588 -0.8391
vn -0.3695 0.8491 0.3774
vn -0.7935 0.5971 -0.1178
vn 0.4730 0.8197 0.3231
vn -0.2359 0.8887 0.3932
vn 0.4729 0.8197 0.3232
vn -0.6133 0.1730 -0.7707
vn -0.8979 0.3229 -0.2993
vn -0.7875 0.5512 -0.2756
vn -0.8693 0.3759 -0.3211
vn -0.8880 0.3851 -0.2515
vn -0.8874 0.3220 -0.3298
vn -0.2445 0.8280 0.5047
vn 0.6062 0.4173 0.6771
vn 0.5275 0.4173 0.7401
vn 0.6373 0.3383 0.6924
vn 0.9483 -0.2665 -0.1724
vn 0.9658 0.1492 -0.2120
vn 0.3853 -0.8022 0.4561
vn 0.6371 -0.1888 -0.7473
vn 0.9952 -0.0862 0.0470
vn 0.6767 -0.1338 -0.7240
vn 0.9923 -0.0703 0.1016
vn -0.3700 -0.0079 0.9290
vn -0.9963 -0.0000 0.0863
vn -0.4561 0.1730 0.8729
vn -0.9887 0.1098 -0.1020
vn -0.4561 0.1730 0.8730
vn -0.9877 0.0470 -0.1489
vn -0.9869 -0.0392 -0.1567
vn -0.9869 -0.0392 -0.1566
vn 0.8172 0.5107 -0.2671
vn 0.4077 0.8546 -0.3215
vn 0.4157 0.8863 -0.2039
vn 0.7066 0.6752 0.2120
vn 0.6501 0.7519 -0.1096
vn 0.3535 0.9270 0.1257
vn 0.7613 0.6436 -0.0785
vn -0.9754 -0.0000 0.2202
vn -0.9768 -0.2048 -0.0630
vn -0.9119 -0.2437 0.3301
vn 0.8278 -0.1656 -0.5361
vn 0.9483 -0.2664 -0.1725
vn 0.9945 -0.0235 0.1019
vn -0.9195 -0.3144 -0.2358
vn -0.9378 -0.2679 -0.2207
vn -0.8253 -0.3537 -0.4402
vn -0.9519 -0.2281 -0.2045
vn -0.7299 -0.0314 -0.6828
vn -0.8078 0.5882 -0.0392
vn -0.4619 0.8769 -0.1331
vn -0.8030 0.4959 -0.3306
vn -0.4068 0.7589 -0.5085
vn -0.8323 0.5339 0.1492
vn -0.8227 0.4936 0.2821
vn -0.4487 0.8502 0.2755
vn 0.0391 0.8775 -0.4779
vn -0.5590 0.0630 -0.8267
vn -0.6452 -0.4091 -0.6452
vn -0.9421 -0.0942 -0.3219
vn 0.6628 0.1026 0.7417
vn -0.0552 0.1102 0.9924
vn 0.1886 0.2122 0.9589
vn 0.2271 0.4230 0.8772
vn 0.6915 0.1021 0.7151
vn -0.9119 -0.2437 0.3302
vn -0.8730 -0.0078 0.4876
vn -0.9754 -0.0000 0.2203
vn -0.8227 0.4935 0.2821
vn 0.6213 -0.2595 -0.7393
vn 0.1487 -0.3524 -0.9240
vn 0.6613 -0.3228 -0.6771
vn 0.4962 0.1733 -0.8507
vn -0.2513 0.2199 -0.9426
vn -0.8892 0.4092 -0.2046
vn 0.6628 0.1025 0.7417
vn 0.6070 0.6386 0.4730
vn 0.4555 0.6675 0.5890
vn 0.9246 -0.3056 -0.2272
vn 0.6539 -0.3939 -0.6460
vn 0.8351 -0.3388 -0.4334
vn -0.0000 -0.3863 -0.9224
vn 0.7299 -0.0314 -0.6828
vn -0.0000 0.0157 -0.9999
vn 0.1731 0.9599 -0.2203
vn -0.1183 0.4969 -0.8597
vn -0.0236 0.5270 -0.8495
vn -0.4728 0.4649 -0.7486
vn -0.7691 0.2668 -0.5807
vn -0.3064 -0.3222 -0.8957
vn 0.5655 0.2749 -0.7776
vn 0.9644 0.2588 -0.0549
vn 0.6145 0.4412 0.6540
vn 0.6614 0.4724 0.5826
vn -0.8218 -0.1565 0.5478
vn -0.7875 -0.1103 0.6064
vn -0.7841 -0.0392 0.6194
vn -0.5591 0.2598 0.7874
vn -0.1332 0.6267 0.7678
vn 0.7781 -0.0943 0.6210
vn -0.0709 0.8984 0.4334
vn -0.5646 0.6430 0.5175
vn -0.8834 0.2761 0.3786
vn -0.9899 0.1336 0.0471
vn -0.9602 -0.0472 0.2755
vn -0.9789 -0.1096 -0.1723
vn -0.9527 -0.1811 0.2441
vn -0.9668 -0.1808 -0.1808
vn -0.9444 -0.2204 0.2439
vn 0.3536 0.9269 0.1257
vn 0.9361 -0.3147 -0.1573
vn 0.9604 -0.1889 -0.2047
vn -0.9935 0.1095 -0.0313
vn -0.7456 -0.1727 0.6436
vn 0.9309 0.0626 0.3598
vn 0.9636 -0.0235 0.2664
vt 0.085938 0.937500
vt 0.164062 0.937500
vt 0.117188 0.851562
vt 0.012482 0.757812
vt 0.117188 0.757812
vt 0.117188 0.664062
vt 0.209625 0.395813
vt 0.101562 0.460938
vt 0.015564 0.389404
vt 0.276886 0.447021
vt 0.377594 0.378906
vt 0.953125 0.093750
vt 0.914642 0.165253
vt 0.981750 0.173584
vt 0.622375 0.554688
vt 0.544525 0.479919
vt 0.625000 0.481750
vt 0.656250 0.914062
vt 0.656250 0.820312
vt 0.750000 0.820312
vt 0.856750 0.825500
vt 0.742188 0.768219
vt 0.802063 0.736969
vt 0.012482 0.843750
vt 0.227844 0.312500
vt 0.215729 0.243347
vt 0.618195 0.359375
vt 0.693878 0.322418
vt 0.614319 0.268463
vt 0.672577 0.187500
vt 0.110229 0.218750
vt 0.187500 0.218750
vt 0.156250 0.093750
vt 0.266724 0.073639
vt 0.320312 0.225433
vt 0.363281 0.304688
vt 0.734375 0.304688
vt 0.734375 0.453125
vt 0.796875 0.468750
vt 0.804688 0.206635
vt 0.834381 0.177185
vt 0.818481 0.126801
vt 0.243225 0.992188
vt 0.890625 0.234375
vt 0.882812 0.210938
vt 0.867188 0.218750
vt 0.844940 0.168854
vt 0.243225 0.664062
vt 0.243225 0.757812
vt 0.012482 0.664062
vt 0.046875 0.636719
vt 0.401031 0.522125
vt 0.295135 0.535583
vt 0.410583 0.566833
vt 0.343750 0.253906
vt 0.013000 0.529694
vt 0.023438 0.039062
vt 0.015625 0.265625
vt 0.226562 0.015625
vt 0.044250 0.016907
vt 0.988892 0.788239
vt 0.984375 0.820312
vt 0.953125 0.773438
vt 0.937500 0.617188
vt 0.987549 0.546875
vt 0.937500 0.562500
vt 0.987549 0.320312
vt 0.937500 0.320312
vt 0.937500 0.601562
vt 0.882812 0.554688
vt 0.987549 0.554688
vt 0.882812 0.320312
vt 0.882812 0.546875
vt 0.869629 0.453125
vt 0.869629 0.343750
vt 0.869781 0.734375
vt 0.757812 0.648438
vt 0.859375 0.625000
vt 0.886414 0.088928
vt 0.915863 0.042053
vt 0.825104 0.019806
vt 0.937500 0.726562
vt 0.988892 0.714020
vt 0.987915 0.754059
vt 0.265625 0.757812
vt 0.312500 0.820312
vt 0.265625 0.834503
vt 0.820312 0.328125
vt 0.452148 0.884766
vt 0.330292 0.937500
vt 0.493896 0.953125
vt 0.427063 0.984619
vt 0.526031 0.988525
vt 0.382812 0.710938
vt 0.406250 0.648438
vt 0.453125 0.726562
vt 0.546875 0.648438
vt 0.482239 0.078125
vt 0.476562 0.170441
vt 0.562500 0.028381
vt 0.615051 0.080963
vt 0.637756 0.017731
vt 0.543945 0.555664
vt 0.632812 0.648438
vt 0.554688 0.820312
vt 0.546875 0.882812
vt 0.428375 0.825500
vt 0.734375 0.242188
vt 0.713257 0.251556
vt 0.742188 0.201538
vt 0.722290 0.144867
vt 0.789764 0.130676
vt 0.390625 0.351562
vt 0.437500 0.281250
vt 0.406250 0.246094
vt 0.243225 0.851562
vt 0.243225 0.937500
vt 0.411438 0.634521
vt 0.820007 0.238739
vt 0.834717 0.082916
vt 0.773438 0.109375
vt 0.851562 0.921875
vt 0.773438 0.906250
vt 0.822906 0.951385
vt 0.657104 0.945312
vt 0.778625 0.988525
vt 0.656250 0.984619
vt 0.755188 0.695312
vt 0.718750 0.562500
vt 0.692688 0.476562
vt 0.690094 0.710938
vt 0.648438 0.710938
vt 0.554688 0.734375
vt 0.495117 0.772461
vt 0.535645 0.392853
vt 0.565979 0.437347
vt 0.533295 0.313690
vt 0.605804 0.198853
vt 0.693878 0.120026
vt 0.792603 0.155518
vt 0.714478 0.068878
vt 0.612915 0.131378
vt 0.528381 0.211639
vt 0.487701 0.352661
vt 0.430786 0.381683
vt 0.482208 0.434326
vt 0.431915 0.450867
vt 0.469604 0.573761
vt 0.988892 0.647614
vt 0.965210 0.928864
vt 0.880371 0.987244
vt 0.265625 0.703125
vt 0.312500 0.687500
vt 0.351562 0.757812
vt 0.535217 0.480011
vt 0.910583 0.227417
vt 0.961914 0.223633
vt 0.320312 0.648438
s 1
usemtl f_hair0100
f 1/1/1 2/2/2 3/3/3
f 4/4/4 5/5/5 6/6/6
f 7/7/7 8/8/8 9/9/9
f 10/10/10 11/11/11 12/7/12
f 13/12/13 14/13/14 15/14/15
f 16/15/16 17/16/17 18/17/18
f 19/18/19 20/19/20 21/20/21
f 22/21/22 23/22/23 24/23/24
f 25/3/25 26/24/26 27/4/27
f 28/25/28 9/9/9 29/26/29
f 30/27/30 31/28/31 32/29/32
f 32/29/32 31/28/31 33/30/33
f 34/31/34 35/32/35 36/33/36
f 37/33/37 38/34/38 39/35/39
f 40/36/40 28/25/28 29/26/29
f 41/37/41 42/38/42 43/39/43
f 44/40/44 45/41/45 46/42/46
f 2/2/2 1/1/1 47/43/47
f 48/44/13 49/45/48 50/46/49
f 50/46/49 49/45/48 51/47/50
f 52/6/51 53/48/52 54/49/53
f 6/6/6 55/50/54 4/4/4
f 5/5/5 4/4/4 3/3/3
f 3/3/3 4/4/4 56/24/55
f 3/3/3 56/24/55 1/1/1
f 57/50/56 58/5/57 27/4/27
f 27/4/27 58/5/57 25/3/25
f 8/8/8 7/7/7 59/10/58
f 12/7/12 60/8/59 10/10/10
f 10/10/10 60/8/59 61/51/60
f 11/11/11 10/10/10 62/52/61
f 62/52/61 10/10/10 63/53/62
f 62/52/61 63/53/62 64/54/63
f 65/25/64 66/9/65 67/26/66
f 29/26/29 68/55/67 40/36/40
f 40/36/40 68/55/67 69/26/64
f 40/36/40 69/26/64 70/25/68
f 59/10/58 71/51/69 8/8/8
f 8/8/8 71/51/69 72/56/70
f 8/8/8 72/56/70 9/9/9
f 39/35/39 73/32/71 37/33/37
f 37/33/37 73/32/71 74/31/72
f 37/33/37 74/31/72 75/57/73
f 75/57/73 74/31/72 76/58/74
f 77/59/75 78/60/76 36/33/36
f 36/33/36 78/60/76 79/57/77
f 36/33/36 79/57/77 34/31/34
f 34/31/34 79/57/77 80/58/78
f 81/61/49 82/62/79 83/63/80
f 84/64/81 85/65/82 86/66/83
f 86/66/83 85/65/82 87/67/84
f 86/66/83 87/67/84 88/68/85
f 89/69/81 90/70/86 91/71/87
f 91/71/87 90/70/86 92/72/88
f 91/71/87 92/72/88 93/67/89
f 88/68/85 92/72/90 86/66/83
f 86/66/83 92/72/90 94/73/86
f 86/66/83 94/73/86 84/64/81
f 95/38/91 96/37/92 97/74/91
f 97/74/91 96/37/92 98/75/93
f 22/21/22 24/23/24 99/76/94
f 99/76/94 24/23/24 100/77/95
f 99/76/94 100/77/95 101/78/96
f 14/13/14 13/12/13 102/79/97
f 102/79/97 13/12/13 103/80/98
f 102/79/97 103/80/98 104/81/99
f 105/82/100 106/83/98 83/63/80
f 83/63/80 106/83/98 107/84/13
f 83/63/80 107/84/13 81/61/49
f 108/85/101 109/86/102 110/87/103
f 111/74/104 112/75/105 113/88/106
f 109/86/102 114/89/107 115/90/108
f 115/90/108 114/89/107 116/91/109
f 115/90/108 116/91/109 117/92/110
f 117/92/110 116/91/109 118/93/111
f 119/94/112 120/95/113 121/96/114
f 121/96/114 120/95/113 122/97/115
f 123/98/116 124/99/117 125/100/17
f 125/100/17 124/99/117 126/101/118
f 125/100/17 126/101/118 127/102/18
f 17/16/17 16/15/16 128/103/113
f 128/103/113 16/15/16 129/104/119
f 128/103/113 129/104/119 122/97/115
f 20/19/20 19/18/19 130/105/120
f 130/105/120 19/18/19 131/106/121
f 130/105/120 131/106/121 132/107/122
f 133/108/123 41/37/41 113/88/106
f 113/88/106 41/37/41 43/39/43
f 113/88/106 43/39/43 111/74/104
f 31/28/31 134/109/124 33/30/33
f 33/30/33 134/109/124 135/110/125
f 33/30/33 135/110/125 136/111/126
f 136/111/126 135/110/125 137/112/127
f 138/113/128 139/114/129 140/115/130
f 140/115/130 139/114/129 124/99/131
f 57/50/56 52/6/51 58/5/57
f 58/5/57 52/6/51 54/49/53
f 58/5/57 54/49/53 25/3/25
f 25/3/25 54/49/53 141/116/132
f 25/3/25 141/116/132 142/2/133
f 142/2/133 141/116/132 143/117/134
f 63/53/62 144/118/135 64/54/63
f 64/54/63 144/118/135 145/53/136
f 64/54/63 145/53/136 62/52/61
f 62/52/61 145/53/136 59/10/58
f 62/52/61 59/10/58 11/11/11
f 11/11/11 59/10/58 7/7/7
f 75/57/73 146/60/137 37/33/37
f 37/33/37 146/60/137 77/59/75
f 37/33/37 77/59/75 38/34/38
f 38/34/38 77/59/75 36/33/36
f 38/34/38 36/33/36 39/35/39
f 39/35/39 36/33/36 35/32/35
f 44/40/44 147/119/41 45/41/45
f 45/41/45 147/119/41 51/47/138
f 45/41/45 51/47/138 46/42/46
f 46/42/46 51/47/138 148/120/139
f 46/42/46 148/120/139 149/121/140
f 22/21/22 150/122/141 151/123/142
f 151/123/142 150/122/141 152/124/143
f 151/123/142 152/124/143 153/125/144
f 153/125/144 152/124/143 154/126/145
f 153/125/144 154/126/145 155/127/146
f 24/23/24 156/128/147 100/77/95
f 100/77/95 156/128/147 129/104/119
f 100/77/95 129/104/119 157/129/96
f 157/129/96 129/104/119 16/15/16
f 157/129/96 16/15/16 158/130/99
f 158/130/99 16/15/16 18/17/18
f 156/128/147 159/131/148 129/104/119
f 129/104/119 159/131/148 160/132/149
f 129/104/119 160/132/149 122/97/115
f 122/97/115 160/132/149 161/133/150
f 122/97/115 161/133/150 121/96/114
f 121/96/114 161/133/150 162/134/151
f 23/22/23 22/21/22 21/20/21
f 21/20/21 22/21/22 151/123/142
f 21/20/21 151/123/142 19/18/19
f 19/18/19 151/123/142 153/125/144
f 19/18/19 153/125/144 131/106/121
f 26/24/26 25/3/25 163/1/152
f 163/1/152 25/3/25 142/2/133
f 163/1/152 142/2/133 47/43/47
f 47/43/47 142/2/133 143/117/134
f 47/43/47 143/117/134 2/2/2
f 2/2/2 143/117/134 141/116/132
f 2/2/2 141/116/132 3/3/3
f 3/3/3 141/116/132 164/49/53
f 3/3/3 164/49/53 5/5/5
f 5/5/5 164/49/53 53/48/153
f 5/5/5 53/48/153 165/6/154
f 9/9/9 28/25/28 7/7/7
f 7/7/7 28/25/28 40/36/40
f 7/7/7 40/36/40 11/11/11
f 11/11/11 40/36/40 70/25/68
f 11/11/11 70/25/68 12/7/12
f 12/7/12 70/25/68 166/9/155
f 12/7/12 166/9/155 60/8/59
f 60/8/59 166/9/155 167/56/156
f 60/8/59 167/56/156 61/51/60
f 168/135/157 169/136/158 170/137/159
f 170/137/159 169/136/158 32/29/32
f 170/137/159 32/29/32 171/138/160
f 171/138/160 32/29/32 33/30/33
f 171/138/160 33/30/33 172/139/161
f 172/139/161 33/30/33 136/111/126
f 172/139/161 136/111/126 149/121/140
f 149/121/140 136/111/126 137/112/127
f 149/121/140 137/112/127 46/42/46
f 46/42/46 137/112/127 173/140/162
f 46/42/46 173/140/162 44/40/44
f 104/81/99 127/102/18 174/141/163
f 174/141/163 127/102/18 126/101/118
f 174/141/163 126/101/118 175/142/164
f 175/142/164 126/101/118 124/99/117
f 175/142/164 124/99/117 176/143/165
f 176/143/165 124/99/117 177/114/166
f 176/143/165 177/114/166 178/144/167
f 178/144/167 177/114/166 179/145/168
f 178/144/167 179/145/168 180/146/169
f 180/146/169 179/145/168 181/147/170
f 180/146/169 181/147/170 182/148/171
f 183/149/172 106/83/98 101/78/96
f 101/78/96 106/83/98 105/82/100
f 101/78/96 105/82/100 99/76/94
f 99/76/94 105/82/100 83/63/80
f 99/76/94 83/63/80 22/21/22
f 22/21/22 83/63/80 82/62/79
f 22/21/22 82/62/79 150/122/141
f 150/122/141 82/62/79 184/150/173
f 150/122/141 184/150/173 152/124/143
f 152/124/143 184/150/173 185/151/174
f 152/124/143 185/151/174 154/126/145
f 186/152/117 187/153/116 108/85/101
f 108/85/101 187/153/116 188/154/175
f 108/85/101 188/154/175 109/86/102
f 109/86/102 188/154/175 132/107/122
f 109/86/102 132/107/122 114/89/107
f 114/89/107 132/107/122 131/106/121
f 114/89/107 131/106/121 116/91/109
f 116/91/109 131/106/121 153/125/144
f 116/91/109 153/125/144 118/93/111
f 118/93/111 153/125/144 155/127/146
f 182/148/171 189/155/176 180/146/169
f 180/146/169 189/155/176 168/135/157
f 180/146/169 168/135/157 178/144/167
f 178/144/167 168/135/157 170/137/159
f 178/144/167 170/137/159 176/143/165
f 176/143/165 170/137/159 171/138/160
f 176/143/165 171/138/160 175/142/164
f 175/142/164 171/138/160 172/139/161
f 175/142/164 172/139/161 174/141/163
f 174/141/163 172/139/161 149/121/140
f 174/141/163 149/121/140 104/81/99
f 104/81/99 149/121/140 148/120/139
f 104/81/99 148/120/139 102/79/97
f 102/79/97 148/120/139 51/47/138
f 102/79/97 51/47/138 14/13/14
f 14/13/14 51/47/138 190/156/177
f 14/13/14 190/156/177 15/14/15
f 15/14/15 190/156/177 191/157/178
f 192/158/17 120/95/113 187/153/116
f 187/153/116 120/95/113 119/94/112
f 187/153/116 119/94/112 188/154/175
f 188/154/175 119/94/112 121/96/114
f 188/154/175 121/96/114 132/107/122
f 132/107/122 121/96/114 162/134/151
f 132/107/122 162/134/151 130/105/120
f 130/105/120 162/134/151 161/133/150
f 130/105/120 161/133/150 20/19/20
f 20/19/20 161/133/150 160/132/149
f 20/19/20 160/132/149 21/20/21
f 21/20/21 160/132/149 159/131/148
f 21/20/21 159/131/148 23/22/23
o editpl_f-0000-1890
v 6.079152 59.916260 -11.923707
v 2.460231 61.141853 -11.233557
v 3.394061 61.979240 -12.288231
v 7.748405 52.970142 3.640787
v 8.147862 52.533806 1.369182
v 7.277522 49.036686 3.914180
v 7.409793 48.821724 1.874848
v 8.147862 52.533806 1.369182
v 9.134600 52.784058 2.543882
v 7.409793 48.821724 1.874848
v 8.737789 48.988560 3.031766
v 9.134600 52.784058 2.543882
v 7.748405 52.970142 3.640787
v 8.737789 48.988560 3.031766
v 7.277522 49.036686 3.914180
v 5.647950 58.831833 -10.635650
v 7.425665 61.956779 -9.387601
v 7.224614 61.327942 -8.103988
v 2.460231 61.141853 -11.233557
v 4.732638 63.198418 -8.899716
v 3.394061 61.979240 -12.288231
v 5.613560 63.698925 -10.005513
v 4.732638 63.198418 -8.899716
v 7.224614 61.327942 -8.103988
v 5.613560 63.698925 -10.005513
v 7.425665 61.956779 -9.387601
vn 0.3700 -0.7479 -0.5511
vn -0.1183 0.4969 -0.8597
vn -0.8892 0.4092 -0.2046
vn -0.9877 0.0470 -0.1489
vn -0.9877 0.0471 -0.1489
vn -0.4562 0.1730 0.8729
vn -0.9887 0.1099 -0.1020
vn 0.8278 -0.1656 -0.5361
vn 0.9540 -0.1340 0.2681
vn 0.6767 -0.1338 -0.7240
vn 0.9923 -0.0703 0.1016
vn 0.9540 -0.1340 0.2680
vn 0.5875 -0.0626 0.8068
vn 0.9923 -0.0704 0.1016
vn -0.4561 0.1730 0.8729
vn 0.6354 -0.2745 -0.7217
vn 0.6062 0.4172 0.6770
vn 0.9586 0.2593 -0.1179
vn 0.1731 0.9600 -0.2203
vn -0.2444 0.8280 0.5047
vn 0.1731 0.9599 -0.2204
vn -0.2445 0.8280 0.5047
vn 0.6062 0.4173 0.6771
vt 0.418701 0.132812
vt 0.335968 0.187500
vt 0.418701 0.187500
vt 0.843750 0.484375
vt 0.773438 0.484375
vt 0.843750 0.585938
vt 0.773438 0.585938
vt 0.335968 0.132812
vt 0.335968 0.203125
vt 0.335968 0.015625
vt 0.418701 0.203125
vt 0.418701 0.015625
vt 0.334930 0.016327
vt 0.334930 0.186768
vt 0.419708 0.016327
vt 0.419708 0.186768
s 1
usemtl f_hair0100
f 193/159/179 194/160/180 195/161/181
f 196/162/182 197/163/183 198/164/184
f 198/164/184 197/163/183 199/165/185
f 200/162/186 201/163/187 202/164/188
f 202/164/188 201/163/187 203/165/189
f 204/162/190 205/163/191 206/164/192
f 206/164/192 205/163/191 207/165/193
f 194/160/180 193/159/179 208/166/194
f 208/166/194 193/159/179 209/161/195
f 208/166/194 209/161/195 210/160/196
f 211/167/180 212/168/197 213/169/181
f 213/169/181 212/168/197 214/170/198
f 215/171/199 216/172/196 217/173/200
f 217/173/200 216/172/196 218/174/201
