mtllib f_hair021.mtl
o editpl_f-0000-1888
v 8.507638 59.303459 -0.324519
v 8.904450 57.009480 -2.990654
v 8.174316 62.595245 -2.011553
v 9.105501 52.286762 -1.403642
v 8.877995 57.423359 3.472973
v 9.737754 57.404106 -1.702596
v -6.658497 52.158428 -6.992635
v -5.846356 47.833549 -1.402531
v -7.274877 52.386223 -3.186252
v 7.777505 57.141022 4.959963
v 7.388630 62.367451 3.728583
v 7.034145 61.972820 4.633224
v -8.904450 57.009480 -2.990654
v -7.893903 54.888748 -0.424541
v -7.838349 52.245052 -3.940860
v -8.412403 45.940613 -2.667250
v -6.322530 46.794037 -4.179801
v 6.446864 57.763443 8.628537
v 7.687561 55.832008 4.485415
v 7.034145 61.972820 4.633224
v 8.743080 58.029739 -8.737459
v 9.084337 53.493107 -9.106427
v 5.110932 54.256699 -12.785005
v 0.000000 47.714836 -8.321812
v 4.685021 52.251469 -10.593417
v 4.745865 47.644253 -5.598999
v 6.658497 52.158428 -6.992635
v -8.507638 59.303459 -0.324519
v -8.840960 52.325260 -1.064680
v -8.174316 62.595245 -2.011553
v -9.737754 57.404106 -1.702596
v 7.774860 57.105728 2.220479
v -5.716731 62.579205 6.589205
v -6.446864 57.763443 8.628537
v -2.920532 63.265793 8.767456
v -3.293535 58.793331 10.916812
v 0.000000 63.467922 9.258675
v 7.687561 55.832008 4.485415
v 8.412403 45.940613 -2.667250
v 7.198160 48.228176 -9.256460
v 10.221864 52.719891 -3.085119
v -7.687561 55.832008 4.485415
v -7.034145 61.972820 4.633224
v -7.777505 57.141022 4.959963
v -7.774860 57.105728 2.220479
v -8.507638 59.303459 -0.324519
v -8.174316 62.595245 -2.011553
v 8.944131 51.927425 3.357392
v 7.248423 44.615555 3.319607
v 0.000000 62.361034 -11.343581
v 0.000000 58.356991 -13.242883
v -4.976016 58.356991 -12.185987
v 0.000000 65.636780 -7.631663
v -4.462806 62.402744 -10.254456
v -8.743080 58.029739 -8.737459
v 5.716731 62.579205 6.589205
v 4.309373 64.972649 4.647672
v 2.920532 63.265793 8.767456
v 0.000000 65.752281 5.204459
v 8.174316 62.595245 -2.011553
v 8.904450 57.009480 -2.990654
v 10.034040 57.554901 -2.937309
v 7.838349 52.245052 -3.940860
v 6.322530 46.794037 -4.179801
v 8.412403 45.940613 -2.667250
v -4.745865 47.644253 -5.598999
v -4.685021 52.251469 -10.593417
v 0.000000 52.437553 -11.661427
v 7.512964 51.850426 4.976633
v 5.960108 43.300125 5.107774
v 7.018272 45.045479 -0.288955
v -7.248423 44.615555 3.319607
v -7.512964 51.850426 4.976633
v -8.944131 51.927425 3.357392
v -8.877995 57.423359 3.472973
v -7.388630 62.367451 3.728583
v -4.309373 64.972649 4.647672
v -10.221864 52.719891 -3.085119
v -10.034040 57.554901 -2.937309
v -7.362176 62.454079 -7.783919
v -4.526296 64.950188 -7.164895
v -7.687561 55.832008 4.485415
v -7.034145 61.972820 4.633224
v -4.309373 64.972649 4.647672
v 8.507638 59.303459 -0.324519
v 4.309373 64.972649 4.647672
v 0.000000 59.011497 11.674754
v 3.293535 58.793331 10.916812
v -8.928258 56.181721 -6.808150
v -5.129450 57.253315 -11.374699
v 0.000000 57.198772 -12.751665
v 5.129450 57.253315 -11.374699
v 8.928258 56.181721 -6.808150
v 7.893903 54.888748 -0.424541
v 7.274877 52.386223 -3.186252
v 5.846356 47.833549 -1.402531
v 4.756447 46.078571 -5.860165
v 0.000000 45.539566 -8.714120
v -4.756447 46.078571 -5.860165
v 0.000000 65.752281 5.204459
v 4.735284 66.005737 -1.904863
v 7.362176 62.454079 -7.783919
v 4.121549 49.601357 -13.062842
v 0.000000 49.999195 -14.510935
v -8.904450 57.009480 -2.990654
v -8.174316 62.595245 -2.011553
v -4.735284 66.005737 -1.904863
v 0.000000 66.814247 -1.904863
v 4.526296 64.950188 -7.164895
v 4.462806 62.402744 -10.254456
v 4.976016 58.356991 -12.185987
v 0.000000 54.317657 -14.121962
v -5.110932 54.256699 -12.785005
v -9.084337 53.493107 -9.106427
v -8.412403 45.940613 -2.667250
v -7.198160 48.228176 -9.256460
v -4.121549 49.601357 -13.062842
v -9.737754 57.404106 -1.702596
v -8.840960 52.325260 -1.064680
v -7.018272 45.045479 -0.288955
v -5.960108 43.300125 5.107774
vn 0.9992 -0.0236 0.0315
vn 0.8808 -0.2517 0.4011
vn 0.9028 0.4003 0.1570
vn 0.3324 -0.6271 0.7045
vn 0.8907 -0.4400 0.1142
vn 0.3563 -0.4756 0.8043
vn -0.8859 -0.3998 -0.2352
vn -0.9484 -0.2430 -0.2038
vn -0.9424 -0.3299 -0.0550
vn 0.3928 0.0314 0.9191
vn 0.8454 0.4384 0.3053
vn 0.7147 0.4006 0.5733
vn -0.8808 -0.2517 0.4011
vn -0.9519 -0.2675 0.1495
vn 0.3442 0.0157 0.9388
vn 0.4557 0.1336 0.8800
vn 0.4558 0.1336 0.8800
vn 0.7870 0.3069 0.5352
vn 0.9654 0.0942 0.2433
vn 0.8331 0.2122 -0.5108
vn 0.8651 -0.0787 -0.4954
vn 0.5328 0.0157 -0.8461
vn -0.0000 -0.4314 -0.9021
vn 0.4965 -0.4650 -0.7330
vn 0.7837 -0.3056 -0.5407
vn 0.8859 -0.3998 -0.2352
vn 0.8115 -0.1024 -0.5752
vn 0.8116 -0.1024 -0.5751
vn 0.9680 -0.1338 0.2125
vn -0.6981 0.5255 0.4863
vn -0.7870 0.3069 0.5352
vn -0.4091 0.6452 0.6452
vn -0.3468 0.4416 0.8275
vn -0.0000 0.6199 0.7847
vn -0.8850 -0.1018 0.4543
vn 0.9256 -0.2902 -0.2432
vn 0.8020 -0.2123 -0.5583
vn 0.8757 -0.0395 0.4813
vn 0.8850 -0.1018 0.4543
vn -0.7147 0.4006 0.5734
vn -0.3927 0.0314 0.9191
vn -0.9680 -0.1338 0.2125
vn -0.9919 0.0157 0.1260
vn -0.8575 0.4720 0.2045
vn 0.8252 0.3362 0.4539
vn 0.8860 -0.4391 0.1490
vn -0.0000 0.5511 -0.8345
vn -0.0000 0.3209 -0.9471
vn -0.3761 0.2977 -0.8775
vn -0.0000 0.8589 -0.5121
vn -0.3921 0.5804 -0.7137
vn -0.8331 0.2122 -0.5108
vn 0.6981 0.5255 0.4863
vn 0.5427 0.7787 0.3147
vn 0.4091 0.6452 0.6452
vn -0.0000 0.9495 0.3139
vn 0.9028 0.4004 0.1570
vn 0.8808 -0.2516 0.4011
vn 0.8688 0.1565 0.4697
vn -0.3442 0.0156 0.9388
vn -0.4558 0.1336 0.8800
vn -0.7837 -0.3056 -0.5408
vn -0.4965 -0.4650 -0.7330
vn -0.0000 -0.3930 -0.9196
vn 0.7923 -0.0863 0.6040
vn 0.8078 -0.5333 0.2510
vn 0.8350 -0.5435 -0.0866
vn -0.8870 -0.4396 0.1413
vn -0.7923 -0.0863 0.6040
vn -0.9389 -0.1252 0.3208
vn -0.9249 0.0941 0.3684
vn -0.8454 0.4384 0.3053
vn -0.5427 0.7788 0.3146
vn -0.8757 -0.0395 0.4813
vn -0.8689 0.1565 0.4697
vn -0.7531 0.5648 -0.3374
vn -0.3383 0.8653 -0.3698
vn -0.9654 0.0942 0.2433
vn -0.7147 0.4006 0.5733
vn -0.5427 0.7787 0.3147
vn 0.9992 -0.0236 0.0314
vn 0.5427 0.7788 0.3146
vn -0.0000 0.4723 0.8815
vn 0.3468 0.4414 0.8276
vn -0.8780 -0.4077 -0.2508
vn -0.5287 -0.2446 -0.8128
vn -0.0000 -0.1961 -0.9806
vn 0.5287 -0.2446 -0.8128
vn 0.8780 -0.4077 -0.2509
vn 0.9519 -0.2675 0.1495
vn 0.9424 -0.3299 -0.0550
vn 0.9484 -0.2430 -0.2038
vn 0.7911 0.1018 -0.6031
vn -0.0000 0.1720 -0.9851
vn -0.7911 0.1018 -0.6032
vn -0.0000 0.9495 0.3138
vn 0.4472 0.8944 -0.0000
vn 0.7531 0.5648 -0.3374
vn 0.5590 -0.0630 -0.8267
vn -0.0000 0.0315 -0.9995
vn -0.8575 0.4721 0.2045
vn -0.4472 0.8944 -0.0000
vn -0.0000 0.9963 -0.0863
vn 0.3383 0.8654 -0.3697
vn 0.3921 0.5804 -0.7137
vn 0.3761 0.2977 -0.8775
vn -0.0000 0.1491 -0.9888
vn -0.4964 0.0473 -0.8668
vn -0.8713 -0.0628 -0.4867
vn -0.9256 -0.2902 -0.2432
vn -0.8409 -0.2358 -0.4872
vn -0.5248 -0.0940 -0.8460
vn -0.9784 0.1644 0.1252
vn -0.9876 -0.1568 -0.0000
vn -0.8396 -0.5335 -0.1020
vn -0.8078 -0.5333 0.2510
vt 0.654602 0.058655
vt 0.672424 0.122772
vt 0.560547 0.077820
vt 0.484375 0.789062
vt 0.476562 0.656250
vt 0.632812 0.656250
vt 0.796875 0.226562
vt 0.976562 0.093750
vt 0.812500 0.062500
vt 0.703125 0.656250
vt 0.640625 0.546875
vt 0.695312 0.554688
vt 0.765625 0.046875
vt 0.491211 0.814453
vt 0.450195 0.988281
vt 0.492188 0.976562
vt 0.523438 0.304688
vt 0.632812 0.289062
vt 0.609375 0.125000
vt 0.281250 0.640625
vt 0.281250 0.812500
vt 0.156250 0.812500
vt 0.937500 0.359375
vt 0.805634 0.313080
vt 0.937500 0.203125
vt 0.476562 0.531250
vt 0.709045 0.013519
vt 0.132812 0.125000
vt 0.134338 0.305328
vt 0.257812 0.125000
vt 0.242188 0.304688
vt 0.328125 0.125000
vt 0.750000 0.656250
vt 0.289062 0.984375
vt 0.459839 0.810760
vt 0.625000 0.789062
vt 0.624084 0.960907
vt 0.051544 0.443726
vt 0.023438 0.640625
vt 0.156250 0.625000
vt 0.195312 0.390625
vt 0.179688 0.507812
vt 0.523438 0.125000
vt 0.515625 0.039062
vt 0.390625 0.125000
vt 0.328125 0.015625
vt 0.484375 0.656250
vt 0.464020 0.656372
vt 0.796875 0.398438
vt 0.703125 0.789062
vt 0.686829 0.985748
vt 0.523438 0.986359
vt 0.664062 0.460938
vt 0.296875 0.546875
vt 0.285767 0.466644
vt 0.023438 0.296875
vt 0.046875 0.125000
vt 0.148438 0.046875
vt 0.328125 0.312500
vt 0.406250 0.304688
vt 0.730133 0.215149
vt 0.701691 0.329651
vt 0.701538 0.426025
vt 0.984375 0.201813
vt 0.983063 0.334625
vt 0.640625 0.367188
vt 0.460938 0.460938
vt 0.158478 0.983582
vt 0.023438 0.984375
vt 0.429688 0.359375
vt 0.023438 0.804688
s 1
usemtl f_hair099
f 1/1/1 2/2/2 3/3/3
f 4/4/4 6/5/5 5/6/6
f 7/7/7 8/8/8 9/9/9
f 10/10/10 11/11/11 12/12/12
f 13/2/13 9/9/9 14/13/14
f 15/14/15 16/15/16 17/16/17
f 18/17/18 19/18/19 20/19/12
f 21/20/20 22/21/21 23/22/22
f 24/23/23 25/24/24 26/25/25
f 26/25/25 25/24/24 27/7/26
f 28/5/27 29/4/27 30/26/28
f 30/26/28 29/4/27 31/5/28
f 2/2/2 1/1/1 32/27/29
f 33/28/30 34/29/31 35/30/32
f 35/30/32 34/29/31 36/31/33
f 35/30/32 36/31/33 37/32/34
f 10/10/10 12/12/12 38/33/35
f 39/15/36 40/34/37 41/35/38
f 42/33/39 43/12/40 44/10/41
f 14/13/14 45/27/42 13/2/13
f 13/2/13 45/27/42 46/1/43
f 13/2/13 46/1/43 47/3/44
f 5/6/6 48/36/45 4/4/4
f 11/11/11 5/6/6 6/5/5
f 4/4/4 48/36/45 49/37/46
f 50/38/47 51/39/48 52/40/49
f 53/41/50 50/38/47 54/42/51
f 54/42/51 50/38/47 52/40/49
f 54/42/51 52/40/49 55/20/52
f 56/43/53 57/44/54 58/45/55
f 58/45/55 57/44/54 59/46/56
f 60/26/57 61/47/58 62/48/59
f 62/48/59 61/47/58 63/14/60
f 62/48/59 63/14/60 41/35/38
f 41/35/38 63/14/60 64/16/61
f 41/35/38 64/16/61 65/15/61
f 8/8/8 7/7/7 66/25/62
f 66/25/62 7/7/7 67/24/63
f 66/25/62 67/24/63 24/23/23
f 24/23/23 67/24/63 68/49/64
f 24/23/23 68/49/64 25/24/24
f 11/11/11 10/10/10 5/6/6
f 5/6/6 10/10/10 69/50/65
f 5/6/6 69/50/65 48/36/45
f 48/36/45 69/50/65 70/51/66
f 48/36/45 70/51/66 49/37/46
f 49/37/46 70/51/66 71/52/67
f 49/37/46 71/52/67 4/4/4
f 72/37/68 73/50/69 74/36/70
f 74/36/70 73/50/69 44/10/41
f 74/36/70 44/10/41 75/6/71
f 75/6/71 44/10/41 43/12/40
f 75/6/71 43/12/40 76/11/72
f 76/11/72 43/12/40 77/53/73
f 78/35/74 79/48/75 55/20/52
f 55/20/52 79/48/75 80/54/76
f 55/20/52 80/54/76 54/42/51
f 54/42/51 80/54/76 81/55/77
f 54/42/51 81/55/77 53/41/50
f 82/56/78 34/29/31 83/57/79
f 83/57/79 34/29/31 33/28/30
f 83/57/79 33/28/30 84/58/80
f 84/58/80 33/28/30 35/30/32
f 84/58/80 35/30/32 59/46/56
f 59/46/56 35/30/32 37/32/34
f 59/46/56 37/32/34 58/45/55
f 4/4/4 85/5/81 6/5/5
f 6/5/5 85/5/81 60/26/57
f 6/5/5 60/26/57 11/11/11
f 11/11/11 60/26/57 86/53/82
f 11/11/11 86/53/82 12/12/12
f 36/31/33 87/59/83 37/32/34
f 37/32/34 87/59/83 88/60/84
f 37/32/34 88/60/84 58/45/55
f 58/45/55 88/60/84 18/17/18
f 58/45/55 18/17/18 56/43/53
f 56/43/53 18/17/18 20/19/12
f 56/43/53 20/19/12 57/44/54
f 9/9/9 13/2/13 7/7/7
f 7/7/7 13/2/13 89/61/85
f 7/7/7 89/61/85 67/24/63
f 67/24/63 89/61/85 90/62/86
f 67/24/63 90/62/86 68/49/64
f 68/49/64 90/62/86 91/63/87
f 68/49/64 91/63/87 25/24/24
f 25/24/24 91/63/87 92/62/88
f 25/24/24 92/62/88 27/7/26
f 27/7/26 92/62/88 93/61/89
f 27/7/26 93/61/89 2/2/2
f 32/27/29 94/13/90 2/2/2
f 2/2/2 94/13/90 95/9/91
f 2/2/2 95/9/91 27/7/26
f 27/7/26 95/9/91 96/8/92
f 27/7/26 96/8/92 26/25/25
f 26/25/25 96/8/92 97/64/93
f 26/25/25 97/64/93 24/23/23
f 24/23/23 97/64/93 98/65/94
f 24/23/23 98/65/94 66/25/62
f 66/25/62 98/65/94 99/64/95
f 66/25/62 99/64/95 8/8/8
f 100/66/96 86/53/82 101/67/97
f 101/67/97 86/53/82 60/26/57
f 101/67/97 60/26/57 102/54/98
f 102/54/98 60/26/57 62/48/59
f 102/54/98 62/48/59 21/20/20
f 21/20/20 62/48/59 41/35/38
f 21/20/20 41/35/38 22/21/21
f 22/21/21 41/35/38 40/34/37
f 22/21/21 40/34/37 23/22/22
f 23/22/22 40/34/37 103/68/99
f 23/22/22 103/68/99 104/69/100
f 16/15/16 15/14/15 78/35/74
f 78/35/74 15/14/15 105/47/13
f 78/35/74 105/47/13 79/48/75
f 79/48/75 105/47/13 106/26/101
f 79/48/75 106/26/101 80/54/76
f 80/54/76 106/26/101 107/67/102
f 80/54/76 107/67/102 81/55/77
f 81/55/77 107/67/102 108/70/103
f 81/55/77 108/70/103 53/41/50
f 108/70/103 109/55/104 53/41/50
f 53/41/50 109/55/104 110/42/105
f 53/41/50 110/42/105 50/38/47
f 50/38/47 110/42/105 111/40/106
f 50/38/47 111/40/106 51/39/48
f 51/39/48 111/40/106 112/71/107
f 51/39/48 112/71/107 52/40/49
f 52/40/49 112/71/107 113/22/108
f 52/40/49 113/22/108 55/20/52
f 55/20/52 113/22/108 114/21/109
f 55/20/52 114/21/109 78/35/74
f 115/15/110 78/35/74 116/34/111
f 116/34/111 78/35/74 114/21/109
f 116/34/111 114/21/109 117/68/112
f 117/68/112 114/21/109 113/22/108
f 117/68/112 113/22/108 104/69/100
f 104/69/100 113/22/108 112/71/107
f 104/69/100 112/71/107 23/22/22
f 23/22/22 112/71/107 111/40/106
f 23/22/22 111/40/106 21/20/20
f 21/20/20 111/40/106 110/42/105
f 21/20/20 110/42/105 102/54/98
f 102/54/98 110/42/105 109/55/104
f 102/54/98 109/55/104 101/67/97
f 101/67/97 109/55/104 108/70/103
f 101/67/97 108/70/103 100/66/96
f 100/66/96 108/70/103 107/67/102
f 100/66/96 107/67/102 77/53/73
f 77/53/73 107/67/102 106/26/101
f 77/53/73 106/26/101 76/11/72
f 76/11/72 106/26/101 118/5/113
f 76/11/72 118/5/113 75/6/71
f 75/6/71 118/5/113 119/4/114
f 75/6/71 119/4/114 74/36/70
f 74/36/70 119/4/114 120/52/115
f 74/36/70 120/52/115 72/37/68
f 72/37/68 120/52/115 121/51/116
f 72/37/68 121/51/116 73/50/69
