mtllib f_hair015.mtl
o editpl_f-0000-1918
v -2.589856 64.545937 8.248454
v 0.796268 64.635765 8.771901
v -0.002645 65.267815 7.075977
v 2.597792 37.528271 -17.792757
v 3.878171 37.451271 -15.433357
v 0.000000 26.478653 -17.851660
v 4.724702 57.458649 -13.661862
v 3.793518 57.532440 -17.687181
v 2.288280 65.014351 -16.075722
v -5.232621 66.316956 -17.190407
v -6.079152 64.144890 -26.470203
v -7.695497 59.120583 -24.446428
v 5.589751 57.407314 -9.594312
v 4.729993 53.095268 -8.830812
v -0.005291 53.111313 -11.262451
v 7.497091 56.816975 6.012414
v 7.978556 59.572964 5.208906
v 6.571198 60.647766 6.689226
v 8.176962 53.672775 3.716359
v 8.433567 54.795704 4.852162
v 7.335721 50.749954 6.243575
v -7.904485 56.630890 7.003740
v -7.470637 51.215168 5.997966
v -7.182288 53.380814 7.978396
v 8.497056 44.439095 0.601239
v 6.187614 36.931515 3.684131
v 7.388630 41.821068 0.919086
v -3.745900 47.695587 -17.594938
v -5.121513 47.628212 -14.075285
v -4.724702 57.458649 -13.661862
v -3.076612 55.081249 10.384475
v -5.158549 58.466076 10.478939
v -6.134705 55.601006 8.700776
v 1.275088 62.085114 11.156864
v -3.515750 58.751621 10.723436
v -3.282954 61.578194 10.592298
v -4.957498 61.129021 10.152202
v 1.275088 62.085114 11.156864
v 2.206272 58.604038 11.780334
v 4.380799 58.648952 11.356907
v 2.402032 55.062000 11.075736
v 5.647950 56.149635 9.763229
v -3.039576 58.263950 11.452484
v -0.558181 58.523827 11.977042
v -2.248598 55.482296 11.462487
v 0.153434 54.195740 11.453596
v 1.978767 55.594589 11.445817
v -2.349124 65.014351 -16.075722
v 0.000000 65.399361 -19.746519
v 0.000000 57.567734 -21.721392
v -3.793518 57.532440 -17.687181
v 1.518465 64.407974 -13.366242
v 7.695497 59.120583 -24.446428
v 6.079152 64.144890 -26.470203
v 5.232621 66.316956 -17.190407
v 0.000000 69.284691 -22.744949
v 5.420445 67.314751 -16.951468
v 0.000000 69.583069 -15.596728
v 0.000000 66.503036 -10.724558
v 3.745900 47.695587 -17.594938
v 5.121513 47.628212 -14.075285
v 1.129590 63.243336 -12.588296
v 10.287999 53.692024 -13.226212
v 6.658497 59.319504 -14.782105
v 7.113507 56.239471 -16.615837
v 10.750946 58.289616 -19.386438
v 9.319779 63.856133 -22.269289
v 6.372792 62.810207 -13.153975
v 1.865014 64.841103 -12.048179
v -6.372792 62.810207 -13.153975
v -1.865014 64.841103 -12.048179
v -5.420445 67.314751 -16.951468
v 0.000000 71.145546 -23.884085
v -6.417764 67.462341 -26.527992
v -9.319779 63.856133 -22.269289
v -10.750946 58.289616 -19.386438
v -4.589786 63.323544 -8.780802
v -6.891293 63.621922 -6.235805
v -4.044832 64.324554 -7.731685
v -6.401892 60.500183 6.288028
v -8.436212 61.491566 1.239153
v -9.819761 60.413555 0.544558
v -9.655746 61.584610 -2.850624
v 3.158619 65.636780 -15.435582
v 0.000000 65.755486 -20.135492
v 0.000000 67.183212 -15.632291
v -3.158619 65.636780 -15.435582
v -8.269551 58.709911 5.771250
v -8.473248 57.185940 5.031089
v -7.497091 56.816975 6.012414
v -7.113507 56.239471 -16.615837
v -10.287999 53.692024 -13.226212
v -6.658497 59.319504 -14.782105
v -1.129590 63.243336 -12.588296
v 0.000000 68.309349 -15.543383
v 0.000000 59.473503 -22.659372
v -6.626752 56.040550 -18.635164
v -5.867519 60.782516 -15.550051
v -6.658497 59.319504 -14.782105
v -1.129590 63.243336 -12.588296
v -4.071286 65.094566 -15.144406
v 0.000000 65.986488 -11.091304
v -0.005291 53.111313 -11.262451
v 4.729993 53.095268 -8.830812
v -0.005291 49.225979 -8.648550
v -5.663822 61.026356 -8.740793
v -5.036860 64.347015 -6.963741
v -0.005291 64.590851 -7.943954
v 4.364926 65.915909 -4.373178
v 5.023633 64.347015 -6.963741
v 9.010266 59.887383 0.341180
v 6.348984 61.090523 6.184672
v 6.663787 58.215824 6.625880
v 8.782761 57.076855 -5.912400
v 8.920322 60.282013 -5.438965
v 9.642519 61.584610 -2.850624
v 7.854222 62.893623 -7.236022
v 6.878066 63.621922 -6.235805
v 4.576559 63.323544 -8.780802
v 4.460161 63.840092 -7.731685
v 8.092309 62.726788 -3.137353
v 8.422985 61.491566 1.239153
v 9.806534 60.413555 0.544558
v 6.388665 60.500183 6.288028
v 7.758987 52.273930 1.712590
v 8.862123 56.242680 -0.793510
v 8.124054 55.678005 3.147347
v 7.684916 56.813766 4.336493
v -8.105536 62.726788 -3.137353
v -7.867449 62.893623 -7.236022
v -0.005291 47.323418 -9.126431
v -0.005291 49.225979 -8.648550
v 3.542204 50.005611 -6.861495
v 7.579099 52.947685 -5.581217
v -7.772214 52.273930 1.712590
v -8.137281 55.678005 3.147347
v -8.875350 56.242680 -0.793510
v -7.698143 56.813766 4.336493
v -0.005291 57.801945 -11.630310
v -0.005291 62.534286 -9.935496
v 5.650595 61.026356 -8.740793
v -0.005291 66.310532 -5.237810
v -4.378153 65.915909 -4.373178
v -0.005291 67.090172 1.080230
v -8.735143 57.801945 3.501868
v -8.176962 53.672775 3.716359
v -8.430921 54.282368 4.852162
v -7.335721 45.857193 6.243576
v -6.547389 60.679852 7.597202
v 8.475893 57.185940 5.031089
v 6.367501 57.327106 8.445165
v 6.624106 53.836403 7.232679
v 7.235196 55.392460 5.966848
v 8.737789 57.801945 3.501868
v 5.931009 58.828621 9.590968
v 5.298756 61.578194 9.213108
v 4.650630 63.804798 8.107312
v 0.796268 64.635765 8.771901
v 3.999860 65.001518 6.099098
v -0.002645 65.267815 7.075977
v 1.941731 58.652161 11.542503
v -4.005150 65.001518 6.099098
v -4.938980 63.936344 6.961508
v -6.547389 60.679852 7.597202
v -6.838384 58.328117 7.855036
v -9.023493 59.887383 0.341180
v -8.795988 57.076855 -5.912400
v -8.285424 52.899559 -1.879301
v -7.592326 52.947685 -5.581217
v -5.423090 49.116894 -3.418525
v 8.272197 52.899559 -1.879301
v 5.409863 49.116894 -3.418525
v 3.706219 47.750130 -6.804816
v -0.002645 65.267815 7.075977
v -4.777610 66.101990 1.185808
v -7.684916 63.901051 1.647020
v -7.097635 63.888218 -4.568776
v -8.933549 60.282013 -5.438965
v 7.957393 56.816975 4.172014
v 9.526121 58.989040 -0.092246
v 9.071110 61.084106 -5.395622
v 6.370147 62.184574 -8.290696
v 0.267186 63.631550 -9.342034
v -0.283059 63.631550 -9.342034
v -6.383374 62.184574 -8.290696
v -9.084337 61.084106 -5.395622
v -9.539348 58.989040 -0.092246
v -7.962684 56.816975 4.172014
v 7.084408 63.888218 -4.568776
v 7.671689 63.901051 1.645908
v 5.711440 63.352421 5.410060
v 0.000000 37.682274 -20.721172
v -2.597792 37.528271 -17.792757
v 0.000000 47.650669 -21.802521
v -1.518465 64.407974 -13.366242
v 5.867519 60.782516 -15.550051
v 6.626752 56.040550 -18.635164
v 0.000000 48.866642 -25.183254
v -7.073826 61.738613 4.576545
v -5.716731 63.352421 5.410060
v -6.677014 58.215824 6.625880
v -6.359565 61.090523 6.184672
v -5.716731 63.352421 5.410060
v -4.005150 65.001518 6.099098
v 4.071286 65.094566 -15.144406
v 6.658497 59.319504 -14.782105
v 7.113507 56.239471 -16.615837
v 7.875385 50.608784 -19.919888
v 6.417764 67.462341 -26.527992
v -7.875385 50.608784 -19.919888
v -7.113507 56.239471 -16.615837
v 1.129590 63.243336 -12.588296
v -8.269551 58.709911 5.771250
v -5.716731 63.352421 5.410060
v -4.938980 63.936344 6.961508
v -4.005150 65.001518 6.099098
v 5.711440 63.352421 5.410060
v 7.073826 61.738613 4.576545
v 4.650630 63.804798 8.107312
v 5.711440 63.352421 5.410060
v 5.298756 61.578194 9.213108
v 6.571198 60.647766 6.689226
v 7.460056 58.013699 5.520084
v -7.999719 58.026531 3.588554
v -9.047302 58.741997 0.593458
v -8.081727 55.575336 3.488532
v -9.147827 55.690838 0.495659
v -7.518255 47.779003 3.306270
v -8.497056 44.439095 0.601239
v -6.187614 36.931515 3.684131
v -7.388630 41.821068 0.919086
v 7.518255 47.779003 3.306270
v 9.147827 55.690838 0.495659
v 8.081727 55.575336 3.488532
v 9.047302 58.741997 0.593458
v 7.999719 58.026531 3.588554
v -3.719446 47.750130 -6.804816
v -3.555431 50.005611 -6.861495
v -4.743220 53.095268 -8.830812
v -5.602978 57.407314 -9.594312
v 4.764383 66.101990 1.185808
v 3.999860 65.001518 6.099098
v -3.878171 37.451271 -15.433357
v 0.000000 57.567734 -21.721392
v -4.005150 65.001518 6.099098
v -4.938980 63.936344 6.961508
v -4.938980 63.936344 6.961508
v 4.650630 63.804798 8.107312
v -4.938980 63.936344 6.961508
v -4.938980 63.936344 6.961508
v -6.547389 60.679852 7.597202
v -6.547389 60.679852 7.597202
v 5.298756 61.578194 9.213108
v 5.298756 61.578194 9.213108
v 4.650630 63.804798 8.107312
v 4.650630 63.804798 8.107312
vn -0.2680 0.7726 0.5755
vn 0.0866 0.8501 0.5195
vn -0.0079 0.9569 0.2902
vn 0.8001 -0.1177 -0.5883
vn 0.8897 -0.1181 -0.4409
vn -0.0000 -0.3068 -0.9518
vn 0.9781 0.1721 -0.1174
vn 0.8874 0.1099 -0.4477
vn 0.9382 0.2996 -0.1734
vn -0.7550 0.6056 0.2517
vn -0.8109 0.5826 -0.0551
vn -0.9818 0.1728 0.0785
vn 0.5743 -0.0236 -0.8183
vn 0.5676 -0.4178 -0.7095
vn 0.7377 0.0157 0.6749
vn 0.8673 0.2444 0.4336
vn 0.8563 0.2828 0.4321
vn 0.9803 -0.1961 -0.0235
vn 0.9491 -0.1020 0.2980
vn 0.9295 -0.1260 0.3466
vn -0.8896 0.0079 0.4566
vn -0.9743 -0.1100 0.1965
vn -0.8308 -0.0157 0.5564
vn 0.9652 -0.1962 0.1727
vn 0.9622 -0.2681 0.0474
vn 0.8508 -0.4017 -0.3388
vn -0.8641 -0.0236 -0.5027
vn -0.9327 -0.0000 -0.3606
vn -0.9781 0.1721 -0.1174
vn -0.3226 -0.2203 0.9205
vn -0.5602 -0.0000 0.8284
vn -0.6932 -0.1970 0.6933
vn 0.1335 0.4713 0.8718
vn -0.1414 -0.0236 0.9897
vn -0.2282 0.3384 0.9129
vn -0.5972 0.4321 0.6758
vn 0.1336 0.4713 0.8718
vn 0.1885 0.0157 0.9819
vn 0.4867 0.0628 0.8713
vn 0.3231 -0.2443 0.9143
vn 0.6133 -0.1730 0.7706
vn -0.2120 0.0864 0.9735
vn -0.0315 0.0472 0.9984
vn -0.1332 -0.0862 0.9873
vn 0.0078 -0.1173 0.9931
vn 0.1257 -0.0629 0.9901
vn -0.9403 0.2978 -0.1646
vn -0.0000 0.3373 -0.9414
vn -0.0000 0.1018 -0.9948
vn -0.8874 0.1100 -0.4477
vn 0.8625 0.3842 0.3293
vn 0.9818 0.1728 0.0785
vn 0.8109 0.5826 -0.0551
vn 0.7550 0.6056 0.2517
vn -0.0000 1.0000 -0.0000
vn 0.6208 0.6915 0.3693
vn -0.0000 0.9327 0.3606
vn -0.0000 0.6750 0.7378
vn 0.8641 -0.0236 -0.5027
vn 0.9327 -0.0000 -0.3606
vn 0.6357 0.2512 0.7299
vn 0.8332 0.5502 0.0550
vn 0.8743 0.3624 0.3229
vn 0.9784 0.1879 -0.0861
vn 0.8647 0.3852 0.3223
vn 0.8247 0.5105 0.2435
vn 0.7416 0.5049 0.4418
vn 0.5900 0.4641 0.6607
vn -0.7416 0.5049 0.4418
vn -0.5900 0.4641 0.6607
vn -0.6208 0.6915 0.3693
vn -0.0000 0.9910 0.1337
vn -0.6270 0.7758 0.0705
vn -0.8247 0.5105 0.2435
vn -0.8647 0.3852 0.3223
vn -0.3233 0.5677 -0.7571
vn -0.4949 0.8406 -0.2200
vn -0.2915 0.7643 -0.5752
vn -0.8034 0.3622 0.4726
vn -0.6414 0.7196 0.2660
vn -0.9358 0.2202 0.2752
vn -0.8643 0.5028 -0.0157
vn 0.6200 0.6749 -0.4002
vn -0.0000 0.7149 -0.6992
vn -0.0000 0.9548 -0.2974
vn -0.6200 0.6749 -0.4002
vn -0.9229 0.1877 0.3363
vn -0.8958 -0.0629 0.4400
vn -0.7463 -0.0864 0.6599
vn -0.9784 0.1878 -0.0861
vn -0.8332 0.5502 0.0550
vn -0.8743 0.3624 0.3229
vn -0.6357 0.2512 0.7299
vn -0.0000 0.8944 0.4472
vn -0.0000 0.2974 -0.9548
vn -0.6594 0.3140 -0.6830
vn -0.7540 0.4320 -0.4948
vn -0.8743 0.3623 0.3229
vn -0.6357 0.2511 0.7299
vn -0.6212 0.4090 0.6684
vn -0.0000 0.4970 0.8678
vn 0.5675 -0.4178 -0.7095
vn -0.0000 -0.3537 -0.9354
vn -0.4879 0.4091 -0.7711
vn -0.4254 0.6855 -0.5909
vn -0.0000 0.7451 -0.6670
vn 0.3534 0.9032 -0.2435
vn 0.4254 0.6854 -0.5909
vn 0.9796 0.1254 0.1567
vn 0.8797 0.2435 0.4084
vn 0.9214 0.1181 0.3701
vn 0.9325 -0.1489 -0.3291
vn 0.8814 0.2361 -0.4092
vn 0.8643 0.5028 -0.0157
vn 0.6913 0.4950 -0.5264
vn 0.4641 0.8654 -0.1888
vn 0.2979 0.6429 -0.7057
vn 0.2196 0.8863 -0.4078
vn 0.5813 0.8091 0.0864
vn 0.6414 0.7196 0.2660
vn 0.9358 0.2202 0.2752
vn 0.8034 0.3622 0.4726
vn 0.9737 -0.1649 0.1571
vn 0.9927 -0.0630 0.1024
vn 0.9835 -0.0000 0.1810
vn 0.9631 0.0392 0.2663
vn -0.5813 0.8091 0.0864
vn -0.6913 0.4950 -0.5264
vn -0.0000 0.1337 -0.9910
vn 0.6390 -0.2762 -0.7179
vn 0.7690 -0.4786 -0.4237
vn -0.9737 -0.1649 0.1571
vn -0.9835 -0.0000 0.1810
vn -0.9927 -0.0630 0.1024
vn -0.9631 0.0392 0.2663
vn 0.0001 0.1644 -0.9864
vn -0.0000 0.5272 -0.8498
vn 0.4878 0.4091 -0.7711
vn -0.0000 0.9414 -0.3373
vn -0.3534 0.9032 -0.2435
vn -0.0000 0.9992 0.0393
vn -0.9965 0.0628 0.0549
vn -0.9799 -0.1411 -0.1411
vn -0.9629 -0.0783 0.2584
vn -0.9623 -0.0789 0.2603
vn -0.8136 0.3207 0.4850
vn 0.8808 0.0393 0.4719
vn 0.9280 0.0472 0.3696
vn 0.9276 -0.0550 0.3695
vn 0.9346 -0.0393 0.3534
vn 0.9916 0.1023 0.0787
vn 0.7411 0.1104 0.6623
vn 0.5334 0.4001 0.7452
vn 0.0001 0.6912 0.7226
vn 0.4089 0.8650 0.2910
vn -0.0078 0.9569 0.2902
vn 0.1654 0.0551 0.9847
vn -0.4477 0.8483 0.2828
vn -0.5894 0.6444 0.4872
vn -0.8353 0.2522 0.4886
vn -0.8427 0.0552 0.5355
vn -0.9796 0.1254 0.1567
vn -0.9325 -0.1489 -0.3291
vn -0.9330 -0.3372 -0.1255
vn -0.7690 -0.4786 -0.4237
vn -0.8243 -0.4004 -0.4004
vn 0.9330 -0.3372 -0.1255
vn 0.8243 -0.4004 -0.4004
vn 0.7299 0.0314 -0.6828
vn -0.4147 0.8920 0.1800
vn -0.7868 0.5901 0.1810
vn -0.7709 0.5743 -0.2753
vn -0.8814 0.2361 -0.4092
vn 0.9268 -0.1021 0.3613
vn 0.9753 -0.2202 -0.0157
vn 0.9078 -0.0625 -0.4147
vn 0.4240 -0.0706 -0.9029
vn 0.1417 0.4173 -0.8976
vn -0.1416 0.2989 -0.9437
vn -0.4240 -0.0706 -0.9029
vn -0.9078 -0.0625 -0.4147
vn -0.9753 -0.2202 -0.0157
vn -0.9242 -0.1018 0.3681
vn 0.7709 0.5743 -0.2753
vn 0.7868 0.5901 0.1810
vn 0.7716 0.5433 0.3307
vn -0.0000 -0.1733 -0.9849
vn -0.8001 -0.1177 -0.5883
vn -0.0000 -0.0629 -0.9980
vn -0.8585 0.3780 0.3465
vn 0.7540 0.4320 -0.4948
vn 0.6594 0.3140 -0.6830
vn -0.0000 0.2278 -0.9737
vn -0.8773 0.4308 0.2115
vn -0.7641 0.5672 0.3072
vn -0.9214 0.1181 0.3702
vn -0.8797 0.2435 0.4084
vn 0.6212 0.4090 0.6684
vn 0.8743 0.3623 0.3230
vn 0.9784 0.1878 -0.0861
vn 0.9930 0.0709 0.0946
vn 0.6270 0.7758 0.0705
vn -0.9930 0.0709 0.0946
vn 0.6357 0.2511 0.7299
vn -0.9228 0.1877 0.3363
vn -0.7642 0.5672 0.3072
vn -0.7879 0.5909 0.1733
vn -0.4477 0.8483 0.2827
vn 0.7717 0.5433 0.3307
vn 0.8493 0.4404 0.2910
vn 0.4089 0.8649 0.2910
vn 0.6027 0.7122 0.3600
vn 0.8897 0.3228 0.3228
vn 0.9313 0.0548 0.3600
vn -0.9437 0.0157 0.3303
vn -0.9438 -0.0079 0.3303
vn -0.9349 -0.0314 0.3535
vn -0.9201 -0.0708 0.3854
vn -0.9652 -0.1962 0.1727
vn -0.9622 -0.2681 0.0474
vn -0.8508 -0.4017 -0.3388
vn 0.9201 -0.0708 0.3854
vn 0.9349 -0.0314 0.3535
vn 0.9438 -0.0079 0.3303
vn 0.9437 0.0157 0.3303
vn -0.7299 0.0314 -0.6828
vn -0.6390 -0.2761 -0.7179
vn -0.5676 -0.4178 -0.7095
vn -0.5744 -0.0236 -0.8183
vn 0.4147 0.8920 0.1799
vn 0.4089 0.8650 0.2909
vn -0.8897 -0.1181 -0.4409
vn -0.0001 0.1018 -0.9948
vn -0.5894 0.6443 0.4873
vn -0.0000 -0.0000 1.0000
vn 0.6026 0.7122 0.3600
vn -0.0000 -0.0000 -1.0000
vn -0.9499 -0.3061 -0.0628
vn -0.0001 0.6913 0.7226
vn -0.0000 0.6912 0.7226
vt 0.720612 0.702850
vt 0.853638 0.704102
vt 0.853638 0.661713
vt 0.930332 0.292027
vt 0.885655 0.296451
vt 0.978886 0.345118
vt 0.708160 0.044281
vt 0.755859 0.044037
vt 0.755859 0.009979
vt 0.825043 0.406311
vt 0.851990 0.531311
vt 0.777191 0.531311
vt 0.145508 0.598419
vt 0.153564 0.689819
vt 0.013458 0.671875
vt 0.486206 0.890930
vt 0.435150 0.824524
vt 0.495148 0.815399
vt 0.399200 0.910858
vt 0.441528 0.914948
vt 0.496429 0.989990
vt 0.625336 0.880280
vt 0.569000 0.941498
vt 0.653961 0.989990
vt 0.663239 0.207062
vt 0.796478 0.320374
vt 0.687317 0.287292
vt 0.907932 0.197977
vt 0.870854 0.207397
vt 0.860233 0.007307
vt 0.678314 0.989990
vt 0.636139 0.903748
vt 0.588898 0.989746
vt 0.845367 0.776154
vt 0.681061 0.900574
vt 0.693512 0.799988
vt 0.634430 0.802063
vt 0.834381 0.776154
vt 0.830658 0.882416
vt 0.763062 0.889435
vt 0.823883 0.989990
vt 0.715607 0.989990
vt 0.697021 0.897797
vt 0.769745 0.989990
vt 0.836090 0.009979
vt 0.836090 0.044037
vt 0.907932 0.007022
vt 0.708160 0.009979
vt 0.966522 0.537994
vt 0.920319 0.386200
vt 0.885681 0.330597
vt 0.546295 0.875214
vt 0.644165 0.989990
vt 0.630280 0.816589
vt 0.566254 0.873871
vt 0.703796 0.568665
vt 0.710541 0.351624
vt 0.728485 0.331909
vt 0.328827 0.941406
vt 0.235443 0.886719
vt 0.337494 0.886719
vt 0.015656 0.889740
vt 0.058350 0.886719
vt 0.058350 0.933594
vt 0.135437 0.938110
vt 0.750092 0.728088
vt 0.832855 0.769165
vt 0.812103 0.704285
vt 0.509216 0.813690
vt 0.475220 0.872375
vt 0.518341 0.884857
vt 0.835693 0.919098
vt 0.689728 0.989990
vt 0.688080 0.751892
vt 0.776764 0.369110
vt 0.660553 0.369110
vt 0.612274 0.331909
vt 0.769470 0.330597
vt 0.859863 0.671875
vt 1.000000 0.689819
vt 0.866608 0.781250
vt 0.141449 0.439056
vt 0.208801 0.257812
vt 0.107758 0.130188
vt 0.316589 0.156250
vt 0.455383 0.428101
vt 0.607056 0.313782
vt 0.589081 0.401367
vt 0.301788 0.589050
vt 0.300446 0.445312
vt 0.228699 0.933594
vt 0.132111 0.886719
vt 0.504028 0.658783
vt 0.445953 0.557800
vt 0.540253 0.565613
vt 0.549683 0.473419
vt 0.023560 0.863342
vt 0.020203 0.781250
vt 0.161652 0.781250
vt 0.296387 0.693726
vt 0.008606 0.562500
vt 0.008606 0.281250
vt 0.282928 0.009979
vt 0.464813 0.009979
vt 0.382233 0.839325
vt 0.399200 0.936920
vt 0.464417 0.927185
vt 0.620880 0.845032
vt 0.438354 0.867126
vt 0.682281 0.900574
vt 0.679535 0.989990
vt 0.588898 0.989990
vt 0.714996 0.700806
vt 0.823059 0.704102
vt 0.663239 0.661713
vt 0.823303 0.662598
vt 0.833801 0.882416
vt 0.618591 0.661560
vt 0.612244 0.700989
vt 0.575317 0.804169
vt 0.580872 0.901825
vt 0.390686 0.727173
vt 0.289642 0.797485
vt 0.171753 0.863342
vt 0.606323 0.017181
vt 0.464813 0.134369
vt 0.458069 0.250000
vt 0.316589 0.289062
vt 0.014160 0.982422
vt 0.051605 0.989990
vt 0.145569 0.989990
vt 0.303040 0.989990
vt 0.372162 0.941406
vt 0.607300 0.242188
vt 0.980259 0.286534
vt 0.987370 0.130935
vt 0.988163 0.007022
vt 0.811981 0.989990
vt 0.424469 0.728485
vt 0.492126 0.679077
vt 0.607635 0.139038
vt 0.708130 0.432526
vt 0.518036 0.875092
vt 0.513947 0.706635
vt 0.594940 0.726776
vt 0.592957 0.664795
vt 0.487732 0.667694
vt 0.603119 0.680908
vt 0.711456 0.791901
vt 0.595764 0.793396
vt 0.554993 0.901825
vt 0.853607 0.009979
vt 0.640289 0.009979
vt 0.853607 0.119293
vt 0.640289 0.120239
vt 0.844666 0.196564
vt 0.000000 1.000000
vt 0.662933 0.661713
vt 0.600220 0.711212
vt 0.731873 0.700806
s 1
usemtl f_hair0118
f 1/1/1 2/2/2 3/3/3
f 4/4/4 5/5/5 6/6/6
f 7/7/7 8/8/8 9/9/9
f 10/10/10 11/11/11 12/12/12
f 13/13/13 14/14/14 15/15/6
f 16/16/15 17/17/16 18/18/17
f 19/19/18 20/20/19 21/21/20
f 22/22/21 23/23/22 24/24/23
f 25/25/24 26/26/25 27/27/26
f 28/28/27 29/29/28 30/30/29
f 31/31/30 32/32/31 33/33/32
f 2/2/2 1/1/1 34/34/33
f 31/31/30 35/35/34 32/32/31
f 32/32/31 35/35/34 36/36/35
f 32/32/31 36/36/35 37/37/36
f 38/38/37 39/39/38 40/40/39
f 40/40/39 39/39/38 41/41/40
f 40/40/39 41/41/40 42/42/41
f 43/43/42 44/40/43 36/36/35
f 43/43/42 45/42/44 44/40/43
f 44/40/43 45/42/44 46/44/45
f 44/40/43 46/44/45 47/41/46
f 48/9/47 49/45/48 50/46/49
f 30/30/29 51/47/50 28/28/27
f 52/48/51 7/7/7 9/9/9
f 53/12/52 54/11/53 55/10/54
f 55/10/54 54/11/53 56/49/55
f 57/10/56 58/50/57 59/51/58
f 5/5/5 4/4/4 60/28/59
f 8/47/8 7/30/7 60/28/59
f 60/28/59 7/30/7 61/29/60
f 60/28/59 61/29/60 5/5/5
f 62/52/61 63/53/62 64/54/63
f 64/54/63 63/53/62 65/55/64
f 66/56/65 67/12/66 68/57/67
f 68/57/67 67/12/66 57/10/56
f 68/57/67 57/10/56 69/58/68
f 69/58/68 57/10/56 59/51/58
f 70/57/69 71/58/70 72/10/71
f 73/49/72 74/11/73 72/10/71
f 72/10/71 74/11/73 75/12/74
f 72/10/71 75/12/74 70/57/69
f 70/57/69 75/12/74 76/56/75
f 77/59/76 78/60/77 79/61/78
f 80/62/79 81/63/80 82/64/81
f 82/64/81 81/63/80 83/65/82
f 84/66/83 85/67/84 86/68/85
f 86/68/85 85/67/84 87/66/86
f 88/69/87 89/70/88 90/71/89
f 91/55/90 92/53/91 93/54/92
f 93/54/92 92/53/91 94/52/93
f 11/11/11 10/10/10 56/49/55
f 56/49/55 10/10/10 95/50/94
f 56/49/55 95/50/94 55/10/54
f 96/72/95 97/73/96 85/67/84
f 85/67/84 97/73/96 98/74/97
f 85/67/84 98/74/97 87/66/86
f 99/57/98 100/58/99 101/75/100
f 101/76/100 100/77/99 102/78/101
f 103/79/6 104/80/102 105/81/103
f 106/82/104 107/83/105 108/84/106
f 109/85/107 110/83/108 108/84/106
f 111/86/109 112/87/110 113/88/111
f 14/14/14 13/13/13 114/89/112
f 114/89/112 13/13/13 115/90/113
f 114/89/112 115/90/113 111/86/109
f 116/65/114 117/91/115 118/60/116
f 118/60/116 117/91/115 119/59/117
f 118/60/116 119/59/117 120/61/118
f 118/60/116 121/92/119 116/65/114
f 116/65/114 121/92/119 122/63/120
f 116/65/114 122/63/120 123/64/121
f 123/64/121 122/63/120 124/62/122
f 125/93/123 126/94/124 127/95/125
f 127/95/125 126/94/124 128/96/126
f 81/63/80 129/92/127 83/65/82
f 83/65/82 129/92/127 78/60/77
f 83/65/82 78/60/77 130/91/128
f 130/91/128 78/60/77 77/59/76
f 131/97/129 132/98/103 133/99/130
f 133/99/130 132/98/103 14/14/14
f 133/99/130 14/14/14 134/100/131
f 134/100/131 14/14/14 114/89/112
f 135/93/132 136/95/133 137/94/134
f 137/94/134 136/95/133 138/96/135
f 139/101/136 140/102/137 141/82/138
f 142/103/139 143/85/140 144/104/141
f 145/105/142 146/106/143 147/107/144
f 147/107/144 146/106/143 148/21/145
f 22/22/21 24/24/23 149/108/146
f 17/17/16 16/16/15 150/109/147
f 151/110/148 152/111/149 153/112/150
f 20/20/19 19/19/18 154/105/151
f 42/42/41 155/43/152 40/40/39
f 40/40/39 155/43/152 156/36/153
f 40/40/39 156/36/153 38/38/37
f 38/38/37 156/36/153 157/113/154
f 38/38/37 157/113/154 158/114/2
f 158/114/2 157/113/154 159/115/155
f 158/114/2 159/115/155 160/116/156
f 47/41/46 161/117/157 44/40/43
f 44/40/43 161/117/157 34/34/33
f 44/40/43 34/34/33 36/36/35
f 36/36/35 34/34/33 1/1/1
f 36/36/35 1/1/1 37/37/36
f 3/3/3 162/118/158 1/1/1
f 1/1/1 162/118/158 163/119/159
f 1/1/1 163/119/159 37/37/36
f 37/37/36 163/119/159 164/120/160
f 37/37/36 164/120/160 32/32/31
f 32/32/31 164/120/160 165/121/161
f 32/32/31 165/121/161 33/33/32
f 138/96/135 166/86/162 137/94/134
f 137/94/134 166/86/162 167/89/163
f 137/94/134 167/89/163 168/122/164
f 168/122/164 167/89/163 169/100/165
f 168/122/164 169/100/165 170/123/166
f 113/88/111 128/96/126 111/86/109
f 111/86/109 128/96/126 126/94/124
f 111/86/109 126/94/124 114/89/112
f 114/89/112 126/94/124 171/122/167
f 114/89/112 171/122/167 134/100/131
f 134/100/131 171/122/167 172/123/168
f 134/100/131 172/123/168 133/99/130
f 133/99/130 172/123/168 173/124/169
f 133/99/130 173/124/169 131/97/129
f 174/125/3 144/104/141 175/126/170
f 175/126/170 144/104/141 143/85/140
f 175/126/170 143/85/140 176/127/171
f 176/127/171 143/85/140 177/128/172
f 176/127/171 177/128/172 166/86/162
f 166/86/162 177/128/172 178/90/173
f 166/86/162 178/90/173 167/89/163
f 124/62/122 179/129/174 123/64/121
f 123/64/121 179/129/174 180/130/175
f 123/64/121 180/130/175 116/65/114
f 116/65/114 180/130/175 181/131/176
f 116/65/114 181/131/176 117/91/115
f 117/91/115 181/131/176 182/132/177
f 117/91/115 182/132/177 119/59/117
f 119/59/117 182/132/177 183/133/178
f 119/59/117 183/133/178 120/61/118
f 79/61/78 184/133/179 77/59/76
f 77/59/76 184/133/179 185/132/180
f 77/59/76 185/132/180 130/91/128
f 130/91/128 185/132/180 186/131/181
f 130/91/128 186/131/181 83/65/82
f 83/65/82 186/131/181 187/130/182
f 83/65/82 187/130/182 82/64/81
f 82/64/81 187/130/182 188/129/183
f 82/64/81 188/129/183 80/62/79
f 15/15/6 139/101/136 13/13/13
f 13/13/13 139/101/136 141/82/138
f 13/13/13 141/82/138 115/90/113
f 115/90/113 141/82/138 189/128/184
f 115/90/113 189/128/184 111/86/109
f 111/86/109 189/128/184 190/127/185
f 111/86/109 190/127/185 112/87/110
f 112/87/110 190/127/185 191/134/186
f 192/135/187 193/4/188 194/136/189
f 194/136/189 193/4/188 28/28/27
f 194/136/189 28/28/27 50/137/49
f 50/137/49 28/28/27 51/47/50
f 50/46/49 51/8/50 48/9/47
f 48/9/47 51/8/50 30/7/29
f 48/9/47 30/7/29 195/48/190
f 84/66/83 196/74/191 85/67/84
f 85/67/84 196/74/191 197/73/192
f 85/67/84 197/73/192 96/72/95
f 96/72/95 197/73/192 198/138/193
f 96/72/95 198/138/193 97/73/96
f 148/21/145 90/71/89 147/107/144
f 147/107/144 90/71/89 89/70/88
f 147/107/144 89/70/88 145/105/142
f 145/105/142 89/70/88 88/69/87
f 145/105/142 88/69/87 199/139/194
f 199/139/194 88/69/87 200/140/195
f 138/96/135 201/88/196 166/86/162
f 166/86/162 201/88/196 202/87/197
f 166/86/162 202/87/197 176/127/171
f 176/127/171 202/87/197 203/134/195
f 176/127/171 203/134/195 175/126/170
f 175/126/170 203/134/195 204/141/158
f 175/126/170 204/141/158 174/125/3
f 95/50/94 205/75/198 55/10/54
f 55/10/54 205/75/198 206/57/199
f 55/10/54 206/57/199 53/12/52
f 53/12/52 206/57/199 207/142/200
f 53/12/52 207/142/200 208/56/201
f 71/58/70 59/51/58 72/10/71
f 72/10/71 59/51/58 58/50/57
f 72/10/71 58/50/57 73/49/72
f 73/49/72 58/50/57 57/10/56
f 73/49/72 57/10/56 209/11/202
f 209/11/202 57/10/56 67/12/66
f 210/56/203 211/142/90 12/12/12
f 12/12/12 211/142/90 99/57/98
f 12/12/12 99/57/98 10/10/10
f 10/10/10 99/57/98 101/75/100
f 10/10/10 101/75/100 95/50/94
f 95/50/94 101/75/100 102/51/101
f 95/50/94 102/51/101 205/75/198
f 205/75/198 102/51/101 212/58/204
f 205/75/198 212/58/204 206/57/199
f 23/23/22 22/22/21 213/143/205
f 213/143/205 22/22/21 149/108/146
f 213/143/205 149/108/146 214/144/206
f 214/144/206 149/108/146 215/145/207
f 214/144/206 215/145/207 216/146/208
f 217/147/209 18/18/17 218/139/210
f 218/139/210 18/18/17 17/17/16
f 218/139/210 17/17/16 154/105/151
f 154/105/151 17/17/16 150/109/147
f 154/105/151 150/109/147 20/20/19
f 20/20/19 150/109/147 16/16/15
f 20/20/19 16/16/15 21/21/20
f 159/115/211 219/113/212 220/148/209
f 220/148/209 219/113/212 221/149/213
f 220/148/209 221/149/213 222/150/17
f 222/150/17 221/149/213 151/110/148
f 222/150/17 151/110/148 223/151/214
f 223/151/214 151/110/148 153/112/150
f 224/152/215 225/153/215 226/154/216
f 226/154/216 225/153/215 227/155/217
f 226/154/216 227/155/217 228/156/218
f 228/156/218 227/155/217 229/25/219
f 228/156/218 229/25/219 230/26/220
f 230/26/220 229/25/219 231/27/221
f 26/26/25 25/25/24 232/156/222
f 232/156/222 25/25/24 233/155/223
f 232/156/222 233/155/223 234/154/224
f 234/154/224 233/155/223 235/153/225
f 234/154/224 235/153/225 236/152/225
f 237/124/226 170/123/166 238/99/227
f 238/99/227 170/123/166 169/100/165
f 238/99/227 169/100/165 239/14/228
f 239/14/228 169/100/165 167/89/163
f 239/14/228 167/89/163 240/13/229
f 240/13/229 167/89/163 178/90/173
f 240/13/229 178/90/173 106/82/104
f 106/82/104 178/90/173 177/128/172
f 106/82/104 177/128/172 107/83/105
f 107/83/105 177/128/172 143/85/140
f 107/83/105 143/85/140 108/84/106
f 108/84/106 143/85/140 142/103/139
f 108/84/106 142/103/139 109/85/107
f 109/85/107 142/103/139 144/104/141
f 109/85/107 144/104/141 241/126/230
f 241/126/230 144/104/141 174/125/3
f 241/126/230 174/125/3 242/141/231
f 29/29/28 28/28/27 243/5/232
f 243/5/232 28/28/27 193/4/188
f 243/5/232 193/4/188 6/6/6
f 6/6/6 193/4/188 192/135/187
f 6/6/6 192/135/187 4/4/4
f 4/4/4 192/135/187 194/136/189
f 4/4/4 194/136/189 60/28/59
f 60/28/59 194/136/189 244/137/233
f 60/28/59 244/137/233 8/47/8
f 8/8/8 244/46/233 49/45/48
f 8/8/8 49/45/48 9/9/9
f 242/141/231 191/134/186 241/126/230
f 241/126/230 191/134/186 190/127/185
f 241/126/230 190/127/185 109/85/107
f 109/85/107 190/127/185 189/128/184
f 109/85/107 189/128/184 110/83/108
f 110/83/108 189/128/184 141/82/138
f 110/83/108 141/82/138 108/84/106
f 108/84/106 141/82/138 140/102/137
f 108/84/106 140/102/137 106/82/104
f 106/82/104 140/102/137 139/101/136
f 106/82/104 139/101/136 240/13/229
f 240/13/229 139/101/136 15/15/6
f 240/13/229 15/15/6 239/14/228
f 239/14/228 15/15/6 132/98/103
f 239/14/228 132/98/103 238/99/227
f 238/99/227 132/98/103 131/97/129
f 238/99/227 131/97/129 237/124/226
s 0
f 246/157/234 245/158/158 247/159/235
f 157/113/235 248/157/236 159/115/211
f 250/145/235 249/157/207 251/157/160
f 251/157/160 249/157/207 252/120/235
f 254/36/237 253/149/238 255/157/239
f 255/157/240 253/149/238 256/160/235
o editpl_f-0000-1919
v -0.005291 65.444275 -9.437611
v -2.269762 62.797375 -9.217564
v -0.005291 64.536308 -8.053977
v -1.994639 63.817635 -10.634538
v -0.005291 61.860531 -11.803680
v -0.005291 60.817810 -10.582305
v 1.978767 63.820843 -10.631204
v 2.253889 62.800583 -9.214230
v -1.880886 64.834686 -12.052624
v -0.005291 62.762081 -13.120634
v 1.865014 64.841103 -12.048179
v -0.005291 66.503036 -10.724558
vn -0.0000 0.8404 0.5419
vn -0.9938 0.0861 -0.0705
vn -0.0000 0.8345 0.5511
vn -0.9938 0.0861 -0.0704
vn -0.0000 -0.7637 -0.6456
vn -0.0000 -0.7598 -0.6502
vn 0.9938 0.0861 -0.0705
vn -0.9453 0.1970 -0.2600
vn -0.0000 -0.3068 -0.9518
vn 0.9453 0.1969 -0.2600
vn -0.0000 1.0000 -0.0000
vt 0.008606 0.120514
vt 0.059418 0.009979
vt 0.008606 0.009979
vt 0.059418 0.120514
vt 0.111084 0.120514
vt 0.111084 0.009979
s 1
usemtl f_hair0118
f 257/161/241 258/162/242 259/163/243
f 260/164/244 261/165/245 258/162/242
f 258/162/242 261/165/245 262/166/246
f 263/164/247 257/161/241 264/162/247
f 264/162/247 257/161/241 259/163/243
f 258/162/242 257/161/241 260/164/244
f 260/164/244 257/161/241 265/162/248
f 260/164/244 265/162/248 261/165/245
f 261/165/245 265/162/248 266/166/249
f 261/165/245 266/166/249 267/162/250
f 267/162/250 266/166/249 265/162/248
f 267/162/250 265/162/248 268/163/251
f 268/163/251 265/162/248 257/161/241
f 268/163/251 257/161/241 267/162/250
f 267/162/250 257/161/241 263/164/247
f 267/162/250 263/164/247 261/165/245
f 261/165/245 263/164/247 264/162/247
f 261/165/245 264/162/247 262/166/246
