mtllib f_hair004.mtl
o editpl_f-0000-1903
v 2.081938 62.457287 8.775235
v 4.597722 63.092541 6.812587
v 0.000000 65.283859 6.396941
v 7.594972 53.672775 -4.981086
v 6.378083 53.390442 -7.253803
v 6.669078 56.005260 -8.366267
v 8.385949 55.995632 -0.306737
v 8.158444 54.622452 2.915074
v 7.669043 53.467442 2.897292
v 0.000000 65.283859 6.396941
v 0.000000 62.636955 9.507617
v 2.081938 62.457287 8.775235
v -4.126839 65.136269 4.156454
v -4.597722 63.092541 6.812587
v -3.126874 62.813416 8.497397
v -1.629572 63.291462 8.890817
v -4.457516 64.725601 5.633441
v -9.285389 59.149460 -2.260495
v -8.973230 58.616871 -5.151124
v -8.999684 55.414921 0.346738
v 5.063314 63.188793 -8.039530
v 0.000000 61.023148 -11.131312
v 0.000000 63.329964 -9.203115
v -5.063314 63.188793 -8.039530
v -4.589786 66.352242 -3.368515
v 0.000000 65.505234 -7.020420
v 2.248598 59.133415 10.790118
v 6.661142 63.442253 1.814834
v 4.126839 65.136269 4.156454
v 4.597722 63.092541 6.812587
v 9.285389 59.149460 -2.260495
v 8.605518 61.199608 0.554560
v 9.015557 56.050175 3.499645
v 7.684916 57.134605 3.945298
v 6.666433 61.273399 4.580991
v 6.848966 56.178513 7.053751
v 7.462701 52.338097 5.484521
v 7.790732 55.633087 1.963756
v 9.285389 59.149460 -2.260495
v 7.637298 63.018749 -5.656790
v 8.605518 61.199608 0.554560
v 3.449614 58.809372 10.803454
v 6.179677 61.343983 7.576086
v 4.478679 62.823040 7.570529
v 4.589786 66.352242 -3.368515
v 4.928399 65.784363 2.394960
v 7.399211 64.077515 0.793501
v 4.457516 64.725601 5.633441
v 7.782796 60.756851 5.667893
v 6.018307 57.086479 8.226227
v 0.000000 65.630363 6.396941
v 4.928399 65.784363 2.394960
v 0.000000 66.939377 2.685023
v 4.589786 66.352242 -3.368515
v 0.000000 67.026001 -2.726153
v 1.629572 63.291462 8.890817
v 0.000000 62.072281 10.067739
v 0.497337 59.435005 11.723654
v 0.497337 59.435005 11.723654
v 3.126874 62.813416 8.497397
v 4.457516 64.725601 5.633441
v 5.616205 49.777817 -4.998868
v 6.759022 50.737122 -2.751713
v 5.655886 47.920174 -2.672807
v 8.475893 56.964561 2.891736
v 7.843640 53.977570 5.673451
v 7.158479 55.530422 6.030195
v 8.079082 59.467087 3.316272
v 8.727207 60.291637 -2.676142
v 8.973230 58.616871 -5.151124
v -2.248598 59.133415 10.790118
v -2.081938 62.457287 8.775235
v -4.597722 63.092541 6.812587
v -2.081938 62.457287 8.775235
v -6.661142 63.442253 1.814834
v -9.015557 56.050175 3.499645
v -8.605518 61.199608 0.554560
v -9.285389 59.149460 -2.260495
v -6.848966 56.178513 7.053751
v -6.666433 61.273399 4.580991
v -7.684916 57.134605 3.945298
v -7.790732 55.633087 1.963756
v -7.462701 52.338097 5.484521
v -1.629572 63.291462 8.890817
v 0.000000 63.750259 9.274233
v -7.158479 55.530422 6.030195
v -8.079082 59.467087 3.316272
v -8.475893 56.964561 2.891736
v -4.478679 62.823040 7.570529
v -6.179677 61.343983 7.576086
v -3.449614 58.809372 10.803454
v -4.457516 64.725601 5.633441
v -4.928399 65.784363 2.394960
v -7.399211 64.077515 0.793501
v -7.637298 63.018749 -5.656790
v -0.497337 59.435005 11.723654
v 0.000000 62.072281 10.067739
v -6.018307 57.086479 8.226227
v -7.782796 60.756851 5.667893
v -1.629572 63.291462 8.890817
v 0.000000 62.072281 10.067739
v 0.000000 61.347191 12.361570
v 1.629572 63.291462 8.890817
v -0.497337 59.435005 11.723654
v -8.605518 61.199608 0.554560
v -7.843640 53.977570 5.673451
v -8.158444 54.622452 2.915074
v -8.385949 55.995632 -0.306737
v -7.669043 53.467442 2.897292
v 7.594972 51.507130 1.737040
v 8.359495 55.822384 -0.087801
v 7.780150 60.423180 -1.254722
v 6.661142 63.442253 1.814834
v 5.237911 58.440411 9.437601
v 3.126874 62.813416 8.497397
v 0.000000 57.856487 -11.963716
v 4.338472 57.323898 -10.510067
v 0.000000 53.939072 -11.376921
v 4.200911 53.480274 -9.131988
v 0.000000 51.202332 -10.035518
v 4.047477 49.671944 -8.018413
v 0.000000 48.869850 -9.474285
v 4.306727 45.844360 -7.749465
v 0.000000 45.841152 -9.771016
v -5.237911 58.440411 9.437601
v -6.661142 63.442253 1.814834
v -7.780150 60.423180 -1.254722
v -8.359495 55.822384 -0.087801
v -7.594972 51.507130 1.737040
v 4.944271 60.484138 -9.499846
v 8.999684 55.414921 0.346738
v 0.000000 65.505234 -7.020420
v -4.589786 66.352242 -3.368515
v -4.928399 65.784363 2.394960
v -4.457516 64.725601 5.633441
v 0.000000 61.347191 12.361570
v 1.629572 63.291462 8.890817
v 4.457516 64.725601 5.633441
v -4.047477 49.671944 -8.018413
v -6.378083 53.390442 -7.253803
v -4.200911 53.480274 -9.131988
v -6.669078 56.005260 -8.366267
v -4.338472 57.323898 -10.510067
v -4.944271 60.484138 -9.499846
v -7.594972 53.672775 -4.981086
v -5.616205 49.777817 -4.998868
v -4.306727 45.844360 -7.749465
v -5.655886 47.920174 -2.672807
v -6.759022 50.737122 -2.751713
v -8.727207 60.291637 -2.676142
v -3.126874 62.813416 8.497397
vn 0.3473 0.6551 0.6709
vn 0.5975 0.5976 0.5347
vn -0.0000 0.7847 0.6199
vn 0.9083 -0.3289 -0.2584
vn 0.7622 -0.3536 -0.5422
vn 0.7538 -0.1649 -0.6361
vn 0.9677 -0.2517 -0.0157
vn 0.9754 -0.2203 -0.0000
vn 0.9183 -0.3846 -0.0942
vn -0.0000 0.7637 0.6456
vn 0.3473 0.6552 0.6709
vn -0.5350 0.7160 0.4485
vn -0.5975 0.5976 0.5346
vn -0.0001 0.7847 0.6199
vn -0.4159 0.5729 0.7063
vn -0.3140 0.6830 0.6595
vn -0.4720 0.7237 0.5035
vn -0.9859 0.1643 -0.0313
vn -0.9692 -0.0315 -0.2443
vn -0.9890 -0.1256 -0.0785
vn 0.3609 0.6355 -0.6826
vn -0.0000 0.4091 -0.9125
vn -0.0000 0.6750 -0.7378
vn -0.3609 0.6355 -0.6826
vn -0.3783 0.9062 -0.1891
vn -0.0000 0.8462 -0.5329
vn 0.4632 0.4789 0.7458
vn 0.8862 0.3843 0.2588
vn 0.5350 0.7160 0.4485
vn 0.0001 0.7847 0.6199
vn 0.9859 0.1643 -0.0312
vn 0.9805 0.1804 0.0784
vn 0.9808 0.1491 0.1256
vn 0.9829 0.1179 0.1415
vn 0.8957 0.3064 0.3221
vn 0.9346 0.1807 0.3063
vn 0.9972 -0.0235 0.0707
vn 0.9872 0.0313 0.1567
vn 0.9859 0.1643 -0.0313
vn 0.8307 0.4546 -0.3214
vn 0.4631 0.4789 0.7458
vn 0.6553 0.4974 0.5685
vn 0.4711 0.5577 0.6833
vn 0.3783 0.9062 -0.1891
vn 0.4072 0.8847 0.2271
vn 0.7706 0.6134 0.1730
vn 0.4720 0.7237 0.5034
vn 0.9254 0.1569 0.3451
vn 0.8801 -0.1021 0.4636
vn -0.0000 0.8896 0.4567
vn 0.4071 0.8847 0.2270
vn -0.0000 0.9899 0.1414
vn 0.3782 0.9062 -0.1891
vn -0.0000 0.9876 -0.1567
vn 0.3140 0.6830 0.6595
vn 0.1805 0.5492 0.8160
vn 0.2677 0.5198 0.8112
vn 0.2678 0.5198 0.8112
vn 0.4159 0.5729 0.7063
vn 0.4720 0.7237 0.5035
vn 0.8895 -0.3070 -0.3385
vn 0.9128 -0.3620 -0.1889
vn 0.9325 -0.2743 -0.2351
vn 0.9925 -0.0315 0.1182
vn 0.9880 -0.1333 0.0784
vn 0.9073 0.0704 0.4145
vn 0.9756 -0.0551 0.2124
vn 0.9963 -0.0000 0.0863
vn 0.9692 -0.0315 -0.2443
vn -0.4632 0.4789 0.7458
vn -0.3473 0.6551 0.6709
vn -0.5975 0.5976 0.5347
vn -0.3473 0.6552 0.6709
vn -0.8862 0.3843 0.2588
vn -0.9808 0.1491 0.1255
vn -0.9805 0.1804 0.0784
vn -0.9859 0.1643 -0.0312
vn -0.9346 0.1807 0.3063
vn -0.8957 0.3064 0.3221
vn -0.9829 0.1179 0.1415
vn -0.9872 0.0313 0.1567
vn -0.9972 -0.0235 0.0707
vn -0.3140 0.6830 0.6594
vn -0.0000 0.8148 0.5798
vn -0.9073 0.0704 0.4145
vn -0.9756 -0.0551 0.2124
vn -0.9925 -0.0315 0.1182
vn -0.4713 0.5577 0.6833
vn -0.6553 0.4974 0.5685
vn -0.4631 0.4789 0.7458
vn -0.4072 0.8847 0.2271
vn -0.7706 0.6134 0.1730
vn -0.8307 0.4546 -0.3214
vn -0.2677 0.5198 0.8112
vn -0.1805 0.5492 0.8160
vn -0.8801 -0.1021 0.4636
vn -0.9254 0.1569 0.3451
vn -0.4404 -0.8571 -0.2673
vn -0.0000 -0.9548 -0.2974
vn 0.4403 -0.8571 -0.2674
vn -0.2678 0.5198 0.8112
vn -0.9880 -0.1333 0.0784
vn -0.9754 -0.2203 -0.0000
vn -0.9677 -0.2517 -0.0157
vn -0.9183 -0.3846 -0.0942
vn 0.9644 -0.0549 0.2588
vn 0.9614 0.0630 0.2679
vn 0.9788 0.1409 0.1488
vn 0.5976 0.5975 0.5346
vn 0.8097 0.3695 0.4559
vn -0.0000 0.0472 -0.9989
vn 0.4564 -0.0315 -0.8892
vn -0.0000 -0.3139 -0.9495
vn 0.4941 -0.3216 -0.8078
vn -0.0000 -0.3209 -0.9471
vn 0.5998 -0.2052 -0.7734
vn -0.0000 -0.0550 -0.9985
vn 0.7262 -0.0316 -0.6868
vn -0.0000 0.0941 -0.9956
vn -0.8097 0.3695 0.4559
vn -0.5976 0.5975 0.5346
vn -0.9788 0.1409 0.1488
vn -0.9614 0.0630 0.2679
vn -0.9644 -0.0549 0.2587
vn 0.6043 0.2354 -0.7612
vn 0.9890 -0.1256 -0.0785
vn -0.0000 0.8463 -0.5328
vn -0.3782 0.9062 -0.1891
vn -0.4071 0.8847 0.2270
vn -0.4719 0.7238 0.5034
vn -0.0000 0.7914 0.6113
vn 0.3140 0.6830 0.6594
vn 0.4719 0.7237 0.5035
vn -0.5998 -0.2052 -0.7734
vn -0.7622 -0.3536 -0.5422
vn -0.4941 -0.3216 -0.8078
vn -0.7538 -0.1649 -0.6361
vn -0.4564 -0.0315 -0.8892
vn -0.6043 0.2354 -0.7612
vn -0.9083 -0.3289 -0.2584
vn -0.8895 -0.3070 -0.3385
vn -0.7262 -0.0316 -0.6868
vn -0.9325 -0.2743 -0.2351
vn -0.9128 -0.3620 -0.1889
vn -0.9963 -0.0000 0.0863
vt 0.750000 0.010895
vt 0.757812 0.125000
vt 0.570312 0.010895
vt 0.483063 0.656494
vt 0.357666 0.685730
vt 0.327087 0.534973
vt 0.644958 0.546875
vt 0.762695 0.583984
vt 0.762756 0.671875
vt 0.828125 0.010895
vt 0.976562 0.010895
vt 0.976562 0.046875
vt 0.679688 0.015625
vt 0.703125 0.109375
vt 0.816406 0.284576
vt 0.820312 0.195312
vt 0.679688 0.273438
vt 0.511719 0.366211
vt 0.454376 0.469330
vt 0.617188 0.490234
vt 0.312500 0.218750
vt 0.080750 0.218018
vt 0.142242 0.113831
vt 0.359375 0.101562
vt 0.246094 0.036438
vt 0.986542 0.057617
vt 0.625000 0.203125
vt 0.013519 0.012085
vt 0.132812 0.012085
vt 0.013519 0.359375
vt 0.773438 0.351562
vt 0.779510 0.223938
vt 0.973083 0.279510
vt 0.981506 0.470154
vt 0.767334 0.482635
vt 0.427246 0.277283
vt 0.602509 0.352020
vt 0.987213 0.109375
vt 0.851562 0.156250
vt 0.835938 0.054688
vt 0.523438 0.023438
vt 0.796875 0.257812
vt 0.981323 0.286438
vt 0.987274 0.664062
vt 0.782806 0.809357
vt 0.987274 0.750000
vt 0.782806 0.918732
vt 0.960938 0.914062
vt 0.989502 0.243835
vt 0.983917 0.273438
vt 0.395081 0.847443
vt 0.517578 0.748627
vt 0.512726 0.950623
vt 0.879883 0.572266
vt 0.982239 0.453827
vt 0.783844 0.396698
vt 0.539062 0.398438
vt 0.880188 0.605469
vt 0.987274 0.578125
vt 0.875000 0.609375
vt 0.987274 0.507812
vt 0.798279 0.623566
vt 0.578125 0.554688
vt 0.585938 0.406250
vt 0.609375 0.250000
vt 0.987854 0.180237
vt 0.906250 0.010895
vt 0.028870 0.361603
vt 0.233459 0.457550
vt 0.019989 0.589783
vt 0.249878 0.664978
vt 0.014191 0.773438
vt 0.250000 0.854675
vt 0.018646 0.915161
vt 0.252960 0.985199
vt 0.019562 0.987427
vt 0.296936 0.329163
vt 0.934357 0.985931
vt 0.776550 0.673431
vt 0.984680 0.513000
s 1
usemtl f_hair0108
f 1/1/1 2/2/2 3/3/3
f 4/4/4 5/5/5 6/6/6
f 7/7/7 8/8/8 9/9/9
f 10/10/3 11/11/10 12/12/11
f 13/13/12 14/14/13 10/10/14
f 15/15/15 16/16/16 17/17/17
f 18/18/18 19/19/19 20/20/20
f 21/21/21 22/22/22 23/23/23
f 24/21/24 25/24/25 26/25/26
f 2/2/2 1/1/1 27/26/27
f 28/27/28 29/13/29 30/14/2
f 30/14/2 29/13/29 10/10/30
f 31/28/31 32/29/32 33/30/33
f 34/31/34 35/32/35 36/33/36
f 34/31/34 37/34/37 38/35/38
f 39/18/39 40/36/40 41/37/32
f 42/38/41 43/39/42 44/40/43
f 45/24/44 46/41/45 47/27/46
f 47/27/46 46/41/45 48/13/47
f 49/42/48 43/39/42 50/43/49
f 51/44/50 52/45/51 53/46/52
f 53/46/52 52/45/51 54/47/53
f 53/46/52 54/47/53 55/48/54
f 56/16/55 57/15/56 58/49/57
f 59/50/58 60/15/59 56/16/55
f 56/16/55 60/15/59 61/17/60
f 5/5/5 4/4/4 62/51/61
f 62/51/61 4/4/4 63/52/62
f 62/51/61 63/52/62 64/53/63
f 65/35/64 66/54/65 8/8/8
f 67/55/66 65/35/64 68/56/67
f 68/56/67 65/35/64 69/57/68
f 68/56/67 69/57/68 41/37/32
f 8/8/8 7/7/7 65/35/64
f 65/35/64 7/7/7 70/19/69
f 65/35/64 70/19/69 69/57/68
f 71/26/70 72/1/71 73/2/72
f 73/2/72 72/1/71 3/3/3
f 11/11/10 10/10/3 74/12/73
f 14/14/13 13/13/12 75/27/74
f 76/30/75 77/29/76 78/28/77
f 79/33/78 80/32/79 81/31/80
f 82/35/81 83/34/82 81/31/80
f 84/58/83 85/59/84 51/44/50
f 86/55/85 87/56/86 88/35/87
f 89/40/88 90/39/89 91/38/90
f 92/13/17 93/41/91 94/27/92
f 94/27/92 93/41/91 25/24/25
f 94/27/92 25/24/25 95/36/93
f 96/49/94 97/15/95 16/16/16
f 87/56/86 98/43/96 99/42/97
f 99/42/97 98/43/96 90/39/89
f 100/60/98 101/59/99 102/61/99
f 102/61/99 101/59/99 103/60/100
f 16/16/16 15/15/15 104/50/101
f 19/19/19 18/18/18 95/36/93
f 95/36/93 18/18/18 105/37/76
f 95/36/93 105/37/76 94/27/92
f 106/54/102 88/35/87 107/8/103
f 107/8/103 88/35/87 108/7/104
f 107/8/103 108/7/104 109/9/105
f 110/62/106 111/63/107 38/35/38
f 38/35/38 111/63/107 112/64/108
f 38/35/38 112/64/108 34/31/34
f 34/31/34 112/64/108 113/65/28
f 34/31/34 113/65/28 35/32/35
f 35/32/35 113/65/28 2/2/109
f 35/32/35 2/2/109 114/66/110
f 49/42/48 47/27/46 43/39/42
f 43/39/42 47/27/46 48/13/47
f 43/39/42 48/13/47 44/40/43
f 44/40/43 48/13/47 115/67/59
f 44/40/43 115/67/59 42/38/41
f 116/68/111 117/69/112 118/70/113
f 118/70/113 117/69/112 119/71/114
f 118/70/113 119/71/114 120/72/115
f 120/72/115 119/71/114 121/73/116
f 120/72/115 121/73/116 122/74/117
f 122/74/117 121/73/116 123/75/118
f 122/74/117 123/75/118 124/76/119
f 125/66/120 73/2/121 80/32/79
f 80/32/79 73/2/121 126/65/74
f 80/32/79 126/65/74 81/31/80
f 81/31/80 126/65/74 127/64/122
f 81/31/80 127/64/122 82/35/81
f 82/35/81 127/64/122 128/63/123
f 82/35/81 128/63/123 129/62/124
f 22/22/22 21/21/21 130/77/125
f 130/77/125 21/21/21 40/36/40
f 130/77/125 40/36/40 70/19/69
f 70/19/69 40/36/40 39/18/39
f 70/19/69 39/18/39 131/20/126
f 54/47/53 132/78/127 55/48/54
f 55/48/54 132/78/127 133/47/128
f 55/48/54 133/47/128 53/46/52
f 53/46/52 133/47/128 134/45/129
f 53/46/52 134/45/129 51/44/50
f 51/44/50 134/45/129 135/79/130
f 51/44/50 135/79/130 84/58/83
f 84/58/83 136/80/131 85/59/84
f 85/59/84 136/80/131 137/58/132
f 85/59/84 137/58/132 51/44/50
f 51/44/50 137/58/132 138/79/133
f 51/44/50 138/79/133 52/45/51
f 64/53/63 123/75/118 62/51/61
f 62/51/61 123/75/118 121/73/116
f 62/51/61 121/73/116 5/5/5
f 5/5/5 121/73/116 119/71/114
f 5/5/5 119/71/114 6/6/6
f 6/6/6 119/71/114 117/69/112
f 139/73/134 140/5/135 141/71/136
f 141/71/136 140/5/135 142/6/137
f 141/71/136 142/6/137 143/69/138
f 143/69/138 142/6/137 144/77/139
f 143/69/138 144/77/139 22/22/22
f 22/22/22 144/77/139 24/21/24
f 22/22/22 24/21/24 23/23/23
f 23/23/23 24/21/24 26/25/26
f 23/23/23 26/25/26 21/21/21
f 21/21/21 26/25/26 45/24/44
f 21/21/21 45/24/44 40/36/40
f 40/36/40 45/24/44 47/27/46
f 40/36/40 47/27/46 41/37/32
f 41/37/32 47/27/46 49/42/48
f 41/37/32 49/42/48 68/56/67
f 68/56/67 49/42/48 50/43/49
f 25/24/25 24/21/24 95/36/93
f 95/36/93 24/21/24 144/77/139
f 95/36/93 144/77/139 19/19/19
f 19/19/19 144/77/139 142/6/137
f 19/19/19 142/6/137 145/4/140
f 145/4/140 142/6/137 140/5/135
f 145/4/140 140/5/135 146/51/141
f 146/51/141 140/5/135 139/73/134
f 146/51/141 139/73/134 147/75/142
f 147/75/142 148/53/143 146/51/141
f 146/51/141 148/53/143 149/52/144
f 146/51/141 149/52/144 145/4/140
f 145/4/140 149/52/144 108/7/104
f 145/4/140 108/7/104 19/19/19
f 19/19/19 108/7/104 88/35/87
f 19/19/19 88/35/87 150/57/145
f 150/57/145 88/35/87 87/56/86
f 150/57/145 87/56/86 105/37/76
f 105/37/76 87/56/86 99/42/97
f 105/37/76 99/42/97 94/27/92
f 94/27/92 99/42/97 90/39/89
f 94/27/92 90/39/89 92/13/17
f 92/13/17 90/39/89 89/40/88
f 92/13/17 89/40/88 151/67/15
f 151/67/15 89/40/88 91/38/90
f 124/76/119 147/75/142 122/74/117
f 122/74/117 147/75/142 139/73/134
f 122/74/117 139/73/134 120/72/115
f 120/72/115 139/73/134 141/71/136
f 120/72/115 141/71/136 118/70/113
f 118/70/113 141/71/136 143/69/138
f 118/70/113 143/69/138 116/68/111
f 116/68/111 143/69/138 22/22/22
f 116/68/111 22/22/22 117/69/112
f 117/69/112 22/22/22 130/77/125
f 117/69/112 130/77/125 6/6/6
f 6/6/6 130/77/125 70/19/69
f 6/6/6 70/19/69 4/4/4
f 4/4/4 70/19/69 7/7/7
f 4/4/4 7/7/7 63/52/62
