mtllib f_hair024.mtl
o editpl_f-0000-1893
v 12.417554 64.279640 -6.135783
v 14.994183 64.048637 -7.527196
v 13.197950 65.887032 -8.910830
v -11.914926 62.235909 -7.432731
v -13.711159 61.481941 -8.757463
v -10.753591 63.788757 -9.075311
v 14.975665 60.750435 -16.619171
v 12.052487 63.528881 -10.618979
v -3.960179 65.742653 -4.075335
v -3.849071 65.572609 0.795723
v 0.000000 66.547951 0.702370
v 9.504958 58.745205 -2.062675
v 7.602908 53.018269 1.647021
v 8.367431 55.568920 -0.448990
v -6.997109 56.682224 5.990187
v -7.719306 59.075668 3.873060
v -7.790732 55.305836 3.205137
v 0.000000 65.206856 7.442724
v 0.000000 66.547951 0.702370
v -3.849071 65.874199 0.795723
v 11.139821 65.518066 -7.658336
v -4.745865 47.743713 -5.598999
v -4.756447 46.181240 -5.860165
v -5.846356 47.936214 -1.402531
v 13.711159 61.481941 -8.757463
v 11.914926 62.235909 -7.432731
v 10.753591 63.788757 -9.075311
v -13.197950 65.887032 -8.910830
v -11.139821 65.518066 -7.658336
v -10.753591 63.788757 -9.075311
v -12.417554 64.279640 -6.135783
v -11.139821 65.518066 -7.658336
v -14.994183 64.048637 -7.527196
v 16.565556 55.382835 -12.938371
v -6.539453 60.827435 6.110212
v -6.796058 61.943947 3.736363
v -11.409653 60.821018 -7.777251
v -11.634512 62.152493 -4.488758
v -9.594901 64.350220 -6.951516
v -10.086948 65.194023 -3.359624
v -7.743115 67.035629 -5.528984
v -9.504958 58.745205 -2.062675
v -9.004975 56.987019 -7.440510
v -8.203416 54.522995 -7.356047
v -7.198160 63.371670 -1.016893
v -7.216678 65.935158 -8.528524
v -8.936194 62.669037 -10.047744
v -12.052487 63.528881 -10.618979
v -14.975665 60.750435 -16.619171
v -16.565556 55.382835 -12.938371
v -7.274877 52.389427 -3.186252
v -8.367431 55.568920 -0.448990
v -7.602908 53.018269 1.647021
v -6.658497 51.978760 -6.992635
v -4.774965 51.869675 -10.593417
v -3.407288 63.958801 7.421608
v -3.282954 61.453068 8.699663
v 0.000000 63.978050 8.387373
v 0.097880 59.864925 10.661201
v 4.026314 63.086124 8.061748
v 6.314593 61.841278 5.048870
v 6.999754 63.262585 1.076896
v 3.153329 64.889229 3.923070
v 3.849071 65.572609 0.795723
v 0.000000 65.498817 3.452968
v 7.274877 52.389427 -3.186252
v 8.203416 54.522995 -7.356047
v 9.004975 56.987019 -7.440510
v 7.743115 67.035629 -5.528984
v 10.086948 65.194023 -3.359624
v 9.594901 64.350220 -6.951516
v 11.634512 62.152493 -4.488758
v 11.409653 60.821018 -7.777251
v 8.936194 62.669037 -10.047744
v 7.216678 65.935158 -8.528524
v 7.198160 63.371670 -1.016893
v 8.610809 59.932301 1.555889
v 4.774965 51.869675 -10.593417
v 6.658497 51.978760 -6.992635
v 4.745865 47.743713 -5.598999
v 4.756447 46.181240 -5.860165
v 0.000000 45.539566 -8.714120
v 0.000000 47.714836 -8.441839
v 7.748405 59.075668 3.873060
v 7.132025 56.300430 6.170226
v 7.872740 55.305836 3.205137
v -3.282954 61.453068 8.699663
v -3.407288 63.958801 7.421608
v -3.412579 64.520264 5.542311
v -5.695567 58.825413 8.125094
v 15.457130 61.623112 -15.553385
v 17.827417 54.673786 -14.244211
v 12.682095 64.732018 -7.956178
v 17.827417 54.673786 -14.244211
v 19.393499 61.064854 -13.187315
v 16.507357 64.010139 -13.766330
v -12.682095 64.732018 -7.956178
v -17.827417 54.673786 -14.244211
v -15.457130 61.623112 -15.553385
v -16.507357 64.010139 -13.766330
v -19.393499 61.064854 -13.187315
v -17.827417 54.673786 -14.244211
v -7.452120 48.045300 3.166240
v -6.036825 43.389957 6.581427
v -8.991748 55.042747 1.348067
v -7.050017 54.644913 7.870595
v -8.907095 60.153679 1.076896
v -6.195550 60.522640 8.053967
v -7.139961 63.564171 0.856848
v -3.454905 63.987679 7.839476
v -4.944271 60.577183 -10.284462
v -4.576559 56.175304 -11.719216
v -7.790732 55.305836 3.205137
v -8.610809 59.932301 1.555889
v -6.999754 63.262585 1.076896
v -19.523125 61.257355 -12.118194
v -16.970304 64.507431 -14.210871
v 5.846356 47.936214 -1.402531
v 4.576559 56.175304 -11.719216
v 4.944271 60.577183 -10.284462
v -3.153329 65.030396 3.923070
v -6.314593 61.799568 5.048870
v -7.719306 59.075668 3.873060
v 7.748405 59.075668 3.873060
v 6.595007 61.465900 3.716358
v 6.618815 60.606056 6.110212
v 4.171811 64.061470 5.242245
v 0.000000 65.389732 6.093541
v -3.412579 64.520264 5.542311
v 3.722092 58.491745 10.600077
v 6.393956 57.346355 8.544074
v 7.132025 56.300430 6.170226
v 3.849071 65.874199 0.795723
v 3.454905 63.987679 7.839476
v 7.139961 63.564171 0.856848
v 6.195550 60.522640 8.053967
v 8.907095 60.153679 1.076896
v 7.050017 54.644913 7.870595
v 8.991748 55.042747 1.348067
v 6.036825 43.389957 6.581427
v 7.452120 48.045300 3.166240
v -8.814506 64.513847 -1.024672
v -10.785336 60.237095 -2.911749
v -10.909670 58.158073 -7.976182
v -6.899229 61.530067 -11.306907
v -5.020988 65.004730 -9.252016
v -5.420445 67.009956 -4.400961
v -9.504958 58.745205 -2.062675
v -7.198160 63.371670 -1.016893
v -3.960179 65.742653 -4.075335
v -3.851717 64.151306 -7.719460
v -4.944271 60.577183 -10.284462
v -9.004975 56.987019 -7.440510
v 10.753591 63.788757 -9.075311
v 19.523125 61.257355 -12.118194
v 16.970304 64.507431 -14.210871
v 0.000000 51.613003 -12.287119
v 0.000000 55.745380 -13.096183
v 0.000000 61.180355 -11.466941
v 3.851717 64.151306 -7.719460
v 0.000000 64.574806 -8.462955
v 3.960179 65.742653 -4.075335
v 0.000000 66.320160 -4.139794
v 10.785336 60.237095 -2.911749
v 8.814506 64.513847 -1.024672
v 5.420445 67.009956 -4.400961
v 5.020988 65.004730 -9.252016
v 6.899229 61.530067 -11.306907
v 10.909670 58.158073 -7.976182
v 9.504958 58.745205 -2.062675
v 9.004975 56.987019 -7.440510
v 4.944271 60.577183 -10.284462
v 3.851717 64.151306 -7.719460
v 3.960179 65.742653 -4.075335
v 7.198160 63.371670 -1.016893
v -3.851717 64.151306 -7.719460
vn 0.3682 0.1567 0.9165
vn 0.5563 0.0235 0.8306
vn -0.0393 0.9913 -0.1258
vn 0.0709 -0.9691 0.2364
vn 0.2527 -0.8606 0.4422
vn 0.6935 -0.1261 -0.7093
vn -0.7708 0.3460 -0.5348
vn -0.9064 -0.1024 -0.4099
vn 0.0078 0.9969 0.0785
vn -0.3933 0.9045 0.1651
vn -0.0000 0.9931 0.1173
vn 0.9407 -0.2822 0.1881
vn 0.9495 -0.3138 0.0001
vn 0.9261 -0.3689 -0.0785
vn -0.9217 0.0394 0.3860
vn -0.9314 0.1174 0.3444
vn -0.9597 -0.0865 0.2674
vn -0.0000 0.9720 0.2352
vn -0.0000 0.9821 0.1885
vn -0.3378 0.9112 0.2357
vn -0.2902 0.9569 -0.0078
vn -0.8269 -0.3386 -0.4489
vn -0.7073 0.1022 -0.6995
vn -0.9560 -0.1646 -0.2429
vn -0.2527 -0.8606 0.4422
vn -0.0709 -0.9691 0.2364
vn -0.6935 -0.1261 -0.7093
vn 0.0393 0.9913 -0.1259
vn 0.2902 0.9569 -0.0078
vn -0.3682 0.1567 0.9165
vn 0.2902 0.9569 -0.0079
vn 0.0393 0.9913 -0.1258
vn -0.5564 0.0235 0.8306
vn -0.3862 -0.7015 0.5990
vn -0.8073 0.3762 0.4546
vn -0.8187 0.4802 0.3149
vn -0.8522 0.1251 -0.5081
vn -0.9869 0.1488 0.0627
vn -0.7584 0.5609 -0.3318
vn -0.8060 0.5400 0.2426
vn -0.3995 0.9166 -0.0157
vn -0.9407 -0.2822 0.1881
vn -0.6608 -0.4641 -0.5899
vn -0.8892 -0.4092 -0.2046
vn -0.6359 0.5338 0.5574
vn -0.2352 0.8075 -0.5410
vn -0.5112 0.4247 -0.7472
vn 0.9064 -0.1024 -0.4099
vn 0.7708 0.3460 -0.5349
vn 0.3862 -0.7015 0.5990
vn -0.9131 -0.4015 -0.0708
vn -0.9261 -0.3689 -0.0785
vn -0.9518 -0.3068 0.0079
vn -0.8337 -0.4955 -0.2438
vn -0.6062 -0.4645 -0.6456
vn -0.4745 0.6644 0.5774
vn -0.4470 0.4157 0.7921
vn -0.0861 0.7123 0.6966
vn 0.0313 0.4781 0.8778
vn 0.4792 0.6127 0.6284
vn 0.7862 0.4953 0.3695
vn 0.7103 0.6629 0.2368
vn 0.4320 0.8483 0.3063
vn 0.3922 0.9020 0.1804
vn 0.0079 0.9591 0.2830
vn 0.9131 -0.4015 -0.0708
vn 0.8892 -0.4092 -0.2046
vn 0.6608 -0.4641 -0.5899
vn 0.3990 0.9168 -0.0149
vn 0.8060 0.5400 0.2426
vn 0.7584 0.5609 -0.3318
vn 0.9869 0.1488 0.0627
vn 0.8522 0.1251 -0.5081
vn 0.5112 0.4247 -0.7472
vn 0.2352 0.8075 -0.5410
vn 0.6359 0.5338 0.5574
vn 0.9310 0.2581 0.2582
vn 0.6062 -0.4645 -0.6456
vn 0.8337 -0.4955 -0.2438
vn 0.8269 -0.3386 -0.4489
vn 0.7073 0.1022 -0.6995
vn -0.0000 0.1173 -0.9931
vn -0.0000 -0.3537 -0.9354
vn 0.9361 0.1573 0.3147
vn 0.9546 0.0704 0.2895
vn 0.9648 -0.0784 0.2510
vn -0.4470 0.4156 0.7921
vn -0.4746 0.6644 0.5774
vn -0.4710 0.8084 0.3532
vn -0.7707 0.2595 0.5819
vn -0.9045 0.1651 -0.3932
vn -0.9192 -0.3457 -0.1885
vn -0.4093 0.7555 0.5116
vn 0.5028 -0.2592 0.8247
vn 0.6764 0.2516 0.6922
vn 0.0157 0.9939 -0.1096
vn 0.4093 0.7555 0.5116
vn 0.9192 -0.3457 -0.1885
vn 0.9045 0.1651 -0.3932
vn -0.0157 0.9939 -0.1096
vn -0.6764 0.2516 0.6922
vn -0.5026 -0.2592 0.8247
vn -0.9725 -0.1647 0.1647
vn -0.9653 -0.1413 0.2197
vn -0.9667 -0.0786 0.2437
vn -0.9518 0.0079 0.3068
vn -0.9271 0.2043 0.3143
vn -0.8508 0.4018 0.3387
vn -0.7166 0.6300 0.2992
vn -0.5344 0.7937 0.2908
vn -0.0000 0.1810 -0.9835
vn -0.4722 -0.0157 -0.8814
vn -0.9328 0.2508 0.2587
vn -0.7142 0.6592 0.2354
vn -0.7480 0.4409 0.4961
vn -0.0783 0.9790 -0.1880
vn 0.9560 -0.1646 -0.2429
vn 0.4722 -0.0157 -0.8814
vn -0.4384 0.8534 0.2819
vn -0.7869 0.4879 0.3777
vn 0.9361 0.1573 0.3146
vn 0.8360 0.5206 0.1735
vn 0.8709 0.3845 0.3060
vn 0.6450 0.7158 0.2675
vn 0.0943 0.8808 0.4640
vn -0.4709 0.8084 0.3532
vn 0.4394 0.4080 0.8003
vn 0.8187 0.2755 0.5038
vn 0.3378 0.9112 0.2357
vn 0.5344 0.7937 0.2908
vn 0.7166 0.6300 0.2992
vn 0.8508 0.4018 0.3387
vn 0.9271 0.2043 0.3143
vn 0.9518 0.0079 0.3068
vn 0.9667 -0.0786 0.2437
vn 0.9653 -0.1413 0.2197
vn 0.9725 -0.1647 0.1647
vn -0.1812 0.5671 0.8035
vn -0.7707 -0.1416 0.6213
vn -0.8357 -0.5125 -0.1972
vn -0.1879 -0.1488 -0.9709
vn 0.4094 0.5747 -0.7086
vn 0.3891 0.9212 0.0086
vn 0.0078 0.9969 0.0784
vn 0.3227 0.7398 -0.5903
vn -0.6607 -0.4641 -0.5899
vn 0.7480 0.4409 0.4961
vn 0.0783 0.9790 -0.1880
vn -0.0000 -0.3930 -0.9195
vn -0.0000 0.1337 -0.9910
vn -0.0000 0.5363 -0.8440
vn -0.3227 0.7398 -0.5903
vn -0.0000 0.8554 -0.5180
vn -0.0078 0.9969 0.0785
vn -0.0000 0.9774 -0.2112
vn 0.7707 -0.1416 0.6213
vn 0.1812 0.5671 0.8035
vn -0.3863 0.9223 0.0079
vn -0.4094 0.5747 -0.7086
vn 0.1879 -0.1488 -0.9709
vn 0.8357 -0.5125 -0.1972
vn 0.9407 -0.2822 0.1882
vn -0.0000 0.1809 -0.9835
vn -0.3227 0.7399 -0.5903
vn 0.3227 0.7399 -0.5903
vt 0.354156 0.112823
vt 0.297729 0.115448
vt 0.228516 0.035156
vt 0.359528 0.212158
vt 0.255035 0.216309
vt 0.016937 0.140625
vt 0.250000 0.117188
vt 0.296875 0.429688
vt 0.445312 0.390625
vt 0.414062 0.304688
vt 0.328125 0.625000
vt 0.468750 0.710938
vt 0.421875 0.781250
vt 0.891388 0.099182
vt 0.899261 0.014618
vt 0.938599 0.033478
vt 0.484375 0.242188
vt 0.458008 0.030273
vt 0.613068 0.038239
vt 0.351562 0.045990
vt 0.289062 0.953125
vt 0.265625 0.987000
vt 0.367188 0.945312
vt 0.349609 0.122467
vt 0.351562 0.046875
vt 0.026184 0.285095
vt 0.646393 0.033356
vt 0.648438 0.014618
vt 0.734375 0.867188
vt 0.625000 0.867188
vt 0.687500 0.781250
vt 0.578125 0.781250
vt 0.640625 0.679688
vt 0.250000 0.656250
vt 0.269531 0.733063
vt 0.382812 0.484375
vt 0.734375 0.695312
vt 0.781250 0.781250
vt 0.375000 0.812500
vt 0.257812 0.820312
vt 0.187500 0.817688
vt 0.476562 0.242188
vt 0.476562 0.312500
vt 0.617188 0.195312
vt 0.617188 0.328125
vt 0.765625 0.164062
vt 0.617188 0.546875
vt 0.492188 0.492188
vt 0.648438 0.437500
vt 0.492188 0.328125
vt 0.468750 0.578125
vt 0.093750 0.976562
vt 0.079407 0.928375
vt 0.554688 0.593750
vt 0.500000 0.609375
vt 0.492188 0.671875
vt 0.484375 0.101562
vt 0.484375 0.039062
vt 0.489258 0.030273
vt 0.648438 0.099182
vt 0.018677 0.046875
vt 0.018677 0.281250
vt 0.357422 0.078125
vt 0.980469 0.051758
vt 0.987152 0.237427
vt 0.905273 0.051758
vt 0.875000 0.242188
vt 0.837891 0.044922
vt 0.703125 0.242188
vt 0.687500 0.039062
vt 0.625000 0.242188
vt 0.171875 0.570312
vt 0.121094 0.707031
vt 0.013458 0.144958
vt 0.016724 0.021484
vt 0.976562 0.203125
vt 0.898438 0.156250
vt 0.898438 0.171875
vt 0.765625 0.148438
vt 0.546875 0.078125
vt 0.476562 0.148438
vt 0.768219 0.324982
vt 0.904663 0.295288
vt 0.976562 0.282288
vt 0.523438 0.781250
vt 0.593750 0.929688
vt 0.773438 0.929688
vt 0.820312 0.781250
vt 0.757812 0.648438
vt 0.617188 0.632812
vt 0.562500 0.986267
vt 0.460938 0.781250
vt 0.593750 0.585938
vt 0.796875 0.585938
vt 0.906250 0.781250
vt 0.820312 0.986267
vt 0.031250 0.859375
vt 0.012817 0.703125
vt 0.012817 0.539062
vt 0.203125 0.484375
vt 0.062500 0.398438
vt 0.234375 0.312500
s 1
usemtl f_hair0102
f 1/1/1 2/2/2 3/3/3
f 4/4/4 5/5/5 6/1/6
f 7/6/7 8/7/8 3/3/3
f 9/8/9 10/9/10 11/10/11
f 12/11/12 13/12/13 14/13/14
f 15/14/15 16/15/16 17/16/17
f 18/17/18 19/18/19 20/19/20
f 3/3/3 21/20/21 1/1/1
f 22/21/22 23/22/23 24/23/24
f 2/2/2 1/1/1 25/5/25
f 25/5/25 1/1/1 26/4/26
f 25/5/25 26/4/26 27/24/27
f 28/3/28 29/25/29 30/24/6
f 5/5/5 4/4/4 31/1/30
f 32/20/31 28/3/32 31/1/30
f 31/1/30 28/3/32 33/2/33
f 31/1/30 33/2/33 5/5/5
f 8/7/8 7/6/7 34/26/34
f 35/27/35 36/28/36 16/15/16
f 37/29/37 38/30/38 39/31/39
f 39/31/39 38/30/38 40/32/40
f 39/31/39 40/32/40 41/33/41
f 42/11/42 43/34/43 44/35/44
f 10/9/10 9/8/9 45/36/45
f 41/33/41 46/37/46 39/31/39
f 39/31/39 46/37/46 47/38/47
f 39/31/39 47/38/47 37/29/37
f 28/3/32 48/7/48 49/6/49
f 49/6/49 48/7/48 50/26/50
f 44/35/44 51/39/51 42/11/42
f 42/11/42 51/39/51 52/13/52
f 42/11/42 52/13/52 53/12/53
f 22/21/22 54/40/54 55/41/55
f 56/42/56 57/43/57 58/44/58
f 58/44/58 57/43/57 59/45/59
f 58/44/58 59/45/59 60/46/60
f 61/47/61 62/48/62 63/49/63
f 63/49/63 62/48/62 64/9/64
f 63/49/63 64/9/64 65/50/65
f 14/13/14 66/39/66 12/11/12
f 12/11/12 66/39/66 67/35/67
f 12/11/12 67/35/67 68/34/68
f 69/33/69 70/32/70 71/31/71
f 71/31/71 70/32/70 72/30/72
f 71/31/71 72/30/72 73/29/73
f 73/29/73 74/38/74 71/31/71
f 71/31/71 74/38/74 75/37/75
f 71/31/71 75/37/75 69/33/69
f 12/11/12 76/36/76 77/51/77
f 78/41/78 79/40/79 80/21/80
f 81/22/81 82/52/82 83/53/83
f 83/53/83 82/52/82 23/22/23
f 84/54/84 85/55/85 86/56/86
f 13/12/13 12/11/12 86/56/86
f 86/56/86 12/11/12 77/51/77
f 86/56/86 77/51/77 84/54/84
f 87/57/87 88/58/88 35/27/35
f 35/27/35 88/58/88 89/59/89
f 35/27/35 89/59/89 36/28/36
f 16/15/16 15/14/15 35/27/35
f 35/27/35 15/14/15 90/60/90
f 35/27/35 90/60/90 87/57/87
f 91/61/91 92/62/92 93/63/93
f 94/62/94 95/61/95 93/63/93
f 93/63/93 95/61/95 96/62/96
f 93/63/93 96/62/96 91/61/91
f 97/63/97 98/62/98 99/61/99
f 99/61/99 100/62/100 97/63/97
f 97/63/97 100/62/100 101/61/101
f 97/63/97 101/61/101 102/62/102
f 103/64/103 104/65/104 105/66/105
f 105/66/105 104/65/104 106/67/106
f 105/66/105 106/67/106 107/68/107
f 107/68/107 106/67/106 108/69/108
f 107/68/107 108/69/108 109/70/109
f 109/70/109 108/69/108 110/71/110
f 109/70/109 110/71/110 20/19/20
f 20/19/20 110/71/110 18/17/18
f 111/72/111 112/73/112 43/34/43
f 43/34/43 112/73/112 55/41/55
f 43/34/43 55/41/55 44/35/44
f 44/35/44 55/41/55 54/40/54
f 44/35/44 54/40/54 51/39/51
f 51/39/51 54/40/54 22/21/22
f 51/39/51 22/21/22 24/23/24
f 53/12/53 113/56/17 42/11/42
f 42/11/42 113/56/17 114/51/113
f 42/11/42 114/51/113 45/36/45
f 45/36/45 114/51/113 115/48/114
f 45/36/45 115/48/114 10/9/10
f 28/3/32 6/1/6 48/7/48
f 48/7/48 6/1/6 5/5/5
f 48/7/48 5/5/5 50/26/50
f 50/26/50 5/5/5 33/2/33
f 50/26/50 33/2/33 116/74/115
f 116/74/115 33/2/33 28/3/32
f 116/74/115 28/3/32 117/75/116
f 117/75/116 28/3/32 49/6/49
f 118/23/117 80/21/80 66/39/66
f 66/39/66 80/21/80 79/40/79
f 66/39/66 79/40/79 67/35/67
f 67/35/67 79/40/79 78/41/78
f 67/35/67 78/41/78 68/34/68
f 68/34/68 78/41/78 119/73/118
f 68/34/68 119/73/118 120/72/111
f 64/9/64 11/10/11 65/50/65
f 65/50/65 11/10/11 10/9/10
f 65/50/65 10/9/10 121/49/119
f 121/49/119 10/9/10 115/48/114
f 121/49/119 115/48/114 122/47/120
f 122/47/120 115/48/114 114/51/113
f 122/47/120 114/51/113 123/54/16
f 123/54/16 114/51/113 113/56/17
f 124/76/121 125/77/122 126/78/123
f 126/78/123 125/77/122 127/79/124
f 126/78/123 127/79/124 60/46/60
f 60/46/60 127/79/124 128/80/125
f 60/46/60 128/80/125 58/44/58
f 58/44/58 128/80/125 129/81/126
f 58/44/58 129/81/126 56/42/56
f 59/45/59 130/82/127 60/46/60
f 60/46/60 130/82/127 131/83/128
f 60/46/60 131/83/128 126/78/123
f 126/78/123 131/83/128 132/84/85
f 126/78/123 132/84/85 124/76/121
f 19/18/19 18/17/18 133/19/129
f 133/19/129 18/17/18 134/71/130
f 133/19/129 134/71/130 135/70/131
f 135/70/131 134/71/130 136/69/132
f 135/70/131 136/69/132 137/68/133
f 137/68/133 136/69/132 138/67/134
f 137/68/133 138/67/134 139/66/135
f 139/66/135 138/67/134 140/65/136
f 139/66/135 140/65/136 141/64/137
f 142/85/138 40/32/40 143/86/139
f 143/86/139 40/32/40 38/30/38
f 143/86/139 38/30/38 144/87/140
f 144/87/140 38/30/38 37/29/37
f 144/87/140 37/29/37 145/88/141
f 145/88/141 37/29/37 47/38/47
f 145/88/141 47/38/47 146/89/142
f 146/89/142 47/38/47 46/37/46
f 146/89/142 46/37/46 147/90/143
f 147/90/143 46/37/46 41/33/41
f 147/90/143 41/33/41 142/85/138
f 142/85/138 41/33/41 40/32/40
f 144/87/140 148/91/42 143/86/139
f 143/86/139 148/91/42 149/92/45
f 143/86/139 149/92/45 142/85/138
f 142/85/138 149/92/45 150/93/144
f 142/85/138 150/93/144 147/90/143
f 147/90/143 150/93/144 151/94/145
f 147/90/143 151/94/145 146/89/142
f 146/89/142 151/94/145 152/95/111
f 146/89/142 152/95/111 145/88/141
f 145/88/141 152/95/111 153/96/146
f 145/88/141 153/96/146 144/87/140
f 144/87/140 153/96/146 148/91/42
f 21/20/21 3/3/3 154/1/27
f 154/1/27 3/3/3 8/7/8
f 154/1/27 8/7/8 25/5/25
f 25/5/25 8/7/8 34/26/34
f 25/5/25 34/26/34 2/2/2
f 2/2/2 34/26/34 155/74/147
f 2/2/2 155/74/147 3/3/3
f 3/3/3 155/74/147 156/75/148
f 3/3/3 156/75/148 7/6/7
f 118/23/117 81/22/81 80/21/80
f 80/21/80 81/22/81 83/53/83
f 80/21/80 83/53/83 78/41/78
f 78/41/78 83/53/83 157/97/149
f 78/41/78 157/97/149 119/73/118
f 119/73/118 157/97/149 158/98/150
f 119/73/118 158/98/150 120/72/111
f 120/72/111 158/98/150 159/99/151
f 120/72/111 159/99/151 160/100/152
f 160/100/152 159/99/151 161/101/153
f 160/100/152 161/101/153 162/8/154
f 162/8/154 161/101/153 163/102/155
f 164/86/156 70/32/70 165/85/157
f 165/85/157 70/32/70 69/33/69
f 165/85/157 69/33/69 166/90/158
f 166/90/158 69/33/69 75/37/75
f 166/90/158 75/37/75 167/89/159
f 167/89/159 75/37/75 74/38/74
f 167/89/159 74/38/74 168/88/160
f 168/88/160 74/38/74 73/29/73
f 168/88/160 73/29/73 169/87/161
f 169/87/161 73/29/73 72/30/72
f 169/87/161 72/30/72 164/86/156
f 164/86/156 72/30/72 70/32/70
f 164/86/156 170/91/162 169/87/161
f 169/87/161 170/91/162 171/96/68
f 169/87/161 171/96/68 168/88/160
f 168/88/160 171/96/68 172/95/163
f 168/88/160 172/95/163 167/89/159
f 167/89/159 172/95/163 173/94/164
f 167/89/159 173/94/164 166/90/158
f 166/90/158 173/94/164 174/93/154
f 166/90/158 174/93/154 165/85/157
f 165/85/157 174/93/154 175/92/76
f 165/85/157 175/92/76 164/86/156
f 164/86/156 175/92/76 170/91/162
f 23/22/23 22/21/22 83/53/83
f 83/53/83 22/21/22 55/41/55
f 83/53/83 55/41/55 157/97/149
f 157/97/149 55/41/55 112/73/112
f 157/97/149 112/73/112 158/98/150
f 158/98/150 112/73/112 111/72/111
f 158/98/150 111/72/111 159/99/151
f 159/99/151 111/72/111 176/100/165
f 159/99/151 176/100/165 161/101/153
f 161/101/153 176/100/165 9/8/9
f 161/101/153 9/8/9 163/102/155
f 163/102/155 9/8/9 11/10/11
f 163/102/155 11/10/11 162/8/154
f 162/8/154 11/10/11 64/9/64
f 162/8/154 64/9/64 76/36/76
f 76/36/76 64/9/64 62/48/62
f 76/36/76 62/48/62 77/51/77
f 77/51/77 62/48/62 61/47/61
f 77/51/77 61/47/61 84/54/84
o editpl_f-0000-1894
v -12.417554 64.279640 -6.135783
v -10.301226 63.820843 -5.153347
v -9.081692 64.632561 -6.405842
v 9.081692 64.632561 -6.405842
v 11.139821 65.518066 -7.658336
v 10.753591 63.788757 -9.075311
v 10.139856 62.325745 -6.628112
v 11.914926 62.235909 -7.432731
v 12.417554 64.279640 -6.135783
v -11.139821 65.518066 -7.658336
v -12.338191 58.777290 -3.923079
v -11.846145 61.988865 -3.768602
v -11.420234 62.681870 -7.183788
v -10.645129 52.174469 -11.578075
v -12.459880 52.309219 -8.088428
v -10.155728 58.796539 -10.829024
v -12.176821 58.786915 -7.646110
v 9.740399 62.036991 -9.478732
v 11.420234 62.681870 -7.183788
v 10.155728 58.796539 -10.829024
v 12.176821 58.786915 -7.646110
v 12.338191 58.777290 -3.923079
v 13.073615 52.440762 -4.077557
v 12.459880 52.309219 -8.088428
v -10.139856 62.325745 -6.628112
v -11.914926 62.235909 -7.432731
v -10.753591 63.788757 -9.075311
v 10.301226 63.820843 -5.153347
v 9.266871 63.384502 -7.691676
v -9.266871 63.384502 -7.691676
v -9.740399 62.036991 -9.478732
v -13.073615 52.440762 -4.077557
v 10.645129 52.174469 -11.578075
v 11.846145 61.988865 -3.768602
vn -0.3681 0.1567 0.9165
vn -0.3843 0.1569 0.9098
vn 0.3930 0.9196 -0.0000
vn -0.3930 0.9196 -0.0000
vn -0.2903 0.9569 -0.0078
vn -0.6935 -0.1261 -0.7093
vn 0.0548 -0.9933 0.1017
vn -0.0709 -0.9691 0.2364
vn 0.3681 0.1567 0.9165
vn 0.2902 0.9569 -0.0078
vn -0.9890 0.1256 -0.0785
vn -0.9849 0.1497 -0.0867
vn -0.9136 0.2363 -0.3308
vn -0.8786 0.1177 -0.4628
vn -0.9482 0.0862 -0.3056
vn -0.8243 0.1884 -0.5338
vn -0.9470 0.1342 -0.2920
vn 0.7088 0.3466 -0.6144
vn 0.9136 0.2363 -0.3308
vn 0.8243 0.1884 -0.5338
vn 0.9470 0.1342 -0.2920
vn 0.9890 0.1256 -0.0785
vn 0.9818 0.1178 -0.1492
vn 0.9482 0.0862 -0.3056
vn -0.0548 -0.9933 0.1017
vn 0.0709 -0.9691 0.2363
vn 0.6935 -0.1261 -0.7093
vn 0.3843 0.1569 0.9098
vn -0.6362 -0.1963 -0.7461
vn 0.6362 -0.1963 -0.7461
vn -0.7088 0.3466 -0.6144
vn -0.9818 0.1178 -0.1492
vn 0.8786 0.1177 -0.4628
vn 0.9849 0.1497 -0.0867
vt 0.736023 0.453125
vt 0.815552 0.453125
vt 0.815552 0.351562
vt 0.736023 0.351562
vt 0.815552 0.531250
vt 0.736023 0.531250
vt 0.828125 0.460938
vt 0.820312 0.343750
vt 0.987488 0.328125
vt 0.862915 0.664062
vt 0.987488 0.679688
vt 0.987488 0.441406
s 1
usemtl f_hair0102
f 177/103/166 178/104/167 179/105/168
f 180/105/169 181/106/170 182/103/171
f 183/107/172 184/108/173 185/103/174
f 179/105/168 186/106/175 177/103/166
f 187/109/176 188/110/177 189/111/178
f 190/112/179 191/113/180 192/109/181
f 192/109/181 191/113/180 193/114/182
f 194/110/183 195/111/184 196/109/185
f 196/109/185 195/111/184 197/114/186
f 198/109/187 199/112/188 200/113/189
f 178/104/167 177/103/166 201/107/190
f 201/107/190 177/103/166 202/108/191
f 201/107/190 202/108/191 203/103/192
f 181/106/170 180/105/169 185/103/174
f 185/103/174 180/105/169 204/104/193
f 185/103/174 204/104/193 183/107/172
f 184/108/173 183/107/172 182/103/171
f 182/103/171 183/107/172 205/104/194
f 182/103/171 205/104/194 180/105/169
f 186/106/175 179/105/168 203/103/192
f 203/103/192 179/105/168 206/104/195
f 203/103/192 206/104/195 201/107/190
f 207/110/196 192/109/181 189/111/178
f 189/111/178 192/109/181 193/114/182
f 189/111/178 193/114/182 187/109/176
f 187/109/176 193/114/182 191/113/180
f 187/109/176 191/113/180 208/112/197
f 209/112/198 196/109/185 200/113/189
f 200/113/189 196/109/185 197/114/186
f 200/113/189 197/114/186 198/109/187
f 198/109/187 197/114/186 195/111/184
f 198/109/187 195/111/184 210/110/199
