mtllib f_hair008.mtl
o editpl_f-0000-1910
v -4.388735 66.932961 5.462293
v 0.002645 62.421993 9.236447
v 0.002645 67.914719 5.694566
v 0.002645 64.600471 6.907052
v 0.002645 66.965042 1.842618
v -4.764383 66.705162 -1.299176
v 7.679625 51.641880 -2.921750
v 8.761597 56.133595 -0.875750
v 7.848931 52.344513 -1.800395
v -8.666363 55.337917 0.340070
v -7.499737 55.825592 4.784369
v -8.952067 58.716331 1.641464
v -2.909951 62.630539 9.394259
v -2.462877 60.628517 9.540957
v -1.119008 60.410347 9.945490
v -6.941555 53.448189 -6.842602
v -9.094919 60.073467 -5.205581
v -7.277522 58.100323 -8.632992
v 4.769674 66.708374 -1.299176
v 4.679730 65.351234 -7.291590
v 0.002645 66.634583 -8.385160
v 5.192940 57.699276 -10.348921
v 8.422985 59.406128 -5.642341
v 8.206061 57.205189 -4.972196
v 5.105641 52.700642 -9.247569
v 0.005291 52.180885 -10.881258
v 5.309338 55.495129 -10.211112
v 0.002645 67.372505 -0.195603
v -3.785581 62.136448 7.963948
v -5.981272 65.309525 5.055538
v -7.449474 61.722569 3.928627
v 0.002645 62.421993 9.236447
v 4.394026 66.932961 5.462293
v 3.796163 62.136448 7.963948
v 6.005080 65.309525 5.055538
v 7.489155 61.722569 3.928627
v 4.769674 66.708374 -1.299176
v 6.986527 61.690487 4.365388
v 9.327715 61.039188 -1.488106
v 9.047302 58.629704 -1.219158
v 8.764243 56.136803 -0.950210
v 7.991783 54.981789 -4.299827
v 0.005291 57.275772 -12.181540
v 5.309338 55.495129 -10.211112
v 0.005291 54.776455 -11.922595
v -5.092414 52.700642 -9.247569
v -4.274982 50.220573 -7.737241
v 7.854222 52.347721 -1.954873
v 5.888682 49.049519 -4.105341
v 4.290855 50.220573 -7.737241
v -5.875455 49.049519 -4.105341
v -7.840995 52.347721 -1.954873
v -8.005010 55.001041 -5.344499
v -4.341118 63.718174 6.575868
v -6.952137 61.690487 4.365388
v 4.769674 66.708374 -1.299176
v 4.351699 63.718174 6.575868
v 6.986527 61.690487 4.365388
v 5.311983 60.776100 8.063971
v 6.383374 59.534462 6.907053
v 6.285494 62.819832 6.810364
v 8.100245 60.910854 1.865956
v 8.005010 58.642536 2.831722
v 9.322424 61.029564 -1.372525
v 8.901804 54.981789 -4.514318
v 6.629397 49.976738 -4.440969
v 6.954782 53.448189 -6.842602
v 7.650525 54.766830 3.665237
v 8.679590 55.337917 0.340070
v 7.512964 55.825592 4.784369
v 8.981166 58.716331 1.641464
v 0.002645 62.662621 9.789900
v 0.002645 65.745865 8.418491
v -2.521076 65.639984 7.962837
v 5.428381 65.944778 6.325814
v 8.838314 62.123615 2.450528
v 6.608234 66.589661 2.530545
v 2.999895 65.591858 8.234007
v 0.002645 65.745865 8.418491
v 0.002645 62.662621 9.789900
v -6.256394 62.819832 6.810364
v -6.261685 59.534462 6.907053
v -5.155904 60.776100 8.063971
v 7.372757 51.734921 2.999537
v 8.679590 55.337917 0.340070
v 7.650525 54.766830 3.665237
v -7.637298 54.766830 3.665237
v -6.592361 66.586456 2.530545
v -8.774824 62.123615 2.450528
v -5.417799 65.944778 6.325814
v 1.423230 60.458473 9.902147
v 2.820007 60.724766 9.454272
v 2.917887 62.630539 9.394259
v 3.912561 60.824226 8.779681
v 6.285494 62.819832 6.810364
v 5.311983 60.776100 8.063971
v -7.637298 54.766830 3.665237
v -8.666363 55.337917 0.340070
v -7.359530 51.734921 2.999537
v -4.327890 60.894810 8.452943
v -6.256394 62.819832 6.810364
v -5.155904 60.776100 8.063971
v -8.888577 54.981789 -4.514318
v -9.264225 61.029564 -1.372525
v -6.613525 49.976738 -4.440969
v -7.663752 51.641880 -2.921750
v -8.507638 60.910854 1.865956
v -7.602908 64.135262 1.545886
v -4.764383 66.705162 -1.299176
v 0.002645 67.372505 -0.195603
v -7.758987 62.547119 -4.873286
v -7.536773 63.140667 -1.115803
v -7.007691 64.006927 -7.899499
v -4.671794 65.348022 -7.291590
v 7.023563 64.010139 -7.899499
v 7.581745 63.140667 -1.115803
v 7.809250 62.547119 -4.873286
v -8.047337 59.425381 -6.082438
v -6.970655 62.508621 -4.998869
v -6.470672 58.344158 -9.644322
v -4.351699 62.543911 -8.697451
v -4.023668 57.493942 -11.978164
v 0.002645 62.592037 -10.592307
v 0.005291 56.890770 -12.999496
v 0.002645 68.261223 -3.634128
v 0.002645 66.361870 4.368722
v 4.404607 67.446297 -3.025107
v 4.322600 65.370483 3.874170
v 6.716696 65.919113 -2.820618
v 7.150543 62.396328 3.599666
v 7.949457 62.993084 -1.411423
v -7.714015 59.595421 -6.594770
v -7.462701 62.473328 -4.449861
v -5.785511 59.800758 -10.228895
v -4.454870 63.897842 -7.506081
v -4.050122 60.419971 -12.160425
v 0.002645 64.366264 -8.848595
v 0.005291 60.195389 -13.368465
v 0.002645 64.366264 -8.848595
v 4.060704 60.419971 -12.160425
v 4.465452 63.897842 -7.506081
v 5.788157 59.803967 -10.228895
v 7.507673 62.476536 -4.449861
v 7.743115 59.595421 -6.594770
v -7.880676 60.846684 -6.102442
v -7.552645 62.909664 -2.673919
v -7.216678 61.680862 -8.480737
v -4.732638 65.665649 -4.328723
v -4.954853 63.493587 -10.596752
v 0.002645 66.602493 -4.973308
v 0.002645 63.808006 -11.725886
v 0.002645 66.602493 -4.973308
v 4.965434 63.496796 -10.596752
v 4.740574 65.668861 -4.328723
v 7.224614 61.684071 -8.480737
v 7.602908 62.909664 -2.673919
v 7.920357 60.846684 -6.102442
v -8.751016 56.136803 -0.950210
v -8.198125 57.214813 -5.493420
v -5.296110 55.495129 -10.211112
v -8.391240 59.406128 -5.642341
v -5.182358 57.699276 -10.348921
v 4.148003 47.041080 -6.865941
v 2.068710 46.271072 -8.250686
v 0.005291 49.514732 -8.975287
v 0.005291 46.139530 -8.617432
v -2.052838 46.271072 -8.250686
v -4.132130 47.041080 -6.865941
v 5.399281 63.381294 -6.854828
v 0.002645 62.592037 -10.592307
v 0.002645 66.948997 -4.129791
v -5.388700 63.378086 -6.854828
v -4.764383 66.705162 -1.299176
v -9.272161 61.039188 -1.488106
v -6.952137 61.690487 4.365388
v 0.002645 62.592037 -10.592307
v 4.036895 57.493942 -11.978164
v 4.359635 62.547119 -8.697451
v 6.478609 58.347366 -9.644322
v 7.007691 62.508621 -4.998869
v 8.076436 59.425381 -6.082438
v 9.282743 56.605225 -2.326065
v 9.639873 60.618893 -3.873069
v 7.944166 65.633568 -0.923539
v -5.417799 65.944778 6.325814
v 0.050263 60.365429 10.015505
v 9.137246 60.073467 -5.205581
v 7.288104 58.100323 -8.632992
v -7.777505 65.643196 -0.923539
v -9.581674 60.618893 -3.873069
v -9.266871 56.605225 -2.326065
v -6.497127 57.349564 7.082646
v 0.050263 60.365429 10.015505
v 5.428381 65.944778 6.325814
v 6.510354 57.349564 7.082646
v 7.642589 64.138474 1.545886
v 7.801314 65.421814 -1.360301
v 8.362140 64.055054 -5.294489
v 6.994464 62.235909 -8.017303
v -7.833059 52.344513 -1.800395
v -8.745725 56.133595 -0.875750
v -7.981201 58.642536 2.831722
v -7.899194 65.408981 -1.360301
v -8.311878 64.055054 -5.294489
v -6.946846 62.232700 -8.017303
v 0.002645 68.601311 1.853731
v 0.002645 64.568390 6.873711
v 4.370217 67.494423 2.157130
v 3.677120 64.144890 6.739237
v 6.632042 65.931946 1.204701
v 6.277558 62.178158 5.500079
v 7.835704 62.729996 1.731482
v -7.893903 62.993084 -1.411423
v -7.110862 62.396328 3.599666
v -6.698178 65.912697 -2.820618
v -4.314663 65.370483 3.874170
v -4.399317 67.443092 -3.025107
v 0.002645 66.361870 4.368722
v -7.785441 62.729996 1.731482
v -6.251103 62.178158 5.500079
v -6.616170 65.928741 1.204701
v -3.666538 64.144890 6.739237
v -4.364926 67.497627 2.100451
v 0.002645 64.568390 6.873711
v -9.012911 58.629704 -1.219158
v 5.105641 52.700642 -9.247569
v 0.002645 66.965042 1.842618
v 0.005291 52.180885 -10.881258
vn -0.3457 0.4322 0.8329
vn -0.0001 0.4876 0.8730
vn -0.0000 0.5420 0.8404
vn -0.0000 0.9195 0.3930
vn -0.0000 0.9790 0.2037
vn -0.4954 0.8651 0.0787
vn 0.9375 -0.3466 -0.0315
vn 0.9776 -0.1564 0.1408
vn 0.9562 -0.2743 0.1019
vn -0.9590 -0.1572 0.2358
vn -0.9421 -0.1178 0.3140
vn -0.9584 -0.0393 0.2828
vn -0.3860 0.1734 0.9060
vn -0.3995 -0.0157 0.9166
vn -0.1575 0.0788 0.9844
vn -0.8495 -0.2360 -0.4719
vn -0.9289 0.0158 -0.3700
vn -0.8894 -0.0236 -0.4565
vn 0.4311 0.8935 -0.1254
vn 0.3771 0.9034 -0.2043
vn -0.0000 0.9876 -0.1568
vn 0.5663 0.1888 -0.8023
vn 0.8880 0.1572 -0.4322
vn 0.9372 -0.1497 -0.3150
vn 0.6396 -0.4264 -0.6396
vn -0.0000 -0.5179 -0.8554
vn 0.6445 -0.1965 -0.7389
vn -0.0000 0.9963 -0.0863
vn -0.5500 0.2829 0.7858
vn -0.6508 0.2117 0.7292
vn -0.7423 0.0948 0.6634
vn 0.0001 0.4876 0.8730
vn 0.3457 0.4322 0.8329
vn 0.5445 0.2841 0.7892
vn 0.6451 0.2203 0.7316
vn 0.7384 0.0943 0.6677
vn 0.4954 0.8651 0.0786
vn 0.7393 0.6213 0.2595
vn 0.8937 0.4233 -0.1489
vn 0.9771 -0.1340 -0.1655
vn 0.9725 -0.1647 -0.1647
vn 0.9113 -0.2750 -0.3064
vn -0.0000 0.1018 -0.9948
vn 0.6446 -0.1965 -0.7389
vn -0.0000 -0.2203 -0.9754
vn -0.6193 -0.4154 -0.6663
vn -0.6126 -0.3691 -0.6990
vn 0.9364 -0.2597 -0.2361
vn 0.8726 -0.2673 -0.4088
vn 0.6292 -0.3539 -0.6920
vn -0.8664 -0.3072 -0.3938
vn -0.9400 -0.2898 -0.1802
vn -0.9059 -0.2914 -0.3072
vn -0.4868 0.8088 0.3298
vn -0.7479 0.6141 0.2520
vn 0.4954 0.8651 0.0787
vn 0.4869 0.8088 0.3298
vn 0.7393 0.6213 0.2596
vn 0.6134 0.1730 0.7706
vn 0.8586 0.0236 0.5120
vn 0.6864 0.1893 0.7021
vn 0.9346 0.1806 0.3063
vn 0.9518 0.0079 0.3068
vn 0.9893 0.0864 0.1178
vn 0.9569 -0.2275 -0.1804
vn 0.8664 -0.3938 -0.3072
vn 0.8495 -0.2360 -0.4719
vn 0.9519 -0.1495 0.2675
vn 0.9590 -0.1572 0.2358
vn 0.9421 -0.1178 0.3140
vn 0.9602 -0.0472 0.2754
vn -0.0000 0.2128 0.9771
vn -0.0237 0.4024 0.9152
vn -0.3867 0.3709 0.8444
vn 0.7761 0.3371 0.5330
vn 0.9271 0.2043 0.3143
vn 0.8632 0.4237 0.2746
vn 0.4235 0.3215 0.8469
vn -0.6693 0.1968 0.7165
vn -0.8552 0.0235 0.5178
vn -0.6026 0.1565 0.7825
vn 0.9530 -0.1418 0.2678
vn 0.9519 -0.1494 0.2675
vn -0.9519 -0.1495 0.2675
vn -0.8716 0.4162 0.2591
vn -0.9294 0.2048 0.3072
vn -0.7551 0.3303 0.5663
vn 0.1728 0.0786 0.9818
vn 0.4156 -0.0000 0.9096
vn 0.3848 0.1492 0.9109
vn 0.5270 0.1180 0.8416
vn 0.6864 0.1894 0.7022
vn 0.6133 0.1730 0.7706
vn -0.9530 -0.1418 0.2678
vn -0.5244 0.1018 0.8453
vn -0.6692 0.1969 0.7165
vn -0.6026 0.1565 0.7826
vn -0.9569 -0.2275 -0.1804
vn -0.9948 0.0548 0.0862
vn -0.8664 -0.3938 -0.3072
vn -0.9375 -0.3466 -0.0315
vn -0.9706 0.0783 0.2274
vn -0.9338 0.2825 0.2197
vn -0.4311 0.8935 -0.1254
vn -0.9021 0.4314 -0.0079
vn -0.8498 0.5272 -0.0000
vn -0.7402 0.6694 -0.0630
vn -0.3771 0.9034 -0.2042
vn 0.7359 0.6734 -0.0705
vn 0.8462 0.5328 -0.0000
vn 0.8943 0.4472 -0.0157
vn -0.7693 0.4317 -0.4710
vn -0.7456 0.4552 -0.4866
vn -0.6822 0.4548 -0.5724
vn -0.5417 0.4789 -0.6908
vn -0.3605 0.4389 -0.8230
vn -0.0000 0.4567 -0.8896
vn -0.0000 0.3863 -0.9224
vn -0.0000 0.9737 0.2277
vn 0.0001 0.9658 0.2591
vn 0.3055 0.9164 0.2585
vn 0.5027 0.8169 0.2828
vn 0.7151 0.6523 0.2515
vn 0.7919 0.5567 0.2509
vn 0.8705 0.4548 0.1882
vn -0.8266 0.3778 -0.4172
vn -0.7749 0.4586 -0.4349
vn -0.7517 0.4855 -0.4463
vn -0.5756 0.6308 -0.5204
vn -0.3862 0.7015 -0.5990
vn -0.0000 0.7637 -0.6456
vn -0.0000 0.7378 -0.6750
vn 0.0001 0.7378 -0.6750
vn 0.3862 0.7015 -0.5990
vn 0.5756 0.6308 -0.5204
vn 0.7517 0.4855 -0.4463
vn 0.7722 0.4571 -0.4413
vn 0.8265 0.3779 -0.4172
vn -0.9244 0.3604 -0.1254
vn -0.8440 0.5127 -0.1577
vn -0.8073 0.5644 -0.1725
vn -0.5818 0.7784 -0.2359
vn -0.3778 0.8735 -0.3069
vn -0.0001 0.9354 -0.3537
vn -0.0000 0.9263 -0.3768
vn -0.0000 0.9354 -0.3537
vn 0.3777 0.8736 -0.3069
vn 0.5807 0.7769 -0.2433
vn 0.8045 0.5680 -0.1735
vn 0.8395 0.5178 -0.1648
vn 0.9196 0.3694 -0.1336
vn -0.9808 -0.1491 -0.1256
vn -0.9348 -0.1100 -0.3378
vn -0.6276 -0.1647 -0.7609
vn -0.8809 0.1730 -0.4404
vn -0.5646 0.2039 -0.7998
vn 0.7592 -0.2035 -0.6183
vn 0.3604 -0.1253 -0.9244
vn -0.0000 -0.2425 -0.9701
vn -0.0000 -0.1018 -0.9948
vn -0.3603 -0.1253 -0.9244
vn -0.7592 -0.2035 -0.6183
vn 0.5761 0.6234 -0.5287
vn -0.0000 0.5655 -0.8247
vn -0.5813 0.6206 -0.5263
vn -0.4955 0.8651 0.0786
vn -0.8921 0.4263 -0.1500
vn -0.7479 0.6141 0.2519
vn -0.0000 0.4566 -0.8896
vn 0.3605 0.4389 -0.8230
vn 0.5417 0.4789 -0.6908
vn 0.6846 0.4486 -0.5745
vn 0.7428 0.4535 -0.4926
vn 0.7693 0.4317 -0.4710
vn 0.9876 -0.0940 0.1254
vn 0.9925 0.0866 0.0866
vn 0.9223 0.3626 0.1340
vn 0.0078 0.0941 0.9955
vn 0.9289 0.0157 -0.3700
vn 0.8892 -0.0315 -0.4564
vn -0.9223 0.3705 0.1104
vn -0.9918 0.0944 0.0866
vn -0.9883 -0.0863 0.1255
vn -0.9038 0.0550 0.4244
vn 0.7760 0.3371 0.5331
vn 0.9091 0.0313 0.4154
vn 0.9309 0.2503 0.2660
vn 0.9459 0.2917 0.1419
vn 0.9519 0.2281 -0.2045
vn 0.8391 0.1411 -0.5254
vn -0.9562 -0.2743 0.1019
vn -0.9788 -0.1488 0.1409
vn -0.9664 -0.1021 0.2357
vn -0.9505 0.2907 0.1100
vn -0.9520 0.2203 -0.2125
vn -0.8381 0.1488 -0.5248
vn -0.0000 0.7778 0.6285
vn -0.0000 0.7915 0.6112
vn 0.3071 0.7401 0.5983
vn 0.4803 0.6691 0.5671
vn 0.7145 0.5025 0.4868
vn 0.7548 0.4639 0.4639
vn 0.8343 0.3778 0.4014
vn -0.8736 0.4486 0.1889
vn -0.7998 0.5489 0.2431
vn -0.7151 0.6522 0.2515
vn -0.5027 0.8169 0.2828
vn -0.3061 0.9183 0.2512
vn -0.0000 0.9658 0.2591
vn -0.8418 0.3697 0.3933
vn -0.7575 0.4577 0.4656
vn -0.7145 0.5025 0.4868
vn -0.4803 0.6693 0.5669
vn -0.3071 0.7401 0.5984
vn -0.0001 0.7778 0.6285
vn -0.9835 -0.1023 -0.1495
vn -0.0000 0.9791 0.2036
vn -0.0000 -0.5180 -0.8554
vt 0.618500 0.776276
vt 0.377686 0.987274
vt 0.377686 0.776276
vt 0.453369 0.480255
vt 0.631866 0.528778
vt 0.625824 0.653473
vt 0.149048 0.397064
vt 0.274689 0.273224
vt 0.199951 0.383881
vt 0.837708 0.389893
vt 0.632172 0.373779
vt 0.738251 0.297028
vt 0.789856 0.604065
vt 0.800385 0.752350
vt 0.733643 0.752350
vt 0.019806 0.312317
vt 0.143921 0.117859
vt 0.012299 0.156403
vt 0.618774 0.987274
vt 0.568237 0.776276
vt 0.957642 0.776276
vt 0.144409 0.644470
vt 0.238708 0.641541
vt 0.253448 0.698486
vt 0.148560 0.761810
vt 0.012177 0.757904
vt 0.146484 0.703156
vt 0.953278 0.987274
vt 0.669037 0.987274
vt 0.958221 0.777740
vt 0.984650 0.987274
vt 0.986694 0.777740
vt 0.337555 0.515320
vt 0.340424 0.578552
vt 0.312775 0.630188
vt 0.318695 0.682800
vt 0.324585 0.735443
vt 0.268188 0.755463
vt 0.012177 0.645477
vt 0.012177 0.701691
vt 0.148041 0.866913
vt 0.358154 0.830322
vt 0.295532 0.914398
vt 0.436584 0.607727
vt 0.492371 0.704407
vt 0.481171 0.216370
vt 0.543060 0.256226
vt 0.512665 0.122803
vt 0.426331 0.140167
vt 0.440063 0.217468
vt 0.296936 0.122559
vt 0.125336 0.284637
vt 0.070862 0.435852
vt 0.700745 0.401733
vt 0.668152 0.599548
vt 0.668152 0.428894
vt 0.796906 0.439087
vt 0.541504 0.011475
vt 0.750183 0.161926
vt 0.763916 0.011475
vt 0.312744 0.384094
vt 0.408691 0.263275
vt 0.471741 0.337952
vt 0.734894 0.752350
vt 0.861725 0.752350
vt 0.983856 0.589844
vt 0.921814 0.752350
vt 0.895294 0.752350
vt 0.439819 0.047943
vt 0.417664 0.776276
vt 0.984650 0.776276
vt 0.413879 0.776276
vt 0.413879 0.987274
vt 0.625641 0.776276
vt 0.670074 0.987274
vt 0.794861 0.776276
vt 0.949554 0.987274
vt 0.949554 0.776276
vt 0.154541 0.976868
vt 0.089813 0.986450
vt 0.012177 0.881836
vt 0.012177 0.985840
vt 0.226990 0.520142
vt 0.011017 0.490723
vt 0.196747 0.429840
vt 0.953033 0.375366
vt 0.986969 0.239441
vt 0.935120 0.039703
vt 0.960175 0.428894
vt 0.668152 0.752350
vt 0.545837 0.339417
vt 0.336304 0.019989
vt 0.182526 0.011749
vt 0.044281 0.022186
vt 0.936798 0.776276
vt 0.936798 0.987274
vt 0.746002 0.776276
vt 0.695465 0.987274
vt 0.553558 0.776276
vt 0.337555 0.430664
s 1
usemtl f_hair0112
f 1/1/1 2/2/2 3/3/3
f 4/4/4 5/5/5 6/6/6
f 7/7/7 8/8/8 9/9/9
f 10/10/10 11/11/11 12/12/12
f 13/13/13 14/14/14 15/15/15
f 16/16/16 17/17/17 18/18/18
f 19/19/19 20/20/20 21/21/21
f 22/22/22 23/23/23 24/24/24
f 25/25/25 26/26/26 27/27/27
f 28/28/28 19/19/19 21/21/21
f 2/2/2 1/1/1 29/29/29
f 29/29/29 1/1/1 30/30/30
f 29/29/29 30/30/30 31/31/31
f 3/3/3 32/2/32 33/1/33
f 33/1/33 32/2/32 34/29/34
f 33/1/33 34/29/34 35/32/35
f 35/32/35 34/29/34 36/31/36
f 37/33/37 38/34/38 39/35/39
f 40/36/40 41/37/41 42/38/42
f 43/39/43 44/27/44 45/40/45
f 45/40/45 44/27/44 26/26/26
f 45/40/45 26/26/26 46/25/46
f 46/25/46 26/26/26 47/41/47
f 41/37/41 48/42/48 42/38/42
f 42/38/42 48/42/48 49/43/49
f 42/38/42 49/43/49 50/41/50
f 51/43/51 52/42/52 53/38/53
f 4/4/4 6/6/6 54/44/54
f 54/44/54 6/6/6 55/45/55
f 5/5/5 4/4/4 56/6/56
f 56/6/56 4/4/4 57/44/57
f 56/6/56 57/44/57 58/45/58
f 59/46/59 60/47/60 61/48/61
f 62/49/62 63/50/63 64/51/64
f 8/8/8 7/7/7 65/52/65
f 65/52/65 7/7/7 66/53/66
f 65/52/65 66/53/66 67/16/67
f 68/54/68 69/10/69 70/11/70
f 70/11/70 69/10/69 71/12/71
f 72/55/72 73/56/73 74/57/74
f 75/58/75 76/59/76 77/60/77
f 78/57/78 79/56/73 80/55/72
f 81/48/79 82/47/80 83/46/81
f 84/61/82 85/62/69 86/63/83
f 11/11/11 10/10/10 87/54/84
f 88/60/85 89/59/86 90/58/87
f 91/64/88 92/14/89 93/13/90
f 93/13/90 92/14/89 94/65/91
f 93/13/90 94/65/91 95/66/92
f 95/66/92 94/65/91 96/67/93
f 97/63/84 98/62/10 99/61/94
f 14/14/14 13/13/13 100/68/95
f 100/68/95 13/13/13 101/66/96
f 100/68/95 101/66/96 102/67/97
f 103/52/98 104/51/99 17/17/17
f 17/17/17 16/16/16 103/52/98
f 103/52/98 16/16/16 105/53/100
f 103/52/98 105/53/100 106/7/101
f 107/49/102 108/69/103 104/51/99
f 21/21/21 109/19/104 110/28/28
f 111/3/105 112/2/106 113/70/107
f 113/70/107 112/2/106 109/19/104
f 113/70/107 109/19/104 114/20/108
f 114/20/108 109/19/104 21/21/21
f 20/20/20 19/19/19 115/70/109
f 115/70/109 19/19/19 116/2/110
f 115/70/109 116/2/110 117/3/111
f 118/71/112 119/31/113 120/32/114
f 120/32/114 119/31/113 121/29/115
f 120/32/114 121/29/115 122/1/116
f 122/1/116 121/29/115 123/2/117
f 122/1/116 123/2/117 124/3/118
f 125/72/119 126/73/120 127/74/121
f 127/74/121 126/73/120 128/75/122
f 127/74/121 128/75/122 129/76/123
f 129/76/123 128/75/122 130/77/124
f 129/76/123 130/77/124 131/78/125
f 132/71/126 133/31/127 134/32/128
f 134/32/128 133/31/127 135/29/129
f 134/32/128 135/29/129 136/1/130
f 136/1/130 135/29/129 137/2/131
f 136/1/130 137/2/131 138/3/132
f 138/3/133 139/2/131 140/1/134
f 140/1/134 139/2/131 141/29/135
f 140/1/134 141/29/135 142/32/136
f 142/32/136 141/29/135 143/31/137
f 142/32/136 143/31/137 144/71/138
f 145/71/139 146/31/140 147/32/141
f 147/32/141 146/31/140 148/29/142
f 147/32/141 148/29/142 149/1/143
f 149/1/143 148/29/142 150/2/144
f 149/1/143 150/2/144 151/3/145
f 151/3/145 152/2/146 153/1/147
f 153/1/147 152/2/146 154/29/148
f 153/1/147 154/29/148 155/32/149
f 155/32/149 154/29/148 156/31/150
f 155/32/149 156/31/150 157/71/151
f 52/42/52 158/37/152 53/38/53
f 53/38/53 158/37/152 159/24/153
f 53/38/53 159/24/153 160/27/154
f 160/27/154 159/24/153 161/23/155
f 160/27/154 161/23/155 162/22/156
f 49/43/49 163/79/157 50/41/50
f 50/41/50 163/79/157 164/80/158
f 50/41/50 164/80/158 165/81/159
f 165/81/159 164/80/158 166/82/160
f 165/81/159 166/82/160 167/80/161
f 168/79/162 51/43/51 47/41/47
f 47/41/47 51/43/51 53/38/53
f 47/41/47 53/38/53 46/25/46
f 46/25/46 53/38/53 160/27/154
f 46/25/46 160/27/154 45/40/45
f 45/40/45 160/27/154 162/22/156
f 45/40/45 162/22/156 43/39/43
f 23/23/23 22/22/22 169/83/163
f 169/83/163 22/22/22 170/84/164
f 169/83/163 170/84/164 171/85/146
f 171/85/146 170/84/164 172/83/165
f 171/85/146 172/83/165 173/33/166
f 173/33/166 172/83/165 174/35/167
f 173/33/166 174/35/167 175/34/168
f 124/3/118 176/2/169 177/1/170
f 177/1/170 176/2/169 178/29/171
f 177/1/170 178/29/171 179/32/172
f 179/32/172 178/29/171 180/31/173
f 179/32/172 180/31/173 181/71/174
f 69/10/69 182/86/175 71/12/71
f 71/12/71 182/86/175 183/87/176
f 71/12/71 183/87/176 76/59/76
f 76/59/76 183/87/176 184/88/177
f 76/59/76 184/88/177 77/60/77
f 185/89/87 101/66/96 74/57/74
f 74/57/74 101/66/96 13/13/13
f 74/57/74 13/13/13 72/55/72
f 72/55/72 13/13/13 15/15/15
f 72/55/72 15/15/15 186/90/178
f 63/50/63 8/8/8 64/51/64
f 64/51/64 8/8/8 65/52/65
f 64/51/64 65/52/65 187/17/179
f 187/17/179 65/52/65 67/16/67
f 187/17/179 67/16/67 188/18/180
f 88/60/85 189/88/181 89/59/86
f 89/59/86 189/88/181 190/87/182
f 89/59/86 190/87/182 12/12/12
f 12/12/12 190/87/182 191/86/183
f 12/12/12 191/86/183 10/10/10
f 11/11/11 192/91/184 12/12/12
f 12/12/12 192/91/184 82/47/80
f 12/12/12 82/47/80 89/59/86
f 89/59/86 82/47/80 81/48/79
f 89/59/86 81/48/79 90/58/87
f 193/90/178 91/64/88 80/55/72
f 80/55/72 91/64/88 93/13/90
f 80/55/72 93/13/90 78/57/78
f 78/57/78 93/13/90 95/66/92
f 78/57/78 95/66/92 194/89/185
f 75/58/75 61/48/61 76/59/76
f 76/59/76 61/48/61 60/47/60
f 76/59/76 60/47/60 71/12/71
f 71/12/71 60/47/60 195/91/186
f 71/12/71 195/91/186 70/11/70
f 196/69/187 62/49/62 197/92/188
f 197/92/188 62/49/62 64/51/64
f 197/92/188 64/51/64 198/93/189
f 198/93/189 64/51/64 187/17/179
f 198/93/189 187/17/179 199/94/190
f 199/94/190 187/17/179 188/18/180
f 106/7/101 200/9/191 103/52/98
f 103/52/98 200/9/191 201/8/192
f 103/52/98 201/8/192 104/51/99
f 104/51/99 201/8/192 202/50/193
f 104/51/99 202/50/193 107/49/102
f 108/69/103 203/92/194 104/51/99
f 104/51/99 203/92/194 204/93/195
f 104/51/99 204/93/195 17/17/17
f 17/17/17 204/93/195 205/94/196
f 17/17/17 205/94/196 18/18/18
f 206/95/197 207/96/198 208/97/199
f 208/97/199 207/96/198 209/98/200
f 208/97/199 209/98/200 210/99/201
f 210/99/201 209/98/200 211/2/202
f 210/99/201 211/2/202 212/3/203
f 213/78/204 214/77/205 215/76/206
f 215/76/206 214/77/205 216/75/207
f 215/76/206 216/75/207 217/74/208
f 217/74/208 216/75/207 218/73/209
f 217/74/208 218/73/209 125/72/119
f 219/3/210 220/2/211 221/99/212
f 221/99/212 220/2/211 222/98/213
f 221/99/212 222/98/213 223/97/214
f 223/97/214 222/98/213 224/96/198
f 223/97/214 224/96/198 206/95/215
f 158/37/152 225/36/216 159/24/153
f 159/24/153 225/36/216 174/35/167
f 159/24/153 174/35/167 161/23/155
f 161/23/155 174/35/167 172/83/165
f 161/23/155 172/83/165 162/22/156
f 162/22/156 172/83/165 170/84/164
f 162/22/156 170/84/164 43/39/43
f 43/39/43 170/84/164 22/22/22
f 43/39/43 22/22/22 44/27/44
f 44/27/44 22/22/22 24/24/24
f 44/27/44 24/24/24 226/25/25
f 173/33/166 227/100/217 171/85/146
f 171/85/146 227/100/217 37/33/37
f 171/85/146 37/33/37 169/83/163
f 169/83/163 37/33/37 39/35/39
f 169/83/163 39/35/39 23/23/23
f 23/23/23 39/35/39 40/36/40
f 23/23/23 40/36/40 24/24/24
f 24/24/24 40/36/40 42/38/42
f 24/24/24 42/38/42 226/25/25
f 226/25/25 42/38/42 50/41/50
f 226/25/25 50/41/50 228/26/218
f 228/26/218 50/41/50 165/81/159
f 228/26/218 165/81/159 47/41/47
f 47/41/47 165/81/159 167/80/161
f 47/41/47 167/80/161 168/79/162
