mtllib f_hair000.mtl
o editpl_f-0000-1883
v 2.730063 47.817505 -21.073471
v 1.378259 50.454784 -17.392673
v 0.000000 48.892307 -16.286877
v 0.000000 46.117069 -18.827429
v 0.000000 40.531303 -21.833637
v 2.798844 43.794209 -25.652245
v 9.748335 57.205189 -1.430315
v 8.221934 55.058792 0.183369
v 7.274877 52.386223 -3.186252
v 0.000000 61.703320 -11.146872
v 4.364926 63.949177 -7.519417
v 4.804064 60.634933 -9.804358
v -4.804064 60.634933 -9.804358
v -9.282743 58.844666 -6.840379
v -7.719306 62.669037 -6.012423
v 6.658497 52.158428 -6.992635
v 10.086948 45.735275 3.042880
v 9.817116 51.086830 2.450529
v 8.669008 51.099667 4.071992
v 6.478609 44.670097 3.077332
v 7.243132 51.163834 2.484980
v 8.576419 51.128540 0.770163
v 0.000000 46.652866 -27.589333
v -3.793518 64.770515 6.076871
v -8.669008 61.546108 4.312043
v -5.766993 60.237095 7.566084
v 0.000000 65.482773 5.642332
v -3.793518 64.770515 6.076871
v -3.391415 62.312908 9.726553
v -2.759162 61.279816 9.677654
v -1.055519 58.331326 11.418033
v -4.489260 56.974186 -11.899258
v 0.000000 53.521984 -14.191977
v -1.661317 52.383015 -13.072845
v 0.000000 50.490074 -22.472664
v -2.798844 43.794209 -25.652245
v -2.730063 47.817505 -21.073471
v -1.378259 50.454784 -17.392673
v 0.000000 51.574505 -17.932791
v -3.960179 61.193188 8.936381
v -2.759162 61.279816 9.677654
v 10.774754 53.647110 2.677244
v 9.515539 58.228657 5.983519
v 8.102890 55.517586 7.499403
v 6.436282 56.563515 9.417598
v 4.290855 62.502205 9.345359
v 0.780396 62.855122 9.943267
v 2.081938 58.681038 11.912584
v 4.745865 47.644253 -5.598999
v 4.756447 46.078571 -5.860165
v 0.000000 45.539566 -8.714120
v 9.975840 55.248085 2.250485
v 10.219218 58.989040 1.903743
v 9.269516 55.315460 4.555430
v 0.000000 57.384857 -12.896141
v 4.489260 56.974186 -11.899258
v 0.000000 64.622932 -8.462955
v -4.364926 63.949177 -7.519417
v -3.960179 65.639984 -3.615235
v -9.748335 57.205189 -1.430315
v -6.658497 52.158428 -6.992635
v -7.274877 52.386223 -3.186252
v -4.745865 47.644253 -5.598999
v -5.846356 47.833549 -1.402531
v 5.846356 47.833549 -1.402531
v 8.811860 55.241669 -7.356047
v 9.282743 58.844666 -6.840379
v 10.322389 59.338753 -1.690372
v 7.719306 62.470119 -6.012423
v 7.825122 63.429420 -2.637245
v 3.960179 65.639984 -3.615235
v 0.000000 49.482651 -15.798993
v -1.661317 52.383015 -13.072845
v -1.648090 50.666534 -16.848110
v 0.000000 53.521984 -14.191977
v 0.000000 51.779839 -17.507141
v 1.661317 52.383015 -13.072845
v 1.648090 50.666534 -16.848110
v 0.000000 50.894329 -12.567179
v 7.269586 61.212440 7.666105
v 3.991923 58.340950 11.149085
v 3.155974 54.250282 12.251547
v 3.528977 47.817505 -21.293520
v 0.000000 51.109291 -23.072796
v -3.528977 47.817505 -21.293520
v 0.000000 45.918152 -18.407337
v -8.708689 51.080414 4.051988
v -9.817116 51.086830 2.450529
v -10.086948 45.735275 3.042880
v -8.391240 51.128540 0.770163
v -7.798668 44.827309 0.710151
v -6.478609 44.670097 3.077332
v -6.872775 42.042446 3.525208
v -8.370077 45.039059 5.170009
v -7.941520 42.260612 4.497641
v -8.978521 42.295906 3.282933
v -7.243132 51.163834 2.484980
v -7.822477 42.148319 2.349396
v 7.798668 44.827309 0.710151
v 6.872775 42.042446 3.525208
v 8.370077 45.039059 5.170009
v 7.941520 42.260612 4.497641
v 9.018202 42.295906 3.282933
v 7.822477 42.148319 2.349396
v 0.000000 41.233936 -19.087484
v 4.372862 44.775974 -24.293060
v 0.000000 48.715847 -27.512650
v -4.372862 44.775974 -24.293060
v -8.221934 55.058792 0.183369
v -9.975840 55.248085 2.250485
v -10.219218 58.989040 1.903743
v -9.269516 55.315460 4.555430
v -7.859513 58.382660 5.207794
v -7.637298 55.145416 2.424967
v -6.534162 56.938892 7.649436
v 0.000000 47.714836 -8.321812
v -4.685021 52.289970 -10.733448
v -8.811860 55.241669 -7.356047
v -10.322389 59.338753 -1.690372
v -7.825122 63.429420 -2.637245
v 7.716660 55.145416 2.424967
v 7.470637 58.382660 5.079988
v 8.669008 61.546108 4.312043
v 6.751086 63.747047 2.064888
v 3.793518 64.770515 5.156671
v 3.724737 65.585442 2.162687
v 0.000000 65.482773 5.642332
v 0.000000 66.217491 2.282713
v 10.060494 57.779488 2.988423
v 8.669008 61.546108 4.312043
v 3.793518 64.770515 5.156671
v -6.751086 63.747047 2.064888
v -3.724737 65.585442 2.162687
v 0.000000 66.320160 -4.139794
v 4.685021 52.289970 -10.733448
v -4.756447 46.078571 -5.860165
v 0.000000 50.894329 -12.567179
v 1.661317 52.383015 -13.072845
vn 0.9840 0.1338 0.1181
vn 0.7159 0.3855 0.5822
vn -0.0000 -0.1492 0.9888
vn -0.0000 -0.6150 0.7885
vn -0.0000 -0.6112 0.7915
vn 0.9953 0.0940 0.0235
vn 0.9059 -0.4175 -0.0709
vn 0.5889 -0.5182 -0.6203
vn 0.8994 -0.4301 -0.0782
vn -0.0000 0.5328 -0.8462
vn 0.3766 0.7218 -0.5806
vn 0.4877 0.4641 -0.7394
vn -0.4877 0.4641 -0.7394
vn -0.8151 0.2273 -0.5329
vn -0.6812 0.6186 -0.3915
vn 0.8457 -0.4933 -0.2036
vn 0.9961 -0.0863 -0.0160
vn 0.9634 -0.2663 -0.0313
vn -0.0000 -0.0314 0.9995
vn -0.9959 0.0470 0.0778
vn -0.9987 -0.0393 0.0315
vn -0.0547 -0.1641 -0.9849
vn -0.0000 0.7816 -0.6237
vn -0.5971 0.6758 0.4321
vn -0.7915 0.3997 0.4623
vn -0.7147 0.2906 0.6362
vn 0.0236 0.9287 0.3700
vn -0.5972 0.6758 0.4322
vn -0.5892 0.3613 0.7227
vn -0.9653 -0.1962 0.1726
vn -0.5347 -0.0786 0.8414
vn -0.5202 0.1340 -0.8434
vn -0.0000 0.3929 -0.9196
vn -0.7654 -0.2526 -0.5919
vn -0.0000 0.8944 -0.4472
vn -0.9953 0.0940 0.0235
vn -0.9839 0.1338 0.1181
vn -0.7159 0.3855 0.5821
vn -0.0000 0.9701 0.2426
vn -0.5732 0.5261 0.6282
vn -0.9653 -0.1961 0.1726
vn 0.9379 -0.0000 0.3468
vn 0.8839 0.1408 0.4459
vn 0.7994 -0.0784 0.5956
vn 0.6760 0.1415 0.7232
vn 0.4228 0.5794 0.6968
vn 0.0314 0.6747 0.7374
vn 0.0944 0.2911 0.9520
vn 0.7938 -0.2593 -0.5501
vn 0.7911 0.1018 -0.6032
vn -0.0000 0.1720 -0.9851
vn 0.9810 -0.1648 -0.1020
vn 0.9536 0.2049 0.2207
vn 0.3862 -0.0237 0.9221
vn -0.0000 0.3443 -0.9389
vn 0.5202 0.1340 -0.8434
vn -0.0000 0.8643 -0.5029
vn -0.3699 0.7240 -0.5823
vn -0.3771 0.9114 -0.1650
vn -0.9059 -0.4175 -0.0709
vn -0.8457 -0.4933 -0.2036
vn -0.8994 -0.4301 -0.0782
vn -0.7938 -0.2593 -0.5501
vn -0.9572 -0.1570 -0.2432
vn 0.9572 -0.1570 -0.2432
vn 0.8863 -0.2902 -0.3608
vn 0.8170 0.2357 -0.5263
vn 0.9854 0.1419 -0.0946
vn 0.6845 0.6137 -0.3934
vn 0.7301 0.6830 -0.0236
vn 0.3860 0.9061 -0.1733
vn -0.0000 -0.7847 0.6199
vn -0.7654 -0.2525 -0.5919
vn -0.9826 0.1101 0.1494
vn -0.0000 0.9518 -0.3068
vn 0.7655 -0.2525 -0.5919
vn 0.9826 0.1101 0.1494
vn -0.0000 -0.9835 -0.1810
vn 0.6769 0.4880 0.5510
vn 0.4945 0.2512 0.8321
vn 0.1176 0.1019 0.9878
vn 0.9470 0.2191 0.2348
vn -0.0000 0.9414 -0.3373
vn -0.9470 0.2191 0.2348
vn -0.0000 -0.4722 0.8815
vn -0.0079 -0.0315 0.9995
vn -0.9577 -0.2826 -0.0549
vn -0.9958 -0.0862 -0.0314
vn 0.1023 -0.1494 -0.9835
vn 0.0940 -0.3289 -0.9397
vn 0.9945 0.0469 0.0940
vn 0.9720 -0.2116 0.1019
vn -0.0314 -0.0784 0.9964
vn -0.0472 -0.2441 0.9686
vn -0.9258 -0.3766 -0.0314
vn 0.9979 -0.0157 0.0629
vn 0.0631 -0.5204 -0.8516
vn -0.0940 -0.3289 -0.9397
vn -0.9720 -0.2116 0.1019
vn 0.0314 -0.0784 0.9964
vn 0.0391 -0.2350 0.9712
vn 0.9258 -0.3766 -0.0314
vn -0.0709 -0.5201 -0.8511
vn -0.0000 -0.3209 0.9471
vn 0.9578 0.2355 0.1649
vn -0.9578 0.2355 0.1648
vn -0.5837 -0.5206 -0.6231
vn -0.9810 -0.1648 -0.1020
vn -0.9575 0.2040 0.2040
vn -0.4088 -0.0315 0.9121
vn -0.7166 -0.0788 0.6930
vn 0.7717 -0.3306 0.5433
vn -0.8931 -0.0548 0.4465
vn -0.0000 -0.5179 -0.8554
vn -0.6284 -0.4792 -0.6128
vn -0.8863 -0.2902 -0.3608
vn -0.9856 0.1408 -0.0939
vn -0.7302 0.6832 -0.0079
vn -0.9499 -0.1334 0.2826
vn 0.3838 -0.1645 0.9086
vn 0.8164 0.4945 0.2983
vn 0.6291 0.7706 0.1022
vn 0.4402 0.8411 0.3144
vn 0.2973 0.9466 0.1252
vn 0.0236 0.9288 0.3699
vn -0.0000 0.9940 0.1096
vn 0.9636 0.2272 0.1410
vn -0.6347 0.7679 0.0862
vn -0.2837 0.9534 0.1024
vn -0.0000 0.9940 -0.1096
vn 0.6284 -0.4792 -0.6127
vn -0.7911 0.1018 -0.6032
vn 0.7654 -0.2526 -0.5919
vt 0.138428 0.724121
vt 0.122864 0.504852
vt 0.188293 0.496063
vt 0.227417 0.670563
vt 0.300415 0.871918
vt 0.180389 0.962646
vt 0.669250 0.696594
vt 0.705719 0.755188
vt 0.662628 0.816467
vt 0.379669 0.546875
vt 0.554688 0.492188
vt 0.492188 0.601562
vt 0.578125 0.648438
vt 0.625000 0.539062
vt 0.570312 0.822906
vt 0.140625 0.335938
vt 0.126801 0.020142
vt 0.216339 0.023071
vt 0.036682 0.024994
vt 0.075256 0.986725
vt 0.924988 0.457794
vt 0.837219 0.567688
vt 0.934875 0.604156
vt 0.332581 0.141724
vt 0.337036 0.297974
vt 0.449219 0.312500
vt 0.458313 0.343750
vt 0.588531 0.355011
vt 0.445312 0.703125
vt 0.362091 0.782166
vt 0.406982 0.820801
vt 0.034851 0.718292
vt 0.080292 0.500427
vt 0.968750 0.575195
vt 0.987061 0.529663
vt 0.984375 0.122742
vt 0.809387 0.084229
vt 0.850250 0.165344
vt 0.792969 0.191406
vt 0.547729 0.115448
vt 0.488281 0.196594
vt 0.625854 0.263000
vt 0.608063 0.941406
vt 0.606079 0.985596
vt 0.366394 0.986542
vt 0.786041 0.736145
vt 0.773438 0.625000
vt 0.839661 0.737640
vt 0.356232 0.692169
vt 0.476562 0.428101
vt 0.674194 0.429993
vt 0.671875 0.917969
vt 0.559875 0.735657
vt 0.690613 0.621857
vt 0.710938 0.500000
vt 0.203461 0.515656
vt 0.128296 0.528992
vt 0.074982 0.524506
vt 0.621643 0.076996
vt 0.670135 0.203125
vt 0.736969 0.318573
vt 0.142639 0.729309
vt 0.014130 0.724457
vt 0.248535 0.653595
vt 0.031250 0.335938
vt 0.132812 0.476562
vt 0.234375 0.320312
vt 0.203125 0.476562
vt 0.046875 0.476562
vt 0.372375 0.815094
vt 0.181824 0.929688
vt 0.014557 0.969910
vt 0.866058 0.656952
vt 0.885803 0.738831
vt 0.908844 0.671875
vt 0.368805 0.935913
vt 0.473419 0.809357
vt 0.804688 0.507812
vt 0.820892 0.442261
vt 0.939056 0.398438
vt 0.815948 0.365448
vt 0.879669 0.026550
vt 0.723419 0.015625
vt 0.462494 0.028107
vt 0.651031 0.359375
vt 0.365540 0.860260
s 1
usemtl f_hair096
f 1/1/1 2/2/2 3/3/3
f 4/4/4 5/5/5 6/6/6
f 7/7/7 8/8/8 9/9/9
f 10/10/10 11/11/11 12/12/12
f 13/12/13 14/13/14 15/14/15
f 9/9/9 16/15/16 7/7/7
f 17/16/17 18/17/18 19/18/19
f 20/16/20 21/17/21 22/19/22
f 1/1/1 6/6/6 23/20/23
f 24/21/24 25/22/25 26/23/26
f 27/24/27 28/25/28 29/26/29
f 29/26/29 28/25/28 30/27/30
f 29/26/29 30/27/30 31/28/31
f 32/29/32 33/30/33 34/31/34
f 2/2/2 1/1/1 35/32/35
f 35/32/35 1/1/1 23/20/23
f 35/32/35 23/20/23 36/6/36
f 5/5/5 4/4/4 37/1/37
f 37/1/37 4/4/4 38/2/38
f 37/1/37 38/2/38 39/33/39
f 26/23/26 40/34/40 24/21/24
f 24/21/24 40/34/40 41/35/41
f 42/36/42 43/37/43 44/38/44
f 44/38/44 43/37/43 45/39/45
f 46/40/46 47/41/47 48/42/48
f 49/43/49 50/44/50 51/45/51
f 8/8/8 7/7/7 52/46/52
f 52/46/52 7/7/7 53/47/53
f 52/46/52 53/47/53 54/48/54
f 55/49/55 10/10/10 56/29/56
f 56/29/56 10/10/10 12/12/12
f 11/11/11 10/10/10 57/50/57
f 57/50/57 10/10/10 58/11/58
f 57/50/57 58/11/58 59/51/59
f 14/13/14 13/12/13 32/29/32
f 60/7/60 61/15/61 62/9/62
f 62/9/62 61/15/61 63/43/63
f 62/9/62 63/43/63 64/52/64
f 16/15/16 9/9/9 49/43/49
f 49/43/49 9/9/9 65/52/65
f 49/43/49 65/52/65 50/44/50
f 66/53/66 67/13/67 68/54/68
f 68/54/68 67/13/67 69/14/69
f 68/54/68 69/14/69 70/55/70
f 70/55/70 69/14/69 71/51/71
f 72/56/72 73/57/73 74/57/74
f 74/57/74 73/57/73 75/58/33
f 74/57/74 75/58/33 76/58/75
f 76/58/75 75/58/33 77/57/76
f 76/58/75 77/57/76 78/57/77
f 78/57/77 77/57/76 79/56/78
f 78/57/77 79/56/78 72/56/72
f 72/56/72 79/56/78 73/57/73
f 43/37/43 80/59/79 45/39/45
f 45/39/45 80/59/79 46/40/46
f 45/39/45 46/40/46 81/60/80
f 81/60/80 46/40/46 48/42/48
f 81/60/80 48/42/48 82/61/81
f 78/57/77 83/62/82 76/58/75
f 76/58/75 83/62/82 84/63/83
f 76/58/75 84/63/83 74/57/74
f 74/57/74 84/63/83 85/62/84
f 74/57/74 85/62/84 72/56/72
f 72/56/72 85/62/84 86/64/85
f 72/56/72 86/64/85 78/57/77
f 78/57/77 86/64/85 83/62/82
f 87/18/86 88/17/87 89/16/88
f 89/16/88 88/17/87 90/19/89
f 89/16/88 90/19/89 91/65/90
f 91/65/90 90/19/89 92/16/91
f 91/65/90 92/16/91 93/66/92
f 93/66/92 92/16/91 94/67/93
f 93/66/92 94/67/93 95/68/94
f 95/68/94 94/67/93 96/66/95
f 90/19/89 97/17/96 92/16/91
f 92/16/91 97/17/96 87/18/86
f 92/16/91 87/18/86 94/67/93
f 94/67/93 87/18/86 89/16/88
f 94/67/93 89/16/88 96/66/95
f 96/66/95 89/16/88 91/65/90
f 96/66/95 91/65/90 98/69/97
f 98/69/97 91/65/90 93/66/92
f 18/17/18 17/16/17 22/19/22
f 22/19/22 17/16/17 99/65/98
f 22/19/22 99/65/98 20/16/20
f 20/16/20 99/65/98 100/66/99
f 20/16/20 100/66/99 101/67/100
f 101/67/100 100/66/99 102/68/101
f 101/67/100 102/68/101 103/66/102
f 21/17/21 20/16/20 19/18/19
f 19/18/19 20/16/20 101/67/100
f 19/18/19 101/67/100 17/16/17
f 17/16/17 101/67/100 103/66/102
f 17/16/17 103/66/102 99/65/98
f 99/65/98 103/66/102 104/69/103
f 99/65/98 104/69/103 100/66/99
f 85/62/84 105/70/104 86/64/85
f 86/64/85 105/70/104 106/71/105
f 86/64/85 106/71/105 83/62/82
f 83/62/82 106/71/105 107/72/57
f 83/62/82 107/72/57 84/63/83
f 84/63/83 107/72/57 108/71/106
f 84/63/83 108/71/106 85/62/84
f 85/62/84 108/71/106 105/70/104
f 62/9/62 109/8/107 60/7/60
f 60/7/60 109/8/107 110/46/108
f 60/7/60 110/46/108 111/47/109
f 111/47/109 110/46/108 112/48/110
f 111/47/109 112/48/110 113/73/111
f 113/73/111 112/48/110 114/74/112
f 113/73/111 114/74/112 115/75/113
f 116/76/114 63/43/63 117/77/115
f 117/77/115 63/43/63 61/15/61
f 117/77/115 61/15/61 118/53/116
f 118/53/116 61/15/61 60/7/60
f 118/53/116 60/7/60 119/54/117
f 119/54/117 60/7/60 111/47/109
f 119/54/117 111/47/109 120/55/118
f 121/74/119 54/48/54 122/73/120
f 122/73/120 54/48/54 53/47/53
f 122/73/120 53/47/53 123/22/121
f 123/22/121 53/47/53 124/78/122
f 123/22/121 124/78/122 125/21/123
f 125/21/123 124/78/122 126/79/124
f 125/21/123 126/79/124 127/80/125
f 127/80/125 126/79/124 128/81/126
f 6/6/6 1/1/1 4/4/4
f 4/4/4 1/1/1 3/3/3
f 4/4/4 3/3/3 38/2/38
f 38/2/38 3/3/3 2/2/2
f 38/2/38 2/2/2 39/33/39
f 39/33/39 2/2/2 35/32/35
f 39/33/39 35/32/35 37/1/37
f 37/1/37 35/32/35 36/6/36
f 37/1/37 36/6/36 5/5/5
f 42/36/42 129/82/127 43/37/43
f 43/37/43 129/82/127 130/83/121
f 43/37/43 130/83/121 80/59/79
f 80/59/79 130/83/121 131/84/123
f 80/59/79 131/84/123 46/40/46
f 46/40/46 131/84/123 27/24/27
f 46/40/46 27/24/27 47/41/47
f 47/41/47 27/24/27 29/26/29
f 47/41/47 29/26/29 48/42/48
f 48/42/48 29/26/29 31/28/31
f 48/42/48 31/28/31 82/61/81
f 25/22/25 24/21/24 132/78/128
f 132/78/128 24/21/24 133/79/129
f 132/78/128 133/79/129 59/51/59
f 59/51/59 133/79/129 134/85/130
f 59/51/59 134/85/130 57/50/57
f 57/50/57 134/85/130 71/51/71
f 57/50/57 71/51/71 11/11/11
f 11/11/11 71/51/71 69/14/69
f 11/11/11 69/14/69 12/12/12
f 12/12/12 69/14/69 67/13/67
f 12/12/12 67/13/67 56/29/56
f 56/29/56 67/13/67 66/53/66
f 56/29/56 66/53/66 135/77/131
f 24/21/24 127/80/125 133/79/129
f 133/79/129 127/80/125 128/81/126
f 133/79/129 128/81/126 134/85/130
f 134/85/130 128/81/126 126/79/124
f 134/85/130 126/79/124 71/51/71
f 71/51/71 126/79/124 124/78/122
f 71/51/71 124/78/122 70/55/70
f 70/55/70 124/78/122 53/47/53
f 70/55/70 53/47/53 68/54/68
f 68/54/68 53/47/53 7/7/7
f 68/54/68 7/7/7 66/53/66
f 66/53/66 7/7/7 16/15/16
f 66/53/66 16/15/16 135/77/131
f 135/77/131 16/15/16 49/43/49
f 135/77/131 49/43/49 116/76/114
f 116/76/114 49/43/49 51/45/51
f 116/76/114 51/45/51 63/43/63
f 63/43/63 51/45/51 136/44/132
f 63/43/63 136/44/132 64/52/64
f 120/55/118 15/14/15 119/54/117
f 119/54/117 15/14/15 14/13/14
f 119/54/117 14/13/14 118/53/116
f 118/53/116 14/13/14 32/29/32
f 118/53/116 32/29/32 117/77/115
f 117/77/115 32/29/32 34/31/34
f 117/77/115 34/31/34 116/76/114
f 116/76/114 34/31/34 137/86/78
f 116/76/114 137/86/78 135/77/131
f 135/77/131 137/86/78 138/31/133
f 135/77/131 138/31/133 56/29/56
f 56/29/56 138/31/133 33/30/33
f 56/29/56 33/30/33 55/49/55
f 55/49/55 33/30/33 32/29/32
f 55/49/55 32/29/32 10/10/10
f 10/10/10 32/29/32 13/12/13
f 10/10/10 13/12/13 58/11/58
f 58/11/58 13/12/13 15/14/15
f 58/11/58 15/14/15 59/51/59
f 59/51/59 15/14/15 120/55/118
f 59/51/59 120/55/118 132/78/128
f 132/78/128 120/55/118 111/47/109
f 132/78/128 111/47/109 25/22/25
f 25/22/25 111/47/109 113/73/111
f 25/22/25 113/73/111 26/23/26
f 26/23/26 113/73/111 115/75/113
o editpl_f-0000-1884
v 2.449650 51.388420 -15.453362
v 2.182463 52.123135 -13.492936
v 0.000000 49.293354 -14.266438
v -8.920322 52.042927 4.674345
v -9.817116 51.086830 2.450529
v -8.708689 51.080414 4.051988
v 8.560546 52.023674 0.310063
v 7.716660 55.145416 2.424967
v 8.221934 55.058792 0.183369
v 0.000000 53.961529 -14.672081
v 2.182463 52.123135 -13.492936
v 3.439033 49.877277 -10.595640
v 0.000000 50.294365 -12.907253
v -2.182463 52.123135 -13.492936
v -3.439033 56.258720 -12.771667
v 0.000000 53.961529 -14.672081
v 7.716660 55.145416 2.424967
v 7.179642 52.017258 2.364954
v 8.920322 52.042927 4.674345
v 0.000000 50.294365 -12.907253
v -2.182463 52.123135 -13.492936
v -2.449650 51.388420 -15.453362
v 0.000000 53.316647 -16.562492
v 0.000000 48.581097 -16.409124
v -2.163945 50.188488 -17.577156
v 0.000000 51.629047 -18.375109
v 2.163945 50.188488 -17.577156
v 10.481114 51.981968 2.450529
v 9.975840 55.248085 2.250485
v 9.269516 55.315460 4.555430
v -7.179642 52.017258 2.364954
v -7.243132 51.163834 2.484980
v -8.560546 52.023674 0.310063
v -8.391240 51.128540 0.770163
v -10.481114 51.981968 2.450529
v 0.000000 48.330845 -10.403376
v -3.439033 49.877277 -10.595640
v -4.962789 53.233231 -11.780342
v 0.000000 57.619068 -13.716319
v 3.439033 56.258720 -12.771667
v 4.962789 53.233231 -11.780342
v -9.975840 55.248085 2.250485
v -8.221934 55.058792 0.183369
v -7.637298 55.145416 2.424967
v -9.269516 55.315460 4.555430
v 7.243132 51.163834 2.484980
v 8.669008 51.099667 4.071992
v 9.817116 51.086830 2.450529
v 8.576419 51.128540 0.770163
vn 0.9999 -0.0000 -0.0157
vn 0.7363 -0.2351 -0.6345
vn -0.0000 -0.8976 0.4409
vn -0.0157 -0.2036 0.9789
vn -0.9576 -0.2826 -0.0550
vn -0.0079 -0.0315 0.9995
vn -0.1101 -0.2281 -0.9674
vn -0.9499 -0.1335 0.2826
vn 0.5888 -0.5182 -0.6203
vn -0.0000 0.4314 -0.9022
vn 0.7363 -0.2350 -0.6345
vn 0.4264 -0.6396 -0.6396
vn -0.0000 -0.9195 -0.3930
vn -0.7363 -0.2350 -0.6345
vn -0.4552 0.0785 -0.8869
vn -0.9499 -0.1334 0.2826
vn -0.9964 -0.0470 0.0706
vn 0.0078 -0.1961 0.9806
vn 0.0001 -0.9195 -0.3930
vn -0.9999 -0.0000 -0.0158
vn -0.0000 0.8864 -0.4629
vn -0.0000 -0.9354 0.3537
vn -0.9842 -0.0630 -0.1653
vn -0.0000 0.7778 -0.6285
vn 0.9842 -0.0630 -0.1653
vn 0.9635 -0.2506 -0.0940
vn 0.9810 -0.1648 -0.1020
vn 0.3862 -0.0236 0.9221
vn 0.9964 -0.0314 0.0784
vn 0.9979 -0.0157 0.0629
vn 0.1335 -0.2200 -0.9663
vn 0.1023 -0.1495 -0.9835
vn -0.9590 -0.2672 -0.0943
vn -0.0000 -0.7847 -0.6199
vn -0.4264 -0.6396 -0.6396
vn -0.5820 -0.2595 -0.7707
vn -0.0000 0.2517 -0.9678
vn 0.4552 0.0785 -0.8869
vn 0.5820 -0.2595 -0.7707
vn -0.9810 -0.1648 -0.1020
vn -0.5837 -0.5205 -0.6232
vn 0.7716 -0.3307 0.5433
vn -0.4088 -0.0314 0.9121
vn -0.9987 -0.0394 0.0315
vn -0.0000 -0.0315 0.9995
vn 0.9634 -0.2664 -0.0313
vn -0.0547 -0.1642 -0.9849
vt 0.324219 0.394531
vt 0.324219 0.332031
vt 0.406250 0.394531
vt 0.835938 0.320312
vt 0.914062 0.361877
vt 0.835938 0.361877
vt 0.987640 0.320312
vt 0.914062 0.187500
vt 0.987640 0.187500
vt 0.277344 0.332031
vt 0.835938 0.828125
vt 0.960938 0.914062
vt 0.898438 0.781250
vt 0.726562 0.921875
vt 0.781250 0.781250
vt 0.914062 0.320312
vt 0.371094 0.332031
vt 0.246094 0.394531
vt 0.391510 0.457031
vt 0.324219 0.464844
vt 0.254578 0.457031
vt 0.835938 0.187500
vt 0.987640 0.361877
vt 0.984375 0.804688
vt 0.835938 0.968750
vt 0.695312 0.812500
s 1
usemtl f_hair096
f 139/87/134 140/88/135 141/89/136
f 142/90/137 143/91/138 144/92/139
f 145/93/140 146/94/141 147/95/142
f 140/88/135 139/87/134 148/96/143
f 149/97/144 150/98/145 151/99/146
f 152/97/147 153/100/148 154/101/143
f 155/94/149 156/102/150 157/90/151
f 140/88/135 158/103/152 141/89/136
f 141/89/136 158/103/152 159/88/147
f 141/89/136 159/88/147 160/87/153
f 160/87/153 159/88/147 148/96/143
f 160/87/153 148/96/143 161/104/154
f 161/104/154 148/96/143 139/87/134
f 162/105/155 141/89/136 163/106/156
f 163/106/156 141/89/136 160/87/153
f 163/106/156 160/87/153 164/107/157
f 164/107/157 160/87/153 161/104/154
f 164/107/157 161/104/154 165/106/158
f 165/106/158 161/104/154 139/87/134
f 165/106/158 139/87/134 162/105/155
f 162/105/155 139/87/134 141/89/136
f 145/93/140 147/95/142 166/102/159
f 166/102/159 147/95/142 167/94/160
f 166/102/159 167/94/160 157/90/151
f 157/90/151 167/94/160 168/108/161
f 157/90/151 168/108/161 155/94/149
f 142/90/137 144/92/139 169/102/162
f 169/102/162 144/92/139 170/91/163
f 169/102/162 170/91/163 171/93/164
f 171/93/164 170/91/163 172/109/165
f 171/93/164 172/109/165 173/102/166
f 173/102/166 172/109/165 143/91/138
f 150/98/145 174/110/167 151/99/146
f 151/99/146 174/110/167 175/98/168
f 151/99/146 175/98/168 152/97/147
f 152/97/147 175/98/168 176/111/169
f 152/97/147 176/111/169 153/100/148
f 153/100/148 177/112/170 154/101/143
f 154/101/143 177/112/170 178/100/171
f 154/101/143 178/100/171 149/97/144
f 149/97/144 178/100/171 179/111/172
f 149/97/144 179/111/172 150/98/145
f 143/91/138 142/90/137 173/102/166
f 173/102/166 142/90/137 180/94/173
f 173/102/166 180/94/173 171/93/164
f 171/93/164 180/94/173 181/95/174
f 171/93/164 181/95/174 169/102/162
f 169/102/162 181/95/174 182/94/175
f 169/102/162 182/94/175 142/90/137
f 142/90/137 182/94/175 183/108/176
f 142/90/137 183/108/176 180/94/173
f 146/94/141 145/93/140 156/102/150
f 156/102/150 145/93/140 184/91/177
f 156/102/150 184/91/177 157/90/151
f 157/90/151 184/91/177 185/92/178
f 157/90/151 185/92/178 166/102/159
f 166/102/159 185/92/178 186/91/179
f 166/102/159 186/91/179 145/93/140
f 145/93/140 186/91/179 187/109/180
f 145/93/140 187/109/180 184/91/177
