mtllib f_hair007.mtl
o editpl_f-0000-1908
v 9.560511 57.009480 -2.307172
v 8.507638 59.303459 0.877965
v 7.774860 57.105728 2.220479
v 0.000000 52.437553 -11.661427
v 0.000000 57.198772 -12.751665
v 5.129450 57.253315 -11.374699
v 5.846356 48.642056 -2.102683
v 7.118798 51.635464 -5.757922
v 7.568518 52.386223 -3.186252
v 6.811930 42.825287 4.031984
v 4.753801 41.769733 5.983520
v 6.579134 42.960037 1.867069
v 3.753837 60.269180 10.543397
v 0.000000 60.243511 12.221540
v 0.000000 56.396679 12.899467
v -2.261825 66.044243 -8.479626
v -2.573984 67.686928 -3.736373
v 0.000000 67.568214 -3.736373
v -9.560511 57.009480 -2.307172
v -7.893903 54.888748 -0.424541
v -7.774860 57.105728 2.220479
v -3.838490 36.431011 -14.655410
v -3.415224 31.750002 -15.331112
v 0.000000 33.270767 -12.578292
v -5.274947 65.232521 -7.997298
v -5.449544 62.543911 -11.085747
v -2.153364 65.649612 5.341156
v -3.798809 65.303108 6.319146
v 0.000000 65.704155 5.618994
v -5.899264 65.964027 -3.736373
v -4.981307 65.983284 1.370293
v 3.727382 56.550682 11.570289
v 2.997249 46.729870 -9.818804
v 0.000000 47.535172 -11.983719
v 5.002470 50.820538 -9.014185
v -2.997249 46.729870 -9.818804
v -1.872950 44.262634 -11.056850
v -5.428381 53.175480 8.628538
v -3.486650 52.938061 10.735662
v -6.420410 56.662975 9.242004
v 6.531517 48.048508 -15.079947
v 10.962578 47.823921 -10.099977
v 9.245707 42.741871 -9.376485
v 2.489331 66.945793 1.724814
v 2.153364 65.649612 5.341156
v 4.981307 65.983284 1.370293
v 4.309373 64.972649 5.062206
v 8.089663 62.595245 1.318059
v 9.266871 57.404106 -0.128921
v 8.089663 62.595245 1.318059
v 7.388630 62.367451 3.728583
v 4.309373 64.972649 5.062206
v 1.872950 44.262634 -11.056850
v 0.000000 44.878639 -12.087075
v 8.438857 62.454079 -6.643671
v 5.449544 62.543911 -11.085747
v 5.274947 65.232521 -7.997298
v 2.261825 66.044243 -8.479626
v 10.417624 58.029739 -8.143997
v 11.451979 57.554901 -2.254938
v 12.711194 52.719891 -3.787494
v 2.573984 67.686928 -3.736373
v 5.899264 65.964027 -3.736373
v 9.176927 62.524662 -2.858404
v 8.089663 62.595245 1.318059
v 10.002295 47.464584 -3.721924
v 8.002365 41.506645 -2.731708
v 10.346198 42.138695 -4.127567
v -5.129450 57.253315 -11.374699
v -5.002470 50.820538 -9.014185
v -8.928258 56.181721 -6.808150
v -9.245707 42.741871 -9.376485
v -10.962578 47.823921 -10.099977
v -5.658532 42.735451 -13.486267
v 4.745865 47.644253 -5.598999
v 4.756447 46.078571 -5.860165
v 0.000000 45.539566 -8.714120
v -6.854257 54.051365 5.633442
v -7.923002 57.006271 4.559875
v -7.608199 59.775089 4.596550
v 8.944131 51.927425 3.188467
v 8.245742 47.355499 3.425185
v 8.076436 47.342667 0.322288
v 8.840960 52.325260 -0.370084
v 8.877995 57.423359 3.472973
v 6.391310 46.899914 5.207795
v 0.000000 66.307327 -8.462955
v 0.000000 64.398346 -10.642318
v 0.000000 62.505409 -12.418259
v -8.089663 62.595245 1.318059
v -8.507638 59.303459 0.877965
v -10.346198 42.138695 -4.127567
v -8.002365 41.506645 -2.731708
v -12.436072 47.310585 -4.336501
v 0.000000 45.539566 -8.714120
v -4.756447 46.078571 -5.860165
v -4.745865 47.644253 -5.598999
v -5.846356 48.642056 -2.102683
v -7.118798 51.635464 -5.757922
v -7.568518 52.386223 -3.186252
v -10.346198 42.138695 -4.127567
v -12.436072 47.310585 -4.336501
v -12.711194 52.719891 -3.787494
v 0.000000 43.367500 -13.065063
v 1.378259 42.597492 -12.091520
v 0.000000 36.177547 -16.790318
v 2.970795 35.673836 -15.014377
v 0.000000 27.813334 -16.960354
v 1.603118 29.510561 -15.205529
v 1.378259 42.597492 -12.091520
v 0.000000 41.673485 -10.414488
v 2.970795 35.673836 -15.014377
v 0.000000 36.139050 -13.022833
v 1.603118 29.510561 -15.205529
v 0.000000 31.114744 -13.590733
v 0.000000 43.367500 -13.065063
v -1.378259 42.597492 -12.091520
v 1.378259 42.597492 -12.091520
v 0.000000 41.673485 -10.414488
v -1.378259 42.597492 -12.091520
v -2.970795 35.673836 -15.014377
v -1.603118 29.510561 -15.205529
v -1.378259 42.597492 -12.091520
v -2.970795 35.673836 -15.014377
v -1.603118 29.510561 -15.205529
v 12.436072 47.310585 -4.336501
v 10.306517 52.245052 -3.618568
v 9.560511 57.009480 -2.307172
v 0.000000 53.438564 -16.194633
v 6.187614 58.498161 -13.449594
v 6.473318 53.608608 -14.886572
v 11.086913 53.493107 -9.594311
v 12.436072 47.310585 -4.336501
v -3.727382 56.550682 11.570289
v -3.753837 60.269180 10.543397
v -6.415119 60.131222 8.198443
v -3.518395 63.731007 8.306244
v -5.597687 63.211250 6.893715
v -4.309373 64.972649 5.062206
v 6.420410 56.662975 9.242004
v 7.923002 57.006271 4.559875
v 6.415119 60.131222 8.198443
v 7.608199 59.775089 4.596550
v 5.597687 63.211250 6.893715
v 6.647915 61.972820 4.633224
v 4.309373 64.972649 5.062206
v -6.391310 46.899914 5.207795
v -8.245742 47.355499 3.425185
v -4.753801 41.769733 5.983520
v -6.811930 42.825287 4.031984
v -6.579134 42.960037 1.867069
v -8.076436 47.342667 0.322288
v -8.840960 52.325260 -0.370084
v -4.309373 64.972649 5.062206
v -7.388630 62.367451 3.728583
v -6.647915 61.972820 4.633224
v -8.877995 57.423359 3.472973
v -7.391275 57.141022 4.959963
v -8.944131 51.927425 3.188467
v -7.354239 51.850426 4.806596
v 8.928258 56.181721 -6.808150
v -6.531517 48.048508 -15.079947
v 0.000000 47.987549 -16.331331
v 0.000000 42.530117 -14.937694
v 5.658532 42.735451 -13.486267
v -8.089663 62.595245 1.318059
v -9.266871 57.404106 -0.128921
v -6.647915 61.972820 4.633224
v 0.000000 52.578724 11.883690
v 0.000000 62.941750 10.640085
v 3.518395 63.731007 8.306244
v 0.000000 64.921310 8.864144
v 3.798809 65.303108 6.319146
v 0.000000 65.931946 6.711453
v -8.438857 62.454079 -6.643671
v -10.417624 58.029739 -8.143997
v -10.002295 47.464584 -3.721924
v -10.306517 52.245052 -3.618568
v -9.560511 57.009480 -2.307172
v -11.451979 57.554901 -2.254938
v -8.089663 62.595245 1.318059
v -9.176927 62.524662 -2.858404
v 0.000000 38.298279 -17.043707
v 0.000000 32.439800 -17.985022
v 3.838490 36.431011 -14.655410
v 3.415224 31.750002 -15.331112
v 0.000000 37.117599 -11.940376
v 0.000000 43.454124 -9.647655
v 2.372933 45.173813 -7.997296
v 7.893903 54.888748 -0.424541
v 7.354239 51.850426 4.806596
v 7.391275 57.141022 4.959963
v 6.647915 61.972820 4.633224
v -2.372933 45.173813 -7.997296
v 0.000000 43.454124 -9.647655
v -2.489331 66.945793 1.724814
v 0.000000 66.769333 1.649242
v 0.000000 58.408325 -14.776548
v -6.187614 58.498161 -13.449594
v -11.086913 53.493107 -9.594311
v -6.473318 53.608608 -14.886572
v 2.153364 65.649612 5.341156
v 2.153364 65.649612 5.341156
v 0.000000 56.396679 12.899467
v 3.486650 52.938061 10.735662
v 5.428381 53.175480 8.628538
v 6.854257 54.051365 5.633442
v 0.000000 43.736462 -12.771667
v 1.648090 43.024204 -11.693655
v 0.000000 42.417824 -10.233337
v -1.648090 43.024204 -11.693655
v 10.346198 42.138695 -4.127567
v 9.245707 42.741871 -9.376485
v -4.309373 64.972649 5.062206
v -2.153364 65.649612 5.341156
v 0.000000 66.769333 1.649242
v 0.000000 65.704155 5.618994
vn 0.7998 -0.3293 0.5018
vn 0.9518 -0.0000 0.3068
vn 0.9040 -0.2280 0.3616
vn -0.0000 -0.1733 -0.9849
vn -0.0000 -0.2203 -0.9754
vn 0.4550 -0.2745 -0.8471
vn 0.9415 -0.2982 -0.1569
vn 0.8709 -0.4472 -0.2040
vn 0.9121 -0.4089 0.0314
vn 0.8096 -0.5502 0.2044
vn 0.6706 -0.6469 0.3630
vn 0.7234 -0.6840 -0.0944
vn 0.4789 0.3768 0.7929
vn -0.0000 0.3606 0.9327
vn -0.0000 -0.0157 0.9999
vn -0.1968 0.8265 -0.5274
vn -0.1970 0.9772 -0.0788
vn -0.0000 0.9969 -0.0785
vn -0.7998 -0.3293 0.5018
vn -0.8642 -0.3928 0.3143
vn -0.9040 -0.2280 0.3616
vn -0.9636 0.2271 -0.1410
vn -0.9992 -0.0393 0.0078
vn -0.0000 -0.1810 0.9835
vn -0.5334 0.7453 -0.4001
vn -0.4151 0.6030 -0.6813
vn -0.1887 0.9749 0.1179
vn -0.3947 0.8763 0.2763
vn -0.0000 0.9910 0.1337
vn -0.6280 0.7772 -0.0393
vn -0.5662 0.7943 0.2202
vn 0.4776 -0.0548 0.8769
vn 0.8327 -0.2906 -0.4714
vn -0.0000 0.0236 -0.9997
vn 0.6997 -0.2909 -0.6525
vn -0.8327 -0.2906 -0.4714
vn -0.8018 -0.3459 -0.4874
vn -0.8602 -0.2737 0.4302
vn -0.5732 -0.2591 0.7774
vn -0.8172 -0.1100 0.5658
vn 0.4959 -0.1338 -0.8580
vn 0.8658 -0.1653 -0.4723
vn 0.8247 -0.3456 -0.4477
vn 0.1807 0.9586 0.2200
vn 0.1887 0.9749 0.1179
vn 0.5662 0.7943 0.2202
vn 0.6369 0.7314 0.2438
vn 0.8389 0.4077 0.3606
vn 0.9819 0.1257 0.1414
vn 0.8389 0.4076 0.3606
vn 0.8329 0.3457 0.4322
vn 0.6370 0.7313 0.2438
vn 0.8018 -0.3459 -0.4874
vn -0.0000 0.0315 -0.9995
vn 0.7905 0.5478 -0.2739
vn 0.4151 0.6030 -0.6813
vn 0.5334 0.7452 -0.4001
vn 0.1968 0.8265 -0.5274
vn 0.8462 0.3526 -0.3996
vn 0.9089 0.1802 0.3761
vn 0.9213 0.0472 0.3859
vn 0.1970 0.9772 -0.0788
vn 0.6280 0.7772 -0.0392
vn 0.8284 0.5601 0.0079
vn 0.2753 -0.0551 0.9598
vn 0.3927 -0.0393 0.9188
vn -0.4550 -0.2745 -0.8471
vn -0.6997 -0.2909 -0.6525
vn -0.8779 -0.3684 -0.3057
vn -0.8247 -0.3456 -0.4477
vn -0.8658 -0.1653 -0.4723
vn -0.4814 -0.3078 -0.8207
vn 0.8642 -0.3143 -0.3928
vn 0.7700 0.1100 -0.6285
vn 0.4954 0.1415 -0.8571
vn -0.9076 -0.1878 0.3756
vn -0.9370 -0.1338 0.3228
vn -0.9240 0.2819 0.2584
vn 0.9235 -0.0783 0.3756
vn 0.9192 -0.1885 0.3457
vn 0.9678 -0.2439 -0.0629
vn 0.9956 -0.0941 -0.0000
vn 0.9064 0.1025 0.4098
vn 0.7079 -0.0944 0.7000
vn -0.0000 0.8730 -0.4876
vn -0.0000 0.7149 -0.6992
vn -0.0000 0.5975 -0.8019
vn -0.8389 0.4076 0.3606
vn -0.9518 -0.0000 0.3068
vn -0.3927 -0.0393 0.9188
vn -0.2753 -0.0550 0.9598
vn -0.4954 0.1415 -0.8571
vn -0.7700 0.1100 -0.6285
vn -0.8642 -0.3143 -0.3928
vn -0.9412 -0.2984 -0.1582
vn -0.8709 -0.4472 -0.2040
vn -0.9121 -0.4089 0.0314
vn -0.9032 -0.3534 -0.2435
vn -0.9508 -0.1808 -0.2515
vn -0.9213 0.0472 0.3859
vn -0.0000 0.8782 -0.4783
vn 0.7275 0.6023 0.3285
vn -0.0000 0.2352 -0.9720
vn 1.0000 -0.0000 0.0079
vn -0.0000 -0.0472 -0.9989
vn 0.9909 -0.1337 0.0158
vn 0.7274 0.6024 0.3286
vn -0.0000 0.1733 0.9849
vn -0.0000 -0.2277 0.9737
vn 0.9909 -0.1337 0.0157
vn -0.0000 -0.1491 0.9888
vn -0.7275 0.6023 0.3286
vn -0.7275 0.6024 0.3285
vn -1.0000 -0.0000 0.0079
vn -0.9909 -0.1337 0.0158
vn -0.9909 -0.1337 0.0157
vn 0.1252 -0.1644 0.9784
vn -0.0000 0.1961 -0.9806
vn 0.4313 0.3686 -0.8235
vn 0.5582 0.1808 -0.8098
vn 0.8791 0.1413 -0.4552
vn 0.9508 -0.1807 -0.2515
vn -0.4776 -0.0548 0.8769
vn -0.4789 0.3768 0.7929
vn -0.7703 0.3223 0.5502
vn -0.4635 0.5734 0.6756
vn -0.7801 0.5358 0.3231
vn -0.6370 0.7314 0.2437
vn 0.8172 -0.1100 0.5658
vn 0.9370 -0.1338 0.3228
vn 0.7703 0.3223 0.5502
vn 0.9240 0.2819 0.2584
vn 0.7801 0.5358 0.3231
vn 0.8031 0.4094 0.4330
vn 0.6370 0.7314 0.2437
vn -0.7079 -0.0944 0.7000
vn -0.9192 -0.1885 0.3457
vn -0.6707 -0.6469 0.3629
vn -0.8096 -0.5502 0.2044
vn -0.7234 -0.6840 -0.0943
vn -0.9678 -0.2439 -0.0630
vn -0.9956 -0.0941 -0.0000
vn -0.6370 0.7313 0.2438
vn -0.8329 0.3457 0.4322
vn -0.8030 0.4094 0.4331
vn -0.9065 0.1027 0.4095
vn -0.7096 0.0631 0.7017
vn -0.9235 -0.0782 0.3756
vn -0.7063 -0.0471 0.7063
vn 0.8779 -0.3684 -0.3057
vn -0.4959 -0.1338 -0.8580
vn -0.0000 -0.1260 -0.9920
vn -0.0000 -0.2830 -0.9591
vn 0.4814 -0.3078 -0.8207
vn -0.9819 0.1257 0.1414
vn -0.8031 0.4094 0.4330
vn -0.0000 -0.2517 0.9678
vn -0.0000 0.5798 0.8147
vn 0.4635 0.5734 0.6756
vn -0.0000 0.7914 0.6112
vn 0.3947 0.8763 0.2763
vn -0.0000 0.9806 0.1961
vn -0.7905 0.5478 -0.2739
vn -0.8462 0.3526 -0.3996
vn -0.1252 -0.1644 0.9784
vn -0.7998 -0.3294 0.5018
vn -0.9089 0.1802 0.3761
vn -0.8389 0.4077 0.3606
vn -0.8284 0.5601 0.0079
vn -0.0000 0.3768 -0.9263
vn -0.0000 0.1173 -0.9931
vn 0.9636 0.2272 -0.1410
vn 0.9992 -0.0394 0.0078
vn -0.0000 -0.2111 0.9775
vn 0.4963 -0.8507 0.1733
vn 0.7707 -0.6370 -0.0158
vn 0.8642 -0.3928 0.3143
vn 0.7063 -0.0471 0.7063
vn 0.7096 0.0631 0.7017
vn 0.8030 0.4094 0.4331
vn -0.7707 -0.6370 -0.0158
vn -0.4963 -0.8507 0.1732
vn -0.1807 0.9586 0.2200
vn 0.0002 0.9755 0.2201
vn -0.0000 0.4314 -0.9021
vn -0.4313 0.3686 -0.8235
vn -0.8791 0.1413 -0.4553
vn -0.5582 0.1808 -0.8098
vn -0.0000 -0.0158 0.9999
vn 0.5732 -0.2591 0.7774
vn 0.8602 -0.2737 0.4302
vn 0.9076 -0.1878 0.3756
vn -0.0000 0.6152 -0.7884
vn 0.9656 0.2277 0.1256
vn -0.0000 -0.2425 0.9701
vn -0.9656 0.2277 0.1256
vn 0.9032 -0.3534 -0.2435
vn 0.8247 -0.3456 -0.4476
vn -0.6369 0.7313 0.2438
vn -0.1887 0.9749 0.1180
vn -0.0000 0.9754 0.2203
vn 0.1887 0.9749 0.1180
vt 0.605988 0.018250
vt 0.490997 0.055847
vt 0.490997 0.132843
vt 0.987946 0.159332
vt 0.987946 0.011414
vt 0.862335 0.011414
vt 0.693848 0.292206
vt 0.773621 0.184387
vt 0.693848 0.132843
vt 0.653381 0.960388
vt 0.723145 0.985016
vt 0.562103 0.950592
vt 0.306610 0.167572
vt 0.243774 0.169525
vt 0.243774 0.234100
vt 0.236847 0.404663
vt 0.398407 0.398071
vt 0.404114 0.350708
vt 0.585602 0.132843
vt 0.749115 0.731049
vt 0.749115 0.987061
vt 0.869171 0.987061
vt 0.250305 0.445160
vt 0.161011 0.493591
vt 0.180176 0.031097
vt 0.138885 0.076355
vt 0.243774 0.024841
vt 0.348419 0.445465
vt 0.473633 0.445465
vt 0.306244 0.230194
vt 0.887787 0.293945
vt 0.987946 0.276520
vt 0.866333 0.209778
vt 0.923004 0.347626
vt 0.092651 0.305328
vt 0.166534 0.313049
vt 0.112488 0.222290
vt 0.130310 0.858887
vt 0.241577 0.859283
vt 0.244965 0.983002
vt 0.475616 0.397705
vt 0.550903 0.397308
vt 0.552673 0.445465
vt 0.491608 0.517670
vt 0.505310 0.627014
vt 0.550659 0.508545
vt 0.670990 0.513794
vt 0.710419 0.454315
vt 0.987946 0.322357
vt 0.265106 0.533691
vt 0.238159 0.629974
vt 0.423981 0.646149
vt 0.393646 0.743927
vt 0.389648 0.525696
vt 0.490997 0.011841
vt 0.477692 0.856262
vt 0.478119 0.985474
vt 0.385254 0.987000
vt 0.721924 0.025146
vt 0.131287 0.982208
vt 0.782501 0.309052
vt 0.782166 0.375031
vt 0.014435 0.296875
vt 0.030212 0.200623
vt 0.047394 0.143829
vt 0.655029 0.751923
vt 0.654205 0.856140
vt 0.522217 0.846710
vt 0.502228 0.742859
vt 0.660004 0.626556
vt 0.723145 0.872009
vt 0.223419 0.364166
vt 0.147217 0.387787
vt 0.071014 0.411377
vt 0.389435 0.860382
vt 0.903900 0.426758
vt 0.785278 0.426758
vt 0.903900 0.711914
vt 0.785278 0.711914
vt 0.903900 0.987732
vt 0.785278 0.987732
vt 0.905731 0.426758
vt 0.784393 0.426758
vt 0.905731 0.711914
vt 0.784393 0.711914
vt 0.905731 0.987732
vt 0.784393 0.987732
vt 0.869171 0.433472
vt 0.749115 0.433472
vt 0.988068 0.433472
vt 0.477264 0.747681
vt 0.477234 0.646027
vt 0.011932 0.737640
vt 0.138580 0.621124
vt 0.129333 0.745667
vt 0.238159 0.745667
vt 0.181274 0.230194
vt 0.180939 0.167572
vt 0.108765 0.160828
vt 0.180573 0.112274
vt 0.105011 0.114716
vt 0.114441 0.052795
vt 0.375031 0.222290
vt 0.457306 0.200623
vt 0.378784 0.160828
vt 0.440155 0.143829
vt 0.382507 0.114716
vt 0.422974 0.102386
vt 0.373077 0.052795
vt 0.723145 0.522766
vt 0.723145 0.632965
vt 0.723145 0.753662
vt 0.011932 0.855255
vt 0.011932 0.983002
vt 0.064545 0.102386
vt 0.243774 0.315552
vt 0.243774 0.112274
vt 0.306946 0.112274
vt 0.243774 0.078094
vt 0.348633 0.076355
vt 0.243774 0.045532
vt 0.869171 0.731049
vt 0.988068 0.731049
vt 0.988068 0.987061
vt 0.987946 0.381195
vt 0.916229 0.375214
vt 0.479462 0.349945
vt 0.011932 0.629974
vt 0.307343 0.031097
vt 0.321014 0.313049
vt 0.394897 0.305328
vt 0.473083 0.296875
vt 0.554779 0.349182
s 1
usemtl f_hair0111
f 1/1/1 2/2/2 3/3/3
f 4/4/4 5/5/5 6/6/6
f 7/7/7 8/8/8 9/9/9
f 10/10/10 11/11/11 12/12/12
f 13/13/13 14/14/14 15/15/15
f 16/16/16 17/17/17 18/18/18
f 19/1/19 20/19/20 21/3/21
f 22/20/22 23/21/23 24/22/24
f 25/23/25 16/16/16 26/24/26
f 27/25/27 28/26/28 29/27/29
f 30/28/30 31/29/31 17/17/17
f 32/30/32 13/13/13 15/15/15
f 33/31/33 34/32/34 35/33/35
f 36/31/36 34/32/34 37/34/37
f 38/35/38 39/36/39 40/37/40
f 41/38/41 42/39/42 43/40/43
f 44/41/44 45/42/45 46/29/46
f 46/29/46 45/42/45 47/43/47
f 46/29/46 47/43/47 48/44/48
f 49/45/49 50/46/50 51/47/51
f 51/47/51 50/46/50 52/48/52
f 33/31/33 53/34/53 34/32/34
f 34/32/34 53/34/53 54/49/54
f 34/32/34 54/49/54 37/34/37
f 55/50/55 56/24/56 57/23/57
f 57/23/57 56/24/56 58/16/58
f 59/51/59 60/52/60 61/53/61
f 58/16/58 62/17/62 57/23/57
f 57/23/57 62/17/62 63/28/63
f 57/23/57 63/28/63 55/50/55
f 55/50/55 63/28/63 64/54/64
f 2/2/2 1/1/1 65/55/50
f 66/56/65 67/57/66 68/58/66
f 5/5/5 4/4/4 69/6/67
f 69/6/67 4/4/4 70/33/68
f 69/6/67 70/33/68 71/59/69
f 72/40/70 73/39/71 74/60/72
f 8/8/8 7/7/7 75/61/73
f 75/61/73 7/7/7 76/62/74
f 75/61/73 76/62/74 77/7/75
f 78/63/76 38/35/38 79/64/77
f 79/64/77 38/35/38 40/37/40
f 79/64/77 40/37/40 80/65/78
f 81/66/79 82/67/80 83/68/81
f 83/68/81 84/69/82 81/66/79
f 81/66/79 84/69/82 49/45/49
f 81/66/79 49/45/49 85/70/83
f 85/70/83 49/45/49 51/47/51
f 11/11/11 10/10/10 86/71/84
f 18/18/18 87/72/85 16/16/16
f 16/16/16 87/72/85 88/73/86
f 16/16/16 88/73/86 26/24/26
f 26/24/26 88/73/86 89/74/87
f 90/55/88 19/1/19 91/2/89
f 91/2/89 19/1/19 21/3/21
f 92/58/90 93/57/90 94/75/91
f 95/7/92 96/62/93 97/61/94
f 97/61/94 96/62/93 98/7/95
f 97/61/94 98/7/95 99/8/96
f 99/8/96 98/7/95 100/9/97
f 72/40/70 101/58/98 73/39/71
f 73/39/71 101/58/98 102/75/99
f 73/39/71 102/75/99 103/53/100
f 104/76/101 105/77/102 106/78/103
f 106/78/103 105/77/102 107/79/104
f 106/78/103 107/79/104 108/80/105
f 108/80/105 107/79/104 109/81/106
f 110/82/107 111/83/108 112/84/104
f 112/84/104 111/83/108 113/85/109
f 112/84/104 113/85/109 114/86/110
f 114/86/110 113/85/109 115/87/111
f 116/88/101 117/89/112 118/90/102
f 118/90/102 117/89/112 119/88/108
f 120/77/113 104/76/101 121/79/114
f 121/79/114 104/76/101 106/78/103
f 121/79/114 106/78/103 122/81/115
f 122/81/115 106/78/103 108/80/105
f 111/83/108 123/82/113 113/85/109
f 113/85/109 123/82/113 124/84/114
f 113/85/109 124/84/114 115/87/111
f 115/87/111 124/84/114 125/86/116
f 68/58/66 126/75/65 66/56/65
f 66/56/65 126/75/65 61/53/61
f 66/56/65 61/53/61 127/91/117
f 127/91/117 61/53/61 60/52/60
f 127/91/117 60/52/60 128/92/1
f 128/92/1 60/52/60 48/44/48
f 129/93/118 130/94/119 131/95/120
f 131/95/120 130/94/119 59/51/59
f 131/95/120 59/51/59 132/96/121
f 132/96/121 59/51/59 61/53/61
f 132/96/121 61/53/61 133/75/122
f 134/97/123 135/98/124 136/99/125
f 136/99/125 135/98/124 137/100/126
f 136/99/125 137/100/126 138/101/127
f 138/101/127 137/100/126 28/26/28
f 138/101/127 28/26/28 139/102/128
f 139/102/128 28/26/28 27/25/27
f 140/103/129 141/104/130 142/105/131
f 142/105/131 141/104/130 143/106/132
f 142/105/131 143/106/132 144/107/133
f 144/107/133 143/106/132 145/108/134
f 144/107/133 145/108/134 146/109/135
f 147/71/136 148/67/137 149/11/138
f 149/11/138 148/67/137 150/10/139
f 149/11/138 150/10/139 151/12/140
f 151/12/140 150/10/139 148/67/137
f 151/12/140 148/67/137 152/68/141
f 152/68/141 148/67/137 153/69/142
f 154/48/143 155/47/144 156/110/145
f 156/110/145 155/47/144 157/70/146
f 156/110/145 157/70/146 158/111/147
f 158/111/147 157/70/146 159/66/148
f 158/111/147 159/66/148 160/112/149
f 36/31/36 70/33/68 34/32/34
f 34/32/34 70/33/68 4/4/4
f 34/32/34 4/4/4 35/33/35
f 35/33/35 4/4/4 6/6/6
f 35/33/35 6/6/6 161/59/150
f 73/39/71 162/38/151 74/60/72
f 74/60/72 162/38/151 163/113/152
f 74/60/72 163/113/152 164/114/153
f 164/114/153 163/113/152 41/38/41
f 164/114/153 41/38/41 165/60/154
f 165/60/154 41/38/41 43/40/43
f 154/48/143 166/46/88 155/47/144
f 155/47/144 166/46/88 167/45/155
f 155/47/144 167/45/155 157/70/146
f 157/70/146 167/45/155 153/69/142
f 157/70/146 153/69/142 159/66/148
f 159/66/148 153/69/142 148/67/137
f 159/66/148 148/67/137 160/112/149
f 160/112/149 148/67/137 147/71/136
f 139/102/128 168/115/156 138/101/127
f 138/101/127 168/115/156 80/65/78
f 138/101/127 80/65/78 136/99/125
f 136/99/125 80/65/78 40/37/40
f 136/99/125 40/37/40 134/97/123
f 134/97/123 40/37/40 39/36/39
f 134/97/123 39/36/39 169/116/157
f 14/14/14 13/13/13 170/117/158
f 170/117/158 13/13/13 171/118/159
f 170/117/158 171/118/159 172/119/160
f 172/119/160 171/118/159 173/120/161
f 172/119/160 173/120/161 174/121/162
f 17/17/17 16/16/16 30/28/30
f 30/28/30 16/16/16 25/23/25
f 30/28/30 25/23/25 175/50/163
f 175/50/163 25/23/25 26/24/26
f 175/50/163 26/24/26 176/51/164
f 146/109/135 173/120/161 144/107/133
f 144/107/133 173/120/161 171/118/159
f 144/107/133 171/118/159 142/105/131
f 142/105/131 171/118/159 13/13/13
f 142/105/131 13/13/13 140/103/129
f 140/103/129 13/13/13 32/30/32
f 93/57/90 177/56/91 94/75/91
f 94/75/91 177/56/91 178/91/165
f 94/75/91 178/91/165 103/53/100
f 103/53/100 178/91/165 179/92/166
f 103/53/100 179/92/166 180/52/167
f 180/52/167 179/92/166 181/44/168
f 180/52/167 181/44/168 182/54/169
f 23/21/23 183/122/170 184/22/171
f 184/22/171 183/122/170 185/123/172
f 184/22/171 185/123/172 186/124/173
f 186/124/173 185/123/172 187/122/174
f 186/124/173 187/122/174 24/22/24
f 24/22/24 187/122/174 22/20/22
f 188/125/175 53/34/53 189/126/176
f 189/126/176 53/34/53 33/31/33
f 189/126/176 33/31/33 75/61/73
f 75/61/73 33/31/33 35/33/35
f 75/61/73 35/33/35 8/8/8
f 8/8/8 35/33/35 161/59/150
f 8/8/8 161/59/150 9/9/9
f 9/9/9 161/59/150 1/1/1
f 9/9/9 1/1/1 190/19/177
f 190/19/177 1/1/1 3/3/3
f 12/12/12 83/68/81 10/10/10
f 10/10/10 83/68/81 82/67/80
f 10/10/10 82/67/80 86/71/84
f 86/71/84 82/67/80 81/66/79
f 86/71/84 81/66/79 191/112/178
f 191/112/178 81/66/79 85/70/83
f 191/112/178 85/70/83 192/111/179
f 192/111/179 85/70/83 51/47/51
f 192/111/179 51/47/51 193/110/180
f 193/110/180 51/47/51 52/48/52
f 20/19/20 19/1/19 100/9/97
f 100/9/97 19/1/19 71/59/69
f 100/9/97 71/59/69 99/8/96
f 99/8/96 71/59/69 70/33/68
f 99/8/96 70/33/68 97/61/94
f 97/61/94 70/33/68 36/31/36
f 97/61/94 36/31/36 194/126/181
f 194/126/181 36/31/36 37/34/37
f 194/126/181 37/34/37 195/125/182
f 31/29/31 196/41/183 17/17/17
f 17/17/17 196/41/183 197/127/184
f 17/17/17 197/127/184 18/18/18
f 18/18/18 197/127/184 62/17/62
f 18/18/18 62/17/62 87/72/85
f 87/72/85 62/17/62 58/16/58
f 87/72/85 58/16/58 88/73/86
f 88/73/86 58/16/58 56/24/56
f 88/73/86 56/24/56 89/74/87
f 89/74/87 56/24/56 198/128/185
f 89/74/87 198/128/185 26/24/26
f 26/24/26 198/128/185 199/94/186
f 26/24/26 199/94/186 176/51/164
f 200/96/187 176/51/164 201/95/188
f 201/95/188 176/51/164 199/94/186
f 201/95/188 199/94/186 129/93/118
f 129/93/118 199/94/186 198/128/185
f 129/93/118 198/128/185 130/94/119
f 130/94/119 198/128/185 56/24/56
f 130/94/119 56/24/56 59/51/59
f 59/51/59 56/24/56 55/50/55
f 59/51/59 55/50/55 60/52/60
f 60/52/60 55/50/55 64/54/64
f 60/52/60 64/54/64 48/44/48
f 48/44/48 64/54/64 63/28/63
f 48/44/48 63/28/63 46/29/46
f 46/29/46 63/28/63 62/17/62
f 46/29/46 62/17/62 44/41/44
f 44/41/44 62/17/62 197/127/184
f 44/41/44 197/127/184 202/42/45
f 146/109/135 203/129/45 173/120/161
f 173/120/161 203/129/45 29/27/29
f 173/120/161 29/27/29 174/121/162
f 174/121/162 29/27/29 28/26/28
f 174/121/162 28/26/28 172/119/160
f 172/119/160 28/26/28 137/100/126
f 172/119/160 137/100/126 170/117/158
f 170/117/158 137/100/126 135/98/124
f 170/117/158 135/98/124 14/14/14
f 14/14/14 135/98/124 134/97/123
f 14/14/14 134/97/123 204/15/189
f 204/15/189 134/97/123 169/116/157
f 204/15/189 169/116/157 32/30/32
f 32/30/32 169/116/157 205/130/190
f 32/30/32 205/130/190 140/103/129
f 140/103/129 205/130/190 206/131/191
f 140/103/129 206/131/191 141/104/130
f 141/104/130 206/131/191 207/132/192
f 23/21/23 22/20/22 183/122/170
f 183/122/170 22/20/22 208/88/193
f 183/122/170 208/88/193 185/123/172
f 185/123/172 208/88/193 209/90/194
f 185/123/172 209/90/194 187/122/174
f 187/122/174 209/90/194 210/88/195
f 187/122/174 210/88/195 22/20/22
f 22/20/22 210/88/195 211/89/196
f 22/20/22 211/89/196 208/88/193
f 212/58/197 213/40/198 133/75/122
f 133/75/122 213/40/198 42/39/42
f 133/75/122 42/39/42 132/96/121
f 132/96/121 42/39/42 41/38/41
f 132/96/121 41/38/41 131/95/120
f 131/95/120 41/38/41 163/113/152
f 131/95/120 163/113/152 129/93/118
f 129/93/118 163/113/152 162/38/151
f 129/93/118 162/38/151 201/95/188
f 201/95/188 162/38/151 73/39/71
f 201/95/188 73/39/71 200/96/187
f 200/96/187 73/39/71 103/53/100
f 200/96/187 103/53/100 176/51/164
f 176/51/164 103/53/100 180/52/167
f 176/51/164 180/52/167 175/50/163
f 175/50/163 180/52/167 182/54/169
f 175/50/163 182/54/169 30/28/30
f 30/28/30 182/54/169 181/44/168
f 30/28/30 181/44/168 31/29/31
f 31/29/31 181/44/168 214/43/199
f 31/29/31 214/43/199 196/41/183
f 196/41/183 214/43/199 215/42/200
f 196/41/183 215/42/200 216/127/201
f 216/127/201 215/42/200 217/133/29
f 216/127/201 217/133/29 202/42/202
o editpl_f-0000-1909
v 2.277698 42.212486 -11.953712
v 0.000000 43.210289 -13.601848
v 0.000000 45.639027 -12.388252
v -2.277698 42.212486 -11.953712
v -2.298861 44.788807 -10.626758
v 0.000000 41.227520 -10.341139
v 0.000000 43.630589 -8.816363
v 2.298861 44.788807 -10.626758
vn 0.9994 -0.0234 -0.0235
vn -0.0000 0.4470 -0.8945
vn -0.0000 0.4472 -0.8944
vn -0.9994 -0.0236 -0.0236
vn -0.0000 -0.4970 0.8677
vn 0.9994 -0.0236 -0.0236
vt 0.664001 0.315918
vt 0.585571 0.315918
vt 0.585571 0.157196
vt 0.501862 0.315918
vt 0.501862 0.157196
vt 0.664001 0.157196
s 1
usemtl f_hair0111
f 218/134/203 219/135/204 220/136/205
f 220/136/205 219/135/204 221/137/206
f 220/136/205 221/137/206 222/138/206
f 222/138/206 221/137/206 223/135/207
f 222/138/206 223/135/207 224/136/207
f 224/136/207 223/135/207 218/134/203
f 224/136/207 218/134/203 225/139/208
f 225/139/208 218/134/203 220/136/205
