mtllib f_hair005.mtl
o editpl_f-0000-1904
v 7.497091 56.816975 6.012414
v 7.978556 59.572964 5.208906
v 6.571198 60.647766 6.689226
v -6.552680 57.327106 8.254011
v -7.409793 57.747402 5.520084
v -7.391275 55.392460 5.966848
v 8.176962 53.672775 3.716359
v 8.433567 54.795704 4.852162
v 7.335721 50.749954 6.243575
v -4.666503 58.052197 10.478939
v -5.661177 57.840446 9.213108
v -4.983952 55.331501 9.337582
v 8.497056 50.320030 1.096901
v 6.187614 43.107624 3.329609
v 7.388630 46.710621 1.698143
v 3.343798 65.903069 -14.977704
v -0.005291 66.063492 -10.740117
v 1.542274 64.886017 -11.712550
v -0.005291 66.310532 -5.237810
v -4.378153 65.915909 -4.373178
v -0.005291 67.090172 1.080230
v -0.005291 66.727623 -17.942793
v -0.005291 69.028023 -15.566721
v -0.015872 62.290451 -13.715208
v -0.005291 68.652641 -12.334908
v -1.560792 64.886017 -11.712550
v -3.375543 65.903069 -14.977704
v -0.005291 63.538506 -12.456045
v -4.343763 63.936344 6.961508
v -5.798738 60.679852 8.317358
v -2.589856 64.545937 8.248454
v -4.589786 63.323544 -8.780802
v -6.891293 63.621922 -6.235805
v -4.473388 63.840092 -7.731685
v -6.401892 60.500183 6.288028
v -8.436212 61.491566 1.239153
v -9.819761 60.413555 0.544558
v -9.655746 61.584610 -2.850624
v -0.021163 62.498997 -13.870797
v -0.013227 57.657570 -14.849898
v 2.698318 61.353607 -16.913679
v -2.724772 61.363232 -16.912567
v -0.005291 60.224262 -19.263079
v -0.005291 52.812935 -19.030806
v 1.909986 52.992603 -17.034817
v -1.203661 47.085999 -16.879229
v -0.005291 38.378490 -16.194633
v -0.005291 47.349083 -15.925687
v -5.663822 61.026356 -8.740793
v -5.036860 64.347015 -6.963741
v -0.005291 64.590851 -7.943954
v 4.364926 65.915909 -4.373178
v 5.023633 64.347015 -6.963741
v 9.010266 59.887383 0.341180
v 6.348984 61.090523 6.184672
v 6.663787 58.215824 6.625880
v 9.642519 61.584610 -2.850624
v 7.854222 62.893623 -7.236022
v 6.878066 63.621922 -6.235805
v 4.576559 63.323544 -8.780802
v 4.460161 63.840092 -7.731685
v 8.092309 62.726788 -3.137353
v 8.422985 61.491566 1.239153
v 9.806534 60.413555 0.544558
v 6.388665 60.500183 6.288028
v 7.758987 52.273930 1.712590
v 8.862123 56.242680 -0.793510
v 8.124054 55.678005 3.147347
v 7.684916 56.813766 4.336493
v -8.105536 62.726788 -3.137353
v -7.867449 62.893623 -7.236022
v -0.005291 47.323418 -9.126431
v -0.005291 49.225979 -8.648550
v 3.542204 50.005611 -6.861495
v 4.729993 53.095268 -8.830812
v 7.579099 52.947685 -5.581217
v 8.782761 57.076855 -5.912400
v -7.772214 52.273930 1.712590
v -8.137281 55.678005 3.147347
v -8.875350 56.242680 -0.793510
v -7.698143 56.813766 4.336493
v -0.005291 57.801945 -11.630310
v -0.005291 62.534286 -9.935496
v 5.650595 61.026356 -8.740793
v -2.518430 58.263950 11.452484
v -1.386195 54.859871 11.462487
v -0.759233 58.523827 11.977042
v 0.666643 54.875916 11.445817
v 0.997320 58.780499 11.542503
v 1.275088 62.085114 11.156864
v -3.282954 61.578194 10.592298
v -6.571198 60.647766 6.689226
v -7.975911 59.572964 5.208906
v -7.497091 56.816975 6.012414
v -8.473248 57.185940 5.031089
v -6.761668 53.836403 7.232679
v -8.735143 57.801945 3.501868
v -8.176962 53.672775 3.716359
v -8.430921 54.795704 4.852162
v -7.335721 50.749954 6.243575
v 1.275088 62.085114 11.156864
v 2.206272 58.373035 11.780334
v 3.722092 58.263950 11.356907
v 2.402032 55.289791 11.075736
v 4.436352 55.183918 9.763229
v 8.475893 57.185940 5.031089
v -3.396706 55.434170 10.645643
v -3.515750 58.263950 10.984604
v -5.296110 60.872353 8.477393
v -4.343763 63.936344 6.961508
v 6.367501 57.327106 8.445165
v 6.624106 53.836403 7.232679
v 7.235196 55.392460 5.966848
v 8.737789 57.801945 3.501868
v 2.566048 55.549671 -17.761642
v -0.005291 49.986362 -19.353098
v -0.005291 57.169895 -20.018799
v -2.592502 55.562504 -17.760530
v -3.396706 59.983635 -16.935907
v -1.960249 59.531254 -15.498929
v 1.923213 59.547298 -15.491149
v 3.370252 60.015717 -16.922569
v -0.005291 62.893623 -19.682058
v -0.005291 52.800098 -15.577834
v -1.952312 52.992603 -17.034817
v -0.005291 46.550201 -18.131721
v 1.140172 47.085999 -16.879229
v -0.005291 53.111313 -11.262451
v 5.589751 57.407314 -9.594312
v 8.920322 60.282013 -5.438965
v -9.023493 59.887383 0.341180
v -8.795988 57.076855 -5.912400
v -8.285424 52.899559 -1.879301
v -7.592326 52.947685 -5.581217
v -5.423090 49.116894 -3.418525
v 8.272197 52.899559 -1.879301
v 5.409863 49.116894 -3.418525
v 3.706219 47.750130 -6.804816
v -0.002645 65.267815 7.075977
v -4.777610 66.101990 1.185808
v -7.684916 63.901051 1.647020
v -7.097635 63.888218 -4.568776
v -8.933549 60.282013 -5.438965
v 7.957393 56.816975 4.172014
v 9.526121 58.989040 -0.092246
v 9.071110 61.084106 -5.395622
v 6.370147 62.184574 -8.290696
v 0.267186 63.631550 -9.342034
v -0.283059 63.631550 -9.342034
v -6.383374 62.184574 -8.290696
v -9.084337 61.084106 -5.395622
v -9.539348 58.989040 -0.092246
v -7.962684 56.816975 4.172014
v 7.084408 63.888218 -4.568776
v 7.671689 63.901051 1.645908
v 5.711440 63.352421 5.410060
v 0.796268 64.635765 8.771901
v -6.677014 58.215824 6.625880
v -6.359565 61.090523 6.184672
v -5.716731 63.352421 5.410060
v -4.005150 65.001518 6.099098
v 5.116223 57.795528 9.590968
v 5.298756 61.578194 9.213108
v 4.044832 63.804798 8.107312
v 0.796268 64.635765 8.771901
v 5.711440 63.352421 5.410060
v 7.073826 61.738613 4.576545
v 3.999860 65.001518 6.099098
v 4.044832 63.804798 8.107312
v 5.711440 63.352421 5.410060
v 5.298756 61.578194 9.213108
v 6.571198 60.647766 6.689226
v 7.460056 58.013699 5.520084
v -7.999719 58.026531 3.588554
v -9.047302 58.741997 0.593458
v -8.081727 55.575336 3.488532
v -9.147827 55.690838 0.495659
v -7.518255 51.818340 3.306270
v -8.497056 50.320030 1.096901
v -6.187614 43.107624 3.329609
v -7.388630 46.710621 1.698143
v 7.518255 51.818340 3.306270
v 9.147827 55.690838 0.495659
v 8.081727 55.575336 3.488532
v 9.047302 58.741997 0.593458
v 7.999719 58.026531 3.588554
v -3.719446 47.750130 -6.804816
v -3.555431 50.005611 -6.861495
v -4.743220 53.095268 -8.830812
v -5.602978 57.407314 -9.594312
v 4.764383 66.101990 1.185808
v 3.999860 65.001518 6.099098
v -7.073826 61.738613 4.576545
v -5.716731 63.352421 5.410060
v -4.005150 65.001518 6.099098
v -0.002645 65.267815 7.075977
v 3.999860 65.001518 6.099098
vn 0.7377 0.0157 0.6749
vn 0.8673 0.2444 0.4336
vn 0.8563 0.2828 0.4321
vn -0.9155 0.0939 0.3912
vn -0.9476 0.0940 0.3054
vn -0.9389 -0.0000 0.3443
vn 0.9803 -0.1961 -0.0235
vn 0.9491 -0.1020 0.2980
vn 0.9295 -0.1260 0.3466
vn -0.6332 -0.0001 0.7740
vn -0.7847 -0.0078 0.6199
vn -0.6831 -0.2120 0.6988
vn 0.9279 -0.1573 0.3381
vn 0.9369 -0.2047 0.2834
vn 0.9576 -0.2748 0.0864
vn 0.9636 0.2663 -0.0235
vn -0.0000 0.5745 0.8185
vn 0.8450 -0.1500 0.5133
vn -0.0000 0.9414 -0.3373
vn -0.3534 0.9032 -0.2435
vn -0.0000 0.9992 0.0393
vn -0.0000 0.5798 -0.8148
vn -0.0000 0.9439 -0.3303
vn -0.0000 -0.3835 0.9235
vn -0.0000 0.8697 0.4936
vn -0.8692 -0.2427 0.4307
vn -0.9918 0.1259 0.0236
vn -0.2909 -0.8649 0.4089
vn -0.6845 0.5272 0.5036
vn -0.7002 0.3776 0.6058
vn -0.3605 0.7367 0.5721
vn -0.2979 0.6429 -0.7057
vn -0.4641 0.8654 -0.1888
vn -0.2196 0.8862 -0.4078
vn -0.8034 0.3622 0.4726
vn -0.6414 0.7196 0.2660
vn -0.9358 0.2202 0.2752
vn -0.8643 0.5028 -0.0157
vn -0.0000 -0.1961 0.9806
vn -0.0000 -0.1491 0.9888
vn 0.9940 -0.1096 -0.0000
vn -0.9940 -0.1096 0.0001
vn -0.0000 -0.0315 -0.9995
vn -0.0000 -0.0785 -0.9969
vn 0.9914 -0.1102 0.0708
vn -0.9876 -0.1254 0.0941
vn 0.0626 -0.7831 0.6187
vn -0.0000 -0.0550 0.9985
vn -0.4879 0.4091 -0.7711
vn -0.4254 0.6855 -0.5909
vn -0.0000 0.7451 -0.6670
vn 0.3534 0.9032 -0.2435
vn 0.4254 0.6854 -0.5909
vn 0.9796 0.1254 0.1567
vn 0.8797 0.2435 0.4084
vn 0.9214 0.1181 0.3701
vn 0.8643 0.5028 -0.0157
vn 0.6913 0.4950 -0.5264
vn 0.4641 0.8654 -0.1888
vn 0.2979 0.6429 -0.7057
vn 0.2196 0.8863 -0.4078
vn 0.5813 0.8091 0.0864
vn 0.6414 0.7196 0.2660
vn 0.9358 0.2202 0.2752
vn 0.8034 0.3622 0.4726
vn 0.9737 -0.1649 0.1571
vn 0.9927 -0.0630 0.1024
vn 0.9835 -0.0000 0.1810
vn 0.9631 0.0392 0.2663
vn -0.5813 0.8091 0.0864
vn -0.6913 0.4950 -0.5264
vn -0.0000 0.1337 -0.9910
vn -0.0000 -0.3537 -0.9354
vn 0.6390 -0.2762 -0.7179
vn 0.5676 -0.4178 -0.7095
vn 0.7690 -0.4786 -0.4237
vn 0.9325 -0.1489 -0.3291
vn -0.9737 -0.1649 0.1571
vn -0.9835 -0.0000 0.1810
vn -0.9927 -0.0630 0.1024
vn -0.9631 0.0392 0.2663
vn 0.0001 0.1644 -0.9864
vn -0.0000 0.5272 -0.8498
vn 0.4878 0.4091 -0.7711
vn -0.2900 0.0392 0.9562
vn -0.1339 -0.1103 0.9848
vn -0.0393 0.0472 0.9981
vn 0.1255 -0.0863 0.9883
vn 0.2351 0.0235 0.9717
vn 0.1571 0.4635 0.8720
vn -0.4234 0.3607 0.8311
vn -0.8119 0.3311 0.4809
vn -0.8673 0.2444 0.4336
vn -0.7377 0.0157 0.6749
vn -0.8808 0.0393 0.4719
vn -0.9210 -0.0551 0.3857
vn -0.9916 0.1023 0.0787
vn -0.9803 -0.1961 -0.0235
vn -0.9491 -0.1020 0.2981
vn -0.9295 -0.1260 0.3466
vn 0.1572 0.4635 0.8720
vn 0.2664 0.0078 0.9638
vn 0.5328 -0.0078 0.8462
vn 0.3784 -0.2522 0.8906
vn 0.6393 -0.2289 0.7341
vn 0.8808 0.0393 0.4719
vn -0.4949 -0.1885 0.8483
vn -0.3996 -0.0000 0.9167
vn -0.8119 0.3311 0.4808
vn -0.7792 0.3621 0.5116
vn -0.6845 0.5271 0.5035
vn 0.9280 0.0472 0.3696
vn 0.9276 -0.0550 0.3695
vn 0.9346 -0.0393 0.3534
vn 0.9916 0.1023 0.0787
vn 0.9101 -0.1334 -0.3923
vn -0.0000 -0.0863 -0.9963
vn -0.0000 -0.0000 -1.0000
vn -0.9101 -0.1334 -0.3923
vn -0.9989 -0.0472 -0.0000
vn -0.7222 -0.1099 0.6829
vn 0.7145 -0.1099 0.6909
vn 0.9989 -0.0472 -0.0000
vn -0.0000 0.2592 -0.9658
vn -0.0000 -0.0863 0.9963
vn -0.9914 -0.1101 0.0708
vn 0.0079 -0.1810 -0.9835
vn 0.9886 -0.1177 0.0941
vn -0.0000 -0.3068 -0.9518
vn 0.5743 -0.0236 -0.8183
vn 0.8814 0.2361 -0.4092
vn -0.9796 0.1254 0.1567
vn -0.9325 -0.1489 -0.3291
vn -0.9330 -0.3372 -0.1255
vn -0.7690 -0.4786 -0.4237
vn -0.8243 -0.4004 -0.4004
vn 0.9330 -0.3372 -0.1255
vn 0.8243 -0.4004 -0.4004
vn 0.7299 0.0314 -0.6828
vn -0.0079 0.9569 0.2902
vn -0.4147 0.8920 0.1800
vn -0.7868 0.5901 0.1810
vn -0.7709 0.5743 -0.2753
vn -0.8814 0.2361 -0.4092
vn 0.9268 -0.1021 0.3613
vn 0.9753 -0.2202 -0.0157
vn 0.9078 -0.0625 -0.4147
vn 0.4240 -0.0706 -0.9029
vn 0.1417 0.4173 -0.8976
vn -0.1417 0.4174 -0.8976
vn -0.4240 -0.0706 -0.9029
vn -0.9078 -0.0625 -0.4147
vn -0.9753 -0.2202 -0.0157
vn -0.9242 -0.1018 0.3681
vn 0.7709 0.5743 -0.2753
vn 0.7868 0.5901 0.1810
vn 0.7468 0.5581 0.3616
vn 0.1097 0.8389 0.5331
vn -0.9214 0.1181 0.3702
vn -0.8797 0.2435 0.4084
vn -0.7258 0.5522 0.4102
vn -0.4877 0.7945 0.3618
vn 0.7762 -0.0628 0.6273
vn 0.7378 0.3689 0.5652
vn 0.5121 0.6776 0.5279
vn 0.1098 0.8389 0.5331
vn 0.8493 0.4404 0.2910
vn 0.4241 0.8403 0.3377
vn 0.5122 0.6776 0.5278
vn 0.7379 0.3690 0.5651
vn 0.9313 0.0548 0.3600
vn -0.9437 0.0157 0.3303
vn -0.9431 -0.0393 0.3301
vn -0.9272 -0.0629 0.3693
vn -0.9027 -0.1099 0.4160
vn -0.9279 -0.1573 0.3381
vn -0.9369 -0.2047 0.2834
vn -0.9576 -0.2747 0.0863
vn 0.9027 -0.1099 0.4160
vn 0.9272 -0.0629 0.3693
vn 0.9431 -0.0393 0.3301
vn 0.9437 0.0157 0.3303
vn -0.7299 0.0314 -0.6828
vn -0.6390 -0.2761 -0.7179
vn -0.5676 -0.4178 -0.7095
vn -0.5744 -0.0236 -0.8183
vn 0.4147 0.8920 0.1799
vn -0.8513 0.4414 0.2838
vn -0.4877 0.7945 0.3619
vn -0.0078 0.9569 0.2902
vn 0.4240 0.8403 0.3377
vt 0.563873 0.890930
vt 0.504669 0.824524
vt 0.574249 0.815399
vt 0.663940 0.903107
vt 0.569000 0.899933
vt 0.609406 0.971832
vt 0.462982 0.936920
vt 0.512054 0.909729
vt 0.575745 0.987610
vt 0.737762 0.903748
vt 0.673645 0.901825
vt 0.682953 0.987610
vt 0.769196 0.207062
vt 0.931244 0.317078
vt 0.797119 0.287292
vt 0.811829 0.394196
vt 0.797333 0.339935
vt 0.830811 0.343658
vt 0.327362 0.013123
vt 0.367188 0.156250
vt 0.538300 0.013123
vt 0.703613 0.408051
vt 0.728241 0.377319
vt 0.903107 0.358398
vt 0.762421 0.352356
vt 0.863098 0.349304
vt 0.696106 0.711212
vt 0.667206 0.804169
vt 0.829224 0.700806
vt 0.381348 0.941406
vt 0.273041 0.886719
vt 0.391388 0.886719
vt 0.018158 0.889740
vt 0.067657 0.886719
vt 0.067657 0.933594
vt 0.157074 0.938110
vt 0.988068 0.460693
vt 0.931122 0.495392
vt 0.988068 0.541565
vt 0.988068 0.541595
vt 0.988068 0.636108
vt 0.912384 0.639099
vt 0.900299 0.579773
vt 0.825012 0.607513
vt 0.745239 0.635956
vt 0.811066 0.577423
vt 0.164062 0.439056
vt 0.242188 0.257812
vt 0.125000 0.130188
vt 0.528107 0.428101
vt 0.704041 0.313782
vt 0.683167 0.401367
vt 0.265228 0.933594
vt 0.153198 0.886719
vt 0.584534 0.670807
vt 0.517181 0.557800
vt 0.626556 0.565613
vt 0.637482 0.473419
vt 0.026794 0.868408
vt 0.023438 0.781250
vt 0.187500 0.781250
vt 0.178101 0.689819
vt 0.343750 0.693726
vt 0.349976 0.589050
vt 0.011749 0.562500
vt 0.011749 0.281250
vt 0.808350 0.897797
vt 0.829895 0.987854
vt 0.884949 0.889435
vt 0.955475 0.987854
vt 0.966980 0.882416
vt 0.980408 0.776154
vt 0.804291 0.799988
vt 0.574219 0.815399
vt 0.504639 0.824524
vt 0.563843 0.890930
vt 0.508331 0.867126
vt 0.670135 0.987854
vt 0.443298 0.839325
vt 0.462952 0.936920
vt 0.512024 0.909729
vt 0.967682 0.776154
vt 0.963348 0.882416
vt 0.508362 0.867126
vt 0.796570 0.987854
vt 0.799744 0.900574
vt 0.696960 0.804169
vt 0.648895 0.711212
vt 0.772675 0.559143
vt 0.663727 0.640625
vt 0.673584 0.519501
vt 0.772675 0.558960
vt 0.814636 0.465454
vt 0.870026 0.494629
vt 0.870026 0.494385
vt 0.814636 0.464966
vt 0.682251 0.471771
vt 0.882568 0.527954
vt 0.841370 0.638763
vt 0.015625 0.671875
vt 0.168732 0.598419
vt 0.348419 0.445312
vt 0.453125 0.734375
vt 0.335938 0.804688
vt 0.198669 0.868408
vt 0.703156 0.017181
vt 0.539062 0.134369
vt 0.531250 0.250000
vt 0.367188 0.289062
vt 0.016449 0.982422
vt 0.059845 0.987610
vt 0.168823 0.987610
vt 0.351440 0.987610
vt 0.431610 0.941406
vt 0.704315 0.242188
vt 0.986481 0.704773
vt 0.704681 0.139038
vt 0.848785 0.700806
vt 0.954529 0.704102
vt 0.565643 0.663605
vt 0.492279 0.728485
vt 0.701752 0.665985
vt 0.633728 0.681946
vt 0.825104 0.791901
vt 0.690918 0.793396
vt 0.643646 0.901825
vt 0.986938 0.014618
vt 0.728149 0.014618
vt 0.987701 0.119293
vt 0.728912 0.120239
vt 0.979584 0.196564
vt 0.492249 0.728485
vt 0.570740 0.679077
vt 0.768799 0.661713
vt 0.986481 0.662384
vt 0.769196 0.661713
s 1
usemtl f_hair0109
f 1/1/1 2/2/2 3/3/3
f 4/4/4 5/5/5 6/6/6
f 7/7/7 8/8/8 9/9/9
f 10/10/10 11/11/11 12/12/12
f 13/13/13 14/14/14 15/15/15
f 16/16/16 17/17/17 18/18/18
f 19/19/19 20/20/20 21/21/21
f 22/22/22 23/23/23 16/16/16
f 16/16/16 18/18/18 24/24/24
f 17/17/17 25/25/25 26/18/26
f 26/18/26 25/25/25 27/16/27
f 26/18/26 27/16/27 28/26/28
f 29/27/29 30/28/30 31/29/31
f 32/30/32 33/31/33 34/32/34
f 35/33/35 36/34/36 37/35/37
f 37/35/37 36/34/36 38/36/38
f 39/37/39 40/38/40 41/39/41
f 42/40/42 43/41/43 44/42/44
f 44/42/44 43/41/43 41/39/41
f 44/42/44 41/39/41 45/43/45
f 45/43/45 41/39/41 40/38/40
f 46/44/46 47/45/47 48/46/48
f 49/47/49 50/48/50 51/49/51
f 52/20/52 53/48/53 51/49/51
f 54/50/54 55/51/55 56/52/56
f 57/36/57 58/53/58 59/31/59
f 59/31/59 58/53/58 60/30/60
f 59/31/59 60/30/60 61/32/61
f 59/31/59 62/54/62 57/36/57
f 57/36/57 62/54/62 63/34/63
f 57/36/57 63/34/63 64/35/64
f 64/35/64 63/34/63 65/33/65
f 66/55/66 67/56/67 68/57/68
f 68/57/68 67/56/67 69/58/69
f 36/34/36 70/54/70 38/36/38
f 38/36/38 70/54/70 33/31/33
f 38/36/38 33/31/33 71/53/71
f 71/53/71 33/31/33 32/30/32
f 72/59/72 73/60/73 74/61/74
f 74/61/74 73/60/73 75/62/75
f 74/61/74 75/62/75 76/63/76
f 76/63/76 75/62/75 77/64/77
f 78/55/78 79/57/79 80/56/80
f 80/56/80 79/57/79 81/58/81
f 82/65/82 83/66/83 84/47/84
f 85/67/85 86/68/86 87/69/87
f 87/69/87 86/68/86 88/70/88
f 87/69/87 88/70/88 89/71/89
f 89/71/89 90/72/90 87/69/87
f 87/69/87 90/72/90 91/73/91
f 87/69/87 91/73/91 85/67/85
f 92/74/92 93/75/93 94/76/94
f 94/76/94 93/75/93 95/77/95
f 6/6/6 96/78/96 4/4/4
f 97/79/97 98/80/98 99/81/99
f 99/81/99 98/80/98 100/9/100
f 101/82/101 102/83/102 103/69/103
f 103/69/103 102/83/102 104/70/104
f 103/69/103 104/70/104 105/68/105
f 2/2/2 1/1/1 106/84/106
f 12/12/12 107/85/107 10/10/10
f 10/10/10 107/85/107 108/86/108
f 10/10/10 108/86/108 91/73/91
f 5/5/5 4/4/4 92/74/109
f 92/74/109 4/4/4 109/87/110
f 92/74/109 109/87/110 110/88/111
f 111/86/112 112/85/113 113/12/114
f 8/8/8 7/7/7 114/79/115
f 115/89/116 116/90/117 117/91/118
f 117/91/118 116/90/117 118/92/119
f 117/91/118 118/92/119 119/93/120
f 119/93/120 118/92/119 120/94/121
f 119/93/120 120/94/121 24/24/24
f 121/95/122 115/89/116 122/96/123
f 122/96/123 115/89/116 117/91/118
f 122/96/123 117/91/118 123/97/124
f 123/97/124 117/91/118 119/93/120
f 123/97/124 119/93/120 27/16/27
f 27/16/27 119/93/120 24/24/24
f 27/16/27 24/24/24 28/26/28
f 28/26/28 24/24/24 18/18/18
f 124/98/125 42/40/42 125/43/126
f 125/43/126 42/40/42 44/42/44
f 125/43/126 44/42/44 126/99/127
f 126/99/127 44/42/44 45/43/45
f 126/99/127 45/43/45 127/44/128
f 73/60/73 128/100/129 75/62/75
f 75/62/75 128/100/129 129/101/130
f 75/62/75 129/101/130 77/64/77
f 77/64/77 129/101/130 130/102/131
f 77/64/77 130/102/131 54/50/54
f 81/58/81 131/50/132 80/56/80
f 80/56/80 131/50/132 132/64/133
f 80/56/80 132/64/133 133/103/134
f 133/103/134 132/64/133 134/63/135
f 133/103/134 134/63/135 135/104/136
f 56/52/56 69/58/69 54/50/54
f 54/50/54 69/58/69 67/56/67
f 54/50/54 67/56/67 77/64/77
f 77/64/77 67/56/67 136/103/137
f 77/64/77 136/103/137 76/63/76
f 76/63/76 136/103/137 137/104/138
f 76/63/76 137/104/138 74/61/74
f 74/61/74 137/104/138 138/105/139
f 74/61/74 138/105/139 72/59/72
f 139/106/140 21/21/21 140/107/141
f 140/107/141 21/21/21 20/20/20
f 140/107/141 20/20/20 141/108/142
f 141/108/142 20/20/20 142/109/143
f 141/108/142 142/109/143 131/50/132
f 131/50/132 142/109/143 143/102/144
f 131/50/132 143/102/144 132/64/133
f 65/33/65 144/110/145 64/35/64
f 64/35/64 144/110/145 145/111/146
f 64/35/64 145/111/146 57/36/57
f 57/36/57 145/111/146 146/112/147
f 57/36/57 146/112/147 58/53/58
f 58/53/58 146/112/147 147/113/148
f 58/53/58 147/113/148 60/30/60
f 60/30/60 147/113/148 148/114/149
f 60/30/60 148/114/149 61/32/61
f 34/32/34 149/114/150 32/30/32
f 32/30/32 149/114/150 150/113/151
f 32/30/32 150/113/151 71/53/71
f 71/53/71 150/113/151 151/112/152
f 71/53/71 151/112/152 38/36/38
f 38/36/38 151/112/152 152/111/153
f 38/36/38 152/111/153 37/35/37
f 37/35/37 152/111/153 153/110/154
f 37/35/37 153/110/154 35/33/35
f 128/100/129 82/65/82 129/101/130
f 129/101/130 82/65/82 84/47/84
f 129/101/130 84/47/84 130/102/131
f 130/102/131 84/47/84 154/109/155
f 130/102/131 154/109/155 54/50/54
f 54/50/54 154/109/155 155/108/156
f 54/50/54 155/108/156 55/51/55
f 55/51/55 155/108/156 156/115/157
f 11/11/11 10/10/10 30/28/30
f 30/28/30 10/10/10 91/73/91
f 30/28/30 91/73/91 31/29/31
f 31/29/31 91/73/91 90/72/90
f 31/29/31 90/72/90 157/116/158
f 81/58/81 158/52/159 131/50/132
f 131/50/132 158/52/159 159/51/160
f 131/50/132 159/51/160 141/108/142
f 141/108/142 159/51/160 160/115/161
f 141/108/142 160/115/161 140/107/141
f 140/107/141 160/115/161 161/117/162
f 140/107/141 161/117/162 139/106/140
f 105/68/105 162/67/163 103/69/103
f 103/69/103 162/67/163 163/73/164
f 103/69/103 163/73/164 101/82/101
f 101/82/101 163/73/164 164/118/165
f 101/82/101 164/118/165 165/119/166
f 166/120/157 3/3/3 167/121/167
f 167/121/167 3/3/3 2/2/2
f 167/121/167 2/2/2 114/79/115
f 114/79/115 2/2/2 106/84/106
f 114/79/115 106/84/106 8/8/8
f 8/8/8 106/84/106 1/1/1
f 8/8/8 1/1/1 9/9/9
f 168/122/168 169/29/169 170/123/157
f 170/123/157 169/29/169 171/124/170
f 170/123/157 171/124/170 172/125/3
f 172/125/3 171/124/170 111/86/112
f 172/125/3 111/86/112 173/126/171
f 173/126/171 111/86/112 113/12/114
f 174/127/172 175/128/172 176/129/173
f 176/129/173 175/128/172 177/130/174
f 176/129/173 177/130/174 178/131/175
f 178/131/175 177/130/174 179/13/176
f 178/131/175 179/13/176 180/14/177
f 180/14/177 179/13/176 181/15/178
f 14/14/14 13/13/13 182/131/179
f 182/131/179 13/13/13 183/130/180
f 182/131/179 183/130/180 184/129/181
f 184/129/181 183/130/180 185/128/182
f 184/129/181 185/128/182 186/127/182
f 17/17/17 16/16/16 25/25/25
f 25/25/25 16/16/16 23/23/23
f 25/25/25 23/23/23 27/16/27
f 27/16/27 23/23/23 22/22/22
f 27/16/27 22/22/22 123/97/124
f 123/97/124 22/22/22 16/16/16
f 123/97/124 16/16/16 122/96/123
f 122/96/123 16/16/16 24/24/24
f 122/96/123 24/24/24 121/95/122
f 39/37/39 42/40/42 40/38/40
f 40/38/40 42/40/42 124/98/125
f 40/38/40 124/98/125 45/43/45
f 45/43/45 124/98/125 48/46/48
f 45/43/45 48/46/48 127/44/128
f 127/44/128 48/46/48 47/45/47
f 127/44/128 47/45/47 126/99/127
f 126/99/127 47/45/47 46/44/46
f 126/99/127 46/44/46 125/43/126
f 125/43/126 46/44/46 48/46/48
f 125/43/126 48/46/48 124/98/125
f 187/105/183 135/104/136 188/61/184
f 188/61/184 135/104/136 134/63/135
f 188/61/184 134/63/135 189/62/185
f 189/62/185 134/63/135 132/64/133
f 189/62/185 132/64/133 190/101/186
f 190/101/186 132/64/133 143/102/144
f 190/101/186 143/102/144 49/47/49
f 49/47/49 143/102/144 142/109/143
f 49/47/49 142/109/143 50/48/50
f 50/48/50 142/109/143 20/20/20
f 50/48/50 20/20/20 51/49/51
f 51/49/51 20/20/20 19/19/19
f 51/49/51 19/19/19 52/20/52
f 52/20/52 19/19/19 21/21/21
f 52/20/52 21/21/21 191/107/187
f 191/107/187 21/21/21 139/106/140
f 191/107/187 139/106/140 192/117/168
f 100/9/100 94/76/94 99/81/99
f 99/81/99 94/76/94 95/77/95
f 99/81/99 95/77/95 97/79/97
f 97/79/97 95/77/95 93/75/93
f 97/79/97 93/75/93 193/132/188
f 193/132/188 93/75/93 92/74/92
f 193/132/188 92/74/92 194/133/161
f 194/133/161 92/74/92 29/27/29
f 194/133/161 29/27/29 195/134/189
f 195/134/189 29/27/29 31/29/31
f 195/134/189 31/29/31 196/135/190
f 196/135/190 31/29/31 157/116/158
f 196/135/190 157/116/158 197/136/191
f 197/136/191 157/116/158 164/118/165
f 192/117/168 156/115/157 191/107/187
f 191/107/187 156/115/157 155/108/156
f 191/107/187 155/108/156 52/20/52
f 52/20/52 155/108/156 154/109/155
f 52/20/52 154/109/155 53/48/53
f 53/48/53 154/109/155 84/47/84
f 53/48/53 84/47/84 51/49/51
f 51/49/51 84/47/84 83/66/83
f 51/49/51 83/66/83 49/47/49
f 49/47/49 83/66/83 82/65/82
f 49/47/49 82/65/82 190/101/186
f 190/101/186 82/65/82 128/100/129
f 190/101/186 128/100/129 189/62/185
f 189/62/185 128/100/129 73/60/73
f 189/62/185 73/60/73 188/61/184
f 188/61/184 73/60/73 72/59/72
f 188/61/184 72/59/72 187/105/183
o editpl_f-0000-1905
v -0.005291 65.444275 -9.437611
v -2.269762 62.797375 -9.217564
v -0.005291 64.536308 -8.053977
v -0.005291 61.860531 -11.803680
v 2.253889 62.800583 -9.214230
v -0.005291 60.817810 -10.582305
v -1.994639 63.817635 -10.634538
v 1.978767 63.820843 -10.631204
v 1.865014 64.841103 -12.048179
v -0.005291 62.762081 -13.120634
v -1.880886 64.834686 -12.052624
v -0.005291 66.503036 -10.724558
vn -0.0000 0.8404 0.5419
vn -0.9938 0.0861 -0.0705
vn -0.0000 0.8345 0.5511
vn -0.0000 -0.7637 -0.6456
vn 0.9938 0.0861 -0.0705
vn -0.0000 -0.7598 -0.6502
vn 0.9453 0.1969 -0.2600
vn -0.0000 -0.3068 -0.9518
vn -0.9453 0.1970 -0.2600
vn -0.0000 1.0000 -0.0000
vt 0.011505 0.120514
vt 0.068909 0.011414
vt 0.011505 0.011414
vt 0.120575 0.120514
vt 0.120575 0.011414
vt 0.068909 0.120514
s 1
usemtl f_hair0109
f 198/137/192 199/138/193 200/139/194
f 201/140/195 202/138/196 203/141/197
f 199/138/193 198/137/192 204/142/193
f 202/138/196 201/140/195 205/142/196
f 200/139/194 202/138/196 198/137/192
f 198/137/192 202/138/196 205/142/196
f 198/137/192 205/142/196 206/138/198
f 206/138/198 205/142/196 201/140/195
f 206/138/198 201/140/195 207/141/199
f 207/141/199 201/140/195 208/138/200
f 207/141/199 208/138/200 206/138/198
f 206/138/198 208/138/200 209/139/201
f 206/138/198 209/139/201 198/137/192
f 198/137/192 209/139/201 208/138/200
f 198/137/192 208/138/200 204/142/193
f 204/142/193 208/138/200 201/140/195
f 204/142/193 201/140/195 199/138/193
f 199/138/193 201/140/195 203/141/197
