mtllib f_hair014.mtl
o editpl_f-0000-1916
v 4.013087 63.881802 7.512739
v 5.177067 61.578194 9.213108
v 5.587106 63.512840 7.311584
v -7.147897 56.630890 8.579638
v -4.354345 57.638317 10.523394
v -5.809320 61.209232 8.741896
v -10.748300 46.675327 -8.151774
v -12.462526 46.874245 -9.814359
v -13.631797 40.682098 -9.925493
v -10.338262 53.085644 -7.053759
v -12.372582 53.595776 -8.910829
v 0.000000 34.133820 -14.602065
v 3.600403 26.356735 -15.153295
v 0.000000 26.116108 -15.693412
v 0.000000 45.520313 -9.143102
v 0.000000 48.504097 -9.312028
v 4.539523 49.736111 -7.200458
v -7.986492 54.770039 -3.489651
v -7.991783 55.690838 -0.580130
v -7.626717 58.228657 -1.938203
v 9.010266 59.887383 0.341180
v 6.348984 61.090523 6.184672
v 6.663787 58.215824 6.625880
v 8.515574 63.913883 -8.612988
v 5.341082 64.773727 -5.979082
v 7.674334 66.227119 -5.292266
v -4.378153 65.915909 -4.373178
v -0.005291 64.590851 -7.943954
v -5.036860 64.347015 -6.963741
v 8.102890 62.794163 -4.835500
v 7.166415 63.843300 -3.937527
v -8.515574 63.913883 -8.612988
v -7.674334 66.227119 -5.292266
v -5.341082 64.773727 -5.979082
v -8.473248 57.185940 5.031089
v -8.735143 57.801945 3.501868
v -8.430921 54.282368 4.852162
v -8.176962 53.672775 3.716359
v -7.073826 61.738613 4.576545
v -8.269551 58.709911 5.771250
v -5.716731 63.352421 5.410060
v 7.073826 61.738613 4.576545
v 7.978556 59.572964 5.208906
v 8.737789 57.801945 3.501868
v 8.475893 57.185940 5.031089
v 3.695638 61.510818 9.019733
v 7.497091 56.816975 6.012414
v 7.335721 50.749954 6.243575
v 8.433567 54.795704 4.852162
v 8.176962 53.672775 3.716359
v 6.624106 53.836403 7.232679
v 7.235196 55.392460 5.966848
v 6.367501 57.327106 8.445165
v 7.658461 58.013699 6.223571
v 6.534162 61.112980 7.951723
v 6.571198 60.647766 6.689226
v -2.481394 54.760414 11.300229
v 1.100490 58.533455 10.836794
v -1.613700 58.735580 10.967935
v 1.989348 62.508621 9.633201
v -0.783041 63.134251 9.320910
v 4.013087 63.881802 7.512739
v 3.999860 65.001518 6.099098
v -0.002645 65.267815 7.075977
v 3.999860 65.001518 6.099098
v -0.002645 65.267815 7.075977
v -7.256359 52.549847 8.250678
v 3.105711 60.644558 9.219776
v 3.695638 61.510818 9.019733
v 5.161195 61.786736 8.898595
v 6.065925 60.352596 6.084651
v 6.248458 61.116188 6.529192
v 5.454835 62.059448 7.761682
v 8.124054 55.678005 3.147347
v 7.758987 52.273930 1.712590
v 8.862123 56.242680 -0.793510
v -4.777610 66.101990 1.185808
v -4.005150 65.001518 6.099098
v -4.005150 65.001518 6.099098
v 7.684916 56.813766 4.336493
v -0.005291 66.310532 -5.237810
v 4.364926 65.915909 -4.373178
v 9.692782 36.633137 -13.966371
v 9.415014 40.447887 -11.828129
v 12.176821 33.450436 -14.603176
v 12.113332 40.701347 -13.118409
v -8.875350 56.242680 -0.793510
v -7.772214 52.273930 1.712590
v -8.137281 55.678005 3.147347
v -9.023493 59.887383 0.341180
v -7.684916 63.901051 1.647020
v -7.097635 63.888218 -4.568776
v -5.716731 63.352421 5.410060
v -6.359565 61.090523 6.184672
v -6.677014 58.215824 6.625880
v -7.698143 56.813766 4.336493
v -11.713875 59.784718 -8.437394
v -9.396496 59.178333 -6.521421
v -8.102890 62.794163 -4.835500
v -7.166415 63.843300 -3.937527
v -10.393815 63.352421 -6.723688
v -8.359495 54.911205 2.216033
v -8.700753 55.122959 0.255607
v -7.372757 50.082615 2.239372
v 7.372757 50.082615 2.239372
v 8.700753 55.122959 0.255607
v 8.359495 54.911205 2.216033
v -0.005291 63.564171 -8.939725
v 5.338437 62.688290 -7.851711
v 5.502452 61.106564 -9.308695
v -4.915171 45.520313 -8.545194
v -4.219429 40.980476 -11.949265
v 9.846215 44.256218 -9.721004
v 11.385844 44.208092 -6.670341
v 12.137140 37.951778 -10.923488
v -5.502452 61.106564 -9.308695
v -5.666468 55.986008 -11.341358
v -9.748335 56.922852 -6.382502
v -10.245672 50.778828 -7.137111
v -8.870059 52.816143 -2.322731
v -10.147792 41.936569 -7.907277
v -9.478503 47.644253 -5.530095
v -8.245742 46.595119 -6.615885
v -9.846215 44.304344 -9.216451
v -11.385844 44.208092 -6.670341
v -10.340907 48.157593 -4.449860
v 8.245742 46.595119 -6.615885
v 9.478503 47.644253 -5.530095
v 10.147792 41.936569 -7.907277
v 10.340907 48.157593 -4.449860
v 10.245672 50.778828 -7.137111
v 8.870059 52.816143 -2.322731
v 9.748335 56.922852 -6.382502
v 8.862123 56.242680 -0.793510
v 8.920322 60.282013 -5.438965
v 4.158584 34.339153 -14.061948
v 0.000000 40.768723 -12.376026
v 4.219429 40.980476 -11.949265
v 6.356920 50.413074 -5.992417
v 4.915171 45.520313 -8.545194
v -4.539523 49.736111 -7.200458
v -6.356920 50.413074 -5.992417
v -8.592291 51.369167 -2.841733
v -7.470637 52.168053 -5.041099
v -6.356920 50.413074 -5.992417
v 5.666468 55.411713 -10.960164
v 8.928258 56.181721 -6.808150
v 5.002470 50.820538 -9.014185
v -6.438928 43.547169 -12.479382
v -7.264295 37.634148 -14.891017
v -12.137140 37.951778 -10.923488
v -8.854187 29.253891 -17.244862
v -13.023353 29.863482 -14.300888
v -5.002470 50.820538 -9.014185
v -2.372933 47.233582 -6.927064
v -4.745865 47.644253 -5.598999
v 13.023353 29.863482 -14.300888
v 8.854187 29.253891 -17.244862
v 7.991783 55.690838 -0.580130
v 7.568518 52.386223 -3.186252
v 7.626717 58.228657 -1.938203
v -7.118798 51.635464 -5.757922
v -8.928258 56.181721 -6.808150
v -5.666468 55.411713 -10.960164
v 7.118798 51.635464 -5.757922
v 4.745865 47.644253 -5.598999
v 2.372933 47.233582 -6.927064
v -7.626717 58.228657 -1.938203
v -7.568518 52.386223 -3.186252
v -7.991783 55.690838 -0.580130
v -7.497091 56.816975 6.012414
v -7.335721 45.857193 6.243576
v -4.640049 54.214989 9.739890
v -2.436422 56.816975 11.147974
v -4.600368 63.965218 7.472730
v 6.571198 60.647766 6.689226
v 5.711440 63.352421 5.410060
v -5.716731 63.352421 5.410060
v -8.269551 58.709911 5.771250
v -7.923002 51.215168 6.456955
v 6.079152 59.297043 7.508294
v 7.317204 57.750610 4.921065
v 7.671689 63.901051 1.645908
v 7.084408 63.888218 -4.568776
v 5.023633 64.347015 -6.963741
v 5.989208 62.341785 -7.681674
v 10.020812 59.993259 -10.353366
v 7.057953 58.815788 -9.147548
v 10.393815 52.889935 -10.767900
v 7.952102 52.399055 -9.119763
v 11.012841 46.508492 -11.475831
v 8.446794 46.065739 -10.098865
v -8.933549 60.282013 -5.438965
v -5.351664 62.688290 -7.851711
v -0.005291 67.090172 1.080230
v 4.764383 66.101990 1.185808
v 5.711440 63.352421 5.410060
v 5.666468 55.986008 -11.341358
v 5.404572 49.983154 -11.040181
v 6.438928 43.547169 -12.479382
v -5.404572 49.983154 -11.040181
v 7.264295 37.634148 -14.891017
v -8.875350 56.242680 -0.793510
v -8.933549 60.282013 -5.438965
v -5.351664 62.688290 -7.851711
v -5.830483 26.793074 -15.153295
v -11.676839 27.457207 -12.209322
v -4.849036 34.868538 -14.325337
v -10.912316 35.166916 -10.959051
v -4.219429 40.980476 -11.949265
v -4.915171 45.520313 -8.545194
v -4.158584 34.339153 -14.061948
v -3.600403 26.356735 -15.153295
v 0.000000 47.249626 -7.935061
v 0.000000 49.588524 -10.388927
v 0.000000 52.437553 -11.661427
v 0.000000 55.251293 -12.269337
v 0.000000 45.539566 -8.714120
v 4.756447 46.078571 -5.860165
v 5.846356 48.642056 -2.102683
v 10.393815 63.352421 -6.723688
v 11.713875 59.784718 -8.437394
v 12.372582 53.595776 -8.910829
v 12.462526 46.874245 -9.814359
v 9.396496 59.178333 -6.521421
v 10.338262 53.085644 -7.053759
v 10.748300 46.675327 -8.151774
v 13.631797 40.682098 -9.925493
v 14.126489 37.220268 -12.064847
v -5.989208 62.341785 -7.681674
v -7.057953 58.815788 -9.147548
v -10.020812 59.993259 -10.353366
v -7.952102 52.399055 -9.119763
v -10.393815 52.889935 -10.767900
v -8.446794 46.065739 -10.098865
v -11.012841 46.508492 -11.475831
v -9.415014 40.447887 -11.828129
v -12.113332 40.701347 -13.118409
v -9.692782 36.633137 -13.966371
v -12.176821 33.450436 -14.603176
v -14.126489 37.220268 -12.064847
v 3.999860 65.001518 6.099098
v 5.711440 63.352421 5.410060
v -0.005291 63.564171 -8.939725
v 0.000000 60.400723 -11.885921
v 0.000000 55.251293 -13.129524
v 0.000000 49.242020 -12.989492
v 0.000000 42.635994 -14.770991
v 6.071216 37.634148 -14.891017
v 0.425911 37.492981 -16.337997
v 6.822512 28.480675 -17.244862
v 1.235406 27.726707 -18.438454
v -1.235406 27.726707 -18.438454
v -6.822512 28.480675 -17.244862
v -0.425911 37.492981 -16.337997
v -6.071216 37.634148 -14.891017
v 7.626717 58.228657 -1.938203
v 7.991783 55.690838 -0.580130
v 7.986492 54.770039 -3.489651
v 8.592291 51.369167 -2.841733
v 7.470637 52.168053 -5.041099
v 6.356920 50.413074 -5.992417
v 4.915171 45.520313 -8.545194
v 4.219429 40.980476 -11.949265
v 10.912316 35.166916 -10.959051
v 4.849036 34.868538 -14.325337
v 11.676839 27.457207 -12.209322
v 5.830483 26.793074 -15.153295
v -4.756447 46.078571 -5.860165
v -5.846356 48.642056 -2.102683
v 3.695638 61.510818 9.019733
v -0.005291 63.564171 -8.939725
v 5.338437 62.688290 -7.851711
v 8.920322 60.282013 -5.438965
vn 0.3529 0.7214 0.5959
vn 0.4088 0.4637 0.7860
vn 0.7389 0.6682 0.0864
vn -0.8068 0.0627 0.5875
vn -0.4170 0.0866 0.9048
vn -0.6055 0.3932 0.6919
vn -0.6911 0.0157 0.7225
vn -0.9805 0.1726 -0.0941
vn -0.9673 0.2202 -0.1259
vn -0.6668 -0.0079 0.7452
vn -0.9984 0.0550 0.0157
vn -0.0000 0.2203 -0.9754
vn 0.1260 0.1260 -0.9840
vn -0.0000 0.1260 -0.9920
vn -0.0000 0.3768 -0.9263
vn -0.0000 -0.0550 -0.9985
vn 0.3387 0.1891 -0.9217
vn -0.9777 0.1183 -0.1734
vn -0.9889 0.1412 -0.0471
vn -0.9922 0.1181 -0.0394
vn 0.9697 0.1564 0.1877
vn 0.8797 0.2435 0.4084
vn 0.9214 0.1181 0.3701
vn 0.0001 0.6371 -0.7708
vn -0.4186 0.5845 -0.6951
vn 0.6610 0.7319 0.1652
vn -0.3534 0.9032 -0.2435
vn -0.0000 0.7847 -0.6199
vn -0.4331 0.7008 -0.5669
vn 0.6850 0.0787 0.7243
vn 0.7775 0.1728 0.6047
vn -0.0000 0.6371 -0.7708
vn -0.6611 0.7319 0.1652
vn 0.4186 0.5845 -0.6951
vn -0.8958 -0.0629 0.4400
vn -0.9965 0.0628 0.0549
vn -0.9629 -0.0783 0.2583
vn -0.9799 -0.1411 -0.1411
vn -0.8773 0.4308 0.2115
vn -0.9101 0.2040 0.3608
vn -0.7822 0.5475 0.2972
vn 0.8493 0.4404 0.2910
vn 0.8673 0.2444 0.4336
vn 0.9916 0.1023 0.0787
vn 0.8808 0.0393 0.4719
vn 0.2827 0.4005 0.8716
vn 0.7377 0.0157 0.6749
vn 0.9295 -0.1260 0.3466
vn 0.9491 -0.1020 0.2980
vn 0.9803 -0.1961 -0.0235
vn 0.9276 -0.0551 0.3695
vn 0.9048 -0.1180 0.4091
vn 0.8548 -0.0392 0.5175
vn 0.9505 0.0864 0.2985
vn 0.8969 0.2754 0.3462
vn 0.8901 0.4332 0.1417
vn 0.0471 0.0706 0.9964
vn 0.1810 0.1732 0.9681
vn -0.1099 0.2668 0.9575
vn 0.2271 0.4229 0.8772
vn -0.0706 0.5960 0.7999
vn 0.3528 0.7214 0.5960
vn 0.4720 0.7395 0.4799
vn -0.0000 0.8084 0.5886
vn -0.0000 -0.0000 1.0000
vn 0.4644 0.8184 0.3384
vn -0.7845 -0.0235 0.6197
vn 0.5754 -0.4335 0.6936
vn 0.4964 -0.7958 0.3467
vn 0.7373 -0.1490 0.6589
vn 0.1652 -0.5270 0.8337
vn 0.7275 -0.3163 0.6089
vn 0.9835 -0.0000 0.1810
vn 0.9737 -0.1649 0.1571
vn 0.9888 -0.0000 0.1491
vn -0.4147 0.8920 0.1800
vn -0.4643 0.8185 0.3384
vn -0.0000 0.9414 0.3373
vn -0.0000 0.9414 0.3374
vn -0.4714 0.7856 0.4007
vn 0.9631 0.0392 0.2663
vn -0.0000 0.9414 -0.3373
vn 0.3534 0.9032 -0.2435
vn -0.1734 0.2996 -0.9382
vn -0.3214 0.2352 -0.9173
vn 0.3214 0.3135 -0.8935
vn 0.4079 0.2981 -0.8630
vn -0.9888 -0.0000 0.1491
vn -0.9737 -0.1649 0.1571
vn -0.9835 -0.0000 0.1810
vn -0.9697 0.1564 0.1877
vn -0.7868 0.5901 0.1810
vn -0.7726 0.5755 -0.2680
vn -0.7010 0.6143 0.3623
vn -0.8797 0.2435 0.4084
vn -0.9214 0.1181 0.3702
vn -0.9631 0.0392 0.2663
vn -0.9449 0.1496 0.2913
vn -0.6451 -0.0393 0.7631
vn -0.6849 0.0787 0.7243
vn -0.7775 0.1728 0.6047
vn -0.8680 0.4457 0.2189
vn -0.9705 -0.1957 0.1409
vn 0.9705 -0.1957 0.1409
vn -0.0000 0.6541 -0.7564
vn 0.5338 0.5574 -0.6359
vn 0.5207 0.4970 -0.6942
vn -0.3144 0.4088 -0.8568
vn -0.2680 0.4652 -0.8437
vn 0.7310 0.2830 -0.6209
vn 0.9392 0.2348 -0.2505
vn 0.6143 0.3623 -0.7010
vn -0.5178 0.4943 -0.6983
vn -0.5248 0.1488 -0.8381
vn -0.9565 0.1725 -0.2352
vn -0.9039 0.1493 -0.4009
vn -0.9787 0.0626 0.1957
vn -0.4161 0.4161 -0.8086
vn -0.5175 0.3764 -0.7684
vn -0.3945 0.3629 -0.8442
vn -0.7382 0.2827 -0.6125
vn -0.9256 0.2432 -0.2902
vn -0.9678 0.1966 0.1573
vn 0.3945 0.3629 -0.8442
vn 0.5175 0.3764 -0.7684
vn 0.4161 0.4161 -0.8086
vn 0.9678 0.1967 0.1573
vn 0.9017 0.1647 -0.3998
vn 0.9787 0.0626 0.1957
vn 0.9565 0.1725 -0.2352
vn 0.8982 0.3545 -0.2600
vn 0.1095 0.2189 -0.9696
vn -0.0000 0.4409 -0.8976
vn 0.2680 0.4652 -0.8437
vn 0.4964 0.3467 -0.7958
vn 0.3144 0.4087 -0.8568
vn -0.3387 0.1891 -0.9217
vn -0.4964 0.3467 -0.7958
vn -0.9019 0.2117 -0.3765
vn -0.8185 0.2282 -0.5273
vn 0.4564 -0.3305 -0.8261
vn 0.9276 -0.3223 -0.1887
vn 0.5662 -0.5033 -0.6527
vn -0.4733 0.2998 -0.8283
vn -0.5753 0.3468 -0.7408
vn -0.6141 0.3779 -0.6929
vn -0.5437 0.3467 -0.7643
vn -0.4969 0.3786 -0.7809
vn -0.5662 -0.5033 -0.6527
vn -0.4565 -0.2361 -0.8578
vn -0.7906 -0.3287 -0.5166
vn 0.4969 0.3786 -0.7809
vn 0.5437 0.3467 -0.7643
vn 0.9801 0.0314 -0.1960
vn 0.9771 -0.2128 -0.0000
vn 0.9991 -0.0157 0.0393
vn -0.8709 -0.4472 -0.2040
vn -0.9276 -0.3223 -0.1887
vn -0.4564 -0.3305 -0.8261
vn 0.8709 -0.4472 -0.2040
vn 0.7906 -0.3287 -0.5166
vn 0.4565 -0.2361 -0.8578
vn -0.9991 -0.0157 0.0393
vn -0.9771 -0.2128 -0.0000
vn -0.9801 0.0314 -0.1960
vn -0.7463 -0.0864 0.6599
vn -0.9623 -0.0789 0.2603
vn -0.3699 -0.1731 0.9128
vn -0.3068 -0.0000 0.9518
vn -0.4641 0.7001 0.5427
vn 0.8901 0.4332 0.1418
vn 0.7436 0.5244 0.4148
vn -0.9100 0.2040 0.3609
vn -0.9354 -0.0000 0.3537
vn 0.4964 -0.7959 0.3467
vn 0.8709 0.2040 0.4472
vn 0.5576 -0.0943 0.8247
vn 0.7868 0.5901 0.1810
vn 0.7726 0.5755 -0.2680
vn 0.4331 0.7007 -0.5669
vn -0.4874 0.3066 -0.8176
vn 0.1490 0.2509 -0.9565
vn -0.4546 0.0941 -0.8857
vn 0.1255 0.0863 -0.9883
vn -0.4935 0.0235 -0.8694
vn 0.1174 0.2113 -0.9703
vn -0.4935 0.1175 -0.8617
vn -0.8997 0.3521 -0.2581
vn -0.5338 0.5574 -0.6359
vn -0.0000 0.9992 0.0393
vn 0.4147 0.8920 0.1799
vn 0.7010 0.6143 0.3623
vn 0.5248 0.1488 -0.8381
vn 0.4398 0.0707 -0.8953
vn 0.4475 0.3063 -0.8402
vn -0.4398 0.0707 -0.8953
vn 0.5753 0.3468 -0.7408
vn -0.8997 0.3520 -0.2582
vn -0.0000 0.6540 -0.7565
vn -0.4332 0.1418 -0.8901
vn -0.4474 0.1648 -0.8790
vn -0.4480 0.2279 -0.8645
vn -0.4637 0.3223 -0.8253
vn -0.2681 0.4652 -0.8436
vn -0.3144 0.4087 -0.8568
vn -0.1095 0.2189 -0.9696
vn -0.1259 0.1260 -0.9840
vn -0.0000 -0.1961 -0.9806
vn -0.0000 -0.6199 -0.7847
vn -0.0000 -0.3468 -0.9379
vn -0.0000 -0.2112 -0.9774
vn -0.0000 0.3304 -0.9438
vn 0.6752 0.1492 -0.7224
vn 0.9415 -0.2982 -0.1569
vn 0.8680 0.4457 0.2189
vn 0.9449 0.1496 0.2913
vn 0.9984 0.0550 0.0157
vn 0.9805 0.1726 -0.0941
vn 0.6451 -0.0394 0.7631
vn 0.6668 -0.0079 0.7452
vn 0.6911 0.0157 0.7226
vn 0.9673 0.2202 -0.1259
vn 0.7494 0.2445 -0.6153
vn 0.4874 0.3066 -0.8176
vn 0.4546 0.0940 -0.8857
vn -0.1490 0.2509 -0.9565
vn 0.4935 0.0235 -0.8694
vn -0.1255 0.0863 -0.9883
vn 0.4936 0.1175 -0.8617
vn -0.1174 0.2113 -0.9703
vn 0.3215 0.2352 -0.9172
vn -0.4079 0.2981 -0.8630
vn 0.1734 0.2996 -0.9382
vn -0.3214 0.3135 -0.8936
vn -0.7494 0.2445 -0.6153
vn 0.4643 0.8185 0.3384
vn 0.7009 0.6144 0.3623
vn 0.4721 0.7395 0.4799
vn -0.0000 0.4409 -0.8975
vn -0.0000 0.0472 -0.9989
vn -0.0000 0.1644 -0.9864
vn -0.0000 0.3068 -0.9518
vn 0.2444 0.2995 -0.9223
vn 0.2120 0.2591 -0.9423
vn 0.2042 0.2356 -0.9502
vn 0.1731 0.2203 -0.9599
vn -0.1731 0.2203 -0.9599
vn -0.2042 0.2356 -0.9502
vn -0.2120 0.2591 -0.9423
vn -0.2444 0.2995 -0.9223
vn 0.9922 0.1181 -0.0394
vn 0.9889 0.1412 -0.0471
vn 0.9777 0.1183 -0.1734
vn 0.9019 0.2118 -0.3764
vn 0.8185 0.2282 -0.5273
vn 0.4964 0.3467 -0.7959
vn 0.2681 0.4652 -0.8436
vn 0.4637 0.3223 -0.8253
vn 0.4480 0.2279 -0.8645
vn 0.4474 0.1648 -0.8790
vn 0.4332 0.1418 -0.8901
vn -0.6752 0.1492 -0.7224
vn -0.9412 -0.2984 -0.1582
vn -0.4714 0.7857 0.4007
vn -0.7822 0.5475 0.2973
vn -0.4642 0.8185 0.3385
vt 0.746948 0.669952
vt 0.825104 0.791901
vt 0.731201 0.740112
vt 0.725250 0.880280
vt 0.796814 0.924896
vt 0.720062 0.845032
vt 0.281525 0.783905
vt 0.227875 0.783905
vt 0.282501 0.881744
vt 0.287384 0.637970
vt 0.235504 0.637299
vt 0.503021 0.527924
vt 0.387604 0.636414
vt 0.388641 0.527924
vt 0.659302 0.527924
vt 0.723938 0.527924
vt 0.722168 0.646606
vt 0.759857 0.582306
vt 0.799072 0.656891
vt 0.797668 0.597748
vt 0.807343 0.416779
vt 0.983276 0.302460
vt 0.962402 0.390015
vt 0.264435 0.386078
vt 0.224213 0.310028
vt 0.318298 0.310028
vt 0.622192 0.144897
vt 0.431641 0.114502
vt 0.514709 0.219299
vt 0.373505 0.387146
vt 0.414734 0.311310
vt 0.551117 0.872375
vt 0.443298 0.839325
vt 0.538605 0.927185
vt 0.462952 0.936920
vt 0.492249 0.728485
vt 0.590546 0.813690
vt 0.570740 0.679077
vt 0.492279 0.728485
vt 0.504669 0.824524
vt 0.508362 0.867126
vt 0.863708 0.670959
vt 0.563873 0.890930
vt 0.560120 0.989990
vt 0.512054 0.909729
vt 0.462982 0.936920
vt 0.796570 0.989990
vt 0.682953 0.989990
vt 0.799744 0.900574
vt 0.643646 0.901825
vt 0.758362 0.791870
vt 0.691620 0.791840
vt 0.926788 0.989990
vt 0.966980 0.882416
vt 0.867920 0.893829
vt 0.924377 0.781769
vt 0.807434 0.783997
vt 0.942261 0.708893
vt 0.906647 0.665924
vt 0.785400 0.666626
vt 0.983917 0.127716
vt 0.981750 0.009979
vt 0.758423 0.980896
vt 0.389740 0.701416
vt 0.387451 0.676514
vt 0.401855 0.674896
vt 0.422089 0.746216
vt 0.441742 0.715942
vt 0.416260 0.673279
vt 0.905792 0.554291
vt 0.863770 0.607361
vt 0.796417 0.546478
vt 0.818298 0.123016
vt 0.677795 0.665039
vt 0.916718 0.462097
vt 0.607330 0.009979
vt 0.084137 0.989990
vt 0.083832 0.881744
vt 0.172821 0.989990
vt 0.174225 0.881744
vt 0.816528 0.238647
vt 0.620667 0.276215
vt 0.983551 0.230835
vt 0.283539 0.445404
vt 0.335022 0.446075
vt 0.318970 0.386597
vt 0.664764 0.302032
vt 0.603149 0.332977
vt 0.746979 0.527344
vt 0.009979 0.253357
vt 0.131409 0.326721
vt 0.128876 0.402344
vt 0.653717 0.657532
vt 0.597015 0.650543
vt 0.300751 0.785126
vt 0.344269 0.783356
vt 0.364288 0.886719
vt 0.128876 0.527344
vt 0.250214 0.527344
vt 0.276611 0.644501
vt 0.357025 0.609039
vt 0.597015 0.657959
vt 0.689056 0.657959
vt 0.673828 0.604187
vt 0.343781 0.702454
vt 0.392395 0.507904
vt 0.337616 0.350677
vt 0.501953 0.636414
vt 0.598083 0.527924
vt 0.720886 0.581085
vt 0.722839 0.657959
vt 0.739044 0.563690
vt 0.722870 0.528564
vt 0.119141 0.009979
vt 0.249176 0.009979
vt 0.115753 0.070557
vt 0.179749 0.785126
vt 0.168335 0.886719
vt 0.168335 0.989990
vt 0.393768 0.989990
vt 0.086975 0.146851
vt 0.197205 0.152008
vt 0.441925 0.080566
vt 0.364716 0.112000
vt 0.438507 0.009979
vt 0.241150 0.097687
vt 0.601135 0.884857
vt 0.829895 0.989990
vt 0.861420 0.939301
vt 0.689972 0.726776
vt 0.574249 0.815399
vt 0.565643 0.663605
vt 0.596039 0.706635
vt 0.600769 0.875092
vt 0.659882 0.941498
vt 0.400360 0.764893
vt 0.406555 0.797150
vt 0.170135 0.385529
vt 0.232086 0.444763
vt 0.141052 0.444763
vt 0.183624 0.636658
vt 0.094513 0.636658
vt 0.174194 0.783905
vt 0.086304 0.783905
vt 0.620300 0.451752
vt 0.445984 0.313782
vt 0.818298 0.009979
vt 0.128876 0.644501
vt 0.387604 0.657959
vt 0.501953 0.657959
vt 0.659302 0.547516
vt 0.009979 0.139984
vt 0.009979 0.092804
vt 0.009979 0.045837
vt 0.009979 0.009979
vt 0.009979 0.178986
vt 0.180969 0.178986
vt 0.364716 0.178986
vt 0.283112 0.989990
vt 0.654724 0.669952
vt 0.637299 0.688354
vt 0.009979 0.253906
vt 0.009979 0.402344
vt 0.009979 0.527344
vt 0.009979 0.644501
vt 0.009979 0.785126
vt 0.009979 0.886719
vt 0.009979 0.989990
vt 0.976257 0.777618
vt 0.387054 0.206757
s 1
usemtl f_hair0117
f 1/1/1 2/2/2 3/3/3
f 4/4/4 5/5/5 6/6/6
f 7/7/7 8/8/8 9/9/9
f 10/10/10 11/11/11 8/8/8
f 12/12/12 13/13/13 14/14/14
f 15/15/15 16/16/16 17/17/17
f 18/18/18 19/19/19 20/20/20
f 21/21/21 22/22/22 23/23/23
f 24/24/24 25/25/25 26/26/26
f 27/27/27 28/28/28 29/29/29
f 30/30/30 26/26/26 31/31/31
f 32/24/32 33/26/33 34/25/34
f 35/32/35 36/33/36 37/34/37
f 37/34/37 36/33/36 38/35/38
f 39/36/39 40/37/40 41/38/41
f 42/39/42 43/40/43 44/33/44
f 44/33/44 43/40/43 45/41/45
f 2/2/2 1/1/1 46/42/46
f 47/43/47 48/44/48 49/45/49
f 49/45/49 48/44/48 50/46/50
f 51/47/51 52/48/52 53/49/53
f 53/49/53 52/48/52 54/50/54
f 53/49/53 54/50/54 55/51/55
f 55/51/55 54/50/54 56/52/56
f 57/53/57 58/54/58 59/55/59
f 59/55/59 58/54/58 60/56/60
f 59/55/59 60/56/60 61/57/61
f 62/58/62 63/59/63 64/60/64
s 0
f 64/60/64 63/59/65 65/61/66
f 64/60/64 65/61/66 66/62/65
s 1
f 5/5/5 4/4/4 67/63/67
f 68/64/68 69/65/69 70/66/69
f 71/67/70 72/68/71 73/69/72
f 74/70/73 75/71/74 76/72/75
f 77/73/76 78/61/77 66/62/78
s 0
f 66/62/79 78/61/65 79/74/80
f 66/62/79 79/74/80 64/60/65
s 1
f 23/23/23 80/75/81 21/21/21
f 28/28/28 81/76/82 82/27/83
f 83/77/84 84/78/85 85/79/86
f 85/79/86 84/78/85 86/80/87
f 87/72/88 88/71/89 89/70/90
f 90/21/91 91/81/92 92/82/93
f 93/83/94 91/81/92 94/22/95
f 94/22/95 91/81/92 90/21/91
f 94/22/95 90/21/91 95/23/96
f 95/23/96 90/21/91 96/75/97
f 8/8/8 7/7/7 10/10/10
f 11/11/11 10/10/10 97/84/98
f 97/84/98 10/10/10 98/85/99
f 97/84/98 98/85/99 99/30/100
f 100/31/101 33/26/33 99/30/100
f 99/30/100 33/26/33 101/86/102
f 99/30/100 101/86/102 97/84/98
f 102/87/103 103/88/103 104/89/103
f 105/89/104 106/88/104 107/87/104
f 108/90/105 109/91/106 110/92/107
f 111/93/108 15/15/15 112/94/109
f 113/95/110 114/96/111 115/97/112
f 116/92/113 117/98/114 118/99/115
f 118/99/115 117/98/114 119/100/116
f 118/99/115 119/100/116 120/101/117
f 121/102/118 122/103/119 123/104/120
f 124/95/121 125/96/122 119/100/116
f 119/100/116 125/96/122 126/105/123
f 119/100/116 126/105/123 120/101/117
f 127/104/124 128/103/125 129/102/126
f 130/105/127 131/100/128 132/101/129
f 132/101/129 131/100/128 133/99/130
f 132/101/129 133/99/130 134/106/75
f 134/106/75 133/99/130 135/107/131
f 13/13/13 12/12/12 136/108/132
f 136/108/132 12/12/12 137/109/133
f 136/108/132 137/109/133 138/94/134
f 139/110/135 140/93/136 17/17/17
f 17/17/17 140/93/136 15/15/15
f 16/16/16 15/15/15 141/17/137
f 141/17/137 15/15/15 111/93/108
f 141/17/137 111/93/108 142/110/138
f 19/19/19 18/18/18 143/111/139
f 143/111/139 18/18/18 144/112/140
f 143/111/139 144/112/140 145/113/138
f 146/114/141 147/115/142 148/116/143
f 149/117/144 150/118/145 151/97/146
f 151/97/146 150/118/145 152/119/147
f 151/97/146 152/119/147 153/120/148
f 154/116/149 155/121/150 156/122/151
f 157/120/152 158/119/153 115/97/112
f 159/123/154 160/124/155 161/125/156
f 156/122/151 162/126/157 154/116/149
f 154/116/149 162/126/157 163/115/158
f 154/116/149 163/115/158 164/114/159
f 147/115/142 165/126/160 148/116/143
f 148/116/143 165/126/160 166/122/161
f 148/116/143 166/122/161 167/121/162
f 168/125/163 169/124/164 170/123/165
f 39/36/39 36/33/36 40/37/40
f 40/37/40 36/33/36 35/32/35
f 40/37/40 35/32/35 171/127/166
f 171/127/166 35/32/35 37/34/37
f 171/127/166 37/34/37 172/44/167
f 172/44/167 37/34/37 38/35/38
f 173/128/168 174/129/169 5/5/5
f 5/5/5 174/129/169 59/55/59
f 5/5/5 59/55/59 6/6/6
f 6/6/6 59/55/59 61/57/61
f 6/6/6 61/57/61 175/130/170
f 50/46/50 44/33/44 49/45/49
f 49/45/49 44/33/44 45/41/45
f 49/45/49 45/41/45 47/43/47
f 47/43/47 45/41/45 43/40/43
f 47/43/47 43/40/43 176/131/171
f 176/131/171 43/40/43 42/39/42
f 176/131/171 42/39/42 177/132/172
f 175/130/170 178/133/41 6/6/6
f 6/6/6 178/133/41 179/134/173
f 6/6/6 179/134/173 4/4/4
f 4/4/4 179/134/173 180/135/174
f 4/4/4 180/135/174 67/63/67
f 70/66/175 68/64/68 73/69/72
f 73/69/72 68/64/68 181/136/176
f 73/69/72 181/136/176 71/67/70
f 71/67/70 181/136/176 182/137/177
f 71/67/70 182/137/177 72/68/71
f 22/22/22 21/21/21 183/81/178
f 183/81/178 21/21/21 184/82/179
f 183/81/178 184/82/179 82/27/83
f 82/27/83 184/82/179 185/29/180
f 82/27/83 185/29/180 28/28/28
f 25/25/25 24/24/24 186/138/181
f 186/138/181 24/24/24 187/139/182
f 186/138/181 187/139/182 188/140/183
f 188/140/183 187/139/182 189/141/184
f 188/140/183 189/141/184 190/142/185
f 190/142/185 189/141/184 191/143/186
f 190/142/185 191/143/186 192/144/187
f 89/70/90 96/75/97 87/72/88
f 87/72/88 96/75/97 90/21/91
f 87/72/88 90/21/91 193/145/188
f 193/145/188 90/21/91 92/82/93
f 193/145/188 92/82/93 194/146/189
f 28/28/28 27/27/27 81/76/82
f 81/76/82 27/27/27 195/147/190
f 81/76/82 195/147/190 82/27/83
f 82/27/83 195/147/190 196/73/191
f 82/27/83 196/73/191 183/81/178
f 183/81/178 196/73/191 197/83/192
f 183/81/178 197/83/192 22/22/22
f 109/91/106 135/107/131 110/92/107
f 110/92/107 135/107/131 133/99/130
f 110/92/107 133/99/130 198/98/193
f 198/98/193 133/99/130 131/100/128
f 198/98/193 131/100/128 199/148/194
f 199/148/194 131/100/128 200/117/195
f 117/98/114 201/148/196 119/100/116
f 119/100/116 201/148/196 149/117/144
f 119/100/116 149/117/144 124/95/121
f 124/95/121 149/117/144 151/97/146
f 124/95/121 151/97/146 125/96/122
f 130/105/127 114/96/111 131/100/128
f 131/100/128 114/96/111 113/95/110
f 131/100/128 113/95/110 200/117/195
f 200/117/195 113/95/110 115/97/112
f 200/117/195 115/97/112 202/118/197
f 202/118/197 115/97/112 158/119/153
f 120/101/117 203/106/88 118/99/115
f 118/99/115 203/106/88 204/107/198
f 118/99/115 204/107/198 116/92/113
f 116/92/113 204/107/198 205/91/189
f 116/92/113 205/91/189 108/90/199
f 206/14/200 207/149/201 208/12/202
f 208/12/202 207/149/201 209/150/203
f 208/12/202 209/150/203 210/109/204
f 210/109/204 209/150/203 121/102/118
f 210/109/204 121/102/118 211/151/205
f 211/151/205 121/102/118 123/104/120
f 211/151/205 123/104/120 145/113/138
f 145/113/138 123/104/120 122/103/119
f 145/113/138 122/103/119 143/111/139
f 140/93/136 138/94/134 15/15/15
f 15/15/15 138/94/134 137/109/133
f 15/15/15 137/109/133 112/94/109
f 112/94/109 137/109/133 12/12/12
f 112/94/109 12/12/12 212/108/206
f 212/108/206 12/12/12 14/14/14
f 212/108/206 14/14/14 213/13/207
f 214/152/208 155/121/150 215/153/209
f 215/153/209 155/121/150 154/116/149
f 215/153/209 154/116/149 216/154/210
f 216/154/210 154/116/149 164/114/159
f 216/154/210 164/114/159 217/155/211
f 218/156/212 167/121/162 219/157/213
f 219/157/213 167/121/162 166/122/161
f 219/157/213 166/122/161 220/158/214
f 220/158/214 166/122/161 165/126/160
f 220/158/214 165/126/160 160/124/155
f 160/124/155 165/126/160 147/115/142
f 160/124/155 147/115/142 161/125/156
f 26/26/26 221/86/215 24/24/24
f 24/24/24 221/86/215 222/84/216
f 24/24/24 222/84/216 187/139/182
f 187/139/182 222/84/216 223/11/217
f 187/139/182 223/11/217 189/141/184
f 189/141/184 223/11/217 224/8/218
f 189/141/184 224/8/218 191/143/186
f 191/143/186 224/8/218 86/80/87
f 191/143/186 86/80/87 192/144/187
f 192/144/187 86/80/87 84/78/85
f 26/26/26 30/30/30 221/86/215
f 221/86/215 30/30/30 225/85/219
f 221/86/215 225/85/219 222/84/216
f 222/84/216 225/85/219 226/10/220
f 222/84/216 226/10/220 223/11/217
f 223/11/217 226/10/220 227/7/221
f 223/11/217 227/7/221 224/8/218
f 224/8/218 227/7/221 228/9/222
f 224/8/218 228/9/222 86/80/87
f 86/80/87 228/9/222 229/159/223
f 86/80/87 229/159/223 85/79/86
f 34/25/34 230/138/224 32/24/32
f 32/24/32 230/138/224 231/140/225
f 32/24/32 231/140/225 232/139/226
f 232/139/226 231/140/225 233/142/227
f 232/139/226 233/142/227 234/141/228
f 234/141/228 233/142/227 235/144/229
f 234/141/228 235/144/229 236/143/230
f 236/143/230 235/144/229 237/78/231
f 236/143/230 237/78/231 238/80/232
f 238/80/232 237/78/231 239/77/233
f 238/80/232 239/77/233 240/79/234
f 33/26/33 32/24/32 101/86/102
f 101/86/102 32/24/32 232/139/226
f 101/86/102 232/139/226 97/84/98
f 97/84/98 232/139/226 234/141/228
f 97/84/98 234/141/228 11/11/11
f 11/11/11 234/141/228 236/143/230
f 11/11/11 236/143/230 8/8/8
f 8/8/8 236/143/230 238/80/232
f 8/8/8 238/80/232 9/9/9
f 9/9/9 238/80/232 240/79/234
f 9/9/9 240/79/234 241/159/235
f 27/27/27 77/73/76 195/147/190
f 195/147/190 77/73/76 66/62/78
f 195/147/190 66/62/78 196/73/191
f 196/73/191 66/62/78 65/61/236
f 196/73/191 65/61/236 197/83/192
s 0
f 197/83/237 65/61/65 242/160/63
f 197/83/192 242/160/63 243/161/65
s 1
f 243/161/172 242/160/238 1/1/1
f 243/161/172 1/1/1 56/52/56
f 56/52/56 1/1/1 3/3/3
f 56/52/56 3/3/3 55/51/55
f 55/51/55 3/3/3 2/2/2
f 55/51/55 2/2/2 53/49/53
f 244/162/199 110/92/107 245/163/239
f 245/163/239 110/92/107 198/98/193
f 245/163/239 198/98/193 246/164/240
f 246/164/240 198/98/193 199/148/194
f 246/164/240 199/148/194 247/165/241
f 247/165/241 199/148/194 200/117/195
f 247/165/241 200/117/195 248/166/242
f 248/166/242 200/117/195 249/118/243
f 248/166/242 249/118/243 250/167/244
f 250/167/244 249/118/243 251/119/245
f 250/167/244 251/119/245 252/168/246
f 253/168/247 254/119/248 255/167/249
f 255/167/249 254/119/248 256/118/250
f 255/167/249 256/118/250 248/166/242
f 248/166/242 256/118/250 149/117/144
f 248/166/242 149/117/144 247/165/241
f 247/165/241 149/117/144 201/148/196
f 247/165/241 201/148/196 246/164/240
f 246/164/240 201/148/196 117/98/114
f 246/164/240 117/98/114 245/163/239
f 245/163/239 117/98/114 116/92/113
f 245/163/239 116/92/113 244/162/199
f 257/20/251 258/19/252 259/18/253
f 259/18/253 258/19/252 260/111/254
f 259/18/253 260/111/254 261/112/255
f 261/112/255 260/111/254 128/103/125
f 261/112/255 128/103/125 262/113/256
f 262/113/256 128/103/125 127/104/124
f 262/113/256 127/104/124 263/151/136
f 263/151/136 127/104/124 129/102/126
f 263/151/136 129/102/126 264/109/257
f 264/109/257 129/102/126 265/150/258
f 264/109/257 265/150/258 266/12/259
f 266/12/259 265/150/258 267/149/260
f 266/12/259 267/149/260 268/14/261
f 217/155/211 146/114/141 216/154/210
f 216/154/210 146/114/141 148/116/143
f 216/154/210 148/116/143 215/153/209
f 215/153/209 148/116/143 167/121/162
f 215/153/209 167/121/162 214/152/208
f 214/152/208 167/121/162 218/156/212
f 214/152/208 218/156/212 155/121/150
f 155/121/150 218/156/212 269/157/262
f 155/121/150 269/157/262 156/122/151
f 156/122/151 269/157/262 270/158/263
f 156/122/151 270/158/263 162/126/157
f 162/126/157 270/158/263 169/124/164
f 162/126/157 169/124/164 163/115/158
f 163/115/158 169/124/164 168/125/163
f 58/54/58 271/169/46 60/56/60
f 60/56/60 271/169/46 62/58/62
f 60/56/60 62/58/62 61/57/61
f 61/57/61 62/58/62 64/60/64
f 61/57/61 64/60/64 175/130/170
f 175/130/170 64/60/64 79/74/264
f 175/130/170 79/74/264 178/133/41
s 0
f 178/133/265 79/74/65 78/61/77
f 178/133/265 78/61/266 93/83/65
s 1
f 93/83/94 78/61/77 77/73/76
f 93/83/94 77/73/76 91/81/92
f 91/81/92 77/73/76 27/27/27
f 91/81/92 27/27/27 92/82/93
f 92/82/93 27/27/27 29/29/29
f 92/82/93 29/29/29 194/146/189
f 194/146/189 29/29/29 28/28/28
f 194/146/189 28/28/28 272/170/199
f 272/170/199 28/28/28 185/29/180
f 272/170/199 185/29/180 273/146/106
f 273/146/106 185/29/180 184/82/179
f 273/146/106 184/82/179 274/145/131
f 274/145/131 184/82/179 21/21/21
f 274/145/131 21/21/21 76/72/75
f 76/72/75 21/21/21 80/75/81
f 76/72/75 80/75/81 74/70/73
o editpl_f-0000-1917
v -4.364926 66.076324 -1.720379
v -5.052733 64.664642 -6.472523
v -7.875385 66.486992 -5.313382
v -8.052628 62.755665 -3.594119
v 8.052628 62.755665 -3.594119
v 5.052733 64.664642 -6.472523
v 7.875385 66.486992 -5.313382
v 4.364926 66.076324 -1.720379
vn -0.1806 0.9421 0.2826
vn -0.0862 0.4235 -0.9018
vn -0.6257 0.7039 -0.3363
vn -0.9969 0.0079 -0.0785
vn 0.9969 0.0079 -0.0785
vn 0.0862 0.4235 -0.9018
vn 0.6257 0.7039 -0.3363
vn 0.1806 0.9421 0.2826
vt 0.547211 0.519714
vt 0.546814 0.442444
vt 0.393860 0.441040
vt 0.545746 0.396179
s 1
usemtl f_hair0117
f 275/171/267 276/172/268 277/173/269
f 277/173/269 276/172/268 278/174/270
f 277/173/269 278/174/270 275/171/267
f 279/174/271 280/172/272 281/173/273
f 281/173/273 280/172/272 282/171/274
f 281/173/273 282/171/274 279/174/271
