mtllib nekoht.mtl
o npc_02-0001-0
v -5.426904 -24.593527 -2.443916
v -4.446406 -17.700621 -7.677356
v -1.500146 -19.083944 5.000688
v -13.792122 -16.829126 2.031309
v -4.446406 -17.700621 -7.677356
v -5.426904 -24.593527 -2.443916
v -8.524132 -18.996990 16.486748
v -14.249793 -15.631562 11.542486
v -9.310755 -27.247534 11.320312
v -13.792122 -16.829126 2.031309
v -10.000440 -27.324604 3.879236
v -5.426904 -24.593527 -2.443916
v -5.465043 -30.148561 -1.661016
v -3.887030 -19.730154 13.291669
v -8.524132 -18.996990 16.486748
v -5.910001 -27.247534 11.320312
v -9.310755 -27.247534 11.320312
v -5.728840 -30.409416 8.156974
v -10.000440 -27.324604 3.879236
v -7.114567 -35.025768 -3.364351
v -5.579461 -33.676037 -5.568461
v 0.014302 -5.881105 -10.019004
v -4.446406 -17.700621 -7.677356
v -6.898445 -6.539172 -5.751845
v -13.792122 -16.829126 2.031309
v -14.281576 -2.167867 0.610098
v -14.249793 -15.631562 11.542486
v -11.530780 -6.102435 13.527948
v -8.524132 -18.996990 16.486748
v -4.943806 -14.017025 13.711331
v -3.887030 -19.730154 13.291669
v -1.500146 -19.083944 5.000688
v -1.225225 -27.462936 3.977980
v -5.426904 -24.593527 -2.443916
v -2.598239 -29.221733 3.286771
v -5.465043 -30.148561 -1.661016
v -2.849323 -33.968513 -1.777392
v -5.579461 -33.676037 -5.568461
v -7.114567 -35.025768 -3.364351
v -5.746320 -35.403217 -0.514877
v -5.728840 -30.409416 8.156974
v -2.598239 -29.221733 3.286771
v -5.910001 -27.247534 11.320312
v -1.225225 -27.462936 3.977980
v -3.887030 -19.730154 13.291669
v 3.294281 -27.221846 -21.402792
v 2.054754 -25.384001 -22.644146
v 3.354669 -29.946993 -30.790539
v 2.299482 -28.551811 -30.437881
v 4.408267 -28.534027 -30.339138
v 3.354669 -27.684271 -31.792086
v 4.548111 -25.164644 -22.682940
v 3.222770 -23.370275 -23.712700
v 2.434558 -18.246046 -15.157225
v 1.528750 -19.083944 5.000688
v 0.014302 -19.406061 5.409770
v 1.299914 -20.801243 -7.836051
v -1.500146 -19.083944 5.000688
v -4.446406 -17.700621 -7.677356
v -4.446406 -17.700621 -7.677356
v 0.014302 -5.881105 -10.019004
v 0.014302 -11.210855 -11.722340
v 4.476599 -17.700621 -7.677356
v 4.187377 -19.967299 -13.517366
v 2.434558 -22.641064 -11.574223
v 3.294281 -27.221846 -21.402792
v 0.681740 -19.967299 -13.517366
v 2.054754 -25.384001 -22.644146
v 0.681740 -19.967299 -13.517366
v 2.054754 -25.384001 -22.644146
v 3.294281 -27.221846 -21.402792
v 4.187377 -19.967299 -13.517366
v 0.014302 -11.210855 -11.722340
v 2.434558 -22.641064 -11.574223
v 1.299914 -20.801243 -7.836051
v 4.476599 -17.700621 -7.677356
v 1.528750 -19.083944 5.000688
v 0.014302 -4.711206 15.615681
v -11.530780 -6.102435 13.527948
v 0.014302 -9.467865 15.206599
v -4.943806 -14.017025 13.711331
v 0.014302 -17.230288 13.305775
v -1.500146 -19.083944 5.000688
v 5.455508 -24.593527 -2.443916
v 4.476599 -17.700621 -7.677356
v 13.820726 -16.829126 2.031309
v 1.528750 -19.083944 5.000688
v 4.476599 -17.700621 -7.677356
v 5.455508 -24.593527 -2.443916
v 2.763510 -19.700510 12.953118
v 1.255418 -27.462936 3.977980
v 5.938606 -27.243582 11.320312
v 2.626844 -29.221733 3.286771
v 5.757444 -30.409416 8.156974
v 2.877927 -33.968513 -1.777392
v 5.774925 -35.403217 -0.514877
v 5.493647 -30.148561 -1.661016
v 5.455508 -24.593527 -2.443916
v 10.029045 -27.324604 3.879236
v 13.820726 -16.829126 2.031309
v 10.156176 -28.028124 10.883017
v 14.278398 -15.631562 11.542486
v 8.552736 -18.996990 16.486748
v 5.608065 -33.676037 -5.568461
v 5.493647 -30.148561 -1.661016
v 7.143172 -35.025768 -3.364351
v 10.029045 -27.324604 3.879236
v 5.757444 -30.409416 8.156974
v 10.156176 -28.028124 10.883017
v 5.938606 -27.243582 11.320312
v 8.552736 -18.996990 16.486748
v 2.763510 -19.700510 12.953118
v 5.608065 -33.676037 -5.568461
v 2.877927 -33.968513 -1.777392
v 5.493647 -30.148561 -1.661016
v 2.626844 -29.221733 3.286771
v 5.455508 -24.593527 -2.443916
v 1.255418 -27.462936 3.977980
v 1.528750 -19.083944 5.000688
v 4.973999 -14.020977 13.700751
v 8.552736 -18.996990 16.486748
v 11.559384 -6.102435 13.527948
v 14.278398 -15.631562 11.542486
v 14.310180 -2.167867 0.610098
v 13.820726 -16.829126 2.031309
v 6.928638 -6.539172 -5.751845
v 4.476599 -17.700621 -7.677356
v 0.014302 -5.881105 -10.019004
v 4.973999 -14.020977 13.700751
v 0.014302 -17.230288 13.305775
v 1.528750 -19.083944 5.000688
v 0.014302 -17.230288 13.305775
v 4.973999 -14.020977 13.700751
v 0.014302 -9.467865 15.206599
v 11.559384 -6.102435 13.527948
v 0.014302 -4.711206 15.615681
v 0.014302 -19.406061 5.409770
v 0.014302 -17.230288 13.305775
v -1.500146 -19.083944 5.000688
v 1.528750 -19.083944 5.000688
v 0.017481 26.500538 12.575770
v 0.014302 27.488628 15.238337
v -3.842534 27.354248 13.383356
v -3.284747 27.974766 11.309729
v -5.739964 24.415670 11.225091
v 0.038139 24.235840 12.572244
v -3.284747 27.974766 11.309729
v -3.842534 27.354248 13.383356
v -5.793994 28.800808 10.131853
v 0.014302 27.488628 15.238337
v 0.017481 26.500538 12.575770
v 3.874316 27.354248 13.383356
v 3.321297 27.974766 11.309729
v 5.825777 28.800808 9.292527
v -5.739964 24.415670 11.225091
v -3.284747 27.974766 11.309729
v -7.243287 26.257467 8.248661
v -4.463886 29.358089 5.229911
v -10.617026 34.887436 6.876821
v 0.019070 34.136486 -0.059955
v 10.648808 34.887436 6.876821
v 4.543343 29.356113 5.233438
v 0.019070 34.136486 -0.059955
v 0.052442 29.571518 -1.932566
v -4.463886 29.358089 5.229911
v -5.728840 27.200106 3.410198
v -7.243287 26.257467 8.248661
v -3.842534 27.354248 13.383356
v -3.284747 27.974766 11.309729
v 0.017481 26.500538 12.575770
v 0.038139 24.235840 12.572244
v 3.321297 27.974766 11.309729
v 5.773335 24.415670 11.225091
v 5.825777 28.800808 9.292527
v 7.276659 26.257467 8.248661
v 4.543343 29.356113 5.233438
v 5.746320 27.178368 3.470149
v 0.052442 29.571518 -1.932566
v 4.543343 29.356113 5.233438
v 10.648808 34.887436 6.876821
v 5.825777 28.800808 9.292527
v -9.510986 40.653919 16.176403
v -3.705868 37.513775 21.854193
v 0.014302 42.685429 21.568539
v -2.134211 31.296722 25.148016
v -1.846577 32.776878 23.137867
v -6.955654 32.468594 21.127720
v 2.846145 27.794935 21.903564
v 0.014302 27.488628 15.238337
v 3.874316 27.354248 13.383356
v -10.617026 34.887436 6.876821
v -5.793994 28.800808 10.131853
v -10.613847 31.431101 12.092629
v -3.842534 27.354248 13.383356
v -7.333868 28.668407 18.701433
v -9.218585 41.993767 22.161003
v -4.109509 39.630260 17.759836
v -13.585534 41.084728 23.257769
v -7.756579 38.764694 17.460077
v 4.544932 39.632236 17.763363
v 9.223352 41.995747 22.164530
v 8.234909 38.237057 17.460077
v 13.590301 41.086704 23.261295
v 1.884717 32.776878 23.137867
v 3.737651 37.513775 21.854193
v 0.014302 36.377472 23.889029
v -2.814362 27.794935 21.903564
v 2.846145 27.794935 21.903564
v -0.125542 29.199999 25.176228
v -2.814362 27.794935 21.903564
v 0.014302 46.404594 8.114649
v 0.014302 40.851540 1.287197
v -2.925602 45.987621 8.114649
v -7.796307 40.250778 5.847061
v -9.286918 42.950237 12.896688
v 0.014302 31.186056 25.715796
v 2.582348 43.248642 10.061320
v 3.221181 42.726929 18.260611
v 6.647361 49.038841 19.516071
v 6.256433 38.719242 5.931699
v 2.582348 43.248642 10.061320
v 10.944388 46.056789 10.202382
v 8.536845 52.663151 17.883266
v 8.368396 46.948044 18.112494
v -4.915201 29.472712 22.474871
v 9.288507 37.428799 13.245819
v 11.104891 41.286297 12.762678
v 7.217861 39.456356 17.900900
v -8.511419 52.675007 17.876213
v -2.556922 43.260498 10.054267
v -10.884001 46.066669 10.195329
v -6.231007 38.731098 5.924646
v -11.079465 41.298153 12.755625
v -9.263081 37.440655 13.238766
v -8.342970 46.959904 18.105440
v -3.224359 42.738789 18.253557
v -6.621935 49.048721 19.509018
v 10.553460 38.656006 12.939007
v 9.317111 42.950237 12.896688
v 9.542769 40.653919 16.176403
v 3.154437 45.977741 16.098818
v -9.085097 29.846209 19.131676
v -12.187093 32.784782 16.391525
v -10.523267 38.656006 12.939007
v 4.948573 29.472712 22.474871
v 6.985847 32.468594 21.127720
v 2.164405 31.296722 25.148016
v 0.017481 33.826225 23.948980
v -2.556922 43.260498 10.054267
v -7.190846 38.938599 17.650513
v -3.122655 45.977741 16.098818
v 0.015891 46.396690 16.098818
v 2.957384 45.987621 8.114649
v 7.828090 40.250778 5.847061
v 10.648808 34.887436 6.876821
v -7.980647 36.918945 19.519600
v -8.919827 34.715508 19.008245
v 9.116880 29.846209 19.131676
v 12.218876 32.784782 16.455004
v 8.951610 34.715508 19.008245
v 8.012430 36.918945 19.519600
v 0.019070 34.136486 -0.059955
v 10.645630 31.431101 12.092629
v 7.365651 28.668407 18.701433
v 5.825777 28.800808 9.292527
v 5.757444 -30.409416 8.156974
v 5.774925 -35.403217 -0.514877
v 7.143172 -35.025768 -3.364351
v 5.774925 -35.403217 -0.514877
v 5.126557 -39.845665 1.460006
v 10.528034 -41.746746 -0.952173
v 7.143172 -35.025768 -3.364351
v 5.287059 -44.315777 7.881902
v 2.467930 -44.327633 5.907019
v 5.361749 -44.315777 -2.637876
v 3.437304 -37.501919 -2.641403
v 2.877927 -33.968513 -1.777392
v 5.608065 -33.676037 -5.568461
v 5.361749 -44.315777 -2.637876
v 5.536554 -39.254787 -5.099427
v 5.608065 -33.676037 -5.568461
v 5.536554 -39.254787 -5.099427
v 0.945537 -41.742794 -1.301304
v 5.337912 -42.290195 6.471272
v 5.287059 -44.315777 7.881902
v 9.110524 -44.303921 5.970497
v 5.287059 -44.315777 7.881902
v -9.080330 -44.303921 5.970497
v -5.331555 -44.315777 -2.637876
v -5.256866 -44.315777 7.881902
v -5.331555 -44.315777 -2.637876
v -2.439326 -44.327633 5.907019
v -5.256866 -44.315777 7.881902
v -2.598239 -29.221733 3.286771
v -5.746320 -35.403217 -0.514877
v -2.849323 -33.968513 -1.777392
v -3.408699 -37.501919 -2.641403
v -5.579461 -33.676037 -5.568461
v -7.114567 -35.025768 -3.364351
v -10.499429 -41.746746 -0.952173
v -5.096363 -39.845665 1.460006
v -5.579461 -33.676037 -5.568461
v -5.507950 -39.254787 -5.099427
v -5.256866 -44.315777 7.881902
v -5.307718 -42.290195 6.471272
v -0.915343 -41.742794 -1.301304
v -5.507950 -39.254787 -5.099427
vn 0.2834 -0.3384 -0.8973
vn -0.6631 -0.4579 -0.5921
vn 0.5098 -0.8551 0.0942
vn -0.8780 -0.2509 -0.4077
vn -0.6632 -0.4579 -0.5921
vn 0.2833 -0.3384 -0.8973
vn -0.0000 -0.1720 0.9851
vn -0.9287 -0.1102 0.3541
vn -0.6456 -0.6062 0.4645
vn -0.8780 -0.2509 -0.4076
vn -0.8892 -0.3462 -0.2990
vn 0.0157 0.4782 -0.8781
vn 0.8079 -0.1020 0.5804
vn 0.4961 -0.5434 0.6772
vn -0.1488 -0.8381 0.5248
vn -0.8892 -0.3463 -0.2990
vn -0.9902 0.1100 -0.0865
vn -0.0000 0.3139 -0.9495
vn -0.0000 0.1734 -0.9849
vn -0.5973 0.0235 -0.8016
vn -0.8780 -0.2508 -0.4077
vn -0.9815 0.1570 -0.1100
vn -0.9287 -0.1102 0.3542
vn -0.4555 0.1806 0.8717
vn 0.2432 -0.1569 0.9572
vn 0.8079 -0.1019 0.5804
vn 0.5099 -0.8551 0.0941
vn 0.9546 -0.2974 0.0157
vn 0.2833 -0.3385 -0.8973
vn 0.9439 -0.3225 -0.0708
vn 0.9948 0.0391 -0.0940
vn -0.0000 0.3138 -0.9495
vn -0.9902 0.1101 -0.0864
vn -0.0079 -0.0707 0.9975
vn 0.9546 -0.2974 0.0156
vn 0.0078 -0.9327 0.3606
vn -0.9961 -0.0392 -0.0784
vn 0.0235 -0.8552 -0.5178
vn -0.9393 -0.1566 -0.3053
vn 0.9475 -0.1175 -0.2975
vn -0.0000 0.1886 -0.9821
vn 0.9994 0.0315 -0.0157
vn -0.0235 0.8694 -0.4935
vn 0.0157 0.6667 -0.7451
vn -0.5109 -0.8567 0.0708
vn -0.0000 -0.9835 0.1809
vn 0.0708 -0.9763 0.2047
vn -0.0000 0.1733 -0.9849
vn 0.0551 0.4244 -0.9038
vn 0.8418 -0.3226 -0.4327
vn 0.9859 0.1330 -0.1017
vn 0.0944 -0.9590 0.2673
vn 0.0079 -0.9327 0.3605
vn -0.8920 -0.1263 -0.4341
vn -0.8919 -0.1263 -0.4342
vn 0.9859 0.1331 -0.1017
vn 0.0550 0.4244 -0.9038
vn 0.0943 -0.9590 0.2673
vn 0.0709 -0.9762 0.2047
vn -0.0000 0.1567 0.9876
vn -0.0000 -0.1491 0.9888
vn -0.0000 -0.7981 0.6025
vn -0.2833 -0.3385 -0.8973
vn 0.8418 -0.3226 -0.4328
vn 0.8738 -0.2362 -0.4251
vn 0.8418 -0.3225 -0.4328
vn -0.8258 -0.0787 0.5584
vn -0.9518 -0.3067 -0.0078
vn -0.4906 -0.5539 0.6726
vn -0.9439 -0.3225 -0.0708
vn 0.1097 -0.8625 0.4940
vn -0.9948 0.0392 -0.0940
vn 0.0078 -0.0707 0.9975
vn -0.0157 0.4782 -0.8781
vn 0.8632 -0.3609 -0.3531
vn 0.8738 -0.2362 -0.4250
vn 0.6421 -0.6342 0.4306
vn 0.9325 -0.0784 0.3526
vn 0.0078 -0.1567 0.9876
vn -0.0157 0.4783 -0.8781
vn 0.9902 0.1100 -0.0865
vn 0.8631 -0.3610 -0.3531
vn 0.1098 -0.8625 0.4940
vn 0.6421 -0.6342 0.4307
vn -0.4906 -0.5539 0.6727
vn 0.0079 -0.1568 0.9876
vn -0.9948 0.0391 -0.0940
vn -0.9518 -0.3068 -0.0079
vn -0.5109 -0.8567 0.0707
vn -0.8258 -0.0786 0.5584
vn -0.2355 -0.1099 0.9656
vn 0.4555 0.1806 0.8717
vn 0.9325 -0.0783 0.3526
vn 0.9815 0.1570 -0.1100
vn 0.8738 -0.2361 -0.4251
vn 0.5973 0.0236 -0.8017
vn -0.0000 -0.9835 0.1810
vn 0.5099 -0.8550 0.0941
vn -0.0000 -0.8897 0.4566
vn -0.0000 -0.9864 0.1644
vn -0.2660 -0.9624 -0.0547
vn -0.5503 -0.5110 0.6603
vn -0.3686 0.3999 0.8392
vn -0.0000 0.2518 0.9678
vn -0.5502 -0.5111 0.6603
vn -0.2660 -0.9624 -0.0548
vn -0.8058 -0.5789 -0.1251
vn -0.0000 -0.9864 0.1645
vn 0.2515 -0.9667 -0.0472
vn 0.5489 -0.4940 0.6743
vn 0.8176 -0.5581 -0.1416
vn -0.3686 0.4000 0.8391
vn -0.5502 -0.5110 0.6604
vn -0.7631 0.6451 0.0394
vn -0.8057 -0.5789 -0.1252
vn -0.8709 0.2040 -0.4472
vn -0.8171 -0.1729 -0.5500
vn -0.0000 0.0079 -1.0000
vn 0.8192 -0.1576 -0.5514
vn 0.8641 0.1964 -0.4635
vn -0.0000 0.6371 -0.7708
vn -0.7299 0.5651 -0.3845
vn -0.7631 0.6451 0.0393
vn -0.2661 -0.9624 -0.0548
vn -0.5503 -0.5109 0.6604
vn 0.3699 0.4249 0.8262
vn 0.8176 -0.5581 -0.1415
vn 0.7635 0.6454 0.0236
vn 0.7309 0.5580 -0.3929
vn 0.8192 -0.1575 -0.5514
vn 0.8176 -0.5582 -0.1415
vn -0.7173 0.4256 0.5517
vn -0.4649 0.3152 0.8274
vn -0.0000 0.6063 0.7953
vn -0.4733 0.2524 0.8440
vn -0.4710 0.4318 0.7693
vn -0.6206 0.1492 0.7698
vn 0.1891 -0.9377 0.2916
vn 0.2515 -0.9667 -0.0471
vn -0.8171 -0.1728 -0.5500
vn -0.6445 -0.7466 -0.1650
vn -0.4567 -0.8741 0.1654
vn -0.2277 0.7694 -0.5968
vn -0.2277 0.7695 -0.5967
vn -0.2277 0.7694 -0.5967
vn 0.2673 0.7232 -0.6368
vn 0.4710 0.4318 0.7693
vn 0.4637 0.3223 0.8253
vn -0.0000 0.1415 0.9899
vn -0.1878 -0.9386 0.2894
vn 0.1891 -0.9377 0.2915
vn -0.0000 -0.5886 0.8084
vn -0.1877 -0.9386 0.2894
vn -0.0000 0.9439 -0.3303
vn -0.0000 0.4876 -0.8731
vn -0.3369 0.8932 -0.2978
vn -0.7228 0.4478 -0.5264
vn -0.7776 0.6283 -0.0236
vn -0.0000 0.1644 0.9864
vn -0.6446 0.6604 -0.3852
vn 0.3993 0.1252 0.9082
vn -0.3863 0.2917 0.8751
vn 0.6496 -0.0391 -0.7592
vn 0.9383 0.2523 -0.2365
vn 0.3619 0.8655 0.3462
vn 0.7075 -0.3066 0.6367
vn -0.5357 -0.5041 0.6774
vn 0.9072 -0.4181 0.0473
vn 0.9697 -0.0000 0.2444
vn 0.7628 0.1495 0.6291
vn -0.3619 0.8655 0.3462
vn 0.6447 0.6603 -0.3852
vn -0.9365 0.2519 -0.2440
vn -0.6452 -0.0314 -0.7634
vn -0.9656 -0.0236 0.2590
vn -0.9075 -0.4182 0.0395
vn -0.7075 -0.3066 0.6367
vn -0.4010 0.0865 0.9120
vn 0.3836 0.2897 0.8769
vn 0.9526 0.2834 0.1102
vn 0.7776 0.6283 -0.0236
vn 0.7173 0.4256 0.5517
vn 0.3713 0.8610 0.3476
vn -0.6912 -0.5734 0.4399
vn -0.9424 -0.0550 0.3298
vn -0.9526 0.2834 0.1102
vn 0.5279 -0.5121 0.6776
vn 0.6206 0.1492 0.7698
vn 0.4719 0.2359 0.8495
vn -0.0000 0.5029 0.8644
vn 0.6446 0.6604 -0.3852
vn -0.7608 0.0863 0.6432
vn -0.3713 0.8610 0.3476
vn -0.0000 0.9821 0.1886
vn 0.3369 0.8932 -0.2977
vn 0.7228 0.4478 -0.5264
vn -0.8109 0.2362 0.5354
vn -0.7641 0.3072 0.5672
vn 0.6912 -0.5734 0.4399
vn 0.9403 -0.0470 0.3370
vn 0.7641 0.3072 0.5672
vn 0.8109 0.2362 0.5354
vn 0.6536 -0.7402 -0.1575
vn 0.4567 -0.8741 0.1654
vn 0.0079 -0.0708 0.9975
vn 0.9902 0.1101 -0.0865
vn 0.0079 -0.0707 0.9975
vn -0.2663 0.6894 0.6737
vn 0.9562 0.2900 -0.0393
vn -0.0549 -0.5502 0.8332
vn -0.8318 -0.3061 0.4630
vn -0.0079 -0.9125 -0.4091
vn -0.9849 0.1733 -0.0000
vn -0.0079 -0.9125 -0.4090
vn -0.2125 -0.1810 -0.9602
vn -0.0000 0.3139 -0.9494
vn -0.2125 -0.1811 -0.9602
vn -0.9583 0.2670 -0.1021
vn -0.0631 0.8040 0.5912
vn -0.0551 -0.5502 0.8332
vn 0.7806 -0.3075 0.5441
vn -0.0550 -0.5502 0.8332
vn -0.7806 -0.3075 0.5441
vn 0.0078 -0.9125 -0.4091
vn 0.0550 -0.5502 0.8332
vn 0.0079 -0.9125 -0.4091
vn 0.8318 -0.3061 0.4630
vn 0.0551 -0.5502 0.8332
vn -0.0078 -0.0707 0.9975
vn 0.9948 0.0392 -0.0940
vn 0.9849 0.1733 -0.0000
vn -0.9902 0.1101 -0.0865
vn -0.9562 0.2900 -0.0392
vn 0.2663 0.6894 0.6737
vn -0.0000 0.3140 -0.9494
vn 0.2125 -0.1811 -0.9602
vn 0.0631 0.8040 0.5912
vn 0.9583 0.2670 -0.1021
vn 0.2125 -0.1810 -0.9602
vt 0.720673 0.767548
vt 0.505829 0.767548
vt 0.505829 0.787079
vt 0.615204 0.947266
vt 0.615204 0.994995
vt 0.701172 0.994995
vt 0.580048 0.861298
vt 0.603516 0.904297
vt 0.720673 0.900391
vt 0.731720 0.960022
vt 0.751923 0.994995
vt 0.556641 0.818329
vt 0.728516 0.849579
vt 0.783173 0.896454
vt 0.822266 0.962891
vt 0.810547 0.994995
vt 0.505829 0.994995
vt 0.505829 0.962891
vt 0.505829 0.935547
vt 0.505829 0.892548
vt 0.505829 0.837891
vt 0.720673 0.794922
vt 0.783173 0.814423
vt 0.787079 0.767548
vt 0.833954 0.837891
vt 0.830048 0.791016
vt 0.836395 0.905701
vt 0.509766 0.376923
vt 0.548798 0.376923
vt 0.509766 0.302704
vt 0.544922 0.322266
vt 0.583954 0.302704
vt 0.590912 0.370514
vt 0.607544 0.453094
vt 0.537292 0.606873
vt 0.510498 0.606873
vt 0.510498 0.529694
vt 0.575592 0.606873
vt 0.644531 0.606873
vt 0.625031 0.529114
vt 0.556641 0.458954
vt 0.509766 0.458954
vt 0.994995 0.533173
vt 0.908173 0.587891
vt 0.994995 0.587891
vt 0.935547 0.615204
vt 0.994995 0.619141
vt 0.970673 0.650391
vt 0.994995 0.650391
vt 0.994995 0.208954
vt 0.994995 0.166016
vt 0.955048 0.193329
vt 0.923798 0.248047
vt 0.912079 0.283173
vt 0.994995 0.248047
vt 0.880829 0.248047
vt 0.857422 0.283173
vt 0.771454 0.255829
vt 0.798798 0.208954
vt 0.681641 0.193329
vt 0.662079 0.263672
vt 0.763672 0.279297
vt 0.818329 0.134766
vt 0.865204 0.076172
vt 0.818329 0.004974
vt 0.941833 0.056366
vt 0.919922 0.064423
vt 0.919922 0.134766
vt 0.973511 0.113342
vt 0.876923 0.208954
vt 0.939728 0.177032
vt 0.521454 0.283173
vt 0.521454 0.154297
vt 0.564850 0.283173
vt 0.564850 0.154297
vt 0.896454 0.004974
vt 0.994995 0.115204
vt 0.985229 0.021698
vt 0.728516 0.052704
vt 0.693329 0.150391
vt 0.763672 0.083954
vt 0.767548 0.134766
vt 0.794922 0.123047
vt 0.951172 0.004974
vt 0.748047 0.004974
vt 0.705048 0.004974
vt 0.673798 0.103516
vt 0.521454 0.004974
vt 0.505829 0.041016
vt 0.607056 0.086639
vt 0.638672 0.191589
vt 0.650513 0.091644
vt 0.944855 0.106323
vt 0.572266 0.004974
vt 0.575439 0.026672
vt 0.630829 0.004974
vt 0.818329 0.169922
vt 0.791016 0.041016
vt 0.928192 0.158325
vt 0.896454 0.181641
vt 0.923798 0.004974
vt 0.751923 0.004974
vt 0.865204 0.134766
vt 0.892548 0.158173
vt 0.919922 0.916016
vt 0.918732 0.963654
vt 0.994995 0.841797
vt 0.994995 0.873047
vt 0.958954 0.841797
vt 0.885834 0.872162
vt 0.955048 0.994995
vt 0.884766 0.994995
vt 0.873047 0.806641
vt 0.918732 0.873108
vt 0.961517 0.912964
vt 0.994995 0.912079
vt 0.994995 0.962891
vt 0.994995 0.994995
s 1
usemtl npc02_02
f 1/1/1 2/2/2 3/3/3
f 4/4/4 5/5/5 6/6/6
f 7/7/7 8/8/8 9/9/9
f 9/9/9 8/8/8 10/4/10
f 9/9/9 10/4/10 11/10/11
f 11/10/11 10/4/10 12/6/6
f 11/10/11 12/6/6 13/11/12
f 14/12/13 15/7/7 16/13/14
f 16/13/14 15/7/7 17/9/9
f 16/13/14 17/9/9 18/14/15
f 18/14/15 17/9/9 19/10/16
f 18/14/15 19/10/16 20/15/17
f 20/15/17 19/10/16 13/11/12
f 20/15/17 13/11/12 21/16/18
f 22/17/19 23/5/2 24/18/20
f 24/18/20 23/5/2 25/4/21
f 24/18/20 25/4/21 26/19/22
f 26/19/22 25/4/21 27/8/23
f 26/19/22 27/8/23 28/20/24
f 28/20/24 27/8/23 29/7/7
f 28/20/24 29/7/7 30/21/25
f 30/21/25 29/7/7 31/12/26
f 30/21/25 31/12/26 32/3/27
f 32/3/27 31/12/26 33/22/28
f 32/3/27 33/22/28 34/1/29
f 34/1/29 33/22/28 35/23/30
f 34/1/29 35/23/30 36/24/12
f 36/24/12 35/23/30 37/25/31
f 36/24/12 37/25/31 38/26/32
f 39/15/33 40/27/34 41/14/15
f 41/14/15 40/27/34 42/23/30
f 41/14/15 42/23/30 43/13/14
f 43/13/14 42/23/30 44/22/35
f 43/13/14 44/22/35 45/12/13
f 46/28/36 47/29/37 48/30/38
f 48/30/38 47/29/37 49/31/39
f 50/31/40 51/32/41 52/29/42
f 52/29/42 51/32/41 53/33/43
f 52/29/42 53/33/43 54/34/44
f 55/35/45 56/36/46 57/37/47
f 57/37/47 56/36/46 58/35/27
f 57/37/47 58/35/27 59/38/2
f 60/38/2 61/39/48 62/40/49
f 62/40/49 61/39/48 63/38/50
f 62/40/49 63/38/50 64/41/51
f 64/41/51 63/38/50 65/42/52
f 64/41/51 65/42/52 66/28/53
f 66/28/53 65/42/52 67/41/54
f 66/28/53 67/41/54 68/29/37
f 69/41/55 54/34/44 70/29/37
f 70/29/37 54/34/44 53/33/43
f 70/29/37 53/33/43 49/31/39
f 49/31/39 53/33/43 51/32/41
f 49/31/39 51/32/41 48/30/38
f 48/30/38 51/32/41 50/31/40
f 48/30/38 50/31/40 71/28/53
f 71/28/53 50/31/40 52/29/42
f 71/28/53 52/29/42 72/41/56
f 72/41/56 52/29/42 54/34/44
f 72/41/56 54/34/44 73/40/57
f 73/40/57 54/34/44 69/41/55
f 73/40/57 69/41/55 59/38/5
f 59/38/5 69/41/55 74/42/58
f 59/38/5 74/42/58 75/37/59
f 75/37/59 74/42/58 76/38/50
f 75/37/59 76/38/50 77/35/45
f 78/43/60 79/44/24 80/45/61
f 80/45/61 79/44/24 81/46/25
f 80/45/61 81/46/25 82/47/62
f 82/47/62 81/46/25 83/48/27
f 84/6/63 85/5/64 86/4/65
f 87/3/45 88/2/66 89/1/63
f 90/12/67 91/22/68 92/13/69
f 92/13/69 91/22/68 93/23/70
f 92/13/69 93/23/70 94/14/71
f 94/14/71 93/23/70 95/25/72
f 94/14/71 95/25/72 96/27/73
f 97/11/74 98/6/63 99/10/75
f 99/10/75 98/6/63 100/4/76
f 99/10/75 100/4/76 101/9/77
f 101/9/77 100/4/76 102/8/78
f 101/9/77 102/8/78 103/7/79
f 104/16/18 105/11/80 106/15/81
f 106/15/81 105/11/80 107/10/82
f 106/15/81 107/10/82 108/14/83
f 108/14/83 107/10/82 109/9/84
f 108/14/83 109/9/84 110/13/85
f 110/13/85 109/9/84 111/7/86
f 110/13/85 111/7/86 112/12/67
f 113/26/32 114/25/87 115/24/74
f 115/24/74 114/25/87 116/23/70
f 115/24/74 116/23/70 117/1/63
f 117/1/63 116/23/70 118/22/88
f 117/1/63 118/22/88 119/3/89
f 119/3/89 118/22/88 112/12/90
f 119/3/89 112/12/90 120/21/91
f 120/21/91 112/12/90 121/7/79
f 120/21/91 121/7/79 122/20/92
f 122/20/92 121/7/79 123/8/93
f 122/20/92 123/8/93 124/19/94
f 124/19/94 123/8/93 125/4/95
f 124/19/94 125/4/95 126/18/96
f 126/18/96 125/4/95 127/5/50
f 126/18/96 127/5/50 128/17/48
f 129/46/91 130/47/62 131/48/45
f 132/47/62 133/46/91 134/45/61
f 134/45/61 133/46/91 135/44/92
f 134/45/61 135/44/92 136/43/60
f 137/49/97 138/47/62 139/48/98
f 138/47/62 137/49/97 140/48/45
f 141/50/99 142/51/100 143/52/101
f 144/53/102 145/54/103 146/55/104
f 147/53/105 148/52/106 149/56/107
f 150/51/108 151/50/99 152/52/109
f 152/52/109 151/50/99 153/53/110
f 152/52/109 153/53/110 154/56/111
f 155/54/112 156/53/113 157/57/114
f 157/57/114 156/53/113 149/56/115
f 157/57/114 149/56/115 158/58/116
f 158/58/116 149/56/115 159/59/117
f 158/58/116 159/59/117 160/60/118
f 161/59/119 162/58/120 163/60/118
f 163/60/118 162/58/120 164/61/121
f 163/60/118 164/61/121 165/58/116
f 165/58/116 164/61/121 166/62/122
f 165/58/116 166/62/122 167/57/123
f 168/52/124 169/53/125 170/50/99
f 170/50/99 169/53/125 171/55/104
f 170/50/99 171/55/104 172/53/110
f 172/53/110 171/55/104 173/54/126
f 172/53/110 173/54/126 174/56/127
f 174/56/127 173/54/126 175/57/128
f 174/56/127 175/57/128 176/58/120
f 176/58/120 175/57/128 177/62/129
f 176/58/120 177/62/129 178/61/121
f 179/58/120 180/59/130 181/56/131
f 182/63/132 183/64/133 184/65/134
f 185/66/135 186/67/136 187/68/137
f 188/69/138 189/51/100 190/52/139
f 191/59/140 192/56/115 193/70/141
f 193/70/141 192/56/115 194/52/106
f 193/70/141 194/52/106 195/71/142
f 196/72/143 197/73/144 198/74/145
f 198/74/145 197/73/144 199/75/144
f 200/75/146 201/74/146 202/73/146
f 202/73/146 201/74/146 203/72/146
f 204/67/147 205/64/148 206/76/149
f 207/69/150 189/51/100 208/77/151
f 188/69/138 209/78/152 210/77/153
f 211/79/154 212/80/155 213/81/156
f 213/81/156 212/80/155 214/82/157
f 213/81/156 214/82/157 215/83/158
f 209/78/152 216/84/159 185/66/135
f 217/85/160 218/86/161 219/87/162
f 220/88/163 221/89/160 222/90/164
f 222/90/164 221/89/160 223/91/165
f 222/90/164 223/91/165 224/92/166
f 207/69/150 209/78/152 225/93/167
f 225/93/167 209/78/152 185/66/135
f 225/93/167 185/66/135 187/68/137
f 226/94/168 227/95/169 228/96/170
f 228/96/170 227/95/169 218/86/161
f 229/91/171 230/89/172 231/90/173
f 231/90/173 230/89/172 232/88/174
f 231/90/173 232/88/174 233/95/175
f 233/95/175 232/88/174 234/94/176
f 235/92/177 236/86/178 237/87/179
f 238/97/180 239/83/181 240/63/182
f 240/63/182 239/83/181 241/98/183
f 240/63/182 241/98/183 184/65/134
f 195/71/142 242/99/184 193/70/141
f 193/70/141 242/99/184 243/100/185
f 193/70/141 243/100/185 191/59/140
f 191/59/140 243/100/185 244/97/186
f 245/93/187 246/68/188 247/66/189
f 247/66/189 246/68/188 204/67/147
f 247/66/189 204/67/147 248/101/190
f 248/101/190 204/67/147 206/76/149
f 248/101/190 206/76/149 186/67/136
f 226/94/168 220/88/163 227/95/169
f 227/95/169 220/88/163 222/90/164
f 227/95/169 222/90/164 218/86/161
f 218/86/161 222/90/164 224/92/166
f 218/86/161 224/92/166 219/87/162
f 219/87/162 224/92/166 223/91/165
f 219/87/162 223/91/165 217/85/160
f 236/86/178 249/85/191 237/87/179
f 237/87/179 249/85/191 229/91/171
f 237/87/179 229/91/171 235/92/177
f 235/92/177 229/91/171 231/90/173
f 235/92/177 231/90/173 236/86/178
f 236/86/178 231/90/173 233/95/175
f 236/86/178 233/95/175 250/96/192
f 250/96/192 233/95/175 234/94/176
f 215/83/158 251/98/193 213/81/156
f 213/81/156 251/98/193 252/102/194
f 213/81/156 252/102/194 211/79/154
f 211/79/154 252/102/194 253/81/195
f 211/79/154 253/81/195 212/80/155
f 212/80/155 253/81/195 254/82/196
f 212/80/155 254/82/196 255/59/130
f 183/64/133 182/63/132 256/103/197
f 256/103/197 182/63/132 244/97/186
f 256/103/197 244/97/186 257/104/198
f 257/104/198 244/97/186 243/100/185
f 257/104/198 243/100/185 187/68/137
f 187/68/137 243/100/185 242/99/184
f 187/68/137 242/99/184 225/93/167
f 225/93/167 242/99/184 195/71/142
f 225/93/167 195/71/142 207/69/150
f 207/69/150 195/71/142 194/52/106
f 207/69/150 194/52/106 189/51/100
f 245/93/187 258/99/199 246/68/188
f 246/68/188 258/99/199 259/100/200
f 246/68/188 259/100/200 260/104/201
f 260/104/201 259/100/200 238/97/180
f 260/104/201 238/97/180 261/103/202
f 261/103/202 238/97/180 240/63/182
f 261/103/202 240/63/182 205/64/148
f 205/64/148 240/63/182 184/65/134
f 205/64/148 184/65/134 206/76/149
f 206/76/149 184/65/134 183/64/133
f 206/76/149 183/64/133 186/67/136
f 255/59/130 262/60/118 212/80/155
f 212/80/155 262/60/118 191/59/140
f 212/80/155 191/59/140 214/82/157
f 214/82/157 191/59/140 244/97/186
f 214/82/157 244/97/186 215/83/158
f 215/83/158 244/97/186 182/63/132
f 215/83/158 182/63/132 251/98/193
f 251/98/193 182/63/132 184/65/134
f 251/98/193 184/65/134 252/102/194
f 252/102/194 184/65/134 241/98/183
f 252/102/194 241/98/183 253/81/195
f 253/81/195 241/98/183 239/83/181
f 253/81/195 239/83/181 254/82/196
f 254/82/196 239/83/181 238/97/180
f 254/82/196 238/97/180 255/59/130
f 255/59/130 238/97/180 259/100/200
f 255/59/130 259/100/200 263/70/203
f 263/70/203 259/100/200 258/99/199
f 263/70/203 258/99/199 264/71/204
f 264/71/204 258/99/199 245/93/187
f 186/67/136 185/66/135 248/101/190
f 248/101/190 185/66/135 216/84/159
f 248/101/190 216/84/159 247/66/189
f 247/66/189 216/84/159 209/78/152
f 247/66/189 209/78/152 245/93/187
f 245/93/187 209/78/152 188/69/138
f 245/93/187 188/69/138 264/71/204
f 264/71/204 188/69/138 190/52/139
f 264/71/204 190/52/139 263/70/203
f 263/70/203 190/52/139 265/56/131
f 263/70/203 265/56/131 255/59/130
f 266/14/71 267/27/205 268/15/206
f 269/27/207 270/105/208 271/106/209
f 271/106/209 272/15/206 269/27/207
f 273/107/210 274/108/211 275/109/212
f 270/105/208 269/27/207 276/110/213
f 276/110/213 269/27/207 277/25/72
f 276/110/213 277/25/72 278/26/18
f 279/111/214 280/112/215 271/106/209
f 271/106/209 280/112/215 281/16/216
f 271/106/209 281/16/216 272/15/206
f 282/113/217 275/109/212 283/114/218
f 283/114/218 275/109/212 274/108/211
f 283/114/218 274/108/211 284/115/219
f 284/115/219 274/108/211 285/116/220
f 284/115/219 285/116/220 286/117/221
f 278/26/18 282/113/217 276/110/213
f 276/110/213 282/113/217 283/114/218
f 276/110/213 283/114/218 270/105/208
f 270/105/208 283/114/218 284/115/219
f 270/105/208 284/115/219 271/106/209
f 271/106/209 284/115/219 286/117/221
f 271/106/209 286/117/221 279/111/214
f 279/111/214 286/117/221 287/118/222
f 288/117/223 289/111/224 290/118/225
f 291/109/226 292/108/227 293/107/228
f 294/23/30 295/27/229 296/25/230
f 296/25/230 295/27/229 297/110/231
f 296/25/230 297/110/231 298/26/32
f 299/15/232 300/106/233 295/27/229
f 295/27/229 300/106/233 301/105/234
f 295/27/229 301/105/234 297/110/231
f 299/15/232 302/16/235 300/106/233
f 300/106/233 302/16/235 303/112/236
f 300/106/233 303/112/236 289/111/224
f 288/117/223 304/116/225 305/115/237
f 305/115/237 304/116/225 292/108/227
f 305/115/237 292/108/227 306/114/238
f 306/114/238 292/108/227 291/109/226
f 306/114/238 291/109/226 307/113/239
f 289/111/224 288/117/223 300/106/233
f 300/106/233 288/117/223 305/115/237
f 300/106/233 305/115/237 301/105/234
f 301/105/234 305/115/237 306/114/238
f 301/105/234 306/114/238 297/110/231
f 297/110/231 306/114/238 307/113/239
f 297/110/231 307/113/239 298/26/32
o npc_02-0001-1
v -1.846577 32.776878 23.137867
v -3.705868 37.513775 21.854193
v -6.955654 32.468594 21.127720
v -7.980647 36.918945 19.519600
v -8.919827 34.715508 19.008245
v 8.951610 34.715508 19.008245
v 8.012430 36.918945 19.519600
v 6.985847 32.468594 21.127720
v 3.737651 37.513775 21.854193
v 1.884717 32.776878 23.137867
vn -0.3681 0.1018 0.9242
vn -0.4327 0.1495 0.8890
vn -0.5110 0.1337 0.8491
vn -0.5807 0.1491 0.8004
vn -0.6667 0.1098 0.7372
vn 0.6666 0.1098 0.7372
vn 0.5806 0.1491 0.8004
vn 0.5110 0.1337 0.8491
vn 0.4327 0.1495 0.8890
vn 0.3681 0.1018 0.9242
vt 0.919922 0.064423
vt 0.861298 0.072266
vt 0.919922 0.134766
vt 0.861298 0.134766
vt 0.892548 0.158173
s 1
usemtl npc02_02
f 308/119/240 309/120/241 310/121/242
f 310/121/242 309/120/241 311/122/243
f 310/121/242 311/122/243 312/123/244
f 313/123/245 314/122/246 315/121/247
f 315/121/247 314/122/246 316/120/248
f 315/121/247 316/120/248 317/119/249
o npc_02-0001-11
v 13.553751 14.386572 15.259496
v 0.000000 6.703196 24.724829
v 17.278688 7.390904 17.505926
v 0.000000 12.673227 20.249601
v 0.066744 21.479073 15.615679
v -13.553751 14.386572 15.259496
v 12.673369 19.293419 -5.370977
v 0.066744 27.269272 -4.566919
v 7.820144 26.504490 -0.828748
v 7.219450 29.960825 0.497245
v 11.014310 28.067648 7.137789
v 11.977327 32.644474 9.863832
v 8.172933 25.004574 13.221134
v 8.044212 21.755735 11.919827
v 11.390935 24.670597 5.988125
v 13.553751 14.386572 15.259496
v 17.772909 17.250051 4.341215
v 17.278688 7.390904 17.505926
v 21.563004 9.106225 2.934111
v 21.563004 9.106225 2.934111
v 12.673369 19.293419 -5.370977
v 17.772909 17.250051 4.341215
v 7.820144 26.504490 -0.828748
v 11.390935 24.670597 5.988125
v 8.172933 25.004574 13.221134
v 8.506651 27.451080 20.835012
v 15.899318 32.126717 21.554434
v 15.584668 28.166458 25.687582
v 15.341531 11.238519 -8.664800
v 0.000000 13.598075 -15.047903
v 0.000000 20.834839 -11.034660
v -15.344709 11.234567 -8.668326
v -12.673369 19.293419 -5.370977
v -21.563004 9.106225 2.934111
v -17.772909 17.250051 4.341215
v -17.312061 7.315809 17.520033
v -13.553751 14.386572 15.259496
v 0.000000 6.703196 24.724829
v 13.553751 14.386572 15.259496
v 0.066744 21.479073 15.615679
v 8.044212 21.755735 11.919827
v 0.068333 23.216133 16.211672
v 8.172933 25.004574 13.221134
v 2.792114 25.498617 17.252010
v 8.506651 27.451080 20.835012
v 21.563004 9.106225 2.934111
v 15.341531 11.238519 -8.664800
v 12.673369 19.293419 -5.370977
v 0.000000 20.834839 -11.034660
v 0.066744 27.269272 -4.566919
v -12.673369 19.293419 -5.370977
v -7.685067 26.504490 -0.832274
v -17.772909 17.250051 4.341215
v -11.257448 24.668621 5.988125
v -7.909136 21.753759 11.919827
v -8.036267 25.004574 13.221134
v 0.068333 23.216133 16.211672
v -2.655448 25.496641 17.248484
v 2.792114 25.498617 17.252010
v 0.066744 27.986624 6.111555
v 0.068333 23.216133 16.211672
v -14.470683 27.516293 11.926880
v -7.786772 26.816729 13.291665
v -8.455799 27.964886 10.618520
v 11.977327 32.644474 9.863832
v 13.318559 38.883266 8.707115
v 15.608506 35.853786 16.225777
v 15.899318 32.126717 21.554434
v 8.506651 27.451080 20.835012
v -9.404514 33.385540 8.530787
v -5.431671 34.972408 3.547733
v 0.068333 35.249077 -0.536043
v -8.368396 27.449104 20.835012
v -2.655448 25.496641 17.248484
v 15.584668 28.166458 25.687582
v 14.817115 31.897480 21.565014
v -15.761063 32.124741 21.554434
v -14.705876 31.852028 21.466270
v -15.470251 35.853786 16.225777
v -13.393248 25.482809 14.889204
v -7.117746 25.668570 15.961284
v 14.470683 27.516293 11.926880
v 8.455799 27.964886 10.618520
v 13.393248 25.482809 14.889204
v 7.786772 26.816729 13.291665
v 23.406403 15.803491 18.719067
v 28.116604 18.350784 14.931524
v 17.470974 20.372414 18.987087
v 12.109225 23.559988 17.840950
v 20.145493 22.769516 15.806114
v 21.214981 26.018351 12.547558
v 28.791988 23.040253 11.394367
v -15.446414 28.164480 25.687582
v -15.761063 32.124741 21.554434
v -8.368396 27.449104 20.835012
v -11.839072 32.644474 9.863832
v -8.036267 25.004574 13.221134
v -2.655448 25.496641 17.248484
v 0.000000 14.552572 19.597183
v 0.000000 15.939848 23.194292
v -2.552154 15.250162 20.327187
v 0.000000 24.629101 19.847570
v -2.552154 23.931509 19.114042
v -3.608931 22.079830 22.337334
v -21.214981 26.018351 12.547558
v -20.145493 22.769516 15.806114
v -28.791988 23.040253 11.394367
v -28.116604 18.350784 14.931524
v -23.406403 15.803491 18.719067
v -17.470974 20.372414 18.987087
v -12.109225 23.559988 17.840950
v 7.117746 25.668570 15.961284
v 15.899318 32.126717 21.554434
v 15.608506 35.853786 16.225777
v 9.541180 33.387516 8.530787
v 5.569926 34.972408 3.547733
v -15.470251 35.853786 16.225777
v -13.178715 38.883266 8.707115
v -7.503906 35.253029 1.717440
v -8.935718 40.023521 1.544638
v 0.068333 35.251053 -2.024258
v 0.069922 39.816021 -2.891796
v 9.075563 40.023521 1.544638
v -7.909136 21.753759 11.919827
v -10.877644 28.065672 7.137789
v -7.084374 29.958849 0.497245
v 0.068333 30.741415 -3.226820
v 7.642161 35.253029 1.717440
v 3.562846 17.008961 22.178638
v 2.552154 15.250162 20.327187
v 0.000000 16.117704 16.070608
v -3.608931 17.101841 17.107422
v 0.000000 19.465349 24.760092
v 2.552154 18.769733 24.026564
v 5.039154 19.591824 19.720613
v 3.608931 17.101841 17.107422
v 0.000000 19.716324 14.684663
v -2.552154 20.413914 15.414664
v -5.039154 19.591824 19.720613
v -3.562846 22.172712 17.266117
v 0.000000 23.241823 16.246937
v 2.552154 23.931509 19.114042
v 2.552154 20.413914 15.414664
v 3.562846 22.172712 17.266117
v 3.608931 22.079830 22.337334
v 0.000000 23.063969 23.374147
v -2.552154 18.769733 24.026564
v -3.562846 17.008961 22.178638
v -15.446414 28.164480 25.687582
v -13.178715 38.883266 8.707115
v -8.935718 40.023521 1.544638
v 0.069922 39.816021 -2.891796
v 9.075563 40.023521 1.544638
v 13.318559 38.883266 8.707115
v 7.219450 29.960825 0.497245
v 0.066744 27.269272 -4.566919
v -7.685067 26.504490 -0.832274
v -11.257448 24.668621 5.988125
v 15.341531 11.238519 -8.664800
v 24.873175 3.450406 1.957250
v 17.575857 5.697318 -11.288572
v 21.563004 9.106225 2.934111
v 20.340956 1.379374 19.985109
v 24.873175 3.450406 1.957250
v 5.371284 -1.357632 25.416039
v 2.539441 -2.737004 26.819614
v 5.732018 -3.887139 27.733000
v 2.741262 -5.641984 28.314884
v 5.614422 -7.017404 28.364256
v 8.458977 -5.885054 27.077055
v 8.257157 -2.980073 25.585314
v 5.358571 1.851680 24.340431
v 8.185646 3.110505 23.127289
v 5.425314 5.102492 23.649223
v 8.052158 6.015485 21.628494
v 5.171052 7.622118 21.296995
v 2.275644 6.234841 22.559511
v 2.410721 3.331837 24.061832
v -13.892237 -9.317674 28.099762
v -15.112695 -13.032888 30.307402
v -0.006357 -9.199103 31.393585
v -9.803387 10.722739 17.819792
v -12.404805 -2.197507 24.001881
v 0.034961 10.720764 19.399698
v -20.340956 1.379374 19.985109
v 0.000000 0.784544 28.597010
v -17.312061 7.315809 17.520033
v -17.575857 5.697318 -11.288572
v -24.873175 3.450406 1.957250
v -15.344709 11.234567 -8.668326
v -21.563004 9.106225 2.934111
v 17.575857 5.697318 -11.288572
v 0.000000 13.598075 -15.047903
v 15.341531 11.238519 -8.664800
v -5.614422 -7.017404 28.364256
v -2.741262 -5.641984 28.314884
v -5.732018 -3.887139 27.733000
v -2.539441 -2.737004 26.819614
v -5.371284 -1.357632 25.416039
v -8.257157 -2.980073 25.585314
v -8.458977 -5.885054 27.077055
v -13.892237 -9.317674 28.099762
v -23.779848 -13.024983 22.626518
v -15.112695 -13.032888 30.307402
v -14.435722 -16.611746 28.882664
v 0.000000 -16.584078 32.229385
v 0.061976 -12.981506 33.869244
v 14.435722 -16.611746 28.882664
v 15.112695 -13.032888 30.307402
v 23.905392 -13.024983 22.626518
v -5.171052 7.622118 21.296995
v -8.052158 6.015485 21.628494
v -5.425314 5.102492 23.649223
v -8.185646 3.110505 23.127289
v -5.358571 1.851680 24.340431
v -2.410721 3.331837 24.061832
v -2.275644 6.234841 22.559511
v 0.000000 8.311800 -19.554867
v -17.575857 5.697318 -11.288572
v -15.344709 11.234567 -8.668326
v 20.340956 1.379374 19.985109
v 17.278688 7.390904 17.505926
v 0.000000 6.703196 24.724829
v 21.667887 -9.582482 20.944340
v 13.892237 -9.317674 28.099762
v 14.435722 -16.611746 28.882664
v -0.006357 -9.199103 31.393585
v 0.000000 -16.584078 32.229385
v -14.435722 -16.611746 28.882664
v -24.873175 3.450406 1.957250
v -20.340956 1.379374 19.985109
v -21.563004 9.106225 2.934111
v -17.312061 7.315809 17.520033
v 21.563004 9.106225 2.934111
v 17.278688 7.390904 17.505926
v -13.892237 -9.317674 28.099762
v -12.404805 -2.197507 24.001881
v -21.682188 -9.580506 20.944340
v -19.420847 -2.173794 19.092886
v -26.053904 -9.473794 1.177878
v -23.752834 -1.047374 1.636332
v -19.743441 -7.969924 -13.118864
v -16.709778 0.084975 -11.422582
v -0.006357 -5.987818 -21.621441
v -0.022248 1.075039 -19.004721
v 19.729137 -7.969924 -13.118864
v -9.803387 10.722739 17.819792
v -15.311337 10.912452 14.716403
v -17.974731 12.366918 3.533629
v -21.682188 -9.580506 20.944340
v -26.053904 -9.473794 1.177878
v -28.853964 -12.677178 0.973336
v -19.743441 -7.969924 -13.118864
v -21.706024 -11.242474 -15.608627
v -0.006357 -5.987818 -21.621441
v 0.061976 -9.384868 -24.954056
v 19.729137 -7.969924 -13.118864
v 21.820442 -11.242474 -15.608627
v 26.042780 -9.473794 1.177878
v 28.966793 -12.677178 0.973336
v 21.667887 -9.582482 20.944340
v 13.892237 -9.317674 28.099762
v 22.802530 -16.588032 21.508593
v 27.374477 -16.297535 1.421211
v 20.863783 -14.995234 -14.078093
v 0.000000 -12.918273 -22.915693
v -20.863783 -14.995234 -14.078093
v -27.374477 -16.297535 1.421211
v -22.802530 -16.588032 21.508593
v -14.435722 -16.611746 28.882664
v 16.673227 0.084975 -11.422582
v 23.713104 -1.051326 1.636332
v 26.042780 -9.473794 1.177878
v 19.420847 -2.177746 19.092886
v 12.404805 -2.197507 24.001881
v -0.022248 -2.282483 26.720871
v -13.892237 -9.317674 28.099762
v -12.806857 14.202787 -6.189143
v 0.034961 15.246207 -11.281520
v 12.806857 14.202787 -6.189143
v 17.974731 12.366918 3.533629
v 15.311337 10.912452 14.716403
v 9.803387 10.722739 17.819792
v 22.802530 -16.588032 21.508593
v 27.374477 -16.297535 1.421211
v 20.863783 -14.995234 -14.078093
v 0.000000 -12.918273 -22.915693
v -20.863783 -14.995234 -14.078093
v -27.374477 -16.297535 1.421211
v -22.802530 -16.588032 21.508593
v -14.435722 -16.611746 28.882664
vn 0.4564 0.5587 0.6925
vn 0.0001 0.5419 0.8404
vn 0.5992 0.5125 0.6150
vn -0.0000 0.5328 0.8462
vn -0.0000 0.2737 0.9618
vn -0.4564 0.5587 0.6925
vn 0.6208 0.5737 -0.5344
vn -0.0000 0.5655 -0.8247
vn 0.7105 0.5131 -0.4816
vn 0.7002 0.2282 -0.6765
vn 0.9903 0.0393 -0.1336
vn 0.9110 -0.3142 -0.2670
vn 0.6934 -0.5437 0.4728
vn 0.6151 0.2208 0.7569
vn 0.8705 0.4548 0.1883
vn 0.4565 0.5587 0.6925
vn 0.8231 0.5644 0.0628
vn 0.5993 0.5125 0.6150
vn 0.8780 0.4782 -0.0235
vn 0.6208 0.5736 -0.5343
vn 0.8231 0.5644 0.0627
vn 0.7105 0.5131 -0.4815
vn 0.8705 0.4548 0.1882
vn 0.5832 -0.8037 -0.1182
vn 0.6603 -0.6447 -0.3852
vn 0.4727 -0.6538 -0.5908
vn 0.6326 0.4981 -0.5931
vn -0.0000 0.5655 -0.8248
vn -0.0000 0.5708 -0.8211
vn -0.6326 0.4981 -0.5930
vn -0.6180 0.5789 -0.5320
vn -0.8780 0.4782 -0.0235
vn -0.8206 0.5680 0.0631
vn -0.6043 0.5101 0.6121
vn -0.0000 0.5420 0.8404
vn 0.6150 0.2208 0.7570
vn -0.0000 -0.5887 0.8084
vn 0.2600 -0.8507 0.4569
vn 0.8780 0.4782 -0.0236
vn 0.6326 0.4981 -0.5930
vn 0.6208 0.5736 -0.5344
vn -0.0000 0.5709 -0.8210
vn -0.0000 0.5656 -0.8247
vn -0.6180 0.5789 -0.5319
vn -0.7076 0.5190 -0.4796
vn -0.8205 0.5681 0.0631
vn -0.8685 0.4580 0.1895
vn -0.6150 0.2208 0.7570
vn -0.6934 -0.5437 0.4728
vn -0.0000 -0.5886 0.8084
vn -0.2600 -0.8507 0.4569
vn -0.5811 0.7540 0.3063
vn -0.0000 0.8462 0.5328
vn -0.0000 0.9052 0.4251
vn -0.0782 0.8059 0.5868
vn -0.0549 0.8631 0.5021
vn -0.0078 0.8697 0.4936
vn 0.9110 -0.3141 -0.2671
vn 0.8405 -0.2671 -0.4713
vn 0.8873 -0.3141 -0.3376
vn 0.6604 -0.6446 -0.3852
vn -0.5453 0.7350 0.4031
vn 0.6283 0.6362 0.4477
vn 0.5118 0.5669 0.6456
vn -0.0000 0.6150 0.7885
vn 0.5422 0.7386 0.4007
vn 0.5811 0.7540 0.3063
vn -0.3228 0.6692 0.6693
vn -0.3460 0.7234 0.5976
vn 0.2445 0.7494 0.6153
vn 0.3855 0.7159 0.5822
vn 0.5661 0.6919 0.4482
vn -0.1254 0.7993 0.5877
vn -0.1101 0.8571 0.5033
vn 0.0782 0.8059 0.5868
vn 0.0079 0.8697 0.4936
vn 0.1254 0.7993 0.5877
vn 0.0549 0.8630 0.5021
vn 0.3862 0.5044 0.7723
vn 0.3755 0.5320 0.7589
vn 0.3148 0.6138 0.7240
vn 0.1730 0.7945 0.5821
vn 0.2834 0.6376 0.7163
vn 0.2588 0.6509 0.7137
vn 0.3616 0.5581 0.7468
vn -0.4727 -0.6538 -0.5908
vn -0.6603 -0.6447 -0.3852
vn -0.5831 -0.8038 -0.1182
vn -0.9110 -0.3142 -0.2670
vn -0.6935 -0.5437 0.4728
vn -0.2599 -0.8507 0.4568
vn -0.0000 -1.0000 -0.0079
vn -0.0000 -0.7227 0.6912
vn -0.4866 -0.8634 0.1334
vn -0.0000 1.0000 0.0079
vn -0.4866 0.8634 -0.1334
vn -0.7077 0.4876 0.5113
vn -0.2588 0.6509 0.7137
vn -0.2834 0.6376 0.7163
vn -0.3616 0.5582 0.7468
vn -0.3755 0.5320 0.7589
vn -0.3862 0.5044 0.7723
vn -0.3148 0.6138 0.7240
vn -0.1731 0.7946 0.5820
vn 0.1101 0.8571 0.5032
vn -0.1494 0.7628 0.6291
vn -0.5492 0.7060 0.4471
vn -0.6283 0.6362 0.4477
vn -0.5117 0.5669 0.6456
vn -0.8873 -0.3141 -0.3376
vn -0.8423 -0.2598 -0.4723
vn -0.6826 -0.0392 -0.7297
vn -0.5823 -0.2046 -0.7868
vn -0.0000 -0.0315 -0.9995
vn -0.0000 -0.1810 -0.9835
vn 0.5823 -0.2046 -0.7868
vn -0.9903 0.0393 -0.1336
vn -0.7002 0.2281 -0.6766
vn -0.0000 0.2664 -0.9639
vn 0.6824 -0.0470 -0.7295
vn 0.6983 -0.5178 0.4943
vn 0.4866 -0.8634 0.1334
vn -0.0000 -0.6912 -0.7227
vn -0.7078 -0.4876 -0.5112
vn -0.0000 -0.0314 0.9995
vn 0.5895 -0.1493 0.7938
vn 0.9940 -0.0000 0.1095
vn 0.7078 -0.4876 -0.5112
vn -0.0000 0.0315 -0.9995
vn -0.4863 0.1804 -0.8550
vn -0.9940 -0.0000 0.1095
vn -0.6983 0.5178 -0.4943
vn -0.0000 0.7226 -0.6912
vn 0.4866 0.8634 -0.1334
vn 0.4863 0.1804 -0.8550
vn 0.6983 0.5178 -0.4943
vn 0.7077 0.4876 0.5112
vn -0.0000 0.6912 0.7227
vn -0.5895 -0.1493 0.7938
vn -0.6983 -0.5178 0.4943
vn 0.3630 0.6706 0.6470
vn 0.6983 0.5178 0.4943
vn 0.5426 0.5190 0.6605
vn -0.0000 0.5511 0.8345
vn -0.5426 0.5190 0.6605
vn -0.6983 0.5178 0.4943
vn 0.7002 0.2281 -0.6766
vn -0.7076 0.5189 -0.4796
vn -0.8686 0.4579 0.1895
vn 0.6326 0.4982 -0.5930
vn 0.8482 0.5105 -0.1414
vn 0.5527 0.5527 -0.6237
vn 0.8779 0.4782 -0.0235
vn 0.6981 0.5255 0.4863
vn 0.8482 0.5105 -0.1413
vn 0.1807 0.6756 0.7148
vn -0.0235 0.5707 0.8208
vn 0.2054 0.4503 0.8689
vn -0.0000 0.3233 0.9463
vn 0.2125 0.1811 0.9602
vn 0.4237 0.2982 0.8553
vn 0.4168 0.5504 0.7234
vn 0.1650 0.1965 0.9665
vn 0.3871 0.3081 0.8690
vn 0.1577 0.4573 0.8752
vn 0.3768 0.5495 0.7457
vn 0.1415 0.6841 0.7155
vn -0.0707 0.5731 0.8164
vn -0.0628 0.3297 0.9420
vn -0.4402 0.5817 0.6840
vn -0.4070 0.1956 0.8922
vn -0.3697 0.4405 0.8181
vn -0.3623 0.4726 0.8034
vn -0.0000 0.4722 0.8815
vn -0.6981 0.5255 0.4863
vn -0.0000 0.5364 0.8440
vn -0.6042 0.5101 0.6121
vn -0.5527 0.5527 -0.6237
vn -0.8482 0.5105 -0.1414
vn -0.6326 0.4982 -0.5930
vn -0.8780 0.4782 -0.0236
vn 0.5527 0.5527 -0.6238
vn 0.6325 0.4982 -0.5931
vn -0.2125 0.1810 0.9602
vn -0.2054 0.4503 0.8689
vn 0.0235 0.5707 0.8208
vn -0.1807 0.6756 0.7148
vn -0.4168 0.5504 0.7234
vn -0.4237 0.2982 0.8553
vn -0.4403 0.5817 0.6839
vn -0.8094 0.2436 0.5344
vn -0.4070 0.1957 0.8922
vn -0.4160 -0.4004 0.8165
vn -0.0000 -0.4091 0.9125
vn -0.0000 0.0785 0.9969
vn 0.4174 -0.4095 0.8112
vn 0.4070 0.1956 0.8922
vn 0.8032 0.2441 0.5434
vn -0.1415 0.6841 0.7155
vn -0.3768 0.5495 0.7457
vn -0.1577 0.4573 0.8752
vn -0.3871 0.3081 0.8690
vn -0.1650 0.1965 0.9665
vn 0.0628 0.3297 0.9420
vn 0.0707 0.5731 0.8164
vn -0.0000 0.6501 -0.7598
vn -0.5527 0.5527 -0.6238
vn -0.6326 0.4981 -0.5931
vn -0.0000 0.5419 0.8404
vn 0.7787 0.3146 0.5427
vn 0.3922 0.3765 0.8393
vn 0.4557 0.1336 0.8800
vn -0.0000 0.3468 0.9379
vn -0.0000 0.1173 0.9931
vn -0.4557 0.1336 0.8801
vn 0.8779 0.4782 -0.0236
vn -0.3922 0.3765 0.8393
vn -0.3624 0.4726 0.8034
vn -0.7787 0.3146 0.5427
vn -0.7533 0.3845 0.5336
vn -0.9678 0.2518 -0.0079
vn -0.9330 0.3528 -0.0706
vn -0.7310 0.2830 -0.6209
vn -0.6857 0.4020 -0.6069
vn -0.0000 0.2737 -0.9618
vn -0.0000 0.4090 -0.9125
vn 0.7310 0.2830 -0.6210
vn -0.7940 0.3931 0.4638
vn -0.9020 0.3922 -0.1804
vn -0.6757 0.6286 0.3850
vn -0.7704 0.6368 -0.0315
vn -0.9837 0.1652 -0.0708
vn -0.5577 0.6833 -0.4713
vn -0.7139 0.1569 -0.6825
vn -0.0000 0.7149 -0.6992
vn -0.0000 0.1491 -0.9888
vn 0.5512 0.6930 -0.4646
vn 0.7139 0.1569 -0.6825
vn 0.7372 0.6745 -0.0392
vn 0.9611 0.2757 -0.0157
vn 0.6983 0.6434 0.3138
vn 0.4318 0.5889 0.6832
vn 0.7940 -0.3931 0.4638
vn 0.9142 -0.3941 -0.0945
vn 0.6124 -0.4475 -0.6517
vn -0.0000 -0.4723 -0.8815
vn -0.6216 -0.4327 -0.6530
vn -0.9249 -0.3684 -0.0940
vn -0.7987 -0.3759 0.4698
vn -0.4161 -0.4004 0.8164
vn 0.6898 0.3998 -0.6036
vn 0.9330 0.3528 -0.0705
vn 0.9678 0.2518 -0.0079
vn 0.7533 0.3845 0.5336
vn 0.3691 0.4712 0.8011
vn -0.0000 0.5272 0.8498
vn -0.6474 0.4264 -0.6317
vn -0.0000 0.4628 -0.8864
vn 0.6488 0.4221 -0.6332
vn 0.9020 0.3922 -0.1804
vn 0.7940 0.3931 0.4638
vn 0.3697 0.4405 0.8181
vn 0.8507 0.1733 0.4963
vn 0.9790 0.1880 -0.0783
vn 0.7061 0.1883 -0.6826
vn -0.0000 0.1886 -0.9821
vn -0.7061 0.1883 -0.6826
vn -0.9790 0.1880 -0.0783
vn -0.8507 0.1733 0.4963
vn -0.4558 0.1336 0.8800
vt 0.124786 0.155487
vt 0.004974 0.209900
vt 0.125793 0.209900
vt 0.004974 0.155487
vt 0.004974 0.086456
vt 0.314453 0.155487
vt 0.433014 0.086456
vt 0.296448 0.086456
vt 0.283691 0.051697
vt 0.198608 0.051697
vt 0.197784 0.023865
vt 0.114105 0.051697
vt 0.115540 0.086456
vt 0.200958 0.086456
vt 0.218262 0.155487
vt 0.220428 0.209900
vt 0.004974 0.019196
vt 0.061188 0.005402
vt 0.004974 0.005402
vt 0.316681 0.209900
vt 0.433014 0.209900
vt 0.433014 0.155487
vt 0.220490 0.209900
vt 0.004974 0.051697
vt 0.004974 0.037170
vt 0.004974 0.042389
vt 0.196808 0.043091
vt 0.004974 0.047180
vt 0.495911 0.433167
vt 0.468811 0.401550
vt 0.495911 0.401550
vt 0.196930 0.005402
vt 0.117371 0.005402
vt 0.004974 0.033081
vt 0.197784 0.030426
vt 0.278564 0.030426
vt 0.433014 0.022339
vt 0.055847 0.005402
vt 0.054199 0.005402
vt 0.468811 0.433167
vt 0.441742 0.401550
vt 0.441742 0.496460
vt 0.468811 0.496460
vt 0.441742 0.464813
vt 0.441742 0.433167
vt 0.468811 0.464813
vt 0.495911 0.464813
vt 0.495911 0.496460
vt 0.442261 0.376984
vt 0.442047 0.392639
vt 0.458618 0.378021
vt 0.442261 0.316284
vt 0.459778 0.316284
vt 0.465881 0.340637
vt 0.278564 0.020447
vt 0.273438 0.005402
vt 0.433014 0.005402
vt 0.433014 0.051697
vt 0.470734 0.382477
vt 0.442261 0.340637
vt 0.442261 0.377197
vt 0.490417 0.341125
vt 0.484619 0.316284
vt 0.442261 0.303131
vt 0.166260 0.218445
vt 0.360016 0.260162
vt 0.166260 0.260162
vt 0.351624 0.217865
vt 0.163239 0.260162
vt 0.358093 0.260162
vt 0.433411 0.257782
vt 0.420471 0.234253
vt 0.402771 0.257782
vt 0.383881 0.234253
vt 0.370972 0.257782
vt 0.004974 0.455658
vt 0.004974 0.480286
vt 0.084534 0.455658
vt 0.004974 0.274902
vt 0.004974 0.366943
vt 0.084534 0.274902
vt 0.222229 0.260162
vt 0.008575 0.260162
vt 0.205719 0.218445
vt 0.360016 0.217865
vt 0.221405 0.260742
vt 0.008575 0.218994
vt 0.211517 0.218994
vt 0.066559 0.455658
vt 0.114166 0.480286
vt 0.066559 0.480286
vt 0.004974 0.496490
vt 0.084534 0.496490
vt 0.084534 0.480286
vt 0.141785 0.496490
vt 0.141968 0.480286
vt 0.176636 0.480286
vt 0.008575 0.260742
vt 0.211487 0.218994
vt 0.008575 0.218445
vt 0.176636 0.453583
vt 0.140350 0.453583
vt 0.139130 0.494476
vt 0.084534 0.453583
vt 0.084534 0.494476
vt 0.004974 0.494476
vt 0.172028 0.218445
vt 0.360107 0.217865
vt 0.066559 0.453583
vt 0.066559 0.366943
vt 0.114166 0.453583
vt 0.114197 0.366943
vt 0.218262 0.453583
vt 0.217926 0.366943
vt 0.322418 0.453583
vt 0.321960 0.366943
vt 0.433014 0.453583
vt 0.433014 0.366943
vt 0.065765 0.274902
vt 0.112579 0.274902
vt 0.214417 0.274902
vt 0.114166 0.455658
vt 0.218262 0.455658
vt 0.218323 0.480286
vt 0.322418 0.455658
vt 0.322540 0.480286
vt 0.433014 0.455658
vt 0.433014 0.480286
vt 0.254150 0.455658
vt 0.254211 0.480286
vt 0.176636 0.455658
vt 0.143341 0.455658
vt 0.176636 0.496490
vt 0.254303 0.496490
vt 0.322662 0.496490
vt 0.433014 0.496490
vt 0.218414 0.496490
vt 0.114166 0.496490
vt 0.066559 0.496490
vt 0.253815 0.366943
vt 0.254150 0.453583
vt 0.176666 0.366943
vt 0.139435 0.366943
vt 0.084534 0.366943
vt 0.004974 0.453583
vt 0.318359 0.274902
vt 0.433014 0.274902
vt 0.318390 0.274902
vt 0.250305 0.274902
vt 0.175049 0.274902
vt 0.137329 0.274902
vt 0.176636 0.494476
vt 0.254303 0.494476
vt 0.322662 0.494476
vt 0.433014 0.494476
vt 0.218414 0.494476
vt 0.114166 0.494476
vt 0.066559 0.494476
s 1
usemtl npc02_02
f 318/124/250 319/125/251 320/126/252
f 321/127/253 322/128/254 323/124/255
f 324/129/256 325/130/257 326/131/258
f 326/131/258 325/130/257 327/132/259
f 326/131/258 327/132/259 328/133/260
f 328/133/260 327/132/259 329/134/261
f 330/135/262 331/136/263 332/137/264
f 332/137/264 331/136/263 333/124/265
f 332/137/264 333/124/265 334/138/266
f 334/138/266 333/124/265 335/126/267
f 334/138/266 335/126/267 336/139/268
f 337/139/268 338/129/269 339/138/270
f 339/138/270 338/129/269 340/131/271
f 339/138/270 340/131/271 341/137/272
f 341/137/272 340/131/271 328/133/260
f 341/137/272 328/133/260 342/135/262
f 342/135/262 328/133/260 329/134/261
f 342/135/262 329/134/261 343/140/273
f 343/140/273 329/134/261 344/141/274
f 343/140/273 344/141/274 345/142/275
f 346/143/276 347/144/277 348/145/278
f 348/145/278 347/144/277 349/143/279
f 348/145/278 349/143/279 350/129/280
f 350/129/280 349/143/279 351/146/281
f 350/129/280 351/146/281 352/138/282
f 352/138/282 351/146/281 353/126/283
f 352/138/282 353/126/283 354/124/255
f 354/124/255 353/126/283 355/125/284
f 354/124/255 355/125/284 321/127/253
f 321/127/253 355/125/284 356/124/250
f 321/127/253 356/124/250 357/128/254
f 357/128/254 356/124/250 358/136/285
f 357/128/254 358/136/285 359/147/286
f 359/147/286 358/136/285 360/135/262
f 359/147/286 360/135/262 361/148/287
f 361/148/287 360/135/262 362/140/273
f 363/139/288 364/143/289 365/129/290
f 365/129/290 364/143/289 366/145/291
f 365/129/290 366/145/291 367/130/292
f 367/130/292 366/145/291 368/129/293
f 367/130/292 368/129/293 369/131/294
f 369/131/294 368/129/293 370/138/295
f 369/131/294 370/138/295 371/137/296
f 371/137/296 370/138/295 323/124/255
f 371/137/296 323/124/255 372/136/297
f 372/136/297 323/124/255 322/128/254
f 372/136/297 322/128/254 373/135/298
f 373/135/298 322/128/254 374/147/299
f 373/135/298 374/147/299 375/148/300
f 376/149/301 377/150/302 378/151/303
f 379/152/304 380/153/305 381/154/306
f 382/134/307 383/155/308 384/156/309
f 384/156/309 385/141/310 382/134/307
f 377/150/302 376/149/301 386/157/311
f 387/158/312 377/150/302 388/159/313
f 388/159/313 377/150/302 389/160/314
f 387/158/312 390/157/315 377/150/302
f 377/150/302 390/157/315 391/149/316
f 377/150/302 391/149/316 378/151/303
f 386/157/311 392/142/317 393/161/318
f 394/141/319 395/162/320 396/156/321
f 380/153/305 397/163/322 398/164/323
f 399/152/324 400/154/325 401/163/326
f 401/163/326 400/154/325 402/153/327
f 403/165/328 404/166/329 405/167/330
f 406/168/331 405/167/330 407/169/332
f 407/169/332 405/167/330 404/166/329
f 407/169/332 404/166/329 408/170/333
f 408/170/333 404/166/329 409/171/334
f 410/142/335 411/141/336 412/140/337
f 411/141/336 413/134/338 412/140/337
f 412/140/337 413/134/338 414/135/339
f 412/140/337 414/135/339 415/148/340
f 416/172/341 417/173/342 418/174/343
f 419/175/344 420/176/345 421/177/346
f 380/153/305 379/152/304 397/163/322
f 397/163/322 379/152/304 422/170/347
f 397/163/322 422/170/347 423/169/348
f 423/169/348 422/170/347 424/171/349
f 423/169/348 424/171/349 425/166/350
f 425/166/350 426/165/351 423/169/348
f 423/169/348 426/165/351 427/167/352
f 423/169/348 427/167/352 397/163/322
f 397/163/322 427/167/352 428/168/353
f 397/163/322 428/168/353 398/164/323
f 408/170/333 399/152/324 407/169/332
f 407/169/332 399/152/324 401/163/326
f 407/169/332 401/163/326 406/168/331
f 406/168/331 401/163/326 402/153/327
f 406/168/331 402/153/327 429/164/354
f 392/142/317 430/141/355 393/161/318
f 393/161/318 430/141/355 431/156/356
f 393/161/318 431/156/356 386/157/311
f 386/157/311 431/156/356 432/158/357
f 386/157/311 432/158/357 377/150/302
f 377/150/302 432/158/357 433/159/358
f 377/150/302 433/159/358 389/160/314
f 411/141/336 434/156/359 413/134/338
f 413/134/338 434/156/359 435/155/360
f 413/134/338 435/155/360 436/178/361
f 436/178/361 435/155/360 437/179/362
f 436/178/361 437/179/362 438/160/363
f 438/160/363 437/179/362 439/180/364
f 438/160/363 439/180/364 440/179/365
f 441/136/297 414/135/339 442/133/366
f 442/133/366 414/135/339 413/134/338
f 442/133/366 413/134/338 443/132/367
f 443/132/367 413/134/338 436/178/361
f 443/132/367 436/178/361 444/181/368
f 444/181/368 436/178/361 438/160/363
f 444/181/368 438/160/363 445/178/369
f 445/178/369 438/160/363 440/179/365
f 445/178/369 440/179/365 383/155/308
f 446/182/370 417/173/342 447/174/371
f 447/174/371 417/173/342 416/172/341
f 447/174/371 416/172/341 448/183/372
f 448/183/372 416/172/341 418/174/343
f 448/183/372 418/174/343 449/177/373
f 450/184/374 417/173/342 451/174/375
f 451/174/375 417/173/342 446/182/370
f 451/174/375 446/182/370 452/185/376
f 452/185/376 446/182/370 447/174/371
f 452/185/376 447/174/371 453/177/377
f 453/177/377 447/174/371 448/183/372
f 453/177/377 448/183/372 454/175/378
f 454/175/378 448/183/372 449/177/373
f 454/175/378 449/177/373 455/176/379
f 456/185/380 421/177/346 457/186/381
f 457/186/381 421/177/346 420/176/345
f 457/186/381 420/176/345 458/187/382
f 458/187/382 420/176/345 419/175/344
f 458/187/382 419/175/344 459/176/383
f 460/176/384 458/187/382 461/186/385
f 461/186/385 458/187/382 459/176/383
f 461/186/385 459/176/383 462/177/386
f 462/177/386 459/176/383 419/175/344
f 462/177/386 419/175/344 463/183/387
f 463/183/387 419/175/344 421/177/346
f 463/183/387 421/177/346 464/174/388
f 464/174/388 421/177/346 456/185/380
f 464/174/388 456/185/380 465/182/389
f 394/141/319 466/142/390 395/162/320
f 395/162/320 466/142/390 390/157/315
f 395/162/320 390/157/315 396/156/321
f 396/156/321 390/157/315 387/158/312
f 396/156/321 387/158/312 467/155/391
f 467/155/391 387/158/312 388/159/313
f 467/155/391 388/159/313 468/179/392
f 468/179/392 388/159/313 389/160/314
f 468/179/392 389/160/314 469/180/393
f 469/180/393 389/160/314 433/159/358
f 469/180/393 433/159/358 470/179/394
f 470/179/394 433/159/358 432/158/357
f 470/179/394 432/158/357 471/155/395
f 471/155/395 432/158/357 431/156/356
f 383/155/308 382/134/307 445/178/369
f 445/178/369 382/134/307 472/132/396
f 445/178/369 472/132/396 444/181/368
f 444/181/368 472/132/396 473/130/257
f 444/181/368 473/130/257 443/132/367
f 443/132/367 473/130/257 474/131/397
f 443/132/367 474/131/397 442/133/366
f 442/133/366 474/131/397 475/137/398
f 442/133/366 475/137/398 441/136/297
f 450/184/374 464/174/388 417/173/342
f 417/173/342 464/174/388 465/182/389
f 417/173/342 465/182/389 418/174/343
f 418/174/343 465/182/389 456/185/380
f 418/174/343 456/185/380 449/177/373
f 449/177/373 456/185/380 457/186/381
f 449/177/373 457/186/381 455/176/379
f 455/176/379 457/186/381 458/187/382
f 455/176/379 458/187/382 454/175/378
f 454/175/378 458/187/382 460/176/384
f 454/175/378 460/176/384 453/177/377
f 453/177/377 460/176/384 461/186/385
f 453/177/377 461/186/385 452/185/376
f 452/185/376 461/186/385 462/177/386
f 452/185/376 462/177/386 451/174/375
f 451/174/375 462/177/386 463/183/387
f 451/174/375 463/183/387 450/184/374
f 450/184/374 463/183/387 464/174/388
f 476/188/399 477/189/400 478/190/401
f 479/191/402 480/192/403 481/193/404
f 482/194/405 483/195/406 484/196/407
f 484/196/407 483/195/406 485/197/408
f 484/196/407 485/197/408 486/198/409
f 486/198/409 487/197/410 484/196/407
f 484/196/407 487/197/410 488/195/411
f 484/196/407 488/195/411 482/194/405
f 489/198/412 490/197/413 491/196/414
f 491/196/414 490/197/413 492/195/415
f 491/196/414 492/195/415 493/194/416
f 493/194/416 494/195/417 491/196/414
f 491/196/414 494/195/417 495/197/418
f 491/196/414 495/197/418 489/198/412
f 496/199/419 497/200/420 498/201/393
f 499/202/421 500/203/422 501/204/423
f 502/205/424 503/206/425 504/207/426
f 505/190/427 506/189/428 507/188/429
f 507/188/429 506/189/428 508/208/430
f 509/209/431 510/210/292 511/211/432
f 512/198/433 513/197/408 514/196/434
f 514/196/434 513/197/408 515/195/435
f 514/196/434 515/195/435 516/194/436
f 516/194/436 517/195/437 514/196/434
f 514/196/434 517/195/437 518/197/438
f 514/196/434 518/197/438 512/198/433
f 519/212/439 520/213/440 521/214/441
f 522/215/442 523/216/443 524/217/444
f 524/217/444 523/216/443 525/218/445
f 524/217/444 525/218/445 526/219/446
f 526/219/446 525/218/445 527/220/447
f 528/194/448 529/195/449 530/196/450
f 530/196/450 529/195/449 531/197/451
f 530/196/450 531/197/451 532/198/452
f 532/198/452 533/197/453 530/196/450
f 530/196/450 533/197/453 534/195/454
f 530/196/450 534/195/454 528/194/448
f 509/209/431 535/221/455 510/210/292
f 510/210/292 535/221/455 536/209/456
f 510/210/292 536/209/456 537/222/457
f 538/205/403 539/207/252 503/206/425
f 503/206/425 539/207/252 540/223/458
f 503/206/425 540/223/458 504/207/426
f 541/224/459 542/225/460 543/226/461
f 543/226/461 542/225/460 544/227/462
f 543/226/461 544/227/462 545/228/463
f 545/228/463 544/227/462 546/229/464
f 547/193/428 548/192/424 549/191/281
f 549/191/281 548/192/424 550/230/283
f 477/189/400 476/188/399 551/231/465
f 480/192/403 479/191/402 552/230/267
f 553/232/466 554/233/467 555/234/468
f 555/234/468 554/233/467 556/235/469
f 555/234/468 556/235/469 557/236/470
f 557/236/470 556/235/469 558/237/471
f 557/236/470 558/237/471 559/238/472
f 559/238/472 558/237/471 560/239/473
f 559/238/472 560/239/473 561/240/474
f 561/240/474 560/239/473 562/241/475
f 561/240/474 562/241/475 563/238/476
f 554/233/467 564/242/421 556/235/469
f 556/235/469 564/242/421 565/243/477
f 556/235/469 565/243/477 558/237/471
f 558/237/471 565/243/477 566/244/478
f 558/237/471 566/244/478 560/239/473
f 519/212/439 567/245/479 520/213/440
f 520/213/440 567/245/479 568/246/480
f 520/213/440 568/246/480 569/247/481
f 569/247/481 568/246/480 570/248/482
f 569/247/481 570/248/482 571/249/483
f 571/249/483 570/248/482 572/250/484
f 571/249/483 572/250/484 573/251/485
f 573/251/485 572/250/484 574/248/486
f 573/251/485 574/248/486 575/249/487
f 575/249/487 574/248/486 576/252/488
f 575/249/487 576/252/488 577/253/489
f 577/253/489 576/252/488 578/254/490
f 577/253/489 578/254/490 527/220/447
f 527/220/447 578/254/490 579/255/491
f 527/220/447 579/255/491 526/219/446
f 526/219/446 579/255/491 498/201/393
f 526/219/446 498/201/393 524/217/444
f 524/217/444 498/201/393 497/200/420
f 524/217/444 497/200/420 522/215/442
f 525/218/445 580/256/492 527/220/447
f 527/220/447 580/256/492 581/257/493
f 527/220/447 581/257/493 577/253/489
f 577/253/489 581/257/493 582/258/494
f 577/253/489 582/258/494 575/249/487
f 575/249/487 582/258/494 583/259/495
f 575/249/487 583/259/495 573/251/485
f 573/251/485 583/259/495 584/258/496
f 573/251/485 584/258/496 571/249/483
f 571/249/483 584/258/496 585/260/497
f 571/249/483 585/260/497 569/247/481
f 569/247/481 585/260/497 586/261/498
f 569/247/481 586/261/498 520/213/440
f 520/213/440 586/261/498 587/262/499
f 520/213/440 587/262/499 521/214/441
f 562/241/475 588/239/500 563/238/476
f 563/238/476 588/239/500 589/263/501
f 563/238/476 589/263/501 590/264/502
f 590/264/502 589/263/501 591/265/503
f 590/264/502 591/265/503 541/224/459
f 541/224/459 591/265/503 592/266/504
f 541/224/459 592/266/504 542/225/460
f 542/225/460 592/266/504 593/267/505
f 542/225/460 593/267/505 544/227/462
f 544/227/462 593/267/505 594/268/466
f 544/227/462 594/268/466 546/229/464
f 566/244/478 595/269/506 560/239/473
f 560/239/473 595/269/506 596/270/507
f 560/239/473 596/270/507 562/241/475
f 562/241/475 596/270/507 597/271/508
f 562/241/475 597/271/508 588/239/500
f 588/239/500 597/271/508 598/272/509
f 588/239/500 598/272/509 589/263/501
f 589/263/501 598/272/509 599/273/510
f 589/263/501 599/273/510 591/265/503
f 591/265/503 599/273/510 600/274/511
f 591/265/503 600/274/511 592/266/504
f 592/266/504 600/274/511 501/204/423
f 592/266/504 501/204/423 593/267/505
f 593/267/505 501/204/423 500/203/422
f 593/267/505 500/203/422 594/268/466
f 543/226/461 601/275/512 541/224/459
f 541/224/459 601/275/512 602/276/513
f 541/224/459 602/276/513 590/264/502
f 590/264/502 602/276/513 603/277/514
f 590/264/502 603/277/514 563/238/476
f 563/238/476 603/277/514 604/278/515
f 563/238/476 604/278/515 561/240/474
f 561/240/474 604/278/515 605/277/516
f 561/240/474 605/277/516 559/238/472
f 559/238/472 605/277/516 606/279/517
f 559/238/472 606/279/517 557/236/470
f 557/236/470 606/279/517 607/280/518
f 557/236/470 607/280/518 555/234/468
f 555/234/468 607/280/518 608/281/519
f 555/234/468 608/281/519 553/232/466
