mtllib cat_weapon5.mtl
o cat_00-0001-112
v -71.926338 7.308096 50.649391
v -71.926338 2.811238 61.508797
v -75.984970 18.169172 61.508797
v -66.015602 3.300794 76.376732
v -66.015602 -2.855733 61.508797
v -59.801899 3.384241 76.293221
v -40.211868 18.169167 -17.883276
v -45.256573 18.169167 -17.883276
v -42.732792 21.123184 -17.883276
v -41.283691 18.169168 0.104388
v -42.732792 21.123184 -17.883276
v -42.732792 19.867775 0.104387
v -53.676800 18.169174 81.014572
v -53.676800 4.376331 75.303017
v -51.999043 18.169174 79.699272
v -44.184753 18.169168 0.104388
v -44.636345 18.169170 33.112091
v -42.732792 19.867777 33.112091
v -51.999043 5.307226 48.648113
v -51.999043 -0.016684 61.508797
v -53.676800 4.376329 47.717560
v -66.015602 -2.855733 61.508797
v -59.801899 3.384238 46.727360
v -53.676800 -1.335145 61.508797
v -51.999043 5.307228 74.369484
v -71.926338 7.308097 72.371185
v -24.428946 1.502049 61.508797
v -16.877609 8.404033 65.597855
v -24.428946 6.384620 73.295776
v -16.877609 29.608812 61.508793
v -16.877609 27.934311 57.422722
v -24.428946 34.834442 61.508793
v -24.428946 29.953726 49.724804
v -24.428946 29.953728 73.295776
v -24.428946 18.169174 78.175201
v -16.877609 18.169174 73.075066
v -16.877609 10.078535 69.686905
v -16.877609 6.727678 61.508797
v -16.877609 8.404033 57.422726
v -10.112275 16.461292 61.508797
v -16.877609 10.078533 53.333672
v -16.877609 18.169172 49.945515
v -16.877609 26.257956 53.333668
v -10.112275 18.169172 59.784893
v -10.112275 19.875196 61.508797
v -5.856430 18.169172 61.508797
v -42.732792 15.213293 -17.883276
v -42.732792 16.470562 33.112091
v -48.534916 16.470564 38.862419
v -44.636345 18.169170 33.112091
v -36.933525 16.470564 38.862419
v -36.933525 16.470566 82.404434
v -48.534916 16.470566 82.404434
v -42.732792 19.867777 33.112091
v -36.933525 19.867779 38.862419
v -40.829239 18.169170 33.112091
v -48.534916 19.867779 38.862419
v -48.534916 19.867781 82.404434
v -36.933525 19.867781 82.404434
v -40.211868 18.169167 -17.883276
v -42.732792 16.470560 0.104388
v -42.732792 15.213293 -17.883276
v -45.256573 18.169167 -17.883276
v -59.801899 -2.737053 61.508797
v -66.015602 3.300792 46.640865
v -71.926338 18.169172 46.151730
v -51.999043 18.169172 43.321304
v -53.676800 18.169172 42.003025
v -59.801899 18.169172 40.601234
v -66.015602 18.169172 40.484917
v -59.801899 18.169174 82.416359
v -66.015602 18.169174 82.535660
v -71.926338 18.169174 76.868851
v -51.999043 31.029263 48.648109
v -53.676800 31.960159 47.717556
v -59.801899 32.952251 46.727356
v -66.015602 33.035698 46.640862
v -71.926338 29.028391 50.649387
v -51.999043 31.029264 74.369484
v -53.676800 31.960161 75.303017
v -59.801899 32.952255 76.293221
v -66.015602 33.035702 76.376732
v -71.926338 29.028393 72.371185
v -71.926338 33.527107 61.508793
v -66.015602 39.194077 61.508793
v -59.801899 39.075397 61.508793
v -53.676800 37.673489 61.508793
v -51.999043 36.356884 61.508793
v -16.877609 27.934313 65.597855
v -16.877609 26.257957 69.686905
v -10.112275 18.169174 63.235687
v -42.761375 31.709820 75.052483
v -42.761375 37.317448 61.508793
v -42.761375 31.709818 47.968090
v -24.428946 18.169172 44.845383
v -42.761375 18.169172 42.360931
v -24.428946 6.384618 49.724808
v -42.761375 4.626670 47.968094
v -42.761375 -0.979105 61.508797
v -42.761375 4.626672 75.052483
v -42.761375 18.169174 80.659653
v -24.428946 29.953728 73.295776
v -51.999043 18.169174 79.699272
v -42.761375 31.709820 75.052483
v -51.999043 31.029264 74.369484
v -51.999043 36.356884 61.508793
v -51.999043 31.029263 48.648109
v -51.999043 18.169172 43.321304
v -51.999043 5.307226 48.648113
v -51.999043 -0.016684 61.508797
v -51.999043 5.307228 74.369484
v -42.732792 16.470562 33.112091
v -40.829239 18.169170 33.112091
vn -0.8656 -0.3541 -0.3541
vn -0.8643 -0.5029 -0.0000
vn -1.0000 -0.0000 -0.0000
vn -0.3679 -0.6575 0.6575
vn -0.3700 -0.9290 -0.0000
vn 0.1188 -0.7021 0.7021
vn 0.6199 -0.0000 -0.7847
vn -0.6199 -0.0000 -0.7847
vn 0.0001 0.8185 -0.5745
vn 0.9997 -0.0000 0.0236
vn -0.0000 0.8185 -0.5745
vn -0.0000 0.9997 0.0236
vn 0.4314 -0.0000 0.9021
vn 0.4328 -0.6375 0.6375
vn 0.2830 -0.0000 0.9591
vn -0.9997 -0.0000 0.0236
vn -0.8944 -0.0000 -0.4472
vn -0.0000 0.9570 -0.2902
vn 0.2838 -0.6780 -0.6780
vn 0.2830 -0.9591 -0.0000
vn 0.4328 -0.6375 -0.6374
vn 0.1184 -0.7021 -0.7021
vn 0.4315 -0.9021 -0.0000
vn 0.2839 -0.6780 0.6780
vn -0.8656 -0.3541 0.3541
vn 0.4314 -0.9021 -0.0000
vn 0.6540 -0.7013 0.2837
vn 0.4017 -0.6931 0.5986
vn 0.7071 0.7071 -0.0000
vn 0.6540 0.7013 -0.2837
vn 0.4314 0.9021 -0.0000
vn 0.4017 0.6931 -0.5986
vn 0.4017 0.6931 0.5986
vn 0.3605 -0.0000 0.9327
vn 0.7071 -0.0000 0.7071
vn 0.7367 -0.4781 0.4781
vn 0.7071 -0.7071 -0.0000
vn 0.6540 -0.7013 -0.2837
vn 0.7778 -0.6285 -0.0000
vn 0.7367 -0.4781 -0.4781
vn 0.7071 -0.0000 -0.7071
vn 0.7367 0.4781 -0.4781
vn 0.7637 -0.0000 -0.6456
vn 0.7778 0.6285 -0.0000
vn 1.0000 -0.0001 0.0002
vn -0.0001 -0.8185 -0.5745
vn -0.0000 -0.9570 -0.2902
vn -0.6429 -0.7056 -0.2979
vn -0.8944 -0.0000 -0.4473
vn 0.6429 -0.7056 -0.2979
vn 0.5774 -0.5773 0.5774
vn -0.5774 -0.5774 0.5773
vn 0.6429 0.7056 -0.2979
vn 0.8944 -0.0000 -0.4472
vn -0.6429 0.7056 -0.2979
vn -0.5774 0.5773 0.5774
vn 0.5774 0.5774 0.5773
vn 0.6199 0.0001 -0.7847
vn -0.0000 -0.9997 0.0236
vn -0.0000 -0.8185 -0.5745
vn 0.1174 -0.9931 -0.0000
vn -0.3679 -0.6575 -0.6575
vn -0.8643 -0.0000 -0.5029
vn 0.2831 -0.0000 -0.9591
vn 0.4314 -0.0000 -0.9021
vn 0.1173 -0.0000 -0.9931
vn -0.3700 -0.0000 -0.9290
vn 0.1174 -0.0000 0.9931
vn -0.3700 -0.0000 0.9290
vn -0.8643 -0.0000 0.5029
vn 0.2839 0.6780 -0.6780
vn 0.4328 0.6374 -0.6374
vn 0.1186 0.7022 -0.7021
vn -0.3679 0.6575 -0.6575
vn -0.8656 0.3541 -0.3541
vn 0.2839 0.6780 0.6780
vn 0.4328 0.6374 0.6374
vn 0.1188 0.7021 0.7021
vn -0.3679 0.6575 0.6575
vn -0.8656 0.3541 0.3541
vn -0.8643 0.5029 -0.0000
vn -0.3700 0.9290 -0.0000
vn 0.1174 0.9931 -0.0000
vn 0.2831 0.9591 -0.0000
vn 0.6540 0.7013 0.2837
vn 0.7368 0.4781 0.4781
vn 0.7637 -0.0000 0.6456
vn 0.0079 0.7071 0.7071
vn 0.0079 1.0000 -0.0000
vn 0.0079 0.7071 -0.7071
vn 0.3605 -0.0000 -0.9328
vn 0.0079 -0.0000 -1.0000
vn 0.4017 -0.6931 -0.5986
vn 0.0079 -0.7071 -0.7071
vn 0.0079 -1.0000 -0.0000
vn 0.0079 -0.7071 0.7071
vn 0.0079 -0.0000 1.0000
vn 0.4016 0.6931 0.5986
vn 0.0078 0.7071 0.7071
vn 0.2838 0.6780 0.6781
vn 0.2830 0.9591 -0.0000
vn 0.2838 0.6780 -0.6780
vn 0.2830 -0.0000 -0.9591
vn 0.2838 -0.6780 0.6780
vt 0.200775 0.816467
vt 0.200684 0.883087
vt 0.245056 0.882874
vt 0.215912 0.953522
vt 0.216034 0.883362
vt 0.233978 0.957977
vt 0.191040 0.995941
vt 0.152374 0.954437
vt 0.191040 0.954437
vt 0.245392 0.918549
vt 0.222961 0.996338
vt 0.222961 0.918549
vt 0.217743 0.984436
vt 0.217804 0.954987
vt 0.212097 0.982941
vt 0.200500 0.918549
vt 0.200500 0.777832
vt 0.222961 0.777832
vt 0.212341 0.814056
vt 0.212250 0.884003
vt 0.218018 0.812836
vt 0.234192 0.809387
vt 0.217896 0.883911
vt 0.212128 0.953949
vt 0.200562 0.949738
vt 0.190460 0.625671
vt 0.149414 0.603180
vt 0.094116 0.625671
vt 0.190460 0.603180
vt 0.231476 0.603180
vt 0.286774 0.625671
vt 0.030518 0.625671
vt 0.047333 0.603180
vt 0.108368 0.603180
vt 0.190460 0.556885
vt 0.272522 0.603180
vt 0.333588 0.603180
vt 0.232025 0.556885
vt 0.190460 0.513489
vt 0.152374 0.995941
vt 0.200470 0.888580
vt 0.204590 0.783142
vt 0.200470 0.862213
vt 0.204590 0.993988
vt 0.245178 0.993988
vt 0.245178 0.783142
vt 0.200470 0.914917
vt 0.245392 0.996338
vt 0.200500 0.996338
vt 0.234070 0.883667
vt 0.216125 0.813202
vt 0.200806 0.788849
vt 0.212402 0.785065
vt 0.218048 0.783386
vt 0.234222 0.778595
vt 0.216187 0.784149
vt 0.233917 0.988739
vt 0.215881 0.982574
vt 0.200531 0.977356
vt 0.148865 0.556885
vt 0.094116 0.685822
vt 0.190460 0.685822
vt 0.286774 0.685822
vt 0.350372 0.625671
vt 0.350372 0.685822
vt 0.030518 0.685822
vt 0.030518 0.745789
vt 0.094116 0.745789
vt 0.190460 0.745789
vt 0.286774 0.745789
vt 0.350372 0.745789
vt 0.245392 0.777832
s 1
usemtl cat00
f 1/1/1 2/2/2 3/3/3
f 4/4/4 5/5/5 6/6/6
f 7/7/7 8/8/8 9/9/9
f 10/10/10 11/11/11 12/12/12
f 13/13/13 14/14/14 15/15/15
f 16/16/16 17/17/17 18/18/18
f 19/19/19 20/20/20 21/21/21
f 2/2/2 1/1/1 22/5/5
f 23/22/22 21/21/21 24/23/23
f 24/23/23 21/21/21 20/20/20
f 24/23/23 20/20/20 25/24/24
f 5/5/5 4/4/4 2/2/2
f 2/2/2 4/4/4 26/25/25
f 2/2/2 26/25/25 3/3/3
f 27/26/26 28/27/27 29/28/28
f 30/29/29 31/30/30 32/26/31
f 32/26/31 31/30/30 33/31/32
f 34/28/33 35/32/34 36/33/35
f 36/33/35 35/32/34 29/28/28
f 36/33/35 29/28/28 37/34/36
f 37/34/36 29/28/28 28/27/27
f 38/29/37 39/30/38 40/35/39
f 40/35/39 39/30/38 41/36/40
f 42/37/41 43/36/42 44/38/43
f 44/38/43 43/36/42 45/35/44
f 44/38/43 45/35/44 46/39/45
f 8/8/8 7/7/7 47/40/46
f 48/41/47 49/42/48 50/43/49
f 48/41/47 51/44/50 49/42/48
f 49/42/48 51/44/50 52/45/51
f 49/42/48 52/45/51 53/46/52
f 54/41/18 55/44/53 56/47/54
f 54/41/18 57/42/55 55/44/53
f 55/44/53 57/42/55 58/46/56
f 55/44/53 58/46/56 59/45/57
f 11/11/11 10/10/10 60/48/58
f 60/48/58 10/10/10 61/12/59
f 60/48/58 61/12/59 62/11/60
f 62/11/60 61/12/59 16/16/16
f 62/11/60 16/16/16 63/49/8
f 14/14/14 6/6/6 64/50/61
f 64/50/61 6/6/6 22/5/5
f 64/50/61 22/5/5 65/51/62
f 65/51/62 22/5/5 1/1/1
f 65/51/62 1/1/1 66/52/63
f 66/52/63 1/1/1 3/3/3
f 67/53/64 19/19/19 68/54/65
f 68/54/65 19/19/19 21/21/21
f 68/54/65 21/21/21 69/55/66
f 69/55/66 21/21/21 23/22/22
f 69/55/66 23/22/22 70/56/67
f 14/14/14 13/13/13 6/6/6
f 6/6/6 13/13/13 71/57/68
f 6/6/6 71/57/68 4/4/4
f 4/4/4 71/57/68 72/58/69
f 4/4/4 72/58/69 26/25/25
f 26/25/25 72/58/69 73/59/70
f 26/25/25 73/59/70 3/3/3
f 74/19/71 67/53/64 75/21/72
f 75/21/72 67/53/64 68/54/65
f 75/21/72 68/54/65 76/22/73
f 76/22/73 68/54/65 69/55/66
f 76/22/73 69/55/66 77/51/74
f 77/51/74 69/55/66 70/56/67
f 77/51/74 70/56/67 78/1/75
f 15/15/15 79/24/76 13/13/13
f 13/13/13 79/24/76 80/14/77
f 13/13/13 80/14/77 71/57/68
f 71/57/68 80/14/77 81/6/78
f 71/57/68 81/6/78 72/58/69
f 72/58/69 81/6/78 82/4/79
f 72/58/69 82/4/79 73/59/70
f 73/59/70 82/4/79 83/25/80
f 73/59/70 83/25/80 3/3/3
f 78/1/75 84/2/81 77/51/74
f 77/51/74 84/2/81 85/5/82
f 77/51/74 85/5/82 76/22/73
f 76/22/73 85/5/82 86/50/83
f 76/22/73 86/50/83 75/21/72
f 75/21/72 86/50/83 87/23/31
f 75/21/72 87/23/31 74/19/71
f 74/19/71 87/23/31 88/20/84
f 89/27/85 90/34/86 45/35/44
f 45/35/44 90/34/86 91/60/87
f 45/35/44 91/60/87 46/39/45
f 46/39/45 91/60/87 40/35/39
f 46/39/45 40/35/39 44/38/43
f 44/38/43 40/35/39 41/36/40
f 44/38/43 41/36/40 42/37/41
f 79/24/76 88/20/84 80/14/77
f 80/14/77 88/20/84 87/23/31
f 80/14/77 87/23/31 81/6/78
f 81/6/78 87/23/31 86/50/83
f 81/6/78 86/50/83 82/4/79
f 82/4/79 86/50/83 85/5/82
f 82/4/79 85/5/82 83/25/80
f 83/25/80 85/5/82 84/2/81
f 83/25/80 84/2/81 3/3/3
f 3/3/3 84/2/81 78/1/75
f 3/3/3 78/1/75 66/52/63
f 66/52/63 78/1/75 70/56/67
f 66/52/63 70/56/67 65/51/62
f 65/51/62 70/56/67 23/22/22
f 65/51/62 23/22/22 64/50/61
f 64/50/61 23/22/22 24/23/23
f 64/50/61 24/23/23 14/14/14
f 14/14/14 24/23/23 25/24/24
f 14/14/14 25/24/24 15/15/15
f 92/61/88 32/26/31 93/62/89
f 93/62/89 32/26/31 33/31/32
f 93/62/89 33/31/32 94/63/90
f 94/63/90 33/31/32 95/64/91
f 94/63/90 95/64/91 96/65/92
f 96/65/92 95/64/91 97/31/93
f 96/65/92 97/31/93 98/63/94
f 98/63/94 97/31/93 27/26/26
f 98/63/94 27/26/26 99/62/95
f 99/62/95 27/26/26 29/28/28
f 99/62/95 29/28/28 100/61/96
f 100/61/96 29/28/28 35/32/34
f 100/61/96 35/32/34 101/66/97
f 101/66/97 35/32/34 102/28/98
f 103/67/15 104/61/99 105/68/100
f 105/68/100 104/61/99 93/62/89
f 105/68/100 93/62/89 106/69/101
f 106/69/101 93/62/89 94/63/90
f 106/69/101 94/63/90 107/70/102
f 107/70/102 94/63/90 96/65/92
f 107/70/102 96/65/92 108/71/103
f 108/71/103 96/65/92 98/63/94
f 108/71/103 98/63/94 109/70/19
f 109/70/19 98/63/94 99/62/95
f 109/70/19 99/62/95 110/69/20
f 110/69/20 99/62/95 100/61/96
f 110/69/20 100/61/96 111/68/104
f 111/68/104 100/61/96 101/66/97
f 54/41/18 50/43/49 57/42/55
f 57/42/55 50/43/49 49/42/48
f 57/42/55 49/42/48 58/46/56
f 58/46/56 49/42/48 53/46/52
f 58/46/56 53/46/52 59/45/57
f 59/45/57 53/46/52 52/45/51
f 59/45/57 52/45/51 55/44/53
f 55/44/53 52/45/51 51/44/50
f 55/44/53 51/44/50 56/47/54
f 56/47/54 51/44/50 48/41/47
f 17/17/17 16/16/16 112/18/47
f 112/18/47 16/16/16 61/12/59
f 112/18/47 61/12/59 113/72/54
f 113/72/54 61/12/59 10/10/10
f 113/72/54 10/10/10 18/18/18
f 18/18/18 10/10/10 12/12/12
f 18/18/18 12/12/12 16/16/16
f 16/16/16 12/12/12 11/11/11
f 16/16/16 11/11/11 63/49/8
f 89/27/85 34/28/33 90/34/86
f 90/34/86 34/28/33 36/33/35
f 90/34/86 36/33/35 91/60/87
f 91/60/87 36/33/35 37/34/36
f 91/60/87 37/34/36 40/35/39
f 40/35/39 37/34/36 28/27/27
f 40/35/39 28/27/27 38/29/37
f 38/29/37 28/27/27 27/26/26
f 38/29/37 27/26/26 39/30/38
f 39/30/38 27/26/26 97/31/93
f 39/30/38 97/31/93 41/36/40
f 41/36/40 97/31/93 95/64/91
f 41/36/40 95/64/91 42/37/41
f 42/37/41 95/64/91 33/31/32
f 42/37/41 33/31/32 43/36/42
f 43/36/42 33/31/32 31/30/30
f 43/36/42 31/30/30 45/35/44
f 45/35/44 31/30/30 30/29/29
f 45/35/44 30/29/29 89/27/85
f 89/27/85 30/29/29 32/26/31
f 89/27/85 32/26/31 102/28/98
f 102/28/98 32/26/31 92/61/88
f 102/28/98 92/61/88 101/66/97
f 101/66/97 92/61/88 103/67/15
f 101/66/97 103/67/15 111/68/104
o cat_00-0001-113
v -42.732792 16.045910 31.948902
v -42.732792 16.045910 16.189192
v -40.471966 18.169170 31.948902
v -40.789223 18.169170 16.189192
v -42.732792 20.292429 31.948902
v -42.732792 20.292429 16.189192
v -44.996479 18.169170 31.948902
v -44.679218 18.169170 16.189192
vn -0.0000 -1.0000 -0.0079
vn 1.0000 -0.0000 -0.0079
vn -0.0000 1.0000 -0.0079
vn -1.0000 -0.0000 -0.0079
vt 0.304321 0.753601
vt 0.304321 0.995026
vt 0.359161 0.753601
vt 0.359161 0.995026
vt 0.253143 0.753601
vt 0.253143 0.995026
s 1
usemtl cat00
f 114/73/105 115/74/105 116/75/106
f 116/75/106 115/74/105 117/76/106
f 116/75/106 117/76/106 118/73/107
f 118/73/107 117/76/106 119/74/107
f 118/73/107 119/74/107 120/77/108
f 120/77/108 119/74/107 121/78/108
f 120/77/108 121/78/108 114/73/105
f 114/73/105 121/78/108 115/74/105
