mtllib cat_weapon6.mtl
o cat_00-0001-114
v -26.046680 7.831033 92.583817
v -7.705679 25.664558 85.753815
v -26.046680 28.492481 92.583817
v -26.046680 28.492477 42.703918
v -7.705679 10.660807 49.533924
v -26.046680 7.831029 42.703922
v -59.401752 7.831033 92.583817
v -26.046680 28.492481 92.583817
v -59.401752 28.492481 92.583817
v -59.401752 43.103104 77.975372
v -77.742760 25.664558 85.753815
v -59.401752 28.492481 92.583817
v -59.401752 -6.775883 57.315357
v -77.742760 10.660807 49.533924
v -59.401752 7.831029 42.703922
v -59.401752 43.103104 77.975372
v -59.401752 28.492481 92.583817
v -26.046680 28.492481 92.583817
v -76.022125 25.738733 85.935753
v -76.022125 18.161757 75.219505
v -76.022125 10.586635 85.935753
v -76.022125 36.453308 75.219505
v -76.022125 36.453308 60.068230
v -76.022125 18.161755 60.068233
v -76.022125 25.738731 49.354969
v -9.426309 10.586635 85.935753
v -9.426309 18.161757 75.219505
v -9.426309 25.738733 85.935753
v -9.426309 10.586632 49.354973
v -9.426309 18.161755 60.068233
v -9.426309 -0.126093 60.068233
v -9.426309 -0.126092 75.219505
v -7.705679 10.660810 85.753815
v -26.046680 -6.775881 77.975372
v -7.705679 0.051929 75.144943
v -26.046680 -6.775883 57.315357
v -7.705679 0.051928 60.142799
v -26.046680 7.831029 42.703922
v -7.705679 10.660807 49.533924
v -7.705679 25.664557 49.533920
v -26.046680 43.103100 57.315353
v -7.705679 36.273438 60.142796
v -26.046680 43.103104 77.975372
v -7.705679 36.273438 75.144943
v -26.046680 28.492481 92.583817
v -7.705679 25.664558 85.753815
v -26.046680 7.831033 92.583817
v -59.401752 -6.775881 77.975372
v -26.046680 -6.775881 77.975372
v -59.401752 -6.775883 57.315357
v -26.046680 -6.775883 57.315357
v -59.401752 7.831029 42.703922
v -26.046680 7.831029 42.703922
v -77.742760 36.273438 75.144943
v -59.401752 43.103100 57.315353
v -77.742760 36.273438 60.142796
v -59.401752 28.492477 42.703918
v -77.742760 25.664557 49.533920
v -59.401752 7.831029 42.703922
v -77.742760 10.660807 49.533924
v -77.742760 0.051928 60.142799
v -59.401752 -6.775881 77.975372
v -77.742760 0.051929 75.144943
v -59.401752 7.831033 92.583817
v -77.742760 10.660810 85.753815
v -59.401752 28.492481 92.583817
v -77.742760 25.664558 85.753815
v -26.046680 43.103104 77.975372
v -26.046680 43.103100 57.315353
v -59.401752 43.103100 57.315353
v -26.046680 28.492477 42.703918
v -59.401752 28.492477 42.703918
v -26.046680 7.831029 42.703922
v -59.401752 7.831029 42.703922
v -76.022125 10.586632 49.354973
v -76.022125 -0.126093 60.068233
v -76.022125 -0.126092 75.219505
v -9.426309 25.738731 49.354969
v -9.426309 36.453308 60.068230
v -9.426309 36.453308 75.219505
vn 0.1878 -0.3756 0.9076
vn 0.3702 0.3544 0.8587
vn 0.1878 0.3755 0.9076
vn 0.1878 0.3755 -0.9076
vn 0.3702 -0.3544 -0.8587
vn 0.1878 -0.3755 -0.9076
vn -0.1877 -0.3756 0.9076
vn 0.1877 0.3755 0.9076
vn -0.1877 0.3755 0.9076
vn -0.1878 0.9076 0.3755
vn -0.3702 0.3545 0.8586
vn -0.1878 0.3756 0.9076
vn -0.1878 -0.9076 -0.3755
vn -0.3702 -0.3545 -0.8586
vn -0.1878 -0.3756 -0.9076
vn -0.1878 0.9076 0.3756
vn 0.1878 0.3756 0.9076
vn -1.0000 -0.0000 -0.0000
vn 1.0000 -0.0000 -0.0000
vn 0.3703 -0.3545 0.8586
vn 0.1878 -0.9076 0.3756
vn 0.3703 -0.8586 0.3545
vn 0.1878 -0.9076 -0.3756
vn 0.3702 -0.8586 -0.3545
vn 0.1878 -0.3756 -0.9076
vn 0.3702 -0.3545 -0.8586
vn 0.3702 0.3545 -0.8586
vn 0.1878 0.9076 -0.3755
vn 0.3702 0.8586 -0.3545
vn 0.1878 0.9076 0.3756
vn 0.3703 0.8586 0.3545
vn 0.3702 0.3545 0.8586
vn 0.1877 -0.3756 0.9076
vn -0.1877 -0.9076 0.3755
vn 0.1877 -0.9076 0.3755
vn -0.1877 -0.9076 -0.3756
vn 0.1877 -0.9076 -0.3756
vn 0.1877 -0.3756 -0.9076
vn -0.3703 0.8586 0.3545
vn -0.1878 0.9076 -0.3756
vn -0.3702 0.8586 -0.3545
vn -0.1878 0.3755 -0.9076
vn -0.3702 0.3545 -0.8586
vn -0.1878 -0.3755 -0.9076
vn -0.3702 -0.3544 -0.8587
vn -0.3703 -0.8586 -0.3545
vn -0.1878 -0.9076 0.3756
vn -0.3703 -0.8586 0.3545
vn -0.1878 -0.3755 0.9076
vn -0.3703 -0.3545 0.8586
vn -0.1878 0.3755 0.9076
vn -0.3702 0.3544 0.8587
vn 0.1877 0.9076 -0.3756
vn -0.1877 0.9076 -0.3756
vn 0.1877 0.3756 -0.9076
vn -0.1877 0.3756 -0.9076
vn 0.1877 -0.3755 -0.9076
vn -0.1877 -0.3755 -0.9076
vt 0.027588 0.414062
vt 0.160034 0.318085
vt 0.027588 0.318085
vt 0.027588 0.702972
vt 0.160034 0.798798
vt 0.027588 0.798798
vt 0.160034 0.414062
vt 0.005493 0.318085
vt 0.027588 0.510345
vt 0.027588 0.606842
vt 0.160034 0.702972
vt 0.160034 0.510345
vt 0.005493 0.414062
vt 0.311096 0.395081
vt 0.328278 0.481079
vt 0.346405 0.395081
vt 0.277435 0.481079
vt 0.277435 0.578674
vt 0.328278 0.578674
vt 0.311096 0.682037
vt 0.346405 0.682037
vt 0.378662 0.578674
vt 0.378662 0.481079
vt 0.160034 0.606842
vt 0.005493 0.510345
vt 0.005493 0.606842
vt 0.005493 0.702972
vt 0.005493 0.798798
s 1
usemtl cat04
f 1/1/1 2/2/2 3/3/3
f 4/4/4 5/5/5 6/6/6
f 7/7/7 8/8/8 9/2/9
f 10/9/10 11/7/11 12/1/12
f 13/10/13 14/11/14 15/4/15
f 16/12/16 17/7/12 18/13/17
f 19/14/18 20/15/18 21/16/18
f 19/14/18 22/17/18 20/15/18
f 20/15/18 22/17/18 23/18/18
f 20/15/18 23/18/18 24/19/18
f 24/19/18 23/18/18 25/20/18
f 26/16/19 27/15/19 28/14/19
f 29/21/19 30/19/19 31/22/19
f 31/22/19 30/19/19 27/15/19
f 31/22/19 27/15/19 32/23/19
f 32/23/19 27/15/19 26/16/19
f 2/2/2 1/1/1 33/7/20
f 33/7/20 1/1/1 34/9/21
f 33/7/20 34/9/21 35/12/22
f 35/12/22 34/9/21 36/10/23
f 35/12/22 36/10/23 37/24/24
f 37/24/24 36/10/23 38/4/25
f 37/24/24 38/4/25 39/11/26
f 5/5/5 4/4/4 40/11/27
f 40/11/27 4/4/4 41/10/28
f 40/11/27 41/10/28 42/24/29
f 42/24/29 41/10/28 43/9/30
f 42/24/29 43/9/30 44/12/31
f 44/12/31 43/9/30 45/1/17
f 44/12/31 45/1/17 46/7/32
f 8/8/8 7/7/7 47/13/33
f 47/13/33 7/7/7 48/12/34
f 47/13/33 48/12/34 49/25/35
f 49/25/35 48/12/34 50/24/36
f 49/25/35 50/24/36 51/26/37
f 51/26/37 50/24/36 52/11/15
f 51/26/37 52/11/15 53/27/38
f 11/7/11 10/9/10 54/12/39
f 54/12/39 10/9/10 55/10/40
f 54/12/39 55/10/40 56/24/41
f 56/24/41 55/10/40 57/4/42
f 56/24/41 57/4/42 58/11/43
f 58/11/43 57/4/42 59/6/44
f 58/11/43 59/6/44 60/5/45
f 14/11/14 13/10/13 61/24/46
f 61/24/46 13/10/13 62/9/47
f 61/24/46 62/9/47 63/12/48
f 63/12/48 62/9/47 64/1/49
f 63/12/48 64/1/49 65/7/50
f 65/7/50 64/1/49 66/3/51
f 65/7/50 66/3/51 67/2/52
f 18/13/17 68/25/30 16/12/16
f 16/12/16 68/25/30 69/26/53
f 16/12/16 69/26/53 70/24/54
f 70/24/54 69/26/53 71/27/55
f 70/24/54 71/27/55 72/11/56
f 72/11/56 71/27/55 73/28/57
f 72/11/56 73/28/57 74/5/58
f 25/20/18 75/21/18 24/19/18
f 24/19/18 75/21/18 76/22/18
f 24/19/18 76/22/18 20/15/18
f 20/15/18 76/22/18 77/23/18
f 20/15/18 77/23/18 21/16/18
f 29/21/19 78/20/19 30/19/19
f 30/19/19 78/20/19 79/18/19
f 30/19/19 79/18/19 27/15/19
f 27/15/19 79/18/19 80/17/19
f 27/15/19 80/17/19 28/14/19
o cat_00-0001-115
v -42.732792 20.292429 31.948902
v -42.732792 20.292429 16.189192
v -44.996479 18.169170 31.948902
v -44.679218 18.169170 16.189192
v -42.732792 16.045910 31.948902
v -42.732792 16.045910 16.189192
v -40.471966 18.169170 31.948902
v -40.789223 18.169170 16.189192
vn -0.0000 1.0000 -0.0079
vn -1.0000 -0.0000 -0.0079
vn -0.0000 -1.0000 -0.0079
vn 1.0000 -0.0000 -0.0079
vt 0.303925 0.753998
vt 0.303925 0.995850
vt 0.358765 0.753998
vt 0.358765 0.995850
vt 0.253357 0.753998
vt 0.253357 0.995850
s 1
usemtl cat00
f 81/29/59 82/30/59 83/31/60
f 83/31/60 82/30/59 84/32/60
f 83/31/60 84/32/60 85/29/61
f 85/29/61 84/32/60 86/30/61
f 85/29/61 86/30/61 87/33/62
f 87/33/62 86/30/61 88/34/62
f 87/33/62 88/34/62 81/29/59
f 81/29/59 88/34/62 82/30/59
o cat_00-0001-116
v -45.256573 18.161749 -17.883276
v -40.211868 18.161749 -17.883276
v -42.732792 15.207729 -17.883276
v -44.184753 18.161751 0.104388
v -42.732792 15.207729 -17.883276
v -42.732792 16.463142 0.104388
v -41.283691 18.161751 0.104388
v -40.829239 18.161753 33.112091
v -42.732792 16.463144 33.112091
v -42.732792 21.117622 -17.883276
v -42.732792 19.860359 33.112091
v -36.933525 19.860361 38.862419
v -40.829239 18.161753 33.112091
v -48.534916 19.860361 38.862419
v -48.534916 19.860365 95.172661
v -36.933525 19.860365 95.172661
v -42.732792 16.463144 33.112091
v -48.534916 16.463146 38.862419
v -44.636345 18.161753 33.112091
v -36.933525 16.463146 38.862419
v -36.933525 16.463150 95.172661
v -48.534916 16.463150 95.172661
v -45.256573 18.161749 -17.883276
v -42.732792 19.860357 0.104387
v -42.732792 21.117622 -17.883276
v -40.211868 18.161749 -17.883276
v -42.732792 19.860359 33.112091
v -44.636345 18.161753 33.112091
vn -0.6199 -0.0000 -0.7847
vn 0.6199 -0.0000 -0.7847
vn -0.0001 -0.8185 -0.5745
vn -0.9997 -0.0000 0.0237
vn -0.0000 -0.8185 -0.5745
vn -0.0000 -0.9997 0.0236
vn 0.9997 -0.0000 0.0236
vn 0.8944 -0.0000 -0.4472
vn -0.0000 -0.9570 -0.2902
vn 0.0001 0.8185 -0.5745
vn -0.0000 0.9570 -0.2902
vn 0.6429 0.7056 -0.2979
vn -0.6429 0.7056 -0.2979
vn -0.5774 0.5773 0.5774
vn 0.5774 0.5774 0.5773
vn -0.6429 -0.7056 -0.2979
vn -0.8944 -0.0000 -0.4473
vn 0.6429 -0.7056 -0.2979
vn 0.5774 -0.5773 0.5774
vn -0.5774 -0.5774 0.5773
vn -0.6199 -0.0001 -0.7847
vn -0.0000 0.9997 0.0236
vn -0.0000 0.8185 -0.5745
vn -0.8944 -0.0000 -0.4472
vt 0.192291 0.996002
vt 0.150116 0.954437
vt 0.192291 0.954437
vt 0.246033 0.918396
vt 0.223083 0.995483
vt 0.223083 0.918396
vt 0.200165 0.918396
vt 0.200165 0.776978
vt 0.223083 0.776978
vt 0.150116 0.996002
vt 0.200134 0.887726
vt 0.204315 0.782288
vt 0.200134 0.861359
vt 0.204315 0.993164
vt 0.245819 0.993164
vt 0.245819 0.782288
vt 0.200134 0.914093
vt 0.246033 0.995483
vt 0.200165 0.995483
vt 0.246033 0.776978
s 1
usemtl cat00
f 89/35/63 90/36/64 91/37/65
f 92/38/66 93/39/67 94/40/68
f 95/41/69 96/42/70 97/43/71
f 90/36/64 89/35/63 98/44/72
f 99/45/73 100/46/74 101/47/70
f 99/45/73 102/48/75 100/46/74
f 100/46/74 102/48/75 103/49/76
f 100/46/74 103/49/76 104/50/77
f 105/45/71 106/48/78 107/51/79
f 105/45/71 108/46/80 106/48/78
f 106/48/78 108/46/80 109/50/81
f 106/48/78 109/50/81 110/49/82
f 93/39/67 92/38/66 111/52/83
f 111/52/83 92/38/66 112/40/84
f 111/52/83 112/40/84 113/39/85
f 113/39/85 112/40/84 95/41/69
f 113/39/85 95/41/69 114/53/64
f 105/45/71 101/47/70 108/46/80
f 108/46/80 101/47/70 100/46/74
f 108/46/80 100/46/74 109/50/81
f 109/50/81 100/46/74 104/50/77
f 109/50/81 104/50/77 110/49/82
f 110/49/82 104/50/77 103/49/76
f 110/49/82 103/49/76 106/48/78
f 106/48/78 103/49/76 102/48/75
f 106/48/78 102/48/75 107/51/79
f 107/51/79 102/48/75 99/45/73
f 96/42/70 95/41/69 115/43/73
f 115/43/73 95/41/69 112/40/84
f 115/43/73 112/40/84 116/54/86
f 116/54/86 112/40/84 92/38/66
f 116/54/86 92/38/66 97/43/71
f 97/43/71 92/38/66 94/40/68
f 97/43/71 94/40/68 95/41/69
f 95/41/69 94/40/68 93/39/67
f 95/41/69 93/39/67 114/53/64
