mtllib cat_weapon7.mtl
o cat_00-0001-117
v -47.254448 17.471926 14.847053
v -41.869617 17.471926 14.847053
v -45.676727 13.664891 14.847053
v -34.178230 19.194639 16.520254
v -35.844555 19.967913 14.847052
v -35.844555 19.967913 16.520254
v -34.172516 17.471931 91.957489
v -32.877754 16.522490 89.950241
v -31.843090 17.471931 93.132607
v -42.950012 19.001783 19.965080
v -45.711025 17.471926 15.795499
v -45.716743 17.471926 19.920341
v -41.040745 16.405661 39.002598
v -41.560932 16.405659 17.456770
v -41.160789 16.702358 17.468700
v -42.950012 16.466852 17.423962
v -42.206886 16.466854 39.068214
v -39.840305 16.466856 63.519028
v -33.143566 17.471930 85.652412
v -33.609451 18.642038 85.715042
v -32.877754 18.423225 89.950241
v -33.726639 18.462166 89.297066
v -35.664490 18.445475 85.983475
v -35.195747 18.473291 87.146660
v -34.535503 18.486271 88.285988
v -38.739902 15.858615 -15.774623
v -38.496956 15.858615 -18.402237
v -37.036419 17.471922 -18.268023
v -39.883179 17.471922 -19.371559
v -42.884277 17.471922 -18.804878
v -41.420883 15.858615 -18.670666
v -43.124363 17.471922 -16.177265
v -41.660973 15.858615 -16.043053
v -37.276508 17.471922 -15.640409
v -41.660973 19.087082 -16.043053
v -38.739902 19.087082 -15.774624
v -41.420883 19.087082 -18.670666
v -38.496956 19.087082 -18.402237
v -33.609451 16.303671 85.715042
v -38.508389 16.374138 63.888863
v -38.173981 16.344467 63.325161
v -38.574127 16.702362 63.369900
v -40.240452 16.344465 38.960842
v -38.508389 18.569719 63.888863
v -38.971413 18.538195 63.417622
v -39.840305 18.476999 63.519028
v -42.206886 18.476997 39.068214
v -42.950012 15.942065 19.965080
v -39.688820 15.799278 20.015783
v -42.318356 17.471926 19.974028
v -38.939976 17.471926 20.027714
v -39.688820 19.146425 20.015783
v -42.950012 19.001783 19.965080
v -45.716743 17.471926 19.920341
v -39.966064 12.876782 16.520254
v -39.966064 12.876782 14.847053
v -39.374420 11.447059 16.520256
v -39.374420 11.447059 14.847053
v -37.648071 10.814717 16.520256
v -39.374420 11.447059 16.520256
v -37.648071 10.814717 16.520256
v -39.966064 12.876782 16.520254
v -37.648071 10.814717 14.847053
v -39.374420 11.447059 14.847053
v -39.966064 12.876782 14.847053
v -33.332207 17.471926 16.520254
v -36.484791 17.471926 16.520254
v -34.178230 15.749209 16.520254
v -37.273651 15.569335 16.520254
v -35.844555 14.975935 16.520254
v -35.212894 13.251366 16.520254
v -45.676727 13.664891 14.847053
v -41.869617 12.088673 14.847053
v -41.869617 12.088673 16.520256
v -39.966064 12.876782 14.847053
v -39.966064 12.876782 16.520254
v -38.062511 21.278957 14.847052
v -37.648071 24.129131 14.847052
v -35.833122 23.507915 14.847052
v -37.273651 19.376368 14.847052
v -45.676727 21.278957 14.847052
v -41.869617 22.855175 16.520254
v -45.676727 21.278957 16.520254
v -41.869617 17.471926 16.520254
v -47.254448 17.471926 16.520254
v -45.676727 13.664891 16.520254
v -39.966064 22.067066 14.847052
v -39.966064 22.067066 16.520254
v -39.374420 23.496788 14.847052
v -39.374420 23.496788 16.520254
v -37.648071 24.129131 14.847052
v -39.966064 22.067066 16.520254
v -38.062511 21.278957 16.520254
v -39.374420 23.496788 16.520254
v -37.648071 24.129131 16.520254
v -35.844555 19.967913 16.520254
v -35.212894 21.694338 16.520254
v -35.833122 23.507915 16.520254
v -45.676727 21.278957 16.520254
v -41.869617 22.855175 16.520254
v -41.869617 22.855175 14.847052
v -39.966064 22.067066 16.520254
v -39.966064 22.067066 14.847052
v -35.844555 19.967913 14.847052
v -34.178230 19.194639 14.847052
v -36.484791 17.471926 14.847053
v -31.843090 17.471931 93.132607
v -32.877754 16.522490 89.950241
v -33.726639 16.483549 89.297066
v -34.535503 16.459440 88.285988
v -45.468079 17.471926 17.361328
v -44.739243 17.471928 39.205410
v -42.221176 17.471930 63.796402
v -38.122532 17.471930 86.308571
v -41.040745 18.538193 39.002598
v -38.574127 18.241493 63.369900
v -40.640598 18.241491 38.981720
v -38.173981 18.601242 63.325161
v -40.240452 18.601240 38.960842
v -37.159321 18.642038 63.205860
v -39.257233 18.642036 38.907158
v -36.633415 17.471928 63.146210
v -38.691311 17.471928 38.877331
v -37.159321 16.303671 63.205860
v -39.257233 16.303669 38.907158
v -40.760639 16.344463 17.477648
v -40.640598 16.702360 38.981720
v -38.971413 16.405663 63.417622
v -35.664490 16.500237 85.983475
v -35.195747 16.472420 87.146660
v -37.648071 10.814717 14.847053
v -35.833122 11.435932 14.847053
v -35.833122 11.435932 16.520256
v -35.212894 13.251366 14.847053
v -35.212894 13.251366 16.520254
v -35.844555 14.975935 14.847053
v -35.844555 14.975935 16.520254
v -41.869617 12.088673 16.520256
v -38.062511 13.664891 16.520254
v -35.833122 11.435932 16.520256
v -35.833122 11.435932 14.847053
v -38.062511 13.664891 14.847053
v -41.869617 12.088673 14.847053
v -33.332207 17.471926 14.847053
v -34.178230 15.749209 14.847053
v -37.273651 15.569335 14.847053
v -35.844555 14.975935 14.847053
v -35.212894 13.251366 14.847053
v -37.273651 19.376368 16.520254
v -45.676727 13.664891 16.520254
v -47.254448 17.471926 16.520254
v -47.254448 17.471926 14.847053
v -45.676727 21.278957 14.847052
v -37.648071 24.129131 16.520254
v -35.833122 23.507915 16.520254
v -35.833122 23.507915 14.847052
v -35.212894 21.694338 16.520254
v -35.212894 21.694338 14.847052
v -35.844555 19.967913 16.520254
v -35.844555 19.967913 14.847052
v -34.178230 19.194639 14.847052
v -33.332207 17.471926 16.520254
v -33.332207 17.471926 14.847053
v -34.178230 15.749209 16.520254
v -34.178230 15.749209 14.847053
v -35.844555 14.975935 16.520254
v -35.844555 14.975935 14.847053
v -41.869617 22.855175 14.847052
v -39.966064 22.067066 14.847052
v -39.374420 23.496788 14.847052
v -34.178230 19.194639 16.520254
v -35.212894 21.694338 14.847052
v -32.877754 18.423225 89.950241
v -34.172516 17.471931 91.957489
v -33.726639 18.462166 89.297066
v -36.081783 17.471931 90.197792
v -34.535503 18.486271 88.285988
v -37.302231 17.471930 88.363533
v -35.195747 18.473291 87.146660
v -38.122532 17.471930 86.308571
v -42.221176 17.471930 63.796402
v -44.739243 17.471928 39.205410
v -45.468079 17.471926 17.361328
v -42.950012 18.476995 17.423962
v -41.040745 18.538193 39.002598
v -41.560932 18.538191 17.456770
v -41.160789 18.241489 17.468700
v -40.760639 18.601238 17.477648
v -39.808865 18.642035 17.501507
v -39.211502 17.471926 17.516420
v -39.808865 16.303667 17.501507
v -33.726639 16.483549 89.297066
v -36.081783 17.471931 90.197792
v -34.535503 16.459440 88.285988
v -37.302231 17.471930 88.363533
v -35.195747 16.472420 87.146660
v -40.760639 16.344463 17.477648
v -42.944298 19.001783 15.881991
v -39.688820 19.146425 20.015783
v -39.683105 19.146425 15.980415
v -38.939976 17.471926 20.027714
v -38.934258 17.471926 16.004274
v -39.688820 15.799278 20.015783
v -39.683105 15.799277 15.980416
v -42.950012 15.942065 19.965080
v -42.944298 15.942064 15.881992
v -45.711025 17.471926 15.795499
vn -0.6750 -0.0001 -0.7378
vn -0.0000 -0.0000 -1.0000
vn -0.4781 -0.4781 -0.7367
vn 0.4790 0.4869 0.7304
vn 0.5474 0.2269 -0.8055
vn 0.5474 0.2269 0.8055
vn -0.2118 -0.9256 0.3138
vn 0.3616 -0.9275 0.0943
vn 0.9701 -0.0001 0.2426
vn -0.1968 0.6692 0.7165
vn -0.4783 0.8782 -0.0000
vn -0.4473 -0.0001 0.8944
vn 0.2830 -0.9591 -0.0079
vn 0.2902 -0.9570 -0.0000
vn -0.0393 -0.9992 -0.0000
vn -0.2111 -0.9775 -0.0000
vn -0.2127 -0.9771 0.0079
vn -0.2202 -0.9750 0.0315
vn 0.9876 -0.0000 -0.1568
vn 0.1810 0.9835 -0.0079
vn 0.3616 0.9276 0.0943
vn -0.1573 0.9678 0.1967
vn -0.1732 0.9841 0.0394
vn -0.2433 0.9654 0.0942
vn -0.2119 0.9658 0.1492
vn 0.3089 -0.8017 0.5117
vn 0.3694 -0.7546 -0.5423
vn 0.7915 -0.0000 -0.6112
vn 0.0863 -0.0000 -0.9963
vn -0.6668 -0.0000 -0.7452
vn -0.2590 -0.7535 -0.6043
vn -0.6669 -0.0000 0.7452
vn -0.3948 -0.8054 0.4422
vn 0.5180 -0.0005 0.8554
vn -0.3948 0.8053 0.4422
vn 0.3069 0.8026 0.5115
vn -0.2590 0.7535 -0.6043
vn 0.3694 0.7546 -0.5423
vn 0.1810 -0.9835 -0.0078
vn -0.0940 -0.9791 -0.1802
vn -0.3134 -0.9480 -0.0548
vn -0.0785 -0.9583 -0.2749
vn -0.3768 -0.9262 0.0157
vn -0.0940 0.9791 -0.1801
vn 0.1813 0.9772 -0.1103
vn -0.2202 0.9750 0.0315
vn -0.2128 0.9771 0.0079
vn -0.1969 -0.6693 0.7165
vn 0.3217 -0.5414 0.7768
vn -0.0157 -0.0000 0.9999
vn 0.6668 -0.0000 0.7452
vn 0.3217 0.5414 0.7768
vn -0.1969 0.6693 0.7165
vn -0.4472 -0.0000 0.8944
vn -0.1575 -0.3938 0.9056
vn -0.1575 -0.3938 -0.9056
vn -0.6048 -0.6362 0.4791
vn -0.6048 -0.6362 -0.4791
vn -0.0000 -0.6831 0.7303
vn -0.6048 -0.6361 0.4791
vn -0.0000 -0.6832 0.7303
vn -0.1575 -0.3937 0.9056
vn -0.0000 -0.6832 -0.7303
vn -0.1575 -0.3937 -0.9056
vn -0.0000 -0.0000 1.0000
vn 0.4791 -0.4870 0.7303
vn 0.5475 -0.2268 0.8055
vn 0.6832 -0.0001 0.7303
vn -0.4781 -0.4781 -0.7368
vn -0.0000 -0.6750 -0.7379
vn -0.0000 -0.6750 0.7379
vn -0.1576 -0.3938 0.9056
vn -0.0000 0.6832 -0.7303
vn 0.4710 0.4711 -0.7458
vn -0.4781 0.4781 -0.7367
vn 0.0001 0.6750 0.7378
vn -0.4781 0.4781 0.7367
vn -0.6750 0.0001 0.7378
vn -0.4781 -0.4781 0.7367
vn -0.1575 0.3938 -0.9056
vn -0.1575 0.3938 0.9056
vn -0.6048 0.6362 -0.4791
vn -0.6048 0.6362 0.4791
vn -0.0000 0.6831 -0.7303
vn -0.1575 0.3937 0.9056
vn -0.0000 0.6832 0.7303
vn 0.5475 0.2268 0.8055
vn 0.4711 0.4710 0.7458
vn -0.4781 0.4781 0.7368
vn -0.0000 0.6750 0.7379
vn -0.0000 0.6750 -0.7379
vn -0.1576 0.3938 -0.9056
vn 0.5475 0.2268 -0.8055
vn 0.4791 0.4870 -0.7303
vn 0.9702 -0.0000 0.2425
vn 0.3616 -0.9276 0.0943
vn -0.1573 -0.9678 0.1967
vn -0.2120 -0.9658 0.1492
vn -0.3700 -0.9290 0.0079
vn -0.3699 -0.9288 0.0236
vn -0.3696 -0.9280 0.0472
vn -0.3610 -0.9261 0.1098
vn 0.2830 0.9591 -0.0079
vn -0.0785 0.9583 -0.2749
vn -0.0393 0.9992 -0.0000
vn -0.3134 0.9480 -0.0549
vn -0.3768 0.9262 0.0157
vn 0.5204 0.8516 -0.0631
vn 0.5120 0.8586 -0.0236
vn 0.9931 -0.0000 -0.1173
vn 0.9985 0.0001 -0.0552
vn 0.5204 -0.8516 -0.0631
vn 0.5120 -0.8586 -0.0236
vn -0.3768 -0.9263 0.0079
vn 0.1813 -0.9772 -0.1103
vn -0.1732 -0.9841 0.0394
vn -0.2433 -0.9654 0.0942
vn -0.0000 -0.6831 -0.7303
vn 0.4710 -0.4710 -0.7458
vn 0.4710 -0.4710 0.7458
vn 0.6831 -0.0000 -0.7303
vn 0.6831 -0.0000 0.7303
vn 0.5475 -0.2268 -0.8055
vn -0.0001 -0.6750 0.7378
vn 0.4711 -0.4711 0.7458
vn 0.4711 -0.4711 -0.7458
vn 0.0001 -0.6750 -0.7378
vn 0.6668 -0.0000 -0.7452
vn 0.4791 -0.4869 -0.7303
vn 0.6832 -0.0000 -0.7303
vn -0.4781 -0.4781 0.7368
vn -0.6750 -0.0000 0.7378
vn -0.6750 -0.0000 -0.7378
vn -0.4781 0.4781 -0.7368
vn -0.0000 0.6831 0.7303
vn 0.4710 0.4710 0.7458
vn 0.4710 0.4710 -0.7458
vn 0.4790 0.4869 -0.7304
vn 0.6668 -0.0000 0.7453
vn 0.6668 -0.0000 -0.7453
vn 0.4790 -0.4869 0.7304
vn 0.4790 -0.4869 -0.7304
vn 0.5474 -0.2269 0.8055
vn 0.5474 -0.2269 -0.8055
vn -0.0001 0.6750 -0.7378
vn -0.1575 0.3937 -0.9056
vn -0.6048 0.6361 -0.4791
vn 0.4791 0.4869 0.7303
vn 0.6832 0.0001 -0.7303
vn 0.9701 0.0001 0.2426
vn 0.3616 0.9275 0.0943
vn -0.2118 0.9256 0.3137
vn -0.1574 0.9677 0.1967
vn -0.2990 0.9205 0.2518
vn -0.2120 0.9658 0.1492
vn -0.3368 0.9242 0.1801
vn -0.3610 0.9261 0.1099
vn -0.3696 0.9280 0.0472
vn -0.3699 0.9288 0.0236
vn -0.3700 0.9290 0.0079
vn -0.2111 0.9775 -0.0000
vn 0.2831 0.9591 -0.0079
vn 0.2902 0.9570 -0.0000
vn -0.3768 0.9263 0.0079
vn 0.5087 0.8609 -0.0078
vn 0.9997 -0.0000 -0.0236
vn 0.5087 -0.8609 -0.0078
vn -0.1574 -0.9677 0.1967
vn -0.2990 -0.9205 0.2518
vn -0.3368 -0.9242 0.1801
vn -0.3767 -0.9263 0.0079
vn -0.2112 0.9775 -0.0000
vn -0.2665 0.9638 -0.0000
vn 0.5272 0.8498 -0.0000
vn 1.0000 -0.0000 -0.0000
vn 0.5272 -0.8498 -0.0000
vn -0.1968 -0.6692 0.7165
vn -0.2665 -0.9638 -0.0001
vn -0.4783 -0.8782 -0.0000
vt 0.338531 0.496246
vt 0.263245 0.496246
vt 0.316467 0.440582
vt 0.058228 0.480133
vt 0.111389 0.471497
vt 0.111389 0.480133
vt 0.244415 0.022980
vt 0.291138 0.085266
vt 0.287231 0.003540
vt 0.084015 0.483246
vt 0.119019 0.469421
vt 0.119019 0.483246
vt 0.256104 0.312500
vt 0.256104 0.386810
vt 0.267761 0.386810
vt 0.228851 0.386810
vt 0.228851 0.312500
vt 0.228851 0.230682
vt 0.314484 0.151459
vt 0.298920 0.151459
vt 0.298920 0.093079
vt 0.283356 0.104736
vt 0.228851 0.151459
vt 0.252197 0.131989
vt 0.267761 0.116425
vt 0.037262 0.435425
vt 0.037262 0.486053
vt 0.002228 0.486053
vt 0.060608 0.509399
vt 0.119019 0.486053
vt 0.083984 0.486053
vt 0.119019 0.435425
vt 0.083984 0.435425
vt 0.002228 0.435425
vt 0.267761 0.219025
vt 0.279449 0.230682
vt 0.267761 0.230682
vt 0.279449 0.312500
vt 0.256104 0.230682
vt 0.052826 0.487488
vt 0.102997 0.487488
vt 0.073730 0.510162
vt 0.119720 0.487488
vt 0.002686 0.487488
vt 0.103577 0.480133
vt 0.103577 0.471497
vt 0.081543 0.480133
vt 0.228333 0.408173
vt 0.204193 0.398926
vt 0.236633 0.429077
vt 0.143860 0.496246
vt 0.187958 0.496246
vt 0.155670 0.471069
vt 0.198975 0.468414
vt 0.178986 0.459747
vt 0.170135 0.434540
vt 0.058228 0.471497
vt 0.017395 0.471497
vt 0.017395 0.480133
vt 0.209991 0.440582
vt 0.178833 0.407990
vt 0.263245 0.417542
vt 0.081543 0.471497
vt 0.314484 0.050232
vt 0.174347 0.386810
vt 0.174347 0.312500
vt 0.174347 0.230682
vt 0.174347 0.151459
vt 0.267761 0.312500
vt 0.298920 0.230682
vt 0.298920 0.312500
vt 0.314484 0.230682
vt 0.314484 0.312500
vt 0.279449 0.386810
vt 0.030884 0.471497
vt 0.030945 0.480133
vt 0.002686 0.471497
vt 0.002686 0.480133
vt 0.275574 0.096954
vt 0.209381 0.054138
vt 0.259979 0.112518
vt 0.182129 0.096954
vt 0.244415 0.128113
vt 0.298920 0.386810
vt 0.314484 0.386810
vt 0.084015 0.469421
vt 0.037109 0.483246
vt 0.037109 0.469421
vt 0.002136 0.483246
vt 0.002136 0.469421
s 1
usemtl cat00
f 1/1/1 2/2/2 3/3/3
f 4/4/4 5/5/5 6/6/6
f 7/7/7 8/8/8 9/9/9
f 10/10/10 11/11/11 12/12/12
f 13/13/13 14/14/14 15/15/15
f 16/16/16 14/14/14 17/17/17
f 17/17/17 14/14/14 13/13/13
f 17/17/17 13/13/13 18/18/18
f 19/19/19 20/20/20 21/21/21
f 21/21/21 20/20/20 22/22/22
f 23/23/23 24/24/24 20/20/20
f 20/20/20 24/24/24 25/25/25
f 20/20/20 25/25/25 22/22/22
f 26/26/26 27/27/27 28/28/28
f 28/28/28 27/27/27 29/29/29
f 30/30/30 31/31/31 32/32/32
f 32/32/32 31/31/31 33/33/33
f 32/32/32 33/33/33 34/34/34
f 35/33/35 36/26/36 37/31/37
f 37/31/37 36/26/36 38/27/38
f 39/20/39 40/35/40 41/36/41
f 41/36/41 40/35/40 42/37/42
f 41/36/41 42/37/42 43/38/43
f 20/20/20 44/35/44 23/23/23
f 23/23/23 44/35/44 45/39/45
f 23/23/23 45/39/45 46/18/46
f 46/18/46 45/39/45 47/17/47
f 48/40/48 49/41/49 50/42/50
f 50/42/50 49/41/49 51/43/51
f 50/42/50 51/43/51 52/41/52
f 52/41/52 53/40/53 50/42/50
f 50/42/50 53/40/53 54/44/54
f 50/42/50 54/44/54 48/40/48
f 55/6/55 56/5/56 57/45/57
f 57/45/57 56/5/56 58/46/58
f 57/45/57 58/46/58 59/47/59
f 60/48/60 61/49/61 62/50/62
f 63/49/63 64/48/58 65/50/64
f 66/51/51 67/52/65 68/53/66
f 68/53/66 67/52/65 69/54/65
f 68/53/66 69/54/65 70/55/67
f 70/55/67 69/54/65 71/56/68
f 72/46/69 73/57/70 74/4/71
f 74/4/71 73/57/70 75/58/56
f 74/4/71 75/58/56 76/59/72
f 77/60/2 78/49/73 79/61/74
f 77/60/2 80/54/2 2/2/2
f 2/2/2 1/1/1 81/3/75
f 82/62/76 83/3/77 84/2/65
f 84/2/65 83/3/77 85/1/78
f 84/2/65 85/1/78 86/3/79
f 87/5/80 88/6/81 89/46/82
f 89/46/82 88/6/81 90/45/83
f 89/46/82 90/45/83 91/63/84
f 92/50/85 93/60/65 94/48/83
f 94/48/83 93/60/65 95/49/86
f 96/55/87 97/56/68 93/60/65
f 93/60/65 97/56/68 98/61/88
f 93/60/65 98/61/88 95/49/86
f 99/45/89 100/4/90 101/57/91
f 101/57/91 100/4/90 102/59/81
f 101/57/91 102/59/81 103/58/92
f 104/55/93 105/53/94 106/52/2
f 21/21/21 107/64/95 19/19/19
f 19/19/19 107/64/95 108/21/96
f 19/19/19 108/21/96 39/20/39
f 39/20/39 108/21/96 109/22/97
f 39/20/39 109/22/97 110/25/98
f 111/65/99 16/16/16 112/66/100
f 112/66/100 16/16/16 17/17/17
f 112/66/100 17/17/17 113/67/101
f 113/67/101 17/17/17 18/18/18
f 113/67/101 18/18/18 114/68/102
f 115/13/103 116/37/104 117/69/105
f 117/69/105 116/37/104 118/36/106
f 117/69/105 118/36/106 119/38/107
f 119/38/107 118/36/106 120/70/108
f 119/38/107 120/70/108 121/71/109
f 121/71/109 120/70/108 122/72/110
f 121/71/109 122/72/110 123/73/111
f 123/73/111 122/72/110 124/70/112
f 123/73/111 124/70/112 125/71/113
f 126/74/114 43/38/43 127/69/15
f 127/69/15 43/38/43 42/37/42
f 127/69/15 42/37/42 128/39/115
f 128/39/115 42/37/42 40/35/40
f 128/39/115 40/35/40 129/23/116
f 129/23/116 40/35/40 39/20/39
f 129/23/116 39/20/39 130/24/117
f 130/24/117 39/20/39 110/25/98
f 58/46/58 131/63/118 59/47/59
f 59/47/59 131/63/118 132/75/119
f 59/47/59 132/75/119 133/76/120
f 133/76/120 132/75/119 134/77/121
f 133/76/120 134/77/121 135/78/122
f 135/78/122 134/77/121 136/58/123
f 135/78/122 136/58/123 137/59/67
f 86/3/79 138/62/124 84/2/65
f 84/2/65 138/62/124 62/50/62
f 84/2/65 62/50/62 139/60/65
f 139/60/65 62/50/62 61/49/61
f 139/60/65 61/49/61 140/61/125
f 141/61/126 63/49/63 142/60/2
f 142/60/2 63/49/63 65/50/64
f 142/60/2 65/50/64 2/2/2
f 2/2/2 65/50/64 143/62/127
f 2/2/2 143/62/127 3/3/3
f 105/53/94 144/51/128 106/52/2
f 106/52/2 144/51/128 145/53/129
f 106/52/2 145/53/129 146/54/2
f 146/54/2 145/53/129 147/55/123
f 146/54/2 147/55/123 148/56/130
f 140/61/125 71/56/68 139/60/65
f 139/60/65 71/56/68 69/54/65
f 139/60/65 69/54/65 84/2/65
f 84/2/65 69/54/65 67/52/65
f 84/2/65 67/52/65 149/54/65
f 74/4/71 150/45/131 72/46/69
f 72/46/69 150/45/131 151/6/132
f 72/46/69 151/6/132 152/5/133
f 152/5/133 151/6/132 99/45/89
f 152/5/133 99/45/89 153/46/134
f 153/46/134 99/45/89 101/57/91
f 90/45/83 154/47/135 91/63/84
f 91/63/84 154/47/135 155/76/136
f 91/63/84 155/76/136 156/75/137
f 156/75/137 155/76/136 157/78/122
f 156/75/137 157/78/122 158/77/121
f 158/77/121 157/78/122 159/59/87
f 158/77/121 159/59/87 160/58/93
f 5/5/5 4/4/4 161/57/138
f 161/57/138 4/4/4 162/59/139
f 161/57/138 162/59/139 163/58/140
f 163/58/140 162/59/139 164/4/141
f 163/58/140 164/4/141 165/57/142
f 165/57/142 164/4/141 166/6/143
f 165/57/142 166/6/143 167/5/144
f 81/3/75 168/62/145 2/2/2
f 2/2/2 168/62/145 169/50/146
f 2/2/2 169/50/146 77/60/2
f 77/60/2 169/50/146 170/48/147
f 77/60/2 170/48/147 78/49/73
f 66/51/51 171/53/148 67/52/65
f 67/52/65 171/53/148 96/55/87
f 67/52/65 96/55/87 149/54/65
f 149/54/65 96/55/87 93/60/65
f 149/54/65 93/60/65 84/2/65
f 84/2/65 93/60/65 92/50/85
f 84/2/65 92/50/85 82/62/76
f 79/61/74 172/56/149 77/60/2
f 77/60/2 172/56/149 104/55/93
f 77/60/2 104/55/93 80/54/2
f 80/54/2 104/55/93 106/52/2
f 80/54/2 106/52/2 2/2/2
f 2/2/2 106/52/2 146/54/2
f 2/2/2 146/54/2 142/60/2
f 142/60/2 146/54/2 148/56/130
f 142/60/2 148/56/130 141/61/126
f 9/9/150 173/8/151 174/7/152
f 174/7/152 173/8/151 175/79/153
f 174/7/152 175/79/153 176/80/154
f 176/80/154 175/79/153 177/81/155
f 176/80/154 177/81/155 178/82/156
f 178/82/156 177/81/155 179/83/24
f 178/82/156 179/83/24 180/68/157
f 180/68/157 179/83/24 23/23/23
f 180/68/157 23/23/23 181/67/158
f 181/67/158 23/23/23 46/18/46
f 181/67/158 46/18/46 182/66/159
f 182/66/159 46/18/46 47/17/47
f 182/66/159 47/17/47 183/65/160
f 30/30/30 29/29/29 31/31/31
f 31/31/31 29/29/29 27/27/27
f 31/31/31 27/27/27 33/33/33
f 33/33/33 27/27/27 26/26/26
f 33/33/33 26/26/26 34/34/34
f 34/34/34 26/26/26 28/28/28
f 34/34/34 28/28/28 38/27/38
f 38/27/38 28/28/28 29/29/29
f 38/27/38 29/29/29 37/31/37
f 37/31/37 29/29/29 30/30/30
f 37/31/37 30/30/30 35/33/35
f 35/33/35 30/30/30 32/32/32
f 35/33/35 32/32/32 36/26/36
f 36/26/36 32/32/32 34/34/34
f 36/26/36 34/34/34 38/27/38
f 184/16/161 185/13/162 186/14/163
f 186/14/163 185/13/162 117/69/105
f 186/14/163 117/69/105 187/15/105
f 187/15/105 117/69/105 119/38/107
f 187/15/105 119/38/107 188/74/164
f 188/74/164 119/38/107 121/71/109
f 188/74/164 121/71/109 189/84/165
f 189/84/165 121/71/109 123/73/111
f 189/84/165 123/73/111 190/85/166
f 190/85/166 123/73/111 125/71/113
f 190/85/166 125/71/113 191/84/167
f 8/8/8 7/7/7 192/79/168
f 192/79/168 7/7/7 193/80/169
f 192/79/168 193/80/169 194/81/98
f 194/81/98 193/80/169 195/82/170
f 194/81/98 195/82/170 196/83/117
f 196/83/117 195/82/170 114/68/102
f 196/83/117 114/68/102 129/23/116
f 129/23/116 114/68/102 18/18/18
f 129/23/116 18/18/18 128/39/115
f 128/39/115 18/18/18 13/13/13
f 128/39/115 13/13/13 127/69/15
f 127/69/15 13/13/13 15/15/15
f 127/69/15 15/15/15 126/74/114
f 197/74/171 191/84/167 43/38/43
f 43/38/43 191/84/167 125/71/113
f 43/38/43 125/71/113 41/36/41
f 41/36/41 125/71/113 124/70/112
f 41/36/41 124/70/112 39/20/39
f 39/20/39 124/70/112 122/72/110
f 39/20/39 122/72/110 19/19/19
f 19/19/19 122/72/110 120/70/108
f 19/19/19 120/70/108 20/20/20
f 20/20/20 120/70/108 118/36/106
f 20/20/20 118/36/106 44/35/44
f 44/35/44 118/36/106 116/37/104
f 44/35/44 116/37/104 45/39/45
f 45/39/45 116/37/104 115/13/103
f 45/39/45 115/13/103 47/17/47
f 47/17/47 115/13/103 184/16/172
f 47/17/47 184/16/172 183/65/160
f 11/11/11 10/10/10 198/86/173
f 198/86/173 10/10/10 199/87/52
f 198/86/173 199/87/52 200/88/174
f 200/88/174 199/87/52 201/89/139
f 200/88/174 201/89/139 202/90/175
f 202/90/175 201/89/139 203/87/49
f 202/90/175 203/87/49 204/88/176
f 204/88/176 203/87/49 205/10/177
f 204/88/176 205/10/177 206/86/178
f 206/86/178 205/10/177 12/12/54
f 206/86/178 12/12/54 207/11/179
o cat_00-0001-118
v -40.663464 15.778879 13.066480
v -40.200436 15.979151 -0.214743
v -39.125755 17.471926 13.129114
v -38.845654 17.471924 -0.104390
v -40.663464 19.166822 13.066479
v -40.200436 18.966549 -0.214743
v -43.733158 19.166822 12.944195
v -42.904282 18.966549 -0.432468
v -45.268005 17.471926 12.881563
v -44.259064 17.471924 -0.542822
v -43.733158 15.778879 12.944196
v -42.904282 15.979151 -0.432468
v -43.896076 15.630529 15.646372
v -45.445213 17.471926 15.595669
v -43.896076 19.313318 15.646371
v -40.557709 19.313318 15.750760
v -38.988564 17.471926 15.798482
v -40.557709 15.630529 15.750761
v -41.418026 15.981004 -17.468704
v -42.769947 17.471922 -17.590986
v -41.418026 18.962837 -17.468704
v -38.719894 18.962837 -17.218170
v -37.367970 17.471922 -17.095886
v -38.719894 15.981004 -17.218170
vn 0.4089 -0.9123 -0.0236
vn 0.3995 -0.9166 0.0157
vn 0.9997 -0.0000 -0.0236
vn 0.9989 -0.0000 0.0472
vn 0.4089 0.9123 -0.0236
vn 0.3995 0.9166 0.0157
vn -0.4086 0.9115 -0.0472
vn -0.3994 0.9162 -0.0313
vn -0.9969 -0.0000 -0.0785
vn -0.4086 -0.9115 -0.0472
vn -0.3994 -0.9162 -0.0313
vn -0.4083 -0.9107 -0.0628
vn -0.9963 -0.0000 -0.0863
vn -0.4082 0.9107 -0.0628
vn 0.4084 0.9111 -0.0550
vn 0.9980 -0.0000 -0.0629
vn 0.4084 -0.9111 -0.0550
vn -0.9963 -0.0000 -0.0865
vn 0.3994 0.9162 0.0313
vn 0.9963 -0.0000 0.0863
vn 0.3994 -0.9162 0.0314
vt 0.450836 0.689331
vt 0.450836 0.809998
vt 0.474182 0.689331
vt 0.474182 0.809998
vt 0.419708 0.689331
vt 0.419708 0.809998
vt 0.396332 0.689331
vt 0.396332 0.809998
vt 0.419708 0.654297
vt 0.396332 0.654297
vt 0.450836 0.654297
vt 0.474182 0.654297
vt 0.419708 0.996857
vt 0.396332 0.996857
vt 0.450836 0.996857
vt 0.474182 0.996857
s 1
usemtl cat00
f 208/91/180 209/92/181 210/93/182
f 210/93/182 209/92/181 211/94/183
f 210/93/182 211/94/183 212/91/184
f 212/91/184 211/94/183 213/92/185
f 212/91/184 213/92/185 214/95/186
f 214/95/186 213/92/185 215/96/187
f 214/95/186 215/96/187 216/97/188
f 216/97/188 215/96/187 217/98/188
f 216/97/188 217/98/188 218/95/189
f 218/95/189 217/98/188 219/96/190
f 218/95/189 219/96/190 208/91/180
f 208/91/180 219/96/190 209/92/181
f 218/95/189 220/99/191 216/97/188
f 216/97/188 220/99/191 221/100/192
f 216/97/188 221/100/192 214/95/186
f 214/95/186 221/100/192 222/99/193
f 214/95/186 222/99/193 212/91/184
f 212/91/184 222/99/193 223/101/194
f 212/91/184 223/101/194 210/93/182
f 210/93/182 223/101/194 224/102/195
f 210/93/182 224/102/195 208/91/180
f 208/91/180 224/102/195 225/101/196
f 208/91/180 225/101/196 218/95/189
f 218/95/189 225/101/196 220/99/191
f 226/103/190 217/98/188 227/104/197
f 227/104/197 217/98/188 215/96/187
f 227/104/197 215/96/187 228/103/187
f 228/103/187 215/96/187 213/92/185
f 228/103/187 213/92/185 229/105/198
f 229/105/198 213/92/185 211/94/183
f 229/105/198 211/94/183 230/106/199
f 230/106/199 211/94/183 209/92/181
f 230/106/199 209/92/181 231/105/200
f 231/105/200 209/92/181 219/96/190
f 231/105/200 219/96/190 226/103/190
f 226/103/190 219/96/190 217/98/188
