mtllib cat_weapon3.mtl
o cat_00-0001-108
v -51.816116 15.786303 92.067841
v -37.379402 18.274874 92.861198
v -51.967602 18.274874 93.612793
v -38.774200 18.334211 61.908459
v -25.246387 17.405169 61.213528
v -37.024986 18.334213 64.115532
v -35.553020 16.060749 77.271492
v -31.162842 16.576265 74.381416
v -43.533085 18.334211 60.133850
v -41.846752 21.844536 -42.996208
v -40.537701 20.778271 -15.136362
v -38.902817 18.334204 -47.389481
v -50.092628 15.079782 56.510071
v -42.364086 18.334209 30.451670
v -46.119747 18.334211 55.880756
v -44.479145 15.886434 29.941658
v -39.348694 18.334208 7.450368
v -41.100765 18.334204 -53.688595
v -41.846752 14.822017 -42.996208
v -44.204762 14.351006 -48.856888
v -34.404030 13.637081 74.142815
v -33.683765 14.862823 80.758072
v -36.050346 15.426553 80.048233
v -34.812748 18.428785 87.498596
v -45.336601 18.395407 69.910599
v -44.979328 17.178936 67.861595
v -37.468006 13.846624 70.536926
v -39.871742 14.030207 67.730362
v -35.604465 15.174357 70.465347
v -37.265076 23.213074 70.563774
v -42.295490 18.718067 61.013699
v -45.528103 18.460308 56.253574
v -45.022202 16.659710 58.219063
v -49.089405 14.992627 51.195194
v -49.752506 14.449295 54.604233
v -49.089405 21.966932 51.195194
v -49.752506 22.512117 54.604233
v -45.170830 18.480707 51.833458
v -49.089405 14.992627 51.195194
v -49.752506 14.449295 54.604233
v -53.010841 18.480707 50.559917
v -45.613846 18.480707 55.278286
v -49.752506 14.449295 54.604233
v -49.089405 14.992627 51.195194
v -53.894024 18.480707 53.933163
v -49.752506 22.512117 54.604233
v -49.089405 21.966932 51.195194
v -55.631802 18.334213 67.473869
v -58.438541 18.334213 63.468323
v -66.898788 20.542774 87.743164
v -79.057526 16.487255 78.798546
v -79.209007 18.274872 80.343498
v -88.912560 17.623987 65.135559
v -14.005129 18.334213 68.174759
v -22.628286 20.001295 70.885887
v -22.628286 16.665276 70.885887
v -29.093512 16.561430 72.767860
v -26.538290 20.223822 76.528839
v -26.318209 18.074600 74.285973
v -29.093512 19.897451 72.767860
v -18.961229 20.385151 76.487083
v -18.741150 18.237785 74.244217
v -18.961229 16.322216 76.487083
v -15.294172 16.238770 78.401871
v 0.531623 18.801516 75.058449
v -15.071233 18.250765 76.159004
v -15.294172 20.464890 78.401871
v -58.438541 18.334213 63.468323
v -55.631802 18.334213 67.473869
v -46.920040 18.334213 70.140251
v -37.227921 15.424699 91.316246
v -38.402634 18.334213 69.027763
v -37.227921 21.241875 91.316246
v -38.402634 18.334213 69.027763
v -51.816116 20.880272 92.067841
v -46.920040 18.334213 70.140251
v 7.314107 18.855291 78.395905
v -16.431732 18.274872 88.175636
v -16.280249 15.984720 86.627701
v -25.246387 19.263252 61.213528
v -37.024986 18.334213 64.115532
v -13.842212 14.278697 96.320938
v -17.400658 14.888784 93.517349
v -25.114912 14.156307 97.728691
v -47.591713 18.334213 65.075912
v -25.114912 14.156307 97.728691
v -19.627188 9.983964 96.192688
v -13.842212 14.278697 96.320938
v -26.375374 15.176212 92.703117
v -43.533085 18.334211 60.133850
v -31.162842 20.092161 74.381416
v -47.591713 18.334213 65.075912
v -51.255913 18.334213 63.438499
v -47.591713 18.334213 65.075912
v -50.092628 21.588638 56.510071
v -13.842212 22.387878 96.320938
v -19.627188 26.684465 96.192688
v -25.114912 22.512121 97.728691
v -44.204762 22.317402 -48.856888
v -41.100765 18.334204 -53.688595
v -46.799995 18.334204 -44.869240
v -44.204762 14.351006 -48.856888
v -42.767090 18.334206 -15.005129
v -44.316231 18.334204 -39.476822
v -40.537701 15.890140 -15.136361
v -55.328835 20.865433 61.651958
v -56.609303 18.334211 58.785744
v -54.185558 18.334213 64.905907
v -55.328835 15.801136 61.651958
v -37.387978 13.529527 70.671143
v -39.180061 17.388481 64.876076
v -37.213627 18.298979 64.464493
v -39.154339 19.348557 65.204155
v -36.141808 22.782858 72.007317
v -38.151115 22.901539 70.268501
v -18.163795 18.428785 86.436813
v -16.763283 18.384281 85.097656
v -25.552216 21.579369 80.704384
v -24.548990 20.893251 78.956619
v -32.226086 23.383677 76.669022
v -37.262218 22.871868 70.862022
v -44.733524 19.676781 67.879494
v -32.766285 18.428785 86.776825
v -34.426891 22.771732 79.138557
v -37.536602 21.792624 78.628540
v -41.075043 22.786568 66.388222
v -49.752506 22.512117 54.604233
v -49.089405 21.966932 51.195194
v -54.488525 18.545610 56.334103
v -54.116962 18.506668 53.518589
v -51.533157 14.927725 58.538197
v -50.152653 14.542014 55.764439
v -37.793839 13.624100 70.014984
v -24.314617 15.497019 78.148354
v -25.337851 14.810900 80.564209
v -16.763283 18.384281 85.097656
v -18.163795 18.428785 86.436813
v -66.898788 20.542774 87.743164
v -67.053123 18.274874 89.291100
v -66.898788 16.125652 87.743164
v -67.679070 18.334213 65.418900
v -67.679070 18.334213 65.418900
v -79.057526 20.179316 78.798546
v -88.912560 19.044439 65.135559
v -78.082878 18.334213 64.509232
v -86.300179 18.334211 61.619152
v -93.657158 18.334211 62.725674
v -86.300179 18.334211 61.619152
v -78.082878 18.334213 64.509232
v -13.842212 14.278697 96.320938
v -19.627188 9.983964 96.192688
v -17.400658 14.888784 93.517349
v -22.076656 11.701114 92.622597
v -31.162842 16.576265 74.381416
v -33.137852 13.625954 75.750397
v -43.533085 18.334211 60.133850
v -45.110806 14.690365 62.138111
v -50.092628 15.079782 56.510071
v -25.114912 14.156307 97.728691
v -26.375374 15.176212 92.703117
v -35.553020 16.060749 77.271492
v -47.591713 18.334213 65.075912
v -54.539974 18.334211 57.002190
v -55.328835 20.865433 61.651958
v -50.092628 21.588638 56.510071
v -54.185558 18.334213 64.905907
v -51.255913 18.334213 63.438499
v -55.328835 15.801136 61.651958
v -50.092628 15.079782 56.510071
v -56.609303 18.334211 58.785744
v -54.539974 18.334211 57.002190
v -46.728542 18.334209 29.425678
v -50.092628 21.588638 56.510071
v -44.479145 20.780130 29.941658
v -41.312271 16.094122 7.286330
v -43.395893 18.334208 7.110360
v -41.312271 20.574291 7.286330
v -45.110806 21.976204 62.138111
v -31.162842 20.092161 74.381416
v -33.137852 23.042471 75.750397
v -17.400658 21.779644 93.517349
v -22.076656 24.967314 92.622597
v -13.842212 22.387878 96.320938
v -19.627188 26.684465 96.192688
v -38.902817 18.334204 -47.389481
v -44.204762 22.317402 -48.856888
v -46.799995 18.334204 -44.869240
v -13.842212 22.387878 96.320938
v -25.114912 22.512121 97.728691
v -17.400658 21.779644 93.517349
v -26.375374 21.490360 92.703117
v -35.553020 20.607677 77.271492
v -21.044849 19.541410 64.503265
v -21.044849 17.125160 64.503265
v -22.848368 16.947140 68.446175
v -22.848368 19.721285 68.446175
v 0.308684 19.559956 77.301315
v -16.280249 20.683706 86.627701
v -26.538290 16.160885 76.528839
v -46.119747 18.334211 55.880756
v -35.553020 20.607677 77.271492
v -26.375374 21.490360 92.703117
v -25.114912 22.512121 97.728691
v -38.436932 18.334206 -15.294435
v -41.312271 20.574291 7.286330
v 0.308684 18.159903 77.301315
vn -0.0314 -0.9490 0.3138
vn 0.1337 -0.0079 0.9910
vn -0.1173 -0.0078 0.9931
vn -0.1961 -0.0003 -0.9806
vn 0.0785 -0.8948 -0.4396
vn -0.0940 -0.9954 -0.0157
vn 0.0157 0.9954 0.0941
vn 0.0391 0.9932 0.1095
vn -0.0000 0.9989 0.0472
vn -0.0000 0.9999 0.0157
vn 0.9888 -0.0000 -0.1491
vn 0.0393 -0.9989 -0.0236
vn 0.9899 -0.0000 0.1414
vn 0.9835 -0.0000 -0.1809
vn 0.0158 -0.9996 -0.0236
vn 0.9969 -0.0000 0.0785
vn -0.2758 -0.0000 -0.9612
vn -0.0000 -0.9989 0.0472
vn -0.4794 -0.8408 -0.2514
vn -0.0079 -0.9995 -0.0315
vn -0.1490 -0.9176 0.3686
vn -0.2755 -0.9210 0.2755
vn -0.1809 -0.0000 0.9835
vn -0.8897 0.3306 0.3149
vn -0.9018 -0.4235 0.0863
vn 0.0079 -0.9980 -0.0629
vn 0.4976 -0.7266 -0.4739
vn 0.0156 0.9954 -0.0940
vn 0.8014 0.1022 -0.5893
vn 0.8344 -0.0158 -0.5510
vn 0.7633 -0.5351 -0.3620
vn 0.3150 -0.8896 -0.3307
vn -0.1100 -0.9814 -0.1571
vn -0.2519 0.9605 -0.1181
vn -0.0000 0.9920 -0.1260
vn 0.9975 -0.0000 0.0707
vn 0.3149 -0.8896 -0.3307
vn -0.1099 -0.9815 -0.1570
vn -0.9541 -0.0000 -0.2996
vn 0.6743 -0.7370 0.0470
vn -0.6518 0.7304 -0.2042
vn 0.0235 0.9953 -0.0940
vn -0.0000 0.9956 -0.0941
vn -0.1568 0.9487 0.2744
vn -0.1961 -0.9725 0.1255
vn -0.7564 -0.0079 0.6540
vn -0.5649 -0.6984 0.4394
vn 0.8865 -0.0000 -0.4628
vn 0.2598 0.7321 0.6297
vn 0.2671 -0.7306 0.6284
vn 0.2902 -0.9413 -0.1726
vn 0.1490 0.9176 -0.3686
vn 0.4782 -0.0235 -0.8780
vn 0.3067 0.9360 -0.1730
vn 0.0788 0.9223 -0.3784
vn 0.2351 -0.0235 -0.9717
vn 0.0862 -0.9319 -0.3524
vn 0.1180 -0.9444 -0.3069
vn 0.1644 -0.0235 -0.9861
vn 0.2664 -0.0235 -0.9636
vn 0.0942 0.9421 -0.3219
vn -0.0000 -0.9956 -0.0941
vn 0.0235 -0.9953 -0.0941
vn -0.0000 -0.9940 -0.1096
vn 0.0235 -0.9411 0.3372
vn -0.0865 -0.9910 -0.1022
vn 0.0235 0.9411 0.3373
vn -0.0709 0.9922 -0.1024
vn -0.0391 0.9464 0.3207
vn -0.0000 0.9940 -0.1096
vn 0.7452 -0.0060 0.6668
vn 0.2996 -0.0079 0.9540
vn 0.1488 -0.9239 0.3524
vn 0.0709 0.8984 -0.4334
vn -0.0863 0.9962 -0.0078
vn 0.7480 0.2520 0.6141
vn -0.0000 0.9876 0.1568
vn -0.2599 0.5590 0.7874
vn -0.2598 0.5591 0.7874
vn -0.0078 -0.9790 0.2037
vn 0.7480 0.2519 0.6141
vn -0.0000 0.9910 0.1337
vn 0.0391 -0.9932 0.1095
vn 0.0157 -0.9954 0.0941
vn 0.1491 -0.0000 0.9888
vn -0.4252 0.8031 0.4173
vn 0.0394 0.9989 -0.0236
vn 0.7480 -0.2519 0.6141
vn -0.0079 0.9790 0.2037
vn -0.2598 -0.5591 0.7874
vn -0.4793 0.8408 -0.2515
vn -0.2757 -0.0000 -0.9612
vn -0.9864 -0.0000 -0.1644
vn -0.4793 -0.8408 -0.2515
vn -0.9999 -0.0000 0.0158
vn -0.9702 -0.0000 0.2425
vn -0.0000 -0.9999 0.0157
vn -0.5725 0.7999 0.1803
vn -0.9975 -0.0000 -0.0707
vn -0.5975 -0.0000 0.8019
vn -0.5724 -0.7999 0.1803
vn 0.1415 -0.9747 -0.1729
vn 0.1177 -0.3375 -0.9339
vn 0.2125 0.1337 -0.9680
vn 0.1806 0.6125 -0.7696
vn 0.3852 0.7467 -0.5423
vn 0.5198 0.6459 -0.5592
vn 0.2352 0.9486 0.2117
vn 0.3207 0.9464 0.0391
vn 0.3303 0.9436 -0.0236
vn 0.3771 0.8957 -0.2357
vn 0.0945 0.9918 -0.0866
vn -0.2279 0.9665 0.1179
vn -0.8511 0.5202 0.0710
vn 0.3303 0.0079 0.9438
vn -0.1652 0.9205 0.3540
vn -0.3138 0.9178 0.2432
vn 0.2279 0.9427 -0.2436
vn 0.0001 0.9920 -0.1260
vn -0.9076 0.3756 -0.1878
vn -0.9400 -0.2899 -0.1802
vn -0.5347 -0.8414 -0.0786
vn -0.1643 -0.9699 -0.1799
vn 0.1410 -0.9788 -0.1488
vn 0.3288 -0.9239 -0.1957
vn 0.3068 -0.9517 0.0078
vn 0.3311 -0.9380 0.1025
vn 0.2363 -0.9294 0.2835
vn -0.4472 -0.0078 0.8944
vn -0.1572 -0.9507 0.2672
vn 0.0078 -0.9948 -0.1018
vn 0.0078 0.9948 -0.1018
vn -0.2036 0.9710 0.1253
vn -0.5661 0.6919 0.4481
vn 0.0236 0.9918 -0.1259
vn 0.0235 0.9874 -0.1567
vn -0.7564 -0.0004 0.6541
vn 0.0235 -0.9874 -0.1567
vn 0.0236 -0.9918 -0.1259
vn 0.7479 0.2520 0.6141
vn 0.5341 -0.6284 -0.5656
vn -0.0472 -0.9602 -0.2755
vn 0.5832 -0.6305 -0.5123
vn 0.0079 -0.9939 -0.1096
vn 0.7637 -0.0000 -0.6456
vn 0.0313 -0.9943 -0.1018
vn 0.0394 -0.9989 -0.0236
vn -0.2598 0.5591 0.7873
vn -0.6063 -0.7795 0.1575
vn -0.5651 -0.7456 0.3532
vn -0.4252 -0.8031 0.4173
vn -0.8730 -0.0000 -0.4877
vn -0.5725 0.7998 0.1804
vn 0.0393 0.9989 -0.0236
vn -0.5725 -0.7998 0.1803
vn -0.9975 -0.0000 -0.0706
vn -0.8731 -0.0000 -0.4876
vn -0.9806 -0.0000 -0.1961
vn 0.0158 0.9996 -0.0236
vn 0.0079 -1.0000 -0.0000
vn -0.9963 -0.0000 -0.0863
vn 0.0079 1.0000 -0.0000
vn 0.0313 0.9943 -0.1018
vn 0.5832 0.6305 -0.5123
vn 0.0078 0.9939 -0.1096
vn 0.5341 0.6284 -0.5656
vn -0.0472 0.9602 -0.2754
vn 0.9888 -0.0000 -0.1492
vn -0.4794 0.8408 -0.2515
vn 0.7479 -0.2520 0.6141
vn -0.2599 -0.5590 0.7874
vn -0.0000 -0.9876 0.1568
vn -0.0000 -0.9910 0.1337
vn 0.8124 0.5363 -0.2287
vn 0.8124 -0.5363 -0.2287
vn 0.3055 -0.9164 -0.2585
vn 0.2984 0.9186 -0.2591
vn 0.0626 0.9551 -0.2896
vn 0.1336 0.9196 0.3695
vn 0.1415 -0.9276 -0.3458
vn 0.9835 -0.0000 -0.1810
vn -0.5651 0.7456 0.3532
vn -0.6063 0.7795 0.1575
vn 1.0000 -0.0000 0.0079
vn 0.0943 -0.9590 -0.2673
vt 0.142883 0.226501
vt 0.143188 0.166779
vt 0.157257 0.226501
vt 0.018127 0.197632
vt 0.005096 0.145660
vt 0.025177 0.189240
vt 0.192017 0.922089
vt 0.152130 0.922089
vt 0.152130 0.954529
vt 0.222412 0.824768
vt 0.222412 0.906586
vt 0.199554 0.824768
vt 0.222412 0.785461
vt 0.199554 0.886322
vt 0.199554 0.785461
vt 0.222412 0.886322
vt 0.199554 0.995544
vt 0.199554 0.789490
vt 0.222412 0.789490
vt 0.103638 0.776276
vt 0.052704 0.776367
vt 0.052704 0.801483
vt 0.009979 0.801483
vt 0.165344 0.776276
vt 0.165344 0.801483
vt 0.185028 0.776337
vt 0.172394 0.801483
vt 0.190613 0.801483
vt 0.155151 0.776276
vt 0.189972 0.801483
vt 0.189972 0.776276
vt 0.137024 0.801483
vt 0.137024 0.776367
vt 0.246765 0.777740
vt 0.246765 0.753632
vt 0.198975 0.777679
vt 0.198975 0.753754
vt 0.245636 0.753632
vt 0.245636 0.777740
vt 0.052277 0.259033
vt 0.039185 0.272797
vt 0.138916 0.284241
vt 0.119537 0.332947
vt 0.133911 0.332947
vt 0.068939 0.389801
vt 0.022949 0.097046
vt 0.039886 0.128540
vt 0.050140 0.151306
vt 0.057800 0.140289
vt 0.048431 0.137360
vt 0.052887 0.112396
vt 0.043518 0.109467
vt 0.057373 0.096802
vt 0.031799 0.034119
vt 0.047974 0.093872
vt 0.055725 0.223297
vt 0.128815 0.166779
vt 0.044922 0.191071
vt 0.045441 0.006958
vt 0.109253 0.092560
vt 0.094879 0.092560
vt 0.152130 0.918152
vt 0.152130 0.958557
vt 0.192017 0.918152
vt 0.192017 0.954529
vt 0.153717 0.954071
vt 0.191040 0.954010
vt 0.190948 0.995117
vt 0.192017 0.958557
vt 0.246582 0.786163
vt 0.246582 0.839264
vt 0.222839 0.786377
vt 0.191681 0.951447
vt 0.191681 0.994751
vt 0.152435 0.951447
vt 0.152435 0.994751
vt 0.246826 0.906586
vt 0.246826 0.824768
vt 0.191833 0.954529
vt 0.152069 0.954529
vt 0.191833 0.995087
vt 0.152069 0.995087
vt 0.103638 0.801483
vt 0.151245 0.801483
vt 0.179443 0.776276
vt 0.179443 0.801483
vt 0.190613 0.776367
vt 0.009979 0.776367
vt 0.127441 0.801483
vt 0.056641 0.776367
vt 0.056641 0.801483
vt 0.185089 0.776276
vt 0.185089 0.801483
vt 0.155151 0.801483
vt 0.153290 0.284241
vt 0.053711 0.307251
vt 0.058228 0.348267
vt 0.053558 0.382202
vt 0.063416 0.409943
vt 0.199463 0.801025
vt 0.222839 0.801025
vt 0.199463 0.828583
vt 0.222839 0.828583
vt 0.199463 0.996643
vt 0.222839 0.996643
vt 0.199463 0.839264
vt 0.222839 0.839264
vt 0.246582 0.801025
vt 0.246582 0.828583
vt 0.246582 0.996643
vt 0.199463 0.805908
vt 0.223022 0.840271
vt 0.223022 0.785553
vt 0.246368 0.840271
vt 0.246368 0.805786
vt 0.199585 0.840271
vt 0.246826 0.785461
vt 0.246826 0.886322
vt 0.222412 0.995544
vt 0.246826 0.995544
vt 0.246826 0.789490
vt 0.014374 0.126984
vt 0.030762 0.131134
vt 0.041199 0.037048
vt 0.199463 0.786163
vt 0.199554 0.906586
s 1
usemtl cat00
f 1/1/1 2/2/2 3/3/3
f 4/4/4 5/5/5 6/6/6
f 7/7/7 8/8/7 9/9/8
f 10/10/9 11/11/10 12/12/11
f 13/13/12 14/14/13 15/15/14
f 16/16/15 17/17/16 14/14/13
f 18/18/17 19/10/18 20/19/19
f 21/20/20 22/21/21 23/22/22
f 23/22/22 22/21/21 24/23/23
f 25/24/24 26/25/25 27/26/26
f 27/26/26 26/25/25 28/27/26
f 27/26/26 28/27/26 29/28/27
f 30/20/28 31/29/29 32/30/30
f 32/30/30 31/29/29 33/31/31
f 32/30/30 33/31/31 34/32/32
f 34/32/32 33/31/31 35/33/33
f 36/34/34 37/35/35 38/36/36
f 39/34/37 40/35/38 41/36/39
f 37/35/35 42/37/36 38/36/36
f 38/36/36 42/37/36 43/38/40
f 38/36/36 43/38/40 44/39/40
f 40/35/38 45/37/39 41/36/39
f 41/36/39 45/37/39 46/38/41
f 41/36/39 46/38/41 47/39/41
f 48/40/42 49/41/43 50/42/44
f 51/43/45 52/44/46 53/45/47
f 54/46/48 55/47/49 56/47/50
f 56/47/50 55/47/49 57/48/51
f 58/49/52 59/50/53 60/48/54
f 58/49/52 61/51/55 59/50/53
f 59/50/53 61/51/55 62/52/56
f 59/50/53 62/52/56 63/51/57
f 63/51/57 62/52/56 64/53/58
f 65/54/59 66/55/60 67/53/61
f 68/41/62 69/40/63 1/1/1
f 1/1/1 69/40/63 70/56/64
f 2/2/2 1/1/1 71/57/65
f 71/57/65 1/1/1 70/56/64
f 71/57/65 70/56/64 72/58/66
f 73/57/67 74/58/68 75/1/69
f 75/1/69 74/58/68 76/56/70
f 77/59/71 78/60/72 79/61/73
f 5/5/5 4/4/4 80/5/74
f 80/5/74 4/4/4 81/6/75
f 80/5/74 81/6/75 74/58/68
f 82/62/76 83/63/77 84/64/78
f 85/65/8 7/7/7 9/9/8
f 86/66/79 87/67/80 88/68/81
f 8/8/7 7/7/7 83/63/77
f 83/63/77 7/7/7 89/69/82
f 83/63/77 89/69/82 84/64/78
f 90/9/83 91/8/84 92/65/83
f 93/70/85 94/71/86 95/72/87
f 96/68/88 97/67/89 98/66/90
f 99/73/91 100/74/92 101/75/93
f 101/75/93 100/74/92 102/76/94
f 11/11/10 10/10/9 103/77/95
f 103/77/95 10/10/9 104/78/96
f 103/77/95 104/78/96 105/11/97
f 106/79/98 107/80/99 108/81/100
f 108/81/100 107/80/99 109/82/101
f 23/22/22 110/83/102 21/20/20
f 21/20/20 110/83/102 111/84/103
f 21/20/20 111/84/103 112/85/104
f 112/85/104 111/84/103 113/86/105
f 112/85/104 113/86/105 114/87/106
f 114/87/106 113/86/105 115/28/107
f 116/88/108 117/23/109 118/21/110
f 118/21/110 117/23/109 119/22/111
f 118/21/110 119/22/111 120/20/112
f 120/20/112 119/22/111 121/83/113
f 120/20/112 121/83/113 25/24/24
f 25/24/24 121/83/113 122/89/114
f 25/24/24 122/89/114 26/25/25
f 22/21/21 123/88/115 24/23/23
f 24/23/23 123/88/115 124/90/116
f 24/23/23 124/90/116 125/91/117
f 125/91/117 124/90/116 30/20/28
f 125/91/117 30/20/28 126/83/118
f 126/83/118 30/20/28 32/30/30
f 127/87/119 128/28/34 129/92/120
f 129/92/120 128/28/34 130/93/121
f 129/92/120 130/93/121 131/29/122
f 131/29/122 130/93/121 132/94/123
f 131/29/122 132/94/123 133/20/124
f 133/20/124 132/94/123 134/91/125
f 133/20/124 134/91/125 135/90/126
f 135/90/126 134/91/125 136/23/127
f 135/90/126 136/23/127 137/88/128
f 76/56/70 48/40/42 75/1/69
f 75/1/69 48/40/42 138/42/44
f 75/1/69 138/42/44 139/95/129
f 139/95/129 138/42/44 52/44/46
f 139/95/129 52/44/46 140/42/130
f 140/42/130 52/44/46 51/43/45
f 140/42/130 51/43/45 141/96/131
f 49/41/43 142/96/132 138/42/44
f 138/42/44 142/96/132 143/43/133
f 138/42/44 143/43/133 52/44/46
f 52/44/46 143/43/133 144/45/134
f 52/44/46 144/45/134 53/45/47
f 142/96/132 145/97/135 143/43/133
f 143/43/133 145/97/135 146/98/136
f 143/43/133 146/98/136 144/45/134
f 144/45/134 146/98/136 147/99/137
f 144/45/134 147/99/137 53/45/47
f 53/45/47 147/99/137 148/98/138
f 53/45/47 148/98/138 51/43/45
f 51/43/45 148/98/138 149/97/139
f 51/43/45 149/97/139 141/96/131
f 150/100/140 151/101/80 152/102/141
f 152/102/141 151/101/80 153/103/142
f 152/102/141 153/103/142 154/104/143
f 154/104/143 153/103/142 155/105/144
f 154/104/143 155/105/144 156/106/145
f 156/106/145 155/105/144 157/107/146
f 156/106/145 157/107/146 158/72/147
f 151/101/80 159/108/148 153/103/142
f 153/103/142 159/108/148 160/109/149
f 153/103/142 160/109/149 155/105/144
f 155/105/144 160/109/149 161/110/150
f 155/105/144 161/110/150 157/107/146
f 157/107/146 161/110/150 162/71/151
f 157/107/146 162/71/151 158/72/147
f 158/72/147 162/71/151 93/70/85
f 163/111/152 164/112/153 165/113/154
f 165/113/154 164/112/153 166/114/100
f 165/113/154 166/114/100 167/115/85
f 167/115/85 166/114/100 168/112/155
f 167/115/85 168/112/155 169/113/12
f 169/113/12 168/112/155 170/116/156
f 169/113/12 170/116/156 163/111/152
f 163/111/152 170/116/156 164/112/153
f 14/14/13 13/13/12 16/16/15
f 16/16/15 13/13/12 171/117/157
f 16/16/15 171/117/157 172/118/158
f 172/118/158 171/117/157 173/13/154
f 172/118/158 173/13/154 174/16/159
f 17/17/16 16/16/15 175/119/160
f 175/119/160 16/16/15 172/118/158
f 175/119/160 172/118/158 176/120/161
f 176/120/161 172/118/158 174/16/159
f 176/120/161 174/16/159 177/119/162
f 156/106/145 178/107/163 179/104/164
f 179/104/164 178/107/163 180/105/165
f 179/104/164 180/105/165 181/102/166
f 181/102/166 180/105/165 182/103/167
f 181/102/166 182/103/167 183/100/88
f 183/100/88 182/103/167 184/101/89
f 19/10/18 18/18/17 185/12/168
f 185/12/168 18/18/17 186/19/169
f 185/12/168 186/19/169 10/10/9
f 10/10/9 186/19/169 187/121/93
f 10/10/9 187/121/93 104/78/96
f 188/62/170 189/64/171 190/63/172
f 190/63/172 189/64/171 191/69/173
f 190/63/172 191/69/173 91/8/84
f 91/8/84 191/69/173 192/7/84
f 91/8/84 192/7/84 92/65/83
f 80/5/74 193/122/174 5/5/5
f 5/5/5 193/122/174 194/122/175
f 5/5/5 194/122/175 195/123/176
f 195/123/176 194/122/175 193/122/174
f 195/123/176 193/122/174 196/123/177
f 196/123/177 193/122/174 80/5/74
f 196/123/177 80/5/74 60/48/54
f 60/48/54 80/5/74 74/58/68
f 60/48/54 74/58/68 58/49/52
f 58/49/52 74/58/68 73/57/67
f 58/49/52 73/57/67 61/51/55
f 77/59/71 65/54/59 197/124/178
f 197/124/178 65/54/59 67/53/61
f 197/124/178 67/53/61 77/59/71
f 77/59/71 67/53/61 198/61/179
f 77/59/71 198/61/179 78/60/72
f 78/60/72 198/61/179 2/2/2
f 78/60/72 2/2/2 79/61/73
f 79/61/73 2/2/2 71/57/65
f 79/61/73 71/57/65 199/49/180
f 199/49/180 71/57/65 72/58/66
f 199/49/180 72/58/66 57/48/51
f 158/72/147 200/125/181 156/106/145
f 156/106/145 200/125/181 95/72/87
f 156/106/145 95/72/87 178/107/163
f 178/107/163 95/72/87 94/71/86
f 178/107/163 94/71/86 180/105/165
f 180/105/165 94/71/86 201/110/182
f 180/105/165 201/110/182 182/103/167
f 182/103/167 201/110/182 202/109/183
f 182/103/167 202/109/183 184/101/89
f 184/101/89 202/109/183 203/108/90
f 187/121/93 20/19/19 104/78/96
f 104/78/96 20/19/19 19/10/18
f 104/78/96 19/10/18 105/11/97
f 105/11/97 19/10/18 12/12/11
f 105/11/97 12/12/11 204/126/184
f 204/126/184 12/12/11 11/11/10
f 204/126/184 11/11/10 205/119/162
f 205/119/162 11/11/10 103/77/95
f 205/119/162 103/77/95 176/120/161
f 176/120/161 103/77/95 105/11/97
f 176/120/161 105/11/97 175/119/160
f 175/119/160 105/11/97 204/126/184
f 175/119/160 204/126/184 17/17/16
f 17/17/16 204/126/184 205/119/162
f 17/17/16 205/119/162 14/14/13
f 14/14/13 205/119/162 174/16/159
f 14/14/13 174/16/159 15/15/14
f 15/15/14 174/16/159 173/13/154
f 72/58/66 6/6/6 57/48/51
f 57/48/51 6/6/6 5/5/5
f 57/48/51 5/5/5 56/47/50
f 56/47/50 5/5/5 195/123/176
f 56/47/50 195/123/176 54/46/48
f 54/46/48 195/123/176 196/123/177
f 54/46/48 196/123/177 55/47/49
f 55/47/49 196/123/177 60/48/54
f 55/47/49 60/48/54 57/48/51
f 57/48/51 60/48/54 59/50/53
f 57/48/51 59/50/53 199/49/180
f 199/49/180 59/50/53 63/51/57
f 199/49/180 63/51/57 79/61/73
f 79/61/73 63/51/57 64/53/58
f 79/61/73 64/53/58 77/59/71
f 77/59/71 64/53/58 206/124/185
f 77/59/71 206/124/185 65/54/59
f 65/54/59 206/124/185 64/53/58
f 65/54/59 64/53/58 66/55/60
f 66/55/60 64/53/58 62/52/56
f 66/55/60 62/52/56 67/53/61
f 67/53/61 62/52/56 61/51/55
f 67/53/61 61/51/55 198/61/179
f 198/61/179 61/51/55 73/57/67
f 198/61/179 73/57/67 2/2/2
f 2/2/2 73/57/67 75/1/69
f 2/2/2 75/1/69 3/3/3
f 3/3/3 75/1/69 139/95/129
f 3/3/3 139/95/129 1/1/1
f 1/1/1 139/95/129 140/42/130
f 1/1/1 140/42/130 68/41/62
f 68/41/62 140/42/130 141/96/131
o cat_00-0001-109
v -41.137920 15.053815 -28.080559
v -40.514835 15.736226 -15.494265
v -42.881416 18.334206 -15.368999
v -43.593105 18.334208 7.089481
v -44.516300 21.049013 30.299561
v -41.297981 20.798672 7.286330
v -38.282593 18.334206 -15.643392
v -38.239719 18.334206 -28.465305
v -40.514835 20.932184 -15.494266
v -41.137920 21.614595 -28.080559
v -43.850346 18.334206 -27.755463
v -47.017220 18.334209 29.756741
v -41.297981 15.869743 7.286330
v -44.516300 15.617549 30.299561
v -39.140049 18.334208 7.468264
v -42.166870 18.334209 30.839399
v -38.282593 18.334206 -15.643392
v -40.514835 20.932184 -15.494266
v -42.881416 18.334206 -15.368999
v -40.514835 15.736226 -15.494265
vn -0.0000 -0.9989 0.0472
vn -0.0000 -0.9997 0.0236
vn -0.9997 -0.0000 0.0236
vn -0.9963 -0.0000 -0.0863
vn 0.0158 0.9998 -0.0079
vn 0.0079 1.0000 -0.0000
vn 0.9999 -0.0000 0.0157
vn 1.0000 -0.0000 -0.0000
vn -0.0000 0.9997 0.0236
vn -0.0000 0.9989 0.0472
vn -0.9963 -0.0000 0.0863
vn -0.9888 -0.0000 -0.1491
vn 0.0079 -1.0000 -0.0000
vn 0.0158 -0.9998 -0.0079
vn 0.9969 -0.0000 0.0785
vn 0.9920 -0.0000 0.1260
vn 0.9999 -0.0000 0.0158
vt 0.304840 0.753113
vt 0.304840 0.837555
vt 0.359589 0.837555
vt 0.359589 0.832489
vt 0.304840 0.996246
vt 0.304840 0.832489
vt 0.254272 0.837555
vt 0.254272 0.753113
vt 0.359589 0.753113
vt 0.359589 0.996246
vt 0.254272 0.832489
vt 0.254272 0.996246
vt 0.254272 0.915466
vt 0.304840 0.915466
vt 0.359589 0.915466
s 1
usemtl cat00
f 207/127/186 208/128/187 209/129/188
f 210/130/189 211/131/190 212/132/191
f 208/128/187 207/127/186 213/133/192
f 213/133/192 207/127/186 214/134/193
f 213/133/192 214/134/193 215/128/194
f 215/128/194 214/134/193 216/127/195
f 215/128/194 216/127/195 209/129/188
f 209/129/188 216/127/195 217/135/196
f 209/129/188 217/135/196 207/127/186
f 211/131/190 210/130/189 218/136/197
f 218/136/197 210/130/189 219/132/198
f 218/136/197 219/132/198 220/131/199
f 220/131/199 219/132/198 221/137/200
f 220/131/199 221/137/200 222/138/201
f 223/139/202 224/140/194 212/132/191
f 212/132/191 224/140/194 225/141/188
f 212/132/191 225/141/188 210/130/189
f 210/130/189 225/141/188 226/140/187
f 210/130/189 226/140/187 219/132/198
f 219/132/198 226/140/187 223/139/202
f 219/132/198 223/139/202 221/137/200
f 221/137/200 223/139/202 212/132/191
f 221/137/200 212/132/191 222/138/201
f 222/138/201 212/132/191 211/131/190
